<svg width="500" height="501" viewBox="0 0 500 501" fill="none" xmlns="http://www.w3.org/2000/svg">
<g clip-path="url(#clip0_1_17)">
<path d="M264.3 481.301C387.183 481.301 486.8 381.684 486.8 258.801C486.8 135.917 387.183 36.3008 264.3 36.3008C141.416 36.3008 41.7998 135.917 41.7998 258.801C41.7998 381.684 141.416 481.301 264.3 481.301Z" fill="#2D769A"/>
<path d="M264.3 464.699C387.183 464.699 486.8 365.083 486.8 242.199C486.8 119.316 387.183 19.6992 264.3 19.6992C141.416 19.6992 41.7998 119.316 41.7998 242.199C41.7998 365.083 141.416 464.699 264.3 464.699Z" fill="url(#paint0_linear_1_17)"/>
<mask id="mask0_1_17" style="mask-type:luminance" maskUnits="userSpaceOnUse" x="191" y="115" width="88" height="27">
<path d="M275.999 115.801L278.499 121.801C267.599 124.601 225.099 130.601 194.199 141.701L191.699 135.701C222.499 124.601 264.999 118.601 275.999 115.801Z" fill="white"/>
</mask>
<g mask="url(#mask0_1_17)">
<path d="M275.999 115.801L278.499 121.801C269.899 124.001 241.999 128.201 215.399 135.201L212.899 129.201C239.499 122.101 267.399 118.001 275.999 115.801Z" fill="#00748F"/>
<path d="M212.9 129.199L215.4 135.199C208.8 136.999 202.2 138.899 196.1 140.999L193.6 134.999C199.7 132.799 206.3 130.899 212.9 129.199Z" fill="#007894"/>
<path d="M193.6 135L196.1 141C195.4 141.2 194.8 141.5 194.1 141.7L191.6 135.7C192.3 135.4 193 135.2 193.6 135Z" fill="#007C99"/>
</g>
<mask id="mask1_1_17" style="mask-type:luminance" maskUnits="userSpaceOnUse" x="275" y="115" width="6" height="7">
<path d="M278.199 115.101L280.699 121.101C280.699 121.101 279.899 121.301 278.399 121.801L275.899 115.801C277.399 115.301 278.199 115.001 278.199 115.101Z" fill="white"/>
</mask>
<g mask="url(#mask1_1_17)">
<path d="M278.199 115.102L280.699 121.102H280.599L278.099 115.102H278.199Z" fill="#00748F"/>
<path d="M278.099 115.102L280.599 121.102C280.299 121.202 279.599 121.402 278.499 121.802L275.999 115.802C277.099 115.402 277.799 115.202 278.099 115.102Z" fill="#007894"/>
</g>
<mask id="mask2_1_17" style="mask-type:luminance" maskUnits="userSpaceOnUse" x="87" y="193" width="72" height="53">
<path d="M155.599 193.5L158.099 199.5C122.099 219.8 100.999 238 90.1992 245.6L87.6992 239.6C98.4992 232 119.599 213.8 155.599 193.5Z" fill="white"/>
</mask>
<g mask="url(#mask2_1_17)">
<path d="M155.599 193.5L158.099 199.5C153.799 201.9 149.799 204.3 145.899 206.6L143.399 200.6C147.299 198.2 151.299 195.9 155.599 193.5Z" fill="#0084A3"/>
<path d="M143.399 200.602L145.899 206.602C134.499 213.502 124.899 220.002 116.899 225.702L114.399 219.702C122.499 213.902 132.099 207.402 143.399 200.602Z" fill="#0089A8"/>
<path d="M114.399 219.699L116.899 225.699C104.699 234.399 96.0994 241.399 90.3994 245.499L87.8994 239.499C93.5994 235.399 102.199 228.399 114.399 219.699Z" fill="#008DAD"/>
<path d="M87.8992 239.5L90.3992 245.5C90.2992 245.5 90.2992 245.6 90.1992 245.6L87.6992 239.6C87.7992 239.6 87.8992 239.5 87.8992 239.5Z" fill="#0089A8"/>
</g>
<path d="M334.8 155.701L337.3 161.601L289.6 147.801L287.1 141.801L334.8 155.701Z" fill="#006981"/>
<path d="M287.1 141.801L289.6 147.801L258.3 197.901L255.8 191.901L287.1 141.801Z" fill="#00A3C9"/>
<mask id="mask3_1_17" style="mask-type:luminance" maskUnits="userSpaceOnUse" x="413" y="119" width="52" height="13">
<path d="M462.3 125.199L464.8 131.199C449.1 126.699 429.3 125.699 416.1 125.699L413.6 119.699C426.8 119.699 446.6 120.599 462.3 125.199Z" fill="white"/>
</mask>
<g mask="url(#mask3_1_17)">
<path d="M462.3 125.199L464.8 131.199C449.1 126.699 429.3 125.699 416.1 125.699L413.6 119.699C426.8 119.699 446.6 120.599 462.3 125.199Z" fill="#006C85"/>
</g>
<mask id="mask4_1_17" style="mask-type:luminance" maskUnits="userSpaceOnUse" x="334" y="155" width="26" height="22">
<path d="M356.8 170.899L359.3 176.899C356.5 170.199 348.8 164.999 337.3 161.699L334.8 155.699C346.2 158.999 353.9 164.199 356.8 170.899Z" fill="white"/>
</mask>
<g mask="url(#mask4_1_17)">
<path d="M356.8 170.899L359.3 176.899C356.5 170.199 348.8 164.999 337.3 161.699L334.8 155.699C346.2 158.999 353.9 164.199 356.8 170.899Z" fill="#006C85"/>
</g>
<mask id="mask5_1_17" style="mask-type:luminance" maskUnits="userSpaceOnUse" x="23" y="239" width="68" height="87">
<path d="M27.1995 325.9L24.6995 319.9C18.8995 306.1 32.1995 281.8 87.7995 239.5L90.2995 245.5C34.5995 287.9 21.3995 312.1 27.1995 325.9Z" fill="white"/>
</mask>
<g mask="url(#mask5_1_17)">
<path d="M87.7996 239.602L90.2996 245.602C81.7996 252.102 74.1996 258.102 67.5996 263.802L65.0996 257.802C71.6996 252.102 79.1996 246.102 87.7996 239.602Z" fill="#008DAD"/>
<path d="M64.9992 257.801L67.4992 263.801C58.6992 271.301 51.4992 278.201 45.6992 284.401L43.1992 278.401C48.9992 272.201 56.1992 265.301 64.9992 257.801Z" fill="#0091B3"/>
<path d="M43.2992 278.402L45.7992 284.402C33.3992 297.702 27.4992 308.102 26.1992 316.202L23.6992 310.202C24.8992 302.102 30.7992 291.702 43.2992 278.402Z" fill="#0095B8"/>
<path d="M23.6994 310.203L26.1994 316.203C25.9994 317.403 25.8994 318.603 25.8994 319.703L23.3994 313.703C23.3994 312.503 23.4994 311.403 23.6994 310.203Z" fill="#0091B3"/>
<path d="M23.3994 313.602L25.8994 319.602C25.8994 320.502 25.9994 321.302 26.0994 322.102L23.5994 316.102C23.4994 315.302 23.3994 314.502 23.3994 313.602Z" fill="#008DAD"/>
<path d="M23.5996 316.102L26.0996 322.102C26.1996 322.802 26.3996 323.502 26.5996 324.202L24.0996 318.202C23.7996 317.602 23.6996 316.902 23.5996 316.102Z" fill="#0089A8"/>
<path d="M23.999 318.203L26.499 324.203C26.699 324.803 26.899 325.403 27.099 325.903L24.599 319.903C24.399 319.403 24.199 318.803 23.999 318.203Z" fill="#0084A3"/>
</g>
<mask id="mask6_1_17" style="mask-type:luminance" maskUnits="userSpaceOnUse" x="462" y="125" width="26" height="22">
<path d="M485.4 140.999L487.9 146.999C484.7 139.399 475.8 134.399 464.8 131.199L462.3 125.199C473.2 128.399 482.2 133.299 485.4 140.999Z" fill="white"/>
</mask>
<g mask="url(#mask6_1_17)">
<path d="M485.4 140.999L487.9 146.999C484.7 139.399 475.8 134.399 464.8 131.199L462.3 125.199C473.2 128.399 482.2 133.299 485.4 140.999Z" fill="#006C85"/>
</g>
<mask id="mask7_1_17" style="mask-type:luminance" maskUnits="userSpaceOnUse" x="495" y="127" width="5" height="27">
<path d="M495.6 127.199L498.1 133.199C502.5 143.799 497.9 152.999 497.5 153.799L495 147.799C495.4 146.999 500 137.799 495.6 127.199Z" fill="white"/>
</mask>
<g mask="url(#mask7_1_17)">
<path d="M495.601 127.199L498.101 133.199C498.501 134.099 498.801 134.999 499.101 135.899L496.601 129.899C496.301 128.999 496.001 128.099 495.601 127.199Z" fill="#0084A3"/>
<path d="M496.5 129.898L499 135.898C499.3 136.898 499.5 137.898 499.7 138.898L497.2 132.898C497 131.998 496.8 130.998 496.5 129.898Z" fill="#0089A8"/>
<path d="M497.2 132.898L499.7 138.898C499.9 140.098 500 141.198 500 142.298L497.5 136.298C497.5 135.298 497.4 134.098 497.2 132.898Z" fill="#008DAD"/>
<path d="M497.5 136.398L500 142.398C500 143.898 499.9 145.298 499.7 146.598L497.2 140.598C497.4 139.298 497.5 137.898 497.5 136.398Z" fill="#0091B3"/>
<path d="M497.2 140.5L499.7 146.5C499.1 150.6 497.7 153.4 497.4 153.8L494.9 147.8C495.2 147.4 496.6 144.6 497.2 140.5Z" fill="#0095B8"/>
</g>
<path d="M268.999 257.601L271.599 263.601L225.699 250.301L223.199 244.301L268.999 257.601Z" fill="#006981"/>
<path d="M90.2998 337L92.7998 342.9L72.2998 337L69.7998 331L90.2998 337Z" fill="#006981"/>
<path d="M223.2 244.301L225.7 250.301L189.1 309.001L186.5 303.001L223.2 244.301Z" fill="#00A3C9"/>
<mask id="mask8_1_17" style="mask-type:luminance" maskUnits="userSpaceOnUse" x="447" y="154" width="9" height="51">
<path d="M449.5 154.199L452 160.199C457.9 174.199 456.5 189.399 449.5 204.299L447 198.299C454 183.299 455.4 168.199 449.5 154.199Z" fill="white"/>
</mask>
<g mask="url(#mask8_1_17)">
<path d="M449.5 154.199L452 160.199C452.7 161.899 453.4 163.699 453.9 165.499L451.4 159.499C450.9 157.699 450.2 155.899 449.5 154.199Z" fill="#0084A3"/>
<path d="M451.4 159.398L453.9 165.398C454.5 167.298 454.9 169.298 455.2 171.298L452.7 165.298C452.3 163.298 451.9 161.398 451.4 159.398Z" fill="#0089A8"/>
<path d="M452.601 165.301L455.101 171.301C455.401 173.501 455.601 175.701 455.601 177.901L453.101 171.901C453.201 169.701 453.001 167.501 452.601 165.301Z" fill="#008DAD"/>
<path d="M453.201 171.898L455.701 177.898C455.701 180.698 455.501 183.498 455.101 186.298L452.601 180.298C453.001 177.498 453.201 174.698 453.201 171.898Z" fill="#0091B3"/>
<path d="M452.6 180.398L455.1 186.398C454.2 192.298 452.3 198.298 449.4 204.298L446.9 198.298C449.8 192.298 451.7 186.298 452.6 180.398Z" fill="#0095B8"/>
</g>
<mask id="mask9_1_17" style="mask-type:luminance" maskUnits="userSpaceOnUse" x="366" y="202" width="81" height="57">
<path d="M444.5 202.902L447 208.902C446.3 210.202 445.6 211.402 444.9 212.702C427.2 241.102 398 256.502 368.8 258.402L366.3 252.402C395.5 250.502 424.7 235.102 442.4 206.702C443.2 205.402 443.8 204.202 444.5 202.902Z" fill="white"/>
</mask>
<g mask="url(#mask9_1_17)">
<path d="M444.499 202.902L446.999 208.902C446.299 210.202 445.599 211.402 444.899 212.702C441.499 218.202 437.599 223.302 433.399 227.802L430.899 221.802C435.099 217.302 438.999 212.202 442.399 206.702C443.199 205.402 443.799 204.202 444.499 202.902Z" fill="#0095B8"/>
<path d="M430.799 221.801L433.299 227.801C430.799 230.501 428.199 233.001 425.399 235.401L422.899 229.401C425.699 227.001 428.299 224.501 430.799 221.801Z" fill="#0091B3"/>
<path d="M423 229.301L425.5 235.301C423.3 237.201 421.1 238.901 418.8 240.501L416.3 234.501C418.6 232.901 420.8 231.201 423 229.301Z" fill="#008DAD"/>
<path d="M416.299 234.602L418.799 240.602C416.799 242.002 414.699 243.402 412.699 244.702L410.199 238.702C412.199 237.302 414.299 236.002 416.299 234.602Z" fill="#0089A8"/>
<path d="M410.1 238.602L412.6 244.602C410.6 245.802 408.6 246.902 406.6 248.002L404.1 242.002C406.1 240.902 408.2 239.802 410.1 238.602Z" fill="#0084A3"/>
<path d="M404.099 242.004L406.599 248.004C404.599 249.004 402.599 250.004 400.499 250.904L397.999 244.904C400.099 243.904 402.099 243.004 404.099 242.004Z" fill="#00809E"/>
<path d="M398 244.801L400.5 250.801C398.4 251.701 396.3 252.501 394.1 253.301L391.6 247.301C393.8 246.501 395.9 245.701 398 244.801Z" fill="#007C99"/>
<path d="M391.6 247.301L394.1 253.301C391.8 254.101 389.5 254.801 387.1 255.401L384.6 249.401C387 248.801 389.3 248.101 391.6 247.301Z" fill="#007894"/>
<path d="M384.699 249.402L387.199 255.402C384.499 256.102 381.899 256.702 379.199 257.202L376.699 251.202C379.299 250.702 381.999 250.102 384.699 249.402Z" fill="#00748F"/>
<path d="M376.599 251.203L379.099 257.203C375.699 257.803 372.299 258.203 368.899 258.403L366.399 252.403C369.899 252.203 373.299 251.803 376.599 251.203Z" fill="#00708A"/>
<path d="M366.499 252.402L368.999 258.402H368.899L366.399 252.402C366.399 252.402 366.399 252.402 366.499 252.402Z" fill="#006C85"/>
</g>
<mask id="mask10_1_17" style="mask-type:luminance" maskUnits="userSpaceOnUse" x="444" y="147" width="54" height="66">
<path d="M494.9 147.801L497.4 153.801C487.9 186.101 448.8 211.001 446.8 212.301L444.3 206.301C446.4 205.001 485.4 180.101 494.9 147.801Z" fill="white"/>
</mask>
<g mask="url(#mask10_1_17)">
<path d="M494.9 147.801L497.4 153.801C493.7 166.401 485.5 177.901 476.7 187.201L474.2 181.201C483 171.901 491.2 160.401 494.9 147.801Z" fill="#0095B8"/>
<path d="M474.3 181.301L476.8 187.301C472.6 191.801 468.2 195.901 464.2 199.401L461.7 193.401C465.7 189.901 470 185.801 474.3 181.301Z" fill="#0091B3"/>
<path d="M461.6 193.301L464.1 199.301C459.5 203.301 455.2 206.501 452.1 208.701L449.6 202.701C452.7 200.501 457 197.301 461.6 193.301Z" fill="#008DAD"/>
<path d="M449.6 202.699L452.1 208.699C449.2 210.799 447.2 211.999 446.8 212.299L444.3 206.299C444.7 206.099 446.7 204.799 449.6 202.699Z" fill="#0089A8"/>
</g>
<mask id="mask11_1_17" style="mask-type:luminance" maskUnits="userSpaceOnUse" x="1" y="323" width="119" height="31">
<path d="M4.39941 329.5L1.89941 323.5C5.89941 333 15.8994 339 28.3994 342.7C59.8994 351.9 107.599 346.1 117.399 344.8L119.899 350.8C110.099 352.1 62.3994 357.8 30.8994 348.7C18.3994 345.1 8.49941 339.1 4.39941 329.5Z" fill="white"/>
</mask>
<g mask="url(#mask11_1_17)">
<path d="M117.4 344.801L119.9 350.801C116.4 351.301 108 352.301 97.2998 353.001L94.7998 347.001C105.5 346.401 113.9 345.301 117.4 344.801Z" fill="#00708A"/>
<path d="M94.7994 347.102L97.2994 353.102C77.9994 354.402 51.0994 354.602 30.8994 348.802C18.3994 345.202 8.39941 339.202 4.39941 329.602L1.89941 323.602C5.89941 333.102 15.8994 339.102 28.3994 342.802C48.5994 348.602 75.4994 348.402 94.7994 347.102Z" fill="#006C85"/>
</g>
<mask id="mask12_1_17" style="mask-type:luminance" maskUnits="userSpaceOnUse" x="269" y="257" width="28" height="24">
<path d="M294.1 274.802L296.6 280.802C293.6 273.702 285.7 267.702 271.6 263.602L269.1 257.602C283.2 261.702 291.1 267.702 294.1 274.802Z" fill="white"/>
</mask>
<g mask="url(#mask12_1_17)">
<path d="M294.1 274.802L296.6 280.802C293.6 273.702 285.7 267.702 271.6 263.602L269.1 257.602C283.2 261.702 291.1 267.702 294.1 274.802Z" fill="#006C85"/>
</g>
<path d="M217.799 374.001L220.399 380.001L119.899 350.801L117.399 344.801L217.799 374.001Z" fill="#006981"/>
<mask id="mask13_1_17" style="mask-type:luminance" maskUnits="userSpaceOnUse" x="217" y="274" width="174" height="114">
<path d="M384.2 274.902L386.7 280.902C392.5 294.602 392.4 312.202 379.7 332.602C352.5 376.302 294.1 401.402 220.3 380.002L217.8 374.002C291.5 395.402 349.9 370.302 377.2 326.602C389.9 306.202 390 288.702 384.2 274.902Z" fill="white"/>
</mask>
<g mask="url(#mask13_1_17)">
<path d="M384.199 274.902L386.699 280.902C387.399 282.602 387.999 284.402 388.599 286.202L386.099 280.202C385.499 278.402 384.899 276.602 384.199 274.902Z" fill="#0084A3"/>
<path d="M386.1 280.203L388.6 286.203C389.2 288.103 389.6 290.003 389.9 292.003L387.4 286.003C387 284.103 386.6 282.103 386.1 280.203Z" fill="#0089A8"/>
<path d="M387.3 286.102L389.8 292.102C390.1 294.202 390.3 296.402 390.3 298.702L387.8 292.702C387.9 290.402 387.7 288.202 387.3 286.102Z" fill="#008DAD"/>
<path d="M387.9 292.602L390.4 298.602C390.4 301.302 390.2 304.002 389.8 306.902L387.3 300.902C387.7 298.102 387.9 295.302 387.9 292.602Z" fill="#0091B3"/>
<path d="M387.299 300.902L389.799 306.902C388.599 314.802 385.399 323.402 379.699 332.602C375.999 338.502 371.699 344.102 366.899 349.302L364.399 343.302C369.199 338.102 373.499 332.502 377.199 326.602C382.899 317.502 386.099 308.902 387.299 300.902Z" fill="#0095B8"/>
<path d="M364.399 343.301L366.899 349.301C363.999 352.401 360.999 355.301 357.699 358.101L355.199 352.101C358.499 349.401 361.599 346.401 364.399 343.301Z" fill="#0091B3"/>
<path d="M355.299 352.203L357.799 358.203C355.299 360.403 352.599 362.403 349.899 364.403L347.399 358.403C350.099 356.403 352.699 354.303 355.299 352.203Z" fill="#008DAD"/>
<path d="M347.399 358.301L349.899 364.301C347.499 366.001 344.999 367.701 342.399 369.201L339.899 363.201C342.399 361.701 344.899 360.101 347.399 358.301Z" fill="#0089A8"/>
<path d="M339.899 363.301L342.399 369.301C339.999 370.801 337.499 372.101 334.999 373.501L332.499 367.501C334.999 366.101 337.499 364.701 339.899 363.301Z" fill="#0084A3"/>
<path d="M332.399 367.402L334.899 373.402C332.399 374.702 329.799 375.902 327.199 377.002L324.699 371.002C327.299 369.902 329.899 368.702 332.399 367.402Z" fill="#00809E"/>
<path d="M324.699 371.102L327.199 377.102C324.499 378.302 321.699 379.302 318.899 380.302L316.399 374.302C319.199 373.302 321.999 372.202 324.699 371.102Z" fill="#007C99"/>
<path d="M316.399 374.301L318.899 380.301C315.899 381.401 312.699 382.301 309.499 383.201L306.999 377.201C310.199 376.301 313.299 375.301 316.399 374.301Z" fill="#007894"/>
<path d="M306.999 377.102L309.499 383.102C305.799 384.102 301.999 384.902 297.999 385.602L295.499 379.602C299.499 378.902 303.299 378.102 306.999 377.102Z" fill="#00748F"/>
<path d="M295.6 379.602L298.1 385.602C293.1 386.502 287.9 387.102 282.6 387.502L280.1 381.502C285.4 381.102 290.6 380.502 295.6 379.602Z" fill="#00708A"/>
<path d="M280.099 381.502L282.599 387.502C263.499 388.802 242.599 386.502 220.399 380.102L217.899 374.102C240.099 380.502 260.999 382.702 280.099 381.502Z" fill="#006C85"/>
</g>
<path d="M366.3 252.401C384 265.901 398.6 292.201 377.2 326.601C350 370.301 291.6 395.401 217.8 374.001L117.4 344.801C107.6 346.101 59.8997 351.801 28.3997 342.701C4.19968 335.701 -10.4003 319.901 8.89968 286.701C56.2997 205.001 185.9 150.301 255.9 122.901C262.1 120.501 268.5 118.201 274.9 116.101C277.3 115.301 277.7 115.201 278.2 115.001C278.3 114.901 277.5 115.201 275.9 115.701C265 118.501 222.5 124.501 191.6 135.601L235.7 64.8008L351.5 98.5008C392.3 93.1008 431 94.2008 459.6 102.501C510.5 117.301 495.8 146.301 495 147.801C485.5 180.101 446.4 205.001 444.4 206.301L444.6 202.901C443.9 204.201 443.2 205.401 442.5 206.701C424.7 235.101 395.5 250.501 366.3 252.401ZM43.4997 333.301C57.8997 337.501 77.0997 337.601 90.2997 336.901L69.7997 331.001L155.6 193.501C119.6 213.801 98.4997 232.001 87.6997 239.601C5.49969 302.101 15.7997 325.301 43.4997 333.301ZM462.3 125.201C446.6 120.701 426.8 119.701 413.6 119.701C453 140.001 460.5 169.601 446.9 198.301C504.7 152.601 490 133.201 462.3 125.201ZM230.8 315.901C259.3 324.201 278.3 316.601 290.2 297.501C300.6 280.801 296.6 265.601 269 257.601L223.1 244.301L186.5 303.001L230.8 315.901ZM287.1 141.801L255.9 191.901L304.3 206.001C328.1 212.901 344.7 204.701 353.7 190.201C364 173.701 355.7 161.701 334.9 155.701L287.1 141.801Z" fill="#00ADD5"/>
</g>
<defs>
<linearGradient id="paint0_linear_1_17" x1="266.44" y1="24.4327" x2="262.121" y2="458.624" gradientUnits="userSpaceOnUse">
<stop stop-color="#F9B9BB"/>
<stop offset="1" stop-color="#FABBA8"/>
</linearGradient>
<clipPath id="clip0_1_17">
<rect width="500" height="500" fill="white" transform="translate(0 0.5)"/>
</clipPath>
</defs>
</svg>
