<svg width="500" height="501" viewBox="0 0 500 501" fill="none" xmlns="http://www.w3.org/2000/svg">
<path d="M345.9 482.601H498.1L384.6 320.801C443.7 296.301 482.4 249.201 482.4 178.201V176.801C482.4 131.001 468.2 95.2008 440.2 68.7008C428.2 56.7008 413.5 46.6008 396 38.6008V37.9008H394.4C365.8 25.3008 329.7 18.3008 285.3 18.3008H60.3998V37.9008V88.5008C56.8998 93.5008 52.3998 100.301 47.9998 107.401C38.8998 122.101 38.6998 133.501 38.6998 133.501C38.6998 133.501 23.2998 154.001 17.2998 178.601C11.2998 203.101 12.2998 223.701 12.2998 223.701C12.1998 223.901 11.8998 225.001 11.3998 227.001C9.7998 233.501 7.2998 249.401 11.5998 273.501C17.1998 305.701 1.7998 362.801 1.7998 362.801C3.4998 357.101 5.5998 352.101 8.0998 347.601C13.2998 333.501 20.0998 311.301 21.7998 287.601C24.5998 248.001 57.8998 232.201 57.8998 232.201C57.8998 232.201 51.6998 234.501 39.9998 240.901C28.2998 247.301 20.3998 258.701 20.3998 258.701C20.3998 258.701 19.2998 246.301 26.1998 223.101C33.0998 199.901 58.4998 184.701 58.4998 184.701C58.4998 184.701 50.9998 184.701 40.3998 189.701C29.8998 194.701 24.8998 200.601 24.8998 200.601C24.8998 200.601 25.5998 184.101 40.3998 153.601C45.5998 142.901 52.9998 135.101 60.4998 129.501C66.7998 124.801 72.9998 121.701 77.9998 119.601L78.4998 119.401L79.4998 119.001L79.9998 118.801C80.6998 118.601 81.1998 118.301 81.7998 118.201L82.0998 118.001H82.1998L82.5998 117.801L82.9998 117.601L83.2998 117.401L83.6998 117.201L83.8998 117.101L84.0998 117.001C84.3998 116.901 84.7998 116.801 85.0998 116.701L85.3998 116.601L85.5998 116.501L85.7998 116.401H85.9998L86.1998 116.301L86.3998 116.201L86.5998 116.101H86.6998L86.8998 116.001H86.9998H87.1998H87.3998L87.5998 115.901H87.6998H87.7998H87.8998H87.9998H88.0998C76.4998 114.201 61.1998 119.301 51.2998 124.901C52.5998 121.601 57.2998 111.901 60.2998 107.601C66.3998 98.0008 75.4998 86.5008 87.8998 78.7008C112.7 63.5008 148 69.5008 148 69.5008C148 69.5008 137.7 63.3008 122.9 63.6008C108.1 63.9008 101.9 66.3008 101.9 66.3008C101.9 66.3008 116.7 50.2008 149 43.5008C174.2 38.2008 192.3 43.3008 199 45.8008C200.6 40.1008 202.3 36.2008 202.3 36.2008C202.3 36.2008 205.6 34.5008 218.7 39.7008C222.9 41.4008 226.6 43.3008 229.7 45.1008C229.7 45.1008 238.3 50.5008 248.3 60.0008C258.3 69.6008 281.6 72.0008 297.1 84.7008C302.6 89.3008 309 95.2008 313.5 100.701C323.3 112.601 324.1 122.701 324.1 122.701C324.1 122.701 349.2 137.901 368.2 161.401C384.7 182.301 401.2 202.401 413.3 210.701C429.7 222.001 419.8 222.301 421.7 239.301C423.6 256.301 405.8 266.901 397.6 268.401C389.4 269.901 382.5 277.301 382.5 277.301C372.3 283.301 353.8 280.701 348.2 270.401C341.2 257.301 341.8 256.701 332.9 253.001C324 249.301 328.1 242.101 328.1 242.101C328.1 242.101 323.6 238.101 314.7 237.701C306.3 237.401 287.8 235.101 285.5 234.901H285C283.9 234.701 282.9 234.601 281.8 234.501C275 235.501 267 236.101 258.6 235.001C275.1 316.101 326.8 357.901 345.9 482.601Z" fill="black"/>
<path d="M317.1 225.8C317.1 225.8 332.7 223.5 348.6 236.4L348.8 236.6C349.5 236.1 350.3 235.6 351.3 235.2C358.3 231.4 369.4 234.5 369.4 234.5C369.4 234.5 362.9 234.3 356.5 237.2C354.7 238 353.5 239.1 352.8 240.2C350.8 243.2 351.9 246.6 352.7 247.8C353.9 249.3 358.3 250.1 362.6 254C366.9 257.9 366.5 267 373.8 268.4C375.4 268.7 376.9 268.6 378.4 268.2C376.5 266.8 374.4 264.3 371.9 261.3C374.5 264.4 376.7 266.8 378.4 268.2C383.3 267 386.8 262.7 386.8 262.7C386.8 262.7 383.7 261 381.7 257.9C379.7 254.8 375.3 252.3 375.3 252.3C375.3 252.3 380.1 251.3 383.8 253.7C387.5 256.1 388 259.3 394.1 260.8C400.1 262.2 408.6 257.8 408.6 257.8C411 256.5 413.1 254.8 414.9 252.5C421.6 243.7 415.7 235.4 415.7 235.4C415.7 235.4 413.8 241.3 410.9 243.3C408 245.3 407.1 245.3 407.1 245.3C407.1 245.3 412.6 236 409.7 230.9C406.8 225.8 396.9 227.8 394.4 228.6C391.9 229.6 392 234 392 234C392 234 384.7 229.7 385.8 220C386.9 210.4 393.2 207.5 393.2 207.5C393.2 207.5 370.6 174.9 350.4 160.4C330.3 145.6 320 142.5 320 142.5C320 142.5 321 149.1 321 153.9C321 158.7 320.7 161.1 320.7 161.1C320.7 161.1 308.5 161.8 298.4 153.4C297.4 152.5 296.5 151.6 295.8 150.7C295.2 150 294.7 149.3 294.3 148.5C291.9 144.6 291.1 140.4 290.9 137.1C290.7 133.6 291.2 131.1 291.2 131.1C291.2 131.1 291.2 131.1 288.1 128C285 124.9 277.2 119.3 277.2 119.3C277.2 119.3 288.8 120.8 298.1 125.6C307.5 130.3 308.6 131 308.6 131C308.6 131 307.3 105.2 261.8 99.9C259.2 99.6 256.9 99.3 254.6 99.2C254.7 95.1 253.7 84.9 244 73.1C231.3 57.7 210.1 50.5 210.1 50.5C210.1 50.5 204.1 64 207.8 79.9C210.1 89.8 216.8 96.4 221.5 99.9C221.5 99.9 227.4 103.5 230.9 105.1C234.4 106.7 234.4 106.7 234.4 106.7L223.3 104.7C223.3 104.7 165.1 114.5 132.9 151.2C100.7 187.9 98.3 249.2 97.9 294.2C97.5 339.2 90.8 356.1 90.8 356.1C90.8 356.1 91.9 344.9 92.9 322C94 299 82.8 224.2 109.7 166.9C136.6 109.6 212.5 99.8 212.5 99.8C212.5 99.8 212.5 99.8 210.4 97.9C208.3 96 206.6 91.7 206.6 91.7C94.5 110.4 79.6 187.3 79.6 282.8C79.6 340.8 84.9 423.6 34 466.7C34 466.7 72.6 464 101.9 432.9C131.2 401.8 126.2 373.4 126.2 373.4C126.2 373.4 136.9 395.7 126.9 418.7C116.9 441.7 109.4 450.2 109.4 450.2C109.4 450.2 177.6 418.7 161.9 352.5C150.3 303.5 157.8 272.2 162.5 259.3C162.5 259.3 160.3 279.7 164 298C165.1 307.1 167.2 316.4 171.1 325.1C185 356.6 187.4 385.9 181.5 411.6C175.5 437.3 156.5 462 156.5 462C232.1 427 229.4 331 209.6 286.1C209.6 286.1 209.6 307.6 205 320.4C200.4 333.2 193.7 340.3 193.7 340.3C193.7 340.3 205.7 306.2 184.3 261.6C162.9 217 180.4 186 180.4 186C180.4 186 186.2 204.5 192.4 211.7C198.5 218.9 201.8 220.5 201.8 220.5C201.8 220.5 193.5 204.2 194.7 181.1C196 157.9 205 150.8 205 150.8C205 150.8 201.9 160.9 204.5 170.8C207.1 180.8 209.2 183.1 209.2 183.1C209.2 183.1 212.1 166.8 221.2 156.9C221.7 156.3 222.2 155.9 222.6 155.4C222.2 159.9 222.1 165.2 222.9 170.6C222.9 170.6 223.6 197.6 247.8 213.2C272.1 228.9 297.6 221.5 315 218.4C332.3 215.3 343.1 215.3 343.1 215.3C343.1 215.3 328.8 217.3 317.1 225.8ZM292 140.3C291.9 140.1 291.9 140.1 291.8 139.9L292 140.3Z" fill="black"/>
</svg>
