<svg width="500" height="501" viewBox="0 0 500 501" fill="none" xmlns="http://www.w3.org/2000/svg">
<path d="M275.4 2.5H222.6V89.2L150.8 16.9L113.5 54.5L185.3 126.8L222.6 89.3V145.6L154.7 214L55.5 114.2L18.2 151.7L91.2 225.2H2V278.3H87.5L16.8 349.5L54.1 387L124.8 315.8L87.5 278.3H143.9L193.2 327.9L230.5 290.4L192 251.4L386.5 55.7L349.2 18.2L275.4 92.5V2.5Z" fill="#63ADF2"/>
<path d="M277.4 498.501H224.6V408.501L150.8 482.801L113.5 445.301L308 249.601L269.4 210.801L306.7 173.301L356 222.901H412.4H498V276.001H408.8L481.8 349.501L444.5 387.001L345.3 287.201L277.4 355.601V411.901L314.7 374.401L386.5 446.701L349.2 484.201L277.4 411.901V498.501Z" fill="#63ADF2"/>
<path d="M412.5 222.802L483.2 151.602L445.9 114.102L375.2 185.302L412.5 222.802Z" fill="#63ADF2"/>
</svg>
