<svg width="500" height="501" viewBox="0 0 500 501" fill="none" xmlns="http://www.w3.org/2000/svg">
<path d="M250.7 477.631C126.29 477.721 25.3198 376.511 25.2598 251.661C25.1898 125.521 125.61 24.3606 250.85 24.3906C375.4 24.4206 475.79 125.711 475.77 251.311C475.74 376.371 375.14 477.531 250.7 477.631Z" fill="#FF7E00"/>
<path d="M250.07 499.379C183.65 499.379 121.19 473.559 74.1802 426.669C27.1202 379.729 1.1902 317.329 1.1602 250.939C1.1202 183.889 26.9502 121.059 73.8602 74.0294C120.77 27.0094 183.45 1.10938 250.34 1.10938C250.36 1.10938 250.39 1.10938 250.41 1.10938C316.97 1.12937 379.44 27.0494 426.3 74.0894C473.15 121.119 498.95 183.799 498.93 250.569C498.92 317.059 473.07 379.529 426.15 426.479C379.22 473.439 316.75 499.319 250.25 499.369C250.2 499.379 250.13 499.379 250.07 499.379ZM250.34 11.0594C186.13 11.0594 125.98 35.9094 80.9602 81.0394C35.9202 126.199 11.1302 186.529 11.1602 250.939C11.1902 314.669 36.0902 374.579 81.2602 419.639C126.38 464.649 186.33 489.429 250.08 489.429C250.14 489.429 250.2 489.429 250.26 489.429C314.08 489.379 374.03 464.539 419.07 419.469C464.12 374.399 488.93 314.409 488.94 250.569C488.95 186.439 464.19 126.259 419.2 81.0994C374.23 35.9494 314.29 11.0794 250.41 11.0594C250.39 11.0594 250.36 11.0594 250.34 11.0594Z" fill="#FF7E00"/>
<path d="M357.85 280.679C358.44 286.809 354.89 291.069 351.3 294.939C339.87 307.269 328.55 319.759 316.5 331.459C286.73 360.359 256.08 388.309 223.05 413.519C220.93 415.139 218.73 416.639 216.52 418.129C205.83 425.299 204.46 425.109 199.73 413.349C195.21 402.099 191.04 390.669 187.38 379.109C172.67 332.649 159.59 285.739 150.27 237.849C149.25 232.629 148 227.289 148.21 222.059C148.38 218.029 149.64 213.179 152.2 210.269C163.74 197.159 175.47 184.139 187.97 171.939C218.15 142.499 249.29 114.099 282.89 88.5493C286.46 85.8393 290.24 83.3593 294.12 81.1193C299.29 78.1293 301.01 78.4293 303.38 84.0193C307.98 94.8793 312.49 105.829 316.13 117.039C331 162.929 343.87 209.379 353.73 256.629C355.38 264.589 356.49 272.659 357.85 280.679Z" fill="white"/>
</svg>
