<svg width="500" height="501" viewBox="0 0 500 501" fill="none" xmlns="http://www.w3.org/2000/svg">
<path d="M327.8 237.701L344.2 221.301C350.3 215.101 350.3 205.201 344.2 199.001L261.2 116.001C255 109.901 245.1 109.901 238.9 116.001L155.9 199.001C149.8 205.201 149.8 215.101 155.9 221.301L172.3 237.701V372.401L155.9 388.801C149.8 395.001 149.8 404.901 155.9 411.101L238.9 494.101C245.1 500.201 255 500.201 261.2 494.101L344.2 411.101C350.3 404.901 350.3 395.001 344.2 388.801L327.8 372.401V237.701ZM281.2 303.501V366.301C281.2 370.501 279.5 374.501 276.6 377.401L250 404.101L223.4 377.501C220.5 374.501 218.8 370.501 218.8 366.401V244.001C218.8 239.801 220.5 235.801 223.4 232.901L250 206.301L276.6 232.901C279.5 235.901 281.2 239.901 281.2 244.001V303.501Z" fill="black"/>
<path d="M431.3 82.4992L355.7 6.89922C349.5 0.799219 339.6 0.799219 333.4 6.89922L323.6 16.6992C320.6 19.5992 316.6 21.2992 312.5 21.2992H187.4C183.2 21.2992 179.2 19.5992 176.3 16.6992L166.5 6.89922C160.3 0.799219 150.4 0.799219 144.2 6.89922L68.7 82.4992C62.6 88.6992 62.6 98.5992 68.7 104.799L97.1 133.199C103.3 139.299 113.2 139.299 119.4 133.199L180 72.4992C183 69.5992 187 67.8992 191.1 67.8992H308.8C313 67.8992 317 69.5992 319.9 72.4992L380.6 133.199C386.8 139.299 396.7 139.299 402.9 133.199L431.3 104.799C437.4 98.5992 437.4 88.5992 431.3 82.4992Z" fill="black"/>
</svg>
