<svg width="500" height="501" viewBox="0 0 500 501" fill="none" xmlns="http://www.w3.org/2000/svg">
<path d="M250.4 498.902C387.588 498.902 498.8 387.689 498.8 250.502C498.8 113.314 387.588 2.10156 250.4 2.10156C113.212 2.10156 2 113.314 2 250.502C2 387.689 113.212 498.902 250.4 498.902Z" fill="url(#paint0_linear_1_197)"/>
<path d="M123.3 88.6016C123.3 88.6016 91.5 104.202 91.5 147.002C91.5 189.802 130.7 198.102 138 198.102H266.7C298.5 198.102 324.3 223.902 324.3 255.702C324.3 287.402 298.7 313.202 266.9 313.302L214.7 313.502C204.5 313.502 196.2 321.902 196.2 332.102V369.102C196.2 369.102 221.1 386.402 260.5 386.402C308.2 386.402 386.1 346.502 386.1 260.802C386.1 168.702 309.9 131.302 257.9 132.602C205.8 133.902 178 135.902 167.8 135.902C157.6 135.902 117.3 135.902 117.3 112.902C117.3 97.5016 123.3 88.6016 123.3 88.6016Z" fill="white"/>
<path d="M91.1003 214C91.1003 214 88.3003 250.1 104.3 269.9C117.2 285.9 136.8 285.6 136.8 285.6C139.1 302.8 146.5 319.6 158.3 336V333.3C158.3 301.2 184.3 275.2 216.4 275.2H266.2C277.1 275.2 286 266.3 286 255.4C286 244.5 277.1 235.6 266.2 235.6H126.7C111.2 235.7 98.8003 229.5 91.1003 214Z" fill="white"/>
<defs>
<linearGradient id="paint0_linear_1_197" x1="1.9942" y1="250.496" x2="498.811" y2="250.496" gradientUnits="userSpaceOnUse">
<stop stop-color="#AA43F7"/>
<stop offset="1" stop-color="#52009A"/>
</linearGradient>
</defs>
</svg>
