<svg width="500" height="501" viewBox="0 0 500 501" fill="none" xmlns="http://www.w3.org/2000/svg">
<g clip-path="url(#clip0_1_201)">
<path d="M250 499.999C383.3 499.999 491.4 392.799 491.4 260.599C491.4 128.399 383.3 21.1992 250 21.1992C116.7 21.2992 8.6001 128.399 8.6001 260.599C8.6001 392.799 116.7 499.999 250 499.999Z" fill="#ECF3FF"/>
<path d="M184.8 114.601L100.3 81.1008V93.1008L172.7 157.701L167.9 224.701L146.2 315.701L117.2 356.401L124.4 413.801L160.6 418.601L189.6 413.801L218.6 418.601L269.3 387.501L279 337.201L339.3 279.801L365.8 298.901L392.3 337.201V413.801L428.5 404.201L464.7 325.201L474.4 224.701L344.1 35.6008L322.4 30.8008L184.8 114.601Z" fill="white"/>
<path d="M56.8998 253.001C57.8998 244.901 58.2998 236.701 60.7998 229.101C67.5998 197.501 80.5998 167.301 99.8998 142.901C103.3 138.601 106.2 134.801 110 130.901L88.2998 110.801C84.3998 116.501 80.5998 122.301 77.1998 128.001C59.2998 158.601 49.6998 193.101 47.2998 227.101C46.2998 235.701 46.7998 244.301 46.7998 252.501C46.7998 261.101 47.7998 269.301 49.1998 277.901C51.5998 294.701 55.9998 310.901 61.7998 326.301C57.8998 310.001 55.9998 293.701 55.4998 277.001C55.3998 269.201 55.3998 261.101 56.8998 253.001Z" fill="#94A6C4"/>
<path d="M155.9 97.9016C143.8 92.2016 126.9 84.5016 114.9 78.8016C126 68.3016 146.3 57.3016 163.2 50.1016C151 59.6016 151 79.7016 155.9 97.9016Z" fill="#94A6C4"/>
<path d="M107.1 179.201C100.3 196.001 96.0001 213.701 94.5001 230.901C94.0001 235.201 93.5001 239.501 94.0001 243.801C94.0001 248.101 94.0001 252.401 94.5001 256.701L95.0001 263.501C95.0001 265.401 95.5001 267.801 96.0001 269.701L97.9001 282.601L98.4001 269.701C98.4001 267.801 98.4001 265.401 98.9001 263.501L99.9001 257.301C100.4 253.001 101.3 248.701 101.8 244.901C102.3 240.601 103.7 236.801 104.7 232.901C109 216.601 116.3 201.801 125 187.901C130.8 178.801 137.6 170.701 144.8 163.001L126 145.301C117.7 156.301 111.9 167.301 107.1 179.201Z" fill="#94A6C4"/>
<path d="M386.6 97.4011C361 88.3011 350.9 91.2011 350.9 91.2011C350.9 91.2011 335 133.801 274.1 136.701C274.6 137.101 329.2 168.701 386.6 97.4011Z" fill="#94A6C4"/>
<path d="M404 182.102C401.6 234.802 360.6 254.402 328.7 250.602C311.3 248.202 285.7 256.302 285.7 256.302L253.4 311.802L242.8 315.602L261.1 282.102C261.1 282.102 217.7 297.902 214.3 299.302C210.9 300.702 197.4 320.402 186.3 340.902C183.9 326.502 174.7 316.502 174.7 316.002C174.7 318.402 179.5 361.502 174.2 373.402C168.9 385.802 145.2 394.002 145.2 394.002L180 406.902L182.4 407.902L208.5 383.502L218.2 347.102L230.3 338.502C230.3 338.502 260.2 335.102 255.9 362.002C254 374.902 239.5 374.002 223.1 384.002C213.4 389.702 200.9 398.802 194.6 405.102L212 417.502C212 417.502 232.8 414.102 262.2 391.202C292.1 367.302 277.2 341.402 277.2 341.402L326 283.502L357.9 285.902C357.9 285.902 412.9 299.802 430.8 351.502C466.3 252.502 408.8 186.902 404 182.102Z" fill="#94A6C4"/>
<path d="M460 140.999C468.7 144.799 475.4 150.599 481.7 155.799C438.3 6.39912 297.3 23.1991 294.4 24.0991C297.8 18.7991 310.3 10.6991 321.9 6.39911C321.9 6.39911 262 -14.7009 207.5 22.6991C208.5 14.0991 219.1 1.19911 219.1 1.19911C143.8 33.1991 139 71.4991 153.5 94.4991C141.4 88.7991 129.4 83.4991 117.3 77.6991C80.1001 59.9991 48.3001 45.0991 46.3001 44.6991C42.9001 43.6991 41.5001 45.1991 41.5001 45.1991C41.5001 45.1991 40.0001 46.5991 42.9001 49.4991C86.8001 93.0991 114.8 119.399 161.6 161.999C153.9 179.199 152.9 187.899 156.8 196.899C162.1 209.299 161.6 215.599 159.7 223.699C157.3 231.799 138 304.099 134.6 312.299C131.2 320.899 105.6 349.599 105.2 359.199C104.7 368.799 112.4 410.899 123.1 417.099C131.3 421.399 151.1 430.499 165.6 432.399C170.4 433.399 175.3 432.899 177.7 430.999C187.4 424.799 189.8 423.799 196 424.299L197.4 424.799C199.8 425.299 202.7 426.199 206.6 426.699C214.8 427.699 225.4 427.699 234.1 421.899C246.7 412.299 267.9 400.399 275.1 394.099C283.8 385.499 289.6 373.499 289.6 360.099C289.6 348.099 297.8 338.599 307 328.999C315.7 320.399 337.4 299.299 346.1 290.199C368.3 297.899 376.5 329.499 376.5 346.699C376.5 394.599 337.4 464.499 247.6 469.699C244.2 469.699 240.8 470.199 237 470.199C120.2 470.199 24.6001 367.799 24.6001 247.599C24.6001 152.799 82.0001 88.5991 82.5001 88.0991C36.1001 131.799 8.6001 192.599 8.6001 260.599C8.6001 392.699 116.7 499.999 250 499.999C383.3 499.999 491.4 392.699 491.4 260.599C491.4 217.499 480.3 175.899 460 140.999ZM130.3 110.299C123.5 104.599 116.8 98.7991 110 93.0991C119.2 97.8991 128.3 102.699 136.5 106.999C161.6 119.899 182.4 131.399 186.2 134.299C186.2 134.299 186.7 134.799 187.2 135.299C189.6 138.199 192 142.999 187.7 149.199C185.3 152.599 182.4 151.599 178 148.699C174.2 146.199 153.5 129.899 130.3 110.299ZM270.8 359.199C270.8 367.299 266.9 374.499 262.1 379.799C259.7 382.199 250 388.399 243.3 392.699C236.5 397.499 229.3 401.799 223.5 406.099C221.1 407.499 217.2 408.499 210.9 407.499L195.9 405.599C205.1 396.499 230.2 376.899 238.4 372.999C248.1 368.199 253.8 362.899 249.5 351.899C245.6 340.399 230.7 340.899 230.7 340.899C230.7 340.899 239.9 338.499 247.1 339.499C237.9 335.699 225.4 336.599 219.1 340.899C212.3 345.699 210.4 365.299 206.1 377.299C201.8 389.699 192.1 394.999 177.6 405.099C169.4 410.399 164.1 411.799 160.2 411.299C152 408.899 142.3 404.599 135.6 401.199C131.7 393.999 126.9 371.499 126.4 362.399C128.3 357.599 136.1 347.999 139.9 342.299C147.6 331.799 152 325.499 153.9 319.799C157.3 311.699 171.3 260.399 176.6 238.899C181.9 247.999 189.2 263.299 185.8 271.899C203.2 253.699 195.5 232.199 191.6 223.499C188.2 214.899 184.4 198.099 192.1 181.899C199.3 165.599 224.4 121.599 224.4 121.599C224.4 121.599 228.7 133.099 237.9 132.099C246.6 131.099 330.1 38.2991 330.1 38.2991C330.1 38.2991 343.1 81.3991 319 107.699C294.9 133.999 274.6 136.899 274.6 136.899C274.6 136.899 301.6 145.499 329.6 131.199C336.8 157.099 343.1 183.899 343.1 187.199C341.2 190.599 314.1 235.599 311.7 238.399C310.7 239.399 303 240.299 298.2 240.299C289.5 241.699 284.2 242.199 281.8 243.699C277.9 246.099 255.7 287.699 245.1 307.799C235.4 309.199 225.8 312.599 218.1 321.699C222 319.799 233.1 319.799 241.3 319.799C248.5 320.299 268.3 334.599 270.7 357.099C270.8 358.799 270.8 358.799 270.8 359.199ZM214.3 379.299C219.6 373.599 220.6 362.499 221.5 359.199C222.5 355.799 224.4 349.599 228.7 349.099C233 348.599 242.2 351.499 241.3 358.699C240.3 365.399 233.1 365.899 227.3 369.199C223.5 371.699 215.2 378.399 214.3 379.299ZM424.3 385.599C418.5 324.299 376 295.599 357.2 285.999C378.9 283.599 434.9 266.899 404 182.099C405 185.899 413.7 228.099 389 250.099C363.9 272.599 327.2 262.999 322.9 262.999C319 262.499 300.7 280.199 275.6 314.199C273.2 312.799 263 308.899 250.5 309.399C263.1 285.899 281.9 252.399 284.8 249.599C285.8 248.599 294 247.699 298.8 247.199C308.5 246.199 313.3 245.299 315.2 243.399C316.2 241.999 322.9 231.399 329.7 219.899C334 220.399 345.6 221.299 347.1 220.899C348.1 219.899 361.1 196.999 361.6 194.099C362.1 192.199 352.9 156.299 347.1 133.299C466.3 189.299 485.1 312.799 424.3 385.599Z" fill="#1C324F"/>
<path d="M309.4 100.702C322.9 88.7016 321 68.1016 321 68.1016L280.5 112.602C279.9 112.702 292.5 115.102 309.4 100.702Z" fill="#1C324F"/>
<path d="M157.8 353.998L164.6 334.898C164.6 334.898 143.8 361.198 141.9 365.098C140 369.398 140.9 377.498 147.7 377.998C154.5 378.498 163.6 369.898 164.6 363.198C166 353.998 157.8 353.998 157.8 353.998Z" fill="#1C324F"/>
<path d="M221.5 238.1C236 236.7 262 225.2 273.2 216.1C284.3 206.5 282.4 185.5 265 179.2C270.8 169.6 280.4 149.5 280.4 149.5C280.4 149.5 218.1 221.8 213.3 222.7C208.5 223.7 206.5 205.5 206.5 205.5C192.1 240.5 216.7 249.1 221.5 238.1Z" fill="#1C324F"/>
<path d="M226.8 229.001L259.1 188.301C259.1 188.301 273.1 197.901 263.9 208.901C252.4 221.801 226.8 229.001 226.8 229.001Z" fill="#FFD925"/>
<path d="M312.8 47.6016L290.6 71.5016C272.7 76.8016 255.4 86.3016 238.9 102.102C238.9 93.1016 265.5 53.3016 312.8 47.6016Z" fill="#D82423"/>
<path d="M340.8 68.2016C341.3 62.0016 340.8 54.8016 339.8 48.1016C368.8 51.9016 403 68.7016 442.1 106.502C409.8 88.8016 375.5 72.5016 340.8 68.2016Z" fill="#D82423"/>
<path d="M349.5 99.2995C349.5 99.2995 457.1 146.2 476.9 277.9C479.8 106.5 357.2 97.8995 349.5 99.2995Z" fill="#D82423"/>
<path d="M192.6 23.6992C191.2 27.4992 130.3 92.1992 206.1 117.499C164.6 80.5992 192.1 24.0992 192.6 23.6992Z" fill="#D82423"/>
<path d="M224.9 107.4C224.9 107.4 231.2 34.2 275.6 14.5C272.2 15.5 182 42.8 224.9 107.4Z" fill="#D82423"/>
</g>
<defs>
<clipPath id="clip0_1_201">
<rect width="500" height="500" fill="white" transform="translate(0 0.5)"/>
</clipPath>
</defs>
</svg>
