<svg width="500" height="501" viewBox="0 0 500 501" fill="none" xmlns="http://www.w3.org/2000/svg">
<path d="M250 498.5C386.967 498.5 498 387.467 498 250.5C498 113.533 386.967 2.5 250 2.5C113.033 2.5 2 113.533 2 250.5C2 387.467 113.033 498.5 250 498.5Z" fill="url(#paint0_linear_1_224)"/>
<path d="M358.5 349.3L274.6 146.6C269.9 136.1 262.8 131 253.6 131H246.2C236.9 131 229.9 136.1 225.2 146.6L188.7 234.9H161.1C152.9 235 146.1 241.6 146.1 249.9V250.1C146.2 258.3 152.9 265.1 161.1 265.1H175.9L141.1 349.3C140.5 351.2 140.1 353.1 140.1 355.1C140.1 359.8 141.6 363.5 144.2 366.4C146.8 369.3 150.6 370.7 155.3 370.7C158.4 370.6 161.4 369.7 163.9 367.8C166.6 365.9 168.4 363.3 169.9 360.2L208.3 265.1H234.9C243.1 265 249.9 258.4 249.9 250.1V249.7C249.8 241.5 243.1 234.7 234.9 234.7H220.7L250 161.8L329.8 360.2C331.3 363.3 333.1 366 335.8 367.8C338.3 369.7 341.4 370.6 344.4 370.7C349.1 370.7 352.8 369.3 355.5 366.4C358.2 363.5 359.6 359.8 359.6 355.1C359.6 353.1 359.3 351.1 358.5 349.3Z" fill="white"/>
<defs>
<linearGradient id="paint0_linear_1_224" x1="434.927" y1="94.923" x2="65.8905" y2="405.42" gradientUnits="userSpaceOnUse">
<stop stop-color="#B6509E"/>
<stop offset="1" stop-color="#2EBAC6"/>
</linearGradient>
</defs>
</svg>
