<svg width="500" height="501" viewBox="0 0 500 501" fill="none" xmlns="http://www.w3.org/2000/svg">
<path d="M250.8 494.399C386.993 494.399 497.4 384.888 497.4 249.799C497.4 114.71 386.993 5.19922 250.8 5.19922C114.607 5.19922 4.19995 114.71 4.19995 249.799C4.19995 384.888 114.607 494.399 250.8 494.399Z" fill="#F79E24"/>
<path d="M247.7 246.899C248.1 244.299 248.8 241.699 248.8 239.199C248.9 221.399 248.8 203.599 248.8 185.799C248.8 182.799 248.9 179.699 249.6 176.799C251.6 167.399 258.7 160.699 268.1 158.999C273.7 157.999 275.5 159.299 275.6 164.999C275.8 171.099 275.7 177.099 275.7 183.199C275.7 195.699 275.7 208.199 275.7 220.699C275.7 222.699 275.7 224.799 275.7 227.599C311.1 214.799 336.3 225.399 351.7 259.799C359.1 253.299 366.1 247.399 372.9 241.099C380.1 234.499 387.9 228.999 397.4 226.099C421.1 218.799 448.8 231.199 458.9 253.699C461.2 258.899 460.9 260.799 457 264.799C451.9 269.999 446.7 275.099 441.2 280.499C440.3 275.399 440.2 270.699 438.7 266.599C432.1 248.099 410 241.899 395 254.599C383.8 264.199 373.3 274.599 362.7 284.899C355.4 291.999 348.4 299.499 341.3 306.899C327.2 321.499 310.6 328.899 290.1 324.499C273.5 320.899 261.5 311.299 254 295.999C252.4 292.699 252.5 289.999 255.6 287.499C261.1 282.999 266.5 278.299 272.7 272.999C273.4 275.899 273.8 277.899 274.3 279.799C277.9 294.499 293.2 304.399 307.1 300.899C323.5 296.799 332.5 282.299 328.6 266.499C324.2 248.699 301.3 239.799 286.7 250.899C275.4 259.499 265.1 269.299 254.6 278.899C252.7 280.599 251.8 283.799 251.1 286.499C245.6 308.199 228.7 323.199 205.5 325.599C185.7 327.599 165.5 318.099 154.9 298.499C151.2 291.599 151.3 290.999 157 286.099C161.9 281.899 166.8 277.799 172.6 272.799C173.1 275.699 173.4 277.399 173.7 279.099C176.6 295.299 191.7 305.399 207.9 301.999C222.7 298.899 232.2 283.199 228.4 267.899C223.6 248.499 200.1 239.899 184.6 252.299C173.7 260.999 163.2 270.499 152.9 279.999C150.9 281.899 149.6 285.599 149.5 288.499C149.1 298.499 149.3 308.599 149.2 318.599C149.2 320.799 148.7 322.899 148.4 325.299C139.1 326.699 132.5 322.899 126.6 316.399C110.2 325.599 93.4 326.999 76.3 319.399C64.9 314.299 57 305.499 51.6 294.499C40.8 272.699 47.7 245.699 67.8 230.499C75.9 224.399 85.2 221.499 95.3 220.799C105.4 220.099 114.9 222.099 123.8 226.899C132.6 231.699 138.9 239.199 144.6 247.399C145.1 247.299 145.7 247.299 146.2 247.199C146.5 244.599 147.1 241.999 147.1 239.399C147.2 215.699 147.1 191.999 147.1 168.299C147.1 165.699 147.3 163.099 147.4 160.599C153.8 157.799 162.7 160.499 167.9 166.599C171.6 170.899 173.5 175.899 173.5 181.699C173.4 194.799 173.5 207.899 173.5 220.899C173.5 223.299 173.7 225.599 173.9 228.699C203.2 215.899 227.1 221.699 245.8 247.199C246.4 247.099 247 246.999 247.7 246.899ZM71 272.299C70.9 287.699 83.1 300.299 98.4 300.499C114.1 300.699 126.8 288.199 126.8 272.699C126.8 257.099 114.9 244.699 100.1 244.599C83.7 244.399 71.1 256.499 71 272.299Z" fill="#191B2D"/>
<path d="M416.4 305.601C410.3 311.701 404.3 317.801 398.1 323.701C397.3 324.501 395.1 324.501 393.8 324.101C379.9 319.101 370 309.601 364.4 296.001C363.9 294.701 364.2 292.301 365.1 291.401C370.9 286.001 376.9 280.901 383.9 274.801C386.7 294.001 397.1 303.701 415.6 304.301C415.9 304.701 416.2 305.101 416.4 305.601Z" fill="#191B2D"/>
</svg>
