<svg width="500" height="501" viewBox="0 0 500 501" fill="none" xmlns="http://www.w3.org/2000/svg">
<path d="M36.601 126.894C107.117 86.026 178.032 44.926 249.509 3.5C273.395 16.57 438.872 112.604 463.085 126.638C463.238 128.714 463.572 131.14 463.572 133.565C463.581 199.113 463.207 371.881 463.019 374.313C391.793 415.424 320.952 456.311 249.758 497.404C178.589 456.167 107.524 414.99 36.816 374.02C35.679 369.199 35.492 133.548 36.601 126.894ZM240.433 32.182C238.425 32.887 66.604 133.14 66.604 133.14L195.702 206.71C195.702 206.71 225.265 155.127 238.104 133.155C239.623 130.556 240.439 128.053 240.433 125.071C240.375 95.934 240.676 34.454 240.433 32.182ZM55.984 149.485L56.678 350.398C56.678 350.398 124.829 311.232 137.115 304.651C144.278 300.814 141.429 301.721 145.418 294.486C157.136 273.231 183.907 226.058 184.682 224.085C141.829 199.245 55.984 149.485 55.984 149.485ZM442.69 150.267L315.166 225.408C315.166 225.408 343.93 275.992 356.748 298.423C358.144 300.866 359.949 302.613 362.327 303.98C372.763 309.979 443.426 350.367 443.426 350.367L442.69 150.267ZM260.374 32.182C260.374 32.182 259.689 96.227 259.831 125.736C259.843 128.291 260.635 131.034 261.763 133.349C263.769 137.464 305.244 207.024 305.244 207.024L432.744 132.496L260.374 32.182ZM241.95 468.001V375.071L148.641 321.046L66.726 368.22L241.95 468.001ZM259.483 375.385L259.031 468.001L433.609 367.986C433.609 367.986 378.763 335.906 351.954 320.909C337.07 327.987 259.483 375.385 259.483 375.385ZM241.986 352.512V266.513C241.986 266.513 191.954 294.606 168.782 308.648C169.547 309.859 241.986 352.512 241.986 352.512ZM330.259 309.192L260.246 266.513L260.619 352.512L330.259 309.192ZM239.188 173.061L212.404 216.971L239.188 232.513V173.061ZM176.512 281.173L228.439 249.386L203.662 234.997L176.512 281.173ZM323.097 280.211L296.1 235.029L270.012 249.941L323.097 280.211ZM260.414 173.061C260.156 174.495 260.375 231.346 260.916 232.639C268.346 228.386 285.226 217.858 286.855 216.455C278.465 201.853 261.34 173.418 260.414 173.061Z" fill="url(#paint0_linear_1_236)"/>
<defs>
<linearGradient id="paint0_linear_1_236" x1="35.8592" y1="250.452" x2="463.571" y2="250.452" gradientUnits="userSpaceOnUse">
<stop stop-color="#1EFCAE"/>
<stop offset="1" stop-color="#40FFF9"/>
</linearGradient>
</defs>
</svg>
