<svg width="500" height="501" viewBox="0 0 500 501" fill="none" xmlns="http://www.w3.org/2000/svg">
<path d="M248.9 5.89844C113.9 5.89844 4.5 115.298 4.5 250.198C4.5 385.198 113.9 494.498 248.8 494.498C248.8 494.498 280.2 495.898 314.5 489.198C340.4 484.098 368 477.798 386 477.798C428.4 477.798 454.5 488.598 469.5 488.598C484.5 488.598 493.1 479.598 493.1 468.598V250.198C493.2 115.298 383.8 5.89844 248.9 5.89844ZM249.9 457.198C135.8 457.198 43.3 364.698 43.3 250.598C43.3 136.498 135.8 43.9984 249.9 43.9984C364 43.9984 456.5 136.498 456.5 250.598C456.5 364.698 364 457.198 249.9 457.198Z" fill="url(#paint0_linear_1_243)"/>
<path d="M249.9 398.499C168.3 398.499 102 332.099 102 250.599C102 169.099 168.3 102.699 249.9 102.699C316.8 102.699 375.5 147.799 392.8 212.299C395.4 222.099 389.6 232.199 379.8 234.799C370 237.399 359.9 231.599 357.3 221.799C344.4 173.299 300.2 139.499 250 139.499C188.7 139.499 138.9 189.299 138.9 250.599C138.9 311.899 188.7 361.699 250 361.699C297.1 361.699 339.2 331.899 354.8 287.499C358.2 277.899 368.7 272.899 378.2 276.199C387.8 279.599 392.8 290.099 389.5 299.599C368.6 358.699 312.6 398.499 249.9 398.499Z" fill="url(#paint1_linear_1_243)"/>
<path d="M226 220.698L214 207.598C214 207.598 226 191.898 246.8 191.898C267.6 191.898 282.1 204.598 282.1 220.698C282.1 241.098 265 247.998 265 247.998C265 247.998 285.8 258.198 285.8 277.898C285.8 296.098 265.8 307.398 247.6 307.398C229.4 307.398 220.7 301.198 217.4 298.698C214.1 296.198 210.5 291.798 210.5 291.798L224.7 278.698C224.7 278.698 234.5 288.198 244.7 288.198C254.9 288.198 260.7 281.998 260.7 273.598C260.7 265.198 251.6 258.698 246.1 258.698C240.6 258.698 227.9 258.698 227.9 258.698V240.098H245.7C245.7 240.098 258.4 240.498 258.4 226.298C258.4 212.098 246.4 213.198 242.7 213.198C239.1 213.098 230.7 215.998 226 220.698Z" fill="url(#paint2_linear_1_243)"/>
<defs>
<linearGradient id="paint0_linear_1_243" x1="4.5027" y1="250.281" x2="493.201" y2="250.281" gradientUnits="userSpaceOnUse">
<stop stop-color="#78F9DB"/>
<stop offset="1" stop-color="#5BCADB"/>
</linearGradient>
<linearGradient id="paint1_linear_1_243" x1="102.001" y1="250.582" x2="393.374" y2="250.582" gradientUnits="userSpaceOnUse">
<stop stop-color="#78F9DB"/>
<stop offset="1" stop-color="#5BCADB"/>
</linearGradient>
<linearGradient id="paint2_linear_1_243" x1="210.349" y1="249.686" x2="285.727" y2="249.686" gradientUnits="userSpaceOnUse">
<stop stop-color="#78F9DB"/>
<stop offset="1" stop-color="#5BCADB"/>
</linearGradient>
</defs>
</svg>
