<svg width="500" height="501" viewBox="0 0 500 501" fill="none" xmlns="http://www.w3.org/2000/svg">
<path d="M119 301.598L226.2 118.398L354 339.998H328.5L298.2 287.398C298.2 287.398 274.7 281.298 247.2 281.298C219.7 281.298 219.7 284.098 219.7 284.098L234.3 258.198C253.6 257.498 270.6 258.298 283.2 261.798L225.4 163.498L133.2 324.498L119 301.598Z" fill="url(#paint0_linear_1_247)"/>
<path d="M226.2 194.801L142.1 340.401H168.4C207.7 321.001 251.1 313.201 303.5 329.901L287.7 300.801C250.6 295.001 217.1 296.101 187.8 305.701L239.2 217.101L226.2 194.801Z" fill="url(#paint1_linear_1_247)"/>
<path d="M239.6 110.199H265.5L376.3 302.799L363.3 326.199L239.6 110.199Z" fill="url(#paint2_linear_1_247)"/>
<path d="M250.5 456.199C136.9 456.199 44.5 363.799 44.5 250.199C44.5 136.599 136.9 44.1992 250.5 44.1992C364.1 44.1992 456.5 136.599 456.5 250.199C456.5 363.799 364.1 456.199 250.5 456.199ZM250.5 68.6992C150.4 68.6992 69 150.099 69 250.199C69 350.299 150.4 431.699 250.5 431.699C350.6 431.699 432 350.299 432 250.199C432 150.099 350.5 68.6992 250.5 68.6992Z" fill="url(#paint3_linear_1_247)"/>
<path d="M250.5 496.101C114.9 496.101 4.5 385.801 4.5 250.201C4.5 114.601 114.9 4.30078 250.5 4.30078C386.1 4.30078 496.4 114.601 496.4 250.201C496.4 385.801 386.1 496.101 250.5 496.101ZM250.5 27.6008C127.8 27.6008 27.9 127.501 27.9 250.201C27.9 372.901 127.7 472.701 250.4 472.701C373.1 472.701 472.9 372.901 472.9 250.201C473 127.501 373.2 27.6008 250.5 27.6008Z" fill="url(#paint4_linear_1_247)"/>
<defs>
<linearGradient id="paint0_linear_1_247" x1="42.6545" y1="99.5228" x2="425.146" y2="439.889" gradientUnits="userSpaceOnUse">
<stop stop-color="#FC4F44"/>
<stop offset="0.5138" stop-color="#EF1A52"/>
<stop offset="1" stop-color="#7F4BD8"/>
</linearGradient>
<linearGradient id="paint1_linear_1_247" x1="21.7205" y1="123.05" x2="404.211" y2="463.416" gradientUnits="userSpaceOnUse">
<stop stop-color="#FC4F44"/>
<stop offset="0.5138" stop-color="#EF1A52"/>
<stop offset="1" stop-color="#7F4BD8"/>
</linearGradient>
<linearGradient id="paint2_linear_1_247" x1="103.788" y1="30.8244" x2="486.279" y2="371.191" gradientUnits="userSpaceOnUse">
<stop stop-color="#FC4F44"/>
<stop offset="0.5138" stop-color="#EF1A52"/>
<stop offset="1" stop-color="#7F4BD8"/>
</linearGradient>
<linearGradient id="paint3_linear_1_247" x1="59.6676" y1="80.405" x2="442.159" y2="420.771" gradientUnits="userSpaceOnUse">
<stop stop-color="#FC4F44"/>
<stop offset="0.5138" stop-color="#EF1A52"/>
<stop offset="1" stop-color="#7F4BD8"/>
</linearGradient>
<linearGradient id="paint4_linear_1_247" x1="59.6676" y1="80.4065" x2="442.159" y2="420.773" gradientUnits="userSpaceOnUse">
<stop stop-color="#FC4F44"/>
<stop offset="0.5138" stop-color="#EF1A52"/>
<stop offset="1" stop-color="#7F4BD8"/>
</linearGradient>
</defs>
</svg>
