<svg width="500" height="501" viewBox="0 0 500 501" fill="none" xmlns="http://www.w3.org/2000/svg">
<path d="M7.08302 351.004C6.49302 356.495 7.82202 361.975 11.151 367.506C28.001 395.504 44.816 423.527 61.35 451.712C63.655 455.641 66.365 458.645 69.513 460.813L133.68 351.004H7.08302Z" fill="#5A51FA"/>
<path d="M364.301 351.005C364.283 351.005 364.266 351.005 364.248 351.005L428.791 462.382C432.151 460.673 435.059 458.048 437.349 454.168C455.051 424.163 472.821 394.199 490.568 364.221C493.177 359.815 494.468 355.408 494.507 351.004L364.301 351.005Z" fill="#5564FB"/>
<path d="M249.671 153.288C250.11 152.537 250.546 151.789 250.985 151.037C288.934 218.005 326.332 284.001 364.301 351.004H494.506C494.546 346.4 493.216 341.799 490.551 337.203C452.423 271.453 342.58 82.219 325.927 53.271C322.876 47.967 319.162 43.932 314.783 41.082L249.444 152.896L249.671 153.288Z" fill="#7087FE"/>
<path d="M314.783 41.0816C309.35 37.5456 302.891 35.8396 295.376 35.8556C263.989 35.9226 232.601 35.7846 201.215 35.9266C194.757 35.9556 189.082 37.4426 184.231 40.3616L249.444 152.895L314.783 41.0816Z" fill="#6B85FE"/>
<path d="M172.573 52.7833C164.162 67.7063 37.317 292.961 10.743 340.113C8.68701 343.76 7.47201 347.385 7.08301 351.005H133.68L228.552 188.651L184.232 40.3633C179.562 43.1733 175.658 47.3103 172.573 52.7833Z" fill="#8186FE"/>
<path d="M184.231 40.3633L228.551 188.651L249.444 152.897L184.231 40.3633Z" fill="#484EC0"/>
<path d="M364.248 351.004C352.646 351.004 341.08 351.004 329.528 351.004L427.061 463.157C427.649 462.921 428.228 462.668 428.791 462.382L364.248 351.004Z" fill="#4233C6"/>
<path d="M134.261 351.004H133.68L69.5129 460.813C73.8419 463.794 79.0049 465.186 85.1319 465.146C102.507 465.03 394.833 465.151 415.853 465.088C419.901 465.076 423.678 464.516 427.061 463.157L329.528 351.004C264.229 351.004 199.604 351.004 134.261 351.004Z" fill="#6C66FC"/>
</svg>
