<svg width="500" height="501" viewBox="0 0 500 501" fill="none" xmlns="http://www.w3.org/2000/svg">
<path d="M214.256 348.42C200.416 350.23 182.127 336.739 182.545 317.465C182.945 299.037 195.363 285.796 215.278 285.618C231.257 285.475 245.935 300.801 245.651 316.519C245.315 335.121 232.229 348.418 214.256 348.42ZM358.336 251.814C358.197 233.487 346.472 220.695 327.487 219.924C310.977 219.253 297.618 231.618 295.725 247.718C293.505 266.597 307.318 282.377 325.953 282.99C343.23 283.785 358.472 269.668 358.336 251.814ZM213.941 154.836C200.571 154.847 182.506 165.783 182.308 186.228C182.148 202.774 194.831 217.738 214.235 217.965C231.707 218.17 245.035 204.349 245.04 186.251C246.372 169.767 230.273 154.823 213.941 154.836ZM176.689 283.66C194.452 283.128 207.354 270.759 207.928 252.01C208.445 235.114 193.61 220.403 176.639 220.25C159.352 220.093 145.306 234.155 145.301 251.621C143.993 269.369 159.607 284.171 176.689 283.66ZM257.647 186.383C258.382 204.61 269.314 216.798 288.251 217.679C307.89 218.593 320.233 201.804 320.59 186.632C320.952 171.229 306.799 153.7 288.857 155.078C273.318 153.333 256.94 168.864 257.647 186.383ZM289.29 285.666C270.318 286.111 258.366 298.183 257.935 316.951C257.507 335.615 273.517 348.627 289.863 348.642C305.99 348.657 322.243 332.9 320.229 317.548C322.163 301.849 308.625 285.213 289.29 285.666ZM140.462 168.9C130.245 168.592 122.445 175.915 122.202 186.042C121.924 197.667 128.843 205.499 139.574 205.707C149.796 205.906 157.396 198.536 157.636 188.194C157.887 177.41 150.584 169.205 140.462 168.9ZM344.784 187.191C344.893 196.989 352.837 204.688 362.978 204.822C373.275 204.958 381.764 196.77 381.6 186.86C381.431 176.638 373.354 168.853 362.957 168.889C352.851 168.925 344.672 177.162 344.784 187.191ZM233.081 123.079C232.467 132.443 241.691 140.661 251.341 140.545C261.226 140.427 269.623 132.296 269.572 122.892C269.514 112.171 262.087 104.471 251.728 104.392C238.91 104.567 233.78 112.426 233.081 123.079ZM364.008 297.791C354.177 297.584 345.287 305.897 344.803 315.748C344.341 325.151 353.095 334.113 363.15 334.531C372.637 334.925 381.441 326.166 381.605 316.171C381.761 306.736 373.385 297.988 364.008 297.791ZM140.504 334.761C149.844 334.649 159.491 325.874 158.66 316.975C157.689 306.589 153.1 299.119 140.387 298.782C129.945 298.505 122.308 305.83 122.285 315.891C122.257 327.364 129.525 334.892 140.504 334.761ZM268.847 380.938C268.864 370.731 260.627 362.691 250.377 362.908C240.388 363.12 232.592 370.931 232.578 380.739C232.563 391.656 239.871 399.133 250.535 399.11C260.804 399.088 268.83 391.124 268.847 380.938ZM419.26 235.778C411.152 235.601 403.456 242.712 403.139 250.674C402.811 258.906 410.218 266.939 418.636 267.023C425.605 267.092 434.223 261.94 433.972 251.805C434.212 243.32 427.453 235.957 419.26 235.778ZM152.831 108.363C153.18 116.56 160.048 122.693 168.463 122.321C177.109 121.939 183.206 115.043 182.804 106.099C182.415 97.4482 175.289 90.3612 167.289 90.6712C158.278 91.0192 152.4 98.2132 152.831 108.363ZM84.5279 236.418C76.5789 236.37 68.7279 244.001 68.6189 251.881C68.5069 260.013 75.9329 267.542 84.0849 267.562C92.6579 267.582 99.2639 261.292 99.3079 253.064C99.3619 243.197 93.3899 236.472 84.5279 236.418ZM152.975 396.524C152.929 405.626 159.582 412.764 168.207 412.865C176.739 412.965 183.588 405.838 183.658 396.787C183.721 388.558 177.212 382.108 168.767 382.032C159.568 381.951 153.018 387.96 152.975 396.524ZM335.497 381.601C326.856 381.762 320.053 388.715 320.232 397.2C320.402 405.244 327.903 412.814 335.731 412.841C343.276 412.867 350.924 404.803 350.917 396.831C350.909 388.299 343.967 381.443 335.497 381.601ZM334.613 121.424C343.198 121.587 350.314 115.07 350.696 106.695C351.051 98.9062 343.413 90.8402 335.489 90.6352C326.665 90.4072 320.394 96.6052 320.22 105.727C320.039 115.179 325.609 121.254 334.613 121.424ZM251.246 57.9422C258.212 57.9392 263.492 52.4492 263.451 45.2512C263.407 37.5582 258.743 32.4722 251.6 32.3272C244.197 32.1772 238.855 37.6242 238.904 45.2702C238.95 52.3812 244.369 57.9452 251.246 57.9422ZM72.9939 368.273C79.5669 368.711 86.4959 362.148 86.5229 355.461C86.5469 349.292 80.2329 342.705 73.9259 342.321C68.0779 341.965 61.0489 348.754 60.9259 354.877C60.7929 361.5 66.5049 367.84 72.9939 368.273ZM250.612 445.423C244.328 445.468 238.112 451.802 238.005 458.268C237.897 464.791 243.894 471.06 250.347 471.168C257.184 471.282 263.517 464.929 263.438 458.035C263.366 451.789 256.846 445.378 250.612 445.423ZM442.93 147.749C442.695 141.59 436.059 135.27 429.766 135.212C423.75 135.157 416.867 142.081 416.937 148.117C417.01 154.311 423.803 161.317 429.608 161.186C435.995 161.04 443.161 153.813 442.93 147.749ZM442.982 354.128C442.84 347.337 437.282 342.229 430.097 342.284C423.282 342.337 417.377 348.209 417.625 354.686C417.887 361.547 423.397 366.861 430.224 366.837C438.049 366.81 443.142 361.738 442.982 354.128ZM60.8589 148.978C60.7309 156.372 65.6879 161.267 73.2499 161.214C80.6419 161.163 85.6029 156.087 85.4199 148.761C85.2359 141.343 80.4229 136.639 73.0439 136.665C65.7919 136.69 60.9879 141.545 60.8589 148.978ZM354.924 54.6362C354.813 60.9732 359.245 63.9562 364.409 64.2572C369.803 64.5712 373.881 61.4892 374.129 55.2142C374.366 49.2242 370.564 44.7822 364.96 44.6112C359.702 44.4502 355.022 49.0192 354.924 54.6362ZM14.9169 252.094C14.7319 256.708 20.5039 262.984 25.1149 262.336C30.4709 261.584 34.4049 258.436 34.7569 252.551C35.0829 247.103 30.3039 242.58 24.6819 242.562C19.6949 242.546 15.1209 247.01 14.9169 252.094ZM355.666 448.658C355.542 453.421 360.835 458.564 365.94 458.641C370.129 458.704 375.685 452.916 375.406 448.428C375.039 442.519 371.543 439.509 367.083 438.984C359.754 438.863 355.822 442.637 355.666 448.658ZM138.314 44.8552C133.202 43.8582 128.464 49.1492 128.369 54.9162C128.274 60.7042 131.213 63.9452 136.817 64.4872C142.902 65.0752 147.169 61.1252 147.368 53.9252C147.814 48.7092 143.563 45.8792 138.314 44.8552ZM488.202 251.339C487.824 245.68 484.609 241.855 478.825 241.096C473.519 240.4 469.264 245.227 468.98 251.261C468.664 257.978 473.138 259.745 477.539 260.925C483.468 261.04 488.542 256.424 488.202 251.339ZM139.434 439.03C134.854 438.552 128.273 443.947 128.583 448.632C128.954 454.235 132.333 458.244 138.029 458.734C143.761 459.226 147.418 456.035 148.221 451.553C148.887 444.642 144.838 439.594 139.434 439.03Z" fill="#1F6FCD"/>
</svg>
