<svg width="500" height="501" viewBox="0 0 500 501" fill="none" xmlns="http://www.w3.org/2000/svg">
<path d="M105.7 194.598C127.5 139.498 181.3 100.598 244.1 100.598C306.9 100.598 360.7 139.498 382.5 194.598H484.5C459.6 84.7984 361.4 2.89844 244.1 2.89844C126.8 2.89844 28.7002 84.7984 3.7002 194.598H105.7Z" fill="#ED001B"/>
<path d="M485.1 301.5H394.6H383.6C362.5 358 308 398.3 244.1 398.3C180.2 398.3 125.7 358 104.6 301.5H3.1001C27.0001 412.6 125.8 496 244.1 496C300.8 496 352.9 476.9 394.6 444.7V472.8C394.6 485.3 404.7 495.4 417.2 495.4H467.7C480.2 495.4 490.3 485.3 490.3 472.8C490.3 472.8 494.7 356.7 496 301.5H485.1Z" fill="#ED001B"/>
</svg>
