<svg width="500" height="501" viewBox="0 0 500 501" fill="none" xmlns="http://www.w3.org/2000/svg">
<path d="M102.115 155.611L157.604 100.918L397.841 344.653L342.352 399.345L102.115 155.611Z" fill="#1B75BC"/>
<path d="M100.813 342.507L344.548 102.27L399.241 157.758L155.506 397.996L100.813 342.507Z" fill="#1B75BC"/>
<path d="M161.365 403.161L206.954 358.227L293.262 445.791L247.673 490.726L161.365 403.161Z" fill="#3C3C3B"/>
<path d="M202.786 445.155L290.35 358.848L335.285 404.436L247.721 490.744L202.786 445.155Z" fill="#3C3C3B"/>
<path d="M207.876 55.2278L253.465 10.293L339.773 97.8572L294.184 142.792L207.876 55.2278Z" fill="#3C3C3B"/>
<path d="M165.903 96.5344L253.468 10.2266L298.402 55.8154L210.838 142.123L165.903 96.5344Z" fill="#3C3C3B"/>
</svg>
