<svg width="500" height="501" viewBox="0 0 500 501" fill="none" xmlns="http://www.w3.org/2000/svg">
<path d="M100.1 134.871C80.8962 139.052 61.6921 149.241 46.4083 163.22C23.5462 184.383 10.4827 213.908 10.4827 245.13C10.3516 276.483 20.28 301.305 41.7057 323.775C61.0395 344.024 84.0327 355.52 111.989 358.786C138.379 361.921 162.154 356.174 185.277 341.02C197.949 332.659 231.392 298.693 231.392 294.121C231.392 293.598 227.996 288.372 223.684 282.363L216.107 271.39L209.183 280.012C177.307 319.725 152.877 334.095 119.957 332.267C89.78 330.568 64.0435 314.762 48.6286 288.504C40.5286 274.656 37.3935 262.768 37.3935 245.785C37.5246 225.274 42.6192 210.251 54.8989 193.79C75.1476 166.617 112.249 153.293 144.517 161.522C174.172 169.099 195.857 190.263 239.23 254.275C262.745 288.894 274.503 303.917 290.833 320.378C310.952 340.757 327.019 350.947 347.007 356.304C359.418 359.699 385.545 360.353 397.956 357.61C425.129 351.601 450.211 335.402 466.672 313.455C473.726 303.918 480.781 291.639 480.911 288.633C480.911 287.589 476.861 287.066 466.672 287.066H452.562L447.598 294.251C435.71 311.495 415.199 325.603 394.558 330.568C384.63 333.051 367.777 333.312 357.849 331.221C328.325 324.951 301.412 299.214 261.438 239.252C240.406 207.637 223.945 186.474 207.876 170.667C190.239 153.293 176 143.756 158.495 137.616C148.175 133.958 145.431 133.566 128.187 133.174C114.862 132.912 106.502 133.433 100.1 134.871ZM347.922 135.393C337.21 138.267 323.754 144.668 311.735 152.767C302.591 158.908 281.296 179.809 273.327 190.521L267.71 197.967L275.418 209.071C279.599 215.212 283.256 220.175 283.648 220.175C284.039 220.175 285.999 218.085 287.958 215.341C321.925 170.402 353.8 153.418 390.771 160.735C419.772 166.352 445.377 187.124 456.089 213.774C458.049 218.476 460.008 224.486 460.531 227.099L461.446 232.064H407.1H352.885V245.782V259.499H420.687H488.357L489.141 253.098C490.969 237.16 486.006 211.947 477.514 195.094C465.756 171.71 442.111 150.285 416.898 140.226C397.303 132.52 367.256 130.429 347.922 135.393Z" fill="#DB3369"/>
</svg>
