<svg width="500" height="501" viewBox="0 0 500 501" fill="none" xmlns="http://www.w3.org/2000/svg">
<g clip-path="url(#clip0_1_293)">
<path fill-rule="evenodd" clip-rule="evenodd" d="M250 500.5C388.1 500.5 500 388.6 500 250.5C500 112.4 388.1 0.5 250 0.5C111.9 0.5 0 112.4 0 250.5C0 388.6 111.9 500.5 250 500.5Z" fill="url(#paint0_linear_1_293)"/>
<path fill-rule="evenodd" clip-rule="evenodd" d="M250 475.5C374.3 475.5 475 374.8 475 250.5C475 126.2 374.3 25.5 250 25.5C125.7 25.5 25 126.2 25 250.5C25 374.8 125.7 475.5 250 475.5Z" fill="white"/>
<path fill-rule="evenodd" clip-rule="evenodd" d="M250 450.5C360.5 450.5 450 361 450 250.5C450 140 360.5 50.5 250 50.5C139.5 50.5 50 140 50 250.5C50 361 139.5 450.5 250 450.5Z" fill="#7866D5"/>
<path d="M322.2 164.5C328.2 165.2 334.3 165.6 340.3 166.7C352.1 168.9 356 174.6 354 186C353.2 190.6 350.2 193.5 345.5 194.2C342.7 194.6 339.8 194.8 337 194.8C298.2 194.9 259.4 195 220.6 195.1C214.7 195.1 208.9 195.6 203.2 196.6C184 199.6 176.7 207.2 175.1 225.8C174.4 234.5 174.4 234.5 183.5 234.5H342.7C345.2 234.6 347.6 235 349.7 236.3C356.8 240.6 355 247.4 354.6 253.6C354.3 258.6 351.1 261.4 345.8 262.4C343.5 262.7 341.2 262.9 339 262.9H180.1C174.2 262.9 174.3 262.9 174.8 268.4C175.2 273.5 175.5 278.5 176.8 283.4C179.2 292.6 185.1 298.3 194.6 300.8C205.1 303.6 216 304.3 226.9 304.3C264.8 304.5 302.6 304.5 340.5 304.5C345.3 304.5 349.8 305.1 352.6 309.4C358.1 317.6 353.8 329 344.2 331.9C336 334.4 327.4 335.1 318.9 335.1C283.3 335.7 247.8 335.8 212.2 335.1C201.2 334.8 190.3 333.6 179.5 331.5C154.2 326.5 141.5 314.2 137.2 289.8C136.2 284.2 135.7 278.5 135 272.8V228.4C135.5 224 135.9 219.6 136.5 215.3C139.9 187.7 152.8 174.2 181.1 168.2C191.2 166 201.5 165.6 211.6 164.6C248.3 164.5 285.2 164.5 322.2 164.5Z" fill="white"/>
</g>
<defs>
<linearGradient id="paint0_linear_1_293" x1="436.393" y1="93.6689" x2="64.3935" y2="406.669" gradientUnits="userSpaceOnUse">
<stop stop-color="#B6509E"/>
<stop offset="1" stop-color="#2EBAC6"/>
</linearGradient>
<clipPath id="clip0_1_293">
<rect width="500" height="500" fill="white" transform="translate(0 0.5)"/>
</clipPath>
</defs>
</svg>
