<svg width="500" height="501" viewBox="0 0 500 501" fill="none" xmlns="http://www.w3.org/2000/svg">
<g clip-path="url(#clip0_1_298)">
<path d="M362.337 288.238C405.953 159.51 391.359 38.2317 329.742 17.3543C268.124 -3.52321 182.816 83.9063 139.2 212.634C95.5842 341.361 110.177 462.639 171.795 483.517C233.412 504.394 318.721 416.965 362.337 288.238Z" fill="#5FBCD2"/>
<path d="M322.144 344.234C430.307 261.922 486.05 153.224 446.651 101.45C407.251 49.6761 287.627 74.4316 179.465 156.743C71.3016 239.055 15.558 347.752 54.9578 399.526C94.3577 451.301 213.981 426.545 322.144 344.234Z" fill="#2C89A0"/>
<path d="M263.695 367.579C398.797 352.71 502.548 288.232 495.431 223.563C488.314 158.894 373.022 118.524 237.92 133.393C102.819 148.262 -0.933275 212.741 6.18419 277.41C13.3017 342.078 128.593 382.449 263.695 367.579Z" fill="#154450"/>
<path d="M231.9 232.201C235.8 222.301 233.1 213.201 219.7 210.101C204.6 206.701 189.5 208.201 174.7 211.801C167.3 213.601 160.2 216.401 152.3 219.001C154.4 207.901 156.4 197.201 158.6 185.801C165.5 184.401 172.4 182.801 179.3 181.701C195.7 179.101 212.2 177.401 228.9 179.501C244.6 181.401 257.6 187.501 266.1 201.401C266.3 201.701 266.8 201.801 267.5 202.201C269.1 200.901 270.9 199.501 272.7 198.101C290.1 184.101 309.8 176.301 332.5 177.301C336.8 177.501 341.2 178.001 345.4 179.001C365.9 184.001 376.5 200.201 373.7 221.601C371.1 241.801 359.5 254.701 341.2 262.101C328.5 267.201 315.2 269.301 301.7 269.601C290.9 269.801 280.2 269.601 269.7 269.601C265.6 280.401 268.5 287.301 278.7 290.701C289.6 294.501 300.8 293.701 312 292.501C323.6 291.301 334.8 288.401 345.5 283.501C346.4 283.101 347.4 283.001 349.1 282.501C346.9 293.801 344.9 304.501 342.8 315.901C335.8 317.301 329 318.901 322.1 320.001C305.9 322.501 289.6 324.201 273.1 322.301C257.2 320.401 244 314.401 235.3 300.301C235.1 300.001 234.6 299.901 233.8 299.401C232.1 300.801 230.2 302.401 228.3 303.901C208 320.001 185.2 327.601 159.2 323.201C136.7 319.401 124.7 302.201 127.9 279.401C131.1 256.201 145.8 243.901 166.8 237.201C177.7 233.701 189 232.101 200.5 232.001C210.7 232.101 221.2 232.201 231.9 232.201ZM226.6 257.901C214.5 258.601 203 259.001 191.5 260.101C187.8 260.501 183.9 262.401 180.6 264.301C174 268.201 171.5 275.501 173.4 283.301C174.9 289.601 180.5 293.901 188.1 294.601C209.2 296.601 226.4 280.801 226.6 257.901ZM274.3 243.401C286.5 243.401 298.3 244.401 309.9 241.801C313.5 241.001 317.1 239.601 320.2 237.701C326.9 233.601 329.5 225.901 327.4 218.101C325.7 211.901 320 207.801 312.3 207.201C291.3 205.701 274.8 221.101 274.3 243.401Z" fill="white"/>
</g>
<defs>
<clipPath id="clip0_1_298">
<rect width="500" height="500" fill="white" transform="translate(0 0.5)"/>
</clipPath>
</defs>
</svg>
