<svg width="500" height="501" viewBox="0 0 500 501" fill="none" xmlns="http://www.w3.org/2000/svg">
<path d="M22.2002 493.5C21.7002 488.5 18.2002 450.7 54.4002 400.6C86.7002 355.9 165.1 326.4 236 302.2L242.3 300.1C290 283.8 357.5 253.3 373.1 238.5L422.2 290.3C390.2 320.6 298.2 356.4 265.5 367.6L259.1 369.8C224.9 381.5 133.9 412.5 112.3 442.5C92.3002 470.2 93.3002 493.2 93.3002 493.4L22.2002 493.5Z" fill="url(#paint0_linear_1_303)"/>
<path d="M355.4 495.799H284C284 466.799 274.2 442.399 266.4 422.699C265.3 419.999 264.3 417.399 263.3 414.899C259 403.799 241 376.999 226.6 355.599C218.5 343.499 210 330.999 203.1 319.899C200.8 316.299 198.4 312.599 196 308.799C174.6 275.899 145.3 230.799 145.3 163.199C145.3 124.599 160.4 85.9992 186.8 57.1992L239.4 105.499C225.2 120.999 216.7 142.599 216.7 163.199C216.7 209.599 236.6 240.299 255.9 269.899C258.6 273.999 261.2 277.999 263.6 281.899C270 292.099 277.8 303.599 286 315.799C304.9 343.999 322.8 370.599 330 389.099C330.9 391.399 331.8 393.799 332.8 396.299C341.7 418.899 355.4 453.099 355.4 495.799Z" fill="url(#paint1_linear_1_303)"/>
<path d="M422.2 290.201L373.1 238.401C392.1 220.401 405.5 204.701 405.5 165.601C405.5 110.101 359.7 75.8008 317.3 75.8008C283.5 75.8008 257.3 85.8008 239.3 105.401L186.7 57.1008C208.8 33.0008 249.4 4.30078 317.4 4.30078C362.5 4.30078 404 22.7008 434.2 56.0008C461.4 86.1008 477.1 126.001 477.1 165.501C476.9 229.601 450.6 263.301 422.2 290.201Z" fill="#FF36AF"/>
<defs>
<linearGradient id="paint0_linear_1_303" x1="222.043" y1="493.458" x2="222.043" y2="238.384" gradientUnits="userSpaceOnUse">
<stop stop-color="#8D8D8D"/>
<stop offset="0.9996" stop-color="#504D4F"/>
</linearGradient>
<linearGradient id="paint1_linear_1_303" x1="250.223" y1="495.788" x2="250.223" y2="57.2229" gradientUnits="userSpaceOnUse">
<stop stop-color="#D3D3D3"/>
<stop offset="0.9996" stop-color="#3B3A3C"/>
</linearGradient>
</defs>
</svg>
