<svg width="500" height="501" viewBox="0 0 500 501" fill="none" xmlns="http://www.w3.org/2000/svg">
<g clip-path="url(#clip0_1_307)">
<path fill-rule="evenodd" clip-rule="evenodd" d="M250 500.5C388.1 500.5 500 388.6 500 250.5C500 112.4 388.1 0.5 250 0.5C111.9 0.5 0 112.4 0 250.5C0 388.6 111.9 500.5 250 500.5Z" fill="url(#paint0_linear_1_307)"/>
<path fill-rule="evenodd" clip-rule="evenodd" d="M250 475.5C374.3 475.5 475 374.8 475 250.5C475 126.2 374.3 25.5 250 25.5C125.7 25.5 25 126.2 25 250.5C25 374.8 125.7 475.5 250 475.5Z" fill="white"/>
<path fill-rule="evenodd" clip-rule="evenodd" d="M250 450.5C360.5 450.5 450 361 450 250.5C450 140 360.5 50.5 250 50.5C139.5 50.5 50 140 50 250.5C50 361 139.5 450.5 250 450.5Z" fill="#25292E"/>
<path d="M167 261.5L250 310.6L333 261.5L250 378.5L167 261.5Z" fill="url(#paint1_linear_1_307)"/>
<path d="M250 292.3L167 243.2L250 112.5L333 243.2L250 292.3Z" fill="white"/>
</g>
<defs>
<linearGradient id="paint0_linear_1_307" x1="436.393" y1="93.6689" x2="64.3935" y2="406.669" gradientUnits="userSpaceOnUse">
<stop stop-color="#B6509E"/>
<stop offset="1" stop-color="#2EBAC6"/>
</linearGradient>
<linearGradient id="paint1_linear_1_307" x1="249.992" y1="261.511" x2="249.992" y2="378.487" gradientUnits="userSpaceOnUse">
<stop stop-color="white"/>
<stop offset="1" stop-color="white" stop-opacity="0.9"/>
</linearGradient>
<clipPath id="clip0_1_307">
<rect width="500" height="500" fill="white" transform="translate(0 0.5)"/>
</clipPath>
</defs>
</svg>
