<svg width="500" height="501" viewBox="0 0 500 501" fill="none" xmlns="http://www.w3.org/2000/svg">
<path d="M277.325 13.4985C289.73 25.9035 302.136 39.8605 311.44 53.8165C348.656 117.395 316.092 173.219 308.339 188.726C305.238 194.929 305.238 201.13 309.89 207.333C314.542 215.087 326.947 216.637 333.15 211.986C362.613 187.174 364.164 134.451 365.714 123.596C365.714 112.742 364.163 101.887 361.062 91.0325C357.961 80.1775 353.309 70.8735 348.657 61.5695C344.005 52.2655 337.802 44.5125 330.049 36.7585C317.644 22.8025 300.586 11.9475 283.529 4.1945C280.428 2.6435 277.326 2.6435 275.776 4.1945C274.223 7.2965 274.223 10.3975 277.325 13.4985Z" fill="#263238"/>
<path d="M232.541 488.873C220.136 476.468 207.73 462.511 198.426 448.555C161.21 384.977 193.774 329.153 201.527 313.646C206.179 307.443 206.179 301.241 201.527 295.038C196.875 287.285 184.47 285.734 178.267 290.386C148.804 315.197 147.253 367.92 145.703 378.775C145.703 389.63 147.254 400.485 150.355 411.339C153.456 422.194 158.108 431.498 162.76 440.802C167.412 450.106 173.615 457.859 181.368 465.613C193.773 479.569 210.831 490.424 227.888 498.177C229.439 499.728 232.54 498.177 234.091 496.626C235.642 495.076 235.642 491.974 232.541 488.873Z" fill="#263238"/>
<path d="M366.411 360.913C364.86 333.001 352.455 301.987 333.847 280.278C313.688 258.568 290.428 243.062 268.718 230.656C247.008 216.7 225.299 204.294 209.792 188.788C194.285 173.281 184.981 156.224 180.329 134.514C177.228 112.804 178.778 91.0946 188.082 70.9356C197.386 49.2256 212.893 30.6176 231.501 13.5606C233.052 12.0096 234.602 8.90855 233.052 5.80755C231.501 2.70655 226.849 1.15555 223.748 4.25655C200.488 15.1116 178.778 32.1686 163.271 56.9796C146.214 80.2396 140.011 111.254 141.561 140.717C143.112 156.224 146.213 170.18 152.416 184.136C158.619 198.092 167.923 210.498 177.227 221.352C197.386 243.062 222.197 257.018 243.906 269.423C265.616 281.828 285.774 294.234 302.832 309.741C318.339 323.697 329.194 343.856 332.295 365.565C336.947 387.275 333.846 410.535 324.542 432.244C315.238 453.953 298.18 472.562 279.572 488.068C276.471 489.619 276.471 494.271 278.021 495.821C279.572 498.922 284.224 500.473 287.325 497.372C309.035 483.416 330.744 466.358 346.251 443.098C361.759 419.838 367.962 390.375 366.411 360.913Z" fill="#6916FF"/>
</svg>
