<svg width="500" height="501" viewBox="0 0 500 501" fill="none" xmlns="http://www.w3.org/2000/svg">
<g clip-path="url(#clip0_1_322)">
<path fill-rule="evenodd" clip-rule="evenodd" d="M224.3 20.9C240.2 11.7 259.8 11.7 275.7 20.9L436.3 113.5C444.3 118.1 450.7 124.6 455.2 132.3C459.6 140 462.1 148.8 462.1 158V342.9C462.1 352.1 459.6 360.9 455.2 368.6C450.8 376.3 444.3 382.8 436.3 387.4L275.7 480C259.8 489.2 240.2 489.2 224.3 480L63.6999 387.5C55.6999 382.9 49.2999 376.4 44.7999 368.7C40.3999 361 37.8999 352.2 37.8999 343V158C37.8999 148.8 40.3999 140 44.7999 132.3C49.1999 124.6 55.6999 118.1 63.6999 113.5L224.3 20.9Z" fill="url(#paint0_linear_1_322)"/>
<path d="M250 500.499C238.8 500.499 227.5 497.599 217.5 491.799L56.8999 399.299C46.9999 393.599 38.7999 385.399 33.0999 375.499C27.3999 365.599 24.3999 354.399 24.3999 342.999V157.999C24.3999 146.599 27.3999 135.299 33.0999 125.499C38.7999 115.599 46.9999 107.399 56.8999 101.699L217.5 9.19922C237.5 -2.30078 262.4 -2.30078 282.4 9.19922L443 101.799C452.9 107.499 461.1 115.699 466.8 125.599C472.5 135.499 475.5 146.699 475.5 158.099V342.999C475.5 354.399 472.5 365.699 466.8 375.499C461.1 385.399 452.9 393.599 443 399.299L282.4 491.899C272.5 497.599 261.2 500.499 250 500.499ZM231.1 32.6992L70.4999 125.199C64.6999 128.499 59.8999 133.299 56.5999 139.099C53.2999 144.899 51.4999 151.399 51.4999 158.099V342.999C51.4999 349.599 53.2999 356.199 56.5999 361.999C59.8999 367.799 64.6999 372.499 70.4999 375.899L231.1 468.499C242.8 475.199 257.3 475.199 268.9 468.499L429.5 375.899C435.3 372.599 440.1 367.799 443.4 361.999C446.7 356.199 448.5 349.699 448.5 342.999V157.999C448.5 151.399 446.7 144.799 443.4 138.999C440.1 133.199 435.3 128.499 429.5 125.099L268.9 32.6992C257.2 25.8992 242.8 25.8992 231.1 32.6992Z" fill="url(#paint1_linear_1_322)"/>
<path fill-rule="evenodd" clip-rule="evenodd" d="M387.943 191.091C396.543 195.391 403.243 207.191 408.143 226.391C412.443 243.091 415.943 261.491 418.743 281.391C419.543 287.391 418.843 293.491 416.743 299.191C405.543 328.591 390.543 352.891 371.843 371.991C353.043 391.091 328.443 410.391 298.043 429.591C292.243 433.291 285.543 435.191 278.743 435.191H250.043V105.191H297.343C300.043 105.191 302.643 106.291 304.543 108.191L387.943 191.091Z" fill="#CB6E1A"/>
<path d="M260.843 105.191H250.043V277.091H260.843V105.191Z" fill="#EE7C46"/>
<path fill-rule="evenodd" clip-rule="evenodd" d="M269.543 297.892C271.443 281.192 273.743 268.492 276.443 259.892C279.243 251.292 284.443 240.492 292.043 227.692C318.043 222.192 337.243 217.292 349.543 212.992C361.843 208.692 376.743 200.292 394.243 187.992L419.843 197.992L428.243 297.892L338.743 435.992H250.043L269.543 297.892Z" fill="#FEA355"/>
<path fill-rule="evenodd" clip-rule="evenodd" d="M430.28 320.595C382.88 287.095 340.78 299.995 303.88 359.495C297.18 370.295 255.18 380.995 250.08 390.195C231.58 423.295 240.58 448.395 277.08 465.695L430.28 320.595Z" fill="white"/>
<path fill-rule="evenodd" clip-rule="evenodd" d="M328.68 269.395C328.58 329.995 348.68 379.395 388.98 417.695C429.28 455.995 382.98 467.695 249.98 452.895V271.595L328.68 269.395Z" fill="#C8F4FD"/>
<path fill-rule="evenodd" clip-rule="evenodd" d="M298.543 351.255C300.643 352.355 311.543 360.255 331.343 374.755C314.443 401.055 299.343 415.055 286.143 416.855C272.943 418.655 260.843 416.555 249.943 410.455V351.255C280.343 350.155 296.443 350.155 298.543 351.255Z" fill="#87BFD9"/>
<path fill-rule="evenodd" clip-rule="evenodd" d="M250.043 271.656C250.043 271.656 257.043 272.056 267.443 279.456C278.943 287.556 304.943 318.756 311.443 367.256C314.443 389.656 293.943 404.156 250.043 410.656C250.043 318.056 250.043 271.656 250.043 271.656Z" fill="white"/>
<path d="M260.843 312.355H250.043V342.855H260.843V312.355Z" fill="#CBD3DF"/>
<path fill-rule="evenodd" clip-rule="evenodd" d="M250.043 267.055V305.055C255.043 305.155 260.243 304.055 265.743 301.655C271.243 299.255 276.743 293.155 282.343 283.155L250.043 267.055Z" fill="#D5FBFE"/>
<path fill-rule="evenodd" clip-rule="evenodd" d="M250.043 372.656C250.043 372.656 267.843 383.456 303.443 405.056L250.043 420.056C250.043 388.456 250.043 372.656 250.043 372.656Z" fill="#B0E9FE"/>
<path fill-rule="evenodd" clip-rule="evenodd" d="M250.043 398.754L293.043 412.054L250.043 415.054V398.754Z" fill="#2E6889"/>
<path fill-rule="evenodd" clip-rule="evenodd" d="M250.043 341.059C251.443 341.059 261.143 343.459 278.843 348.259C283.943 349.659 287.043 354.859 285.643 360.059C285.543 360.359 285.543 360.559 285.443 360.859L282.143 370.159C281.043 373.259 278.743 375.859 275.743 377.359L250.043 390.159C250.043 365.559 250.043 349.159 250.043 341.059Z" fill="#08273B"/>
<path fill-rule="evenodd" clip-rule="evenodd" d="M250.043 350.559C250.843 350.559 259.643 352.759 276.543 357.159L250.043 372.659C250.043 363.759 250.043 356.359 250.043 350.559Z" fill="#224A66"/>
<path d="M266.944 383.959C272.908 383.959 277.744 379.124 277.744 373.159C277.744 367.195 272.908 362.359 266.944 362.359C260.979 362.359 256.144 367.195 256.144 373.159C256.144 379.124 260.979 383.959 266.944 383.959Z" fill="#03121F"/>
<path d="M307.443 113.688L301.843 109.788C300.643 108.988 299.243 108.488 297.843 108.488H250.043V101.988H297.943C300.743 101.988 303.443 102.788 305.643 104.488L311.243 108.388L307.443 113.688Z" fill="white"/>
<path fill-rule="evenodd" clip-rule="evenodd" d="M292.343 123.889C289.843 121.089 300.243 110.089 305.043 103.489C336.443 60.5888 359.443 35.4888 370.743 27.8888C383.643 19.2888 398.143 90.3888 402.143 138.289C404.243 164.189 392.043 184.489 388.043 190.389C384.343 195.789 351.843 171.989 337.943 158.989C331.343 152.789 320.843 146.889 311.943 140.289C301.843 132.989 293.643 125.389 292.343 123.889Z" fill="#A54C00"/>
<path fill-rule="evenodd" clip-rule="evenodd" d="M370.943 45.8906C355.843 65.5906 344.743 79.6906 337.543 88.2906C330.343 96.8906 321.343 108.391 310.343 122.791C314.643 128.491 318.143 132.791 320.843 135.791C323.543 138.791 327.443 142.691 332.743 147.691C337.243 146.691 340.543 145.791 342.643 145.191C344.743 144.491 347.243 143.591 350.043 142.391C352.643 145.691 354.743 147.991 356.243 149.491C357.743 150.991 361.943 153.791 368.743 158.091C374.343 140.891 377.543 124.591 378.543 109.291C379.343 93.8906 376.843 72.7906 370.943 45.8906Z" fill="#803100"/>
<path d="M390.143 192.89L384.943 189.09L385.343 188.49C389.043 182.99 400.943 163.39 398.943 138.59C397.143 116.29 393.143 90.5896 388.343 69.6896C380.543 35.5896 374.443 31.0896 373.243 30.5896C372.943 30.4896 372.843 30.3896 372.543 30.6896C360.143 38.9896 335.943 66.8896 307.743 105.49C306.543 107.19 304.943 109.09 303.343 111.09C300.243 114.89 295.943 120.19 295.343 122.59L289.043 120.89C289.943 117.39 293.343 113.09 298.343 106.99C299.943 104.99 301.443 103.19 302.543 101.59C331.043 62.3896 355.843 33.8896 368.843 25.1896C371.043 23.6896 373.643 23.4896 375.943 24.6896C378.343 25.8896 385.643 29.3896 394.543 68.1896C399.343 89.2896 403.443 115.39 405.243 137.99C407.443 165.09 394.543 186.29 390.543 192.19L390.143 192.89Z" fill="white"/>
<path fill-rule="evenodd" clip-rule="evenodd" d="M286.401 275.498C292.701 287.898 298.301 294.498 303.101 295.298C307.901 296.098 320.901 290.898 342.201 279.798L355.801 261.698C353.701 260.098 352.201 258.798 351.301 257.698C350.301 256.698 349.001 254.998 347.301 252.598C332.301 256.798 321.401 260.198 314.601 262.798C307.801 265.398 298.401 269.598 286.401 275.498Z" fill="#050F1A"/>
<path fill-rule="evenodd" clip-rule="evenodd" d="M311.414 260.154C313.314 273.854 316.514 282.454 321.014 286.154C325.314 289.654 331.814 287.154 340.414 278.554C341.214 277.754 341.414 276.654 341.114 275.554L335.714 261.254C334.914 259.054 332.714 257.754 330.414 257.954L311.414 260.154Z" fill="#092338"/>
<path fill-rule="evenodd" clip-rule="evenodd" d="M331.414 252.652L328.314 272.552C327.814 275.552 328.414 278.652 330.014 281.252L336.514 292.052L351.214 279.652L331.414 252.652Z" fill="#113147"/>
<path fill-rule="evenodd" clip-rule="evenodd" d="M326.614 251.452C326.614 252.152 326.914 260.352 327.514 275.852C327.514 276.452 328.114 276.952 328.714 276.952C328.814 276.952 328.814 276.952 328.914 276.952C331.614 276.452 333.714 275.952 335.414 275.352C337.314 274.752 340.214 273.452 344.014 271.652L335.414 250.152C329.514 250.352 326.614 250.752 326.614 251.452Z" fill="#365E77"/>
<path d="M321.101 278.495C327.066 278.495 331.901 273.659 331.901 267.695C331.901 261.73 327.066 256.895 321.101 256.895C315.137 256.895 310.301 261.73 310.301 267.695C310.301 273.659 315.137 278.495 321.101 278.495Z" fill="white"/>
<path fill-rule="evenodd" clip-rule="evenodd" d="M112.043 191.091C103.443 195.391 96.7435 207.191 91.8435 226.391C87.5435 243.091 84.0435 261.491 81.2435 281.391C80.4435 287.391 81.1434 293.491 83.2435 299.191C94.4435 328.591 109.443 352.891 128.143 371.991C146.943 391.091 171.543 410.391 201.943 429.591C207.743 433.291 214.443 435.191 221.243 435.191H250.043V105.191H202.743C200.043 105.191 197.443 106.291 195.543 108.191L112.043 191.091Z" fill="#CB6E1A"/>
<path fill-rule="evenodd" clip-rule="evenodd" d="M230.443 297.892C228.543 281.192 226.243 268.492 223.543 259.892C220.743 251.292 215.543 240.492 207.943 227.692C181.943 222.192 162.743 217.292 150.443 212.992C138.143 208.692 123.243 200.292 105.743 187.992L80.1435 197.992L71.7435 297.892L161.243 435.992H250.043L230.443 297.892Z" fill="#FEA355"/>
<path fill-rule="evenodd" clip-rule="evenodd" d="M69.8067 320.595C117.207 287.095 159.307 299.995 196.207 359.495C202.907 370.295 244.907 380.995 250.007 390.195C268.507 423.295 259.507 448.395 223.007 465.695L69.8067 320.595Z" fill="white"/>
<path fill-rule="evenodd" clip-rule="evenodd" d="M171.307 269.395C171.407 329.995 151.307 379.395 111.007 417.695C70.7068 455.995 117.007 467.695 250.007 452.895V271.595L171.307 269.395Z" fill="#C8F4FD"/>
<path fill-rule="evenodd" clip-rule="evenodd" d="M201.443 351.255C199.343 352.355 188.443 360.255 168.643 374.755C185.543 401.055 200.643 415.055 213.843 416.855C227.043 418.655 239.143 416.555 250.043 410.455V351.255C219.743 350.155 203.543 350.155 201.443 351.255Z" fill="#87BFD9"/>
<path fill-rule="evenodd" clip-rule="evenodd" d="M250.043 271.656C250.043 271.656 243.043 272.056 232.643 279.456C221.143 287.556 195.143 318.756 188.643 367.256C185.643 389.656 206.143 404.156 250.043 410.656C250.043 318.056 250.043 271.656 250.043 271.656Z" fill="white"/>
<path fill-rule="evenodd" clip-rule="evenodd" d="M250.043 267.055V305.055C245.043 305.155 239.843 304.055 234.343 301.655C228.843 299.255 223.343 293.155 217.743 283.155L250.043 267.055Z" fill="#D5FBFE"/>
<path fill-rule="evenodd" clip-rule="evenodd" d="M250.043 372.656C250.043 372.656 232.243 383.456 196.643 405.056L250.043 420.156C250.043 388.456 250.043 372.656 250.043 372.656Z" fill="#B0E9FE"/>
<path fill-rule="evenodd" clip-rule="evenodd" d="M250.043 398.754L206.943 412.054L250.043 415.054V398.754Z" fill="#2E6889"/>
<path fill-rule="evenodd" clip-rule="evenodd" d="M250.043 341.059C248.643 341.059 238.943 343.459 221.243 348.259C216.143 349.659 213.043 354.859 214.443 360.059C214.543 360.359 214.543 360.559 214.643 360.859L217.943 370.159C219.043 373.259 221.343 375.859 224.343 377.359L249.943 390.159C250.043 365.559 250.043 349.159 250.043 341.059Z" fill="#08273B"/>
<path fill-rule="evenodd" clip-rule="evenodd" d="M250.043 350.559C249.243 350.559 240.443 352.759 223.543 357.159L250.043 372.559C250.043 363.759 250.043 356.359 250.043 350.559Z" fill="#224A66"/>
<path d="M233.043 362.359C227.079 362.359 222.243 367.195 222.243 373.159C222.243 379.124 227.079 383.959 233.043 383.959C239.008 383.959 243.843 379.124 243.843 373.159C243.843 367.195 239.008 362.359 233.043 362.359Z" fill="#03121F"/>
<path d="M192.543 113.688L188.843 108.388L194.443 104.488C196.743 102.888 199.443 101.988 202.143 101.988H250.043V108.488H202.143C200.743 108.488 199.343 108.888 198.143 109.788L192.543 113.688Z" fill="white"/>
<path fill-rule="evenodd" clip-rule="evenodd" d="M207.743 123.889C210.243 121.089 199.843 110.089 195.043 103.489C163.643 60.5888 140.643 35.4888 129.343 27.8888C116.443 19.2888 101.943 90.3888 97.9432 138.289C95.8432 164.189 108.043 184.489 112.043 190.389C115.743 195.789 148.243 171.989 162.143 158.989C168.743 152.789 179.243 146.889 188.143 140.289C198.143 132.989 206.343 125.389 207.743 123.889Z" fill="#A54C00"/>
<path fill-rule="evenodd" clip-rule="evenodd" d="M129.044 45.8906C144.144 65.5906 155.244 79.6906 162.444 88.2906C169.644 96.8906 178.644 108.391 189.644 122.791C185.344 128.491 181.844 132.791 179.144 135.791C176.444 138.791 172.544 142.691 167.244 147.691C162.744 146.691 159.444 145.791 157.344 145.191C155.244 144.491 152.744 143.591 149.944 142.391C147.344 145.691 145.244 147.991 143.744 149.491C142.244 150.891 138.044 153.791 131.244 158.091C125.644 140.891 122.444 124.591 121.444 109.291C120.644 93.8906 123.144 72.7906 129.044 45.8906Z" fill="#803100"/>
<path d="M109.943 192.89L109.443 192.19C105.443 186.29 92.5435 165.09 94.7435 137.99C96.6435 115.39 100.643 89.2896 105.443 68.1896C114.343 29.3896 121.543 25.8896 123.943 24.6896C126.343 23.4896 128.843 23.6896 131.043 25.1896C144.043 33.8896 168.943 62.3896 197.543 101.59C198.643 103.19 200.143 104.99 201.743 106.99C206.743 113.19 210.043 117.39 211.043 120.89L204.743 122.59C204.143 120.19 199.843 114.89 196.743 111.09C195.143 109.09 193.543 107.19 192.343 105.49C164.143 66.8896 139.943 38.9896 127.543 30.6896C127.243 30.4896 127.143 30.4896 126.843 30.5896C125.743 31.1896 119.543 35.5896 111.743 69.6896C106.943 90.4896 103.043 116.29 101.143 138.59C99.0435 163.49 110.943 182.99 114.743 188.49L115.143 189.09L109.943 192.89Z" fill="white"/>
<path fill-rule="evenodd" clip-rule="evenodd" d="M213.585 275.498C207.285 287.898 201.685 294.498 196.885 295.298C192.085 296.098 179.085 290.898 157.785 279.798L144.185 261.698C146.285 260.098 147.785 258.798 148.685 257.698C149.685 256.698 150.985 254.998 152.685 252.598C167.685 256.798 178.585 260.198 185.385 262.798C192.185 265.398 201.585 269.598 213.585 275.498Z" fill="#050F1A"/>
<path fill-rule="evenodd" clip-rule="evenodd" d="M188.573 260.154C186.673 273.854 183.473 282.454 178.973 286.154C174.673 289.654 168.173 287.154 159.573 278.554C158.773 277.754 158.573 276.654 158.873 275.554L164.273 261.254C165.073 259.054 167.273 257.754 169.573 257.954L188.573 260.154Z" fill="#092338"/>
<path fill-rule="evenodd" clip-rule="evenodd" d="M168.573 252.652L171.673 272.552C172.173 275.552 171.573 278.652 169.973 281.252L163.473 292.052L148.773 279.652L168.573 252.652Z" fill="#113147"/>
<path fill-rule="evenodd" clip-rule="evenodd" d="M173.373 251.452C173.373 252.152 173.073 260.352 172.473 275.852C172.473 276.452 171.873 276.952 171.273 276.952C171.173 276.952 171.173 276.952 171.073 276.952C168.373 276.452 166.273 275.952 164.573 275.352C162.673 274.752 159.773 273.452 155.973 271.652L164.573 250.152C170.473 250.352 173.373 250.752 173.373 251.452Z" fill="#365E77"/>
<path d="M178.886 278.495C172.921 278.495 168.086 273.659 168.086 267.695C168.086 261.73 172.921 256.895 178.886 256.895C184.85 256.895 189.686 261.73 189.686 267.695C189.686 273.659 184.85 278.495 178.886 278.495Z" fill="white"/>
<path fill-rule="evenodd" clip-rule="evenodd" d="M387.943 191.091C396.543 195.391 403.243 207.191 408.143 226.391C412.443 243.091 415.943 261.491 418.743 281.391C419.543 287.391 418.843 293.491 416.743 299.191C405.543 328.591 390.543 352.891 371.843 371.991C353.043 391.091 328.443 410.391 298.043 429.591C292.243 433.291 285.543 435.191 278.743 435.191H250.043V105.191H297.343C300.043 105.191 302.643 106.291 304.543 108.191L387.943 191.091Z" fill="url(#paint2_linear_1_322)"/>
<path fill-rule="evenodd" clip-rule="evenodd" d="M269.543 297.822C271.443 281.122 273.743 268.422 276.443 259.822C279.243 251.222 284.443 240.422 292.043 227.622C318.043 222.122 337.243 217.222 349.543 212.922C361.843 208.622 376.743 200.222 394.243 187.922L419.843 197.922L428.243 297.822L338.743 435.922H250.043L269.543 297.822Z" fill="url(#paint3_linear_1_322)"/>
<path d="M365.391 184.666L359.446 230.582L365.892 231.417L371.837 185.501L365.391 184.666Z" fill="#8BF2FF"/>
<path d="M375.712 261.762C367.912 261.762 361.612 255.462 361.612 247.662C361.612 239.862 367.912 233.562 375.712 233.562C383.512 233.562 389.812 239.862 389.812 247.662C389.812 255.462 383.512 261.762 375.712 261.762ZM375.712 240.062C371.512 240.062 368.112 243.462 368.112 247.662C368.112 251.862 371.512 255.262 375.712 255.262C379.912 255.262 383.312 251.862 383.312 247.662C383.312 243.462 379.912 240.062 375.712 240.062Z" fill="#8BF2FF"/>
<path d="M395.512 297.962C387.712 297.962 381.412 291.662 381.412 283.862C381.412 276.062 387.712 269.762 395.512 269.762C403.312 269.762 409.612 276.062 409.612 283.862C409.612 291.662 403.312 297.962 395.512 297.962ZM395.512 276.262C391.312 276.262 387.912 279.662 387.912 283.862C387.912 288.062 391.312 291.462 395.512 291.462C399.712 291.462 403.112 288.062 403.112 283.862C403.112 279.662 399.712 276.262 395.512 276.262Z" fill="#8BF2FF"/>
<path d="M349.112 313.762C341.312 313.762 335.012 307.463 335.012 299.663C335.012 291.863 341.312 285.562 349.112 285.562C356.912 285.562 363.212 291.863 363.212 299.663C363.212 307.463 356.912 313.762 349.112 313.762ZM349.112 292.062C344.912 292.062 341.512 295.463 341.512 299.663C341.512 303.863 344.912 307.262 349.112 307.262C353.312 307.262 356.712 303.863 356.712 299.663C356.712 295.463 353.312 292.062 349.112 292.062Z" fill="#8BF2FF"/>
<path d="M379.211 252.66H372.711V277.26H379.211V252.66Z" fill="#8BF2FF"/>
<path d="M392.243 286.338L366.048 318.141L371.066 322.273L397.261 290.471L392.243 286.338Z" fill="#8BF2FF"/>
<path d="M386.784 265.8L381.63 269.762L390.956 281.892L396.109 277.93L386.784 265.8Z" fill="#8BF2FF"/>
<path d="M344.405 297.31L280.665 301.832L281.125 308.316L344.865 303.794L344.405 297.31Z" fill="#8BF2FF"/>
<path d="M268.612 266.66L265.412 260.96L320.812 229.66L348.312 240.16L346.012 246.16L321.312 236.86L268.612 266.66Z" fill="#8BF2FF"/>
<path d="M366.121 212.083L365.212 218.52L413.237 225.305L414.146 218.868L366.121 212.083Z" fill="#8BF2FF"/>
<path fill-rule="evenodd" clip-rule="evenodd" d="M430.28 320.595C382.88 287.095 340.78 299.995 303.88 359.495C297.18 370.295 255.18 380.995 250.08 390.195C231.58 423.295 240.58 448.395 277.08 465.695L430.28 320.595Z" fill="white"/>
<path fill-rule="evenodd" clip-rule="evenodd" d="M328.68 269.395C328.58 329.995 348.68 379.395 388.98 417.695C429.28 455.995 382.98 467.695 249.98 452.895V271.595L328.68 269.395Z" fill="#C8F4FD"/>
<path fill-rule="evenodd" clip-rule="evenodd" d="M298.543 351.255C300.643 352.355 311.543 360.255 331.343 374.755C314.443 401.055 299.343 415.055 286.143 416.855C272.943 418.655 260.843 416.555 249.943 410.455V351.255C280.343 350.155 296.443 350.155 298.543 351.255Z" fill="#87BFD9"/>
<path fill-rule="evenodd" clip-rule="evenodd" d="M250.043 271.656C250.043 271.656 257.043 272.056 267.443 279.456C278.943 287.556 304.943 318.756 311.443 367.256C314.443 389.656 293.943 404.156 250.043 410.656C250.043 318.056 250.043 271.656 250.043 271.656Z" fill="white"/>
<path fill-rule="evenodd" clip-rule="evenodd" d="M250.043 267.055V305.055C255.043 305.155 260.243 304.055 265.743 301.655C271.243 299.255 276.743 293.155 282.343 283.155L250.043 267.055Z" fill="#D5FBFE"/>
<path fill-rule="evenodd" clip-rule="evenodd" d="M250.043 372.656C250.043 372.656 267.843 383.456 303.443 405.056L250.043 420.056C250.043 388.456 250.043 372.656 250.043 372.656Z" fill="#B0E9FE"/>
<path fill-rule="evenodd" clip-rule="evenodd" d="M250.043 398.754L293.043 412.054L250.043 415.054V398.754Z" fill="#2E6889"/>
<path fill-rule="evenodd" clip-rule="evenodd" d="M250.043 341.059C251.443 341.059 261.143 343.459 278.843 348.259C283.943 349.659 287.043 354.859 285.643 360.059C285.543 360.359 285.543 360.559 285.443 360.859L282.143 370.159C281.043 373.259 278.743 375.859 275.743 377.359L250.043 390.159C250.043 365.559 250.043 349.159 250.043 341.059Z" fill="#08273B"/>
<path fill-rule="evenodd" clip-rule="evenodd" d="M250.043 350.559C250.843 350.559 259.643 352.759 276.543 357.159L250.043 372.659C250.043 363.759 250.043 356.359 250.043 350.559Z" fill="#224A66"/>
<path d="M266.944 383.959C272.908 383.959 277.744 379.124 277.744 373.159C277.744 367.195 272.908 362.359 266.944 362.359C260.979 362.359 256.144 367.195 256.144 373.159C256.144 379.124 260.979 383.959 266.944 383.959Z" fill="#03121F"/>
<path d="M307.443 113.688L301.843 109.788C300.643 108.988 299.243 108.488 297.843 108.488H250.043V101.988H297.943C300.743 101.988 303.443 102.788 305.643 104.488L311.243 108.388L307.443 113.688Z" fill="white"/>
<path fill-rule="evenodd" clip-rule="evenodd" d="M292.343 123.889C289.843 121.089 300.243 110.089 305.043 103.489C336.443 60.5888 359.443 35.4888 370.743 27.8888C383.643 19.2888 398.143 90.3888 402.143 138.289C404.243 164.189 392.043 184.489 388.043 190.389C384.343 195.789 351.843 171.989 337.943 158.989C331.343 152.789 320.843 146.889 311.943 140.289C301.843 132.989 293.643 125.389 292.343 123.889Z" fill="url(#paint4_linear_1_322)"/>
<path fill-rule="evenodd" clip-rule="evenodd" d="M370.91 45.8125C355.81 65.5125 344.71 79.6125 337.51 88.2125C330.31 96.8125 321.31 108.312 310.31 122.712C314.61 128.412 318.11 132.713 320.81 135.713C323.51 138.713 327.41 142.613 332.71 147.613C337.21 146.613 340.51 145.713 342.61 145.113C344.71 144.413 347.21 143.512 350.01 142.312C352.61 145.613 354.71 147.913 356.21 149.413C357.71 150.913 361.91 153.712 368.71 158.012C374.31 140.812 377.51 124.512 378.51 109.212C379.41 93.9125 376.91 72.8125 370.91 45.8125Z" fill="url(#paint5_linear_1_322)"/>
<path fill-rule="evenodd" clip-rule="evenodd" d="M311.41 132.211H351.21L375.61 146.511L370.31 163.811L321.11 143.211L311.41 132.211Z" fill="#113D67"/>
<path fill-rule="evenodd" clip-rule="evenodd" d="M318.91 98.6117C320.31 98.6117 332.61 97.9117 355.71 96.5117L321.01 140.512L304.71 121.312C312.81 106.112 317.51 98.6117 318.91 98.6117Z" fill="url(#paint6_linear_1_322)"/>
<path d="M390.143 192.89L384.943 189.09L385.343 188.49C389.043 182.99 400.943 163.39 398.943 138.59C397.143 116.29 393.143 90.5896 388.343 69.6896C380.543 35.5896 374.443 31.0896 373.243 30.5896C372.943 30.4896 372.843 30.3896 372.543 30.6896C360.143 38.9896 335.943 66.8896 307.743 105.49C306.543 107.19 304.943 109.09 303.343 111.09C300.243 114.89 295.943 120.19 295.343 122.59L289.043 120.89C289.943 117.39 293.343 113.09 298.343 106.99C299.943 104.99 301.443 103.19 302.543 101.59C331.043 62.3896 355.843 33.8896 368.843 25.1896C371.043 23.6896 373.643 23.4896 375.943 24.6896C378.343 25.8896 385.643 29.3896 394.543 68.1896C399.343 89.2896 403.443 115.39 405.243 137.99C407.443 165.09 394.543 186.29 390.543 192.19L390.143 192.89Z" fill="white"/>
<path fill-rule="evenodd" clip-rule="evenodd" d="M286.401 275.498C292.701 287.898 298.301 294.498 303.101 295.298C307.901 296.098 320.901 290.898 342.201 279.798L355.801 261.698C353.701 260.098 352.201 258.798 351.301 257.698C350.301 256.698 349.001 254.998 347.301 252.598C332.301 256.798 321.401 260.198 314.601 262.798C307.801 265.398 298.401 269.598 286.401 275.498Z" fill="#050F1A"/>
<path fill-rule="evenodd" clip-rule="evenodd" d="M311.414 260.154C313.314 273.854 316.514 282.454 321.014 286.154C325.314 289.654 331.814 287.154 340.414 278.554C341.214 277.754 341.414 276.654 341.114 275.554L335.714 261.254C334.914 259.054 332.714 257.754 330.414 257.954L311.414 260.154Z" fill="#092338"/>
<path fill-rule="evenodd" clip-rule="evenodd" d="M331.414 252.652L328.314 272.552C327.814 275.552 328.414 278.652 330.014 281.252L336.514 292.052L351.214 279.652L331.414 252.652Z" fill="#113147"/>
<path fill-rule="evenodd" clip-rule="evenodd" d="M326.614 251.452C326.614 252.152 326.914 260.352 327.514 275.852C327.514 276.452 328.114 276.952 328.714 276.952C328.814 276.952 328.814 276.952 328.914 276.952C331.614 276.452 333.714 275.952 335.414 275.352C337.314 274.752 340.214 273.452 344.014 271.652L335.414 250.152C329.514 250.352 326.614 250.752 326.614 251.452Z" fill="#365E77"/>
<path d="M315.707 277.075C320.873 280.057 327.478 278.287 330.46 273.122C333.443 267.956 331.673 261.351 326.507 258.369C321.342 255.386 314.737 257.156 311.754 262.322C308.772 267.487 310.542 274.093 315.707 277.075Z" fill="black"/>
<path d="M315.707 277.075C320.873 280.057 327.478 278.287 330.46 273.122C333.443 267.956 331.673 261.351 326.507 258.369C321.342 255.386 314.737 257.156 311.754 262.322C308.772 267.487 310.542 274.093 315.707 277.075Z" fill="#8BF2FF"/>
</g>
<defs>
<linearGradient id="paint0_linear_1_322" x1="250.001" y1="21.3401" x2="250.001" y2="477.1" gradientUnits="userSpaceOnUse">
<stop stop-color="#031937"/>
<stop offset="1" stop-color="#1292BD"/>
</linearGradient>
<linearGradient id="paint1_linear_1_322" x1="250.001" y1="179.157" x2="250.001" y2="321.839" gradientUnits="userSpaceOnUse">
<stop stop-color="#46A8EC"/>
<stop offset="1" stop-color="#ADF6F8"/>
</linearGradient>
<linearGradient id="paint2_linear_1_322" x1="339.886" y1="106.697" x2="293.775" y2="309.324" gradientUnits="userSpaceOnUse">
<stop stop-color="#36AED1"/>
<stop offset="1" stop-color="#2D648E"/>
</linearGradient>
<linearGradient id="paint3_linear_1_322" x1="344.306" y1="188.18" x2="333.629" y2="378.612" gradientUnits="userSpaceOnUse">
<stop stop-color="#57D2F6"/>
<stop offset="1" stop-color="#429ADC"/>
</linearGradient>
<linearGradient id="paint4_linear_1_322" x1="349.778" y1="27.1308" x2="340.839" y2="190.81" gradientUnits="userSpaceOnUse">
<stop stop-color="#18586B"/>
<stop offset="1" stop-color="#1D7191"/>
</linearGradient>
<linearGradient id="paint5_linear_1_322" x1="344.467" y1="45.8371" x2="344.467" y2="157.915" gradientUnits="userSpaceOnUse">
<stop stop-color="#1D8CC0"/>
<stop offset="1" stop-color="#1D4C80"/>
</linearGradient>
<linearGradient id="paint6_linear_1_322" x1="349.966" y1="96.4604" x2="312.931" y2="134.612" gradientUnits="userSpaceOnUse">
<stop stop-color="#3095B4"/>
<stop offset="1" stop-color="#113D67"/>
</linearGradient>
<clipPath id="clip0_1_322">
<rect width="500" height="500" fill="white" transform="translate(0 0.5)"/>
</clipPath>
</defs>
</svg>
