<svg width="500" height="501" viewBox="0 0 500 501" fill="none" xmlns="http://www.w3.org/2000/svg">
<path d="M187.4 3.10156C229 3.10156 270.6 3.10156 312.1 3.10156C312.3 3.50156 312.5 3.90156 312.6 4.30156C321.9 30.6016 331.3 56.9016 340.6 83.1016C354 120.902 367.4 158.702 380.9 196.402C400.6 251.902 420.3 307.402 440 362.802C455 405.102 470.1 447.502 485.1 489.802C485.4 490.602 485.7 491.502 486 492.402C450.8 492.402 415.7 492.402 380.6 492.402C337.1 370.002 293.5 247.402 250 124.802C249.9 124.802 249.8 124.802 249.7 124.802C206.2 247.402 162.6 370.002 119 492.602C118.3 492.602 117.8 492.602 117.2 492.602C101.9 492.602 86.6001 492.602 71.4001 492.602C52.1001 492.602 32.9001 492.602 13.6001 492.602C13.6001 492.402 13.6001 492.202 13.6001 492.002C13.8001 491.602 14.0001 491.202 14.2001 490.802C15.7001 486.702 17.1001 482.502 18.6001 478.402C32.6001 438.902 46.7001 399.402 60.7001 359.902C75.3001 318.702 90.0001 277.402 104.6 236.202C115.7 204.902 126.9 173.602 138 142.302C153.4 98.9016 168.8 55.5016 184.2 12.2016C185.3 9.20156 186.3 6.20156 187.4 3.10156Z" fill="black"/>
<path d="M249.8 384.898C281.2 384.898 306.4 410.098 306.2 441.798C306 473.098 280.2 498.298 248.6 497.598C218.6 496.998 193.5 472.498 193.5 441.198C193.5 409.998 218.7 384.898 249.8 384.898Z" fill="black"/>
</svg>
