<svg width="500" height="501" viewBox="0 0 500 501" fill="none" xmlns="http://www.w3.org/2000/svg">
<path d="M50.3999 409.098H283.2C290.5 409.098 294.8 400.998 290.8 394.898L255.4 341.898H50.3999V409.098Z" fill="url(#paint0_linear_1_465)"/>
<path d="M38 409.098C38 409.098 198.9 409.098 134.2 409.098C114.9 409.098 106.9 397.098 103.6 385.098C100.4 373.298 102.2 360.698 108.1 349.898L249.3 88.8984H183C164.1 88.8984 146.8 99.1984 137.8 115.798L7.19999 357.398C-5.40001 380.798 11.5 409.098 38 409.098Z" fill="url(#paint1_linear_1_465)"/>
<path d="M471.9 409.098H389.4C380.6 409.098 372.4 404.298 368.2 396.498L226.1 133.698C226.1 133.698 199.6 88.8984 183.9 88.8984C146.1 88.8984 269.4 88.8984 269.4 88.8984C287.5 88.8984 304.1 98.7984 312.7 114.698L471.9 409.098Z" fill="url(#paint2_linear_1_465)"/>
<path d="M482.5 409.101C482.5 409.101 368.8 409.101 392.1 409.101C413.2 409.101 412.6 383.801 412.6 383.801L415.4 103.501C415.4 95.4008 422 88.8008 430.1 88.8008H482.6C490.7 88.8008 497.3 95.4008 497.3 103.501V394.301C497.2 402.501 490.6 409.101 482.5 409.101Z" fill="url(#paint3_linear_1_465)"/>
<defs>
<linearGradient id="paint0_linear_1_465" x1="292.264" y1="375.486" x2="50.3533" y2="375.486" gradientUnits="userSpaceOnUse">
<stop stop-color="#00AAE7"/>
<stop offset="0.8002" stop-color="#14418D"/>
</linearGradient>
<linearGradient id="paint1_linear_1_465" x1="126.077" y1="409.104" x2="126.077" y2="88.9341" gradientUnits="userSpaceOnUse">
<stop stop-color="#00AAE7"/>
<stop offset="1" stop-color="#02509C"/>
</linearGradient>
<linearGradient id="paint2_linear_1_465" x1="324.321" y1="88.9341" x2="324.321" y2="409.104" gradientUnits="userSpaceOnUse">
<stop stop-color="#00AAE7"/>
<stop offset="1" stop-color="#02509C"/>
</linearGradient>
<linearGradient id="paint3_linear_1_465" x1="443.066" y1="409.106" x2="443.066" y2="88.9365" gradientUnits="userSpaceOnUse">
<stop stop-color="#01AAE1"/>
<stop offset="1" stop-color="#005DA3"/>
</linearGradient>
</defs>
</svg>
