<svg width="500" height="501" viewBox="0 0 500 501" fill="none" xmlns="http://www.w3.org/2000/svg">
<path d="M250 499.402C237.8 499.402 225.7 496.202 215.1 490.102L60.4 400.702C38.8 388.202 25.5 365.202 25.5 340.202V161.702C25.5 136.802 38.8 113.702 60.4 101.202L215.1 11.9016C236.7 -0.498438 263.3 -0.498438 284.9 11.9016L439.6 101.202C461.2 113.702 474.5 136.702 474.5 161.702V340.302C474.5 365.202 461.2 388.302 439.6 400.802L284.9 490.102C274.3 496.202 262.2 499.402 250 499.402ZM250 26.8016C242 26.8016 234.1 28.9016 227.2 32.8016L72.5 122.202C58.4 130.402 49.7 145.402 49.7 161.702V340.302C49.8 356.502 58.4 371.502 72.5 379.602L227.2 469.002C241.3 477.102 258.6 477.102 272.7 469.002L427.4 379.702C441.4 371.602 450.1 356.602 450.2 340.402V161.702C450.2 145.402 441.5 130.402 427.4 122.202L272.8 32.9016C265.8 28.9016 258 26.8016 250 26.8016ZM250 418.302C243.4 418.302 236.9 416.602 231.2 413.202L118.8 348.502C107.2 341.702 100.1 329.302 100.1 315.902V186.102C100.1 172.702 107.2 160.302 118.8 153.502L231.2 88.7016C242.9 82.0016 257.2 82.0016 268.9 88.7016L381.2 153.502C392.8 160.202 400 172.702 400 186.102V315.802C400 329.202 392.8 341.702 381.2 348.402L268.8 413.202C263.1 416.602 256.6 418.302 250 418.302ZM250 101.802C246.6 101.802 243.2 102.702 240.3 104.402L127.9 169.302C121.9 172.802 118.3 179.302 118.3 186.202V315.902C118.3 322.902 122 329.302 128.1 332.802L240.4 397.602C246.4 401.102 253.9 401.102 259.9 397.602L372.3 332.802C378.3 329.302 382 322.902 382 315.902V186.102C382 179.102 378.3 172.702 372.2 169.202L259.7 104.402C256.8 102.702 253.4 101.802 250 101.802ZM250 336.102C246.6 336.102 243.3 335.202 240.4 333.502L183.4 300.602C177.4 297.102 173.8 290.702 173.8 283.802V218.002C173.8 211.102 177.5 204.702 183.4 201.302L240.4 168.402C246.4 165.002 253.7 165.002 259.7 168.402L316.7 201.302C322.7 204.702 326.3 211.102 326.3 218.002V283.802C326.3 290.702 322.6 297.102 316.7 300.502L259.7 333.402C256.7 335.202 253.4 336.102 250 336.102ZM250 178.002C248.7 178.002 247.5 178.302 246.4 178.902L189.4 211.902C187.2 213.202 185.9 215.402 185.8 217.902V283.902C185.8 286.502 187.2 288.802 189.4 290.102L246.4 323.202C248.6 324.502 251.4 324.502 253.6 323.202L310.6 290.302C312.9 289.002 314.2 286.502 314.2 283.902V218.102C314.1 215.602 312.8 213.302 310.6 212.102L253.6 179.002C252.5 178.302 251.3 178.002 250 178.002Z" fill="url(#paint0_linear_1_475)"/>
<defs>
<linearGradient id="paint0_linear_1_475" x1="25.54" y1="250.994" x2="474.46" y2="250.994" gradientUnits="userSpaceOnUse">
<stop stop-color="#E168FD"/>
<stop offset="1" stop-color="#7B00FC"/>
</linearGradient>
</defs>
</svg>
