<svg width="500" height="501" viewBox="0 0 500 501" fill="none" xmlns="http://www.w3.org/2000/svg">
<path d="M424.8 75.7008C378.1 29.0008 316 3.30078 250 3.30078C184 3.30078 121.9 29.0008 75.2 75.7008C28.5 122.401 2.80005 184.501 2.80005 250.501C2.80005 316.501 28.5 378.601 75.2 425.301C121.9 472.001 184 497.701 250 497.701C316 497.701 378.1 472.001 424.8 425.301C471.5 378.601 497.2 316.501 497.2 250.501C497.2 184.501 471.5 122.401 424.8 75.7008ZM159.9 378.101H95.5L114.9 341.901L159.9 378.101ZM90.2 308.701V200.001L244.7 322.901V432.901L90.2 308.701ZM255.2 388.601H308.5L255.2 432.601V388.601ZM255.2 378.101V320.301C255.2 318.701 254.5 317.201 253.2 316.201L168.9 249.201L249.9 110.801L405.6 378.101H255.2ZM344.8 252.801L409.6 201.301V309.201L387.8 326.601L344.8 252.801ZM339.4 243.601L254.5 97.8008C253.6 96.2008 251.8 95.2008 250 95.2008C248.1 95.2008 246.4 96.2008 245.5 97.8008L160.7 242.601L93.4 189.101L250 66.3008L406.4 190.401L339.4 243.601ZM13.3 250.501C13.3 187.301 37.9 127.801 82.6 83.1008C126.1 39.6008 183.5 15.2008 244.7 13.8008V57.0008L81.7 184.901C80.4 185.901 79.7 187.401 79.7 189.001V311.101C79.7 312.701 80.4 314.201 81.7 315.201L106.5 335.101L82.1 380.801C81.2 382.401 81.3 384.401 82.2 386.001C83.1 387.601 84.9 388.501 86.7 388.501H173L244.8 446.201V487.101C183.5 485.801 126.1 461.301 82.7 417.801C37.9 373.201 13.3 313.701 13.3 250.501ZM417.4 417.901C373.9 461.401 316.5 485.801 255.3 487.201V446.301L325 388.701H414.8C416.7 388.701 418.4 387.701 419.3 386.101C420.2 384.501 420.2 382.501 419.3 380.901L393.1 335.901L418.1 315.901C419.3 314.901 420.1 313.401 420.1 311.801V190.401C420.1 188.801 419.4 187.301 418.1 186.301L255.2 57.1008V13.9008C316.5 15.2008 373.9 39.7008 417.3 83.2008C462 127.901 486.6 187.301 486.6 250.601C486.7 313.701 462.1 373.201 417.4 417.901Z" fill="#EFC9A9"/>
</svg>
