<svg width="500" height="501" viewBox="0 0 500 501" fill="none" xmlns="http://www.w3.org/2000/svg">
<path d="M378 378.498C362.3 394.198 336.8 394.198 321.1 378.498C305.4 362.798 305.4 337.298 321.1 321.598C336.8 305.898 362.3 305.898 378 321.598C393.7 337.298 393.7 362.798 378 378.498ZM207.3 463.798L264.2 406.898C272.1 398.998 284.8 398.998 292.6 406.898C300.5 414.798 300.5 427.498 292.6 435.298L235.7 492.198C227.8 500.098 215.1 500.098 207.3 492.198C199.5 484.398 199.5 471.698 207.3 463.798ZM434.9 406.998L491.8 463.898C499.7 471.798 499.7 484.498 491.8 492.298C483.9 500.198 471.2 500.198 463.4 492.298L406.5 435.398C398.6 427.498 398.6 414.798 406.5 406.998C414.3 399.098 427 399.098 434.9 406.998ZM178.9 179.398C163.2 195.098 137.7 195.098 122 179.398C106.3 163.698 106.3 138.198 122 122.498C137.7 106.798 163.2 106.798 178.9 122.498C194.6 138.198 194.6 163.698 178.9 179.398ZM207.3 65.5984L264.2 8.69844C272.1 0.798438 284.8 0.798438 292.6 8.69844C300.5 16.5984 300.5 29.2984 292.6 37.0984L235.7 93.9984C227.8 101.898 215.1 101.898 207.3 93.9984C199.5 86.1984 199.5 73.4984 207.3 65.5984ZM235.8 207.798L292.7 264.698C300.6 272.598 300.6 285.298 292.7 293.098C284.8 300.898 272.1 300.998 264.3 293.098L207.4 236.198C199.5 228.298 199.5 215.598 207.4 207.798C215.2 199.998 227.9 199.998 235.8 207.798ZM36.7 8.69844L93.6 65.5984C101.5 73.4984 101.5 86.1984 93.6 93.9984C85.7 101.898 73 101.898 65.2 93.9984L8.20002 37.1984C0.300025 29.2984 0.300025 16.5984 8.20002 8.79844C16.1 0.798438 28.8 0.798438 36.7 8.69844Z" fill="#539BEF"/>
</svg>
