<svg width="500" height="501" viewBox="0 0 500 501" fill="none" xmlns="http://www.w3.org/2000/svg">
<g clip-path="url(#clip0_1_492)">
<path d="M250 495.098C385.089 495.098 494.6 385.587 494.6 250.498C494.6 115.41 385.089 5.89844 250 5.89844C114.911 5.89844 5.40002 115.41 5.40002 250.498C5.40002 385.587 114.911 495.098 250 495.098Z" fill="#10151B"/>
<path d="M250 500.5C183.2 500.5 120.4 474.5 73.2 427.3C26 380.1 0 317.3 0 250.5C0 183.7 26 120.9 73.2 73.7C120.4 26.5 183.2 0.5 250 0.5C316.8 0.5 379.6 26.5 426.8 73.7C474 120.9 500 183.7 500 250.5C500 317.3 474 380.1 426.8 427.3C379.6 474.5 316.8 500.5 250 500.5ZM250 11.3C186.1 11.3 126 36.2 80.8 81.4C35.6 126.5 10.8 186.6 10.8 250.5C10.8 314.4 35.7 374.5 80.9 419.7C126.1 464.9 186.2 489.8 250.1 489.8C314 489.8 374.1 464.9 419.3 419.7C464.5 374.5 489.4 314.4 489.4 250.5C489.4 186.6 464.5 126.5 419.3 81.3C374 36.1 313.9 11.3 250 11.3Z" fill="#6C93C7"/>
<path d="M250 326C249.1 326 248.2 325.8 247.4 325.3L113.9 240.3C111.7 238.9 111 236 112.4 233.8L247.4 12.8C248.3 11.4 249.8 10.5 251.5 10.5C253.2 10.5 254.7 11.4 255.6 12.8L387.6 233.8C388.9 236 388.2 238.9 386.1 240.3L252.6 325.3C251.8 325.8 250.9 326 250 326ZM123.1 234.7L250 315.6L377 234.7L251.4 24.5L123.1 234.7Z" fill="#6C93C7"/>
<path d="M250 326C247.4 326 245.2 323.9 245.2 321.2V142.3L246.7 15.2C246.7 12.6 248.9 10.5 251.5 10.5C251.5 10.5 251.5 10.5 251.6 10.5C254.2 10.5 256.4 12.7 256.3 15.3L254.8 142.4V321.3C254.8 323.9 252.6 326 250 326Z" fill="#6C93C7"/>
<path d="M383.5 241C382.9 241 382.2 240.9 381.6 240.6L250 182.5L118.5 240.6C116.1 241.7 113.3 240.6 112.2 238.2C111.1 235.8 112.2 233 114.6 231.9L248.1 173C249.3 172.5 250.7 172.5 252 173L385.5 231.9C387.9 233 389 235.8 387.9 238.2C387.1 239.9 385.3 241 383.5 241Z" fill="#6C93C7"/>
<path d="M116.5 303.699C114.6 303.699 112.9 302.599 112.1 300.799C111.1 298.399 112.2 295.599 114.7 294.499L174 269.699C176.4 268.699 179.2 269.799 180.3 272.299C181.3 274.699 180.2 277.499 177.7 278.599L118.4 303.399C117.8 303.599 117.1 303.699 116.5 303.699Z" fill="#6C93C7"/>
<path d="M383.6 303.7C383 303.7 382.4 303.6 381.8 303.3L322.4 278.5C320 277.5 318.8 274.7 319.8 272.2C320.8 269.8 323.6 268.6 326.1 269.6L385.5 294.4C387.9 295.4 389.1 298.2 388.1 300.7C387.3 302.6 385.5 303.7 383.6 303.7Z" fill="#6C93C7"/>
<path d="M250.8 490.498C249.3 490.498 247.8 489.798 246.9 488.498L112.6 301.498C111.3 299.598 111.4 296.998 113.1 295.398C114.7 293.698 117.3 293.498 119.2 294.798L250.8 383.498L380.8 294.898C382.7 293.598 385.3 293.798 386.9 295.498C388.5 297.198 388.7 299.698 387.4 301.598L254.7 488.498C253.8 489.798 252.4 490.498 250.8 490.498ZM135.9 317.598L250.8 477.498L364.2 317.698L253.5 393.198C251.9 394.298 249.8 394.298 248.1 393.198L135.9 317.598Z" fill="#6C93C7"/>
<path d="M250.8 490.498C248.2 490.498 246 488.398 246 485.698V389.198C246 386.598 248.1 384.398 250.8 384.398C253.4 384.398 255.6 386.498 255.6 389.198V485.698C255.6 488.398 253.5 490.498 250.8 490.498Z" fill="#6C93C7"/>
</g>
<defs>
<clipPath id="clip0_1_492">
<rect width="500" height="500" fill="white" transform="translate(0 0.5)"/>
</clipPath>
</defs>
</svg>
