<svg width="500" height="501" viewBox="0 0 500 501" fill="none" xmlns="http://www.w3.org/2000/svg">
<g clip-path="url(#clip0_1_504)">
<path d="M250 0.898438C111.9 0.898438 0 112.598 0 250.498C0 388.398 111.9 500.098 250 500.098C388.1 500.098 500 388.298 500 250.498C500 112.698 388 0.898438 250 0.898438ZM279.5 123.598C248.2 139.298 279.8 145.798 278.4 155.098C278 157.698 275.5 162.598 267.4 164.498C267.4 164.698 267.4 164.898 267.4 165.098C277.3 164.198 277.7 174.298 275.6 175.298C258 183.498 260.6 197.698 267.3 206.498C270.9 211.298 274.7 211.998 277.2 215.398C283.2 223.498 284.1 232.098 274.6 240.698C271.7 243.298 267.8 246.298 262.6 249.698C257.7 252.998 251.7 256.598 244.5 260.898C215.7 277.898 193.3 277.698 209.9 303.098C220.7 318.098 209 330.298 198.9 334.198C188.7 337.998 194.1 351.398 206.6 351.198C185 351.398 189.3 363.298 192.6 366.898C198.9 373.398 201 379.398 185.3 389.898C160.9 406.298 186.7 418.498 186.7 418.498C207.1 432.298 222.2 450.998 225.9 456.398C226.3 456.898 229.3 460.398 229.6 462.298C121.4 452.298 36.8 361.398 36.8 250.898C36.8 140.298 125.2 45.4984 236.7 38.8984C236.8 39.8984 236.9 40.8984 236.9 41.9984C236.9 42.7984 236.9 43.5984 237.1 44.3984C237 44.3984 237 44.3984 236.9 44.3984C239.7 59.1984 269.9 84.9984 290.1 101.898C290.1 101.698 302.9 112.098 279.5 123.598Z" fill="#29ABE2"/>
</g>
<defs>
<clipPath id="clip0_1_504">
<rect width="500" height="500" fill="white" transform="translate(0 0.5)"/>
</clipPath>
</defs>
</svg>
