<svg width="500" height="501" viewBox="0 0 500 501" fill="none" xmlns="http://www.w3.org/2000/svg">
<path d="M135.7 473.498L250.7 178.098L366.3 473.498H496L309.5 28.3984H190.5L3.7002 473.498H135.7Z" fill="#848DE0"/>
<path d="M309.5 28.3984L250.7 178.098L393.3 229.498L309.5 28.3984Z" fill="#5B639B"/>
<path d="M250.7 178.102L298.8 300.602L393.3 229.502L250.7 178.102Z" fill="#676FB0"/>
<path d="M393.3 229.5L496 473.5L298.8 300.6L393.3 229.5Z" fill="#444A74"/>
<path d="M298.8 300.602L366.3 473.502H496L298.8 300.602Z" fill="#52578B"/>
<path d="M250.7 178.098L190.5 28.3984H309.5L250.7 178.098Z" fill="#848DE0"/>
<path d="M250.7 178.098L190.5 28.3984L157 108.898L250.7 178.098Z" fill="#7780CB"/>
<path d="M250.7 178.098L157 108.898L107 227.698L250.7 178.098Z" fill="#676FB0"/>
<path d="M250.7 178.102L107 227.702L203.1 300.402L250.7 178.102Z" fill="#5B639C"/>
<path d="M203.1 300.399L3.7002 473.499L107 227.699L203.1 300.399Z" fill="#52578B"/>
<path d="M203.1 300.398L135.7 473.498H3.7002L203.1 300.398Z" fill="#444A74"/>
</svg>
