<svg width="500" height="501" viewBox="0 0 500 501" fill="none" xmlns="http://www.w3.org/2000/svg">
<path d="M250.3 3.59961C113.8 3.59961 2.7998 114.6 2.7998 251C2.7998 387.5 113.8 498.5 250.3 498.5C386.8 498.5 497.8 387.5 497.8 251C497.7 114.6 386.7 3.59961 250.3 3.59961ZM300.8 119.8C353.1 140.1 390.2 190.8 390.2 250.3C390.2 309.7 353.2 360.5 300.9 380.7C295.6 382.8 292.1 387.9 292.1 393.6V403.9L251.6 435.5L209.3 403.9V393.9C209.3 388.2 205.8 383 200.4 381C147.8 360.9 110.5 310 110.5 250.3C110.5 190.7 147.8 139.8 200.3 119.7C205.7 117.6 209.2 112.5 209.2 106.8V98.4996L251.5 66.8996L291.9 98.4996V106.9C291.9 112.6 295.4 117.7 300.8 119.8ZM12.3998 251C12.3998 121.1 117 15.1996 246.4 13.0996V57.0996L80.8998 189.1V313.9L246.4 444.8V488.9C117 486.8 12.3998 380.9 12.3998 251ZM256.2 488.9V446.7L422.9 313.9V189.1L256.2 56.1996V13.1996C384.6 16.3996 488.1 121.9 488.1 251C488.2 380.2 384.7 485.7 256.2 488.9Z" fill="#F5C09A"/>
<path d="M264.499 154C264.899 137.8 262.999 136.3 247.499 136.5C236.699 136.7 234.299 139.7 234.499 154.3C234.599 161.7 232.799 165.6 224.699 167.5C204.999 172.1 190.399 189.9 189.999 210.1C189.499 234.5 199.099 245.2 219.699 252.7C226.399 255.1 233.499 256.2 240.399 258.2C251.099 261.2 261.899 263.9 272.2 267.9C279.899 270.8 283 277.8 281.7 286C279.899 296.9 274.399 304.9 262.999 307.1C257.299 308.2 251.399 308.2 245.599 308.4C232.099 309 222.799 303.1 217.299 290.7C215.999 287.8 214.299 285 212.199 282.7C207.299 277.4 196.399 276.5 189.999 280.9C183.499 285.4 186.599 291.4 188.399 296.7C193.999 312.8 205.299 323.8 221.599 328.4C230.999 331 234.999 335.1 234.699 345.4C234.399 358.2 237.299 360.2 249.799 360.2C261.699 360.2 263.699 358.5 264.899 346.8C265.099 344.7 265.199 342.6 265.099 340.4C264.799 334.8 267.299 331.5 272.799 330C285.099 326.7 294.499 319.1 302.499 309.5C321.699 286.4 310.899 248.8 282.499 239.9C274.199 237.3 265.499 235.6 257.099 233.4C248.599 231.2 240.099 229.4 231.799 226.7C225.199 224.5 220.399 220.6 220.499 212.3C220.699 203.3 221.999 195.4 230.899 190.8C246.199 182.8 265.299 186.8 274.899 201.1C280.099 209 285.899 212.2 295.399 210.7C304.799 209.1 306.799 206.9 303.799 197.7C299.099 183.3 289.399 173.8 275.2 168.9C267.7 166.3 264.299 163 264.499 154Z" fill="#F5C09A"/>
</svg>
