<svg width="500" height="501" viewBox="0 0 500 501" fill="none" xmlns="http://www.w3.org/2000/svg">
<path d="M250.061 495.449C385.828 495.449 495.889 385.388 495.889 249.621C495.889 113.854 385.828 3.79297 250.061 3.79297C114.294 3.79297 4.2334 113.854 4.2334 249.621C4.2334 385.388 114.294 495.449 250.061 495.449Z" fill="url(#paint0_linear_1_533)"/>
<path d="M299.456 192.009L374.803 37.7497L366.854 33.3357C344.888 21.1317 327.33 15.6997 308.986 10.8967L299.86 8.84072L254.035 126.497L207.95 7.38672L200.785 8.73372C178.132 13.3377 159.236 20.1087 140.538 29.4797L133.538 33.1147L207.305 191.572L116.025 455.801L124.829 461.205C136.386 468.184 153.201 476.731 174.684 483.678L186.647 487.193L197.259 454.491H302.514L313.175 487.193L321.667 484.859C348.524 476.522 365.162 467.38 376.657 460.391L385.706 454.672L299.456 192.009ZM218.956 378.168L249.984 278.11L280.216 378.168H218.956Z" fill="white"/>
<defs>
<linearGradient id="paint0_linear_1_533" x1="250.062" y1="4.64287" x2="250.062" y2="495.316" gradientUnits="userSpaceOnUse">
<stop stop-color="#4DC6FB"/>
<stop offset="1" stop-color="#153E71"/>
</linearGradient>
</defs>
</svg>
