<svg width="500" height="501" viewBox="0 0 500 501" fill="none" xmlns="http://www.w3.org/2000/svg">
<path d="M495.322 258.457C482.483 282.906 464.661 303.472 444.713 322.206C399.962 364.231 347.194 390.063 286.093 396.976C198.534 406.883 121.392 382.936 56.15 322.923C38.6 306.779 23.61 288.461 10.251 268.681C4.23098 259.768 3.95097 252.223 10.105 243.261C57.195 174.683 120.399 130.607 203.24 117.434C267.757 107.174 329.426 116.767 386.902 148.77C427.676 171.473 460.922 202.525 486.983 241.232C490.004 245.719 492.554 250.522 495.324 255.178C495.322 256.272 495.322 257.364 495.322 258.457ZM335.641 154.703C336.159 155.327 336.606 156.033 337.206 156.563C357.181 174.185 371.036 195.686 378.103 221.421C379.036 224.818 380.888 226.875 383.74 228.895C390.153 233.439 391.541 241.479 387.61 247.725C383.646 254.026 375.416 256.231 368.92 252.734C362.369 249.208 359.289 241.414 362.961 234.515C365.365 229.998 364.64 226.338 363.307 222.119C339.123 145.619 251.099 115.632 185.767 156.871C183.922 158.036 182.168 159.394 180.211 160.325C176.067 162.297 172.767 161.22 170.602 157.201C169.739 155.599 169.334 153.75 168.481 151.335C111.229 171.168 66.621 206.541 31.899 255.822C65.085 303.424 107.398 338.18 162.743 359.241C161.484 357.189 161.268 356.662 160.903 356.278C159.962 355.291 158.962 354.361 157.972 353.421C139.705 336.068 127.272 315.238 120.883 290.861C119.702 286.352 118.453 282.418 114.552 279.011C108.657 273.861 108.907 265.577 113.946 259.887C118.662 254.562 126.652 253.613 132.538 257.681C138.583 261.858 140.804 270.177 136.334 276.468C133.471 280.496 133.805 283.856 134.951 287.87C153.192 351.801 216.405 389.97 287.345 368.874C298.372 365.596 308.413 358.804 318.668 353.194C325.893 349.241 329.23 350.293 331.82 358.377C332.034 359.045 332.635 359.588 333.404 360.685C389.348 340.731 433.187 305.604 467.502 257.029C433.962 208.925 391.034 173.936 335.641 154.703ZM357.545 256.629C357.565 316.18 309.41 364.487 249.842 364.674C190.538 364.86 141.765 316.256 141.743 256.951C141.722 197.387 189.928 149.124 249.52 149.049C309.178 148.975 357.526 197.123 357.545 256.629ZM343.114 257.358C343.245 205.763 301.774 163.736 250.471 163.474C198.554 163.209 156.21 205.011 156.146 256.595C156.081 307.912 198.014 349.979 249.297 350.046C300.944 350.113 342.984 308.579 343.114 257.358ZM375.495 264.73C371.482 264.41 368.388 266.678 367.739 271.388C364.373 295.824 354.614 317.252 338.319 335.78C334.798 339.783 334.884 343.892 337.835 346.693C341.019 349.717 345.219 349.155 349.28 345.146C349.86 344.574 350.4 343.956 350.929 343.334C363.272 328.831 372.455 312.585 377.533 294.18C379.482 287.115 380.846 279.888 382.05 274.604C381.931 267.981 379.514 265.051 375.495 264.73ZM123.706 244.952C127.659 245.787 130.826 243.291 132.228 238.162C132.587 236.851 132.772 235.491 133.034 234.153C137.099 213.343 146.181 194.995 160.06 178.991C161.659 177.148 163.34 175.314 164.574 173.234C166.331 170.27 165.809 166.825 163.116 165.201C160.917 163.875 157.529 163.69 154.898 164.194C153.084 164.542 151.35 166.708 150.116 168.443C143.811 177.306 137.093 185.95 131.632 195.32C124.3 207.9 120.211 221.796 118.156 235.589C117.957 241.088 119.915 244.15 123.706 244.952ZM250.332 322.503C256.34 322.503 262.349 322.551 268.356 322.493C278.132 322.397 280.695 319.61 279.254 310.09C276.966 294.978 274.62 279.87 271.929 264.826C271.003 259.644 271.394 256.078 275.667 251.929C289.643 238.356 289.203 216.284 275.498 202.674C261.867 189.137 239.736 188.99 225.97 202.345C212.155 215.748 211.498 237.947 225.236 251.644C229.356 255.752 230.11 259.308 229.129 264.602C226.247 280.166 223.653 295.789 221.338 311.449C220.205 319.115 223.039 322.191 230.668 322.443C237.215 322.659 243.775 322.488 250.329 322.488C250.332 322.494 250.332 322.498 250.332 322.503Z" fill="url(#paint0_linear_1_550)"/>
<defs>
<linearGradient id="paint0_linear_1_550" x1="5.61178" y1="256.322" x2="495.323" y2="256.322" gradientUnits="userSpaceOnUse">
<stop stop-color="#29B6FF"/>
<stop offset="0.5062" stop-color="#053EC3"/>
<stop offset="1" stop-color="#6416B9"/>
</linearGradient>
</defs>
</svg>
