<svg width="500" height="501" viewBox="0 0 500 501" fill="none" xmlns="http://www.w3.org/2000/svg">
<path d="M486.5 226.999L273.3 13.7992C260 0.499219 238.4 0.499219 225.1 13.7992L11.8998 226.999C-1.4002 240.299 -1.4002 261.899 11.8998 275.199L225.1 488.399C238.4 501.699 260 501.699 273.3 488.399L486.5 275.199C499.8 261.899 499.8 240.299 486.5 226.999ZM119.5 315.099L71.5998 267.199C62.9998 258.599 62.9998 244.699 71.5998 236.099L119.5 188.199C128.1 179.599 142 179.599 150.6 188.199L198.5 236.099C207.1 244.699 207.1 258.599 198.5 267.199L150.6 315.099C142 323.699 128.1 323.699 119.5 315.099ZM313.3 387.399L265.4 435.299C256.8 443.899 242.9 443.899 234.3 435.299L186.4 387.399C177.8 378.799 177.8 364.899 186.4 356.299L234.3 308.399C242.9 299.799 256.8 299.799 265.4 308.399L313.3 356.299C321.9 364.899 321.9 378.799 313.3 387.399ZM433.6 267.099L385.7 314.999C377.1 323.599 363.2 323.599 354.6 314.999L306.7 267.099C298.1 258.499 298.1 244.599 306.7 235.999L354.6 188.099C363.2 179.499 377.1 179.499 385.7 188.099L433.6 235.999C442.2 244.599 442.2 258.499 433.6 267.099Z" fill="#0047BB"/>
</svg>
