<svg width="500" height="501" viewBox="0 0 500 501" fill="none" xmlns="http://www.w3.org/2000/svg">
<g clip-path="url(#clip0_1_563)">
<path d="M249.5 499.5C387.295 499.5 499 387.795 499 250C499 112.205 387.295 0.5 249.5 0.5C111.705 0.5 0 112.205 0 250C0 387.795 111.705 499.5 249.5 499.5Z" fill="#D9327C"/>
<path fill-rule="evenodd" clip-rule="evenodd" d="M239.4 128C237.3 129.5 235 132.4 233.1 138C231.4 143.2 222.2 169.9 210.7 203.2H288.3C276.8 169.9 267.6 143.2 265.9 138C264 132.4 261.7 129.5 259.6 128C257.6 126.5 254.6 125.3 249.5 125.3C244.4 125.3 241.4 126.5 239.4 128ZM124.8 203.2H177.8C190.9 165.3 201.7 133.7 203.6 128.1C206.9 118.1 212.4 109.3 220.7 103C229.1 96.7 239.1 94 249.5 94C260 94 269.9 96.7 278.3 103C286.6 109.3 292.1 118.1 295.4 128.1C297.3 133.7 308.1 165.3 321.2 203.2H374.1C382.7 203.2 389.7 210.2 389.7 218.8C389.7 227.4 382.7 234.4 374.1 234.4H331.9H298.9H199.8H166.8H124.6C116 234.4 109 227.4 109 218.8C109 210.2 116.1 203.2 124.8 203.2ZM124.8 265.6C116.2 265.6 109.2 272.6 109.2 281.2C109.2 289.8 116.2 296.8 124.8 296.8H145.5L137.2 320.9L128.9 345L125.8 354.1C123 362.2 127.3 371.1 135.4 373.9C143.5 376.7 152.4 372.4 155.2 364.3L158.3 355.2L166.6 331.1C170.1 321.1 174.1 309.4 178.5 296.8H320.7C325.1 309.4 329.1 321.1 332.6 331.1L340.9 355.2L344 364.3C346.8 372.4 355.7 376.8 363.8 373.9C371.9 371.1 376.3 362.2 373.4 354.1L370.3 345L362 320.9L353.7 296.8H374.3C382.9 296.8 389.9 289.8 389.9 281.2C389.9 272.6 382.9 265.6 374.3 265.6H342.9H309.9H189.2H156.2H124.8ZM358.7 359.2L373.4 354.1C373.4 354.1 373.4 354.1 358.7 359.2ZM358.7 359.2C344 364.3 344 364.3 344 364.3L358.7 359.2ZM140.3 359.2L155 364.3C155.1 364.3 155.1 364.3 140.3 359.2ZM140.3 359.2C125.6 354.1 125.6 354.1 125.6 354.1L140.3 359.2Z" fill="white"/>
</g>
<defs>
<clipPath id="clip0_1_563">
<rect width="500" height="500" fill="white" transform="translate(0 0.5)"/>
</clipPath>
</defs>
</svg>
