<svg width="500" height="501" viewBox="0 0 500 501" fill="none" xmlns="http://www.w3.org/2000/svg">
<g clip-path="url(#clip0_1_566)">
<path d="M5.49988 500.5C5.09988 493.6 5.09988 486.6 5.39988 479.7C7.69988 479 10.0999 478.5 12.4999 478.2C19.4999 477 26.3999 475.3 33.0999 473.3C34.9999 472.7 36.7999 472.1 38.5999 471.3C47.4999 467.8 55.3999 462.1 61.3999 454.6C65.5999 449.4 69.1999 443.8 72.2999 437.8C76.6999 429.7 80.5999 421.3 83.9999 412.7C90.8999 395.4 97.8999 378 104.7 360.7C128.3 301 151.9 241.2 175.5 181.5C197.9 124.7 219.8 67.8 241.4 10.7C241.8 9.5 242.3 8.4 242.8 7.2C250.7 5 258.6 2.7 266.7 0.5C267.2 1.7 267.6 2.7 268 3.7C277.1 29.2 286.2 54.7 295.3 80.2C326.4 167.1 357.6 254 389.6 340.6C398.3 364.3 407.2 387.9 416.1 411.5C419.6 421.1 423.7 430.6 428.4 439.7C430.5 443.6 432.7 447.4 435.1 451.1C442.5 462.6 454 470.9 467.3 474.4C474.4 476.3 481.7 477.7 489 478.7L494.2 479.5C494.9 481.8 494.5 484.1 494.6 486.3C494.7 488.5 494.6 491 494.6 493.4C494.7 495.7 494.6 498 494.5 500.2C493.8 500.3 493.2 500.5 492.6 500.5C491.8 500.5 491 500.5 490.1 500.5H309.4C309.2 500.1 309.1 499.7 309 499.2C309 492.9 309 486.7 309 480.4C309.1 480.1 309.1 479.8 309.2 479.6C310.7 479.2 312.3 478.9 313.8 478.7C321.3 477.7 328.8 476.2 336.1 474.3C339.1 473.5 342 472.4 344.8 471.3C346.2 470.7 347.6 470.1 348.9 469.3C356.1 465.2 359 458.9 358.4 450.8C358.1 447.1 357.4 443.5 356.5 439.9C355.1 434.3 353 428.9 351.1 423.5C313.1 317.6 275.6 211.5 238.5 105.3C238.1 104.1 238 102.9 236.8 101.8C236.4 102 235.9 102.2 235.6 102.6C235.3 103.1 235.1 103.7 234.9 104.3C216.8 156.5 197.4 208.3 178.2 260.2C164 298.6 149.8 337 136.5 375.7C131.2 391.2 126.1 406.8 121.1 422.5C119.2 428.5 117.7 434.6 116.8 440.8C116.1 445 116 449.2 116.4 453.4C117 458.9 119.9 463.9 124.4 467.1C127.3 469.2 130.5 470.8 134 472C139.4 473.9 145 475.3 150.7 476.3C157 477.5 163.3 478.3 169.5 479.3C169.9 479.4 170.3 479.5 170.8 479.6C171 480.1 171.1 480.5 171.1 481C171.1 487.1 171.1 493.1 171.1 499.2C171.1 499.6 171 499.9 170.9 500.3C170.3 500.4 169.8 500.5 169.2 500.6C168.4 500.6 167.6 500.6 166.7 500.6L5.49988 500.5Z" fill="black"/>
</g>
<defs>
<clipPath id="clip0_1_566">
<rect width="500" height="500" fill="white" transform="translate(0 0.5)"/>
</clipPath>
</defs>
</svg>
