<svg width="500" height="501" viewBox="0 0 500 501" fill="none" xmlns="http://www.w3.org/2000/svg">
<g clip-path="url(#clip0_1_568)">
<path d="M250 500.5C112.5 500.5 0 388 0 250.5C0 113 112.5 0.5 250 0.5C387.5 0.5 500 113 500 250.5C500 388 387.5 500.5 250 500.5Z" fill="#4BDB4B"/>
<path opacity="0.4" d="M395.4 299.4C407.9 322.3 399.6 351.5 378.7 364C355.8 376.5 326.6 368.2 314.1 347.3L214.1 176.5C201.6 153.6 209.9 124.4 232.9 111.9C255.8 97.3002 282.9 105.7 297.5 128.6L395.4 299.4Z" fill="black"/>
<path opacity="0.65" d="M198.9 347.301C186.4 370.201 157.2 378.501 134.3 364.001C111.4 351.501 103 322.301 117.6 299.401L215.5 128.601C228 105.701 257.2 97.4007 280.1 111.901C303 124.401 311.3 153.601 296.8 176.501L198.9 347.301Z" fill="black"/>
<path d="M303.1 152.599C303.1 179.699 255.2 246.399 255.2 246.399C255.2 246.399 209.4 179.699 209.4 152.599C209.4 125.499 230.2 104.699 257.3 104.699C284.4 104.699 303.1 127.599 303.1 152.599Z" fill="black"/>
</g>
<defs>
<clipPath id="clip0_1_568">
<rect width="500" height="500" fill="white" transform="translate(0 0.5)"/>
</clipPath>
</defs>
</svg>
