<svg width="500" height="501" viewBox="0 0 500 501" fill="none" xmlns="http://www.w3.org/2000/svg">
<path d="M461.5 300.301V374.301L274.1 484.101V431.301L416 348.201V300.301H461.5Z" fill="#2A8BCB"/>
<path d="M230.9 432.701V485.501L41.1 374.301V300.301H86.6V348.201L230.9 432.701Z" fill="#35ADDD"/>
<path d="M274.1 342.5V484.1L251.3 497.4L230.9 485.5V342.5H274.1Z" fill="#35ADDD"/>
<path d="M252.5 196.6C283.8 196.6 309.1 222 309.1 253.2C309.1 284.4 283.7 309.8 252.5 309.8C221.3 309.8 195.9 284.4 195.9 253.2C195.9 222 221.2 196.6 252.5 196.6ZM252.5 151.1C196.2 151.1 150.3 196.9 150.3 253.3C150.3 309.7 196.1 355.5 252.5 355.5C308.9 355.5 354.7 309.7 354.7 253.3C354.7 196.9 308.8 151.1 252.5 151.1Z" fill="#2A8BCB"/>
<path d="M86.6 204.4V154.1L251.3 57.7004L416 154.1V204.4H461.5V128L251.3 4.90039L41.1 128V204.4H86.6Z" fill="#35ADDD"/>
<path d="M86.6 204.4L41.1 128L86.6 154.1V204.4Z" fill="#2A8BCB"/>
<path d="M251.3 57.7004V4.90039L86.6 154.1L251.3 57.7004Z" fill="#2A8BCB"/>
<path d="M416 154.1L251.3 4.90039V57.7004L416 154.1Z" fill="#3D4599"/>
<path d="M461.5 128L416 204.4H461.5V128Z" fill="#3D4599"/>
<path d="M251.3 4.90039L461.5 128L416 154.1L251.3 4.90039Z" fill="#2A8BCB"/>
<path d="M41.1 300.301L86.6 348.201L41.1 374.301V300.301Z" fill="#2A8BCB"/>
<path d="M416 300.301H461.5L416 348.201V300.301Z" fill="#3D4599"/>
<path d="M416 348.199L274.1 484.099L461.5 374.299L416 348.199Z" fill="#3D4599"/>
<path d="M86.6 348.199L230.9 432.699V485.499L86.6 348.199Z" fill="#2A8BCB"/>
<path d="M461.5 300.301L416 348.201L461.5 374.301V300.301Z" fill="#35ADDD"/>
</svg>
