<svg width="500" height="501" viewBox="0 0 500 501" fill="none" xmlns="http://www.w3.org/2000/svg">
<g clip-path="url(#clip0_1_598)">
<mask id="mask0_1_598" style="mask-type:luminance" maskUnits="userSpaceOnUse" x="0" y="0" width="500" height="501">
<path d="M250 0.5C388.1 0.5 500 112.4 500 250.5C500 388.6 388.1 500.5 250 500.5C111.9 500.5 0 388.6 0 250.5C0 112.4 111.9 0.5 250 0.5Z" fill="white"/>
</mask>
<g mask="url(#mask0_1_598)">
<path d="M250 0.5C388.1 0.5 500 112.4 500 250.5C500 388.6 388.1 500.5 250 500.5C111.9 500.5 0 388.6 0 250.5C0 112.4 111.9 0.5 250 0.5Z" fill="url(#paint0_radial_1_598)"/>
<path d="M420 172.5C419 178.6 417.7 181.6 416.3 185C414.8 188.7 413 192.9 411.4 201.3C410.8 204.7 410.5 207.1 410.2 209.3V209.4V209.5C409.8 213 409.5 215.3 408.1 219.5C407 222.9 405 228.6 400.4 234.7C396.7 239.6 390.4 247.9 382.1 248.9C381.4 248.9 379.9 249 379.2 248.7C355.6 236.6 335.3 227.7 328.3 225.7C320.1 223.4 321.2 205.6 322.1 189.9C322.5 182.9 322.9 176.2 322.6 170.6C321.5 150.8 317.9 129.1 300.7 118.5C290.4 112.2 277.1 110.3 264.4 110.3C266.8 109.2 269.4 107.7 272.2 106L272.3 105.9C279.8 101.6 289.1 96.2001 298.3 95.2001C301.3 94.9001 304.3 94.6001 307.2 94.2001C325.8 92.1001 341.9 90.3001 358.8 96.1001C366.5 98.7001 382.3 107.5 386.3 115.7C389.2 121.5 394 126 403.7 134.9C408.7 139.6 412 142.3 414.5 144.3L414.6 144.4C418 147.2 418.7 147.8 419.7 149.9C422.7 156.3 421.6 163.1 420 172.5Z" fill="white"/>
<path d="M333.6 253.8C335 254.3 335.5 255.9 334.7 257.1C332.2 260.9 329.4 266 326.1 272.2C324.5 275.2 322.9 278.1 321.6 280.3C317 288.2 316.7 294.8 316.4 300.1C316.1 305.7 315.8 308.2 312.5 310.4C309.8 312.2 307 312.8 287.5 315.8C284.1 316.3 282.6 317 281.3 317.6C281.1 317.7 280.9 317.8 280.7 317.9C279.4 318.5 278 317.3 278.1 315.8C278.2 313.1 278.3 309.8 278.3 305.6V304.8C278.4 301 278.2 297.9 278.1 295.4C277.8 290.4 277.8 288.3 279.1 286.2C280.7 283.6 282 282.8 284.1 281.5C287 279.7 291 277.2 296.9 269C300 264.7 300.7 262.4 301.2 260.4C301.4 259.6 301.5 259.3 303.9 257.4C306.5 255.5 314.2 249.6 324.2 251.2C326.8 251.7 330.1 252.6 333.6 253.8Z" fill="white"/>
<path d="M256.8 343.6C256.4 344.2 255.9 344.4 255.2 344.4C253.2 344.5 251.7 344 250.8 342.8C248.8 340.4 249.1 335.5 249.5 332.6L257.7 330.4C258.3 334.9 258.6 341.2 256.8 343.6Z" fill="white"/>
<path d="M257.4 314C257.3 315.2 257.1 316.5 257.1 318C257.1 318.5 257.1 319.1 257.1 319.6C257.1 320.9 257.2 323.1 257 324C254.4 324.9 252.2 324.9 249.4 324.9C249.4 324.1 249.4 322.8 249.4 322C249.4 321.4 249.5 320.7 249.5 320.1C249.5 319.4 249.5 318.7 249.5 318.1C249.5 316.5 249.5 313.9 249.9 313.2C250.7 313.1 251.5 312.9 252.3 312.7C254 312.3 256.2 311.9 257.6 312.1C257.6 312.5 257.5 313.3 257.4 314Z" fill="white"/>
<path d="M242.2 341.1C241.8 345.3 240.5 350.5 236.5 351.3C234.7 351.7 233.9 351.1 233.3 350.6C230.6 348.1 230.2 340.7 230.6 335.3C232.4 335.3 234.7 334.9 237.5 334.4C239.2 334.1 240.9 333.7 242.2 333.4C242.4 335.4 242.5 338.2 242.2 341.1Z" fill="white"/>
<path d="M240.3 326L231.4 329.1C231.9 325.6 232.5 320.8 232.7 317.5C232.9 315.2 233.5 314.5 233.7 314.4C233.8 314.3 233.9 314.2 234.2 314.2C234.3 314.2 234.3 314.2 234.4 314.2H234.6L240.2 313.9C240.4 316.6 240.4 322.4 240.3 326Z" fill="white"/>
<path d="M225.9 323.2C225.4 324.5 224.8 328.3 224.4 331L213.2 330.7C213.8 327.2 214.7 323.7 215.7 320.9C216.7 318.1 217.7 316 218.7 315.4C219.8 314.7 222.3 314.6 223.8 315.9C226.3 318 227 320.4 225.9 323.2Z" fill="white"/>
<path d="M221.8 357.4C220.9 358.6 220 359.2 218.8 359.3C217.6 359.4 216.6 359.2 215.9 358.5C212.4 355.3 212.7 344.7 212.8 339.6C217.4 338.5 222.4 337.6 224.8 337.5C225.1 341.7 225.2 352.7 221.8 357.4Z" fill="white"/>
<path d="M207.2 330.4C206.7 331.9 206.1 333.2 205.7 334.4C204.4 334.8 200.4 334.5 196.4 333.6L199.2 316C203.8 314.8 209.1 314.4 210.4 315.8C212 317.6 208.6 326.6 207.2 330.4Z" fill="white"/>
<path d="M202.1 360.1C199.9 362.8 196.7 364 192.2 364C189.1 363.9 187.9 362.8 187.4 361.9C184.9 357.9 187.3 348.5 189.8 342.5L204.9 343.4C205.1 344.5 205.2 345.7 205.2 347.1C205.4 351.3 204.9 356.7 202.1 360.1Z" fill="white"/>
<path d="M327.2 232.5C313.6 228.6 314.8 208.7 315.9 189.5C316.3 182.7 316.7 176.2 316.4 171C315.4 153 312.3 133.4 297.8 124.5C282.2 115 256.7 117.1 241 119.1C235.2 120.8 229.8 122 225.7 121.8C216.4 121.3 209.2 117.4 202.8 114C197.8 111.3 193.5 109 189.4 109C189.2 109 189 109 188.7 109C176.5 109.8 170.9 112.8 165.8 117.3C164.5 118.4 163 121.7 157.8 136.5C155.2 143.9 154.7 148 154.3 152C153.9 155.6 153.4 159.3 151.5 164.9C150.2 168.7 149.2 172 148.2 175.2C145.7 183.7 143.7 190.3 137.7 198.3C137 199.2 136.1 200.6 135.1 202.2C133.7 204.3 132.1 207 129.8 210.1C128.2 212.3 124.6 220.4 124.8 222.9C125.1 226.8 126.4 229.3 127.8 232.1C129.3 234.9 130.9 238.1 131.2 242.5V243.2C131.7 250.2 130.7 253.7 117.5 265.5C109 273.1 103 280.4 98.9 285.8C98.5 286.3 99 287 99.6 286.9C99.7 286.9 99.9 286.9 100 286.9C100.3 286.9 100.5 286.9 100.8 286.9C101.1 286.9 101.3 286.9 101.6 286.9C101.9 286.9 102.1 286.9 102.4 287C105.6 287.4 108.7 288.7 111 291.1C111.4 291.5 112 291.6 112.5 291.4C114.7 290.5 117 290.6 119.3 290.9C122 291.2 124.7 291.9 126.6 293.6C127.3 294.2 128.3 294.6 129.2 294.4C131.3 294 133.5 294 135.6 294.8C137.1 295.4 138.4 296.2 139.5 297.3C140.5 298.3 142.2 298.5 143.4 297.8C143.9 297.5 144.4 297.3 145 297.1C147.9 296.1 151.1 296.7 153.9 297.7C155.3 298.2 156.7 298.6 158 299.5C160.1 300.9 161.4 302.8 162.3 305C163 306.7 165.3 307.2 166.7 306.2C168.5 304.9 169.9 304.8 171.4 305.4C172 305.7 172.5 306 172.8 306.4C173.9 307.6 175.5 308.8 177.1 308.5C181.5 307.5 186.7 308.2 190.6 310.2C192 311 193.4 312.1 194.5 313.8L194.6 313C194.7 312.7 194.9 312.4 195.2 312.3L196.1 312C198.3 311.3 209.6 308.1 213.9 312.7C214.1 312.9 214.4 312.9 214.6 312.7C215.2 312 215.7 311.7 216 311.5C218.9 309.8 223.7 309.7 227 312.4C227.7 312.9 228.7 312.7 229.2 312.1C229.5 311.7 229.8 311.3 230.2 311C231.3 310 232.8 309.5 234.4 309.6L240.6 309.3C242.2 309.2 247 308.9 248.5 308.6C248.6 308.6 248.7 308.6 248.9 308.5C249.5 308.4 250.3 308.2 251.1 308.1C254.1 307.4 257.5 306.7 260.3 308C263 309.2 262.6 312.3 262.3 315C262.2 316.1 262 317.2 262 318.3C262 318.8 262 319.3 262 319.8C262 322.1 262.1 324.3 261.6 325.9L261.9 327.2C262.2 328.5 263.5 329.2 264.6 328.5C266.7 327.2 268.8 325.6 269.5 324.6C269.6 324.5 269.6 324.4 269.6 324.3C269.7 324 269.9 323.5 270.1 322.4C270.5 320.1 270.9 315.4 270.9 306C270.9 305.5 270.9 305.1 270.9 305C271 301.5 270.8 298.7 270.7 296.2C270.4 291.1 270.2 287 272.8 282.9C275.3 278.9 277.7 277.4 280 275.9C282.7 274.2 285.7 272.3 290.9 265.3C293.4 261.8 293.7 260.4 294 259.3C294.6 256.7 295.4 255.1 299.3 252.2C302.5 249.8 312.1 242.5 325 244.7C329.3 245.4 336.1 247.7 342.9 250.4C343.1 250.5 343.4 250.6 343.6 250.7C343.7 250.8 343.8 250.8 343.9 250.9C349.8 253.2 355.5 255.9 359.3 258C360.4 258.6 361.7 258.2 362.5 257.3C363.7 255.9 364.9 255 366.3 254.2C366.8 253.9 367.3 253.6 367.7 253.3C369 252.2 369 249.9 367.5 249.2C349.8 239.3 332.8 234.1 327.2 232.5ZM197.4 236.7C193.2 255.1 164.6 275.4 151.6 275.4H151.3C151.1 275.4 150.9 275.4 150.6 275.3C150.4 275.3 150.1 275.2 149.8 275.1C149.7 275.1 149.5 275 149.4 275C147 274.3 143.8 272.4 141.3 270C139.6 268.3 138.3 266.4 137.8 264.2C137.7 263.8 137.6 263.5 137.6 263.1C136.9 260 136 256 138.8 249.6C139.2 248.7 139.5 247.9 139.8 247.2C139.9 247 140 246.7 140.1 246.5C140.4 245.8 140.7 245.2 140.9 244.6C141.3 243.6 141.6 242.8 141.9 242.1C142 241.8 142.1 241.6 142.2 241.3C143 239.1 143.1 238.3 143.2 237.4C143.3 236.7 143.4 235.9 143.7 234.7C144.5 231.2 144.9 228.3 145.3 225.7C146 221 146.5 217 149.1 213.2C149.5 212.6 150 212 150.5 211.5C150.7 211.3 150.9 211.2 151.1 211C151.3 210.8 151.5 210.7 151.7 210.5C152.3 210.1 153 209.7 153.7 209.4C153.9 209.3 154.2 209.2 154.4 209.1C154.9 208.9 155.4 208.8 156 208.6C158.3 208 161.1 207.9 164.2 208.3C167.7 208.6 170.8 209.2 173.7 210C176.1 210.7 178.2 211.4 180 212.1C180.2 212.2 180.4 212.2 180.5 212.3C180.8 212.4 181.2 212.6 181.5 212.7C182 212.9 182.4 213.1 182.9 213.3C183.5 213.6 184 213.8 184.4 214L184.8 214.2C186.8 215.1 188.5 216.1 190 217.2C190.7 217.7 191.4 218.3 192 218.8C192.2 219 192.4 219.2 192.6 219.4C192.8 219.6 193 219.8 193.2 220C198.6 225.9 198.3 232.6 197.4 236.7ZM210.6 166.8L210 170.1C208.7 177.6 205.8 188 194.9 190.6C184.5 193.2 182 193.7 174.6 194C174.4 194 174.3 194 174.1 194C168.7 194 158.2 190.6 156.4 182.1C155.2 176.6 157.6 172.7 161.6 166.1C162.3 165 163 163.9 163.7 162.6C169 153.7 171 147.3 172.7 142.2C174.3 137.2 175.7 133 179.1 129.6C179.9 128.8 180.8 128 181.9 127.3C182.6 126.8 183.3 126.4 184 126C185 125.5 186 125.1 187.1 124.7C189.5 123.9 192.1 123.5 194.7 123.5C199.8 123.5 204.8 125 208.4 127.8C210 129.1 212.3 131.7 213.7 139.4C214.5 143.5 213.3 150.7 210.6 166.8ZM288 188.2C284.3 194.6 282.2 198.1 279 200.8C272.6 206.1 265.1 207.4 259 207.4C254.6 207.4 250.8 206.7 248.6 206.3C242.2 205.1 230.4 203 226.5 193.7C225.7 191.9 225.7 190.7 225.7 189.2C225.7 187.7 225.7 185.3 225 179.4V179C224.7 176.3 224.3 173.3 225.1 169.5L225.2 169C227.4 157.7 228 155.9 228.5 155C229.7 152.8 232.4 151.9 234.6 153C236.8 154.1 237.7 156.7 236.6 158.9C236.4 159.5 235.7 162 234 170.7L233.9 171.2C233.4 173.7 233.6 175.5 233.9 177.9V178.3C234.6 184.7 234.6 187.6 234.6 189.1C234.6 189.4 234.6 189.7 234.6 189.9C234.6 190 234.6 190.1 234.7 190.1C235.4 191.7 236.8 192.9 238.5 193.9C240 194.7 241.6 193.3 241.3 191.6C239.4 181.8 239.6 170.5 243.3 163.5C244.5 161.1 246.9 157.2 249.1 153.5C249.3 153.1 249.5 152.8 249.8 152.4C250 152.1 250.2 151.8 250.3 151.5C251.3 149.9 252.2 148.4 252.9 147.2C253 147 253.1 146.9 253.2 146.7C253.3 146.6 253.3 146.5 253.4 146.4C253.6 146.1 253.7 145.9 253.8 145.7C253.9 145.6 253.9 145.5 254 145.4C254 145.4 254 145.3 254.1 145.3C254.2 145.2 254.2 145.1 254.3 145C254.4 144.8 254.5 144.7 254.6 144.6C254.6 144.6 254.6 144.6 254.6 144.5C255.1 143.7 255.7 143 256.2 142.2C257.4 140.6 256 138.5 254.2 139.3C251 140.7 248.9 142.4 248.4 142.7C246.4 144.3 243.6 143.9 242 142C240.4 140 240.8 137.2 242.7 135.6C245 133.8 257.4 124.7 272.2 129C282.9 132 288.5 140.2 290.6 143.3C292.3 145.8 297.5 153.4 297.3 163.9C297.5 171.9 294.1 177.7 288 188.2Z" fill="white"/>
<path d="M191.7 133C190.9 134.8 190 137.1 189.1 139.6C186.8 145.3 184.2 151.8 183 154.2C180.9 158.3 179.2 160.8 177.9 162.9C176.4 165.3 175.2 167.2 174.2 169.8C172.6 174.4 172.3 179.5 173.4 185.1C170.6 184.8 165.9 182.8 165.4 180.4C165 178.6 166.1 176.6 169.5 171C170.2 169.9 170.9 168.7 171.7 167.4C177.5 157.7 179.8 150.4 181.5 145.2C183.4 139.4 184.2 137 187.2 135C188.4 133.9 190 133.3 191.7 133Z" fill="white"/>
<path d="M186.1 336.9C183 343.3 179 349.3 176.6 352.2C174.6 346.7 171.1 334.2 172 324.1C172 323.8 172.1 323.5 172.1 323.2C172.5 320.1 173.3 317.2 174.8 314.9C175.8 313.4 178.5 312.5 181.5 312.5C183.8 312.5 186.2 313 188.3 314.1C189.4 314.7 191 315.9 191.1 319.5C191.3 324.4 189 330.9 186.1 336.9Z" fill="white"/>
<path d="M358.5 264.9C358.7 265.1 358.9 265.4 358.8 265.7C357.9 267.6 356.7 268.9 355.4 270.5C353.8 272.4 352 274.6 350.2 278C347.8 282.8 347 287.2 346.6 298.4C346.1 311.6 346.6 318.9 347 324.3C347.4 329.5 347.6 332.6 346.7 337.7C344.8 347.9 340.5 354.7 334.9 363.3C328 374 320.8 385.1 308.9 388.7C307.8 389 307.8 389 304.7 389.1C302 389.1 297.5 389.1 289 389.4C273.5 390 265.7 390.2 259 391.5C252 392.9 248.4 394.3 244.8 395.8C241.6 397.1 238.6 398.3 232.8 399.5C229.4 400.2 224.2 401 206.7 401C188.5 401 177.5 401 162.9 399.4C143 397.1 132.9 396 126.3 392.4C110.6 384 104 369 93 344.1C93 344.1 93 344 92.9 344C92.8 343.7 93.1 343.4 93.4 343.6C93.9 343.9 94.5 344.2 95 344.4C95.5 344.6 96 344.7 96.5 344.8C97.5 345 98.5 345 99.6 344.8C99.8 344.8 100 344.7 100.1 344.7H100.2C100.4 344.6 100.6 344.7 100.7 344.9C101.4 346.8 102.5 348.5 104.4 349.5C106.3 350.5 108.4 350.5 110.5 350.5C112.6 350.5 114.8 350.3 116.9 350.1C118 350 119.2 350.5 119.6 351.6C121.5 356.3 124 359.7 127.6 360.2C127.8 360.2 128.1 360.3 128.4 360.3C129.1 360.3 130.1 360.1 131.6 359.3C133.3 358.3 136 358.9 137.3 360.5C138.1 361.4 138.9 362.1 139.7 362.7C143.4 366.5 152.5 368.4 160.1 368.4C164.3 368.4 168 367.9 170.2 366.8C173.3 365.3 173.3 362.9 173.2 362C172.9 360.3 172.7 358.6 172.5 357C172.5 356.8 172.8 356.7 172.9 356.9C173.4 357.9 173.9 359.1 175.4 359.4C175.6 359.4 175.7 359.5 175.9 359.5C178 359.5 181.3 360.2 181.9 362.2C182.2 363.2 182.6 364.2 183.2 365.1C184.5 367.1 187.1 369.5 192.2 369.6H192.6C198.5 369.6 203.1 367.7 206.1 363.9C206.3 363.7 206.5 363.4 206.7 363.1C207.8 361.5 211.1 361.5 212.5 362.8C214.1 364.3 216.1 365 218.3 365C218.7 365 219 365 219.4 364.9C222 364.6 224.3 363.2 226 360.8C227.1 359.2 227.9 357.3 228.5 355.2C228.7 354.6 229.5 354.4 230 354.8C231.1 355.8 232.9 356.9 235.6 356.9C236.2 356.9 236.9 356.8 237.7 356.7C242.8 355.7 245.4 351.4 246.6 346.6C246.6 346.4 246.9 346.4 247 346.5C248.3 348.1 250.7 349.9 254.9 349.9C255.1 349.9 255.3 349.9 255.6 349.9C257.8 349.8 259.7 348.8 261 347.1C262.6 345 263.2 342 263.4 339C263.5 337.9 264.2 336.9 265.2 336.4C269.5 334.5 274.7 330.7 276.2 328C276.2 328 276.2 328 276.2 327.9C276.7 327.1 277.4 326.4 278.3 326.2C281.5 325.6 283 324.9 284.3 324.4C285.4 323.9 286.3 323.5 288.8 323.1C308.5 320.1 312.4 319.4 316.6 316.6C323 312.3 323.3 306.5 323.6 300.8C323.9 296 324.2 290.6 327.9 284.2C329.3 281.9 330.8 279 332.5 275.9C335.3 270.6 339.3 263.3 342.2 259.3C342.9 258.4 344.1 258.1 345.1 258.5C351.6 261.1 357.2 263.9 358.5 264.9Z" fill="white"/>
<path d="M166.9 323.501C166.1 330.301 165.6 339.401 166.7 351.301C167 354.601 167.4 358.101 168 361.601C167.1 362.101 164.3 362.801 159.3 362.701C152.2 362.601 145.2 360.801 143.1 358.501L142.8 358.201C141.1 356.801 139.9 355.901 139.8 353.401C139.7 352.601 140.1 351.701 140.9 350.501C141.3 349.801 141.9 349.101 142.6 348.101C143.8 346.501 145.3 344.501 146.8 341.901C151.3 334.401 153 332.001 155.1 329.101C155.3 328.901 155.4 328.601 155.6 328.401C156.9 326.701 158.4 324.601 160.6 321.201C162.3 318.701 163.7 316.701 164.8 315.101C166.7 312.501 168 311.101 168.8 310.301C168.7 311.501 168.4 313.101 168.2 314.601C167.8 317.201 167.3 320.101 166.9 323.501Z" fill="white"/>
<path d="M163.7 217.499C163.7 217.599 163.6 217.599 163.6 217.699C162.7 218.999 161.6 220.399 160.3 223.299C156.9 230.899 156.8 235.099 156.8 238.599C156.8 240.399 156.7 241.799 156.3 243.499C156 244.599 155.4 245.899 154.8 247.299C152.8 251.899 150.2 257.899 151.3 265.999C149.7 265.199 147.2 263.399 146.8 262.499C146.7 262.099 146.6 261.599 146.5 261.199C145.9 258.699 145.6 256.999 147.2 253.299C151.4 243.599 151.9 241.199 152.3 238.599C152.4 237.999 152.4 237.599 152.6 236.799C153.5 232.999 154 229.699 154.3 226.999C154.9 222.999 155.3 220.299 156.6 218.299C157.1 217.599 158.5 217.199 160.5 217.199C161.3 217.199 162.2 217.299 163.2 217.399H163.4C163.5 217.499 163.6 217.499 163.7 217.499Z" fill="white"/>
<path d="M158.1 313.6C157.9 311.3 157.5 308.9 156.6 306.7C156.5 306.6 156.3 306 156.2 305.9C156 305.6 155.9 305.4 155.7 305.1C155.6 305 155.5 304.9 155.4 304.8C155.3 304.7 155.1 304.5 155 304.4L154.9 304.3C154.8 304.2 154.7 304.2 154.6 304.1C154.4 304 154.3 303.9 154.1 303.8C154 303.8 153.9 303.7 153.8 303.7H153.7C153.7 303.7 153.7 303.7 153.6 303.7C153.6 303.7 153.6 303.7 153.5 303.7C153.4 303.7 153.4 303.7 153.4 303.7C152 303.2 150.7 302.7 149.2 302.4C149.2 302.4 149.2 302.4 149.1 302.4C148.9 302.4 148.6 302.4 148.6 302.4C148.4 302.4 148.2 302.4 148 302.4C147.9 302.4 147.8 302.4 147.7 302.4H147.6H147.5C147.5 302.4 147.5 302.4 147.4 302.4C147.1 302.5 146.7 302.6 146.4 302.7C146.3 302.8 146.1 302.8 146 302.9C145.9 303 145.8 303.1 145.6 303.1C145.4 303.3 145.3 303.4 145.1 303.6C145 303.7 144.9 303.8 144.8 304C144.8 304.1 144.7 304.1 144.7 304.2C144.2 305 143.6 305.9 143 306.7C141.7 308.7 140.3 310.7 139 312.7C137.8 314.5 136.5 316.3 135.3 318.1C134.6 319.1 133.9 320.1 133.3 321.1C133.2 321.3 133.1 321.4 133 321.6C133.8 321.8 134.6 321.9 135.4 322.1C137.2 322.4 139 322.8 140.9 323C144.7 323.5 148.6 323.8 152.5 323.6C152.7 323.6 152.9 323.6 153 323.6C153.9 322.3 155 320.7 156.4 318.6C157.2 317.4 157.9 316.3 158.6 315.3C158.4 314.8 158.2 314.3 158.1 313.6Z" fill="white"/>
<path d="M144.5 329.4C144.2 332.3 140.9 340 135.7 347.2C131.4 353.3 128.8 354.7 128.3 354.8C126.2 354.5 124.2 349.4 122.6 344.3C121.9 342.2 121.4 340.2 120.9 338.4C119.8 334.5 119.6 329.3 119.8 326.1C124.1 328.5 131.8 329.2 142.4 329.2C143.1 329.3 143.8 329.4 144.5 329.4Z" fill="white"/>
<path d="M136.9 305.2C136.8 305.3 136.8 305.4 136.8 305.4C135 308.1 133.1 310.8 131.3 313.5C130.3 314.9 129.4 316.3 128.4 317.7C127.9 318.5 127.2 319.3 126.6 320.2C125.1 319.8 123.6 319.5 122.1 319.1C120.9 318.7 119.7 318.4 118.5 317.9C118.3 317.8 118 317.7 117.8 317.6C117.6 317.2 117.3 316.8 117 316.6C117.4 315.7 117.9 314.8 118.3 313.9C119.1 312.3 120 310.7 120.9 309.1C122.5 306.3 124.5 303.4 127.3 301.6C127.4 301.5 127.6 301.4 127.7 301.3C128.8 300.6 129.8 300.2 131.2 300C131.4 300 132.3 300 132.7 300C132.8 300 132.8 300 132.9 300C132.9 300 133 300 133.1 300.1C133.4 300.2 133.7 300.3 134.1 300.4C134.2 300.5 134.3 300.5 134.4 300.6C134.7 300.8 135 300.9 135.2 301.1C134.8 300.8 135.8 301.8 135.8 301.7C136.4 302.7 136.7 303.7 136.9 305.2Z" fill="white"/>
<path d="M122.3 297.499C118.9 300.299 116.4 303.999 114.4 307.899C113.2 310.099 112.2 312.199 111.1 314.399C111 314.599 110.9 314.799 110.8 315.099C109.8 314.899 108.7 314.599 107.7 314.299C106.6 313.999 105.6 313.599 104.5 313.099C104 312.899 103.6 312.599 103.1 312.399C104.1 310.499 105.3 308.599 106.5 306.799C108.1 304.299 109.9 301.799 111.8 299.399C112.5 298.499 113.3 297.499 114.3 296.899C115.3 296.299 116.6 296.399 117.8 296.499C119.1 296.599 120.4 296.599 121.6 297.099C121.9 297.199 122.2 297.399 122.3 297.499Z" fill="white"/>
<path d="M116.9 343.2C116.7 343.3 116.6 343.5 116.5 343.7C116.4 343.7 116.3 343.8 116.2 343.8C115.4 343.9 114.5 343.9 113.7 344C112.1 344.1 110.5 344.2 108.9 344.1C108 344.1 107.2 343.9 106.8 343.4C106.2 342.5 106 341 105.8 339.8C104.8 334 104.6 327.9 105.4 322.1C108.4 323.2 111.6 324 114.8 324.6C114.1 329.9 115.3 337.7 116 340.1C116.3 340.9 116.6 342.1 116.9 343.2Z" fill="white"/>
<path d="M107.2 295.599C104.5 298.899 102.1 302.399 99.9 305.999C99 307.499 98 308.999 97.3 310.599C96.2 310.299 95.3 309.899 94.3 309.199C93.5 308.699 92.8 308.199 92 307.599C91.8 307.399 91.3 306.999 91 306.799C90.9 306.699 90.9 306.699 90.8 306.599C91 305.899 91.5 305.099 91.7 304.599C92.3 303.399 92.9 302.199 93.5 300.999C94.7 298.799 96.1 296.599 97.7 294.599C98.3 293.899 98.8 292.899 99.8 292.699C100.6 292.499 101.7 292.599 102.4 292.699C104.3 293.199 105.9 294.099 107.2 295.599Z" fill="white"/>
<path d="M86.5 310C86.5 309.8 86.8 309.8 86.9 310C87.6 311 88.6 311.8 89.6 312.6C90.1 313 90.5 313.3 91 313.6C91.1 313.7 91.1 313.7 91.1 313.8C90 318.3 89.3 323 89.2 327.7C89.2 328 88.8 328 88.7 327.8C87.4 322.2 85.6 313.3 86.5 310Z" fill="white"/>
<path d="M99.6 319.9C99.1 323.9 98.8 327.9 99 332C99.1 334.2 99.3 336.4 99.6 338.6C99.1 338.5 98.6 338.5 98.1 338.5C98.2 338.5 97.9 338.5 97.8 338.5C97.7 338.5 97.6 338.5 97.6 338.5C97 338.4 97 338.3 96.5 338C95.9 337.6 95.3 336.9 94.9 336.2C93.8 334.3 93.6 332.1 93.5 329.9C93.3 325.7 93.7 321.6 94.5 317.5C95.2 317.8 95.7 318 96.7 318.4C97.7 319.1 98.7 319.5 99.6 319.9Z" fill="white"/>
<g opacity="0.8">
<path d="M205.7 529.899C187.4 529.899 170 528.699 155.5 527.599L151.5 527.299L147.5 526.699C145.7 526.499 143.4 526.199 141.1 525.899C127.1 524.399 101 521.499 72.2 507.999L67.7 505.899L63.5 503.599C8.2 472.599 -12.5 425.899 -23.7 400.799C-24.4 399.199 -25.3 397.299 -26.1 395.499C-31.7 383.999 -35.3 373.599 -38.3 364.099L-39 361.999L-39.6 359.899C-47.6 331.399 -49.7 306.699 -46 282.399C-42.3 257.899 -33.2 235.699 -17.5 212.399L-9.3 199.099C-7.6 196.399 -6.5 193.399 -5.8 190.299C0.399997 159.499 14.5 137.599 21.5 127.199C23.4 114.599 26.6 102.199 30.9 90.0992L31.5 88.2992L32.2 86.4992C32.3 86.1992 32.5 85.6992 32.7 84.8992C35.9 75.5992 43.3 53.5992 62 30.4992L69 21.9992L76.2 15.4992C94.6 -1.20078 116.5 -13.5008 140.3 -20.7008C153.6 -24.7008 167.3 -27.1008 181.2 -27.9008L182.5 -28.0008L184.5 -28.1008C186.9 -28.2008 189.3 -28.3008 191.6 -28.3008C200.2 -28.3008 208.9 -27.6008 217.4 -26.1008C222.7 -25.2008 228.2 -25.8008 233.2 -27.9008C248 -34.1008 263.5 -38.2008 279.4 -40.3008C280.7 -40.5008 281.9 -40.6008 282.8 -40.8008C285.3 -41.1008 289.3 -41.6008 294.1 -42.0008C302.5 -42.8008 315.3 -43.8008 329.3 -43.8008C356.5 -43.8008 379.9 -40.3008 400.9 -33.0008L402.7 -32.4008L404.4 -31.7008C450.7 -14.2008 474.2 10.1992 491.2 31.7992L492 32.7992L494.3 34.8992C509.6 46.8992 522.6 61.4992 532.7 78.0992L535.9 83.2992L538.6 88.6992C561.2 134.899 554 177.499 551.3 193.599L551 194.499C549.1 206.299 546 217.899 541.7 229.099C540.2 239.899 537.6 250.599 534.1 260.899C528.1 279.299 519.2 296.599 507.8 312.299C501.2 321.599 493.8 330.199 485.7 338.099C482.8 340.899 480.9 344.599 480.4 348.499C480 350.899 479.6 353.399 479.2 355.799C472.6 391.399 457 416.099 450.7 425.999L431.5 453.599C408.4 482.399 380.9 501.399 347.7 511.599L339.7 514.099L331 515.599C321.1 517.399 311 518.199 300.9 518.199C299.5 518.199 298.1 518.199 296.6 518.199H296.2L294.5 518.299L292.7 518.399H292.6C288.8 518.499 284.9 519.199 281.3 520.299C259.7 526.799 235.4 529.899 205.7 529.899Z" stroke="url(#paint1_linear_1_598)" stroke-width="3.4588" stroke-miterlimit="10"/>
<path d="M205.7 510.898C188.2 510.898 171.3 509.798 157.2 508.698L153.8 508.398L150.4 507.898C148.3 507.598 145.8 507.298 143.3 507.098C129.7 505.598 106.9 503.098 81.5 491.198L77.8 489.398L74.3 487.498C25.5 460.098 7.39998 419.498 -3.40002 395.198C-4.00002 393.498 -5.00002 391.398 -5.90002 389.498C-10.9 379.198 -14.2 369.698 -17 360.898L-17.6 359.098L-18.1 357.398C-25.2 331.998 -27.1 310.398 -23.9 289.198C-20.7 268.098 -12.7 248.498 1.29998 227.998L11.8 210.898C13.6 207.898 14.9 204.498 15.5 200.998C20.7 171.998 34.4 151.398 40.6 141.998L41.4 140.798L41.7 140.298C41.8 139.998 42 139.698 42.1 139.398C42.5 138.198 42.9 136.998 43.2 135.798C44.8 123.898 47.7 112.198 51.8 100.898L52.4 99.3984L53 97.8984C53.2 97.3984 53.4 96.8984 53.9 95.2984C56.9 86.3984 63 67.7984 79.2 47.8984L85.1 40.7984L91.1 35.3984C107.1 20.8984 126.1 10.1984 146.7 3.99844C158.4 0.498438 170.5 -1.60156 182.7 -2.30156L183.8 -2.40156L185.5 -2.50156C187.5 -2.60156 189.6 -2.60156 191.6 -2.60156C200.4 -2.60156 209.1 -5.10156 217.7 -3.40156C224.3 -2.00156 231.2 -2.80156 237.4 -5.50156C249 -10.6016 264.5 -12.6016 282.3 -14.8016C283.6 -15.0016 284.7 -15.1016 285.5 -15.2016C287.8 -15.5016 291.6 -15.9016 296.1 -16.4016C304 -17.2016 316.1 -18.1016 329.1 -18.1016C353.8 -18.1016 374.8 -15.0016 393.4 -8.60156L394.9 -8.10156L396.4 -7.50156C437.4 7.99844 457.7 28.6984 473.5 48.7984C474.4 49.8984 475.3 51.0984 475.6 51.4984L476 51.7984L479 54.4984L479.4 54.8984C493 65.2984 504.6 78.1984 513.5 92.8984L516.1 97.1984L518.3 101.698C537.8 141.398 531.7 177.598 529.1 192.998L529 193.798C527.2 204.998 524.1 215.998 520 226.598C518.7 236.898 516.4 246.998 513 256.898C507.7 273.198 499.9 288.498 489.8 302.298C483 311.998 475.1 320.898 466.3 328.798C462.2 332.498 459.6 337.498 459.1 342.998C458.7 346.998 458.1 350.898 457.4 354.798C451.5 386.198 437.9 407.898 431.6 417.698L416 440.298C395.3 466.898 370.8 484.198 341.2 493.398L334.5 495.498L327.2 496.798C318.5 498.298 309.7 499.098 300.9 499.098C299.6 499.098 298.3 499.098 296.9 499.098H296.5H295.7C295.7 499.098 295.4 499.098 294.9 499.098L293.4 499.198L291.9 499.298L288.8 499.398C284.7 499.498 280.7 500.198 276.8 501.498C256.8 507.998 234 510.898 205.7 510.898Z" stroke="url(#paint2_linear_1_598)" stroke-width="3.4588" stroke-miterlimit="10"/>
<path d="M205.7 488.599C188.9 488.599 172.6 487.499 158.9 486.399L156.2 486.199L153.5 485.799C151.1 485.499 148.4 485.199 145.7 484.899C132.7 483.499 113 481.299 91 470.999L88 469.599L85.2 467.999C42.9 444.299 27.3 409.299 17 386.099C16.1 384.099 15.1 381.899 14.2 379.799C9.70001 370.699 6.70001 361.999 4.20001 353.999L3.80001 352.599L3.40001 351.199C-2.89999 328.999 -4.49999 310.299 -1.79999 292.399C0.90001 274.299 8.10001 257.399 20.6 239.199L22.1 236.999L23.7 234.899C24.7 233.599 25.7 232.299 26.7 231.099L33 219.599C35.1 215.799 36.5 211.699 37.1 207.499C41.1 181.599 53.6 162.899 59.3 154.299C59.6 153.799 60.1 153.199 60.3 152.799L61.5 150.799C62 149.699 62.6 148.399 63.2 146.899C63.8 145.199 64.4 142.999 65.2 140.799C66.6 129.799 69.2 118.899 73 108.499L73.4 107.299L73.9 106.099C74.3 105.099 74.6 104.199 75.2 102.399C78 94.0992 83.1 78.7992 96.6 61.9992L101.3 56.2992L106 51.9992C119.5 39.6992 135.6 30.5992 153.1 25.3992C163.2 22.3992 173.7 20.5992 184.3 19.9992L185.2 19.8992L186.6 19.7992C188.3 19.6992 190 19.6992 191.6 19.6992C200.7 19.6992 209.7 20.7992 218.5 23.0992C226.1 24.9992 234.2 24.1992 241.2 20.6992C252.5 15.1992 267.5 9.39922 285.2 7.29922C286.4 7.09922 287.4 6.99922 288.3 6.89922C290.5 6.59922 294 6.19922 298.2 5.79922C305.6 5.09922 317 4.19922 329.1 4.19922C351.3 4.19922 369.9 6.89922 386.1 12.4992L387.3 12.8992L388.5 13.2992C426.2 27.4992 443 46.1992 455.9 62.4992C458.7 66.0992 459.2 66.6992 461.1 68.3992L463.5 70.4992L464.4 71.4992C470.6 76.2992 483.3 86.1992 494.4 104.499L496.5 107.999L498.3 111.599C514.6 144.899 509.5 174.899 507.1 189.399L507 190.199C505.3 200.799 502.3 211.099 498.2 221.099L498.1 221.999C497 231.499 494.9 240.799 491.8 249.899C487.2 264.099 480.4 277.399 471.6 289.399C464.3 299.899 455.4 309.299 445.4 317.299C443 319.199 441.1 321.599 439.7 324.299C438.3 326.999 437.5 329.999 437.4 332.999C437.1 338.999 436.4 344.899 435.3 350.799C430.2 377.999 418.3 396.899 412.3 406.299L400.2 424.099C382 448.399 360.5 464.099 334.4 472.099L329 473.799L323.2 474.799C315.8 476.099 308.3 476.799 300.8 476.699C299.6 476.699 298.4 476.699 297.2 476.699H297H295.7C295.5 476.699 294.8 476.699 293.5 476.799L292.3 476.899H291.1L284.9 477.099C280.5 477.199 276.2 477.999 272.1 479.399C253.9 485.699 232.6 488.599 205.7 488.599Z" stroke="url(#paint3_linear_1_598)" stroke-width="3.2426" stroke-miterlimit="10"/>
<path d="M205.7 466.2C189.7 466.2 173.9 465.1 160.6 464.1L158.6 463.9L156.6 463.6C153.9 463.2 151 462.9 148.2 462.6C136 461.3 119.2 459.5 100.6 450.7L98.4 449.6L96.3 448.4C60.5 428.3 47.3 398.6 37.6 376.9C36.6 374.7 35.6 372.3 34.5 370.1C30.4 361.9 27.8 354 25.6 347.2L25.3 346.1L25 345.1C14.5 307.8 18.5 281.7 39.1 251.9L40.2 250.3L41.4 248.7C42.8 247 44 245.3 45.3 243.7C47.2 241.2 49.1 238.7 51.2 236.1C52.5 234.5 53.5 232.7 54.3 230.7L56.7 224.7C57.7 222.1 58.3 219.4 58.6 216.7C60.7 192.8 72.3 175.4 78 166.7C78.4 166.1 79.1 165.1 79.3 164.8L80.6 162.6L81 162C81.7 160.6 83.1 157.5 84.4 154.3C85.1 152.1 86.1 148.7 87.1 145.7C87.1 145.6 87.1 145.5 87.1 145.3C88.2 135.3 90.5 125.4 94 116L94.3 115.1L94.7 114.2C95.3 112.6 95.8 111.3 96.4 109.4C98.9 102 103 89.5996 114 76.0996L117.5 71.7996L121 68.5996C147 44.9996 176.1 42.8996 185.9 42.2996L186.6 42.1996L187.6 42.0996C188.9 41.9996 190.2 41.9996 191.5 41.9996C203.1 41.9996 214.5 44.3996 225.1 48.8996C227 49.6996 229 49.9996 231.1 49.8996C233.1 49.7996 235.1 49.2996 236.9 48.2996H237C246.9 42.5996 265 32.1996 288.1 29.3996C289.2 29.1996 290.2 29.0996 291 28.9996C293 28.6996 296.3 28.3996 300.3 27.9996C307.2 27.2996 317.8 26.5996 329.1 26.5996C348.7 26.5996 365 28.8996 378.8 33.6996L379.7 33.9996L380.6 34.2996C412.9 46.4996 426.8 61.7996 438.3 76.3996C441.4 80.2996 442.8 82.0996 446.2 85.1996L448 86.7996L449.4 88.2996L450.5 89.1996C456 93.3996 466.1 101.3 475.2 116.2L476.8 118.8L478.1 121.5C491.2 148.3 487.1 172.6 484.9 185.7L484.8 186.5C483.2 196 480.5 205.3 476.7 214.1L476.4 214.9C476.4 215.1 476.3 215.3 476.3 215.7C476.1 216.6 476 217.3 475.9 218.2L475.8 219.2C474.9 227.2 473.1 235.1 470.5 242.7C466.6 254.7 460.8 266.1 453.3 276.3C445.9 286.8 437.7 295.3 428.4 302C424.3 305 421 308.9 418.7 313.3C416.4 317.8 415.1 322.7 415.1 327.8C415 334.1 414.4 340.4 413.3 346.6C409 369.7 399.2 385.3 393 394.8L384.2 407.9C368.5 429.8 350 443.8 327.7 450.6L326.5 451C324.6 451.6 322.7 452.1 320.7 452.4L319.3 452.6C313.2 453.7 306.9 454.2 300.7 454.2C299.6 454.2 298.6 454.2 297.4 454.2H297.2C296.7 454.2 296.1 454.2 295.5 454.2C295.1 454.2 293.9 454.2 291.8 454.3L290.9 454.4H290C287 454.5 283.3 454.6 280 454.8C275.5 455 271 455.9 266.7 457.4C250.8 463.5 231.2 466.2 205.7 466.2Z" stroke="url(#paint4_linear_1_598)" stroke-width="3.0264" stroke-miterlimit="10"/>
<path d="M205.7 443.899C190.4 443.899 175.2 442.899 162.4 441.899L161.1 441.799L159.8 441.599C156.7 441.199 153.7 440.799 150.7 440.499C139.5 439.299 125.5 437.799 110.2 430.599L108.7 429.899L107.3 429.099C77.9 412.599 67 387.899 58.1 367.999C57 365.599 55.9 362.999 54.7 360.599C51.2 353.699 48.9 346.599 47 340.599L46.8 339.899L46.6 339.199C38 308.499 40.8 288.999 57.5 264.799L58.2 263.699L59 262.699C60.5 260.799 61.8 259.099 63.1 257.399C67.5 251.699 71.7 246.199 77.9 239.499C79.3 237.999 80.1 236.099 80.2 234.099L80.7 226.899L80.5 224.499L80.6 221.999C81.3 202.199 91.2 187.299 96.5 179.199C97.1 178.299 97.8 177.299 98.1 176.699L99 175.299L99.8 174.199C100.8 172.599 103.4 166.999 105.4 161.699C106.1 159.499 107.4 155.199 108.6 151.799C108.9 150.699 109 150.499 109.3 148.099C110.2 139.699 112.1 131.499 115 123.599L115.2 122.999L115.4 122.399C116.2 120.299 116.8 118.599 117.5 116.599C119.6 110.299 122.8 100.699 131.2 90.2988L133.6 87.4988L135.9 85.3988C154.1 68.7988 174 65.6988 187.4 64.7988H187.9H188.6C189.6 64.7988 190.5 64.6988 191.5 64.6988C202.9 64.6988 216.6 70.1988 223.8 73.4988C225.5 74.2988 227.4 74.6988 229.3 74.7988C231.2 74.8988 233.1 74.5988 234.8 73.8988C239.3 72.2988 243.6 70.3988 247.9 68.1988C257 62.8988 272.2 54.0988 291.1 51.8988C292.1 51.6988 293.1 51.5988 293.8 51.4988C295.7 51.2988 298.7 50.8988 302.4 50.5988C308.8 49.9988 318.7 49.2988 329.1 49.2988C346.2 49.2988 360.1 51.1988 371.5 55.1988L372.1 55.3988L372.7 55.5988C399.7 65.7988 410.4 77.4988 420.7 90.5988C424.1 94.7988 426.4 97.8988 431.3 102.299L432.5 103.399L433.6 104.499C434.6 105.499 435.7 106.399 436.8 107.199C441.4 110.799 449.2 116.799 456.1 128.099L457.2 129.799L458.1 131.599C468.1 151.899 464.9 170.899 463 182.299L462.9 183.099C461.6 190.899 459.4 198.599 456.3 205.799V205.899C455.4 207.799 454.8 209.799 454.5 211.799C454.2 213.199 454.1 214.399 453.9 215.699L453.8 216.699C453.1 223.199 451.7 229.699 449.5 235.899C446.3 245.799 441.5 255.199 435.4 263.599C426.3 276.599 415.8 285.699 403.1 291.499C400 292.899 397.4 295.099 395.5 297.899C393.6 300.699 392.5 303.999 392.4 307.399C392.3 308.799 392.3 309.899 392.4 310.599C393 320.399 393.7 331.399 391.6 342.899C388.1 361.799 380.1 374.499 374.1 383.799C374.1 383.799 346.5 422.199 321.5 429.799L318.8 430.599L315.9 431.099C311 431.999 306.1 432.399 301.1 432.399C300.2 432.399 299.2 432.399 298.2 432.399H298.1C297.4 432.399 296.7 432.399 295.9 432.399C294.9 432.399 293.3 432.399 290.8 432.599H290.2H289.6C280 432.899 270.9 433.299 268.4 433.799C267.1 433.999 265.7 434.399 264.5 434.899C250 440.999 231.4 443.899 205.7 443.899Z" stroke="url(#paint5_linear_1_598)" stroke-width="2.8103" stroke-miterlimit="10"/>
<path d="M205.7 421.499C191.2 421.499 176.5 420.499 164.1 419.499H163.4L162.7 419.399C159.3 418.899 156.1 418.599 152.9 418.199C142.3 417.099 131.4 415.899 119.4 410.299L118.7 409.899L118 409.499C95.1 396.599 86.6 377.499 78.3 358.899C77.1 356.299 75.9 353.499 74.7 350.799C71.9 345.299 69.9 339.399 68.2 333.699L68.1 333.399L68 332.999C61.1 308.499 62.9 296.099 75.8 277.299L76.2 276.699L76.6 276.199C78.1 274.299 79.5 272.499 80.8 270.699C87 262.499 92.4 255.499 104.5 244.299C105.4 243.499 106 242.399 106.3 241.199C106.6 239.999 106.5 238.799 106.1 237.599L103.9 231.399C103.5 229.399 103.2 227.499 103 225.499V225.399L102.9 223.699V222.499C103.3 208.999 110.4 198.399 115.1 191.399C115.8 190.299 116.5 189.299 117.1 188.399L117.5 187.699L118 186.999C120.5 183.599 124.5 174.399 126.6 168.599C127.2 166.799 128.6 162.099 129.8 158.599C130.6 155.999 131.2 153.299 131.4 150.599C132.1 143.899 133.6 137.299 136 130.899L136.1 130.599L136.2 130.299C137.2 127.599 138 125.499 138.7 123.399C140.6 117.799 142.7 111.399 148.6 104.099L149.8 102.699L151 101.699C164 89.8988 178.1 87.5988 189.1 86.7988H189.3H189.7C190.3 86.7988 190.9 86.7988 191.5 86.7988C202.2 86.7988 210.3 91.1988 215.8 94.0988L217.1 94.7988L217.3 94.8988C218.8 95.6988 220.1 96.3988 221.3 96.9988C224.7 98.6988 228.5 99.0988 232.2 98.0988C239.6 96.0988 251.2 91.6988 259 87.3988L259.2 87.2988C267.4 82.5988 279.7 75.3988 294.2 73.7988C295.1 73.6988 296 73.4988 296.8 73.3988C298.5 73.1988 301.3 72.7988 304.7 72.4988C310.6 71.8988 319.7 71.2988 329.2 71.2988C343.8 71.2988 355.2 72.7988 364.3 75.8988L364.6 75.9988L364.9 76.0988C386.5 84.2988 394.4 92.7988 403.2 103.999C406.8 108.599 410.2 112.899 416.6 118.599L417.2 119.199L417.8 119.799C419.5 121.499 421.4 123.199 423.4 124.599C427.2 127.599 432.5 131.699 437.2 139.399L437.7 140.299L438.1 141.199C444.9 155.099 442.6 168.499 441 178.299L440.9 179.099C439.9 185.299 438.1 191.299 435.6 196.999C434.1 200.299 433.1 203.799 432.5 207.299C432.1 209.399 431.9 210.999 431.7 212.499L431.6 213.599C431.1 218.699 430 223.699 428.3 228.499C425.8 236.299 422.1 243.699 417.2 250.299C409 262.099 399.9 269.399 387.8 273.199C382 274.999 377 278.799 373.7 283.899L372.7 285.399L371.6 286.599C368.5 290.099 369.4 303.699 369.9 311.699C370.5 320.599 371.1 329.799 369.4 338.399C366.7 353.199 360.3 363.199 354.7 371.899C354.7 371.899 333.7 402.299 314.7 407.999L313.3 408.399L311.8 408.699C308.2 409.299 304.5 409.699 300.8 409.599C300 409.599 299.1 409.599 298.2 409.599C297.4 409.599 296.5 409.599 295.6 409.599C294.3 409.599 292.2 409.599 289.1 409.799H288.8H288.5C275.8 410.299 268.1 410.499 263.8 411.399C260.9 411.899 258.2 412.699 255.5 413.899C244.3 419.199 228.4 421.499 205.7 421.499Z" stroke="url(#paint6_linear_1_598)" stroke-width="2.8103" stroke-miterlimit="10"/>
</g>
</g>
</g>
<defs>
<radialGradient id="paint0_radial_1_598" cx="0" cy="0" r="1" gradientUnits="userSpaceOnUse" gradientTransform="translate(249.999 276.701) rotate(90) scale(280.873)">
<stop offset="0.1667" stop-color="#073183"/>
<stop offset="1" stop-color="#0054F9"/>
</radialGradient>
<linearGradient id="paint1_linear_1_598" x1="-35.2028" y1="-55.5486" x2="537.743" y2="545.788" gradientUnits="userSpaceOnUse">
<stop offset="0.2057" stop-color="#89D0FF"/>
<stop offset="0.3984" stop-color="#EBBF9A"/>
<stop offset="0.6015" stop-color="#EB8280"/>
<stop offset="0.8411" stop-color="#A281FF"/>
</linearGradient>
<linearGradient id="paint2_linear_1_598" x1="-12.8301" y1="-29.8065" x2="515.359" y2="526.825" gradientUnits="userSpaceOnUse">
<stop offset="0.2057" stop-color="#89D0FF"/>
<stop offset="0.3984" stop-color="#EBBF9A"/>
<stop offset="0.6015" stop-color="#EB80DA"/>
<stop offset="0.8411" stop-color="#A281FF"/>
</linearGradient>
<linearGradient id="paint3_linear_1_598" x1="9.63981" y1="-7.47228" x2="493.067" y2="504.444" gradientUnits="userSpaceOnUse">
<stop offset="0.2057" stop-color="#89D0FF"/>
<stop offset="0.3984" stop-color="#EBBF9A"/>
<stop offset="0.6015" stop-color="#EB8280"/>
<stop offset="0.8411" stop-color="#A281FF"/>
</linearGradient>
<linearGradient id="paint4_linear_1_598" x1="32.0972" y1="14.9318" x2="470.663" y2="482" gradientUnits="userSpaceOnUse">
<stop offset="0.2057" stop-color="#89D0FF"/>
<stop offset="0.3984" stop-color="#EBBF9A"/>
<stop offset="0.6015" stop-color="#EB80E7"/>
<stop offset="0.8411" stop-color="#A281FF"/>
</linearGradient>
<linearGradient id="paint5_linear_1_598" x1="54.5122" y1="37.2935" x2="448.298" y2="459.475" gradientUnits="userSpaceOnUse">
<stop offset="0.2057" stop-color="#89D0FF"/>
<stop offset="0.3984" stop-color="#EBBF9A"/>
<stop offset="0.6015" stop-color="#EB80D3"/>
<stop offset="0.8411" stop-color="#A281FF"/>
</linearGradient>
<linearGradient id="paint6_linear_1_598" x1="76.9982" y1="59.5838" x2="425.976" y2="437.05" gradientUnits="userSpaceOnUse">
<stop offset="0.2057" stop-color="#89D0FF"/>
<stop offset="0.3984" stop-color="#EBBF9A"/>
<stop offset="0.6015" stop-color="#A280EB"/>
<stop offset="0.8411" stop-color="#A281FF"/>
</linearGradient>
<clipPath id="clip0_1_598">
<rect width="500" height="500" fill="white" transform="translate(0 0.5)"/>
</clipPath>
</defs>
</svg>
