<svg width="500" height="501" viewBox="0 0 500 501" fill="none" xmlns="http://www.w3.org/2000/svg">
<path d="M252 1.5C387.1 3.4 498.2 111.4 498.9 250.7C499.5 387 386.6 499.9 250.2 499.5C112.6 499.1 2.40004 389.8 1.10004 253.6C-0.299958 113 111.5 1.6 252 1.5ZM279.3 375.4C216.8 375.4 154.6 375.4 90.8 375.4C141.9 434 203.9 460.3 279.7 449.9C332.1 442.7 374.4 416.8 409 374.8C384.6 374.8 362.2 374.8 339.5 374.8C329.6 354.6 319.9 334.6 309.5 313.3C299.1 334.6 289.4 354.5 279.3 375.4ZM299.4 55.7C342.6 151.3 385.6 246.4 429 342.6C491.3 220.8 416.6 82.4 299.4 55.7ZM191.8 57.8C135.8 73.3 77.8 121.5 56.8 192.1C41.6 243.3 46.1 292.8 70.1 342.3C111 246.6 151.1 152.8 191.8 57.8ZM303.2 267C285.4 230.3 268 194.5 249.8 157.2C231.6 194.6 214.3 230.4 196.5 267C232.5 267 267 267 303.2 267Z" fill="#59018C"/>
</svg>
