<svg width="500" height="501" viewBox="0 0 500 501" fill="none" xmlns="http://www.w3.org/2000/svg">
<path d="M250 495.178C385.132 495.178 494.678 385.632 494.678 250.5C494.678 115.368 385.132 5.82227 250 5.82227C114.868 5.82227 5.32227 115.368 5.32227 250.5C5.32227 385.632 114.868 495.178 250 495.178Z" fill="url(#paint0_linear_1_642)"/>
<path d="M218.203 276.67L250.753 177.613L283.906 276.67H218.203ZM356.189 339.309L329.265 265.368H345.339C351.745 265.313 356.916 260.12 356.943 253.714C356.943 247.611 351.995 242.663 345.892 242.663H320.776L316.758 231.16H345.339C351.604 231.162 356.729 226.171 356.893 219.908C356.92 213.528 351.77 208.333 345.39 208.305C345.356 208.305 345.323 208.305 345.289 208.305H308.168L288.076 153.05C285.074 145.156 280.113 138.155 273.659 132.706C267.283 127.463 259.203 124.746 250.955 125.071C242.685 124.808 234.594 127.517 228.149 132.706C221.692 138.162 216.716 145.16 213.683 153.05L192.636 208.807H155.715C149.576 208.807 144.592 213.769 144.564 219.908C144.564 226.289 149.737 231.462 156.117 231.462H184.146L179.826 242.663H154.711C148.552 242.663 143.559 247.656 143.559 253.815C143.559 260.12 148.656 265.24 154.962 265.267H171.086L143.71 339.309C142.027 343.483 141.092 347.921 140.947 352.419C141.232 358.729 143.972 364.677 148.582 368.995C153.655 373.389 160.156 375.782 166.866 375.726C178.484 376.363 188.96 368.778 191.982 357.543L202.581 325.947H300.08L310.679 358.296C314.094 369.137 324.45 376.262 335.795 375.576C340.016 375.66 344.182 374.602 347.851 372.512C351.033 370.15 353.858 367.341 356.239 364.173C358.314 360.608 359.374 356.543 359.303 352.419C358.638 348.034 357.596 343.715 356.189 339.509V339.309H356.189Z" fill="#FEFEFE"/>
<defs>
<linearGradient id="paint0_linear_1_642" x1="74.0039" y1="77.2724" x2="421.782" y2="419.58" gradientUnits="userSpaceOnUse">
<stop stop-color="#FC9351"/>
<stop offset="0.9995" stop-color="#FC6D79"/>
</linearGradient>
</defs>
</svg>
