<svg width="500" height="501" viewBox="0 0 500 501" fill="none" xmlns="http://www.w3.org/2000/svg">
<path d="M385.1 168.101H341.5C336.4 168.101 331.6 165.901 328.2 162.101L310.5 142.101C305.4 136.401 296.6 135.901 290.8 141.001C290.4 141.301 290 141.701 289.7 142.101L274.6 159.201C269.7 164.801 262.5 168.101 255.1 168.101H16.6001C9.7001 187.801 5.4001 208.301 3.6001 229.101H228.7C232.6 229.101 236.4 227.501 239.1 224.601L260.1 202.701C262.7 200.001 266.3 198.501 270.1 198.501H270.9C274.9 198.501 278.7 200.201 281.3 203.101L299 223.101C302.3 226.901 307.2 229.101 312.3 229.101H496C494.3 208.301 490 187.801 483 168.101H385.3H385.1ZM139.8 357.401C143.7 357.401 147.5 355.801 150.2 352.901L171.1 331.001C173.7 328.301 177.3 326.801 181.1 326.801H182C186 326.801 189.8 328.501 192.4 331.401L210 351.401C213.4 355.201 218.2 357.401 223.3 357.401H472.3C481.8 337.901 488.6 317.201 492.7 295.901H253.7C248.7 295.901 243.9 293.701 240.5 290.001L222.8 270.001C220.2 267.001 216.4 265.301 212.4 265.301C208.4 265.301 204.6 267.001 202.1 270.001L187 287.101C182 292.701 174.9 295.901 167.4 295.901H7.0001C11.0001 317.301 17.8001 338.001 27.3001 357.601L139.8 357.401ZM316.5 101.401C320.5 101.401 324.3 99.801 327 96.901L347.9 75.101C350.5 72.401 354.1 70.801 357.9 70.801H358.8C362.8 70.801 366.6 72.501 369.1 75.501L386.8 95.501C390.2 99.301 395 101.401 400.1 101.401H447.4C365.4 -7.69904 210.5 -29.799 101.4 52.201C82.8001 66.201 66.2001 82.801 52.2001 101.401H316.5ZM221.4 418.501H156.6C151.5 418.501 146.7 416.301 143.4 412.501L125.8 392.501C120.6 386.701 111.8 386.301 106 391.401C105.6 391.701 105.3 392.101 104.9 392.501L89.7001 409.901C84.8001 415.501 77.6001 418.801 70.2001 418.801H69.2001C162.2 518.601 318.5 524.101 418.3 431.001C422.5 427.101 426.6 423.001 430.5 418.801L221.4 418.501Z" fill="black"/>
</svg>
