<svg width="500" height="501" viewBox="0 0 500 501" fill="none" xmlns="http://www.w3.org/2000/svg">
<g clip-path="url(#clip0_1_647)">
<path d="M484.4 113.2C468.6 142.5 442.2 164.9 410.6 176.1C378.9 187.2 344.2 186.3 313.2 173.5C329 144.2 355.4 121.8 387 110.6C418.6 99.4002 453.4 100.4 484.4 113.2Z" fill="#39D86E"/>
<path d="M104.9 313.2C115.5 342.4 136.2 367 163.4 382.6C190.6 398.2 222.4 403.9 253.4 398.6C284.4 393.3 312.4 377.3 332.7 353.6C352.9 329.8 364 299.8 364.1 268.7V267.9C364.1 266 364.1 264 364.1 262.2V261.6C362.9 244.5 355.1 228.5 342.2 217C329.3 205.5 312.4 199.5 295 200.1C277.7 200.7 261.2 208 249.3 220.5C237.3 232.9 230.7 249.4 230.8 266.6C230.8 283.8 224 300.3 211.9 312.6C199.8 324.9 183.2 332.1 165.8 332.5H162C141.4 332.1 121.4 325.4 104.9 313.2Z" fill="#C336D8"/>
<path d="M163.9 315.4C191.2 315.4 213.4 293.5 213.4 266.5C213.4 239.5 191.2 217.5 163.9 217.5C136.6 217.5 114.4 239.4 114.4 266.4C114.4 293.4 136.5 315.4 163.9 315.4Z" fill="#C336D8"/>
<path d="M115.2 466C62.2999 435.7 23.6999 385.9 7.89987 327.6C-7.90013 269.2 0.299871 207 30.6999 154.7C37.0999 143.8 44.2999 133.5 52.3999 123.8L52.7999 123.4L155.9 3.5C168.7 14.3 176.6 29.6 177.9 46.1C179.2 62.6 173.9 79 163 91.6L101.1 163.4C86.3999 181.1 75.5999 201.6 69.2999 223.6C62.9999 245.6 61.4999 268.7 64.6999 291.4C67.8999 314.1 75.7999 335.8 87.9999 355.3C100.1 374.8 116.3 391.6 135.3 404.6C154.3 417.6 175.9 426.6 198.6 431C221.3 435.4 244.7 435 267.3 430C289.9 425 311.2 415.4 329.8 401.8C348.5 388.2 364.1 371 375.6 351.2C380.2 343.3 384.1 335 387.4 326.5L419.4 237.5C425.1 222 436.8 209.4 451.9 202.3C467 195.3 484.3 194.4 500 199.9L446.7 348.5C434.9 379.5 416.4 407.6 392.6 430.8C368.7 454 340 471.9 308.5 483C277 494.2 243.3 498.4 210 495.5C176.7 492.6 144.2 482.6 115.2 466Z" fill="#5B41F5"/>
</g>
<defs>
<clipPath id="clip0_1_647">
<rect width="500" height="500" fill="white" transform="translate(0 0.5)"/>
</clipPath>
</defs>
</svg>
