<svg width="500" height="501" viewBox="0 0 500 501" fill="none" xmlns="http://www.w3.org/2000/svg">
<path d="M277.9 333.1L345.7 408.5L259.1 472.4V333.1H277.9Z" fill="#4E42DF"/>
<path d="M447.8 333.1L357.2 400L296.9 333.1H447.8Z" fill="#4839D0"/>
<path d="M206 333.1L145.8 399.9L53.7998 333.1H206Z" fill="#7953F5"/>
<path d="M246.5 333.1V473L157.4 408.3L225.1 333.1H246.5Z" fill="#6045F8"/>
<path d="M47.9996 344.699L134.6 407.699H8.59961L47.9996 344.699Z" fill="#9552F7"/>
<path d="M493 407.699H369L454.2 344.699L493 407.699Z" fill="#362B9C"/>
<path d="M246.5 215.199V27.6992L63.5 320.099H182.8L246.5 215.199Z" fill="#B852F7"/>
<path d="M323.3 320.101H439L259.1 27.8008V214.301L323.3 320.101Z" fill="#D252F5"/>
</svg>
