<svg width="500" height="501" viewBox="0 0 500 501" fill="none" xmlns="http://www.w3.org/2000/svg">
<path d="M249.5 495.6C184 495.6 122.5 470.1 76.2004 423.8C29.9004 377.5 4.40039 316 4.40039 250.5C4.40039 185 29.9004 123.5 76.2004 77.2004C122.5 30.9004 184 5.40039 249.5 5.40039C315 5.40039 376.5 30.9004 422.8 77.2004C469.1 123.5 494.6 185 494.6 250.5C494.6 316 469.1 377.5 422.8 423.8C376.5 470.1 315 495.6 249.5 495.6ZM249.5 43.9004C135.6 43.9004 42.9004 136.6 42.9004 250.5C42.9004 364.4 135.6 457.1 249.5 457.1C363.4 457.1 456.1 364.4 456.1 250.5C456.1 136.6 363.4 43.9004 249.5 43.9004Z" fill="#222326"/>
<path d="M291.7 332.1C290.6 329.9 289.7 327.4 288.9 324.5C288.1 321.6 287.5 318.6 286.9 315.5C284.4 318.2 281.5 320.8 278.2 323.2C274.9 325.6 271.2 327.8 267.2 329.6C263.3 331.4 258.9 332.7 254 333.7C249.2 334.8 244 335.3 238.4 335.3C229.3 335.3 220.9 334 213.2 331.4C205.6 328.8 199.1 325.1 193.6 320.4C188.1 315.7 183.8 310.1 180.8 303.6C177.7 297 176.2 289.9 176.2 282.2C176.2 263.4 183.2 249 197.1 238.8C211.1 228.5 232 223.3 259.8 223.3H285.3V212.8C285.3 204.2 282.5 197.5 276.9 192.6C271.3 187.6 263.2 185 252.7 185C243.4 185 236.6 187 232.3 191.1C228 195 225.9 200.4 225.9 207.1H180.2C180.2 199.5 181.8 192.4 185.1 185.6C188.5 178.8 193.4 172.8 199.7 167.7C206.2 162.5 214 158.5 223.2 155.5C232.5 152.4 243.2 150.9 255.1 150.9C265.8 150.9 275.8 152.2 285 154.8C294.3 157.4 302.4 161.3 309.2 166.5C316 171.7 321.3 178.2 325.2 186.1C329 193.9 331 202.9 331 213.2V289.5C331 299 331.6 306.9 332.8 313.2C334 319.5 335.8 324.8 338.1 329.3V332.1H291.7ZM248.1 300C252.7 300 257 299.5 260.9 298.4C264.8 297.3 268.4 295.9 271.6 294.1C274.8 292.3 277.5 290.4 279.8 288.2C282.1 285.9 283.9 283.6 285.2 281.3V250.7H261.8C254.7 250.7 248.6 251.4 243.5 252.8C238.5 254.1 234.3 256 231.2 258.6C228 261 225.7 264 224.1 267.5C222.6 270.9 221.8 274.6 221.8 278.7C221.8 284.8 223.9 289.9 228.2 294C232.7 298 239.3 300 248.1 300Z" fill="#222326"/>
</svg>
