<svg width="500" height="501" viewBox="0 0 500 501" fill="none" xmlns="http://www.w3.org/2000/svg">
<g clip-path="url(#clip0_1_664)">
<path d="M45.2998 152.501V348.501C45.2998 361.001 51.8998 372.501 62.7998 378.801L232.6 476.801C243.4 483.001 256.7 483.001 267.6 476.801L437.4 378.801C448.2 372.601 454.9 361.001 454.9 348.501V152.501C454.9 140.001 448.3 128.501 437.4 122.201L267.6 24.2008C256.8 18.0008 243.5 18.0008 232.6 24.2008L62.7998 122.201C51.9998 128.401 45.2998 140.001 45.2998 152.501Z" fill="#213147"/>
<path d="M287.1 288.5L262.9 354.9C262.2 356.7 262.2 358.8 262.9 360.6L304.5 474.8L352.7 447L294.9 288.5C293.6 284.8 288.5 284.8 287.1 288.5Z" fill="#12AAFF"/>
<path d="M335.6 176.8C334.3 173.1 329.2 173.1 327.8 176.8L303.6 243.2C302.9 245 302.9 247.1 303.6 248.9L371.8 436L420 408.2L335.6 176.8Z" fill="#12AAFF"/>
<path d="M250 31.5C251.2 31.5 252.4 31.8 253.5 32.4L437.2 138.5C439.3 139.7 440.7 142 440.7 144.4V356.5C440.7 359 439.4 361.2 437.2 362.4L253.5 468.6C252.5 469.2 251.3 469.5 250 469.5C248.7 469.5 247.6 469.2 246.5 468.6L62.9 362.5C60.8 361.3 59.4 359 59.4 356.6V144.4C59.4 141.9 60.7 139.7 62.9 138.5L246.6 32.4C247.6 31.8 248.9 31.5 250 31.5ZM250 0.5C243.5 0.5 236.9 2.2 231.1 5.6L47.4 111.7C35.7 118.4 28.5 130.9 28.5 144.4V356.5C28.5 370 35.8 382.6 47.4 389.3L231.1 495.4C236.9 498.8 243.5 500.5 250 500.5C256.5 500.5 263.1 498.8 268.9 495.4L452.6 389.3C464.4 382.6 471.5 370.1 471.5 356.5V144.4C471.5 130.9 464.2 118.3 452.6 111.6L269 5.6C263.1 2.2 256.5 0.5 250 0.5Z" fill="#9DCCED"/>
<path d="M128.6 436.2L145.5 389.9L179.4 418.2L147.7 447.2L128.6 436.2Z" fill="#213147"/>
<path d="M234.6 129.301H188C184.5 129.301 181.4 131.401 180.2 134.701L80.4004 408.401L128.6 436.201L238.5 134.801C239.5 132.101 237.5 129.301 234.6 129.301Z" fill="white"/>
<path d="M316.101 129.301H269.601C266.101 129.301 263.001 131.401 261.801 134.701L147.801 447.201L196.001 475.001L320.001 134.901C321.001 132.101 318.901 129.301 316.101 129.301Z" fill="white"/>
</g>
<defs>
<clipPath id="clip0_1_664">
<rect width="500" height="500" fill="white" transform="translate(0 0.5)"/>
</clipPath>
</defs>
</svg>
