<svg width="500" height="501" viewBox="0 0 500 501" fill="none" xmlns="http://www.w3.org/2000/svg">
<g clip-path="url(#clip0_1_678)">
<path d="M249.6 191.201C31.7999 190.301 86.7999 500.501 86.7999 500.501H414.9C414.9 500.501 468.5 190.301 250.5 191.201H249.6Z" fill="#509FE9"/>
<path d="M145.1 242.3C145.1 242.3 52.9996 214.2 43.2996 275.6C33.4996 337.3 121.4 320.6 121.4 320.6L145.1 242.3Z" fill="#509FE9"/>
<path d="M354.7 242.3C354.7 242.3 446.8 214.2 456.5 275.6C466.3 337.3 378.4 320.6 378.4 320.6L354.7 242.3Z" fill="#509FE9"/>
<path d="M186.1 251.601C174.9 251.601 163.3 241.401 155 234.201C149.4 229.201 144 224.201 140.5 220.701C139.1 219.401 137.6 218.101 136 217.201C129.3 213.301 117.4 205.301 106.5 192.401C91.7004 174.801 76.3004 144.801 87.7004 102.001C108.2 25.3008 169.3 2.30079 172 1.40079C180.1 -1.59922 189.2 2.90078 192.1 11.2008C195 19.5008 190.7 28.8008 182.5 31.8008C180.7 32.5008 134.2 50.5008 118.1 110.501C111.9 133.501 115.9 153.601 129.7 170.501C140.7 184.001 154.3 190.501 154.3 190.501L156.8 191.801L157.2 192.201C152.9 170.201 158.1 153.101 164.6 141.601C164.8 141.401 164.8 141.201 165 141.001C173.7 125.801 195.2 126.001 203.9 141.401L205 143.401H205.2C205.2 143.401 196.9 148.601 191.6 158.601C184.9 171.401 186.2 186.901 195 204.701C199.2 212.801 201.7 219.301 203.1 224.301C206.7 238.201 200.7 245.201 196.8 248.001C193.2 250.501 189.7 251.601 186.1 251.601Z" fill="#509FE9"/>
<path d="M100.8 165.101C99.7001 165.101 98.6001 164.901 97.4001 164.701C72.8001 159.101 54.5001 147.101 43.1001 128.801C24.6001 99.2005 32.0001 64.4005 32.4001 62.9005C34.4001 54.2005 42.7001 48.8005 51.2001 50.9005C59.7001 52.9005 64.9001 61.5005 63.1001 70.2005C63.1001 70.6005 60.2001 84.6005 64.2001 99.3005C69.1001 117.601 82.3001 128.701 104.2 133.701C112.7 135.601 118.1 144.301 116.1 153.001C114.5 159.901 108 165.101 100.8 165.101Z" fill="#509FE9"/>
<path d="M313.8 251.601C310.2 251.601 306.7 250.501 303.3 248.101C299.3 245.101 293.4 238.301 297 224.401C298.3 219.401 301 212.901 305.1 204.801C314.1 187.001 315.2 171.501 308.5 158.701C303.3 148.701 294.9 143.501 294.9 143.501H295.1L296.2 141.501C304.7 126.101 326.4 125.901 335.1 141.101C335.3 141.301 335.3 141.501 335.5 141.701C342 153.201 347.3 170.201 342.9 192.401L343.4 191.801L345.9 190.501C345.9 190.501 359.5 184.001 370.5 170.501C384.2 153.601 388.2 133.501 382.1 110.501C366.2 50.5008 319.7 32.5008 317.7 31.8008C309.6 28.8008 305.2 19.6008 308.1 11.2008C311 2.90078 320 -1.59922 328.2 1.40079C330.7 2.30079 392.1 25.3008 412.5 102.001C423.9 144.801 408.5 174.601 393.7 192.201C382.8 205.201 370.9 213.101 364.2 217.001C362.6 217.901 360.9 219.001 359.7 220.501C356.3 223.801 350.8 229.001 345.2 234.001C336.6 241.401 325.1 251.601 313.8 251.601Z" fill="#509FE9"/>
<path d="M399.2 165.101C392 165.101 385.5 159.901 383.8 152.501C382 143.801 387.2 135.301 395.7 133.201C417.6 128.401 430.6 117.101 435.7 98.8011C439.7 84.0011 436.8 69.9011 436.8 69.7011C434.8 61.0011 440.2 52.5011 448.7 50.4011C457.2 48.4011 465.7 53.9011 467.5 62.6011C467.9 64.1011 475.3 98.9011 456.8 128.501C445.4 146.801 427.1 159.101 402.4 164.401C401.4 164.901 400.3 165.101 399.2 165.101Z" fill="#509FE9"/>
<path d="M188.7 333.8H187C181.6 333.8 177.2 329.4 177.2 323.8V299.4C177.2 293.8 181.5 289.4 187 289.4H188.6C194 289.4 198.4 293.8 198.4 299.4V323.8C198.4 329.4 194.1 333.8 188.7 333.8Z" fill="white"/>
<path d="M312.8 333.8H311.2C305.8 333.8 301.4 329.4 301.4 323.8V299.4C301.4 293.8 305.7 289.4 311.2 289.4H312.8C318.2 289.4 322.6 293.8 322.6 299.4V323.8C322.5 329.4 318.2 333.8 312.8 333.8Z" fill="white"/>
<path d="M250 424.901C276.1 424.901 297.2 403.301 297.2 376.601C297.2 349.901 276.1 328.301 250 328.301C223.9 328.301 202.8 349.901 202.8 376.601C202.8 403.301 223.9 424.901 250 424.901Z" fill="white"/>
<path d="M250 367L227.9 378.3C227.9 378.3 229.5 397.6 250 397.6C270.5 397.6 272.1 376.7 272.1 376.7L250 367Z" fill="#509FE9"/>
<path d="M231 331.401L249.8 344.401L268.6 331.401C268.8 331.401 246.7 313.601 231 331.401Z" fill="#509FE9"/>
</g>
<defs>
<clipPath id="clip0_1_678">
<rect width="500" height="500" fill="white" transform="translate(0 0.5)"/>
</clipPath>
</defs>
</svg>
