<svg width="500" height="501" viewBox="0 0 500 501" fill="none" xmlns="http://www.w3.org/2000/svg">
<g clip-path="url(#clip0_1_696)">
<path fill-rule="evenodd" clip-rule="evenodd" d="M250 500.5C388.1 500.5 500 388.6 500 250.5C500 112.4 388.1 0.5 250 0.5C111.9 0.5 0 112.4 0 250.5C0 388.6 111.9 500.5 250 500.5Z" fill="url(#paint0_linear_1_696)"/>
<path fill-rule="evenodd" clip-rule="evenodd" d="M250 475.5C374.3 475.5 475 374.8 475 250.5C475 126.2 374.3 25.5 250 25.5C125.7 25.5 25 126.2 25 250.5C25 374.8 125.7 475.5 250 475.5Z" fill="white"/>
<path fill-rule="evenodd" clip-rule="evenodd" d="M250 450.5C360.5 450.5 450 361 450 250.5C450 140 360.5 50.5 250 50.5C139.5 50.5 50 140 50 250.5C50 361 139.5 450.5 250 450.5Z" fill="#00224D"/>
<path fill-rule="evenodd" clip-rule="evenodd" d="M166 169.4L163.2 164.7L128.2 184.8V181.8L250 111.5L252.6 113.1L258.1 116.1L263.6 119.4L189 162.5L186.2 157.8L166 169.4ZM166 213.8L163.2 209.1L128.2 229.2V225.9L288.4 133.6L291.1 135.2L296.6 138.2L302.1 141.4L227.3 184.5L224.7 179.8L166 213.8ZM163.2 231.1L166 236L243.7 191.1L246.3 195.8L321.1 152.7L315.6 149.6L310.1 146.3L307.5 144.7L128.2 248.1V251.3L163.2 231.1ZM166 257.9L163.2 253.2L128.2 273.3V270.3L326.6 155.8L329.2 157.2L334.7 160.4L340.2 163.5L266.1 206.5L263.4 201.8L166 257.9ZM163.2 275.4L166 280.1L282.5 212.8L285.2 217.7L359.4 174.8L353.9 171.6L348.7 168.5L345.8 166.9L128.2 292.5V295.5L163.2 275.4ZM367.7 179.4L371.8 181.8V189.7L285.2 239.5L282.5 234.8L166 302.2L163.2 297.5L128.2 317.6V314.6L364.9 177.8L367.7 179.4ZM140.6 329.5L143.2 331.1L162.7 319.9L165.6 324.6L281.9 257.3L284.7 262.2L371.7 211.8V196.2L140.6 329.5ZM281.9 279.5L185.1 335.4L182.3 330.7L162.4 342.3L159.8 340.7L371.8 218.3V234L284.8 284.4L281.9 279.5ZM178.8 351.6L181.5 353.2L201.6 341.6L204.2 346.5L281.9 301.6L284.7 306.3L371.7 256.1V240.2L178.8 351.6ZM200.8 364.2L197.9 362.8L371.7 262.3V278.2L284.7 328.4L281.9 323.7L223.4 357.5L220.8 352.8L200.8 364.2ZM371.8 284.5L217.1 373.7L219.9 375.3L239.8 363.7L242.4 368.6L281.9 345.8L284.7 350.5L371.7 300.3V284.5H371.8ZM239 386.4L236.3 385L371.7 306.7V322.5L284.7 372.7L281.9 367.8L261.8 379.6L259 374.9L239 386.4ZM208.1 173.5L282.9 130.4L277.4 127.4L271.9 124.1L269 122.5L128.1 204.1V207.2L163.1 187.1L165.9 191.8L205.3 169L208.1 173.5Z" fill="white"/>
</g>
<defs>
<linearGradient id="paint0_linear_1_696" x1="436.393" y1="93.6689" x2="64.3935" y2="406.669" gradientUnits="userSpaceOnUse">
<stop stop-color="#B6509E"/>
<stop offset="1" stop-color="#2EBAC6"/>
</linearGradient>
<clipPath id="clip0_1_696">
<rect width="500" height="500" fill="white" transform="translate(0 0.5)"/>
</clipPath>
</defs>
</svg>
