<svg width="500" height="501" viewBox="0 0 500 501" fill="none" xmlns="http://www.w3.org/2000/svg">
<path d="M249.838 195.849C168.915 279.888 88.4892 363.41 8.06415 446.932C7.47115 446.459 6.87913 445.986 6.28613 445.513C87.1911 316.005 168.096 186.496 249.853 55.625C331.631 186.513 412.563 316.045 493.494 445.577C492.919 446.059 492.344 446.54 491.77 447.022C411.348 363.528 330.927 280.035 249.838 195.849ZM360.316 368.669C286.033 368.669 214.258 368.669 139.385 368.669C153.749 353.928 166.539 340.471 179.844 327.545C181.631 325.809 186.021 326.498 189.206 326.494C229.258 326.446 318.604 326.365 318.604 326.365C318.604 326.365 348.193 356.13 360.316 368.669ZM207.502 297.897C222.344 282.384 235.639 268.487 246.546 257.087C261.615 270.185 276.366 283.007 293.496 297.897C263.368 297.897 236.907 297.897 207.502 297.897Z" fill="#FC0016"/>
</svg>
