<svg width="500" height="501" viewBox="0 0 500 501" fill="none" xmlns="http://www.w3.org/2000/svg">
<g clip-path="url(#clip0_1_703)">
<path d="M95.5996 12.3992L72.5996 83.2992L334.6 83.0992L311.6 12.1992L95.5996 12.3992Z" fill="black"/>
<path d="M404.8 12.0996L330.2 12.1996L411.3 261.4L471.6 217.5L404.8 12.0996Z" fill="black"/>
<path d="M265.3 389.5L325.7 433.3L500.3 306.3L477.2 235.4L265.3 389.5Z" fill="black"/>
<path d="M75.5 361.3L250.3 488.2L310.6 444.3L98.6 290.4L75.5 361.3Z" fill="black"/>
<path d="M66.8998 101L0.299805 306.4L60.6998 350.2L141.5 101H66.8998Z" fill="black"/>
<path d="M160.2 100.9L137.1 171.8L270.3 171.7L247.2 100.9H160.2Z" fill="black"/>
<path d="M265.8 100.799L307.1 227.499L367.4 183.599L340.5 100.799H265.8Z" fill="black"/>
<path d="M265.5 279.799L325.9 323.499L396.4 272.299V272.199L373.3 201.299L265.5 279.799Z" fill="black"/>
<path d="M179.7 327.4L250.3 378.7L310.6 334.8L202.7 256.6L179.7 327.4Z" fill="black"/>
<path d="M131.4 189.5L104.5 272.4L164.9 316.2L205.9 189.5H131.4Z" fill="black"/>
</g>
<defs>
<clipPath id="clip0_1_703">
<rect width="500" height="500" fill="white" transform="translate(0 0.5)"/>
</clipPath>
</defs>
</svg>
