<svg width="500" height="501" viewBox="0 0 500 501" fill="none" xmlns="http://www.w3.org/2000/svg">
<path d="M257.7 321.299L377.3 227.499C378.9 226.299 379.8 224.399 379.8 222.399V180.999C379.8 177.599 376 175.799 373.3 177.799L250.1 274.499L126.8 177.699C124.2 175.599 120.3 177.499 120.3 180.899V222.399C120.3 224.399 121.2 226.299 122.8 227.499L242.4 321.299C244.6 322.999 247.3 323.799 250.1 323.799C252.7 323.899 255.5 322.999 257.7 321.299Z" fill="#1890FF"/>
<path fill-rule="evenodd" clip-rule="evenodd" d="M438.9 66.1992L258.6 4.39922C256.2 3.59922 253.1 3.19922 250.1 3.19922C247.1 3.19922 244 3.59922 241.6 4.39922L61.3002 66.1992C58.7002 67.0992 56.5002 68.9992 54.9002 71.2992C53.3002 73.5992 52.2002 76.3992 52.2002 79.0992V336.699C52.2002 339.399 53.0002 342.299 54.3002 344.999C55.6002 347.699 57.4002 350.199 59.5002 351.799L242.4 495.299C244.6 496.999 247.3 497.799 250.1 497.799C252.8 497.799 255.6 496.999 257.8 495.299L440.7 351.899C442.8 350.299 444.6 347.799 445.9 345.099C447.2 342.399 448 339.499 448 336.799V79.0992C448.1 76.2992 447 73.5992 445.4 71.2992C443.7 68.9992 441.4 67.0992 438.9 66.1992ZM406.5 99.2992V325.699L250.1 448.399L93.6002 325.699V99.2992L250.1 45.4992L406.5 99.2992Z" fill="#1890FF"/>
</svg>
