<svg width="500" height="501" viewBox="0 0 500 501" fill="none" xmlns="http://www.w3.org/2000/svg">
<path d="M29.3279 249.767C29.3279 221.483 29.4769 193.197 29.2699 164.915C29.1529 149.014 33.4649 134.86 42.1789 121.417C46.6229 114.562 52.0969 110.079 58.8239 106.205C110.961 76.1797 162.994 45.9747 215.162 16.0047C237.489 3.17769 260.127 3.16369 282.484 16.0337C333.441 45.3667 384.355 74.7737 435.211 104.282C457.067 116.963 468.072 136.439 468.211 161.441C468.54 220.408 468.537 279.379 468.213 338.346C468.074 363.565 456.887 383.044 434.83 395.801C383.34 425.581 331.853 455.366 280.28 485.002C259.92 496.702 238.555 496.7 218.602 485.506C165.394 455.654 112.617 425.02 60.0389 394.068C39.6239 382.05 29.7229 362.839 29.4209 339.248C29.0389 309.425 29.3279 279.594 29.3279 249.767ZM220.134 25.7357C219.494 25.9787 218.807 26.1397 218.222 26.4777C167.851 55.5177 117.482 84.5627 67.1299 113.637C61.6249 116.816 56.7219 120.743 52.9309 125.732C53.0099 128.766 54.1989 131.089 56.5379 132.421C69.2829 139.678 82.1029 146.804 94.8749 153.963C100.569 149.566 106.54 148.438 113.083 150.824C114.853 147.18 117.907 145.181 120.227 142.499C135.979 124.295 151.803 106.152 167.598 87.9847C174.972 79.5037 182.373 71.0467 189.69 62.5167C200.038 50.4527 210.944 38.8667 220.721 26.3137C220.956 26.0577 221.19 25.8007 222.169 24.7317C220.823 25.3947 220.479 25.5657 220.134 25.7357ZM253.445 399.439C294.251 325.858 334.987 252.403 375.619 179.135C373.887 176.48 372.4 174.203 370.829 171.795C288.029 171.795 205.273 171.795 122.593 171.795C121.345 173.969 120.24 175.893 118.946 178.147C160.018 252.18 201.169 326.353 242.467 400.793C246.009 398.957 249.467 399.621 253.445 399.439ZM265.67 411.105C267.332 410.84 268.684 410.694 270.003 410.404C284.682 407.176 299.349 403.893 314.033 400.687C355.083 391.724 396.153 382.853 437.178 373.777C443.062 372.475 447.749 369.036 449.732 362.946C451.235 358.331 450.305 353.855 448.704 349.392C432.311 303.679 415.968 257.947 399.606 212.223C396.16 202.592 392.695 192.967 389.383 183.74C385.495 182.223 384.659 184.825 383.516 186.868C377.17 198.204 370.824 209.539 364.511 220.893C335.529 273.015 306.555 325.142 277.587 377.272C272.449 386.517 267.356 395.787 262.355 404.841C263.53 407.061 264.482 408.86 265.67 411.105ZM109.607 182.921C105.343 182.58 105.307 185.351 104.631 187.292C95.6839 212.977 86.8079 238.686 77.9019 264.385C67.5139 294.359 57.0989 324.323 46.7279 354.303C43.4519 363.772 47.1379 370.669 56.6169 372.975C63.5649 374.665 70.4929 376.448 77.4779 377.97C116.472 386.47 155.48 394.907 194.485 403.357C207.258 406.124 220.037 408.867 232.627 411.582C235.869 407.688 233.026 405.003 231.574 402.387C197.06 340.189 162.472 278.032 127.901 215.866C121.768 204.838 115.649 193.802 109.607 182.921ZM122.698 160.886C205.597 160.886 288.36 160.886 370.992 160.886C371.984 159.338 372.886 158.095 372.925 156.239C372.66 155.827 372.359 155.211 371.926 154.706C336.027 112.813 300.145 70.9037 264.191 29.0577C254.449 17.7197 242.491 17.9787 232.699 29.3027C217.461 46.9257 202.11 64.4507 186.803 82.0147C165.64 106.297 144.483 130.584 123.291 154.84C121.71 156.65 120.403 158.313 122.698 160.886ZM456.725 340.667C457.023 340.654 457.322 340.642 457.62 340.629C457.703 340.189 457.858 339.749 457.858 339.308C457.835 280.19 457.868 221.071 457.687 161.953C457.662 153.835 456.651 145.699 452.311 138.105C436.047 146.906 420.121 155.525 403.861 164.324C405.021 170.088 402.268 174.611 399.011 179.024C418.281 232.995 437.503 286.831 456.725 340.667ZM45.2669 137.271C41.2759 145.255 39.7039 153.727 39.6939 162.501C39.6299 220.064 39.6249 277.628 39.6009 335.191C39.5999 336.804 39.6009 338.416 39.6009 340.029C39.9979 340.111 40.3949 340.194 40.7909 340.276C59.2429 286.864 77.6949 233.452 96.1909 179.915C91.1389 175.372 89.0609 169.8 89.8659 163.302C75.2419 154.245 59.7269 147.296 45.2669 137.271ZM275.276 25.4497C311.043 67.2217 346.565 108.707 382.041 150.138C388.868 148.509 394.564 150.183 399.534 154.468C415.463 145.839 431.127 137.354 447.014 128.748C442.102 122.021 436.39 117.241 429.781 113.428C379.803 84.5887 329.839 55.7237 279.855 26.8967C278.596 26.1697 277.501 24.8007 275.276 25.4497ZM253.634 432.281C253.634 444.967 253.553 457.616 253.664 470.263C253.732 478.026 259.659 482.333 266.666 479.69C270.325 478.31 273.895 476.576 277.288 474.625C303.97 459.29 330.599 443.863 357.247 428.467C379.379 415.68 401.523 402.913 423.625 390.074C424.799 389.392 426.65 389.243 426.876 386.707C372.822 398.513 318.995 410.27 265.331 421.99C262.535 426.333 259.561 430.032 253.634 432.281ZM70.1199 386.629C70.0459 387.059 69.9719 387.489 69.8979 387.92C117.767 415.526 165.639 443.126 213.5 470.746C220.015 474.506 226.376 478.587 233.7 480.662C238.35 481.979 242.935 479.378 243.034 474.687C243.337 460.338 243.144 445.979 243.144 431.774C238.755 429.343 236.008 426.118 233.793 422.811C178.987 410.695 124.553 398.662 70.1199 386.629Z" fill="#FAFAFB"/>
<path d="M253.445 399.439C249.467 399.62 246.008 398.957 242.467 400.793C201.169 326.353 160.018 252.18 118.946 178.147C120.24 175.893 121.345 173.969 122.593 171.795C205.273 171.795 288.029 171.795 370.829 171.795C372.4 174.203 373.887 176.48 375.619 179.135C334.987 252.403 294.251 325.858 253.445 399.439ZM306.163 273.327C313.229 270.458 315.038 265.014 315.157 258.739C315.339 249.15 315.437 239.554 315.252 229.968C315.17 225.733 316.728 222.882 320.109 220.482C323.726 217.915 327.183 215.073 330.433 212.053C332.973 209.692 335.258 206.72 332.958 203.075C330.601 199.339 326.931 200.66 323.662 201.584C319.826 202.667 316.878 205.417 313.937 207.856C309.484 211.549 305.14 212.191 299.727 210.13C292.068 207.214 284.16 204.957 276.371 202.378C272.254 201.015 268.106 200.258 263.757 201.066C260.976 201.582 258.597 202.504 257.644 205.883C269.243 211.782 280.771 217.645 292.277 223.497C291.971 224.208 291.919 224.576 291.709 224.784C284.181 232.226 274.837 237.499 267.456 245.14C265.566 247.097 263.168 246.706 260.812 245.453C258.073 243.997 255.697 244.302 253.895 247.772C261.145 250.603 264.524 256.153 265.267 263.858C268.451 262.306 270.325 260.514 269.421 257.273C268.475 253.879 270.39 252.086 272.788 250.567C276.401 248.279 280.126 246.169 283.773 243.933C289.11 240.66 294.421 237.343 300.234 233.741C302.266 247.295 304.158 259.933 306.163 273.327ZM202.804 213.657C200.989 211.804 199.168 212.276 197.267 212.668C195.903 214.473 195.42 216.331 197.219 218.091C198.201 219.052 199.431 219.497 200.929 218.904C203.514 217.88 203.185 215.906 202.804 213.657ZM242.816 324.477C240.272 325.224 239.001 326.589 239.634 329.077C240.001 330.523 241.073 331.443 242.574 331.547C244.335 331.669 245.57 330.656 246.032 329.064C246.756 326.562 245.357 325.239 242.816 324.477ZM206.839 283.629C204.663 285.11 203.505 286.578 204.772 288.902C205.637 290.488 207.063 290.804 208.656 290.493C210.132 290.205 211.061 289.147 211.179 287.707C211.421 284.76 209.121 284.288 206.839 283.629ZM151.279 192.501C150.439 193.812 150.287 195.213 151.023 196.719C153.088 198.274 155.174 199.034 157.584 196.976C157.706 195.406 158.296 193.715 156.565 192.217C154.933 191.525 153.17 191.452 151.279 192.501ZM234.391 194.823C234.146 193.114 233.166 191.695 230.865 191.684C228.827 191.675 227.717 192.803 227.567 194.808C227.398 197.073 228.617 198.493 230.74 198.655C232.928 198.823 234.162 197.444 234.391 194.823Z" fill="url(#paint0_linear_1_728)"/>
<path d="M265.67 411.104C264.482 408.859 263.53 407.06 262.355 404.84C267.356 395.786 272.45 386.517 277.587 377.271C306.555 325.141 335.529 273.015 364.511 220.892C370.824 209.538 377.17 198.202 383.516 186.867C384.66 184.824 385.495 182.222 389.383 183.739C392.695 192.966 396.16 202.591 399.606 212.222C415.968 257.947 432.311 303.678 448.704 349.391C450.305 353.855 451.234 358.331 449.732 362.945C447.749 369.035 443.062 372.474 437.178 373.776C396.153 382.852 355.083 391.723 314.033 400.686C299.349 403.892 284.682 407.175 270.003 410.403C268.684 410.693 267.333 410.839 265.67 411.104Z" fill="url(#paint1_linear_1_728)"/>
<path d="M109.607 182.921C115.649 193.802 121.768 204.838 127.901 215.866C162.472 278.032 197.06 340.189 231.574 402.387C233.026 405.003 235.87 407.687 232.627 411.582C220.037 408.868 207.258 406.125 194.485 403.357C155.48 394.907 116.472 386.47 77.478 377.97C70.493 376.447 63.564 374.665 56.617 372.975C47.138 370.669 43.452 363.772 46.728 354.303C57.098 324.323 67.514 294.359 77.902 264.385C86.808 238.686 95.684 212.977 104.631 187.292C105.307 185.351 105.343 182.58 109.607 182.921Z" fill="url(#paint2_linear_1_728)"/>
<path d="M122.698 160.886C120.403 158.313 121.71 156.649 123.29 154.841C144.482 130.585 165.639 106.298 186.802 82.0162C202.109 64.4532 217.461 46.9282 232.698 29.3042C242.49 17.9792 254.448 17.7202 264.19 29.0592C300.145 70.9052 336.026 112.813 371.925 154.707C372.357 155.212 372.659 155.828 372.924 156.24C372.885 158.096 371.982 159.339 370.991 160.887C288.36 160.886 205.597 160.886 122.698 160.886Z" fill="url(#paint3_linear_1_728)"/>
<path d="M456.725 340.666C437.503 286.83 418.281 232.995 399.011 179.024C402.268 174.61 405.021 170.088 403.861 164.324C420.121 155.525 436.047 146.906 452.311 138.105C456.651 145.699 457.662 153.835 457.687 161.953C457.869 221.071 457.835 280.189 457.858 339.308C457.858 339.748 457.703 340.188 457.62 340.629C457.322 340.64 457.024 340.653 456.725 340.666Z" fill="#38A1BD"/>
<path d="M45.267 137.271C59.727 147.296 75.242 154.245 89.866 163.302C89.06 169.8 91.138 175.372 96.191 179.915C77.696 233.452 59.243 286.864 40.791 340.276C40.394 340.194 39.997 340.111 39.601 340.029C39.601 338.416 39.6 336.804 39.601 335.191C39.625 277.628 39.631 220.064 39.694 162.501C39.703 153.727 41.276 145.255 45.267 137.271Z" fill="url(#paint4_linear_1_728)"/>
<path d="M275.276 25.4488C277.501 24.8008 278.595 26.1688 279.855 26.8948C329.84 55.7228 379.803 84.5878 429.781 113.426C436.39 117.239 442.102 122.02 447.014 128.746C431.127 137.352 415.463 145.837 399.534 154.466C394.564 150.181 388.868 148.507 382.041 150.136C346.566 108.706 311.043 67.2198 275.276 25.4488Z" fill="#3AA7BC"/>
<path d="M220.721 26.3143C210.944 38.8673 200.038 50.4533 189.69 62.5173C182.373 71.0473 174.972 79.5043 167.598 87.9853C151.803 106.152 135.979 124.295 120.227 142.499C117.907 145.18 114.853 147.18 113.083 150.824C106.54 148.438 100.569 149.566 94.8747 153.963C82.1027 146.804 69.2827 139.678 56.5377 132.421C54.1987 131.089 53.0097 128.766 52.9307 125.732C56.7217 120.743 61.6247 116.816 67.1297 113.637C117.482 84.5633 167.85 55.5183 218.222 26.4783C218.807 26.1413 219.494 25.9803 220.134 25.7363C220.328 25.9313 220.523 26.1233 220.721 26.3143Z" fill="#3A74B3"/>
<path d="M253.634 432.28C259.56 430.03 262.534 426.332 265.331 421.99C318.995 410.269 372.822 398.513 426.876 386.707C426.65 389.243 424.799 389.392 423.625 390.074C401.523 402.913 379.38 415.68 357.247 428.467C330.6 443.862 303.971 459.29 277.288 474.625C273.894 476.575 270.325 478.31 266.666 479.69C259.659 482.333 253.732 478.026 253.664 470.263C253.553 457.615 253.634 444.967 253.634 432.28Z" fill="#426197"/>
<path d="M70.1199 386.629C124.554 398.662 178.987 410.694 233.793 422.809C236.008 426.116 238.755 429.341 243.144 431.772C243.144 445.977 243.337 460.336 243.034 474.685C242.935 479.376 238.35 481.977 233.7 480.66C226.377 478.585 220.016 474.504 213.5 470.744C165.639 443.124 117.767 415.524 69.8979 387.918C69.9719 387.49 70.0459 387.059 70.1199 386.629Z" fill="url(#paint5_linear_1_728)"/>
<path d="M220.134 25.7365C220.479 25.5665 220.823 25.3955 222.168 24.7305C221.189 25.8005 220.955 26.0565 220.72 26.3135C220.523 26.1235 220.328 25.9315 220.134 25.7365Z" fill="#3786BA"/>
<path d="M306.163 273.326C304.158 259.932 302.266 247.294 300.236 233.739C294.422 237.342 289.112 240.659 283.775 243.931C280.128 246.167 276.403 248.277 272.79 250.565C270.392 252.084 268.476 253.877 269.423 257.271C270.327 260.512 268.453 262.304 265.269 263.856C264.526 256.151 261.147 250.602 253.897 247.77C255.699 244.3 258.075 243.995 260.814 245.451C263.17 246.704 265.568 247.095 267.458 245.138C274.839 237.497 284.183 232.224 291.711 224.782C291.921 224.574 291.974 224.207 292.279 223.495C280.773 217.643 269.245 211.78 257.646 205.881C258.599 202.502 260.978 201.58 263.759 201.064C268.107 200.257 272.255 201.013 276.373 202.376C284.162 204.955 292.07 207.212 299.729 210.128C305.142 212.189 309.486 211.547 313.939 207.854C316.88 205.415 319.828 202.665 323.664 201.582C326.933 200.659 330.603 199.338 332.96 203.073C335.26 206.718 332.975 209.69 330.435 212.051C327.185 215.071 323.728 217.913 320.111 220.48C316.729 222.88 315.172 225.731 315.254 229.966C315.44 239.553 315.341 249.149 315.159 258.737C315.038 265.013 313.229 270.457 306.163 273.326Z" fill="#FAFAFB"/>
<path d="M202.804 213.656C203.185 215.904 203.514 217.879 200.928 218.903C199.43 219.497 198.2 219.051 197.218 218.09C195.419 216.33 195.902 214.472 197.266 212.667C199.168 212.276 200.989 211.804 202.804 213.656Z" fill="#FAFAFB"/>
<path d="M242.816 324.477C245.357 325.239 246.756 326.562 246.032 329.064C245.571 330.656 244.336 331.669 242.574 331.547C241.072 331.443 240.001 330.523 239.634 329.077C239.001 326.588 240.272 325.224 242.816 324.477Z" fill="#FAFAFB"/>
<path d="M206.839 283.629C209.121 284.288 211.421 284.761 211.179 287.707C211.061 289.146 210.132 290.205 208.656 290.493C207.063 290.804 205.637 290.488 204.772 288.902C203.504 286.578 204.662 285.11 206.839 283.629Z" fill="#FAFAFB"/>
<path d="M151.279 192.501C153.171 191.452 154.933 191.525 156.566 192.216C158.297 193.715 157.706 195.405 157.585 196.975C155.175 199.033 153.088 198.273 151.024 196.718C150.286 195.213 150.439 193.812 151.279 192.501Z" fill="#FAFAFB"/>
<path d="M234.391 194.824C234.162 197.445 232.927 198.824 230.74 198.657C228.617 198.495 227.398 197.075 227.567 194.81C227.717 192.804 228.827 191.676 230.865 191.686C233.167 191.695 234.147 193.114 234.391 194.824Z" fill="#FAFAFB"/>
<defs>
<linearGradient id="paint0_linear_1_728" x1="132.246" y1="383.18" x2="268.925" y2="144.058" gradientUnits="userSpaceOnUse">
<stop stop-color="#4F3F60"/>
<stop offset="0.514" stop-color="#3F659F"/>
<stop offset="0.9995" stop-color="#3BAABC"/>
</linearGradient>
<linearGradient id="paint1_linear_1_728" x1="283.363" y1="340.786" x2="459.836" y2="255.739" gradientUnits="userSpaceOnUse">
<stop stop-color="#3F659F"/>
<stop offset="1" stop-color="#3698BC"/>
</linearGradient>
<linearGradient id="paint2_linear_1_728" x1="42.7157" y1="375.894" x2="171.13" y2="296.581" gradientUnits="userSpaceOnUse">
<stop stop-color="#4E4365"/>
<stop offset="1" stop-color="#3F659E"/>
</linearGradient>
<linearGradient id="paint3_linear_1_728" x1="121.459" y1="90.7842" x2="372.925" y2="90.7842" gradientUnits="userSpaceOnUse">
<stop stop-color="#3B71AE"/>
<stop offset="0.9995" stop-color="#379DBC"/>
</linearGradient>
<linearGradient id="paint4_linear_1_728" x1="3.38443" y1="333.363" x2="64.9143" y2="186.329" gradientUnits="userSpaceOnUse">
<stop stop-color="#4E4365"/>
<stop offset="1" stop-color="#3F659E"/>
</linearGradient>
<linearGradient id="paint5_linear_1_728" x1="71.2229" y1="421.046" x2="243.754" y2="448.059" gradientUnits="userSpaceOnUse">
<stop stop-color="#4E4365"/>
<stop offset="1" stop-color="#3F659E"/>
</linearGradient>
</defs>
</svg>
