<svg width="500" height="501" viewBox="0 0 500 501" fill="none" xmlns="http://www.w3.org/2000/svg">
<path d="M180.6 475.601H36.9C12.9 475.601 -3.29998 451.201 6.00002 429.101C13.4 411.501 24 392.901 34.6 378.001C94.4 294.301 158.5 254.801 228.7 254.801C344.5 254.801 448.3 396.401 449.2 397.901L416.4 420.101C397.4 393.601 309.3 295.401 228.6 295.401C172.2 295.401 118 331.101 67.5 401.601C59.6 412.601 53.1 424.601 48.1 435.101H161.6L124.2 382.201L157.3 358.801L205.6 427.201C220.1 447.501 205.5 475.601 180.6 475.601Z" fill="url(#paint0_linear_1_748)"/>
<path d="M227.2 106.599L424.8 434.099H347.5C341.8 434.099 336.4 431.199 333.3 426.399L189.3 206.599C186.1 201.599 185.6 195.399 188.1 189.999L227.2 106.599ZM222.8 20.6992L190.5 89.3992L151.3 172.799C142.9 190.799 144.4 212.299 155.3 228.899L299.3 448.699C310 464.999 328 474.699 347.5 474.699H424.8H496.6L459.5 413.199L261.9 85.5992L222.8 20.6992Z" fill="url(#paint1_linear_1_748)"/>
<defs>
<linearGradient id="paint0_linear_1_748" x1="3.29542" y1="365.215" x2="449.168" y2="365.215" gradientUnits="userSpaceOnUse">
<stop stop-color="#0EAFE5"/>
<stop offset="1" stop-color="#23469B"/>
</linearGradient>
<linearGradient id="paint1_linear_1_748" x1="145.902" y1="247.659" x2="496.655" y2="247.659" gradientUnits="userSpaceOnUse">
<stop stop-color="#0EAFE5"/>
<stop offset="0.8539" stop-color="#273791"/>
</linearGradient>
</defs>
</svg>
