<svg width="500" height="501" viewBox="0 0 500 501" fill="none" xmlns="http://www.w3.org/2000/svg">
<path d="M249.5 497.4C386.135 497.4 496.9 386.635 496.9 250C496.9 113.364 386.135 2.59961 249.5 2.59961C112.865 2.59961 2.1001 113.364 2.1001 250C2.1001 386.635 112.865 497.4 249.5 497.4Z" fill="url(#paint0_linear_1_751)"/>
<path d="M139 386.901V306.501L201.8 274.201H310.4C319.5 274.201 326.8 266.901 326.8 257.801V209.001L376.1 183.801V268.701C376.1 299.301 351.3 324.101 320.7 324.101H186.5V372.601C186.5 380.601 180 387.101 172 387.001L139 386.901Z" fill="white"/>
<path d="M138.4 260.8V186.8C138.4 156.2 163.2 131.4 193.8 131.4H318.5C335.4 131.4 350.5 136.8 359.8 147.6L295.4 179.6H203.5C194.3 179.6 186.8 187.1 186.8 196.3V235.7L138.4 260.8Z" fill="white"/>
<defs>
<linearGradient id="paint0_linear_1_751" x1="2.1198" y1="250" x2="496.88" y2="250" gradientUnits="userSpaceOnUse">
<stop stop-color="#B28E39"/>
<stop offset="1" stop-color="#F0DE9E"/>
</linearGradient>
</defs>
</svg>
