<svg width="500" height="501" viewBox="0 0 500 501" fill="none" xmlns="http://www.w3.org/2000/svg">
<path d="M488.8 433.399L415.7 254.499C408.4 236.599 391 224.999 371.7 224.999H198.7L264.1 66.8992C274.1 42.6992 262.6 14.8992 238.4 4.79921C214.1 -5.20079 186.4 6.29921 176.3 30.4992L9.79994 433.199C-0.200058 457.399 11.2999 485.199 35.4999 495.299C41.3999 497.799 47.5999 498.899 53.5999 498.899C72.2999 498.899 89.9999 487.799 97.4999 469.499L159.3 319.999H339.7L400.7 469.299C408.2 487.699 426 498.799 444.7 498.799C450.7 498.799 456.8 497.699 462.7 495.299C487.1 485.399 498.7 457.599 488.8 433.399Z" fill="#0086FF"/>
<path d="M319.5 194.8C346.396 194.8 368.2 172.997 368.2 146.1C368.2 119.204 346.396 97.4004 319.5 97.4004C292.604 97.4004 270.8 119.204 270.8 146.1C270.8 172.997 292.604 194.8 319.5 194.8Z" fill="#FFC300"/>
</svg>
