<svg width="500" height="501" viewBox="0 0 500 501" fill="none" xmlns="http://www.w3.org/2000/svg">
<g clip-path="url(#clip0_1_762)">
<path fill-rule="evenodd" clip-rule="evenodd" d="M250 500.5C388.1 500.5 500 388.6 500 250.5C500 112.4 388.1 0.5 250 0.5C111.9 0.5 0 112.4 0 250.5C0 388.6 111.9 500.5 250 500.5Z" fill="url(#paint0_linear_1_762)"/>
<path fill-rule="evenodd" clip-rule="evenodd" d="M250 475.5C374.3 475.5 475 374.8 475 250.5C475 126.2 374.3 25.5 250 25.5C125.7 25.5 25 126.2 25 250.5C25 374.8 125.7 475.5 250 475.5Z" fill="white"/>
<path fill-rule="evenodd" clip-rule="evenodd" d="M250 450.5C360.5 450.5 450 361 450 250.5C450 140 360.5 50.5 250 50.5C139.5 50.5 50 140 50 250.5C50 361 139.5 450.5 250 450.5Z" fill="#211580"/>
<path d="M193.7 207.5C192.2 205.8 190.3 204.9 188.1 204.9H142.4C142 204.9 141.7 204.8 141.4 204.5C141.1 204.2 141 204 141 203.7V173.3C141 173 141.1 172.7 141.4 172.5C141.7 172.3 142 172.1 142.4 172.1H190.7C202.9 172.1 213.4 177 222.2 186.9L233.9 201.1L211 228.5L193.7 207.5ZM278 186.6C286.8 176.9 297.4 172 309.7 172H357.8C358.2 172 358.5 172.1 358.7 172.3C358.9 172.5 359 172.8 359 173.2V203.6C359 203.9 358.9 204.2 358.7 204.4C358.5 204.7 358.2 204.8 357.8 204.8H312.1C309.9 204.8 308 205.7 306.5 207.4L272.8 247.9L306.6 288.7C308.1 290.3 309.9 291.1 312.1 291.1H357.8C358.2 291.1 358.5 291.2 358.7 291.5C358.9 291.8 359 292.1 359 292.5V322.9C359 323.2 358.9 323.5 358.7 323.7C358.5 324 358.2 324.1 357.8 324.1H309.7C297.4 324.1 286.9 319.2 278.2 309.3L250.2 275.5L222.2 309.3C213.4 319.1 202.8 324.1 190.5 324.1H142.4C142 324.1 141.7 324 141.5 323.7C141.3 323.4 141.2 323.1 141.2 322.7V292.3C141.2 292 141.3 291.7 141.5 291.5C141.7 291.2 142 291.1 142.4 291.1H188C190.1 291.1 192 290.2 193.6 288.5L226.6 248.6L278 186.6Z" fill="#00D1FF"/>
</g>
<defs>
<linearGradient id="paint0_linear_1_762" x1="436.393" y1="93.6689" x2="64.3935" y2="406.669" gradientUnits="userSpaceOnUse">
<stop stop-color="#B6509E"/>
<stop offset="1" stop-color="#2EBAC6"/>
</linearGradient>
<clipPath id="clip0_1_762">
<rect width="500" height="500" fill="white" transform="translate(0 0.5)"/>
</clipPath>
</defs>
</svg>
