<svg width="500" height="494" viewBox="0 0 500 494" fill="none" xmlns="http://www.w3.org/2000/svg">
<path d="M250.565 5.98633L32.7834 223.238L6.04224 249.972L15.4372 258.16C17.6064 260.088 19.7732 262.015 22.1818 263.94C29.6494 270.203 37.6006 276.225 45.5496 282.004C75.6478 303.214 108.898 319.551 144.079 330.415C178.523 341.254 214.432 346.552 250.561 346.552C279.129 346.574 307.598 343.178 335.36 336.437C375.35 326.802 413.172 310.184 447.623 287.303C456.055 281.762 464.478 275.501 472.437 269.238C477.014 265.625 481.35 262.012 485.444 258.158L494.6 249.972L250.565 5.98633ZM464.009 257.921C456.377 264.128 448.416 269.917 440.16 275.265C407.202 297.154 370.681 313.129 332.235 322.471C305.501 328.998 278.084 332.312 250.565 332.343C180.015 332.621 111.133 310.9 53.503 270.203C45.7936 264.905 38.326 258.883 30.8584 252.859L26.2806 249.005L250.321 25.4943L474.364 249.01C471.232 252.141 467.619 255.031 464.004 257.921H464.009Z" fill="url(#paint0_linear_1_758)"/>
<path d="M96.8626 246.357L86.0216 250.932H99.2712C171.63 250.933 242.581 270.939 304.282 308.738L305.015 309.227L305.977 308.983C346.289 301.746 384.819 286.778 419.445 264.905L422.818 262.738L419.445 260.811C367.169 230.464 307.423 214.566 246.715 214.566C195.117 214.815 144.117 225.634 96.8626 246.357ZM307.898 294.528C261.044 266.319 208.893 248.038 154.681 240.821C184.59 232.643 215.46 228.511 246.466 228.536C298.009 228.536 348.612 240.337 394.624 263.468C367.643 278.401 338.494 288.758 307.905 294.538L307.898 294.528Z" fill="url(#paint1_linear_1_758)"/>
<path d="M388.602 341.979C388.602 341.979 352.938 364.137 339.458 370.64C294.61 395.901 244.608 410.643 193.228 413.753L177.809 414.715L250.565 487.215L353.915 384.129C366.197 370.64 377.761 356.43 388.602 341.979ZM209.128 426.279C248.877 422.185 287.664 411.586 323.8 394.486L250.565 467.707" fill="url(#paint2_linear_1_758)"/>
<defs>
<linearGradient id="paint0_linear_1_758" x1="6.04222" y1="176.269" x2="494.6" y2="176.269" gradientUnits="userSpaceOnUse">
<stop stop-color="#0027FF"/>
<stop offset="1" stop-color="#00A2FF"/>
</linearGradient>
<linearGradient id="paint1_linear_1_758" x1="86.0216" y1="261.897" x2="422.818" y2="261.897" gradientUnits="userSpaceOnUse">
<stop stop-color="#0027FF"/>
<stop offset="1" stop-color="#00A2FF"/>
</linearGradient>
<linearGradient id="paint2_linear_1_758" x1="177.809" y1="414.597" x2="388.602" y2="414.597" gradientUnits="userSpaceOnUse">
<stop stop-color="#0027FF"/>
<stop offset="1" stop-color="#00A2FF"/>
</linearGradient>
</defs>
</svg>
