<svg width="500" height="501" viewBox="0 0 500 501" fill="none" xmlns="http://www.w3.org/2000/svg">
<path d="M300.3 312.8V312.7C271.6 312.1 248.5 289.2 248.5 260.9C248.5 289.1 225.5 312.1 196.9 312.7V312.8C225.5 313.5 248.5 336.4 248.5 364.6C248.6 336.3 271.6 313.4 300.3 312.8Z" fill="url(#paint0_linear_1_767)"/>
<path d="M289.7 54.5996H209.8C199.5 54.5996 190.1 60.3996 185.3 69.5996L3.40001 423.8C-1.89999 434.1 5.60001 446.4 17.1 446.4H109C119.4 446.4 128.9 440.5 133.6 431.2L182.5 333.8C189.1 320.6 189 304.9 182.2 291.8L147 224.1C137.4 205.7 150.7 183.7 171.4 183.7L328.3 183.9C349 183.9 362.2 206 352.6 224.4L313 300.2C308.9 308.1 308.8 317.5 312.8 325.5L366 431.2C370.7 440.5 380.2 446.4 390.6 446.4H482.5C494.1 446.4 501.5 434.1 496.2 423.8L314.2 69.5996C309.5 60.3996 300 54.5996 289.7 54.5996Z" fill="url(#paint1_linear_1_767)"/>
<defs>
<linearGradient id="paint0_linear_1_767" x1="0.381837" y1="312.723" x2="497.489" y2="312.723" gradientUnits="userSpaceOnUse">
<stop offset="8.07343e-08" stop-color="#26ADDE"/>
<stop offset="1" stop-color="#2D69DE"/>
</linearGradient>
<linearGradient id="paint1_linear_1_767" x1="0.381812" y1="250.499" x2="497.489" y2="250.499" gradientUnits="userSpaceOnUse">
<stop offset="8.07343e-08" stop-color="#26ADDE"/>
<stop offset="1" stop-color="#2D69DE"/>
</linearGradient>
</defs>
</svg>
