<svg width="500" height="501" viewBox="0 0 500 501" fill="none" xmlns="http://www.w3.org/2000/svg">
<g clip-path="url(#clip0_1_770)">
<path fill-rule="evenodd" clip-rule="evenodd" d="M250 500.5C388.1 500.5 500 388.6 500 250.5C500 112.4 388.1 0.5 250 0.5C111.9 0.5 0 112.4 0 250.5C0 388.6 111.9 500.5 250 500.5Z" fill="url(#paint0_linear_1_770)"/>
<path fill-rule="evenodd" clip-rule="evenodd" d="M250 475.5C374.3 475.5 475 374.8 475 250.5C475 126.2 374.3 25.5 250 25.5C125.7 25.5 25 126.2 25 250.5C25 374.8 125.7 475.5 250 475.5Z" fill="white"/>
<path fill-rule="evenodd" clip-rule="evenodd" d="M250 450.5C360.5 450.5 450 361 450 250.5C450 140 360.5 50.5 250 50.5C139.5 50.5 50 140 50 250.5C50 361 139.5 450.5 250 450.5Z" fill="#25292E"/>
<path d="M163.8 326.801L146.7 314.701L254 166.801L271.1 178.901L163.8 326.801Z" fill="white" fill-opacity="0.5"/>
<path d="M192.8 257.4C166.4 257.4 145 236.3 145 210.2C145 184.1 166.4 163 192.8 163H263C268.8 163 273.5 167.6 273.5 173.4C273.5 179.1 268.8 183.8 263 183.8H192.7C177.9 183.8 165.9 195.6 165.9 210.3C165.9 224.9 177.9 236.8 192.7 236.8H198.4H225.6C252 236.8 273.4 257.9 273.4 284C273.4 310.1 252 331.2 225.6 331.2H155.3C149.5 331.2 144.8 326.6 144.8 320.8C144.8 315.1 149.5 310.4 155.3 310.4H225.6C240.4 310.4 252.4 298.6 252.4 283.9C252.4 269.3 240.4 257.4 225.6 257.4H198.4H192.8Z" fill="white"/>
<path fill-rule="evenodd" clip-rule="evenodd" d="M342.1 251.101C340.3 253.301 337.9 254.501 334.9 254.701L334.7 267.201C338.5 267.101 342 266.101 345.1 264.001C348.2 261.901 350.6 259.001 352.4 255.301C354.1 251.601 355 247.401 355 242.601C355 238.201 354.2 234.201 352.5 230.701C350.8 227.201 348.6 224.401 345.7 222.401C342.8 220.401 339.5 219.401 335.9 219.401C332.1 219.401 329.1 220.201 326.8 221.901C324.5 223.601 322.8 225.801 321.7 228.501C320.6 231.201 319.7 234.501 318.9 238.501C318.2 242.401 317.5 245.301 317 247.101C316.5 249.001 315.7 250.401 314.9 251.401C314 252.401 312.8 252.901 311.2 252.901C309 252.901 307.2 252.101 306 250.401C304.8 248.701 304.2 246.401 304.2 243.601C304.2 240.501 305 238.101 306.6 236.201C308.2 234.301 310.3 233.301 312.8 233.001V220.501C309.2 220.601 306 221.601 303.1 223.601C300.2 225.601 298 228.301 296.4 231.801C294.8 235.301 293.9 239.201 293.9 243.501C293.9 247.701 294.7 251.501 296.3 254.901C297.9 258.301 300 260.901 302.8 262.801C305.6 264.701 308.7 265.601 312.2 265.601C316 265.601 319.1 264.801 321.4 263.101C323.7 261.401 325.5 259.301 326.6 256.601C327.8 253.901 328.7 250.701 329.5 246.801C330.3 242.801 331 239.901 331.5 238.001C332 236.101 332.8 234.601 333.7 233.601C334.6 232.601 335.9 232.001 337.5 232.001C339.8 232.001 341.6 232.901 342.9 234.801C344.2 236.701 344.8 239.101 344.8 242.101C344.8 246.001 343.9 248.901 342.1 251.101ZM329.2 310.601H294.3V323.301H328.5C337.1 323.301 343.7 321.201 348.2 317.101C352.7 313.001 355 306.901 355 299.001C355 291.001 352.7 285.001 348.2 280.801C343.7 276.601 337.1 274.601 328.5 274.601H294.3V287.301H329.2C334.1 287.301 337.7 288.201 340.2 290.101C342.7 292.001 343.9 294.901 343.9 299.001C343.9 303.001 342.7 306.001 340.2 307.801C337.8 309.701 334.1 310.601 329.2 310.601ZM294.3 211.801V191.201C294.3 185.301 295.6 180.001 298.1 175.501C300.7 170.901 304.2 167.401 308.8 165.001C313.4 162.501 318.6 161.301 324.4 161.301C330.2 161.301 335.4 162.501 340 165.001C344.6 167.501 348.1 171.001 350.7 175.501C353.2 180.101 354.5 185.301 354.5 191.201V211.801H294.3ZM338.5 178.701C342 181.701 343.8 185.801 343.8 191.201V199.101H305.1V191.201C305.1 185.801 306.9 181.701 310.4 178.701C313.9 175.701 318.6 174.201 324.5 174.201C330.2 174.301 334.9 175.701 338.5 178.701Z" fill="white"/>
</g>
<defs>
<linearGradient id="paint0_linear_1_770" x1="436.393" y1="93.6689" x2="64.3935" y2="406.669" gradientUnits="userSpaceOnUse">
<stop stop-color="#B6509E"/>
<stop offset="1" stop-color="#2EBAC6"/>
</linearGradient>
<clipPath id="clip0_1_770">
<rect width="500" height="500" fill="white" transform="translate(0 0.5)"/>
</clipPath>
</defs>
</svg>
