<svg width="500" height="501" viewBox="0 0 500 501" fill="none" xmlns="http://www.w3.org/2000/svg">
<path d="M249.785 495.477C385.566 495.477 495.638 385.405 495.638 249.624C495.638 113.844 385.566 3.77148 249.785 3.77148C114.004 3.77148 3.93188 113.844 3.93188 249.624C3.93188 385.405 114.004 495.477 249.785 495.477Z" fill="#2B9FDA"/>
<path d="M307.678 323.014C267.354 323.014 227.181 323.014 186.338 323.014C177.934 338.887 169.374 354.55 161.332 370.475C157.774 377.521 152.835 381.674 144.922 382.422C128.784 383.947 100.38 384.028 95.1081 379.954C88.5941 374.663 118.721 323.182 118.721 323.182L96.1111 323.284C96.1111 323.284 96.0071 301.941 96.0071 291.722C110.113 291.722 123.283 291.722 136.824 291.722C139.213 287.313 143.849 278.759 143.849 278.759L96.0091 278.726C96.0091 278.726 96.0091 257.334 96.0091 247.114C118.656 247.114 140.274 247.114 161.996 247.114C169.69 233.34 176.85 220.63 183.909 207.863C206.411 167.162 229.034 126.525 251.237 85.6608C256.482 76.0088 263.86 71.0398 274.567 70.9628C290.182 70.8508 305.814 70.5848 321.41 71.1578C336.578 71.7148 339.078 74.9028 341.159 89.5678C349.838 150.717 358.831 211.821 367.548 272.964C371.997 304.168 376.415 335.384 380.22 366.67C381.727 379.063 378.201 383.059 366.09 383.679C353.448 384.326 340.74 383.928 328.068 383.653C320.025 383.478 315.981 379.316 315.152 370.907C313.718 356.36 311.388 341.901 309.385 327.412C309.259 326.489 308.711 325.625 307.678 323.014ZM299.527 245.864C294.914 209.036 290.432 173.257 285.95 137.477C285.264 137.299 284.579 137.121 283.893 136.942C265.056 172.827 246.218 208.713 226.716 245.864C251.665 245.864 274.725 245.864 299.527 245.864ZM203.576 290.634C238.361 290.634 271.164 290.634 304.984 290.634C304.24 286.178 303.681 282.833 302.995 278.725C271.625 278.725 240.994 278.725 209.773 278.725C207.876 282.373 206.006 285.966 203.576 290.634Z" fill="white"/>
</svg>
