<svg width="500" height="501" viewBox="0 0 500 501" fill="none" xmlns="http://www.w3.org/2000/svg">
<g clip-path="url(#clip0_1_780)">
<path fill-rule="evenodd" clip-rule="evenodd" d="M250 0.5C388.1 0.5 500 112.4 500 250.5C500 388.6 388.1 500.5 250 500.5C111.9 500.5 0 388.6 0 250.5C0 112.4 111.9 0.5 250 0.5Z" fill="#2E3148"/>
<path fill-rule="evenodd" clip-rule="evenodd" d="M249.5 106.301C329.2 106.301 393.7 170.901 393.7 250.501C393.7 330.101 329.1 394.701 249.5 394.701C169.8 394.701 105.3 330.101 105.3 250.501C105.3 170.901 169.9 106.301 249.5 106.301Z" fill="#1B1E36"/>
<path d="M250 37C251.7 37 253.9 37.8 256.4 40.1C259 42.5 261.7 46.2 264.5 51.5C270 62 275.1 77.5 279.4 97.1C288 136.2 293.4 190.4 293.4 250.4C293.4 310.4 288 364.7 279.4 403.7C275.1 423.3 270 438.8 264.5 449.3C261.8 454.6 259 458.3 256.4 460.7C253.8 463.1 251.7 463.8 250 463.8C248.3 463.8 246.1 463 243.6 460.7C241 458.3 238.3 454.6 235.5 449.3C230 438.8 224.9 423.3 220.6 403.7C212 364.6 206.6 310.4 206.6 250.4C206.6 190.4 212 136.1 220.6 97.1C224.9 77.5 230 62 235.5 51.5C238.2 46.2 241 42.5 243.6 40.1C246.2 37.8 248.3 37 250 37Z" stroke="#6F7390" stroke-width="9.7844"/>
<path d="M436.2 143.5C437.1 145 437.5 147.3 436.7 150.7C435.9 154.2 434 158.4 430.9 163.4C424.5 173.4 413.6 185.7 398.8 199.3C369.2 226.4 324.8 258.3 272.7 288.4C220.5 318.5 170.7 341 132.4 353C113.2 359 97.2001 362.4 85.3001 362.8C79.4001 363 74.7001 362.5 71.3001 361.5C68.0001 360.5 66.2001 359 65.3001 357.5C64.4001 356 64.0001 353.7 64.8001 350.3C65.6001 346.8 67.5 342.6 70.6 337.6C77 327.6 87.9 315.3 102.7 301.7C132.3 274.6 176.7 242.7 228.8 212.6C280.9 182.5 330.8 160 369.1 148C388.3 142 404.3 138.6 416.2 138.2C422.1 138 426.8 138.5 430.2 139.5C433.5 140.5 435.3 142 436.2 143.5Z" stroke="#6F7390" stroke-width="9.7844"/>
<path d="M430.2 361.5C433.5 360.5 435.3 359 436.2 357.5C437.1 356 437.5 353.7 436.7 350.3C435.9 346.8 434 342.6 430.9 337.6C424.5 327.6 413.6 315.3 398.8 301.7C369.2 274.6 324.8 242.7 272.7 212.6C220.6 182.5 170.7 160 132.4 148C113.2 142 97.2001 138.6 85.3001 138.2C79.4001 138 74.7001 138.5 71.3001 139.5C68.0001 140.5 66.2001 142 65.3001 143.5M430.2 361.5L65.3001 143.5M430.2 361.5C426.8 362.6 422.2 363 416.2 362.8L430.2 361.5ZM65.3001 143.5C64.4001 145 64.0001 147.3 64.8001 150.7M65.3001 143.5L64.8001 150.7M70.6 163.4C77 173.5 87.9 185.7 102.7 199.3L70.6 163.4ZM70.6 163.4C67.4 158.4 65.5001 154.1 64.8001 150.7M70.6 163.4L64.8001 150.7M416.2 362.9C404.3 362.4 388.3 359.1 369.1 353.1L416.2 362.9ZM369.1 353C330.8 341 281 318.5 228.8 288.4L369.1 353ZM228.9 288.4C176.7 258.3 132.4 226.4 102.8 199.3L228.9 288.4Z" stroke="#6F7390" stroke-width="9.7844"/>
<path fill-rule="evenodd" clip-rule="evenodd" d="M110.8 189.199C119.3 189.199 126.2 196.099 126.2 204.599C126.2 213.099 119.3 219.999 110.8 219.999C102.3 219.999 95.3999 213.099 95.3999 204.599C95.3999 196.099 102.3 189.199 110.8 189.199Z" fill="#B7B9C8"/>
<path fill-rule="evenodd" clip-rule="evenodd" d="M355.5 136.5C364 136.5 370.9 143.4 370.9 151.9C370.9 160.4 364 167.3 355.5 167.3C347 167.3 340.1 160.4 340.1 151.9C340.1 143.4 347 136.5 355.5 136.5Z" fill="#B7B9C8"/>
<path fill-rule="evenodd" clip-rule="evenodd" d="M219.7 378.199C228.2 378.199 235.1 385.099 235.1 393.599C235.1 402.099 228.2 408.999 219.7 408.999C211.2 408.999 204.3 402.099 204.3 393.599C204.3 385.099 211.2 378.199 219.7 378.199Z" fill="#B7B9C8"/>
<path fill-rule="evenodd" clip-rule="evenodd" d="M249.9 224.301C264.3 224.301 276 236.001 276 250.401C276 264.801 264.3 276.501 249.9 276.501C235.5 276.501 223.8 264.801 223.8 250.401C223.8 236.001 235.5 224.301 249.9 224.301Z" fill="#B7B9C8"/>
</g>
<defs>
<clipPath id="clip0_1_780">
<rect width="500" height="500" fill="white" transform="translate(0 0.5)"/>
</clipPath>
</defs>
</svg>
