<svg width="500" height="501" viewBox="0 0 500 501" fill="none" xmlns="http://www.w3.org/2000/svg">
<g clip-path="url(#clip0_1_790)">
<path fill-rule="evenodd" clip-rule="evenodd" d="M250 500.5C388.1 500.5 500 388.6 500 250.5C500 112.4 388.1 0.5 250 0.5C111.9 0.5 0 112.4 0 250.5C0 388.6 111.9 500.5 250 500.5Z" fill="url(#paint0_linear_1_790)"/>
<path fill-rule="evenodd" clip-rule="evenodd" d="M250 475.5C374.3 475.5 475 374.8 475 250.5C475 126.2 374.3 25.5 250 25.5C125.7 25.5 25 126.2 25 250.5C25 374.8 125.7 475.5 250 475.5Z" fill="white"/>
<path fill-rule="evenodd" clip-rule="evenodd" d="M250 450.5C360.5 450.5 450 361 450 250.5C450 140 360.5 50.5 250 50.5C139.5 50.5 50 140 50 250.5C50 361 139.5 450.5 250 450.5Z" fill="#002868"/>
<path fill-rule="evenodd" clip-rule="evenodd" d="M262.3 118.5H237.8C205.8 118.5 187.5 123.1 171.2 131.9C154.9 140.6 142.1 153.4 133.4 169.7C124.7 186 120 204.3 120 236.3V260.8C120 292.8 124.6 311.1 133.4 327.4C142.1 343.7 154.9 356.5 171.2 365.2C187.5 373.9 205.8 378.6 237.8 378.6H262.3C294.3 378.6 312.6 374 328.9 365.2C345.2 356.5 358 343.7 366.7 327.4C375.4 311.1 380.1 292.8 380.1 260.8V236.3C380.1 204.3 375.5 186 366.7 169.7C358 153.4 345.2 140.6 328.9 131.9C312.5 123.1 294.3 118.5 262.3 118.5ZM178.2 145.1C193.3 137 209.8 133.5 237.7 133.5H262.2C290.1 133.5 306.6 137 321.7 145.1C335.4 152.4 346 163.1 353.3 176.7C361.4 191.8 364.9 208.3 364.9 236.2V260.7C364.9 288.6 361.4 305.1 353.3 320.2C346 333.9 335.3 344.5 321.7 351.8C306.6 359.9 290.1 363.4 262.2 363.4H237.7C209.8 363.4 193.3 359.9 178.2 351.8C164.5 344.5 153.9 333.8 146.6 320.2C138.5 305.1 135 288.6 135 260.7V236.2C135 208.3 138.5 191.8 146.6 176.7C153.9 163.1 164.5 152.4 178.2 145.1Z" fill="white"/>
<path d="M307.1 192.301C308.7 192.301 310 193.601 310 195.201V220.401C310 222.001 308.7 223.301 307.1 223.301H267.2V301.701C267.2 303.301 265.9 304.601 264.3 304.601H239.1C237.5 304.601 236.2 303.301 236.2 301.701V223.301H192.9C191.3 223.301 190 222.001 190 220.401V195.201C190 193.601 191.3 192.301 192.9 192.301H307.1Z" fill="white"/>
</g>
<defs>
<linearGradient id="paint0_linear_1_790" x1="436.393" y1="93.6689" x2="64.3935" y2="406.669" gradientUnits="userSpaceOnUse">
<stop stop-color="#B6509E"/>
<stop offset="1" stop-color="#2EBAC6"/>
</linearGradient>
<clipPath id="clip0_1_790">
<rect width="500" height="500" fill="white" transform="translate(0 0.5)"/>
</clipPath>
</defs>
</svg>
