<svg width="500" height="501" viewBox="0 0 500 501" fill="none" xmlns="http://www.w3.org/2000/svg">
<path d="M462.3 428.3C430.5 452.7 380.2 476.1 329.1 476.1C268.1 476.1 212.1 454.7 166.3 378.4C165.9 377.7 165.5 377 165.1 376.4H221.9C247.9 406 283.8 432.4 329.3 432.4C376.1 432.4 413.1 409 438.3 385.6L462.3 428.3Z" fill="#7B1AC5"/>
<path d="M168.8 289.4L141.2 339C112.9 297.7 96.8004 290 68.5004 290C56.0004 290 43.0004 293.2 31.4004 297.5L89.0004 198.5C99.0004 200.8 109.6 205.1 117.8 213C136.4 230.5 157.3 265.8 168.8 289.4Z" fill="#861CC9"/>
<path d="M192.9 245.901L168.8 289.401C157.4 265.801 136.4 230.501 117.9 212.901C109.7 205.101 98.9996 200.801 89.0996 198.401L119.4 146.301C130 153.101 141.6 162.501 150.9 174.701C167.1 196.201 181.4 223.001 192.9 245.901Z" fill="#5112B6"/>
<path d="M438.1 385.701C412.9 409.101 375.9 432.501 329.1 432.501C283.6 432.501 247.7 406.101 221.7 376.501H276.9C278.1 376.501 279.3 376.301 280.3 375.901C295.5 388.901 312.1 397.601 329.1 397.601C364.8 397.601 401 375.701 423.2 359.301L438.1 385.701Z" fill="#5112B6"/>
<path d="M423.2 359.3C401 375.7 364.9 397.6 329.1 397.6C312.1 397.6 295.6 388.9 280.3 375.9C286.5 373.9 289.9 366.5 286.5 360.2L221.3 242.7C215.5 232.3 200.5 232.3 194.7 242.7L192.9 245.9C181.5 223 167.2 196.2 150.8 174.7C141.5 162.5 129.9 153.1 119.3 146.3L150.9 91.9004C164.5 103.3 184.4 123.1 200.7 152.4C228.3 202.3 248.5 258.5 266.5 296.8C284.5 335 312.2 371.1 347.2 371.1C374.4 371.1 400.3 347.4 410.5 336.8L423.2 359.3Z" fill="#7A1AC4"/>
<path d="M410.5 336.799C400.3 347.399 374.4 371.099 347.2 371.099C312.2 371.099 284.6 334.999 266.5 296.799C248.5 258.599 228.3 202.299 200.7 152.399C184.4 122.999 164.6 103.199 150.9 91.8992L188.2 27.6992C201.8 41.5992 220 62.7992 230.4 85.4992C248.4 124.799 268.6 172.499 281.3 228.799C294.1 285.099 311 332.799 346.1 332.799C367.9 332.799 384.7 318.899 394.3 308.299L410.5 336.799Z" fill="#9F1ED0"/>
<path d="M394.3 308.4C384.7 318.9 367.8 332.9 346.1 332.9C311.1 332.9 294.1 285.1 281.3 228.9C268.6 172.6 248.4 124.9 230.4 85.5998C220 62.8998 201.8 41.6998 188.2 27.7998L198.5 10.0998C204.5 -0.30021 219.4 -0.200211 225.3 10.1998L394.3 308.4Z" fill="#D000D2"/>
<path d="M141.2 338.9L135.5 349.2C133.1 353.4 128.7 356.1 123.8 356.1H20.9C10.5 356.1 3.9 344.8 9.2 335.7L31.5 297.4C43.1 293.2 56.1 289.9 68.6 289.9C96.8 290 112.9 297.7 141.2 338.9Z" fill="#2B0F90"/>
<path d="M474.4 498.6H103.2C91.3997 498.6 83.8997 485.8 89.6997 475.5L142.1 383.1C144.4 379 148.7 376.5 153.5 376.5H165C165.4 377.2 165.8 377.8 166.2 378.5C212 454.8 268 476.2 329 476.2C380.1 476.2 430.4 452.7 462.2 428.4L488.4 474.6C494.6 485.3 486.8 498.6 474.4 498.6Z" fill="#2B0F90"/>
</svg>
