<svg width="500" height="501" viewBox="0 0 500 501" fill="none" xmlns="http://www.w3.org/2000/svg">
<path d="M377 46.2C297.4 5.6 203.2 5.6 123.6 46.2C86.9997 65.6 56.3997 94.6 35.0997 130.1C13.5997 166.4 2.49971 208 2.99971 250.2C2.49971 292.8 13.4997 334.8 35.0997 371.6C56.2997 407.4 86.8997 436.7 123.5 456.4C203 497.4 297.4 497.4 376.9 456.4C413.7 436.8 444.4 407.4 465.7 371.6C487.2 334.8 498.3 292.8 497.8 250.2C498.3 208 487.2 166.4 465.7 130.1C444.3 94.5 413.6 65.6 377 46.2Z" fill="white"/>
<path d="M318.6 195.201C326.6 213.501 346 234.001 366.5 256.001C394.4 286.001 426.6 320.501 433.8 355.601C433.9 356.301 434.6 356.801 435.4 356.701C435.8 356.601 436.1 356.401 436.3 356.101C466.1 316.101 453.9 290.101 441.1 262.801C428.3 235.501 413.7 203.701 454.3 168.001C450.9 159.601 446.8 151.501 442.2 143.701C426.9 118.301 406.1 96.6008 381.3 80.3008C335.6 109.301 300.1 153.901 318.6 195.201Z" fill="url(#paint0_radial_1_809)"/>
<path d="M34.0997 269.9C37.6997 279.5 67.3997 348.2 197.3 350.2C245.7 350.9 286.9 370.2 304.9 400.6C312.3 412.7 315.5 426.9 314 441C314 441.5 314.4 441.9 314.9 442C316.4 442 317.9 441.5 319.1 440.6C333.8 431.5 345 410.7 335.2 384.1C326.1 355.3 297.1 329.2 254.4 309.1H253.9C242.8 303.4 231 298 218.6 293.2C215.3 291.9 212.3 290.5 209.5 289.1H208.6C168.9 267 145.9 236.4 140.1 197.7V197.2C135.7 156.3 151.5 106.7 182.5 64.3C186.4 59.1 190.6 54.2 194.8 49.5C174.5 53.8 154.8 60.9 136.5 70.7C105.1 87.4 78.6997 112.2 59.9997 142.5C41.6997 174.2 32.2997 210.2 32.5997 246.7C32.9997 254.3 33.3997 262.6 34.0997 269.9Z" fill="url(#paint1_linear_1_809)"/>
<path d="M253.2 44.5002C247.4 44.5002 241.7 45.4002 236 46.2002C196.8 76.7002 160.2 142.9 167.1 195.9C171.4 228.9 192.1 253 228.6 267.6C344.1 313.3 364.3 369.7 365.7 399.2C366.1 405.3 365.7 411.5 364.6 417.5C364.4 418.2 364.9 419 365.6 419.2C366 419.3 366.4 419.2 366.7 419C375.7 413.6 384.2 407.5 392.2 400.7C426.8 366.4 396.4 328.4 346.5 274.4C324.4 250.6 303.5 228.2 293.7 206.2C277.4 169.6 285.2 113.2 354.5 65.3002C329.6 53.8002 302.9 46.8002 275.6 44.5002C272.6 44.5002 269.6 44.5002 266.5 44.5002C262.1 44.1002 257.3 44.2002 253.2 44.5002Z" fill="url(#paint2_radial_1_809)"/>
<defs>
<radialGradient id="paint0_radial_1_809" cx="0" cy="0" r="1" gradientUnits="userSpaceOnUse" gradientTransform="translate(455.181 126.53) rotate(67.5572) scale(367.911 251.909)">
<stop stop-color="#785AC8"/>
<stop offset="0.49" stop-color="#47A1EE"/>
<stop offset="1" stop-color="#18DFC6"/>
</radialGradient>
<linearGradient id="paint1_linear_1_809" x1="147.009" y1="398.96" x2="227.003" y2="211.364" gradientUnits="userSpaceOnUse">
<stop stop-color="#47A1EE"/>
<stop offset="1" stop-color="#18DFC6"/>
</linearGradient>
<radialGradient id="paint2_radial_1_809" cx="0" cy="0" r="1" gradientUnits="userSpaceOnUse" gradientTransform="translate(381.746 3.43705) rotate(-1.00005) scale(387.333 387.333)">
<stop stop-color="#18DFC6"/>
<stop offset="0.51" stop-color="#47A1EE"/>
<stop offset="1" stop-color="#785AC8"/>
</radialGradient>
</defs>
</svg>
