<svg width="500" height="501" viewBox="0 0 500 501" fill="none" xmlns="http://www.w3.org/2000/svg">
<g clip-path="url(#clip0_1_818)">
<path fill-rule="evenodd" clip-rule="evenodd" d="M250 500.5C388.1 500.5 500 388.6 500 250.5C500 112.4 388.1 0.5 250 0.5C111.9 0.5 0 112.4 0 250.5C0 388.6 111.9 500.5 250 500.5Z" fill="url(#paint0_linear_1_818)"/>
<path fill-rule="evenodd" clip-rule="evenodd" d="M250 475.5C374.3 475.5 475 374.8 475 250.5C475 126.2 374.3 25.5 250 25.5C125.7 25.5 25 126.2 25 250.5C25 374.8 125.7 475.5 250 475.5Z" fill="white"/>
<path fill-rule="evenodd" clip-rule="evenodd" d="M250 450.5C360.5 450.5 450 361 450 250.5C450 140 360.5 50.5 250 50.5C139.5 50.5 50 140 50 250.5C50 361 139.5 450.5 250 450.5Z" fill="#2775CA"/>
<path fill-rule="evenodd" clip-rule="evenodd" d="M207.1 367.901C159.3 350.401 125 304.401 125 250.501C125 196.601 159.3 150.601 207.1 133.101C210.1 132.001 212.5 128.401 212.5 125.201V113.501C212.5 108.801 208.8 106.101 204.3 107.501C143.8 126.901 100 183.501 100 250.501C100 317.401 143.8 374.101 204.3 393.401C208.8 394.801 212.5 392.201 212.5 387.401V375.801C212.5 372.601 210.1 369.001 207.1 367.901ZM304.8 280.301C304.8 251.101 287 241.301 252.7 236.601C227.4 232.901 222.4 227.001 222.4 215.101C222.4 203.901 231 195.901 247.5 195.901C262.5 195.901 271.1 201.101 274.6 213.201C275.4 215.901 277.8 217.801 280.6 217.801H293.7C297.4 217.801 300.2 214.401 299.4 210.801C295.2 191.801 282.4 180.301 262.3 176.701V156.801C262.3 153.301 259.5 150.501 256 150.501H243.5C240 150.501 237.2 153.301 237.2 156.801V176.201C212.4 179.701 196.4 196.201 196.4 217.401C196.4 244.801 212.9 255.401 247.9 260.101C271.6 264.001 278.3 269.101 278.3 282.601C278.3 296.101 266.8 305.101 250.7 305.101C228.9 305.101 221.7 295.501 219.1 283.201C218.5 280.301 216 278.101 213 278.101H199C195.4 278.101 192.6 281.301 193.2 284.901C196.8 305.701 210.2 321.001 237.5 324.701V344.401C237.5 347.901 240.3 350.701 243.8 350.701H256.3C259.8 350.701 262.6 347.901 262.6 344.401V324.501C288.3 320.401 304.8 302.501 304.8 280.301ZM287.5 113.601C287.5 108.901 291.2 106.201 295.7 107.601C356.2 127.001 400 183.601 400 250.501C400 317.401 356.2 374.101 295.7 393.401C291.2 394.801 287.5 392.201 287.5 387.401V375.701C287.5 372.201 289.6 369.001 292.9 367.801C340.8 350.401 375 304.401 375 250.501C375 196.601 340.7 150.601 292.9 133.101C289.9 132.001 287.5 128.401 287.5 125.201V113.601Z" fill="white"/>
</g>
<defs>
<linearGradient id="paint0_linear_1_818" x1="436.393" y1="93.6689" x2="64.3935" y2="406.669" gradientUnits="userSpaceOnUse">
<stop stop-color="#B6509E"/>
<stop offset="1" stop-color="#2EBAC6"/>
</linearGradient>
<clipPath id="clip0_1_818">
<rect width="500" height="500" fill="white" transform="translate(0 0.5)"/>
</clipPath>
</defs>
</svg>
