<svg width="500" height="501" viewBox="0 0 500 501" fill="none" xmlns="http://www.w3.org/2000/svg">
<g clip-path="url(#clip0_1_814)">
<path d="M500 250.5C500 388.8 387.8 501 249.5 501C111.2 501 -1 388.8 -1 250.5C-1 112.2 111.2 0 249.5 0C387.8 0 500 112.2 500 250.5Z" fill="#4958C5"/>
<path d="M351.6 146.701H283.1V127.401C283.1 106.201 305.1 90.4009 319.8 89.1009C332.7 87.9009 339.6 86.3009 365.1 94.6009V59.9009C347.7 55.6009 326.8 56.2009 309.4 57.8009C290.4 58.9009 247.2 79.0009 247.2 125.601V146.801H222V178.401H247.2V297.501C247.2 297.501 230.9 282.001 197.4 282.001C150.8 282.001 109.5 317.901 109.5 369.301C109.5 420.701 147.8 457.601 198.4 457.601C249 457.601 284.4 414.301 285.5 369.301C286.6 324.301 285.5 273.101 285.5 273.101V178.301H351.5V146.701H351.6Z" fill="white"/>
<path d="M198.8 419.3C227.188 419.3 250.2 396.287 250.2 367.9C250.2 339.513 227.188 316.5 198.8 316.5C170.413 316.5 147.4 339.513 147.4 367.9C147.4 396.287 170.413 419.3 198.8 419.3Z" fill="#4958C5"/>
</g>
<defs>
<clipPath id="clip0_1_814">
<rect width="500" height="500" fill="white" transform="translate(0 0.5)"/>
</clipPath>
</defs>
</svg>
