<svg width="500" height="501" viewBox="0 0 500 501" fill="none" xmlns="http://www.w3.org/2000/svg">
<g clip-path="url(#clip0_1_844)">
<path d="M250 500.5C388.071 500.5 500 388.571 500 250.5C500 112.429 388.071 0.5 250 0.5C111.929 0.5 0 112.429 0 250.5C0 388.571 111.929 500.5 250 500.5Z" fill="#E84142"/>
<path d="M338.2 256.999C346.9 241.999 360.8 241.999 369.5 256.999L423.4 351.699C432.1 366.699 425 378.899 407.7 378.899H299C281.9 378.899 274.8 366.699 283.3 351.699L338.2 256.999ZM233.9 74.6992C242.6 59.6992 256.3 59.6992 265 74.6992L277 96.3992L305.3 146.199C312.2 160.399 312.2 177.099 305.3 191.299L210.2 356.099C201.5 369.499 187.2 377.999 171.2 378.899H92.3001C75.0001 378.899 67.9001 366.899 76.6001 351.699L233.9 74.6992Z" fill="white"/>
</g>
<defs>
<clipPath id="clip0_1_844">
<rect width="500" height="500" fill="white" transform="translate(0 0.5)"/>
</clipPath>
</defs>
</svg>
