<svg width="500" height="501" viewBox="0 0 500 501" fill="none" xmlns="http://www.w3.org/2000/svg">
<g clip-path="url(#clip0_1_847)">
<path fill-rule="evenodd" clip-rule="evenodd" d="M250 500.5C388.1 500.5 500 388.6 500 250.5C500 112.4 388.1 0.5 250 0.5C111.9 0.5 0 112.4 0 250.5C0 388.6 111.9 500.5 250 500.5Z" fill="url(#paint0_linear_1_847)"/>
<path fill-rule="evenodd" clip-rule="evenodd" d="M250 475.5C374.3 475.5 475 374.8 475 250.5C475 126.2 374.3 25.5 250 25.5C125.7 25.5 25 126.2 25 250.5C25 374.8 125.7 475.5 250 475.5Z" fill="white"/>
<path fill-rule="evenodd" clip-rule="evenodd" d="M250 450.5C360.5 450.5 450 361 450 250.5C450 140 360.5 50.5 250 50.5C139.5 50.5 50 140 50 250.5C50 361 139.5 450.5 250 450.5Z" fill="#FF9900"/>
<path fill-rule="evenodd" clip-rule="evenodd" d="M338.2 221.999C342.2 195.399 321.9 181.099 294.2 171.499L303.2 135.499L281.3 129.999L272.5 165.099C266.7 163.699 260.8 162.299 254.9 160.999L263.7 125.699L241.8 120.199L232.8 156.199L218.8 152.799L188.5 145.199L182.7 168.599C182.7 168.599 199 172.299 198.6 172.599C207.5 174.799 209.1 180.699 208.8 185.399L198.6 226.499V226.699L184.3 284.199C183.2 286.899 180.5 290.999 174.2 289.399C174.4 289.699 158.3 285.399 158.3 285.399L147.3 310.499L175.9 317.599C181.2 318.899 186.4 320.299 191.5 321.599L182.4 358.099L204.3 363.599L213.3 327.499C219.3 329.099 225.1 330.599 230.8 331.999L221.8 367.899L243.7 373.399L252.8 336.999C290.2 344.099 318.4 341.199 330.2 307.399C339.7 280.199 329.7 264.399 310 254.199C324.5 250.899 335.3 241.499 338.2 221.999ZM232.5 252.799L220.4 301.099C221.6 301.399 223.1 301.799 224.7 302.199C242.6 306.899 281.7 317.299 288 292.299C294.4 266.699 256.4 258.199 237.9 254.099C235.9 253.599 234 253.199 232.5 252.799ZM238.1 230.699C250.5 233.799 288.7 246.399 294.9 221.599C301.3 195.699 261.4 189.999 249.1 186.899L238.1 230.699Z" fill="white"/>
</g>
<defs>
<linearGradient id="paint0_linear_1_847" x1="436.393" y1="93.6689" x2="64.3935" y2="406.669" gradientUnits="userSpaceOnUse">
<stop stop-color="#B6509E"/>
<stop offset="1" stop-color="#2EBAC6"/>
</linearGradient>
<clipPath id="clip0_1_847">
<rect width="500" height="500" fill="white" transform="translate(0 0.5)"/>
</clipPath>
</defs>
</svg>
