<svg width="500" height="501" viewBox="0 0 500 501" fill="none" xmlns="http://www.w3.org/2000/svg">
<path fill-rule="evenodd" clip-rule="evenodd" d="M5.2002 491.8L150.4 94.0996C168.8 47.6996 203.2 21.3996 248.9 20.5996C249.2 20.5996 249.6 20.5996 249.9 20.5996C250.2 20.5996 250.6 20.5996 250.9 20.5996C296.6 21.3996 330.9 47.5996 349.4 94.0996L494.6 491.8L404.7 460.5L280.7 120.8C273.1 102 264.4 95.1996 250 94.8996C235.5 95.1996 226.8 102 219.3 120.8L95.1002 460.5L5.2002 491.8ZM313.1 340.4C313.1 375.1 285.2 403.3 250.8 403.3C216.4 403.3 188.5 375.1 188.5 340.4C188.5 305.7 216.4 277.5 250.8 277.5C285.2 277.5 313.1 305.6 313.1 340.4Z" fill="url(#paint0_linear_1_840)"/>
<defs>
<linearGradient id="paint0_linear_1_840" x1="249.938" y1="20.6519" x2="249.938" y2="491.795" gradientUnits="userSpaceOnUse">
<stop stop-color="#42C1FD"/>
<stop offset="1" stop-color="#1F8EFA"/>
</linearGradient>
</defs>
</svg>
