<svg width="500" height="501" viewBox="0 0 500 501" fill="none" xmlns="http://www.w3.org/2000/svg">
<g clip-path="url(#clip0_1_852)">
<path fill-rule="evenodd" clip-rule="evenodd" d="M250 500.5C388.1 500.5 500 388.6 500 250.5C500 112.4 388.1 0.5 250 0.5C111.9 0.5 0 112.4 0 250.5C0 388.6 111.9 500.5 250 500.5Z" fill="url(#paint0_linear_1_852)"/>
<path fill-rule="evenodd" clip-rule="evenodd" d="M250 475.5C374.3 475.5 475 374.8 475 250.5C475 126.2 374.3 25.5 250 25.5C125.7 25.5 25 126.2 25 250.5C25 374.8 125.7 475.5 250 475.5Z" fill="white"/>
<path fill-rule="evenodd" clip-rule="evenodd" d="M250 450.5C360.5 450.5 450 361 450 250.5C450 140 360.5 50.5 250 50.5C139.5 50.5 50 140 50 250.5C50 361 139.5 450.5 250 450.5Z" fill="#25292E"/>
<path fill-rule="evenodd" clip-rule="evenodd" d="M358.9 120C329.4 95.3 291.4 80.5 250 80.5C208.6 80.5 170.6 95.3 141.1 120C138.9 121.8 138.8 125.2 140.8 127.2L144.4 130.8C146.3 132.7 149.3 132.8 151.3 131.1C178.1 108.8 212.5 95.5 250 95.5C287.5 95.5 321.9 108.8 348.7 131C350.7 132.7 353.7 132.6 355.6 130.7L359.2 127.1C361.2 125.1 361.1 121.8 358.9 120ZM130.2 144.9C132.1 146.8 132.2 149.8 130.5 151.8C108.3 178.6 95 213 95 250.5C95 288 108.3 322.4 130.5 349.2C132.2 351.2 132.1 354.2 130.2 356.1L126.6 359.7C124.6 361.7 121.2 361.6 119.4 359.4C94.8 329.9 80 291.9 80 250.5C80 209.1 94.8 171.1 119.5 141.6C121.3 139.4 124.7 139.3 126.7 141.3L130.2 144.9ZM369.5 349.2C367.8 351.2 367.9 354.2 369.8 356.1L373.4 359.7C375.4 361.7 378.8 361.6 380.6 359.4C405.2 329.9 420 291.9 420 250.5C420 209.1 405.2 171.1 380.5 141.6C378.7 139.4 375.3 139.3 373.3 141.3L369.7 144.9C367.8 146.8 367.7 149.8 369.4 151.8C391.6 178.6 404.9 213 404.9 250.5C404.9 288 391.7 322.4 369.5 349.2ZM141.1 381C170.6 405.7 208.6 420.5 250 420.5C291.4 420.5 329.4 405.7 358.9 381C361.1 379.2 361.2 375.8 359.2 373.8L355.6 370.2C353.7 368.3 350.8 368.2 348.7 369.9C321.9 392.2 287.5 405.5 250 405.5C212.5 405.5 178.1 392.2 151.3 370C149.3 368.3 146.3 368.4 144.4 370.3L140.8 373.9C138.8 375.9 138.9 379.2 141.1 381Z" fill="white"/>
<path d="M182.5 259.699L250 299.599L317.5 259.699L250 354.799L182.5 259.699Z" fill="url(#paint1_linear_1_852)"/>
<path d="M250 284.7L182.5 244.8L250 138.5L317.5 244.8L250 284.7Z" fill="white"/>
</g>
<defs>
<linearGradient id="paint0_linear_1_852" x1="436.393" y1="93.6689" x2="64.3935" y2="406.669" gradientUnits="userSpaceOnUse">
<stop stop-color="#B6509E"/>
<stop offset="1" stop-color="#2EBAC6"/>
</linearGradient>
<linearGradient id="paint1_linear_1_852" x1="249.993" y1="259.683" x2="249.993" y2="354.815" gradientUnits="userSpaceOnUse">
<stop stop-color="white"/>
<stop offset="1" stop-color="white" stop-opacity="0.9"/>
</linearGradient>
<clipPath id="clip0_1_852">
<rect width="500" height="500" fill="white" transform="translate(0 0.5)"/>
</clipPath>
</defs>
</svg>
