<svg width="500" height="501" viewBox="0 0 500 501" fill="none" xmlns="http://www.w3.org/2000/svg">
<path d="M196.2 3H209.8C291.9 5.7 366 52.7 403.4 125.8C405.1 129 405.3 132.7 403.8 136.1C401.5 141.3 395.8 144.1 390.2 142.9C386.8 141.6 383.8 139.5 381.5 136.7C311.2 71.3 217.2 37.7 121.4 43.5C116.1 44.3 111 41.3 109 36.3C106.6 30.5 109.2 23.9 114.8 21.2C140.7 10.1 168.2 4 196.2 3Z" fill="#0263E1"/>
<path d="M405.6 33.2001C410.1 31.3001 415.3 32.5001 418.5 36.2001C438.2 59.1001 453.2 85.7001 462.5 114.4C474 150 476.7 187.9 470.2 224.8C462.3 270.4 440.6 312.6 408 345.5C403.5 349.6 396.6 349.5 392.2 345.3C388.3 341.7 387.3 335.9 389.8 331.2C416.2 275.1 427.5 213 422.6 151.2C420 115.8 412 81.0001 398.9 47.9001C396.7 42.0001 399.7 35.4001 405.6 33.2001Z" fill="#0263E1"/>
<path d="M189.3 62.3991C192.4 61.4991 195.7 61.6991 198.7 63.0991C204.5 66.2991 206.7 73.3991 203.7 79.2991C202.4 81.5991 200.3 83.4991 197.9 84.5991C112.4 132.099 50.3999 212.699 26.2999 307.399C25.2999 312.099 21.5 315.799 16.7 316.399C10.4 317.399 4.49995 313.099 3.49995 306.699C3.49995 306.699 3.49995 306.699 3.49995 306.599C-3.40005 231.299 27.6 157.499 86.1 109.599C115.8 85.3991 151.4 69.0991 189.3 62.3991Z" fill="#0263E1"/>
<path d="M76.7 232.499C82.9 230.799 89.2 234.499 90.9 240.699C91 240.999 91 241.299 91.1 241.599C104.5 314.199 140.2 380.899 193.2 432.399C210.2 448.899 228.8 463.599 248.8 476.399C251.6 478.099 253.6 480.999 254.2 484.299C255.1 490.099 251.8 495.699 246.2 497.699C242 498.399 237.7 497.899 233.7 496.299C184.5 483.199 141.1 453.799 110.8 412.899C74.3 363.899 59 302.299 68.3 241.899C68.9 237.299 72.2 233.599 76.7 232.499Z" fill="#0263E1"/>
<path d="M482.7 315.2C489.1 313.6 495.6 317.5 497.2 324C497.4 324.6 497.5 325.2 497.5 325.9C497.1 330.5 495.3 334.9 492.3 338.4C430.5 436.1 304.5 470.7 201.5 418.4C197.9 416.6 195.5 413.1 195.1 409.1C194.6 404 197.4 399.1 202 397C204.6 396 207.5 395.8 210.3 396.4C276.5 404.7 343.7 393.9 404 365.2C430.5 352.6 455.3 336.8 477.8 318C479.2 316.7 480.9 315.7 482.7 315.2Z" fill="#0263E1"/>
</svg>
