<svg width="500" height="501" viewBox="0 0 500 501" fill="none" xmlns="http://www.w3.org/2000/svg">
<path d="M43.7001 95.2999C-0.299934 187.6 -5.99994 289.2 35.8001 400.6C38.8001 408.7 48.5001 412.2 56.7001 409.3C64.5001 406.6 81.7001 398.6 96.0001 389.5C129 368.5 228 287.5 275 248C322 208.5 351.8 184.9 374 170.5C385.9 162.8 393.6 157.3 399.4 154.4C405 151.6 411.8 154.1 414.2 159.9C437.5 216 436.8 276.8 413.6 336.4C411.2 342.7 403.9 345.6 397.8 342.7C386.6 337.5 368.3 327.5 347 310.5C321.9 290.4 306 278 299.1 272.6C296.8 270.8 293.5 271.1 291.5 273.2L275.7 290.5C273.6 292.7 273.7 296.2 275.9 298.3C323.7 344.3 378.8 385.5 435.5 412.4C442.9 415.9 452.3 412.8 456.1 405.6C507.1 309.8 513.8 202.2 452.8 96.6999C449.1 90.1999 440.5 88.2999 433.9 91.6999C423.1 97.1999 404.6 108.6 375.9 131.6C324.9 172.6 250.9 235.6 197.9 275.6C159.5 304.6 116.9 334.1 98.1001 346.5C92.2001 350.4 84.2001 347.8 81.7001 341.2C59.0001 280.9 58.6001 218.3 81.6001 159.8C83.4001 155.1 88.7001 152.7 93.4001 154.4C110.5 160.7 126 169.4 139.1 182.3L84.1001 234.2C82.8001 235.4 82.0001 237.2 82.0001 239V261C82.0001 263.7 84.8001 265.4 87.2001 264.1C92.1001 261.5 99.8001 256.8 108 249.5C121.6 237.4 163.8 201.7 163.8 201.7L192.7 228.8C194.3 230.3 196.9 230.4 198.6 229L222.2 209.4C224.3 207.7 224.4 204.6 222.5 202.7C171.5 153.4 117.3 113.3 57.3001 89.8999C52.0001 87.8999 46.1001 90.2999 43.7001 95.2999Z" fill="url(#paint0_linear_1_838)"/>
<defs>
<linearGradient id="paint0_linear_1_838" x1="251.956" y1="413.825" x2="251.956" y2="89.2131" gradientUnits="userSpaceOnUse">
<stop stop-color="#0057D7"/>
<stop offset="0.9993" stop-color="#04C8F2"/>
</linearGradient>
</defs>
</svg>
