<svg width="500" height="501" viewBox="0 0 500 501" fill="none" xmlns="http://www.w3.org/2000/svg">
<g clip-path="url(#clip0_1_859)">
<path fill-rule="evenodd" clip-rule="evenodd" d="M250 500.5C388.1 500.5 500 388.6 500 250.5C500 112.4 388.1 0.5 250 0.5C111.9 0.5 0 112.4 0 250.5C0 388.6 111.9 500.5 250 500.5Z" fill="url(#paint0_linear_1_859)"/>
<path fill-rule="evenodd" clip-rule="evenodd" d="M250 475.5C374.3 475.5 475 374.8 475 250.5C475 126.2 374.3 25.5 250 25.5C125.7 25.5 25 126.2 25 250.5C25 374.8 125.7 475.5 250 475.5Z" fill="white"/>
<path fill-rule="evenodd" clip-rule="evenodd" d="M250 450.5C360.5 450.5 450 361 450 250.5C450 140 360.5 50.5 250 50.5C139.5 50.5 50 140 50 250.5C50 361 139.5 450.5 250 450.5Z" fill="url(#paint1_linear_1_859)"/>
<path fill-rule="evenodd" clip-rule="evenodd" d="M240.6 169.7C240.6 168 242 166.6 243.7 166.6H256.3C258 166.6 259.4 168 259.4 169.7V328.2C259.4 329.9 258 331.3 256.3 331.3H243.7C242 331.3 240.6 329.9 240.6 328.2V169.7Z" fill="white"/>
<path fill-rule="evenodd" clip-rule="evenodd" d="M229.9 244.1V224.4C214.8 217 204.4 201.4 204.4 183.4C204.4 158.2 224.8 137.7 250.1 137.7C278.4 137.7 298.9 158.1 298.9 183.4C298.9 189.8 297.6 195.8 294.5 203L287.4 179.8C286.9 178.1 285.1 177.2 283.5 177.7L273.2 180.9C271.6 181.4 270.7 183.1 271.1 184.7L283.8 233C284.3 234.8 286.2 235.8 287.9 235.1L337.2 217C338.9 216.4 339.7 214.5 339 212.8L334.7 202.6C334.1 201.1 332.4 200.3 330.8 200.9L312.8 207C316.5 198.9 317.3 192.9 317.3 183.3C317.3 148 288.7 119.4 250.3 119.4C215 119.4 186.4 148 186.4 183.3C186.1 211.7 204.4 235.7 229.9 244.1ZM270.1 253.8V273.5C285.2 280.9 295.6 296.5 295.6 314.5C295.6 339.7 275.2 360.2 249.9 360.2C221.6 360.2 201.1 339.8 201.1 314.5C201.1 308.1 202.4 302.1 205.5 294.9L212.6 318.1C213.1 319.8 214.9 320.7 216.5 320.2L226.8 317C228.4 316.5 229.3 314.8 228.9 313.2L216.2 264.9C215.7 263.1 213.8 262.1 212.1 262.8L162.8 280.9C161.1 281.5 160.3 283.4 161 285.1L165.3 295.3C165.9 296.8 167.6 297.6 169.2 297L187.2 290.9C183.4 299 182.7 305 182.7 314.6C182.7 349.9 211.3 378.5 249.7 378.5C285 378.5 313.6 349.9 313.6 314.6C313.9 286.3 295.6 262.3 270.1 253.8Z" fill="white"/>
</g>
<defs>
<linearGradient id="paint0_linear_1_859" x1="436.393" y1="93.6689" x2="64.3935" y2="406.669" gradientUnits="userSpaceOnUse">
<stop stop-color="#B6509E"/>
<stop offset="1" stop-color="#2EBAC6"/>
</linearGradient>
<linearGradient id="paint1_linear_1_859" x1="50" y1="50.5" x2="450" y2="450.5" gradientUnits="userSpaceOnUse">
<stop stop-color="#0077FC"/>
<stop offset="1" stop-color="#095EB5"/>
</linearGradient>
<clipPath id="clip0_1_859">
<rect width="500" height="500" fill="white" transform="translate(0 0.5)"/>
</clipPath>
</defs>
</svg>
