<svg width="500" height="501" viewBox="0 0 500 501" fill="none" xmlns="http://www.w3.org/2000/svg">
<path d="M497 274.801V221.301C497 217.901 494.3 215.201 490.9 215.201H381.1L295.4 19.3008C293.9 16.0008 290.6 13.8008 287 13.8008H214.5C210.9 13.8008 207.6 15.9008 206.1 19.3008L119.5 215.201H8.1C4.7 215.201 2 217.901 2 221.301V274.801C2 278.201 4.7 280.901 8.1 280.901H90.5L5.3 473.501C3.3 478.001 6.6 483.101 11.6 483.101H75C78.3 483.101 81.3 481.101 82.6 478.101L248.6 82.0008L412.3 477.801C413.9 481.601 417.6 484.101 421.8 484.101H488.8C493.5 484.101 496.7 479.201 494.8 474.901L409.9 280.901H491C494.3 280.901 497 278.101 497 274.801Z" fill="#1E242C"/>
</svg>
