<svg width="500" height="501" viewBox="0 0 500 501" fill="none" xmlns="http://www.w3.org/2000/svg">
<g clip-path="url(#clip0_1_865)">
<path fill-rule="evenodd" clip-rule="evenodd" d="M250 500.5C388.1 500.5 500 388.6 500 250.5C500 112.4 388.1 0.5 250 0.5C111.9 0.5 0 112.4 0 250.5C0 388.6 111.9 500.5 250 500.5Z" fill="url(#paint0_linear_1_865)"/>
<path fill-rule="evenodd" clip-rule="evenodd" d="M250 475.5C374.3 475.5 475 374.8 475 250.5C475 126.2 374.3 25.5 250 25.5C125.7 25.5 25 126.2 25 250.5C25 374.8 125.7 475.5 250 475.5Z" fill="white"/>
<path fill-rule="evenodd" clip-rule="evenodd" d="M250 450.5C360.5 450.5 450 361 450 250.5C450 140 360.5 50.5 250 50.5C139.5 50.5 50 140 50 250.5C50 361 139.5 450.5 250 450.5Z" fill="#25292E"/>
<path fill-rule="evenodd" clip-rule="evenodd" d="M258.1 100.7L256.3 100.5H243.5C243.3 100.5 243.1 100.6 242.9 100.6C242.4 100.7 242 100.8 241.5 100.8C239.6 101 237.6 101.2 235.7 101.4C231.7 101.8 227.7 102.2 223.7 102.9C193.2 108.4 167 122.2 144.8 143.7C142.5 145.9 140.3 148.3 138.1 150.7C137 151.9 136 153 134.8 154.2L168.5 199L169.9 197C179.4 182.9 192.4 171.5 207.7 163.9C209 163.3 209.8 163.4 210.8 164.4C215.7 169.3 220.7 174.1 225.6 178.9L230 183.2C230.9 184.1 231.8 184.9 232.7 185.8L233.5 186.6L325.1 120.9C325 120.8 324.8 120.7 324.7 120.6C324.5 120.4 324.3 120.3 324.1 120.2C305.4 109.5 285.3 103.2 263.8 101.1C262 101.1 260.1 100.9 258.1 100.7ZM239.8 400.2C240.9 400.3 242 400.4 243.1 400.5H257.1H257.3L257.7 400.4C258.1 400.3 258.6 400.2 259 400.2C260.5 400 262.1 399.9 263.6 399.7C266.7 399.4 269.8 399.1 272.8 398.6C309.2 392.8 339.4 375.8 363.8 348.1C364.8 347 364.9 346.3 364 345.1C354.9 333.1 345.9 321.1 336.9 309.1L332.6 303.3C332.4 303 332.2 302.8 331.9 302.5C331.8 302.3 331.6 302.2 331.5 302L330 304.2C320.6 318.1 307.8 329.3 292.8 336.8C291.4 337.5 290.5 337.6 289.3 336.3C285.6 332.5 281.8 328.9 278 325.2C276.7 324 275.5 322.7 274.2 321.5L265.1 312.7L238.9 332.3C217.6 348.2 196.3 364.1 174.9 380.1C175.1 380.2 175.3 380.4 175.4 380.5C175.6 380.6 175.7 380.7 175.9 380.8C193.2 390.7 212.3 397 232.1 399.4C234.7 399.7 237.2 399.9 239.8 400.2ZM119.9 176C101.7 209 95.7 243.6 103.1 280.2C110 314.4 127.3 342.6 153.9 365.5L198.4 332.1C198.3 331.9 198.3 331.8 198.2 331.7C198.1 331.5 198.1 331.4 198 331.4C197.5 331.1 197.1 330.7 196.6 330.4C182.5 320.9 171.1 307.9 163.6 292.6C163 291.4 163 290.7 164 289.7C166.6 287.2 169.1 284.6 171.6 282C172.5 281.1 173.4 280.2 174.3 279.2L188 265.1L119.9 176ZM325.7 222.6L313.2 235.6L380.3 324.3C397 296.3 405.6 256.4 395.9 216.2C388.2 183.9 371.4 157.2 346 135.5L301.3 169C301.6 169.2 301.9 169.4 302.1 169.6C302.5 169.9 302.8 170.1 303.2 170.3C317.5 179.8 329 193 336.6 208.5C337.3 209.8 337.3 210.6 336.2 211.7C333.6 214.3 331 217 328.4 219.7C327.5 220.7 326.6 221.6 325.7 222.6Z" fill="white"/>
</g>
<defs>
<linearGradient id="paint0_linear_1_865" x1="436.393" y1="93.6689" x2="64.3935" y2="406.669" gradientUnits="userSpaceOnUse">
<stop stop-color="#B6509E"/>
<stop offset="1" stop-color="#2EBAC6"/>
</linearGradient>
<clipPath id="clip0_1_865">
<rect width="500" height="500" fill="white" transform="translate(0 0.5)"/>
</clipPath>
</defs>
</svg>
