<svg width="500" height="501" viewBox="0 0 500 501" fill="none" xmlns="http://www.w3.org/2000/svg">
<path d="M123.3 361.8C123.2 346.6 128.4 331.9 138 320.2C141.1 316.1 140.3 310.2 136.2 307.1C135.8 306.8 135.4 306.5 134.9 306.3C105.1 291.5 83.9 263.5 77.9 230.8C73.9 205.8 75.7 180.2 83.3 156C84.7 150.7 85 145.2 84.1 139.8C74.3 103 75.4 64.1004 87.2 27.9004C96.5 1.10042 111.2 -5.19958 137.4 7.20042C152.2 14.3004 165.9 23.4004 178.3 34.2004C181 37.3004 185.6 37.9004 189 35.7004C234.4 16.3004 286 16.6004 331.4 36.5004C334.5 38.0004 338.2 37.4004 340.6 35.0004C352.3 24.7004 365.3 15.9004 379.2 8.80042C385.3 5.70042 391.8 3.40042 398.5 1.90042C409.3 -0.59958 420.3 4.50042 425.5 14.2004C432.8 27.6004 437.5 42.3004 439.4 57.4004C444.1 86.7004 442.5 116.6 434.8 145.3C434.3 147.9 434.5 150.6 435.6 153C443 174.5 445.9 197.4 444.1 220.1C441 257.2 418.8 289.9 385.5 306.4C381 308.5 379.1 313.9 381.2 318.4C381.5 319.1 381.9 319.7 382.4 320.3C394.9 336.2 399.9 356.7 396.3 376.6C396.3 378.9 394.8 380.4 397.8 382.8C413.7 393.2 422.1 411.8 419.4 430.6C418.3 442.9 414.9 454.9 409.4 466C403.4 479.8 389.7 488.6 374.7 488.4H362.3C353 487.9 343.7 489.7 335.3 493.8C323.3 499.6 309.4 500.4 296.8 496.1C296 496.1 295.3 495.3 294.5 495.3C286 486 275.2 488.4 264.4 488.4H248.2C241.2 488.4 234.2 490.2 228.2 493.8C213.1 501.9 194.7 501 180.4 491.5C177.2 489.3 173.5 488.3 169.7 488.4H145.8C130.9 488.4 117.3 479.7 111.1 466.1C106.1 456 102.9 445 101.8 433.7C101.5 430 99.5 426.6 96.4 424.5C56.6 399.2 44.8 346.5 70.1 306.7L70.2 306.6C71 305.8 71.7 305.1 71.7 304.3C73 301.8 75.9 300.6 78.6 301.2C81.7 302 82.5 304.3 83.2 307.4C85.3 323.6 92.9 338.6 104.8 349.9C110.1 354.8 116.4 359 123.3 361.8Z" fill="#2F201C"/>
<path d="M87.8 223.801C84.9 202.801 86.7 181.501 93.2 161.401C104.3 123.101 127.5 89.6007 159.5 65.8007C164.1 61.9007 164.9 58.9007 161.1 54.2007C155.3 46.2007 148.8 38.8007 141.8 31.8007C144.9 28.7007 147.2 31.0007 149.5 32.6007C158.3 37.9007 166.6 44.1007 174.2 51.1007C178.4 54.3007 184.1 54.8007 188.9 52.7007C222.3 38.0007 259.6 34.2007 295.3 42.0007C307.5 44.7007 319.3 48.6007 330.8 53.6007C334.3 55.4007 338.6 54.7007 341.5 52.0007C349.2 45.2007 357.4 39.0007 366.1 33.5007C369.2 31.2007 372.3 28.9007 376.1 31.2007C369.5 37.8007 363.3 44.7007 357.6 52.0007C352.2 59.7007 352.2 61.3007 359.9 66.7007C402.1 98.9007 428.3 147.801 431.6 200.701C432.5 208.101 432.3 215.701 430.8 223.101C424.9 233.201 413.9 239.101 402.2 238.501C385.4 239.601 368.8 234.001 356 223.101C343.6 212.901 331.8 202.101 320.5 190.701C313.3 183.701 305.6 177.201 297.4 171.401C274.3 154.701 243 155.001 220.3 172.201C209.1 180.601 198.6 189.901 188.9 200.001C181.5 207.601 173.8 214.801 165.7 221.601C152.4 233.001 135.4 239.101 117.9 238.601C106.1 238.701 94.9 233.201 87.8 223.801Z" fill="#EAA548"/>
<path d="M87.8 223.801C94.4 229.201 102 233.101 110.2 235.401C130 238.901 150.2 232.901 164.9 219.201C178.8 207.601 191.9 194.501 205 182.201C215.1 171.901 227.5 164.301 241.2 159.901C263.2 154.101 286.6 159.601 303.6 174.601C319.8 187.701 334.4 203.101 350.6 217.801C365.5 233.301 387.3 240.301 408.4 236.301C416.6 234.201 424 230.001 430 224.001C429.6 228.201 428.8 232.301 427.7 236.301C423.5 243.501 418.9 250.501 413.8 257.101C399.6 271.301 382.5 282.301 363.8 289.501C341.6 297.101 318.6 301.801 295.2 303.401C259.7 307.001 223.8 305.201 188.8 298.001C159.5 293.301 132.2 280.201 110.2 260.301C102.3 253.101 95.8 244.401 90.9 234.901C89.5 231.201 88.4 227.601 87.8 223.801Z" fill="white"/>
<path d="M90.9 235.4C96.6 241 101.8 247.2 106.3 253.9C116.8 264.9 129 274 142.5 280.9C169.5 293.2 198.5 300.3 228.1 301.7C265.5 305.3 303.3 302.7 339.9 294C367.3 288 392.4 274.3 412.4 254.7C416.4 250.2 420 245.3 423.1 240.1C423.9 238.6 424.6 236.2 427.7 236.2C421.6 260.3 406 280.8 384.5 293.2C360.1 307.2 333.1 315.8 305.1 318.6C262.9 324.4 220 322 178.7 311.7C152.2 305.8 128 292.1 109.3 272.4C100.1 261.9 93.7 249.1 90.9 235.4Z" fill="#DCDCDC"/>
<path d="M292.1 472.001C291.1 466.201 290.8 460.201 291.3 454.301V415.701C291.3 414.201 292.1 414.201 292.8 414.901C294.3 416.401 293.6 418.801 294.3 421.101C309.9 407.201 324.6 392.201 338.2 376.401C346.6 367.201 352 355.601 353.6 343.201C353.6 342.401 354.4 340.901 354.4 340.101C357.5 338.601 359.8 337.801 362.9 336.301C366.8 336.301 366.8 340.101 367.5 342.501C370.1 352.801 370.3 363.601 368.3 374.101C365.4 392.801 359.7 411.001 351.4 428.101C347 439.501 341.3 450.401 334.4 460.501C333.1 463.101 331.2 465.501 329 467.401C328.1 468.001 327 468.301 325.9 468.201C315.7 466.801 305.3 468.101 295.8 472.101C294.9 472.801 293.4 472.801 292.1 472.001Z" fill="#EAA548"/>
<path d="M226.6 428.101C226.6 442.801 227.4 457.401 226.6 472.001C225.2 472.801 223.4 472.801 222 472.001C212.7 468.301 202.6 467.201 192.7 468.901C190.7 469.801 188.3 469.501 186.5 468.101C185.4 464.301 183.9 460.701 181.9 457.401C168.4 434.001 158.3 408.801 151.8 382.601C148.6 370.301 148.1 357.401 150.3 344.801C151.1 341.701 151.8 337.801 154.9 336.301C158 337.901 160.3 338.601 163.4 340.201C164.9 341.601 165.8 343.501 165.7 345.601C167 355.801 171.3 365.501 178 373.401C191.1 389.201 205.3 404.101 220.4 418.101C223.5 420.701 225.7 424.201 226.6 428.101Z" fill="#EAA548"/>
<path d="M238.9 452V416.5C238.9 411.1 236.6 408 231.2 408.8C229.2 407 227.8 404.5 227.3 401.8C222.4 387.1 215.1 373.3 205.7 360.9C203.5 356.9 200 353.9 195.7 352.4C194.1 351.6 192.6 351.6 192.6 348.5C204.9 350.1 217.3 353.1 229.6 353.9C234.2 353.9 232.7 356.2 231.2 359.3C226.3 370.5 229.1 383.5 238.1 391.7C246.9 400.2 260 402.6 271.3 397.9C285.6 391.4 292.6 375 287.4 360.1C285.1 353.9 287.4 353.9 292 353.9C301.3 353.1 310.5 351.6 320.6 350.1C321.4 352.4 319.8 353.2 319.1 354.7C306.4 369.1 297.2 386.2 292.1 404.7C291.3 406.2 291.3 407.8 289.8 408.6C282.9 407.8 281.3 409.4 281.3 416.3C281.3 427.9 281.3 439.4 280.5 451C268.6 461.2 251.1 461.6 238.9 451.8" fill="#DCDCDC"/>
<path d="M192.7 349.499C207.3 354.899 212.7 367.999 219.7 380.299C225.2 388.999 228.8 398.699 230.4 408.899C225.8 411.199 226.5 415.799 226.5 419.599V428.099C208.6 410.799 191.6 392.499 175.6 373.399C167.7 364.099 163.4 352.399 163.3 340.199C173.3 343.299 182.6 346.399 192.7 349.499Z" fill="white"/>
<path d="M288.3 409.6C290.7 396.3 295.9 383.7 303.7 372.6C308.2 364.8 313.6 357.5 319.8 351C331.4 347.9 343.7 344.8 354.5 341C356 349.7 353.8 358.7 348.3 365.7C337.6 381.9 324.9 396.7 310.5 409.6C304.2 415.4 298.3 421.6 292.8 428.1C290.5 424.3 292.8 420.4 291.3 416.5C291.5 413.8 290.4 411.2 288.3 409.6Z" fill="white"/>
<path d="M328.3 466.6C345.2 440.4 357.5 411.4 364.5 381C368.6 366.3 368.1 350.7 363 336.3C363.8 335.5 365.3 334.7 366.1 334C375.4 329.4 375.4 329.4 379.2 338.6C384.7 354 385.3 370.7 380.7 386.4C373.5 414.5 361.9 441.3 346.2 465.7C344.7 468 343.1 469.6 341.6 471.9C336.2 471.9 331.6 471.9 328.5 466.5" fill="#E08532"/>
<path d="M154.9 336.399C148.7 358.599 150.3 382.299 159.5 403.499C166.1 423.899 175.4 443.399 187.3 461.299C188.8 462.999 188.7 465.599 187 467.099C186.8 467.199 186.7 467.399 186.5 467.499C185.3 471.399 181.3 473.699 177.3 472.899C165.9 458.899 157 442.899 151.1 425.899C142.2 407.799 136.8 388.199 134.9 368.099C134 357.499 135.8 346.899 140.3 337.299C144.2 329.599 144.2 329.599 151 334.199C152.5 334.799 153.3 335.599 154.9 336.399Z" fill="#E08532"/>
<path d="M353.8 476.701C369.5 452.001 381.6 425.301 390 397.301C391.5 392.701 393.1 394.201 395.4 396.501C403.8 406.001 407.7 418.601 406.1 431.201C405.2 441.401 402.3 451.401 397.6 460.501C393.7 469.301 385.5 475.401 376 476.701C368.6 477.101 361.1 477.101 353.6 476.701" fill="#E08432"/>
<path d="M152.6 476.701C135.9 479.601 120.1 468.401 117.2 451.701C117.2 451.501 117.1 451.401 117.1 451.201C111.3 438.301 110.5 423.801 114.8 410.401C116.4 405.101 119.3 400.301 123.3 396.501C125.6 394.201 127.2 392.701 127.9 397.301C135.7 423.901 147.1 449.301 161.9 472.801C163.4 475.901 163.4 476.701 159.6 476.701H152.6Z" fill="#E08432"/>
<path d="M414.7 109.701C403.7 92.8008 390.5 77.5008 375.4 64.2008C366.9 57.3008 366.9 56.5008 374.6 48.0008C383.1 38.4008 392.9 30.0008 403.9 23.3008C405.9 24.8008 407.2 27.0008 407.8 29.5008C413 43.6008 415.8 58.4008 416.3 73.4008C417.3 81.1008 417.6 88.8008 417.1 96.5008C418.5 102.001 418.5 106.601 414.7 109.701Z" fill="#B8572A"/>
<path d="M114 24.0996C127.2 31.7996 138.7 41.9996 148 54.1996C149.5 56.4996 150.3 58.0996 148 60.3996C130.8 74.3996 115.9 90.9996 104 109.7C101.3 108.1 99.8 105.1 100.2 102C99.3 79.0996 101.9 56.2996 107.9 34.1996C108 29.9996 110.4 26.1996 114 24.0996Z" fill="#B8572A"/>
<path d="M376.1 30.3008C366.2 34.0008 357.3 39.8008 349.9 47.3008C343.4 55.9008 331.4 58.2008 322.2 52.7008C296.7 41.5008 268.8 37.5008 241.2 41.1008C221.3 42.6008 201.9 48.1008 184.2 57.3008C181.9 58.8008 180.3 58.1008 178 56.5008C168 48.8008 158.7 40.4008 147.9 33.4008C146.2 32.0008 144 31.1008 141.7 31.1008C134.8 25.7008 128.6 20.4008 120.9 14.9008C127.5 15.7008 133.9 18.1008 139.4 21.9008C151.8 29.2008 163.4 37.8008 174.1 47.4008C177 51.2008 182.3 52.2008 186.4 49.7008C232 28.1008 284.9 28.1008 330.6 49.7008C334.3 52.0008 339.1 51.3008 342.2 48.2008C355.8 35.2008 371.4 24.5008 388.5 16.6008C390.8 15.8008 392.4 15.0008 394.7 14.3008C395.5 14.3008 395.5 14.3008 397 15.1008C389.2 20.2008 383.1 25.6008 376.1 30.3008Z" fill="#F4CB71"/>
<path d="M70.1 334.8C70.8 330.5 72.1 326.4 74 322.5C78.7 335.6 86.3 347.5 96.3 357.2C103.1 364.1 111.2 369.6 120.2 373.4C126.4 376.5 126.4 379.6 121 383.4C115.2 387.4 110.5 392.7 107.1 398.8C104.4 399.1 101.7 397.9 100.2 395.7C85.7 384.3 75.6 368.2 71.6 350.2C69.6 345.4 69 340 70.1 334.8Z" fill="#E08432"/>
<path d="M114 24.0998C104.8 48.6998 100.9 74.8998 102.4 101.1C102.5 104 103.1 106.8 103.9 109.6C100.8 115.8 97.7 121.9 93.9 128.9C91.4 123.6 90.3 117.8 90.8 111.9C87.8 86.7998 89.9 61.3998 97 37.0998C97.8 33.9998 99.3 30.8998 100.1 27.8998C104 17.1998 104 17.1998 114 24.0998Z" fill="#CF722E"/>
<path d="M414.7 109.7C417 86.7001 415.4 63.5001 410.1 41.1001C408 35.3001 406.2 29.4001 404.7 23.4001L405.5 22.6001C414 17.2001 414 17.2001 417.9 26.5001C424.9 44.4001 428.6 63.5001 428.6 82.8001C429 96.2001 428.2 109.6 426.3 122.9C426 124.8 425.5 126.6 424.8 128.3C421.6 122 418.5 115.8 414.7 109.7Z" fill="#CF722E"/>
<path d="M238.9 452C251.4 458.9 266.5 458.9 279 452C279 458.9 279.8 465.1 279.8 472C279.8 475.9 279 476.6 275.9 476.6H241.9C238.8 476.6 237.3 475.8 238 472.8C238.7 465.9 239 458.9 238.9 452Z" fill="#DF8432"/>
<path d="M70.1 334.801C71.4 360.601 84.9 384.301 106.3 398.801C104.6 402.801 103.3 406.901 102.5 411.101C101.7 414.201 100.9 415.001 98.6 412.601C74 395.101 62.6 364.201 70.1 334.801Z" fill="#DCDCDC"/>
<path d="M253.6 388.8C244.1 385.7 238.9 375.5 242 366C245.1 356.5 255.3 351.3 264.8 354.4C266.3 354.9 267.7 355.6 269 356.4C275.7 365.4 273.7 378.2 264.7 384.8C261.4 387.2 257.6 388.6 253.6 388.8Z" fill="#F3DF5A"/>
<path d="M151 319.399C150.2 314.799 151.8 313.999 155.6 315.499C180.4 324.499 206.4 329.699 232.7 330.899C240.4 330.899 241.2 331.699 240.4 340.899C239.6 347.799 235 343.999 231.9 344.699C231.1 344.699 229.6 343.899 228.8 343.899C229.6 342.399 230.4 342.399 231.9 341.599C203.8 339.699 176.3 332.099 151 319.399Z" fill="#A22B2A"/>
<path d="M288.3 343.301C278.3 345.601 277.6 344.801 277.6 335.601C277.6 331.001 279.9 330.201 283.8 330.201C303.9 329.401 323.8 326.301 343.2 320.901C350 319.201 356.7 317.101 363.3 314.701C365.6 313.901 367.9 313.201 367.2 317.001C362.8 321.701 357.2 325.201 351 327.001C331.1 334.301 310.3 338.901 289.2 340.901C288.4 340.901 286.9 340.101 287.7 341.701C287.5 342.301 287.8 342.901 288.3 343.301Z" fill="#A22B2A"/>
<path d="M191.1 466.6C203.2 463.7 215.9 465.7 226.6 472C226.6 478.9 224.3 484.3 217.4 485.9C210.5 486.7 203.5 486.7 196.6 485.9C196.6 482.8 199.7 482.8 201.2 482.8C198.2 480.2 195.3 477.3 192.7 474.3C191.1 472 189.6 469.7 191.1 466.6Z" fill="#FCFCFA"/>
<path d="M292.1 472C302.5 465.7 315 463.7 326.8 466.6C329.9 468.9 327.6 470.5 326.8 472.8C323.8 477.6 319.9 481.8 315.2 485.1C311.3 488.2 306.7 485.9 302.1 485.9C295.2 484.4 292.1 480.6 292.1 472Z" fill="#FFFCFB"/>
<path d="M288.3 343.3C285.2 342.5 279.8 344.8 279.8 341.8C279.8 337.9 285.2 340.2 287.5 339.5C307.6 337.3 327.5 333.2 346.9 327.2C353.8 324.9 360 321 367 318C367.8 321.8 364.7 322.6 361.6 324.2C342.4 333.5 321.8 339.5 300.7 341.9C296.6 342.6 292.4 343.2 288.3 343.3Z" fill="#C03433"/>
<path d="M151 319.401C153.3 317.901 154.9 319.401 157.2 320.901C178.6 331.401 202 337.401 225.8 338.601C229.7 338.701 233.6 339.301 237.4 340.201C238.9 340.201 240.5 340.201 239.7 342.501C239.7 344.001 238.2 344.001 236.6 344.001H229.7C203.9 342.501 178.7 335.601 155.7 324.001C153.3 322.501 151 321.701 151 319.401Z" fill="#C43533"/>
<path d="M301.4 485.9C314.5 487.4 319.1 476.6 326.1 468.9V466.6H328.4C332.8 468 337 470.1 340.7 472.8C331.8 485.3 315.9 490.6 301.4 485.9Z" fill="#D9D9D8"/>
<path d="M191.1 466.6C193.4 474.3 200.4 477.3 205 483.6C202.7 485.9 198.1 482.8 195.8 485.9C187.8 484.6 180.7 479.8 176.5 472.8C179.6 471.3 182.7 468.9 185.8 467.4C187.5 467.6 189.4 467.3 191.1 466.6Z" fill="#D9D9D9"/>
<path d="M253.6 388.8C269.8 381.9 272.1 377.2 268.3 355.6C277.1 360.6 280.1 371.7 275.2 380.4C270.8 388 261.8 391.5 253.6 388.8Z" fill="#F9F8F6"/>
<path d="M259.7 341.8C255.8 341.8 252 344.1 252 337.2C252 331 255.1 331.8 258.9 331.8C262.7 331.8 266.6 330.3 266.6 337.2C266.6 344.1 262 341 259.7 341.8Z" fill="#C3C3C2"/>
<path d="M196.5 485.9C203.4 485.5 210.4 485.5 217.3 485.9C210.5 487.5 203.4 487.5 196.5 485.9Z" fill="#D9D9D9"/>
<path d="M143.3 164.4C143 150.8 153.6 139.5 167.2 139C181 137.8 193.2 147.6 195 161.3C196.8 168.7 192.8 176.3 185.7 179C176.4 183.7 165.8 185.1 155.6 182.8C147.4 180.8 142.1 172.9 143.3 164.4Z" fill="#2F201C"/>
<path d="M353 183.7C347.7 183.3 342.6 182.3 337.6 180.6C327.7 178.3 321.5 168.3 323.8 158.3C324.1 156.9 324.6 155.6 325.2 154.4C329.7 142.6 342.1 135.8 354.5 138.2C366.9 140.6 375.8 151.7 375.3 164.4C375.4 177.6 367.7 183.7 353 183.7Z" fill="#2F201C"/>
<path d="M208.1 112C207.8 120.5 200.7 127.2 192.2 127C191.3 127 190.5 126.9 189.6 126.7C188.7 126.8 187.9 126.5 187.3 125.9C175.7 124.4 169.6 119 170.4 110.5C172.5 100 182.1 92.8001 192.7 93.5001C201.8 94.8001 208.5 102.8 208.1 112Z" fill="#FFFFFC"/>
<path d="M310.6 112C310.5 102.8 317.6 95.1002 326.8 94.3002C337.4 93.9002 346.7 101.5 348.4 112C348.7 116.3 346.7 120.4 343 122.7C335.4 127.7 325.9 128.5 317.5 125C313.1 122.2 310.5 117.2 310.6 112Z" fill="#FFFFFC"/>
<path d="M229.7 184.5C238.1 173.8 251.9 169 265.2 172.2C268.4 172.2 271.6 173 274.5 174.5C284.2 176.1 290.7 185.2 289.1 194.9C289.1 195 289.1 195.2 289 195.3C288 203.9 282.8 211.4 275.1 215.3C269.7 218.4 269.7 218.4 274.3 223.8C284.3 229.2 289.7 228.4 296.7 219.9C298.9 216.7 301 213.3 302.9 209.9C303.8 207.3 306.7 206 309.3 206.9C309.8 207.1 310.2 207.3 310.6 207.6C313.3 208.8 314.5 212 313.2 214.7C313.1 214.9 313 215.1 312.9 215.3C309.7 223.7 303.7 230.8 295.9 235.4C293.6 236.7 291.9 239 291.3 241.6C290 252 285.1 261.5 277.4 268.6C267.7 279.4 251 280.4 240.2 270.6C239.7 270.2 239.3 269.8 238.9 269.3C231.3 261.9 226.4 252.1 225 241.5C224.5 238.4 222.9 235.6 220.4 233.8C213.5 229.1 208.1 222.4 205 214.5C203.4 212 204.2 208.7 206.7 207.1C206.9 207 207.1 206.9 207.3 206.8C209.7 205.3 212.9 206 214.4 208.4C214.7 208.8 214.9 209.3 215 209.8C216.6 213.4 218.7 216.8 221.2 219.8C226 226.7 235.5 228.5 242.4 223.7C243.4 223 244.3 222.2 245.1 221.4C248.2 217.6 245.1 216.8 242.8 214.5C231.8 208.9 226.3 196.3 229.7 184.5Z" fill="#2F201C"/>
<path d="M229.7 184.5C228.2 202.2 238.2 210.7 252.8 216.9C251 219.1 248.6 220.7 245.9 221.5C231.4 216.1 224 200 229.3 185.5C229.4 185.1 229.5 184.8 229.7 184.5Z" fill="#CBCCCD"/>
<path d="M274.4 223C270.9 221.6 267.8 219.5 265.1 216.8C276.6 214.1 285.9 205.6 289.8 194.4C292.2 199.3 291.2 205.1 287.5 209.1C284.4 213.4 280.5 217.1 275.9 219.8C274.4 220.7 272.8 220.7 274.4 223Z" fill="#CCCECE"/>
<path d="M172.6 147.5C177.2 148.3 180.3 149.8 180.3 155.2C180.6 159.6 177.3 163.4 173 163.7C172.9 163.7 172.7 163.7 172.6 163.7C167.9 163.7 164.2 159.9 164.1 155.2C164 151.1 167.2 147.6 171.3 147.4C171.8 147.4 172.2 147.4 172.6 147.5Z" fill="#F9F8F8"/>
<path d="M354.5 156.7C354.2 160.7 350.8 163.7 346.8 163.6C342.1 163.6 338.3 159.8 338.3 155.1C338.2 150.7 341.6 147 346 146.6C350.9 146.8 354.7 151 354.5 155.9C354.6 156.3 354.6 156.5 354.5 156.7Z" fill="#F7F7F7"/>
<path d="M259 193C254.3 193.3 249.6 192.7 245.1 191.5C238.9 188.4 238.9 183.8 244.3 179.9C253.7 175.9 264.4 176.2 273.6 180.7C278.2 183.8 278.2 188.4 272.8 190.7C268.8 193.4 263.7 194.2 259 193Z" fill="#573E39"/>
<path d="M272.9 255.4C269.7 263.1 260.9 266.7 253.2 263.5C249.5 262 246.6 259.1 245.1 255.4C245.7 253.6 247.2 252.2 249 251.5C257.1 248.7 266.1 250.2 272.9 255.4Z" fill="#E18981"/>
<path d="M272.9 255.401C264 251.901 254.1 251.901 245.1 255.401C242 253.101 241.3 250.801 245.9 250.001C254.9 246.901 264.7 246.901 273.7 250.001C278.3 251.601 274.4 253.901 272.9 255.401Z" fill="#EAAFA7"/>
</svg>
