<svg width="500" height="501" viewBox="0 0 500 501" fill="none" xmlns="http://www.w3.org/2000/svg">
<g clip-path="url(#clip0_1_916)">
<path d="M250 500.5C112.1 500.5 0 388.4 0 250.5C0 160.4 48.8 76.9 127.3 32.6C164.6 11.6 207 0.5 250 0.5C387.9 0.5 500 112.6 500 250.5C500 388.4 387.9 500.5 250 500.5ZM147.3 368.1C147.3 425.5 194 472.3 251.5 472.3C308.9 472.3 355.7 425.6 355.7 368.1C355.7 310.6 309 263.9 251.5 263.9C194.1 263.9 147.3 310.6 147.3 368.1ZM120.5 68.6C62.2 110.3 26.8 178 26.8 250.5C26.8 337.3 76.6 412.6 149.1 449.6C131.7 427.8 121.1 400.3 120.6 370.3V68.6H120.5ZM251.5 237.1C323.7 237.1 382.5 295.8 382.5 368.1C382.5 397.7 372.6 425 356 447C425.8 409.2 473.2 335.3 473.2 250.6C473.2 127.5 373.1 27.4 250 27.4C214.2 27.4 178.9 36 147.3 52.4V288.9C171.3 257.4 209.1 237.1 251.5 237.1Z" fill="url(#paint0_linear_1_916)"/>
</g>
<defs>
<linearGradient id="paint0_linear_1_916" x1="250" y1="13.8929" x2="250" y2="487.107" gradientUnits="userSpaceOnUse">
<stop stop-color="#EEA7ED"/>
<stop offset="1" stop-color="#0217B0"/>
</linearGradient>
<clipPath id="clip0_1_916">
<rect width="500" height="500" fill="white" transform="translate(0 0.5)"/>
</clipPath>
</defs>
</svg>
