<svg width="500" height="501" viewBox="0 0 500 501" fill="none" xmlns="http://www.w3.org/2000/svg">
<path d="M353.7 283.5C322.5 289.7 287 293 250 293C213 293 177.5 289.7 146.3 283.5C62.6001 296.7 4.6001 325.4 4.6001 358.6C4.6001 404.4 114.5 441.4 250 441.4C385.5 441.4 495.4 404.3 495.4 358.6C495.4 325.4 437.4 296.7 353.7 283.5Z" fill="black"/>
<path d="M249.8 137.1C330.654 137.1 396.2 115.609 396.2 89.0996C396.2 62.5899 330.654 41.0996 249.8 41.0996C168.945 41.0996 103.4 62.5899 103.4 89.0996C103.4 115.609 168.945 137.1 249.8 137.1Z" fill="black"/>
<path d="M314.9 148.1C294.1 151.3 271.7 152.9 249.8 152.9C228 152.9 205.7 151.3 184.9 148.1C109.1 157 54.7002 181.1 54.7002 209.3C54.7002 245.2 142.1 274.2 250 274.2C357.9 274.2 445.3 245.1 445.3 209.3C445.3 181.1 390.8 157 314.9 148.1Z" fill="black"/>
</svg>
