<svg width="500" height="501" viewBox="0 0 500 501" fill="none" xmlns="http://www.w3.org/2000/svg">
<path d="M249.54 497.041C386.341 497.041 497.24 386.142 497.24 249.341C497.24 112.54 386.341 1.64062 249.54 1.64062C112.739 1.64062 1.83984 112.54 1.83984 249.341C1.83984 386.142 112.739 497.041 249.54 497.041Z" fill="#3200F7"/>
<path d="M370.31 131.277L328.907 241.945L354.036 251.347L395.439 140.678L370.31 131.277Z" fill="white"/>
<path d="M259.322 194.63L225.61 284.74L250.739 294.141L284.451 204.031L259.322 194.63Z" fill="white"/>
<path d="M348.86 261.86L314.82 352.9C314.27 354.38 312.85 355.36 311.27 355.36L290.7 355.33C288.06 355.33 286.24 352.69 287.16 350.22L323.73 252.46C324.46 250.5 326.64 249.51 328.6 250.24L346.64 256.99C348.6 257.72 349.6 259.9 348.86 261.86Z" fill="white"/>
<path d="M165.66 285.421L139.97 352.901C139.42 354.381 138 355.361 136.42 355.361L115.85 355.331C113.21 355.331 111.39 352.691 112.31 350.221L140.53 276.021C141.26 274.061 143.44 273.071 145.4 273.801L163.44 280.551C165.4 281.281 166.39 283.461 165.66 285.421Z" fill="white"/>
<path d="M245.73 306.46L228.51 354.09C227.96 355.57 226.54 356.55 224.96 356.55L204.39 356.52C201.75 356.52 199.93 353.88 200.85 351.41L220.6 297.06C221.33 295.1 223.51 294.11 225.47 294.84L243.51 301.59C245.47 302.32 246.46 304.5 245.73 306.46Z" fill="white"/>
<path d="M194.47 163.619C194.47 163.619 210.43 167.169 227.67 184.399C244.91 201.629 251.24 218.859 251.24 218.859C251.24 218.859 229.19 209.739 216.02 196.559C202.83 183.389 194.47 163.619 194.47 163.619Z" fill="white"/>
<path d="M203.43 218.991C203.43 218.991 211.72 213.711 226.37 213.711C241.02 213.711 251.03 218.341 251.03 218.341C251.03 218.341 237.78 223.831 226.58 223.831C215.38 223.831 203.43 218.991 203.43 218.991Z" fill="white"/>
</svg>
