<svg width="500" height="501" viewBox="0 0 500 501" fill="none" xmlns="http://www.w3.org/2000/svg">
<path d="M421.5 159.23C421.5 123.83 404.4 92.5301 378.1 73.3301L449 1.33008L406.6 1.53008L350.2 58.7301C339.7 55.1301 328.6 53.2301 317 53.2301H123V332.03L356.6 95.0301C377.6 108.43 391.7 132.23 391.7 159.23C391.7 200.93 358.2 234.93 317.1 234.93H310.9L51 498.83H93.2L144.2 447.13H317C374.6 447.13 421.4 399.53 421.4 341.13C421.4 302.53 401 268.83 370.6 250.33C401 231.53 421.5 197.73 421.5 159.23ZM152.9 258.93V83.4301H317C319.8 83.4301 322.6 83.6301 325.3 83.9301L152.9 258.93ZM391.7 340.83C391.7 382.53 358.2 416.53 317.1 416.53H174L322.7 265.63C361.1 268.73 391.7 301.13 391.7 340.83Z" fill="#4520E7"/>
</svg>
