<svg width="500" height="501" viewBox="0 0 500 501" fill="none" xmlns="http://www.w3.org/2000/svg">
<path d="M250 47.6289C265 47.6289 278 56.5289 283.9 69.3289C289.3 66.3289 295.5 64.6289 302.1 64.6289C322.8 64.6289 339.5 81.3289 339.5 102.029C339.5 104.029 339.3 106.029 339 107.929C351.5 113.529 473.8 172.129 469.8 299.729C466.3 410.329 353.7 451.729 255.7 451.729C164.5 451.729 39.8002 429.229 29.4002 297.029C21.2002 192.529 118.4 121.529 159.6 107.729C159.3 105.829 159.2 103.929 159.2 102.029C159.2 81.3289 175.9 64.6289 196.6 64.6289C203.6 64.6289 210.2 66.5289 215.8 69.9289C221.6 56.8289 234.7 47.6289 250 47.6289ZM250 33.6289C234.4 33.6289 219.9 40.7289 210.2 52.4289C205.8 51.2289 201.2 50.6289 196.5 50.6289C169.4 50.6289 147.1 71.7289 145.2 98.3289C122.1 108.529 91.0002 129.829 65.4002 159.129C39.9002 188.329 10.5002 236.129 15.4002 298.129C18.1002 331.829 28.0002 361.029 44.8002 385.029C59.7002 406.229 80.3002 423.529 105.9 436.429C144.4 455.829 194.8 465.729 255.7 465.729C312.4 465.729 365.6 452.729 405.3 429.229C454.9 399.829 482 355.229 483.8 300.129C484.8 268.629 478.6 238.529 465.5 210.729C454.9 188.229 439.7 167.229 420.5 148.129C394.7 122.629 367.6 106.729 353.5 99.4289C352.1 72.3289 329.6 50.6289 302.2 50.6289C297.9 50.6289 293.7 51.1289 289.6 52.2289C279.9 40.6289 265.4 33.6289 250 33.6289Z" fill="#59251B"/>
<path d="M469.8 299.729C466.3 410.329 353.7 451.729 255.7 451.729C174.4 451.729 66.2996 433.829 36.5996 336.129C76.9996 408.929 171 423.229 243.8 423.229C341.7 423.229 454.4 381.829 457.9 271.229C458.6 248.629 455.3 228.129 449.4 209.729C462.5 234.729 470.9 264.629 469.8 299.729Z" fill="#F1E3D6"/>
<path d="M457.8 271.229C454.3 381.829 341.7 423.229 243.7 423.229C171 423.229 76.9995 408.929 36.5995 336.129C32.9995 324.329 30.4995 311.329 29.3995 297.129C21.1995 192.629 118.4 121.629 159.6 107.829C159.3 105.929 159.2 104.029 159.2 102.129C159.2 81.4285 176 64.7285 196.6 64.7285C203.6 64.7285 210.2 66.6285 215.8 70.0285C221.6 56.9285 234.7 47.7285 250 47.7285C265 47.7285 278 56.6285 284 69.4285C289.4 66.4285 295.6 64.7285 302.2 64.7285C312 64.7285 320.9 68.5285 327.6 74.6285C330.2 77.1285 332.5 79.9285 334.4 83.0285C337.7 88.6285 339.6 95.1285 339.6 102.129C339.6 104.129 339.4 106.129 339.1 108.029C348.1 112.129 414.9 144.029 449.4 209.829C455.3 228.129 458.5 248.529 457.8 271.229Z" fill="#FBF7EC"/>
<path d="M211 113.63C211 113.73 211 113.83 211 113.93C209.5 128.43 197.7 139.93 183.2 141.13C179.3 141.43 175.5 141.03 172 140.03C168.7 139.03 166.4 143.33 169.2 145.43C175 149.83 182.4 152.23 190.4 151.53C205.3 150.23 217.2 137.93 218.1 123.03C218.3 119.63 217.9 116.23 217.1 113.13C216.2 109.73 211.3 110.23 211 113.63Z" fill="#59251B"/>
<path d="M292.9 117.13C293 117.13 293.1 117.13 293.2 117.23C306.2 120.43 315.2 133.23 314.5 147.33C314.3 151.13 313.4 154.73 312 158.03C310.7 161.13 314.3 163.83 316.5 161.43C321.2 156.33 324.4 149.43 324.7 141.63C325.4 127.03 315.7 114.13 302.2 111.53C299.1 110.93 296 110.83 293 111.33C290 111.73 289.8 116.43 292.9 117.13Z" fill="#59251B"/>
<path d="M256.2 125.829C256.3 125.929 256.3 126.029 256.4 126.129C262.7 137.329 260 151.629 250.2 159.829C247.5 162.029 244.6 163.629 241.5 164.729C238.6 165.729 239.2 169.929 242.2 170.029C248.6 170.229 255.2 168.229 260.6 163.629C270.7 155.129 273 140.229 266 128.929C264.4 126.329 262.4 124.129 260.2 122.329C258 120.329 254.7 123.129 256.2 125.829Z" fill="#59251B"/>
<path d="M167.7 285.829C177.586 285.829 185.6 277.815 185.6 267.929C185.6 258.043 177.586 250.029 167.7 250.029C157.814 250.029 149.8 258.043 149.8 267.929C149.8 277.815 157.814 285.829 167.7 285.829Z" fill="#59251B"/>
<path d="M332.6 285.829C342.486 285.829 350.5 277.815 350.5 267.929C350.5 258.043 342.486 250.029 332.6 250.029C322.714 250.029 314.7 258.043 314.7 267.929C314.7 277.815 322.714 285.829 332.6 285.829Z" fill="#59251B"/>
<path d="M294.4 291.029C292.1 296.929 288.3 304.029 281.9 309.829C274.8 316.329 264.7 321.229 250 321.229C235.3 321.229 225.2 316.329 218.1 309.829C211.7 304.029 207.9 296.929 205.6 291.029C203.4 285.429 207.6 279.529 213.5 279.529H286.4C292.4 279.529 296.6 285.529 294.4 291.029Z" fill="#59251B"/>
<path d="M281.9 309.929C274.8 316.429 264.7 321.329 250 321.329C235.3 321.329 225.2 316.429 218.1 309.929C226.5 302.129 237.7 297.429 250 297.429C262.3 297.329 273.5 302.129 281.9 309.929Z" fill="#FF8884"/>
</svg>
