<svg width="500" height="501" viewBox="0 0 500 501" fill="none" xmlns="http://www.w3.org/2000/svg">
<path d="M417 249.53C418.4 247.93 420.1 246.33 421.7 244.63C426.9 239.03 432.7 233.13 438.1 227.33C459.9 204.63 471.9 175.23 471.9 144.23C471.9 142.03 472.3 133.23 472.3 132.03C469.8 61.1297 409.5 3.42969 338.3 3.42969H114V93.0297H23.7002V496.73H341.8C412.5 496.73 472.2 434.53 472.2 360.83C472.4 308.13 439.5 270.93 417 249.53ZM159 138.03L337.6 138.23L225.3 250.83L336.3 362.33H159V138.03ZM341.8 451.63H68.7002V137.83H114V407.03H336.3C354.6 407.03 371 396.03 378 379.13C385 362.23 381.2 343.03 368.3 330.03L289 250.63L369.6 169.93C382.5 157.03 386.3 137.73 379.3 120.83C372.3 103.93 355.9 92.9297 337.6 92.9297H159.1V48.3297H338.4C385.9 48.3297 425.8 86.6297 427.4 133.23C427.4 135.23 427 142.93 427 143.13V144.03C427 170.33 413.7 188.13 405.6 196.33C400 202.13 394.3 208.23 389.1 213.63C380.3 222.83 372.7 230.73 369.1 234.33L353 250.13L369 266.13C371.2 268.33 373.9 270.83 377.1 273.83C395.8 291.13 427.3 319.83 427.3 360.53C427.4 409.03 387.5 451.63 341.8 451.63Z" fill="#6356AB"/>
</svg>
