<svg width="500" height="501" viewBox="0 0 500 501" fill="none" xmlns="http://www.w3.org/2000/svg">
<path d="M120.6 132.23V70.3301C95.8998 87.1301 74.6998 108.33 58.7998 132.13H120.6V132.23Z" fill="#0597FF"/>
<path d="M18.0996 263.829V264.729C18.0996 392.729 122.4 497.029 250.4 497.029C380.2 497.029 484.5 392.829 484.5 263.829C484.5 135.729 380.3 31.5293 250.4 31.5293C235.4 31.5293 221.3 32.4293 208 35.9293V96.0293C222.1 91.6293 236.3 89.8293 250.4 89.8293C347.6 89.8293 425.3 168.429 425.3 264.729C425.3 361.029 347.6 439.629 250.4 439.629C154.1 439.629 76.3996 361.029 76.3996 264.729C76.3996 248.829 62.2996 235.629 46.3996 235.629C30.4996 235.629 18.0996 247.929 18.0996 263.829Z" fill="#0597FF"/>
<path d="M134.7 263.829C134.7 328.329 187.7 380.429 251.3 380.429C315.8 380.429 368.8 328.329 368.8 263.829C368.8 199.329 315.8 147.229 251.3 147.229H76.4004L105.5 205.529H250.4C283.1 205.529 308.7 231.129 308.7 262.929C308.7 295.629 283.1 321.229 250.4 321.229C218.6 321.229 193 295.629 193 262.929V218.729H134.7V263.829Z" fill="#0597FF"/>
<path d="M193 30.6301C193 14.7301 179.8 2.33008 163.9 2.33008C148 2.33008 134.8 15.5301 134.8 30.6301V132.23H193C193 132.23 193 31.5301 193 30.6301Z" fill="#0597FF"/>
</svg>
