<svg width="500" height="501" viewBox="0 0 500 501" fill="none" xmlns="http://www.w3.org/2000/svg">
<path d="M339.797 44.9922L414.424 79.9799L488.445 180.089L250 452.912L8.32422 179.887L85.7827 80.9909L165.668 44.9922H339.797Z" fill="white"/>
<path d="M495.664 180.555C413.936 273.387 332.363 366.044 249.981 459.619C167.785 366.249 86.1038 273.464 4.21484 180.443C19.7603 160 35.1546 139.793 50.5056 119.553C59.8316 107.258 69.2866 95.0519 78.2941 82.5257C82.5118 76.6601 88.8181 74.4849 94.7348 71.6604C115.205 61.8876 135.844 52.4689 156.347 42.7639C159.661 41.1954 162.952 40.3647 166.568 40.3652C223.615 40.3757 280.663 40.3846 337.71 40.3379C346.805 40.3304 353.717 45.9996 361.37 49.4709C379.742 57.8039 397.706 67.0334 415.921 75.7189C418.315 76.8604 420.188 78.3299 421.671 80.3354C446.201 113.516 470.696 146.723 495.664 180.555ZM226.296 417.465C226.363 417.774 226.43 418.082 226.335 417.644C226.371 418.127 226.35 417.849 226.329 417.571C221.528 409.215 216.468 401.019 211.748 392.603C185.977 346.646 159.826 300.903 134.014 254.97C129.927 247.696 125.16 241.972 117.341 238.2C97.6398 228.695 78.3028 218.434 58.8351 208.446C48.5428 203.166 38.2823 197.824 26.6273 191.797C28.2248 194.228 28.7823 195.347 29.5808 196.252C50.9593 220.506 72.4148 244.692 93.7504 268.983C134.604 315.498 175.351 362.107 216.295 408.542C219.2 411.836 221.478 416.171 226.296 417.465ZM135.128 239.718C173.16 306.706 211.18 373.673 249.686 441.495C251.247 439.242 251.891 438.457 252.379 437.585C261.84 420.689 271.29 403.786 280.727 386.877C307.523 338.86 334.27 290.815 361.193 242.87C363.148 239.39 363.228 236.359 362.235 232.771C355.84 209.67 349.56 186.537 343.208 163.424C339.63 150.405 335.986 137.403 332.298 124.128C277.853 124.128 223.82 124.128 168.538 124.128C157.534 162.199 146.453 200.535 135.128 239.718ZM405.054 81.6299C403.43 80.1831 402.917 79.4824 402.226 79.1471C384.794 70.6761 367.369 62.1902 349.878 53.8417C345.424 51.7159 341.225 49.1332 335.835 49.1464C280.042 49.2832 224.248 49.2382 168.455 49.2249C165.504 49.2242 162.774 49.6429 160.013 50.9696C148.564 56.4711 136.986 61.7049 125.484 67.0984C114.838 72.0909 104.227 77.1617 93.8096 82.0992C94.0381 84.2904 95.2026 84.7534 96.3761 85.2506C118.836 94.7617 141.3 104.263 163.735 113.832C165.735 114.684 167.743 114.913 169.836 114.91C217.271 114.844 264.714 114.213 312.134 115.008C328.814 115.287 343.76 111.994 358.01 103.92C360.543 102.486 363.282 101.417 365.921 100.168C378.655 94.1382 391.387 88.1046 405.054 81.6299ZM370.987 231.899C409.044 213.802 445.831 196.308 483.279 178.5C460.375 147.579 438.081 117.483 415.253 86.6654C390.236 98.4461 365.688 110.005 340.895 121.68C350.956 158.531 360.808 194.615 370.987 231.899ZM84.2128 89.6897C61.9373 119.042 40.0083 147.938 17.6861 177.352C54.7636 196.422 90.7283 214.92 127.675 233.922C138.602 195.885 149.229 158.894 159.906 121.731C133.932 110.736 109.26 100.292 84.2128 89.6897ZM275.001 414.458C275.631 414.894 276.26 415.331 276.89 415.768C341.116 342.81 405.342 269.852 469.643 196.808C467.26 195.14 465.852 196.495 464.452 197.159C436.043 210.645 407.704 224.278 379.216 237.593C374.198 239.939 370.816 243.173 368.164 247.956C341.72 295.64 315.14 343.249 288.56 390.858C284.138 398.779 279.526 406.594 275.001 414.458Z" fill="#494949"/>
<path d="M193.159 285.469C211.254 284.216 211.182 288.1 211.034 266.594C210.907 248.003 210.978 229.41 210.959 210.818C210.949 201.12 208.371 198.525 198.818 198.334C195.929 198.276 192.976 198.897 189.42 197.537C188.312 192.585 188.627 187.343 189.38 181.188C200.128 181.188 210.654 181.188 221.503 181.188C224.178 171.962 221.373 163.077 223.361 154.35C228.618 153.26 233.664 153.212 239.504 154.47C239.504 162.635 239.504 170.669 239.504 178.628C244.01 180.536 247.817 180.018 252.034 179.311C253.803 171.061 251.607 162.66 253.29 154.352C258.438 152.967 263.369 153.845 268.866 153.73C270.819 162.596 268.753 171.4 270.241 180.344C277.397 181.73 284.627 182.491 291.395 185.307C312.798 194.215 317.308 216.932 300.778 233.243C299.853 234.156 299.067 235.018 299.038 236.715C304.274 239.072 309.74 241.152 313.613 245.768C329.103 264.23 318.742 295.034 294.934 301.065C287.07 303.057 279.268 305.51 270.57 304.732C268.737 313.795 270.76 322.595 269.279 331.653C263.939 333.218 258.732 332.787 252.917 331.644C252.917 323.341 252.917 315.301 252.917 307.66C249.079 303.741 245.054 305.507 240.736 305.041C238.661 314.063 241.234 322.883 239.463 331.761C234.042 332.599 228.79 332.806 222.827 331.399C222.827 322.776 222.827 314.313 222.827 304.956C211.62 304.956 201.103 304.956 189.805 304.956C190.321 297.728 190.508 291.484 193.159 285.469ZM240.36 285.039C252.65 285.178 264.128 285.995 275.197 282.051C281.46 279.819 286.093 275.848 287.058 268.813C287.884 262.792 285.393 257.858 280.45 254.924C268.013 247.541 254.358 248.327 240.36 249.077C240.36 261.411 240.36 272.774 240.36 285.039ZM240.291 232.213C250.037 232.891 258.94 232.83 267.608 230.157C274.534 228.022 278.782 222.831 279.022 216.818C279.292 210.01 275.841 204.766 268.704 202.062C259.552 198.594 250.075 199.094 240.291 199.86C240.291 210.793 240.291 221.1 240.291 232.213Z" fill="#FCC72B"/>
</svg>
