<svg width="500" height="501" viewBox="0 0 500 501" fill="none" xmlns="http://www.w3.org/2000/svg">
<path d="M66.2801 245.359C66.0756 246.087 66.1143 246.821 66.2338 247.557C65.7678 249.808 66.0801 252.084 66.0408 254.347C65.9851 257.575 66.0481 260.805 66.4618 264.015C66.3943 264.838 66.3891 265.658 66.5843 266.468C66.7068 271.3 67.3993 276.072 68.1338 280.836C68.5268 283.385 68.7141 285.978 69.5331 288.451C69.5523 288.659 69.5716 288.867 69.5908 289.075C69.5846 289.929 69.7801 290.736 70.1701 291.495C70.2033 291.707 70.2368 291.919 70.2701 292.131C70.9211 296.561 72.2901 300.816 73.4831 305.111C74.4188 308.48 75.3706 311.852 76.8243 315.051L76.8231 315.048C78.3476 319.999 80.3251 324.768 82.6358 329.401L82.6371 329.403C83.7946 332.395 85.1253 335.303 86.8798 338.001L86.8593 337.976C86.8571 338.448 87.0618 338.814 87.4338 339.095L87.4273 339.184C87.9053 340.432 88.5433 341.594 89.3156 342.683C89.3001 342.768 89.3346 342.822 89.4188 342.844C90.2966 344.874 91.4483 346.743 92.7613 348.517L92.7323 348.592L92.7993 348.637C92.8718 348.747 92.9441 348.858 93.0166 348.969L93.0093 348.963C94.7733 352.209 96.7483 355.316 99.0801 358.189L99.0591 358.172C99.1658 358.395 99.2471 358.635 99.3821 358.84C102.156 363.029 105.259 366.976 108.467 370.829C111.41 374.363 114.343 377.924 117.777 381.018L117.782 381.028C118.268 381.759 118.872 382.372 119.606 382.856C119.71 382.961 119.814 383.066 119.918 383.17C120.016 383.272 120.114 383.374 120.212 383.476L120.215 383.48C120.317 383.578 120.419 383.677 120.521 383.775L120.528 383.779C120.733 384.182 121.052 384.471 121.439 384.692L121.443 384.699C121.542 384.8 121.642 384.901 121.741 385.003L121.744 385.005C122.231 385.735 122.894 386.284 123.592 386.796L123.62 386.819C123.744 387.081 123.888 387.323 124.212 387.369L124.302 387.433L124.354 387.564L124.491 387.578C124.475 387.68 124.518 387.736 124.619 387.748C124.671 387.813 124.723 387.878 124.775 387.943C124.82 388.043 124.897 388.091 125.006 388.087C125.105 388.442 125.315 388.672 125.701 388.701L125.685 388.691C125.768 389.132 126.128 389.367 126.425 389.631C131.612 394.253 136.979 398.655 142.628 402.704C143.057 403.011 143.578 403.231 143.699 404.021C143.09 404.021 142.592 404.021 142.095 404.021C97.4248 404.015 52.7548 404.01 8.08481 404.002C7.17031 404.002 6.25581 403.966 5.34131 403.947C5.34131 303.332 5.34131 202.717 5.34131 102.101C51.3903 102.106 97.4391 102.111 143.488 102.115C143.589 102.115 143.691 102.098 143.792 102.09C143.786 102.715 143.197 102.822 142.846 103.129C141.77 104.069 140.444 104.693 139.478 105.776L139.468 105.783C135.224 108.701 131.287 111.993 127.572 115.556L127.557 115.568C127.384 115.667 127.186 115.738 127.042 115.868C118.047 123.965 109.921 132.864 102.678 142.555C100.651 145.267 98.5186 147.92 96.9366 150.942L96.9533 150.927C95.9318 151.802 95.4101 153.037 94.7228 154.137C92.7421 157.307 90.6316 160.405 89.0761 163.824L89.0628 163.84C88.5371 164.329 88.3261 164.983 88.1213 165.64L88.1271 165.636C86.1053 168.7 84.5293 171.987 83.2231 175.41L83.2331 175.403C83.1183 175.557 82.9746 175.697 82.8933 175.867C78.8951 184.233 75.7666 192.926 73.1828 201.818C70.7256 210.275 68.8948 218.872 67.7506 227.604C67.1766 231.986 66.4866 236.364 66.5278 240.805C66.5138 241.115 66.5001 241.426 66.4861 241.736C66.2108 242.408 66.2728 243.1 66.3593 243.794C66.1208 244.225 66.1646 244.668 66.2976 245.116C66.2103 245.191 66.2048 245.272 66.2801 245.359ZM433.066 238.974C433.212 239.431 433.259 239.889 433.091 240.352C433.718 242.7 433.598 245.096 433.546 247.488C433.752 248.524 433.706 249.563 433.59 250.603C433.718 252.217 433.72 253.831 433.586 255.444C433.586 255.664 433.586 255.884 433.586 256.104C433.583 259.216 433.856 262.344 433.091 265.417C433.255 265.728 433.21 266.038 433.093 266.349C433.226 266.511 433.215 266.666 433.073 266.816C433.072 266.994 433.071 267.173 433.069 267.351C433.091 271.089 432.44 274.764 431.982 278.454C431.816 279.793 431.747 281.165 431.254 282.451C431.317 282.521 431.315 282.59 431.248 282.656C431.231 282.757 431.214 282.859 431.197 282.961C431.179 283.166 431.161 283.371 431.142 283.576C430.583 287.49 429.943 291.388 428.779 295.178C428.768 295.282 428.758 295.386 428.747 295.49C428.673 296.237 428.54 296.968 428.142 297.624C428.12 297.83 428.098 298.035 428.076 298.241C427.07 302.987 425.558 307.588 424.049 312.189C423.487 313.904 423.001 315.653 422.08 317.23C422.107 317.329 422.088 317.417 422.021 317.495C420.933 321.363 419.172 324.965 417.559 328.622C417.076 329.718 416.748 330.908 415.958 331.858L415.96 331.855C414.701 335.047 413.122 338.076 411.321 340.993C411.328 341.256 411.241 341.471 411.004 341.608C408.737 346.12 406.166 350.447 403.16 354.51L403.177 354.496C401.707 357.286 399.77 359.764 397.904 362.283C395.044 366.144 392.217 370.038 388.831 373.475C388.832 373.475 388.845 373.467 388.845 373.467C386.11 376.925 383.103 380.131 379.889 383.145L379.87 383.161C379.125 384.031 378.388 384.909 377.435 385.569L377.395 385.592C376.576 386.502 375.816 387.474 374.721 388.088L374.733 388.077C374.641 388.405 374.462 388.638 374.097 388.674L374.095 388.675C373.512 389.435 372.89 390.151 371.976 390.534L371.985 390.527C369.755 393.038 367.036 394.994 364.466 397.115C363.144 398.206 361.722 399.176 360.345 400.2C360.309 400.295 360.241 400.334 360.142 400.317C359.116 401.3 358.012 402.174 356.717 402.783L356.736 402.766C356.453 403.096 356.171 403.427 355.674 404.008C356.774 404.008 357.612 404.008 358.449 404.008C403.026 404.007 447.603 404.006 492.179 404.002C492.84 404.002 493.5 403.967 494.16 403.948C494.16 303.332 494.16 202.717 494.16 102.102C448.094 102.102 402.028 102.102 355.571 102.102C356.067 102.518 356.205 102.65 356.359 102.76C361.731 106.592 366.875 110.711 371.809 115.088C382.105 124.22 391.249 134.4 399.273 145.576C405.596 154.383 411.086 163.691 415.766 173.476C420.291 182.937 423.987 192.711 426.827 202.805C427.83 206.369 428.868 209.931 429.393 213.611C430.418 217.098 431.007 220.665 431.383 224.273C431.415 224.494 431.447 224.716 431.479 224.938C432.4 229.572 432.99 234.244 433.066 238.974ZM252.255 403.899C332.966 402.811 401.391 336.387 400.305 250.621C399.284 169.951 333.065 100.84 247.18 102.151C166.5 103.382 99.3473 169.653 99.4423 253.134C99.2941 335.547 166.485 405.054 252.255 403.899ZM297.54 231.697C304.284 232.626 310.414 234.832 315.21 239.984C318.475 243.493 320.503 247.656 321.971 252.126C325.075 261.581 325.307 270.995 321.272 280.274C317.835 288.178 311.856 293.62 304.394 297.644C297.887 301.153 290.963 303.64 284.045 306.152C283.859 306.22 283.681 306.309 283.247 306.498C284.531 315.632 287.384 324.419 289.643 333.552C284.227 335.378 278.7 336.512 273.028 337.793C270.438 329.03 268.657 320.223 266.154 311.438C261.694 311.515 257.706 313.247 253.375 314.085C255.029 323.264 258.046 331.928 259.758 341.099C254.476 342.844 248.933 343.353 243.512 345.294C240.645 336.402 238.836 327.352 236.517 318.143C225.462 320.333 214.584 323.081 203.572 326.097C202.433 319.289 202.443 312.528 201.714 305.801C202.744 304.761 204.097 304.635 205.352 304.367C207.389 303.933 209.46 303.657 211.504 303.249C217.318 302.089 219.273 299.153 218.138 293.321C217.156 288.275 215.41 283.432 214.18 278.452C212.377 271.153 210.587 263.851 208.77 256.556C207.26 250.494 205.713 244.442 204.195 238.384C202.898 233.21 201.714 228.006 200.301 222.865C199.009 218.163 196.366 216.289 191.652 216.355C189.856 216.38 188.133 216.845 186.413 217.292C183.379 218.08 180.477 219.34 177.221 219.918C175.108 214.232 174.248 208.223 172.322 202.199C183.334 199.181 194.404 196.612 205.555 193.839C203.284 184.791 201.064 175.945 198.818 166.997C204.289 165.272 209.844 164.298 215.399 162.653C217.774 171.359 219.919 180.057 221.945 188.969C226.104 187.894 230.148 187.016 234.316 185.657C233.3 176.781 230.023 168.443 228.403 159.552C233.793 157.963 239.147 156.545 244.683 155.413C247.61 164.26 249.216 173.277 251.807 182.11C255.024 181.857 258.153 181.604 261.283 181.366C267.796 180.872 274.281 180.792 280.663 182.54C287.263 184.349 292.209 188.265 295.691 194.124C298.887 199.502 301.078 205.176 300.953 211.544C300.816 218.538 298.146 224.457 293.258 229.413C292.866 229.811 292.483 230.218 292.107 230.631C292.049 230.695 292.054 230.816 291.982 231.1C293.853 231.298 295.704 231.444 297.54 231.697ZM255.914 292.085C263.006 290.339 270.11 288.626 276.703 285.346C281.441 282.99 285.712 280.148 288.349 275.28C292.592 267.447 290.171 258.343 282.587 254.385C278.51 252.257 274.083 251.696 269.561 251.865C261.172 252.179 253.108 254.284 245.068 256.48C243.227 256.983 241.401 257.543 239.351 258.14C243.043 269.977 245.298 282.013 248.578 293.911C251.191 293.26 253.551 292.666 255.914 292.085ZM235.648 241.339C237.445 240.947 239.078 240.613 240.7 240.234C248.307 238.455 255.609 235.896 262.136 231.496C265.097 229.5 267.701 227.089 269.271 223.788C271.79 218.49 270.227 213.723 266.981 209.411C263.739 205.104 258.971 203.752 253.821 203.515C248.479 203.269 243.297 204.365 238.16 205.634C234.621 206.509 231.129 207.571 227.375 208.616C229.84 219.753 232.569 230.544 235.648 241.339Z" fill="#4CC847"/>
</svg>
