<svg width="500" height="501" viewBox="0 0 500 501" fill="none" xmlns="http://www.w3.org/2000/svg">
<path d="M470.4 261.73L261.1 382.83C254.2 386.83 245.7 386.83 238.8 382.93L143.4 329.03C134.1 323.73 128.4 313.93 128.4 303.23V197.83C128.4 187.53 133.8 178.03 142.7 172.83L235.4 118.13C243.1 113.63 252.5 113.53 260.3 117.83L309.1 145.03C311.5 146.33 311.5 149.83 309.1 151.13L200.6 213.23C196.4 215.63 193.8 220.03 193.8 224.83V275.53C193.8 279.13 195.7 282.53 198.8 284.43L243.6 311.13C247.5 313.53 252.5 313.53 256.4 311.23L442.4 203.83C479.7 182.33 479.6 128.43 442.3 107.03L270.5 8.43008C257.8 1.13008 242.2 1.13008 229.5 8.43008L52.8 110.03C38.7 118.13 30 133.13 30 149.43V352.33C30 367.03 37.8 380.63 50.5 388.13L224.2 490.13C239.6 499.13 258.6 499.23 274.1 490.33L447.9 389.83C461.9 381.73 470.5 366.83 470.5 350.63V261.73H470.4Z" fill="url(#paint0_linear_1_963)"/>
<defs>
<linearGradient id="paint0_linear_1_963" x1="250.235" y1="496.927" x2="250.235" y2="2.94919" gradientUnits="userSpaceOnUse">
<stop stop-color="#1DADE2"/>
<stop offset="1" stop-color="#2155AC"/>
</linearGradient>
</defs>
</svg>
