<svg width="500" height="501" viewBox="0 0 500 501" fill="none" xmlns="http://www.w3.org/2000/svg">
<path d="M250.02 493.85C384.667 493.85 493.82 384.697 493.82 250.05C493.82 115.403 384.667 6.25 250.02 6.25C115.373 6.25 6.22021 115.403 6.22021 250.05C6.22021 384.697 115.373 493.85 250.02 493.85Z" fill="#F04086"/>
<path d="M366.24 261.849C356.4 251.049 342.24 244.289 323.74 241.589V241.189C339.94 238.569 352.68 231.929 361.34 221.309C370.12 210.749 374.9 197.449 374.82 183.709C374.82 160.889 367.46 145.369 352.24 133.169C337.04 120.969 314.18 116.969 283.24 116.969H166.32V225.769H99.1802V267.429H282.42C296.84 267.429 307.68 268.449 314.82 274.209C321.98 279.969 325.64 287.429 325.64 298.449C325.64 309.469 322.02 318.869 314.82 324.769C307.62 330.669 296.78 334.569 282.42 334.569H219.56V302.169H166.32V376.249H287.04C317.74 376.249 341.2 368.249 357.48 355.789C373.76 343.329 381.4 324.929 381.4 302.369C381.62 287.429 376.2 272.969 366.24 261.849ZM275.74 225.689H219.58V158.549H275.74C304.6 158.549 319.02 169.829 319.02 192.109C319.02 214.389 304.6 225.689 275.74 225.689Z" fill="white"/>
</svg>
