<svg width="500" height="501" viewBox="0 0 500 501" fill="none" xmlns="http://www.w3.org/2000/svg">
<path d="M249.6 216.93C267.9 216.93 282.7 231.73 282.7 250.03C282.7 268.33 267.9 283.03 249.6 283.03C231.3 283.03 216.5 268.23 216.5 249.93C216.5 231.63 231.3 216.93 249.6 216.93ZM249.6 197.33C220.6 197.33 196.9 220.93 196.9 250.03C196.9 279.03 220.5 302.73 249.6 302.73C278.7 302.73 302.3 279.13 302.3 250.03C302.3 220.93 278.6 197.33 249.6 197.33Z" fill="#00FFF4"/>
<path d="M249.6 82.7289C267.9 82.7289 282.7 97.5289 282.7 115.829C282.7 134.129 267.9 148.929 249.6 148.929C231.3 148.929 216.5 134.129 216.5 115.829C216.5 97.5289 231.3 82.7289 249.6 82.7289ZM249.6 63.1289C220.6 63.1289 196.9 86.7289 196.9 115.829C196.9 144.929 220.5 168.529 249.6 168.529C278.7 168.529 302.3 144.929 302.3 115.829C302.3 86.7289 278.6 63.1289 249.6 63.1289Z" fill="#02CEC8"/>
<path d="M249.6 351.029C267.9 351.029 282.7 365.829 282.7 384.129C282.7 402.429 267.9 417.229 249.6 417.229C231.3 417.229 216.5 402.429 216.5 384.129C216.5 365.829 231.3 351.029 249.6 351.029ZM249.6 331.529C220.6 331.529 196.9 355.129 196.9 384.229C196.9 413.229 220.5 436.929 249.6 436.929C278.7 436.929 302.3 413.329 302.3 384.229C302.3 355.129 278.6 331.529 249.6 331.529Z" fill="#02CEC8"/>
<path d="M393.8 166.73C403.1 182.53 397.8 202.73 382.1 212.03C366.3 221.33 346.1 216.03 336.8 200.33C327.5 184.53 332.8 164.33 348.5 155.03C364.2 145.73 384.5 150.93 393.8 166.73ZM410.7 156.73C396 131.73 363.6 123.33 338.6 138.03C313.6 152.73 305.2 185.13 319.9 210.13C334.6 235.13 367 243.53 392 228.83C417 214.13 425.4 181.83 410.7 156.73Z" fill="#02CEC8"/>
<path d="M161 301.229C170.3 317.029 165 337.229 149.3 346.529C133.6 355.829 113.3 350.529 104 334.829C94.7 319.029 100 298.829 115.7 289.529C131.4 280.229 151.7 285.429 161 301.229ZM177.8 291.329C163.1 266.329 130.7 257.929 105.7 272.629C80.7 287.329 72.3 319.729 87 344.729C101.7 369.729 134.1 378.129 159.1 363.429C184.2 348.629 192.6 316.329 177.8 291.329Z" fill="#02CEC8"/>
<path d="M394.2 334.13C385.2 350.03 365 355.63 349.1 346.63C333.2 337.63 327.6 317.43 336.6 301.53C345.6 285.63 365.8 280.03 381.7 289.03C397.6 298.03 403.2 318.13 394.2 334.13ZM411.2 343.73C425.5 318.43 416.6 286.23 391.3 271.93C366 257.63 333.8 266.53 319.5 291.83C305.2 317.13 314.1 349.33 339.4 363.63C364.7 377.93 396.9 369.03 411.2 343.73Z" fill="#02CEC8"/>
<path d="M161.1 199.928C152.1 215.828 131.9 221.428 116 212.428C100.1 203.428 94.4999 183.228 103.5 167.328C112.5 151.428 132.7 145.828 148.6 154.828C164.5 163.828 170.1 184.028 161.1 199.928ZM178.2 209.628C192.5 184.328 183.6 152.128 158.3 137.828C133 123.528 100.8 132.428 86.4999 157.728C72.1999 183.028 81.0999 215.228 106.4 229.528C131.7 243.828 163.9 234.828 178.2 209.628Z" fill="#02CEC8"/>
<path d="M249.5 39.8293C259.662 39.8293 267.9 31.5913 267.9 21.4293C267.9 11.2673 259.662 3.0293 249.5 3.0293C239.338 3.0293 231.1 11.2673 231.1 21.4293C231.1 31.5913 239.338 39.8293 249.5 39.8293Z" fill="#007C82"/>
<path d="M448.1 155.329C458.262 155.329 466.5 147.091 466.5 136.929C466.5 126.767 458.262 118.529 448.1 118.529C437.938 118.529 429.7 126.767 429.7 136.929C429.7 147.091 437.938 155.329 448.1 155.329Z" fill="#007C82"/>
<path d="M448.1 382.029C458.262 382.029 466.5 373.791 466.5 363.629C466.5 353.466 458.262 345.229 448.1 345.229C437.938 345.229 429.7 353.466 429.7 363.629C429.7 373.791 437.938 382.029 448.1 382.029Z" fill="#007C82"/>
<path d="M249.8 497.23C259.962 497.23 268.2 488.992 268.2 478.83C268.2 468.668 259.962 460.43 249.8 460.43C239.638 460.43 231.4 468.668 231.4 478.83C231.4 488.992 239.638 497.23 249.8 497.23Z" fill="#007C82"/>
<path d="M51.2999 381.63C61.4619 381.63 69.6999 373.392 69.6999 363.23C69.6999 353.068 61.4619 344.83 51.2999 344.83C41.1379 344.83 32.8999 353.068 32.8999 363.23C32.8999 373.392 41.1379 381.63 51.2999 381.63Z" fill="#007C82"/>
<path d="M51.2999 155.029C61.4619 155.029 69.6999 146.791 69.6999 136.629C69.6999 126.466 61.4619 118.229 51.2999 118.229C41.1379 118.229 32.8999 126.466 32.8999 136.629C32.8999 146.791 41.1379 155.029 51.2999 155.029Z" fill="#007C82"/>
</svg>
