<svg width="500" height="501" viewBox="0 0 500 501" fill="none" xmlns="http://www.w3.org/2000/svg">
<g clip-path="url(#clip0_1_982)">
<path d="M169.2 173.029H315C341.1 173.029 365.8 179.229 387.7 190.129C389.1 181.529 389.9 172.629 389.9 163.529C389.9 73.2293 316.7 0.0292969 226.4 0.0292969H80.6C47.9 0.0292969 21.5 26.5293 21.5 59.1293V267.929C21.5 300.529 48 327.029 80.6 327.029H110.1V232.129C110.1 199.529 136.5 173.029 169.2 173.029Z" fill="#00CDAA"/>
<path d="M387.8 190.129C375.1 267.729 307.7 327.029 226.4 327.029H110.1V440.929C110.1 473.529 136.6 500.029 169.2 500.029H315C405.3 500.029 478.5 426.829 478.5 336.529C478.5 272.329 441.6 216.829 387.8 190.129Z" fill="#00B2F9"/>
</g>
<defs>
<clipPath id="clip0_1_982">
<rect width="500" height="500" fill="white" transform="translate(0 0.0292969)"/>
</clipPath>
</defs>
</svg>
