<svg width="500" height="501" viewBox="0 0 500 501" fill="none" xmlns="http://www.w3.org/2000/svg">
<g clip-path="url(#clip0_1_985)">
<path d="M249.5 500.029C387.6 500.029 499.5 388.129 499.5 250.029C499.5 111.929 387.6 0.0292969 249.5 0.0292969C111.4 0.0292969 -0.5 111.929 -0.5 250.029C-0.5 388.129 111.4 500.029 249.5 500.029Z" fill="#231F20"/>
<path d="M336.1 238.929C333.2 238.129 330.9 241.429 332.8 243.829C337.7 250.029 340.3 256.629 340.3 263.429C340.3 299.629 267 328.929 176.6 328.929C150.7 328.929 126.2 326.529 104.4 322.229C101.7 321.729 100.2 325.229 102.6 326.729C131.4 345.429 183.1 357.929 242.1 357.929C332.5 357.929 405.8 328.629 405.8 292.429C405.7 270.329 378.2 250.729 336.1 238.929Z" fill="url(#paint0_linear_1_985)"/>
<path d="M307.9 141.929C305.4 141.229 303.4 144.129 305.1 146.129C309.3 151.429 311.5 157.129 311.5 162.929C311.5 193.929 248.8 218.929 171.4 218.929C149.2 218.929 128.3 216.929 109.7 213.129C107.4 212.629 106.2 215.729 108.1 217.029C132.8 233.029 177 243.729 227.4 243.729C304.8 243.729 367.5 218.629 367.5 187.729C367.5 168.829 344 152.029 307.9 141.929Z" fill="url(#paint1_linear_1_985)"/>
</g>
<defs>
<linearGradient id="paint0_linear_1_985" x1="101.368" y1="298.366" x2="405.7" y2="298.366" gradientUnits="userSpaceOnUse">
<stop stop-color="#8077F2"/>
<stop offset="1" stop-color="#FFB29B"/>
</linearGradient>
<linearGradient id="paint1_linear_1_985" x1="107.129" y1="192.853" x2="367.526" y2="192.853" gradientUnits="userSpaceOnUse">
<stop stop-color="#8077F2"/>
<stop offset="1" stop-color="#FFB29B"/>
</linearGradient>
<clipPath id="clip0_1_985">
<rect width="500" height="500" fill="white" transform="translate(0 0.0292969)"/>
</clipPath>
</defs>
</svg>
