<svg width="500" height="501" viewBox="0 0 500 501" fill="none" xmlns="http://www.w3.org/2000/svg">
<g clip-path="url(#clip0_1_993)">
<path d="M409.5 279.529C407.4 279.428 405.5 279.428 403 282.129C398.2 287.428 393 292.428 387.3 297.029L384.4 299.328L383.5 300.029C381.8 301.428 381.2 303.029 381.5 305.129C381.6 305.629 381.7 306.129 381.8 306.629C381.9 307.129 382.1 307.629 382.2 308.129C382.7 309.928 383.2 311.728 383.6 313.428L383.7 313.729C384.2 316.229 384.7 318.828 385.1 321.328L385.3 322.328C385.6 324.529 385.9 326.928 386.1 329.428L386.2 330.029C386.2 330.328 386.3 330.629 386.3 330.928C386.5 333.928 386.6 336.828 386.6 339.428C386.6 405.229 333.1 458.729 267.3 458.729H121.1H120.9C116.8 458.629 113.6 455.428 113.5 451.328V451.129V325.428V325.229C113.6 321.129 116.9 317.828 120.9 317.828H121H267.2C270.9 317.828 274.8 317.628 279.2 317.328L280.6 317.229C284.2 316.929 287.9 316.529 291.8 315.828L293.5 315.529C297.2 314.928 300.9 314.128 304.5 313.328L305.8 313.029C309.7 312.029 313.4 311.029 316.9 309.828L317.2 309.729C324.8 307.129 332.3 304.029 339.6 300.328C343.1 298.529 346.7 296.529 350.1 294.428L350.4 294.229C353.8 292.129 357.2 289.828 360.3 287.529L369.4 280.328C380.6 271.228 390.2 260.729 397.9 248.929L398.2 248.629C399.1 247.329 400 245.829 400.9 244.429L401.8 242.929C417.5 217.729 425.8 188.829 425.8 159.229C425.8 71.8285 354.7 0.728516 267.3 0.728516H94.3H93.4C82.9 1.02852 74.4 9.52851 74.3 20.0285V20.4285V200.429C74.3 200.529 74.3 200.529 74.3 200.629V201.029C74.3 201.129 74.3 201.129 74.3 201.229C74.5 211.829 83.1 220.429 93.8 220.429H93.9H267.4C285.8 220.429 303.5 224.629 320.1 232.829C320.2 232.829 320.2 232.929 320.3 232.929C321.2 233.329 322.1 233.529 323.1 233.529C324.9 233.529 326.4 232.829 327.6 231.829C327.9 231.529 328.3 231.229 328.6 230.929C336.3 224.029 343.3 216.229 348.3 209.429C349.1 208.329 349.4 207.029 349.1 205.729C348.8 204.429 348.3 203.529 347.3 202.929C346.8 202.629 346.4 202.429 345.9 202.129C343.8 200.929 341.8 199.829 339.6 198.729C338.3 198.029 337.1 197.429 335.8 196.829C334.4 196.129 333 195.529 331.6 194.829C329.3 193.829 327 192.829 324.6 191.929C324.3 191.829 324 191.629 323.6 191.529C320.6 190.429 317.5 189.329 314.5 188.329C299.3 183.529 283.4 181.029 267.2 181.029H121.2H120.6C116.6 180.929 113.4 177.629 113.4 173.629V173.529V47.7285V47.4285C113.5 43.3285 116.8 40.1285 120.9 40.1285H267.2C270.1 40.1285 272.9 40.3285 275.7 40.5285H276.1C338 45.1285 386.5 97.3285 386.5 159.329C386.5 175.229 383.4 190.729 377.2 205.429C375.4 209.629 373.4 213.629 371.3 217.529L371.1 217.829C363.4 229.929 354.3 240.829 344.1 250.229C343.7 250.629 343.3 250.929 342.9 251.329L342.1 252.029C337.7 255.529 333.3 258.728 328.8 261.428C310.2 272.629 288.9 278.629 267.3 278.629H93.8H93.7H93.6C83 278.729 74.4 287.228 74.2 297.828C74.2 297.928 74.2 297.928 74.2 298.029V298.428C74.2 298.529 74.2 298.529 74.2 298.629V478.529C74.2 478.629 74.2 478.629 74.2 478.729C74.2 478.829 74.2 478.828 74.2 478.928C74.3 489.629 83 498.328 93.7 498.328H267.2C354.6 498.328 425.7 427.228 425.7 339.828C425.7 321.029 422.4 302.629 415.8 285.029C415.1 282.529 413.4 280.129 409.5 279.529Z" fill="url(#paint0_linear_1_993)"/>
</g>
<defs>
<linearGradient id="paint0_linear_1_993" x1="345.999" y1="34.3736" x2="78.6275" y2="492.313" gradientUnits="userSpaceOnUse">
<stop stop-color="#00C7FF"/>
<stop offset="0.1262" stop-color="#0FA2F6"/>
<stop offset="0.4052" stop-color="#3545E1"/>
<stop offset="0.6026" stop-color="#5100D1"/>
<stop offset="0.6722" stop-color="#4803BE"/>
<stop offset="0.8131" stop-color="#310B8D"/>
<stop offset="1" stop-color="#0F1644"/>
</linearGradient>
<clipPath id="clip0_1_993">
<rect width="500" height="500" fill="white" transform="translate(0 0.0292969)"/>
</clipPath>
</defs>
</svg>
