<svg width="500" height="501" viewBox="0 0 500 501" fill="none" xmlns="http://www.w3.org/2000/svg">
<path d="M249.9 496.928C386.093 496.928 496.5 386.522 496.5 250.329C496.5 114.135 386.093 3.72852 249.9 3.72852C113.707 3.72852 3.30005 114.135 3.30005 250.329C3.30005 386.522 113.707 496.928 249.9 496.928Z" fill="black"/>
<path d="M294 130.53C282.7 119.23 267.2 112.33 250 112.33H187.5C204.8 112.33 218.9 126.33 218.9 143.73V206.43V236.93H250C269.6 236.93 287 227.93 298.4 213.73C307 203.03 312.2 189.43 312.2 174.63C312.2 157.43 305.2 141.83 294 130.53Z" fill="#EA4300"/>
<path d="M320.5 229.23C314.1 222.83 306.6 217.53 298.4 213.73C287 227.83 269.5 236.93 250 236.93H218.9V206.43V143.73C218.9 126.43 204.9 112.33 187.5 112.33C186.6 112.33 185.8 112.33 185 112.43C168.9 113.73 156.2 127.23 156.2 143.73V362.43H163.6H218.9H265.5C308.6 362.43 343.5 327.53 343.5 284.43C343.3 262.83 334.6 243.33 320.5 229.23Z" fill="white"/>
</svg>
