<svg width="500" height="501" viewBox="0 0 500 501" fill="none" xmlns="http://www.w3.org/2000/svg">
<path d="M250 494.328C384.923 494.328 494.3 384.952 494.3 250.029C494.3 115.105 384.923 5.72852 250 5.72852C115.077 5.72852 5.69995 115.105 5.69995 250.029C5.69995 384.952 115.077 494.328 250 494.328Z" fill="#C6BCB0"/>
<path d="M250 467.029C369.846 467.029 467 369.875 467 250.029C467 130.184 369.846 33.0293 250 33.0293C130.154 33.0293 33 130.184 33 250.029C33 369.875 130.154 467.029 250 467.029Z" fill="#F8F0E5"/>
<path d="M173.9 160.33C173.9 153.43 173.8 147.63 173.9 141.83C174.3 124.63 187 112.43 204.6 112.43C222.3 112.43 235 124.43 235.3 141.73C235.4 147.53 235.3 153.33 235.3 159.73C246.3 159.73 257 159.73 268.7 159.73C268.7 154.33 268.7 148.73 268.7 143.23C268.8 124.83 281.1 112.53 299.2 112.43C317.6 112.43 330 124.93 330.1 143.53C330.1 148.93 330.1 154.23 330.1 160.33C343.4 160.33 356 160.33 368.7 160.33C384 160.33 390.2 167.93 387.1 183.13C384.4 196.13 378.5 207.53 369.3 216.93C362 224.43 354.4 231.43 346.7 238.43C341.5 243.23 338.9 248.53 339 255.93C339.4 279.73 339.2 303.43 339.1 327.23C339 367.13 309 397.43 269.2 397.53C251.7 397.53 234.1 398.43 216.8 396.33C183.8 392.33 159.1 363.13 158.8 329.73C158.6 304.93 158.6 280.13 158.9 255.33C159 248.93 156.6 244.03 152.3 239.83C144.5 232.33 136.5 225.03 128.8 217.43C120.4 209.03 114.8 198.83 111.6 187.43C110.6 183.63 110.1 179.63 110.2 175.73C110.4 165.63 115.7 160.43 125.8 160.33C139.3 160.23 152.9 160.33 166.4 160.33C168.6 160.33 170.9 160.33 173.9 160.33ZM221.6 189.93C203.6 189.93 186 189.73 168.3 190.23C166.2 190.33 163.2 193.63 162.4 196.03C161.6 198.73 162 202.73 163.5 205.03C168.4 212.33 173.5 219.73 179.6 226.03C185 231.63 188.1 237.13 188 245.13C187.7 272.63 187.8 300.13 187.9 327.63C188 350.43 204.3 367.43 226.8 368.13C241.8 368.53 256.8 368.53 271.8 368.03C289.5 367.53 304.5 355.33 308.4 338.43C309.7 332.83 309.2 326.83 310 321.13C310.8 315.03 308.6 312.33 302.6 310.03C258.7 292.93 231.1 261.73 223.3 214.63C222 206.73 222.2 198.53 221.6 189.93ZM307.8 267.83C308.2 260.53 302.7 254.43 295.5 254.03C288.4 253.63 282.1 259.33 281.7 266.43C281.3 273.53 286.9 279.83 294.1 280.13C301.4 280.53 307.5 275.03 307.8 267.83ZM214.9 160.03C214.9 153.53 215.3 147.23 214.8 141.13C214.3 135.43 210.2 133.03 204.7 133.03C199.3 133.03 195.1 135.43 194.7 141.23C194.3 147.43 194.6 153.63 194.6 160.03C201.6 160.03 207.9 160.03 214.9 160.03ZM309.4 160.03C309.4 153.53 309.7 147.33 309.3 141.13C308.9 135.23 304.8 133.03 299.3 133.03C293.8 133.03 289.7 135.43 289.3 141.13C288.8 147.23 289.2 153.53 289.2 160.03C296.2 160.03 302.5 160.03 309.4 160.03Z" fill="black"/>
<path d="M226.9 267.129C227 274.429 221.3 280.229 214 280.329C206.8 280.429 200.9 274.729 200.6 267.529C200.4 260.229 206.5 253.929 213.9 254.029C221.1 254.029 226.8 259.829 226.9 267.129Z" fill="black"/>
</svg>
