<svg width="500" height="501" viewBox="0 0 500 501" fill="none" xmlns="http://www.w3.org/2000/svg">
<path d="M250 498.13C387.022 498.13 498.1 387.052 498.1 250.03C498.1 113.008 387.022 1.92969 250 1.92969C112.978 1.92969 1.8999 113.008 1.8999 250.03C1.8999 387.052 112.978 498.13 250 498.13Z" fill="#ADFF00"/>
<path fill-rule="evenodd" clip-rule="evenodd" d="M101.1 129.63C101.1 129.73 101.1 183.93 101.1 250.13V370.53H153.2C195.4 370.53 205.6 370.53 206.9 370.33C207.8 370.23 209.4 370.03 210.5 369.83C211.5 369.63 213.3 369.33 214.3 369.03C215.3 368.73 217 368.23 218.1 367.93C219.1 367.53 220.9 366.93 222 366.43C223.1 365.93 224.7 365.13 225.6 364.73C226.5 364.23 228.1 363.23 229.3 362.53C230.4 361.73 232 360.63 232.8 360.03C233.6 359.43 235.1 358.03 236.2 357.03C237.2 356.03 238.7 354.43 239.5 353.43C240.3 352.53 241.4 351.03 242 350.23C242.6 349.43 243.4 348.13 243.9 347.33C244.4 346.53 245.2 345.03 245.7 343.93C246.2 342.83 247 341.13 247.4 340.13C247.8 339.13 248.4 337.43 248.7 336.43C249 335.43 249.4 334.03 249.6 333.13C249.8 332.33 250 330.93 250.2 330.03C250.3 329.13 250.5 327.83 250.6 327.13C250.7 326.23 250.8 319.93 250.8 305.23C250.8 291.33 250.8 283.93 250.7 282.53C250.6 281.33 250.4 279.63 250.3 278.73C250.1 277.83 249.8 276.33 249.6 275.53C249.4 274.63 248.9 273.33 248.7 272.63C248.4 271.93 247.8 270.43 247.3 269.43C246.8 268.43 245.8 266.73 245.1 265.63C244.4 264.63 243.6 263.43 243.3 263.03C243 262.63 242.3 261.83 241.7 261.23C241.1 260.63 240.1 259.63 239.4 259.03C238.7 258.43 237.6 257.53 236.9 256.93C236.2 256.43 235 255.63 234.2 255.13C233.4 254.63 232.1 253.93 231.2 253.53C230.3 253.13 229 252.53 228.3 252.33C227.6 252.03 226.2 251.63 225.2 251.33C224.2 251.03 223.2 250.73 223.2 250.73C223.2 250.73 223.2 250.33 223.2 249.33V247.93L224.3 247.53C224.9 247.33 225.9 246.83 226.7 246.53C227.4 246.13 228.5 245.53 229 245.23C229.6 244.83 230.4 244.23 230.9 243.83C231.4 243.43 232.3 242.63 232.8 242.03C233.4 241.43 234.1 240.53 234.5 240.13C234.8 239.63 235.4 238.83 235.8 238.23C236.2 237.63 236.7 236.63 237.1 235.93C237.4 235.23 237.9 234.13 238.1 233.33C238.4 232.53 238.7 231.23 238.9 230.43L239.2 228.93V201.43C239.2 175.53 239.2 173.83 239 172.13C238.9 171.13 238.6 169.73 238.5 168.93C238.4 168.13 238.1 166.93 237.9 166.23C237.7 165.53 237.3 164.03 237 163.03C236.7 162.03 236.1 160.43 235.7 159.53C235.3 158.63 234.6 157.13 234.1 156.13C233.6 155.13 232.8 153.63 232.3 152.83C231.8 152.03 231 150.73 230.5 150.03C230 149.33 229.1 148.13 228.5 147.43C227.9 146.73 226.7 145.33 225.8 144.43C224.9 143.43 223.5 142.13 222.7 141.43C221.9 140.73 220.6 139.73 219.8 139.13C219 138.53 217.5 137.53 216.5 136.83C215.5 136.23 213.6 135.23 212.3 134.53C211 133.93 209.1 133.03 208.1 132.73C207.1 132.33 205.4 131.83 204.4 131.53C203.4 131.23 201.7 130.83 200.6 130.63C199.5 130.43 197.9 130.13 197 130.03C195.5 129.83 192.2 129.83 148.4 129.73C110.4 129.53 101.2 129.53 101.1 129.63ZM268 129.63C268 129.73 268 137.43 268 146.83V163.83H285.2H302.4V146.73V129.63H285.2C271.6 129.53 268.1 129.53 268 129.63ZM337.1 129.63C337.1 129.73 337 145.23 337 164.03V198.23L302.5 198.33L268 198.43V284.53V370.63H285.2H302.4L302.5 301.83L302.6 233.03H319.7H336.8L336.9 301.83L337 370.63H371.5H406V353.43V336.23L388.8 336.13L371.6 336.03V284.43V232.83L388.8 232.73L406 232.63V215.43V198.23L388.8 198.13L371.6 198.03L371.5 163.73L371.4 129.43H354.3C340.7 129.53 337.2 129.53 337.1 129.63ZM190.7 164.23C191.2 164.33 192.2 164.63 192.8 164.83C193.4 165.03 194.4 165.43 195 165.73C195.6 166.03 196.6 166.63 197.1 166.93C197.6 167.33 198.6 168.03 199.2 168.63C199.8 169.23 200.7 170.13 201.1 170.73C201.5 171.33 202.1 172.23 202.4 172.63C202.7 173.13 203.1 173.93 203.3 174.53C203.5 175.03 203.8 176.03 204 176.73C204.2 177.43 204.4 178.63 204.5 179.43C204.6 180.53 204.6 186.23 204.6 199.23C204.6 215.93 204.5 217.63 204.3 218.73C204.2 219.33 203.9 220.43 203.7 221.03C203.5 221.73 203 222.73 202.7 223.43C202.4 224.13 201.7 225.13 201.3 225.73C200.9 226.33 200 227.33 199.4 227.93C198.8 228.53 197.7 229.43 197.1 229.83C196.5 230.23 195.5 230.83 194.8 231.13C194.2 231.43 193.2 231.83 192.6 232.03C192 232.23 191 232.43 190.3 232.63C189.2 232.83 187 232.83 162.3 232.83H135.5V198.53C135.5 179.63 135.5 164.13 135.5 164.13C135.6 164.03 140.8 163.93 162.6 164.03C188.2 163.93 189.8 164.03 190.7 164.23ZM202.4 267.53C202.9 267.63 203.8 267.93 204.4 268.13C205 268.33 206.1 268.73 206.8 269.13C207.5 269.53 208.6 270.13 209.2 270.63C209.8 271.03 210.7 271.83 211.2 272.33C211.7 272.83 212.5 273.73 212.8 274.23C213.2 274.73 213.8 275.73 214.2 276.43C214.6 277.13 215.1 278.33 215.3 279.13C215.6 279.93 215.9 281.13 216 281.93C216.2 283.13 216.2 285.73 216.2 301.83C216.2 317.23 216.2 320.53 216 321.53C215.9 322.23 215.7 323.33 215.5 323.93C215.3 324.53 215 325.53 214.7 326.13C214.4 326.73 213.8 327.73 213.4 328.43C212.9 329.13 212.1 330.13 211.7 330.63C211.2 331.13 210.3 331.93 209.7 332.43C209.1 332.93 208.1 333.53 207.4 333.93C206.7 334.33 205.7 334.83 205.1 335.03C204.5 335.23 203.4 335.53 202.8 335.73L201.7 336.03H168.7H135.7V301.83C135.7 283.03 135.7 267.53 135.7 267.43C135.8 267.33 142.2 267.23 168.6 267.33C199.1 267.33 201.5 267.33 202.4 267.53Z" fill="black"/>
</svg>
