<svg width="500" height="501" viewBox="0 0 500 501" fill="none" xmlns="http://www.w3.org/2000/svg">
<g clip-path="url(#clip0_1_1011)">
<path d="M251.4 500.029H164.9C154.3 500.029 145.8 491.429 145.8 480.929C145.8 470.329 154.4 461.829 164.9 461.829H251.4C329.2 461.829 392.5 398.529 392.5 320.729C392.5 242.929 329.2 179.629 251.4 179.629H204.9C194.4 179.629 185.8 188.229 185.8 198.729C185.8 209.229 194.4 217.829 204.9 217.829H250.1C306.7 217.829 352.8 263.929 352.8 320.529C352.8 377.129 306.7 423.229 250.1 423.229H124.2C93.8001 423.229 69.1001 398.529 69.1001 368.129V19.1293C69.1001 8.6293 77.7001 0.0292969 88.3001 0.0292969C98.9001 0.0292969 107.4 8.6293 107.4 19.1293V367.829C107.4 377.129 114.9 384.629 124.2 384.629H250.1C285.6 384.629 314.5 355.729 314.5 320.229C314.5 284.729 285.6 255.829 250.1 255.829H204.9C173.3 255.829 147.5 230.129 147.5 198.429C147.5 166.729 173.2 141.029 204.9 141.029H251.4C350.3 141.029 430.8 221.529 430.8 320.429C430.8 419.329 350.4 500.029 251.4 500.029Z" fill="#E64072"/>
</g>
<defs>
<clipPath id="clip0_1_1011">
<rect width="500" height="500" fill="white" transform="translate(0 0.0292969)"/>
</clipPath>
</defs>
</svg>
