<svg width="500" height="501" viewBox="0 0 500 501" fill="none" xmlns="http://www.w3.org/2000/svg">
<g clip-path="url(#clip0_1_1373)">
<path d="M250 262.297C266.775 262.297 280.374 248.698 280.374 231.923C280.374 215.148 266.775 201.549 250 201.549C233.225 201.549 219.626 215.148 219.626 231.923C219.626 248.698 233.225 262.297 250 262.297Z" fill="black"/>
<path d="M54.3221 158.908C68.5164 158.908 80.0231 147.401 80.0231 133.207C80.0231 119.013 68.5164 107.506 54.3221 107.506C40.1279 107.506 28.6211 119.013 28.6211 133.207C28.6211 147.401 40.1279 158.908 54.3221 158.908Z" fill="black"/>
<path d="M54.3221 384.375C68.5164 384.375 80.0231 372.868 80.0231 358.674C80.0231 344.479 68.5164 332.973 54.3221 332.973C40.1279 332.973 28.6211 344.479 28.6211 358.674C28.6211 372.868 40.1279 384.375 54.3221 384.375Z" fill="black"/>
<path d="M249.416 51.4313C263.61 51.4313 275.117 39.9246 275.117 25.7303C275.117 11.536 263.61 0.0292969 249.416 0.0292969C235.222 0.0292969 223.715 11.536 223.715 25.7303C223.715 39.9246 235.222 51.4313 249.416 51.4313Z" fill="black"/>
<path d="M445.677 158.908C459.872 158.908 471.378 147.401 471.378 133.207C471.378 119.013 459.872 107.506 445.677 107.506C431.483 107.506 419.977 119.013 419.977 133.207C419.977 147.401 431.483 158.908 445.677 158.908Z" fill="black"/>
<path d="M445.677 384.375C459.872 384.375 471.378 372.868 471.378 358.674C471.378 344.479 459.872 332.973 445.677 332.973C431.483 332.973 419.977 344.479 419.977 358.674C419.977 372.868 431.483 384.375 445.677 384.375Z" fill="black"/>
<path d="M249.416 500.029C263.61 500.029 275.117 488.522 275.117 474.328C275.117 460.134 263.61 448.627 249.416 448.627C235.222 448.627 223.715 460.134 223.715 474.328C223.715 488.522 235.222 500.029 249.416 500.029Z" fill="black"/>
<path d="M53.7383 146.278V344.432M446.262 127.586L445.678 352.831M250 17.7734L249.416 243.018M234.79 237.283L71.2853 349.222M235.339 32.2714L63.7273 131.336M236.507 464.28L64.8953 365.215M433.411 350.951L267.523 242.563M437.442 132.505L265.83 33.4404M437.442 362.879L265.83 461.944" stroke="black" stroke-width="10" stroke-miterlimit="10"/>
</g>
<defs>
<clipPath id="clip0_1_1373">
<rect width="500" height="500" fill="white" transform="translate(0 0.0292969)"/>
</clipPath>
</defs>
</svg>
