<svg width="500" height="501" viewBox="0 0 500 501" fill="none" xmlns="http://www.w3.org/2000/svg">
<g clip-path="url(#clip0_1_1386)">
<path d="M256.037 441.214C365.709 441.214 454.615 352.307 454.615 242.636C454.615 132.965 365.709 44.0586 256.037 44.0586C146.366 44.0586 57.46 132.965 57.46 242.636C57.46 352.307 146.366 441.214 256.037 441.214Z" fill="url(#paint0_linear_1_1386)"/>
<path d="M281.2 221.279C297.29 200.359 292.235 160.991 272.752 147.529C253.27 134.066 232.752 140.806 228.785 144.596C224.817 148.386 225 236.686 225 236.686C225 236.686 265.107 242.206 281.2 221.279ZM284.185 258.866C269.127 252.314 224.992 254.039 224.992 254.039C224.992 254.039 224.307 276.336 225.91 318.064C227.512 359.791 241.775 359.564 256.602 360.134C271.43 360.704 299.71 359.674 309.02 323.694C318.33 287.714 299.25 265.424 284.185 258.874" fill="black"/>
<path d="M250 0.0292969C111.93 0.0292969 0 111.959 0 250.029C0 388.099 111.93 500.029 250 500.029C388.07 500.029 500 388.102 500 250.029C500 111.957 388.073 0.0292969 250 0.0292969ZM351.547 179.964C352.235 221.689 315.855 233.414 315.855 233.414C315.855 233.414 330.682 219.084 329.992 182.382C329.302 145.679 301.717 127.552 301.717 127.552C301.717 127.552 350.86 138.239 351.547 179.964ZM187.982 375.999L137.635 378.414V373.817C137.635 373.817 168.443 370.712 168.443 316.689V178.639C168.443 132.889 137.635 124.959 137.635 124.959V120.824L187.982 123.234V375.999ZM268.443 378.584C246.545 378.759 205.91 375.769 205.91 375.769V123.584C232.695 123.237 242.062 119.617 264.13 122.719C286.198 125.822 305.168 147.377 310.34 168.929C315.512 190.482 309.997 210.999 302.922 222.204C295.847 233.409 280.337 241.174 280.337 241.174C280.337 241.174 303.788 249.104 312.068 255.999C320.348 262.894 336.378 281.689 330.17 322.554C323.963 363.419 290.337 378.414 268.44 378.584M326.635 369.279C326.635 369.279 350.51 348.932 349.46 307.677C348.41 266.422 326.635 247.029 326.635 247.029C326.635 247.029 371.545 258.067 372.06 307.204C372.575 356.342 326.635 369.279 326.635 369.279Z" fill="black"/>
</g>
<defs>
<linearGradient id="paint0_linear_1_1386" x1="161.072" y1="108.571" x2="352.342" y2="378.599" gradientUnits="userSpaceOnUse">
<stop stop-color="#DEB354"/>
<stop offset="1" stop-color="#C89550"/>
</linearGradient>
<clipPath id="clip0_1_1386">
<rect width="500" height="500" fill="white" transform="translate(0 0.0292969)"/>
</clipPath>
</defs>
</svg>
