<svg width="500" height="501" viewBox="0 0 500 501" fill="none" xmlns="http://www.w3.org/2000/svg">
<path d="M497.5 250.03L375.235 462.88H132.685L256.601 250.113L135.655 37.1797L374.505 37.7557L497.5 250.03ZM257.706 108.243C257.706 108.243 311.789 202.865 338.617 249.804C311.546 296.996 284.569 344.024 257.352 391.47C283.089 391.47 308.276 391.47 333.513 391.47C361.069 344.119 388.602 296.806 416.165 249.442C388.308 202.15 332.995 108.244 332.995 108.244L257.706 108.243Z" fill="#101341"/>
<path d="M113.687 56.2207L154.05 128.377L84.841 248.626L152.962 368.421L112.023 438.693L2.5 249.039L113.687 56.2207Z" fill="#8F8886"/>
</svg>
