<svg width="500" height="501" viewBox="0 0 500 501" fill="none" xmlns="http://www.w3.org/2000/svg">
<path d="M496.1 250.23C496.1 257.53 435.4 326.03 373.5 326.03C331.6 326.03 297.7 292.13 297.7 250.23C297.7 208.33 331.6 174.43 373.5 174.43C432 174.43 496.2 242.13 496.1 250.23Z" fill="#6066F1"/>
<path d="M249.6 4.5293C256.9 4.5293 325.4 65.2293 325.4 127.129C325.4 169.029 291.5 202.929 249.6 202.929C207.7 202.929 173.8 169.029 173.8 127.129C173.8 68.6293 241.5 4.5293 249.6 4.5293Z" fill="#6066F1"/>
<path d="M3.79992 250.429C3.79992 243.129 64.4999 174.629 126.4 174.629C168.3 174.629 202.2 208.529 202.2 250.429C202.2 292.329 168.3 326.229 126.4 326.229C67.8999 326.229 3.69992 258.529 3.79992 250.429Z" fill="#6066F1"/>
<path d="M250.3 496.129C243 496.129 174.5 435.428 174.5 373.529C174.5 331.629 208.4 297.729 250.3 297.729C292.2 297.729 326.1 331.629 326.1 373.529C326.1 432.029 258.4 496.129 250.3 496.129Z" fill="#6066F1"/>
</svg>
