<svg width="500" height="501" viewBox="0 0 500 501" fill="none" xmlns="http://www.w3.org/2000/svg">
<path d="M457.4 191.329C457.4 213.729 456.7 236.229 457.5 258.529C459.4 307.529 443.1 350.228 414.8 389.428C393.4 419.029 365.5 440.928 334.6 459.428C310.2 474.029 284.5 486.129 257.8 495.928C253.2 497.629 249.2 497.728 244.4 495.928C202.4 480.029 162.5 460.428 127.7 431.828C86.9 398.128 59.3 355.829 48 303.729C45.6 292.729 44.8 281.328 44.7 270.029C44.4 216.129 44.6 162.129 44.6 108.229C44.6 105.829 44.7 103.329 45 100.929C47.4 82.9285 55.2 74.8285 73.2 71.5285C93.5 67.9285 114 65.1285 134 60.5285C164 53.6285 193 43.7285 218.5 26.0285C226.6 20.3285 234 13.5285 241.4 6.82851C248.4 0.62851 254.5 0.0285096 261.3 6.62851C282.4 26.9285 307.8 39.7285 334.8 49.7285C363 60.0285 392 66.2285 421.5 70.3285C424.6 70.7285 427.7 71.2285 430.7 71.8285C448.3 75.6285 456.6 85.3285 457.3 103.329C457.6 111.329 457.4 119.329 457.4 127.329C457.4 148.729 457.4 170.029 457.4 191.329ZM171.1 149.629C171.1 153.329 171.1 156.128 171.1 158.928C171.1 209.529 171.1 260.129 171.1 310.729C171.1 318.529 171.2 326.229 171 334.029C170.8 341.928 167.9 345.129 159.9 346.229C155.8 346.829 151.7 347.428 147.4 348.029C147.4 358.629 147.4 368.629 147.4 379.029C150 379.229 152 379.529 154 379.529C192.2 379.529 230.3 379.629 268.5 379.428C282.8 379.328 296.8 376.729 310.3 372.129C323.5 367.629 335.2 360.629 344.3 349.729C357 334.529 360.6 316.629 360.2 297.529C359.7 269.828 344.4 248.729 318.1 239.829C316.2 239.129 314.3 238.229 311.4 237.029C313.9 235.229 315.2 234.229 316.7 233.329C337.5 220.029 348.1 201.428 346.7 176.428C345.2 150.529 333.4 131.929 308.5 122.429C293.7 116.729 278.4 115.029 262.8 114.829C227.3 114.529 191.8 114.729 156.3 114.729C153.9 114.729 151.6 115.029 148.8 115.229C148.8 126.529 148.8 137.229 148.8 148.529C156.5 148.729 163.4 149.129 171.1 149.629Z" fill="url(#paint0_linear_1_1398)"/>
<path d="M171.1 149.63C163.4 149.13 156.4 148.73 149 148.33C149 137.03 149 126.33 149 115.03C151.7 114.83 154.1 114.53 156.5 114.53C192 114.53 227.5 114.33 263 114.63C278.5 114.73 293.9 116.53 308.7 122.23C333.5 131.83 345.3 150.33 346.9 176.23C348.4 201.23 337.7 219.93 316.9 233.13C315.5 234.03 314.1 235.13 311.6 236.83C314.5 238.03 316.3 239.03 318.3 239.63C344.5 248.53 359.9 269.73 360.4 297.33C360.7 316.53 357.2 334.43 344.5 349.53C335.4 360.43 323.7 367.33 310.5 371.93C297 376.63 283 379.13 268.7 379.23C230.5 379.43 192.4 379.33 154.2 379.33C152.2 379.33 150.3 379.03 147.6 378.83C147.6 368.53 147.6 358.43 147.6 347.83C151.8 347.23 156 346.63 160.1 346.03C168 344.83 171 341.73 171.2 333.83C171.4 326.03 171.3 318.33 171.3 310.53C171.3 259.93 171.3 209.33 171.3 158.73C171.1 156.13 171.1 153.33 171.1 149.63ZM220.3 342.93C239 342.23 257.1 341.63 275.2 340.93C276.1 340.93 276.9 340.63 277.8 340.43C303.4 334.03 316 310.43 307.1 285.33C301.3 268.83 288 261.63 272 259.93C257.3 258.43 242.4 258.93 227.5 258.63C225.2 258.63 222.8 259.23 220.3 259.53C220.3 287.23 220.3 314.23 220.3 342.93ZM220.6 223.63C228.6 223.63 235.7 223.93 242.8 223.53C252.3 222.93 261.9 222.83 271.1 220.73C289 216.63 298.4 202.33 297.8 182.33C297.3 165.63 288.7 155.53 269.3 153.13C253.8 151.23 238 152.13 222.3 151.83C221.9 151.83 221.6 152.23 220.7 152.83C220.6 175.83 220.6 199.13 220.6 223.63Z" fill="white"/>
<path d="M220.3 342.928C220.3 314.228 220.3 287.228 220.3 259.628C222.9 259.328 225.2 258.628 227.5 258.728C242.3 259.028 257.2 258.528 272 260.028C288 261.728 301.3 268.828 307.1 285.428C316 310.528 303.4 334.128 277.8 340.528C276.9 340.728 276.1 341.028 275.2 341.028C257.1 341.528 239 342.228 220.3 342.928Z" fill="url(#paint1_linear_1_1398)"/>
<path d="M220.6 223.63C220.6 199.13 220.6 175.83 220.6 152.83C221.5 152.23 221.9 151.83 222.2 151.83C237.9 152.13 253.7 151.23 269.2 153.13C288.6 155.53 297.2 165.63 297.7 182.33C298.3 202.33 288.9 216.63 271 220.73C261.8 222.83 252.2 222.93 242.7 223.53C235.7 223.93 228.6 223.63 220.6 223.63Z" fill="url(#paint2_linear_1_1398)"/>
<defs>
<linearGradient id="paint0_linear_1_1398" x1="251.129" y1="495.106" x2="251.129" y2="13.5751" gradientUnits="userSpaceOnUse">
<stop stop-color="#0086FF"/>
<stop offset="1" stop-color="#0EACFC"/>
</linearGradient>
<linearGradient id="paint1_linear_1_1398" x1="265.131" y1="495.106" x2="265.131" y2="13.5751" gradientUnits="userSpaceOnUse">
<stop stop-color="#0086FF"/>
<stop offset="1" stop-color="#0EACFC"/>
</linearGradient>
<linearGradient id="paint2_linear_1_1398" x1="259.152" y1="495.108" x2="259.152" y2="13.5767" gradientUnits="userSpaceOnUse">
<stop stop-color="#0086FF"/>
<stop offset="1" stop-color="#0EACFC"/>
</linearGradient>
</defs>
</svg>
