<svg width="500" height="518" viewBox="0 0 500 518" fill="none" xmlns="http://www.w3.org/2000/svg">
<path d="M75.9683 368.123C93.0498 351.042 120.684 351.042 137.765 368.123C154.847 385.204 154.847 412.839 137.765 429.92C120.684 447.001 93.1258 447.077 76.0443 429.996C58.9629 412.915 58.8869 385.204 75.9683 368.123Z" fill="#FDBA4D"/>
<path d="M374.581 84.748C391.662 67.6665 419.296 67.6665 436.378 84.7479C453.459 101.829 453.459 129.464 436.378 146.545C419.296 163.626 391.662 163.626 374.581 146.545C357.651 129.463 357.575 101.754 374.581 84.748Z" fill="#FDBA4D"/>
<path d="M132.033 334.535L178.115 380.617L220.325 338.407C210.228 334.383 200.814 328.31 192.539 320.035C184.416 311.911 178.266 302.422 174.167 292.249L132.033 334.535Z" fill="#FDBA4D"/>
<path d="M339.127 221.865L381.337 179.655L335.255 133.573L293.045 175.783C303.142 179.807 312.556 185.88 320.831 194.155C329.03 202.354 335.103 211.768 339.127 221.865Z" fill="#FDBA4D"/>
<path d="M373.11 427.744C356.029 410.663 356.029 383.029 373.11 365.947C390.192 348.866 417.826 348.866 434.907 365.947C451.989 383.029 451.989 410.663 434.907 427.744C417.902 444.75 390.116 444.75 373.11 427.744Z" fill="#5DA9DD"/>
<path d="M80.4213 142.549C63.3398 125.468 63.3399 97.8335 80.4213 80.752C97.5028 63.6706 125.137 63.6706 142.218 80.752C159.3 97.8335 159.3 125.468 142.218 142.549C125.137 159.631 97.5027 159.631 80.4213 142.549Z" fill="#5DA9DD"/>
<path d="M331.766 378.816L377.848 332.734L335.638 290.523C331.614 300.621 325.541 310.034 317.266 318.309C309.143 326.433 299.653 332.582 289.48 336.681L331.766 378.816Z" fill="#5DA9DD"/>
<path d="M223.82 173.372L181.61 131.162L135.528 177.244L177.738 219.454C181.761 209.357 187.835 199.943 196.11 191.668C204.233 183.545 213.723 177.396 223.82 173.372Z" fill="#5DA9DD"/>
<path d="M300.963 50.1034C300.963 74.2602 281.423 93.8005 257.266 93.8005C233.109 93.8005 213.569 74.2602 213.569 50.1034C213.569 25.9465 233.109 6.40625 257.266 6.40625C281.423 6.40625 300.963 25.9465 300.963 50.1034Z" fill="#18568C"/>
<path d="M300.963 467.465C300.963 491.621 281.423 511.162 257.266 511.162C233.109 511.162 213.569 491.621 213.569 467.465C213.569 443.308 233.109 423.768 257.266 423.768C281.423 423.768 300.963 443.308 300.963 467.465Z" fill="#18568C"/>
<path d="M273.165 116.672H245.679V170.783C250.189 170.032 254.698 169.602 259.422 169.602C264.146 169.602 268.655 170.032 273.165 170.783V116.672Z" fill="#18568C"/>
<path d="M273.165 349.182C268.655 349.933 264.146 350.363 259.422 350.363C254.698 350.363 250.189 349.933 245.679 349.182V403.293H273.165V349.182Z" fill="#18568C"/>
<path d="M450.555 290.564C426.398 290.564 406.858 271.024 406.858 246.867C406.858 222.71 426.398 203.17 450.555 203.17C474.712 203.17 494.252 222.71 494.252 246.867C494.252 271.024 474.712 290.564 450.555 290.564Z" fill="#18578C"/>
<path d="M49.4052 297.972C25.2484 297.972 5.70808 278.432 5.70808 254.275C5.70808 230.118 25.2484 210.578 49.4052 210.578C73.562 210.578 93.1023 230.118 93.1023 254.275C93.1023 278.432 73.562 297.972 49.4052 297.972Z" fill="#18578C"/>
<path d="M339.43 268.028H393.542V240.543H339.43C340.182 245.052 340.611 249.562 340.611 254.286C340.611 259.009 340.182 263.519 339.43 268.028Z" fill="#18578C"/>
<path d="M171.34 268.026C170.589 263.517 170.159 259.008 170.159 254.284C170.159 249.56 170.589 245.05 171.34 240.541H117.229V268.026H171.34Z" fill="#18578C"/>
<path d="M317.901 257.47C317.901 291.612 290.201 319.419 255.952 319.419C221.703 319.419 194.003 291.72 194.003 257.47C194.003 223.221 221.703 195.521 255.952 195.521C290.201 195.521 317.901 223.329 317.901 257.47Z" fill="#18568B"/>
</svg>
