<svg width="500" height="501" viewBox="0 0 500 501" fill="none" xmlns="http://www.w3.org/2000/svg">
<path d="M240.3 331.53L183.8 233.13L221.9 225.83L271.7 278.03L240.3 331.53Z" fill="#3D8757"/>
<path d="M290.7 243.13L310.7 209.03L167.4 139.43L147 174.23L290.7 243.13Z" fill="#3D8757"/>
<path d="M332.5 174.229L352.9 139.529H127.9L148.5 174.229H332.5Z" fill="#4FC778"/>
<path d="M209.1 278.029L240.3 331.429L271.8 278.029H209.1Z" fill="#4FC778"/>
<path d="M292.1 243.129L312.1 209.029H168.8L188.8 243.129H292.1Z" fill="#4FC778"/>
<path d="M61.1 101.429H419.4L240.2 407.429L61.1 101.429ZM0 37.1289L204.6 462.929L500 101.429L0 37.1289Z" fill="#4FC778"/>
</svg>
