<svg width="500" height="501" viewBox="0 0 500 501" fill="none" xmlns="http://www.w3.org/2000/svg">
<g clip-path="url(#clip0_1_1449)">
<path d="M250 0.0292969C388.081 0.0292969 500 111.948 500 250.029C500 388.11 388.081 500.029 250 500.029C111.919 500.029 0 388.11 0 250.029C0 111.948 111.919 0.0292969 250 0.0292969Z" fill="#F0B90B"/>
<path d="M137.4 250.028L137.58 316.134L193.75 349.187V387.889L104.708 335.665V230.697L137.4 250.028ZM137.4 183.923V222.444L104.688 203.093V164.572L137.4 145.221L170.272 164.572L137.4 183.923ZM217.208 164.572L249.92 145.221L282.792 164.572L249.92 183.923L217.208 164.572Z" fill="white"/>
<path d="M161.038 302.432V263.73L193.75 283.081V321.603L161.038 302.432ZM217.207 363.049L249.92 382.4L282.792 363.049V401.571L249.92 420.922L217.207 401.571V363.049ZM329.707 164.572L362.42 145.221L395.292 164.572V203.093L362.42 222.444V183.923L329.707 164.572ZM362.42 316.134L362.6 250.028L395.312 230.677V335.645L306.27 387.869V349.167L362.42 316.134Z" fill="white"/>
<path d="M338.962 302.432L306.25 321.603V283.081L338.962 263.73V302.432Z" fill="white"/>
<path d="M338.962 197.626L339.143 236.328L282.812 269.381V335.647L250.1 354.818L217.388 335.647V269.381L161.058 236.328V197.626L193.91 178.275L249.9 211.488L306.23 178.275L339.103 197.626H338.962ZM161.038 131.541L249.92 79.1367L338.962 131.541L306.25 150.892L249.92 117.678L193.75 150.892L161.038 131.541Z" fill="white"/>
</g>
<defs>
<clipPath id="clip0_1_1449">
<rect width="500" height="500" fill="white" transform="translate(0 0.0292969)"/>
</clipPath>
</defs>
</svg>
