<svg width="500" height="501" viewBox="0 0 500 501" fill="none" xmlns="http://www.w3.org/2000/svg">
<path d="M406.676 263.583C406.676 273.461 406.676 282.319 406.676 291.177C406.678 326.064 406.822 360.953 406.453 395.837C406.418 399.187 404.07 404.01 401.319 405.612C352.926 433.787 304.304 461.569 255.721 489.418C254.967 489.85 254.082 490.054 252.135 490.787C251.896 487.941 251.515 485.5 251.513 483.059C251.478 441.91 251.356 400.759 251.723 359.613C251.756 355.961 254.061 350.649 256.969 348.952C305.333 320.732 353.961 292.965 402.541 265.116C403.293 264.685 404.183 264.495 406.676 263.583ZM216.673 491.815C196.928 480.564 178.856 470.319 160.835 459.985C141.44 448.862 122.001 437.811 102.833 426.309C100.131 424.688 97.1909 420.704 97.1669 417.792C96.8219 374.532 96.9479 331.269 96.9879 288.006C96.9889 287.184 97.2999 286.363 97.6289 284.739C100.502 286.166 103.13 287.308 105.601 288.724C140.256 308.582 174.945 328.383 209.437 348.522C212.519 350.321 216.336 354.341 216.366 357.365C216.813 401.482 216.673 445.606 216.673 491.815ZM251.486 315.959C251.486 301.713 251.487 289.261 251.486 276.808C251.484 246.679 251.323 216.549 251.695 186.425C251.737 182.988 253.834 178 256.547 176.412C293.583 154.731 330.895 133.521 368.15 112.215C368.619 111.947 369.236 111.938 370.585 111.618C370.774 114.231 371.108 116.714 371.11 119.197C371.137 159.17 371.015 199.143 371.233 239.115C371.266 245.083 369.809 248.601 364.189 251.754C329.624 271.145 295.352 291.058 260.975 310.784C258.427 312.245 255.819 313.6 251.486 315.959ZM216.668 315.454C213.983 314.356 212.59 313.96 211.369 313.261C174.894 292.364 138.39 271.517 102.078 250.341C99.6139 248.904 97.1659 244.972 97.1459 242.183C96.8359 198.923 96.9299 155.659 96.9299 111.626C98.9279 112.261 100.586 112.49 101.935 113.261C138.173 133.972 174.429 154.652 210.49 175.668C213.274 177.291 216.381 181.33 216.407 184.271C216.786 227.524 216.668 270.781 216.668 315.454ZM115.214 74.7318C154.39 52.2598 192.319 30.4448 230.373 8.85082C232.234 7.79482 235.721 7.73982 237.561 8.78482C275.363 30.2558 313.037 51.9528 350.716 73.6398C351.129 73.8768 351.274 74.5778 351.881 75.6638C349.771 77.0518 347.7 78.5768 345.485 79.8478C310.361 100.001 275.265 120.205 239.989 140.089C237.217 141.652 232.309 142.445 229.826 141.049C192.712 120.18 155.838 98.8848 118.921 77.6668C117.967 77.1178 117.172 76.2958 115.214 74.7318Z" fill="#0B102A"/>
</svg>
