<svg width="500" height="501" viewBox="0 0 500 501" fill="none" xmlns="http://www.w3.org/2000/svg">
<path d="M410.5 368.73L348 402.43L201.8 386.63L214.3 365.83L193.5 353.33C183.1 347.13 186.8 292.93 186.8 292.93C117.3 195.03 154.7 132.23 154.7 132.23C138.5 207.63 245.1 242.53 245.1 242.53C223.9 194.63 253 169.23 253 169.23C276.3 225.43 303.4 227.53 303.4 227.53L330.5 229.63L365.9 193.83C336.3 148.03 371.7 112.23 371.7 112.23C388.8 178.83 424.2 178.83 424.2 178.83L476.7 180.53L314.7 18.5297C291.4 -4.77031 253.5 -4.77031 229.8 18.5297L40.7999 207.53C17.5 230.83 17.5 268.73 40.7999 292.43L229.8 481.43C253.1 504.73 291 504.73 314.7 481.43L418.4 377.73L410.5 368.73Z" fill="url(#paint0_linear_1_1459)"/>
<path d="M303.5 284.13C311.4 281.23 321.8 275.43 329.7 264.53C331.4 262.03 334.3 263.73 335.1 266.63C337.2 275.83 340.9 293.23 304.3 289.93C301.4 289.63 300.6 285.43 303.5 284.13Z" fill="url(#paint1_linear_1_1459)"/>
<defs>
<linearGradient id="paint0_linear_1_1459" x1="202.03" y1="95.062" x2="319.655" y2="403.325" gradientUnits="userSpaceOnUse">
<stop stop-color="#F15F40"/>
<stop offset="1" stop-color="#EF2356"/>
</linearGradient>
<linearGradient id="paint1_linear_1_1459" x1="243.013" y1="79.424" x2="360.638" y2="387.687" gradientUnits="userSpaceOnUse">
<stop stop-color="#F15F40"/>
<stop offset="1" stop-color="#EF2356"/>
</linearGradient>
</defs>
</svg>
