<svg width="500" height="501" viewBox="0 0 500 501" fill="none" xmlns="http://www.w3.org/2000/svg">
<g clip-path="url(#clip0_1_1462)">
<path d="M250 500.029C388.071 500.029 500 388.1 500 250.029C500 111.958 388.071 0.0292969 250 0.0292969C111.929 0.0292969 0 111.958 0 250.029C0 388.1 111.929 500.029 250 500.029Z" fill="url(#paint0_linear_1_1462)"/>
<path fill-rule="evenodd" clip-rule="evenodd" d="M232.7 99.0293H267.3H271V99.1293C316.1 101.029 352.1 138.229 352.1 183.829C352.1 205.029 344.3 224.329 331.5 239.229C357.1 254.329 374.3 282.229 374.3 314.129C374.3 362.029 335.5 400.929 287.6 401.029H157.7V400.129V142.629V99.0293H232.7ZM231.4 154.729C231.4 149.829 234.7 145.729 239.2 144.429C242.9 143.229 247 144.129 250 147.029L278.8 175.829C279 176.029 279.3 176.229 279.5 176.429C283.6 180.529 283.6 187.229 279.5 191.429L250 220.729C247.9 222.829 245.1 223.929 242.3 223.829C242.2 223.829 242.1 223.829 242 223.829C236.1 223.829 231.3 219.029 231.3 213.129V154.729H231.4ZM282.4 343.129C282.4 348.029 279.1 352.129 274.6 353.429C270.9 354.629 266.8 353.729 263.8 350.829L235 322.029C234.8 321.829 234.5 321.629 234.3 321.429C230.2 317.329 230.2 310.629 234.3 306.429L263.6 277.129C265.7 275.029 268.5 273.929 271.3 274.029C271.4 274.029 271.4 274.029 271.5 274.029H271.6C277.5 274.029 282.3 278.829 282.3 284.729V343.129H282.4Z" fill="white"/>
</g>
<defs>
<linearGradient id="paint0_linear_1_1462" x1="-27.5313" y1="115.648" x2="584.72" y2="412.101" gradientUnits="userSpaceOnUse">
<stop offset="0.053951" stop-color="#6D5CFF"/>
<stop offset="0.5592" stop-color="#E86EFF"/>
<stop offset="0.9238" stop-color="#FFD66E"/>
</linearGradient>
<clipPath id="clip0_1_1462">
<rect width="500" height="500" fill="white" transform="translate(0 0.0292969)"/>
</clipPath>
</defs>
</svg>
