<svg width="500" height="501" viewBox="0 0 500 501" fill="none" xmlns="http://www.w3.org/2000/svg">
<path d="M250.2 498.63C387.388 498.63 498.6 387.418 498.6 250.23C498.6 113.043 387.388 1.83008 250.2 1.83008C113.012 1.83008 1.79999 113.043 1.79999 250.23C1.79999 387.418 113.012 498.63 250.2 498.63Z" fill="#FEC829"/>
<path d="M269.6 400.629C252.3 400.629 236.4 395.729 222.3 386.029C209.7 377.429 199 365.029 190 349.629C172.9 320.029 165.8 287.129 165.8 248.329C165.8 213.429 176.6 175.429 196.7 146.829C218.2 116.429 247.5 99.1289 275.5 99.1289C289.2 99.1289 301.5 102.329 312.1 108.529C321 113.729 328.4 121.129 334.2 130.229C343.9 145.629 346.5 162.529 346.5 170.129C346.5 176.229 345.6 185.729 341.3 196.429C336.6 208.029 328.9 218.329 318.5 227.129C306.6 237.129 291.3 244.229 272.7 249.729C281.6 253.029 290.5 257.229 297.9 261.629C325.3 278.129 340.6 301.529 340.6 327.929C340.6 343.729 335.2 360.829 324.7 374.029C318.4 381.929 311.1 388.529 302.4 393.029C292.8 398.129 281.7 400.629 269.6 400.629ZM201.4 269.329C206 293.529 212.7 313.829 222.2 330.529C235.1 353.329 250.8 367.629 269.6 367.629C282.2 367.629 291.1 361.629 298.5 353.129C305.5 345.129 307 335.329 307 328.429C307 318.229 302.4 303.329 280.5 290.229C266.5 281.829 243.2 271.529 201.4 269.329ZM275.5 132.229C267.2 132.229 258.6 135.129 250 140.729C241 146.629 232.4 157.629 225.2 170.029C213.8 189.629 209.1 203.729 202.4 225.429C235.2 224.829 274.3 221.029 297.2 201.729C311.3 189.829 313.4 176.829 313.4 170.129C313.4 167.829 313 156.729 306.2 147.929C299.4 139.129 289.5 132.229 275.5 132.229Z" fill="white"/>
</svg>
