<svg width="500" height="501" viewBox="0 0 500 501" fill="none" xmlns="http://www.w3.org/2000/svg">
<g clip-path="url(#clip0_1_1471)">
<path d="M250 500.029C388.1 500.029 500 388.129 500 250.029C500 111.929 388.1 0.0292969 250 0.0292969C111.9 0.0292969 0 111.929 0 250.029C0 388.129 111.9 500.029 250 500.029Z" fill="#1940B0"/>
<path fill-rule="evenodd" clip-rule="evenodd" d="M251.4 49.6289L425.1 152.429V197.129L338.8 249.029L425.1 300.529V349.229L260 449.229L212.5 420.729V325.029L129.9 374.729L81.2 345.629V152.129L128.6 123.629L212.6 173.729V73.1289L251.4 49.6289ZM212.6 224.329L128.7 174.329L124.7 176.729V320.929L129.9 324.029L212.6 274.229V224.329ZM256 298.829L296.6 274.429L381.3 324.929L259.9 398.529L256 396.229V298.829ZM296.5 223.729L256 199.629V102.929L377.7 174.929L296.5 223.729Z" fill="white"/>
</g>
<defs>
<clipPath id="clip0_1_1471">
<rect width="500" height="500" fill="white" transform="translate(0 0.0292969)"/>
</clipPath>
</defs>
</svg>
