<svg width="500" height="501" viewBox="0 0 500 501" fill="none" xmlns="http://www.w3.org/2000/svg">
<path fill-rule="evenodd" clip-rule="evenodd" d="M78 322.329C110.7 322.329 131.5 307.529 131.5 281.329C131.5 258.629 111.7 246.229 83.9 245.529V245.129C109.9 242.829 127 231.029 127 209.529C127 186.629 106.8 176.029 74.6 176.029H0V176.429L13.9 189.529C15.6 191.229 15.8 191.829 15.8 194.529V303.729C15.8 306.429 15.6 307.029 13.9 308.729L0 321.929V322.329H78ZM63.4 244.129H53.4V184.429C53.4 180.929 54 180.229 57.1 180.229H64.2C79.4 180.229 87.5 192.729 87.5 211.229C87.6 231.829 79.3 244.129 63.4 244.129ZM58.5 318.129H64.3C83.4 318.129 91.1 305.229 91.1 282.529C91.1 260.229 83.2 248.229 63.6 248.229H53.5V314.329C53.5 317.929 54.2 318.129 58.5 318.129ZM194.3 323.929C227.2 323.929 249.2 305.829 249.2 270.929C249.2 235.529 227.2 217.729 194.3 217.729C161.4 217.729 139.6 235.829 139.6 270.729C139.6 306.129 161.4 323.929 194.3 323.929ZM177.4 271.929C177.5 311.029 183.9 320.229 194.2 320.229C204.6 320.229 211 311.329 211 270.929C211 230.829 204.6 221.629 194.2 221.629C183.8 221.629 177.4 230.329 177.4 270.729V271.929ZM290.1 323.929C309.9 323.929 318.4 311.829 320.5 300.229L320.1 300.029C317.8 304.229 313.4 307.729 308 307.729C301.1 307.729 297 302.329 297 292.929V223.429H319.9V219.229H322.6V223.429H331.4V295.429C331.4 314.129 340.3 323.929 358.4 323.929C378.2 323.929 386.7 311.829 388.8 300.229L388.4 300.029C386.1 304.229 381.7 307.729 376.3 307.729C369.4 307.729 365.3 302.329 365.3 292.929V223.429H390.9V219.229H365.3V184.329H364.9L335.7 217.029C333.8 219.129 332.8 219.329 330.1 219.329H319.9H297V184.429H296.6L267.5 217.029C265.6 219.129 264.6 219.329 261.9 219.329H251.7V223.529H263.1V295.529C263.1 314.229 272 323.929 290.1 323.929ZM445.1 323.929C478 323.929 500 305.829 500 270.929C500 235.529 478 217.729 445.1 217.729C412.2 217.729 390.4 235.829 390.4 270.729C390.4 306.129 412.2 323.929 445.1 323.929ZM428.2 271.929C428.3 311.029 434.7 320.229 445 320.229C455.4 320.229 461.8 311.329 461.8 270.929C461.8 230.829 455.4 221.629 445 221.629C434.6 221.629 428.2 230.329 428.2 270.729V271.929Z" fill="black"/>
</svg>
