<svg width="500" height="501" viewBox="0 0 500 501" fill="none" xmlns="http://www.w3.org/2000/svg">
<path d="M250.1 498.43C387.232 498.43 498.4 387.262 498.4 250.13C498.4 112.998 387.232 1.83008 250.1 1.83008C112.967 1.83008 1.7998 112.998 1.7998 250.13C1.7998 387.262 112.967 498.43 250.1 498.43Z" fill="url(#paint0_linear_1_1481)"/>
<path d="M384.1 163.53L260.4 94.3297C257.6 92.7297 254.4 91.9297 251.3 91.9297C248.2 91.9297 245 92.7297 242.2 94.3297L118.5 163.53C112.6 166.83 108.9 173.13 108.9 179.83V317.23C108.9 324.03 112.6 330.23 118.5 333.53L242.2 402.73C245 404.33 248.2 405.13 251.3 405.13C254.4 405.13 257.6 404.33 260.4 402.73L384.1 333.53C390 330.23 393.7 323.93 393.7 317.23V179.83C393.6 173.03 390 166.83 384.1 163.53ZM249.2 251.23L180.4 214.03L250.9 176.53L320.7 213.73L249.2 251.23ZM177.5 228.93L241.9 263.73V325.93L177.5 291.63V228.93ZM256.4 263.83L324.1 228.23V291.63L256.4 327.73V263.83ZM338.6 220.63L377.1 200.43V300.23L338.6 278.33V220.63ZM126.5 177.93L250.2 108.73C250.5 108.53 250.9 108.43 251.3 108.43C251.7 108.43 252 108.53 252.4 108.73L376 177.93C376.7 178.33 377.1 179.03 377.1 179.83V184.03L335.5 205.93C334.7 205.03 333.7 204.33 332.6 203.73L256.1 162.93C254.4 162.03 252.6 161.63 250.8 161.63C249 161.63 247.2 162.03 245.5 162.93L169 203.73C165.3 205.73 163 209.53 163 213.63V278.63L125.4 299.13V179.83C125.4 179.03 125.9 178.33 126.5 177.93ZM125.4 317.33V315.63L163.1 295.13C163.6 298.73 165.7 301.93 169 303.63L241.9 342.43V383.83L126.5 319.23C125.9 318.83 125.4 318.03 125.4 317.33ZM376 319.23L256.4 386.13V344.13L332.6 303.53C335.9 301.73 338.1 298.53 338.5 294.83L376.9 316.73L377.1 316.43V317.33C377.1 318.03 376.7 318.83 376 319.23Z" fill="white"/>
<defs>
<linearGradient id="paint0_linear_1_1481" x1="250.103" y1="498.419" x2="250.103" y2="1.84689" gradientUnits="userSpaceOnUse">
<stop stop-color="#EF4425"/>
<stop offset="1" stop-color="#FBB769"/>
</linearGradient>
</defs>
</svg>
