<svg width="500" height="501" viewBox="0 0 500 501" fill="none" xmlns="http://www.w3.org/2000/svg">
<path d="M249.2 123.529C318.8 123.529 375.3 179.929 375.3 249.629C375.3 319.329 318.9 375.729 249.2 375.729C179.5 375.729 123.1 319.329 123.1 249.629C123.1 179.929 179.5 123.529 249.2 123.529ZM249.2 61.0293C223.8 61.0293 199.1 66.0293 175.8 75.8293C153.3 85.3293 133.2 98.9293 115.9 116.229C98.6002 133.529 85.0002 153.729 75.5002 176.129C65.6002 199.429 60.7002 224.129 60.7002 249.529C60.7002 274.929 65.7002 299.629 75.5002 322.929C85.0002 345.429 98.6002 365.529 115.9 382.829C133.2 400.129 153.4 413.729 175.8 423.229C199.1 433.129 223.8 438.029 249.2 438.029C274.6 438.029 299.3 433.029 322.6 423.229C345.1 413.729 365.2 400.129 382.5 382.829C399.8 365.529 413.4 345.329 422.9 322.929C432.8 299.629 437.7 274.929 437.7 249.529C437.7 224.129 432.7 199.429 422.9 176.129C413.4 153.629 399.8 133.529 382.5 116.229C365.2 98.9293 345 85.3293 322.6 75.8293C299.3 66.0293 274.6 61.0293 249.2 61.0293Z" fill="#0189FB"/>
<path d="M249.2 22.7305C374.4 22.7305 476 124.33 476 249.63C476 374.93 374.4 476.43 249.2 476.43C124 476.43 22.2998 374.83 22.2998 249.63C22.2998 124.43 123.9 22.7305 249.2 22.7305ZM249.2 3.23047C216 3.23047 183.7 9.73047 153.3 22.6305C123.9 35.0305 97.5998 52.7305 74.9998 75.4305C52.3998 98.1305 34.5998 124.43 22.1998 153.73C9.29981 184.03 2.7998 216.33 2.7998 249.63C2.7998 282.93 9.29981 315.13 22.1998 345.53C34.5998 374.83 52.3998 401.23 74.9998 423.83C97.5998 446.43 124 464.23 153.3 476.63C183.7 489.53 215.9 496.03 249.2 496.03C282.5 496.03 314.7 489.53 345.1 476.63C374.4 464.23 400.8 446.43 423.4 423.83C446 401.23 463.8 374.83 476.2 345.53C489.1 315.13 495.6 282.93 495.6 249.63C495.6 216.33 489.1 184.13 476.2 153.73C463.7 124.33 446 98.0305 423.3 75.4305C400.7 52.8305 374.3 35.0305 345 22.6305C314.7 9.73047 282.4 3.23047 249.2 3.23047Z" fill="#016DC4"/>
</svg>
