<svg width="500" height="501" viewBox="0 0 500 501" fill="none" xmlns="http://www.w3.org/2000/svg">
<path d="M292.361 97.7452C283.031 75.5376 268.303 56.0288 249.642 40.8383C230.905 25.6477 208.774 15.315 185.179 10.6883C161.506 6.06184 137.139 7.37269 114.083 14.3895C90.9505 21.4065 69.9768 33.9754 52.9355 51.0166C32.2702 71.6819 32.2702 105.147 52.9355 125.813C73.6009 146.479 107.066 146.478 127.655 125.813C131.433 122.035 135.906 119.027 140.763 116.945C145.853 114.786 151.327 113.707 156.802 113.707C162.354 113.707 167.752 114.786 172.841 116.945C180.244 120.107 186.567 125.35 191.039 131.982C195.666 138.767 198.133 146.787 198.056 155.038C198.056 184.262 221.729 207.935 250.876 207.935C280.023 207.935 303.696 184.262 303.696 155.038C303.927 135.298 299.995 115.866 292.361 97.7452Z" fill="#00FFBA"/>
<path d="M248.924 292.6C219.699 292.6 196.104 316.273 196.104 345.497C196.104 351.049 195.025 356.447 192.865 361.536C189.704 368.939 184.538 375.262 177.829 379.734C174.513 381.97 170.889 383.744 167.111 384.9C159.785 387.213 151.997 387.368 144.595 385.517C137.192 383.589 130.407 379.657 125.163 374.182C121.539 370.404 118.686 366.008 116.681 361.228C112.517 351.049 112.594 339.637 116.836 329.458C119.997 322.056 125.163 315.733 131.872 311.26C138.658 306.634 146.677 304.243 154.928 304.243C184.152 304.243 207.748 280.571 207.748 251.346C207.748 222.122 184.075 198.449 154.928 198.449C126.089 198.449 97.8666 206.931 73.8086 222.816C49.7503 238.7 30.8584 261.371 19.6004 287.974C8.3424 314.499 5.10381 343.801 10.3472 372.177C15.5906 400.554 29.0848 426.771 49.1334 447.513C69.4903 468.642 95.6306 483.138 124.315 489.307C153 495.399 182.842 492.854 209.984 481.827C237.127 470.878 260.414 451.986 276.838 427.696C293.185 403.407 301.976 374.722 301.976 345.42C301.744 316.273 278.072 292.6 248.924 292.6Z" fill="#00CFAB"/>
<path d="M476.094 87.8754C465.838 67.904 451.11 50.4772 433.066 37.0601L432.989 36.983C411.09 20.7128 385.181 10.8429 358.039 8.45241C330.896 6.0621 303.599 11.3055 279.233 23.5659C254.866 35.8263 234.432 54.5639 220.09 77.7741C205.826 100.993 198.272 127.71 198.268 154.961C198.268 184.185 221.94 207.858 251.088 207.858C280.235 207.858 303.908 184.185 303.908 154.961C303.908 149.409 304.987 144.011 307.146 138.922C310.308 131.519 315.474 125.196 322.183 120.724C325.498 118.488 329.123 116.714 332.901 115.558C339.147 113.63 345.701 113.168 352.101 114.247C358.501 115.327 364.593 117.948 369.759 121.804C374.849 125.582 379.013 130.517 381.943 136.146C384.641 141.544 386.184 147.404 386.415 153.419C386.646 159.433 385.567 165.448 383.254 171C380.092 178.402 374.926 184.725 368.217 189.198C364.901 191.434 361.277 193.207 357.499 194.364C353.489 195.598 349.402 196.215 345.161 196.215C315.937 196.215 292.341 219.887 292.341 249.112C292.341 278.336 316.014 302.009 345.161 302.009C370.376 302.009 395.128 295.532 417.105 283.194C439.081 270.857 457.51 253.121 470.619 231.608C483.728 210.094 491.13 185.573 492.055 160.436C493.135 135.298 487.583 110.314 476.094 87.8754Z" fill="#00CFAB"/>
<path d="M479.949 286.662C468.691 260.059 449.877 237.312 425.818 221.351C401.76 205.389 373.461 196.83 344.545 196.907C315.32 196.907 291.725 220.579 291.725 249.804C291.725 279.028 315.397 302.701 344.545 302.701C350.097 302.701 355.494 303.78 360.584 305.94C367.986 309.101 374.309 314.345 378.782 320.976C382.56 326.605 384.95 333.159 385.567 339.945C386.261 346.731 385.259 353.594 382.637 359.839C380.632 364.697 377.702 369.092 374.078 372.794C370.3 376.726 365.75 379.811 360.815 381.97C355.726 384.129 350.174 385.285 344.622 385.285C339.07 385.285 333.518 384.206 328.429 382.047C321.027 378.885 314.704 373.642 310.231 367.01C305.605 360.225 303.214 352.128 303.214 343.955C303.214 314.73 279.542 291.057 250.394 291.057C221.247 291.057 197.574 314.73 197.574 343.955C197.574 373.256 206.287 401.864 222.557 426.154C238.905 450.443 262.115 469.258 289.257 480.285C316.4 491.311 346.164 493.933 374.772 487.919C403.379 481.904 429.597 467.484 449.954 446.434C470.079 425.691 483.651 399.474 488.971 371.098C494.292 342.644 491.13 313.265 479.949 286.662Z" fill="#00FFBA"/>
<path d="M155.465 197.702C149.913 197.702 144.515 196.623 139.426 194.464C132.023 191.302 125.7 186.136 121.228 179.427C115.83 171.485 113.44 161.923 114.365 152.362C115.291 142.8 119.532 133.933 126.317 127.147C146.983 106.482 146.983 73.0161 126.317 52.3506C105.652 31.6852 72.1864 31.6852 51.5981 52.3506C31.0098 72.9388 16.9758 99.0789 11.2698 127.61C5.56365 156.14 8.4938 185.75 19.5977 212.584C30.7016 239.496 49.5933 262.397 73.8058 278.59C98.0182 294.783 126.472 303.342 155.542 303.342C184.767 303.342 208.362 279.67 208.362 250.445C208.362 221.375 184.689 197.702 155.465 197.702Z" fill="#00FFBA"/>
</svg>
