<svg width="500" height="501" viewBox="0 0 500 501" fill="none" xmlns="http://www.w3.org/2000/svg">
<path d="M491.127 250.353C492.362 382.112 382.096 494.517 243.581 490.677C118.468 487.21 7.37501 382.445 11.106 242.807C14.338 121.827 116.122 4.63763 263.138 10.6516C383.36 15.5696 491.318 115.582 491.127 250.353ZM315.416 248.578C319.34 247.213 322.844 245.871 326.423 244.77C346.331 238.642 361.426 223.07 360.605 197.57C359.792 172.318 343.82 156.456 322.672 149.923C302.458 143.679 281.342 143.307 260.483 142.88C225.514 142.164 190.519 142.729 155.536 142.73C144.096 142.73 138.38 148.437 138.38 160.012C138.378 220.786 138.385 281.561 138.384 342.335C138.384 352.658 144.532 358.451 155.49 358.394C192.255 358.202 229.021 358.152 265.783 357.747C284.939 357.536 304.042 356.125 322.426 350.139C344.852 342.837 360.767 329.615 363.609 304.417C366.155 281.835 357.444 265.241 336.912 255.929C330.267 252.916 323.059 251.148 315.416 248.578ZM270.92 311.953C278.296 311.786 285.824 309.77 292.905 307.45C300.182 305.066 302.852 298.698 302.712 291.334C302.577 284.247 300.053 277.855 292.896 275.775C284.773 273.414 276.272 271.631 267.851 271.187C253.895 270.451 239.871 271.029 225.876 270.968C218.46 270.936 215.208 267.796 215.109 260.505C215.009 253.11 215.051 245.711 215.185 238.317C215.322 230.774 218.283 227.848 225.803 227.811C238.798 227.747 251.802 228.063 264.786 227.685C271.929 227.477 279.152 226.707 286.139 225.24C295.093 223.36 299.456 217.425 299.646 208.645C299.82 200.621 295.98 195.159 287.356 192.568C282.078 190.982 276.508 189.645 271.042 189.535C249.263 189.097 227.473 189.183 205.688 189.079C202.956 189.066 200.224 189.077 197.14 189.077C197.14 230.561 197.14 271.264 197.14 312.163C222.228 312.161 246.584 312.505 270.92 311.953Z" fill="url(#paint0_linear_1_1500)"/>
<defs>
<linearGradient id="paint0_linear_1_1500" x1="11.0146" y1="250.601" x2="491.137" y2="250.601" gradientUnits="userSpaceOnUse">
<stop stop-color="#F8A438"/>
<stop offset="0.9995" stop-color="#FE4F92"/>
</linearGradient>
</defs>
</svg>
