<svg width="500" height="501" viewBox="0 0 500 501" fill="none" xmlns="http://www.w3.org/2000/svg">
<path d="M94.5996 86.7289V48.0289C94.5996 13.2289 132.3 -8.57109 162.5 8.92891L384.5 137.529C416.6 156.129 416.7 202.529 384.6 221.329L104.9 384.529C100.6 387.029 95.0996 383.929 95.0996 378.929V118.329C95.0996 114.429 99.2996 112.029 102.6 114.029L242.2 195.929C246.9 198.629 246.9 205.329 242.3 208.229L194.8 237.429C190.6 240.029 185.2 239.929 181.1 237.129L163.4 224.929C161.6 223.729 159.2 224.929 159.2 227.129V271.629C159.2 273.329 161.1 274.429 162.6 273.629L325.6 179.929L158.3 81.9289V114.829C158.3 120.629 152 124.229 147 121.429L98.7996 93.9289C96.1996 92.4289 94.5996 89.7289 94.5996 86.7289Z" fill="url(#paint0_linear_1_1502)"/>
<path d="M95.2998 406.73V453.03C95.2998 487.13 132.2 508.43 161.7 491.33L386.6 360.53C416.8 343.03 417.6 299.73 388.2 280.93L358.4 261.93C354.2 259.03 348.6 258.93 344.3 261.63L297.3 290.43C292.5 293.43 292.4 300.43 297.2 303.43L323 319.63L162.5 413.93C161.3 414.63 159.7 413.73 159.7 412.33V381.53C159.7 375.53 153.1 371.83 147.9 374.93L95.2998 406.73Z" fill="url(#paint1_linear_1_1502)"/>
<defs>
<linearGradient id="paint0_linear_1_1502" x1="94.6076" y1="194.093" x2="408.595" y2="194.093" gradientUnits="userSpaceOnUse">
<stop stop-color="#8109EA"/>
<stop offset="1" stop-color="#3311DD"/>
</linearGradient>
<linearGradient id="paint1_linear_1_1502" x1="95.3267" y1="378.557" x2="409.792" y2="378.557" gradientUnits="userSpaceOnUse">
<stop stop-color="#8109EA"/>
<stop offset="1" stop-color="#11DCB7"/>
</linearGradient>
</defs>
</svg>
