<svg width="500" height="501" viewBox="0 0 500 501" fill="none" xmlns="http://www.w3.org/2000/svg">
<g clip-path="url(#clip0_1_1505)">
<path d="M380 290.929L483.2 138.429C483.9 137.329 484.3 136.029 484.4 134.729C484.5 133.429 484.2 132.129 483.6 130.929C483 129.729 482.1 128.729 481.1 128.029C480 127.329 478.8 126.829 477.5 126.729L273.8 105.029L380 290.929Z" fill="url(#paint0_linear_1_1505)"/>
<path d="M477 192.93L404.2 312.63L479.2 357.53C479.8 357.93 480.5 358.13 481.2 358.13C481.9 358.13 482.6 358.03 483.2 357.63C483.8 357.33 484.3 356.83 484.7 356.23C485.1 355.63 485.2 354.93 485.2 354.23V194.83C485.3 194.33 485.3 193.73 485.3 193.23C485.2 192.73 485 192.13 484.7 191.73C484.4 191.23 484 190.83 483.6 190.53C483.2 190.23 482.7 189.93 482.1 189.83C481.6 189.73 481 189.73 480.5 189.73C480 189.83 479.4 190.03 479 190.33C478.5 190.63 478.1 191.03 477.8 191.43C477.4 191.93 477.1 192.43 477 192.93Z" fill="black"/>
<path d="M466.6 87.0289L276.2 1.12885C275 0.528852 273.7 0.328852 272.4 0.428852C271.1 0.528852 269.8 0.928852 268.7 1.62885C267.6 2.32885 266.7 3.32885 266.1 4.52885C265.5 5.72885 265.2 7.02885 265.2 8.32885V72.5289L464.2 94.3289C465.1 94.5289 466.1 94.4289 467 93.9289C467.8 93.4289 468.5 92.6289 468.8 91.7289C469.1 90.8289 469 89.8289 468.6 88.9289C468.2 88.0289 467.5 87.3289 466.6 87.0289Z" fill="black"/>
<path d="M386.9 339.33L309.6 479.13C308.8 480.63 308.4 482.33 308.6 484.03C308.8 485.73 309.5 487.33 310.7 488.53C311.9 489.73 313.4 490.63 315.1 490.93C316.8 491.23 318.5 490.93 320 490.23L467.7 393.43C468.3 393.13 468.7 392.63 469 392.03C469.3 391.43 469.5 390.83 469.5 390.13C469.5 389.43 469.3 388.83 469 388.23C468.7 387.63 468.2 387.13 467.7 386.83L386.9 339.33Z" fill="black"/>
<path d="M249.6 328.23H142.7L236.2 492.93C237.6 495.23 239.6 497.13 241.9 498.43C244.2 499.73 246.9 500.43 249.5 500.43C252.2 500.43 254.8 499.73 257.1 498.43C259.4 497.13 261.4 495.23 262.8 492.93L356.3 328.23H249.6Z" fill="url(#paint1_linear_1_1505)"/>
<path d="M20.8002 357.429L95.0002 312.429L22.1002 192.929C21.6002 192.229 20.9002 191.729 20.1002 191.429C19.3002 191.129 18.5002 191.129 17.6002 191.329C16.8002 191.529 16.1002 192.029 15.6002 192.729C15.1002 193.429 14.8002 194.229 14.7002 195.029V354.129C14.7002 354.829 14.9002 355.529 15.2002 356.129C15.6002 356.729 16.1002 357.229 16.7002 357.529C17.3002 357.829 18.0002 358.029 18.7002 358.029C19.5002 358.029 20.2002 357.829 20.8002 357.429Z" fill="black"/>
<path d="M112.2 339.329L32.3996 386.329C31.7996 386.629 31.3996 387.129 31.0996 387.729C30.7996 388.329 30.5996 388.929 30.5996 389.629C30.5996 390.329 30.7996 390.929 31.0996 391.529C31.3996 392.129 31.8996 392.629 32.3996 392.929L180 489.529C181.5 490.329 183.2 490.529 184.9 490.229C186.6 489.929 188.1 489.129 189.3 487.829C190.5 486.629 191.2 485.029 191.4 483.329C191.6 481.629 191.3 479.929 190.4 478.429L113.1 338.629L112.2 339.329Z" fill="black"/>
<path d="M34.9 94.3293L233.9 72.5293V8.32932C233.9 7.02932 233.6 5.72932 233 4.52932C232.4 3.32932 231.5 2.42932 230.4 1.62932C229.3 0.929316 228 0.529316 226.7 0.429316C225.4 0.329316 224.1 0.629316 222.9 1.12932L32.6 87.0293C31.7 87.4293 31 88.1293 30.6 88.9293C30.2 89.8293 30.1 90.8293 30.4 91.7293C30.7 92.6293 31.3 93.4293 32.2 93.9293C32.9 94.4293 33.9 94.5293 34.9 94.3293Z" fill="black"/>
<path d="M119.1 290.93L225.4 104.93L21.7002 126.63C20.4002 126.73 19.1002 127.23 18.1002 127.93C17.0002 128.63 16.1002 129.73 15.6002 130.83C15.0002 132.03 14.7002 133.33 14.8002 134.63C14.9002 135.93 15.3002 137.23 16.0002 138.33L119.1 290.93Z" fill="url(#paint2_linear_1_1505)"/>
</g>
<defs>
<linearGradient id="paint0_linear_1_1505" x1="379.036" y1="290.958" x2="379.036" y2="104.983" gradientUnits="userSpaceOnUse">
<stop stop-color="#AFB0B1"/>
<stop offset="1" stop-color="#9B9C9E"/>
</linearGradient>
<linearGradient id="paint1_linear_1_1505" x1="249.565" y1="500.43" x2="249.565" y2="328.264" gradientUnits="userSpaceOnUse">
<stop stop-color="#AFB0B1"/>
<stop offset="1" stop-color="#9B9C9E"/>
</linearGradient>
<linearGradient id="paint2_linear_1_1505" x1="120.091" y1="290.958" x2="120.091" y2="104.984" gradientUnits="userSpaceOnUse">
<stop stop-color="#AFB0B1"/>
<stop offset="1" stop-color="#9B9C9E"/>
</linearGradient>
<clipPath id="clip0_1_1505">
<rect width="500" height="500" fill="white" transform="translate(0 0.429688)"/>
</clipPath>
</defs>
</svg>
