<svg width="500" height="501" viewBox="0 0 500 501" fill="none" xmlns="http://www.w3.org/2000/svg">
<path d="M250 499.43C387.5 499.43 499 387.93 499 250.43C499 112.93 387.5 1.42969 250 1.42969C112.5 1.42969 1 112.93 1 250.43C1 387.93 112.5 499.43 250 499.43Z" fill="white"/>
<path d="M442.9 95.1289C425.6 98.5289 409.2 103.329 395.6 106.329C364.7 113.229 335.8 136.929 329.4 180.329C323.8 219.129 336.8 235.729 331.1 280.829C321.1 359.529 245.6 386.629 210.3 403.129C189.9 412.529 140.4 434.229 102.3 450.829C143.7 481.329 194.7 499.429 250 499.429C387.6 499.429 499 388.029 499 250.429C499 191.829 478.7 137.829 444.8 95.4289C444.2 95.3289 443.6 95.2289 442.9 95.1289Z" fill="url(#paint0_linear_1_1515)"/>
<path d="M222 213.93C241.2 172.43 234.2 172.33 248.8 133.43C267.2 84.0297 324.3 98.1297 340.1 100.23C366.1 103.73 372.9 94.5297 427.8 85.6297C430.5 85.2297 433.1 84.8297 435.7 84.5297C390.1 33.5297 323.8 1.42969 250 1.42969C150.9 1.42969 65.4 59.2297 25.3 143.13C107.4 163.53 196.1 207.73 222 213.93ZM167.6 44.8297C174.8 45.9297 210 89.6297 216.6 201.73C216.6 201.73 171.4 190.93 161.7 167.63C153.6 148.43 164.1 123.23 167.6 44.8297ZM444.4 94.9297C444.5 95.1297 444.7 95.2297 444.8 95.4297C444.2 95.3297 443.5 95.3297 442.9 95.2297C443.4 95.0297 443.9 95.0297 444.4 94.9297ZM1 250.43C1 230.53 3.3 211.23 7.7 192.83C16.7 200.33 26.4 208.73 36.6 218.23C101.5 278.33 207 325.83 245.4 281.73C245.5 281.83 245.6 281.83 245.6 281.93C238.6 291.13 211.8 320.43 160.6 311.33L79.7 432.03C31.3 386.63 1 322.13 1 250.43Z" fill="url(#paint1_linear_1_1515)"/>
<defs>
<linearGradient id="paint0_linear_1_1515" x1="339.277" y1="149.384" x2="280.527" y2="473.041" gradientUnits="userSpaceOnUse">
<stop stop-color="#FF496A"/>
<stop offset="1" stop-color="#E42648"/>
</linearGradient>
<linearGradient id="paint1_linear_1_1515" x1="144.029" y1="376.335" x2="273.924" y2="9.50913" gradientUnits="userSpaceOnUse">
<stop offset="0.00181229" stop-color="#1158F1"/>
<stop offset="1" stop-color="#119BED"/>
</linearGradient>
</defs>
</svg>
