<svg width="500" height="501" viewBox="0 0 500 501" fill="none" xmlns="http://www.w3.org/2000/svg">
<g clip-path="url(#clip0_1_1521)">
<path d="M443.59 181.55C441.97 183.8 440.22 185.96 438.53 188.15C440.91 200.05 444.47 211.67 446.09 223.77C451.27 262.65 445.65 299.83 428.91 335.26C411.83 371.41 385.96 399.7 351.8 420.45C350.21 421.41 348.75 422.58 347.22 423.66C347 424.49 346.63 425.19 345.64 425.25C344.59 430.4 340.38 433.49 337.12 436.81C325.99 448.13 313.21 456.92 298.78 464.18C272.27 477.51 243.52 482.56 215.42 490.19C209.5 491.8 203.38 492.72 197.58 494.74C214.49 498.35 232.02 500.26 250 500.26C388.07 500.26 500 388.33 500 250.26C500 212.07 491.43 175.9 476.12 143.52C463.83 154.94 453.38 167.96 443.59 181.55Z" fill="#2BCDFE"/>
<path d="M52.39 266C51.2 244.63 52.8 223.53 57.97 202.7C64.77 175.27 77.1 150.6 94.4 128.36C108.43 110.33 125.38 95.5304 144.54 83.1704C147.02 81.5704 150.21 80.7904 151.62 77.7504C158.26 63.9204 166.17 50.7904 174.05 37.6704C180.47 26.9804 187.69 16.7604 194.66 6.40039C83.22 31.5904 0 131.2 0 250.25C0 266.81 1.63 283 4.7 298.66C20.81 290.94 35.34 280.88 48.36 268.61C49.55 267.49 50.67 266.29 52.39 266Z" fill="#DA0C9B"/>
<path d="M151.63 77.76C157.61 76.99 162.17 73.01 167.49 70.73C231.48 43.28 293.51 47 353.67 82.07C354.67 82.65 355.76 83.06 356.81 83.55C366.76 74.8 378.4 68.47 389.24 61C393.64 57.97 398.23 55.2 402.77 52.37C360.52 19.7 307.53 0.25 250 0.25C230.98 0.25 212.47 2.38 194.67 6.41C187.7 16.77 180.48 26.99 174.06 37.68C166.18 50.79 158.26 63.93 151.63 77.76Z" fill="#A708BE"/>
<path d="M298.78 464.17C313.21 456.91 325.99 448.12 337.12 436.8C340.38 433.48 344.59 430.39 345.64 425.24C345.63 425.24 345.63 425.24 345.62 425.25C345.62 425.23 345.63 425.22 345.62 425.2C341.42 425.12 338.33 427.91 334.81 429.52C290.58 449.8 244.98 454.5 197.81 441.86C190.88 440 183.65 438.67 177.23 435.66C162.54 428.77 148.07 421.35 134.57 412.23C125.41 426.74 115.61 440.73 103.04 452.51C130.78 472.7 162.84 487.33 197.57 494.74C203.37 492.72 209.49 491.8 215.41 490.19C243.52 482.55 272.27 477.49 298.78 464.17Z" fill="#644EDE"/>
<path d="M356.81 83.5389C357.66 84.3089 358.43 85.2089 359.38 85.8389C390.28 106.389 413.34 133.649 429.38 167.049C432.71 173.979 434.55 181.529 438.53 188.159C440.22 185.959 441.97 183.799 443.59 181.559C453.39 167.969 463.83 154.949 476.12 143.529C459.14 107.629 433.87 76.4189 402.77 52.3789C398.23 55.2089 393.64 57.9689 389.24 61.0089C378.4 68.4589 366.76 74.7889 356.81 83.5389Z" fill="#644EDE"/>
<path d="M345.63 425.2C345.63 425.22 345.62 425.23 345.63 425.25C345.64 425.25 345.64 425.25 345.65 425.24C346.64 425.17 347 424.48 347.23 423.65C346.4 423.87 345.47 424 345.63 425.2Z" fill="#644EDE"/>
<path d="M134.58 412.22C128.57 405.8 120.72 401.71 114.46 395.35C100.07 380.73 87.1702 365.16 77.1002 347.28C62.8802 322.01 55.1202 294.77 52.3902 266C50.6702 266.28 49.5502 267.48 48.3602 268.6C35.3302 280.87 20.8002 290.93 4.7002 298.65C17.0602 361.61 53.0402 416.09 103.05 452.49C115.62 440.72 125.42 426.73 134.58 412.22Z" fill="#A708BE"/>
<path d="M249.96 455.879C362.256 455.879 453.29 364.845 453.29 252.549C453.29 140.253 362.256 49.2188 249.96 49.2188C137.664 49.2188 46.6299 140.253 46.6299 252.549C46.6299 364.845 137.664 455.879 249.96 455.879Z" fill="white"/>
<path d="M160.13 187.579C160.13 179.239 160.13 171.579 160.13 163.249C175.4 163.249 190.48 163.249 206.31 163.249C206.31 150.339 206.31 138.059 206.31 125.529C214.26 125.529 221.45 125.529 229.54 125.529C229.54 137.519 229.54 149.529 229.54 161.819C235.99 161.819 241.54 161.819 247.76 161.819C247.76 149.949 247.76 138.109 247.76 125.769C255.74 125.769 263.09 125.769 271.02 125.769C271.02 137.829 271.02 149.929 271.02 162.109C275.87 164.089 280.61 163.969 285.12 164.829C293.46 166.429 301.32 169.059 308.92 172.969C332.82 185.249 334.4 226.179 311 238.989C310.4 239.319 309.92 239.849 309.38 240.289C310.22 242.579 312.47 242.219 314.08 242.829C332.77 249.879 341.09 261.869 341.05 281.899C341 310.439 326.53 328.019 298.51 333.759C289.8 335.539 281.05 336.869 271.34 336.959C271.34 350.039 271.34 362.539 271.34 375.369C263.35 375.929 256.2 375.839 248.44 375.469C248.44 363.039 248.44 350.949 248.44 338.469C242.19 337.299 236.44 338.079 229.93 337.729C229.93 350.289 229.93 362.569 229.93 375.249C221.82 376.099 214.47 375.629 206.42 375.639C206.42 362.579 206.42 350.059 206.42 336.839C190.59 336.839 175.46 336.839 159.91 336.839C161.47 327.579 162.89 319.079 164.36 310.339C169.13 308.809 174.06 309.789 178.89 309.609C187.37 309.289 189.8 307.039 189.81 298.629C189.86 266.029 189.86 233.429 189.81 200.839C189.8 192.589 186.41 188.799 178.28 187.839C175.27 187.479 172.19 187.639 169.15 187.599C166.38 187.549 163.58 187.579 160.13 187.579ZM230.53 259.039C230.53 275.989 230.53 292.509 230.53 309.449C245.35 310.109 259.78 310.049 273.96 306.359C278.51 305.179 282.83 303.329 286.68 300.549C296.73 293.269 297.94 278.559 289.26 269.689C285.37 265.709 280.58 263.399 275.32 261.929C260.67 257.859 245.76 258.489 230.53 259.039ZM230.45 235.439C244.72 235.699 258.34 236.329 271.22 230.879C281.69 226.449 286.2 217.739 283.61 207.069C281.55 198.579 275.12 194.409 267.41 192.099C255.38 188.509 243.05 188.689 230.45 189.539C230.45 204.919 230.45 219.819 230.45 235.439Z" fill="#040404"/>
<path d="M147.61 243.52C148.29 248.72 149.11 253.05 146.78 257.84C139.72 257.84 132.55 257.84 124.61 257.84C124.61 266.02 124.61 273.63 124.61 281.2C119.13 283.07 114.37 282.63 109.12 281.76C107.35 274.07 109.11 266.31 107.93 257.98C100.65 257.98 93.2601 257.98 85.9201 257.98C84.2801 252.93 84.8201 248.59 85.2501 244.25C88.7601 241.52 92.6401 243 96.2401 242.77C99.9401 242.54 103.67 242.72 107.71 242.72C109.51 234.99 107.03 227.17 109.34 219.59C114.38 219.03 119.15 218.26 124.06 220.25C125.45 227.5 123.98 234.76 124.98 242.26C132.32 243.63 139.84 241.69 147.61 243.52Z" fill="#040404"/>
<path d="M374.3 242.35C375.32 234.72 373.86 227.44 375.27 220.01C380.13 218.27 384.87 219.2 389.92 219.54C391.79 227.23 390.02 234.74 391.23 242.75C398.48 242.75 405.63 242.75 412.51 242.75C415.8 247.78 414.09 252.31 414.12 257.05C406.26 258.89 398.76 257.04 390.77 258.33C390.77 266.08 390.77 273.7 390.77 281.31C385.3 282.97 380.53 282.73 375.43 281.75C373.7 274 375.42 266.24 374.25 257.89C366.91 257.89 359.52 257.89 351.9 257.89C350.67 252.85 351.01 248.53 351.53 243.6C358.86 241.6 366.39 243.51 374.3 242.35Z" fill="#040404"/>
</g>
<defs>
<clipPath id="clip0_1_1521">
<rect width="500" height="500" fill="white" transform="translate(0 0.429688)"/>
</clipPath>
</defs>
</svg>
