<svg width="500" height="501" viewBox="0 0 500 501" fill="none" xmlns="http://www.w3.org/2000/svg">
<path d="M43.4302 125.573C51.1402 114.807 58.3052 103.672 66.9922 93.5866C82.7922 75.2436 100.684 59.5236 121.172 46.5116C139.551 34.8396 158.933 25.6396 179.673 19.2066C211.967 9.18862 244.933 6.20962 278.511 10.0416C303.055 12.8426 326.702 19.1086 349.224 29.2566C362.857 35.3986 375.68 42.9876 388.249 51.1836C413.577 67.6986 433.867 89.1976 450.829 113.761C468.945 139.997 480.718 169.182 487.175 200.486C491.71 222.469 493.624 244.657 491.678 266.99C489.279 294.526 483.164 321.076 471.74 346.594C462.078 368.177 450.151 387.995 434.879 405.895C419.939 423.406 403.091 438.726 383.73 451.356C370.546 459.956 356.804 467.632 342.296 473.331C318.022 482.868 292.849 489.317 266.509 490.446C247.964 491.241 229.524 490.929 211.23 487.683C195.517 484.895 180.181 480.825 165.167 475.187C150.601 469.717 136.474 463.237 123.458 455.044C104.692 443.232 87.7752 428.897 72.7212 412.381C55.9482 393.978 42.3482 373.573 31.9422 351.037C17.2422 319.202 10.0132 285.636 9.58322 250.612C9.42122 237.439 10.9322 224.368 12.6882 211.329C12.8142 210.396 12.6862 209.43 12.6762 208.478C14.2122 207.526 14.0762 205.86 14.3532 204.407C18.2592 183.924 24.8472 164.348 33.7712 145.501C36.9332 138.827 41.2962 132.737 43.4302 125.573ZM325.157 254.943C331.694 251.469 337.906 249.478 342.815 245.093C361.733 228.194 366.775 188.42 336.068 169.26C326.502 163.291 316.298 158.867 305.298 154.353C307.117 139.622 313.007 125.837 314.92 110.75C305.844 108.501 297.342 105.516 288.495 104.557C284.878 118.734 281.41 132.326 277.821 146.394C271.041 144.318 264.06 144.515 257.679 140.921C259.981 126.531 265.452 113.049 266.947 98.6066C257.625 97.1426 249.731 93.5126 240.682 93.1216C237.119 107.331 233.671 121.08 230.096 135.337C212.152 132.587 195.677 126.416 177.576 123.098C173.599 132.008 171.838 141.409 170.242 151.411C176.138 152.803 181.264 154.034 186.4 155.222C199.365 158.22 202.917 165.308 199.839 176.646C197.649 184.711 195.673 192.835 193.657 200.947C186.412 230.107 179.225 259.28 171.937 288.429C170.295 294.996 166.203 297.135 159.539 296.16C152.976 295.2 146.782 292.253 139.549 292.467C136.413 302.499 130.171 311.338 127.961 322.413C145.197 326.804 161.872 331.052 179.305 335.493C177.993 350.701 171.691 364.618 169.829 379.934C178.568 382.029 186.794 384 195.373 386.057C201.026 372.013 202.33 357.254 207.599 342.727C213.95 345.992 220.996 345.044 227.211 349.154C223.824 363.157 220.449 377.106 217.033 391.231C226.019 394.447 234.786 395.759 243.791 398.001C247.436 383.397 250.96 369.273 254.369 355.615C256.492 354.524 258.045 354.727 259.512 355.041C273.625 358.062 287.902 358.767 302.188 357.181C314.556 355.808 325.531 351.093 334.336 341.809C344.127 331.486 349.046 318.857 351.414 305.274C353.344 294.209 352.85 282.997 346.354 273.203C341.263 265.529 334.27 259.673 325.157 254.943ZM223.128 312.6C240.539 316.925 257.931 321.55 276.148 318.224C285.863 316.45 293.185 311.494 296.133 301.721C298.913 292.503 297.297 284.128 290.46 276.842C283.35 269.266 274.206 265.328 264.778 262.035C253.514 258.101 242.095 254.527 229.788 253.555C225.072 272.723 220.495 291.328 215.816 310.343C218.797 311.272 220.933 312.055 223.128 312.6ZM284.628 232.276C294.256 230.908 302.24 224.538 304.586 215.883C307.455 205.3 304.249 196.018 295.684 189.705C285.966 182.542 274.776 178.898 263.214 176.368C258.907 175.425 254.67 172.914 249.458 174.609C245.315 191.446 241.155 208.356 236.859 225.818C253.316 229.973 268.47 234.571 284.628 232.276Z" fill="#F39321"/>
</svg>
