<svg width="500" height="501" viewBox="0 0 500 501" fill="none" xmlns="http://www.w3.org/2000/svg">
<g clip-path="url(#clip0_1_1533)">
<path d="M276.5 447.329C401.2 409.529 356.7 282.429 276.5 277.629C296.9 277.629 313.5 220.229 313.5 149.129C509.3 162.829 601.2 480.029 307.6 579.229C309.5 553.529 298.7 481.629 276.5 447.329Z" fill="black" stroke="black" stroke-width="0.25" stroke-miterlimit="10"/>
<path d="M4.6001 409.728C150.7 409.728 269 293.328 269 149.328H132.5C132.8 219.828 75.7001 277.528 4.9001 277.828H4.6001V409.728ZM183.4 385.828C146.4 418.528 125.7 435.428 24.4001 451.528C84.2001 451.528 132.5 510.528 132.5 583.428H269C269 561.528 264.4 451.328 183.4 385.828Z" fill="#FF6600"/>
</g>
<defs>
<clipPath id="clip0_1_1533">
<rect width="500" height="500" fill="white" transform="translate(0 0.429688)"/>
</clipPath>
</defs>
</svg>
