<svg width="500" height="501" viewBox="0 0 500 501" fill="none" xmlns="http://www.w3.org/2000/svg">
<path d="M495.385 247.342C496.673 381.359 392.695 489.247 262.633 495.69C122.084 502.653 10.4669 394.095 4.67588 261.728C-1.46611 121.316 106.997 9.70977 239.857 4.61977C382.701 -0.85223 493.99 112.574 495.385 247.342ZM340.448 86.1458C329.358 83.3778 318.476 80.6628 307.451 77.9118C303.038 95.6178 298.708 112.991 294.351 130.473C285.517 128.399 276.913 126.379 268.177 124.328C272.604 106.536 276.961 89.0218 281.345 71.3998C270.186 68.6148 259.363 65.9128 248.381 63.1718C243.859 81.2918 239.404 99.1398 234.909 117.151C212.578 112.293 190.754 106.148 168.63 100.831C165.677 112.691 162.8 124.246 159.87 136.013C162.915 136.729 165.866 137.388 168.799 138.119C175.418 139.768 182.186 140.94 188.499 143.62C196.942 147.205 200.625 154.898 198.406 163.783C192.824 186.131 187.255 208.482 181.683 230.832C175.275 256.535 168.883 282.241 162.454 307.939C160.906 314.127 156.289 317.572 149.994 317.251C146.858 317.091 143.844 316.177 140.815 315.402C135.017 313.918 129.215 312.445 123.248 310.924C117.778 323.557 112.373 336.041 106.93 348.612C129.088 354.204 150.998 359.734 173.112 365.315C168.551 383.682 164.059 401.771 159.517 420.064C170.558 422.82 181.443 425.537 192.506 428.299C205.859 372.562 221.609 317.789 234.477 262.315C235.131 262.371 235.379 262.355 235.607 262.416C255.529 267.767 275.938 269.439 296.426 270.798C317.469 272.194 337.817 269.605 357.446 261.77C364.583 258.921 371.571 255.814 377.143 250.302C385.091 242.441 389.297 232.632 391.725 221.931C397.073 198.362 390.968 178.65 371.972 163.258C360.041 153.591 346.315 147.323 332.068 142.019C330.41 141.402 328.756 140.776 327.014 140.122C331.507 122.063 335.936 104.27 340.448 86.1458ZM241.777 340.817C234.09 372.29 226.468 403.495 218.807 434.86C229.752 437.592 240.566 440.291 251.553 443.033C256.127 424.714 260.639 406.648 265.151 388.579C265.645 388.62 265.888 388.619 266.123 388.663C282.923 391.772 299.802 393.985 316.946 392.881C327.121 392.226 337 390.228 346.293 385.869C361.449 378.76 371.454 366.8 378.014 351.736C384.606 336.598 388.128 320.934 385.003 304.361C382.652 291.889 376.55 281.512 366.939 272.875C346.163 281.457 324.304 284.404 302.005 285.15C304.733 287.406 307.203 289.566 309.575 291.862C325.676 307.456 319.521 335.392 298.177 342.342C287.098 345.949 275.82 345.838 264.443 344.658C256.909 343.874 249.478 342.45 241.777 340.817Z" fill="#272E63"/>
<path d="M340.448 86.1459C335.936 104.27 331.507 122.063 327.012 140.122C328.754 140.776 330.409 141.402 332.066 142.019C346.312 147.323 360.038 153.591 371.97 163.258C390.966 178.649 397.071 198.362 391.723 221.931C389.295 232.633 385.088 242.441 377.141 250.302C371.569 255.814 364.581 258.921 357.444 261.77C337.815 269.605 317.467 272.195 296.424 270.798C275.936 269.438 255.527 267.767 235.605 262.416C235.377 262.355 235.129 262.37 234.475 262.315C221.608 317.789 205.857 372.561 192.504 428.299C181.44 425.537 170.556 422.82 159.515 420.064C164.057 401.771 168.549 383.682 173.11 365.315C150.996 359.734 129.086 354.204 106.928 348.612C112.371 336.041 117.776 323.557 123.246 310.924C129.214 312.444 135.015 313.917 140.813 315.402C143.842 316.177 146.856 317.091 149.992 317.251C156.288 317.571 160.904 314.126 162.452 307.939C168.882 282.242 175.273 256.535 181.681 230.832C187.253 208.482 192.822 186.131 198.404 163.783C200.623 154.899 196.941 147.206 188.497 143.62C182.184 140.939 175.416 139.768 168.797 138.119C165.863 137.388 162.912 136.729 159.868 136.013C162.798 124.246 165.675 112.691 168.628 100.831C190.752 106.148 212.576 112.294 234.907 117.151C239.402 99.1399 243.856 81.2919 248.379 63.1719C259.361 65.9129 270.184 68.6149 281.343 71.3999C276.959 89.0219 272.601 106.536 268.175 124.328C276.911 126.379 285.515 128.399 294.349 130.473C298.706 112.991 303.036 95.6179 307.449 77.9119C318.475 80.6629 329.358 83.3779 340.448 86.1459ZM242.965 228.852C255.055 232.206 266.961 235.422 279.228 236.94C288.405 238.076 297.554 238.247 306.705 236.122C329.574 230.811 335.297 202.398 321.059 188.22C316.868 184.047 312.144 180.708 306.918 178.01C291.99 170.303 275.701 167.095 259.263 163.415C253.826 185.238 248.431 206.902 242.965 228.852Z" fill="#FEFEFE"/>
<path d="M241.777 340.816C249.478 342.449 256.909 343.874 264.444 344.656C275.821 345.837 287.1 345.948 298.178 342.34C319.522 335.39 325.677 307.454 309.576 291.86C307.204 289.563 304.734 287.404 302.006 285.148C324.305 284.402 346.164 281.455 366.94 272.873C376.551 281.51 382.653 291.887 385.004 304.359C388.128 320.932 384.607 336.597 378.015 351.734C371.455 366.798 361.45 378.758 346.294 385.867C337.001 390.226 327.122 392.224 316.947 392.879C299.803 393.983 282.924 391.77 266.124 388.661C265.889 388.618 265.646 388.618 265.152 388.577C260.64 406.646 256.129 424.712 251.554 443.031C240.567 440.289 229.752 437.59 218.808 434.858C226.468 403.494 234.09 372.289 241.777 340.816Z" fill="#FEFEFE"/>
<path d="M242.965 228.852C248.431 206.902 253.827 185.239 259.262 163.414C275.7 167.095 291.989 170.302 306.917 178.009C312.143 180.707 316.867 184.047 321.058 188.219C335.296 202.397 329.573 230.81 306.704 236.121C297.553 238.246 288.405 238.075 279.227 236.939C266.961 235.422 255.055 232.206 242.965 228.852Z" fill="#272E63"/>
</svg>
