<svg width="500" height="501" viewBox="0 0 500 501" fill="none" xmlns="http://www.w3.org/2000/svg">
<path d="M492.739 289.754C491.995 300.854 488.413 311.486 485.32 321.909C472.985 363.478 451.02 399.574 419.119 429.155C385.823 460.03 347.107 480.73 302.399 490.01C296.539 491.226 245.117 497.424 196.7 489.656C173.559 484.615 151.794 476.148 131.263 464.691C116.073 456.215 101.344 446.815 88.709 434.602C78.899 425.12 67.698 416.645 59.759 405.789C52.693 396.126 45.25 386.444 39.493 375.732C29.103 356.4 21.755 336.212 14.131 315.336C-1.73996 271.879 7.75604 219.671 11.1 196.976C12.327 188.651 15.479 180.844 17.725 172.792C25.385 145.33 40.003 121.575 57.087 99.3854C75.143 75.9334 97.292 56.7884 122.499 40.9864C146.797 25.7534 173.193 17.4554 200.851 10.0334C231.679 1.76036 298.202 8.50836 305.588 10.7024C318.777 14.6204 332.486 16.9604 344.971 22.9754C368.194 34.1634 390.455 46.4884 409.89 64.2054C419.422 72.8954 429.172 81.1924 437.525 91.0604C462.677 120.773 482.243 153.845 489.547 192.235C498.878 241.291 492.928 286.933 492.739 289.754ZM61.33 248.487C61.386 353.19 144.845 440.577 253.716 438.817C355.285 437.175 437.036 357.634 439.392 254.354C441.876 145.475 355.865 63.4304 253.91 60.9404C145.271 58.2884 62.478 146.786 61.33 248.487Z" fill="#FCB207"/>
<path d="M248.792 417.127C161.576 418.153 84.4278 344.083 83.2518 252.51C82.1558 167.199 145.374 97.4551 220.638 85.3611C276.962 76.3101 326.796 90.6341 367.859 130.758C402.271 164.383 418.375 205.948 417.77 254.17C416.643 344.092 339.932 419.441 248.792 417.127ZM250.926 400.46C333.54 400.209 401.467 332.359 400.93 249.763C400.393 167.076 334.623 99.7931 249.981 99.6651C167.901 99.5401 99.8058 168.059 100.19 249.814C100.588 334.737 169.267 400.219 250.926 400.46Z" fill="#06236B"/>
<path d="M320.907 242.525C341.164 258.676 349.665 279.11 341.008 303.978C331.777 330.492 310.681 340.187 283.265 339.683C283.265 347.653 283.265 355.173 283.265 363.313C274.807 363.313 267.058 363.313 258.591 363.313C258.591 355.748 258.591 348.2 258.591 340.621C252.905 338.9 247.858 339.78 242.047 339.699C242.047 347.752 242.047 355.259 242.047 363.489C233.592 364.111 225.898 364.308 217.39 363.363C217.39 355.533 217.39 348.014 217.39 339.734C198.209 339.734 179.802 339.734 159.904 339.734C165.294 328.906 170.071 319.309 174.93 309.547C180.65 309.547 185.761 309.547 191.274 309.547C191.274 269.051 191.274 229.06 191.274 188.649C188.126 187.238 184.558 187.876 181.17 188.027C176.903 188.216 173.862 186.927 172.059 182.962C168.376 174.864 164.653 166.784 160.463 157.642C179.426 157.642 197.74 157.642 216.499 157.642C218.173 148.82 216.539 140.636 217.712 132.365C225.644 132.365 233.208 132.365 241.739 132.365C241.739 140.46 241.739 148.48 241.739 157.085C247.698 157.351 252.683 157.666 258.227 156.745C258.227 148.437 258.227 140.625 258.227 132.418C266.587 132.418 274.36 132.418 282.891 132.418C282.891 140.723 282.891 148.789 282.891 157.274C303.436 160.306 318.676 170.191 326.966 188.911C335.286 207.696 332.268 225.594 320.907 242.525ZM221.658 264.051C221.658 279.466 221.658 294.072 221.658 309.199C246.36 309.199 270.781 309.771 295.154 308.945C306.466 308.562 314.564 297.644 314.433 286.27C314.301 274.877 305.733 264.698 293.41 264.283C269.807 263.486 246.158 264.051 221.658 264.051ZM221.758 233.184C241.616 233.184 260.926 233.765 280.182 232.983C293.361 232.448 302.32 221.409 301.689 208.822C301.082 196.695 291.502 187.748 278.301 187.299C270.951 187.049 263.586 187.231 256.227 187.228C244.866 187.223 233.505 187.227 221.757 187.227C221.758 202.803 221.758 217.434 221.758 233.184Z" fill="#06236B"/>
</svg>
