<svg width="500" height="501" viewBox="0 0 500 501" fill="none" xmlns="http://www.w3.org/2000/svg">
<path d="M212.159 236.587C276.494 236.587 328.648 184.433 328.648 120.098C328.648 55.7633 276.494 3.60938 212.159 3.60938C147.824 3.60938 95.6699 55.7633 95.6699 120.098C95.6699 184.433 147.824 236.587 212.159 236.587Z" fill="url(#paint0_linear_1_1551)"/>
<path d="M133.725 35.2188C129.708 52.7348 126.08 69.6608 127.346 87.3558C128.206 99.3698 131.914 110.271 138.36 120.318C149.031 136.951 164.967 146.585 183.128 152.601C225.618 166.678 267.903 181.179 308.937 199.254C335.77 211.073 358.048 228.192 375.232 251.727C390.572 272.737 399.769 296.461 403.041 322.28C408.329 364.001 398.413 402.181 372.812 435.29C340.024 477.693 296.114 498.327 242.276 496.338C204.314 494.936 171.335 480.41 143.81 454.729C117.8 430.461 102.123 400.139 96.8989 364.731C96.0939 359.273 95.3959 353.734 95.3899 348.232C95.3109 270.154 94.7159 192.068 95.7039 114.002C96.0849 83.8487 109.851 58.2707 131.263 37.0217C131.977 36.3117 132.9 35.8148 133.725 35.2188Z" fill="black"/>
<defs>
<linearGradient id="paint0_linear_1_1551" x1="95.6693" y1="120.099" x2="328.648" y2="120.099" gradientUnits="userSpaceOnUse">
<stop stop-color="#3E3E3E"/>
<stop offset="0.9995" stop-color="#7C7C7C"/>
</linearGradient>
</defs>
</svg>
