<svg width="500" height="501" viewBox="0 0 500 501" fill="none" xmlns="http://www.w3.org/2000/svg">
<path d="M245.535 292.92C245.535 292.92 233.908 299.378 230.029 301.565C188.325 259.384 146.811 217.396 104.197 174.293C104.197 120.532 104.197 8.43555 104.197 8.43555L147.372 49.2625L245.798 147.718C245.798 147.718 245.695 157.444 245.685 161.073C245.579 201.702 245.535 292.92 245.535 292.92Z" fill="#0B5079"/>
<path d="M210.178 331.009C175.246 331.009 140.143 331.009 104.29 331.009C104.29 288.289 104.29 245.687 104.29 203.988C140.724 241.041 177.746 278.692 214.768 316.343C215.633 315.598 212.665 325.159 210.178 331.009Z" fill="#0B5079"/>
<path d="M282.441 300.786C278.086 298.105 272.492 295.111 265.645 293.64C265.645 258.581 265.645 223.618 265.645 188.686C290.374 184.452 339.7 204.984 358.003 225.397C333.071 250.272 308.16 275.125 282.441 300.786Z" fill="#79C5EB"/>
<path d="M410.023 348.803C407.954 385.089 394.143 415.371 371.336 441.919C346.251 416.55 321.588 391.607 296.13 365.86C298.754 361.649 301.494 355.645 303.451 348.804C338.647 348.803 373.667 348.803 410.023 348.803Z" fill="#2781AC"/>
<path d="M357.331 455.669C331.477 477.51 301.219 490.045 265.902 492.541C265.902 456.805 265.902 421.825 265.902 386.6C271.474 384.242 276.998 381.904 282.71 379.486C307.28 404.571 331.962 429.77 357.331 455.669Z" fill="#2781AC"/>
<path d="M218.271 366.019C192.95 391.607 168.292 416.525 143.035 442.047C119.335 415.496 106.604 384.802 103.799 348.912C139.416 348.912 174.445 348.912 210.566 348.912C212.314 354.476 214.595 360.703 218.271 366.019Z" fill="#175B8C"/>
<path d="M409.412 330.882C373.943 330.882 339.179 330.882 303.96 330.882C301.5 324.994 299.081 319.205 297.09 314.441C322.307 289.01 346.949 264.159 371.585 239.312C392.67 258.997 409.205 298.625 409.412 330.882Z" fill="#4FA1D2"/>
<path d="M238.325 491.637C207.244 487.528 179.631 475.518 156.233 455.13C181.294 430.24 206.249 405.456 232.031 379.85C235.376 381.244 240.584 383.413 245.792 385.584C245.712 418.038 245.571 492.54 245.571 492.54C245.571 492.54 241.428 492.047 238.325 491.637Z" fill="#175B8C"/>
</svg>
