<svg width="500" height="501" viewBox="0 0 500 501" fill="none" xmlns="http://www.w3.org/2000/svg">
<path d="M494.1 200.33C490.8 184.33 485.9 168.53 479.6 153.53C473.4 138.73 465.6 124.53 456.7 111.13C447.8 97.9297 437.6 85.5297 426.3 74.3297C415 63.0297 402.5 52.9297 389.4 43.9297C376.1 34.9297 361.8 27.2297 347 21.0297C331.8 14.6297 316.1 9.72969 300.1 6.42969C283.7 3.12969 266.8 1.42969 250 1.42969C233.2 1.42969 216.3 3.12969 199.9 6.42969C183.9 9.72969 168.1 14.6297 153.1 20.9297C138.3 27.1297 124.1 34.9297 110.7 43.8297C97.5 52.7297 85.1 62.9297 73.9 74.2297C62.7 85.5297 52.4 97.9297 43.5 111.03C34.5 124.33 26.8 138.63 20.6 153.43C14.2 168.63 9.3 184.33 6 200.33C2.7 216.73 1 233.63 1 250.43C1 267.33 2.7 284.13 6 300.53C9.3 316.53 14.2 332.33 20.5 347.33C26.7 362.13 34.5 376.33 43.4 389.73C52.3 402.93 62.5 415.33 73.8 426.53C85.1 437.83 97.5 448.03 110.6 456.93C123.9 465.93 138.2 473.63 153 479.83C168.1 486.13 183.8 491.13 199.8 494.33C216.2 497.63 233.1 499.33 249.9 499.33C266.7 499.33 283.6 497.63 300 494.33C316 491.03 331.8 486.13 346.8 479.83C361.6 473.63 375.8 465.83 389.2 456.93C402.4 448.03 414.8 437.83 426 426.53C437.3 415.23 447.5 402.83 456.4 389.73C465.4 376.43 473.1 362.13 479.3 347.33C485.6 332.23 490.6 316.53 493.8 300.53C497.1 284.13 498.8 267.23 498.8 250.43C499.1 233.63 497.4 216.83 494.1 200.33ZM250 468.53C129.6 468.53 32 370.93 32 250.53C32 130.13 129.6 32.5297 250 32.5297C370.4 32.5297 468 130.13 468 250.53C468 370.93 370.4 468.53 250 468.53Z" fill="black"/>
<path d="M253.8 449.83C254.5 449.83 255.2 449.83 255.9 449.73C256.2 449.73 256.6 449.73 256.9 449.73C257.6 449.73 258.3 449.63 259.1 449.63C259.4 449.63 259.6 449.63 259.9 449.63C260.9 449.63 261.9 449.53 262.8 449.43C262.9 449.43 262.9 449.43 263 449.43C263.9 449.33 264.8 449.33 265.7 449.23C266 449.23 266.2 449.23 266.5 449.13C267.2 449.03 268 449.03 268.7 448.93C269 448.93 269.2 448.83 269.5 448.83C270.3 448.73 271.1 448.63 271.9 448.53C272.1 448.53 272.2 448.53 272.4 448.43C273.4 448.33 274.4 448.23 275.4 448.03H275.5C276.4 447.93 277.4 447.83 278.3 447.63C278.5 447.63 278.7 447.53 278.9 447.53C279.7 447.43 280.5 447.33 281.3 447.13C281.5 447.13 281.7 447.03 281.9 447.03C282.9 446.83 283.8 446.73 284.7 446.53C286.7 446.13 288.7 445.83 290.6 445.43C290.7 445.43 290.9 445.33 291 445.33C291.9 445.13 292.7 444.93 293.6 444.73C293.7 444.73 293.8 444.63 294 444.63C296 444.23 297.9 443.73 299.9 443.23C275.4 444.03 255.5 440.63 242.8 437.93C214.6 431.93 187.7 420.93 165 401.83C127.2 370.03 107.7 324.63 108.2 279.43C108.6 245.63 120.1 211.93 143.2 184.33C172.3 149.73 213.8 131.63 256.2 130.73C258.1 130.73 260.1 130.73 262 130.73V96.9297C259.8 96.9297 257.7 96.9297 255.5 96.9297C242.6 97.2297 229.6 98.7297 217.2 101.63C204.5 104.53 192.1 108.73 180.5 114.23C168.5 119.73 157.1 126.63 146.7 134.63C135.9 142.83 126.1 152.23 117.3 162.73C109.1 172.53 102 183.03 96.1 194.13C90.3 205.03 85.5 216.43 82 228.23C78.6 239.83 76.3 251.83 75.2 263.83C74.9 267.53 74.6 271.33 74.5 275.13C74.5 276.53 74.4 278.03 74.4 279.43C74.4 280.13 74.4 280.93 74.4 281.63C74.7 294.53 76.2 307.53 79.1 319.93C82 332.63 86.2 345.03 91.7 356.63C98.1 370.63 109.7 391.33 126.7 407.13C160.5 433.73 203.2 449.53 249.6 449.53C250.6 449.53 251.6 449.53 252.5 449.53C253.2 449.83 253.5 449.83 253.8 449.83Z" fill="black"/>
<path d="M309.6 416.93C297.7 416.73 283.3 414.93 272 412.93C219.4 403.33 174.1 371.33 157.4 322.63C137.1 263.43 168.3 199.63 226.9 180.13C238.4 176.33 250 174.53 261.5 174.43C276.7 174.33 291.6 177.43 305.4 183.23L319.7 152.83C315.5 151.03 311 149.43 306.6 148.03C291.9 143.33 276.7 141.03 261.3 141.13C245.9 141.23 230.6 143.73 215.9 148.53C197.1 154.73 180.2 164.53 165.5 177.63C158.5 183.83 152 190.83 146.4 198.33C140.8 205.73 135.8 213.73 131.8 222.23C127.7 230.63 124.5 239.33 122 248.43C119.6 257.53 118 266.83 117.4 276.23C116.1 295.63 118.7 314.93 125 333.63C131.3 352.23 141.7 369.33 155.6 384.43C168.1 398.03 182.8 408.33 200.5 417.63C219 427.33 241.7 432.53 265.4 435.83C280.7 437.93 301.1 438.33 313.2 438.33C323.7 434.43 328.1 432.83 333.8 430.33C338.7 428.03 343.6 425.63 348.3 423.03C353.1 420.23 354 419.73 362.1 414.43C362.8 413.93 363.5 413.43 364.2 412.93C336.8 417.43 329.5 417.23 309.6 416.93Z" fill="black"/>
<path d="M372.6 378.829C364.7 379.329 353.5 380.029 340.7 380.029C318 380.029 290.1 378.029 266.2 370.029C229.5 357.729 194.5 326.229 194.5 287.529C194.5 248.829 225.9 217.429 264.6 217.429C290.9 217.429 313.8 231.929 325.8 253.329L356.2 238.329C351.4 229.329 345.3 221.229 338.1 213.929C328.5 204.329 317.5 196.929 305.1 191.729C292.2 186.329 278.6 183.529 264.6 183.529C250.6 183.529 236.9 186.229 224.1 191.729C211.7 196.929 200.6 204.429 191.1 213.929C181.5 223.529 174.1 234.529 168.9 246.929C163.5 259.829 160.7 273.429 160.7 287.429C160.7 301.529 163.7 315.429 169.7 328.829C174.9 340.629 182.4 351.629 191.8 361.829C208.5 379.729 231.2 394.129 255.4 402.229C278.6 409.929 313.1 412.729 346.3 410.429C355.6 409.829 362.5 408.829 374.3 406.429C385.6 397.329 395.9 387.129 405 375.829C397.2 376.529 382.5 378.129 372.6 378.829Z" fill="black"/>
</svg>
