<svg width="500" height="501" viewBox="0 0 500 501" fill="none" xmlns="http://www.w3.org/2000/svg">
<path d="M192.5 24.0301C229.8 15.1301 269.1 15.3301 306.4 23.7301C306.6 24.0301 307.1 24.7301 307.3 25.0301C316.2 37.1301 324.8 49.4301 332.4 62.3301C339.2 73.5301 345.2 85.2301 351 97.1301C366.4 96.2301 381.8 95.5301 397.2 96.4301C409 96.7301 420.7 98.1301 432.5 99.2301L433.9 99.3301C448.3 115.33 460.6 133.13 470.4 152.23C466.3 164.63 461.8 176.83 456.6 188.83C448 165.93 435.6 144.63 420.3 125.53C401 123.33 381.6 123.13 362.3 123.93C371 147.03 377.6 170.93 382.1 195.23C384.4 209.23 386.3 223.33 387.2 237.63C385.5 244.83 393 247.93 395.1 253.93C400.3 264.83 396.9 278.63 387.7 286.33C387.6 287.73 387.4 290.63 387.2 292.03C386.8 298.23 386.3 304.43 385.5 310.63C384.6 319.13 383.2 327.53 381.9 335.93C377.4 360.63 370.6 384.73 361.7 408.23C380.7 409.13 399.7 408.63 418.6 406.93C435.4 386.73 448.9 363.63 457.6 338.73C462.2 326.13 465.2 313.13 467.6 299.93C474.1 312.33 480.3 324.93 485.8 337.73L486.4 339.13C475 374.83 455.9 408.43 429.7 435.23C403.3 435.43 376.9 437.03 350.5 434.73C344.2 446.53 338.2 458.63 331.2 470.03C319 474.73 306.4 478.53 293.6 481.23L290.7 481.83C302.1 465.83 312.4 449.03 321.4 431.43C297.3 427.63 273.6 421.83 250.6 413.73C237.4 409.03 224.3 403.73 211.7 397.73C209 396.43 206.4 395.23 203.7 393.93C196.1 397.33 187 397.63 179.5 393.63C171.1 389.43 165.4 380.83 164.7 371.53C163.7 370.83 161.7 369.33 160.7 368.53C148.3 360.53 136.7 351.33 125.3 341.93C106.6 325.83 89.2 308.13 73.6 289.03C62.3 306.13 52.6 324.23 44 342.83C52.7 366.93 66.4 388.93 82.8 408.53C103.1 410.23 123.5 410.73 143.9 409.33C144.1 409.73 144.4 410.63 144.6 411.03C148 419.43 151.6 427.73 155.5 435.93C141.8 436.93 128.2 437.83 114.5 437.53C100.5 437.33 86.6 436.33 72.6 435.03C71.8 434.93 70.2 434.73 69.5 434.63C37.4 400.23 15.1 356.73 6.69996 310.33C0.599965 277.53 1.09996 243.53 8.39996 210.93C17.3 170.53 36.8 132.53 64.1 101.53C97.3 63.2301 142.9 35.6301 192.5 24.0301ZM214.5 47.5301C201 49.8301 187.5 53.0301 174.7 57.9301C151.7 66.1301 130.3 78.6301 111.1 93.7301C100.3 102.83 89.9 112.53 81 123.53C64.9 142.73 51.8 164.63 43.4 188.23C51.8 207.13 61.8 225.43 73.2 242.73C88.5 223.93 105.7 206.63 123.8 190.63C135.3 181.63 146.5 172.03 159 164.43V164.13C160.9 162.83 162.8 161.53 164.7 160.23C164.7 154.63 166.1 148.93 169.4 144.23C177.1 132.03 194.8 128.33 206.8 136.33C208.8 135.43 210.9 134.43 212.9 133.53C225.3 127.43 238.3 122.73 251.2 117.63C274.3 110.03 298.1 104.13 322.1 100.13C312.9 82.1301 302.5 64.7301 290.6 48.4301C265.6 43.8301 239.7 43.6301 214.5 47.5301ZM293.4 133.93C279.7 137.23 266.2 141.43 253 146.33L253.5 146.53C241.8 149.73 230.8 155.63 219.6 160.43C218.7 168.13 215.5 175.73 209.2 180.53C201 187.43 188.7 188.43 179.3 183.53C168.1 191.03 156.9 198.83 146.8 207.73C135.1 216.93 124.4 227.23 114.1 237.93C105.5 246.83 97.6 256.23 90 265.93C98.4 276.53 107.1 286.83 116.7 296.43L116.6 296.63C126.8 306.73 137.2 316.73 148.5 325.63C157.5 333.13 167 339.93 176.6 346.53C185.1 340.93 196.7 340.53 205.5 345.73C214.4 350.73 219.5 361.03 219.2 371.13C230.1 376.33 241.1 381.23 252.5 385.33C265.9 390.43 279.6 394.63 293.5 398.03C306.6 401.23 319.9 403.63 333.2 405.53C338.4 392.63 343.1 379.53 346.8 366.13L347 366.03C350.7 352.03 354 337.83 356.3 323.43C358.1 312.53 359.2 301.53 360.1 290.43C353 287.33 347.1 281.43 344.6 274.13C339.5 260.83 346.9 244.93 360 239.73C359.1 228.53 358 217.33 356.1 206.23C354 191.83 350.6 177.73 346.8 163.73C343.1 151.03 338.8 138.53 333.9 126.23C320.3 128.23 306.8 130.53 293.4 133.93ZM32.6 228.03C28.6 253.03 28.5 278.73 32.7 303.73C39.7 290.73 47.7 278.23 55.9 265.93C47.7 253.63 39.9 241.03 32.6 228.03Z" fill="black"/>
<g opacity="0.19">
<path d="M307.361 24.9551C309.861 23.9551 312.461 25.3551 314.861 25.8551C335.461 31.6551 355.661 39.5551 373.861 50.8551C367.361 58.1551 358.161 62.3551 351.061 69.1551C345.061 66.4551 339.261 62.2551 332.461 62.2551C324.761 49.3551 316.161 37.0551 307.361 24.9551Z" fill="#303030"/>
</g>
<g opacity="0.2">
<path d="M174.788 57.9996C187.588 53.0996 201.088 49.8996 214.588 47.5996C203.288 64.2996 191.988 81.0996 183.488 99.3996C203.988 102.7 224.288 107.6 244.088 114.1C246.688 114.9 249.088 116.2 251.288 117.6C238.488 122.7 225.388 127.4 212.988 133.5C199.388 129.9 185.488 127 171.488 125.3C166.588 137.2 162.088 149.3 158.888 161.7L159.188 164.1V164.4C146.688 172 135.588 181.6 123.988 190.6C127.288 167.1 135.388 144.7 142.588 122.2C122.088 121 101.488 121.5 81.0876 123.4C89.9876 112.4 100.388 102.7 111.188 93.5996C125.588 94.4996 139.988 94.1996 154.388 95.3996C160.988 82.8996 167.588 70.2996 174.788 57.9996Z" fill="#333333"/>
</g>
<g opacity="0.16">
<path d="M373.849 50.9289L374.149 50.6289C394.149 62.4289 412.549 76.9289 428.549 93.6289C430.049 95.3289 431.949 96.8289 432.449 99.1289C420.649 98.0289 408.949 96.6289 397.149 96.3289C390.749 96.2289 385.849 91.9289 381.149 88.1289C371.749 80.9289 361.349 75.0289 351.049 69.2289C358.149 62.4289 367.249 58.3289 373.849 50.9289Z" fill="#2A2A2A"/>
</g>
<g opacity="0.16">
<path d="M253.022 146.345C266.222 141.445 279.722 137.245 293.422 133.945C305.522 140.345 317.822 146.645 329.322 154.245C322.322 161.145 313.422 165.445 306.222 172.045C289.522 162.045 271.622 153.945 253.622 146.545L253.022 146.345Z" fill="#282828"/>
<path d="M114.122 237.946C124.422 227.246 135.122 216.946 146.822 207.746C148.322 212.546 147.222 217.446 146.622 222.246C142.422 256.546 143.622 291.446 148.522 325.646C137.222 316.746 126.822 306.746 116.622 296.646L116.722 296.446C117.922 293.146 117.422 289.646 117.322 286.146C116.322 269.946 116.522 253.646 117.422 237.346C116.622 237.546 114.922 237.846 114.122 237.946Z" fill="#282828"/>
</g>
<g opacity="0.07">
<path d="M456.691 188.76C461.891 176.76 466.391 164.56 470.491 152.16C482.891 175.66 490.791 201.46 494.791 227.76C494.091 230.86 494.891 235.36 491.491 237.06C484.391 241.66 477.891 247.46 470.091 250.86C469.291 244.26 469.091 237.56 467.091 231.16C461.691 238.16 458.091 246.26 453.091 253.46C450.691 257.76 446.291 261.66 446.891 266.96C442.691 273.46 435.691 276.86 429.091 280.56C417.891 289.36 405.691 296.86 394.791 306.06C391.991 307.96 388.891 309.16 385.791 310.56C386.591 304.36 386.991 298.16 387.491 291.96C397.391 284.76 405.191 274.76 411.691 264.46C406.591 257.26 400.191 251.16 394.991 243.96C401.391 237.46 411.091 234.66 415.191 226.16C419.991 230.86 424.091 236.16 428.291 241.36C439.491 224.86 448.191 206.76 456.691 188.76Z" fill="#131313"/>
<path d="M167.091 393.76C168.891 397.86 169.891 402.46 172.891 405.96C185.991 404.26 198.991 401.86 211.491 397.66C224.091 403.76 237.191 409.06 250.391 413.66C248.791 414.86 247.091 415.76 245.191 416.46C225.691 423.26 205.491 428.16 185.091 431.96C184.791 438.06 190.591 442.86 192.291 448.66C184.991 453.76 176.991 457.76 170.791 464.26C164.491 455.46 160.291 445.46 155.091 436.06C151.191 427.86 147.591 419.56 144.191 411.16C151.491 404.56 160.891 401.26 167.091 393.76Z" fill="#131313"/>
</g>
<g opacity="0.14">
<path d="M329.296 154.125C335.396 156.825 339.996 162.825 346.796 163.725C350.596 177.725 353.996 191.825 356.096 206.225C339.896 194.125 323.696 182.125 306.196 171.925C313.396 165.325 322.396 161.025 329.296 154.125Z" fill="#232323"/>
</g>
<g opacity="0.1">
<path d="M382.119 195.084C385.019 196.384 387.919 197.984 390.219 200.284C398.719 208.684 407.419 216.884 415.019 226.084C410.819 234.584 401.119 237.484 394.819 243.884C392.619 241.384 389.919 239.284 387.219 237.384C386.319 223.284 384.419 209.084 382.119 195.084Z" fill="#191919"/>
</g>
<g opacity="0.04">
<path d="M494.627 227.719C498.327 245.119 497.827 263.319 497.127 281.019C494.827 300.119 492.727 319.619 485.727 337.619C480.227 324.719 474.027 312.219 467.527 299.819C465.127 312.919 462.227 326.019 457.527 338.619C450.627 329.319 446.727 318.219 441.027 308.219C448.027 302.919 455.627 298.119 463.327 293.919C464.327 294.619 466.327 296.019 467.227 296.619C470.627 281.719 469.827 266.119 469.927 250.819C477.727 247.419 484.227 241.619 491.327 237.019C494.827 235.319 493.927 230.819 494.627 227.719Z" fill="#0B0B0B"/>
</g>
<g opacity="0.05">
<path d="M446.691 266.912C453.591 275.012 458.691 284.312 463.291 293.812C455.591 298.012 448.091 302.812 440.991 308.112C437.091 301.812 433.691 295.112 428.891 289.512C420.891 295.012 416.291 304.012 409.191 310.412C400.091 318.812 392.591 329.112 381.891 335.712C383.291 327.312 384.691 318.912 385.491 310.412C388.591 309.112 391.791 307.912 394.491 305.912C405.391 296.712 417.591 289.212 428.791 280.412C435.491 276.912 442.491 273.412 446.691 266.912Z" fill="#0E0E0E"/>
<path d="M192.491 448.611C196.491 453.611 198.991 459.511 202.691 464.711C206.291 470.611 210.791 475.911 213.691 482.111C198.391 482.511 183.191 482.011 167.891 482.511C160.291 482.411 152.591 483.111 144.991 481.911C147.591 480.711 149.891 479.011 151.791 476.911C155.091 473.211 161.091 472.811 163.091 467.811C166.291 469.111 169.591 470.011 172.891 470.611C172.291 468.411 171.691 466.211 170.891 464.111C177.091 457.711 185.191 453.711 192.491 448.611Z" fill="#0E0E0E"/>
</g>
<g opacity="0.06">
<path d="M282.282 371.555C308.982 358.955 333.282 341.955 356.282 323.455C354.082 337.855 350.782 351.955 346.982 366.055L346.782 366.155C337.282 370.155 329.582 377.255 320.482 382.155C311.682 387.855 301.682 391.555 293.482 398.055C279.582 394.655 265.882 390.455 252.482 385.355C262.282 380.555 272.682 376.855 282.282 371.555Z" fill="#0F0F0F"/>
</g>
<g opacity="0.11">
<path d="M125.111 341.971C136.511 351.371 148.111 360.471 160.511 368.571C159.811 370.371 159.711 372.171 160.311 373.871C162.311 380.571 164.611 387.171 167.111 393.771C160.911 401.271 151.411 404.571 144.311 411.071C144.111 410.671 143.811 409.771 143.611 409.371C136.311 390.071 130.011 370.471 125.611 350.371C125.211 347.571 125.211 344.771 125.111 341.971Z" fill="#1B1B1B"/>
</g>
<g opacity="0.08">
<path d="M72.3629 435.043C86.2629 436.343 100.263 437.343 114.263 437.543C120.963 444.643 129.563 449.443 137.763 454.643C145.863 459.743 154.463 464.043 163.163 467.943C161.163 472.843 155.163 473.243 151.863 477.043C149.963 479.143 147.663 480.843 145.063 482.043C138.763 482.443 131.763 483.543 126.263 479.743C106.863 468.543 88.4629 454.943 73.0629 438.543C72.8629 437.643 72.4629 435.843 72.3629 435.043Z" fill="#141414"/>
</g>
</svg>
