<svg width="500" height="501" viewBox="0 0 500 501" fill="none" xmlns="http://www.w3.org/2000/svg">
<g clip-path="url(#clip0_1_1609)">
<path d="M250 500.43C388.071 500.43 500 388.501 500 250.43C500 112.359 388.071 0.429688 250 0.429688C111.929 0.429688 0 112.359 0 250.43C0 388.501 111.929 500.43 250 500.43Z" fill="#FACFD8"/>
<path d="M191.375 324.617C200.063 324.617 207.313 327.492 213.188 333.242C219.062 338.992 222 346.305 222 355.242C222 364.18 219.062 371.43 213.188 377.055C207.313 382.68 200.063 385.492 191.375 385.492C182.938 385.492 175.75 382.68 169.75 377.055C163.75 371.43 160.75 364.18 160.75 355.242C160.75 346.305 163.75 338.992 169.75 333.242C175.75 327.43 183 324.617 191.375 324.617ZM308.438 324.617C317.125 324.617 324.375 327.492 330.25 333.242C336.125 338.992 339.062 346.305 339.062 355.242C339.062 364.18 336.125 371.43 330.25 377.055C324.375 382.68 317.125 385.492 308.438 385.492C300 385.492 292.812 382.68 286.812 377.055C280.812 371.43 277.812 364.18 277.812 355.242C277.812 346.305 280.812 338.992 286.812 333.242C292.812 327.43 300.062 324.617 308.438 324.617ZM216.25 115.492V186.617V188.18C216.25 194.68 216.125 200.992 216 207.18C227 205.805 238.25 205.18 249.75 205.18C261.5 205.18 273 205.867 284.25 207.305C284.062 200.617 284 193.742 284 186.617V115.492H333.375V186.617V188.18C333.375 198.617 333.125 208.68 332.75 218.242C335.938 219.305 339.062 220.43 342.188 221.617C371.062 232.617 396.812 247.555 419.5 266.492L399.875 296.305L398.875 295.555C378.312 280.492 355.625 268.68 330.812 260.18C330.437 260.055 330.062 259.93 329.688 259.805C328.438 272.43 327 285.117 325.375 297.867H292.5L292.062 294.742C289.937 279.68 288.25 264.68 286.875 249.742C274.875 248.055 262.562 247.242 249.875 247.242C237.438 247.242 225.375 248.055 213.688 249.68C212.25 265.68 210.5 281.742 208.375 297.93H175.5L175.062 294.805C173.438 283.055 172 271.367 170.812 259.68L170.187 259.867L169.062 260.242C143.938 268.867 120.812 280.93 99.8125 296.305L80 266.43L80.9375 265.617C103.375 247.055 128.875 232.367 157.312 221.555C160.688 220.242 164.062 219.055 167.5 217.93C167.062 207.93 166.875 197.43 166.875 186.555V115.492H216.25Z" fill="#EC6998"/>
</g>
<defs>
<clipPath id="clip0_1_1609">
<rect width="500" height="500" fill="white" transform="translate(0 0.429688)"/>
</clipPath>
</defs>
</svg>
