<svg width="500" height="501" viewBox="0 0 500 501" fill="none" xmlns="http://www.w3.org/2000/svg">
<g clip-path="url(#clip0_1_1619)">
<mask id="mask0_1_1619" style="mask-type:luminance" maskUnits="userSpaceOnUse" x="0" y="0" width="500" height="501">
<path d="M500 0.429688H0V500.43H500V0.429688Z" fill="white"/>
</mask>
<g mask="url(#mask0_1_1619)">
<path d="M250 500.43C388.1 500.43 500 388.53 500 250.43C500 112.33 388.1 0.429688 250 0.429688C111.9 0.429688 0 112.33 0 250.43C0 388.53 111.9 500.43 250 500.43Z" fill="white"/>
<path fill-rule="evenodd" clip-rule="evenodd" d="M426.6 201.629C369.4 147.229 310.6 118.629 250.4 118.629C190.3 118.629 131.5 147.229 74.2001 201.629C69.3001 206.329 69.1001 214.029 73.8001 218.929C78.5001 223.829 86.2001 224.029 91.1001 219.329C145.5 167.629 198.6 143.129 250.4 143.129C302.2 143.129 355.2 167.629 409.6 219.229C410.5 220.129 411.1 221.329 411.6 222.629C411.5 223.329 411.4 224.129 411.4 224.929C411.4 227.829 410.4 229.329 409.7 230.029C409.5 230.129 409.4 230.329 409.2 230.429C407.9 231.729 406.5 232.929 405.2 234.229C354.5 192.129 302.9 170.129 250.2 170.129C194.7 170.129 140.3 194.529 87.1001 241.229C87.0001 241.329 86.9001 241.429 86.8001 241.429L86.7001 241.529C82.6001 245.029 78.2001 248.829 73.7001 253.329C61.4001 264.829 60.5001 283.929 71.3001 297.129C71.4001 297.229 71.4001 297.329 71.5001 297.429C72.6001 299.029 73.8001 300.129 75.0001 300.929C131.8 354.529 190.2 382.729 249.9 382.729C310 382.729 368.8 354.129 426.1 299.729C431 295.029 431.2 287.329 426.5 282.429C421.8 277.529 414.1 277.329 409.2 282.029C354.8 333.729 301.7 358.229 249.9 358.229C198.1 358.229 145 333.729 90.6001 282.029L90.5001 281.929C87.2001 278.329 87.8001 273.529 90.5001 271.029C90.6001 270.929 90.7001 270.829 90.9001 270.729C92.2001 269.429 93.6001 268.129 95.0001 266.829C147.9 310.929 202 333.129 257 331.129C309.7 329.329 361.3 305.429 411.8 261.229C413 260.529 414 259.729 415 258.629C415.2 258.329 415.4 258.129 415.7 257.829C419.2 254.729 422.6 251.529 426.1 248.229C432.1 242.929 434.9 236.029 435.8 229.429C436.4 228.029 436.7 226.429 436.7 224.829C436.7 216.029 432.9 207.529 427.1 201.829L427 201.729C426.7 201.729 426.7 201.729 426.6 201.629ZM250.1 194.529C294.5 194.529 339.9 212.629 386.4 250.529C341.9 287.029 298.5 305.229 255.9 306.729C209.6 308.329 162.3 290.329 113.6 250.629C160.2 212.629 205.6 194.529 250.1 194.529Z" fill="black"/>
<path fill-rule="evenodd" clip-rule="evenodd" d="M250 204.93C224.9 204.93 204.5 225.23 204.5 250.43C204.5 275.53 224.8 295.93 250 295.93C275.2 295.93 295.5 275.53 295.5 250.43C295.5 225.33 275.1 204.93 250 204.93ZM250 273.13C262.6 273.13 272.7 262.93 272.7 250.43C272.7 237.83 262.5 227.73 250 227.73C237.4 227.73 227.3 237.93 227.3 250.43C227.3 263.03 237.4 273.13 250 273.13Z" fill="black"/>
<path d="M437.5 499.43C471.466 499.43 499 471.895 499 437.93C499 403.964 471.466 376.43 437.5 376.43C403.534 376.43 376 403.964 376 437.93C376 471.895 403.534 499.43 437.5 499.43Z" fill="black" stroke="white"/>
<mask id="mask1_1_1619" style="mask-type:luminance" maskUnits="userSpaceOnUse" x="397" y="397" width="79" height="80">
<path d="M475.6 397.93H397.5V476.03H475.6V397.93Z" fill="white"/>
</mask>
<g mask="url(#mask1_1_1619)">
<path d="M450.5 458.23C454.2 454.53 456.3 449.63 456.3 444.43C456.3 441.73 455.7 439.03 454.6 436.63C454.3 436.03 454 435.43 453.7 434.83C453.3 435.33 453 435.73 452.6 436.13C451.3 437.63 449.4 438.53 447.4 438.63C446.4 438.73 445.4 438.53 444.5 438.23C443.6 437.93 442.7 437.43 441.9 436.73C441 435.93 440.4 435.03 439.9 433.93C439.4 432.83 439.3 431.73 439.4 430.53L450.5 458.23ZM450.5 458.23C446.8 461.93 441.8 463.93 436.5 463.93C431.2 463.93 426.3 461.93 422.5 458.23C418.8 454.53 416.7 449.63 416.7 444.43C416.7 441.43 417.4 438.53 418.7 435.83M450.5 458.23L418.8 435.93L450.5 458.23ZM419.8 460.93C415.4 456.53 412.9 450.63 412.9 444.43C412.9 440.83 413.7 437.33 415.3 434.13L419.8 460.93ZM419.8 460.93C424.3 465.33 430.2 467.83 436.5 467.83C442.8 467.83 448.7 465.43 453.2 460.93C457.7 456.53 460.1 450.63 460.1 444.43C460.1 441.13 459.4 438.03 458.1 435.03C457.3 433.33 456.3 431.63 455.2 430.13L453.5 427.93L452 430.33C451.3 431.43 450.5 432.43 449.6 433.53C448.9 434.23 448 434.73 447.1 434.73C446.6 434.73 446.1 434.73 445.7 434.53C445.2 434.33 444.8 434.13 444.5 433.83C444.1 433.43 443.8 433.03 443.5 432.43C443.3 431.93 443.2 431.33 443.2 430.83C443.5 426.73 442.1 422.13 439.5 417.13C438.1 414.53 436.5 412.33 434.4 410.53L431.7 408.03L431.1 411.63C430.9 412.73 430.7 413.73 430.3 414.83C429.3 417.43 428 419.83 426.2 421.93C425 423.43 423.6 424.73 422.1 425.93M419.8 460.93L422 425.93L419.8 460.93ZM418.8 435.83C420.1 433.23 422 430.83 424.4 429.03C426.2 427.63 427.8 426.13 429.2 424.43C431.2 421.93 432.8 419.13 434 416.13M418.8 435.83L434 416.13L418.8 435.83ZM422.1 425.93C419.3 428.13 416.9 430.93 415.4 434.03L422.1 425.93ZM434 416.13C434 416.03 434.1 415.93 434.1 415.93L434 416.13ZM434 416.13L434.1 415.93L434 416.13ZM434.1 415.93C434.8 416.83 435.5 417.93 436.1 419.03C438.6 423.63 439.6 427.53 439.4 430.63L434.1 415.93ZM459.3 434.53C457.9 431.43 455.9 428.63 453.4 426.43L452.7 425.73L452.4 426.63C451.7 428.73 450.4 430.73 448.6 432.73C448.1 433.33 447.4 433.43 447 433.53C446.5 433.53 445.8 433.53 445.2 432.93C444.6 432.43 444.4 431.73 444.4 431.03C444.7 426.93 443.4 422.13 440.5 416.63C438.2 412.23 435 408.83 431 406.53L430 405.93L430.1 407.13C430.2 409.83 429.9 412.33 429.1 414.43L459.3 434.53ZM459.3 434.53C460.7 437.73 461.4 441.03 461.4 444.53C461.4 447.83 460.7 451.13 459.4 454.13C458.2 457.03 456.4 459.73 454.1 461.93C451.8 464.23 449.1 466.03 446.2 467.23C443.1 468.53 439.9 469.13 436.5 469.13C433.1 469.13 429.9 468.43 426.8 467.23M459.3 434.53L426.8 467.23L459.3 434.53ZM425.2 421.13C424 422.53 422.7 423.83 421.3 424.93C418.3 427.23 415.9 430.13 414.2 433.53C412.5 436.93 411.6 440.63 411.6 444.43L425.2 421.13ZM425.2 421.13C426.9 419.13 428.2 416.83 429.1 414.33L425.2 421.13ZM426.8 467.13C423.8 465.93 421.2 464.13 418.9 461.83C416.6 459.63 414.8 456.93 413.6 454.03M426.8 467.13L413.5 454.03L426.8 467.13ZM413.6 454.03C412.3 451.03 411.6 447.73 411.6 444.43L413.6 454.03Z" fill="#F6C361"/>
<path d="M450.5 458.23C454.2 454.53 456.3 449.63 456.3 444.43C456.3 441.73 455.7 439.03 454.6 436.63C454.3 436.03 454 435.43 453.7 434.83C453.3 435.33 453 435.73 452.6 436.13C451.3 437.63 449.4 438.53 447.4 438.63C446.4 438.73 445.4 438.53 444.5 438.23C443.6 437.93 442.7 437.43 441.9 436.73C441 435.93 440.4 435.03 439.9 433.93C439.4 432.83 439.3 431.73 439.4 430.53L450.5 458.23ZM450.5 458.23C446.8 461.93 441.8 463.93 436.5 463.93C431.2 463.93 426.3 461.93 422.5 458.23C418.8 454.53 416.7 449.63 416.7 444.43C416.7 441.43 417.4 438.53 418.7 435.83M450.5 458.23L418.8 435.93M419.8 460.93C415.4 456.53 412.9 450.63 412.9 444.43C412.9 440.83 413.7 437.33 415.3 434.13L419.8 460.93ZM419.8 460.93C424.3 465.33 430.2 467.83 436.5 467.83C442.8 467.83 448.7 465.43 453.2 460.93C457.7 456.53 460.1 450.63 460.1 444.43C460.1 441.13 459.4 438.03 458.1 435.03C457.3 433.33 456.3 431.63 455.2 430.13L453.5 427.93L452 430.33C451.3 431.43 450.5 432.43 449.6 433.53C448.9 434.23 448 434.73 447.1 434.73C446.6 434.73 446.1 434.73 445.7 434.53C445.2 434.33 444.8 434.13 444.5 433.83C444.1 433.43 443.8 433.03 443.5 432.43C443.3 431.93 443.2 431.33 443.2 430.83C443.5 426.73 442.1 422.13 439.5 417.13C438.1 414.53 436.5 412.33 434.4 410.53L431.7 408.03L431.1 411.63C430.9 412.73 430.7 413.73 430.3 414.83C429.3 417.43 428 419.83 426.2 421.93C425 423.43 423.6 424.73 422.1 425.93M419.8 460.93L422 425.93M422.1 425.93C419.3 428.13 416.9 430.93 415.4 434.03L422.1 425.93ZM434 416.13C432.8 419.13 431.2 421.93 429.2 424.43C427.8 426.13 426.2 427.63 424.4 429.03C422 430.83 420.1 433.23 418.8 435.83L434 416.13ZM434 416.13C434 416.03 434.1 415.93 434.1 415.93M434 416.13L434.1 415.93M434.1 415.93C434.8 416.83 435.5 417.93 436.1 419.03C438.6 423.63 439.6 427.53 439.4 430.63L434.1 415.93ZM459.3 434.53C457.9 431.43 455.9 428.63 453.4 426.43L452.7 425.73L452.4 426.63C451.7 428.73 450.4 430.73 448.6 432.73C448.1 433.33 447.4 433.43 447 433.53C446.5 433.53 445.8 433.53 445.2 432.93C444.6 432.43 444.4 431.73 444.4 431.03C444.7 426.93 443.4 422.13 440.5 416.63C438.2 412.23 435 408.83 431 406.53L430 405.93L430.1 407.13C430.2 409.83 429.9 412.33 429.1 414.43L459.3 434.53ZM459.3 434.53C460.7 437.73 461.4 441.03 461.4 444.53C461.4 447.83 460.7 451.13 459.4 454.13C458.2 457.03 456.4 459.73 454.1 461.93C451.8 464.23 449.1 466.03 446.2 467.23C443.1 468.53 439.9 469.13 436.5 469.13C433.1 469.13 429.9 468.43 426.8 467.23L459.3 434.53ZM425.2 421.13C424 422.53 422.7 423.83 421.3 424.93C418.3 427.23 415.9 430.13 414.2 433.53C412.5 436.93 411.6 440.63 411.6 444.43M425.2 421.13L411.6 444.43M425.2 421.13C426.9 419.13 428.2 416.83 429.1 414.33L425.2 421.13ZM411.6 444.43C411.6 447.73 412.3 451.03 413.6 454.03M411.6 444.43L413.6 454.03M413.6 454.03C414.8 456.93 416.6 459.63 418.9 461.83C421.2 464.13 423.8 465.93 426.8 467.13L413.5 454.03" stroke="#FF3344" stroke-width="2"/>
</g>
</g>
</g>
<defs>
<clipPath id="clip0_1_1619">
<rect width="500" height="500" fill="white" transform="translate(0 0.429688)"/>
</clipPath>
</defs>
</svg>
