<svg width="500" height="501" viewBox="0 0 500 501" fill="none" xmlns="http://www.w3.org/2000/svg">
<path d="M255.057 1.42969L433.793 103.852L407.048 120.044L253.985 34.4077L255.057 1.42969Z" fill="#205E87"/>
<path d="M255.057 52.3066L389.611 126.613L352.024 151.186L253.985 94.4466L255.057 52.3066Z" fill="#205E87"/>
<path d="M389.611 126.611V162.76L293.57 227.056L255.057 206.942L389.611 126.611Z" fill="#5B96C4"/>
<path d="M255.057 206.943V301.331L347.406 350.036L376.222 330.786L294.403 290.452L294.553 226.356L255.057 206.943Z" fill="#3B627D"/>
<path d="M376.222 330.785L389.611 337.738V374.659L255.057 445.256L252.929 402.947L376.222 330.785Z" fill="#1F5E88"/>
<path d="M433.793 103.852V199.286L341.528 252.183L309.222 234.077L405.075 170.886L405.047 118.924" fill="#5B96C4"/>
<path d="M309.222 234.076V281.647L395.106 322.459L433.793 299.753L309.222 234.076Z" fill="#3B627D"/>
<path d="M433.793 299.754V395.606L255.057 498.141L252.929 462.458L404.365 383.535V327.089L393.714 321.764L433.793 299.754Z" fill="#1F5E88"/>
<path d="M255.057 52.3066L113.139 128.621V366.936L255.057 445.258V401.746L160.668 348.192L161.338 147.365L255.057 95.1496V52.3066Z" fill="#5B96C4"/>
<path d="M255.057 1.42969L73.6426 104.521V393.042L255.057 498.141V461.323L99.0806 375.637L99.7506 119.918L255.057 34.9007V1.42969Z" fill="#5B96C4"/>
</svg>
