<svg width="500" height="501" viewBox="0 0 500 501" fill="none" xmlns="http://www.w3.org/2000/svg">
<path d="M29.876 493.686C29.876 493.686 29.876 168.228 29.876 4.04425C38.109 3.65825 216.224 2.99825 298.466 3.02625C356.784 3.04525 402.019 28.2123 430.262 78.5073C458.743 129.226 454.279 180.755 423.503 229.989C422.184 232.099 420.996 234.29 419.192 237.403C447.961 264.09 466.366 295.92 470.239 335.658C478.077 416.086 413.929 493.109 332.65 494.93C234.395 497.13 29.876 493.686 29.876 493.686ZM123.858 364.632C197.71 364.632 270.856 364.632 344.179 364.632C344.179 346.717 344.179 331.735 344.179 312.879C302.965 312.879 263.374 312.879 223.784 312.879C223.385 311.134 222.987 309.389 222.589 307.645C263.382 264.372 304.174 221.098 343.382 179.507C343.382 164.518 343.382 152.003 343.382 138.393C270.058 138.393 198.496 138.393 125.771 138.393C125.771 155.932 125.771 172.159 125.771 191.09C165.991 191.09 204.624 191.09 243.257 191.09C244.048 192.753 244.838 194.417 245.629 196.08C204.702 238.861 163.776 281.642 122.216 325.085C122.216 335.083 122.09 345.316 122.293 355.543C122.353 358.628 123.327 361.696 123.858 364.632Z" fill="#193064"/>
<path d="M122.176 364.633C122.176 364.633 122.215 335.083 122.215 325.085C163.775 281.642 204.701 238.861 245.628 196.08C244.837 194.417 244.047 192.753 243.256 191.09C204.623 191.09 165.99 191.09 125.77 191.09C125.77 172.16 125.77 155.932 125.77 138.393C198.495 138.393 270.057 138.393 343.381 138.393C343.381 152.003 343.381 164.517 343.381 179.507C304.174 221.099 263.381 264.372 222.588 307.645C222.986 309.39 223.385 311.135 223.783 312.879C263.374 312.879 302.965 312.879 344.178 312.879C344.178 331.735 344.178 346.717 344.178 364.632C270.856 364.633 122.176 364.633 122.176 364.633Z" fill="url(#paint0_linear_1_1646)"/>
<defs>
<linearGradient id="paint0_linear_1_1646" x1="122.176" y1="251.513" x2="344.179" y2="251.513" gradientUnits="userSpaceOnUse">
<stop stop-color="#3DBFDA"/>
<stop offset="0.9995" stop-color="#439CD7"/>
</linearGradient>
</defs>
</svg>
