<svg width="500" height="501" viewBox="0 0 500 501" fill="none" xmlns="http://www.w3.org/2000/svg">
<path d="M445.102 392.246L277.942 488.756C261.48 498.261 241.197 498.261 224.735 488.756L57.5747 392.246C41.1127 382.741 30.9707 365.176 30.9707 346.167V153.147C30.9707 134.138 41.1117 116.573 57.5747 107.068L224.735 10.5584C241.197 1.05344 261.48 1.05344 277.942 10.5584L445.102 107.068C461.564 116.573 471.705 134.138 471.705 153.147V346.167C471.706 365.177 461.565 382.742 445.102 392.246Z" fill="url(#paint0_linear_1_1649)"/>
<path d="M88.76 291.934C84.604 289.271 80.043 287.071 76.362 283.862C61.738 271.118 66.976 245.695 85.448 239.648C88.985 238.49 89.882 236.791 89.847 233.35C89.691 217.977 89.748 202.601 89.803 187.226C89.811 184.884 89.266 183.126 87.272 181.609C78.762 175.135 75.667 162.604 79.97 152.728C84.532 142.258 95.153 136.221 106.108 137.881C106.97 138.012 107.912 138.012 108.668 138.38C115.578 141.742 120.504 137.452 125.791 134.165C129.732 131.715 133.883 129.602 138.066 127.269C134.474 114.309 136.919 102.991 148.439 95.3433C161.374 86.7563 173.451 89.6413 184.385 100.232C187.756 98.3813 191.103 96.6113 194.386 94.7293C203.833 89.3133 213.219 83.7913 222.708 78.4513C225.186 77.0563 226.519 75.2993 227.119 72.4733C229.332 62.0653 238.76 53.9883 248.418 53.1753C262.81 51.9633 272.147 60.5403 274.712 70.0473C276.095 75.1763 278.654 78.0973 283.338 80.2963C289.234 83.0643 294.727 86.6883 300.405 89.9233C300.869 90.1873 301.418 90.3023 302.341 90.6363C313.264 79.1073 325.991 75.7623 339.875 85.1383C350.474 92.2963 352.623 101.395 349.008 118.002C352.482 120.027 356.115 122.151 359.754 124.265C367.758 128.915 375.793 133.511 383.752 138.235C386.101 139.629 388.254 139.742 390.882 138.942C404.9 134.678 418.907 140.259 423.836 154.852C426.987 164.183 423.532 176.026 415.536 181.832C413.347 183.422 412.571 185.128 412.673 187.86C412.934 194.829 412.779 201.813 412.825 208.791C412.834 210.176 413.001 211.559 413.106 213.111C414.257 213.379 415.176 213.688 416.119 213.8C433.919 215.909 444.828 234.618 436.621 252.259C432.869 260.323 426.216 265.289 417.215 266.579C412.841 267.205 412.809 267.089 412.807 271.603C412.799 284.68 412.804 297.757 412.804 311.077C414.575 312.152 416.428 313.26 418.265 314.394C430.342 321.847 432.611 339.98 423.457 350.792C414.849 360.959 400.831 361.497 391.978 356.557C390.993 356.007 389.433 355.929 388.332 356.265C386.378 356.862 384.502 357.821 382.719 358.847C377.362 361.929 372.066 365.117 366.54 368.385C373.383 385.06 371.56 399.547 354.167 408.157C342.834 413.767 328.324 410.501 319.052 395.879C314.082 398.668 309.056 401.421 304.096 404.286C297.21 408.263 290.415 412.398 283.488 416.299C281.501 417.418 280.832 418.717 280.834 420.967C280.843 435.159 271.611 445.389 257.473 446.209C245.734 446.89 234.863 439.962 231.65 425.823C231.324 424.389 230.075 422.797 228.803 422.008C222.049 417.82 215.16 413.849 208.294 409.844C206.998 409.088 205.591 408.521 203.976 407.742C202.767 409.009 201.662 410.175 200.548 411.333C192.504 419.701 178.028 421.679 168.266 415.746C157.364 409.12 152.205 395.907 156.281 384.381C157.23 381.696 156.527 380.357 154.291 379.096C146.712 374.823 139.158 370.506 131.64 366.126C128.728 364.429 125.911 362.563 123.101 360.697C121.247 359.466 119.739 359.094 117.48 360.398C107.251 366.307 93.905 363.783 86.685 354.867C78.787 345.113 78.794 331.641 87.003 322.532C89.305 319.977 90.153 317.555 89.929 314.107C89.528 307.917 89.828 301.683 89.785 295.468C89.775 294.082 89.559 292.697 89.438 291.311C89.212 291.518 88.986 291.726 88.76 291.934ZM380.787 344.237C380.642 342.979 380.668 342.201 380.453 341.497C376.687 329.152 383.58 316.012 395.969 311.527C398.568 310.586 399.24 309.329 399.222 306.82C399.13 293.406 399.17 279.992 399.149 266.577C399.147 265.503 399.034 264.428 398.978 263.451C394.372 260.216 390.433 256.576 388.46 251.424C386.613 246.6 383.294 242.996 380.013 239.163C371.182 228.845 358.185 230.495 346.942 235.565C340.65 238.403 334.662 240.704 327.652 240.634C313.664 240.494 303.816 233.748 297.243 221.981C288.829 206.92 293.843 186.46 309.985 176.27C327.877 164.976 354.118 173.412 360.506 193.542C363.171 201.94 368.544 207.801 374.202 213.806C381.017 221.038 393.126 219.561 398.92 216.713C398.92 207.114 398.92 197.46 398.92 187.515C390.311 186.188 383.157 182.623 378.73 175.001C374.265 167.315 374.81 159.175 377.385 150.825C375.962 149.848 374.775 148.921 373.486 148.166C363.166 142.122 352.866 136.041 342.44 130.184C341.195 129.485 338.962 129.501 337.654 130.141C332.605 132.609 327.379 133.317 321.816 133.347C317.317 133.372 312.684 133.867 308.354 135.046C297.345 138.046 288.837 149.642 288.766 160.788C288.742 164.569 288.888 168.452 288.112 172.109C284.87 187.39 275.237 196.785 260.019 199.402C245.842 201.84 233.896 196.906 225.609 184.92C217.329 172.945 216.856 160.099 224.186 147.631C231.964 134.401 244.208 128.427 259.303 130.826C266.819 132.021 273.514 130.485 280.5 129.023C292.491 126.514 297.012 114.274 297.149 106.686C297.171 105.472 296.159 103.779 295.11 103.089C291.109 100.458 286.916 98.1163 282.759 95.7273C279.582 93.9013 276.351 92.1673 272.961 90.2903C267.769 98.2903 260.483 102.581 251.294 102.696C241.875 102.814 234.854 97.8313 229.514 90.1903C216.762 97.5953 204.304 104.757 191.967 112.121C190.879 112.77 189.959 114.772 190.021 116.096C190.357 123.242 187.573 129.104 183.776 134.947C179.712 141.201 177.769 148.6 179.175 155.867C180.879 164.679 186.827 171.333 194.453 175.724C205.447 182.054 212.168 190.846 213.67 203.554C216.36 226.303 195.673 245.762 173.104 241.477C160.219 239.031 151.169 231.556 146.498 219.311C141.363 205.851 144.828 193.911 153.722 183.094C155.344 181.122 156.666 178.807 157.68 176.458C158.751 173.977 159.16 171.219 160.08 168.662C164.72 155.766 158.411 146.388 148.701 139.637C146.934 138.408 145.389 138.529 143.58 139.604C138.245 142.775 132.871 145.886 127.432 148.874C125.245 150.075 124.939 151.404 125.852 153.661C131.665 168.033 122.421 184.251 107.006 186.929C105.87 187.126 104.776 187.562 103.645 187.892C103.645 205.173 103.645 222.145 103.645 238.994C113.359 244.741 114.397 246.056 118.09 251.591C120.581 255.323 123.537 258.942 126.95 261.826C136.542 269.931 151.273 269.64 161.375 262.004C164.532 259.618 168.217 257.517 171.99 256.438C183.522 253.141 194.379 254.591 204.015 262.39C214.606 270.961 219.042 282.052 216.884 295.352C214.106 312.475 198.446 325.363 181.165 324.368C167.202 323.564 154.73 315.119 149.947 301.927C149.509 300.72 148.979 299.367 148.074 298.539C142.951 293.851 137.774 289.212 132.437 284.772C131.191 283.736 129.287 283.166 127.626 283.008C119.088 282.198 111.546 285.081 104.687 289.884C103.873 290.454 103.527 292.138 103.504 293.316C103.388 299.203 103.439 305.093 103.467 310.983C103.471 311.906 103.661 312.828 103.774 313.835C113.003 313.844 120.527 316.823 125.835 324.274C131.079 331.635 131.41 339.77 129.043 348.08C129.818 348.633 130.231 348.983 130.692 349.249C141.73 355.626 152.739 362.054 163.861 368.281C165.12 368.986 167.199 369.055 168.586 368.556C173.571 366.761 178.564 365.76 183.922 365.878C187.997 365.967 192.203 365.551 196.153 364.567C201.103 363.333 206.344 361.722 209.337 357.266C213.792 350.633 216.917 343.384 216.766 335.063C216.705 331.703 216.706 328.186 217.588 324.991C222.691 306.511 240.863 294.576 260.793 300.082C277.8 304.78 287.349 319.395 285.993 337.051C284.558 355.737 267.355 370.556 248.905 368.05C240.633 366.927 232.942 367.596 225.151 370.02C215.808 372.927 209.615 380.487 208.686 390.25C208.418 393.063 209.262 394.989 211.931 396.335C215.623 398.197 219.129 400.424 222.728 402.472C226.479 404.607 230.246 406.715 234.372 409.041C239.264 401.855 245.58 397.544 253.944 396.832C262.299 396.121 269.329 399.087 275.106 405.081C275.814 404.716 276.297 404.491 276.758 404.227C289.519 396.909 302.313 389.646 314.983 382.174C316.241 381.432 316.904 379.483 317.569 377.973C318.871 375.017 319.37 371.491 321.295 369.071C325.53 363.745 326.968 357.638 327.842 351.228C328.995 342.768 321.487 328.984 313.696 325.486C297.373 318.157 287.193 296.895 297.272 277.687C305.755 261.519 326.471 253.847 343.864 262.603C365.073 273.281 368.394 300.91 355.053 316.102C352.466 319.048 350.548 322.711 348.893 326.306C347.452 329.438 346.645 332.903 345.863 336.29C343.965 344.511 348.363 355.037 355.435 358.867C363.773 354.055 372.315 349.126 380.787 344.237Z" fill="white"/>
<defs>
<linearGradient id="paint0_linear_1_1649" x1="33.3481" y1="116.1" x2="460.384" y2="377.735" gradientUnits="userSpaceOnUse">
<stop stop-color="#FCBB47"/>
<stop offset="0.9995" stop-color="#A96C00"/>
</linearGradient>
</defs>
</svg>
