<svg width="500" height="501" viewBox="0 0 500 501" fill="none" xmlns="http://www.w3.org/2000/svg">
<path d="M2 250.43C2 113.43 113 2.42969 250 2.42969C387 2.42969 498 113.43 498 250.43C498 387.43 387 498.43 250 498.43C113 498.43 2 387.43 2 250.43Z" fill="url(#paint0_linear_1_1652)"/>
<path d="M146.2 25.1301C162 17.8301 178.6 12.2301 196 8.33008V112.03H146.3V25.1301H146.2Z" fill="white"/>
<path d="M7.59961 197.83C11.2996 180.43 16.8996 163.73 24.0996 147.93H279.4C316.7 147.93 346.9 178.23 346.9 215.63V281.53C346.9 318.93 316.7 349.23 279.4 349.23H213.7C176.4 349.23 146.2 318.93 146.2 281.53V233.43H196V281.13C196 291.13 203.8 298.93 213.8 298.93H279.5C289.4 298.93 297.3 291.13 297.3 281.13V215.63C297.3 205.63 289.5 197.83 279.5 197.83H7.59961Z" fill="white"/>
<defs>
<linearGradient id="paint0_linear_1_1652" x1="465.76" y1="466.19" x2="68.96" y2="69.3897" gradientUnits="userSpaceOnUse">
<stop offset="0.1594" stop-color="#003CDA"/>
<stop offset="1" stop-color="#33DFCC"/>
</linearGradient>
</defs>
</svg>
