<svg width="500" height="501" viewBox="0 0 500 501" fill="none" xmlns="http://www.w3.org/2000/svg">
<path d="M252.511 496.762C181.056 455.513 109.94 414.459 38.9033 373.452C38.9033 290.913 38.9033 208.909 38.9033 126.071C109.886 85.0927 181.149 43.9527 252.501 2.76172C323.802 43.9157 394.755 84.8697 465.887 125.926C465.887 208.466 465.887 290.845 465.887 373.605C395.011 414.514 324.046 455.474 252.511 496.762ZM252.508 100.534C209.41 125.411 166.406 150.234 123.509 174.995C123.509 225.019 123.509 274.53 123.509 324.518C166.446 349.304 209.448 374.127 252.528 398.995C295.836 373.985 338.808 349.17 381.353 324.601C381.353 274.206 381.353 224.711 381.353 174.909C338.451 150.144 295.625 125.423 252.508 100.534Z" fill="#023048"/>
<path d="M361.718 249.948C361.483 262.319 360.081 274.416 354.866 285.714C352.862 290.056 350.39 294.394 347.252 297.961C335.359 311.484 316.611 311.23 304.713 297.683C297.814 289.828 294.467 280.321 292.729 270.26C289.492 251.513 289.577 232.842 297.023 215.014C299.394 209.337 303.004 203.744 307.343 199.409C318.234 188.527 334.998 189.077 345.871 199.998C354.252 208.416 357.923 219.145 359.823 230.499C360.898 236.909 361.115 243.461 361.718 249.948ZM344.863 262.639C345.449 254.713 345.258 247.891 345.253 239.709C345.248 231.539 343.571 223.959 342.173 216.441C341.127 210.814 338.658 205.1 335.503 200.299C330.597 192.834 321.635 193.02 316.612 200.452C313.961 204.375 311.936 209.004 310.774 213.603C305.436 234.737 305.415 256.17 309.012 277.524C310.177 284.44 312.446 291.509 315.8 297.639C321.066 307.264 331.019 306.97 336.781 297.553C338.727 294.372 340.486 290.768 341.114 287.146C342.549 278.884 344.271 270.637 344.863 262.639Z" fill="#023048"/>
<path d="M215.072 305.159C214.197 305.159 213.747 304.11 214.34 303.467C222.928 294.158 230.804 285.752 238.498 277.183C247.671 266.965 256.12 256.217 261.662 243.479C266.469 232.43 267.303 221.057 263.936 209.547C260.708 198.512 253.283 193.696 242.695 195.156C232.759 196.526 223.423 206.729 223.28 216.375C223.21 221.137 225.588 224.388 230.265 225.569C232.128 226.04 234.076 226.175 236.697 226.525C237.107 226.58 237.448 226.878 237.545 227.28C238.424 230.905 239.341 234.682 240.253 238.446C240.381 238.974 240.067 239.523 239.54 239.656C229.289 242.24 221.112 235.892 219.635 224.986C216.723 203.482 231.933 192.11 245.21 190.778C262.878 189.005 279.903 202.468 281.508 219.532C282.242 227.328 280.594 234.584 277.181 241.538C271.059 254.014 262.244 264.467 252.351 274.019C246.02 280.132 239.347 285.889 232.29 292.208C231.604 292.822 232.035 293.966 232.956 293.966H276.119C276.578 293.966 276.98 293.651 277.093 293.206C278.087 289.284 279.046 285.499 280.076 281.434C280.317 280.482 281.989 281.32 281.989 281.32L282.739 304.299C282.739 304.299 282.238 305.158 281.739 305.158H215.072V305.159Z" fill="#023048"/>
<path d="M212.657 275.455C213.748 286.178 206.099 300.102 195.848 305.007C184.142 310.609 173.262 308.061 163.392 300.35C157.271 295.568 152.999 289.217 150.411 281.982C142.441 259.707 142.373 237.399 151.438 215.409C153.25 211.014 156.028 206.829 159.109 203.179C170.444 189.751 184.513 188.242 198.324 198.365C201.511 196.189 204.617 194.069 207.722 191.948C208.17 192.272 208.618 192.596 209.065 192.92C209.065 197.648 209.065 202.377 209.065 207.105C209.065 211.921 209.065 216.737 209.065 221.554C208.719 221.778 208.373 222.002 208.027 222.225C207.231 221.158 206.263 220.177 205.669 219.007C203.201 214.147 201.449 208.802 198.335 204.415C189.24 191.605 175.097 192.528 168.285 206.627C165.142 213.133 163.158 220.492 162.144 227.676C159.63 245.493 159.51 263.422 163.876 281.033C165.12 286.05 167.196 291.108 169.983 295.444C175.974 304.765 186.717 306.647 195.918 300.452C203.048 295.651 207.181 288.668 209.5 280.513C210.023 278.673 210.606 276.85 211.161 275.02C211.66 275.166 212.158 275.311 212.657 275.455Z" fill="#343434"/>
</svg>
