<svg width="500" height="501" viewBox="0 0 500 501" fill="none" xmlns="http://www.w3.org/2000/svg">
<path d="M408.7 4.42969H91.3C40.7 4.42969 0 44.3297 0 94.0297V405.63C0 455.33 40.7 495.23 91.3 495.23H408.7C458.6 495.23 500 455.33 500 405.63V94.0297C500 44.3297 459.3 4.42969 408.7 4.42969ZM331.7 127.03C368.8 127.03 398.7 156.43 398.7 192.83C398.7 204.03 395.8 214.53 390.8 224.33C382.2 218.03 373 212.43 363 208.93C365.8 204.03 367.3 198.43 367.3 192.83C367.3 173.93 351.6 158.53 332.3 158.53C313 158.53 297.3 173.93 297.3 192.83C297.3 198.43 298.7 204.03 301.6 208.93C291.6 212.43 281.6 217.33 273.8 224.33C268.1 214.53 265.9 204.03 265.9 192.83C264.6 156.43 294.6 127.03 331.7 127.03ZM168.3 372.83C131.2 372.83 101.3 343.43 101.3 307.03H133.4C133.4 325.93 149.1 341.33 168.4 341.33C187.7 341.33 203.4 325.93 203.4 307.03H235.5C235.4 343.43 205.4 372.83 168.3 372.83ZM168.3 280.33C125.5 280.33 90.6 246.03 90.6 204.03C90.6 162.03 125.6 127.03 168.3 127.03C211 127.03 246.8 161.33 246.8 204.03C246.1 246.03 211.1 280.33 168.3 280.33ZM331.7 372.83C288.9 372.83 253.2 338.53 253.2 296.53C253.2 253.83 288.2 219.53 331.7 219.53C374.5 219.53 409.4 253.83 409.4 296.53C409.4 338.43 374.5 372.83 331.7 372.83ZM378 295.73C378 320.93 357.3 340.53 331.6 340.53C305.9 340.53 285.2 320.23 285.2 295.73C285.2 270.53 305.9 250.23 331.6 250.23C357.4 250.93 378 271.23 378 295.73ZM214 204.03C214 229.23 193.3 249.53 167.6 249.53C141.9 249.53 121.2 229.23 121.2 204.03C121.2 178.83 141.9 158.53 167.6 158.53C194 158.53 214 178.83 214 204.03Z" fill="#D9B432"/>
</svg>
