<svg width="500" height="501" viewBox="0 0 500 501" fill="none" xmlns="http://www.w3.org/2000/svg">
<g clip-path="url(#clip0_1_1663)">
<path fill-rule="evenodd" clip-rule="evenodd" d="M90.8 78.6297C83.2 37.9297 114.3 0.429688 155.7 0.429688C192.2 0.429688 221.7 30.0297 221.7 66.4297V147.83C230.8 147.23 240.1 146.83 249.5 146.83C258.5 146.83 267.4 147.13 276.2 147.73V66.4297C276.2 29.9297 305.8 0.429688 342.2 0.429688C383.5 0.429688 414.7 37.9297 407.1 78.6297L389.2 174.33C450.6 201.03 497 247.53 497 306.03V341.43C497 389.53 465.2 429.73 420.8 456.83C375.9 484.13 315.3 500.43 249.5 500.43C183.6 500.43 123.1 484.13 78.3 456.83C33.8 429.63 2 389.43 2 341.33V305.93C2 247.83 47.9 201.43 108.7 174.63L90.8 78.6297ZM366.3 186.83L387.2 74.8297C392.5 46.6297 370.8 20.6297 342.1 20.6297C316.8 20.6297 296.3 41.1297 296.3 66.4297V170.03C289.7 169.13 282.9 168.53 276.1 168.03C267.3 167.43 258.4 167.13 249.4 167.13C240 167.13 230.7 167.43 221.6 168.13C214.8 168.63 208 169.33 201.4 170.23V66.4297C201.4 41.1297 180.9 20.6297 155.6 20.6297C126.9 20.6297 105.3 46.6297 110.5 74.8297L131.5 187.13C66 211.53 22.2 255.63 22.2 306.03V341.43C22.2 418.13 124 480.33 249.5 480.33C375 480.33 476.8 418.13 476.8 341.43V306.03C476.7 255.43 432.5 211.13 366.3 186.83Z" fill="#633001"/>
<path d="M476.7 341.33C476.7 418.03 374.9 480.23 249.4 480.23C123.9 480.23 22.1001 418.03 22.1001 341.33V305.93H476.6V341.33H476.7Z" fill="#FEDC90"/>
<path fill-rule="evenodd" clip-rule="evenodd" d="M110.6 74.8289C105.3 46.6289 127 20.6289 155.7 20.6289C181 20.6289 201.5 41.1289 201.5 66.4289V170.129C217 168.129 233 167.029 249.5 167.029C265.6 167.029 281.3 168.029 296.4 170.029V66.4289C296.4 41.1289 316.9 20.6289 342.2 20.6289C370.9 20.6289 392.5 46.6289 387.3 74.8289L366.4 186.829C432.5 211.129 476.8 255.429 476.8 305.929C476.8 382.629 375 444.829 249.5 444.829C124 444.829 22.2002 382.629 22.2002 305.929C22.2002 255.629 66.0002 211.529 131.6 187.129L110.6 74.8289Z" fill="#D1884F"/>
<path d="M186.3 295.929C186.3 316.829 175 333.829 161 333.829C147 333.829 135.7 316.829 135.7 295.929C135.7 275.029 147 258.029 161 258.029C175 258.029 186.3 274.929 186.3 295.929Z" fill="#633001"/>
<path d="M360.6 295.929C360.6 316.829 349.3 333.829 335.3 333.829C321.4 333.829 310 316.829 310 295.929C310 275.029 321.3 258.029 335.3 258.029C349.3 258.029 360.6 274.929 360.6 295.929Z" fill="#633001"/>
</g>
<defs>
<clipPath id="clip0_1_1663">
<rect width="500" height="500" fill="white" transform="translate(0 0.429688)"/>
</clipPath>
</defs>
</svg>
