<svg width="500" height="501" viewBox="0 0 500 501" fill="none" xmlns="http://www.w3.org/2000/svg">
<path d="M500 300.43H375V350.43H500V300.43Z" fill="#1BFF49"/>
<path d="M375 300.43H250V350.43H375V300.43Z" fill="#12DD3B"/>
<path d="M250 300.43H125V350.43H250V300.43Z" fill="#09BB2D"/>
<path d="M125 300.43H0V350.43H125V300.43Z" fill="#00991F"/>
<path d="M375 250.43H250V300.43H375V250.43Z" fill="#1BFF49"/>
<path d="M250 250.43H125V300.43H250V250.43Z" fill="#12DD3B"/>
<path d="M125 250.43H0V300.43H125V250.43Z" fill="#09BB2D"/>
<path d="M175 200.43H50V250.43H175V200.43Z" fill="#12DD3B"/>
<path d="M300 200.43H175V250.43H300V200.43Z" fill="#1BFF49"/>
<path d="M225 150.43H100V200.43H225V150.43Z" fill="#1BFF49"/>
</svg>
