<svg width="500" height="501" viewBox="0 0 500 501" fill="none" xmlns="http://www.w3.org/2000/svg">
<path d="M290.675 9.79085C422.113 31.5558 511.411 156.767 489.98 287.732C468.163 421.057 346.975 510.099 212.581 491.218C113.883 477.352 33.265 401.438 11.174 303.95C3.76903 271.274 3.32103 232.904 8.73603 207.767C29.997 109.071 87.195 43.4968 183.715 15.0969C216.037 5.58685 249.124 2.90985 290.675 9.79085ZM379.296 177.133C334.624 108.604 237.085 93.8999 173.416 144.717C126.028 182.539 112.291 247.638 140.356 301.383C169.307 356.825 235.528 387.327 296.629 373.576C319.211 368.494 339.555 359.24 358.305 343.115C346.201 332.064 334.927 321.772 323.548 311.383C292.041 332.544 259.587 335.052 226.091 320.579C189.666 304.84 167.689 266.53 173.903 231.102C182.21 183.744 227.094 154.076 277.346 162.664C302.108 166.896 322.182 179.177 338.313 198.855C352.061 191.568 365.266 184.569 379.296 177.133Z" fill="url(#paint0_linear_1_1682)"/>
<path d="M379.296 177.133C365.266 184.569 352.061 191.568 338.313 198.855C322.181 179.177 302.108 166.896 277.346 162.664C227.095 154.076 182.21 183.744 173.903 231.102C167.688 266.531 189.666 304.84 226.091 320.579C259.586 335.052 292.041 332.544 323.548 311.383C334.927 321.772 346.201 332.065 358.305 343.115C339.555 359.24 319.211 368.494 296.629 373.576C235.529 387.326 169.307 356.824 140.356 301.383C112.291 247.638 126.028 182.539 173.416 144.717C237.084 93.9 334.624 108.605 379.296 177.133Z" fill="white"/>
<defs>
<linearGradient id="paint0_linear_1_1682" x1="106.391" y1="453.701" x2="391.111" y2="46.0002" gradientUnits="userSpaceOnUse">
<stop stop-color="#EA4397"/>
<stop offset="1" stop-color="#DB207E"/>
</linearGradient>
</defs>
</svg>
