<svg width="500" height="501" viewBox="0 0 500 501" fill="none" xmlns="http://www.w3.org/2000/svg">
<path d="M117.63 200.1L481.912 379.964L380.976 430.812L17.4529 249.43L117.63 200.1Z" fill="#02FDF9"/>
<path d="M117.63 329.117L350.998 444.473L250.062 495.32L17.4529 378.446L117.63 329.117Z" fill="#02FDF9"/>
<path d="M117.63 68.8066L350.619 184.163L249.683 235.011L17.4529 118.137L117.63 68.8066Z" fill="#38FF8C"/>
<path d="M249.683 3.53906L350.619 52.8691L249.683 103.716L149.505 52.8691L249.683 3.53906Z" fill="#38FF8C"/>
<path d="M381.735 68.8066L482.671 118.137L381.735 168.984L281.557 118.137L381.735 68.8066Z" fill="#38FF8C"/>
<path d="M381.735 200.1L482.671 249.43L381.735 300.278L281.557 249.43L381.735 200.1Z" fill="#02FDF9"/>
</svg>
