<svg width="500" height="501" viewBox="0 0 500 501" fill="none" xmlns="http://www.w3.org/2000/svg">
<g clip-path="url(#clip0_1_1698)">
<path d="M250 500.33C388.071 500.33 500 388.401 500 250.33C500 112.259 388.071 0.330078 250 0.330078C111.929 0.330078 0 112.259 0 250.33C0 388.401 111.929 500.33 250 500.33Z" fill="#EDF0F2"/>
<path d="M408.7 443.529C370.5 474.929 323.8 494.229 274.6 499.129C208.6 505.629 142.7 485.729 91.5001 443.729C40.2001 401.729 7.70006 341.029 1.20006 275.029C-3.69994 225.829 6.20005 176.229 29.4001 132.629C52.7001 89.0289 88.4001 53.3289 132 29.9289C175.6 6.62889 225.1 -3.27111 274.4 1.52889C323.6 6.32889 370.3 25.6289 408.5 57.0289L358.1 118.529C332 97.1289 300.2 84.0289 266.6 80.7289C233 77.4289 199.3 84.2289 169.6 100.129C139.9 116.029 115.5 140.429 99.7001 170.129C83.8 199.829 77.1001 233.629 80.5001 267.229C85.0001 312.229 107.1 353.629 142.1 382.229C177.1 410.929 222 424.529 267 420.029C300.5 416.729 332.4 403.529 358.4 382.129L408.7 443.529Z" fill="url(#paint0_linear_1_1698)"/>
<path d="M250 470.33C371.5 470.33 469.9 371.83 469.9 250.43C469.9 128.93 371.5 30.4297 250 30.4297C128.5 30.4297 30.1 128.93 30.1 250.33C30.1 371.83 128.5 470.33 250 470.33Z" fill="white"/>
<path fill-rule="evenodd" clip-rule="evenodd" d="M241.2 204.73L181 303.83L205 290.03C205.1 289.93 205.1 289.83 205.2 289.73L241.3 230.93V204.73H241.2ZM308.8 317.53H192.4L214.1 305.03H286.3C286.6 305.03 286.8 305.03 287.1 305.03L308.8 317.53ZM318.2 302.73L258.7 204.83V231.03L294.3 288.93L318.2 302.73ZM258.5 170.73C254.6 164.33 245.3 164.33 241.4 170.73L150.8 319.83C146.7 326.53 151.5 335.03 159.4 335.03H340.7C348.5 335.03 353.3 326.53 349.3 319.83L258.5 170.73ZM249.9 250.23L227.1 287.43H272.9L249.9 250.23Z" fill="#283947"/>
</g>
<defs>
<linearGradient id="paint0_linear_1_1698" x1="179.525" y1="27.8523" x2="257.919" y2="462.487" gradientUnits="userSpaceOnUse">
<stop stop-color="#27D3A2"/>
<stop offset="1" stop-color="#9388FD"/>
</linearGradient>
<clipPath id="clip0_1_1698">
<rect width="500" height="500" fill="white" transform="translate(0 0.429688)"/>
</clipPath>
</defs>
</svg>
