<svg width="500" height="501" viewBox="0 0 500 501" fill="none" xmlns="http://www.w3.org/2000/svg">
<path d="M250 496.481C385.891 496.481 496.052 386.32 496.052 250.429C496.052 114.538 385.891 4.37695 250 4.37695C114.109 4.37695 3.948 114.538 3.948 250.429C3.948 386.32 114.109 496.481 250 496.481Z" fill="url(#paint0_linear_1_1703)"/>
<path d="M290.915 48.1078H209.86C203.319 48.1078 197.967 42.7558 197.967 36.2148V16.4658C197.967 9.92484 203.319 10.0568 209.86 10.0568H290.915C297.456 10.0568 302.808 10.8568 302.808 17.3968V36.2138C302.807 42.7568 297.455 48.1078 290.915 48.1078Z" fill="white"/>
<path d="M291.325 452.193H210.27C203.729 452.193 198.377 457.545 198.377 464.086V483.835C198.377 490.376 203.729 490.244 210.27 490.244H291.325C297.866 490.244 303.218 489.444 303.218 482.904V464.087C303.217 457.544 297.866 452.193 291.325 452.193Z" fill="white"/>
<path d="M47.32 215.979V297.034C47.32 303.575 41.968 308.927 35.427 308.927H15.678C9.137 308.927 9.269 303.575 9.269 297.034V215.979C9.269 209.438 10.069 204.086 16.609 204.086H35.426C41.968 204.086 47.32 209.438 47.32 215.979Z" fill="white"/>
<path d="M451.404 212.7V293.755C451.404 300.296 456.756 305.647 463.297 305.647H483.046C489.587 305.647 489.455 300.295 489.455 293.755V212.7C489.455 206.159 488.655 200.807 482.115 200.807H463.297C456.755 200.808 451.404 206.159 451.404 212.7Z" fill="white"/>
<path d="M83.92 368.184L141.235 425.499C145.86 430.124 145.86 437.692 141.235 442.318L127.27 456.283C122.645 460.908 118.954 457.03 114.329 452.405L57.015 395.09C52.39 390.465 49.171 386.115 53.796 381.49L67.102 368.184C71.727 363.559 79.295 363.559 83.92 368.184Z" fill="white"/>
<path d="M364.05 81.7738L421.365 139.089C425.99 143.714 433.558 143.714 438.184 139.089L452.149 125.124C456.774 120.499 452.896 116.808 448.271 112.183L390.956 54.8678C386.331 50.2428 381.981 47.0238 377.356 51.6488L364.05 64.9548C359.425 69.5798 359.425 77.1478 364.05 81.7738Z" fill="white"/>
<path d="M363.499 421.618L420.814 364.303C425.439 359.678 433.007 359.678 437.633 364.303L451.598 378.268C456.223 382.893 452.345 386.584 447.72 391.209L390.405 448.524C385.78 453.149 381.43 456.368 376.805 451.743L363.499 438.437C358.874 433.811 358.874 426.243 363.499 421.618Z" fill="white"/>
<path d="M77.91 138.62L135.225 81.3045C139.85 76.6795 139.85 69.1115 135.225 64.4855L121.26 50.5215C116.635 45.8965 112.944 49.7745 108.319 54.3995L51.004 111.715C46.379 116.34 43.16 120.69 47.785 125.315L61.091 138.621C65.716 143.245 73.285 143.245 77.91 138.62Z" fill="white"/>
<path d="M250.82 399.708C333.717 399.708 400.919 332.506 400.919 249.609C400.919 166.711 333.717 99.5098 250.82 99.5098C167.923 99.5098 100.721 166.711 100.721 249.609C100.721 332.506 167.923 399.708 250.82 399.708Z" fill="white"/>
<path d="M250 388.058C326.236 388.058 388.038 326.257 388.038 250.02C388.038 173.784 326.236 111.982 250 111.982C173.764 111.982 111.962 173.784 111.962 250.02C111.962 326.257 173.764 388.058 250 388.058Z" fill="#090002"/>
<path d="M305.124 221.627H281.12V175.248H228.639C228.639 175.248 227.12 181.529 232.097 188.063C235.824 192.955 242.675 193.759 242.675 193.759H259.965V221.22H243.081C243.081 221.22 241.075 229.983 246.567 235.475C252.059 240.967 259.558 240.544 259.558 240.544V304.213H305.327C305.327 304.213 341.942 303.806 341.942 262.309C341.942 220.812 305.124 221.627 305.124 221.627ZM298.045 286.475H281.637V239.687H298.858C298.858 239.687 319.003 237.088 319.003 263.081C319.003 289.074 298.045 286.475 298.045 286.475Z" fill="white"/>
<path d="M239.398 286.548V304.509H192.122C192.122 304.509 155.731 303.047 155.731 263.894C155.731 224.741 184.893 222.02 197.605 222.02C210.317 222.02 228.953 222.02 228.953 222.02C228.953 222.02 228.686 239.615 211.942 239.615C192.383 239.615 178.502 239.615 178.502 262.367C178.502 277.313 185.976 286.548 198.344 286.548C214.428 286.548 239.398 286.548 239.398 286.548Z" fill="white"/>
<path d="M250 4.37695C114.109 4.37695 3.948 114.538 3.948 250.429C3.948 386.32 114.109 496.481 250 496.481C385.891 496.481 496.052 386.32 496.052 250.429C496.052 114.538 385.891 4.37695 250 4.37695ZM250 485.514C119.94 485.514 14.505 380.079 14.505 250.019C14.505 119.959 119.94 14.524 250 14.524C380.06 14.524 485.495 119.959 485.495 250.019C485.495 380.079 380.06 485.514 250 485.514Z" fill="#000201"/>
<defs>
<linearGradient id="paint0_linear_1_1703" x1="250" y1="12.6362" x2="250" y2="487.62" gradientUnits="userSpaceOnUse">
<stop stop-color="#8F6B2E"/>
<stop offset="0.3063" stop-color="#CFA249"/>
<stop offset="0.3875" stop-color="#CA9C47"/>
<stop offset="0.4956" stop-color="#BA8B41"/>
<stop offset="0.6186" stop-color="#A27036"/>
<stop offset="0.6546" stop-color="#996633"/>
<stop offset="0.6996" stop-color="#A47235"/>
<stop offset="0.7985" stop-color="#B68538"/>
<stop offset="0.8984" stop-color="#C09139"/>
<stop offset="1" stop-color="#C4953A"/>
</linearGradient>
</defs>
</svg>
