<svg width="500" height="501" viewBox="0 0 500 501" fill="none" xmlns="http://www.w3.org/2000/svg">
<path d="M250 1.42969C112.5 1.42969 1 112.93 1 250.43C1 387.93 112.5 499.43 250 499.43C387.5 499.43 499 387.93 499 250.43C499 112.93 387.5 1.42969 250 1.42969Z" fill="white"/>
<path d="M250 23.4297C280.7 23.4297 310.4 29.4297 338.4 41.2297C365.4 52.6297 389.7 69.0297 410.6 89.9297C431.5 110.83 447.8 135.03 459.3 162.13C471.1 190.13 477.1 219.83 477.1 250.53C477.1 281.23 471.1 310.93 459.3 338.93C447.9 365.93 431.5 390.23 410.6 411.13C389.7 432.03 365.5 448.33 338.4 459.83C310.4 471.43 280.7 477.43 250 477.43C219.3 477.43 189.6 471.43 161.6 459.63C134.6 448.23 110.3 431.83 89.4 410.93C68.5 390.03 52.2 365.83 40.7 338.73C29 310.83 23 281.13 23 250.43C23 219.73 29 190.03 40.8 162.03C52.2 135.03 68.6 110.73 89.5 89.8297C110.4 68.9297 134.6 52.6297 161.7 41.1297C189.6 29.4297 219.3 23.4297 250 23.4297ZM250 1.42969C112.5 1.42969 1 112.93 1 250.43C1 387.93 112.5 499.43 250 499.43C387.5 499.43 499 387.93 499 250.43C499 112.93 387.5 1.42969 250 1.42969Z" fill="#0052FF"/>
<path d="M249.9 63.4297L358.7 243.33L250.3 197.03L249.9 63.4297Z" fill="#6697FF"/>
<path d="M141.3 243.33L249.9 63.4297L250.3 197.03L141.3 243.33Z" fill="#0052FF"/>
<path d="M249.9 309.729L141.3 243.329L250.3 197.029L249.9 309.729Z" fill="#6697FF"/>
<path d="M358.7 243.329L250.3 197.029L249.9 309.729L358.7 243.329Z" fill="#CCDCFF"/>
<path d="M249.9 332.529L358.7 268.029L249.9 421.429V332.529Z" fill="#6697FF"/>
<path d="M249.9 332.529L141.3 268.029L249.9 421.429V332.529Z" fill="#0052FF"/>
</svg>
