<svg width="500" height="501" viewBox="0 0 500 501" fill="none" xmlns="http://www.w3.org/2000/svg">
<path d="M468.2 408.03C422.7 463.33 353.7 498.53 276.5 498.53C139.5 498.53 28.3999 387.43 28.3999 250.43C28.3999 113.43 139.5 2.33008 276.5 2.33008C353.1 2.33008 421.6 37.0301 467.2 91.6301L434.7 122.63C397.4 76.5301 340.4 47.0301 276.6 47.0301C164.4 47.0301 73.0999 138.33 73.0999 250.43C73.0999 362.63 164.3 453.83 276.5 453.83C340.6 453.83 397.9 424.03 435.2 377.53L468.2 408.03Z" fill="black"/>
<path d="M414.8 358.73C382.7 399.73 332.7 426.03 276.6 426.03C179.6 426.03 101 347.43 101 250.43C101 153.43 179.6 74.8301 276.6 74.8301C332.6 74.8301 382.4 101.03 414.6 141.83L382 172.93C358.2 140.53 319.8 119.53 276.6 119.53C204.4 119.53 145.7 178.23 145.7 250.43C145.7 322.63 204.4 381.33 276.6 381.33C319.6 381.33 357.9 360.43 381.8 328.33L414.8 358.73Z" fill="black"/>
</svg>
