<svg width="500" height="501" viewBox="0 0 500 501" fill="none" xmlns="http://www.w3.org/2000/svg">
<g clip-path="url(#clip0_1_1733)">
<path d="M250 500.43C388.071 500.43 500 388.501 500 250.43C500 112.359 388.071 0.429688 250 0.429688C111.929 0.429688 0 112.359 0 250.43C0 388.501 111.929 500.43 250 500.43Z" fill="#EDF0F2"/>
<path d="M408.7 443.53C370.5 474.93 323.8 494.23 274.6 499.13C208.6 505.63 142.8 485.73 91.5001 443.73C40.2001 401.73 7.8001 341.03 1.2001 275.03C-3.6999 225.83 6.1001 176.33 29.4001 132.63C52.7001 89.1304 88.4001 53.3304 132 30.0304C175.6 6.73045 225.2 -3.16955 274.4 1.63045C323.6 6.43045 370.3 25.7305 408.5 57.1305L358.1 118.63C332 97.2304 300.2 84.1305 266.7 80.8305C233.2 77.5304 199.4 84.3305 169.7 100.23C140 116.13 115.6 140.53 99.8001 170.23C83.9001 199.93 77.2001 233.73 80.6001 267.33C85.1001 312.33 107.2 353.73 142.2 382.33C177.2 410.93 222.1 424.63 267.1 420.13C300.6 416.83 332.5 403.63 358.5 382.23L408.7 443.53Z" fill="url(#paint0_linear_1_1733)"/>
<path d="M250 470.329C371.5 470.329 469.9 371.829 469.9 250.429C469.9 128.929 371.4 30.5293 250 30.5293C128.5 30.5293 30.1001 128.929 30.1001 250.429C30.1001 371.929 128.5 470.329 250 470.329Z" fill="white"/>
<path d="M341 223.73H321.9C311.4 194.53 283 174.43 245.7 174.43H184.2V223.73H162.9V241.43H184.2V260.03H162.9V277.73H184.2V326.43H245.7C282.6 326.43 310.8 306.53 321.6 277.73H341V260.03H325.8C326.2 256.93 326.4 253.73 326.4 250.43V250.03C326.4 247.13 326.2 244.23 326 241.53H341.1L341 223.73ZM201.4 190.23H245.7C273.1 190.23 293.5 203.73 302.9 223.73H201.4V190.23ZM245.7 310.53H201.4V277.63H302.8C293.3 297.33 273 310.53 245.7 310.53ZM308.6 250.83C308.6 253.93 308.4 257.03 308 259.93H201.4V241.43H308C308.4 244.33 308.6 247.33 308.6 250.43V250.83Z" fill="url(#paint1_linear_1_1733)"/>
</g>
<defs>
<linearGradient id="paint0_linear_1_1733" x1="179.532" y1="27.927" x2="257.921" y2="462.527" gradientUnits="userSpaceOnUse">
<stop stop-color="#27D3A2"/>
<stop offset="1" stop-color="#9388FD"/>
</linearGradient>
<linearGradient id="paint1_linear_1_1733" x1="251.981" y1="152.929" x2="251.981" y2="342.359" gradientUnits="userSpaceOnUse">
<stop stop-color="#283947"/>
<stop offset="1" stop-color="#657786"/>
</linearGradient>
<clipPath id="clip0_1_1733">
<rect width="500" height="500" fill="white" transform="translate(0 0.429688)"/>
</clipPath>
</defs>
</svg>
