<svg width="500" height="501" viewBox="0 0 500 501" fill="none" xmlns="http://www.w3.org/2000/svg">
<path d="M235.2 485.929L50.4999 375.029C45.4999 372.029 42.3999 366.529 42.3999 360.729V146.029L78.3999 167.829V340.429C78.3999 346.329 81.4999 351.729 86.4999 354.729L235 444.029L235.2 485.929Z" fill="#0380FF"/>
<path d="M457.1 119.73L352.9 56.3301L317.4 76.8301L424 141.73C430.4 145.63 434.3 152.63 434.3 160.13V280.03L470.3 259.83V143.33C470.4 133.73 465.3 124.73 457.1 119.73Z" fill="#0380FF"/>
<path d="M434.4 338.531C434.4 344.931 431 350.931 425.5 354.231L304.3 426.431C299.5 429.231 293.5 425.831 293.5 420.331V226.031L127.6 128.831C123.2 126.231 123.3 119.931 127.6 117.431L245.8 48.7307C253.8 44.1307 263.6 44.2307 271.5 49.0307L297 64.5307L332.5 44.0307L274.1 8.43066C264.9 2.83066 253.5 2.73066 244.2 8.13066L46.3999 123.031L257.5 246.631V496.231L461.4 374.731C466.9 371.431 470.3 365.431 470.3 359.031V285.031L434.3 304.331V338.531H434.4Z" fill="#0380FF"/>
</svg>
