<svg width="500" height="501" viewBox="0 0 500 501" fill="none" xmlns="http://www.w3.org/2000/svg">
<g clip-path="url(#clip0_1_1742)">
<path d="M375 208.131C381.904 208.131 387.5 202.534 387.5 195.631C387.5 188.727 381.904 183.131 375 183.131C368.096 183.131 362.5 188.727 362.5 195.631C362.5 202.534 368.096 208.131 375 208.131Z" fill="black"/>
<path d="M250 0.330078C112 0.330078 0 112.33 0 250.33C0 388.33 112 500.33 250 500.33C388 500.33 500 388.33 500 250.33C500 112.33 388 0.330078 250 0.330078ZM363.5 354.83C334 387.33 292 406.13 248.5 406.13H248.2C203.9 406.13 161.7 387.13 132.2 354.13C102.2 320.63 88.4 277.63 93.2 232.83C101 161.33 158.5 103.53 230 95.3301C236 94.5301 242.3 94.3301 248.3 94.3301C282.8 94.3301 315.8 105.63 343.3 126.83C345.1 128.13 346.1 130.13 346.1 132.33C346.1 134.53 345.3 136.63 343.6 138.13L327 152.83C325.2 154.33 323 155.33 320.5 155.33C318.5 155.33 316.5 154.83 315 153.53C295.2 139.73 272 132.53 248.2 132.53C214.7 132.53 182.7 147.03 160.4 172.03C137.9 197.33 127.4 230.03 131.4 263.83C137.4 317.63 180.9 361.13 234.9 367.13C239.4 367.63 243.9 367.93 248.4 367.93C279.9 367.93 309.4 355.43 331.9 332.93C333.7 331.13 336.2 329.93 338.9 329.93C340.7 329.93 342.7 330.43 344.2 331.43L362.5 343.43C364.3 344.73 365.5 346.43 365.8 348.73C365.7 351.13 365 353.33 363.5 354.83ZM375 233.33C354.2 233.33 337.2 216.33 337.2 195.53C337.2 174.73 354.2 157.73 375 157.73C395.8 157.73 412.8 174.73 412.8 195.53C412.8 216.33 395.7 233.33 375 233.33Z" fill="black"/>
</g>
<defs>
<clipPath id="clip0_1_1742">
<rect width="500" height="500" fill="white" transform="translate(0 0.429688)"/>
</clipPath>
</defs>
</svg>
