<svg width="500" height="501" viewBox="0 0 500 501" fill="none" xmlns="http://www.w3.org/2000/svg">
<g clip-path="url(#clip0_1_1747)">
<path d="M302.6 342.53C382.5 342.53 447.3 277.73 447.3 197.83C447.3 117.93 382.6 53.0297 302.6 53.0297C222.6 53.0297 157.9 117.83 157.9 197.73C157.9 277.63 222.7 342.53 302.6 342.53ZM302.6 395.13C193.6 395.13 105.2 306.73 105.2 197.73C105.3 88.8297 193.6 0.429688 302.6 0.429688C411.6 0.429688 500 88.8297 500 197.83C500 306.83 411.6 395.13 302.6 395.13Z" fill="#35D07F"/>
<path d="M197.4 447.829C277.3 447.829 342.1 383.029 342.1 303.129C342.1 223.229 277.3 158.429 197.4 158.429C117.5 158.429 52.6 223.129 52.6 303.029C52.6 382.929 117.4 447.829 197.4 447.829ZM197.4 500.429C88.4 500.429 0 412.029 0 303.029C0 194.029 88.4 105.629 197.4 105.629C306.4 105.629 394.8 194.029 394.8 303.029C394.7 412.029 306.4 500.429 197.4 500.429Z" fill="#FBCC5C"/>
</g>
<defs>
<clipPath id="clip0_1_1747">
<rect width="500" height="500" fill="white" transform="translate(0 0.429688)"/>
</clipPath>
</defs>
</svg>
