<svg width="500" height="501" viewBox="0 0 500 501" fill="none" xmlns="http://www.w3.org/2000/svg">
<path fill-rule="evenodd" clip-rule="evenodd" d="M460.1 232.43C464.1 221.63 480.6 216.53 490.6 216.53H495.1V240.53C489.4 240.53 483.6 240.23 478.1 242.13C474.3 243.33 470.9 245.63 468.4 248.73C463.7 255.03 464.1 258.83 463.8 264.73C463.5 270.43 463.6 274.33 463.6 280.13V322.63H437.4V217.63H460.1V232.43ZM141.5 297.63C122.7 316.03 106.5 324.93 79.8998 324.93C35.4998 324.93 4.7998 293.93 4.7998 250.23C4.7998 205.43 39.5998 175.93 80.2998 175.93C104.1 175.93 126.6 186.33 142.1 204.33L123.1 222.53C110.3 208.93 96.1998 201.83 79.5998 201.83C52.9998 201.83 31.1998 222.33 31.1998 250.23C31.1998 279.43 52.0998 299.03 80.1998 299.03C97.7998 299.03 109.6 291.93 123.1 278.53L141.5 297.63ZM253.9 301.53C242.6 317.53 227.8 324.73 205.7 324.73C172.3 324.73 150.8 300.23 150.8 269.43C150.8 240.83 171.5 214.33 205.3 214.33C238.5 214.33 261 238.03 261 271.23C261 273.63 260.8 274.83 260.8 277.13H176.3C178.9 292.73 190.7 301.43 205.7 301.43C217 301.43 224.5 298.23 231.8 291.13L253.9 301.53ZM234.6 256.33C231 244.13 219.8 236.53 205.7 236.53C192.7 236.53 182.6 243.03 177.5 256.33H234.6ZM274.4 176.53H300.7V322.03H274.4V176.53ZM417 301.53C405.7 317.53 390.9 324.73 368.8 324.73C335.4 324.73 313.9 300.23 313.9 269.43C313.9 240.83 334.6 214.33 368.4 214.33C401.6 214.33 424.1 238.03 424.1 271.23C424.1 273.63 423.9 274.83 423.9 277.13H339.4C342 292.73 353.8 301.43 368.8 301.43C380.1 301.43 387.6 298.23 394.9 291.13L417 301.53ZM397.7 256.33C394.1 244.13 382.9 236.53 368.8 236.53C355.8 236.53 345.7 243.03 340.6 256.33H397.7Z" fill="black"/>
</svg>
