<svg width="500" height="501" viewBox="0 0 500 501" fill="none" xmlns="http://www.w3.org/2000/svg">
<path d="M266.6 497.729C259.8 497.729 253 497.129 246.2 495.829L136.9 475.029C87.4 465.629 51.5 422.229 51.5 371.829V171.129C51.5 138.429 65.9 107.729 91.1 86.8292C104.7 75.5292 120.7 67.8292 137.5 64.1292C144 49.9292 153.6 37.2292 166 26.9292C190.1 6.92922 221.7 -1.27078 252.5 4.52922L359.8 24.7292C409.4 34.0292 445.4 77.4292 445.4 127.929V179.429C445.4 185.329 442.7 191.029 438.1 194.729L366.5 252.629C360.6 257.429 352.5 258.329 345.7 255.129C338.9 251.829 334.5 244.929 334.5 237.429V188.229C334.5 155.929 311.4 128.029 279.6 122.129L173.9 102.229C171.8 101.829 169.7 101.529 167.6 101.329C167.4 103.529 167.3 105.729 167.3 107.929V314.029C167.3 345.529 189.8 372.729 220.7 378.529L320.1 397.429C325.1 398.329 330.1 398.829 335 398.729C335.4 395.629 335.6 392.429 335.6 389.229V320.029C335.6 314.229 338.2 308.729 342.6 305.029L415 244.129C420.9 239.229 429 238.129 436 241.329C442.9 244.529 447.4 251.529 447.4 259.129V324.629C447.4 358.529 432.4 390.429 406.3 412.029C394.2 422.029 380.3 429.329 365.6 433.629C358.9 448.629 348.7 462.129 335.7 472.929C316 489.129 291.6 497.729 266.6 497.729ZM128 109.229C123.8 111.429 119.9 114.129 116.2 117.129C100.1 130.529 90.8 150.129 90.8 171.129V371.829C90.8 403.329 113.3 430.529 144.2 436.329L253.5 457.129C273.8 461.029 294.6 455.629 310.6 442.429C312.8 440.629 314.9 438.629 316.8 436.629C315.4 436.429 314.1 436.229 312.7 435.929L213.3 417.029C163.8 407.629 127.9 364.229 127.9 313.829V109.229H128ZM375 329.229V386.329C377.1 384.929 379.2 383.429 381.2 381.729C398.3 367.629 408 346.829 408 324.629V301.429L375 329.229ZM184 64.1292L286.9 83.4292C337.3 92.9292 373.8 136.929 373.8 188.229V196.229L406 170.129V128.029C406 96.4292 383.5 69.3292 352.4 63.4292L245.1 43.3292C225.8 39.7292 206.1 44.8292 191 57.3292C188.5 59.4292 186.2 61.6292 184 64.1292Z" fill="#102FFF"/>
</svg>
