<svg width="500" height="501" viewBox="0 0 500 501" fill="none" xmlns="http://www.w3.org/2000/svg">
<path d="M317.3 166.53C352.9 158.83 389.4 174.43 408.5 205.43C427.6 236.43 425.1 276.03 402.2 304.33C379.4 332.63 341.1 343.43 306.9 331.33C272.6 319.23 249.7 286.83 249.7 250.43H173.8C173.7 323.03 222 386.83 292 406.43C362 426.03 436.4 396.63 474.1 334.53C511.8 272.43 503.5 192.83 453.9 139.73C404.2 86.73 325.3 73.23 260.9 106.83C284.5 121.63 303.9 142.13 317.3 166.53Z" fill="#5F5FFF"/>
<path d="M181.9 334.23C146.3 341.93 109.8 326.33 90.7 295.33C71.6 264.33 74.1 224.73 97 196.43C119.8 168.13 158 157.33 192.3 169.43C226.6 181.53 249.5 213.93 249.5 250.33H325.4C325.5 177.63 277.1 113.83 207.2 94.2303C137.2 74.6303 62.8 104.03 25.1 166.13C-12.6 228.23 -4.3 307.83 45.3 360.93C94.9 414.03 173.9 427.43 238.3 393.83C214.8 379.13 195.4 358.63 181.9 334.23Z" fill="#17E5AA"/>
</svg>
