<svg width="500" height="501" viewBox="0 0 500 501" fill="none" xmlns="http://www.w3.org/2000/svg">
<g clip-path="url(#clip0_1_1757)">
<path d="M250.1 500.83C388.282 500.83 500.3 388.811 500.3 250.63C500.3 112.448 388.282 0.429688 250.1 0.429688C111.919 0.429688 -0.0996094 112.448 -0.0996094 250.63C-0.0996094 388.811 111.919 500.83 250.1 500.83Z" fill="#EDF0F2"/>
<path d="M408.9 443.83C370.7 475.23 324 494.63 274.8 499.53C208.8 506.03 142.9 486.13 91.5997 444.03C40.1997 402.03 7.69971 341.23 1.19971 275.23C-3.70029 226.03 6.19971 176.43 29.4997 132.73C52.7997 89.1305 88.4997 53.4305 132.1 30.0304C175.7 6.73045 225.3 -3.16955 274.5 1.63045C323.7 6.43045 370.4 25.7305 408.7 57.1305L358.2 118.73C332.1 97.3305 300.3 84.1304 266.7 80.9305C233.1 77.7305 199.3 84.4305 169.6 100.33C139.9 116.23 115.5 140.63 99.5997 170.43C83.6997 200.23 76.9997 234.03 80.2997 267.53C84.7997 312.53 106.9 353.93 141.9 382.63C176.9 411.33 221.8 424.93 266.8 420.43C300.4 417.13 332.2 403.93 358.3 382.53L408.9 443.83Z" fill="url(#paint0_linear_1_1757)"/>
<path d="M250.8 471.329C372.3 471.329 470.9 372.829 470.9 251.229C470.9 129.729 372.4 31.1289 250.8 31.1289C129.3 31.1289 30.7002 129.629 30.7002 251.229C30.7002 372.729 129.3 471.329 250.8 471.329Z" fill="white"/>
<path d="M252.3 289.33L317 251.83L240.1 212.23L252.3 289.33Z" fill="#AAB8C1"/>
<path d="M187.6 251.73L252.3 289.23V219.93L187.6 251.73Z" fill="#AAB8C1"/>
<path d="M252.3 146.33L187.6 251.73L272.4 214.03L252.3 146.33Z" fill="#283947"/>
<path d="M252.3 146.33V222.83L317 251.73L252.3 146.33Z" fill="#657786"/>
<path d="M252.3 353.33L260.7 306.03L187.7 263.83L252.3 353.33Z" fill="#283947"/>
<path d="M252.3 301.33V353.33L317 263.83L252.3 301.33Z" fill="#657786"/>
</g>
<defs>
<linearGradient id="paint0_linear_1_1757" x1="179.621" y1="27.927" x2="258.062" y2="462.826" gradientUnits="userSpaceOnUse">
<stop stop-color="#27D3A2"/>
<stop offset="1" stop-color="#9388FD"/>
</linearGradient>
<clipPath id="clip0_1_1757">
<rect width="500" height="500" fill="white" transform="translate(0 0.429688)"/>
</clipPath>
</defs>
</svg>
