<svg width="500" height="501" viewBox="0 0 500 501" fill="none" xmlns="http://www.w3.org/2000/svg">
<path fill-rule="evenodd" clip-rule="evenodd" d="M59.9004 393.629C45.2004 362.129 36.9004 326.929 36.9004 289.829C37.0004 154.229 146.9 44.2289 282.5 44.2289C358 44.2289 425.6 78.3289 470.6 131.929L497.5 109.429C446 48.1289 368.8 9.12891 282.5 9.12891C127.5 9.12891 1.90039 134.829 1.90039 289.829C1.90039 332.229 11.3004 372.429 28.1004 408.429L59.9004 393.629Z" fill="black"/>
<path fill-rule="evenodd" clip-rule="evenodd" d="M282.5 456.429C190.5 456.429 115.9 381.829 115.9 289.829C115.9 197.829 190.5 123.229 282.5 123.229C333.7 123.229 379.6 146.329 410.1 182.729L437 160.129C400 116.129 344.5 88.0293 282.5 88.0293C171.1 88.1293 80.7998 178.429 80.7998 289.829C80.7998 401.229 171.1 491.529 282.5 491.529V456.429Z" fill="black"/>
<path fill-rule="evenodd" clip-rule="evenodd" d="M343 340.53C328.5 357.73 306.8 368.73 282.5 368.73C238.9 368.73 203.6 333.43 203.6 289.83C203.6 246.23 238.9 210.93 282.5 210.93C306.8 210.93 328.5 221.93 343 239.13L373.2 213.73C351.5 187.83 318.9 171.43 282.5 171.43C217.1 171.43 164.1 224.43 164.1 289.83C164.1 355.23 217.1 408.23 282.5 408.23C315.9 408.23 346 394.43 367.5 372.23L343 340.53Z" fill="black"/>
</svg>
