<svg width="500" height="501" viewBox="0 0 500 501" fill="none" xmlns="http://www.w3.org/2000/svg">
<path d="M498.06 377.149H371.05V355.309H393.05V333.139H415.05V110.629H86.03V144.129H21.47V157.689H2.02002V289.139H12.02V301.139H86.02V333.139H107.52V355.639H152.02V377.139H20.02V399.639H63.52V421.139H453.55V399.639H498.05V377.149H498.06ZM22.03 277.149V168.509H86.03V277.139H22.03V277.149Z" fill="#A52639"/>
<path d="M437.31 111.41H195.98V311.55H217.49V333.5H239.98V355.32H393.65V333.5H415.69V311.55H437.31V111.41Z" fill="#DD3745"/>
<path d="M345.98 91.7988H324.17V249.569H345.98V91.7988Z" fill="#FFAA6E"/>
<path d="M411.79 163.07H389.98V252.95H411.79V163.07Z" fill="#FFE091"/>
<path d="M346.13 267.62V245.57H324.16V267.62H301.98V333.24H368.17V267.62H346.13Z" fill="#431E66"/>
<path d="M498.05 377.15H195.53V399.4H498.05V377.15Z" fill="#DD3745"/>
<path d="M439.71 377.15H417.46V399.4H439.71V377.15Z" fill="#FFE091"/>
<path d="M443.21 91.6191H82.2402V113.399H443.21V91.6191Z" fill="#CCE2E1"/>
</svg>
