<svg width="500" height="501" viewBox="0 0 500 501" fill="none" xmlns="http://www.w3.org/2000/svg">
<path d="M4.22482 248.95C3.65982 115.665 113.698 5.02211 246.391 3.44711C380.893 1.85111 493.961 110.082 495.328 245.97C496.712 383.5 386.865 495.036 248.81 494.559C112.148 494.087 4.09382 382.926 4.22482 248.95ZM180.494 347.367C186.057 350.601 189.645 348.149 193.161 345.873C197.738 342.909 202.459 340.084 206.664 336.644C214.228 330.457 222.156 328.998 232.131 329.855C263.783 332.576 292.774 324.337 318.169 304.759C367.88 266.433 367.511 196.945 317.421 159.049C278.034 129.251 223.442 125.148 181.227 150.414C148.476 170.015 128.366 198.287 131.064 238.286C133.016 267.22 147.445 289.914 170.641 306.816C176.803 311.306 179.176 316.098 178.963 323.552C178.738 331.385 177.388 339.468 180.494 347.367ZM334.076 365.031C339.568 360.928 339.64 357.401 339.15 354.145C337.727 344.689 341.994 338.843 349.238 333.05C358.487 325.653 365.113 315.613 367.625 303.731C371.103 287.282 369.948 271.711 356.721 257.504C351.993 266.705 348.763 273.776 351.03 283.461C354.669 299.009 348.985 312.49 336.615 322.562C330.823 327.278 325.178 331.857 322.731 339.293C317.308 337.11 313.115 334.57 307.635 335.252C297.176 336.552 286.938 335.502 276.621 332.382C268.946 330.061 260.533 330.294 253.121 337.108C263.816 346.269 275.686 350.144 288.259 351.264C304.728 352.73 321.878 350.892 334.076 365.031Z" fill="url(#paint0_linear_1_1786)"/>
<path d="M180.494 347.367C177.388 339.468 178.738 331.386 178.962 323.552C179.175 316.098 176.802 311.306 170.64 306.816C147.443 289.914 133.014 267.221 131.063 238.286C128.365 198.287 148.476 170.016 181.226 150.414C223.441 125.148 278.033 129.251 317.42 159.049C367.51 196.944 367.879 266.433 318.168 304.759C292.773 324.338 263.783 332.576 232.13 329.855C222.155 328.998 214.227 330.456 206.663 336.644C202.458 340.084 197.738 342.909 193.16 345.873C189.645 348.149 186.057 350.601 180.494 347.367ZM194.804 321.343C199.533 319.952 201.544 319.96 202.583 318.96C210.704 311.146 220.129 311.152 230.649 312.421C252.806 315.094 273.96 311.01 293.954 300.68C348.76 272.366 353.937 205.021 303.026 170.529C266.873 146.035 227.849 144.945 189.888 165.618C137.266 194.275 132.637 258.164 179.87 293.035C189.333 300.022 198.974 305.68 194.804 321.343Z" fill="white"/>
<path d="M334.076 365.032C321.878 350.893 304.727 352.732 288.258 351.264C275.685 350.144 263.815 346.269 253.12 337.108C260.532 330.295 268.945 330.061 276.62 332.382C286.937 335.502 297.176 336.553 307.634 335.252C313.114 334.571 317.307 337.11 322.73 339.293C325.177 331.858 330.822 327.278 336.614 322.562C348.985 312.49 354.669 299.009 351.029 283.461C348.762 273.776 351.992 266.705 356.72 257.504C369.946 271.711 371.102 287.281 367.624 303.731C365.112 315.613 358.486 325.654 349.237 333.05C341.993 338.842 337.726 344.688 339.149 354.145C339.641 357.402 339.569 360.929 334.076 365.032Z" fill="white"/>
<path d="M194.804 321.343C198.974 305.679 189.333 300.022 179.87 293.036C132.637 258.165 137.266 194.275 189.888 165.619C227.849 144.946 266.873 146.036 303.026 170.53C353.937 205.022 348.76 272.368 293.954 300.681C273.96 311.01 252.806 315.095 230.649 312.422C220.129 311.153 210.704 311.147 202.583 318.961C201.543 319.96 199.533 319.952 194.804 321.343ZM306.568 234.2C306.257 227.232 300.463 221.691 293.466 221.671C286.04 221.649 279.778 227.856 279.84 235.178C279.9 242.304 286.685 248.85 293.706 248.555C300.804 248.256 306.892 241.462 306.568 234.2ZM206.115 234.345C205.821 227.222 200.153 221.623 193.165 221.554C185.995 221.483 179.308 228.018 179.302 235.104C179.296 242.114 186.221 248.863 193.188 248.638C200.376 248.405 206.419 241.722 206.115 234.345ZM257.18 235.016C257.235 227.502 251.054 221.264 243.732 221.445C236.613 221.621 231.043 227.072 230.756 234.145C230.453 241.599 236.405 248.272 243.535 248.472C250.824 248.675 257.125 242.462 257.18 235.016Z" fill="url(#paint1_linear_1_1786)"/>
<path d="M306.568 234.2C306.892 241.462 300.804 248.256 293.706 248.554C286.685 248.849 279.9 242.303 279.84 235.177C279.778 227.856 286.04 221.649 293.466 221.67C300.463 221.691 306.258 227.233 306.568 234.2Z" fill="white"/>
<path d="M206.115 234.345C206.419 241.722 200.376 248.405 193.189 248.637C186.221 248.862 179.297 242.114 179.303 235.103C179.309 228.018 185.995 221.482 193.166 221.553C200.152 221.623 205.821 227.222 206.115 234.345Z" fill="white"/>
<path d="M257.18 235.016C257.125 242.462 250.824 248.676 243.535 248.472C236.406 248.273 230.453 241.6 230.756 234.145C231.043 227.072 236.613 221.621 243.732 221.445C251.054 221.264 257.236 227.502 257.18 235.016Z" fill="white"/>
<defs>
<linearGradient id="paint0_linear_1_1786" x1="248.785" y1="7.41451" x2="250.785" y2="491.414" gradientUnits="userSpaceOnUse">
<stop stop-color="#1BD1FE"/>
<stop offset="0.999" stop-color="#1D6DF2"/>
</linearGradient>
<linearGradient id="paint1_linear_1_1786" x1="240.465" y1="5.51713" x2="245.465" y2="497.517" gradientUnits="userSpaceOnUse">
<stop stop-color="#1BD1FE"/>
<stop offset="0.999" stop-color="#1D6DF2"/>
</linearGradient>
</defs>
</svg>
