<svg width="500" height="501" viewBox="0 0 500 501" fill="none" xmlns="http://www.w3.org/2000/svg">
<g clip-path="url(#clip0_1_1795)">
<path d="M300.5 216.93H344V343.93H300.5V216.93Z" fill="#1E2B2F"/>
<path d="M240.8 207.43C224.1 207.43 207 211.43 202.7 218.83C202.6 218.93 202.6 219.03 202.5 219.13V165.83H158V250.43V250.53C162.4 252.53 167 254.93 171.6 257.53C173.2 258.43 174.5 259.23 175.4 259.83C176 260.23 176.6 260.53 177.2 260.93C177.3 260.93 151.7 300.83 116.9 309.13C96.2999 314.03 71.9999 308.13 67.0999 287.43C66.8999 286.53 66.7999 285.73 66.5999 284.83C69.8999 282.83 73.1999 281.13 76.5999 279.43C85.0999 275.73 91.5999 272.93 94.0999 272.03C94.2999 271.93 94.4999 271.83 94.6999 271.83C115 264.43 132.1 261.93 132.1 261.93C116.6 260.63 103.3 261.63 92.1999 263.83C92.1999 263.83 92.0999 263.83 91.9999 263.93C81.8999 265.93 73.5999 268.93 67.1999 271.83C70.7999 256.93 83.6999 244.03 98.9999 240.33C100.3 240.03 101.7 239.73 103.1 239.53C103.5 239.43 103.9 239.43 104.3 239.33C105.4 239.23 106.4 239.03 107.5 239.03C107.8 239.03 108.2 238.93 108.5 238.93C109.9 238.83 111.3 238.83 112.6 238.83C112.9 238.83 113.1 238.83 113.4 238.83C114.5 238.83 115.7 238.93 116.8 238.93C117.2 238.93 117.6 239.03 118 239.03C118.4 239.03 118.8 239.13 119.2 239.13C125.8 239.83 133.9 241.63 142.9 244.63V215.43C138.6 214.13 134 212.83 129.2 211.63C116.6 208.23 94.9999 204.73 71.3999 210.43C33.3999 219.73 22.5999 247.83 22.5999 282.23C22.5999 286.63 22.8999 290.73 23.5999 294.53C15.2999 300.03 7.1999 306.23 -0.100098 313.43C-0.100098 313.43 10.8999 308.53 25.2999 302.13C34.9999 335.13 68.6999 346.23 94.0999 346.23C120.6 346.23 137.6 338.63 157.8 326.03V342.03H202.4V262.63C202.5 262.53 202.5 262.43 202.6 262.33V261.03C206.8 249.73 214.1 246.73 222.1 246.73C232.7 246.73 239.3 254.23 239.3 266.23V342.03H283.9V253.33C284.1 225.33 266.7 207.43 240.8 207.43Z" fill="#1E2B2F"/>
<path d="M321.5 154.73C308 154.73 298.5 164.23 298.5 177.73C298.5 191.23 308 200.73 321.5 200.73C335 200.73 344.5 191.23 344.5 177.73C344.5 164.23 335 154.73 321.5 154.73Z" fill="#1E2B2F"/>
<path d="M492.4 270.029V213.429H447.7L447.5 221.429C404.4 193.629 376.9 222.229 376.9 222.229C363.7 234.329 356.1 253.329 356.1 277.229C356.1 319.629 381.5 344.729 414.5 344.729C426.9 344.729 438.3 341.929 448.1 328.329C449.2 331.529 451.8 339.329 453.6 341.929H500C492 328.829 492.1 283.329 492.4 270.029ZM424.8 308.029C410.3 308.029 400.1 295.429 400.1 277.529C400.1 259.629 410.3 247.029 424.8 247.029C434.9 247.029 443 253.229 446.9 263.129V291.929C443 301.829 435 308.029 424.8 308.029Z" fill="#1E2B2F"/>
</g>
<defs>
<clipPath id="clip0_1_1795">
<rect width="500" height="500" fill="white" transform="translate(0 0.429688)"/>
</clipPath>
</defs>
</svg>
