<svg width="500" height="501" viewBox="0 0 500 501" fill="none" xmlns="http://www.w3.org/2000/svg">
<path d="M338.5 347.429C321.7 379.329 288.3 401.029 249.9 401.029C194.6 401.029 149.7 356.029 149.7 300.429C149.7 244.829 194.6 199.829 249.9 199.829C288.3 199.829 321.7 221.529 338.5 253.429H442.8C421.9 165.829 343.6 100.629 249.9 100.629C140.2 100.629 51.3 189.929 51.3 300.029C51.3 410.129 140.2 499.329 249.9 499.329C343.3 499.329 421.4 434.529 442.6 347.329H338.5V347.429Z" fill="#FFB0C2"/>
<path d="M406.9 178.529C429.3 160.229 443.6 132.229 443.6 101.029C443.6 45.8293 399 1.0293 344 1.0293C289 1.0293 244.4 45.8293 244.4 101.029V101.129C246.3 101.029 248.1 101.029 250 101.029C313.8 101.029 370.6 131.329 406.9 178.529Z" fill="#CC91F0"/>
<path d="M344 201.129C367.9 201.129 389.8 192.729 406.9 178.629C370.6 131.429 313.9 101.129 249.9 101.129C248 101.129 246.2 101.129 244.3 101.229C244.4 156.429 289 201.129 344 201.129Z" fill="#CC66B8"/>
</svg>
