<svg width="500" height="501" viewBox="0 0 500 501" fill="none" xmlns="http://www.w3.org/2000/svg">
<path d="M308.6 8.42969L268.1 30.9297V222.03L290.2 234.33V88.7297L366 130.93H366.1L380.8 139.13L393.1 132.33V120.83L290.2 63.6297V43.7297L308.6 33.5297L415.2 92.8297V145.63L364 173.93L362.3 173.13C359.2 171.63 356 170.83 352.7 170.83C340.5 170.83 330.6 180.63 330.6 192.73C330.6 204.83 340.5 214.63 352.7 214.63C364 214.63 373.4 206.13 374.6 194.93L374.8 193.03L426.4 164.43L474.3 191.03V308.93L426.3 335.53L231.4 227.23V30.9297L191 8.42969L62.3 79.9297V145.23L3.20001 178.13V321.73L62.3 354.63V420.03L191 491.53L231.5 469.03V277.63L209.4 265.33V411.23L118.8 360.93L106.5 367.73V379.23L209.4 436.43V456.33L191 466.43L84.4 407.13V354.33L135.6 326.03L137.3 326.83C140.4 328.33 143.6 329.13 146.9 329.13C159.1 329.13 169 319.33 169 307.23C169 295.13 159.1 285.33 146.9 285.33C135.6 285.33 126.2 293.83 125.1 305.03L124.9 306.93L73.2 335.53L25.3 308.93V190.93L73.3 164.33L268.2 272.73V469.03L308.7 491.53L437.4 419.93V354.63L496.5 321.83V178.33L437.3 145.43V79.9297L308.6 8.42969ZM84.4 92.8297L191 33.5297L209.4 43.7297V63.6297L84.4 133.03V92.8297ZM95.8 151.83L209.3 88.8297V215.03L95.8 151.83ZM290.2 285.03L403.7 348.13L290.2 411.13V285.03ZM290.2 456.23V436.33L415.2 366.93V407.13L308.6 466.43L290.2 456.23Z" fill="url(#paint0_linear_1_1807)"/>
<defs>
<linearGradient id="paint0_linear_1_1807" x1="249.76" y1="30.0815" x2="249.76" y2="489.219" gradientUnits="userSpaceOnUse">
<stop stop-color="#01C38C"/>
<stop offset="1" stop-color="#23A185"/>
</linearGradient>
</defs>
</svg>
