<svg width="500" height="501" viewBox="0 0 500 501" fill="none" xmlns="http://www.w3.org/2000/svg">
<path d="M447.9 1.42969C433.9 1.42969 422 10.2297 417.3 22.6297H82.7C78.1 10.2297 66.1 1.42969 52.1 1.42969C34 1.42969 19.4 16.0297 19.4 34.1297C19.4 52.2297 34.1 66.8297 52.1 66.8297C53.1 66.8297 54.1 66.7297 55.1 66.7297L130.8 223.33C125 229.23 121.5 237.33 121.5 246.23C121.5 264.33 136.2 278.93 154.2 278.93C155.3 278.93 156.5 278.83 157.6 278.73L237.6 444.13C232 450.03 228.6 457.93 228.6 466.73C228.6 484.83 243.3 499.43 261.3 499.43C279.4 499.43 294 484.73 294 466.73C294 457.43 290.1 449.03 283.9 443.13L354.2 278.73C370.7 277.13 383.7 263.13 383.7 246.13C383.7 238.53 381.1 231.63 376.8 226.03L445 66.7297C446 66.8297 447 66.8297 448 66.8297C466.1 66.8297 480.7 52.1297 480.7 34.1297C480.6 16.0297 466 1.42969 447.9 1.42969ZM350.9 213.43C345.8 213.43 341 214.63 336.7 216.73L273.6 173.13L419.4 67.8297L356.8 214.03C354.9 213.63 353 213.43 350.9 213.43ZM171.6 218.43C166.6 215.23 160.6 213.43 154.2 213.43C153.3 213.43 152.5 213.53 151.7 213.53L81.5 68.4297L233.8 173.63L171.6 218.43ZM89.1 45.6297H410.8L253.5 159.23L89.1 45.6297ZM261.2 433.93C260.2 433.93 259.2 434.03 258.2 434.03L178.1 268.43C183.5 262.63 186.9 254.83 186.9 246.23C186.9 242.93 186.4 239.83 185.5 236.83L253.8 187.43L320.7 233.63C319.1 237.53 318.2 241.73 318.2 246.13C318.2 257.03 323.6 266.63 331.8 272.63L262.7 434.03C262.2 434.03 261.7 433.93 261.2 433.93Z" fill="#B02728"/>
</svg>
