<svg width="500" height="501" viewBox="0 0 500 501" fill="none" xmlns="http://www.w3.org/2000/svg">
<g clip-path="url(#clip0_1_1811)">
<path fill-rule="evenodd" clip-rule="evenodd" d="M0.599989 236.031C36 274.131 98.5 304.731 186.7 327.531L194.8 329.631L203 331.631L211.4 333.631L215.1 334.431L222.3 336.131L231.1 338.331L239.7 340.531L246.4 342.331L253 344.131L259.4 345.931L265.6 347.731L271.7 349.531L277.7 351.331L280.6 352.231L286.4 354.131L290.6 355.531L294.7 356.931L301.4 359.331L302.7 359.831L309.1 362.231L315.3 364.631L317.7 365.631L322.4 367.531L324.7 368.531L329.2 370.531C354.3 381.631 372.3 393.331 383.1 405.331C398.9 422.931 398.5 441.531 379 465.331C343.1 486.831 302.4 499.031 260.6 500.731C256.7 491.231 250.9 481.231 243.3 470.831C239.1 465.131 234.6 459.631 229.9 454.231L227.4 451.331L224 447.431L220.5 443.731L216.9 440.031C211.1 434.131 204.7 428.031 197.9 421.731L194.4 418.631L189.8 414.631L185.1 410.531L180.3 406.431L175.3 402.231L172.8 400.131L167.6 395.931L162.3 391.631L155.4 386.231L148.3 380.731L142.5 376.331L136.5 371.831L130.4 367.331L122.6 361.631L114.5 355.831L107.9 351.131L101.1 346.431L94.2 341.631L83.5 334.431L76.2 329.531L68.8 324.631L61.3 319.631L51.7 313.331L41.8 307.031L29.7 299.331L21.4 294.131L8.79999 286.231L1.69999 281.831C0.0999885 268.031 -0.400012 254.231 0.299988 240.331L0.599989 236.031Z" fill="url(#paint0_linear_1_1811)"/>
<path fill-rule="evenodd" clip-rule="evenodd" d="M14.3999 332.131L18.6999 334.831L30.2999 342.231L37.8999 347.131L45.2999 351.931L52.5999 356.731L59.6999 361.531L66.6999 366.231L73.4999 370.931L80.1999 375.531L86.7999 380.131L93.1999 384.631L99.4999 389.131L105.6 393.531L111.6 397.931L117.5 402.231L126 408.631L134.2 414.931L139.5 419.031L144.6 423.131L149.6 427.131L154.4 431.131L156.8 433.131L161.4 437.031L165.9 440.931L170.3 444.731L174.5 448.531L176.6 450.431L180.6 454.131L184.4 457.731L188.1 461.331C189.7 462.931 191.3 464.531 192.8 466.031L195.1 468.331L198.4 471.731C205.3 479.131 211.3 486.231 216.2 493.031C218 495.531 219.7 497.931 221.2 500.231C124.2 488.631 44.3999 421.731 14.3999 332.131Z" fill="url(#paint1_linear_1_1811)"/>
<path fill-rule="evenodd" clip-rule="evenodd" d="M61.5 86.9297C60.4 103.93 64.7 120.33 74.6 135.93C89.4 159.13 116.3 179.03 155.4 196.13L158.4 197.43L163.6 199.63C173.5 203.73 184.1 207.53 195.5 211.33L200.4 212.93L206.6 214.83L209.7 215.83L216.1 217.73L219.3 218.63L225.9 220.43L229.2 221.33L232.6 222.23L239.4 224.03L242.9 224.93L249.9 226.63L257.1 228.33L266.1 230.43L273.9 232.33L281.5 234.23L289 236.13C291.5 236.73 293.9 237.43 296.3 238.13L303.5 240.13L310.5 242.13L317.4 244.13C414.8 273.63 466.6 312.13 476.2 360.13C464.8 383.43 449.8 404.83 431.7 423.53C430.3 408.53 423.6 393.93 411.3 380.23C400.6 368.33 385.7 357.23 366.5 346.83L363.7 345.33L359.2 343.03C356.6 341.73 354 340.43 351.4 339.23L347.4 337.33L342.4 335.13L339.8 334.03L337.2 332.93L331.9 330.73L329.2 329.63L323.7 327.53C315.4 324.33 307 321.33 298.6 318.63L294.1 317.23L287.8 315.23L281.3 313.23L274.7 311.23L264.5 308.33L257.5 306.43L248.5 304.03L239.3 301.73L235.6 300.83L228 299.03L214.9 295.93L207.8 294.23L200.8 292.53L194 290.83C192.9 290.53 191.8 290.23 190.6 289.93L183.9 288.13L177.4 286.33L171 284.53L167.8 283.63L161.6 281.73L155.5 279.83C153.5 279.23 151.5 278.53 149.5 277.93L143.6 276.03L137.9 274.03C137 273.73 136 273.33 135.1 273.03L129.6 271.03C126.9 270.03 124.2 269.03 121.5 268.03L116.3 265.93C112.8 264.53 109.5 263.13 106.2 261.73L101.3 259.63L98.9 258.53L94.2 256.33C49.4 235.13 21.5 210.53 9.69995 182.33C19.6 147.83 36.9 115.93 60.4 88.7297L61.5 86.9297Z" fill="url(#paint2_linear_1_1811)"/>
<path fill-rule="evenodd" clip-rule="evenodd" d="M249.3 0.430318C251.7 0.430318 254 0.430318 256.3 0.530318C237.7 25.3303 241.8 57.5303 270.9 94.3303C275 99.5303 279.7 104.93 284.9 110.43L287.6 113.23L291.1 116.83C292.7 118.43 294.3 120.03 296 121.63L298.5 124.03L302.4 127.73L306.5 131.43C310.9 135.43 315.6 139.43 320.5 143.53L324.2 146.63L329 150.53L333.9 154.53L339 158.53L344.2 162.53L349.6 166.63L355.1 170.73L363.6 176.93L369.5 181.13L378.6 187.53L384.8 191.83L388 194.03L394.4 198.43L397.7 200.63L404.4 205.03L411.2 209.53L418.1 214.03L425.2 218.53L432.4 223.13L439.8 227.73L447.3 232.43L455 237.13L462.8 241.83L470.8 246.63L478.9 251.43L487.2 256.23L495.6 261.13L500 263.63C499.1 278.83 496.9 293.73 493.4 308.13C469.7 273.13 425.5 243.83 361.8 220.23L355.6 217.93C347 214.83 338.2 211.93 329.5 209.23L322.7 207.13L315.7 205.13L308.6 203.13C307.4 202.83 306.2 202.43 305 202.13L297.7 200.13C296.5 199.83 295.2 199.53 294 199.13L286.6 197.23C282.9 196.33 279.1 195.33 275.2 194.43L260.5 191.03L253.7 189.43L247 187.73L240.5 186.03L234.1 184.33L231 183.43L224.8 181.73L221.8 180.83L215.8 179.03L212.9 178.13L207.2 176.33L204.4 175.43L198.9 173.63L196.2 172.73L190.9 170.83L188.3 169.93L183.2 168.03L180.7 167.03L178.2 166.03L173.4 164.13L171 163.13L166.4 161.13C163 159.63 159.8 158.13 156.6 156.63L153.5 155.13L149.5 153.13C127.2 141.43 111.8 128.93 103.5 115.73C89.6999 93.8303 94.8999 67.4303 122.4 34.5303C160.9 12.1303 204.7 0.330318 249.3 0.430318Z" fill="url(#paint3_linear_1_1811)"/>
<path fill-rule="evenodd" clip-rule="evenodd" d="M307.1 5.23047C409.5 28.4305 488.1 114.93 500 221.53L491.1 216.23L480 209.43L472.7 204.93L465.6 200.53L458.6 196.13L451.8 191.83L445.1 187.53L438.5 183.23L432.1 179.03L425.8 174.83L419.6 170.63L413.6 166.53L407.7 162.43L401.9 158.43L396.3 154.43L390.8 150.53L385.4 146.63L380.2 142.83L375.1 139.03L370.1 135.23L365.3 131.53L360.6 127.83L356 124.13L351.6 120.53L349.4 118.73L345.2 115.13L341.1 111.63L337.2 108.13L333.4 104.73L329.7 101.33L327 98.8305L324.4 96.3305L321.1 93.0305L319.5 91.4305L317.9 89.8305L314.8 86.6305C312.1 83.8305 309.5 80.9305 307 77.9305L305.2 75.8305L302.8 72.8305L300.4 69.7305C284.4 48.7305 280.7 33.7305 285.9 23.4305C288.9 17.4305 295.3 11.6305 305.1 6.23047C305 6.33047 307.1 5.23047 307.1 5.23047Z" fill="url(#paint4_linear_1_1811)"/>
</g>
<defs>
<linearGradient id="paint0_linear_1_1811" x1="197.115" y1="236.006" x2="197.115" y2="500.429" gradientUnits="userSpaceOnUse">
<stop stop-color="#FF475A"/>
<stop offset="1" stop-color="#FF9A89"/>
</linearGradient>
<linearGradient id="paint1_linear_1_1811" x1="117.793" y1="332.163" x2="117.793" y2="500.427" gradientUnits="userSpaceOnUse">
<stop stop-color="#FF9A89"/>
<stop offset="1" stop-color="#FF475A"/>
</linearGradient>
<linearGradient id="paint2_linear_1_1811" x1="242.786" y1="86.97" x2="242.786" y2="423.499" gradientUnits="userSpaceOnUse">
<stop stop-color="#FF9A89"/>
<stop offset="1" stop-color="#FF475A"/>
</linearGradient>
<linearGradient id="paint3_linear_1_1811" x1="298.078" y1="0.453178" x2="298.078" y2="308.129" gradientUnits="userSpaceOnUse">
<stop stop-color="#FF475A"/>
<stop offset="1" stop-color="#FF9A89"/>
</linearGradient>
<linearGradient id="paint4_linear_1_1811" x1="391.829" y1="5.24502" x2="391.829" y2="221.587" gradientUnits="userSpaceOnUse">
<stop stop-color="#FF9A89"/>
<stop offset="1" stop-color="#FF475A"/>
</linearGradient>
<clipPath id="clip0_1_1811">
<rect width="500" height="500" fill="white" transform="translate(0 0.429688)"/>
</clipPath>
</defs>
</svg>
