<svg width="500" height="501" viewBox="0 0 500 501" fill="none" xmlns="http://www.w3.org/2000/svg">
<path d="M35.1001 32.7288V220.929C35.1001 227.329 40.2001 232.529 46.6001 232.529L130.8 232.129C139.6 232.129 145 222.429 140.6 214.729L129.7 195.529C125 187.229 114.5 184.329 106.3 189.129L105.1 189.829C97.0001 194.529 86.7001 191.729 82.0001 183.529C79.6001 179.229 79.1001 174.129 80.6001 169.429L98.1001 116.129C100.8 107.829 109.3 102.829 117.7 104.629L171.9 115.829C176.6 116.829 180.7 119.829 183.2 124.129C187.9 132.329 185.1 142.829 177 147.629L175.8 148.329C167.6 153.129 164.8 163.729 169.5 172.129L180.2 191.029C184.6 198.729 195.5 198.729 199.9 191.029L242 117.629C245.2 112.029 243.3 104.929 237.9 101.729L77.8001 7.62883C58.8001 -3.57117 35.1001 10.4288 35.1001 32.7288Z" fill="#34C88A"/>
<path d="M448.7 225.629L288.5 131.429C283 128.229 276 130.129 272.9 135.729L231.1 210.129C226.8 217.829 232.2 227.529 241 227.529H268.5C274.8 227.529 279.9 222.329 279.9 215.929V203.129C279.9 196.729 285 191.529 291.3 191.529H299.3C302.6 191.529 305.7 192.929 307.8 195.429L349.4 243.229C353.2 247.629 353.2 254.229 349.4 258.629L307.8 306.529C305.6 309.029 302.5 310.429 299.3 310.429H291.3C285 310.429 279.9 305.229 279.9 298.829V286.029C279.9 279.629 274.8 274.429 268.5 274.429H241.3C232.5 274.429 227.1 284.029 231.4 291.829L272.8 365.629C275.9 371.229 282.9 373.129 288.4 369.929L448.6 275.829C467.7 264.629 467.7 236.729 448.7 225.629Z" fill="#34C88A"/>
<path d="M77.8 493.429L238 399.329C243.5 396.129 245.3 389.029 242.1 383.429L199.7 309.429C195.3 301.729 184.4 301.729 180 309.429L166.2 333.729C163.1 339.229 164.9 346.329 170.4 349.529L181.3 355.929C186.8 359.129 188.6 366.229 185.5 371.729L181.5 378.729C179.9 381.629 177.1 383.629 173.9 384.329L112.4 397.129C106.8 398.329 101.1 395.029 99.3 389.429L79.4 328.829C78.4 325.629 78.7 322.229 80.3 319.329L84.3 312.329C87.4 306.829 94.4 304.829 99.9 308.129L110.8 314.529C116.3 317.729 123.2 315.829 126.4 310.329L140 286.329C144.4 278.629 138.9 268.929 130.2 268.929L46.7 268.529C40.4 268.529 35.2 273.729 35.2 280.129V468.329C35 490.729 58.8 504.629 77.8 493.429Z" fill="#163F59"/>
</svg>
