<svg width="500" height="501" viewBox="0 0 500 501" fill="none" xmlns="http://www.w3.org/2000/svg">
<path d="M250 1.42969C112.7 1.42969 1 113.13 1 250.43C1 387.73 112.7 499.43 250 499.43C387.3 499.43 499 387.73 499 250.43C499 113.13 387.3 1.42969 250 1.42969ZM250 460.43C134.2 460.43 40 366.23 40 250.43C40 134.63 134.2 40.4297 250 40.4297C365.8 40.4297 460 134.63 460 250.43C460 366.23 365.8 460.43 250 460.43Z" fill="#F13D20"/>
<path d="M250 138.629C188.4 138.629 138.2 188.729 138.2 250.429C138.2 283.829 152.9 313.729 176.2 334.229C187.8 328.229 200.1 323.729 212.9 320.829C187.6 307.429 170.4 280.929 170.4 250.429C170.4 206.529 206.1 170.829 250 170.829C293.9 170.829 329.6 206.529 329.6 250.429C329.6 280.929 312.4 307.429 287.1 320.829C299.9 323.729 312.2 328.229 323.8 334.229C347 313.729 361.8 283.729 361.8 250.429C361.8 188.829 311.6 138.629 250 138.629Z" fill="#F13D20"/>
<path d="M250 67.4297C149.1 67.4297 67 149.53 67 250.43C67 302.63 89 349.83 124.2 383.13C130.1 372.53 137.8 362.83 147.2 354.33C120.4 327.83 103.7 291.03 103.7 250.43C103.7 169.83 169.3 104.23 249.9 104.23C330.5 104.23 396.2 169.83 396.2 250.43C396.2 291.03 379.5 327.83 352.7 354.33C362 362.83 369.8 372.53 375.7 383.13C410.9 349.83 433 302.63 433 250.43C433 149.53 350.9 67.4297 250 67.4297Z" fill="#F13D20"/>
</svg>
