<svg width="500" height="501" viewBox="0 0 500 501" fill="none" xmlns="http://www.w3.org/2000/svg">
<path d="M424.6 278.929C424.2 271.929 420.1 265.629 413.7 262.629L332.1 223.829L419.1 113.929C419.6 113.329 420 112.729 420.4 112.029C423.4 108.329 425 103.629 424.7 98.8293C424.3 91.8293 420.2 85.5293 413.8 82.5293L257.8 8.22934C252.4 5.62934 246 5.72934 240.7 8.52934L86.9997 88.3293C84.2997 89.7293 82.0997 91.6293 80.3997 94.0293C78.7997 95.3293 77.4997 97.0293 76.5997 98.9293C74.1997 104.129 74.9997 110.029 78.6997 114.329L79.4997 115.329C80.5997 117.129 81.8997 118.629 83.3997 120.029L171.8 224.429L86.9997 268.429C84.2997 269.829 82.0997 271.729 80.3997 274.129C78.7997 275.429 77.4997 277.129 76.5997 279.029C74.1997 284.229 74.9997 290.129 78.6997 294.429L79.4997 295.429C80.5997 297.229 81.8997 298.729 83.4997 300.129L243 488.629C245.8 491.929 249.8 493.729 254 493.729C254.1 493.729 254.2 493.729 254.2 493.829C258.6 493.729 262.6 491.729 265.3 488.329L419.1 294.029C419.7 293.329 420.2 292.529 420.6 291.729C423.4 288.129 424.9 283.629 424.6 278.929ZM253.8 291.729L134 150.029L239.5 212.129C242.5 213.929 245.8 214.829 249.2 214.829C252.7 214.829 256.2 213.929 259.3 211.929L371.2 143.429L253.8 291.729ZM249.5 25.6293L405.5 100.029L249.2 195.729L95.8997 105.429L249.5 25.6293ZM243 308.629C245.8 311.829 249.8 313.729 254 313.729C254.1 313.729 254.2 313.729 254.2 313.729C258.6 313.629 262.6 311.629 265.3 308.229L319.9 239.229L405.5 280.029L249.2 375.729L95.8997 285.429L184.5 239.429L243 308.629ZM253.8 471.829L134 330.129L239.5 392.229C242.5 394.029 245.8 394.929 249.2 394.929C252.7 394.929 256.2 393.929 259.2 392.029L371.3 323.429L253.8 471.829Z" fill="black"/>
</svg>
