<svg width="500" height="501" viewBox="0 0 500 501" fill="none" xmlns="http://www.w3.org/2000/svg">
<path d="M413.792 120.628C411.469 118.868 412.103 119.326 409.408 117.522C409.408 117.522 416.088 126.056 419.049 130.7C427.563 144.052 426.503 158.349 416.043 166.624C405.329 175.099 388.824 172.478 378.754 160.606C374.605 155.714 370.941 150.383 366.546 145.734C341.634 119.38 311.54 103.608 275.175 98.9486C212.452 90.9126 164.585 115.183 127.992 164.698C109.913 189.161 101.182 218.227 100.867 247.442C100.443 286.867 113.128 323.532 138.843 355.07C144.095 361.511 149.587 367.442 155.291 372.921C114.491 308.399 103.443 206.909 180.874 164.398C181.826 164.081 182.777 163.896 183.728 163.77C209.178 142.426 240.767 132.892 275.74 141.692C303.362 148.643 328.217 160.412 344.799 185.402C358.508 206.063 378.259 215.661 403.01 213.972C409.083 213.558 414.732 212.56 419.99 211.101C450.244 188.527 442.791 143.827 413.792 120.628Z" fill="url(#paint0_linear_1_1831)"/>
<path d="M491.14 299.555C489.314 285.365 486.963 270.627 475.951 260.865C444.949 253.61 411.011 275.765 407.633 307.469C411.51 292.086 424.05 284.891 440.235 289.465C449.911 292.199 455.527 306.769 450.598 318.718C440.435 343.36 423.535 362.036 398.546 375.328C391.166 394.464 385.402 415.311 373.907 432.152C378.139 428.201 382.738 425.727 387.77 424.372C412.433 417.736 433.578 405.602 452.002 388.068C477.381 363.914 495.915 336.68 491.14 299.555Z" fill="url(#paint1_linear_1_1831)"/>
<path d="M460.672 119.171C448.983 91.7959 426.386 74.0849 404.162 55.9349C362.473 21.8859 313.544 7.41789 261.107 4.54689C242.308 3.51789 223.004 7.71589 204.221 11.1279C138.403 23.0849 87.7591 59.4329 51.0151 113.764C16.8851 164.227 2.90508 220.273 11.3001 282.152C15.8861 315.95 25.9491 347.013 42.3211 375.029C84.9191 420.251 142.871 451.281 204.557 448.367C176.826 442.462 150.908 429.948 126.994 410.312C86.4221 376.997 61.8711 335.291 53.7611 283.048C44.0671 220.605 59.2001 166.119 100.226 118.181C144.482 66.4679 201.158 43.6639 268.077 46.6819C302.738 48.2449 335.913 58.4289 364.7 78.4209C381.002 89.7419 396.681 102.127 409.408 117.522C409.408 117.522 411.098 118.461 413.792 120.628C442.79 143.827 450.243 188.527 419.991 211.102C461.45 199.602 477.167 157.803 460.672 119.171Z" fill="url(#paint2_linear_1_1831)"/>
<path d="M42.3213 375.029C49.2463 386.879 57.2773 398.195 66.5363 408.925C114.766 464.814 175.027 497.26 251.025 494.011C254.474 493.864 257.882 493.624 261.255 493.31C304.406 478.874 335.927 439.612 349.176 395.48C339.347 414.501 326.517 432.361 305.668 437.354C305.736 437.979 305.804 438.605 305.872 439.23C293.427 443.238 281.233 449.386 268.493 450.879C250.729 452.96 233.546 452.881 216.975 450.56C212.796 449.975 208.657 449.24 204.556 448.367C142.871 451.281 84.9193 420.251 42.3213 375.029Z" fill="url(#paint3_linear_1_1831)"/>
<path d="M469.465 256.27C452.575 246.943 433.834 245.304 415.202 248.624C400.753 251.198 386.293 257.531 379.291 270.637C371.19 285.801 365.116 302.596 361.356 319.398C356.57 340.783 354.343 362.752 351.188 385.279C350.937 387.073 350.692 388.863 350.427 390.664C350.364 390.669 350.302 390.673 350.239 390.678C350.215 391.203 350.172 391.729 350.109 392.258C349.983 393.312 349.747 394.377 349.176 395.481C335.927 439.613 304.406 478.875 261.255 493.311C304.662 489.277 341.735 471.387 369.888 436.493C371.19 434.88 372.529 433.44 373.907 432.154C385.403 415.312 391.166 394.465 398.546 375.329C398.392 375.411 398.247 375.498 398.092 375.58C401.203 352.77 404.048 332.34 406.76 311.892C406.966 310.342 407.276 308.885 407.632 307.47C411.01 275.766 444.948 253.611 475.951 260.866C474.051 259.182 471.924 257.628 469.465 256.27Z" fill="url(#paint4_linear_1_1831)"/>
<path d="M344.498 391.112C308.655 393.632 276.071 391.329 244.441 378.804C199.415 360.974 163.768 334.341 148.4 285.626C134.309 240.958 144.452 201.374 176.662 170.142C178.96 167.914 181.32 165.793 183.731 163.771C182.779 163.896 181.828 164.081 180.877 164.399C103.446 206.91 114.494 308.4 155.294 372.922C196.435 412.439 248.843 428.019 305.44 435.244C305.456 435.389 305.472 435.534 305.487 435.679C305.548 436.238 305.609 436.796 305.669 437.355C326.518 432.362 339.348 414.501 349.177 395.481C349.499 394.409 349.807 393.334 350.11 392.258C350.173 391.729 350.216 391.203 350.24 390.678C348.315 390.837 346.404 390.978 344.498 391.112Z" fill="url(#paint5_linear_1_1831)"/>
<defs>
<linearGradient id="paint0_linear_1_1831" x1="430.021" y1="261.198" x2="189.807" y2="232.938" gradientUnits="userSpaceOnUse">
<stop offset="0.000478316" stop-color="#441FC0"/>
<stop offset="0.5198" stop-color="#2773C8"/>
<stop offset="1" stop-color="#93E9FC"/>
</linearGradient>
<linearGradient id="paint1_linear_1_1831" x1="501.679" y1="247.698" x2="374.507" y2="419.027" gradientUnits="userSpaceOnUse">
<stop offset="0.000478316" stop-color="#7446CB"/>
<stop offset="0.5198" stop-color="#9C4DC2"/>
<stop offset="0.9995" stop-color="#6377F0"/>
</linearGradient>
<linearGradient id="paint2_linear_1_1831" x1="470.473" y1="201.631" x2="-17.0191" y2="251.087" gradientUnits="userSpaceOnUse">
<stop offset="0.000478316" stop-color="#B17DFF"/>
<stop offset="0.3166" stop-color="#5491EC"/>
<stop offset="0.6716" stop-color="#92F7FD"/>
<stop offset="1" stop-color="#7FDDFB"/>
</linearGradient>
<linearGradient id="paint3_linear_1_1831" x1="326.562" y1="455.125" x2="61.0351" y2="393.74" gradientUnits="userSpaceOnUse">
<stop offset="0.000478316" stop-color="#003985"/>
<stop offset="0.5198" stop-color="#5DBFF6"/>
<stop offset="1" stop-color="#0BA0B7"/>
</linearGradient>
<linearGradient id="paint4_linear_1_1831" x1="261.255" y1="370.179" x2="475.95" y2="370.179" gradientUnits="userSpaceOnUse">
<stop offset="0.000478316" stop-color="#B77FFF"/>
<stop offset="0.5198" stop-color="#648DFA"/>
<stop offset="1" stop-color="#3B94E2"/>
</linearGradient>
<linearGradient id="paint5_linear_1_1831" x1="159.601" y1="263.852" x2="353.75" y2="390.905" gradientUnits="userSpaceOnUse">
<stop offset="0.000478316" stop-color="#006A8E"/>
<stop offset="0.5198" stop-color="#60C5F9"/>
<stop offset="1" stop-color="#216DC0"/>
</linearGradient>
</defs>
</svg>
