<svg width="500" height="501" viewBox="0 0 500 501" fill="none" xmlns="http://www.w3.org/2000/svg">
<g clip-path="url(#clip0_1_1839)">
<path d="M442.1 316.33L428.3 292.63L260.8 6.42969L259.6 4.52969C259.6 4.52969 258.6 3.52969 258.1 3.02969C257.6 2.72969 257.1 2.32969 256.6 2.02969C256.6 2.02969 255.4 1.52969 254.7 1.12969C254 0.929688 253.5 0.829688 252.8 0.629688C252.3 0.629688 251.6 0.429688 250.9 0.429688C250.6 0.429688 250.2 0.429688 249.7 0.429688C249.2 0.429688 249 0.429688 248.5 0.429688C247.8 0.429688 247.3 0.429688 246.6 0.629688C245.9 0.629688 245.2 0.929688 244.7 1.12969C244 1.32969 243.3 1.62969 242.8 2.02969C242.8 2.02969 241.6 2.72969 241.3 3.02969C241.3 3.02969 240.1 4.02969 239.6 4.52969L238.7 6.02969L69.0004 296.33L59.8004 312.43V312.93C52.6004 327.23 48.9004 342.53 48.9004 358.33C48.9004 362.13 49.1004 365.63 49.4004 369.43C50.8004 382.03 54.5004 394.33 60.3004 406.03C67.8004 420.93 78.6004 434.53 92.2004 446.73C106.5 459.53 124.1 470.63 143.8 479.23C162.8 487.63 183.9 493.73 206.5 497.13C220.5 499.33 235 500.33 249.9 500.33C264.8 500.33 278.9 499.33 292.8 497.13C315.3 493.73 336.5 487.53 355.5 479.23C375.3 470.53 392.7 459.63 407.3 446.93C421 434.83 431.9 421.33 439.4 406.43C445.2 395.03 449.1 382.73 450.5 370.03C451 366.13 451.2 362.33 451.2 358.23C451.2 343.53 448.1 329.53 442.1 316.23V316.33Z" fill="url(#paint0_linear_1_1839)"/>
<path d="M258.1 3.0293L261.2 9.0293L391.4 257.429L450.5 370.129C451 366.229 451.2 362.429 451.2 358.329C451.2 343.629 448.1 329.629 442.1 316.329L428.3 292.629L260.8 6.4293L259.6 4.5293C259.6 4.5293 258.6 3.5293 258.1 3.0293Z" fill="url(#paint1_linear_1_1839)"/>
<path d="M256.6 1.92969L260.7 11.1297L364.9 241.73L439.2 406.43C445 395.03 448.9 382.73 450.3 370.03L391.2 257.33L261.2 8.92969L258.1 2.92969C258.1 3.02969 257.1 2.32969 256.6 1.92969Z" fill="url(#paint2_linear_1_1839)"/>
<path d="M254.7 1.12891L259 13.6289L332.6 228.829L407.3 446.929C421 434.829 431.9 421.329 439.4 406.429L365 241.829L260.7 11.2289L256.6 2.02891C256.6 1.92891 255.4 1.42891 254.7 1.12891Z" fill="url(#paint3_linear_1_1839)"/>
<path d="M252.6 0.728906L255.8 15.6289L300 220.829L355.5 479.429C375.3 470.729 392.7 459.829 407.3 447.129L332.7 229.029L259 13.6289L254.7 1.12891C254.7 1.12891 253.5 0.828906 252.8 0.628906L252.6 0.728906Z" fill="url(#paint4_linear_1_1839)"/>
<path d="M250.9 0.429688L252.3 16.6297L269.2 217.03L293 497.23C315.5 493.83 336.7 487.63 355.7 479.33L300.2 220.73L256 15.7297L252.8 0.829688C252.8 0.829688 251.6 0.629688 250.9 0.629688V0.429688Z" fill="url(#paint5_linear_1_1839)"/>
<path d="M206.7 497.23C220.7 499.43 235.2 500.43 250.1 500.43C265 500.43 279.1 499.43 293 497.23L269.3 217.03L252.3 16.6297L250.9 0.429688C250.9 0.429688 250 0.429688 249.7 0.429688C249.4 0.429688 249 0.429688 248.5 0.429688L247.1 16.6297L230.2 217.03L206.5 497.23H206.7Z" fill="url(#paint6_linear_1_1839)"/>
<path d="M144 479.03C163 487.43 184.1 493.53 206.7 496.93L230.4 216.73L247.1 16.5297L248.5 0.429688C248.5 0.429688 247.3 0.429688 246.6 0.629688L243.4 15.4297L199.3 220.73L143.8 479.03H144Z" fill="url(#paint7_linear_1_1839)"/>
<path d="M92.4004 446.629C106.8 459.429 124.4 470.529 144 479.129L199.5 220.729L243.6 15.4293L246.8 0.529297C246.8 0.529297 245.4 0.829297 244.9 1.0293L240.6 13.5293L166.8 228.829L92.4004 446.629Z" fill="url(#paint8_linear_1_1839)"/>
<path d="M60.5 405.929C68 420.829 78.8 434.429 92.4 446.629L166.9 229.029L240.7 13.6289L245 1.12891C245 1.12891 243.6 1.62891 243.1 2.02891L239 11.2289L134.4 241.929L60.5 405.929Z" fill="url(#paint9_linear_1_1839)"/>
<path d="M49.4004 369.429C50.8004 382.229 54.5004 394.329 60.3004 406.029L134.4 242.029L238.8 11.2293L242.9 2.0293C242.9 2.0293 241.7 2.7293 241.4 3.0293L238.3 9.0293L108 257.829L49.4004 369.429Z" fill="url(#paint10_linear_1_1839)"/>
<path d="M48.9004 358.33C48.9004 362.13 49.1004 365.63 49.4004 369.43L107.8 257.93L238.3 8.92969L241.4 2.92969C241.4 2.92969 240.2 3.92969 239.7 4.42969L238.8 5.92969L69.0004 296.33L59.8004 312.43V312.93C52.6004 327.23 48.9004 342.43 48.9004 358.33Z" fill="url(#paint11_linear_1_1839)"/>
<path d="M259.7 4.5293L260.9 6.4293C260.9 6.4293 260.2 5.0293 259.7 4.5293Z" fill="url(#paint12_linear_1_1839)"/>
</g>
<defs>
<linearGradient id="paint0_linear_1_1839" x1="129.655" y1="212.594" x2="492.998" y2="356.598" gradientUnits="userSpaceOnUse">
<stop stop-color="#FF5A5A"/>
<stop offset="0.2" stop-color="#FDD55A"/>
<stop offset="0.35" stop-color="#57F7AE"/>
<stop offset="0.69" stop-color="#197CEF"/>
<stop offset="1" stop-color="#3A3A3A"/>
</linearGradient>
<linearGradient id="paint1_linear_1_1839" x1="482.55" y1="411.102" x2="51.0496" y2="-396.724" gradientUnits="userSpaceOnUse">
<stop stop-color="#3A3A3A"/>
<stop offset="0.5" stop-color="#1682FE"/>
<stop offset="1" stop-color="#2DBDE1"/>
</linearGradient>
<linearGradient id="paint2_linear_1_1839" x1="464.042" y1="441.021" x2="-29.2978" y2="-696.323" gradientUnits="userSpaceOnUse">
<stop stop-color="#3A3A3A"/>
<stop offset="0.5" stop-color="#1682FE"/>
<stop offset="1" stop-color="#2DBDE1"/>
</linearGradient>
<linearGradient id="paint3_linear_1_1839" x1="501.192" y1="620.007" x2="-108.991" y2="-894.173" gradientUnits="userSpaceOnUse">
<stop stop-color="#3A3A3A"/>
<stop offset="0.5" stop-color="#1682FE"/>
<stop offset="1" stop-color="#2DBDE1"/>
</linearGradient>
<linearGradient id="paint4_linear_1_1839" x1="472.409" y1="751.227" x2="55.6003" y2="-567.02" gradientUnits="userSpaceOnUse">
<stop stop-color="#3A3A3A"/>
<stop offset="0.5" stop-color="#1682FE"/>
<stop offset="1" stop-color="#2DBDE1"/>
</linearGradient>
<linearGradient id="paint5_linear_1_1839" x1="405.345" y1="688.685" x2="-2.41072" y2="-664.068" gradientUnits="userSpaceOnUse">
<stop stop-color="#3A3A3A"/>
<stop offset="0.22" stop-color="#1682FE"/>
<stop offset="0.5" stop-color="#57F7AE"/>
<stop offset="1" stop-color="#FED55A"/>
</linearGradient>
<linearGradient id="paint6_linear_1_1839" x1="349.807" y1="710.042" x2="47.6193" y2="-441.139" gradientUnits="userSpaceOnUse">
<stop stop-color="#3A3A3A"/>
<stop offset="0.22" stop-color="#1682FE"/>
<stop offset="0.5" stop-color="#57F7AE"/>
<stop offset="1" stop-color="#FED55A"/>
</linearGradient>
<linearGradient id="paint7_linear_1_1839" x1="230.869" y1="764.871" x2="157.756" y2="-342.237" gradientUnits="userSpaceOnUse">
<stop stop-color="#3A3A3A"/>
<stop offset="0.22" stop-color="#1682FE"/>
<stop offset="0.5" stop-color="#57F7AE"/>
<stop offset="1" stop-color="#FED55A"/>
</linearGradient>
<linearGradient id="paint8_linear_1_1839" x1="244.434" y1="805.978" x2="160.189" y2="150.135" gradientUnits="userSpaceOnUse">
<stop offset="0.4" stop-color="#1682FE"/>
<stop offset="0.7" stop-color="#57F7AE"/>
<stop offset="1" stop-color="#FED55A"/>
</linearGradient>
<linearGradient id="paint9_linear_1_1839" x1="179.649" y1="826.525" x2="154.709" y2="249.654" gradientUnits="userSpaceOnUse">
<stop offset="0.4" stop-color="#1682FE"/>
<stop offset="0.7" stop-color="#57F7AE"/>
<stop offset="1" stop-color="#FED55A"/>
</linearGradient>
<linearGradient id="paint10_linear_1_1839" x1="68.8871" y1="594.699" x2="228.949" y2="-252.756" gradientUnits="userSpaceOnUse">
<stop offset="0.03" stop-color="#1682FE"/>
<stop offset="0.21" stop-color="#FCA75B"/>
<stop offset="0.52" stop-color="#FF5A5A"/>
</linearGradient>
<linearGradient id="paint11_linear_1_1839" x1="54.008" y1="527.599" x2="219.536" y2="-114.186" gradientUnits="userSpaceOnUse">
<stop offset="0.03" stop-color="#1682FE"/>
<stop offset="0.21" stop-color="#FCA75B"/>
<stop offset="0.52" stop-color="#FF5A5A"/>
</linearGradient>
<linearGradient id="paint12_linear_1_1839" x1="260.251" y1="6.412" x2="260.251" y2="4.5281" gradientUnits="userSpaceOnUse">
<stop stop-color="#2DBDE1"/>
<stop offset="0.5" stop-color="#1682FE"/>
<stop offset="1" stop-color="#3A3A3A"/>
</linearGradient>
<clipPath id="clip0_1_1839">
<rect width="500" height="500" fill="white" transform="translate(0 0.429688)"/>
</clipPath>
</defs>
</svg>
