<svg width="500" height="501" viewBox="0 0 500 501" fill="none" xmlns="http://www.w3.org/2000/svg">
<path d="M250.4 27.9301C373 27.9301 472.4 127.33 472.4 249.93C472.4 372.53 373 471.93 250.4 471.93C127.8 471.93 28.3998 372.53 28.3998 249.93C28.3998 127.33 127.8 27.9301 250.4 27.9301ZM250.4 3.33008C217.1 3.33008 184.8 9.83008 154.4 22.7301C125 35.1301 98.6998 52.8301 75.9998 75.5301C53.2998 98.2301 35.5998 124.53 23.1998 153.93C10.2998 184.33 3.7998 216.63 3.7998 249.93C3.7998 283.23 10.2998 315.53 23.1998 345.93C35.5998 375.33 53.3998 401.63 75.9998 424.33C98.5998 446.93 125 464.73 154.4 477.13C184.8 490.03 217.1 496.53 250.4 496.53C283.7 496.53 316 490.03 346.4 477.13C375.8 464.73 402.1 446.93 424.8 424.33C447.4 401.73 465.2 375.33 477.6 345.93C490.5 315.53 497 283.23 497 249.93C497 216.63 490.5 184.33 477.6 153.93C465.2 124.53 447.4 98.2301 424.8 75.5301C402.2 52.8301 375.8 35.1301 346.4 22.7301C316 9.83008 283.7 3.33008 250.4 3.33008Z" fill="black"/>
<path d="M250.4 272.43C262.163 272.43 271.7 262.894 271.7 251.13C271.7 239.366 262.163 229.83 250.4 229.83C238.636 229.83 229.1 239.366 229.1 251.13C229.1 262.894 238.636 272.43 250.4 272.43Z" fill="black"/>
</svg>
