<svg width="500" height="501" viewBox="0 0 500 501" fill="none" xmlns="http://www.w3.org/2000/svg">
<path d="M31.5039 222.99C31.5039 222.99 37.3429 153.887 94.2279 95.8376C162.317 26.3556 224.725 32.4336 224.725 32.4336L222.314 2.80664C222.314 2.80664 257.177 12.0026 291.291 42.0716C324.359 71.2176 334.735 99.4596 334.735 99.4596C334.735 99.4596 311.359 103.346 284.609 115.313C252.39 129.728 239.442 157.624 239.442 157.624L234.779 125.493C234.779 125.493 195.071 125.446 160.617 163.12C126.163 200.794 125.134 228.527 125.174 235.238C125.185 237.173 114.265 221.707 107.334 203.393C101.171 187.108 98.9069 167.831 98.9069 167.831C98.9069 167.831 78.5619 175.864 62.5089 189.35C43.3539 205.445 31.5039 222.99 31.5039 222.99Z" fill="url(#paint0_linear_1_1857)"/>
<path d="M221.3 466.81C221.3 466.81 152.237 460.523 94.5583 403.262C25.5203 334.722 32.0023 272.356 32.0023 272.356L2.36035 274.574C2.36035 274.574 11.7823 239.771 42.0723 205.853C71.4324 172.975 99.7413 162.783 99.7413 162.783C99.7413 162.783 103.475 186.184 115.269 213.011C129.474 245.323 157.286 258.452 157.286 258.452L125.126 262.906C125.126 262.906 124.822 302.613 162.271 337.311C199.72 372.009 227.446 373.217 234.157 373.222C236.092 373.223 220.555 384.043 202.196 390.855C185.871 396.912 166.581 399.051 166.581 399.051C166.581 399.051 174.482 419.448 187.864 435.588C203.831 454.846 221.3 466.81 221.3 466.81Z" fill="url(#paint1_linear_1_1857)"/>
<path d="M469.092 277.796C469.092 277.796 462.781 346.857 405.499 404.515C336.936 473.529 274.572 467.025 274.572 467.025L276.78 496.668C276.78 496.668 241.981 487.233 208.073 456.932C175.206 427.561 165.023 399.248 165.023 399.248C165.023 399.248 188.426 395.522 215.257 383.738C247.574 369.544 260.712 341.737 260.712 341.737L265.155 373.899C265.155 373.899 304.862 374.217 339.573 336.781C374.284 299.345 375.502 271.618 375.509 264.907C375.511 262.972 386.325 278.513 393.131 296.874C399.183 313.201 401.314 332.492 401.314 332.492C401.314 332.492 421.714 324.598 437.858 311.222C457.122 295.261 469.092 277.796 469.092 277.796Z" fill="url(#paint2_linear_1_1857)"/>
<path d="M277.444 31.8125C277.444 31.8125 346.511 38.0565 404.225 95.2825C473.306 163.779 466.862 226.15 466.862 226.15L496.503 223.913C496.503 223.913 487.102 258.721 456.834 292.659C427.494 325.555 399.192 335.764 399.192 335.764C399.192 335.764 395.444 312.366 383.633 285.546C369.408 253.242 341.588 240.131 341.588 240.131L373.745 235.657C373.745 235.657 374.025 195.949 336.554 161.275C299.083 126.602 271.356 125.41 264.645 125.41C262.71 125.41 278.24 114.579 296.595 107.757C312.916 101.688 332.205 99.5385 332.205 99.5385C332.205 99.5385 324.292 79.1465 310.9 63.0155C294.92 43.7645 277.444 31.8125 277.444 31.8125Z" fill="url(#paint3_linear_1_1857)"/>
<defs>
<linearGradient id="paint0_linear_1_1857" x1="333.624" y1="85.2069" x2="96.0937" y2="135.528" gradientUnits="userSpaceOnUse">
<stop stop-color="#537CC1"/>
<stop offset="1" stop-color="#3C3D95"/>
</linearGradient>
<linearGradient id="paint1_linear_1_1857" x1="85.5029" y1="163.802" x2="134.274" y2="401.652" gradientUnits="userSpaceOnUse">
<stop stop-color="#537CC1"/>
<stop offset="1" stop-color="#3C3D95"/>
</linearGradient>
<linearGradient id="paint2_linear_1_1857" x1="166.037" y1="413.488" x2="403.904" y2="364.8" gradientUnits="userSpaceOnUse">
<stop stop-color="#537CC1"/>
<stop offset="1" stop-color="#3C3D95"/>
</linearGradient>
<linearGradient id="paint3_linear_1_1857" x1="413.429" y1="334.735" x2="364.511" y2="96.9161" gradientUnits="userSpaceOnUse">
<stop stop-color="#537CC1"/>
<stop offset="1" stop-color="#3C3D95"/>
</linearGradient>
</defs>
</svg>
