<svg width="500" height="501" viewBox="0 0 500 501" fill="none" xmlns="http://www.w3.org/2000/svg">
<g clip-path="url(#clip0_1_1862)">
<path d="M500 0.429688H0V500.43H500V0.429688Z" fill="white"/>
<path d="M187.4 386.329C112.5 386.329 51.5 325.329 51.5 250.429C51.5 175.529 112.5 114.529 187.4 114.529C262.3 114.529 323.3 175.529 323.3 250.429C323.3 325.329 262.4 386.329 187.4 386.329ZM187.4 135.429C124 135.429 72.4 187.029 72.4 250.429C72.4 313.829 124 365.429 187.4 365.429C250.8 365.429 302.4 313.829 302.4 250.429C302.4 187.029 250.9 135.429 187.4 135.429Z" fill="#2344AA"/>
<path d="M324.4 386.329C249.5 386.329 188.5 325.329 188.5 250.429C188.5 175.529 249.5 114.529 324.4 114.529C399.3 114.529 460.3 175.529 460.3 250.429C460.3 325.329 399.4 386.329 324.4 386.329ZM324.4 135.429C261 135.429 209.4 187.029 209.4 250.429C209.4 313.829 261 365.429 324.4 365.429C387.8 365.429 439.4 313.829 439.4 250.429C439.4 187.029 387.9 135.429 324.4 135.429Z" fill="#557FEE"/>
</g>
<defs>
<clipPath id="clip0_1_1862">
<rect width="500" height="500" fill="white" transform="translate(0 0.429688)"/>
</clipPath>
</defs>
</svg>
