<svg width="500" height="501" viewBox="0 0 500 501" fill="none" xmlns="http://www.w3.org/2000/svg">
<path d="M266.2 497.93C161.3 497.93 67.3 431.43 32.4 332.53C26.1 314.63 35.5 294.93 53.4 288.63C71.3 282.33 91 291.73 97.3 309.63C122.5 381.03 190.4 429.13 266.2 429.13C276.1 429.13 286 428.33 295.6 426.73C314.3 423.63 332.1 436.33 335.2 455.13C338.3 473.93 325.6 491.63 306.8 494.73C293.4 496.83 279.8 497.93 266.2 497.93Z" fill="#B912F6"/>
<path d="M431.4 149.229C421.4 149.229 411.6 144.929 404.8 136.629C370.6 94.9293 320.1 70.9293 266.2 70.9293C235.4 70.9293 205.1 78.8293 178.4 93.8293C161.8 103.129 140.9 97.3293 131.5 80.7293C122.2 64.1293 128 43.2293 144.6 33.8293C181.5 13.0293 223.6 2.0293 266.2 2.0293C340.8 2.0293 410.7 35.1293 458.1 92.9293C470.1 107.629 468 129.329 453.3 141.329C446.8 146.629 439.1 149.229 431.4 149.229Z" fill="url(#paint0_linear_1_1866)"/>
<path d="M266.2 383.23C192.7 383.23 133 323.43 133 250.03C133 176.63 192.8 116.83 266.2 116.83C302 116.83 335.5 130.83 360.7 156.23C373.9 169.53 373.8 191.03 360.5 204.23C347.2 217.43 325.7 217.33 312.5 204.03C300.2 191.63 283.7 184.73 266.2 184.73C230.2 184.73 200.9 214.03 200.9 250.03C200.9 286.03 230.2 315.33 266.2 315.33C284.1 315.33 300.8 308.23 313.3 295.33C326.3 281.83 347.8 281.43 361.3 294.43C374.8 307.43 375.2 328.93 362.2 342.43C336.9 368.63 302.7 383.23 266.2 383.23Z" fill="#7E509E"/>
<path d="M65.6001 210.33C85.2062 210.33 101.1 194.436 101.1 174.83C101.1 155.224 85.2062 139.33 65.6001 139.33C45.994 139.33 30.1001 155.224 30.1001 174.83C30.1001 194.436 45.994 210.33 65.6001 210.33Z" fill="#AA61C5"/>
<path d="M427.9 424.629C447.506 424.629 463.4 408.735 463.4 389.129C463.4 369.523 447.506 353.629 427.9 353.629C408.294 353.629 392.4 369.523 392.4 389.129C392.4 408.735 408.294 424.629 427.9 424.629Z" fill="#BA1DF3"/>
<defs>
<linearGradient id="paint0_linear_1_1866" x1="127.084" y1="75.66" x2="465.832" y2="75.66" gradientUnits="userSpaceOnUse">
<stop stop-color="#A655C5"/>
<stop offset="1" stop-color="#951CC2"/>
</linearGradient>
</defs>
</svg>
