<svg width="500" height="501" viewBox="0 0 500 501" fill="none" xmlns="http://www.w3.org/2000/svg">
<g clip-path="url(#clip0_1_1872)">
<path d="M249.9 500.629C388 500.629 500 388.629 500 250.529C500 112.429 388 0.529297 249.9 0.529297C111.8 0.529297 -0.200195 112.429 -0.200195 250.629C-0.200195 388.729 111.8 500.629 249.9 500.629Z" fill="#070A0E"/>
<path fill-rule="evenodd" clip-rule="evenodd" d="M144.3 334.429C136.8 329.829 132.2 321.729 132.2 312.929V264.029C132.2 262.129 132.7 260.329 133.6 258.729C136.5 253.729 143 252.029 148 254.929L258.3 319.229C264.7 323.029 268.7 329.929 268.7 337.329V387.929C268.7 390.229 268.1 392.529 266.9 394.529C263.3 400.429 255.5 402.329 249.6 398.729L144.3 334.429ZM308.7 241.629C315.1 245.429 319.1 252.329 319.1 259.729V362.429C319.1 365.429 317.5 368.229 314.8 369.729L290.7 383.429C290.4 383.629 290.1 383.729 289.7 383.829V326.829C289.7 319.429 285.8 312.629 279.5 308.829L182.7 250.929V186.429C182.7 184.529 183.2 182.729 184.1 181.129C187 176.129 193.5 174.429 198.5 177.329L308.7 241.629ZM356.9 165.829C363.4 169.529 367.4 176.529 367.4 184.029V334.029C367.4 337.129 365.7 339.929 363 341.429L340.1 353.829V249.329C340.1 241.929 336.2 235.129 329.9 231.329L230.9 171.929V110.829C230.9 108.929 231.4 107.129 232.3 105.529C235.2 100.529 241.7 98.8294 246.7 101.729L356.9 165.829Z" fill="#00D395"/>
</g>
<defs>
<clipPath id="clip0_1_1872">
<rect width="500" height="500" fill="white" transform="translate(0 0.429688)"/>
</clipPath>
</defs>
</svg>
