<svg width="500" height="501" viewBox="0 0 500 501" fill="none" xmlns="http://www.w3.org/2000/svg">
<path d="M479.7 286.73L287.1 479.33C266.6 499.83 233.4 499.83 212.9 479.33L20.2998 286.73C-0.200195 266.23 -0.200195 233.03 20.2998 212.53L212.9 19.9297C233.4 -0.570312 266.6 -0.570312 287.1 19.9297L479.7 212.53C500.2 233.03 500.2 266.23 479.7 286.73Z" fill="#1765FE"/>
<path d="M297.3 241.43V311.63C297.3 314.73 294.8 317.23 291.7 317.23H206.4C203.3 317.23 200.8 314.73 200.8 311.63V188.33C200.8 185.23 203.3 182.73 206.4 182.73H297.3V215.43L335.3 193.53V182.53C335.3 161.63 318.4 144.73 297.5 144.73H206.3C182.3 144.73 162.9 164.13 162.9 188.13V311.73C162.9 335.73 182.3 355.13 206.3 355.13H291.9C315.9 355.13 335.3 335.73 335.3 311.73V219.43L297.3 241.43Z" fill="white"/>
</svg>
