<svg width="500" height="501" viewBox="0 0 500 501" fill="none" xmlns="http://www.w3.org/2000/svg">
<g clip-path="url(#clip0_1_1878)">
<path d="M249.6 45.8297C254.6 45.8297 259.6 47.1297 264.2 49.6297L416.3 137.53C425 142.53 430.9 152.13 430.9 162.53V338.33C430.9 348.73 425.5 358.33 416.3 363.33L263.8 451.23C259.6 453.73 254.6 455.03 249.2 455.03C244.2 455.03 239.2 453.73 234.6 451.23L82.8998 363.33C74.0998 358.33 68.2998 348.73 68.2998 338.33V162.53C68.2998 152.13 73.6998 142.53 82.8998 137.53L235.4 49.6297C239.6 47.1297 244.6 45.8297 249.6 45.8297ZM249.6 0.429688C236.7 0.429688 224.2 3.72969 212.5 10.4297L60.3998 98.3297C37.4998 111.63 23.2998 135.83 23.2998 162.53V338.33C23.2998 365.03 37.4998 389.13 60.3998 402.53L212.9 490.43C224.6 497.13 237.1 500.43 250 500.43C262.9 500.43 275.4 497.13 287.1 490.43L439.6 402.53C462.5 389.23 476.7 365.03 476.7 338.33V162.53C476.7 135.83 462.5 111.73 439.6 98.3297L286.7 10.4297C275.4 3.72969 262.5 0.429688 249.6 0.429688Z" fill="#FD9500"/>
</g>
<defs>
<clipPath id="clip0_1_1878">
<rect width="500" height="500" fill="white" transform="translate(0 0.429688)"/>
</clipPath>
</defs>
</svg>
