<svg width="500" height="501" viewBox="0 0 500 501" fill="none" xmlns="http://www.w3.org/2000/svg">
<path d="M250 499.53C387.188 499.53 498.4 388.318 498.4 251.13C498.4 113.943 387.188 2.73047 250 2.73047C112.813 2.73047 1.6001 113.943 1.6001 251.13C1.6001 388.318 112.813 499.53 250 499.53Z" fill="url(#paint0_linear_1_1881)"/>
<path d="M208.5 278.029C215.9 287.929 222.1 296.129 228.6 304.729C227 307.129 225.7 309.329 224.1 311.429C213.5 325.929 202.1 340.029 192.3 355.029C176.5 379.329 178.7 409.429 196.6 431.429C214.9 453.929 244.4 462.329 271 452.629C298.2 442.729 315.9 417.229 315.4 388.529C315.1 374.329 309.9 361.829 301.6 350.629C271.1 309.629 240.3 268.729 209.7 227.829C196.5 210.329 183.2 192.929 170 175.329C127.4 118.229 154.7 38.7292 223.5 19.8292C286 2.8292 349.4 53.0292 347 117.729C346.3 137.929 340.6 156.329 328.4 172.629C316.1 189.029 303.9 205.429 291.6 221.829C290.6 223.129 289.4 224.229 287.7 226.129C281.1 217.429 274.8 209.129 268.2 200.329C278.1 187.329 287.5 174.429 297.3 161.929C307.8 148.629 315.6 134.429 315.8 116.929C316.1 86.9292 297.7 60.8292 269.6 51.6292C242.3 42.6292 211.7 52.5292 194.9 75.7292C177.3 99.9292 177.4 131.529 195.5 155.629C218.2 185.929 241.2 216.129 263.9 246.429C284.8 274.229 305.5 302.229 326.3 330.029C372.7 392.029 336.8 469.229 273.2 485.729C235.4 495.529 193.9 481.429 170.1 450.129C145.8 418.129 142.1 375.229 163 341.729C176.3 320.029 192.5 300.129 208.5 278.029Z" fill="white"/>
<defs>
<linearGradient id="paint0_linear_1_1881" x1="1.564" y1="251.118" x2="498.368" y2="251.118" gradientUnits="userSpaceOnUse">
<stop stop-color="#D69AC5"/>
<stop offset="1" stop-color="#253E90"/>
</linearGradient>
</defs>
</svg>
