<svg width="500" height="501" viewBox="0 0 500 501" fill="none" xmlns="http://www.w3.org/2000/svg">
<path d="M11.8 208.529C3.6 208.529 0 212.129 0 219.429C0 219.429 0 383.429 0 407.029C0 415.229 3.6 417.929 11.8 417.929C102 418.829 212.2 338.729 303.3 275.829V59.1289C213.1 121.129 100.2 209.429 11.8 208.529Z" fill="url(#paint0_linear_1_1884)"/>
<path d="M486.4 293.23C494.6 293.23 498.2 289.63 498.2 282.33C498.2 282.33 498.2 118.33 498.2 94.7298C498.2 86.5298 494.6 83.8298 486.4 83.8298C395.3 82.9298 286 163.03 194.9 225.93V441.83C285.1 379.73 398.1 291.43 486.4 293.23Z" fill="url(#paint1_linear_1_1884)"/>
<path d="M303.3 275.929V152.029C266 175.729 228.6 201.229 194 224.929V348.829C232.3 325.129 268.7 299.629 303.3 275.929Z" fill="#194AAD"/>
<defs>
<linearGradient id="paint0_linear_1_1884" x1="179.409" y1="391.331" x2="126.305" y2="90.379" gradientUnits="userSpaceOnUse">
<stop offset="0.1" stop-color="#194AAD"/>
<stop offset="0.5" stop-color="#248FCB"/>
<stop offset="0.8" stop-color="#2BBFDF"/>
</linearGradient>
<linearGradient id="paint1_linear_1_1884" x1="380.267" y1="63.9185" x2="310.045" y2="462.122" gradientUnits="userSpaceOnUse">
<stop offset="0.1" stop-color="#194AAD"/>
<stop offset="0.5" stop-color="#248FCB"/>
<stop offset="0.8" stop-color="#2BBFDF"/>
</linearGradient>
</defs>
</svg>
