<svg width="500" height="501" viewBox="0 0 500 501" fill="none" xmlns="http://www.w3.org/2000/svg">
<path d="M458.362 249.554C458.392 341.546 383.874 415.938 291.991 415.643C200.884 415.351 126.46 341.442 126.267 251.065C126.071 159.601 199.934 84.1195 289.473 84.2825C384.001 84.4525 458.332 157.192 458.362 249.554ZM150.991 249.947C151.252 328.403 214.422 391.334 292.658 391.078C371.188 390.821 433.895 327.497 433.517 248.832C433.145 171.334 369.332 108.836 290.811 109.065C214.327 109.289 150.736 173.363 150.991 249.947ZM428.256 74.6735C436.127 80.6835 443.385 80.4145 448.249 73.9995C452.822 67.9695 450.889 60.7045 443.183 54.8345C405.594 26.1985 363.405 9.09351 316.281 4.75151C248.396 -1.50349 188.02 17.2525 135.002 59.9485C128.74 64.9915 127.82 72.3415 132.436 78.0945C136.92 83.6825 144.609 84.2355 150.772 79.2105C191.942 45.6375 239.1 28.7875 289.873 28.3655C342.698 28.6885 388.085 43.9995 428.256 74.6735ZM97.8269 401.451C103.101 408.268 110.202 409.721 116.045 405.297C122.037 400.759 122.488 393.443 117.204 386.493C55.3539 305.15 54.2159 199.82 114.292 117.143C119.045 110.602 118.52 103.236 113.004 99.0785C106.97 94.5305 99.3179 95.9345 94.3659 102.64C61.9759 146.499 45.9159 195.779 45.4609 253.337C46.1259 306.448 63.3849 356.927 97.8269 401.451ZM439.649 447.668C446.422 442.695 447.855 435.436 443.342 429.474C439.003 423.742 431.664 423.214 425.057 428.158C345.636 487.595 234.658 486.497 156.022 425.497C148.576 419.721 141.641 419.817 136.904 425.759C132.166 431.702 133.803 439.087 141.177 444.747C185.526 478.792 235.738 495.749 291.586 496.43C346.196 496.128 395.592 480.015 439.649 447.668ZM259.257 46.3585C231.215 51.0455 204.964 60.6125 181.203 76.2675C127.386 111.725 96.1429 161.559 87.3569 225.416C86.3669 232.613 91.2459 238.848 98.1089 239.642C104.93 240.431 110.794 235.793 111.74 228.679C115.363 201.423 123.956 175.903 139.012 152.827C168.393 107.796 209.781 80.7365 262.643 71.1545C269.574 69.8985 273.52 65.9585 273.919 60.1625C274.148 50.9395 267.169 45.0365 259.257 46.3585ZM88.8119 284.564C102.293 369.057 171.662 438.663 256.498 452.838C265.884 454.406 272.247 450.892 273.525 443.433C274.841 435.75 270.003 430.5 260.428 428.652C204.787 417.912 162.543 388.112 134.03 339.132C123.317 320.729 116.521 300.829 113.073 279.793C111.824 272.172 106.323 267.594 99.2489 268.583C92.3169 269.553 88.8409 273.952 88.4309 280.523C88.5789 282.125 88.6189 283.355 88.8119 284.564ZM302.823 56.0155C301.836 63.2135 306.691 68.4895 314.283 70.0435C326.735 72.5925 339.391 74.6985 351.425 78.6315C381.535 88.4725 406.915 105.877 428.124 129.405C433.173 135.005 440.812 135.762 445.814 131.067C451.289 125.928 452.157 119.557 447.234 113.99C412.3 74.4925 368.36 51.9475 317.127 45.1495C308.779 45.1985 303.866 48.4105 302.823 56.0155ZM364.137 442.97C394.402 432.418 420.345 414.778 442.347 391.428C447.48 385.98 447.563 378.355 442.639 373.638C437.663 368.87 430.063 369.168 424.795 374.359C423.223 375.909 421.739 377.547 420.163 379.091C390.392 408.279 354.69 425.089 313.44 430.566C305.982 431.557 302.215 436.674 303.144 444.155C304.01 451.129 308.726 454.415 316.061 456.134C332.109 451.814 348.484 448.428 364.137 442.97ZM340.167 235.514C340.167 217.478 340.198 199.442 340.152 181.406C340.132 173.701 335.209 168.419 328.193 168.369C321.281 168.32 316.173 173.817 316.175 181.418C316.183 217.243 316.204 253.068 316.248 288.892C316.258 296.964 320.993 302.234 328.183 302.334C335.179 302.432 340.076 296.96 340.091 288.884C340.123 271.094 340.101 253.303 340.101 235.513C340.123 235.514 340.145 235.514 340.167 235.514ZM271.168 257.674C271.168 268.217 271.153 278.759 271.173 289.302C271.187 297.021 276.134 302.423 283.081 302.365C290.035 302.306 295.034 296.945 295.059 289.254C295.127 268.16 295.148 247.066 295.105 225.971C295.09 218.37 289.968 213.174 282.836 213.233C275.906 213.29 271.125 218.527 271.127 226.048C271.13 236.59 271.128 247.132 271.128 257.674C271.141 257.675 271.155 257.675 271.168 257.674ZM249.728 260.785C249.172 253.576 244.791 249.489 237.66 249.599C230.689 249.707 226.34 253.951 226.055 260.907C225.639 271.052 225.534 281.252 226.13 291.38C226.535 298.267 231.161 302.37 238.162 302.213C245.145 302.056 249.23 297.858 249.765 290.876C250.129 286.13 249.834 281.334 249.821 276.561C249.807 271.3 250.132 266.014 249.728 260.785Z" fill="black"/>
</svg>
