<svg width="500" height="501" viewBox="0 0 500 501" fill="none" xmlns="http://www.w3.org/2000/svg">
<path d="M335.6 267.03C328.3 239.33 321 214.53 315.2 190.43C313.7 185.33 310.8 183.83 307.9 183.13C300.6 180.93 293.3 179.53 286 177.33C269.2 172.93 251 168.53 234.2 163.43C228.4 161.93 224 162.73 219.6 167.83C204.3 183.13 187.5 199.93 167.1 221.03C162.7 225.43 163.5 229.83 164.2 233.43C170 254.63 176.6 279.33 183.2 303.43C185.4 310.73 189 315.13 195.6 316.53C211.6 320.93 228.4 325.33 244.5 328.93L254 331.13C257.6 331.83 260.6 333.33 263.5 334.03C265 334.73 266.4 334.73 267.9 335.53C268.6 335.53 269.4 335.53 270.1 335.53C274.5 335.53 276.7 332.63 278.1 331.13C278.8 330.43 278.8 330.43 279.6 329.63L288.4 320.13C302.3 306.23 316.8 290.93 331.4 277.13C334.9 276.53 337.8 272.83 335.6 267.03ZM316 273.63C309.4 280.23 303.6 286.73 297 292.63C289 300.63 280.2 309.43 271.5 318.13C269.3 320.33 267.1 321.03 264.2 319.63C243.8 313.83 223.4 308.73 202.9 302.83C200 302.13 198.5 301.33 197.8 297.73C192.7 277.33 187.6 256.93 181 235.73C179.5 232.13 180.3 230.63 182.5 228.43C199.3 211.63 214.6 196.33 228.4 181.03C229.1 180.33 229.9 179.53 231.3 179.53C232 179.53 232.8 179.53 234.2 180.23L245.9 183.83C261.9 188.23 278.7 193.33 295.5 197.73C299.9 199.23 301.3 200.63 302.1 205.73C305 219.63 308.7 232.73 312.3 245.83C313.8 250.93 315.2 256.73 316.7 261.83C317.4 263.33 317.4 264.73 318.2 266.23C318.2 266.93 318.2 266.93 318.2 266.93C319.6 269.93 318.1 271.43 316 273.63Z" fill="#52BAA1"/>
<path d="M162.1 326.83C152.6 335.63 143.9 345.03 134.4 353.83C128.6 360.43 122 366.23 115.4 372.83C115.4 372.83 114.7 373.53 114.7 374.33C113.2 375.83 111.8 378.73 108.9 378.73H108.2C106 378.73 104.6 378.03 102.4 375.83C100.2 373.63 98.8 371.43 98.8 369.23C98.8 365.63 101 363.43 103.2 361.93L103.9 361.23C111.9 353.93 119.2 345.93 127.2 337.93C133.8 331.33 140.3 324.83 146.9 318.23C149.8 315.33 150.5 313.83 149.1 310.93C143.3 291.23 138.2 271.53 133.8 253.33C133.1 249.73 132.3 248.93 130.2 248.23C117.1 244.63 103.9 240.93 91.5 238.03C84.9 236.53 78.4 234.43 71.1 232.23C70.4 232.23 70.4 232.23 69.6 232.23C71.1 232.23 66.7 232.23 66.7 232.23C65.2 232.23 63.8 232.93 63.1 234.43C62.4 235.13 62.4 235.13 61.6 235.93C57.2 240.33 52.1 245.43 47.7 249.83C38.9 258.63 30.2 267.33 21.4 275.33C21.4 275.33 20.7 276.03 20.7 276.83C20 280.43 18.5 283.43 14.9 283.43C12.7 283.43 10.5 282.73 7.6 280.53C4.7 278.33 4 275.43 4 273.23C4 269.63 6.9 268.13 9.1 266.63C9.8 265.93 10.6 265.93 10.6 265.13C17.2 257.83 24.5 250.53 31 243.93C39 235.93 47 227.93 54.3 219.83C58.7 215.43 63.1 212.53 71.1 215.43C93 222.03 115.6 227.83 134.6 232.93C141.9 235.13 146.3 238.73 148.5 246.83C152.9 264.33 158 282.53 163.1 299.33C164.6 303.73 165.3 307.33 166.7 311.73C167.9 317.33 166.4 322.43 162.1 326.83Z" fill="#52BAA1"/>
<path d="M367.7 114.63C367 114.63 367 115.33 366.2 115.33C358.2 123.33 350.2 131.33 342.1 139.43C334.8 146.73 326.8 154.73 318.8 162.73C315.9 165.63 313 167.13 310 167.13C308.5 167.13 307.1 167.13 305.6 166.43C280.1 159.83 257.5 153.33 236.3 148.23C230.5 146.73 229 141.63 228.3 139.43L225.4 129.23C220.3 110.23 215.2 90.5303 210.1 71.6303C208.6 65.0303 209.4 59.9303 214.5 55.6303C232.7 35.9303 247.3 20.6303 261.2 6.03034C267.8 -0.569658 272.9 4.53034 274.3 6.03034C276.5 7.53034 277.2 9.63034 277.2 11.8303C277.2 14.7303 275 16.9303 273.6 18.4303L272.9 19.1303C269.3 22.7303 264.9 27.1303 261.2 30.8303C251 41.0303 240.8 51.2303 229.8 61.4303C226.2 65.0303 225.4 67.2303 226.9 71.6303C229.1 80.4303 231.3 89.1303 234.2 97.9303C236.4 107.43 239.3 117.63 241.5 127.13C242.2 130.73 243 132.23 245.9 132.93C260.5 136.53 274.3 140.93 288.9 144.63C294.7 146.13 300.6 147.53 305.7 149.03H306.4H307.1H307.8C308.5 149.03 308.5 149.03 310 147.53C310.7 146.83 310.7 146.83 311.5 146.03L324.6 132.93C334.8 122.73 344.3 113.23 354.5 103.03C356.7 100.83 358.9 98.6303 362.5 98.6303C364.7 98.6303 366.9 100.13 369.1 101.53C371.3 103.73 372 105.93 372 108.13C371.4 110.93 369.2 113.13 367.7 114.63Z" fill="#52BAA1"/>
<path d="M491 233.53C490.3 234.23 489.5 234.23 489.5 235.03C477.1 248.13 464 261.33 450.8 273.73L443.5 281.03C442.8 281.73 442.8 281.73 442 282.53C440.5 284.03 437.6 286.93 434.7 286.93C434 286.93 433.2 286.93 431.8 286.23L413.6 281.13C394.6 276.03 377.1 270.93 359.6 266.53C353 265.03 352.3 259.23 350.8 257.03C343.5 231.53 337.7 208.93 331.8 187.73C330.3 181.13 332.5 177.53 335.4 175.33C353.6 157.83 368.9 141.83 383.5 127.23C385 125.73 387.9 122.83 390.8 122.83C393.7 122.83 395.9 125.03 397.4 126.43C399.6 128.63 400.3 130.83 400.3 132.23C400.3 135.13 398.1 136.63 396.7 138.03C396 138.03 396 138.73 395.2 138.73C389.4 144.53 383.5 150.43 377.7 156.23C369.7 165.03 360.9 173.03 352.2 181.73C349.3 184.63 349.3 186.83 350.7 191.93C353.6 203.63 356.5 215.23 359.5 226.23C361.7 233.53 363.1 240.13 365.3 247.43C366 250.33 367.5 251.83 371.1 252.53C390.8 257.63 410.5 263.43 428 267.83C430.9 268.53 432.4 267.83 435.3 265.63C451.3 249.63 464.5 236.43 476.9 224.03C476.9 224.03 477.6 223.33 478.4 222.53C479.9 220.33 481.3 217.43 485 217.43C487.2 217.43 489.4 218.13 492.3 220.33C495.2 222.53 495.9 225.43 495.9 227.63C496.1 230.53 493.2 232.03 491 233.53Z" fill="#52BAA1"/>
<path d="M287.5 444.231C286.8 444.931 286.8 444.931 286 445.731C268.5 463.231 253.2 479.231 237.9 494.631C236.4 496.131 234.3 498.231 231.3 498.231C229.1 498.231 227.7 497.531 225.5 495.331C223.3 493.131 222.6 490.931 222.6 488.731C222.6 485.831 224.1 483.631 226.2 481.431C232 475.631 237.9 470.531 243 464.631C251.8 455.831 260.5 447.131 269.3 439.131C272.2 436.231 273.7 434.731 272.2 430.331C267.1 412.131 262.7 393.831 257.6 374.931C256.1 370.531 255.4 369.131 251 367.631C233.5 363.231 213.1 358.131 193.4 351.631C191.2 350.931 190.5 351.631 188.3 353.831L187.6 354.531C181.8 360.331 176.7 365.431 170.8 371.331C162.8 379.331 154 388.131 145.3 396.831C144.6 397.531 144.6 397.531 143.8 398.331C142.3 399.831 140.2 402.731 136.5 402.731C134.3 402.731 132.1 402.031 129.9 399.831C127.7 397.631 127 395.431 127 393.231C127 390.331 129.2 388.131 131.4 386.631C132.1 385.931 132.1 385.931 132.9 385.931C139.5 379.331 145.3 372.831 151.9 366.931C160.7 358.131 169.4 349.431 178.2 339.931C183.3 334.831 188.4 333.331 195 335.531C214.7 341.331 234.4 346.431 254.1 351.531L259.2 353.031C266.5 354.531 269.4 358.131 271.6 365.431C275.2 380.031 279.6 395.331 283.3 409.931C284.8 416.531 286.9 422.331 288.4 428.931C289.1 430.431 289.1 431.831 289.1 434.031C289.1 435.531 289.8 436.231 289.8 438.431C291.9 439.131 290.4 441.331 287.5 444.231Z" fill="#52BAA1"/>
<path d="M432.6 315.13C430.4 323.13 423.8 321.73 420.9 320.23C412.9 318.03 404.1 315.83 396.1 313.63C385.2 310.73 373.5 307.83 361.8 304.13C358.2 302.63 356.7 303.43 354.5 305.63C339.2 321.63 326.8 334.03 314.4 345.73C310 350.13 309.3 353.03 310.8 358.13C314.4 371.23 318.1 384.43 321.7 396.83C323.2 401.93 324.6 407.03 326.1 412.13C326.8 413.63 326.8 415.03 326.8 415.03V415.73C326.8 417.93 327.5 425.23 320.2 425.93C319.5 425.93 318.7 425.93 318 425.93C313.6 425.93 311.4 423.73 310 420.13L305.6 401.93C301.2 384.43 296.1 366.93 291.7 349.43C290.2 344.33 293.9 341.43 296.1 339.23L296.8 338.53C305.6 329.73 314.3 321.03 322.3 313.03C330.3 305.03 339.1 296.23 347.1 288.23C351.5 283.83 357.3 284.63 359.5 286.03C381.4 291.83 402.5 297.73 424.4 304.23C425.1 304.23 425.1 304.23 425.9 304.23C428.1 304.93 431 305.73 432.5 307.83C433.4 310.83 433.4 313.03 432.6 315.13Z" fill="#52BAA1"/>
<path d="M202.9 160.53L197.1 166.33C182.5 180.93 167.9 195.53 153.3 210.13C151.1 212.33 148.2 213.73 146 213.73C144.5 213.73 143.8 213.73 142.4 213.03C122 207.23 98.6 200.63 76 194.83C73.1 194.13 70.9 193.33 69.4 191.23C67.9 189.03 68.7 186.13 68.7 183.93C69.4 181.73 70.2 179.53 72.3 178.83C74.5 177.33 77.4 178.13 78.9 178.83H79.6C86.9 181.03 93.5 182.43 100.8 184.63C113.2 187.53 125.6 191.23 138 194.83C143.1 196.33 145.3 195.53 148.9 192.63C156.2 184.63 164.2 176.63 172.2 169.33C177.3 164.23 182.4 159.13 188.2 153.33C188.9 152.63 189.7 151.83 189.7 151.83C190.4 151.13 191.9 149.63 191.9 149.63V148.93L189 136.53C184.6 121.23 181 107.33 177.3 92.7297C177.3 92.7297 177.3 92.0297 176.6 92.0297C175.9 90.5297 175.1 89.1297 175.9 86.9297C175.9 86.2297 175.2 85.4297 175.2 84.7297C174.5 82.5297 173.7 79.6297 175.2 76.7297C176.7 74.5297 178.1 73.8297 181 73.1297C183.9 72.4297 186.8 72.4297 188.3 73.8297C191.2 76.0297 191.2 79.6297 191.9 81.8297C191.9 82.5297 191.9 83.3297 191.9 84.0297C194.8 94.2297 197 103.73 199.9 113.93C202.8 124.13 205 134.33 207.9 144.53C209.5 151.13 208 156.23 202.9 160.53Z" fill="#52BAA1"/>
</svg>
