<svg width="500" height="501" viewBox="0 0 500 501" fill="none" xmlns="http://www.w3.org/2000/svg">
<path d="M469.8 65.3299C469.5 61.6299 466.4 58.7299 462.7 58.7299C399.3 57.6299 331 36.7299 259.3 3.92992C254.3 1.62992 248.5 1.72992 243.5 4.12992C164.6 42.1299 97.4 59.5299 39.1 58.9299C35.2 58.9299 31.9 61.9299 31.8 65.8299C30.7 91.2299 30.8 115.13 31.8 137.73H180.2C187.8 137.73 193.9 143.83 193.9 151.43C193.9 159.03 187.8 165.13 180.2 165.13H33.6C35.5 187.43 38.4 208.33 42.1 227.73H244.7C252.3 227.73 258.4 233.83 258.4 241.43C258.4 249.03 252.3 255.13 244.7 255.13H48.1C53.2 275.83 59.4 294.83 66.2 312.33H182.1C188.6 312.33 193.9 317.63 193.9 324.13V328.03C193.9 334.53 188.6 339.83 182.1 339.83H78.2C88.5 361.13 99.8 379.63 111.7 395.73H221C227.5 395.73 232.8 401.03 232.8 407.53V411.43C232.8 417.93 227.5 423.23 221 423.23H134.3C179.5 471.93 226.5 490.93 245.2 497.13C250.4 498.83 256.1 498.73 261.3 496.63C490.1 405.63 474 113.13 469.8 65.3299Z" fill="#272727"/>
</svg>
