<svg width="500" height="501" viewBox="0 0 500 501" fill="none" xmlns="http://www.w3.org/2000/svg">
<path d="M275.76 3.84152C292.492 5.51552 306.302 7.88952 321.119 11.6825C377.716 26.1705 423.245 57.5005 458.325 104.123C458.817 104.777 459.617 106.879 459.533 107.617C453.185 100.971 447.249 94.2765 440.816 88.1005C399.921 48.8425 351.232 27.2515 294.495 24.5115C189.147 19.4235 95.37 86.2995 65.794 187.39C30.43 308.264 101.686 436.759 223.699 468.283C315.963 492.121 394.191 465.919 457.464 394.812C458.395 393.766 459.594 392.959 460.669 392.04C460.669 392.04 450.209 407.156 444.128 413.953C403.099 459.81 351.795 486.522 290.976 495.171C286.334 495.831 281.655 496.23 276.994 496.75C265.192 497.631 253.856 497.951 242.483 496.75C234.995 495.721 227.484 494.836 220.022 493.643C123.101 478.149 43.795 405.255 20.608 309.842C17.142 295.578 15.642 280.837 13.233 266.316C13.233 255.636 13.233 244.957 13.233 234.277C15.018 222.563 15.946 210.641 18.724 199.167C42.199 102.208 102.181 39.7175 197.84 11.8835C212.657 7.57252 227.352 5.35552 243.714 3.84152C255.292 2.96052 264.871 3.44952 275.76 3.84152Z" fill="#21A3DF"/>
<path d="M489.01 272.225C477.182 336.188 446.318 388.034 390.918 424.446C334.079 461.805 273.619 458.928 211.69 441.124C269.884 447.855 325.925 442.634 377.407 411.677C366.097 415.417 354.971 419.895 343.445 422.763C305.969 432.087 267.997 435.438 230.11 426.2C205.537 420.208 183.795 408.235 167.954 387.6C146.003 359.006 149.774 318.07 176.334 295.899C188.395 285.831 202.204 282.088 217.734 284.979C219.811 285.366 221.923 285.572 225.772 286.104C217.178 272.339 206.486 264.044 192.518 261.323C172.038 257.334 152.706 263.12 133.607 270.135C125.99 272.933 117.944 275.483 109.936 276.1C94.535 277.288 84.399 268.797 83.676 253.265C82.169 220.913 87.915 189.728 104.272 161.406C112.867 146.524 123.198 132.64 132.835 118.367C134.169 116.391 136.022 114.766 138.825 113.619C136.526 119.762 133.982 125.826 131.977 132.064C127.11 147.205 123.456 162.537 126.481 178.634C130.147 198.141 148.35 211.787 167.71 207.338C179.248 204.686 190.24 198.94 200.935 193.517C214.453 186.663 226.88 177.451 240.753 171.55C261.391 162.772 282.022 163.268 300.445 178.362C301.36 179.112 302.17 179.988 304.196 181.916C287.227 180.766 272.938 184.354 261.285 195.339C250.01 205.968 242.777 218.631 242.057 235.908C246.871 234.691 335.02 307.775 362.274 312.965C400.47 320.238 435.28 311.625 466.951 289.904C474.456 284.757 480.581 277.598 487.34 271.364C487.896 271.651 488.453 271.938 489.01 272.225Z" fill="#2282C6"/>
<path d="M461.979 294.596C430.845 324.895 394.567 343.532 350.096 341.313C320.93 339.858 293.011 333.23 269.879 314.017C247.717 295.609 239.286 271.067 240.374 242.808C240.413 241.788 240.578 240.763 240.785 239.762C240.947 238.976 241.265 238.223 241.738 236.763C261.487 234.89 276.07 220.571 294.088 214.05C302.082 211.157 310.679 209.638 319.134 208.371C331.708 206.486 341.506 212.643 350.851 220.617C345.14 221.323 339.764 221.394 334.718 222.719C317.601 227.214 308.598 241.695 310.75 260.485C314.091 289.653 335.26 310.089 365.884 314.606C398.644 319.438 429.134 313.428 457.72 296.996C459.133 296.184 460.56 295.395 461.979 294.596Z" fill="#033C77"/>
<path d="M281.694 60.6895C333.785 121.441 435.612 242.203 435.612 242.203C435.612 242.203 322.469 161.438 270.051 123.626C266.325 120.938 263.014 120.34 258.72 122.369C237.386 132.447 189.029 154.607 189.029 154.607C189.029 154.607 250.608 92.9085 281.694 60.6895Z" fill="#B4B7B6"/>
<path d="M458.565 200.182C424.557 174.994 390.549 149.806 355.641 123.953C363.006 117.03 369.645 110.789 377.085 103.795C404.866 136.036 458.848 199.902 458.565 200.182Z" fill="#B4B7B6"/>
</svg>
