<svg width="500" height="501" viewBox="0 0 500 501" fill="none" xmlns="http://www.w3.org/2000/svg">
<path fill-rule="evenodd" clip-rule="evenodd" d="M307.8 17.0301C272 -3.56992 228 -3.56992 192.2 17.0301L76.8 83.7301C41 104.33 19 142.53 19 183.73V317.13C19 358.43 41 396.53 76.8 417.13L192.3 483.83C228 504.43 272.1 504.43 307.8 483.83L423.3 417.13C459 396.53 481 358.33 481 317.13C481 313.73 477.3 311.63 474.4 313.23L375.6 369.93C375.5 369.93 375.4 369.93 375.4 369.83C375.4 369.73 375.3 369.73 375.2 369.73C372.9 371.33 370.6 372.83 368.2 374.23L298.1 414.73C287.1 421.13 274.9 411.83 274.9 399.13V350.03C274.9 340.43 280 331.53 288.4 326.73L375.4 276.53L467.8 222.13C476 217.33 481.1 208.43 481.1 198.93V183.83C481.1 142.53 459.1 104.43 423.4 83.8301L307.8 17.0301ZM298.1 86.1301C268.3 68.9301 231.6 68.9301 201.8 86.1301L131.7 126.63C101.9 143.83 83.6 175.63 83.6 210.03V290.93C83.6 325.33 101.9 357.13 131.7 374.33L201.8 414.83C211.9 420.63 223.3 412.33 223.3 400.63V347.73C223.3 338.13 218.2 329.33 209.9 324.43L155.4 292.73C123.7 274.23 123.5 228.53 155 209.73L223.7 168.93C238.7 160.03 257.3 159.93 272.4 168.63L342.8 209.43C354.3 216.13 369.1 220.63 380.6 214.03L398.8 203.53C408.5 197.93 414.1 186.73 410.1 176.23C402.4 155.73 387.7 138.13 368.1 126.83L298.1 86.1301ZM244.3 216.13L199.6 243.33C193.4 247.13 193.4 256.13 199.7 259.83L244.4 286.43C247.4 288.23 251.1 288.23 254.2 286.53L299.9 259.93C306.2 256.23 306.3 247.13 300 243.33L254.3 216.13C251.1 214.23 247.3 214.23 244.3 216.13Z" fill="url(#paint0_linear_1_1909)"/>
<defs>
<linearGradient id="paint0_linear_1_1909" x1="250" y1="41.889" x2="250" y2="458.971" gradientUnits="userSpaceOnUse">
<stop stop-color="#57DCF9"/>
<stop offset="1" stop-color="#4679E7"/>
</linearGradient>
</defs>
</svg>
