<svg width="500" height="501" viewBox="0 0 500 501" fill="none" xmlns="http://www.w3.org/2000/svg">
<g clip-path="url(#clip0_1_1911)">
<path fill-rule="evenodd" clip-rule="evenodd" d="M268.3 0.429688C311.2 0.429688 353.4 11.4297 390.8 32.4297C428.2 53.4297 459.6 83.7297 481.9 120.33C464.6 120.13 447.5 123.23 431.5 129.73C415.5 136.13 400.9 145.73 388.6 157.83C376.3 169.93 366.6 184.33 359.9 200.23C353.2 216.13 349.8 233.23 349.8 250.43C349.8 267.63 353.2 284.73 359.9 300.63C366.6 316.53 376.3 330.93 388.6 343.03C400.9 355.13 415.5 364.73 431.5 371.13C447.5 377.53 464.6 380.73 481.9 380.53C459.2 417.83 427.1 448.43 388.8 469.53C350.5 490.53 307.5 501.23 263.8 500.43C220.1 499.63 177.5 487.43 140 465.13C102.5 442.73 71.6 410.93 50.2 372.93C28.8 334.93 17.8 291.93 18.2 248.23C18.6 204.63 30.4 161.83 52.5 124.13C74.5 86.4297 106 55.2297 143.9 33.5297C181.7 11.8297 224.6 0.429688 268.3 0.429688Z" fill="#FFC780"/>
<path fill-rule="evenodd" clip-rule="evenodd" d="M481.9 120.229C464.6 120.029 447.5 123.129 431.5 129.629C415.5 136.029 400.9 145.629 388.6 157.729C376.3 169.829 366.6 184.229 359.9 200.129C353.2 216.029 349.8 233.129 349.8 250.329C349.8 267.529 353.2 284.629 359.9 300.529C366.6 316.429 376.3 330.829 388.6 342.929C400.9 355.029 415.5 364.629 431.5 371.029C447.5 377.429 464.6 380.629 481.9 380.429L481.1 381.729C455.7 404.729 424.1 419.929 390.2 425.329C356.3 430.729 321.6 426.229 290.2 412.329C258.8 398.429 232.2 375.629 213.6 346.829C194.9 318.029 185.1 284.429 185.2 250.129C185.3 215.829 195.4 182.329 214.2 153.629C233 124.929 259.8 102.329 291.2 88.629C322.6 74.829 357.4 70.529 391.2 76.129C425.1 81.729 456.6 97.129 481.9 120.229Z" fill="url(#paint0_linear_1_1911)"/>
</g>
<defs>
<linearGradient id="paint0_linear_1_1911" x1="333.528" y1="427.573" x2="333.528" y2="73.7491" gradientUnits="userSpaceOnUse">
<stop stop-color="#FFC780"/>
<stop offset="1" stop-color="#964B48"/>
</linearGradient>
<clipPath id="clip0_1_1911">
<rect width="500" height="500" fill="white" transform="translate(0 0.429688)"/>
</clipPath>
</defs>
</svg>
