<svg width="500" height="501" viewBox="0 0 500 501" fill="none" xmlns="http://www.w3.org/2000/svg">
<path d="M276.8 175.73C228.7 175.33 179.8 175.73 132.2 177.03C129.9 175.13 131.6 172.63 132.7 170.53C137.8 161.53 143 152.63 148 143.63C163.3 116.33 190.3 101.23 221.2 101.13C304.2 97.1296 390.1 111.43 471.1 89.6296C473.3 88.3296 476.4 89.0296 478.2 90.2296C478.9 90.9296 478.8 93.3296 478.2 94.5296C469.2 111.03 459.2 126.93 450.1 143.43C439.4 163.23 420.6 176.13 397.6 175.73C357.3 175.83 317 175.73 276.8 175.73Z" fill="#00C878"/>
<path d="M268 207.429C316.1 206.029 364.7 210.429 412.5 205.229C414.3 204.929 417.2 205.329 418 206.429C418.9 207.729 418.6 210.629 417.7 212.229C408.8 227.829 400.4 243.929 390.2 258.729C380.5 272.829 366.2 280.829 348.4 281.029C308.7 281.429 268.9 281.929 229.2 282.029C179.5 282.229 129.4 281.329 80 283.529C77.1 281.329 77.3 277.829 79.7 275.129C89.1 258.829 98.4 242.529 108 226.329C115.3 214.129 126.1 207.429 140.7 207.429C183.2 207.529 225.6 207.529 268 207.429Z" fill="#00C878"/>
<path d="M214.3 312.83C261.6 311.33 309.5 316.03 356.5 310.53C361.3 309.53 363.7 312.23 361.5 316.13C351.5 333.23 343.7 351.83 328.9 365.73C303 392.53 264.1 386.03 230.3 387.43C164.3 387.63 98.2 387.53 32.2 387.53C19.9 387.53 19.3 386.73 25.4 375.83C33.6 361.33 42 346.93 50.4 332.43C58.8 318.03 72 312.93 87.9 312.83C130 312.73 172.1 312.83 214.3 312.83Z" fill="#00C878"/>
</svg>
