<svg width="500" height="501" viewBox="0 0 500 501" fill="none" xmlns="http://www.w3.org/2000/svg">
<g clip-path="url(#clip0_1_1918)">
<path d="M270.1 262.23L357.8 349.93C364.3 356.53 364.3 367.03 357.7 373.63C357.2 374.13 356.7 374.63 356.1 375.03C287.3 429.03 187.7 417.13 133.7 348.33C79.7 279.53 91.6 179.93 160.4 125.93C218.1 80.6297 299.2 80.8297 356.7 126.43C363.8 132.23 364.8 142.63 359 149.73C358.6 150.23 358.2 150.63 357.8 151.03L270.1 238.73C268.6 240.23 267.3 242.13 266.5 244.13C265.7 246.23 265.2 248.53 265.2 250.83C265.2 253.13 265.6 255.43 266.5 257.53C267.3 259.53 268.5 261.43 270.1 262.93V262.23ZM250 0.429688C111.9 0.429688 0 112.33 0 250.43C0 388.53 111.9 500.43 250 500.43C388.1 500.43 500 388.53 500 250.43C500 112.33 388.1 0.429688 250 0.429688Z" fill="#69E2DC"/>
</g>
<defs>
<clipPath id="clip0_1_1918">
<rect width="500" height="500" fill="white" transform="translate(0 0.429688)"/>
</clipPath>
</defs>
</svg>
