<svg width="500" height="501" viewBox="0 0 500 501" fill="none" xmlns="http://www.w3.org/2000/svg">
<g clip-path="url(#clip0_1_1923)">
<path d="M250 500.33C388.071 500.33 500 388.401 500 250.33C500 112.259 388.071 0.330078 250 0.330078C111.929 0.330078 0 112.259 0 250.33C0 388.401 111.929 500.33 250 500.33Z" fill="#EDF0F2"/>
<path d="M408.7 443.53C370.5 474.93 323.8 494.23 274.6 499.13C208.6 505.63 142.7 485.73 91.5002 443.73C40.2002 401.73 7.70018 341.03 1.20018 275.03C-3.69982 225.83 6.20018 176.23 29.4002 132.63C52.7002 89.0298 88.4002 53.2298 132 29.9298C175.6 6.52984 225.1 -3.27016 274.4 1.52984C323.6 6.32984 370.3 25.6298 408.5 57.0298L358.1 118.53C332 97.1298 300.2 84.0298 266.6 80.7298C233 77.4298 199.3 84.2298 169.6 100.13C139.9 116.03 115.5 140.43 99.7002 170.13C83.8002 199.83 77.1002 233.63 80.5002 267.23C85.0002 312.23 107.1 353.63 142.1 382.23C177.1 410.93 222 424.53 267 420.03C300.5 416.73 332.4 403.53 358.4 382.13L408.7 443.53Z" fill="url(#paint0_linear_1_1923)"/>
<path d="M250 470.23C371.5 470.23 469.9 371.73 469.9 250.33C469.9 128.83 371.5 30.4297 250 30.4297C128.5 30.4297 30.0996 128.83 30.0996 250.33C30.0996 371.83 128.5 470.23 250 470.23Z" fill="white"/>
<path fill-rule="evenodd" clip-rule="evenodd" d="M283.8 253.029C281.8 247.229 278.4 242.029 273.9 238.029L272.2 236.529L272.1 236.429C271.5 235.929 271 235.529 270.4 235.129L270.3 235.029C269.7 234.629 269.2 234.229 268.5 233.829C268.4 233.829 268.4 233.729 268.3 233.729C267.7 233.329 267.1 233.029 266.5 232.729C266.4 232.729 266.4 232.629 266.3 232.629C265.7 232.329 265.1 232.029 264.4 231.729C264.3 231.729 264.3 231.629 264.2 231.629C263.6 231.429 263.1 231.129 262.5 230.929C261 230.329 259.3 229.829 257.7 229.529C256.5 231.929 254.7 234.129 252.8 235.929C255.8 236.129 258.6 236.929 261.2 237.929C262.7 238.629 264.3 239.429 265.6 240.229C265.7 240.229 265.8 240.329 265.8 240.329C266.2 240.529 266.5 240.829 266.9 241.129C267.1 241.229 267.2 241.329 267.4 241.529C267.7 241.729 268.1 242.029 268.4 242.329C268.6 242.529 268.8 242.629 269 242.829C269.3 243.129 269.6 243.329 269.9 243.629L270.5 244.229L271.3 245.029L271.9 245.629C272.1 245.929 272.4 246.229 272.6 246.429C272.8 246.629 273 246.929 273.2 247.129L273.8 248.029C274 248.329 274.2 248.529 274.3 248.829L274.9 249.729C275.1 250.029 275.2 250.329 275.4 250.529C275.6 250.829 275.7 251.129 275.9 251.429C276.1 251.729 276.2 252.029 276.4 252.329C276.5 252.629 276.7 252.929 276.8 253.229C277 253.629 277.1 254.029 277.3 254.329C278.1 256.229 278.6 258.329 278.9 260.529L279.8 263.929C280.2 265.429 283.6 277.829 291.6 282.029C300.8 286.929 312.9 292.929 317.7 295.229L254.8 333.529V307.229C254.8 303.029 262.9 298.229 266.6 296.529L266.8 296.429C267.6 296.029 268.3 295.629 269.1 295.129L269.4 294.929C271 293.929 272.6 292.829 274 291.529C274.1 291.429 274.3 291.329 274.4 291.129C274.6 291.029 274.7 290.829 274.9 290.729C275.4 290.329 275.8 289.829 276.2 289.429L276.4 289.229C276.9 288.729 277.4 288.229 277.7 287.629C277.8 287.429 278 287.329 278.1 287.129C278.5 286.729 278.8 286.229 279.2 285.729C279.3 285.629 279.4 285.429 279.5 285.329L280.6 283.529C280.6 283.429 280.7 283.429 280.7 283.329C281.2 282.529 281.7 281.629 282.1 280.929C280.2 278.629 278.8 276.029 277.6 273.729C277.1 275.229 276.5 276.629 275.8 277.929C275.5 278.529 275.1 279.129 274.8 279.729C274.7 279.829 274.7 279.929 274.6 279.929C274.3 280.429 273.9 280.929 273.6 281.329C273.5 281.429 273.4 281.629 273.3 281.729C273 282.229 272.6 282.629 272.2 283.029C272.1 283.129 272.1 283.229 272 283.229C269.7 285.829 266.9 288.129 263.8 289.629L263.2 289.929C261.6 290.629 247.5 297.129 247.5 306.929V333.429L184.5 295.229C188.6 292.729 200.4 285.529 210.2 282.429C214 281.129 222.1 286.429 226.7 290.229L227 290.529C227.6 291.129 228.2 291.729 228.9 292.229L229.1 292.429C230.5 293.629 232.1 294.729 233.8 295.629L234.9 296.229C235 296.229 235.1 296.329 235.1 296.329C236.2 296.929 237.2 297.429 238.3 297.929C238.5 298.029 238.6 298.029 238.8 298.129C238.9 298.129 239 298.229 239.2 298.229C240.8 298.829 242.4 299.329 244.1 299.729C245.3 297.329 247.2 295.129 249.1 293.329C246.3 293.129 243.8 292.529 241.3 291.529C241.2 291.429 241 291.429 240.9 291.329C240.6 291.229 240.3 291.129 240 290.929C239.9 290.829 239.7 290.829 239.6 290.729C239.3 290.629 239 290.429 238.8 290.329C236.9 289.329 235.2 288.329 233.5 286.929L231 284.629C230.9 284.529 227.8 281.729 223.6 279.229C217.4 275.629 212.1 274.429 208.1 275.729C199.8 278.429 190.3 283.629 184.6 287.029L247.5 171.829V222.329C247.5 224.129 244.9 228.729 236.2 232.729L235.6 233.029C234.7 233.429 234 233.929 233.1 234.429L232.9 234.529C231.3 235.529 229.7 236.629 228.2 237.929C227.2 238.729 226.4 239.629 225.6 240.429L225.5 240.529C224.6 241.429 223.9 242.329 223.2 243.229L223.1 243.329C222.7 243.829 222.4 244.329 222 244.829C222 244.929 221.9 244.929 221.9 245.029C221.6 245.529 221.3 245.929 221 246.429C221 246.529 220.9 246.529 220.9 246.629L220 248.129C219.9 248.229 219.9 248.329 219.8 248.529C219.5 249.029 219.3 249.529 219.1 249.929C219.1 250.029 219 250.129 219 250.129C218.8 250.629 218.6 251.029 218.4 251.529C218.3 251.729 218.3 251.829 218.2 252.029L217.6 253.529C217.5 253.729 217.5 253.829 217.4 254.029C217.3 254.429 217.2 254.729 217 255.129C216.9 255.329 216.9 255.529 216.8 255.729C216.7 256.229 216.5 256.729 216.4 257.129C216.3 257.329 216.3 257.629 216.2 257.829C216.1 258.129 216.1 258.529 216 258.829C215.9 259.129 215.9 259.429 215.8 259.729C215.7 260.129 215.7 260.529 215.6 260.929C215.6 261.229 215.5 261.429 215.5 261.729C215.5 262.129 215.4 262.429 215.4 262.829C215.4 263.229 215.4 263.529 215.3 263.929V265.429C215.3 267.229 215.4 269.029 215.7 270.729C218.2 271.329 220.8 272.429 223.5 273.729C222.7 271.229 222.4 268.529 222.3 265.829V264.429C222.3 263.729 222.3 263.129 222.4 262.529V262.029C222.4 261.429 222.5 260.929 222.6 260.329V260.129C222.7 259.529 222.8 258.929 222.9 258.329C222.9 258.129 223 258.029 223 257.829C223.1 257.329 223.3 256.829 223.4 256.329C223.4 256.229 223.5 256.129 223.5 256.029L224.1 254.229C224.2 254.129 224.2 253.929 224.3 253.829C224.5 253.329 224.7 252.829 224.9 252.429C225 252.329 225 252.229 225.1 252.029C225.4 251.429 225.6 250.929 226 250.429C226.1 250.329 226.1 250.229 226.2 250.129C226.5 249.629 226.7 249.229 227 248.729C227.1 248.629 227.1 248.529 227.2 248.429C227.5 247.929 227.9 247.429 228.3 246.929C228.3 246.929 228.3 246.829 228.4 246.829C228.8 246.329 229.1 245.929 229.4 245.429C229.5 245.329 229.5 245.229 229.6 245.129C231.3 243.229 233.2 241.529 235.4 240.029L238.4 238.529C240 237.829 254 231.129 254 221.329V171.129L317.5 287.229C311.9 284.429 301.8 279.329 294.1 275.229C289.6 272.929 286.7 264.629 285.8 261.629L284.9 258.129C284.9 256.729 284.4 254.929 283.8 253.029ZM326.8 289.629L256.8 161.729C255.6 159.429 253.3 158.029 250.7 158.029C248.1 158.029 245.8 159.429 244.6 161.729L174.6 289.629C172.8 292.929 173.8 297.229 177.1 299.129L247.2 341.829C248.3 342.529 249.6 342.829 250.8 342.829C252 342.829 253.3 342.529 254.4 341.829L324.4 299.229C327.6 297.229 328.7 292.929 326.8 289.629Z" fill="#283947"/>
<path d="M283.8 253.029C281.8 247.229 278.4 242.029 273.9 238.029L272.2 236.529L272.1 236.429C271.5 235.929 271 235.529 270.4 235.129L270.3 235.029C269.7 234.629 269.2 234.229 268.5 233.829C268.4 233.829 268.4 233.729 268.3 233.729C267.7 233.329 267.1 233.029 266.5 232.729C266.4 232.729 266.4 232.629 266.3 232.629C265.7 232.329 265.1 232.029 264.4 231.729C264.3 231.729 264.3 231.629 264.2 231.629C263.6 231.429 263.1 231.129 262.5 230.929C261 230.329 259.3 229.829 257.7 229.529C256.5 231.929 254.7 234.129 252.8 235.929C255.8 236.129 258.6 236.929 261.2 237.929C262.7 238.629 264.3 239.429 265.6 240.229C265.7 240.229 265.8 240.329 265.8 240.329C266.2 240.529 266.5 240.829 266.9 241.129C267.1 241.229 267.2 241.329 267.4 241.529C267.7 241.729 268.1 242.029 268.4 242.329C268.6 242.529 268.8 242.629 269 242.829C269.3 243.129 269.6 243.329 269.9 243.629L270.5 244.229L271.3 245.029L271.9 245.629C272.1 245.929 272.4 246.229 272.6 246.429C272.8 246.629 273 246.929 273.2 247.129L273.8 248.029C274 248.329 274.2 248.529 274.3 248.829L274.9 249.729C275.1 250.029 275.2 250.329 275.4 250.529C275.6 250.829 275.7 251.129 275.9 251.429C276.1 251.729 276.2 252.029 276.4 252.329C276.5 252.629 276.7 252.929 276.8 253.229C277 253.629 277.1 254.029 277.3 254.329C278.1 256.229 278.6 258.329 278.9 260.529L279.8 263.929C280.2 265.429 283.6 277.829 291.6 282.029C300.8 286.929 312.9 292.929 317.7 295.229L254.8 333.529V307.229C254.8 303.029 262.9 298.229 266.6 296.529L266.8 296.429C267.6 296.029 268.3 295.629 269.1 295.129L269.4 294.929C271 293.929 272.6 292.829 274 291.529C274.1 291.429 274.3 291.329 274.4 291.129C274.6 291.029 274.7 290.829 274.9 290.729C275.4 290.329 275.8 289.829 276.2 289.429L276.4 289.229C276.9 288.729 277.4 288.229 277.7 287.629C277.8 287.429 278 287.329 278.1 287.129C278.5 286.729 278.8 286.229 279.2 285.729C279.3 285.629 279.4 285.429 279.5 285.329L280.6 283.529C280.6 283.429 280.7 283.429 280.7 283.329C281.2 282.529 281.7 281.629 282.1 280.929C280.2 278.629 278.8 276.029 277.6 273.729C277.1 275.229 276.5 276.629 275.8 277.929C275.5 278.529 275.1 279.129 274.8 279.729C274.7 279.829 274.7 279.929 274.6 279.929C274.3 280.429 273.9 280.929 273.6 281.329C273.5 281.429 273.4 281.629 273.3 281.729C273 282.229 272.6 282.629 272.2 283.029C272.1 283.129 272.1 283.229 272 283.229C269.7 285.829 266.9 288.129 263.8 289.629L263.2 289.929C261.6 290.629 247.5 297.129 247.5 306.929V333.429L184.5 295.229C188.6 292.729 200.4 285.529 210.2 282.429C214 281.129 222.1 286.429 226.7 290.229L227 290.529C227.6 291.129 228.2 291.729 228.9 292.229L229.1 292.429C230.5 293.629 232.1 294.729 233.8 295.629L234.9 296.229C235 296.229 235.1 296.329 235.1 296.329C236.2 296.929 237.2 297.429 238.3 297.929C238.5 298.029 238.6 298.029 238.8 298.129C238.9 298.129 239 298.229 239.2 298.229C240.8 298.829 242.4 299.329 244.1 299.729C245.3 297.329 247.2 295.129 249.1 293.329C246.3 293.129 243.8 292.529 241.3 291.529C241.2 291.429 241 291.429 240.9 291.329C240.6 291.229 240.3 291.129 240 290.929C239.9 290.829 239.7 290.829 239.6 290.729C239.3 290.629 239 290.429 238.8 290.329C236.9 289.329 235.2 288.329 233.5 286.929L231 284.629C230.9 284.529 227.8 281.729 223.6 279.229C217.4 275.629 212.1 274.429 208.1 275.729C199.8 278.429 190.3 283.629 184.6 287.029L247.5 171.829V222.329C247.5 224.129 244.9 228.729 236.2 232.729L235.6 233.029C234.7 233.429 234 233.929 233.1 234.429L232.9 234.529C231.3 235.529 229.7 236.629 228.2 237.929C227.2 238.729 226.4 239.629 225.6 240.429L225.5 240.529C224.6 241.429 223.9 242.329 223.2 243.229L223.1 243.329C222.7 243.829 222.4 244.329 222 244.829C222 244.929 221.9 244.929 221.9 245.029C221.6 245.529 221.3 245.929 221 246.429C221 246.529 220.9 246.529 220.9 246.629L220 248.129C219.9 248.229 219.9 248.329 219.8 248.529C219.5 249.029 219.3 249.529 219.1 249.929C219.1 250.029 219 250.129 219 250.129C218.8 250.629 218.6 251.029 218.4 251.529C218.3 251.729 218.3 251.829 218.2 252.029L217.6 253.529C217.5 253.729 217.5 253.829 217.4 254.029C217.3 254.429 217.2 254.729 217 255.129C216.9 255.329 216.9 255.529 216.8 255.729C216.7 256.229 216.5 256.729 216.4 257.129C216.3 257.329 216.3 257.629 216.2 257.829C216.1 258.129 216.1 258.529 216 258.829C215.9 259.129 215.9 259.429 215.8 259.729C215.7 260.129 215.7 260.529 215.6 260.929C215.6 261.229 215.5 261.429 215.5 261.729C215.5 262.129 215.4 262.429 215.4 262.829C215.4 263.229 215.4 263.529 215.3 263.929V265.429C215.3 267.229 215.4 269.029 215.7 270.729C218.2 271.329 220.8 272.429 223.5 273.729C222.7 271.229 222.4 268.529 222.3 265.829V264.429C222.3 263.729 222.3 263.129 222.4 262.529V262.029C222.4 261.429 222.5 260.929 222.6 260.329V260.129C222.7 259.529 222.8 258.929 222.9 258.329C222.9 258.129 223 258.029 223 257.829C223.1 257.329 223.3 256.829 223.4 256.329C223.4 256.229 223.5 256.129 223.5 256.029L224.1 254.229C224.2 254.129 224.2 253.929 224.3 253.829C224.5 253.329 224.7 252.829 224.9 252.429C225 252.329 225 252.229 225.1 252.029C225.4 251.429 225.6 250.929 226 250.429C226.1 250.329 226.1 250.229 226.2 250.129C226.5 249.629 226.7 249.229 227 248.729C227.1 248.629 227.1 248.529 227.2 248.429C227.5 247.929 227.9 247.429 228.3 246.929C228.3 246.929 228.3 246.829 228.4 246.829C228.8 246.329 229.1 245.929 229.4 245.429C229.5 245.329 229.5 245.229 229.6 245.129C231.3 243.229 233.2 241.529 235.4 240.029L238.4 238.529C240 237.829 254 231.129 254 221.329V171.129L317.5 287.229C311.9 284.429 301.8 279.329 294.1 275.229C289.6 272.929 286.7 264.629 285.8 261.629L284.9 258.129C284.9 256.729 284.4 254.929 283.8 253.029ZM326.8 289.629L256.8 161.729C255.6 159.429 253.3 158.029 250.7 158.029C248.1 158.029 245.8 159.429 244.6 161.729L174.6 289.629C172.8 292.929 173.8 297.229 177.1 299.129L247.2 341.829C248.3 342.529 249.6 342.829 250.8 342.829C252 342.829 253.3 342.529 254.4 341.829L324.4 299.229C327.6 297.229 328.7 292.929 326.8 289.629Z" stroke="#283947"/>
</g>
<defs>
<linearGradient id="paint0_linear_1_1923" x1="179.523" y1="27.8" x2="257.917" y2="462.438" gradientUnits="userSpaceOnUse">
<stop stop-color="#27D3A2"/>
<stop offset="1" stop-color="#9388FD"/>
</linearGradient>
<clipPath id="clip0_1_1923">
<rect width="500" height="500" fill="white" transform="translate(0 0.429688)"/>
</clipPath>
</defs>
</svg>
