<svg width="500" height="501" viewBox="0 0 500 501" fill="none" xmlns="http://www.w3.org/2000/svg">
<path d="M408 93.9301C370.1 63.3301 324.9 45.8301 278.2 45.8301C227.1 45.8301 177.6 64.8301 139.6 101.23C101.6 137.63 79.8004 184.43 76.9004 236.93V242.73H100.2V238.33C106 145.03 184.8 72.0301 278.1 72.0301C320.4 72.0301 359.8 86.6301 391.9 112.83L393.4 114.33L410.9 96.8301L408 93.9301Z" fill="#439DFC"/>
<path d="M384.7 325.83C359.9 359.33 320.5 379.83 278.2 379.83C205.3 379.83 146.9 321.53 146.9 248.53C146.9 177.03 205.2 118.73 278.2 118.73C320.5 118.73 359.9 139.13 384.7 172.73L386.2 175.63L403.7 158.13L402.2 156.63C373 117.33 326.3 95.4299 278.2 95.4299C192.1 93.9299 123.6 164.03 123.6 248.63C123.6 334.73 193.6 403.23 278.2 403.23C326.3 403.23 373 379.93 402.2 341.93L403.7 340.43L386.2 322.93L384.7 325.83Z" fill="#439DFC"/>
<path d="M435.7 123.129C431.3 118.729 428.4 112.929 424 108.529L422.5 107.029L405 124.529L406.5 126.029C410.9 130.429 415.3 134.829 418.2 140.629L419.7 143.529L437.2 126.029L435.7 123.129Z" fill="#439DFC"/>
<path d="M391.9 385.63L390.4 387.13C358.3 413.43 318.9 427.93 276.6 427.93C183.3 427.93 104.5 355.03 98.7004 261.63V255.83H75.4004V261.63C78.3004 312.73 101.7 360.83 138.1 397.23C176 432.23 225.6 452.63 276.7 452.63C324.8 452.63 370 435.13 406.5 404.53L408 403.03L391.9 385.63Z" fill="#439DFC"/>
<path d="M419.7 356.529L418.2 359.429C415.3 363.829 410.9 368.229 406.5 374.029L405 375.529L422.5 393.029L424 391.529C428.4 387.129 432.8 381.329 435.7 376.929L437.2 375.429L419.7 356.529Z" fill="#439DFC"/>
<path d="M450.3 391.529C408 442.629 345.3 473.229 278.2 473.229C154.2 473.229 55.0002 372.529 55.0002 248.529C55.0002 124.529 154.2 25.4293 278.2 25.4293C345.3 25.4293 408 54.6293 450.3 107.129L451.8 110.029L469.3 92.5293L467.8 91.0293C421.1 34.1293 351.1 2.0293 278.2 2.0293C141.1 2.0293 30.2002 112.929 30.2002 250.029C30.2002 387.129 141.1 498.029 278.2 498.029C351.1 498.029 421.1 465.929 467.8 409.029L469.3 407.529L451.8 390.029L450.3 391.529Z" fill="#439DFC"/>
</svg>
