<svg width="500" height="501" viewBox="0 0 500 501" fill="none" xmlns="http://www.w3.org/2000/svg">
<path d="M249.399 494.448C113.793 494.472 4.05102 384.989 4.00002 249.63C3.94902 114.306 113.733 4.48114 249.124 4.41214C384.404 4.34314 494.16 114.282 494.033 249.729C493.907 384.982 384.503 494.424 249.399 494.448ZM239.396 134.083C236.548 134.713 233.982 135.294 231.409 135.847C204.838 141.559 182.65 154.576 167.25 177.136C141.957 214.189 138.852 254.019 155.276 295.407C167.23 325.533 188.437 346.644 218.999 357.886C225.8 360.388 232.955 361.927 240.12 363.958C240.248 364.925 240.594 365.898 240.462 366.802C239.03 376.659 237.992 386.607 235.905 396.327C233.809 406.09 230.676 415.654 224.076 423.552C216.253 432.913 205.211 434.033 194.747 426.408C195.822 425.147 196.954 423.942 197.948 422.632C202.889 416.121 202.859 407.169 197.917 400.933C193.002 394.732 184.827 392.614 177.523 395.65C169.953 398.797 165.418 406.23 167.093 414.491C168.032 419.123 169.862 423.938 172.552 427.788C184.001 444.175 204.07 449.701 223.22 442.255C240.225 435.643 251.825 423.287 260 407.378C266.746 394.25 270.645 380.268 271.864 365.198C274.693 364.74 277.315 364.325 279.934 363.891C305.232 359.698 327.218 349.158 344.678 330.008C347.964 326.404 351.096 322.65 351.53 317.579C347.582 310.043 343.496 308.979 337.131 313.784C335.58 314.955 334.251 316.419 332.71 317.605C327.117 321.909 321.682 326.46 315.814 330.355C302.638 339.101 287.769 343.305 272.419 346.303C270.99 338.95 269.935 156.562 271.239 152.444C291.034 154.394 306.267 163.322 315.601 181.343C318.512 186.963 321.076 192.774 324.203 198.267C327.138 203.422 331.323 204.958 335.772 203.219C339.567 201.736 340.627 198.693 340.03 192.733C339.404 186.48 338.34 180.114 338.925 173.936C339.738 165.358 336.408 159.562 329.978 154.515C317.18 144.471 302.397 139.214 286.765 135.897C281.578 134.796 276.305 134.105 270.709 133.166C272.039 115.695 273.946 98.7801 280.861 83.0061C283.144 77.7971 286.7 72.7711 290.787 68.8111C297.877 61.9431 308.743 62.5351 316.495 69.2221C315.147 70.9311 313.634 72.5381 312.481 74.3721C308.955 79.9811 308.679 85.8561 311.727 91.7391C315.752 99.5071 324.704 103.067 332.859 100.294C341.04 97.5121 345.737 89.5461 344.447 80.6411C342.211 65.1911 325 50.6891 307.988 49.9021C292.395 49.1811 279.569 55.6491 268.289 65.6121C258.02 74.6821 251.38 86.2861 246.615 98.9901C242.415 110.183 239.715 121.731 239.396 134.083Z" fill="#111111"/>
<path d="M239.396 134.083C239.715 121.731 242.415 110.183 246.614 98.9904C251.38 86.2864 258.019 74.6824 268.288 65.6124C279.568 55.6494 292.395 49.1814 307.987 49.9024C324.999 50.6894 342.21 65.1914 344.448 80.6434C345.738 89.5484 341.041 97.5144 332.86 100.296C324.705 103.069 315.753 99.5094 311.728 91.7414C308.68 85.8584 308.956 79.9834 312.482 74.3744C313.635 72.5404 315.148 70.9334 316.496 69.2244C308.744 62.5384 297.878 61.9454 290.788 68.8134C286.7 72.7724 283.145 77.7994 280.862 83.0084C273.948 98.7824 272.04 115.697 270.71 133.168C276.306 134.107 281.579 134.798 286.766 135.899C302.397 139.216 317.181 144.473 329.979 154.517C336.41 159.564 339.739 165.36 338.926 173.938C338.341 180.116 339.405 186.482 340.031 192.735C340.628 198.695 339.568 201.738 335.773 203.221C331.324 204.96 327.139 203.425 324.204 198.269C321.077 192.776 318.513 186.965 315.602 181.345C306.269 163.323 291.035 154.396 271.24 152.446C269.935 156.564 270.991 338.952 272.42 346.305C287.77 343.307 302.639 339.103 315.815 330.357C321.683 326.462 327.118 321.911 332.711 317.607C334.252 316.421 335.581 314.957 337.132 313.786C343.497 308.98 347.583 310.045 351.531 317.581C351.097 322.652 347.965 326.406 344.679 330.01C327.219 349.16 305.232 359.7 279.935 363.893C277.316 364.327 274.694 364.742 271.865 365.2C270.646 380.271 266.747 394.252 260.001 407.38C251.826 423.288 240.226 435.645 223.221 442.257C204.071 449.703 184.003 444.178 172.553 427.79C169.863 423.939 168.033 419.125 167.094 414.493C165.419 406.231 169.954 398.799 177.524 395.652C184.828 392.616 193.003 394.734 197.918 400.935C202.86 407.171 202.89 416.123 197.949 422.634C196.955 423.944 195.823 425.149 194.748 426.41C205.212 434.035 216.254 432.915 224.077 423.554C230.677 415.656 233.81 406.092 235.906 396.329C237.993 386.609 239.031 376.661 240.463 366.804C240.594 365.9 240.249 364.927 240.121 363.96C232.956 361.929 225.801 360.389 219 357.888C188.438 346.646 167.232 325.535 155.277 295.409C138.853 254.02 141.957 214.191 167.251 177.138C182.651 154.578 204.839 141.561 231.41 135.849C233.981 135.293 236.548 134.712 239.396 134.083ZM239.729 153.679C234.829 155.449 230.881 156.542 227.222 158.253C208.928 166.806 197.507 181.716 190.598 200.049C179.375 229.828 179.703 260.233 188.366 290.498C193.232 307.499 202.689 321.926 217.007 332.739C224.003 338.023 231.604 342.158 241.411 344.116C241.411 339.253 241.478 334.927 241.4 330.603C240.859 300.656 240.099 270.712 239.784 240.763C239.51 214.692 239.728 188.617 239.729 162.543C239.729 159.939 239.729 157.334 239.729 153.679Z" fill="white"/>
<path d="M239.729 153.68C239.729 157.335 239.729 159.94 239.729 162.544C239.728 188.617 239.51 214.693 239.784 240.764C240.099 270.713 240.859 300.657 241.4 330.604C241.478 334.928 241.411 339.254 241.411 344.117C231.604 342.159 224.003 338.023 217.007 332.74C202.689 321.927 193.232 307.5 188.366 290.499C179.703 260.234 179.375 229.829 190.598 200.05C197.507 181.717 208.928 166.807 227.222 158.254C230.881 156.543 234.829 155.45 239.729 153.68Z" fill="#111111"/>
</svg>
