<svg width="500" height="501" viewBox="0 0 500 501" fill="none" xmlns="http://www.w3.org/2000/svg">
<g clip-path="url(#clip0_1_4995)">
<path d="M250 500.23C388.016 500.23 499.9 388.346 499.9 250.33C499.9 112.314 388.016 0.429688 250 0.429688C111.984 0.429688 0.100098 112.314 0.100098 250.33C0.100098 388.346 111.984 500.23 250 500.23Z" fill="#EDF0F2"/>
<path d="M408.7 443.53C370.5 474.93 323.9 494.23 274.7 499.13C208.7 505.63 142.9 485.73 91.5999 443.73C40.2999 401.73 7.89995 341.03 1.29995 275.03C-3.60005 225.83 6.19995 176.33 29.4999 132.73C52.7999 89.0305 88.5 53.3304 132 30.0304C175.6 6.73045 225.2 -3.16955 274.4 1.63045C323.6 6.43045 370.3 25.7305 408.5 57.1305L358 118.53C331.9 97.1304 300.1 84.0305 266.6 80.7305C233.1 77.4305 199.3 84.2304 169.6 100.13C139.9 116.03 115.6 140.43 99.6999 170.13C83.7999 199.83 77.0999 233.63 80.4999 267.13C84.9999 312.13 107.1 353.43 142.1 382.13C177.1 410.83 222 424.33 266.9 419.93C300.4 416.63 332.2 403.43 358.3 382.03L408.7 443.53Z" fill="url(#paint0_linear_1_4995)"/>
<path d="M250 470.23C371.4 470.23 469.9 371.83 469.9 250.33C469.9 128.93 371.5 30.4297 250 30.4297C128.6 30.4297 30.1001 128.83 30.1001 250.33C30.1001 371.83 128.6 470.23 250 470.23Z" fill="white"/>
<path d="M247.2 344.129L152.3 247.029L246.5 281.329L340.7 247.029L247.2 344.129Z" fill="#657786"/>
<path fill-rule="evenodd" clip-rule="evenodd" d="M152.3 247.03L246.5 152.83L340.7 247.03L246.5 281.33L152.3 247.03ZM179.3 247.73H220.2L247.2 220.73L274.2 247.73H314.4L247.2 180.53L179.3 247.73Z" fill="#283947"/>
</g>
<defs>
<linearGradient id="paint0_linear_1_4995" x1="179.541" y1="27.9039" x2="257.917" y2="462.441" gradientUnits="userSpaceOnUse">
<stop stop-color="#27D3A2"/>
<stop offset="1" stop-color="#9388FD"/>
</linearGradient>
<clipPath id="clip0_1_4995">
<rect width="500" height="500" fill="white" transform="translate(0 0.429688)"/>
</clipPath>
</defs>
</svg>
