<svg width="500" height="501" viewBox="0 0 500 501" fill="none" xmlns="http://www.w3.org/2000/svg">
<path d="M281.5 159.129C281.5 159.129 301 191.029 316.7 207.629C332.4 224.229 358.5 251.129 358.5 276.829C358.5 302.529 336.5 310.829 323.7 310.829C302.7 310.829 289.7 294.629 289.7 294.629C289.7 294.629 286.1 310.029 294.8 324.129C303.5 338.229 310.4 344.029 310.4 344.029H253.6C253.6 344.029 261.2 337.329 268.2 325.329C275.2 313.329 273.9 294.829 273.9 294.829C273.9 294.829 265.6 311.329 240.3 311.329C215 311.329 204 293.429 204 276.029C204 256.629 223.8 232.829 248.7 205.629C273.9 178.129 281.5 159.129 281.5 159.129Z" fill="#BD0A08"/>
<path d="M281.8 399.829C199.3 399.829 132.4 332.929 132.4 250.429C132.4 167.929 199.3 101.029 281.8 101.029C318.7 101.029 352.4 114.429 378.5 136.529L469.3 83.6293C466 79.9293 462.7 76.4293 459.2 72.9293C436.2 49.9293 409.4 31.8293 379.5 19.2293C364.1 12.7293 348.2 7.8293 332 4.5293V52.6293C332 62.1293 303.5 66.5293 294 66.5293H270C260.5 66.5293 231.3 62.1293 231.3 52.6293V4.6293C215.2 7.9293 199.4 12.8293 184.1 19.3293C154.2 31.9293 127.4 50.0293 104.4 73.0293C100.8 76.6293 97.1999 80.4293 93.7999 84.2293L134.2 107.929C142.4 112.729 131.8 139.529 127 147.729L114.9 168.429C110.1 176.629 91.4999 199.629 83.2999 194.829L43.5999 171.529C35.1999 196.929 30.8999 223.329 30.8999 250.429C30.8999 277.729 35.1999 304.529 43.7999 330.129L82.9999 306.529C91.0999 301.629 109.6 323.729 114.5 331.829L126.9 352.429C131.8 360.529 143.1 387.829 135 392.729L94.3999 417.229C97.5999 420.829 101 424.429 104.4 427.829C127.4 450.829 154.2 468.929 184.1 481.529C199.2 487.929 214.8 492.729 230.7 496.029V448.729C230.7 439.229 259.9 434.829 269.4 434.829H293.4C302.9 434.829 331.4 439.229 331.4 448.729V496.429C347.8 493.129 363.9 488.129 379.5 481.529C409.4 468.929 436.2 450.829 459.2 427.829C462.4 424.629 465.6 421.229 468.6 417.829L377.4 365.129C351.6 386.829 318.2 399.829 281.8 399.829Z" fill="#BD0A08"/>
</svg>
