<svg width="500" height="501" viewBox="0 0 500 501" fill="none" xmlns="http://www.w3.org/2000/svg">
<path d="M441.8 386.03C429.9 386.03 419.9 394.33 417.3 405.83L322.9 401.33C323.3 399.53 323.4 397.73 323.4 395.93C323.4 392.73 322.9 389.43 322 386.23L356.4 366.43C364.9 376.83 380.1 379.03 391.1 371.13C402.1 363.23 405 348.13 397.6 336.73C390.2 325.43 375.3 321.83 363.6 328.43C351.9 335.13 347.4 349.83 353.5 361.93L320.2 381.13C312.3 364.43 292.7 356.83 275.6 363.83C258.5 370.83 249.9 390.13 256 407.53L194.1 422.43C193.7 413.93 190.1 406.03 184.2 399.93L195.4 384.43C208 388.73 221.8 382.43 226.9 370.03C231.9 357.63 226.4 343.43 214.3 337.83C202.2 332.03 187.7 336.93 181.4 348.63C175.1 360.33 179.1 375.03 190.4 382.13L180 396.53C172.8 391.13 163.6 388.83 154.6 389.83L144 329.23C157.3 326.33 167.6 315.93 170.4 302.83C173.3 289.53 168.2 275.83 157.4 267.73C146.6 259.43 132 258.33 120.2 264.63L93.3999 212.33C99.1999 209.43 103.8 204.93 107.3 199.53L129.6 205.43C129.4 206.73 129.2 207.73 129.2 209.03C129.2 222.03 139.1 232.93 152 234.23C165 235.53 176.8 226.63 179.2 213.73C181.6 200.83 173.8 188.33 161.2 184.93C148.6 181.33 135.5 188.03 130.8 200.23L109.8 194.63C112.7 187.83 113.2 180.23 111.4 173.03L173.5 144.43C185 158.83 205.9 161.83 221 151.13C236.1 140.43 240.1 119.63 230 104.23L269.6 65.5303C274.5 68.6303 280 70.5303 285.6 70.9303V88.0303C272.5 89.4303 262.6 101.03 263.3 114.33C264 127.63 275 138.03 288.3 138.03C301.6 138.03 312.6 127.63 313.3 114.33C314 101.03 304.3 89.5303 291 88.0303V70.9303C296 70.5303 300.7 69.1303 305 66.8303L348.4 116.33C338.3 129.63 339 148.13 350 160.53C361.2 172.93 379.5 175.83 393.9 167.23C408.3 158.63 414.4 141.13 408.8 125.53L422.3 117.93C430.9 128.03 445.9 129.83 456.5 121.73C467.1 113.83 469.6 98.9303 462.3 87.9303C455 76.9303 440.2 73.5303 428.8 80.3303C417.5 87.1303 413.3 101.53 419.4 113.43L406.6 120.63C401.4 111.13 392 104.63 381.4 103.03C370.8 101.43 359.8 104.83 352.1 112.43L309.6 64.0303C313.7 60.8303 317.2 56.4303 319.5 51.8303L356.7 57.9303C359.6 70.9303 372.2 79.3303 385.1 77.0303C398.2 74.8303 407.2 62.8303 405.8 49.7303C404.4 36.6303 392.8 26.7303 379.7 27.4303C366.4 28.1303 356.1 38.9303 356 52.2303L321.5 46.4303C326.4 29.9303 318.4 12.2303 302.8 4.83029C287.2 -2.56972 268.6 2.83028 259.1 17.2303C249.6 31.6303 252.1 50.8303 265 62.3303L226.5 99.9303C220.6 93.1303 212.1 88.7303 203.1 88.0303V61.7303C216.2 60.3303 226.1 48.7303 225.4 35.4303C224.7 22.1303 213.9 11.8303 200.6 11.8303C187.3 11.8303 176.3 22.2303 175.6 35.5303C174.9 48.8303 184.6 60.3303 197.9 61.8303V87.9303C186 88.8303 175.4 95.8303 169.8 106.23C164.2 116.83 164.4 129.43 170.3 139.83L109.9 167.53C107.7 162.33 104.3 157.83 99.9999 154.23L123.6 111.73C125.8 112.23 127.7 112.63 129.9 112.63C142.7 112.63 153.3 103.13 154.9 90.5303C156.5 77.9303 148.2 66.2303 136 63.2303C123.6 60.1303 111 66.8303 106.5 78.7303C102 90.6303 107.2 103.93 118.4 109.83L95.5999 151.23C81.6999 142.93 64.2999 145.33 52.9999 156.83C41.7999 168.33 39.8999 185.83 48.2999 199.43C56.7999 213.13 73.2999 219.23 88.5999 214.33L115.8 267.43C109 272.43 104.1 280.03 102.5 288.33L82.6999 282.53C83.1999 280.53 83.3999 278.43 83.3999 276.43C83.3999 263.63 73.8999 253.03 61.2999 251.63C48.6999 250.23 36.9999 258.33 33.9999 270.73C30.8999 283.13 37.7999 295.73 49.7999 300.03C61.6999 304.33 74.9999 299.13 80.6999 287.83L101.7 293.93C101.7 294.43 101.7 295.03 101.7 295.53C101.7 307.43 107.6 318.33 117.7 324.63L104.2 342.23C94.2999 333.43 79.1999 333.93 69.7999 343.53C60.3999 353.13 60.0999 368.03 69.0999 377.93C78.0999 387.83 92.9999 388.93 103.5 380.43C113.9 371.93 115.7 357.03 108 346.23L122.6 327.13C126.9 329.13 131.8 330.03 136.6 330.03C137.3 330.03 138 330.03 138.8 329.83L149.6 390.83C135.2 395.13 125.1 408.23 124.6 423.23C124.2 438.33 133.6 451.83 147.8 456.83C162 461.83 177.8 457.23 187 445.13L237.4 467.63C237 469.43 236.7 471.43 236.7 473.23C236.7 486.03 246.2 496.83 259 498.23C271.8 499.63 283.5 491.43 286.3 479.03C289.2 466.63 282.2 454.03 270.1 449.73C258 445.43 244.7 451.03 239.2 462.53L190.1 440.63C192.3 436.63 193.7 432.33 194.1 427.83L258.1 412.23C263 421.23 271.6 427.53 281.7 429.63C291.8 431.63 302.2 429.13 310.1 422.83L334 443.43C328.4 455.63 333.3 470.03 345.2 476.13C357.1 482.43 371.6 478.33 378.5 466.73C385.3 455.23 382.1 440.43 371.1 432.93C359.9 425.33 345 427.93 336.9 438.53L314 418.93C317.4 415.33 319.9 410.83 321.6 406.13L416.8 410.83C417 424.73 428.1 435.63 442 435.63C455.9 435.63 467 424.33 466.8 410.63C466.8 397.23 455.6 386.03 441.8 386.03Z" fill="#FC0A27"/>
</svg>
