<svg width="500" height="501" viewBox="0 0 500 501" fill="none" xmlns="http://www.w3.org/2000/svg">
<path d="M495.7 225.73H294.9C286.3 210.83 270.2 200.83 251.7 200.83C224.1 200.83 201.8 223.13 201.8 250.73C201.8 278.33 224.1 300.63 251.7 300.63C270.7 300.63 287.3 290.03 295.7 274.33H495.7V225.73Z" fill="#2D353F"/>
<path d="M422.6 350.029C388.2 409.329 324 449.329 250.7 449.329C141.2 449.329 52.1 360.229 52.1 250.729C52.1 141.229 141.2 52.1293 250.7 52.1293C324.1 52.1293 388.2 92.1293 422.6 151.429L463.3 127.629C420.7 54.4293 341.4 5.0293 250.7 5.0293C115.2 5.0293 5 115.229 5 250.729C5 386.229 115.2 496.429 250.7 496.429C341.8 496.429 421.5 446.629 463.9 372.729L422.6 350.029Z" fill="#2D353F"/>
</svg>
