<svg width="500" height="501" viewBox="0 0 500 501" fill="none" xmlns="http://www.w3.org/2000/svg">
<g clip-path="url(#clip0_1_5009)">
<path d="M251 490.529C384.101 490.529 492 382.63 492 249.529C492 116.429 384.101 8.5293 251 8.5293C117.899 8.5293 10 116.429 10 249.529C10 382.63 117.899 490.529 251 490.529Z" fill="black"/>
<path d="M249.9 500.529C112.3 500.529 -0.100006 389.129 -0.100006 250.529C-0.100006 111.929 112.3 0.529297 249.9 0.529297C387.5 0.529297 499.9 111.929 499.9 250.529C499.9 389.129 387.5 500.529 249.9 500.529ZM249.9 21.6293C123.4 21.6293 21 124.029 21 250.529C21 377.029 124.4 479.429 249.9 479.429C375.4 479.429 478.8 376.029 478.8 250.529C478.8 125.029 376.5 21.6293 249.9 21.6293Z" fill="white"/>
<path d="M446.7 309.729L399.5 182.229C398.5 178.229 394.5 174.229 390.5 174.229H315.2L270 55.7289C269 52.7289 266 48.7289 263 48.7289C260 47.7289 255 49.7289 254 51.7289L141.5 176.229H63.2C60.2 176.229 57.2 178.229 55.2 180.229C53.2 183.229 53.2 186.229 54.2 189.229L101.4 316.729C102.4 320.729 106.4 324.729 110.4 324.729H183.7L228.9 444.229C229.9 447.229 232.9 450.229 236.9 450.229C237.9 450.229 237.9 450.229 238.9 450.229C241.9 450.229 243.9 449.229 246.9 447.229L315.2 373.929L360.4 323.729H438.7C441.7 323.729 444.7 321.729 446.7 319.729C447.7 316.829 449.7 312.729 446.7 309.729ZM257 77.8289L297.2 182.229L255 229.429L237.9 182.229C236.9 178.229 232.9 174.229 228.9 174.229H170.7L257 77.8289ZM77.3 195.329H219.9L239 245.529L186.8 302.729H116.5L77.3 195.329ZM299.1 358.929L242.9 420.129L202.7 314.729L245.9 267.529L264 315.729C265 319.729 269 323.729 273 323.729H330.2L299.1 358.929ZM281.1 303.729L262 250.529L312.2 195.329H384.5L424.7 301.729H281.1V303.729Z" fill="white"/>
</g>
<defs>
<clipPath id="clip0_1_5009">
<rect width="500" height="500" fill="white" transform="translate(0 0.429688)"/>
</clipPath>
</defs>
</svg>
