<svg width="500" height="501" viewBox="0 0 500 501" fill="none" xmlns="http://www.w3.org/2000/svg">
<path d="M365 212.73V268.43L464.6 328.33V128.83L253.2 4.83008L42.7 127.73V371.83L251.1 495.93L431.4 389.93L242.8 281.43L275.5 262.43V74.4301L415.9 156.73V242.83L365 212.73ZM226.8 76.7301V234.43L91.4 312.83V155.73L226.8 76.7301ZM334.5 390.43L251.2 439.43L112.6 356.93L194.1 309.63L334.5 390.43Z" fill="black"/>
<path d="M226.8 76.7305V234.33L91.4 312.83V155.73L226.8 76.7305Z" fill="#1C9E93"/>
<path d="M334.5 390.429L251.2 439.429L112.6 356.829L194.1 309.629L334.5 390.429Z" fill="#EA595E"/>
</svg>
