<svg width="500" height="501" viewBox="0 0 500 501" fill="none" xmlns="http://www.w3.org/2000/svg">
<g clip-path="url(#clip0_1_5021)">
<path d="M250 500.23C388.016 500.23 499.9 388.346 499.9 250.33C499.9 112.314 388.016 0.429688 250 0.429688C111.984 0.429688 0.100098 112.314 0.100098 250.33C0.100098 388.346 111.984 500.23 250 500.23Z" fill="#EDF0F2"/>
<path d="M408.7 443.53C370.5 474.93 323.9 494.23 274.7 499.13C208.7 505.63 142.9 485.73 91.5999 443.73C40.2999 401.73 7.89995 341.03 1.29995 275.03C-3.60005 225.83 6.19995 176.33 29.4999 132.73C52.7999 89.0305 88.5 53.3304 132 30.0304C175.6 6.73045 225.2 -3.16955 274.4 1.63045C323.6 6.43045 370.3 25.7305 408.5 57.1305L358 118.53C331.9 97.1304 300.1 84.0305 266.6 80.7305C233.1 77.4305 199.3 84.2304 169.6 100.13C139.9 116.03 115.6 140.43 99.6999 170.13C83.7999 199.83 77.0999 233.63 80.4999 267.13C84.9999 312.13 107.1 353.43 142.1 382.13C177.1 410.83 222 424.33 266.9 419.93C300.4 416.63 332.2 403.43 358.3 382.03L408.7 443.53Z" fill="url(#paint0_linear_1_5021)"/>
<path d="M250 470.23C371.4 470.23 469.9 371.83 469.9 250.33C469.9 128.93 371.5 30.4297 250 30.4297C128.6 30.4297 30.1001 128.83 30.1001 250.33C30.1001 371.83 128.6 470.23 250 470.23Z" fill="white"/>
<path d="M284.9 267.63C284.9 248.53 273.1 242.13 250.3 239.03C233.4 236.63 230.2 232.73 230.2 225.03C230.2 217.33 235.9 212.43 246.8 212.43C256.8 212.43 262.5 215.83 264.8 223.73C265 224.63 265.6 225.33 266.3 225.93C267 226.43 267.9 226.73 268.8 226.83H277.5C278.1 226.83 278.6 226.73 279.2 226.53C279.7 226.33 280.2 225.93 280.6 225.53C281 225.13 281.2 224.63 281.4 224.03C281.6 223.53 281.6 222.93 281.5 222.33C278.7 209.93 270.2 202.43 256.8 200.03V186.93C256.8 185.83 256.4 184.83 255.6 184.03C254.8 183.23 253.8 182.83 252.7 182.83H244.4C243.3 182.83 242.2 183.23 241.5 184.03C240.7 184.83 240.3 185.83 240.3 186.93V199.63C223.7 201.93 213.2 212.73 213.2 226.53C213.2 244.43 224.3 251.33 247.5 254.43C263.3 256.93 267.8 260.33 267.8 269.13C267.8 277.93 260.2 283.83 249.4 283.83C234.9 283.83 230 277.63 228.4 269.53C228.2 268.63 227.7 267.73 227 267.13C226.3 266.53 225.3 266.23 224.4 266.13H214.9C214.3 266.13 213.8 266.23 213.3 266.43C212.8 266.63 212.3 267.03 212 267.43C211.6 267.83 211.4 268.33 211.2 268.93C211 269.43 211 270.03 211.1 270.53C213.5 284.13 222.4 294.13 240.5 296.53V309.43C240.5 310.53 240.9 311.53 241.7 312.33C242.5 313.13 243.5 313.53 244.6 313.53H252.9C254 313.53 255.1 313.13 255.8 312.33C256.6 311.53 257 310.53 257 309.43V296.53C274 293.93 284.9 282.23 284.9 267.63Z" fill="#283947"/>
<path d="M221.9 326.23C206.1 320.53 192.4 310.03 182.7 296.33C173 282.63 167.8 266.33 167.8 249.63C167.8 232.93 173 216.63 182.7 202.93C192.4 189.23 206.1 178.83 221.9 173.03C222.9 172.63 223.8 171.83 224.4 170.93C225 170.03 225.4 168.93 225.4 167.83V160.23C225.5 159.53 225.4 158.83 225.1 158.23C224.8 157.63 224.4 157.13 223.8 156.73C223.2 156.33 222.6 156.13 221.9 156.03C221.2 155.93 220.5 156.03 219.9 156.33C199.9 162.63 182.5 175.03 170.2 191.83C157.8 208.63 151.2 228.83 151.2 249.53C151.2 270.33 157.9 290.53 170.2 307.23C182.6 324.03 200 336.43 219.9 342.73C220.5 343.03 221.2 343.13 221.9 343.03C222.6 342.93 223.2 342.73 223.8 342.33C224.4 341.93 224.8 341.43 225.1 340.83C225.4 340.23 225.5 339.53 225.4 338.83V331.43C225.4 330.33 225 329.23 224.4 328.33C223.8 327.43 223 326.73 221.9 326.23Z" fill="#657786"/>
<path d="M278.5 156.529C277.9 156.229 277.2 156.129 276.5 156.229C275.8 156.329 275.2 156.529 274.6 156.929C274 157.329 273.6 157.829 273.3 158.429C273 159.029 272.9 159.729 273 160.429V168.029C273 169.129 273.4 170.229 274 171.129C274.6 172.029 275.5 172.729 276.5 173.229C292.3 178.929 306 189.429 315.7 203.129C325.4 216.829 330.6 233.129 330.6 249.829C330.6 266.529 325.4 282.829 315.7 296.529C306 310.229 292.3 320.629 276.5 326.429C275.4 326.829 274.5 327.529 273.9 328.429C273.3 329.329 272.9 330.429 272.9 331.529V339.129C272.8 339.829 272.9 340.529 273.2 341.129C273.5 341.729 273.9 342.229 274.5 342.629C275.1 343.029 275.7 343.229 276.4 343.329C277.1 343.429 277.8 343.329 278.4 343.029C298.4 336.729 315.8 324.329 328.1 307.529C340.5 290.729 347.1 270.529 347.1 249.829C347.1 229.029 340.4 208.829 328.1 192.129C315.9 175.229 298.5 162.829 278.5 156.529Z" fill="#657786"/>
</g>
<defs>
<linearGradient id="paint0_linear_1_5021" x1="179.541" y1="27.9039" x2="257.917" y2="462.441" gradientUnits="userSpaceOnUse">
<stop stop-color="#27D3A2"/>
<stop offset="1" stop-color="#9388FD"/>
</linearGradient>
<clipPath id="clip0_1_5021">
<rect width="500" height="500" fill="white" transform="translate(0 0.429688)"/>
</clipPath>
</defs>
</svg>
