<svg width="500" height="501" viewBox="0 0 500 501" fill="none" xmlns="http://www.w3.org/2000/svg">
<path d="M168.941 148.01H256.45L319.538 307.426L278.836 431.567L168.941 148.01Z" fill="url(#paint0_linear_1_5028)"/>
<path d="M319.538 307.427L383.983 125.625C383.983 125.625 398.229 84.9225 427.398 72.0335C456.568 59.1445 495.235 59.8225 495.235 59.8225L367.702 431.568H278.836L319.538 307.427Z" fill="#FFD431"/>
<path d="M129.596 148.01L156.731 218.56C156.731 218.56 81.4319 221.952 81.4319 293.18C81.4319 364.408 149.947 367.122 162.836 367.122C175.725 367.122 208.965 352.876 208.965 352.876L236.778 420.713C236.778 420.713 204.895 439.707 159.105 439.707C113.315 439.707 4.0979 418 4.0979 293.859C4.0979 169.718 115.35 150.723 129.596 148.01Z" fill="#00BDE7"/>
<defs>
<linearGradient id="paint0_linear_1_5028" x1="237.092" y1="148.715" x2="262.87" y2="433.628" gradientUnits="userSpaceOnUse">
<stop stop-color="#FFD431"/>
<stop offset="1" stop-color="#EDBB24"/>
</linearGradient>
</defs>
</svg>
