<svg width="500" height="501" viewBox="0 0 500 501" fill="none" xmlns="http://www.w3.org/2000/svg">
<path d="M489.81 198.449C469.253 198.449 448.736 198.449 427.735 198.449C408.247 141.385 371.308 100.232 314.372 78.5297C276.644 64.1487 238.124 63.8537 199.547 75.4337C121.242 98.9397 66.4288 176.318 70.6628 257.161C75.1828 343.473 135.565 414.014 217.928 430.209C304.639 447.259 398.264 396.775 427.79 302.511C448.356 302.511 469.024 302.511 489.706 302.511C471.172 398.612 376.752 499.863 241.503 494.254C113.229 488.935 10.7738 382.066 9.76881 252.316C8.76381 122.48 107.827 18.9027 229.754 7.52272C365.254 -5.12428 469.165 94.0347 489.81 198.449ZM310.595 202.647C303.23 178.777 280.347 161.876 254.308 161.694C227.952 161.509 204.528 178.228 197.02 202.16C190.385 223.308 196.236 250.229 231.808 269.732C231.808 292.545 231.808 315.657 231.808 338.709C246.792 338.709 261.234 338.709 275.988 338.709C275.988 315.284 275.988 292.322 275.988 269.54C310.168 250.919 317.264 224.262 310.595 202.647Z" fill="#20A549"/>
</svg>
