<svg width="500" height="501" viewBox="0 0 500 501" fill="none" xmlns="http://www.w3.org/2000/svg">
<g clip-path="url(#clip0_1_5034)">
<path d="M495.8 202.93L414.3 61.5297C413.1 59.4297 411.3 57.7297 409.2 56.4297L337.1 14.8297C335 13.6297 332.6 12.9297 330.2 12.9297L166.5 13.4297C164.1 13.4297 161.7 14.1297 159.6 15.3297L88.7999 56.6297C86.6999 57.8297 84.9999 59.5297 83.7999 61.6297L1.7999 202.63C0.599902 204.73 -0.100098 207.23 -0.100098 209.73L0.599902 293.43C0.599902 295.83 1.2999 298.23 2.4999 300.23L83.8999 440.43C85.0999 442.53 86.8999 444.33 89.0999 445.53L160.2 485.43C162.3 486.63 164.6 487.23 166.9 487.23L331 487.83C333.5 487.83 335.9 487.13 338 485.93L407.2 444.93C409.2 443.73 410.9 442.13 412 440.13L495.6 299.13C496.9 297.03 497.5 294.53 497.5 292.13V209.83C497.7 207.33 497 205.03 495.8 202.93ZM332.2 288.43L332.9 260.13L346.5 284.03L346.2 312.33L332.2 288.43ZM315.1 405.93L291.2 363.03L318.1 318.93L343.4 362.03L315.1 405.93ZM149.2 414.63L200.9 416.73L225.1 459.83L174.9 459.63L149.2 414.63ZM30.3999 293.23L56.0999 248.03L80.0999 292.93L54.9999 335.63L30.3999 293.23ZM104.2 279.33L79.9999 234.03L128.6 235.53L154.2 278.53L104.2 279.33ZM174.6 305.73L199 319.73L171.5 320.43L146.6 306.23L174.6 305.73ZM175.5 348.03L224.7 346.73L201.2 389.13L149.8 387.03L175.5 348.03ZM258.7 342.33L278.3 331.03L265.1 352.73L246.7 364.03L258.7 342.33ZM248.5 316.33L191.9 283.83L190.9 216.63L248.8 184.43L306.3 217.93L304.7 283.83L248.5 316.33ZM296.6 111.23L348.7 114.33L322.7 154.13L272.5 154.53L296.6 111.23ZM238.7 158.43L215 171.63L228.6 148.73L251.8 135.03L238.7 158.43ZM323.8 196.23L299.2 181.93L326.5 181.73L350.8 195.63L323.8 196.23ZM395.8 189.43L349.8 163.13L378 119.93L422.9 143.13L395.8 189.43ZM348.6 86.6297L297 83.6297L272.5 40.8297L322.3 40.7297L348.6 86.6297ZM270 92.0297L224.1 119.23L200.1 72.5297L243.8 46.1297L270 92.0297ZM180.7 95.2297L202.8 138.13L176.9 181.63L152.2 140.43L180.7 95.2297ZM163.1 212.53L163.5 240.33L150.3 218.13L150.1 190.83L163.1 212.53ZM122.3 153.93L122.7 207.73L69.9999 206.03L68.6999 153.43L122.3 153.93ZM101 312.03L148.4 339.03L120.3 381.73L74.2999 357.43L101 312.03ZM253.8 454.33L227.8 408.03L270.1 381.93L295.8 427.93L253.8 454.33ZM368.6 267.03L343.7 223.43L392.3 222.23L416 269.33L368.6 267.03ZM374 294.93L425.7 297.43L427.6 348.73L373.4 348.63L374 294.93ZM440.1 255.73L416.4 208.73L442 165.13L467.7 209.73L440.1 255.73ZM406.7 103.73L383.3 91.6297L367.7 64.4297L392.2 78.6297L406.7 103.73ZM170.3 41.0297L199 40.9297L178 53.6297L148 54.0297L170.3 41.0297ZM103.8 82.3297L156.6 81.6297L128.4 126.43L78.3999 126.03L103.8 82.3297ZM41.8999 188.73L42.5999 216.03L27.8999 241.93L27.6999 213.33L41.8999 188.73ZM90.9999 397.63L114.9 410.23L130.2 437.03L106 423.43L90.9999 397.63ZM327.3 460.23L296.6 460.13L318.1 446.63L350 446.73L327.3 460.23ZM392.4 419.23L339.5 419.03L367.1 376.23L417.8 376.33L392.4 419.23ZM454.1 315.23L453.1 287.83L470.1 259.53V288.23L454.1 315.23Z" fill="black"/>
</g>
<defs>
<clipPath id="clip0_1_5034">
<rect width="500" height="500" fill="white" transform="translate(0 0.429688)"/>
</clipPath>
</defs>
</svg>
