<svg width="500" height="501" viewBox="0 0 500 501" fill="none" xmlns="http://www.w3.org/2000/svg">
<path d="M440.291 190.833C469.928 190.982 494.211 213.326 497.085 243.091C499.888 272.121 478.202 299.103 447.895 304.295C421.037 308.896 388.265 350.837 391.11 377.45C391.507 381.165 394.034 384.677 395.688 388.23C407.266 413.116 401.001 441.359 380.175 458.027C359.231 474.788 329.598 474.803 308.659 458.061C287.732 441.33 281.96 413.449 292.726 388.144C295.73 381.083 297.651 371.145 295 364.571C288.437 348.3 279.699 332.736 270.343 317.825C264.76 308.927 255.817 304.785 243.992 304.221C217.81 302.972 197.675 284.073 192.174 258.545C187.258 235.729 198.258 211.133 218.941 198.697C239.87 186.112 267.108 188.513 285.473 204.561C304.566 221.245 309.907 246.735 300.587 271.019C298.132 277.417 297.168 285.459 298.596 292.083C303.791 316.188 317.143 335.493 336.44 350.843C343.427 356.401 349.261 356.315 356.101 350.27C375.437 333.183 387.727 312.184 391.47 286.734C392.241 281.493 389.467 275.395 387.307 270.11C371.644 231.77 399.046 190.626 440.291 190.833Z" fill="url(#paint0_linear_1_5036)"/>
<path d="M97.8452 408.645C98.5492 405.774 99.5192 398.31 102.196 391.518C112.139 366.294 92.0122 315.926 66.8592 304.762C63.8802 303.44 60.1422 303.701 56.7402 303.476C23.8112 301.291 1.07016 278.498 1.00016 247.545C0.93216 217.008 22.4812 195.324 55.2762 191.87C61.2152 191.244 68.8792 188.879 72.1782 184.579C83.7802 169.458 94.8232 153.699 104.102 137.079C109.958 126.59 108.703 114.997 103.498 102.916C90.5732 72.9181 106.031 39.8981 136.388 29.1871C165.932 18.7641 199.174 35.2811 207.934 64.7371C217.474 96.8151 199.848 127.657 167.319 135.809C133.973 144.165 106.544 176.96 104.685 211.083C104.478 214.88 105.199 219.055 106.669 222.561C113.532 238.931 113.913 254.985 107.077 271.609C104.982 276.703 104.631 283.361 105.798 288.806C111.311 314.534 125.122 335.406 146.37 350.72C152.033 354.802 159.962 356.105 167.067 357.758C195.987 364.485 215.57 391.973 211.626 420.831C207.573 450.488 179.952 473.17 150.976 470.637C120.407 467.963 97.6942 443.414 97.8452 408.645Z" fill="url(#paint1_linear_1_5036)"/>
<path d="M399.522 82.2079C399.35 113.528 374.831 137.949 343.882 137.626C312.88 137.302 289.089 112.767 289.164 81.1969C289.238 50.0059 313.846 25.5679 344.865 25.8799C375.982 26.1919 399.696 50.6309 399.522 82.2079Z" fill="#8B008B"/>
<defs>
<linearGradient id="paint0_linear_1_5036" x1="344.169" y1="284.66" x2="344.169" y2="366.514" gradientUnits="userSpaceOnUse">
<stop offset="0.000478316" stop-color="#8B008B"/>
<stop offset="1" stop-color="#4B0082"/>
</linearGradient>
<linearGradient id="paint1_linear_1_5036" x1="148.154" y1="252.275" x2="186.518" y2="331.562" gradientUnits="userSpaceOnUse">
<stop stop-color="#1E90FF"/>
<stop offset="1" stop-color="#4B0082"/>
</linearGradient>
</defs>
</svg>
