<svg width="500" height="501" viewBox="0 0 500 501" fill="none" xmlns="http://www.w3.org/2000/svg">
<g clip-path="url(#clip0_1_5040)">
<path d="M318.6 97.9297H283.8V150.43H318.6V97.9297Z" fill="#1682FE"/>
<path d="M218.5 0.429688H183.7V52.9297H218.5V0.429688Z" fill="#1682FE"/>
<path d="M118.5 50.4297H83.7002V102.93H118.5V50.4297Z" fill="#60D8A4"/>
<path d="M68.9002 250.43H33.7002V400.43H68.9002V250.43Z" fill="#F4BB3B"/>
<path d="M68.9002 100.43H33.7002V250.43H68.9002V100.43Z" fill="#60D8A4"/>
<path d="M368.5 147.93H333.7V200.43H368.5V147.93Z" fill="#1682FE"/>
<path d="M368.5 300.43H333.7V352.93H368.5V300.43Z" fill="#FF5A5A"/>
<path d="M318.5 350.43H283.7V402.93H318.5V350.43Z" fill="#FF5A5A"/>
<path d="M218.5 447.93H183.7V500.43H218.5V447.93Z" fill="#FF5A5A"/>
<path d="M118.5 397.93H83.7002V450.43H118.5V397.93Z" fill="#F4BB3B"/>
<path d="M466.3 200.43V100.43H416.3V50.4297H316.3V0.429688H216.3V50.4297H116.3V100.43H66.2998V400.43H116.3V450.43H216.3V500.43H316.3V450.43H416.3V400.43H466.3V300.43H366.3V350.43H316.3V400.43H216.3V350.43H166.3V150.43H216.3V100.43H316.3V150.43H366.3V200.43H466.3Z" fill="#3A3A3A"/>
</g>
<defs>
<clipPath id="clip0_1_5040">
<rect width="500" height="500" fill="white" transform="translate(0 0.429688)"/>
</clipPath>
</defs>
</svg>
