<svg width="500" height="501" viewBox="0 0 500 501" fill="none" xmlns="http://www.w3.org/2000/svg">
<g clip-path="url(#clip0_1_5052)">
<path d="M250 500.23C388.016 500.23 499.9 388.346 499.9 250.33C499.9 112.314 388.016 0.429688 250 0.429688C111.984 0.429688 0.0996094 112.314 0.0996094 250.33C0.0996094 388.346 111.984 500.23 250 500.23Z" fill="#EDF0F2"/>
<path d="M408.7 443.53C370.5 474.93 323.9 494.23 274.7 499.13C208.7 505.63 142.9 485.73 91.5999 443.73C40.2999 401.73 7.89995 341.03 1.29995 275.03C-3.60005 225.83 6.19995 176.33 29.4999 132.73C52.7999 89.0305 88.5 53.3304 132 30.0304C175.6 6.73045 225.2 -3.16955 274.4 1.63045C323.6 6.43045 370.3 25.7305 408.5 57.1305L358 118.53C331.9 97.1304 300.1 84.0305 266.6 80.7305C233.1 77.4305 199.3 84.2304 169.6 100.13C139.9 116.03 115.6 140.43 99.6999 170.13C83.7999 199.83 77.0999 233.63 80.4999 267.13C84.9999 312.13 107.1 353.43 142.1 382.13C177.1 410.83 222 424.33 266.9 419.93C300.4 416.63 332.2 403.43 358.3 382.03L408.7 443.53Z" fill="url(#paint0_linear_1_5052)"/>
<path d="M250 470.23C371.4 470.23 469.9 371.83 469.9 250.33C469.9 128.93 371.5 30.4297 250 30.4297C128.6 30.4297 30.0996 128.83 30.0996 250.33C30.0996 371.83 128.6 470.23 250 470.23Z" fill="white"/>
<path d="M250 365.73C313.6 365.73 365.2 314.13 365.2 250.53C365.2 186.93 313.6 135.33 250 135.33C186.4 135.33 134.8 186.93 134.8 250.53C134.8 314.13 186.4 365.73 250 365.73Z" fill="white"/>
<path d="M269.1 247.229C273.6 244.829 276.4 240.629 275.7 233.629C274.8 224.029 266.9 220.829 256.9 219.929V206.629H249.2V219.629C247.2 219.629 245.1 219.629 243 219.729V206.629H235.3V219.929C233.6 219.929 232 220.029 230.4 220.029H219.7V228.729C219.7 228.729 225.4 228.629 225.3 228.729C228.4 228.729 229.5 230.629 229.8 232.329V247.529V268.829C229.7 269.829 229.1 271.529 226.9 271.529C227 271.629 221.3 271.529 221.3 271.529L219.8 281.229H229.9C231.8 281.229 233.6 281.229 235.4 281.229V294.729H243.1V281.429C245.2 281.429 247.3 281.529 249.3 281.529V294.829H257V281.429C270 280.629 279.1 277.229 280.3 264.429C281.1 253.629 276.5 249.029 269.1 247.229ZM243.2 229.129C247.6 229.129 261.3 227.629 261.3 237.229C261.3 246.429 247.6 245.329 243.2 245.329V229.129ZM243.2 271.329V253.529C248.4 253.529 264.9 251.929 264.9 262.429C264.9 272.429 248.5 271.329 243.2 271.329Z" fill="#657786"/>
<path d="M250 326.33C291.863 326.33 325.8 292.394 325.8 250.53C325.8 208.667 291.863 174.73 250 174.73C208.137 174.73 174.2 208.667 174.2 250.53C174.2 292.394 208.137 326.33 250 326.33Z" stroke="#657786" stroke-width="6.2105"/>
<path d="M250 350.529C305.228 350.529 350 305.758 350 250.529C350 195.301 305.228 150.529 250 150.529C194.772 150.529 150 195.301 150 250.529C150 305.758 194.772 350.529 250 350.529Z" stroke="#283947" stroke-width="6.2105"/>
<path d="M306.5 312.63L280.5 287.03M210.1 217.73L187.8 195.93M193.8 312.63L219.8 287.03M290.1 217.73L312.2 195.93" stroke="white" stroke-width="4.6579"/>
</g>
<defs>
<linearGradient id="paint0_linear_1_5052" x1="179.541" y1="27.9039" x2="257.917" y2="462.441" gradientUnits="userSpaceOnUse">
<stop stop-color="#27D3A2"/>
<stop offset="1" stop-color="#9388FD"/>
</linearGradient>
<clipPath id="clip0_1_5052">
<rect width="500" height="500" fill="white" transform="translate(0 0.429688)"/>
</clipPath>
</defs>
</svg>
