<svg width="500" height="501" viewBox="0 0 500 501" fill="none" xmlns="http://www.w3.org/2000/svg">
<path fill-rule="evenodd" clip-rule="evenodd" d="M347 269.429L494.4 422.029C496.2 423.829 497.6 426.029 498.5 428.329C499.5 430.729 500 433.229 500 435.829C500 438.429 499.5 440.929 498.6 443.329C497.7 445.729 496.3 447.929 494.5 449.729L483.7 460.929C480.7 464.229 476.6 466.329 472.3 467.029C469.4 467.429 466.5 467.129 463.8 466.129C461.1 465.129 458.6 463.529 456.5 461.429L276.5 275.129C273.4 271.929 270.9 268.029 269.2 263.829C267.5 259.629 266.6 255.029 266.6 250.529C266.6 245.929 267.5 241.429 269.2 237.229C270.9 233.029 273.4 229.129 276.5 225.929L456.5 39.6289C458.3 37.8289 460.3 36.3289 462.6 35.4289C464.9 34.4289 467.3 33.9289 469.8 33.9289C472.3 33.9289 474.7 34.4289 477 35.4289C479.3 36.4289 481.4 37.8289 483.1 39.6289L494.2 51.3289C496 53.1289 497.3 55.3289 498.3 57.6289C499.3 60.0289 499.7 62.5288 499.7 65.1288C499.7 67.7288 499.2 70.2288 498.3 72.6288C497.3 75.0289 496 77.1289 494.2 78.9289L347 231.429C342.2 236.429 339.5 243.329 339.5 250.429C339.4 257.529 342.2 264.329 347 269.429ZM153 231.629L5.7 79.0289C3.9 77.2289 2.5 75.0289 1.5 72.7289C0.5 70.3289 0 67.8289 0 65.2289C0 62.6289 0.5 60.0289 1.4 57.7289C2.4 55.3289 3.8 53.1289 5.5 51.3289L16.3 40.1289C19.4 36.8289 23.4 34.7289 27.7 34.0289C30.6 33.6289 33.5 33.9289 36.2 34.9289C38.9 35.9289 41.4 37.5289 43.5 39.6289L223.4 225.929C226.5 229.129 229 233.029 230.7 237.229C232.4 241.429 233.3 246.029 233.3 250.529C233.3 255.129 232.4 259.629 230.7 263.829C229 268.029 226.5 271.929 223.4 275.129L43.6 461.329C41.8 463.129 39.8 464.629 37.5 465.529C35.2 466.529 32.7 467.029 30.3 467.029C27.8 467.029 25.4 466.529 23.1 465.529C20.8 464.529 18.7 463.129 17 461.329L5.7 449.829C3.9 448.029 2.6 445.829 1.6 443.429C0.6 441.029 0.2 438.529 0.2 435.929C0.2 433.329 0.7 430.829 1.6 428.429C2.6 426.029 3.9 423.929 5.7 422.029L153 269.529C157.8 264.529 160.5 257.629 160.5 250.529C160.5 243.529 157.8 236.729 153 231.629Z" fill="#231F20"/>
</svg>
