<svg width="500" height="501" viewBox="0 0 500 501" fill="none" xmlns="http://www.w3.org/2000/svg">
<g clip-path="url(#clip0_1_5063)">
<path d="M250 500.23C388.016 500.23 499.9 388.346 499.9 250.33C499.9 112.314 388.016 0.429688 250 0.429688C111.984 0.429688 0.0996094 112.314 0.0996094 250.33C0.0996094 388.346 111.984 500.23 250 500.23Z" fill="#EDF0F2"/>
<path d="M408.7 443.53C370.5 474.93 323.9 494.23 274.7 499.13C208.7 505.63 142.9 485.73 91.5999 443.73C40.2999 401.73 7.89995 341.03 1.29995 275.03C-3.60005 225.83 6.19995 176.33 29.4999 132.73C52.7999 89.0305 88.5 53.3304 132 30.0304C175.6 6.73045 225.2 -3.16955 274.4 1.63045C323.6 6.43045 370.3 25.7305 408.5 57.1305L358 118.53C331.9 97.1304 300.1 84.0305 266.6 80.7305C233.1 77.4305 199.3 84.2304 169.6 100.13C139.9 116.03 115.6 140.43 99.6999 170.13C83.7999 199.83 77.0999 233.63 80.4999 267.13C84.9999 312.13 107.1 353.43 142.1 382.13C177.1 410.83 222 424.33 266.9 419.93C300.4 416.63 332.2 403.43 358.3 382.03L408.7 443.53Z" fill="url(#paint0_linear_1_5063)"/>
<path d="M250 470.23C371.4 470.23 469.9 371.83 469.9 250.33C469.9 128.93 371.5 30.4297 250 30.4297C128.6 30.4297 30.0996 128.83 30.0996 250.33C30.0996 371.83 128.6 470.23 250 470.23Z" fill="white"/>
<path d="M195.6 274.43L209.6 259.73L192.1 235.93L170 204.33C162.1 217.83 157.6 233.53 157.6 250.33C157.6 278.13 170 303.03 189.4 319.83L217.6 299.73C208.1 293.63 200.3 284.83 195.6 274.43Z" fill="#283947"/>
<path d="M226.1 196.129L240.7 210.129L264.5 192.629L296.2 170.429C282.7 162.529 267 158.029 250.2 158.029C222.4 158.029 197.5 170.429 180.7 189.829L200.8 218.029C206.8 208.529 215.6 200.829 226.1 196.129Z" fill="#283947"/>
<path d="M290.4 241.23L307.9 265.03L330.1 296.73C338 283.23 342.5 267.53 342.5 250.73C342.5 222.93 330.1 198.03 310.7 181.23L282.5 201.33C292.1 207.33 299.8 216.13 304.6 226.63L290.4 241.23Z" fill="#283947"/>
<path d="M319.3 311.03L299.2 282.83C293.2 292.43 284.4 300.13 273.9 304.93L259.2 290.93L235.4 308.43L203.7 330.63C217.2 338.53 232.9 343.03 249.7 343.03C277.7 342.83 302.6 330.53 319.3 311.03Z" fill="#283947"/>
</g>
<defs>
<linearGradient id="paint0_linear_1_5063" x1="179.541" y1="27.9039" x2="257.917" y2="462.441" gradientUnits="userSpaceOnUse">
<stop stop-color="#27D3A2"/>
<stop offset="1" stop-color="#9388FD"/>
</linearGradient>
<clipPath id="clip0_1_5063">
<rect width="500" height="500" fill="white" transform="translate(0 0.429688)"/>
</clipPath>
</defs>
</svg>
