<svg width="500" height="501" viewBox="0 0 500 501" fill="none" xmlns="http://www.w3.org/2000/svg">
<path d="M128.486 281.944C131.843 283.056 135.474 283.659 139.303 283.666C148.228 283.684 157.152 283.635 166.077 283.577L165.24 260.203L128.486 281.944Z" fill="#9A3121"/>
<path d="M165.24 260.202L163.778 219.371C155.484 219.373 147.19 219.371 138.896 219.378C130.56 219.385 123.147 222.419 117.555 227.367L164.752 260.491L165.24 260.202Z" fill="#CC3F28"/>
<path d="M117.554 227.367C109.355 234.621 105.069 245.991 107.53 257.973C109.926 269.637 117.802 278.401 128.485 281.942L164.751 260.491L117.554 227.367Z" fill="#501C16"/>
<path d="M229.076 219.372C207.31 219.372 185.543 219.367 163.777 219.371L165.229 259.92L275.312 219.365C259.9 219.367 244.488 219.372 229.076 219.372Z" fill="#501C16"/>
<path d="M166.076 283.576C171.231 283.543 176.385 283.507 181.54 283.478L165.248 260.451L166.076 283.576Z" fill="#812A1D"/>
<path d="M350.382 246.163C348.466 231.217 334.782 219.396 319.257 219.381C304.609 219.366 289.961 219.364 275.313 219.365L165.23 259.92L165.249 260.451L181.541 283.478C186.591 283.449 191.642 283.427 196.692 283.422C237.133 283.379 277.574 283.429 318.014 283.367C320.904 283.363 323.862 283.057 326.67 282.393C342.808 278.578 352.606 263.511 350.382 246.163Z" fill="#E5462C"/>
<path d="M210.672 373.032C208.687 389.146 218.797 403.707 233.973 408.183C235.771 408.713 237.906 409.531 239.587 409.531C250.969 409.531 262.35 409.531 273.732 409.531L228.643 347.602C219.013 352.102 212.104 361.409 210.672 373.032Z" fill="#812A1D"/>
<path d="M33.1607 93.4004C29.1787 93.4004 20.2497 96.7074 15.0927 101.377C13.8547 102.498 12.7207 103.672 11.6807 104.896L30.3797 157.486C33.7867 158.015 37.2957 158.047 40.8057 158.012L82.1847 93.4004C65.8427 93.4004 49.5017 93.4004 33.1607 93.4004Z" fill="#501C16"/>
<path d="M4.56468 120.841C4.13968 124.104 4.22468 128.873 4.58768 130.857C7.00468 144.101 16.1697 154.8 29.2467 157.295C29.6227 157.367 30.0017 157.427 30.3797 157.486L11.6807 104.896C7.83768 109.421 5.36668 114.674 4.56468 120.841Z" fill="#9A3121"/>
<path d="M142.901 97.9534C138.928 95.7704 133.541 93.4004 129.883 93.4004C113.983 93.4004 98.0837 93.4004 82.1837 93.4004L40.8047 158.012C42.5387 157.995 44.2737 157.964 45.9947 157.968C72.0487 158.025 98.1027 158.014 124.157 157.965C127.171 157.959 130.244 157.871 133.188 157.298C146.065 154.791 156.351 144.281 158.264 131.943C160.493 117.564 154.832 104.509 142.901 97.9534Z" fill="#CC3F28"/>
<path d="M341.945 344.448C308.644 345.055 275.324 344.619 242.013 344.66C237.211 344.666 232.689 345.714 228.644 347.604L273.733 409.533C274.036 409.533 274.339 409.533 274.641 409.533C276.019 409.374 277.397 409.078 278.775 409.076C298.448 409.046 318.122 408.903 337.794 409.082C349.246 409.186 360.325 408.063 370.945 405.872L390.17 328.787C376.039 338.361 359.377 344.13 341.945 344.448Z" fill="#E5462C"/>
<path d="M363.35 95.6533C356.986 94.5883 350.518 94.1363 344.099 93.4023C341.124 93.4023 338.149 93.4023 335.175 93.4023L432.552 163.409L443.895 134.638C421.042 113.708 394.08 100.795 363.35 95.6533Z" fill="#371512"/>
<path d="M393.286 175.867C402.47 182.765 410.445 191.605 417.229 202.27L432.551 163.408L431.334 162.533L393.286 175.867Z" fill="#E5462C"/>
<path d="M335.175 93.4004C303.096 93.4004 271.017 93.4004 238.939 93.4004C229.597 93.4004 215.497 103.849 211.889 116.346C208.217 129.064 211.115 140.522 220.941 149.824C227.448 155.984 235.443 158.103 244.157 158.106C275.522 158.117 306.892 157.783 338.252 158.195C359.923 158.479 378.232 164.558 393.287 175.866L431.335 162.533L335.175 93.4004Z" fill="#66221D"/>
<path d="M446.45 136.99C445.608 136.186 444.748 135.419 443.895 134.637L432.453 163.656L492.657 222.355C486.645 188.977 471.107 160.538 446.45 136.99Z" fill="#E5462C"/>
<path d="M493.35 226.449C493.044 225.093 492.903 223.712 492.658 222.355L432.454 163.656L417.23 202.269C418.668 204.53 420.06 206.863 421.391 209.286C431.726 228.096 434.062 248.458 429.923 269.627C425.169 293.942 410.222 315.2 390.17 328.786L370.945 405.871C431.036 393.477 476.34 346.656 490.155 291.359C492.367 282.507 494.047 273.409 494.685 264.275C495.055 258.972 495.96 238.026 493.35 226.449Z" fill="#B33824"/>
</svg>
