<svg width="500" height="501" viewBox="0 0 500 501" fill="none" xmlns="http://www.w3.org/2000/svg">
<g clip-path="url(#clip0_1_5106)">
<path d="M250 500.43C388.071 500.43 500 388.501 500 250.43C500 112.359 388.071 0.429688 250 0.429688C111.929 0.429688 0 112.359 0 250.43C0 388.501 111.929 500.43 250 500.43Z" fill="url(#paint0_linear_1_5106)"/>
<path d="M398.7 209.629H369C352.4 164.629 309.2 132.529 258.4 132.529H155.3V209.629H122.5V236.629H155.3V265.529H122.5V292.529H155.3V368.329H258.4C308.7 368.329 351.6 336.829 368.5 292.529H398.7V265.529H375.3C375.9 260.629 376.3 255.529 376.3 250.429C376.3 245.729 376 241.129 375.5 236.629H398.8V209.629H398.7ZM182.3 158.329H257.3C293.2 158.329 324.1 179.329 338.6 209.629H182.3V158.329ZM257.3 342.529H182.3V292.529H338C323.3 322.129 292.7 342.529 257.3 342.529ZM347.4 248.429V252.529C347.4 256.929 347.1 261.329 346.5 265.529H182.3V236.629H346.6C347.1 240.529 347.4 244.429 347.4 248.429Z" fill="white"/>
</g>
<defs>
<linearGradient id="paint0_linear_1_5106" x1="73.2233" y1="73.653" x2="426.777" y2="427.206" gradientUnits="userSpaceOnUse">
<stop stop-color="#F9AF1A"/>
<stop offset="1" stop-color="#FBC349"/>
</linearGradient>
<clipPath id="clip0_1_5106">
<rect width="500" height="500" fill="white" transform="translate(0 0.429688)"/>
</clipPath>
</defs>
</svg>
