<svg width="500" height="501" viewBox="0 0 500 501" fill="none" xmlns="http://www.w3.org/2000/svg">
<path d="M453.9 136.231C446.4 121.331 437.2 107.231 426.5 94.4305C416.1 82.2305 404.2 71.4305 391.1 62.3305C380 54.2305 368.2 47.2305 355.9 41.2305C353.8 40.2305 351.6 39.1305 349.5 38.2305L343.8 35.6305C299.8 15.4305 257.7 11.9305 218.6 25.0305C207.8 28.5305 197.8 33.9305 188.8 40.8305C170.6 55.6305 161.2 77.3305 160.5 105.631H175.8C233.8 106.931 285.4 120.231 329 145.431C332.2 147.331 335.4 149.231 338.5 151.131L339.9 152.031L346.6 156.431C415.6 203.031 446 261.831 437 331.031C435.8 339.831 434.1 348.531 431.9 357.031L430.9 360.931C426.3 382.731 418.2 403.531 406.9 422.731C414 416.431 420.7 409.631 427.1 402.631C437.5 389.531 446.7 375.431 454.4 360.531C459.3 350.631 463.4 340.431 466.7 329.931C474.3 304.231 478 277.631 477.6 250.931C477.6 205.331 469.6 166.731 453.9 136.131" fill="#0573FF"/>
<path d="M349.6 187.43C356.8 205.03 360.5 226.33 360.5 250.93C360.5 278.33 355.9 301.73 346.7 320.43C344.8 324.43 342.7 328.43 340.5 332.23C333.9 344.03 325.2 354.43 314.8 362.93C302 372.53 292.5 378.53 285.9 381.33C280.1 384.03 272.1 387.03 262.4 390.33C252.6 393.63 232.2 396.13 202.4 397.53C172.6 398.93 145 396.03 121.2 388.83C97.4001 381.63 74.8001 368.13 54.8001 348.63C49.0001 342.93 43.8001 337.63 39.4001 332.63C34.4001 327.23 30.0001 321.43 26.1001 315.13C24.6001 335.03 24.9001 355.03 27.1001 374.83C27.1001 377.63 27.3001 380.03 27.5001 382.43C34.4001 439.83 61.5001 475.13 108 487.03C156.9 497.53 213.2 497.53 275.2 487.03L280.2 486.13C337.9 472.93 376.9 442.83 396 396.83C404.5 375.63 409.9 353.23 412.1 330.43C416.5 275.33 395.5 227.23 349.6 187.43Z" fill="#0573FF"/>
<path d="M68.4001 328.729C83.8001 342.329 101.3 353.329 120.1 361.329C125.5 363.729 131 365.629 136.7 367.129V108.329C135.8 79.2289 143.6 55.2289 159.9 36.7289C170.2 25.1289 184.1 15.6289 201.2 8.42891C192.7 7.52891 184.1 7.12891 175.6 7.12891C160.6 7.12891 145.7 8.52891 131 11.4289C118.1 13.7289 105.6 17.9289 93.9001 24.0289C85.1001 28.6289 76.8001 34.2289 69.3001 40.8289C67.2001 42.7289 65.0001 44.7289 62.7001 47.0289C55.0001 54.6289 48.2001 63.2289 42.7001 72.5289C39.0001 78.8289 36.0001 85.5289 33.6001 92.4289C29.2001 104.929 26.5001 117.929 25.6001 131.229C22.7001 169.429 23.1001 207.829 26.8001 245.929C29.6001 277.829 44.5001 307.429 68.4001 328.729Z" fill="#0573FF"/>
</svg>
