<svg width="500" height="501" viewBox="0 0 500 501" fill="none" xmlns="http://www.w3.org/2000/svg">
<path d="M495.799 249.682C495.713 385.588 386.012 495.135 249.822 495.815C115.632 496.484 0.358063 386.625 3.27006 244.149C6.00506 110.317 115.422 3.41723 249.267 3.49223C385.491 3.56723 495.885 113.699 495.799 249.682ZM248.342 489.072C376.007 489.593 487.526 388.46 488.805 251.05C490.007 121.88 386.908 11.2932 250.557 10.3052C122.788 9.38023 17.7851 109.283 10.4921 235.41C2.45306 374.425 112.547 488.26 248.342 489.072Z" fill="#048EE2"/>
<path d="M149.061 364.845C152.057 348.331 154.895 332.689 157.795 316.702C162.959 316.702 167.417 316.718 171.875 316.699C202.393 316.574 232.943 317.243 263.42 316.053C286.699 315.144 307.228 307.054 319.495 285.158C325.508 274.425 327.976 262.5 330.635 250.676C332.744 241.298 334.067 231.813 333.693 222.139C332.929 202.371 322.797 190.145 303.498 185.506C294.506 183.344 285.41 182.599 276.218 182.597C246.764 182.59 217.311 182.614 187.857 182.608C185.968 182.608 184.078 182.447 181.128 182.313C184.017 166.102 186.827 150.332 189.711 134.152C193.649 134.152 197.036 134.147 200.422 134.153C235.85 134.211 271.292 133.697 306.703 134.532C330.013 135.081 352.407 140.088 370.519 156.55C383.165 168.044 389.649 182.993 390.838 199.407C394.165 245.37 385.894 288.71 356.687 325.889C338.798 348.661 314.131 359.756 285.864 363.673C274.396 365.262 262.88 365.108 251.363 365.124C219.348 365.167 187.333 365.15 155.318 365.137C153.429 365.135 151.543 364.965 149.061 364.845Z" fill="#048EE2"/>
<path d="M251.674 225.464C248.844 236.847 247.599 247.75 243.084 257.661C238.049 268.713 228.343 273.506 216.739 273.598C180.891 273.884 145.04 273.726 109.19 273.716C108.822 273.716 108.454 273.381 107.364 272.853C109.914 260.211 111.152 246.914 118.811 235.803C123.671 228.753 131.716 225.668 139.997 225.598C176.876 225.288 213.759 225.464 251.674 225.464Z" fill="#048EE2"/>
</svg>
