<svg width="500" height="501" viewBox="0 0 500 501" fill="none" xmlns="http://www.w3.org/2000/svg">
<path d="M423.5 61.03C423.2 28.03 396.2 1.43003 363.2 1.63003C329.9 1.63003 302.9 28.23 302.9 61.03V120.53H363C396.3 120.53 423.3 93.93 423.3 61.03" fill="#199AFF"/>
<path d="M423.5 114.43V319.23C423.5 417.63 342.4 497.63 242.6 497.63C142.6 497.63 61.7 417.83 61.7 319.23C61.7 220.63 142.6 141.03 242.6 141.03H363.2C386.1 141.03 408 131.43 423.4 114.43M182.2 319.23C182.4 352.23 209.4 378.93 242.4 378.73C275.7 378.73 302.7 352.13 302.7 319.23V259.73H242.5C209.2 259.73 182.3 286.33 182.3 319.23" fill="#199AFF"/>
</svg>
