<svg width="500" height="501" viewBox="0 0 500 501" fill="none" xmlns="http://www.w3.org/2000/svg">
<path d="M317.5 128.029H317C314.8 128.029 313.1 129.829 313.1 131.929V156.029C313.1 158.229 314.8 159.929 317 159.929C397.6 162.029 463.5 227.829 465.5 308.429C465.6 310.629 467.3 312.329 469.4 312.329H493.5C495.7 312.329 497.5 310.529 497.4 308.329C495.3 209.029 417.3 128.029 317.5 128.029Z" fill="#FF5A07"/>
<path d="M316.3 176.629H316C314.4 176.629 313.1 177.929 313.1 179.529V204.429C313.1 206.029 314.4 207.329 316 207.329C372.4 207.329 419.4 255.629 419.4 309.629C419.4 311.229 420.7 312.529 422.3 312.529H446C447.6 312.529 448.9 311.229 448.9 309.629C447.2 236.329 389.8 176.629 316.3 176.629Z" fill="#FF5A07"/>
<path d="M315.2 222.83H315C313.9 222.83 313.1 223.73 313.1 224.73V249.83C313.1 250.83 313.9 251.73 315 251.73C341.6 251.73 372.7 278.63 372.7 310.53C372.7 311.53 373.6 312.43 374.6 312.43H400.8C401.9 312.43 402.7 311.53 402.7 310.53C401.6 262.23 363.7 222.83 315.2 222.83Z" fill="#FF5A07"/>
<path d="M372.1 318.13V317.63C372.1 315.43 370.3 313.73 368.2 313.73H344.1C341.9 313.73 340.2 315.43 340.2 317.63C338.1 398.23 272.3 464.13 191.7 466.13C189.5 466.23 187.8 467.93 187.8 470.03V494.13C187.8 496.33 189.6 498.13 191.8 498.03C291.1 495.93 372.1 417.93 372.1 318.13Z" fill="#FF5A07"/>
<path d="M323.5 316.93V316.63C323.5 315.03 322.2 313.73 320.6 313.73H295.7C294.1 313.73 292.8 315.03 292.8 316.63C292.8 373.03 244.5 420.03 190.5 420.03C188.9 420.03 187.6 421.33 187.6 422.93V446.63C187.6 448.23 188.9 449.53 190.5 449.53C263.8 447.83 323.5 390.43 323.5 316.93Z" fill="#FF5A07"/>
<path d="M277.3 315.83V315.63C277.3 314.53 276.4 313.73 275.4 313.73H250.3C249.3 313.73 248.4 314.53 248.4 315.63C248.4 342.23 221.5 373.33 189.6 373.33C188.6 373.33 187.7 374.23 187.7 375.23V401.43C187.7 402.53 188.6 403.33 189.6 403.33C237.9 402.23 277.3 364.33 277.3 315.83Z" fill="#FF5A07"/>
<path d="M182.7 373.33H183.2C185.4 373.33 187.1 371.53 187.1 369.43V345.33C187.1 343.13 185.4 341.43 183.2 341.43C102.6 339.33 36.7 273.43 34.6 192.83C34.5 190.63 32.8 188.93 30.7 188.93H6.59999C4.39999 188.93 2.59999 190.73 2.69999 192.93C4.79999 292.33 82.8 373.33 182.7 373.33Z" fill="#FF5A07"/>
<path d="M183.8 324.73H184.1C185.7 324.73 187 323.43 187 321.83V296.93C187 295.33 185.7 294.03 184.1 294.03C127.7 294.03 80.7 245.73 80.7 191.73C80.7 190.13 79.4 188.83 77.8 188.83H54.2C52.6 188.83 51.3 190.13 51.3 191.73C52.9 265.03 110.3 324.73 183.8 324.73Z" fill="#FF5A07"/>
<path d="M184.9 278.53H185.1C186.2 278.53 187 277.63 187 276.63V251.53C187 250.53 186.2 249.63 185.1 249.63C158.5 249.63 127.4 222.73 127.4 190.83C127.4 189.83 126.5 188.93 125.5 188.93H99.4C98.3 188.93 97.5 189.83 97.5 190.83C98.5 239.13 136.4 278.53 184.9 278.53Z" fill="#FF5A07"/>
<path d="M128.6 182.83V183.33C128.6 185.53 130.4 187.23 132.5 187.23H156.6C158.8 187.23 160.5 185.53 160.5 183.33C162.6 102.73 228.4 36.8301 309 34.8301C311.2 34.7301 312.9 33.0301 312.9 30.9301V6.73015C312.9 4.53015 311.1 2.73015 308.9 2.83015C209.6 5.03015 128.6 83.0301 128.6 182.83Z" fill="#FF5A07"/>
<path d="M177.2 184.03V184.33C177.2 185.93 178.5 187.23 180.1 187.23H205C206.6 187.23 207.9 185.93 207.9 184.33C207.9 127.93 256.2 80.9297 310.2 80.9297C311.8 80.9297 313.1 79.6297 313.1 78.0297V54.3297C313.1 52.7297 311.8 51.4297 310.2 51.4297C236.9 53.0297 177.2 110.53 177.2 184.03Z" fill="#FF5A07"/>
<path d="M223.4 185.129V185.329C223.4 186.429 224.3 187.229 225.3 187.229H250.4C251.4 187.229 252.3 186.429 252.3 185.329C252.3 158.729 279.2 127.629 311.1 127.629C312.1 127.629 313 126.729 313 125.729V99.5289C313 98.4289 312.1 97.6289 311.1 97.6289C262.8 98.6289 223.4 136.529 223.4 185.129Z" fill="#FF5A07"/>
</svg>
