<svg width="500" height="501" viewBox="0 0 500 501" fill="none" xmlns="http://www.w3.org/2000/svg">
<path d="M58.987 247.727C140.44 166.397 222.353 84.6087 303.655 3.42969C344.884 44.8787 386.864 87.0827 431.309 131.765C431.309 205.727 431.348 283.894 431.176 362.061C431.168 365.47 430.239 369.874 428.024 372.133C387.515 413.437 346.744 454.484 306.803 494.803C223.166 411.415 140.955 329.45 58.987 247.727ZM277.132 62.7497C214.317 125.06 151.598 187.275 92.507 245.891C122.629 276.977 153.355 308.687 184.564 340.895C215.403 248.233 246.405 155.08 277.132 62.7497ZM216.649 352.861C280.049 352.861 342.173 352.861 406.089 352.861C389.99 304.607 374.436 257.984 358.774 211.038C310.635 259.075 264.193 305.418 216.649 352.861ZM349.637 184.029C335.429 141.299 320.875 97.5277 304.358 47.8557C273.076 141.725 243.751 229.726 213.802 319.597C259.832 273.656 303.939 229.637 349.637 184.029ZM391.176 376.154C333.223 376.154 275.73 376.154 218.238 376.154C247.615 405.504 276.584 434.447 304.28 462.118C332.489 434.211 361.418 405.593 391.176 376.154ZM400.785 134.066C377.614 109.512 354.996 85.5427 330.045 59.1027C342.884 97.1547 354.693 132.152 366.566 167.34C379.608 154.658 391.563 143.033 400.785 134.066ZM409.555 296.893C409.555 245.224 409.555 203.204 409.555 159.45C397.028 171.478 385.995 182.073 374.839 192.785C385.706 225.372 396.208 256.868 409.555 296.893Z" fill="#282629"/>
</svg>
