<svg width="500" height="501" viewBox="0 0 500 501" fill="none" xmlns="http://www.w3.org/2000/svg">
<path d="M128.977 342.327C125.55 341.722 123.387 339.966 122.885 336.844C122.057 331.692 121.392 326.515 120.612 321.355C120.044 317.599 118.546 315.938 114.801 315.428C100.608 313.496 86.401 311.663 72.198 309.803C64.297 308.768 56.382 307.83 48.494 306.704C42.092 305.79 40.206 301.677 43.606 296.15C64.097 262.843 84.624 229.559 105.111 196.25C106.65 193.747 108.736 192.567 111.665 192.483C113.736 192.424 115.846 192.188 117.849 191.679C120.733 190.947 122.971 191.641 125.095 193.688C138.012 206.133 150.984 218.521 163.945 230.919C174.78 241.283 185.618 251.645 196.474 261.988C199.823 265.179 200.056 268.549 196.887 271.94C185.223 284.42 173.52 296.863 161.824 309.313C152.532 319.204 143.266 329.119 133.889 338.928C132.541 340.337 130.628 341.207 128.977 342.327ZM310.872 406.381C322.273 419.737 333.596 433.158 344.975 446.531C347.517 449.519 351.187 450.433 354.762 449.134C358.368 447.823 360.546 444.825 360.509 440.836C360.473 436.948 360.463 433.035 360.011 429.183C359.308 423.198 361.12 418.951 366.423 415.54C386.702 402.493 406.771 389.12 426.907 375.851C441.414 366.291 455.929 356.743 470.385 347.106C475.736 343.539 476.427 336.752 471.802 332.749C460.32 322.811 448.741 312.983 437.156 303.165C434.529 300.939 431.5 300.201 428.112 301.425C423.779 302.99 419.494 302.669 415.384 300.675C411.767 298.92 408.458 299.365 405.16 301.506C374.819 321.198 344.468 340.875 314.099 360.523C310.95 362.56 309.329 365.369 309.31 369.052C309.263 377.874 309.295 386.697 309.295 395.519C308.73 399.275 308.078 403.108 310.872 406.381ZM173.904 396.191C184.806 395.706 195.707 395.197 206.61 394.742C217.42 394.291 228.236 393.951 239.042 393.416C240.881 393.325 242.813 392.763 244.482 391.962C258.521 385.222 272.52 378.399 286.508 371.552C294.261 367.757 295.393 360.935 289.272 354.783C264.755 330.142 240.216 305.522 215.67 280.91C211.073 276.301 205.988 276.288 201.516 280.955C195.538 287.192 189.671 293.536 183.751 299.829C167.943 316.634 152.123 333.428 136.328 350.246C132.218 354.623 132.252 359.966 136.572 364.163C146.583 373.889 156.62 383.591 166.818 393.12C168.646 394.828 171.295 395.656 173.565 396.891C173.677 396.657 173.79 396.424 173.904 396.191ZM350.333 154.511C371.291 189.66 392.318 224.768 413.372 259.86C414.237 261.302 415.329 262.713 416.613 263.779C421.86 268.136 429.535 267.111 433.72 261.467C446.162 244.687 458.563 227.877 470.91 211.028C472.582 208.747 474.039 206.262 475.27 203.715C477.192 199.737 476.852 195.862 474.271 192.138C471.676 188.394 469.281 184.511 466.802 180.686C455.798 163.717 444.787 146.751 433.797 129.773C430.561 124.774 426.217 122.746 420.202 123.87C399.86 127.67 379.486 131.297 359.127 135.003C352.452 136.218 348.399 141.195 347.953 148.253C348.732 150.348 349.208 152.623 350.333 154.511ZM320.832 156.511C319.855 156.133 317.893 156.984 317.004 157.906C310.546 164.601 304.265 171.467 297.899 178.251C271.522 206.358 245.139 234.459 218.745 262.551C215.367 266.147 215.329 267.081 218.87 270.472C231.349 282.424 243.845 294.359 256.328 306.307C269.497 318.912 282.631 331.553 295.873 344.081C296.961 345.11 299.077 346.213 300.134 345.798C301.249 345.361 302.131 343.202 302.315 341.698C304.035 327.665 305.595 313.612 307.179 299.562C309.188 281.74 311.169 263.914 313.174 246.091C315.168 228.363 317.178 210.637 319.178 192.91C320.401 182.066 321.619 171.222 322.952 159.377C322.553 158.782 321.963 156.948 320.832 156.511ZM314.501 345.588C316.566 347.158 318.817 346.258 320.844 344.943C347.766 327.485 374.686 310.022 401.632 292.601C404.127 290.988 404.902 288.914 405.083 285.959C405.292 282.549 405.97 278.95 407.418 275.895C408.872 272.826 408.827 270.53 407.112 267.71C399.221 254.733 391.48 241.664 383.677 228.633C370.118 205.992 356.576 183.34 342.916 160.76C342.221 159.612 340.33 158.313 339.262 158.512C338.206 158.709 336.9 160.634 336.712 161.946C333.546 184.017 330.511 206.107 327.501 228.201C323.915 254.525 320.385 280.857 316.825 307.184C315.299 318.468 313.759 329.749 312.088 342.042C312.585 342.809 313.225 344.617 314.501 345.588ZM213.165 254.513C234.607 231.807 255.988 209.042 277.367 186.277C288.024 174.929 298.64 163.543 309.305 152.201C310.756 150.658 311.459 149.039 310.361 147.08C309.29 145.17 307.556 145.183 305.635 145.539C298.822 146.799 291.992 147.967 285.171 149.182C235.364 158.052 185.56 166.935 135.747 175.768C132.823 176.286 130.456 177.265 129.519 180.343C128.599 183.364 130.169 185.393 132.19 187.324C141.732 196.438 151.243 205.585 160.766 214.719C174.878 228.257 188.97 241.816 203.141 255.291C204.36 256.45 206.114 257.048 208.071 258.164C209.938 256.849 211.821 255.936 213.165 254.513ZM320.073 117.798C311.893 99.8316 303.673 81.8826 295.515 63.9056C292.981 58.3216 290.76 57.6816 285.716 61.1736C259.495 79.3286 233.257 97.4576 207.029 115.602C184.86 130.938 162.688 146.269 140.561 161.666C139.711 162.257 139.322 163.51 138.718 164.454C139.76 164.631 140.852 165.103 141.837 164.938C148.762 163.777 155.666 162.493 162.574 161.234C195.342 155.262 228.108 149.283 260.876 143.311C277.773 140.231 294.68 137.201 311.557 134.015C313.087 133.726 314.925 132.804 315.766 131.587C317.686 128.808 319.09 125.67 320.667 122.659C320.924 122.17 320.999 121.585 321.216 120.847C320.866 119.905 320.538 118.82 320.073 117.798ZM133.202 73.2626C108.928 87.4156 84.665 101.588 60.497 115.921C58.082 117.353 55.735 119.527 54.324 121.926C42.103 142.71 30.096 163.62 18.047 184.505C15.622 188.708 15.792 192.771 18.397 195.939C21.272 199.434 25.167 200.435 29.951 198.709C49.685 191.591 69.39 184.392 89.139 177.316C92.585 176.081 94.604 173.946 95.609 170.42C97.438 163.998 101.692 159.71 108.155 158.001C111.592 157.092 113.705 155.203 115.211 152.045C122.323 137.137 129.598 122.306 136.758 107.421C140.379 99.8936 144.07 92.3906 147.375 84.7236C150.207 78.1546 145.754 71.5846 138.654 71.1406C136.83 71.8356 134.866 72.2916 133.202 73.2626ZM263.646 49.9926C259.286 49.9926 254.92 49.8506 250.565 50.0166C227.142 50.9086 203.726 52.0586 180.296 52.6866C174.58 52.8396 171.6 54.9496 169.338 60.0656C156.133 89.9396 142.654 119.694 129.282 149.494C128.779 150.615 128.147 151.786 128.081 152.962C128.025 153.949 128.441 155.299 129.148 155.886C129.711 156.354 131.11 156.138 131.989 155.817C133.03 155.437 133.924 154.637 134.861 153.989C174.314 126.728 213.765 99.4646 253.215 72.1976C258.605 68.4726 264.015 64.7746 269.35 60.9716C272.188 58.9476 273.019 56.5856 272.172 53.8596C271.27 50.9556 269.126 49.5006 265.642 49.4356C264.978 49.4236 264.313 49.4336 263.648 49.4336C263.648 49.6206 263.647 49.8066 263.646 49.9926ZM37.063 288.764C47.856 271.221 58.684 253.7 69.495 236.168C77.915 222.514 86.363 208.878 94.674 195.158C95.388 193.979 95.752 191.97 95.239 190.804C94.374 188.836 92.353 189.624 90.701 190.115C90.61 190.142 90.519 190.168 90.428 190.197C63.234 198.954 36.037 207.702 8.85002 216.48C4.34002 217.936 3.20202 220.255 4.75902 224.736C9.02602 237.019 13.331 249.289 17.636 261.56C20.747 270.427 23.901 279.278 26.993 288.152C27.823 290.533 29.214 292.094 32.612 292.168C34.414 292.237 35.845 290.743 37.063 288.764ZM496.884 290.935C493.165 269.533 489.481 248.125 485.691 226.735C484.913 222.346 480.792 219.732 476.766 221.214C474.954 221.881 473.234 223.47 472.05 225.069C461.266 239.633 450.624 254.303 439.901 268.913C437.927 271.602 437.733 274.253 438.703 277.47C439.639 280.573 440.353 284.014 439.987 287.169C439.534 291.068 440.621 293.759 443.457 296.162C454.53 305.545 465.532 315.011 476.621 324.375C482.152 329.045 487.635 327.336 489.54 320.416C491.881 311.909 494.146 303.381 496.427 294.857C496.696 293.853 496.861 292.822 497.021 292.06C496.954 291.499 496.933 291.215 496.884 290.935ZM351.814 126.724C371.985 123.028 392.155 119.326 412.327 115.637C414.134 115.307 416.075 114.578 415.814 112.621C415.617 111.147 414.338 109.284 413.015 108.579C404.304 103.931 395.45 99.5496 386.643 95.0826C371.907 87.6076 357.177 80.1216 342.434 72.6616C331.503 67.1306 320.583 61.5746 309.573 56.2046C308.37 55.6176 305.947 55.6026 305.263 56.3696C304.392 57.3446 304.648 59.3846 304.569 60.9726C304.544 61.4776 305.003 62.0066 305.24 62.5246C307.887 68.3096 310.538 74.0936 313.18 79.8806C318.424 91.3696 323.675 102.856 328.891 114.357C329.729 116.204 330.777 117.614 333.03 117.705C338.984 117.945 343.729 120.573 347.612 125.022C348.416 125.943 349.673 126.468 350.312 126.899C351.249 126.791 351.535 126.775 351.814 126.724Z" fill="#5BC2D4"/>
</svg>
