<svg width="500" height="501" viewBox="0 0 500 501" fill="none" xmlns="http://www.w3.org/2000/svg">
<path d="M150.357 331.873C146.097 334.526 142.648 336.815 139.07 338.882C103.398 359.488 67.705 380.058 32.016 400.634C31.295 401.05 30.548 401.422 29.582 401.937C20.865 396.888 12.104 391.814 3.34399 386.739C3.34399 295.879 3.34399 205.264 3.34399 114.394C12.045 109.37 20.745 104.345 29.706 99.1699C49.741 110.724 69.799 122.243 89.808 133.847C109.782 145.431 129.972 156.658 150.53 169.157C177.066 153.846 204.646 137.933 232.505 121.859C254.329 134.45 276.159 147.044 298.626 160.006C286.451 167.038 274.874 173.725 263.092 180.529C252.885 174.662 242.733 168.826 232.457 162.919C207.056 177.567 181.855 192.099 156.607 206.659C156.607 235.95 156.607 265.04 156.607 294.449C181.725 308.945 206.918 323.485 232.44 338.215C242.569 332.394 252.717 326.562 263.066 320.615C274.757 327.351 286.351 334.032 298.638 341.112C276.236 354.038 254.432 366.619 232.494 379.277C204.779 363.282 177.197 347.363 150.357 331.873ZM38.834 145.339C38.834 215.815 38.834 285.468 38.834 355.789C66.535 339.79 93.728 324.085 120.825 308.434C120.825 269.659 120.825 231.256 120.825 192.684C93.608 176.969 66.477 161.301 38.834 145.339ZM384.724 121.806C347.423 143.342 310.318 164.765 273.336 186.117C273.336 229.296 273.336 272.07 273.336 315.016C310.492 336.47 347.589 357.89 384.713 379.325C421.871 357.886 458.716 336.627 496.137 315.037C483.824 307.931 472.23 301.24 460.488 294.464C435.126 309.091 409.937 323.618 384.683 338.183C359.29 323.53 334.166 309.031 309.055 294.541C309.055 265.121 309.055 235.946 309.055 206.581C334.297 192.022 359.486 177.494 384.705 162.949C410.148 177.629 435.27 192.123 460.489 206.674C472.255 199.879 483.849 193.184 496.125 186.094C458.549 164.409 421.665 143.124 384.724 121.806Z" fill="url(#paint0_linear_1_5154)"/>
<defs>
<linearGradient id="paint0_linear_1_5154" x1="3.34339" y1="250.554" x2="496.136" y2="250.554" gradientUnits="userSpaceOnUse">
<stop stop-color="#24C7FF"/>
<stop offset="1" stop-color="#6A5CE3"/>
</linearGradient>
</defs>
</svg>
