<svg width="500" height="501" viewBox="0 0 500 501" fill="none" xmlns="http://www.w3.org/2000/svg">
<path d="M497.2 252.429C496.2 389.729 384.4 499.629 248 498.629C180.3 498.629 119.5 471.129 75.2999 426.029C30.2999 380.929 1.7999 318.129 2.7999 248.429C3.7999 111.129 115.6 1.22943 252 2.22943C388.4 3.22943 498.2 115.029 497.2 252.429Z" fill="black"/>
<path d="M131.3 334.829L76.3999 428.029C76.3999 428.029 98.9999 458.429 162.7 482.929L194.1 397.629L215.7 340.729L237.3 276.929L245.1 256.329L246.1 254.329C246.1 254.329 246.1 253.329 247.1 253.329L248.1 252.329C248.1 252.329 248.1 252.329 249.1 252.329H250.1H251.1L252.1 254.329L254.1 260.229L258 272.029L272.7 317.129L285.5 357.329L306.1 419.129L321.8 462.329L328.7 485.829C328.7 485.829 378.7 472.129 420.9 429.929L390.5 383.829L370.9 349.529L350.3 310.329L333.6 276.029L319.9 244.629L309.1 212.229L299.3 181.829L288.3 147.429L277.5 111.129L267.7 74.8293L256.9 34.6293L250 13.0293L238.2 51.3293L221.5 105.329L208.8 145.429L193.1 191.529L180.3 228.829L165.6 264.129L149.9 298.429L131.3 334.829Z" fill="white"/>
</svg>
