<svg width="500" height="501" viewBox="0 0 500 501" fill="none" xmlns="http://www.w3.org/2000/svg">
<path d="M98.4341 138.837C66.9488 111.44 35.8078 84.3426 4.62659 57.2104C5.66084 55.8004 6.96509 56.4581 8.02509 56.4566C42.4881 56.4129 76.9511 56.4304 111.414 56.3954C113.64 56.3931 115.494 56.7271 117.302 58.3126C170.121 104.65 222.99 150.931 275.856 197.215C276.525 197.801 277.262 198.309 277.56 199.707C276.141 199.707 274.722 199.707 273.303 199.707C235.744 199.708 198.185 199.631 160.626 199.73C120.749 199.834 86.9748 227.183 78.8168 265.777C69.3656 310.489 100.777 355.873 146.155 363.136C161.018 365.515 175.984 364.459 190.896 364.351C197.107 364.306 201.656 366.024 206.269 370.175C229.381 390.975 252.798 411.435 276.084 432.04C277.044 432.889 278.327 433.506 278.748 434.978C277.21 435.859 275.571 435.406 274.02 435.407C234.442 435.439 194.863 435.429 155.284 435.435C84.4103 435.447 21.9201 384.276 7.38709 314.879C-8.49541 239.037 31.6646 167.616 96.4316 139.965C96.9201 139.756 97.3643 139.444 98.4341 138.837Z" fill="#2972FE"/>
<path d="M495.421 434.771C493.88 435.827 492.642 435.43 491.493 435.431C457.167 435.458 422.841 435.426 388.515 435.508C385.888 435.514 383.975 434.716 382.036 433.016C335.484 392.199 288.886 351.434 242.3 310.656C235.633 304.82 228.982 298.966 222.153 292.972C223.636 291.62 225.162 292.182 226.492 292.18C264.049 292.141 301.606 292.212 339.163 292.133C379.391 292.048 413.781 263.996 421.154 225.409C429.485 181.811 401.773 139.634 358.253 129.634C349.398 127.599 340.42 127.239 331.383 127.324C322.096 127.412 312.807 127.334 303.518 127.353C301.758 127.356 300.184 127.287 298.685 125.959C272.803 103.039 246.87 80.1786 220.957 57.3118C221.728 55.7718 222.956 56.4361 223.867 56.4351C264.789 56.3928 305.719 55.8921 346.632 56.5081C419.53 57.6058 477.443 109.152 491.878 175.036C504.281 231.644 489.384 281.024 448.353 322.148C436.077 334.451 421.597 343.765 405.755 350.929C404.653 351.427 403.549 351.924 402.46 352.452C402.247 352.555 402.102 352.799 401.695 353.213C432.894 380.361 464.085 407.503 495.421 434.771Z" fill="#2ED7A3"/>
</svg>
