<svg width="500" height="501" viewBox="0 0 500 501" fill="none" xmlns="http://www.w3.org/2000/svg">
<path d="M235.281 165.111C235.281 154.01 235.291 142.909 235.278 131.808C235.266 120.758 238.817 115.603 248.976 111.546C276.125 100.704 304.576 96.7256 333.184 100.697C358.861 104.262 383.2 113.509 404.149 129.784C423.342 144.694 438.178 162.952 449.675 184.552C464.678 212.741 469.852 242.671 466.798 273.713C464.726 294.782 457.692 314.873 447.832 334.071C433.724 361.539 412.246 381.001 386.885 397.625C374.981 405.428 362.646 412.487 350.751 420.271C347.237 422.57 342.992 423.728 339.148 425.55C323.286 433.069 306.77 439.518 291.813 448.543C279.239 456.13 265.998 463.787 258.447 477.801C255.993 482.355 253.666 487.466 248.727 490.486C241.232 495.069 233.895 493.518 229.313 486.143C224.976 479.162 222.543 471.272 221.117 463.49C217.434 443.386 213.232 423.083 217.567 402.549C222.011 381.498 229.429 361.696 240.668 343.003C255.789 317.856 276.914 298.557 299.182 280.653C317.547 265.887 338.415 254.545 360.592 245.818C372.887 240.98 385.24 236.473 398.006 233.178C404.921 231.393 406.382 226.647 405.071 220.845C403.686 214.712 398.432 215.423 393.881 216.209C374.427 219.571 355.506 224.981 337.051 231.924C299.365 246.102 265.365 266.785 232.236 289.514C209.026 305.439 189.015 324.547 170.078 344.825C159.759 355.876 149.727 367.577 141.964 380.869C138.234 387.256 132.198 388.839 125.192 387.198C118.353 385.596 115.538 381.341 115.826 374.292C116.12 367.112 118.777 360.652 121.175 354.156C131.433 326.369 144.671 300.018 160.438 274.958C164.767 268.077 166.358 260.733 160.255 254.998C154.978 250.038 148.48 249.125 140.46 252.69C111.825 265.418 84.166 279.743 58.301 297.461C50.848 302.566 43.753 303.047 38.836 298.708C33.166 293.705 32.588 287.265 37.546 278.983C46.07 264.744 58.4 253.698 69.723 241.892C81.649 229.457 94.386 217.795 106.865 205.896C111.021 201.933 115.568 200.562 121.616 202.525C145.172 210.169 167.69 220.433 190.721 229.385C213.566 238.265 236.412 220.639 235.258 199.223C234.647 187.883 235.15 176.483 235.15 165.11C235.195 165.111 235.238 165.111 235.281 165.111ZM243.315 465.203C262.288 443.771 285.572 429.596 311.229 417.955C284.423 411.477 263.002 397.368 246.357 375.769C233.099 395.197 231.315 447.861 243.315 465.203Z" fill="#A7CE50"/>
<path d="M218.684 150.8C218.684 164.882 218.691 178.965 218.675 193.047C218.673 194.941 218.743 196.863 218.461 198.724C216.385 212.442 208.679 218.128 195.785 213.319C165.668 202.087 135.468 190.87 106.174 177.705C86.1583 168.709 69.1013 154.742 53.7663 138.535C47.1783 131.573 40.8263 124.624 35.0063 117.025C26.6763 106.148 31.5383 94.0186 44.7153 90.7806C65.5683 85.6566 85.1343 88.3806 104.533 96.7716C114.454 101.063 122.815 94.9836 129.757 89.4426C139.039 82.0356 144.806 71.8346 144.004 59.1836C142.797 40.1426 151.072 24.5896 162.239 10.2706C167.921 2.98556 178.817 3.45056 184.373 10.8346C192.981 22.2746 197.529 35.8396 203.78 48.5226C219.81 81.0436 219.616 115.85 218.684 150.8ZM81.7963 138.545C87.2803 134.357 92.9423 127.898 95.0393 123.663C98.9833 115.699 96.6583 111.125 88.1223 110.063C83.3083 109.464 78.4903 108.372 73.6813 108.405C67.8333 108.446 61.3453 105.979 55.5523 111.615C64.2793 120.866 70.8043 131.486 81.7963 138.545ZM161.992 70.2316C169.378 71.4816 174.823 68.3696 180.587 67.4466C188.512 66.1776 190.54 62.1276 186.964 54.9536C182.782 46.5616 177.969 38.4836 172.873 29.2636C163.385 41.9856 162.426 55.6256 161.992 70.2316Z" fill="#A7CE50"/>
<path d="M243.316 465.203C231.315 447.861 233.1 395.197 246.358 375.768C263.003 397.367 284.424 411.476 311.23 417.954C285.573 429.596 262.289 443.771 243.316 465.203Z" fill="#FDFDFD"/>
<path d="M81.7967 138.544C70.8057 131.485 64.2797 120.865 55.5527 111.613C61.3457 105.978 67.8337 108.444 73.6817 108.403C78.4917 108.369 83.3097 109.462 88.1227 110.061C96.6587 111.123 98.9847 115.697 95.0397 123.661C92.9417 127.897 87.2807 134.355 81.7967 138.544Z" fill="#FDFDFD"/>
<path d="M161.992 70.2317C162.426 55.6247 163.385 41.9847 172.873 29.2637C177.969 38.4837 182.782 46.5617 186.964 54.9537C190.539 62.1287 188.512 66.1777 180.587 67.4467C174.824 68.3707 169.379 71.4827 161.992 70.2317Z" fill="#FDFDFD"/>
</svg>
