<svg width="500" height="501" viewBox="0 0 500 501" fill="none" xmlns="http://www.w3.org/2000/svg">
<path d="M216.7 254.129V61.5293C216.7 44.6293 230.4 30.9293 247.3 30.9293C264.2 30.9293 277.9 44.6293 277.9 61.5293V150.829C288 143.529 297.2 134.929 305.3 125.429V61.5293C305.3 29.5293 279.3 3.5293 247.3 3.5293C215.3 3.5293 189.3 29.5293 189.3 61.5293V204.829C189.3 225.629 200.2 243.929 216.7 254.129Z" fill="black"/>
<path d="M227.7 225.129L394.5 128.829C409.1 120.329 427.9 125.429 436.3 140.029C444.7 154.629 439.7 173.429 425.1 181.829L347.8 226.429C359.2 231.529 371.2 235.229 383.5 237.429L438.8 205.529C466.6 189.529 476 154.029 460 126.329C444 98.5293 408.5 89.1293 380.8 105.129L256.7 176.829C238.7 187.229 228.3 205.829 227.7 225.129Z" fill="black"/>
<path d="M438.8 292.829L314.7 221.129C296.7 210.729 275.4 211.129 258.4 220.229L425.2 316.529C439.8 325.029 444.9 343.729 436.4 358.329C427.9 372.929 409.2 378.029 394.6 369.529L317.3 324.929C318.6 337.329 321.4 349.629 325.6 361.329L380.9 393.229C408.7 409.229 444.1 399.729 460.1 372.029C476 344.329 466.6 308.829 438.8 292.829Z" fill="black"/>
<path d="M277.9 244.23V436.83C277.9 453.73 264.2 467.43 247.3 467.43C230.4 467.43 216.7 453.73 216.7 436.83V347.53C206.6 354.83 197.4 363.43 189.3 372.93V436.73C189.3 468.73 215.3 494.73 247.3 494.73C279.3 494.73 305.3 468.73 305.3 436.73V293.53C305.3 272.73 294.4 254.53 277.9 244.23Z" fill="black"/>
<path d="M266.9 273.329L100.1 369.629C85.5 378.129 66.7 373.029 58.3 358.429C49.8 343.829 54.9 325.029 69.5 316.629L146.8 272.029C135.4 266.929 123.4 263.229 111.1 261.029L55.8 292.929C28 308.929 18.6 344.429 34.6 372.129C50.6 399.929 86.1 409.329 113.8 393.329L237.9 321.629C255.9 311.229 266.3 292.629 266.9 273.329Z" fill="black"/>
<path d="M55.7995 205.631L180 277.331C198 287.73 219.3 287.331 236.3 278.23L69.4995 181.931C54.8995 173.431 49.7995 154.731 58.2995 140.131C66.7995 125.531 85.4995 120.431 100.1 128.931L177.4 173.531C176.1 161.131 173.3 148.831 169.1 137.131L113.8 105.231C85.9995 89.2305 50.5995 98.7305 34.5995 126.431C18.4995 154.131 27.9995 189.531 55.7995 205.631Z" fill="black"/>
</svg>
