<svg width="500" height="501" viewBox="0 0 500 501" fill="none" xmlns="http://www.w3.org/2000/svg">
<path d="M90.6999 498.729C86.3999 497.629 81.9999 496.629 77.6999 495.529C36.8999 485.229 11.6999 453.329 11.6999 411.429C11.5999 337.329 11.5999 263.129 11.6999 189.029C11.6999 145.429 42.5999 113.229 86.2999 112.629C135.9 111.929 185.6 111.729 235.1 113.129C302.8 115.029 354.2 155.029 369.8 216.429C393.5 309.429 323.4 379.929 248.5 387.229C229.3 389.129 209.8 388.629 190.4 388.729C184.5 388.729 182.7 390.729 182.7 396.529C182.5 421.929 202.7 442.429 230.2 443.129C282.6 444.429 328.1 426.229 366.6 391.429C410.9 351.329 434.2 301.229 431.3 241.229C427.2 156.429 366.1 84.0294 281.7 63.5294C263.1 59.0294 243.4 57.3294 224.2 56.9294C179.6 56.0294 135 56.7294 90.3999 56.6294C61.9999 56.5294 37.2999 64.9294 18.9999 88.1294C17.8999 89.5294 16.1999 90.2294 14.6999 91.3294C13.8999 89.5294 12.6999 87.8294 12.3999 85.9294C4.19994 45.1294 36.3999 4.5294 78.7999 3.3294C142.5 1.5294 206.2 -0.670601 269.7 6.4294C335.9 13.8294 389.9 44.8294 432.3 95.6294C468.9 139.529 489.2 190.329 488 247.529C486 344.229 442.2 417.929 357.5 465.529C310.9 491.629 260.1 501.629 206.9 493.729C162.1 487.029 128 450.229 126.2 405.129C124.3 357.529 125 309.829 124.7 262.229C124.5 233.329 124.4 204.529 124.7 175.629C124.8 168.529 122 166.229 115.4 166.529C106.7 166.929 97.7999 166.129 89.0999 166.929C74.6999 168.229 68.2999 175.429 68.1999 189.829C68.0999 211.229 68.2999 232.729 68.2999 254.229C68.3999 306.429 69.0999 358.629 68.2999 410.729C67.8999 437.829 78.0999 459.029 97.6999 476.429C104.6 482.529 111.9 488.229 119.7 494.629C114.8 496.129 110.7 497.429 106.6 498.729C101.3 498.729 95.9999 498.729 90.6999 498.729ZM182.5 248.229C182.5 273.929 182.5 299.629 182.5 325.229C182.5 329.129 181.6 333.729 188 333.529C207.9 333.029 228 334.329 247.6 331.729C286.4 326.529 316.5 292.529 317.6 255.529C318.9 212.229 294.7 179.329 252.9 170.829C232.5 166.729 211.3 166.629 190.5 164.229C183.6 163.429 182.5 166.029 182.5 172.029C182.7 197.329 182.5 222.729 182.5 248.229Z" fill="#0560FF"/>
</svg>
