<svg width="500" height="501" viewBox="0 0 500 501" fill="none" xmlns="http://www.w3.org/2000/svg">
<path d="M498.4 377.83L299.8 33.8297C297.7 30.1297 293.8 27.9297 289.6 27.9297H210.4C206.2 27.9297 202.3 30.2297 200.2 33.8297L1.60039 377.83C-0.499609 381.53 -0.499609 386.03 1.60039 389.63L41.2004 458.23C43.3004 461.93 47.2004 464.13 51.4004 464.13H448.6C452.8 464.13 456.7 461.83 458.8 458.23L498.4 389.63C500.5 386.03 500.5 381.53 498.4 377.83ZM217.2 51.6297H269.1L121.6 308.73C119.5 312.43 119.5 316.93 121.6 320.53C123.7 324.13 127.6 326.43 131.8 326.43H211.2H282.1L308.4 371.13H32.8004L217.2 51.6297ZM250 271.13L268.3 302.83H231.6L250 271.13ZM31.8004 394.73H329C333.2 394.73 337.2 392.43 339.3 388.73C341.4 385.03 341.4 380.53 339.2 376.83L299 308.73L263.6 247.43L289.8 202.03L428.1 440.53H58.2004L31.8004 394.73ZM448.6 428.73L300 172.43C297.9 168.83 294 166.53 289.8 166.53C285.6 166.53 281.7 168.83 279.6 172.43L239.8 241.43L204.4 302.73H152.3L289.6 63.4297L474.5 383.73L448.6 428.73Z" fill="url(#paint0_linear_1_5191)"/>
<defs>
<linearGradient id="paint0_linear_1_5191" x1="78.9622" y1="154.515" x2="421.038" y2="496.591" gradientUnits="userSpaceOnUse">
<stop stop-color="#0EDAAB"/>
<stop offset="1" stop-color="#2C9DE1"/>
</linearGradient>
</defs>
</svg>
