<svg width="500" height="501" viewBox="0 0 500 501" fill="none" xmlns="http://www.w3.org/2000/svg">
<path d="M264.1 264.63C264 253.03 268.3 241.73 276.1 233.23C283.9 224.63 294.7 219.33 306.3 218.33H500L437.1 260.23H331.7C324.9 260.23 318.4 262.93 313.6 267.73C308.8 272.53 306.1 279.03 306.1 285.83V390.63L264.7 440.43L264.1 264.63Z" fill="black"/>
<path d="M249.5 208.429C238.7 208.729 228.2 204.729 220.3 197.329L80.5 60.5293L156.5 75.4293L232.6 150.129C237.5 154.929 244 157.629 250.9 157.629C257.7 157.629 264.3 154.929 269.2 150.129L345.5 75.5293L421.3 60.5293L284.8 194.929C275.1 203.729 262.5 208.529 249.5 208.429Z" fill="black"/>
<path d="M193.9 390.529V285.829C193.9 279.029 191.2 272.429 186.4 267.629C181.6 262.829 175.1 260.029 168.3 260.029H62.7L0 218.129H189.4C201.4 218.329 212.9 222.829 221.7 230.929C226 234.529 229.5 239.129 231.9 244.129C234.3 249.229 235.7 254.729 235.8 260.329V440.229L193.9 390.529Z" fill="black"/>
</svg>
