<svg width="500" height="501" viewBox="0 0 500 501" fill="none" xmlns="http://www.w3.org/2000/svg">
<path d="M117.1 233.03C109.7 292.63 142.8 349.83 198 373.23C220.4 382.53 244.9 385.73 268.9 382.43L360 472.93C291.1 506.73 210.6 506.93 141.5 473.53C78.5 443.03 31.2 387.43 11.4 320.23C-2.50001 272.93 -2.10001 222.53 12.6 175.43L117.1 233.03Z" fill="url(#paint0_radial_1_5201)"/>
<path d="M123.2 237.731L12.7002 176.731C18.1002 160.331 25.1002 144.531 33.4002 129.431C65.7002 71.0306 120.5 28.3306 185 11.2306C317.2 -25.0694 453.8 52.6306 490.1 184.731C507.6 248.331 499 316.331 466.3 373.631C458.2 387.831 448.7 401.331 438.1 413.931L123.2 237.731ZM161.9 150.131L382.2 275.331C387.4 247.531 383.6 218.831 371.4 193.431C339.6 126.531 259.6 98.1306 192.7 129.931C181.5 135.131 171.1 141.931 161.9 150.131Z" fill="#7FFFD4"/>
<defs>
<radialGradient id="paint0_radial_1_5201" cx="0" cy="0" r="1" gradientUnits="userSpaceOnUse" gradientTransform="translate(160.008 370.96) rotate(29.4365) scale(224.374 98.9972)">
<stop stop-color="#979797"/>
<stop offset="1" stop-color="#777777"/>
</radialGradient>
</defs>
</svg>
