<svg width="500" height="501" viewBox="0 0 500 501" fill="none" xmlns="http://www.w3.org/2000/svg">
<g clip-path="url(#clip0_1_5204)">
<path d="M250 500.43C174.6 500.43 107 467.03 61.2 414.23C23.1 370.43 0 313.13 0 250.43C0 112.33 111.9 0.429688 250 0.429688C388.1 0.429688 500 112.33 500 250.43C500 388.53 388.1 500.43 250 500.43Z" fill="white"/>
<path d="M93.7998 378.029V134.529H246.7C304.5 134.529 351.6 185.129 351.6 247.229C351.6 309.329 304.6 359.929 246.7 359.929H228.3V312.029H246.7C279.8 312.029 306.8 282.929 306.8 247.129C306.8 211.329 279.8 182.229 246.7 182.229H138.5V377.829H93.7998V378.029Z" fill="#FA9C00"/>
<path d="M160.7 435.33V211.43H206V388.33H259C332.4 388.33 392.1 325.93 392.1 249.13C392.1 172.33 332.4 109.93 259 109.93H151V62.9297H259C357.4 62.9297 437.4 146.43 437.4 249.13C437.4 351.83 357.3 435.33 259 435.33H160.7Z" fill="#242A47"/>
</g>
<defs>
<clipPath id="clip0_1_5204">
<rect width="500" height="500" fill="white" transform="translate(0 0.429688)"/>
</clipPath>
</defs>
</svg>
