<svg width="500" height="501" viewBox="0 0 500 501" fill="none" xmlns="http://www.w3.org/2000/svg">
<path fill-rule="evenodd" clip-rule="evenodd" d="M304.4 433.03V67.7301C383 91.2301 440.5 164.23 440.5 250.43C440.5 336.63 383.1 409.53 304.4 433.03ZM250 5.33008V211.83L218.9 180.73L214.9 103.13L247.3 5.43008C226.5 5.63008 206.4 8.63008 187.2 13.7301L171.5 60.9301L127 38.6301C109.4 48.9301 93.1 61.1301 78.6 75.3301L161 116.63L163.4 163.93L116.2 161.53L74.9 79.1301C60.8 93.5301 48.5 109.83 38.2 127.43L60.5 171.93L13.3 187.63C8.2 206.83 5.2 226.93 5 247.73L102.7 215.33L180.3 219.33L211.4 250.43L180.3 281.53L102.7 285.53L5 253.03C5.2 273.83 8.2 293.93 13.3 313.13L60.5 328.83L38.2 373.33C48.5 390.93 60.7 407.23 74.9 421.73L116.2 339.33L163.4 336.93L161 384.13L78.6 425.43C93.1 439.63 109.4 451.83 127 462.13L171.5 439.83L187.2 487.03C206.4 492.13 226.5 495.13 247.3 495.33L214.9 397.63L218.9 320.03L250 288.93V495.43C385.3 495.43 495 385.73 495 250.43C495 115.13 385.3 5.33008 250 5.33008Z" fill="#FF00AF"/>
</svg>
