<svg width="500" height="501" viewBox="0 0 500 501" fill="none" xmlns="http://www.w3.org/2000/svg">
<path d="M238.819 1.79672C247.337 1.36072 254.822 1.25672 263.623 1.79672C270.234 2.32272 275.809 3.51272 281.911 4.30372C345.29 12.5237 398.149 40.8367 439.167 89.5787C488.832 148.597 506.757 216.934 494.065 293.038C487.384 333.096 471.206 369.221 446.039 401.035C404.333 453.758 350.154 485.109 283.393 494.437C251.051 498.956 219.046 496.944 187.624 488.549C141.882 476.328 102.566 452.947 70.222 418.2C36.104 381.548 14.869 338.52 6.86297 289.053C5.42197 280.149 4.39897 271.176 3.18297 262.235C2.43297 253.754 2.54497 245.814 3.18297 237.431C3.60297 235.031 5.84497 213.768 7.37997 205.695C18.624 146.581 47.084 97.3847 93.396 58.8627C127.741 30.2957 167.138 12.4627 211.316 5.44472C220.446 3.99472 229.419 2.55272 238.819 1.79672ZM198.539 189.27C169.319 189.27 140.926 189.27 112.175 189.27C112.175 258.771 112.175 327.402 112.175 396.263C114.532 396.372 116.371 396.533 118.211 396.532C166.348 396.53 214.486 396.486 262.623 396.51C277.651 396.517 292.224 393.749 306.308 388.823C385.764 361.033 426.67 274.81 395.78 196.468C374.141 141.588 332.412 109.72 273.434 103.39C249.73 100.846 225.57 102.55 201.617 102.363C200.854 102.357 200.087 102.808 198.538 103.291C198.539 131.621 198.539 160.019 198.539 189.27ZM111.373 153.453C128.918 153.453 145.685 153.453 162.521 153.453C162.521 136.093 162.521 119.341 162.521 102.751C145.088 102.751 128.316 102.751 111.373 102.751C111.373 119.845 111.373 136.302 111.373 153.453Z" fill="#1241F3"/>
<path d="M198.539 189.27C198.539 160.019 198.539 131.621 198.539 103.289C200.088 102.807 200.855 102.355 201.618 102.361C225.571 102.549 249.731 100.844 273.435 103.388C332.412 109.719 374.142 141.586 395.781 196.466C426.671 274.809 385.765 361.032 306.309 388.821C292.225 393.747 277.652 396.515 262.624 396.508C214.487 396.485 166.349 396.528 118.212 396.53C116.372 396.53 114.533 396.37 112.176 396.261C112.176 327.4 112.176 258.769 112.176 189.268C140.927 189.27 169.32 189.27 198.539 189.27ZM199.65 307.966C200.685 308.277 201.461 308.714 202.236 308.713C222.075 308.702 241.914 308.686 261.753 308.554C264.836 308.533 267.99 308.268 270.984 307.571C300.338 300.744 320.803 273.147 317.757 244.662C314.339 212.698 289.878 190.514 257.717 190.331C240.562 190.234 223.405 190.296 206.25 190.331C204.077 190.335 201.905 190.616 199.651 190.775C199.65 230.3 199.65 269.092 199.65 307.966Z" fill="white"/>
<path d="M111.373 153.452C111.373 136.301 111.373 119.845 111.373 102.75C128.316 102.75 145.088 102.75 162.521 102.75C162.521 119.341 162.521 136.092 162.521 153.452C145.685 153.452 128.918 153.452 111.373 153.452Z" fill="white"/>
<path d="M199.65 307.966C199.65 269.091 199.65 230.3 199.65 190.775C201.904 190.616 204.076 190.336 206.249 190.331C223.405 190.296 240.561 190.234 257.716 190.331C289.877 190.513 314.339 212.698 317.756 244.662C320.802 273.147 300.337 300.744 270.983 307.571C267.989 308.267 264.835 308.533 261.752 308.554C241.914 308.686 222.074 308.702 202.235 308.713C201.46 308.714 200.685 308.277 199.65 307.966Z" fill="#1241F3"/>
</svg>
