<svg width="500" height="501" viewBox="0 0 500 501" fill="none" xmlns="http://www.w3.org/2000/svg">
<path d="M250 491.93C383.377 491.93 491.5 383.806 491.5 250.43C491.5 117.053 383.377 8.92969 250 8.92969C116.623 8.92969 8.5 117.053 8.5 250.43C8.5 383.806 116.623 491.93 250 491.93Z" fill="#002352"/>
<path d="M250 496.249C216.82 496.249 184.62 489.749 154.32 476.929C139.76 470.769 125.7 463.149 112.56 454.269C99.54 445.469 87.3 435.369 76.18 424.249C65.06 413.129 54.96 400.889 46.16 387.869C37.28 374.729 29.66 360.689 23.5 346.109C10.7 315.809 4.20001 283.609 4.20001 250.429C4.20001 217.249 10.7 185.049 23.52 154.749C29.68 140.189 37.3 126.129 46.18 112.989C54.98 99.9689 65.08 87.7289 76.2 76.6089C87.32 65.5089 99.56 55.4089 112.58 46.6089C125.72 37.7289 139.76 30.1089 154.34 23.9489C184.64 11.1289 216.84 4.62891 250.02 4.62891C283.2 4.62891 315.4 11.1289 345.7 23.9489C360.26 30.1089 374.32 37.7289 387.46 46.6089C400.48 55.4089 412.72 65.5089 423.84 76.6289C434.96 87.7489 445.06 99.9889 453.86 113.009C462.74 126.149 470.36 140.189 476.52 154.769C489.34 185.069 495.84 217.269 495.84 250.449C495.84 283.629 489.34 315.829 476.52 346.129C470.36 360.689 462.74 374.749 453.86 387.889C445.06 400.909 434.96 413.149 423.84 424.269C412.72 435.389 400.48 445.489 387.46 454.289C374.32 463.169 360.28 470.789 345.7 476.949C315.38 489.749 283.18 496.249 250 496.249ZM250 13.2489C217.98 13.2489 186.92 19.5289 157.68 31.8889C143.62 37.8289 130.08 45.1889 117.4 53.7489C104.84 62.2289 93.02 71.9889 82.28 82.7089C71.56 93.4489 61.8 105.269 53.32 117.829C44.76 130.509 37.4 144.069 31.46 158.109C19.1 187.349 12.82 218.409 12.82 250.429C12.82 282.449 19.1 313.509 31.46 342.749C37.4 356.809 44.76 370.349 53.32 383.029C61.8 395.589 71.56 407.409 82.28 418.129C93.02 428.869 104.82 438.609 117.38 447.089C130.06 455.649 143.62 463.009 157.66 468.949C186.9 481.309 217.96 487.589 249.98 487.589C282 487.589 313.06 481.309 342.3 468.949C356.36 463.009 369.9 455.649 382.58 447.089C395.14 438.609 406.96 428.849 417.68 418.129C428.42 407.389 438.16 395.589 446.64 383.029C455.2 370.349 462.56 356.789 468.5 342.749C480.86 313.509 487.14 282.449 487.14 250.429C487.14 218.409 480.86 187.349 468.5 158.109C462.56 144.049 455.2 130.509 446.64 117.829C438.16 105.269 428.4 93.4489 417.68 82.7289C407 71.9889 395.18 62.2289 382.62 53.7489C369.94 45.1889 356.38 37.8289 342.34 31.8889C313.1 19.5089 282.02 13.2489 250 13.2489Z" fill="#0066CC"/>
<path d="M114.68 187.731H285.22C285.22 187.731 344.08 187.171 303.38 263.091C303.38 263.091 273.68 322.511 199.96 321.411L239.74 219.991C241.36 215.851 239.32 211.171 235.16 209.551C234.28 209.211 233.32 209.011 232.38 208.991L180.16 208.091L114.14 368.731C114.14 368.731 136.14 370.931 148.24 369.831L141.64 386.331H172.84C174.6 386.331 176.16 385.251 176.78 383.611L182.36 368.731L195.56 367.631L187.86 386.331H218.2C220.46 386.331 222.48 384.951 223.32 382.851L231.86 361.031C231.86 361.031 324.28 345.631 366.08 270.811C366.08 270.811 422.2 183.891 356.18 153.091C343.32 147.191 329.56 143.471 315.48 142.091L323.24 123.111C324.02 121.171 323.1 118.971 321.16 118.171C320.7 117.991 320.22 117.891 319.72 117.891H291.24L282.44 140.991H270.34L277.18 123.051C277.92 121.091 276.94 118.891 274.98 118.131C274.54 117.971 274.08 117.891 273.62 117.891H245.02L236.22 140.991H147.34C142.46 140.971 137.98 143.671 135.7 147.971L114.68 187.731Z" fill="white"/>
</svg>
