<svg width="500" height="501" viewBox="0 0 500 501" fill="none" xmlns="http://www.w3.org/2000/svg">
<path d="M250.3 498.029C386.825 498.029 497.5 387.354 497.5 250.829C497.5 114.304 386.825 3.62891 250.3 3.62891C113.775 3.62891 3.1001 114.304 3.1001 250.829C3.1001 387.354 113.775 498.029 250.3 498.029Z" fill="url(#paint0_linear_1_5240)"/>
<path d="M258.2 367.829H167.1V242.929H222.4V312.129H258.2C291.7 312.129 315.8 281.729 315.8 252.929V251.829C315.8 219.529 288.2 191.029 258.2 191.029H202.9C161.5 191.029 149.1 165.829 133.7 137.029H258.2C334.3 137.029 374.2 185.429 374.2 251.829V252.929C374.3 326.229 324.7 367.829 258.2 367.829Z" fill="white"/>
<defs>
<linearGradient id="paint0_linear_1_5240" x1="75.4928" y1="76.0448" x2="425.049" y2="425.601" gradientUnits="userSpaceOnUse">
<stop stop-color="#814BEC"/>
<stop offset="0.9996" stop-color="#3D6AD7"/>
</linearGradient>
</defs>
</svg>
