<svg width="500" height="501" viewBox="0 0 500 501" fill="none" xmlns="http://www.w3.org/2000/svg">
<path d="M50.3775 4.12695H449.622C475.404 4.12695 496.304 25.0268 496.304 50.8082V450.053C496.304 475.834 475.404 496.734 449.622 496.734H50.3775C24.5963 496.734 3.69629 475.834 3.69629 450.053V50.8082C3.69629 25.027 24.5963 4.12695 50.3775 4.12695Z" fill="#322A3F"/>
<path d="M247.004 135.332L152.294 332.808H309.528C314.086 332.807 318.204 335.524 319.996 339.714L320.163 340.097C321.341 342.845 321.163 345.988 319.68 348.584C317.011 353.234 312.061 356.103 306.699 356.107H139.596C137.019 356.105 134.499 355.341 132.356 353.91L131.474 353.327C127.844 350.903 125.665 346.825 125.666 342.46C125.662 340.489 126.106 338.543 126.964 336.768L238.716 106.791C239.884 104.39 241.545 102.264 243.592 100.55C247.593 97.2138 253.391 97.158 257.455 100.417C258.338 101.115 259.055 102.002 259.552 103.013L372.902 334.572C374.439 337.718 374.759 341.322 373.8 344.69C372.719 348.498 369.238 351.123 365.279 351.114H363.981C358.694 351.114 353.883 348.06 351.633 343.276L253.877 135.366C252.998 133.463 250.743 132.634 248.841 133.513C248.035 133.886 247.384 134.529 247.004 135.332Z" fill="#F4AE95"/>
</svg>
