<svg width="500" height="501" viewBox="0 0 500 501" fill="none" xmlns="http://www.w3.org/2000/svg">
<path d="M194.6 229.629L137.8 131.329L80.5004 32.0289C77.2004 26.4289 72.6004 21.6289 67.1004 18.1289H66.2004C60.3004 21.5289 55.5004 26.4289 52.3004 32.4289L9.30039 106.829C3.10039 117.429 3.10039 130.629 9.30039 141.229L60.9004 230.529C64.5004 236.729 66.3004 243.829 66.2004 251.029C66.1004 258.229 64.3004 265.229 60.9004 271.529L9.80039 360.029C3.60039 370.629 3.60039 383.829 9.80039 394.429L52.8004 468.829C56.0004 474.629 60.6004 479.529 66.2004 483.129H66.6004C72.3004 479.929 77.1004 475.229 80.5004 469.629L137.8 370.329L194.6 271.929C201.8 258.829 201.8 242.829 194.6 229.629Z" fill="url(#paint0_linear_1_5246)"/>
<path opacity="0.25" d="M215.3 229.629L158.3 131.329L101.3 32.0289C98.0004 26.4289 93.4004 21.6289 87.9004 18.1289H87.5004C81.6004 21.5289 76.8004 26.4289 73.6004 32.4289L30.6004 106.829C24.4004 117.429 24.4004 130.629 30.6004 141.229L82.2004 230.529C85.8004 236.729 87.6004 243.829 87.5004 251.029C87.4004 258.229 85.6004 265.229 82.2004 271.529L30.3004 360.029C24.1004 370.629 24.1004 383.829 30.3004 394.429L73.3004 468.829C76.6004 474.729 81.4004 479.629 87.2004 483.129H87.6004C93.3004 479.929 98.0004 475.229 101.3 469.629L158.3 370.029L215.3 271.629C222.4 258.529 222.4 242.729 215.3 229.629Z" fill="url(#paint1_linear_1_5246)"/>
<path opacity="0.25" d="M489.101 227.229L432.301 128.429L373.601 26.3293C370.901 21.7293 367.301 17.6293 363.101 14.4293C361.001 12.6293 358.301 11.5293 355.601 11.5293C325.501 11.5293 305.001 12.5293 289.801 12.5293C287.401 12.5293 285.901 15.4293 286.501 17.8293L301.301 100.829C301.401 101.829 301.201 102.829 300.901 103.729C295.201 114.429 295.601 127.329 301.901 137.629L354.501 229.229C358.201 235.629 360.201 242.929 360.201 250.229C360.201 257.629 358.201 264.829 354.501 271.229L301.001 362.829C295.001 373.229 294.601 386.029 300.001 396.729C300.401 397.629 300.501 398.629 300.401 399.629L285.501 482.029C285.101 484.429 286.501 487.329 288.801 487.329C302.701 487.329 283.101 488.729 356.601 488.729C358.201 488.629 359.801 488.329 361.301 487.729C366.601 485.829 370.101 479.529 372.801 474.429L431.501 372.429L488.301 273.629C497.401 259.529 497.701 241.629 489.101 227.229Z" fill="url(#paint2_linear_1_5246)"/>
<path d="M466.201 229.629L351.601 32.0293C344.301 19.5293 331.001 11.8293 316.501 11.5293H88.5006C80.6006 11.5293 72.9006 13.6293 66.1006 17.7293V18.1293C71.7006 21.5293 76.3006 26.2293 79.4006 32.0293L136.701 131.329C142.201 128.829 148.201 127.529 154.201 127.429H249.001C263.601 127.329 277.001 135.229 284.101 147.929L331.401 229.529C338.601 242.229 338.601 257.829 331.401 270.529L284.601 352.629C277.301 365.129 264.001 372.829 249.501 373.129H155.501C149.401 373.129 143.501 371.829 138.001 369.229L81.0006 468.729C77.7006 474.329 73.1006 479.029 67.7006 482.629V483.029C74.2006 487.029 81.6006 489.129 89.2006 489.229H317.901C332.501 489.329 345.901 481.429 353.001 468.729L466.101 270.629C473.201 258.029 473.301 242.429 466.201 229.629Z" fill="url(#paint3_linear_1_5246)"/>
<defs>
<linearGradient id="paint0_linear_1_5246" x1="5.11185" y1="250.645" x2="199.825" y2="250.645" gradientUnits="userSpaceOnUse">
<stop stop-color="#00BA95"/>
<stop offset="0.52" stop-color="#00D9AD"/>
<stop offset="1" stop-color="#00F9AB"/>
</linearGradient>
<linearGradient id="paint1_linear_1_5246" x1="25.6783" y1="250.645" x2="220.619" y2="250.645" gradientUnits="userSpaceOnUse">
<stop stop-color="#00BA95"/>
<stop offset="0.52" stop-color="#00D9AD"/>
<stop offset="1" stop-color="#00D9AD"/>
</linearGradient>
<linearGradient id="paint2_linear_1_5246" x1="285.327" y1="250.158" x2="495.316" y2="250.158" gradientUnits="userSpaceOnUse">
<stop stop-color="#008D85"/>
<stop offset="1" stop-color="#00FFDE"/>
</linearGradient>
<linearGradient id="paint3_linear_1_5246" x1="66.2017" y1="250.44" x2="471.065" y2="250.44" gradientUnits="userSpaceOnUse">
<stop stop-color="#008D95"/>
<stop offset="1" stop-color="#00FFDE"/>
</linearGradient>
</defs>
</svg>
