<svg width="500" height="501" viewBox="0 0 500 501" fill="none" xmlns="http://www.w3.org/2000/svg">
<mask id="mask0_1_5254" style="mask-type:luminance" maskUnits="userSpaceOnUse" x="0" y="57" width="500" height="387">
<path d="M500 57.1289H0V443.829H500V57.1289Z" fill="white"/>
</mask>
<g mask="url(#mask0_1_5254)">
<path fill-rule="evenodd" clip-rule="evenodd" d="M175.1 331.23C174.9 330.83 174.7 330.53 174.5 330.23C174 329.43 173 329.13 172.1 329.43C170.9 329.73 170.5 330.03 170.1 329.13C169.6 327.73 169.3 326.33 169.1 324.93C168.1 320.93 166.5 317.03 164.4 313.53C160.6 307.63 157.1 301.43 154.1 295.13C158.2 290.23 160.9 279.73 163.6 273.53C159.1 281.03 155.8 290.33 148.9 296.23C147.5 300.23 145.9 304.13 144.1 307.93C143.1 318.33 147.4 324.23 146 327.13C146.6 329.13 148.1 330.73 150 331.63C150.5 332.43 151 333.33 151.6 334.23C159.3 333.13 167.1 332.13 175.1 331.23ZM266 327.33C265.4 326.63 264.6 326.03 263.9 325.43C264.6 323.23 265.5 322.63 265 321.03C264.6 319.73 262.2 321.63 262 319.83C262 317.43 262.3 315.13 262.9 312.83C263.8 308.13 264.1 303.43 263.6 298.73C263 293.93 261.7 289.33 260.9 283.93C264.3 285.13 267.8 286.13 271.4 286.83C266.9 284.23 262 282.23 256.9 281.03C252.5 280.53 248.1 280.63 243.7 281.33C239 281.73 234.3 282.73 229.8 284.13C225.3 285.73 221.9 289.53 217 290.33C216.1 293.13 216.4 293.53 213.6 294.13C213.7 294.63 213.9 295.13 214 295.63C213.2 295.23 212.5 294.73 211.9 294.03C211.9 294.63 212 295.23 212.2 295.73C210.6 293.93 209.5 291.83 208 290.13C204 285.53 193.6 282.83 185.3 280.43C179.5 278.83 173.6 277.73 167.7 276.93C170.9 277.93 174 279.13 176.9 280.73C176 285.13 174.5 289.33 172.6 293.33C171.6 296.53 171.2 299.83 171.5 303.23C172.3 307.33 174 311.23 176.7 314.53C178.2 317.13 180.2 321.33 181.5 324.03C182.5 325.43 183.8 326.53 185.3 327.23C186.1 328.13 186.9 329.13 187.6 330.13C213.6 327.63 239.8 326.73 266 327.33ZM287.2 328.13C287.1 328.03 287 327.93 287 327.83C287.1 325.93 287.1 325.33 286.3 324.53C285.9 324.23 285 325.33 284.2 324.83C284.3 320.33 284 315.73 283.3 311.23C282.6 302.73 277.7 299.53 276.2 291.23C275.7 295.33 274.5 299.23 272.7 302.93C272.1 309.63 274.4 317.53 273.3 319.73C273.9 321.53 275.3 323.13 275.9 322.83C277.2 324.83 278 326.03 279.2 327.83C281.8 327.93 284.5 328.03 287.2 328.13ZM106.9 356.93C137.1 406.03 188.6 438.13 246 443.83C183.8 442.63 126.1 411.23 91.3 359.63C60.3 365.23 29.8 373.03 0 383.13C38.3 360.83 86.9 345.23 139.6 336.23C139.2 333.63 138.8 332.33 137.8 331.53C136 330.13 133.2 333.43 134.1 329.03C135.8 320.83 133.5 308.93 132.9 300.43C131.8 295.13 132 289.63 133.6 284.43C134.8 281.93 135.9 279.23 136.8 276.63C137.1 272.53 135.8 268.53 133.2 265.43C128.1 256.63 129.3 248.13 129.1 238.13C126.9 249.03 126.1 260.13 126.7 271.33C132.6 288.63 129.3 301.03 120 316.83C124.2 305.23 120.1 299.23 120.8 290.13C119.4 295.33 119.2 300.83 120.2 306.13C113.8 288.13 122.5 281.13 123 267.73C123.6 251.03 123.1 232.83 129.3 218.43C134.1 207.23 146.2 205.73 159.9 205.33C185.3 204.53 200.4 207.53 221 207.63C229.9 207.03 238.8 205.93 247.5 204.43C269.6 202.13 288.5 201.03 307.6 195.13C312.6 193.63 316.7 190.33 322 188.23C324.8 187.13 327.9 187.43 330.5 188.93C334.5 190.73 338.3 193.23 341.6 196.23C345.9 195.23 350.4 194.63 354.9 194.63C355.6 199.33 350.1 202.43 346.7 204.33C346.7 207.03 346.6 208.63 346.6 211.33C350.7 215.53 351.9 218.93 355.8 221.23C357 222.53 357.2 224.33 356.4 225.83C355.9 230.63 356.6 231.53 352.3 232.33C350.2 234.83 346.9 235.83 343.8 234.83C340.2 236.23 337.7 239.63 333.9 240.33C333.1 240.43 332.2 240.73 331.5 241.23C330.1 242.03 328.5 242.43 326.9 242.43C321.8 242.73 315 251.63 312.8 258.23C312.4 264.63 310.8 270.93 308 276.63C304.7 282.23 300.8 282.63 294 290.73C294.8 284.53 295.1 278.33 295 272.03C293 280.83 292 289.73 292 298.73C291.9 300.03 291.6 301.33 291.1 302.43C290.7 304.83 291.1 307.23 292 309.43C293.3 312.43 294.2 315.63 294.8 318.83C295.4 320.73 296.7 322.33 298.5 323.33L302.2 329.03C331.1 331.13 359.7 335.33 388 341.43C385.1 345.93 381.9 350.33 378.6 354.53C288.3 342.03 196.8 342.73 106.9 356.93ZM345.5 82.8295C373.7 99.2295 397.3 122.53 413.9 150.53C355.4 67.5295 240.6 47.6295 157.6 106.23C135.5 121.83 117.1 142.03 103.7 165.53C73.4 218.53 70.8 282.93 96.8 338.23C91.4 339.53 86.1 340.83 80.9 342.23C50 283.13 51.5 212.33 84.9 154.53C135.9 63.1295 251.4 30.3295 342.8 81.3295C343.7 81.8295 344.6 82.3295 345.5 82.8295ZM500 383.13C472.5 373.83 444.3 366.43 415.8 360.93C418 357.63 420.1 354.23 422.1 350.73L422.3 350.43C449.3 358.23 475.5 369.23 500 383.13Z" fill="#125C0A"/>
<path fill-rule="evenodd" clip-rule="evenodd" d="M397.3 143.129C445.9 200.429 453.4 282.029 416 347.229C368.1 431.429 261 460.829 176.9 412.829C154.6 400.129 135.3 382.629 120.4 361.629C180.3 433.829 287.4 443.729 359.6 383.829C375.3 370.729 388.6 354.929 398.7 337.129C425.4 290.529 428.9 234.229 408.2 184.729C390.6 142.429 355.8 118.529 314.2 116.829C357.5 127.929 381 148.229 395.5 183.329C315.5 200.129 317.9 113.129 257.6 99.4287C315.2 79.9287 367.9 108.529 397.3 143.129Z" fill="#479E17"/>
</g>
</svg>
