<svg width="500" height="519" viewBox="0 0 500 519" fill="none" xmlns="http://www.w3.org/2000/svg">
<path d="M491.535 211.819C488.116 195.164 482.009 179.177 473.452 164.485C455.901 135.234 417.609 92.6874 369.744 59.1818C369.744 59.1818 333.579 35.7809 316.56 27.8035C254.335 -0.915637 184.665 -6.76597 125.099 45.886C25.1133 134.703 -24.8793 258.621 25.1133 382.007C26.1769 384.666 53.8324 460.187 219.766 510.712C292.627 512.839 335.174 508.584 381.976 481.461C443.137 446.359 478.77 382.539 491.534 317.655C495.257 297.977 495.789 231.497 491.535 211.819Z" fill="#04FFCC"/>
<path d="M297.945 36.8444V155.444L160.731 146.935L104.356 218.201L97.4424 352.755L144.244 402.748L214.447 437.849L306.454 447.954L406.439 422.426V175.122L387.293 72.4775C387.293 72.4775 333.578 30.4623 298.477 20.3574" fill="#7DF8FB"/>
<path d="M458.56 330.95C439.414 329.887 450.051 299.572 441.542 265.003C431.437 226.71 446.328 200.119 466.006 201.182C475.247 202.622 484.004 206.271 491.534 211.819C488.116 195.164 482.008 179.177 473.452 164.485C455.901 135.234 417.609 92.6874 369.744 59.1818V379.879C369.762 397.767 355.275 412.283 337.388 412.301C324.831 412.314 313.399 405.068 308.051 393.707C248.806 430.426 171.012 412.165 134.293 352.921C97.574 293.676 115.835 215.882 175.079 179.163C214.672 154.624 264.561 153.888 304.86 177.25V52.7997C304.682 43.1059 309.002 33.8758 316.56 27.8035C254.335 -0.915641 184.665 -6.76596 125.099 45.886C25.1134 134.703 -24.8794 258.621 25.1134 382.007C26.177 384.666 27.2407 387.325 28.3045 389.452C29.7662 386.467 31.7471 383.766 34.1546 381.475C60.2147 354.883 88.9338 409.13 150.095 440.509C188.919 460.187 211.256 486.247 219.766 510.711C276.672 517.625 335.174 508.584 381.976 481.46C443.137 446.359 478.77 382.539 491.534 317.655C482.349 325.665 470.733 330.348 458.56 330.95ZM250.08 78.8596C264.44 78.3277 277.736 95.3466 278.268 103.324C278.8 111.302 266.035 108.111 252.207 112.897C236.784 118.216 225.616 113.429 225.084 105.451C224.552 97.4739 235.189 79.3916 250.08 78.8596Z" fill="#2C398F"/>
<path d="M218.702 333.078C249.548 350.629 286.777 343.715 293.691 304.359C297.414 281.49 295.286 245.857 275.077 234.688C208.065 196.396 151.69 294.786 218.702 333.078Z" fill="#2C398F"/>
</svg>
