<svg width="500" height="501" viewBox="0 0 500 501" fill="none" xmlns="http://www.w3.org/2000/svg">
<path d="M249.288 4.42986C384.927 4.27286 495.047 114.048 495.083 249.455C495.119 385.154 385.315 495.446 249.843 494.983C115.219 494.523 5.0068 385.429 4.5328 250.432C4.0558 114.644 113.816 4.58686 249.288 4.42986ZM245.368 214.656C235.923 222.72 228.433 228.379 221.838 234.937C214.083 242.649 212.665 251.828 221.082 259.817C229.191 267.513 237.971 265.43 245.363 258.061C261.408 242.065 277.269 225.881 293.066 209.639C300.947 201.535 301.242 192.837 293.315 184.669C277.537 168.411 261.534 152.37 245.531 136.333C237.815 128.601 229.032 126.367 220.747 134.744C212.487 143.096 214.826 151.711 222.504 159.555C228.249 165.424 233.801 171.482 240.545 178.629C236.489 178.826 234.744 178.971 232.997 178.986C166.194 179.578 117.802 228.685 118.48 295.208C119.057 351.833 167.031 401.491 223.465 403.877C284.362 406.451 338.705 362.196 341.248 303.53C343.947 241.261 342.409 178.801 342.324 116.424C342.31 105.938 336.379 98.8429 325.085 99.5509C313.155 100.299 309.789 108.742 309.779 119.338C309.724 176.432 309.701 233.526 309.536 290.62C309.463 315.964 299.82 337.106 280.04 353.021C254.136 373.863 217.383 376.072 189.907 359.047C160.679 340.937 146.359 308.057 153.18 274.721C161.347 234.806 203.393 205.209 245.368 214.656Z" fill="url(#paint0_linear_1_5269)"/>
<path d="M245.368 214.657C203.393 205.21 161.347 234.807 153.18 274.721C146.359 308.057 160.679 340.937 189.907 359.047C217.383 376.072 254.136 373.863 280.04 353.021C299.82 337.106 309.463 315.964 309.536 290.62C309.701 233.526 309.724 176.432 309.779 119.338C309.789 108.743 313.154 100.3 325.085 99.5506C336.38 98.8426 342.31 105.938 342.324 116.424C342.409 178.8 343.947 241.26 341.248 303.53C338.705 362.197 284.361 406.452 223.465 403.877C167.032 401.491 119.057 351.833 118.48 295.208C117.802 228.686 166.194 179.579 232.997 178.986C234.744 178.971 236.489 178.825 240.545 178.629C233.801 171.482 228.249 165.424 222.504 159.555C214.826 151.711 212.486 143.096 220.747 134.744C229.032 126.367 237.815 128.6 245.531 136.333C261.534 152.37 277.538 168.411 293.315 184.669C301.241 192.837 300.947 201.536 293.066 209.639C277.269 225.881 261.408 242.065 245.363 258.061C237.971 265.43 229.19 267.513 221.082 259.817C212.665 251.828 214.084 242.649 221.838 234.937C228.432 228.38 235.923 222.721 245.368 214.657Z" fill="white"/>
<defs>
<linearGradient id="paint0_linear_1_5269" x1="73.0487" y1="426.479" x2="429.049" y2="70.4788" gradientUnits="userSpaceOnUse">
<stop stop-color="#70B3DF"/>
<stop offset="1" stop-color="#7D64BD"/>
</linearGradient>
</defs>
</svg>
