<svg width="500" height="501" viewBox="0 0 500 501" fill="none" xmlns="http://www.w3.org/2000/svg">
<path fill-rule="evenodd" clip-rule="evenodd" d="M308.4 161.829C310.5 158.529 312.5 154.729 314.1 150.729C316.9 143.829 318.4 136.929 318.8 130.629C320.3 117.329 317.1 106.629 309.6 103.329C302.2 100.129 292.5 105.129 284.2 115.129C284.2 114.429 284.2 113.829 284.2 113.129C284.2 85.4293 271.6 63.0293 256.2 63.0293C240.8 63.0293 228.2 85.4293 228.2 113.129C228.2 115.129 228.3 117.029 228.4 118.929C219 106.029 206.6 99.3293 197.7 103.629C186.6 108.929 185.3 129.329 194.7 149.029C196.3 152.329 199.8 158.029 201.7 160.829C81.5996 180.029 13.1996 277.529 4.59961 437.429H71.7996C78.8996 305.729 140.1 231.429 250.6 233.729C352.1 235.829 429.7 302.429 428.6 437.429H495.8C497 278.229 418.8 186.529 308.4 161.829Z" fill="#FFF700"/>
<path fill-rule="evenodd" clip-rule="evenodd" d="M194.8 311.43C186.7 311.43 180.1 318.83 180.1 327.83V368.23C180.1 377.33 186.7 384.63 194.8 384.63C202.9 384.63 209.5 377.23 209.5 368.23V327.83C209.4 318.83 202.9 311.43 194.8 311.43Z" fill="#FFF700"/>
<path fill-rule="evenodd" clip-rule="evenodd" d="M312.1 311.43C304 311.43 297.4 318.83 297.4 327.83V368.23C297.4 377.33 304 384.63 312.1 384.63C320.2 384.63 326.8 377.23 326.8 368.23V327.83C326.7 318.83 320.1 311.43 312.1 311.43Z" fill="#FFF700"/>
</svg>
