<svg width="500" height="501" viewBox="0 0 500 501" fill="none" xmlns="http://www.w3.org/2000/svg">
<path d="M249.4 498.23C386.311 498.23 497.3 387.241 497.3 250.33C497.3 113.418 386.311 2.42969 249.4 2.42969C112.489 2.42969 1.5 113.418 1.5 250.33C1.5 387.241 112.489 498.23 249.4 498.23Z" fill="url(#paint0_linear_1_5767)"/>
<path d="M293.8 132.529V95.5293H258.7V130.329H226.2V95.5293H191.1V130.329H155.6V165.429H273C308.5 165.429 337.3 194.329 337.3 229.729V271.129C337.3 306.629 308.4 335.429 273 335.429H155V370.529H191.1V405.829H226.2V370.529H258.7V405.829H293.8V368.329C338.6 358.729 372.4 318.829 372.4 271.129V229.729C372.4 182.029 338.6 142.129 293.8 132.529Z" fill="white"/>
<defs>
<linearGradient id="paint0_linear_1_5767" x1="1.4442" y1="250.374" x2="497.272" y2="250.374" gradientUnits="userSpaceOnUse">
<stop stop-color="#6118B1"/>
<stop offset="1" stop-color="#CC34FF"/>
</linearGradient>
</defs>
</svg>
