<svg width="500" height="501" viewBox="0 0 500 501" fill="none" xmlns="http://www.w3.org/2000/svg">
<g clip-path="url(#clip0_1_5770)">
<path d="M73.3 73.6305C108.1 38.6305 152.5 14.8305 200.8 5.2305C249.1 -4.3695 299.2 0.530504 344.6 19.4305C390.1 38.4305 429 70.4305 456.3 111.531C483.7 152.63 498.3 200.931 498.3 250.431C498.3 299.931 483.7 348.23 456.3 389.331C429 430.431 390.1 462.431 344.6 481.431C299.1 500.331 249.1 505.331 200.8 495.631C152.5 486.031 108.1 462.13 73.3 427.23C26.7 380.331 0.5 316.731 0.5 250.431C0.5 184.131 26.7 120.531 73.3 73.6305ZM421.2 422.931C455.2 388.831 478.4 345.331 487.7 298.031C497.1 250.731 492.3 201.631 473.9 157.031C455.5 112.431 424.4 74.2305 384.4 47.4305C344.4 20.6305 297.4 6.3305 249.4 6.3305C201.4 6.3305 154.3 20.6305 114.4 47.4305C74.4 74.2305 43.3 112.331 24.9 156.931C6.5 201.531 1.7 250.631 11.1 297.931C20.5 345.23 43.6 388.73 77.6 422.831C123.2 468.531 185 494.131 249.4 494.131C313.8 494.131 375.6 468.631 421.2 422.931Z" fill="url(#paint0_linear_1_5770)"/>
<path d="M94.1999 94.6295C142.1 46.5295 195.9 18.2295 249.8 13.0295C309.7 7.22955 367.9 30.7295 418 81.0295C468.1 131.33 491.5 189.73 485.7 249.93C480.4 304.03 452.3 358.03 404.4 406.13C356.5 454.23 302.7 482.53 248.9 487.73C189 493.63 130.9 470.13 80.6999 419.73C30.6999 369.43 7.09994 311.03 12.9999 250.93C18.1999 196.73 46.2999 142.73 94.1999 94.6295ZM400.2 401.93C479.7 322.13 525 197.03 413.8 85.3296C302.6 -26.2704 177.9 19.0295 98.3999 98.8296C18.8999 178.73 -26.4001 303.83 84.9999 415.63C196.4 527.43 320.7 481.73 400.2 401.93Z" fill="url(#paint1_linear_1_5770)"/>
<path d="M115.1 115.629C152.8 77.7288 198.3 37.5288 250.2 25.8288C304 13.7288 356.5 34.2288 410.7 88.6288C464.9 143.029 485.3 195.729 473.1 249.629C461.4 301.529 421.2 347.229 383.5 385.129C345.8 423.029 300.3 463.329 248.6 475.129C194.9 487.329 142.4 466.829 88.3002 412.529C34.1002 358.129 13.6002 305.429 25.7002 251.329C37.3002 199.229 77.4002 153.529 115.1 115.629ZM379.3 380.929C473.5 286.229 514.2 201.029 406.5 92.9288C298.8 -15.1712 213.6 25.3288 119.3 119.929C25.0002 214.429 -15.5998 299.729 92.4002 408.129C200.5 516.629 285 475.529 379.3 380.929Z" fill="url(#paint2_linear_1_5770)"/>
<path d="M91.3999 180.331C98.3999 173.331 105.7 166.331 113 159.231C128.1 144.631 143.9 128.731 158.4 113.631C198.8 71.6306 236.6 32.0306 285.2 31.6306C321 31.2306 359.6 52.4306 403.2 96.3306C446.9 140.231 467.8 178.731 467.4 214.531C466.9 263.031 427.6 301.031 386 341.031C370.5 356.031 354.3 372.231 339.4 387.831C299.4 429.631 261.6 469.131 213.3 469.631C177.6 470.031 139.1 448.931 95.5999 405.231C51.9999 361.331 30.8999 322.431 31.1999 286.531C31.6999 246.331 58.5999 213.331 91.3999 180.331ZM140.2 140.831C132.5 148.531 124.7 156.131 117.1 163.431C76.1999 202.931 37.5999 240.231 37.1999 286.531C36.8999 320.731 57.3999 358.131 99.8999 400.731C142.4 443.331 179.4 463.831 213.4 463.531C259.2 463.031 296.2 424.431 335.3 383.531C350.3 367.931 366.5 351.531 382.1 336.531C422.8 297.231 461.2 260.131 461.7 214.131C462.1 180.031 441.6 142.731 399.2 100.231C356.7 57.7306 319.4 37.1306 285.3 37.4306C239.2 37.8306 202.1 76.6306 162.7 117.631C155.4 125.331 147.9 133.131 140.2 140.831Z" fill="url(#paint3_linear_1_5770)"/>
<path d="M231.9 67.3294C247.2 51.9294 263.8 41.0294 283.9 39.7294C314.8 37.6294 350.5 57.9294 396 103.629C441.5 149.329 461.5 184.729 459.4 215.829C457 251.429 424.8 275.929 390.8 301.729C374.2 314.429 356.8 327.529 341.6 342.829C326.4 358.129 313.3 375.429 300.6 392.229C274.8 426.429 250.4 458.729 215 461.229C184.1 463.329 148.6 443.129 103.3 397.529C58.0002 351.829 37.5002 316.229 39.6002 285.129C42.0002 249.329 74.2002 224.729 108.3 198.529C124.8 185.929 141.9 172.829 157 157.629C172.1 142.429 185.1 125.329 197.7 108.729C209 93.8294 220.1 79.2294 231.9 67.3294ZM428.4 263.029C442.7 248.729 452.2 233.729 453.5 215.529C455.4 186.729 435.3 151.529 391.7 107.929C348.1 64.3294 313 43.8294 284.4 45.8294C251.5 48.0294 228.8 77.9294 202.5 112.429C189.8 129.129 176.6 146.429 161.2 161.929C145.8 177.329 128.6 190.529 111.9 203.329C77.5002 229.729 47.7002 252.529 45.5002 285.529C43.6002 314.429 63.8002 349.729 107.3 393.429C150.8 437.129 185.7 457.329 214.5 455.529C247.2 453.329 269.7 423.429 295.8 388.929C308.6 372.029 321.8 354.529 337.3 338.829C352.8 323.129 370.2 309.929 387.1 297.129C402.5 285.429 416.9 274.429 428.4 263.029Z" fill="url(#paint4_linear_1_5770)"/>
<path d="M62.3001 254.03C75.0001 241.33 93.9001 231.33 113.6 220.93C136.4 209.03 160 196.53 177.8 178.63C195.6 160.73 208 137.03 220 114.23C236.6 82.23 252.5 52.03 280.4 47.73C307.1 43.63 341.5 63.83 388.6 111.23C435.8 158.63 455.7 192.93 451.6 219.53C447.3 247.33 417.2 263.03 385.3 279.63C362.3 291.53 338.5 304.03 320.6 322.03C302.7 340.03 290.3 363.93 278.4 387.03C261.8 419.03 246.2 449.33 218.5 453.63C192 457.73 157.7 437.63 110.6 390.43C63.5001 343.13 43.4001 308.53 47.4001 281.73C49.3001 271.03 54.5001 261.33 62.3001 254.03ZM182 182.83C163.5 201.33 139.6 214.03 116.4 226.23C84.6001 242.93 57.0001 257.53 53.3001 282.43C49.6001 306.83 69.7001 340.73 114.8 386.03C159.9 431.33 193.4 451.33 217.6 447.63C242.3 443.83 256.6 416.13 273.1 384.23C285.2 360.73 297.8 336.53 316.4 317.73C335 299.03 359.2 286.43 382.6 274.23C414.4 257.53 441.9 243.23 445.7 218.43C449.4 194.23 429.4 160.43 384.4 115.23C339.4 70.03 305.6 49.73 281.3 53.43C256.4 57.23 242 84.83 225.3 116.83C213.1 140.23 200.5 164.33 182 182.83Z" fill="url(#paint5_linear_1_5770)"/>
<path d="M63.8001 262.33C76.3001 249.73 99.1001 242.83 123 235.53C151.2 226.93 180.4 218.03 198.8 199.63C217.2 181.23 226 151.93 234.6 123.53C244.3 91.4296 253.6 61.0296 276.3 55.2296C299 49.4296 332.5 69.5296 381.3 118.63C430.1 167.73 450 200.83 444.3 223.63C438.6 246.43 408.2 255.53 376.1 265.13C347.6 273.63 318.2 282.43 299.7 300.93C281.3 319.43 272.6 348.93 264 377.63C254.5 409.83 245.4 440.33 222.7 446.03C200 451.73 166.8 431.73 118.1 382.83C69.4001 333.93 49.1001 300.33 54.9001 277.43C56.4001 271.63 59.5001 266.43 63.8001 262.33ZM431.2 234.33C434.6 231.03 437.1 226.83 438.3 222.13C443.4 201.93 423.3 169.43 376.9 122.83C330.5 76.2296 297.9 55.8296 277.6 60.9296C258 65.8296 249.3 94.6296 240.1 125.13C231.7 152.83 222.2 184.23 202.8 203.73C183.4 223.23 152.1 232.73 124.5 241.13C94.1001 250.43 65.4001 259.13 60.5001 278.83C55.4001 299.23 75.5001 331.83 122.1 378.53C168.6 425.23 200.9 445.33 221 440.13C240.5 435.13 249 406.33 258.1 375.73C266.4 347.73 275.8 316.03 295.3 296.53C314.8 276.93 346.4 267.53 374.2 259.23C397.6 252.43 419.9 245.83 431.2 234.33Z" fill="url(#paint6_linear_1_5770)"/>
<path d="M263 67.9288C265.5 65.4288 268.5 63.5288 271.8 62.3288C291.6 55.4288 323 75.0288 373.9 126.129C424.7 177.229 444.1 208.529 437.2 228.229C430.3 247.929 399.9 250.929 364.7 254.729C332.7 258.129 296.5 262.029 278.7 279.929C260.9 297.829 257.1 334.129 253.6 366.229C249.8 401.629 246.5 432.229 227.2 439.029C207.9 445.929 176.3 426.429 125.6 375.429C74.6999 324.529 54.9999 292.829 61.8999 273.029C68.7999 253.229 99.0999 250.029 134.2 246.029C165.9 242.429 201.8 238.329 219.5 220.629C237.2 202.929 241.2 166.729 244.8 134.929C248.2 105.729 251.1 79.8288 263 67.9288ZM427.5 232.629C429.3 230.829 430.7 228.729 431.5 226.329C437.4 209.629 417.2 178.229 369.6 130.529C321.9 82.8288 290.5 62.2288 273.7 68.1288C257.8 73.7288 254.4 103.929 250.8 135.729C247.1 168.529 243 205.729 223.8 224.929C204.6 244.129 167.6 248.329 134.9 252.029C103.1 255.629 73.0999 259.029 67.4999 275.029C61.5999 291.929 81.8999 323.429 129.6 371.329C177.3 419.229 208.4 439.429 225.1 433.429C241 427.829 244.1 397.629 247.6 365.529C251.1 332.429 255.1 294.929 274.4 275.529C293.7 256.229 331 252.229 364 248.629C391.2 245.829 417 243.029 427.5 232.629Z" fill="url(#paint7_linear_1_5770)"/>
<path d="M261.7 72.6293C263.2 71.1293 265 69.9293 266.9 69.0293C283.8 61.5293 314.4 81.4293 366.5 133.629C418.6 185.829 438.1 216.329 430.7 233.129C423.3 249.929 390.1 248.529 352 246.529C315.5 244.629 274.2 242.329 257.8 258.829C241.4 275.229 243.5 316.729 245.6 353.429C247.6 391.629 249.4 424.829 232.3 432.429C215.7 439.929 185 420.129 133.2 368.029C81.3998 315.929 61.3998 285.029 68.8998 268.029C76.3998 251.029 109.3 252.329 147.3 254.229C183.5 255.929 224.5 257.929 240.8 241.529C257.1 225.129 255.1 184.029 253.4 147.629C251.6 114.029 250.1 84.3293 261.7 72.6293ZM422.9 234.029C423.9 233.129 424.7 232.029 425.3 230.729C431.4 217.029 410.2 185.829 362.4 137.829C314.6 89.8293 283.1 68.3293 269.3 74.4293C255.6 80.5293 257.4 114.429 259.1 147.429C261 186.829 262.9 227.529 244.8 245.829C226.7 264.129 186.1 262.129 146.9 260.129C114.1 258.529 80.1998 256.929 74.1998 270.429C68.1998 283.929 89.2998 315.629 137.3 363.729C185.2 411.829 216.2 432.929 229.8 426.829C243.4 420.729 241.4 386.629 239.6 353.529C237.5 313.829 235.3 272.729 253.6 254.429C271.9 236.129 312.7 238.329 352.3 240.429C382.2 242.229 413.1 243.929 422.9 234.029Z" fill="url(#paint8_linear_1_5770)"/>
</g>
<defs>
<linearGradient id="paint0_linear_1_5770" x1="426.101" y1="74.3844" x2="72.5511" y2="426.477" gradientUnits="userSpaceOnUse">
<stop stop-color="#414FA2"/>
<stop offset="1" stop-color="#EE4492"/>
</linearGradient>
<linearGradient id="paint1_linear_1_5770" x1="418.689" y1="81.7569" x2="80.0044" y2="419.045" gradientUnits="userSpaceOnUse">
<stop stop-color="#574EA0"/>
<stop offset="1" stop-color="#D84594"/>
</linearGradient>
<linearGradient id="paint2_linear_1_5770" x1="411.178" y1="89.1533" x2="87.3856" y2="411.61" gradientUnits="userSpaceOnUse">
<stop stop-color="#6C4C9E"/>
<stop offset="1" stop-color="#C34796"/>
</linearGradient>
<linearGradient id="paint3_linear_1_5770" x1="403.689" y1="96.5525" x2="94.7778" y2="404.19" gradientUnits="userSpaceOnUse">
<stop stop-color="#824B9C"/>
<stop offset="1" stop-color="#AD4898"/>
</linearGradient>
<linearGradient id="paint4_linear_1_5770" x1="396.321" y1="103.949" x2="102.445" y2="396.613" gradientUnits="userSpaceOnUse">
<stop stop-color="#984A9A"/>
<stop offset="1" stop-color="#984A9A"/>
</linearGradient>
<linearGradient id="paint5_linear_1_5770" x1="388.947" y1="111.535" x2="109.809" y2="389.522" gradientUnits="userSpaceOnUse">
<stop stop-color="#AD4898"/>
<stop offset="1" stop-color="#824B9C"/>
</linearGradient>
<linearGradient id="paint6_linear_1_5770" x1="381.596" y1="118.996" x2="117.373" y2="382.128" gradientUnits="userSpaceOnUse">
<stop stop-color="#C34796"/>
<stop offset="1" stop-color="#6C4C9E"/>
</linearGradient>
<linearGradient id="paint7_linear_1_5770" x1="374.132" y1="126.44" x2="124.767" y2="374.777" gradientUnits="userSpaceOnUse">
<stop stop-color="#D84594"/>
<stop offset="1" stop-color="#574EA0"/>
</linearGradient>
<linearGradient id="paint8_linear_1_5770" x1="366.835" y1="133.935" x2="132.433" y2="367.37" gradientUnits="userSpaceOnUse">
<stop stop-color="#EE4492"/>
<stop offset="1" stop-color="#414FA2"/>
</linearGradient>
<clipPath id="clip0_1_5770">
<rect width="500" height="500" fill="white" transform="translate(0 0.429688)"/>
</clipPath>
</defs>
</svg>
