<svg width="500" height="501" viewBox="0 0 500 501" fill="none" xmlns="http://www.w3.org/2000/svg">
<g clip-path="url(#clip0_1_5784)">
<path d="M250 105.23C299.761 105.23 340.1 81.7694 340.1 52.8297C340.1 23.89 299.761 0.429688 250 0.429688C200.239 0.429688 159.9 23.89 159.9 52.8297C159.9 81.7694 200.239 105.23 250 105.23Z" fill="#E6007A"/>
<path d="M250 500.329C299.761 500.329 340.1 476.869 340.1 447.929C340.1 418.99 299.761 395.529 250 395.529C200.239 395.529 159.9 418.99 159.9 447.929C159.9 476.869 200.239 500.329 250 500.329Z" fill="#E6007A"/>
<path d="M124.389 177.913C149.269 134.82 149.083 88.1337 123.974 73.6363C98.8641 59.1388 58.3391 82.32 33.4587 125.413C8.57826 168.506 8.76407 215.192 33.8737 229.689C58.9833 244.187 99.5083 221.006 124.389 177.913Z" fill="#E6007A"/>
<path d="M466.386 375.366C491.267 332.273 491.12 285.609 466.058 271.139C440.996 256.669 400.51 279.873 375.63 322.966C350.749 366.058 350.896 412.722 375.958 427.192C401.02 441.662 441.506 418.458 466.386 375.366Z" fill="#E6007A"/>
<path d="M124.045 427.125C149.155 412.628 149.34 365.942 124.46 322.849C99.5796 279.756 59.0546 256.575 33.945 271.072C8.83535 285.57 8.64956 332.256 33.53 375.349C58.4104 418.442 98.9353 441.623 124.045 427.125Z" fill="#E6007A"/>
<path d="M466.133 229.638C491.194 215.169 491.342 168.505 466.461 125.412C441.581 82.3189 401.094 59.1153 376.033 73.5852C350.971 88.055 350.824 134.719 375.704 177.812C400.585 220.905 441.071 244.108 466.133 229.638Z" fill="#E6007A"/>
</g>
<defs>
<clipPath id="clip0_1_5784">
<rect width="500" height="500" fill="white" transform="translate(0 0.429688)"/>
</clipPath>
</defs>
</svg>
