<svg width="500" height="501" viewBox="0 0 500 501" fill="none" xmlns="http://www.w3.org/2000/svg">
<path d="M341.681 124.548C341.681 124.548 349.497 116.732 353.052 108.915C353.052 108.915 344.521 98.964 353.052 89.017C353.052 89.017 355.183 76.24 345.942 69.119C345.942 69.119 362.289 56.342 380.766 78.356C380.766 78.356 386.448 74.095 391.423 81.201C391.423 81.201 446.142 95.413 428.378 194.193L341.681 124.548Z" fill="#1797E5"/>
<path d="M429.665 197.63L338.878 124.7L340.355 123.222C340.437 123.14 347.322 116.203 350.871 109.129C350.068 107.97 348.813 105.878 348.05 103.21C346.979 99.461 346.693 93.86 351.261 88.236C351.5 85.982 352.066 76.205 344.797 70.603L342.884 69.129L344.787 67.642C344.972 67.497 349.405 64.089 356.295 63.612C360.327 63.333 364.369 64.11 368.312 65.922C372.77 67.97 377.101 71.353 381.201 75.989C382.37 75.481 384.105 74.998 386.103 75.317C388.536 75.705 390.707 77.14 392.566 79.586C393.844 79.996 396.832 81.088 400.652 83.352C405.233 86.067 411.975 91.082 418.083 99.558C424.904 109.023 429.568 120.794 431.945 134.545C434.893 151.597 434.314 171.777 430.223 194.524L429.665 197.63ZM344.443 124.363L427.076 190.742C430.577 169.802 430.987 151.2 428.291 135.408C426.042 122.24 421.641 110.993 415.208 101.981C412.061 97.571 406.685 91.341 398.95 86.702C394.314 83.922 390.982 83.023 390.949 83.014L390.286 82.839L389.889 82.276C388.563 80.382 387.104 79.288 385.554 79.026C383.541 78.687 381.895 79.854 381.878 79.865L380.459 80.93L379.332 79.561C375.336 74.8 371.144 71.377 366.873 69.386C363.529 67.828 360.121 67.139 356.745 67.34C353.437 67.536 350.776 68.559 349.092 69.407C356.807 77.24 354.99 88.799 354.903 89.325L354.817 89.84L354.477 90.237C347.123 98.812 354.177 107.34 354.481 107.699L355.248 108.605L354.76 109.69C352.009 115.736 346.929 121.66 344.443 124.363Z" fill="#122A44"/>
<path d="M371.883 113.535C371.883 113.535 378.271 115.666 381.83 112.115C381.83 112.115 394.385 136.038 385.265 159.607L356.961 140.539C356.961 140.539 371.883 133.429 371.883 113.535Z" fill="url(#paint0_linear_1_5791)"/>
<path d="M385.264 160.169C385.153 160.169 385.044 160.136 384.95 160.073L356.646 141.005C356.479 140.892 356.385 140.698 356.399 140.497C356.413 140.296 356.535 140.118 356.718 140.031C356.754 140.014 360.42 138.232 364.032 134.088C367.357 130.274 371.32 123.612 371.32 113.535C371.32 113.354 371.407 113.185 371.554 113.079C371.7 112.973 371.888 112.945 372.06 113.002C372.076 113.007 373.629 113.516 375.574 113.596C378.106 113.701 380.078 113.068 381.433 111.717C381.56 111.591 381.738 111.532 381.915 111.559C382.092 111.586 382.245 111.695 382.328 111.854C382.36 111.914 385.525 118.003 387.516 126.9C389.357 135.121 390.551 147.504 385.789 159.81C385.727 159.97 385.596 160.092 385.433 160.144C385.378 160.16 385.321 160.169 385.264 160.169ZM358.043 140.591L384.989 158.744C389.352 146.93 388.193 135.091 386.425 127.178C384.838 120.076 382.497 114.799 381.65 113.025C380.11 114.244 378.002 114.828 375.496 114.719C374.221 114.664 373.12 114.444 372.437 114.275C372.248 124.315 368.229 131 364.843 134.869C362.1 138.005 359.377 139.813 358.043 140.591Z" fill="#122A44"/>
<path d="M386.974 108.488C386.974 108.488 393.362 108.518 396.947 103.561C396.947 103.561 427.386 127.638 412.55 181.928L391.689 161.098C391.689 161.098 403.892 136.285 386.974 108.488Z" fill="url(#paint1_linear_1_5791)"/>
<path d="M412.551 182.489C412.404 182.489 412.26 182.431 412.154 182.325L391.294 161.495C391.124 161.325 391.081 161.065 391.187 160.849C391.217 160.787 394.215 154.591 395.123 145.113C395.656 139.554 395.376 133.968 394.292 128.512C392.937 121.692 390.314 115.053 386.495 108.779C386.389 108.605 386.386 108.387 386.486 108.21C386.586 108.033 386.773 107.924 386.976 107.924H386.979C387.072 107.924 393.136 107.873 396.494 103.23C396.584 103.106 396.72 103.024 396.872 103.003C397.024 102.982 397.178 103.024 397.298 103.119C397.378 103.182 399.275 104.695 401.903 107.808C404.318 110.669 407.827 115.48 410.827 122.155C414.195 129.649 416.25 137.919 416.934 146.736C417.787 157.74 416.496 169.63 413.095 182.076C413.042 182.269 412.891 182.42 412.697 182.471C412.647 182.483 412.599 182.489 412.551 182.489ZM392.366 160.978L412.26 180.843C415.434 168.88 416.629 157.456 415.814 146.87C415.146 138.19 413.131 130.05 409.827 122.677C404.979 111.86 398.723 105.865 397.034 104.373C394.124 107.979 389.836 108.805 387.933 108.994C391.567 115.155 394.078 121.654 395.4 128.325C396.504 133.895 396.785 139.597 396.236 145.27C395.418 153.731 393.034 159.497 392.366 160.978Z" fill="#122A44"/>
<path d="M68.6475 168.523C68.6475 168.523 24.7366 184.952 31.1326 208.405C31.1326 208.405 32.4856 216.124 46.3786 214.042C46.3786 214.042 76.9895 170.567 68.6475 168.523Z" fill="#1797E5"/>
<path d="M41.9099 216.463C37.8489 216.463 34.6129 215.509 32.2539 213.611C29.8819 211.702 29.2568 209.476 29.1268 208.886C27.5288 202.957 28.6908 196.986 32.5798 191.138C35.5718 186.639 40.1938 182.21 46.3198 177.974C56.5908 170.871 67.4679 166.764 67.9259 166.592L68.5219 166.369L69.1399 166.52C70.4099 166.831 71.3639 167.682 71.8269 168.916C72.6759 171.181 71.8749 174.745 69.2289 180.472C67.3569 184.524 64.5579 189.616 60.9079 195.607C54.7279 205.751 48.1319 215.135 48.0659 215.229L47.5579 215.95L46.6859 216.081C44.9849 216.336 43.3919 216.463 41.9099 216.463ZM33.1619 208.036C33.2749 208.495 34.7449 213.419 45.2039 212.123C46.8789 209.71 52.3869 201.689 57.5529 193.186C61.1439 187.276 63.8649 182.302 65.6399 178.402C67.6409 174.007 68.0119 171.909 68.0319 170.989C60.8929 173.932 27.8918 188.688 33.1218 207.863L33.1619 208.036Z" fill="#122A44"/>
<path d="M52.2558 327.801C52.2558 327.801 33.7669 349.796 50.0499 373.782C51.0779 375.309 52.9959 375.965 54.7439 375.387C60.1139 373.591 71.7899 367.495 82.3009 346.977L52.2558 327.801ZM81.3679 387.04C79.8649 394.699 78.1479 412.067 90.9769 422.082C91.7939 422.724 92.8839 422.901 93.8629 422.552C97.3949 421.293 106.087 416.859 113.614 402.353C114.394 400.861 113.816 399.02 112.325 398.24C112.311 398.233 112.298 398.226 112.284 398.219L85.7079 384.931C84.2069 384.179 82.3799 384.786 81.6279 386.287C81.5089 386.526 81.4219 386.779 81.3679 387.04Z" fill="#1797E5"/>
<path d="M92.8372 424.9C91.6942 424.9 90.5701 424.52 89.6381 423.788C83.6211 419.091 79.9242 412.433 78.6542 404.001C77.6412 397.271 78.4141 390.836 79.2411 386.623L79.2441 386.606C79.3351 386.159 79.4851 385.726 79.6901 385.318C80.9771 382.75 84.1122 381.708 86.6802 382.995L113.338 396.326C114.564 396.966 115.473 398.054 115.89 399.383C116.307 400.712 116.181 402.124 115.536 403.359C112.15 409.885 108.153 415.169 103.66 419.06C99.9252 422.294 96.6671 423.855 94.5911 424.595C94.0171 424.799 93.4252 424.9 92.8372 424.9ZM83.4932 387.469C82.7332 391.346 82.0212 397.245 82.9412 403.355C84.0402 410.652 87.1922 416.378 92.3102 420.374C92.5482 420.561 92.8542 420.611 93.1332 420.511C96.3132 419.378 104.482 415.244 111.689 401.356C111.839 401.069 111.793 400.81 111.752 400.68C111.711 400.55 111.601 400.31 111.32 400.164L84.7382 386.873C84.3062 386.656 83.7812 386.831 83.5662 387.261C83.5342 387.325 83.5092 387.396 83.4932 387.469ZM53.4681 377.759C51.4181 377.759 49.4371 376.754 48.2521 374.992C39.3641 361.9 40.4762 349.369 42.9732 341.164C45.6582 332.344 50.3961 326.643 50.5961 326.405L51.8191 324.949L85.1282 346.209L84.2291 347.964C73.5551 368.801 61.6042 375.376 55.4312 377.441C54.7862 377.657 54.1231 377.759 53.4681 377.759ZM52.7902 330.714C51.3162 332.842 48.7271 337.074 47.0751 342.578C43.9041 353.143 45.5081 363.232 51.8431 372.564C52.3311 373.288 53.2411 373.599 54.0621 373.328C56.5771 372.487 60.5501 370.63 65.1621 366.574C70.4121 361.957 75.2141 355.624 79.4551 347.732L52.7902 330.714Z" fill="#122A44"/>
<path d="M372.946 114.601C372.946 114.601 372.416 132.455 361.672 137.385L367.478 137.994C367.478 137.994 374.377 129.524 374.377 115.311L372.946 114.601ZM388.583 109.625C388.583 109.625 402.085 130.943 394.269 152.262L398.53 154.396C398.53 154.396 407.771 133.078 391.424 108.926L388.583 109.625Z" fill="#7DA4B7"/>
<path d="M46.9457 241.238C46.9457 241.238 11.5877 275.856 27.7807 295.498C27.7807 295.498 32.3837 302.289 44.9017 294.311C44.8857 294.311 55.8897 239.588 46.9457 241.238Z" fill="#1797E5"/>
<path d="M34.1138 300.367C33.0688 300.367 32.0657 300.243 31.1057 299.996C28.0027 299.196 26.4447 297.337 26.0647 296.825C21.9847 291.844 20.5517 285.633 21.8077 278.365C22.7727 272.778 25.3417 266.555 29.4427 259.869C36.3187 248.66 45.0597 240.05 45.4287 239.689L45.9017 239.226L46.5527 239.106C47.9127 238.855 49.1988 239.26 50.1758 240.246C52.1118 242.201 53.9838 247.218 51.2478 268.842C49.9558 279.057 48.0997 289.163 47.2247 293.714L48.1417 294.817L46.0668 296.139C41.6528 298.952 37.6468 300.366 34.1138 300.367ZM29.5677 294.269C29.8767 294.662 33.4057 298.723 42.9527 292.969C43.8247 288.441 45.7007 278.239 46.9847 267.992C47.8387 261.177 48.2757 255.577 48.2817 251.347C48.2887 246.713 47.7778 244.696 47.4208 243.853C41.8328 249.69 16.2087 278.053 29.4537 294.119L29.5677 294.269Z" fill="#122A44"/>
<path d="M130.844 445.821C130.844 445.821 135.85 463.746 148.236 469.383C148.236 469.383 168.337 473.675 155.913 437.742L130.844 445.821Z" fill="#122A44"/>
<path d="M60.2681 179.977C60.2681 179.977 34.6841 190.638 37.5251 209.826C37.5251 209.826 32.5531 209.116 34.6841 200.589C34.6841 200.589 36.1052 188.507 58.8472 177.136L64.5331 174.295L60.9781 179.977H60.2681ZM42.5001 252.463C42.5001 252.463 17.6301 279.467 31.8431 293.679C31.8431 293.679 31.1331 266.675 46.7661 256.728L42.5001 252.463ZM56.0021 334.185C56.0021 334.185 46.0551 351.952 55.2921 369.009C55.2921 369.009 59.5571 367.585 60.2671 366.164C60.2671 366.164 59.5571 369.719 53.8791 371.85C53.8791 371.85 38.9561 356.927 53.1691 332.768L56.0021 334.185ZM86.5621 396.014C86.5621 396.014 87.2722 411.647 94.3782 416.622C94.3782 416.622 95.0882 416.622 96.5091 415.912C96.5091 415.912 95.7991 418.043 92.9581 418.753C92.9581 418.753 82.2971 410.937 84.4281 396.014H86.5621Z" fill="#5DC5F9"/>
<path d="M431.93 315.712C431.93 315.712 466.751 251.043 426.958 196.324L415.587 175.006C415.587 175.006 414.167 171.451 410.612 172.161C410.612 172.161 400.665 155.108 388.583 152.263C388.583 152.263 379.342 138.051 362.278 137.34C362.278 137.34 358.013 117.423 335.274 120.997C335.274 120.997 330.298 101.099 309.69 109.626C309.69 109.626 306.139 98.9647 293.347 102.52C293.347 102.52 292.637 83.3317 243.6 98.2547C243.6 98.2547 96.4972 77.6467 67.3552 166.476C67.3552 166.476 66.0282 169.798 69.7862 170.662C69.9102 170.687 69.9912 170.807 69.9662 170.932C69.9582 170.971 69.9402 171.008 69.9142 171.038C65.0082 176.711 62.1112 183.844 61.6692 191.331C61.6692 191.331 36.7962 208.388 48.8922 236.102C48.8922 236.102 40.3652 256.019 50.3122 269.502C50.3122 269.502 36.1002 287.98 51.7362 305.743C51.7362 305.743 41.7852 326.351 63.1042 337.723C63.1042 337.723 54.5773 359.041 73.7653 366.148C73.7653 366.148 73.0553 391.732 96.5043 398.842C96.5043 398.842 97.2143 413.054 112.14 415.189C112.14 415.189 105.034 435.106 130.614 442.193C130.614 442.193 142.696 466.352 160.463 454.271C160.463 454.271 171.831 469.908 198.124 466.353C198.124 466.353 214.471 480.565 240.765 473.459C240.765 473.459 258.528 481.989 281.271 469.198C281.271 469.198 294.773 475.586 306.855 464.933C306.855 464.933 327.463 465.643 334.57 457.827C334.57 457.827 346.652 462.092 356.599 454.982C356.599 454.982 379.338 450.01 385.734 459.957C385.734 459.957 394.264 476.304 377.918 494.067C377.918 494.067 417.714 502.597 420.559 452.851C420.559 452.851 422.69 425.847 390.71 418.741L431.93 315.712Z" fill="url(#paint2_linear_1_5791)"/>
<path d="M384.478 496.511C380.498 496.511 377.791 495.954 377.525 495.897L374.317 495.209L376.539 492.795C382.928 485.852 386.14 478.373 386.084 470.564C386.046 465.15 384.364 461.428 384.104 460.884C381.23 456.541 374.221 455.617 368.829 455.61C368.808 455.61 368.786 455.61 368.766 455.61C363.479 455.61 358.678 456.477 357.357 456.737C352.531 460.062 347.328 460.981 343.055 460.981C339.524 460.981 336.628 460.354 335.101 459.94C327.709 466.678 311.281 466.868 307.534 466.818C300.983 472.309 294.107 473.181 289.432 472.928C285.711 472.726 282.8 471.803 281.392 471.27C269.565 477.701 259.105 478.485 252.354 477.991C246.344 477.551 242.17 476.068 240.618 475.433C226.86 478.996 215.824 476.814 208.949 474.329C202.979 472.171 199.07 469.456 197.575 468.309C183.901 469.977 174.243 466.512 168.512 463.272C164.27 460.874 161.509 458.264 160.09 456.723C155.531 459.411 150.918 460.172 146.353 458.982C136.991 456.542 130.909 446.614 129.335 443.772C120.68 441.225 114.736 436.934 111.659 431.008C108.701 425.31 109.219 419.628 109.822 416.658C102.689 415.014 98.9671 410.635 97.0721 407.094C95.6121 404.365 95.0202 401.76 94.7842 400.253C85.2242 397.001 78.2551 390.189 74.5881 380.487C72.4581 374.852 72.0011 369.756 71.9101 367.424C66.7781 365.251 63.1601 361.857 61.1471 357.323C57.9161 350.045 59.7891 341.941 60.8241 338.59C50.1991 332.341 47.7201 323.746 47.5521 317.516C47.4131 312.362 48.7932 308.052 49.5602 306.077C41.7302 296.592 41.8241 286.996 43.3351 280.532C44.5521 275.325 46.8251 271.354 48.0311 269.501C44.2491 263.715 42.8611 256.142 44.0131 247.496C44.7311 242.106 46.2201 237.808 46.8632 236.124C40.7312 221.409 44.6901 209.658 49.1421 202.346C53.0861 195.87 58.0031 191.751 59.8601 190.331C60.4341 183.519 62.9781 176.937 67.1171 171.506C66.4401 171.013 66.0251 170.448 65.7721 169.965C64.8321 168.171 65.4262 166.285 65.5862 165.85C72.3842 145.161 86.0591 128.634 106.234 116.725C122.271 107.259 142.423 100.689 166.132 97.1983C177.734 95.4903 196.539 93.6433 220.23 94.5483C232.727 95.0253 241.481 96.0883 243.443 96.3423C255.841 92.5953 266.276 90.6973 274.471 90.6973C274.625 90.6973 274.779 90.6983 274.932 90.6993C281.561 90.7573 286.732 92.0773 290.301 94.6203C292.943 96.5033 294.166 98.6863 294.733 100.269C301.071 99.0623 305.175 101.208 307.563 103.34C309.047 104.665 310.037 106.132 310.649 107.246C316.858 105.028 322.336 105.081 326.955 107.408C332.8 110.353 335.54 116.112 336.575 118.927C348.196 117.588 355.011 122.3 358.721 126.603C361.654 130.004 363.102 133.623 363.721 135.552C370.621 136.13 377.265 138.903 383.017 143.617C386.575 146.533 388.829 149.392 389.721 150.619C400.481 153.612 409.224 166.418 411.603 170.19C414.73 170.223 416.629 172.667 417.283 174.202L428.551 195.326C437.756 208.017 443.75 222.288 446.37 237.748C448.467 250.123 448.415 263.274 446.216 276.836C442.586 299.221 434.432 314.992 433.632 316.502L393.254 417.423C399.904 419.162 405.548 421.913 410.055 425.616C414.081 428.924 417.202 432.983 419.334 437.682C422.891 445.524 422.468 452.442 422.429 452.971C421.454 469.954 416.154 482.23 406.673 489.455C399.013 495.296 390.357 496.511 384.478 496.511ZM381.608 492.635C386.582 492.986 396.287 492.679 404.433 486.452C412.986 479.914 417.782 468.572 418.687 452.742L418.69 452.702C418.694 452.642 419.13 446.21 415.85 439.081C413.944 434.94 411.165 431.362 407.589 428.444C403.079 424.764 397.263 422.115 390.303 420.568L388.15 420.09L388.969 418.042L430.229 314.917L430.279 314.824C430.365 314.664 438.914 298.577 442.535 276.117C444.653 262.979 444.696 250.257 442.661 238.304C440.125 223.405 434.332 209.652 425.441 197.426L425.365 197.321L425.303 197.206L413.874 175.78L413.845 175.701C413.702 175.365 412.862 173.623 410.977 173.999L409.665 174.261L408.991 173.105C408.896 172.942 399.3 156.712 388.152 154.087L387.42 153.915L387.01 153.285C386.989 153.254 384.743 149.857 380.542 146.438C374.991 141.92 368.819 139.489 362.198 139.213L360.747 139.153L360.443 137.733C360.434 137.691 359.385 133.056 355.786 128.943C351.053 123.535 344.249 121.484 335.563 122.85L333.869 123.116L333.453 121.453C333.435 121.381 331.454 113.858 325.241 110.745C321.233 108.737 316.241 108.943 310.404 111.359L308.545 112.128L307.909 110.219C307.904 110.205 307.09 107.894 304.954 106.042C302.171 103.629 298.433 103.051 293.846 104.326L291.487 104.982L291.471 102.602C291.45 102.355 291.156 99.7653 287.983 97.5763C285.012 95.5263 280.538 94.4743 274.685 94.4483C266.749 94.4153 256.471 96.2973 244.143 100.048L243.747 100.168L243.337 100.111C242.971 100.06 206.295 95.0613 166.597 100.92C143.388 104.345 123.707 110.757 108.103 119.976C88.7421 131.414 75.6302 147.255 69.1332 167.06L69.0961 167.163C69.0191 167.39 68.9241 167.921 69.0951 168.237C69.2791 168.574 69.8541 168.754 70.1901 168.833C71.3041 169.078 72.0251 170.174 71.8021 171.298C71.7301 171.66 71.5631 171.998 71.3201 172.275C66.7201 177.595 63.9531 184.406 63.5381 191.441L63.4841 192.357L62.7272 192.876C62.6692 192.916 56.7042 197.078 52.2742 204.412C46.4302 214.086 45.8701 224.495 50.6081 235.352L50.9321 236.095L50.6132 236.84C50.5332 237.028 42.6381 255.946 51.8191 268.39L52.6571 269.526L51.7961 270.645C51.7641 270.687 48.4171 275.121 46.9531 281.519C45.0311 289.923 47.1121 297.656 53.1411 304.505L53.9631 305.439L53.4221 306.559C53.4001 306.604 51.1021 311.487 51.3011 317.553C51.5621 325.49 55.8291 331.72 63.9841 336.07L65.4661 336.86L64.8422 338.419C64.8052 338.512 61.1051 348.028 64.5791 355.825C66.3221 359.737 69.6311 362.619 74.4131 364.39L75.6731 364.857L75.6361 366.2C75.6351 366.259 75.5121 372.416 78.1371 379.285C81.5871 388.313 87.9482 394.29 97.0452 397.048L98.3071 397.431L98.3732 398.748C98.4022 399.26 99.2371 411.45 112.403 413.333L114.674 413.658L113.903 415.819C113.881 415.882 111.552 422.727 115.005 429.329C117.682 434.447 123.101 438.168 131.112 440.387L131.915 440.61L132.288 441.355C132.346 441.47 138.233 453.006 147.307 455.363C151.252 456.387 155.323 455.498 159.407 452.722L160.909 451.701L161.977 453.17C162.001 453.203 164.758 456.893 170.529 460.113C175.848 463.08 184.909 466.249 197.872 464.497L198.713 464.383L199.353 464.94C199.39 464.972 203.371 468.364 210.383 470.868C216.827 473.169 227.244 475.173 240.275 471.651L240.947 471.469L241.575 471.771C241.614 471.789 245.91 473.795 252.809 474.27C259.158 474.707 269.089 473.899 280.351 467.565L281.195 467.09L282.071 467.504C282.098 467.517 285.281 468.98 289.777 469.197C295.698 469.479 301.024 467.574 305.613 463.528L306.172 463.035L306.917 463.061C306.967 463.063 312.028 463.223 317.852 462.447C325.283 461.457 330.583 459.424 333.181 456.567L334.018 455.646L335.191 456.06C335.3 456.098 346.502 459.894 355.506 453.458L355.819 453.234L356.195 453.152C357.175 452.938 380.287 448.027 387.307 458.945L387.392 459.092C387.487 459.275 389.732 463.65 389.826 470.326C389.908 475.845 388.473 483.989 381.608 492.635Z" fill="#122A44"/>
<path d="M257.823 456.415C349.663 456.415 424.113 383.239 424.113 292.97C424.113 202.702 349.663 129.525 257.823 129.525C165.984 129.525 91.5332 202.702 91.5332 292.97C91.5332 383.239 165.984 456.415 257.823 456.415Z" fill="url(#paint3_linear_1_5791)"/>
<path d="M290.573 193.127L301.884 206.28C301.884 206.28 310.411 176.435 290.513 293.688L279.142 327.088L137.372 313.935C137.372 313.935 118.184 310.38 120.661 288.795L290.573 193.127Z" fill="url(#paint4_linear_1_5791)"/>
<path d="M279.143 328.4C279.102 328.4 279.062 328.397 279.021 328.393L137.251 315.242C137.211 315.238 137.172 315.232 137.133 315.225C136.924 315.186 131.959 314.233 127.268 310.484C122.915 307.005 118.009 300.392 119.357 288.646C119.405 288.228 119.65 287.858 120.017 287.651L289.93 191.984C290.475 191.677 291.16 191.796 291.568 192.271L301.373 203.672C301.773 202.634 302.423 201.319 303.693 201.607C305.102 201.927 305.109 203.634 304.953 206.409C304.796 209.203 304.318 213.659 303.531 219.652C301.547 234.767 297.603 259.749 291.806 293.908C291.794 293.977 291.777 294.045 291.754 294.111L280.383 327.51C280.201 328.046 279.699 328.4 279.143 328.4ZM137.562 312.634L278.233 325.685L289.237 293.363C294.651 261.455 298.453 237.531 300.535 222.256C301.556 214.768 302.037 210.255 302.247 207.538C302.22 207.546 302.193 207.554 302.165 207.56C301.693 207.663 301.204 207.499 300.889 207.133L290.279 194.797L121.893 289.604C121.119 297.716 123.449 304.028 128.825 308.37C132.767 311.553 137.05 312.527 137.562 312.634Z" fill="#122A44"/>
<path d="M130.619 212.668L137.725 168.611L291.223 188.509L284.827 233.991L273.459 307.897L119.961 288.709L130.619 212.668Z" fill="#C91111"/>
<path d="M275.035 309.982L117.841 290.332L128.768 212.369L136.164 166.518L293.343 186.893L286.68 234.275L275.035 309.982ZM122.082 287.085L271.885 305.811L282.974 233.717L289.104 190.124L139.287 170.703L132.473 212.948L122.082 287.085Z" fill="#122A44"/>
<path d="M129.198 247.492L127.067 260.994L173.969 266.676L245.031 282.313V274.497L279.634 281.295L281.276 266.677L129.198 247.492Z" fill="#750606"/>
<path d="M265.561 195.599L161.889 180.691C156.669 195.599 141.991 197.034 141.991 197.034L130.653 267.171C147.052 271.643 147.695 287.997 147.695 287.997L252.164 302.209C257.384 285.806 271.329 288.707 271.329 288.707L281.99 216.221C262.604 209.511 265.561 195.599 265.561 195.599ZM269.183 285.864C269.183 285.864 254.971 283.733 249.995 299.366L150.516 285.864C150.516 285.864 149.817 270.216 134.173 265.966L143.429 212.668L145.564 199.891C145.564 199.891 159.776 197.76 164.748 183.548L262.829 197.76C262.829 197.76 259.958 211.969 278.432 218.357L269.183 285.864Z" fill="#3D0000"/>
<path d="M240.06 229.725L286.962 237.541L311.122 272.362L289.803 284.444L283.407 270.232L237.215 261.705L240.06 229.725Z" fill="url(#paint5_linear_1_5791)"/>
<path d="M288.938 287.088L282.101 271.896L235.197 263.238L238.372 227.543L288.05 235.822L313.831 272.98L288.938 287.088ZM239.233 260.171L284.713 268.566L290.668 281.799L308.411 271.744L285.873 239.26L241.748 231.906L239.233 260.171Z" fill="#4F1A00"/>
<path d="M123.16 215.154L174.324 221.542L169.36 253.529L121.748 247.843L120.324 254.949C120.322 254.95 119.605 222.261 123.16 215.154Z" fill="url(#paint6_linear_1_5791)"/>
<path d="M120.323 256.262C120.285 256.262 120.246 256.26 120.207 256.257C119.541 256.198 119.025 255.648 119.011 254.979C118.981 253.631 118.328 221.88 121.986 214.567C122.235 214.07 122.769 213.782 123.322 213.852L174.486 220.24C174.838 220.284 175.157 220.469 175.371 220.752C175.585 221.035 175.674 221.393 175.62 221.743L170.656 253.73C170.548 254.428 169.906 254.914 169.204 254.832L122.795 249.29L121.609 255.208C121.485 255.826 120.943 256.262 120.323 256.262ZM121.745 246.532C121.797 246.532 121.849 246.535 121.902 246.541L168.257 252.077L172.82 222.677L123.982 216.579C122.125 221.777 121.626 236.135 121.575 246.543C121.631 246.536 121.688 246.532 121.745 246.532Z" fill="#4F1A00"/>
<path d="M170.415 205.561L162.599 265.965L237.926 276.626L246.457 215.511L170.415 205.561Z" fill="#F7AE2D"/>
<path d="M239.522 278.745L160.502 267.561L168.797 203.459L248.573 213.899L239.522 278.745ZM164.695 264.369L236.329 274.507L244.339 217.125L172.034 207.663L164.695 264.369Z" fill="#4F1A00"/>
<path opacity="0.63" d="M241.48 226.169L239.349 240.385L214.476 267.389L211.631 257.081L241.48 226.169ZM204.525 213.377L167.841 252.286L166.567 262.947L168.284 263.124L215.896 214.801L204.525 213.377ZM219.452 215.511L170.415 263.834L176.101 260.283L221.583 215.512L219.452 215.511Z" fill="white"/>
<path d="M200.974 241.095L193.158 256.728L211.196 258.479L208.066 241.805C208.066 241.805 213.752 241.095 214.454 234.699C214.454 234.699 215.875 225.458 206.638 224.038C206.638 224.038 198.822 223.328 196.687 231.144C196.709 231.133 195.288 238.25 200.974 241.095Z" fill="#4F1A00"/>
<path d="M208.065 222.619C208.065 222.619 217.302 224.04 217.302 233.276C217.302 233.276 218.012 241.096 211.616 243.937L213.055 263.828H215.896L213.055 245.35C213.055 245.35 220.995 241.074 218.188 230.822C217.625 228.708 216.421 226.82 214.742 225.418C212.84 223.85 210.518 222.876 208.065 222.619Z" fill="#4F1A00"/>
<path d="M206.66 223.328C206.66 223.328 215.205 224.745 215.205 233.989C215.205 233.989 215.205 239.671 208.817 242.516L211.658 264.545H214.503L210.948 243.227C210.948 243.227 215.581 241.412 216.416 235.384C217.251 229.61 213.248 224.252 207.474 223.417C207.385 223.404 207.295 223.392 207.205 223.382L206.66 223.328Z" fill="white"/>
<path d="M266.354 291.549C266.354 291.549 257.903 290.583 252.532 305.28L269.195 303.63L266.354 291.549ZM269.905 189.217C269.905 189.217 264.219 207.695 284.117 214.09L287.672 191.347L269.905 189.217ZM140.57 172.16L137.015 193.482C137.015 193.482 154.782 192.768 156.913 174.294L140.57 172.16ZM125.647 269.52L123.513 285.863L144.121 288.708C144.121 288.708 141.28 273.071 125.647 269.52Z" fill="#3D0000"/>
<path d="M250.717 106.072C250.717 106.072 265.64 93.9944 288.382 106.072L286.98 108.917C286.98 108.917 301.192 106.786 311.139 127.395C311.139 127.395 315.404 98.9674 331.747 127.395C331.747 127.395 353.069 124.55 355.91 139.473C355.91 139.473 352.355 146.583 356.62 151.555C356.62 151.555 353.779 140.898 360.885 141.608C360.885 141.608 372.963 142.318 381.493 153.69L384.334 155.821C384.334 155.821 393.574 157.241 405.652 174.299C409.491 179.315 412.957 184.607 416.02 190.131C417.749 193.292 419.639 196.363 421.683 199.33C428.628 209.416 443.896 235.146 438.342 259.573C438.342 259.573 436.211 297.949 427.685 308.61C427.685 308.61 440.462 286.578 442.608 259.573C442.608 259.573 445.449 224.752 423.42 197.038L411.338 174.299L407.077 172.165C407.077 172.165 397.836 157.242 384.308 153.691V152.267C384.308 152.267 376.492 140.189 359.434 139.49L358.724 136.649C358.724 136.649 353.752 119.592 332.419 124.567C332.419 124.567 330.288 104.669 309.68 113.199C309.68 113.199 296.903 106.089 289.072 107.513C289.072 107.513 297.599 92.5874 264.909 96.8524C264.909 96.8524 251.805 99.1074 248.055 100.817L250.717 106.072Z" fill="#5DC5F9"/>
<path d="M85.1411 141.094C85.1411 141.094 136.29 81.1933 197.419 103.94C243.799 121.196 240.77 136.634 240.77 136.634C240.77 136.634 209.301 141.564 194.695 161.507C194.695 161.507 166.206 130.395 129.684 156.719C129.683 156.727 128.977 115.104 85.1411 141.094Z" fill="url(#paint7_linear_1_5791)"/>
<path d="M295.489 461.391C295.489 461.391 290.81 467.404 277.872 459.771C277.872 459.771 266.354 469.211 240.06 463.529C240.06 463.529 222.293 474.897 200.978 457.141C200.978 457.141 171.839 463.529 164.733 440.084C164.733 440.084 146.969 457.141 138.428 432.978C138.428 432.978 120.661 435.112 118.511 412.37C118.511 412.37 122.772 405.264 118.511 401.713C118.511 401.713 104.295 416.636 104.295 391.762C104.295 391.762 67.3441 380.391 91.5181 362.627C91.5181 362.627 56.6942 362.627 73.0402 334.913C73.0402 334.913 48.8771 324.252 61.6691 302.933C61.6691 302.933 46.7471 295.827 54.5631 271.664L59.5381 269.533C59.5381 269.533 46.0361 253.9 57.4031 238.974L58.1171 236.133C58.1171 236.133 46.7462 204.864 65.2232 202.023L72.3291 201.313C72.3291 201.313 65.9412 184.256 78.7172 172.885C78.7172 172.885 73.0311 145.171 126.329 116.746H116.404C116.404 116.746 79.4532 133.093 70.2122 169.334L73.0571 172.885C73.0571 172.885 67.0441 176.5 64.9701 190.374C64.6171 192.73 63.4672 194.977 61.4982 196.33C55.2902 200.591 42.5171 214.601 52.4491 236.122C52.4491 236.122 43.9192 254.6 53.8692 269.522C53.8692 269.522 38.9471 288.71 56.0001 305.053C56.0001 305.053 43.2231 324.241 67.3711 336.322C67.3711 336.322 56.7101 357.64 77.3181 364.036C77.3181 364.036 74.4771 390.341 99.3501 396.016C99.3501 396.016 98.6401 410.228 114.273 412.359L115.694 415.914C115.694 415.914 107.878 432.967 132.751 439.363C132.751 439.363 144.119 464.236 161.176 450.024C161.176 450.024 171.123 467.077 198.127 462.801L201.682 464.932C201.682 464.932 218.025 477.014 240.764 469.907C240.764 469.907 258.527 478.434 281.27 465.642C281.27 465.642 293.352 472.03 304.009 462.801L295.489 461.391Z" fill="#5DC5F9"/>
<path d="M202.395 360.478C202.395 360.478 162.599 349.821 167.574 315.008C167.574 315.008 155.492 298.661 160.468 282.314C160.468 282.314 163.309 270.943 166.856 271.653C166.856 271.653 177.513 257.441 187.464 258.876C187.464 258.876 186.754 265.982 189.595 267.406C189.595 267.406 201.677 249.639 213.048 251.059C213.048 251.059 208.073 264.561 213.048 270.957C213.048 270.957 222.285 255.324 232.236 255.324C232.236 255.324 230.812 264.561 232.946 268.826C232.946 268.826 244.313 265.271 244.313 301.52C244.313 301.52 252.844 304.361 257.09 312.177L255.67 351.973L202.395 360.478Z" fill="#1797E5"/>
<path d="M202.305 362.202L201.958 362.109C201.539 361.997 191.584 359.278 182.104 352.147C176.484 347.919 172.214 343.015 169.415 337.572C165.994 330.92 164.783 323.476 165.813 315.438C164.885 314.078 162.542 310.413 160.584 305.407C157.312 297.045 156.71 288.905 158.842 281.864C158.941 281.477 159.65 278.754 160.776 276.067C161.399 274.579 163.153 270.393 166.034 269.967C168.396 267.026 178.091 255.821 187.705 257.208L189.303 257.439L189.142 259.046C188.953 260.974 189.094 263.226 189.54 264.625C190.866 262.891 193.095 260.167 195.888 257.486C202.168 251.457 208.011 248.733 213.256 249.388L215.364 249.651L214.629 251.645C214.617 251.677 213.424 254.953 212.84 258.917C212.45 261.562 212.272 264.942 213.188 267.648C216.374 263.047 223.906 253.64 232.234 253.64H234.201L233.901 255.584C233.566 257.769 233.024 263.647 234.056 267.053C235.057 267.101 236.424 267.419 237.889 268.496C243.154 272.366 245.88 283.087 245.995 300.368C248.602 301.476 254.967 304.739 258.571 311.374L258.791 311.779L257.304 353.422L202.305 362.202ZM166.525 273.308C166.262 273.346 165.146 274.24 163.735 277.74C162.736 280.218 162.11 282.699 162.104 282.724L162.081 282.806C157.407 298.164 168.814 313.849 168.93 314.006L169.341 314.562L169.243 315.247C168.161 322.815 169.22 329.79 172.39 335.979C174.941 340.96 178.865 345.472 184.053 349.39C192.078 355.451 200.716 358.222 202.499 358.753L254.033 350.527L255.387 312.59C251.453 305.773 243.855 303.147 243.777 303.12L242.629 302.733L242.626 301.52C242.626 279.746 238.495 273.252 236.032 271.319C234.681 270.259 233.609 270.408 233.427 270.444L232.022 270.979L231.436 269.581C229.729 266.17 229.987 260.415 230.3 257.243C223.522 258.822 216.72 268.056 214.499 271.815L213.238 273.95L211.716 271.993C207.481 266.549 209.503 257.044 210.747 252.717C206.181 253.184 201.54 256.741 198.265 259.878C193.992 263.971 191.018 268.312 190.989 268.355L190.158 269.575L188.838 268.914C186.013 267.498 185.643 263.082 185.687 260.468C181.632 260.623 177.459 263.474 174.53 266.003C170.803 269.22 168.23 272.631 168.205 272.665L167.567 273.516L166.525 273.308Z" fill="#122A44"/>
<path d="M223.123 275.609C223.123 275.609 247.174 329.925 215.897 346.979L249.297 341.992L250.718 308.592C250.718 308.592 246.396 304.8 241.094 303.853C241.094 303.853 242.902 281.588 235.795 273.057L223.123 275.609Z" fill="url(#paint8_linear_1_5791)"/>
<path d="M168.284 274.496C168.284 274.496 158.333 293.68 173.259 314.292C173.259 314.292 168.284 344.847 204.525 354.798L195.288 355.52C195.288 355.52 164.729 341.992 170.414 314.292C170.414 314.292 154.071 296.525 167.573 273.072L168.284 274.496ZM340.343 452.053L357.314 447.889C357.314 447.889 374.371 443.628 387.873 450.023C387.873 450.023 404.926 460.68 390.004 491.24H384.311C384.311 491.24 392.127 482.713 391.417 469.211C391.417 469.211 391.417 462.823 388.576 457.84C388.576 457.84 383.601 447.889 360.862 450.734L355.176 452.154C349.842 456.041 342.954 457.1 336.699 454.995L340.343 452.053Z" fill="#5DC5F9"/>
<path d="M299.758 273.071C299.758 273.071 274.885 271.65 269.909 302.21L254.986 305.051C254.986 305.051 247.17 315.002 253.566 326.369C253.566 326.369 250.721 335.61 254.276 341.295C254.276 341.295 196.003 337.03 183.211 380.377C183.211 380.377 175.395 456.418 291.938 460.679C291.938 460.679 361.583 464.234 413.46 399.564L424.828 396.013L440.464 426.568C440.464 426.568 446.146 383.221 478.126 369.719C478.126 369.719 442.595 334.898 460.362 291.555L424.827 312.873C424.827 312.873 417.717 290.13 411.321 290.13C411.321 290.13 410.611 285.155 406.345 283.742C406.345 283.742 402.084 275.215 407.059 261.003C407.059 261.003 392.843 253.897 373.659 275.926C373.659 275.926 366.553 273.081 364.419 280.901L355.892 278.056C355.892 278.056 353.051 268.109 345.941 268.819C345.941 268.819 343.1 265.974 350.916 241.815C350.916 241.815 330.308 238.97 316.806 261.003C316.806 261.003 308.99 258.158 306.859 265.975C306.86 265.965 301.885 266.675 299.758 273.071Z" fill="#1797E5"/>
<path d="M294.044 462.594C292.779 462.594 292.029 462.561 291.856 462.553C268.351 461.692 248.112 457.827 231.702 451.064C217.955 445.399 206.743 437.65 198.378 428.034C188.242 416.382 184.149 404.031 182.501 395.723C180.708 386.689 181.319 380.448 181.345 380.187C181.357 380.072 181.379 379.959 181.412 379.848C184.442 369.579 190.209 361.055 198.553 354.51C205.177 349.314 213.42 345.365 223.052 342.772C235.114 339.525 246.177 339.227 251.352 339.311C249.846 334.357 251.031 328.657 251.558 326.598C249.009 321.681 248.496 316.276 250.079 310.917C251.321 306.712 253.423 304.007 253.511 303.894C253.791 303.538 254.189 303.295 254.634 303.211L268.283 300.612C269.53 293.913 271.839 288.216 275.154 283.663C278.013 279.737 281.611 276.657 285.85 274.51C291.172 271.814 296.125 271.287 298.463 271.202C299.756 268.198 301.636 266.49 303.067 265.561C303.795 265.088 304.631 264.689 305.385 264.429C306.21 262.184 307.572 260.559 309.444 259.589C311.798 258.37 314.369 258.553 315.946 258.853C323.114 247.819 332.052 243.245 338.386 241.353C345.534 239.218 350.944 239.929 351.17 239.96C351.719 240.036 352.207 240.351 352.502 240.821C352.797 241.291 352.868 241.867 352.698 242.394C347.412 258.732 347.152 264.894 347.343 266.936C350.338 267.166 353.01 268.938 355.14 272.134C356.265 273.822 356.989 275.541 357.368 276.576L363.267 278.544C364.13 276.609 365.409 275.211 367.084 274.378C369.292 273.279 371.621 273.496 373.032 273.804C381.029 264.878 389.171 259.682 397.247 258.357C403.724 257.294 407.727 259.246 407.895 259.329C408.739 259.751 409.138 260.734 408.826 261.625C406.41 268.526 406.322 273.949 406.673 277.283C406.931 279.728 407.455 281.438 407.77 282.292C410.96 283.734 412.314 286.745 412.852 288.508C415.875 289.497 418.877 293.45 422.177 300.73C423.801 304.313 425.101 307.857 425.865 310.065L459.395 289.949C460.087 289.534 460.968 289.609 461.581 290.134C462.194 290.66 462.4 291.52 462.094 292.267C458.156 301.873 456.613 311.839 457.507 321.889C458.224 329.95 460.501 338.093 464.274 346.093C470.718 359.754 479.349 368.298 479.435 368.382C479.883 368.821 480.081 369.455 479.965 370.071C479.848 370.687 479.43 371.204 478.853 371.448C471.833 374.412 465.551 379.143 460.181 385.509C455.849 390.644 452.094 396.85 449.021 403.954C443.768 416.098 442.335 426.709 442.321 426.815C442.214 427.629 441.591 428.278 440.782 428.418C439.973 428.557 439.167 428.155 438.794 427.425L423.877 398.276L414.561 401.186C402.68 415.902 388.897 428.28 373.588 437.982C361.213 445.824 347.821 451.944 333.783 456.17C314.478 461.981 299.494 462.594 294.044 462.594ZM185.062 380.728C184.985 381.733 184.652 387.402 186.213 395.161C187.789 402.997 191.68 414.645 201.262 425.635C209.246 434.792 219.988 442.189 233.187 447.62C249.178 454.2 268.968 457.964 292.006 458.806C292.015 458.806 292.024 458.807 292.033 458.807C292.204 458.815 309.515 459.586 332.858 452.532C346.547 448.395 359.606 442.415 371.672 434.757C386.75 425.188 400.318 412.953 411.998 398.392C412.231 398.101 412.546 397.887 412.901 397.776L424.268 394.225C425.139 393.952 426.08 394.348 426.495 395.16L439.632 420.83C440.618 416.401 442.435 409.737 445.582 402.464C448.801 395.024 452.749 388.506 457.317 383.091C462.449 377.007 468.377 372.309 474.968 369.097C471.958 365.732 465.85 358.215 460.886 347.692C456.924 339.292 454.531 330.722 453.775 322.221C452.983 313.321 453.993 304.488 456.777 295.893L425.791 314.482C425.298 314.778 424.697 314.831 424.16 314.626C423.623 314.422 423.209 313.982 423.038 313.434C423.02 313.378 421.256 307.766 418.753 302.249C414.236 292.294 411.607 292.006 411.322 292.006C410.389 292.006 409.598 291.32 409.467 290.397C409.463 290.368 408.841 286.544 405.758 285.523C405.285 285.366 404.894 285.028 404.671 284.582C404.49 284.22 400.47 275.91 404.697 262.195C403.233 261.847 400.771 261.533 397.557 262.107C388.381 263.746 380.267 271.197 375.075 277.159C374.551 277.76 373.704 277.964 372.965 277.668C372.952 277.663 370.632 276.787 368.738 277.744C367.574 278.332 366.729 279.562 366.228 281.397C366.092 281.894 365.758 282.313 365.304 282.556C364.849 282.799 364.315 282.844 363.827 282.681L355.3 279.836C354.713 279.64 354.261 279.168 354.091 278.573C354.067 278.492 351.592 270.134 346.128 270.686C345.569 270.741 345.013 270.543 344.616 270.145C342.376 267.902 343.72 258.502 348.391 243.575C346.343 243.589 343.077 243.843 339.293 244.995C330.747 247.597 323.72 253.312 318.406 261.983C317.94 262.743 317.004 263.07 316.167 262.765C316.147 262.758 313.329 261.785 311.154 262.925C309.962 263.55 309.149 264.709 308.67 266.468C308.501 267.086 308.029 267.575 307.417 267.765C307.31 267.798 307.202 267.821 307.093 267.835C306.756 267.897 303.2 268.667 301.539 273.661C301.272 274.463 300.502 274.989 299.658 274.941C299.599 274.939 293.722 274.673 287.397 277.929C283.725 279.819 280.605 282.521 278.122 285.96C274.981 290.311 272.841 295.88 271.761 302.51C271.634 303.287 271.035 303.903 270.261 304.05L256.084 306.749C255.501 307.635 254.373 309.554 253.638 312.107C252.303 316.745 252.829 321.234 255.2 325.449C255.452 325.897 255.509 326.429 255.358 326.92C255.333 327.002 252.815 335.421 255.866 340.301C256.24 340.9 256.246 341.658 255.882 342.262C255.518 342.867 254.845 343.216 254.14 343.164C253.998 343.154 239.617 342.175 223.932 346.416C214.81 348.883 207.037 352.609 200.826 357.491C193.179 363.503 187.876 371.32 185.062 380.728ZM305.656 267.413C306.226 267.891 306.854 267.864 307.062 267.84C306.561 267.895 306.051 267.743 305.656 267.413Z" fill="#122A44"/>
<path d="M295.489 319.974L264.219 313.586L274.997 310.899C275.765 310.81 276.401 310.26 276.598 309.512C278.007 304.089 284.783 282.489 304.031 278.765L301.9 276.634C301.9 276.634 280.581 275.924 273.475 305.769L257.128 309.324V321.398L291.238 329.925L295.489 319.974Z" fill="url(#paint9_linear_1_5791)"/>
<path d="M246.456 447.889C246.456 447.889 218.738 405.962 250.717 408.807C250.717 408.807 257.823 408.807 284.827 416.623C284.827 416.623 293.357 418.044 283.406 406.672C283.406 406.672 269.194 394.59 258.533 391.039C258.533 391.039 249.296 379.668 270.615 384.651L282.697 386.782C282.697 386.782 294.068 389.627 296.909 376.835C296.909 376.835 299.04 364.058 281.276 365.464C281.276 365.464 279.141 365.464 276.301 367.595C276.301 367.595 286.252 353.383 303.305 362.623C305.851 363.724 308.241 365.157 310.411 366.884L318.923 359.06L326.743 357.639L320.355 337.031C320.355 337.031 312.535 339.162 317.51 331.345L335.277 327.794C335.277 327.794 346.648 324.239 350.91 319.974C350.91 319.974 370.827 303.631 394.971 304.341C394.971 304.341 409.183 303.631 409.894 291.564C409.894 291.564 415.58 296.539 421.265 312.882C421.265 312.882 421.975 316.437 425.526 316.437L447.818 302.86L452.203 309.651C452.203 309.651 444.022 332.766 466.761 366.876C466.761 366.876 446.153 389.619 438.336 413.068L428.073 389.983L409.201 396.725C409.201 396.725 365.84 476.317 246.456 447.889Z" fill="url(#paint10_radial_1_5791)"/>
<path d="M263.509 126.683C263.509 126.683 262.089 104.651 252.852 116.022C252.852 116.022 235.795 89.018 263.509 52.063C263.509 52.063 276.286 45.675 272.036 33.589C272.036 33.589 274.171 26.483 289.093 22.928C289.093 22.928 280.566 4.45004 255.693 10.846C255.693 10.846 249.305 0.899044 236.505 10.136C236.505 10.136 116.407 -15.448 65.2432 125.259C65.2432 125.259 114.986 108.206 134.174 117.443C134.174 117.443 142.701 120.998 139.86 135.921C139.86 135.921 177.521 115.313 195.999 142.309C195.999 142.309 218.738 118.146 234.375 123.831C234.375 123.831 240.763 126.676 244.322 135.913" fill="#1797E5"/>
<path d="M195.767 145.287L194.452 143.366C190.484 137.569 185.247 133.648 178.886 131.713C173.733 130.146 167.81 129.853 161.281 130.842C150.014 132.55 140.85 137.513 140.759 137.563L137.275 139.469L138.018 135.568C140.482 122.625 133.872 119.364 133.444 119.168L133.36 119.13C125.896 115.537 111.916 115.738 92.9341 119.712C78.3781 122.76 65.9741 126.988 65.8501 127.03L62.1411 128.301L63.4811 124.616C75.2521 92.2443 91.6781 65.9773 112.301 46.5443C128.839 30.9613 148.086 19.7223 169.509 13.1393C188.557 7.28529 205.832 6.27629 216.97 6.46129C226.948 6.62629 233.804 7.72429 236.078 8.14229C240.686 4.99029 245.079 3.78329 249.144 4.55329C252.813 5.24929 255.228 7.40529 256.413 8.73829C269.304 5.76129 277.866 9.35829 282.823 12.9713C288.394 17.0313 290.698 21.9333 290.794 22.1403L291.753 24.2183L289.526 24.7483C282.442 26.4363 278.535 28.9303 276.504 30.7253C275.072 31.9913 274.358 33.0903 274.04 33.6843C275.681 39.0343 274.564 44.1683 270.789 48.5743C268.463 51.2883 265.781 52.9413 264.763 53.5123C258.742 61.6073 254.446 69.8543 251.993 78.0263C250.014 84.6213 249.223 91.1873 249.641 97.5443C250.114 104.721 252.047 110.03 253.31 112.815C255.266 111.098 257.162 110.52 258.967 111.096C261.467 111.894 263.244 114.768 264.397 119.884C265.16 123.267 265.369 126.426 265.378 126.559L261.637 126.801C261.293 121.527 259.644 115.247 257.827 114.668C257.264 114.488 256.044 115.06 254.305 117.201L252.659 119.227L251.265 117.02C251.08 116.728 246.739 109.736 245.916 98.0293C245.436 91.2023 246.256 84.1643 248.354 77.1103C250.959 68.3503 255.553 59.5433 262.008 50.9363L262.274 50.5823L262.67 50.3843C263.127 50.1533 273.908 44.5623 270.267 34.2083L270.064 33.6323L270.24 33.0473C270.334 32.7333 272.601 25.6923 286.209 21.7473C285.126 20.1713 283.262 17.8983 280.472 15.8973C274.01 11.2613 265.83 10.1723 256.159 12.6593L254.847 12.9963L254.115 11.8563C254.102 11.8363 252.132 8.91029 248.391 8.22529C245.194 7.63929 241.563 8.79329 237.601 11.6523L236.927 12.1393L236.114 11.9663C236.041 11.9503 228.544 10.3883 216.743 10.2053C205.873 10.0393 189.015 11.0403 170.444 16.7723C149.605 23.2043 130.88 34.1653 114.788 49.3513C95.4041 67.6443 79.7912 92.1683 68.3472 122.283C73.1662 120.778 82.1482 118.141 92.1282 116.049C112.205 111.842 126.614 111.736 134.957 115.736C135.797 116.111 143.33 119.854 142.203 132.693C146.017 130.978 152.826 128.33 160.718 127.134C175.952 124.825 188.173 129.069 196.212 139.419C201.787 133.941 220.705 116.863 235.014 122.066L235.136 122.115C235.426 122.244 242.276 125.388 246.07 135.235L242.572 136.583C239.497 128.602 234.283 125.866 233.656 125.561C226.359 122.967 217.011 127.862 210.443 132.437C203.041 137.593 197.418 143.53 197.362 143.59L195.767 145.287Z" fill="#122A44"/>
<path d="M271.325 165.055C271.325 165.055 245.02 133.079 215.186 155.108C215.186 155.108 195.645 154.751 187.115 172.518C187.115 172.518 185.694 174.649 185.694 176.069C185.694 176.069 197.065 178.914 197.065 193.126C197.065 193.126 199.906 193.126 207.012 174.648C207.012 174.648 218.383 176.782 219.789 192.415C219.789 192.415 222.634 193.125 229.03 188.15C229.03 188.15 231.161 176.068 234.712 174.648C234.712 174.648 243.953 174.648 246.083 190.285C246.083 190.285 247.503 193.126 260.295 181.755L279.483 183.889C279.483 183.889 283.054 178.204 271.325 165.055Z" fill="#1797E5"/>
<path d="M197.066 193.689H196.504V193.127C196.504 187.402 194.656 182.882 191.01 179.692C188.301 177.321 185.585 176.622 185.558 176.615L185.132 176.509V176.07C185.132 174.582 186.392 172.595 186.625 172.241C191.116 162.915 198.638 158.6 204.16 156.622C209.547 154.693 214.02 154.552 215.003 154.546C221.86 149.523 229.104 146.919 236.536 146.807C242.52 146.717 248.633 148.236 254.699 151.32C264.828 156.471 271.481 164.364 271.752 164.689C283.617 177.995 280.116 183.943 279.961 184.189L279.773 184.488L260.483 182.342C253.518 188.511 248.683 191.546 246.488 191.124C245.859 191.003 245.635 190.644 245.582 190.537L245.54 190.454L245.528 190.362C244.683 184.163 242.538 179.578 239.325 177.101C237.225 175.482 235.288 175.25 234.819 175.217C233.58 175.813 232.257 178.243 231.082 182.088C230.126 185.217 229.591 188.219 229.586 188.249L229.548 188.462L229.377 188.595C222.84 193.68 219.782 192.994 219.655 192.962L219.267 192.865L219.231 192.467C218.523 184.585 215.189 180.306 212.518 178.105C210.336 176.306 208.249 175.568 207.36 175.315C204.471 182.776 201.941 188.098 199.838 191.137C198.3 193.357 197.441 193.689 197.066 193.689ZM186.298 175.664C187.247 175.978 189.491 176.868 191.751 178.845C194.31 181.085 197.339 185.18 197.609 192.116C198.768 191.003 201.578 187.217 206.489 174.447L206.657 174.01L207.117 174.096C207.239 174.119 210.138 174.686 213.232 177.236C216.013 179.528 219.468 183.922 220.303 191.886C221.228 191.857 223.88 191.406 228.516 187.837C228.658 187.084 229.175 184.474 230.001 181.768C231.349 177.353 232.864 174.782 234.503 174.126L234.603 174.086H234.711C234.813 174.086 237.241 174.11 239.938 176.155C244.282 179.451 245.966 185.457 246.61 189.997C247.049 190.16 249.672 190.446 259.921 181.334L260.108 181.168L279.136 183.285C279.598 181.97 280.651 176.356 270.904 165.429L270.889 165.412C270.824 165.333 264.247 157.428 254.156 152.306C248.258 149.313 242.329 147.837 236.531 147.931C229.291 148.044 222.221 150.611 215.519 155.56L215.366 155.673L215.175 155.67C215.128 155.671 210.291 155.611 204.499 157.693C199.182 159.605 191.937 163.771 187.621 172.761L187.582 172.829C187.26 173.316 186.485 174.653 186.298 175.664Z" fill="#122A44"/>
<path d="M295.489 315.712C295.489 315.712 293.369 326.369 290.513 327.08L258.534 319.264C258.534 319.264 257.824 313.578 260.669 310.027L274.163 308.1C274.977 307.989 275.603 307.324 275.666 306.506C276.091 300.952 279.198 280.501 301.892 278.048L300.389 276.627C300.389 276.627 278.447 274.497 273.475 301.501C273.475 301.501 272.765 305.051 269.92 305.761L257.143 307.895C257.143 307.895 252.168 315.001 255.723 322.818L290.544 332.055C290.544 332.055 296.909 333.475 295.489 315.712ZM323.913 323.528C323.913 323.528 317.525 329.916 317.525 335.61C317.525 335.61 360.876 334.186 383.615 347.688L313.967 338.451C313.967 338.451 308.991 333.475 323.913 323.528ZM274.17 373.981C274.17 373.981 276.65 365.289 285.102 365.898C286.516 365.999 287.839 366.633 288.804 367.673C290.465 369.458 292.652 373.061 292.652 379.667C292.648 379.667 288.383 364.745 274.17 373.981ZM235.084 361.193C235.084 361.193 237.568 352.512 246.019 353.106C247.433 353.206 248.757 353.84 249.721 354.88C251.382 356.665 253.569 360.27 253.569 366.876C253.562 366.876 249.297 351.953 235.084 361.193Z" fill="#5DC5F9"/>
<path d="M289.448 380.441C288.919 380.441 288.447 380.066 288.345 379.527C287.584 375.536 286.159 373.153 284.11 372.447C281.163 371.432 277.238 374.08 275.974 375.187C275.507 375.596 274.797 375.549 274.387 375.082C273.978 374.615 274.025 373.903 274.493 373.494C274.719 373.297 280.074 368.679 284.842 370.321C287.709 371.309 289.631 374.264 290.554 379.105C290.67 379.715 290.27 380.304 289.66 380.42C289.589 380.433 289.518 380.441 289.448 380.441ZM250.833 366.648C250.348 366.648 249.901 366.332 249.755 365.843C248.703 362.3 247.204 360.276 245.302 359.825C242.01 359.044 238.235 363.013 238.197 363.053C237.772 363.505 237.061 363.529 236.608 363.104C236.155 362.68 236.131 361.969 236.555 361.515C236.745 361.312 241.251 356.559 245.814 357.634C248.561 358.281 250.612 360.827 251.912 365.201C252.089 365.796 251.75 366.423 251.154 366.6C251.047 366.634 250.939 366.648 250.833 366.648ZM383.609 350.256C383.56 350.256 383.511 350.254 383.461 350.247L315.62 341.325C313.032 340.991 311.062 338.856 310.938 336.247C310.579 328.056 322.904 322.063 323.428 321.812C323.989 321.544 324.66 321.781 324.928 322.341C325.196 322.901 324.959 323.571 324.399 323.839C324.369 323.853 321.404 325.287 318.534 327.586C316.011 329.607 313.035 332.732 313.185 336.143C313.257 337.657 314.403 338.899 315.911 339.093L383.755 348.015C384.371 348.096 384.804 348.661 384.723 349.277C384.648 349.845 384.165 350.256 383.609 350.256Z" fill="#122A44"/>
<path d="M322.374 341.072C322.374 341.072 318.789 356.457 335.369 363.942C341.377 366.626 348.046 367.472 354.534 366.373C362.49 365.05 373.142 360.86 376.276 348.151L322.374 341.072Z" fill="#F3F5F7"/>
<path d="M348.943 367.97C344.13 367.97 339.361 366.959 334.908 364.97C325.927 360.915 322.693 354.575 321.56 349.969C320.334 344.983 321.238 340.985 321.277 340.817C321.408 340.254 321.945 339.883 322.519 339.957L376.422 347.037C376.739 347.079 377.024 347.254 377.204 347.518C377.384 347.782 377.444 348.111 377.367 348.421C375.897 354.384 372.695 359.107 367.852 362.457C364.264 364.939 359.845 366.63 354.717 367.483C352.797 367.808 350.866 367.97 348.943 367.97ZM323.309 342.329C323.14 343.726 322.992 346.435 323.768 349.524C325.262 355.472 329.321 359.978 335.83 362.918C341.651 365.518 348.055 366.331 354.345 365.265C361.948 364.001 371.536 360.155 374.852 349.099L323.309 342.329Z" fill="#122A44"/>
<path d="M290.474 334.908C289.85 334.908 289.215 334.823 288.585 334.646L252.741 325.041C252.141 324.88 251.785 324.264 251.946 323.664C252.107 323.064 252.723 322.708 253.323 322.869L289.181 332.478C291.416 333.106 293.719 332.034 294.671 329.932C296.858 324.873 295.804 315.94 295.793 315.85C295.718 315.233 296.157 314.673 296.773 314.598C297.392 314.523 297.95 314.962 298.025 315.578C298.072 315.969 299.161 325.212 296.727 330.842C295.577 333.38 293.118 334.908 290.474 334.908Z" fill="#122A44"/>
<path d="M286.252 333.475C286.252 333.475 291.934 342.005 284.828 349.822C284.828 349.822 270.616 342.716 251.428 342.716L254.288 324.949L286.252 333.475Z" fill="#F3F5F7"/>
<path d="M284.827 350.947C284.657 350.947 284.485 350.908 284.325 350.828C284.185 350.758 270.104 343.84 251.428 343.84C251.099 343.84 250.786 343.696 250.572 343.445C250.358 343.194 250.265 342.862 250.318 342.537L253.178 324.77C253.229 324.456 253.41 324.178 253.676 324.005C253.943 323.832 254.271 323.78 254.578 323.862L286.542 332.389C286.807 332.46 287.036 332.624 287.188 332.852C287.251 332.947 288.747 335.221 289.313 338.528C289.841 341.612 289.636 346.206 285.66 350.579C285.441 350.819 285.137 350.947 284.827 350.947ZM252.746 341.602C268.994 341.869 281.332 346.98 284.534 348.44C289.499 342.337 286.418 336 285.526 334.446L255.199 326.356L252.746 341.602Z" fill="#122A44"/>
<path d="M293.369 357.865C293.126 357.865 292.883 357.771 292.7 357.584C292.625 357.508 285.13 349.941 275.811 347.532C275.31 347.403 275.009 346.891 275.138 346.39C275.267 345.889 275.778 345.588 276.28 345.717C286.115 348.26 293.72 355.947 294.039 356.273C294.401 356.643 294.394 357.236 294.025 357.598C293.842 357.776 293.606 357.865 293.369 357.865Z" fill="#122A44"/>
<path d="M425.82 194.193C425.82 194.193 403.851 186.038 406.704 218.709C406.704 218.709 409.192 188.507 429.405 199.844L425.82 194.193Z" fill="#122A44"/>
<path d="M230.109 20.0859C230.109 20.0859 228.332 29.6799 231.887 35.3469C231.887 35.3469 183.564 51.6939 146.609 115.649C146.609 115.649 138.082 90.0689 85.4941 110.677C85.4941 110.693 106.813 21.8599 230.109 20.0859Z" fill="url(#paint11_linear_1_5791)"/>
<path d="M146.609 116.212C146.59 116.212 146.571 116.211 146.552 116.209C146.332 116.187 146.145 116.037 146.075 115.827C146.055 115.769 143.988 109.875 136.082 106.192C131.138 103.89 124.98 102.913 117.779 103.292C108.663 103.77 97.87 106.431 85.699 111.201L85.698 111.199C85.614 111.233 85.52 111.246 85.425 111.235C85.169 111.204 84.9681 111.003 84.9351 110.748C84.9261 110.675 84.931 110.602 84.949 110.534C85.2 109.522 90.875 87.4181 111.496 65.3001C123.604 52.3121 138.439 41.8951 155.588 34.3361C176.972 24.9111 202.041 19.9281 230.1 19.5241C230.268 19.5151 230.429 19.5951 230.538 19.7231C230.647 19.8521 230.692 20.0221 230.661 20.1881C230.644 20.2821 228.967 29.6351 232.362 35.0481C232.453 35.1941 232.473 35.3731 232.415 35.5351C232.357 35.6971 232.229 35.8241 232.066 35.8791C227.903 37.2891 216.552 42.4741 203.391 52.0021C193.731 58.9951 184.486 67.2471 175.911 76.5301C165.192 88.1341 155.497 101.39 147.095 115.93C146.994 116.106 146.808 116.212 146.609 116.212ZM120.735 102.089C126.865 102.089 132.191 103.13 136.604 105.196C142.958 108.17 145.7 112.435 146.681 114.406C155.001 100.159 164.562 87.1551 175.111 75.7401C183.742 66.4001 193.05 58.0961 202.776 51.0601C215.409 41.9211 226.406 36.7451 231.058 35.0441C228.356 30.0761 229.121 22.8931 229.447 20.6601C201.81 21.1301 177.118 26.0771 156.043 35.3661C139.034 42.8631 124.323 53.1921 112.32 66.0681C94.1319 85.5761 87.696 105.023 86.33 109.751C98.21 105.183 108.78 102.633 117.765 102.168C118.775 102.115 119.766 102.089 120.735 102.089Z" fill="#122A44"/>
<path d="M233.307 40.3379L239.695 46.7259C239.695 46.7259 202.052 86.5299 193.511 123.485C193.511 123.485 178.589 112.824 154.429 121.351C154.425 121.35 179.299 65.2109 233.307 40.3379Z" fill="url(#paint12_linear_1_5791)"/>
<path d="M193.511 124.047C193.395 124.047 193.281 124.011 193.184 123.942C193.148 123.916 189.426 121.303 182.841 119.753C176.766 118.323 166.938 117.531 154.616 121.88C154.464 121.934 154.296 121.919 154.156 121.841C154.015 121.763 153.915 121.628 153.88 121.47C153.834 121.261 153.823 121.211 155.099 118.637C155.818 117.187 157.021 114.843 158.668 111.911C161.573 106.74 166.447 98.7111 173.167 89.8291C180.719 79.8461 189.016 70.8411 197.826 63.0661C208.845 53.3421 220.703 45.5231 233.071 39.8271C233.284 39.7281 233.537 39.7741 233.704 39.9401L240.092 46.3281C240.307 46.5431 240.312 46.8911 240.103 47.1121C240.009 47.2111 230.59 57.2121 220.252 71.5881C210.725 84.8371 198.448 104.616 194.057 123.611C194.015 123.794 193.884 123.944 193.708 124.01C193.645 124.035 193.578 124.047 193.511 124.047ZM172.766 117.495C176.905 117.495 180.407 118.02 183.159 118.672C188.354 119.903 191.765 121.738 193.147 122.579C197.73 103.639 209.889 84.0731 219.35 70.9181C228.567 58.1021 237.06 48.7451 238.914 46.7391L233.187 41.0121C221.087 46.6291 209.479 54.2991 198.679 63.8141C189.94 71.5131 181.706 80.4311 174.206 90.3211C163.446 104.51 157.286 116.656 155.497 120.391C162.026 118.238 167.846 117.495 172.766 117.495Z" fill="#122A44"/>
<path d="M244.678 52.4199C244.678 52.4199 220.515 83.6889 244.678 121.351C244.678 121.351 225.49 104.298 202.041 124.196C202.053 124.196 216.254 73.0279 244.678 52.4199Z" fill="url(#paint13_linear_1_5791)"/>
<path d="M202.041 124.758C201.805 124.758 201.594 124.611 201.513 124.39C201.469 124.271 201.468 124.143 201.504 124.027L201.521 123.968C202.193 121.629 205.891 109.228 212.667 94.7834C216.779 86.0194 221.236 78.1864 225.916 71.5024C231.741 63.1824 237.942 56.6094 244.347 51.9664C244.573 51.8024 244.886 51.8294 245.08 52.0304C245.275 52.2314 245.292 52.5444 245.122 52.7654C245.062 52.8434 239.101 60.6654 236.151 72.9434C234.421 80.1424 234.049 87.4444 235.044 94.6484C236.289 103.655 239.689 112.537 245.15 121.049C245.302 121.285 245.255 121.597 245.042 121.78C244.829 121.962 244.513 121.96 244.303 121.774C244.256 121.732 239.489 117.564 231.976 115.851C227.579 114.848 223.108 114.87 218.69 115.915C213.152 117.225 207.673 120.156 202.403 124.628C202.29 124.729 202.155 124.758 202.041 124.758ZM242.33 54.9424C236.973 59.3264 231.774 65.0984 226.839 72.1464C222.196 78.7774 217.771 86.5544 213.687 95.2604C207.95 107.487 204.435 118.235 203.102 122.599C208.082 118.657 213.243 116.039 218.467 114.81C223.061 113.729 227.707 113.714 232.279 114.764C236.925 115.832 240.506 117.76 242.679 119.179C238.012 111.277 235.071 103.079 233.927 94.7704C232.915 87.4214 233.3 79.9734 235.07 72.6324C237.025 64.5274 240.271 58.3244 242.33 54.9424Z" fill="#122A44"/>
<path d="M356.502 345.554C356.502 345.554 348.449 359.315 363.187 363.806C363.187 363.806 374.107 356.88 375.306 348.023L356.502 345.554ZM272.844 329.902C272.844 329.902 264.93 339.872 271.341 344.137L284.843 347.688C284.843 347.688 290.724 338.03 282.81 332.555L272.844 329.902Z" fill="#122A44"/>
<path d="M355.893 361.194C357.856 361.194 359.448 359.602 359.448 357.639C359.448 355.676 357.856 354.084 355.893 354.084C353.93 354.084 352.338 355.676 352.338 357.639C352.338 359.602 353.93 361.194 355.893 361.194Z" fill="white"/>
<path d="M269.905 340.587C271.868 340.587 273.46 338.995 273.46 337.032C273.46 335.068 271.868 333.477 269.905 333.477C267.942 333.477 266.35 335.068 266.35 337.032C266.35 338.995 267.942 340.587 269.905 340.587Z" fill="white"/>
<path d="M360.158 237.205C360.148 237.205 360.137 237.205 360.126 237.204C359.92 237.187 359.767 237.006 359.784 236.799C359.791 236.711 360.597 227.956 367.222 227.221C367.236 227.219 367.25 227.219 367.263 227.219C367.337 227.219 373.453 227.284 375.914 231.973C375.93 230.981 376.011 229.852 376.221 228.688C377.063 223.999 379.588 221.037 383.522 220.123C383.723 220.076 383.925 220.202 383.972 220.403C384.019 220.605 383.893 220.806 383.692 220.853C380.021 221.706 377.756 224.386 376.959 228.82C376.527 231.224 376.665 233.515 376.781 234.634C376.82 234.874 376.851 235.121 376.874 235.376C376.892 235.577 376.749 235.756 376.549 235.782C376.348 235.808 376.164 235.671 376.132 235.472C376.126 235.434 376.08 235.155 376.032 234.695C375.58 232 374.054 230.06 371.487 228.923C369.472 228.031 367.498 227.972 367.283 227.968C361.292 228.653 360.538 236.779 360.532 236.861C360.515 237.057 360.351 237.205 360.158 237.205Z" fill="black"/>
<path d="M446.03 257.262C446.03 257.262 436.196 248.202 423.404 275.916C423.404 275.916 440.119 258.513 445.974 260.107L446.03 257.262ZM444.323 236.935C444.323 236.935 431.922 219.063 424.113 243.936C424.113 243.936 427.957 237.209 432.091 234.421C433.698 233.337 435.827 233.442 437.318 234.68C439.7 236.687 443.289 241.542 445.987 253.233L444.323 236.935ZM409.864 170.965C409.864 170.965 393.551 173.596 399.233 189.927C399.233 189.927 398.166 174.242 415.768 175.331L409.864 170.965ZM390.45 152.822C390.45 152.822 379.616 153.728 386.861 170.657C387.418 171.961 386.966 173.478 385.786 174.265C384.573 175.076 382.949 174.876 381.968 173.795C380.42 172.089 377.458 168.654 374.663 166.738C373.615 166.01 372.175 166.269 371.446 167.318C371.285 167.55 371.168 167.809 371.1 168.084C370.461 170.805 370.435 176.66 372.945 189.218C372.945 189.218 363.625 175.235 367.684 165.205C369.146 161.582 373.554 160.015 376.868 162.086C378.095 162.889 379.179 163.893 380.074 165.055C380.074 165.055 375.265 146.272 390.45 152.822ZM366.648 137.832C366.648 137.832 349.738 139.065 356.588 151.278C356.829 151.7 357.137 152.08 357.497 152.405L360.293 154.96C361.064 155.902 361.161 157.227 360.533 158.271C359.914 159.307 358.713 159.846 357.527 159.62C353.957 158.929 345.949 155.821 341.169 163.355C340.44 164.476 340.252 165.865 340.658 167.139C341.335 169.207 342.701 170.981 344.529 172.163C344.529 172.163 333.161 166.477 341.688 157.951C341.688 157.951 344.529 154.4 352.345 154.4C352.345 154.4 341.774 135.817 361.984 136.223L366.648 137.832ZM279.841 113.887C279.841 113.887 296.143 98.262 308.16 117.487C308.672 118.312 309.085 119.195 309.389 120.118L311.106 125.274C311.106 125.274 302.579 124.564 298.329 132.38L295.488 129.539C295.488 129.539 296.908 138.066 308.99 150.147C308.99 150.147 309.7 144.461 301.884 135.935C301.884 135.935 310.411 123.158 319.651 131.67C319.651 131.67 323.912 133.804 331.729 146.596C331.729 146.596 329.598 134.514 316.096 125.984C316.096 125.984 311.831 107.51 298.329 103.955C298.33 103.94 285.538 101.11 279.841 113.887ZM250.676 6.93698C250.676 6.93698 245.039 11.555 250.007 27.192C250.007 27.192 243.619 17.241 245.746 6.58398L250.676 6.93698ZM253.562 32.164C253.562 32.164 263.051 42.134 272.874 37.504L272.325 42.231C272.325 42.231 257.113 42.111 253.562 32.164Z" fill="#122A44"/>
<path d="M234.37 20.7985C234.37 20.7985 237.211 12.9825 246.452 8.02148L235.791 8.73148C235.791 8.73148 233.664 11.5575 234.37 20.7985ZM249.297 41.4065C249.297 41.4065 254.273 51.3535 269.905 39.9865L268.484 49.9335C268.484 49.9335 252.852 52.7775 249.297 41.4065Z" fill="#122A44"/>
<path d="M286.252 22.2168C286.252 22.2168 272.036 26.4818 269.905 35.7228C269.905 35.7228 250.007 29.3348 254.272 12.2698C254.287 12.2658 279.841 5.87379 286.252 22.2168Z" fill="url(#paint14_linear_1_5791)"/>
<path d="M348.787 70.5398C348.787 70.5398 357.806 80.6148 355.175 89.7278C355.175 89.7278 375.092 93.9928 379.334 79.7808C379.342 79.7798 362.308 59.3488 348.787 70.5398Z" fill="url(#paint15_linear_1_5791)"/>
<path d="M404.031 262.866C404.031 262.866 398.526 277.086 403.505 285.154C403.505 285.154 383.588 290.84 374.37 279.468C374.37 279.468 390.003 257.439 404.031 262.866Z" fill="url(#paint16_linear_1_5791)"/>
<path d="M347.366 245.357C347.366 245.357 340.26 258.859 343.101 271.662C343.101 271.662 325.274 276.878 317.386 264.308C317.386 264.296 331.73 238.961 347.366 245.357Z" fill="url(#paint17_linear_1_5791)"/>
<path d="M231.466 256.131C231.466 256.131 228.546 264.56 232.969 272.361C232.969 272.361 223.574 279.016 215.912 272.361C215.897 272.362 220.162 259.57 231.466 256.131Z" fill="url(#paint18_linear_1_5791)"/>
<path d="M209.88 253.816C209.88 253.816 206.021 261.854 209.504 270.106C209.504 270.106 199.414 275.649 192.56 268.163C192.56 268.163 198.257 255.935 209.88 253.816Z" fill="url(#paint19_linear_1_5791)"/>
<path d="M184.274 201.652C184.274 201.652 188.317 194.358 197.051 192.415C197.051 192.415 195.781 179.202 185.71 177.955C185.725 177.955 179.269 190.946 184.274 201.652Z" fill="url(#paint20_linear_1_5791)"/>
<path d="M184.274 202.496C184.264 202.496 184.255 202.496 184.245 202.496C183.928 202.485 183.644 202.297 183.51 202.01C181.42 197.539 180.974 192.201 182.185 186.144C183.04 181.868 184.495 178.563 184.92 177.652L184.933 177.624C184.95 177.584 184.971 177.544 184.995 177.506C185.169 177.229 185.488 177.077 185.813 177.118C190.237 177.666 193.734 180.497 195.924 185.303C197.54 188.85 197.877 192.194 197.89 192.334C197.931 192.758 197.649 193.146 197.234 193.238C188.967 195.077 185.05 201.991 185.012 202.06C184.863 202.33 184.58 202.496 184.274 202.496ZM186.215 178.885C185.653 180.17 184.539 182.978 183.84 186.474C182.829 191.528 183.033 196.024 184.443 199.864C186.053 197.656 189.837 193.427 196.112 191.776C195.929 190.642 195.454 188.324 194.372 185.964C192.513 181.911 189.771 179.532 186.215 178.885Z" fill="#122A44"/>
<path d="M206.81 198.967C206.81 198.967 210.346 193.65 219.094 191.707C219.094 191.707 217.317 177.138 208.08 175.717C208.065 175.717 200.974 188.509 206.81 198.967Z" fill="url(#paint21_linear_1_5791)"/>
<path d="M206.811 199.809C206.799 199.809 206.788 199.809 206.776 199.808C206.483 199.796 206.217 199.633 206.074 199.377C203.612 194.965 203.027 189.451 204.384 183.431C205.463 178.641 207.33 175.328 207.349 175.297C207.522 175.002 207.871 174.831 208.21 174.882C212.292 175.51 215.619 178.634 217.831 183.918C219.456 187.801 219.915 191.45 219.934 191.604C219.986 192.035 219.703 192.435 219.279 192.529C211.003 194.367 207.547 199.384 207.513 199.435C207.354 199.669 207.091 199.809 206.811 199.809ZM208.537 176.662C207.375 178.988 202.994 188.813 206.971 197.425C208.466 195.765 211.976 192.619 218.14 191.066C217.646 188.238 215.421 178.241 208.537 176.662Z" fill="#122A44"/>
<path d="M232.394 198.965C232.394 198.965 236.704 191.16 245.453 189.213C245.453 189.213 244.446 176.959 234.375 175.715C234.37 175.715 227.388 188.259 232.394 198.965Z" fill="url(#paint22_linear_1_5791)"/>
<path d="M232.394 199.808C232.384 199.808 232.374 199.808 232.365 199.808C232.048 199.797 231.764 199.61 231.63 199.323C226.425 188.191 233.586 175.383 233.663 175.263C233.838 174.988 234.155 174.839 234.478 174.879C238.898 175.425 242.348 178.086 244.454 182.573C246.011 185.892 246.283 189.014 246.293 189.145C246.328 189.565 246.047 189.946 245.636 190.037C237.38 191.874 233.174 199.299 233.132 199.374C232.983 199.643 232.7 199.808 232.394 199.808ZM234.844 176.638C233.705 178.905 229.397 188.434 232.559 197.159C234.216 194.828 238.155 190.262 244.52 188.574C244.354 187.511 243.925 185.401 242.907 183.247C241.125 179.48 238.415 177.259 234.844 176.638Z" fill="#122A44"/>
<path d="M186.762 260.993C186.762 260.993 181.858 267.535 185.345 275.792C185.345 275.792 175.95 279.926 169.111 272.41C169.111 272.428 175.39 260.279 186.762 260.993Z" fill="url(#paint23_linear_1_5791)"/>
<path d="M255.245 10.2559C255.245 10.2559 251.427 25.7719 271.325 35.7229L269.905 37.8539C269.905 37.8539 248.586 31.4659 252.852 10.8499L255.245 10.2559ZM385.028 77.6459C385.028 77.6459 387.163 87.5819 375.081 94.7219C375.081 94.7219 387.163 91.1669 387.858 79.7989L385.028 77.6459Z" fill="#122A44"/>
<path d="M173.97 443.628C173.97 443.628 70.9251 382.513 96.5091 243.227L68.7951 270.216C68.7951 270.216 63.819 388.215 173.97 443.628Z" fill="url(#paint24_radial_1_5791)"/>
<path d="M100.774 217.643C100.774 217.643 107.162 226.88 115.697 217.643C115.697 217.643 108.237 229.725 100.774 217.643Z" fill="#5DC5F9"/>
<path d="M388.519 82.2285C388.519 82.2285 391.717 88.5755 389.391 97.5455C389.391 97.5455 392.939 93.8475 393.867 84.6295L388.519 82.2285ZM352.338 94.7235C352.338 94.7235 358.024 103.251 370.816 96.8545C370.816 96.8545 358.039 99.6995 353.053 92.5895L352.338 94.7235Z" fill="#122A44"/>
<path d="M352.338 96.1235C352.338 96.1235 354.473 108.9 367.975 107.494C367.975 107.494 360.598 111.898 352.568 108.276L352.338 96.1235ZM379.342 78.3565C379.342 78.3565 375.081 94.7035 353.762 88.3075L353.052 91.8585C353.052 91.8585 377.211 98.9645 384.318 77.6465L379.342 78.3565ZM225.134 454.994C225.134 454.994 246.238 454.419 246.704 475.317L238.399 474.062C238.399 474.062 243.611 459.988 225.134 454.994ZM191.733 440.071C191.733 440.071 207.584 447.824 201.079 468.466L196.013 466.613C196.013 466.613 201.677 445.757 191.733 440.071ZM122.092 394.601C122.092 394.601 131.329 413.079 110.721 418.054L106.46 411.666C106.46 411.666 122.802 415.912 122.092 394.601ZM87.272 359.769C87.272 359.769 86.5621 369.01 73.0601 366.875L73.725 362.88C73.739 362.773 73.8379 362.698 73.9449 362.712C73.9649 362.715 73.985 362.721 74.004 362.729C75.34 363.365 82.176 366.15 87.272 359.769ZM71.6541 248.912C71.6541 248.912 65.9531 274.496 51.7371 268.1L48.892 273.782C48.892 273.782 71.6541 283.022 71.6541 248.912ZM48.186 229.724C48.186 229.724 58.126 250.332 67.374 217.642C67.374 217.642 68.794 246.777 48.896 240.385L48.186 229.724ZM65.243 189.217C65.243 189.217 63.819 204.85 82.296 198.454C82.296 198.454 65.953 213.861 58.49 195.85L65.243 189.217ZM70.925 165.054C70.925 165.054 75.9 179.977 97.929 157.948C97.929 157.948 76.611 189.217 96.509 190.642C96.509 190.642 78.745 193.487 86.562 172.875C86.562 172.875 78.313 180.815 68.937 172.225L70.925 165.054ZM88.692 226.169C88.692 226.169 96.508 228.303 100.063 219.063C100.063 219.063 104.324 226.879 112.145 222.618C112.145 222.618 114.986 221.198 117.117 214.802C117.117 214.802 112.145 226.17 104.34 221.19C104.34 221.19 100.079 219.056 100.079 212.66C100.064 212.667 97.929 226.169 88.692 226.169Z" fill="#122A44"/>
<path d="M242.191 20.0863C242.191 20.0863 247.166 32.8633 252.138 38.5603C252.138 38.5603 239.35 34.2993 242.191 20.0863ZM77.3213 114.601C77.3213 114.601 103.626 49.9323 154.072 31.4543C154.072 31.4543 193.154 15.1113 232.236 16.5313C232.236 16.5313 166.146 8.71534 126.35 42.8363C126.358 42.8253 91.5373 69.1193 77.3213 114.601ZM252.138 53.4863C252.138 53.4863 230.109 77.6453 247.877 118.152C247.877 118.152 222.292 84.7523 252.138 53.4863ZM363.8 101.523C363.8 101.523 378.831 102.778 387.723 92.5343C387.723 92.5343 381.92 108.945 363.8 101.523ZM400.664 97.5443C400.664 97.5443 424.113 119.573 420.581 173.585C420.562 173.585 432.64 120.997 400.664 97.5443Z" fill="#5DC5F9"/>
<path d="M306.146 283.023C306.146 283.023 307.566 287.998 313.962 291.55C313.962 291.55 304.011 273.783 325.33 273.072L312.534 263.828C312.534 263.828 303.305 272.362 306.146 283.023Z" fill="url(#paint25_linear_1_5791)"/>
<path d="M92.2469 107.5L86.561 109.631C86.561 109.631 97.2069 70.5408 136.289 46.3818C136.289 46.3818 171.11 20.0768 229.383 20.7978C228.958 21.6878 228.716 22.6538 228.673 23.6388C228.673 23.6388 122.092 23.6388 92.2469 107.5ZM156.206 119.574C156.206 119.574 181.79 64.8548 232.957 41.4098L234.37 42.8268C234.37 42.8268 195.288 55.6038 159.043 118.864L156.206 119.574Z" fill="#7DA4B7"/>
<path d="M312.534 263.828C312.182 265.839 312.7 267.906 313.958 269.514C313.958 269.514 305.427 275.902 307.57 285.857C307.57 285.864 299.758 269.521 312.534 263.828Z" fill="#5DC5F9"/>
<path d="M240.759 57.0391C240.759 57.0391 217.306 76.2271 203.804 121.708L206.649 119.574C206.649 119.574 213.056 91.1491 240.759 57.0391Z" fill="#7DA4B7"/>
<path d="M316.097 262.414C316.097 262.414 324.624 275.191 345.232 270.23L348.077 271.651C348.077 271.651 327.469 283.022 311.832 263.124L316.097 262.414Z" fill="#122A44"/>
<path d="M310.411 264.545C310.411 264.545 315.387 277.322 326.758 278.757C326.758 278.757 316.097 279.467 307.57 266.675L310.411 264.545Z" fill="#122A44"/>
<path d="M368.816 279.299C368.816 279.299 358.733 295.105 362.999 300.79C362.999 300.79 363.709 304.341 369.387 305.762C369.387 305.762 366.546 295.815 372.938 290.129C376.342 292.293 379.906 294.194 383.599 295.815L387.161 290.133C387.161 290.133 378.894 289.787 368.815 279.303" fill="url(#paint26_linear_1_5791)"/>
<path d="M332.451 280.179C332.451 280.179 348.088 280.893 348.088 270.232L350.929 273.783C350.929 273.783 349.497 282.314 332.451 280.179ZM307.57 267.391C307.57 267.391 302.594 274.497 307.57 285.865C307.57 285.865 298.329 277.338 299.039 272.363L307.57 267.391Z" fill="#122A44"/>
<path d="M336.705 291.55C336.705 291.55 352.338 297.236 355.183 277.338L350.918 271.652C350.918 271.652 350.917 290.133 336.705 291.55ZM367.264 282.313C367.264 282.313 360.158 292.26 363.709 302.211C363.709 302.211 355.893 297.946 362.999 280.179L367.264 282.313ZM381.477 309.317C381.477 309.317 408.376 324.191 412.69 290.46L409.191 285.864C409.191 285.864 409.191 317.133 381.477 309.317Z" fill="#122A44"/>
<path d="M174.68 276.626C174.68 276.626 168.292 304.34 200.985 321.397C200.985 321.397 189.614 297.347 186.773 276.193L174.68 276.626Z" fill="url(#paint27_linear_1_5791)"/>
<path d="M198.486 270.94C198.486 270.94 193.157 303.634 220.872 320.683L219.452 310.736C219.452 310.736 210.211 285.863 211.632 270.215L198.486 270.94Z" fill="url(#paint28_linear_1_5791)"/>
<path d="M389.293 296.521C389.293 296.521 406.872 299.554 409.097 287.731L407.77 285.149C407.77 285.149 406.346 295.815 389.293 296.521ZM367.264 278.758C367.264 278.758 365.84 285.146 377.921 292.97C377.921 292.97 370.105 292.26 365.144 281.602L367.264 278.758Z" fill="#122A44"/>
<path d="M373.66 277.355C373.66 277.355 382.897 291.567 404.926 283.041L407.771 288.016C407.771 288.016 382.187 300.094 367.975 278.065L373.66 277.355Z" fill="#122A44"/>
<path d="M370.815 300.79C370.815 300.79 380.766 305.762 400.664 302.921C400.664 302.91 381.477 315.713 370.815 300.79ZM316.097 283.023C316.097 283.023 325.334 287.284 345.232 284.443C345.228 284.443 329.599 297.945 316.097 283.023Z" fill="#5DC5F9"/>
<path d="M166.154 274.496C166.154 274.496 173.26 281.602 187.472 278.047L189.603 267.39L184.718 265.338C184.718 265.338 182.463 270.223 183.192 275.206C183.192 275.206 174.665 277.337 168.269 271.651L166.154 274.496Z" fill="#122A44"/>
<path d="M166.507 274.85C166.507 274.85 167.217 279.825 175.034 280.536C175.034 280.536 168.27 281.603 164.73 275.918L166.507 274.85ZM178.945 280.893C178.945 280.893 186.051 281.603 187.472 276.628L188.182 280.893C185.233 282.157 181.895 282.157 178.945 280.893Z" fill="#122A44"/>
<path d="M191.733 268.81C191.733 268.81 187.472 286.574 192.447 297.945C192.447 297.945 183.206 284.443 188.182 268.1L191.733 268.81ZM193.158 265.965C193.158 265.965 200.264 272.353 211.632 268.099V270.215C211.632 270.215 199.554 276.603 192.448 268.084L193.158 265.965Z" fill="#122A44"/>
<path d="M191.023 268.1C193.151 271.354 196.468 273.647 200.264 274.488C200.264 274.488 193.158 274.488 189.603 270.223L191.023 268.1ZM205.235 274.496C205.235 274.496 211.623 273.072 211.623 269.521L212.337 273.072C212.337 273.072 210.211 275.206 205.235 274.496Z" fill="#122A44"/>
<path d="M211.631 272.361C211.631 272.361 204.525 285.138 217.317 304.341C217.317 304.341 209.501 283.023 214.476 272.361H211.631Z" fill="#122A44"/>
<path d="M215.205 270.941C215.205 270.941 225.152 277.329 233.682 270.941L236.523 273.072C236.523 273.072 226.576 281.602 213.784 273.782L215.205 270.941Z" fill="#122A44"/>
<path d="M213.056 273.782C213.056 273.782 215.187 278.047 224.424 279.468C224.424 279.468 217.318 280.178 212.346 277.337L213.056 273.782ZM227.982 278.758C227.982 278.758 233.668 278.758 236.509 272.37L238.64 275.925C235.572 278.179 231.765 279.191 227.982 278.758ZM230.819 284.443C230.819 284.443 237.925 283.733 240.06 278.055L240.759 281.602C240.759 281.602 237.925 285.154 230.819 284.443ZM235.084 173.586C235.084 173.586 235.084 160.084 256.402 160.809C256.402 160.809 229.398 155.123 232.243 177.152L235.084 173.586ZM246.456 179.275C246.456 179.275 249.297 183.54 247.876 189.936L251.018 188.982C251.018 188.982 250.717 181.402 246.456 179.275ZM208.516 175.111C208.516 175.111 212.345 160.079 237.215 157.949C237.215 157.949 207.37 157.239 205.949 175.006L208.516 175.111Z" fill="#122A44"/>
<path d="M262.089 157.949C262.089 157.949 279.856 171.451 279.142 182.822L259.977 180.691C259.977 180.691 269.905 174.296 262.089 157.949Z" fill="url(#paint29_linear_1_5791)"/>
<path d="M208.065 402.41C208.065 402.41 222.988 379.667 272.734 407.382C272.75 407.378 230.819 369.72 208.065 402.41Z" fill="#122A44"/>
<path d="M208.065 406.671C208.065 406.671 221.567 385.353 273.452 410.936C273.452 410.936 228.688 376.116 208.065 406.671Z" fill="#5DC5F9"/>
<path d="M291.223 359.769C291.223 359.769 232.867 328.797 198.448 368.296C191.667 376.106 189.588 386.949 192.999 396.713C199.233 414.672 216.824 442.728 266.353 450.748C266.353 450.748 349.496 468.515 407.06 396.74L417.717 386.789C417.717 386.789 360.157 486.974 238.635 448.602C238.635 448.602 183.638 432.383 186.025 381.689C186.048 381.241 186.115 380.797 186.224 380.362C187.475 375.417 196.581 346.793 240.067 344.846C240.067 344.846 278.439 341.295 291.926 358.348L293.369 361.193C292.729 360.615 292.005 360.135 291.223 359.769Z" fill="#5DC5F9"/>
<path d="M452.193 309.65C452.193 309.65 447.153 336.996 469.93 365.443L467.465 371.85C467.465 371.85 448.987 381.801 439.037 415.911L427.669 393.879C427.669 393.879 426.245 391.748 421.983 393.169L414.167 396.014L414.877 393.169L423.404 389.618C423.404 389.618 428.379 388.198 430.51 392.459L438.326 408.806C438.326 408.806 443.301 384.643 465.33 369.01C465.33 369.01 445.432 337.741 448.987 314.291L452.193 309.65Z" fill="#5DC5F9"/>
<path d="M402.085 407.378C402.085 407.378 419.848 386.06 421.273 379.664C421.273 379.664 416.297 397.431 408.496 407.378H402.085Z" fill="#122A44"/>
<path d="M421.273 334.899C421.273 334.899 438.326 324.948 447.578 302.919L453.26 301.498C453.26 301.498 454.673 329.214 421.273 334.899Z" fill="#5DC5F9"/>
<path d="M450.407 296.521C450.407 296.521 444.721 322.105 421.272 334.897C421.272 334.897 445.431 324.236 456.093 300.073L450.407 296.521ZM429.089 354.798C429.089 354.798 447.615 369.345 473.883 364.914V371.761C473.883 371.761 447.567 372.562 429.089 354.798Z" fill="#122A44"/>
<path opacity="0.63" d="M134.174 246.778L157.623 221.908H156.203L132.754 246.778H134.174ZM128.488 246.068L154.072 221.198L147.676 220.484L122.802 245.357L128.488 246.068Z" fill="white"/>
<path d="M143.411 223.329L164.729 227.594V225.46L143.411 223.329ZM139.149 243.227L162.598 245.358L161.888 247.492L139.149 243.227ZM205.239 217.643L237.215 222.618L232.243 263.124L235.084 261.703L240.059 221.197L205.239 217.643ZM246.456 235.41L267.064 239.671L245.742 238.251L246.456 235.41ZM242.901 256.019L263.509 260.284L242.901 258.15V256.019Z" fill="#4F1A00"/>
<path d="M251.427 236.121L284.827 241.096L299.753 263.125L286.251 246.068L284.116 265.966H282.696L284.116 243.227L251.427 236.121Z" fill="white"/>
<path d="M278.432 262.415C278.432 262.415 287.673 262.415 289.803 272.362C289.803 272.362 289.803 261.704 278.432 262.415Z" fill="#4F1A00"/>
<path d="M178.231 216.934C178.231 216.934 175.39 247.493 172.549 258.861C172.549 258.861 174.68 226.881 178.231 216.934Z" fill="white"/>
<path d="M198.843 214.801L175.39 212.667C175.39 212.667 171.835 246.777 169.002 260.993C169.002 260.993 171.133 223.328 173.977 209.826L198.843 214.801ZM123.513 244.646L127.778 220.483L162.599 224.748L125.648 218.352L123.513 244.646Z" fill="white"/>
<path opacity="0.63" d="M236.505 210.536L230.109 216.932L224.423 216.222L230.819 209.826L236.505 210.536Z" fill="white"/>
<defs>
<linearGradient id="paint0_linear_1_5791" x1="389.692" y1="137.886" x2="361.2" y2="128.397" gradientUnits="userSpaceOnUse">
<stop offset="0.33" stop-color="#F3F5F7"/>
<stop offset="0.78" stop-color="#8099B9"/>
</linearGradient>
<linearGradient id="paint1_linear_1_5791" x1="415.173" y1="143.326" x2="382.382" y2="141.654" gradientUnits="userSpaceOnUse">
<stop offset="0.33" stop-color="#F3F5F7"/>
<stop offset="0.37" stop-color="#E4E9EF"/>
<stop offset="0.48" stop-color="#C0CCDC"/>
<stop offset="0.59" stop-color="#A4B6CC"/>
<stop offset="0.7" stop-color="#90A6C2"/>
<stop offset="0.81" stop-color="#849CBB"/>
<stop offset="0.91" stop-color="#8099B9"/>
</linearGradient>
<linearGradient id="paint2_linear_1_5791" x1="364.944" y1="355.674" x2="433.879" y2="394.512" gradientUnits="userSpaceOnUse">
<stop offset="0.12" stop-color="#1797E5"/>
<stop offset="0.14" stop-color="#1693E1"/>
<stop offset="0.33" stop-color="#0A6FBA"/>
<stop offset="0.48" stop-color="#0358A2"/>
<stop offset="0.57" stop-color="#005099"/>
<stop offset="0.71" stop-color="#0663AD"/>
<stop offset="0.99" stop-color="#1694E2"/>
<stop offset="1" stop-color="#1797E5"/>
</linearGradient>
<linearGradient id="paint3_linear_1_5791" x1="149.433" y1="192.162" x2="393.014" y2="418.611" gradientUnits="userSpaceOnUse">
<stop offset="0.13" stop-color="#1797E5"/>
<stop offset="0.26" stop-color="#1693E1"/>
<stop offset="0.4" stop-color="#1287D4"/>
<stop offset="0.54" stop-color="#0B73BE"/>
<stop offset="0.69" stop-color="#0257A0"/>
<stop offset="0.72" stop-color="#005099"/>
</linearGradient>
<linearGradient id="paint4_linear_1_5791" x1="267.338" y1="366.269" x2="188.294" y2="200.928" gradientUnits="userSpaceOnUse">
<stop offset="0.33" stop-color="#F3F5F7"/>
<stop offset="0.78" stop-color="#8099B9"/>
</linearGradient>
<linearGradient id="paint5_linear_1_5791" x1="294.501" y1="262.312" x2="222.297" y2="246.548" gradientUnits="userSpaceOnUse">
<stop offset="0.17" stop-color="#F7AE2D"/>
<stop offset="0.86" stop-color="#B04211"/>
</linearGradient>
<linearGradient id="paint6_linear_1_5791" x1="120.311" y1="234.917" x2="174.173" y2="239.626" gradientUnits="userSpaceOnUse">
<stop offset="0.17" stop-color="#F7AE2D"/>
<stop offset="0.86" stop-color="#B04211"/>
</linearGradient>
<linearGradient id="paint7_linear_1_5791" x1="138.526" y1="215.7" x2="182.46" y2="77.7129" gradientUnits="userSpaceOnUse">
<stop offset="0.26" stop-color="#1797E5"/>
<stop offset="0.4" stop-color="#1694E2"/>
<stop offset="0.51" stop-color="#138BD8"/>
<stop offset="0.61" stop-color="#0E7CC8"/>
<stop offset="0.7" stop-color="#0767B1"/>
<stop offset="0.77" stop-color="#005099"/>
</linearGradient>
<linearGradient id="paint8_linear_1_5791" x1="259.599" y1="320.144" x2="226.251" y2="310.122" gradientUnits="userSpaceOnUse">
<stop offset="0.26" stop-color="#1797E5"/>
<stop offset="0.77" stop-color="#005099"/>
</linearGradient>
<linearGradient id="paint9_linear_1_5791" x1="305.87" y1="300.882" x2="260.193" y2="311.521" gradientUnits="userSpaceOnUse">
<stop offset="0.26" stop-color="#1797E5"/>
<stop offset="0.77" stop-color="#005099"/>
</linearGradient>
<radialGradient id="paint10_radial_1_5791" cx="0" cy="0" r="1" gradientUnits="userSpaceOnUse" gradientTransform="translate(378.243 365.259) rotate(6.67929) scale(151.915 104.822)">
<stop offset="0.26" stop-color="#1797E5"/>
<stop offset="0.77" stop-color="#005099"/>
</radialGradient>
<linearGradient id="paint11_linear_1_5791" x1="88.5183" y1="58.3155" x2="218.11" y2="71.5095" gradientUnits="userSpaceOnUse">
<stop offset="0.33" stop-color="#F3F5F7"/>
<stop offset="0.78" stop-color="#8099B9"/>
</linearGradient>
<linearGradient id="paint12_linear_1_5791" x1="154.465" y1="81.9022" x2="239.732" y2="81.9022" gradientUnits="userSpaceOnUse">
<stop offset="0.33" stop-color="#F3F5F7"/>
<stop offset="0.78" stop-color="#8099B9"/>
</linearGradient>
<linearGradient id="paint13_linear_1_5791" x1="202.078" y1="88.2993" x2="244.716" y2="88.2993" gradientUnits="userSpaceOnUse">
<stop offset="0.33" stop-color="#F3F5F7"/>
<stop offset="0.78" stop-color="#8099B9"/>
</linearGradient>
<linearGradient id="paint14_linear_1_5791" x1="279.906" y1="37.0452" x2="260.068" y2="6.15884" gradientUnits="userSpaceOnUse">
<stop offset="0.33" stop-color="#F3F5F7"/>
<stop offset="0.78" stop-color="#8099B9"/>
</linearGradient>
<linearGradient id="paint15_linear_1_5791" x1="376.738" y1="70.8199" x2="348.842" y2="85.455" gradientUnits="userSpaceOnUse">
<stop offset="0.33" stop-color="#F3F5F7"/>
<stop offset="0.78" stop-color="#8099B9"/>
</linearGradient>
<linearGradient id="paint16_linear_1_5791" x1="408.592" y1="284.503" x2="378.597" y2="264.58" gradientUnits="userSpaceOnUse">
<stop offset="0.33" stop-color="#F3F5F7"/>
<stop offset="0.78" stop-color="#8099B9"/>
</linearGradient>
<linearGradient id="paint17_linear_1_5791" x1="350.046" y1="262.57" x2="319.199" y2="252.979" gradientUnits="userSpaceOnUse">
<stop offset="0.33" stop-color="#F3F5F7"/>
<stop offset="0.78" stop-color="#8099B9"/>
</linearGradient>
<linearGradient id="paint18_linear_1_5791" x1="215.086" y1="266.569" x2="235.666" y2="265.041" gradientUnits="userSpaceOnUse">
<stop offset="0.33" stop-color="#F3F5F7"/>
<stop offset="0.78" stop-color="#8099B9"/>
</linearGradient>
<linearGradient id="paint19_linear_1_5791" x1="192.624" y1="262.486" x2="213.246" y2="263.31" gradientUnits="userSpaceOnUse">
<stop offset="0.33" stop-color="#F3F5F7"/>
<stop offset="0.78" stop-color="#8099B9"/>
</linearGradient>
<linearGradient id="paint20_linear_1_5791" x1="180.304" y1="180.995" x2="193.899" y2="198.564" gradientUnits="userSpaceOnUse">
<stop offset="0.33" stop-color="#F3F5F7"/>
<stop offset="0.78" stop-color="#8099B9"/>
</linearGradient>
<linearGradient id="paint21_linear_1_5791" x1="202.539" y1="178.765" x2="216.883" y2="197.298" gradientUnits="userSpaceOnUse">
<stop offset="0.33" stop-color="#F3F5F7"/>
<stop offset="0.78" stop-color="#8099B9"/>
</linearGradient>
<linearGradient id="paint22_linear_1_5791" x1="228.876" y1="178.68" x2="241.792" y2="195.37" gradientUnits="userSpaceOnUse">
<stop offset="0.33" stop-color="#F3F5F7"/>
<stop offset="0.78" stop-color="#8099B9"/>
</linearGradient>
<linearGradient id="paint23_linear_1_5791" x1="169.1" y1="268.46" x2="189.931" y2="269.294" gradientUnits="userSpaceOnUse">
<stop offset="0.33" stop-color="#F3F5F7"/>
<stop offset="0.78" stop-color="#8099B9"/>
</linearGradient>
<radialGradient id="paint24_radial_1_5791" cx="0" cy="0" r="1" gradientUnits="userSpaceOnUse" gradientTransform="translate(121.401 344.142) scale(141.451 89.1104)">
<stop offset="0.17" stop-color="#3FC0E5"/>
<stop offset="0.62" stop-color="#20A1E6"/>
</radialGradient>
<linearGradient id="paint25_linear_1_5791" x1="325.376" y1="283.838" x2="305.17" y2="273.549" gradientUnits="userSpaceOnUse">
<stop offset="0.26" stop-color="#1797E5"/>
<stop offset="0.77" stop-color="#005099"/>
</linearGradient>
<linearGradient id="paint26_linear_1_5791" x1="387.986" y1="302.31" x2="362.237" y2="289.203" gradientUnits="userSpaceOnUse">
<stop offset="0.26" stop-color="#1797E5"/>
<stop offset="0.77" stop-color="#005099"/>
</linearGradient>
<linearGradient id="paint27_linear_1_5791" x1="221.41" y1="310.329" x2="161.84" y2="285.327" gradientUnits="userSpaceOnUse">
<stop offset="0.26" stop-color="#1797E5"/>
<stop offset="0.77" stop-color="#005099"/>
</linearGradient>
<linearGradient id="paint28_linear_1_5791" x1="242.05" y1="304.981" x2="176.444" y2="280.689" gradientUnits="userSpaceOnUse">
<stop offset="0.26" stop-color="#1797E5"/>
<stop offset="0.77" stop-color="#005099"/>
</linearGradient>
<linearGradient id="paint29_linear_1_5791" x1="254.422" y1="164.78" x2="284.647" y2="185.388" gradientUnits="userSpaceOnUse">
<stop offset="0.26" stop-color="#1797E5"/>
<stop offset="0.77" stop-color="#005099"/>
</linearGradient>
</defs>
</svg>
