<svg width="500" height="501" viewBox="0 0 500 501" fill="none" xmlns="http://www.w3.org/2000/svg">
<path d="M265.232 213.663C262.32 157.818 258.828 102.003 255.456 46.1827C254.556 31.2727 253.224 16.3897 252.09 1.49369C251.862 1.47269 251.633 1.45069 251.405 1.42969C251.272 2.30669 251.079 3.17969 251.014 4.06169C248.277 41.5187 244.868 78.9427 242.974 116.444C241.292 149.755 239.706 183.073 238.294 216.398C247.47 217.372 257.149 219.22 265.739 224.068C265.581 220.599 265.413 217.13 265.232 213.663Z" fill="url(#paint0_linear_1_5942)"/>
<path d="M234.385 357.988C234.56 376.97 235.074 395.957 235.661 414.922C236.406 438.977 238.769 462.989 240.68 486.998C241.205 493.593 244.449 498.456 252.004 498.387C259.494 498.319 262.444 493.373 262.89 486.895C264.85 458.394 267.433 429.898 268.136 401.359C268.164 400.23 268.178 399.101 268.203 397.972C260.262 381.884 249.544 367.724 234.385 357.988Z" fill="#77D1F3"/>
<path d="M267.884 299.883C267.842 297.132 267.786 294.38 267.738 291.629C258.453 283.861 247.662 277.74 236.053 273.951C235.591 286.949 235.154 299.947 234.764 312.947C234.315 327.948 234.246 342.966 234.384 357.987C249.543 367.723 260.262 381.884 268.203 397.971C268.92 365.293 268.384 332.575 267.884 299.883Z" fill="#44BCEE"/>
<path d="M265.74 224.068C257.15 219.219 247.471 217.371 238.295 216.398C237.482 235.58 236.736 254.765 236.054 273.952C247.664 277.741 258.454 283.863 267.739 291.63C267.349 269.103 266.771 246.572 265.74 224.068Z" fill="#34ADE6"/>
<path d="M316.084 256.338C315.807 252.807 315.519 249.277 315.214 245.75C309.928 184.613 298.502 124.574 278.78 66.3118C275.073 55.3618 270.616 44.6658 265.805 32.0098C265.576 34.4818 265.477 34.8628 265.517 35.2288C269.332 70.6708 273.01 106.128 277.013 141.549C280.469 172.127 282.886 202.757 284.223 233.424C295.442 240.2 307.838 246.456 316.084 256.338Z" fill="url(#paint1_linear_1_5942)"/>
<path d="M284.77 330.207C283.159 378.924 279.691 427.579 277.162 476.267C276.883 481.645 279.179 485.968 284.76 487.462C290.142 488.903 293.868 486.232 295.995 481.522C298.386 476.227 300.63 470.83 302.439 465.313C311.729 436.97 316.275 407.908 318.227 378.565C312.176 353.599 304.022 326.88 285.3 307.814C285.188 315.277 285.017 322.741 284.77 330.207Z" fill="#49C0F0"/>
<path d="M316.084 256.339C307.838 246.457 295.442 240.202 284.222 233.424C285.302 258.199 285.668 282.998 285.298 307.815C304.019 326.881 312.173 353.6 318.225 378.566C319.098 365.442 319.454 352.263 319.482 339.065C319.54 311.496 318.245 283.853 316.084 256.339Z" fill="#3AA8E2"/>
<path d="M236.623 34.1211C232.743 44.4031 228.42 54.5421 225.053 64.9891C208.818 115.357 197.416 166.279 190.859 217.739C200.698 215.848 210.592 213.452 221.222 213.95C224.617 164.403 229.955 114.964 234.348 65.4751C235.268 55.1101 236.607 44.7811 237.752 34.4361C237.375 34.3301 236.999 34.2251 236.623 34.1211Z" fill="url(#paint2_linear_1_5942)"/>
<path d="M218.585 270.264C207.701 266.199 196.817 269.962 185.933 269.477C184.393 293.571 183.9 317.78 184.462 342.104C196.303 342.211 208.774 343.325 219.058 348.973C218.413 322.749 218.048 296.48 218.585 270.264Z" fill="#49BFEF"/>
<path d="M226.413 474.59C223.961 437.043 220.431 399.525 219.395 361.939C219.276 357.619 219.164 353.296 219.058 348.973C208.774 343.325 196.303 342.211 184.462 342.104C184.904 361.217 185.998 380.4 187.751 399.654C190.268 427.288 195.593 454.472 206.898 480.126C209.192 485.331 212.59 489.13 218.754 487.467C225.121 485.75 226.811 480.684 226.413 474.59Z" fill="#77D1F3"/>
<path d="M218.585 270.263C218.824 258.594 219.235 246.935 219.887 235.295C220.286 228.177 220.733 221.062 221.221 213.949C210.592 213.451 200.698 215.848 190.858 217.738C188.668 234.923 187.038 252.17 185.932 269.475C196.817 269.961 207.701 266.198 218.585 270.263Z" fill="#2DB4EC"/>
<path d="M334.286 282.598C334.613 288.243 334.899 293.896 335.092 299.562C336.902 352.686 332.198 405.195 318.116 456.64C316.589 462.218 317.62 466.928 322.943 469.614C328.381 472.358 332.57 469.472 334.978 464.859C339.569 456.061 344.852 447.32 347.565 437.898C355.453 410.505 359.855 382.731 361.724 354.724C358.519 328.846 349.147 303.451 334.286 282.598Z" fill="url(#paint3_linear_1_5942)"/>
<path d="M361.759 285.97C358.366 227.36 341.85 172.235 315.61 119.917C311.769 112.258 307.156 104.986 302.9 97.5352C302.608 97.6722 302.316 97.8102 302.024 97.9472C302.205 98.7032 302.362 99.4662 302.57 100.215C319.204 160.018 330.699 220.684 334.286 282.596C349.147 303.449 356.941 329.024 361.724 354.722C363.245 331.933 363.091 308.989 361.759 285.97Z" fill="url(#paint4_linear_1_5942)"/>
<path d="M175.392 221.877C166.105 224.142 157.472 228.894 148.897 232.556C145.475 250.164 143.18 268.095 141.969 286.334C150.073 279.172 160.219 276.789 169.913 273.573C171.146 256.25 172.992 239.021 175.392 221.877Z" fill="#2FBBF0"/>
<path d="M168.996 288.521C169.246 283.53 169.558 278.548 169.912 273.572C160.218 276.789 150.072 279.172 141.968 286.333C141.691 290.503 141.452 294.683 141.291 298.885C140.57 317.623 140.873 336.328 142.207 354.97C150.729 350.292 159.287 346.527 168.669 344.46C167.914 325.902 168.057 307.254 168.996 288.521Z" fill="#52C4F1"/>
<path d="M168.669 344.461C159.287 346.528 150.729 350.293 142.207 354.971C143.326 370.608 145.168 386.2 147.765 401.727C151.417 423.565 155.481 445.376 168.195 464.28C171.103 468.603 174.654 472.443 180.548 469.665C186.363 466.924 186.911 461.862 185.404 456.279C175.457 419.43 170.202 382.133 168.669 344.461Z" fill="#77D1F3"/>
<path d="M201.8 96.5957C200.236 98.9717 199.429 100.085 198.736 101.265C174.359 142.762 157.834 186.57 148.897 232.556C157.473 228.894 166.106 224.142 175.392 221.877C179.401 193.239 184.933 164.832 191.654 136.6C194.724 123.709 198.16 110.905 201.8 96.5957Z" fill="url(#paint5_linear_1_5942)"/>
<path d="M370.684 214.822C365.434 205.152 360.033 195.564 354.702 185.938C354.415 186.075 354.128 186.214 353.84 186.352C354.165 187.242 354.494 188.13 354.813 189.022C376.009 248.229 384.242 308.993 375.631 371.519C372.8 392.073 368.045 412.355 364.569 432.83C364.216 434.909 363.658 438.313 364.179 440.54C364.647 442.54 366.901 443.517 368.699 442.524C370.637 441.453 373.502 438.333 374.88 436.768C395.826 412.982 402.433 385.463 404.045 354.722C406.661 304.853 394.291 258.299 370.684 214.822Z" fill="url(#paint6_linear_1_5942)"/>
<path d="M130.261 258.544C131.17 253.817 132.191 249.112 133.258 244.416C125.917 248.737 120.038 254.52 113.398 259.542C104.583 283.678 99.8184 308.088 99.3184 332.67C106.564 320.846 115.235 311.072 124.706 301.462C125.669 287.179 127.507 272.872 130.261 258.544Z" fill="#3AC1F1"/>
<path d="M126.663 369.02C123.867 346.576 123.181 324.049 124.706 301.461C115.236 311.071 106.564 320.844 99.3182 332.669C98.8972 353.345 101.507 374.142 107.255 394.998C112.044 384.951 118.515 376.539 126.663 369.02Z" fill="#5DCAF2"/>
<path d="M139.298 437.976C139.334 431.762 138.373 426.444 136.793 420.556C132.197 403.433 128.809 386.251 126.663 369.021C118.515 376.54 112.044 384.951 107.254 394.999C108.298 398.788 109.434 402.579 110.687 406.371C115.165 419.926 122.395 432.083 133.183 441.758C133.948 442.444 135.035 442.771 136.144 443.073C137.21 443.363 138.33 442.838 138.788 441.833C139.273 440.771 139.292 438.978 139.298 437.976Z" fill="#77D1F3"/>
<path d="M116.172 252.258C115.202 254.683 114.287 257.111 113.399 259.542C120.039 254.52 125.918 248.737 133.259 244.416C137.432 226.05 142.586 207.872 147.217 189.594C136.722 210.423 124.799 230.682 116.172 252.258Z" fill="#08B2EF"/>
<path d="M148.995 186.65C148.661 186.616 148.326 186.583 147.992 186.549C147.739 187.565 147.474 188.578 147.216 189.593C147.334 189.36 147.453 189.127 147.57 188.894C147.966 188.106 148.517 187.396 148.995 186.65Z" fill="#77D1F3"/>
<defs>
<linearGradient id="paint0_linear_1_5942" x1="248.446" y1="1.47799" x2="252.084" y2="224.291" gradientUnits="userSpaceOnUse">
<stop stop-color="#6556A5"/>
<stop offset="0.9989" stop-color="#3084CB"/>
</linearGradient>
<linearGradient id="paint1_linear_1_5942" x1="288.934" y1="31.6313" x2="292.609" y2="256.721" gradientUnits="userSpaceOnUse">
<stop stop-color="#6556A5"/>
<stop offset="0.9989" stop-color="#3084CB"/>
</linearGradient>
<linearGradient id="paint2_linear_1_5942" x1="212.81" y1="34.5096" x2="215.795" y2="217.332" gradientUnits="userSpaceOnUse">
<stop stop-color="#5267B3"/>
<stop offset="0.9989" stop-color="#0FA1E3"/>
</linearGradient>
<linearGradient id="paint3_linear_1_5942" x1="296.357" y1="454.156" x2="359.634" y2="322.329" gradientUnits="userSpaceOnUse">
<stop stop-color="#03ACEC"/>
<stop offset="1" stop-color="#3EA8E1"/>
</linearGradient>
<linearGradient id="paint4_linear_1_5942" x1="330.994" y1="120.028" x2="333.631" y2="281.516" gradientUnits="userSpaceOnUse">
<stop stop-color="#6556A5"/>
<stop offset="0.9989" stop-color="#3084CB"/>
</linearGradient>
<linearGradient id="paint5_linear_1_5942" x1="174.247" y1="97.0454" x2="176.452" y2="232.106" gradientUnits="userSpaceOnUse">
<stop stop-color="#3480C8"/>
<stop offset="0.9994" stop-color="#03B0EE"/>
</linearGradient>
<linearGradient id="paint6_linear_1_5942" x1="370.374" y1="191.04" x2="388.171" y2="442.17" gradientUnits="userSpaceOnUse">
<stop stop-color="#5465B2"/>
<stop offset="1" stop-color="#03ACEC"/>
</linearGradient>
</defs>
</svg>
