<svg width="500" height="501" viewBox="0 0 500 501" fill="none" xmlns="http://www.w3.org/2000/svg">
<path d="M114.528 43.1896L187.722 2.10156L466.793 164.743V255.367L391.774 296.777L191.923 182.664V168.34L387.444 280.292L387.067 213.568L192.558 99.7326L192.332 86.1516L391.591 204.527L452.658 167.963L188.803 16.3026L127.706 50.1136L114.528 43.1896Z" fill="#6FD562"/>
<path d="M466.793 255.366V335.67L188.568 496.759L110.086 451.448V365.834L309.957 250.059L321.17 256.462L128.175 370.267L186.148 403.302L381.061 290.659L391.774 296.776L192.764 412.156L192.848 482.908L456.117 330.233L456.073 261.283L466.793 255.366Z" fill="#1F2645"/>
<path d="M110.086 451.447L38.7019 410.883L38.7079 87.1352L117.19 41.8242L192.332 86.1502L191.666 318.578L180.67 325.055L180.253 99.9602L120.856 134.003L121.007 359.507L110.086 365.833V134.003L50.9799 100.469L50.3589 402.81L110.086 437.794V451.447Z" fill="#2470D5"/>
</svg>
