<svg width="500" height="501" viewBox="0 0 500 501" fill="none" xmlns="http://www.w3.org/2000/svg">
<path d="M297.3 450.729C297.3 476.929 276.3 497.929 250.1 497.929C224.1 497.929 202.9 476.929 202.9 450.729V51.2293C202.9 25.0293 224.2 4.0293 250.1 4.0293C276.3 4.0293 297.3 25.3293 297.3 51.2293V450.729Z" fill="#51DED2"/>
<path d="M439 75.1289C413 75.1289 391.8 96.1289 391.8 122.329V278.329C391.8 304.529 412.8 325.529 439 325.529C465.2 325.529 486.2 304.229 486.2 278.329V122.329C486.3 96.1289 465.2 75.1289 439 75.1289Z" fill="#51DED2"/>
<path d="M108.3 450.729C108.3 476.929 86.9999 497.929 61.0999 497.929C35.0999 497.929 13.8999 476.929 13.8999 450.729V383.729C13.8999 357.729 35.1999 336.529 61.0999 336.529C87.0999 336.529 108.3 357.829 108.3 383.729V450.729Z" fill="#51DED2"/>
</svg>
