<svg width="500" height="501" viewBox="0 0 500 501" fill="none" xmlns="http://www.w3.org/2000/svg">
<path d="M71.463 227.011C82.927 250.08 81.084 267.331 66.01 280.704C53.673 291.649 35.029 293.158 20.935 284.351C5.84297 274.921 -0.821033 257.264 4.32897 240.355C10.001 221.734 24.869 213.044 50.763 213.649C58.559 200.829 66.552 187.703 74.528 174.566C84.05 158.883 93.544 143.184 103.076 127.506C108.039 119.343 114.617 116.985 121.268 120.914C127.872 124.815 128.884 131.804 123.915 139.994C108.435 165.507 92.907 190.99 77.432 216.505C75.293 220.035 73.349 223.682 71.463 227.011ZM40.971 265.737C48.454 265.774 54.977 259.257 55.07 251.652C55.163 244.032 48.802 237.791 40.968 237.815C32.978 237.839 26.923 243.804 26.93 251.646C26.936 259.218 33.395 265.7 40.971 265.737ZM137.58 395.918C162.464 396.336 176.918 406.149 181.739 425.637C185.748 441.842 177.66 459.737 162.573 468.039C147.683 476.233 128.509 473.229 116.681 460.85C103.025 446.557 102.677 429.499 115.882 407.462C102.638 384.397 89.263 361.096 75.879 337.801C72.225 331.44 68.439 325.152 64.905 318.726C60.807 311.275 62.296 304.446 68.565 300.851C74.785 297.284 81.563 299.347 85.826 306.688C101.915 334.396 117.832 362.204 133.833 389.963C135.041 392.055 136.406 394.058 137.58 395.918ZM144.251 420.418C136.15 420.46 130.37 426.258 130.401 434.311C130.432 442.355 136.295 448.191 144.332 448.176C152.187 448.162 158.284 442.068 158.298 434.218C158.312 426.49 152.09 420.378 144.251 420.418ZM360.494 109.589C339.869 111.396 323.043 101.141 317.517 83.9593C311.855 66.3523 318.577 48.0723 334.147 38.7343C349.544 29.5003 368.7 32.0443 381.249 44.9893C395.082 59.2593 395.463 77.6263 382.045 98.2453C394.706 120.249 407.494 142.471 420.28 164.693C424.426 171.899 428.646 179.064 432.692 186.325C437.173 194.367 436.004 201.138 429.668 204.951C423.327 208.767 416.651 206.564 412.021 198.604C396.038 171.126 380.206 143.559 364.31 116.029C363.101 113.936 361.846 111.869 360.494 109.589ZM353.665 85.5503C361.486 85.6573 367.614 79.7583 367.825 71.9203C368.031 64.2573 361.941 57.8063 354.283 57.5743C346.239 57.3313 339.787 63.6063 339.777 71.6833C339.766 79.5443 345.672 85.4403 353.665 85.5503ZM448.937 291.848C437.053 311.425 425.008 331.258 412.971 351.096C407.262 360.505 401.692 370.002 395.831 379.315C391.013 386.969 384.249 388.866 377.891 384.753C372.074 380.989 370.936 373.794 375.293 366.596C393.02 337.31 410.82 308.069 428.536 278.906C416.497 260.984 416.817 241.505 432.764 226.019C445.424 213.725 464.639 212.551 479.528 222.213C493.862 231.514 500.24 249.625 494.949 266C488.915 284.677 473.852 293.269 448.937 291.848ZM458.801 240.034C450.669 240.063 444.364 246.439 444.541 254.455C444.711 262.173 450.879 268.328 458.547 268.432C466.273 268.537 472.889 261.82 472.814 253.948C472.741 246.371 466.332 240.008 458.801 240.034ZM180.84 61.5173C214.394 61.5173 247.667 61.3943 280.937 61.6753C285.041 61.7103 290.281 62.7623 292.889 65.4143C295.389 67.9563 297.105 74.2343 295.637 76.9923C293.617 80.7853 288.44 84.8873 284.33 85.2073C271.195 86.2323 257.928 85.5693 244.712 85.5673C223.183 85.5633 201.653 85.5663 180.27 85.5663C169.082 108.488 149.008 114.488 132.004 109.156C115.212 103.89 104.627 88.8813 105.074 71.3633C105.509 54.3163 117.502 39.4723 134.272 35.2213C153.202 30.4223 167.335 38.2733 180.84 61.5173ZM157.245 72.4373C157.182 64.8263 150.708 58.3473 143.193 58.3733C135.555 58.3993 129.397 64.8073 129.466 72.6563C129.535 80.5563 135.585 86.5683 143.464 86.5673C151.131 86.5663 157.309 80.2323 157.245 72.4373ZM316.092 423.143C326.992 401.643 342.548 392.87 361.549 396.988C378.08 400.571 390.422 414.955 391.364 431.734C392.37 449.666 381.898 465.43 365.357 470.882C346.555 477.079 330.783 469.743 316.29 447.491C314.196 447.491 311.562 447.49 308.929 447.491C277.121 447.51 245.313 447.588 213.506 447.51C205.428 447.49 199.825 442.22 199.891 435.291C199.956 428.522 205.178 423.719 213.071 423.274C215.511 423.136 217.963 423.21 220.41 423.208C249.282 423.184 278.153 423.164 307.025 423.143C309.947 423.141 312.868 423.143 316.092 423.143ZM353.47 420.424C345.729 420.324 339.569 426.314 339.402 434.106C339.233 441.947 345.11 448.177 352.869 448.385C361.068 448.604 367.315 442.511 367.269 434.337C367.225 426.412 361.387 420.527 353.47 420.424ZM356.868 243.86C355.141 241.862 349.432 241.86 346.181 242.938C340.174 244.93 339.692 250.775 339.41 256.352C337.188 300.376 307.553 334.714 264.434 343.028C258.699 344.134 252.757 344.128 246.93 344.807C240.169 345.595 236.925 350.095 236.921 356.334C236.916 362.821 240.905 366.72 247.417 367.397C250.557 367.724 253.785 367.542 256.946 367.268C314.287 362.31 358.417 316.997 364.017 258.5C361.747 253.521 360.301 247.832 356.868 243.86ZM149.097 263.505C155.511 261.095 156.062 255.608 156.462 249.701C158.723 216.352 173.802 190.647 202.743 173.478C216.29 165.442 231.016 161.678 246.779 161.355C254.71 161.192 259.32 156.497 259.3 149.869C259.28 143.02 254.088 138.579 245.923 138.441C244.946 138.424 243.966 138.466 242.989 138.499C184.284 140.484 135.005 190.396 133.735 249.154C133.493 260.42 140.281 266.818 149.097 263.505ZM285.561 253.178C285.498 273.744 268.718 290.516 248.143 290.579C227.267 290.643 210.196 273.604 210.274 252.78C210.35 232.356 227.338 215.407 247.807 215.333C268.644 215.257 285.626 232.28 285.561 253.178ZM233.371 252.856C233.309 261.259 239.785 267.688 248.231 267.608C256.18 267.533 262.63 261.053 262.681 253.093C262.734 244.716 256.173 238.231 247.764 238.349C239.741 238.46 233.43 244.821 233.371 252.856ZM324.816 254.881C324.772 246.23 319.234 240.502 311.827 241.838C304.484 243.163 302.505 248.428 301.981 255.254C299.735 284.498 278.885 305.369 250.697 306.975C241.542 307.497 236.595 311.609 236.679 318.629C236.766 325.887 242.26 329.983 251.644 329.786C290.673 328.971 325.015 293.815 324.816 254.881ZM181.843 264.339C188.708 264.693 193.478 259.736 194.083 251.616C196.403 220.487 215.839 201.181 247.257 198.797C254.871 198.219 259.495 193.513 259.139 186.703C258.8 180.231 254.141 176.314 246.605 176.166C207.931 175.404 172.152 209.936 171.365 248.784C171.164 258.633 174.762 263.974 181.843 264.339Z" fill="url(#paint0_linear_1_5975)"/>
<defs>
<linearGradient id="paint0_linear_1_5975" x1="2.60867" y1="253.107" x2="496.795" y2="253.107" gradientUnits="userSpaceOnUse">
<stop stop-color="#ED274D"/>
<stop offset="1" stop-color="#313192"/>
</linearGradient>
</defs>
</svg>
