<svg width="500" height="501" viewBox="0 0 500 501" fill="none" xmlns="http://www.w3.org/2000/svg">
<g clip-path="url(#clip0_1_5977)">
<path d="M493.5 234.73L316.5 57.7301C307.8 49.0301 293.8 49.0301 285.1 57.7301L181.4 161.53L151.4 131.53C142.7 122.83 128.7 122.83 119.9 131.53L6.50001 244.83C-2.19999 253.53 -2.19999 267.53 6.50001 276.33L119.9 389.73C128.6 398.43 142.6 398.43 151.4 389.73L171.3 369.83L87.8 286.43C79.1 277.73 79.1 263.73 87.8 255.03L92.4 250.43L285 443.03C293.7 451.73 307.7 451.73 316.4 443.03L493.4 266.03C502.2 257.43 502.2 243.43 493.5 234.73Z" fill="#6436FF"/>
</g>
<defs>
<clipPath id="clip0_1_5977">
<rect width="500" height="500" fill="white" transform="translate(0 0.429688)"/>
</clipPath>
</defs>
</svg>
