<svg width="500" height="501" viewBox="0 0 500 501" fill="none" xmlns="http://www.w3.org/2000/svg">
<g clip-path="url(#clip0_1_5979)">
<path d="M250 501.43C388.071 501.43 500 389.501 500 251.43C500 113.359 388.071 1.42969 250 1.42969C111.929 1.42969 0 113.359 0 251.43C0 389.501 111.929 501.43 250 501.43Z" fill="url(#paint0_radial_1_5979)"/>
<path d="M122.7 124.129C176.5 70.3295 256 57.7295 321.8 86.3295L287.5 120.629C241.6 107.529 190.1 119.03 153.9 155.23C106.1 203.03 101.3 277.629 139.6 330.729L190.7 279.63L221.8 310.729L139.3 393.229C133.6 388.729 128.1 383.93 122.8 378.63C52.4 308.43 52.4 194.43 122.7 124.129Z" fill="white"/>
<path d="M178.2 416.529C244 445.129 323.4 432.529 377.3 378.729C447.6 308.429 447.6 194.429 377.3 124.129C372 118.829 366.5 114.029 360.8 109.529L278.3 192.029L309.4 223.129L360.5 172.029C398.8 225.129 394 299.729 346.2 347.529C310 383.729 258.5 395.229 212.6 382.129L178.2 416.529Z" fill="white"/>
<path d="M281.1 251.43L250 220.33L218.9 251.43L250 282.53L281.1 251.43Z" fill="white"/>
<path d="M190.6 160.93L221.7 192.03L190.6 223.13L159.5 192.03L190.6 160.93Z" fill="white"/>
<path d="M340.5 310.83L309.4 279.73L278.3 310.83L309.4 341.93L340.5 310.83Z" fill="white"/>
</g>
<defs>
<radialGradient id="paint0_radial_1_5979" cx="0" cy="0" r="1" gradientUnits="userSpaceOnUse" gradientTransform="translate(250 251.429) rotate(90) scale(249.999)">
<stop stop-color="#304FFE"/>
<stop offset="1" stop-color="#3D5AFE"/>
</radialGradient>
<clipPath id="clip0_1_5979">
<rect width="500" height="500" fill="white" transform="translate(0 0.429688)"/>
</clipPath>
</defs>
</svg>
