<svg width="500" height="501" viewBox="0 0 500 501" fill="none" xmlns="http://www.w3.org/2000/svg">
<path d="M98.5859 166.609C147.747 193.661 194.004 219.114 242.976 246.062C193.74 275.141 147.317 302.558 98.5859 331.339C98.5859 275.099 98.5859 222.444 98.5859 166.609ZM252.225 409.932C301.827 439.224 348.278 466.656 396.412 495.081C396.412 439.217 396.412 386.522 396.412 330.769C347.784 357.467 301.211 383.037 252.225 409.932ZM396.578 4.42969C347.982 31.1177 301.246 56.7847 252.314 83.6567C301.11 112.531 347.265 139.842 396.578 169.022C396.578 112.813 396.578 60.0687 396.578 4.42969Z" fill="black"/>
</svg>
