<svg width="500" height="501" viewBox="0 0 500 501" fill="none" xmlns="http://www.w3.org/2000/svg">
<g clip-path="url(#clip0_1_5988)">
<path d="M250 500.43C388.071 500.43 500 388.501 500 250.43C500 112.359 388.071 0.429688 250 0.429688C111.929 0.429688 0 112.359 0 250.43C0 388.501 111.929 500.43 250 500.43Z" fill="#161523"/>
<path d="M302 137.629L145.2 362.129H193.3L350.8 137.629H302Z" fill="white"/>
<path d="M198.4 137.629L244.5 203.829L220.4 239.929L149.2 137.729H198.4V137.629Z" fill="url(#paint0_linear_1_5988)"/>
<path d="M306.6 362.23L255.5 289.03L279.6 253.93L354.8 362.23H306.6Z" fill="url(#paint1_linear_1_5988)"/>
</g>
<defs>
<linearGradient id="paint0_linear_1_5988" x1="182.209" y1="155.953" x2="248.217" y2="235.64" gradientUnits="userSpaceOnUse">
<stop stop-color="white"/>
<stop offset="1" stop-color="white" stop-opacity="0.55"/>
</linearGradient>
<linearGradient id="paint1_linear_1_5988" x1="319.566" y1="343.744" x2="238.467" y2="234.413" gradientUnits="userSpaceOnUse">
<stop stop-color="#6966FF"/>
<stop offset="1" stop-color="#6966FF" stop-opacity="0.36"/>
</linearGradient>
<clipPath id="clip0_1_5988">
<rect width="500" height="500" fill="white" transform="translate(0 0.429688)"/>
</clipPath>
</defs>
</svg>
