<svg width="500" height="501" viewBox="0 0 500 501" fill="none" xmlns="http://www.w3.org/2000/svg">
<g clip-path="url(#clip0_1_5993)">
<path d="M250 0.429688C388.1 0.429688 500 112.33 500 250.43C500 388.53 388.1 500.43 250 500.43C111.9 500.43 0 388.53 0 250.43C0 112.33 111.9 0.429688 250 0.429688Z" fill="#021540"/>
<path fill-rule="evenodd" clip-rule="evenodd" d="M87.6 156.73C71.6 184.33 62.5 216.33 62.5 250.53C62.5 311.83 92 366.33 137.5 400.53C183 366.33 212.5 311.83 212.5 250.53C212.5 249.23 212.5 248.03 212.5 246.73C224.6 249.23 237.2 250.53 250 250.53C319.4 250.53 380 212.83 412.4 156.73C380 100.73 319.4 62.9297 250 62.9297C180.6 62.9297 120 100.63 87.6 156.73ZM90.6 250.43C90.6 226.23 96 203.23 105.7 182.63C126.3 207.43 153.2 226.83 183.9 238.43C184.2 242.43 184.3 246.33 184.3 250.43C184.3 294.53 166.4 334.43 137.4 363.33C108.5 334.43 90.6 294.53 90.6 250.43ZM250 222.33C236 222.33 222.5 220.53 209.5 217.13C202.7 179.43 184.8 145.73 159.1 119.43C184.9 101.53 216.2 91.0297 249.9 91.0297C302.9 91.0297 349.8 116.83 378.8 156.63C349.9 196.53 303 222.33 250 222.33ZM121.1 156.73C135.9 177.03 155.3 193.63 177.8 205.13C170.1 179.23 156.1 156.13 137.5 137.63C131.6 143.43 126.1 149.83 121.1 156.73ZM250 409.83C247.7 409.83 245.4 409.73 243.1 409.73C256.4 335.23 321.6 278.63 400 278.63C402.3 278.63 404.6 278.63 406.9 278.73C393.6 353.23 328.4 409.83 250 409.83ZM400 250.43C412.8 250.43 425.4 251.73 437.5 254.13C435.5 355.93 352.3 437.93 250 437.93C237.2 437.93 224.6 436.63 212.5 434.23C214.5 332.33 297.7 250.43 400 250.43Z" fill="white"/>
</g>
<defs>
<clipPath id="clip0_1_5993">
<rect width="500" height="500" fill="white" transform="translate(0 0.429688)"/>
</clipPath>
</defs>
</svg>
