<svg width="500" height="501" viewBox="0 0 500 501" fill="none" xmlns="http://www.w3.org/2000/svg">
<path d="M474.924 328.325C474.924 273.448 474.924 218.652 474.924 163.934C474.924 154.058 472.614 144.261 468.473 135.42C462.022 121.243 452.145 108.101 438.526 100.137C387.791 70.6678 336.897 41.5168 286.162 12.0478C280.348 8.70276 273.817 6.87076 267.365 5.03876C267.365 5.43676 267.445 6.31276 267.445 6.63176C267.365 6.31276 267.126 5.51676 266.887 5.11876C252.71 2.41076 237.816 3.12776 224.037 7.50776C215.674 10.2958 208.426 15.4728 200.701 19.6138C154.028 46.5348 107.435 73.4548 60.762 100.296C54.629 103.96 49.213 108.739 44.753 114.234C33.761 127.297 25.956 143.704 25 160.987C25 220.164 25 279.342 25 338.519C25 350.386 29.062 361.776 34.558 372.21C41.328 384.157 50.487 395.228 62.753 401.998C112.93 430.91 163.108 459.901 213.365 488.733C220.692 492.954 228.976 495.423 237.339 496.538C253.507 498.449 270.711 497.175 285.286 489.529C332.994 462.051 380.543 434.573 428.252 407.095C435.261 403.033 442.668 399.369 448.562 393.794C460.987 382.245 469.907 366.873 473.651 350.307C475.322 343.139 474.924 335.652 474.924 328.325Z" fill="#2B1544"/>
<path d="M283.613 289.537C290.064 283.245 299.224 279.422 308.383 280.218C318.259 280.457 327.817 285.714 333.153 294.156C341.357 306.501 338.967 324.183 328.374 334.457C317.542 344.811 298.905 346.006 287.276 336.289C278.595 329.041 271.267 320.28 262.984 312.634C262.825 312.156 262.745 311.121 262.665 310.563C269.515 303.555 276.604 296.705 283.613 289.537Z" fill="#2B1544"/>
<path d="M211.294 146.253C225.391 133.271 237.577 118.377 248.489 102.766C250.162 103.324 251.277 104.439 252.073 106.032C261.073 122.678 273.817 137.094 287.118 150.554C295.72 158.837 302.092 169.669 304.242 181.537C307.03 194.758 299.145 209.334 286.56 214.112C277.241 217.616 266.569 216.979 257.648 212.678C255.975 212.12 253.188 210.209 252.152 212.519C253.825 223.908 259.718 233.864 265.055 243.82C266.329 245.97 263.86 247.484 262.666 248.838C257.17 253.856 252.471 259.909 246.498 264.449C244.666 263.891 243.471 262.219 242.197 261.024C237.02 255.688 231.604 250.511 226.427 245.095C226.347 244.697 226.268 243.741 226.188 243.422C231.923 233.307 239.091 223.431 240.923 211.723C239.091 211.404 237.259 211.723 235.507 212.44C226.109 216.104 215.356 216.9 205.799 213.157C196.48 209.653 189.232 200.812 188.117 190.856C187.161 183.449 189.391 176.042 192.816 169.59C196.957 160.431 203.966 153.103 211.294 146.253Z" fill="#FEFEFD"/>
<path d="M157.612 263.572C171.789 255.05 189.949 253.935 205.081 260.386C206.355 260.864 206.594 261.103 207.55 261.66C212.408 263.572 216.55 266.678 220.532 270.103C229.373 277.669 236.621 286.988 245.7 294.395C254.461 286.191 262.585 277.191 271.506 269.147C284.011 257.758 302.329 254.412 318.577 257.678C343.984 262.616 362.94 288.581 361.108 314.307C360.312 330.555 352.108 346.644 338.568 355.962C329.409 362.174 318.577 366.635 307.347 366.396C292.612 366.954 278.117 360.422 267.603 350.228C247.93 330.715 228.815 310.484 208.983 291.051C203.169 284.839 195.363 280.378 186.762 279.821C180.709 279.582 174.496 281.016 169.001 283.724C160.479 288.264 154.824 297.184 153.39 306.662C151.638 316.697 155.302 327.529 162.868 334.379C174.496 345.45 195.045 345.37 206.355 333.981C209.302 331.592 212.01 326.653 216.47 328.645C219.337 330.318 221.249 333.105 223.718 335.256C225.55 337.406 228.497 339.238 228.736 342.424C228.736 345.61 225.869 347.442 223.878 349.513C218.621 354.929 212.568 359.469 205.48 362.336C191.701 367.672 175.851 367.752 162.152 361.938C140.568 352.301 126.63 327.69 130.134 304.194C132.523 287.386 142.558 271.616 157.612 263.572ZM283.613 289.537C276.684 296.705 269.595 303.475 262.666 310.564C262.825 311.042 262.905 312.077 262.985 312.635C271.268 320.281 278.596 329.042 287.277 336.29C298.905 346.087 317.543 344.812 328.375 334.458C338.968 324.184 341.357 306.502 333.154 294.157C327.897 285.714 318.26 280.458 308.384 280.219C299.223 279.422 290.064 283.165 283.613 289.537Z" fill="#FEFEFD"/>
</svg>
