<svg width="500" height="501" viewBox="0 0 500 501" fill="none" xmlns="http://www.w3.org/2000/svg">
<path d="M228 164.53L74.0998 318.43C71.7998 320.73 68.1998 320.73 65.8998 318.43L8.7998 261.23C2.7998 255.23 2.7998 245.43 8.7998 239.43L155.9 92.4301C158.2 90.1301 161.8 90.1301 164.1 92.4301L228.1 156.43C230.3 158.63 230.3 162.23 228 164.53Z" fill="#214859"/>
<path d="M318.3 74.2301L253.6 138.93C251.3 141.23 247.7 141.23 245.4 138.93L181.4 74.9301C179.1 72.6301 179.1 69.0301 181.4 66.7301L239.3 8.83008C245.3 2.83008 255.1 2.83008 261.1 8.83008L318.3 66.0301C320.6 68.3301 320.6 71.9301 318.3 74.2301Z" fill="#00B39E"/>
<path d="M271.3 334.129L425.2 180.229C427.5 177.929 431.1 177.929 433.4 180.229L490.6 237.429C496.6 243.429 496.6 253.229 490.6 259.229L343.4 406.329C341.1 408.629 337.5 408.629 335.2 406.329L271.2 342.329C269 340.129 269 336.429 271.3 334.129Z" fill="#214859"/>
<path d="M181.8 425.23L246.5 360.53C248.8 358.23 252.4 358.23 254.7 360.53L318.7 424.53C321 426.83 321 430.43 318.7 432.73L260.8 490.63C254.8 496.63 245 496.63 239 490.63L181.8 433.43C179.5 431.23 179.5 427.53 181.8 425.23Z" fill="#00B39E"/>
<path d="M407 164.53L342.3 229.23C340 231.53 336.4 231.53 334.1 229.23L270.1 165.23C267.8 162.93 267.8 159.33 270.1 157.03L334.9 92.4301C337.2 90.1301 340.8 90.1301 343.1 92.4301L407.1 156.43C409.3 158.63 409.3 162.23 407 164.53Z" fill="#214859"/>
<path d="M318.3 254.03L253.6 318.73C251.3 321.03 247.7 321.03 245.4 318.73L181.4 254.73C179.1 252.43 179.1 248.83 181.4 246.53L246.1 181.83C248.4 179.53 252 179.53 254.3 181.83L318.3 245.83C320.6 248.13 320.6 251.83 318.3 254.03Z" fill="#00B39E"/>
<path d="M228 343.53L163.3 408.23C161 410.53 157.4 410.53 155.1 408.23L91.1 344.23C88.8 341.93 88.8 338.33 91.1 336.03L155.8 271.33C158.1 269.03 161.7 269.03 164 271.33L228 335.33C230.3 337.63 230.3 341.33 228 343.53Z" fill="#214859"/>
</svg>
