<svg width="500" height="501" viewBox="0 0 500 501" fill="none" xmlns="http://www.w3.org/2000/svg">
<g clip-path="url(#clip0_1_6010)">
<path d="M247.3 0.672232C109.2 2.37223 -1.29979 115.672 0.400215 253.772C2.10021 391.872 115.4 502.372 253.5 500.672C390.3 498.972 500.4 387.572 500.4 250.672C499.5 111.772 386.2 -0.127768 247.3 0.672232Z" fill="#00EDBE"/>
<path d="M347.305 158.268C346.605 145.768 349.704 133.368 356.104 122.568H152.104C144.404 122.568 138.204 128.768 138.104 136.468V180.068C138.104 187.768 144.404 193.968 152.104 193.968H356.104C349.704 183.168 346.605 170.768 347.305 158.268Z" fill="#141BEB"/>
<path d="M106.204 251.368C106.904 263.868 103.804 276.268 97.4043 287.068H301.404C309.104 287.068 315.304 280.868 315.404 273.168V229.568C315.404 221.868 309.104 215.668 301.404 215.668H97.4043C103.804 226.468 106.904 238.868 106.204 251.368Z" fill="#141BEB"/>
<path d="M347.305 344.468C346.605 331.968 349.704 319.568 356.104 308.768H152.104C144.404 308.768 138.204 314.968 138.104 322.668V366.268C138.104 373.968 144.404 380.168 152.104 380.168H356.104C349.704 369.368 346.605 356.968 347.305 344.468Z" fill="#141BEB"/>
</g>
<defs>
<clipPath id="clip0_1_6010">
<rect width="500" height="500" fill="white" transform="translate(0 0.671875)"/>
</clipPath>
</defs>
</svg>
