<svg width="500" height="501" viewBox="0 0 500 501" fill="none" xmlns="http://www.w3.org/2000/svg">
<g clip-path="url(#clip0_1_6021)">
<path d="M306.1 202.372C303 190.572 295.7 183.072 283.7 179.672C273.6 176.872 263.2 175.772 252.9 175.172C241.1 175.472 229.1 176.272 217.6 179.672C205.5 183.072 198.3 190.572 195.2 202.372C193.5 208.772 193 215.572 192.7 221.972C192.1 228.172 192.1 228.972 196.3 228.972H302.2C309.5 228.972 309.5 228.972 308.6 221.672C308.3 215.572 307.5 208.872 306.1 202.372Z" fill="#496DDB"/>
<path d="M304.1 272.172H198.4C191.1 272.172 191.1 272.172 192 279.472C192.3 285.872 192.8 292.672 194.5 299.072C197.6 310.872 204.9 318.372 216.9 321.772C227 324.572 237.4 325.672 247.7 326.272C259.5 325.972 271.5 325.172 283 321.772C295.1 318.372 302.3 310.872 305.4 299.072C307.1 292.672 307.6 285.872 307.9 279.472C308.6 273.372 308.6 272.472 304.1 272.172Z" fill="#496DDB"/>
<path d="M250 0.572266C112.1 0.572266 0 112.772 0 250.572C0 388.372 112.1 500.572 250 500.572C388.2 500.572 500 388.472 500 250.572C500 112.672 388.2 0.572266 250 0.572266ZM355.4 194.272C356.5 201.572 357.4 208.872 358.2 216.372V229.272H396.9C400 229.272 402.8 229.272 405.6 229.872C412.3 230.972 416.5 234.872 416.8 241.372V260.172C416.5 266.572 412.3 270.572 405.6 271.672C402.8 272.272 400 272.272 396.9 272.272H357.7V284.872C356.9 292.472 356 299.772 354.9 306.972C353.8 314.272 351.8 320.672 349.3 326.272H398.9C404.8 326.272 410.4 326.872 414.3 332.472C420.2 341.672 417.1 354.072 407.9 359.972C406.8 360.772 405.4 361.672 404 361.972C393.6 365.372 383 365.872 372 366.472C327.4 367.272 281.8 367.572 250.9 367.572C214.5 367.572 165.7 366.972 128.7 366.172C117.8 365.872 107.1 365.372 97 361.672C95.3 361.372 94.2 360.872 93.1 359.672C83.9 353.772 80.8 341.772 86.7 332.172C90.3 326.572 95.9 325.972 101.8 325.972H150.8C148.6 320.372 146.6 313.872 145.5 306.872C144.4 299.572 143.5 292.272 142.7 284.772V271.872H103.5C100.4 271.872 97.6 271.872 94.8 271.272C88.1 270.172 83.9 266.272 83.6 259.772V240.972C83.9 234.572 88.1 230.572 94.8 229.472C97.6 228.872 100.4 228.872 103.5 228.872H142.7V216.272C143.5 208.672 144.4 201.372 145.5 194.172C146.6 186.972 148.6 180.472 151.1 174.872H101.5C95.6 174.872 90 174.272 86.1 168.672C80.2 159.472 83.3 147.072 92.5 141.172C93.6 140.372 95 139.472 96.4 139.172C106.8 135.772 117.4 135.272 128.1 134.672C172.7 133.872 218.3 133.572 249.2 133.572C285.6 133.572 334.7 134.172 371.4 134.972C382.3 135.272 393 135.772 403.1 139.472C404.8 139.772 405.9 140.272 407 141.472C416.2 147.372 419.3 159.372 413.4 168.972C409.8 174.572 404.2 175.172 398.3 175.172H349.3C352.3 180.872 354 186.972 355.4 194.272Z" fill="#496DDB"/>
</g>
<defs>
<clipPath id="clip0_1_6021">
<rect width="500" height="500" fill="white" transform="translate(0 0.671875)"/>
</clipPath>
</defs>
</svg>
