<svg width="500" height="501" viewBox="0 0 500 501" fill="none" xmlns="http://www.w3.org/2000/svg">
<path d="M227.5 2.17188C227.5 19.0719 227.5 35.9719 227.5 53.5719C263 45.5719 297.701 45.9719 332.701 56.3719C332.701 73.2719 332.701 90.1719 332.701 107.172C381.801 129.272 413.4 165.672 424.3 218.272C432.7 258.972 425.301 297.472 402.201 332.172C353.201 405.472 260.3 418.672 195.7 377.472C195.7 368.572 195.7 359.572 195.7 350.472C250.7 386.572 304.9 387.672 358.1 346.972C397.4 311.372 412.201 267.772 399.701 215.872C389.6 174.072 351.4 126.472 283.9 119.272C283.9 114.072 284.1 99.2719 284.201 96.3719C292.801 97.4719 300.9 98.5719 309.4 99.6719C309.4 91.3719 309.4 83.3719 309.4 75.3719C273.1 64.9719 212.7 73.2719 172.7 104.772C174.8 108.672 183.8 118.072 189.9 122.572C212.9 107.072 238.3 98.2719 266.9 96.5719C266.9 110.872 266.9 124.672 266.9 138.972C291.4 138.172 313.8 143.072 334.3 156.472C334.3 164.072 334.201 204.072 334.201 212.372C334.201 213.872 335.4 214.572 337.9 219.772C356.7 259.772 332.3 307.572 287.5 315.972C286.5 316.172 285.5 315.872 284.3 315.872C284.1 314.872 283.9 314.072 283.8 313.272C283.8 306.872 283.8 300.472 283.8 293.372C300.8 288.472 313.5 278.772 319 260.472C315.5 260.472 312.5 260.472 308.9 260.472C304.6 270.372 297.6 278.172 286.6 281.772C279.1 284.272 271.6 284.272 264.1 281.672C248.8 276.372 239.3 262.172 240.1 245.672C240.8 230.972 252.6 216.972 267 213.672C284.3 209.672 298.301 217.072 309.201 236.172C311.901 236.172 314.9 236.172 318.9 236.172C316.8 227.072 312.1 220.372 305.8 214.472C299.6 208.672 292 205.472 284 203.172C284 195.272 284 187.872 284 180.172C292.4 180.372 299.701 184.072 307.701 186.872C307.701 180.672 307.701 175.072 307.701 168.772C281.001 158.172 255.1 160.172 230.6 175.072C208 188.872 194.8 209.172 190.6 236.172C196.6 236.172 201.6 236.172 207.4 236.172C211.4 218.072 220.5 202.972 235.8 192.072C244.9 185.572 254.9 181.572 266.5 179.972C266.5 187.772 266.5 195.272 266.5 203.072C244.1 209.872 229.9 224.572 230.1 248.672C230.3 272.172 244.4 286.472 266.701 293.272C266.701 314.472 266.701 335.472 266.701 356.972C240.501 354.572 218.201 344.472 199.6 326.372C181 308.272 170.3 286.072 166.9 260.272C160.4 260.272 154.5 260.272 148 260.272C148 262.172 147.8 263.972 148 265.672C151.3 288.272 159.6 308.772 173.8 326.572C177 330.572 178.2 331.872 178.2 331.872C178.2 331.872 178.1 355.272 177.5 363.272C143 334.172 124.9 296.972 123.5 252.272C122.2 207.572 138.7 169.472 170.1 138.372C164.201 132.472 158.5 126.872 152.8 121.172C65.7005 199.572 81.8005 358.072 209.5 412.572C209.5 420.372 209.5 428.372 209.5 437.272C171.2 423.672 139.9 401.072 115.6 368.972C91.4005 336.972 78.3005 300.672 75.4005 260.272C66.6005 260.272 58.2005 260.272 49.9005 260.272C52.5005 390.072 176.5 490.772 300.6 472.972C300.6 464.672 300.6 456.272 300.6 447.172C276 449.872 251.8 448.872 227.6 442.672C227.6 434.872 227.6 427.272 227.6 418.972C283.201 432.672 334.6 424.072 380.8 390.172C412 367.272 433.301 336.972 444.6 299.972C457.5 257.772 454.801 216.172 436.701 175.872C418.701 135.772 389.3 106.572 350 87.2719C350 78.8719 350 70.8719 350 62.7719C403.201 81.4719 464 138.572 474.201 223.672C480.201 273.672 469.1 319.972 440.5 361.572C412.1 402.972 372.9 429.572 324.3 442.672C324.3 459.572 324.3 476.072 324.3 493.172C321.9 493.772 319.801 494.472 317.701 494.772C309.5 495.772 301.301 497.072 293.1 497.572C284.9 498.072 269.2 498.372 257 497.572C242.5 496.572 228.2 494.372 214.2 490.772C107.5 463.472 33.2005 370.772 26.2005 266.772C25.7005 259.672 25.5005 241.572 26.1005 229.972C26.9005 216.072 29.2005 202.472 32.5005 188.972C54.4005 97.6719 126.5 24.8719 217.9 3.67188C220.4 3.57187 227 2.17188 227.5 2.17188ZM75.0005 236.472C84.0005 152.372 127.1 93.9719 203.7 60.6719C203.7 51.4719 203.7 42.6719 203.7 33.0719C154.9 50.2719 116.2 79.5719 87.6005 121.872C64.4005 156.272 51.2005 194.272 49.2005 236.472C58.2005 236.472 66.3005 236.472 75.0005 236.472ZM166.7 236.472C174.1 190.072 200.1 159.372 243.5 143.572C243.5 136.872 243.5 130.772 243.5 124.572C192.1 134.972 149.7 186.972 148.2 236.472C154.1 236.472 160.1 236.472 166.7 236.472ZM191.1 260.272C193.1 291.872 223.5 322.972 242.9 326.572C242.9 320.772 242.9 315.072 242.9 309.172C223.8 298.172 212.2 281.772 207.5 260.272C203.9 260.272 200.8 260.272 197.8 260.272C195.7 260.272 193.701 260.272 191.1 260.272ZM275.8 260.672C282 260.772 287.7 255.172 287.9 248.872C288.2 242.172 282.8 236.572 276 236.472C269.3 236.372 263.6 241.772 263.5 248.472C263.5 254.872 269.1 260.572 275.8 260.672Z" fill="#243454"/>
</svg>
