<svg width="500" height="501" viewBox="0 0 500 501" fill="none" xmlns="http://www.w3.org/2000/svg">
<g clip-path="url(#clip0_1_6027)">
<path fill-rule="evenodd" clip-rule="evenodd" d="M400.4 100.073C398.4 98.0727 397.3 95.9727 397.3 93.3727C397.3 90.7727 398.3 88.7727 400.4 86.6727C404.5 83.0727 410.6 83.0727 414.7 86.6727C416.7 88.6727 417.8 90.7727 417.8 93.3727C417.8 95.9727 416.8 97.9727 414.7 100.073C412.7 101.573 410.1 102.673 407.5 102.673C405 103.173 402.5 102.073 400.4 100.073Z" fill="black"/>
<path fill-rule="evenodd" clip-rule="evenodd" d="M375.3 126.672C373.8 124.672 372.7 122.572 372.7 119.972C372.7 117.372 373.7 115.372 375.3 113.272C378.9 109.672 385 109.672 388.6 113.272C390.1 115.272 391.2 117.372 391.2 119.972C391.2 122.572 390.2 124.572 388.6 126.672C386.6 128.172 384.5 129.272 381.9 129.272C379.4 129.272 377.4 128.272 375.3 126.672Z" fill="black"/>
<path fill-rule="evenodd" clip-rule="evenodd" d="M348.2 152.772C346.7 151.272 345.6 148.672 345.6 146.072C345.6 143.472 346.6 141.472 348.2 139.372C351.8 135.772 357.9 135.772 361.5 139.372C363 140.872 364.1 143.472 364.1 146.072C364.1 148.672 363.1 150.672 361.5 152.772C359.5 154.772 357.4 155.372 354.8 155.372C352.3 155.372 349.7 154.372 348.2 152.772Z" fill="black"/>
<path fill-rule="evenodd" clip-rule="evenodd" d="M322 178.971C320 177.471 318.9 174.871 318.9 172.271C318.9 169.671 319.9 167.671 322 165.571C326.1 161.971 332.2 161.971 336.3 165.571C338.3 167.071 339.4 169.671 339.4 172.271C339.4 174.871 338.4 177.371 336.3 178.971C334.3 180.971 331.7 181.571 329.1 181.571C326.6 181.471 324.1 180.971 322 178.971Z" fill="black"/>
<path fill-rule="evenodd" clip-rule="evenodd" d="M296.9 205.073C294.9 203.573 294.3 200.973 294.3 198.373C294.3 195.773 295.3 193.773 296.9 191.673C300.5 188.073 306.6 188.073 310.2 191.673C312.2 193.173 312.8 195.773 312.8 198.373C312.8 200.973 311.8 203.473 310.2 205.073C308.7 207.073 306.1 207.673 303.5 207.673C301 208.173 298.5 207.173 296.9 205.073Z" fill="black"/>
<path fill-rule="evenodd" clip-rule="evenodd" d="M266.7 224.572C266.7 221.972 267.7 219.972 269.3 217.872C272.9 214.272 279 214.272 282.6 217.872C284.6 219.872 285.2 221.972 285.2 224.572C285.2 227.172 284.2 229.172 282.6 231.272C281.1 232.772 278.5 233.872 275.9 233.872C273.3 233.872 271.3 232.872 269.2 231.272C267.7 229.672 266.7 227.072 266.7 224.572Z" fill="black"/>
<path fill-rule="evenodd" clip-rule="evenodd" d="M218 282.471C216.5 280.971 215.4 278.371 215.4 275.771C215.4 273.171 216.4 271.171 218 269.071C221.6 265.471 227.7 265.471 231.3 269.071C233.3 271.071 233.9 273.171 233.9 275.771C233.9 278.371 232.9 280.371 231.3 282.471C229.8 284.471 227.2 285.071 224.6 285.071C222.1 285.471 220.1 284.471 218 282.471Z" fill="black"/>
<path fill-rule="evenodd" clip-rule="evenodd" d="M190.9 308.573C188.9 307.073 187.8 304.473 187.8 301.873C187.8 299.273 188.8 297.273 190.9 295.173C195 291.573 201.1 291.573 205.2 295.173C207.2 297.173 208.3 299.273 208.3 301.873C208.3 304.473 207.3 306.473 205.2 308.573C203.2 310.573 200.6 311.173 198 311.173C195.5 311.673 192.9 310.573 190.9 308.573Z" fill="black"/>
<path fill-rule="evenodd" clip-rule="evenodd" d="M165.8 335.172C164.3 333.672 163.2 331.072 163.2 328.472C163.2 325.872 164.2 323.372 165.8 321.772C169.4 318.172 175.5 318.172 179.1 321.772C180.6 323.272 181.7 325.872 181.7 328.472C181.7 331.072 180.7 333.072 179.1 335.172C177.1 337.172 175 337.772 172.4 337.772C169.8 337.772 167.8 336.772 165.8 335.172Z" fill="black"/>
<path fill-rule="evenodd" clip-rule="evenodd" d="M139.7 361.272C137.7 359.772 137.1 357.172 137.1 354.572C137.1 351.972 138.1 349.972 139.7 347.872C143.3 344.272 149.4 344.272 153 347.872C154.5 349.872 155.6 351.972 155.6 354.572C155.6 357.172 154.6 359.672 153 361.272C151 363.272 148.9 363.872 146.3 363.872C143.7 363.872 141.2 363.372 139.7 361.272Z" fill="black"/>
<path fill-rule="evenodd" clip-rule="evenodd" d="M112.5 387.471C110.5 385.971 109.4 383.371 109.4 380.771C109.4 378.171 110.4 376.171 112.5 374.071C116.6 370.471 122.7 370.471 126.3 374.071C128.3 376.071 129.4 378.171 129.4 380.771C129.4 383.371 128.4 385.871 126.3 387.471C124.2 389.071 121.7 390.071 119.1 390.071C116.5 390.071 114 389.471 112.5 387.471Z" fill="black"/>
<path fill-rule="evenodd" clip-rule="evenodd" d="M86.8998 413.573C84.8998 411.573 84.2998 409.473 84.2998 406.873C84.2998 404.273 85.2998 402.273 86.8998 400.173C90.4998 396.573 96.5998 396.573 100.2 400.173C102.2 402.173 102.8 404.273 102.8 406.873C102.8 409.473 101.8 411.473 100.2 413.573C98.6998 415.073 96.0998 416.173 93.4998 416.173C91.4998 416.673 88.8998 415.573 86.8998 413.573Z" fill="black"/>
<path fill-rule="evenodd" clip-rule="evenodd" d="M100.2 100.073C101.7 98.0727 102.8 95.9727 102.8 93.3727C102.8 90.7727 101.8 88.7727 100.2 86.6727C96.5998 83.0727 90.4998 83.0727 86.8998 86.6727C84.8998 88.6727 84.2998 90.7727 84.2998 93.3727C84.2998 95.9727 85.2998 97.9727 86.8998 100.073C88.3998 101.573 90.9998 102.673 93.5998 102.673C96.0998 103.173 98.6998 102.073 100.2 100.073Z" fill="black"/>
<path fill-rule="evenodd" clip-rule="evenodd" d="M126.3 126.672C128.3 124.672 129.4 122.572 129.4 119.972C129.4 117.372 128.4 115.372 126.3 113.272C122.2 109.672 116.1 109.672 112 113.272C110 115.272 108.9 117.372 108.9 119.972C108.9 122.572 109.9 124.572 112 126.672C114 128.172 116.6 129.272 119.2 129.272C121.8 129.272 124.3 128.272 126.3 126.672Z" fill="black"/>
<path fill-rule="evenodd" clip-rule="evenodd" d="M153 152.772C154.5 151.272 155.6 148.672 155.6 146.072C155.6 143.472 154.6 141.472 153 139.372C149.4 135.772 143.3 135.772 139.7 139.372C138.2 140.872 137.1 143.472 137.1 146.072C137.1 148.672 138.1 150.672 139.7 152.772C141.7 154.772 143.8 155.372 146.4 155.372C148.4 155.372 150.9 154.372 153 152.772Z" fill="black"/>
<path fill-rule="evenodd" clip-rule="evenodd" d="M179.1 178.971C180.6 177.471 181.7 174.871 181.7 172.271C181.7 169.671 180.7 167.671 179.1 165.571C175.5 161.971 169.4 161.971 165.8 165.571C164.3 167.071 163.2 169.671 163.2 172.271C163.2 174.871 164.2 177.371 165.8 178.971C167.8 180.971 169.9 181.571 172.5 181.571C174.5 181.471 177.1 180.971 179.1 178.971Z" fill="black"/>
<path fill-rule="evenodd" clip-rule="evenodd" d="M204.7 205.073C206.7 203.573 207.8 200.973 207.8 198.373C207.8 195.773 206.8 193.773 204.7 191.673C201.1 188.073 194.5 188.073 190.9 191.673C188.9 193.173 187.8 195.773 187.8 198.373C187.8 200.973 188.8 203.473 190.9 205.073C192.9 207.073 195.5 207.673 198.1 207.673C200.6 208.173 203.2 207.173 204.7 205.073Z" fill="black"/>
<path fill-rule="evenodd" clip-rule="evenodd" d="M233.9 224.572C233.9 221.972 232.9 219.972 231.3 217.872C227.7 214.272 221.6 214.272 218 217.872C216 219.872 215.4 221.972 215.4 224.572C215.4 227.172 216.4 229.172 218 231.272C219.5 232.772 222.1 233.872 224.7 233.872C227.3 233.872 229.3 232.872 231.4 231.272C233.5 229.672 233.9 227.072 233.9 224.572Z" fill="black"/>
<path fill-rule="evenodd" clip-rule="evenodd" d="M257.5 257.871C259.5 255.871 260.1 253.771 260.1 251.171C260.1 248.571 259.1 246.571 257.5 244.471C253.9 240.871 247.8 240.871 244.2 244.471C242.2 246.471 241.6 248.571 241.6 251.171C241.6 253.771 242.6 255.771 244.2 257.871C245.7 259.371 248.3 260.471 250.9 260.471C253.5 260.471 255.9 259.371 257.5 257.871Z" fill="black"/>
<path fill-rule="evenodd" clip-rule="evenodd" d="M283.6 282.471C285.6 280.971 286.7 278.371 286.7 275.771C286.7 273.171 285.7 271.171 283.6 269.071C279.5 265.471 273.4 265.471 269.8 269.071C267.8 271.071 266.7 273.171 266.7 275.771C266.7 278.371 267.7 280.371 269.8 282.471C271.9 284.571 274.4 285.071 277 285.071C279 285.471 281.6 284.471 283.6 282.471Z" fill="black"/>
<path fill-rule="evenodd" clip-rule="evenodd" d="M310.2 308.573C311.7 307.073 312.8 304.473 312.8 301.873C312.8 299.273 311.8 297.273 310.2 295.173C306.6 291.573 300.5 291.573 296.9 295.173C295.4 297.173 294.3 299.273 294.3 301.873C294.3 304.473 295.3 306.473 296.9 308.573C298.9 310.573 301 311.173 303.6 311.173C305.6 311.673 308.2 310.573 310.2 308.573Z" fill="black"/>
<path fill-rule="evenodd" clip-rule="evenodd" d="M336.4 335.172C337.9 333.672 339 331.072 339 328.472C339 325.872 338 323.372 336.4 321.772C332.8 318.172 326.7 318.172 323.1 321.772C321.6 323.272 320.5 325.872 320.5 328.472C320.5 331.072 321.5 333.072 323.1 335.172C325.1 337.172 327.2 337.772 329.8 337.772C332.4 337.772 334.3 336.772 336.4 335.172Z" fill="black"/>
<path fill-rule="evenodd" clip-rule="evenodd" d="M361 361.272C363 359.772 363.6 357.172 363.6 354.572C363.6 351.972 362.6 349.972 361 347.872C357.4 344.272 351.3 344.272 347.7 347.872C346.2 349.872 345.1 351.972 345.1 354.572C345.1 357.172 346.1 359.672 347.7 361.272C349.7 363.272 351.8 363.872 354.4 363.872C356.9 363.872 359.4 363.372 361 361.272Z" fill="black"/>
<path fill-rule="evenodd" clip-rule="evenodd" d="M388.6 387.471C390.6 385.971 391.2 383.371 391.2 380.771C391.2 378.171 390.2 376.171 388.6 374.071C385 370.471 378.9 370.471 375.3 374.071C373.3 376.071 372.7 378.171 372.7 380.771C372.7 383.371 373.7 385.871 375.3 387.471C376.9 389.071 379.4 390.071 382 390.071C384.5 389.971 387.1 389.471 388.6 387.471Z" fill="black"/>
<path fill-rule="evenodd" clip-rule="evenodd" d="M414.8 413.573C416.8 411.573 417.9 409.473 417.9 406.873C417.9 404.273 416.9 402.273 414.8 400.173C410.7 396.573 404.6 396.573 401 400.173C399 402.173 397.9 404.273 397.9 406.873C397.9 409.473 398.9 411.473 401 413.573C403 415.073 405.6 416.173 408.2 416.173C410.1 416.673 412.7 415.573 414.8 413.573Z" fill="black"/>
<path fill-rule="evenodd" clip-rule="evenodd" d="M162.2 107.272C188.8 89.8719 218 81.6719 250.3 81.1719C282.1 81.1719 311.3 89.8719 338.4 107.272L394.8 50.8719C350.7 17.5719 303.1 0.671875 250.3 0.671875C197.5 0.671875 149.4 17.5719 106.3 50.8719L162.2 107.272Z" fill="black"/>
<path fill-rule="evenodd" clip-rule="evenodd" d="M105.8 338.271C87.8998 311.071 79.1998 281.871 79.1998 250.671C79.1998 218.871 87.8998 189.671 105.8 163.071L49.9998 107.271C17.1998 150.271 0.799805 197.971 0.799805 251.271C0.799805 303.571 17.1998 351.671 50.4998 395.271L105.8 338.271Z" fill="black"/>
<path fill-rule="evenodd" clip-rule="evenodd" d="M338.4 394.072C311.8 411.972 282.6 421.272 250.8 421.772C218.5 421.772 188.8 413.072 162.2 394.572L105.8 450.372C149.3 484.172 197.5 501.072 250.8 500.572C303.6 500.072 351.2 483.172 394.2 450.372L338.4 394.072Z" fill="black"/>
<path fill-rule="evenodd" clip-rule="evenodd" d="M393.2 162.572C411.1 189.772 420.4 219.472 419.8 251.672C419.3 282.872 410.6 311.572 393.2 337.772L449.6 393.572C482.9 350.572 499.8 302.872 499.8 250.672C500.3 197.372 483.4 149.272 449.6 105.672L393.2 162.572Z" fill="black"/>
<path fill-rule="evenodd" clip-rule="evenodd" d="M452.1 411.572C473.6 411.572 491.5 428.972 491.5 450.972C491.5 472.472 474.1 490.372 452.1 490.372C430.6 490.372 412.7 472.972 412.7 450.972C412.7 428.972 430.1 411.572 452.1 411.572Z" fill="black"/>
<path fill-rule="evenodd" clip-rule="evenodd" d="M49.4996 411.572C70.9996 411.572 88.3996 428.972 88.3996 450.972C88.3996 472.472 70.9996 490.372 49.4996 490.372C27.9996 490.372 10.5996 472.972 10.5996 450.972C10.5996 428.972 27.9996 411.572 49.4996 411.572Z" fill="black"/>
<path fill-rule="evenodd" clip-rule="evenodd" d="M452.7 9.37109C474.2 9.37109 491.6 26.7711 491.6 48.7711C491.6 70.7711 474.2 88.1711 452.7 88.1711C431.2 88.1711 413.8 70.7711 413.8 48.7711C413.8 26.7711 431.1 9.37109 452.7 9.37109Z" fill="black"/>
<path fill-rule="evenodd" clip-rule="evenodd" d="M49 9.37109C70.5 9.37109 88.4 26.7711 88.4 48.2711C88.4 69.7711 71 87.2711 49 87.2711C27.5 87.2711 9.60004 69.8711 9.60004 48.3711C9.50004 26.7711 27 9.37109 49 9.37109Z" fill="black"/>
</g>
<defs>
<clipPath id="clip0_1_6027">
<rect width="500" height="500" fill="white" transform="translate(0 0.671875)"/>
</clipPath>
</defs>
</svg>
