<svg width="500" height="501" viewBox="0 0 500 501" fill="none" xmlns="http://www.w3.org/2000/svg">
<path d="M249.993 496.647C113.177 496.738 2.91414 386.834 2.95314 250.059C2.99214 117.158 107.889 3.02569 249.902 2.89269C391.125 2.76069 497.312 116.714 497.109 251.058C496.903 387.478 383.071 498.624 249.993 496.647ZM400.069 100.927C353.938 57.4377 299.856 38.7037 238.134 42.1837C175.848 45.6957 125.342 72.8237 86.4531 120.994C20.0881 203.198 26.0131 322.688 99.0861 400.399C170.874 476.743 295.139 486.562 378.71 423.675C421.405 391.547 449.552 349.397 459.39 296.944C471.924 230.114 458.041 168.702 414.793 116.477C417.507 103.648 419.872 92.4717 422.236 81.2957C421.224 80.8877 420.213 80.4807 419.201 80.0727C413.281 86.5267 407.36 92.9807 400.069 100.927Z" fill="#F5BE1D"/>
<path d="M400.069 100.926C406.775 93.6184 413.178 87.9174 418.77 82.0284C419.359 81.4084 420.392 81.8554 420.333 82.7084C419.913 88.8024 417.017 105.971 414.794 116.478C458.041 168.702 471.924 230.115 459.391 296.945C449.554 349.397 421.406 391.548 378.711 423.676C295.14 486.563 170.875 476.744 99.0875 400.4C26.0135 322.689 20.0895 203.199 86.4545 120.995C125.343 72.8254 175.85 45.6974 238.135 42.1854C299.855 38.7034 353.937 57.4374 400.069 100.926ZM388.82 111.046C333.336 62.6914 271.626 44.5914 201.982 62.9794C122.829 83.8784 70.2325 144.969 57.4535 222.708C46.4395 289.702 68.8505 346.975 116.528 394.64C116.05 387.813 113.602 381.52 112.451 374.998C99.4685 301.396 139.98 227.219 209.772 199.252C244.971 185.147 281.393 174.124 316.869 160.67C344.009 150.378 366.659 132.95 388.82 111.046ZM410.188 136.385C408.619 137.14 407.711 137.272 407.42 137.768C405.792 140.537 404.184 143.332 402.803 146.23C390.75 171.513 373.725 192.942 348.492 205.324C325.47 216.621 301.597 227.335 276.927 233.908C204.424 253.225 155.445 295.498 135.747 369.281C129.127 394.078 132.681 411.152 148.514 420.679C197.262 450.011 249.368 458.796 304.401 443.166C414.708 411.838 474.699 298.282 438.517 189.675C432.106 170.434 422.935 152.289 410.188 136.385Z" fill="white"/>
<path d="M388.82 111.046C366.659 132.95 344.009 150.378 316.869 160.67C281.393 174.123 244.971 185.147 209.772 199.252C139.981 227.219 99.4685 301.396 112.451 374.998C113.601 381.52 116.05 387.813 116.528 394.64C68.8495 346.975 46.4385 289.702 57.4515 222.708C70.2305 144.969 122.828 83.8778 201.981 62.9788C271.625 44.5908 333.335 62.6908 388.82 111.046Z" fill="#F5BE1D"/>
<path d="M409.448 135.322C422.194 151.225 432.106 170.434 438.516 189.675C474.698 298.281 414.707 411.837 304.4 443.165C249.368 458.795 197.262 450.01 148.513 420.678C132.68 411.151 129.126 394.077 135.746 369.28C155.444 295.497 204.423 253.224 276.926 233.907C301.596 227.334 325.469 216.62 348.491 205.323C373.725 192.941 390.749 171.512 402.802 146.229C404.183 143.332 405.791 140.536 407.419 137.767C407.711 137.272 408.264 136.544 409.448 135.322ZM379.652 192.293C375.22 195.499 372.589 197.779 369.626 199.48C356.959 206.753 344.79 215.343 331.346 220.719C300.468 233.068 268.71 243.208 237.778 255.431C216.002 264.036 195.832 275.798 182.233 295.947C179.686 299.72 178.212 304.217 175.882 309.143C179.213 309.658 180.357 310.206 181.217 309.914C219.388 296.97 258.767 293.691 298.767 294.627C305.792 294.791 313.015 293.575 319.889 291.922C360.578 282.136 379.206 231.862 379.652 192.293ZM331.635 301.253C330.938 300.238 330.242 299.222 329.545 298.207C314.653 298.938 299.69 298.995 284.883 300.544C256.506 303.514 227.944 305.938 200.012 311.411C186.913 313.977 174.386 322.02 162.918 329.579C153.074 336.068 147.469 346.53 147.001 359.268C149.423 359.524 150.484 359.838 151.48 359.694C152.881 359.491 154.347 359.168 155.59 358.52C179.957 345.811 205.813 348.059 231.192 352.699C269.271 359.66 298.462 346.371 321.66 317.021C325.495 312.168 328.335 306.529 331.635 301.253ZM281.214 358.597C255.871 371.422 231.207 367.768 206.231 363.633C191.427 361.182 176.268 360.263 161.815 366.845C147.743 373.254 137.85 385.742 138.668 397.623C157.799 389.254 176.499 394.351 195.484 398.251C207.271 400.673 219.528 402.176 231.524 401.904C253.289 401.412 276.381 381.283 281.214 358.597Z" fill="#F5BE1D"/>
<path d="M379.652 192.293C379.206 231.862 360.577 282.136 319.887 291.923C313.014 293.576 305.79 294.793 298.765 294.628C258.766 293.692 219.386 296.971 181.215 309.915C180.577 310.131 178.972 310.237 177.425 309.805C176.566 309.565 176.14 308.601 176.507 307.788C178.493 303.392 179.921 299.373 182.232 295.948C195.831 275.798 216.001 264.037 237.777 255.432C268.709 243.208 300.467 233.069 331.345 220.72C344.789 215.343 356.958 206.754 369.625 199.481C372.589 197.779 375.22 195.499 379.652 192.293Z" fill="white"/>
<path d="M331.477 301.508C328.244 306.71 325.434 312.247 321.66 317.021C298.462 346.371 269.271 359.661 231.192 352.699C205.813 348.06 179.957 345.811 155.59 358.52C154.348 359.168 152.882 359.491 151.48 359.694C150.881 359.781 150.257 359.702 149.327 359.569C147.985 359.378 147.035 358.159 147.158 356.809C148.218 345.184 153.715 335.646 162.918 329.579C174.386 322.019 186.913 313.977 200.012 311.411C227.944 305.938 256.506 303.514 284.883 300.544C299.69 298.995 314.653 298.938 329.545 298.207C330.429 299.719 330.593 299.998 331.477 301.508Z" fill="white"/>
<path d="M281.214 358.598C276.381 381.284 253.29 401.414 231.523 401.906C219.527 402.177 207.27 400.674 195.483 398.253C176.498 394.353 157.798 389.256 138.667 397.625C137.849 385.743 147.742 373.255 161.814 366.847C176.267 360.265 191.427 361.183 206.23 363.635C231.207 367.769 255.871 371.423 281.214 358.598Z" fill="white"/>
</svg>
