<svg width="500" height="501" viewBox="0 0 500 501" fill="none" xmlns="http://www.w3.org/2000/svg">
<path d="M250.8 498.571C387.712 498.571 498.7 387.583 498.7 250.671C498.7 113.76 387.712 2.77148 250.8 2.77148C113.889 2.77148 2.90039 113.76 2.90039 250.671C2.90039 387.583 113.889 498.571 250.8 498.571Z" fill="url(#paint0_linear_1_6069)"/>
<path d="M218.2 199.673H125.6V164.473H268.6L248.4 186.373C240.7 194.873 229.7 199.673 218.2 199.673Z" fill="white"/>
<path d="M218.2 301.871H125.6V337.071H268.6L248.4 315.171C240.7 306.671 229.7 301.871 218.2 301.871Z" fill="white"/>
<path d="M182.6 233.172H125.6V268.372H182.6V233.172Z" fill="white"/>
<path d="M373.7 164.973L287.9 250.773L373.7 336.573H338.1C329.7 336.573 321.7 333.273 315.8 327.373L238.7 250.273L314.6 174.273C320.5 168.373 328.6 164.973 337 164.973H373.7Z" fill="white"/>
<defs>
<linearGradient id="paint0_linear_1_6069" x1="75.5213" y1="425.918" x2="426.067" y2="75.3726" gradientUnits="userSpaceOnUse">
<stop stop-color="#C08429"/>
<stop offset="1" stop-color="#FDEA8C"/>
</linearGradient>
</defs>
</svg>
