<svg width="500" height="501" viewBox="0 0 500 501" fill="none" xmlns="http://www.w3.org/2000/svg">
<path d="M125 41.6719H370.4L247.2 164.872L125 41.6719Z" fill="url(#paint0_linear_1_6075)"/>
<path d="M370.4 41.6719L247.2 164.872V41.6719H370.4Z" fill="#00B4F8"/>
<path d="M127.4 460.471H372.8L249.7 337.271L127.4 460.471Z" fill="url(#paint1_linear_1_6075)"/>
<path d="M372.8 460.471L249.7 337.271V460.471H372.8Z" fill="#FDD754"/>
<path d="M414.4 111.271L275.6 251.971L413.2 389.571L495.3 252.471L414.4 111.271Z" fill="#15A63E"/>
<path d="M275.6 251.971L414.4 111.271L495.3 252.471L275.6 251.971Z" fill="url(#paint2_linear_1_6075)"/>
<path d="M84.5002 111.271L223.3 251.971L85.8002 389.571L3.7002 252.471L84.5002 111.271Z" fill="#15A63E"/>
<path d="M223.3 251.971L84.5002 111.271L3.7002 252.471L223.3 251.971Z" fill="url(#paint3_linear_1_6075)"/>
<defs>
<linearGradient id="paint0_linear_1_6075" x1="124.988" y1="103.288" x2="370.42" y2="103.288" gradientUnits="userSpaceOnUse">
<stop stop-color="#198FC0"/>
<stop offset="0.4966" stop-color="#27CDFF"/>
</linearGradient>
<linearGradient id="paint1_linear_1_6075" x1="127.412" y1="398.882" x2="372.844" y2="398.882" gradientUnits="userSpaceOnUse">
<stop stop-color="#F5D22D"/>
<stop offset="0.5011" stop-color="#FFF58D"/>
</linearGradient>
<linearGradient id="paint2_linear_1_6075" x1="385.464" y1="252.483" x2="385.464" y2="111.256" gradientUnits="userSpaceOnUse">
<stop stop-color="#29B24E"/>
<stop offset="1" stop-color="#45C665"/>
</linearGradient>
<linearGradient id="paint3_linear_1_6075" x1="113.514" y1="252.483" x2="113.514" y2="111.256" gradientUnits="userSpaceOnUse">
<stop stop-color="#29B24E"/>
<stop offset="1" stop-color="#45C665"/>
</linearGradient>
</defs>
</svg>
