<svg width="500" height="501" viewBox="0 0 500 501" fill="none" xmlns="http://www.w3.org/2000/svg">
<path d="M374.098 39.8633L497.881 111.547L374.098 182.84V39.8633Z" fill="#B3D002"/>
<path d="M374.098 39.8633L249.95 111.352L374.098 182.84V39.8633Z" fill="#F4EA1B"/>
<path d="M374.098 182.84L249.95 253.741V111.352L374.098 182.84Z" fill="#66B72F"/>
<path d="M249.95 111.352L125.358 182.546L249.95 253.741V111.352Z" fill="#0568B2"/>
<path d="M249.95 111.352L125.358 39.8633V182.546L249.95 111.352Z" fill="#5EB9DD"/>
<path d="M125.358 39.8633L2.75098 111.352L125.358 182.546V39.8633Z" fill="#1D3691"/>
<path d="M373.732 249.529L497.514 321.213L373.732 392.505V249.529Z" fill="#B3D002"/>
<path d="M373.732 249.529L249.583 321.017L373.732 392.505V249.529Z" fill="#F4EA1B"/>
<path d="M373.732 392.506L249.583 463.407V321.018L373.732 392.506Z" fill="#66B72F"/>
<path d="M249.583 321.018L124.992 392.213L249.583 463.407V321.018Z" fill="#0568B2"/>
<path d="M249.583 321.017L124.992 249.529V392.212L249.583 321.017Z" fill="#5EB9DD"/>
<path d="M124.992 392.212V249.529L2.38477 321.017" fill="#1D3691"/>
</svg>
