<svg width="500" height="501" viewBox="0 0 500 501" fill="none" xmlns="http://www.w3.org/2000/svg">
<g clip-path="url(#clip0_1_6097)">
<path d="M211.5 500.672H194.7L193 462.672C149 450.072 110.2 423.772 82.2998 387.472C23.7998 311.072 23.7998 204.872 82.2998 128.472C110.2 92.0719 149 65.6719 193.1 53.1719L194.8 15.1719H211.6L213.1 48.5719C327.9 27.9719 437.7 104.372 458.3 219.172C460.6 231.972 461.7 244.872 461.6 257.872V257.972C461.5 266.272 454.7 272.872 446.4 272.872H296.9C294.2 272.872 291.5 272.972 288.9 273.272C283.7 273.772 278.5 274.872 273.5 276.472C271.1 277.272 268.6 278.172 266.3 279.172C237.1 291.672 218.1 320.372 218.1 352.172L214.3 436.872C226 439.272 238 440.372 250 440.372C327.3 440.372 402.6 391.672 429 324.672H450.6C436.8 366.572 410.3 403.172 374.8 429.272C338.8 456.272 295 470.672 250 470.572C237.6 470.572 225.2 469.472 213 467.272L211.5 500.672ZM69.0998 272.972C74.8998 345.272 123 407.172 191.6 430.772L188.1 352.272C188.1 344.272 186.9 336.372 184.6 328.772C181.2 317.772 175.4 307.772 167.7 299.272C166 297.372 164.2 295.572 162.4 293.872C150.3 282.772 135 275.672 118.6 273.672C115.5 273.272 112.4 273.072 109.4 273.072H69.0998V272.972ZM203.1 218.772C193.7 234.972 180.2 248.472 164.1 257.972C180.2 267.472 193.6 280.972 203.1 297.172C212.5 280.972 226 267.472 242.1 257.972C226 248.372 212.6 234.872 203.1 218.772ZM250 75.3719C238 75.3719 226.1 76.5719 214.3 78.9719L218.1 163.672C218 207.272 253.2 242.772 296.8 242.872H296.9H430.9C423 148.672 344.5 76.0719 250 75.3719ZM191.6 85.0719C123.1 108.672 74.8998 170.572 69.0998 242.872H109.3C132.9 242.872 155.2 232.272 170.1 213.972C181.7 199.772 188.1 181.972 188.1 163.572L191.6 85.0719Z" fill="black"/>
</g>
<defs>
<clipPath id="clip0_1_6097">
<rect width="500" height="500" fill="white" transform="translate(0 0.671875)"/>
</clipPath>
</defs>
</svg>
