<svg width="500" height="491" viewBox="0 0 500 491" fill="none" xmlns="http://www.w3.org/2000/svg">
<path d="M391.36 143.752C447.64 143.752 493.26 189.372 493.26 245.652C493.26 301.932 447.64 347.552 391.36 347.552C335.08 347.552 289.46 301.932 289.46 245.652C289.46 189.372 335.08 143.752 391.36 143.752ZM262.58 7.23242C289.72 7.23242 311.72 29.2324 311.72 56.3724C311.72 83.5124 289.72 105.512 262.58 105.512C235.44 105.512 213.44 83.5124 213.44 56.3724C213.44 29.2324 235.46 7.23242 262.58 7.23242ZM262.58 386.032C289.72 386.032 311.72 408.032 311.72 435.172C311.72 462.312 289.72 484.312 262.58 484.312C235.44 484.312 213.44 462.312 213.44 435.172C213.44 408.032 235.46 386.032 262.58 386.032ZM240.08 319.232C242.98 320.192 246.14 320.692 249.28 320.692C266.22 320.692 280.02 306.892 280.02 289.952C280.02 273.012 266.22 259.212 249.28 259.212C238.38 259.212 228.94 264.772 223.38 273.252V273.492C222.42 274.712 221.68 276.152 221.2 277.612C187.32 337.392 119.3 297.452 119.3 297.452C108.16 290.912 95.3398 287.052 81.2998 287.052C40.3998 287.052 7.23985 320.212 7.23985 361.112C7.23985 402.012 40.3998 435.172 81.2998 435.172C109.86 435.172 134.8 418.952 146.9 395.232V394.992C149.08 390.872 150.78 386.512 152.22 381.912C187.56 300.832 240.08 319.232 240.08 319.232ZM222.64 210.552C224.1 213.212 226.02 215.872 228.2 218.052C240.3 230.152 259.66 230.152 271.52 218.052C283.62 205.952 283.62 186.592 271.52 174.732C263.78 166.992 253.12 164.332 243.44 166.512H243.2C241.74 166.752 240.06 167.232 238.6 167.972C172.28 186.372 152.44 109.872 152.44 109.872C149.3 97.2924 142.76 85.4324 133.08 75.7524C104.04 46.6924 57.3398 46.6924 28.5198 75.4924C-0.300157 104.292 -0.520155 151.252 28.5198 180.052C48.8598 200.392 77.6598 206.432 103.32 198.212H103.56C107.92 196.752 112.28 194.832 116.64 192.652C198.68 160.212 222.64 210.552 222.64 210.552Z" fill="#2B5EBA"/>
</svg>
