<svg width="500" height="501" viewBox="0 0 500 501" fill="none" xmlns="http://www.w3.org/2000/svg">
<path d="M305.5 476.871L85 349.471C83.5999 348.671 82.6999 347.071 82.6999 345.471V155.871C82.6999 154.171 83.5999 152.671 85 151.871L28.7 184.171V345.471C28.7 366.371 39.9 385.771 58 396.271L222.2 491.071C231.2 496.271 241.4 498.871 251.5 498.871C261.6 498.871 271.8 496.271 280.8 491.071L305.5 476.871Z" fill="#1992EE"/>
<path d="M232.3 413.772L102.4 338.172V169.072L232.8 244.072V290.572L142.1 236.872V315.772L232.8 367.872L232.3 413.772Z" fill="#1992EE"/>
<path d="M102.4 169.073L250.2 83.9727V129.873L142.4 191.873L102.4 169.073Z" fill="#1861B8"/>
<path d="M250.2 83.9727L396.3 169.073L357.1 192.073L250.2 129.873V83.9727Z" fill="#124E95"/>
<path d="M357.1 192.072L250.2 253.072V422.672L396.9 338.172V291.672L289.9 354.372V275.972L396.3 214.972V169.072L357.1 192.072Z" fill="#1475BF"/>
<path d="M420.7 90.9727L420.4 345.673C420.4 347.373 419.5 348.873 418.1 349.673L253.8 444.273C252.4 445.073 250.6 445.073 249.1 444.273L305.2 476.873L445 396.473C463.1 386.073 474.3 366.573 474.4 345.773L474.6 156.173C474.6 145.773 471.8 135.673 466.8 126.873C461.7 118.073 454.4 110.573 445.4 105.373L420.7 90.9727Z" fill="#1475BF"/>
<path d="M28.7001 184.271L249.3 57.0711C250.7 56.2711 252.5 56.2711 253.9 57.0711L418.1 151.971C419.5 152.771 420.4 154.371 420.4 155.971L420.6 91.0711L280.9 10.3711C262.8 -0.128906 240.4 -0.128906 222.3 10.3711L58.0001 105.071C49.0001 110.271 41.6001 117.771 36.5001 126.571C31.4001 135.371 28.6001 145.471 28.6001 155.871L28.7001 184.271Z" fill="#1863BB"/>
</svg>
