<svg width="500" height="501" viewBox="0 0 500 501" fill="none" xmlns="http://www.w3.org/2000/svg">
<path d="M374.209 36.3887L497.385 250.849L374.209 465.836L347.977 421.356L447.202 251.113L347.977 76.3497H151.239L125.007 36.3887H374.209Z" fill="#C4A9D4"/>
<path d="M125.007 36.3887L2.26099 251.113L125.007 465.836H374.209L347.977 421.356H151.649L53.857 251.113L151.239 76.3497L125.007 36.3887Z" fill="#AE9ACD"/>
<path d="M157.037 157.402H340.822V340.444L303.792 303.415V196.537H267.506V267.872L230.105 232.452V196.042H157.037V157.402Z" fill="#C4A9D4"/>
<path d="M230.105 232.451H157.037V268.118H267.506L230.105 232.451Z" fill="#AE9ACD"/>
<path d="M303.792 303.414H157.037V340.443H340.822L303.792 303.414Z" fill="#AE9ACD"/>
</svg>
