<svg width="500" height="501" viewBox="0 0 500 501" fill="none" xmlns="http://www.w3.org/2000/svg">
<path d="M177.263 76.5449C176.351 76.5449 175.511 77.0379 175.066 77.8349L125.45 166.7C124.514 168.377 125.726 170.443 127.647 170.443H232.69L284.32 76.5459L177.263 76.5449Z" fill="#0277AF"/>
<path d="M284.32 76.5449L232.69 170.442H337.325L391.577 76.5449H284.32Z" fill="#01A4CF"/>
<path d="M492.346 76.5449H391.577L337.325 170.442H443.47C444.388 170.442 445.232 169.942 445.675 169.138L494.551 80.2729C495.473 78.5969 494.259 76.5449 492.346 76.5449Z" fill="#01CEFD"/>
<path d="M118.213 200.271C117.301 200.271 116.461 200.764 116.016 201.561L66.4 290.425C65.464 292.102 66.676 294.168 68.597 294.168H173.639L225.269 200.271H118.213Z" fill="#0277AF"/>
<path d="M225.269 200.271L173.639 294.168H278.275L332.527 200.271H225.269Z" fill="#01A4CF"/>
<path d="M433.295 200.271H332.527L278.275 294.168H384.42C385.338 294.168 386.182 293.668 386.625 292.864L435.501 203.999C436.422 202.323 435.209 200.271 433.295 200.271Z" fill="#01CEFD"/>
<path d="M55.414 322.121C54.502 322.121 53.662 322.614 53.217 323.411L3.60004 412.275C2.66404 413.952 3.87604 416.018 5.79704 416.018H110.84L162.47 322.121H55.414Z" fill="#0277AF"/>
<path d="M162.47 322.121L110.84 416.018H215.475L269.727 322.121H162.47Z" fill="#01A4CF"/>
<path d="M370.496 322.121H269.727L215.475 416.018H321.62C322.538 416.018 323.382 415.518 323.825 414.714L372.701 325.849C373.623 324.173 372.409 322.121 370.496 322.121Z" fill="#01CEFD"/>
</svg>
