<svg width="500" height="501" viewBox="0 0 500 501" fill="none" xmlns="http://www.w3.org/2000/svg">
<path d="M37.017 126.892C108.392 85.6862 179.708 44.5142 251.052 3.32617C322.514 44.5862 393.834 85.7632 465.118 126.92C465.118 209.549 465.118 291.901 465.118 374.488C393.834 415.646 322.517 456.823 251.049 498.088C179.706 456.901 108.384 415.726 37.016 374.524C37.017 292.016 37.017 209.671 37.017 126.892ZM142.615 313.288C142.615 272.165 142.615 231.165 142.615 190.059C109.655 170.443 76.818 150.901 43.566 131.112C43.566 211.295 43.566 290.821 43.566 370.511C111.501 409.73 179.4 448.928 247.732 488.376C247.732 449.761 247.732 411.973 247.732 374.003C212.723 353.783 177.728 333.569 142.615 313.288ZM359.425 313.323C324.221 333.652 289.305 353.814 254.628 373.84C254.628 412.07 254.628 449.994 254.628 488.235C322.876 448.829 390.751 409.638 458.383 370.588C458.383 291.914 458.383 213.687 458.383 134.897C425.108 154.111 392.281 173.066 359.425 192.039C359.425 232.567 359.425 272.828 359.425 313.323ZM455.156 128.962C386.717 89.4482 318.872 50.2782 251.042 11.1162C184.067 49.7872 117.296 88.3402 50.09 127.144C82.973 146.728 115.204 165.923 147.606 185.22C182.109 165.306 216.545 145.431 251.049 125.516C286.15 145.777 321.145 165.978 356.102 186.157C389.118 167.093 421.858 148.189 455.156 128.962ZM247.667 366.152C247.667 328.012 247.667 290.386 247.667 252.614C215 233.175 182.367 213.757 149.374 194.125C149.374 232.993 149.374 271.092 149.374 309.414C182.004 328.25 214.647 347.093 247.667 366.152ZM254.438 366.14C287.56 347.021 320.137 328.216 352.539 309.512C352.539 271.609 352.539 234.013 352.539 196.004C319.503 215.079 286.848 233.935 254.438 252.65C254.438 290.559 254.438 328.017 254.438 366.14ZM154.297 189.164C186.737 208.492 218.841 227.62 251.065 246.82C283.731 227.948 316.313 209.126 349.33 190.052C316.147 170.893 283.58 152.091 251.046 133.306C218.773 151.939 186.75 170.427 154.297 189.164Z" fill="black"/>
<path d="M247.667 366.152C214.648 347.092 182.004 328.249 149.374 309.414C149.374 271.091 149.374 232.993 149.374 194.125C182.367 213.757 215 233.176 247.667 252.614C247.667 290.387 247.667 328.013 247.667 366.152Z" fill="#104F9D"/>
<path d="M254.438 366.14C254.438 328.017 254.438 290.559 254.438 252.65C286.848 233.936 319.504 215.08 352.539 196.004C352.539 234.013 352.539 271.609 352.539 309.512C320.137 328.216 287.56 347.021 254.438 366.14Z" fill="#33AFFF"/>
<path d="M154.297 189.165C186.75 170.428 218.773 151.94 251.045 133.307C283.579 152.091 316.146 170.894 349.329 190.053C316.313 209.127 283.731 227.95 251.064 246.821C218.841 227.621 186.737 208.493 154.297 189.165Z" fill="#E32EA2"/>
<path d="M96.661 344.715C96.741 347.65 94.472 350.033 91.514 350.12C88.472 350.21 86.121 348.058 86.001 345.075C85.884 342.174 88.202 339.722 91.146 339.633C94.103 339.545 96.583 341.829 96.661 344.715Z" fill="black"/>
<path d="M62.255 367.449C59.17 367.397 57.02 365.203 57.049 362.138C57.078 359.124 59.344 356.937 62.401 356.971C65.459 357.005 67.659 359.264 67.577 362.285C67.493 365.429 65.357 367.501 62.255 367.449Z" fill="black"/>
<path d="M125.528 327.417C125.602 330.471 123.444 332.774 120.442 332.844C117.474 332.913 115.087 330.648 115.028 327.705C114.968 324.712 117.188 322.361 120.165 322.263C123.167 322.165 125.454 324.364 125.528 327.417Z" fill="black"/>
<path d="M433.348 366.925C430.36 366.956 427.95 364.683 427.88 361.769C427.812 358.945 430.265 356.424 433.121 356.381C436.106 356.337 438.45 358.568 438.539 361.538C438.626 364.441 436.261 366.895 433.348 366.925Z" fill="black"/>
<path d="M374.852 332.906C371.975 332.905 369.6 330.474 369.619 327.549C369.638 324.613 372.012 322.248 374.925 322.262C377.761 322.275 380.185 324.739 380.207 327.628C380.227 330.44 377.724 332.907 374.852 332.906Z" fill="black"/>
<path d="M404.509 339.538C407.194 339.568 409.487 342.011 409.419 344.767C409.35 347.536 406.73 350.023 403.969 349.941C401.434 349.866 398.835 347.232 398.825 344.728C398.812 341.77 401.296 339.502 404.509 339.538Z" fill="black"/>
<path d="M254.716 69.1837C254.77 71.9817 252.287 74.5627 249.481 74.6257C246.712 74.6877 244.08 72.1837 243.995 69.4097C243.913 66.7107 246.482 64.0437 249.258 63.9477C251.933 63.8547 254.664 66.4747 254.716 69.1837Z" fill="black"/>
<path d="M249.357 108.328C246.42 108.321 243.989 105.933 244.002 103.068C244.015 100.218 246.463 97.8428 249.387 97.8438C252.308 97.8438 254.755 100.249 254.732 103.097C254.709 105.965 252.274 108.335 249.357 108.328Z" fill="black"/>
<path d="M249.285 30.2515C252.18 30.1815 254.675 32.5565 254.714 35.4195C254.753 38.2855 252.363 40.6935 249.441 40.7355C246.468 40.7775 244.074 38.5105 244 35.5835C243.93 32.7855 246.371 30.3225 249.285 30.2515Z" fill="black"/>
</svg>
