<svg width="500" height="501" viewBox="0 0 500 501" fill="none" xmlns="http://www.w3.org/2000/svg">
<path d="M249.58 485.552C381.126 485.552 487.765 378.913 487.765 247.367C487.765 115.821 381.126 9.18164 249.58 9.18164C118.034 9.18164 11.395 115.821 11.395 247.367C11.395 378.913 118.034 485.552 249.58 485.552Z" fill="url(#paint0_radial_1_6147)"/>
<path d="M258.608 442.085C355.013 442.085 433.164 368.871 433.164 278.556C433.164 188.242 355.013 115.027 258.608 115.027C162.203 115.027 84.052 188.242 84.052 278.556C84.052 368.871 162.203 442.085 258.608 442.085Z" fill="url(#paint1_linear_1_6147)"/>
<path d="M251.231 488.791C355.313 488.791 439.688 409.747 439.688 312.24C439.688 214.734 355.313 135.689 251.231 135.689C147.149 135.689 62.774 214.734 62.774 312.24C62.774 409.747 147.149 488.791 251.231 488.791Z" fill="url(#paint2_radial_1_6147)"/>
<path d="M198.424 410.65C197.563 410.558 177.214 408.322 166.635 402.276C164.834 401.247 122.326 376.718 105.337 346.138C91.014 320.355 66.755 273.782 65.222 251.537C63.827 231.316 64.924 188.018 72.073 173.721C72.571 172.726 73.186 171.364 73.965 169.638C78.628 159.307 88.332 137.811 107.599 118.826C131.48 95.2952 162.109 83.3352 198.635 83.2792C198.876 83.2762 225.221 82.9512 254.859 82.9512C272.271 82.9512 287.399 83.0612 299.822 83.2802C339.269 83.9722 370.781 87.3082 385.779 89.9552L388.364 90.4062C398.878 92.2272 402.812 92.9092 403.662 100.564C404.391 107.121 410.245 154.696 410.305 155.176L410.462 156.459L374.121 178.523H413.17L417.02 251.639L374.582 282.625H412.899L399.798 360.465L326.958 401.766L198.6 410.669L198.424 410.65Z" fill="url(#paint3_linear_1_6147)"/>
<path d="M254.859 84.9512C269.846 84.9512 285.757 85.0332 299.787 85.2792C341.871 86.0172 372.88 89.7092 385.432 91.9242C397.983 94.1392 400.937 94.1392 401.675 100.784C402.413 107.429 408.32 155.419 408.32 155.419L366.974 180.522H411.273L414.965 250.662L368.451 284.624H410.535L397.984 359.194L326.367 399.801L198.639 408.661C198.639 408.661 177.966 406.446 167.63 400.54C157.294 394.633 121.854 371.746 107.088 345.166C92.322 318.587 68.696 272.811 67.219 251.4C65.742 229.989 67.219 187.905 73.864 174.615C80.509 161.325 107.087 85.4192 198.639 85.2792C198.637 85.2792 224.891 84.9512 254.859 84.9512ZM254.859 80.9512C225.209 80.9512 198.85 81.2762 198.588 81.2792C161.563 81.3352 130.463 93.4892 106.195 117.401C86.662 136.648 76.855 158.374 72.142 168.815C71.403 170.453 70.764 171.867 70.285 172.826C62.974 187.449 61.819 231.258 63.227 251.675C64.788 274.305 89.186 321.181 103.59 347.108C120.846 378.17 163.823 402.971 165.644 404.012C176.581 410.262 197.334 412.544 198.212 412.638L198.563 412.676L198.915 412.652L326.643 403.792L327.549 403.729L328.339 403.281L399.956 362.674L401.612 361.735L401.928 359.858L414.479 285.288L415.264 280.624H410.534H380.711L417.322 253.892L419.072 252.615L418.958 250.452L415.266 180.312L415.067 176.522H411.272H381.269L410.395 158.838L412.605 157.496L412.289 154.93C412.23 154.45 406.377 106.887 405.65 100.342C404.634 91.1942 399.311 90.2722 388.706 88.4352C387.895 88.2942 387.036 88.1462 386.127 87.9852C371.058 85.3262 339.422 81.9742 299.857 81.2802C287.423 81.0622 272.283 80.9512 254.859 80.9512Z" fill="#692CC2"/>
<path d="M69.414 251.566C69.414 251.566 71.414 277.567 82.081 301.568C92.748 325.569 118.797 363.526 128.083 373.571C141.903 388.519 168.755 406.037 185.422 408.037C202.089 410.037 247.642 406.862 257.955 406.718C264.655 406.624 319.032 401.135 326.366 399.802C333.7 398.469 396.232 362.666 397.983 359.195C399.415 356.356 400.21 345.967 400.21 345.967L349.268 357.693L195.805 364.945C190.781 365.147 183.304 364.321 177.396 363.809C169.96 363.164 162.85 361.763 154.214 359.036C144.957 356.113 133.375 350.127 123.918 342.953C110.614 332.86 94.662 317.012 85.417 294.235C79.545 279.773 69.414 251.566 69.414 251.566Z" fill="white"/>
<path d="M143.264 181.261L161.722 156.158C161.722 156.158 160.984 149.513 195.684 148.775C230.384 148.037 400.197 153.943 400.197 153.943L365.496 181.261H143.264Z" fill="url(#paint4_linear_1_6147)"/>
<path d="M406.104 251.4L362.543 284.624L169.843 290.531C169.843 290.531 152.862 276.503 149.908 270.966C146.955 265.429 143.263 258.045 143.263 258.045C143.263 258.045 344.085 256.568 363.281 255.83C382.478 255.091 406.104 251.4 406.104 251.4Z" fill="url(#paint5_linear_1_6147)"/>
<path d="M383.954 361.41C383.954 361.41 327.842 394.634 323.412 396.111C318.982 397.588 212.094 404.968 201.59 404.971C188.04 404.974 171.319 400.541 160.244 392.42C149.169 384.299 132.188 368.056 128.496 361.411C124.804 354.766 114.468 342.953 114.468 342.953C114.468 342.953 139.571 359.196 157.29 364.364C175.01 369.532 212.351 368.362 229.333 367.624C246.315 366.886 383.954 361.41 383.954 361.41Z" fill="url(#paint6_linear_1_6147)"/>
<path d="M363.114 68.405C363.114 68.405 323.73 56.59 298.412 57.153C273.094 57.716 240.462 59.966 223.583 65.592C206.704 71.218 199.953 74.594 199.953 74.594C199.953 74.594 210.643 87.534 209.518 99.912C208.393 112.29 196.015 126.918 181.387 130.856C166.759 134.794 152.131 137.045 140.878 134.794C129.625 132.544 103.745 117.915 103.745 117.915L84.053 103.849C84.053 103.849 103.745 76.843 136.377 61.09C169.009 45.337 202.204 31.834 243.838 31.834C285.472 31.834 315.291 41.399 332.733 49.838C350.173 58.278 363.114 68.405 363.114 68.405Z" fill="white"/>
<path d="M84.052 103.85C84.052 103.85 69.073 122.808 65.274 131.164C61.475 139.521 48.94 163.831 46.661 187.762C44.382 211.693 44.002 230.239 46.661 242.808C49.32 255.376 53.878 272.85 53.878 272.85C53.878 272.85 69.452 208.655 71.731 193.081C74.01 177.507 85.026 144.46 94.522 133.064C104.018 121.668 112.755 107.994 112.755 107.994L84.052 103.85Z" fill="url(#paint7_linear_1_6147)"/>
<path d="M112.755 107.992C112.755 107.992 96.146 129.674 92.564 135.687C88.982 141.7 74.161 165.462 73.25 177.505C72.339 189.548 69.831 215.11 69.831 215.11C69.831 215.11 96.421 167.249 103.638 158.892C110.855 150.535 131.747 122.806 131.747 122.806L112.755 107.992Z" fill="url(#paint8_linear_1_6147)"/>
<defs>
<radialGradient id="paint0_radial_1_6147" cx="0" cy="0" r="1" gradientUnits="userSpaceOnUse" gradientTransform="translate(135.897 100.453) scale(257.121 257.121)">
<stop stop-color="#21FFE3"/>
<stop offset="1" stop-color="#8549DF"/>
</radialGradient>
<linearGradient id="paint1_linear_1_6147" x1="266.316" y1="442.344" x2="252.324" y2="145.019" gradientUnits="userSpaceOnUse">
<stop stop-color="#21FFE3"/>
<stop offset="1" stop-color="#8549DF"/>
</linearGradient>
<radialGradient id="paint2_radial_1_6147" cx="0" cy="0" r="1" gradientUnits="userSpaceOnUse" gradientTransform="translate(251.231 312.24) scale(222.862 222.862)">
<stop stop-color="#21FFE3"/>
<stop offset="0.1916" stop-color="#23FCE3" stop-opacity="0.8084"/>
<stop offset="0.3419" stop-color="#28F2E3" stop-opacity="0.6581"/>
<stop offset="0.478" stop-color="#31E1E2" stop-opacity="0.522"/>
<stop offset="0.6059" stop-color="#3ECAE2" stop-opacity="0.3941"/>
<stop offset="0.728" stop-color="#4FACE1" stop-opacity="0.272"/>
<stop offset="0.8458" stop-color="#6386E0" stop-opacity="0.1542"/>
<stop offset="0.958" stop-color="#7B5BDF" stop-opacity="0.042"/>
<stop offset="1" stop-color="#8549DF" stop-opacity="0"/>
</radialGradient>
<linearGradient id="paint3_linear_1_6147" x1="88.819" y1="133.573" x2="393.711" y2="312.781" gradientUnits="userSpaceOnUse">
<stop stop-color="#21FFE3"/>
<stop offset="1" stop-color="#F8FFFB"/>
</linearGradient>
<linearGradient id="paint4_linear_1_6147" x1="143.264" y1="164.986" x2="400.197" y2="164.986" gradientUnits="userSpaceOnUse">
<stop stop-color="#692CC2"/>
<stop offset="0.5189" stop-color="#3E5BDE"/>
<stop offset="1" stop-color="#229EE7"/>
</linearGradient>
<linearGradient id="paint5_linear_1_6147" x1="143.264" y1="270.966" x2="406.104" y2="270.966" gradientUnits="userSpaceOnUse">
<stop stop-color="#692CC2"/>
<stop offset="0.5189" stop-color="#3E5BDE"/>
<stop offset="1" stop-color="#229EE7"/>
</linearGradient>
<linearGradient id="paint6_linear_1_6147" x1="114.469" y1="373.961" x2="383.954" y2="373.961" gradientUnits="userSpaceOnUse">
<stop stop-color="#677CF4"/>
<stop offset="0.2764" stop-color="#374CD7"/>
<stop offset="0.3631" stop-color="#3752D8"/>
<stop offset="0.4747" stop-color="#3562DB"/>
<stop offset="0.5999" stop-color="#337CE1"/>
<stop offset="0.7351" stop-color="#30A1E9"/>
<stop offset="0.8766" stop-color="#2DD0F2"/>
<stop offset="1" stop-color="#29FFFC"/>
</linearGradient>
<linearGradient id="paint7_linear_1_6147" x1="81.3035" y1="145.354" x2="35.6017" y2="261.685" gradientUnits="userSpaceOnUse">
<stop stop-color="#F8FFFB"/>
<stop offset="1" stop-color="#F8FFFB" stop-opacity="0"/>
</linearGradient>
<linearGradient id="paint8_linear_1_6147" x1="102.051" y1="151.666" x2="94.4292" y2="256.193" gradientUnits="userSpaceOnUse">
<stop stop-color="#F8FFFB"/>
<stop offset="1" stop-color="#F8FFFB" stop-opacity="0"/>
</linearGradient>
</defs>
</svg>
