<svg width="500" height="501" viewBox="0 0 500 501" fill="none" xmlns="http://www.w3.org/2000/svg">
<g clip-path="url(#clip0_1_6161)">
<path d="M83.7 118.272C88.4 109.572 95.1 102.172 103.4 96.6719L241.5 0.671875L100 233.772C100 233.772 87.6 212.972 82.8 202.372C76.8 189.172 73.8 174.772 73.9 160.172C74.1 145.772 77.4 131.472 83.7 118.272ZM26.7 279.172C28.3 301.472 34.6 323.172 45.2 342.872C55.9 362.572 70.6 379.672 88.5 393.172L241.3 499.272C241.3 499.272 145.7 362.072 65.1 225.472C56.9 211.072 51.5 195.272 48.9 178.872C47.8 171.472 47.8 163.972 48.9 156.472C46.8 160.372 42.7 168.272 42.7 168.272C34.5 184.872 29 202.672 26.2 220.972C24.6 240.372 24.8 259.872 26.7 279.172ZM416.2 297.572C411.3 287.072 399 266.172 399 266.172L257.7 499.172L395.8 403.172C404 397.672 410.8 390.272 415.5 381.572C421.8 368.472 425.1 354.172 425.3 339.572C425.5 325.072 422.4 310.672 416.4 297.372L416.2 297.572ZM472.2 220.872C470.6 198.572 464.3 176.872 453.7 157.172C443 137.472 428.3 120.372 410.4 106.872L257.9 0.671875C257.9 0.671875 353.4 137.872 434.1 274.472C442.2 288.872 447.7 304.672 450.2 321.072C451.3 328.472 451.3 335.972 450.2 343.472C452.3 339.572 456.4 331.672 456.4 331.672C464.6 315.072 470.1 297.272 472.9 278.972C474.5 259.672 474.4 240.172 472.5 220.872H472.2Z" fill="url(#paint0_linear_1_6161)"/>
</g>
<defs>
<linearGradient id="paint0_linear_1_6161" x1="409.918" y1="504.226" x2="-99.3074" y2="-302.719" gradientUnits="userSpaceOnUse">
<stop stop-color="#44BCF0"/>
<stop offset="0.3788" stop-color="#7298F8"/>
<stop offset="1" stop-color="#A099FF"/>
</linearGradient>
<clipPath id="clip0_1_6161">
<rect width="500" height="500" fill="white" transform="translate(0 0.671875)"/>
</clipPath>
</defs>
</svg>
