<svg width="500" height="501" viewBox="0 0 500 501" fill="none" xmlns="http://www.w3.org/2000/svg">
<path d="M251.123 22.3555L355.111 162.831L402.73 383.466L251.123 477.116L99.5559 383.466L147.175 154.894L251.123 22.3555Z" fill="white"/>
<path d="M252.813 8.57717C254.913 10.6132 257.356 12.3982 259.062 14.7232C292.224 59.9212 325.323 105.164 358.329 150.475C360.105 152.914 361.513 155.903 362.16 158.841C378.492 233.025 394.701 307.235 410.921 381.443C412.279 387.655 411.535 389.256 406.155 392.629C355.631 424.293 305.113 455.967 254.603 487.653C254.251 487.874 254.032 488.307 253.751 488.641C251.876 488.641 250 488.641 248.125 488.641C247.299 487.984 246.527 487.241 245.639 486.683C195.269 455.07 144.917 423.427 94.46 391.952C89.94 389.133 90.125 385.462 90.993 381.422C95.316 361.294 99.769 341.194 104.172 321.083C115.912 267.455 127.6 213.815 139.494 160.22C140.34 156.408 142.116 152.517 144.414 149.357C177.102 104.397 209.937 59.5442 242.818 14.7252C244.524 12.4002 246.965 10.6132 249.064 8.57617C250.313 8.57717 251.563 8.57717 252.813 8.57717ZM184.452 247.476C198.266 291.031 212.014 334.379 225.686 377.486C243.018 377.486 259.67 377.486 276.573 377.486C290.346 334.043 304.052 290.812 317.793 247.469C295.636 208.513 273.528 169.643 250.94 129.928C228.536 169.539 206.597 208.324 184.452 247.476ZM345.924 158.576C317.052 119.055 288.172 79.5222 259.292 39.9902C258.377 64.0852 258.344 87.6562 258.452 111.225C258.459 112.805 259.342 114.493 260.156 115.94C280.515 152.094 300.917 188.223 321.327 224.348C321.966 225.478 322.762 226.52 323.847 228.146C331.322 204.595 338.576 181.735 345.924 158.576ZM178.015 227.7C178.845 226.642 179.287 226.205 179.582 225.684C200.521 188.763 221.463 151.843 242.325 114.879C243.116 113.477 243.45 111.637 243.456 110C243.528 87.6622 243.506 65.3242 243.497 42.9862C243.497 42.1142 243.386 41.2422 243.241 39.0912C213.688 79.5492 184.838 119.046 155.952 158.591C163.297 181.602 170.572 204.386 178.015 227.7ZM391.273 377.562C369.851 339.765 348.893 302.786 327.418 264.896C315.34 303.059 303.616 340.102 291.76 377.562C325.116 377.562 357.676 377.562 391.273 377.562ZM174.453 265.268C152.852 303.392 131.917 340.338 110.685 377.811C144.172 377.811 176.837 377.811 210.084 377.811C198.257 340.455 186.557 303.499 174.453 265.268ZM264.292 464.094C302.512 440.122 339.489 416.93 376.467 393.737C376.316 393.429 376.165 393.122 376.014 392.814C346.389 392.814 316.763 392.814 286.795 392.814C279.412 416.199 272.067 439.466 264.292 464.094ZM236.195 463.2C236.503 463.001 236.811 462.802 237.12 462.604C229.773 439.344 222.425 416.085 215.165 393.099C184.98 393.099 155.354 393.099 124.406 393.099C162.462 416.964 199.328 440.082 236.195 463.2ZM149.463 187.395C149.154 187.382 148.845 187.369 148.537 187.356C137.671 237.032 126.806 286.709 115.94 336.385C116.207 336.484 116.474 336.583 116.742 336.682C133.878 306.447 151.014 276.213 168.143 245.989C161.855 226.268 155.659 206.831 149.463 187.395ZM333.73 245.638C351.034 276.146 368.035 306.12 385.036 336.094C385.314 335.958 385.593 335.822 385.871 335.687C375.035 286.168 364.199 236.648 353.363 187.129C353.023 187.16 352.683 187.192 352.343 187.223C346.149 206.663 339.955 226.103 333.73 245.638ZM250.341 455.161C250.739 455.17 251.137 455.179 251.536 455.188C258.169 434.54 264.803 413.892 271.538 392.928C257.682 392.928 244.518 392.928 230.706 392.928C237.357 414.008 243.849 434.585 250.341 455.161Z" fill="black"/>
</svg>
