<svg width="500" height="501" viewBox="0 0 500 501" fill="none" xmlns="http://www.w3.org/2000/svg">
<path fill-rule="evenodd" clip-rule="evenodd" d="M313.6 3.87109L261.8 37.4711L252.3 145.271L324.6 64.4711C324.6 64.5711 313.6 3.87109 313.6 3.87109Z" fill="black"/>
<path fill-rule="evenodd" clip-rule="evenodd" d="M175.3 65.0723L181.3 173.172L232 208.272L244.9 147.872L175.3 65.0723Z" fill="black"/>
<path fill-rule="evenodd" clip-rule="evenodd" d="M255.7 147.372L266.7 208.072L318.5 174.472L328 66.6719L255.7 147.372Z" fill="black"/>
<path fill-rule="evenodd" clip-rule="evenodd" d="M326.5 181.572L291.4 232.172L351.8 245.072L434.6 175.672L326.5 181.572Z" fill="black"/>
<path fill-rule="evenodd" clip-rule="evenodd" d="M352.4 256.072L291.7 267.072L325.3 318.872L433.1 328.372L352.4 256.072Z" fill="black"/>
<path fill-rule="evenodd" clip-rule="evenodd" d="M318.2 326.971L267.6 291.871L254.7 352.171L324.1 434.971L318.2 326.971Z" fill="black"/>
<path fill-rule="evenodd" clip-rule="evenodd" d="M233.1 292.572L181.2 326.172L171.7 433.972L244 353.272L233.1 292.572Z" fill="black"/>
<path fill-rule="evenodd" clip-rule="evenodd" d="M147.5 255.172L64.7 324.572L172.8 318.672L207.9 268.072L147.5 255.172Z" fill="black"/>
<path fill-rule="evenodd" clip-rule="evenodd" d="M174 181.271L66.2 171.771L146.9 244.071L207.6 233.071C207.6 233.171 174 181.271 174 181.271Z" fill="black"/>
<path fill-rule="evenodd" clip-rule="evenodd" d="M64.0999 175.172L3.3999 186.172L36.9999 238.072L144.8 247.572C144.9 247.472 64.0999 175.172 64.0999 175.172Z" fill="black"/>
<path fill-rule="evenodd" clip-rule="evenodd" d="M171.4 65.9715L120.7 30.7715L107.8 91.1715L177.3 174.071L171.4 65.9715Z" fill="black"/>
<path fill-rule="evenodd" clip-rule="evenodd" d="M408.5 108.473L325.7 177.873L433.8 171.873L468.9 121.273L408.5 108.473Z" fill="black"/>
<path fill-rule="evenodd" clip-rule="evenodd" d="M462.2 262.271L354.4 252.771L435.1 325.071L495.8 314.071L462.2 262.271Z" fill="black"/>
<path fill-rule="evenodd" clip-rule="evenodd" d="M321.9 326.172L327.9 434.272L378.5 469.372L391.4 409.072L321.9 326.172Z" fill="black"/>
<path fill-rule="evenodd" clip-rule="evenodd" d="M174.7 435.673L185.7 496.373L237.6 462.773L247.1 354.973L174.7 435.673Z" fill="black"/>
<path fill-rule="evenodd" clip-rule="evenodd" d="M65.4999 328.271L30.3999 378.871L90.7999 391.771L173.6 322.371L65.4999 328.271Z" fill="black"/>
<path fill-rule="evenodd" clip-rule="evenodd" d="M93.5 393.473L168.4 433.073L177.5 323.973C177.4 323.973 93.5 393.473 93.5 393.473Z" fill="black"/>
<path fill-rule="evenodd" clip-rule="evenodd" d="M37.8 241.072L62.8 321.972L146.4 251.272L37.8 241.072Z" fill="black"/>
<path fill-rule="evenodd" clip-rule="evenodd" d="M106.3 93.8711L66.8 168.671L175.8 177.871C175.9 177.871 106.3 93.8711 106.3 93.8711Z" fill="black"/>
<path fill-rule="evenodd" clip-rule="evenodd" d="M177.9 63.1715L248.5 146.871L258.7 38.2715L177.9 63.1715Z" fill="black"/>
<path fill-rule="evenodd" clip-rule="evenodd" d="M331.1 67.2715L321.9 176.371L405.9 106.771L331.1 67.2715Z" fill="black"/>
<path fill-rule="evenodd" clip-rule="evenodd" d="M436.6 178.371L352.9 248.971L461.5 259.071C461.6 259.171 436.6 178.371 436.6 178.371Z" fill="black"/>
<path fill-rule="evenodd" clip-rule="evenodd" d="M323.4 322.371L393 406.371L432.5 331.571L323.4 322.371Z" fill="black"/>
<path fill-rule="evenodd" clip-rule="evenodd" d="M250.8 353.371L240.7 461.971L321.5 437.071L250.8 353.371Z" fill="black"/>
</svg>
