<svg width="500" height="501" viewBox="0 0 500 501" fill="none" xmlns="http://www.w3.org/2000/svg">
<g clip-path="url(#clip0_1_6191)">
<path d="M250 500.672C388.071 500.672 500 388.743 500 250.672C500 112.601 388.071 0.671875 250 0.671875C111.929 0.671875 0 112.601 0 250.672C0 388.743 111.929 500.672 250 500.672Z" fill="#00FF00"/>
<path d="M250 100.672C220.3 100.672 191.3 109.472 166.7 125.972C142 142.472 122.8 165.872 111.4 193.272C100 220.672 97.1001 250.872 102.9 279.972C108.7 309.072 123 335.772 144 356.772C165 377.772 191.7 392.072 220.8 397.872C249.9 403.672 280.1 400.672 307.5 389.372C334.9 377.972 358.3 358.772 374.8 334.072C391.3 309.372 400.1 280.372 400.1 250.772C400.1 210.972 384.3 172.872 356.2 144.672C327.9 116.472 289.8 100.672 250 100.672ZM250 367.872C220.3 367.872 191.8 356.672 170.1 336.472C148.4 316.272 135.2 288.572 133.1 258.972C131 229.372 140.2 200.072 158.9 177.072C177.6 154.072 204.3 138.872 233.6 134.772V206.472C223.2 210.372 214.5 217.672 209 227.372C203.5 236.972 201.6 248.272 203.5 259.172C205.5 270.072 211.2 279.972 219.7 287.072C228.2 294.172 238.9 298.072 250 298.072C261.1 298.072 271.8 294.172 280.3 287.072C288.8 279.972 294.5 270.072 296.5 259.172C298.5 248.272 296.5 237.072 291 227.372C285.5 217.772 276.8 210.372 266.4 206.472V134.672C295.8 138.772 322.5 153.972 341.1 176.972C359.8 200.072 369 229.272 366.9 258.872C364.8 288.472 351.6 316.172 329.9 336.372C308.2 356.572 279.6 367.772 250 367.772V367.872Z" fill="black"/>
</g>
<defs>
<clipPath id="clip0_1_6191">
<rect width="500" height="500" fill="white" transform="translate(0 0.671875)"/>
</clipPath>
</defs>
</svg>
