<svg width="500" height="501" viewBox="0 0 500 501" fill="none" xmlns="http://www.w3.org/2000/svg">
<path fill-rule="evenodd" clip-rule="evenodd" d="M234.2 314.673H330.6V359.473H169.4V318.773L232.8 248.573L169.7 182.773V141.973H330.5V186.773H236.2L294.7 248.073L234.2 314.673Z" fill="black"/>
<path d="M250 46.9719L394 106.672L453.7 250.672L394 394.772L250 454.472L106 394.772L46.3 250.672L106 106.672L250 46.9719ZM250 1.67188C247.4 1.67188 244.9 2.17188 242.5 3.17188L80.3 70.3719C75.5 72.3719 71.7 76.1719 69.7 80.8719L2.5 243.172C0.5 247.972 0.5 253.272 2.5 258.072L69.7 420.372C71.7 425.172 75.5 428.972 80.3 430.872L242.6 498.072C247.4 500.072 252.7 500.072 257.5 498.072L419.8 430.872C424.6 428.872 428.4 425.072 430.3 420.372L497.5 258.072C499.5 253.272 499.5 247.972 497.5 243.172L430.3 80.9719C428.3 76.1719 424.5 72.3719 419.7 70.4719L257.5 3.17188C255.1 2.17188 252.6 1.67188 250 1.67188Z" fill="black"/>
</svg>
