<svg width="500" height="501" viewBox="0 0 500 501" fill="none" xmlns="http://www.w3.org/2000/svg">
<path d="M359.2 362.172C330.6 362.172 302.1 351.272 280.3 329.572L265.1 314.372L282.1 297.372L297.3 312.572C331.4 346.672 387 346.672 421.1 312.572C437.6 296.072 446.7 274.072 446.7 250.672C446.7 227.272 437.6 205.272 421.1 188.772C404.6 172.272 382.6 163.172 359.2 163.172C335.8 163.172 313.8 172.272 297.3 188.772L281.6 204.472L264.6 187.472L280.3 171.772C301.4 150.672 329.4 139.072 359.2 139.072C389 139.072 417 150.672 438.1 171.772C459.2 192.872 470.8 220.872 470.8 250.672C470.8 280.472 459.2 308.472 438.1 329.572C416.3 351.272 387.8 362.172 359.2 362.172Z" fill="#00EAC2"/>
<path d="M142 363.172C115.5 363.172 88.6 353.272 68 335.972C50.7 321.372 30 294.772 30 250.872C30 207.572 52.4 181.372 71.2 166.972C95.6 148.272 124.1 141.572 142.7 141.572C184.8 141.572 208.7 163.672 211 165.972L269.3 221.572L194.5 296.372C180.2 310.672 161.8 318.172 141.4 318.172C125.9 318.172 110.2 313.072 98.4 304.172C87.4 295.872 74.4 280.272 74.4 252.772C74.4 225.472 87.2 208.872 98 199.772C110.1 189.472 126.2 183.372 141 183.372C168.5 183.372 188.9 203.972 189.8 204.772L198.1 213.272L121.5 289.872C127.6 292.572 134.6 293.972 141.4 293.972C155.6 293.972 167.7 288.972 177.6 279.172L235.1 221.672L194.3 182.772C193.6 182.072 175.9 165.272 142.8 165.272C128.8 165.272 105.6 170.572 85.9 185.672C71.3 196.972 54 217.272 54 250.772C54 285.372 70 306.172 83.5 317.572C99.5 331.072 121.4 339.172 142 339.172C179.1 339.172 202.5 313.772 202.7 313.472L203.2 312.972L316.5 200.372C319 197.872 333.8 183.872 359.3 183.872C374.8 183.872 391.3 189.572 403.6 199.272C414.9 208.072 428.3 224.472 428.3 252.372C428.3 301.872 388.2 319.872 361.3 319.872C343.1 319.872 325.6 312.472 312.2 299.072L297.4 284.272L314.4 267.272L329.2 282.072C335.5 288.372 346.2 295.872 361.4 295.872C395.4 295.872 404.4 267.472 404.4 252.372C404.4 237.772 399.2 226.172 388.9 218.172C379.2 210.572 367.3 207.872 359.4 207.872C343.5 207.872 334.9 216.072 334 216.972L333.6 217.372L220.3 329.772C216.9 333.472 188.1 363.172 142 363.172ZM141 207.472C127.1 207.472 98.4 218.572 98.4 252.772C98.4 261.072 100.1 268.172 103.4 274.172L163.1 214.472C157.3 210.972 149.5 207.472 141 207.472Z" fill="#00EAC2"/>
</svg>
