<svg width="500" height="501" viewBox="0 0 500 501" fill="none" xmlns="http://www.w3.org/2000/svg">
<path d="M250.5 364.672C314.455 364.672 366.3 312.827 366.3 248.872C366.3 184.918 314.455 133.072 250.5 133.072C186.546 133.072 134.7 184.918 134.7 248.872C134.7 312.827 186.546 364.672 250.5 364.672Z" fill="url(#paint0_linear_1_6202)"/>
<path d="M267.3 3.67188H40.7004C20.4004 3.67188 3.90039 20.1719 3.90039 40.5719V267.672C3.90039 394.272 106.5 496.872 233.1 496.872H459.7C480 496.872 496.5 480.372 496.5 460.072V232.872C496.5 106.272 393.9 3.67188 267.3 3.67188ZM32.1004 71.3719C32.1004 50.9719 48.6004 34.4719 69.0004 34.4719C89.4004 34.4719 105.9 50.9719 105.9 71.3719C105.9 91.7719 89.4004 108.272 69.0004 108.272C48.6004 108.272 32.1004 91.7719 32.1004 71.3719ZM250.5 434.172C148.2 434.172 65.2004 351.272 65.2004 248.872C65.2004 146.572 148.1 63.5719 250.5 63.5719C352.8 63.5719 435.8 146.472 435.8 248.872C435.8 351.172 352.8 434.172 250.5 434.172ZM430.5 466.772C410.1 466.772 393.6 450.272 393.6 429.872C393.6 409.472 410.1 392.972 430.5 392.972C450.9 392.972 467.4 409.472 467.4 429.872C467.4 450.172 450.9 466.772 430.5 466.772Z" fill="url(#paint1_linear_1_6202)"/>
<path d="M250.5 133.072C314.3 133.072 366.3 184.972 366.3 248.872C366.3 312.772 314.3 364.672 250.5 364.672C186.7 364.672 134.7 312.672 134.7 248.872C134.7 185.072 186.7 133.072 250.5 133.072ZM250.5 63.5723C148.2 63.5723 65.2002 146.472 65.2002 248.872C65.2002 351.172 148.1 434.172 250.5 434.172C352.8 434.172 435.8 351.272 435.8 248.872C435.8 146.572 352.8 63.5723 250.5 63.5723Z" fill="white"/>
<path d="M68.9996 108.273C89.3789 108.273 105.9 91.752 105.9 71.3727C105.9 50.9933 89.3789 34.4727 68.9996 34.4727C48.6203 34.4727 32.0996 50.9933 32.0996 71.3727C32.0996 91.752 48.6203 108.273 68.9996 108.273Z" fill="white"/>
<path d="M430.5 466.773C450.879 466.773 467.4 450.252 467.4 429.873C467.4 409.493 450.879 392.973 430.5 392.973C410.12 392.973 393.6 409.493 393.6 429.873C393.6 450.252 410.12 466.773 430.5 466.773Z" fill="white"/>
<defs>
<linearGradient id="paint0_linear_1_6202" x1="-2.5813" y1="-4.21243" x2="487.77" y2="486.139" gradientUnits="userSpaceOnUse">
<stop stop-color="#13429B"/>
<stop offset="1" stop-color="#3EA8FF"/>
</linearGradient>
<linearGradient id="paint1_linear_1_6202" x1="-3.42161" y1="-3.37223" x2="486.93" y2="486.979" gradientUnits="userSpaceOnUse">
<stop stop-color="#13429B"/>
<stop offset="1" stop-color="#3EA8FF"/>
</linearGradient>
</defs>
</svg>
