<svg width="500" height="501" viewBox="0 0 500 501" fill="none" xmlns="http://www.w3.org/2000/svg">
<path d="M486.239 159.712C486.239 198.508 486.239 237.303 486.239 276.099C481.44 278.309 476.638 280.511 471.843 282.729C450.947 292.393 430.059 302.073 409.158 311.725C391.44 319.906 373.706 328.053 355.983 336.222C341.158 343.055 326.223 349.663 311.542 356.792C288.138 368.156 263.705 372.102 238.076 367.585C209.255 362.506 185.477 348.532 166.71 326.085C163.998 322.841 161.561 319.368 158.902 315.877C137.821 326.014 116.685 336.178 95.4814 346.373C95.9074 347.121 96.2064 347.67 96.5264 348.206C105.005 362.407 115.115 375.321 126.937 386.899C139.976 399.669 154.558 410.334 170.695 418.836C196.016 432.176 223.011 439.418 251.604 440.557C270.151 441.295 288.418 439.244 306.37 434.488C319.771 430.938 332.51 425.733 344.956 419.635C364.269 410.172 383.757 401.067 403.163 391.794C427.338 380.242 451.504 368.672 475.675 357.111C478.449 355.784 481.227 354.466 484.365 352.972C484.915 354.865 485.837 356.58 485.847 358.3C485.953 376.175 485.913 394.05 485.909 411.926C485.909 412.435 485.867 412.945 485.845 413.427C473.061 419.578 460.375 425.682 447.689 431.786C428.684 440.93 409.68 450.075 390.675 459.22C379.594 464.552 368.617 470.114 357.413 475.173C331 487.099 303.266 493.865 274.336 495.696C271.467 495.878 268.6 496.093 265.732 496.292C261.118 496.292 256.505 496.292 251.891 496.292C251.116 496.2 250.343 496.051 249.566 496.025C235.137 495.531 220.881 493.671 206.784 490.584C183.991 485.594 162.357 477.483 141.912 466.252C118.156 453.201 97.1574 436.619 78.8834 416.601C61.7674 397.853 47.8924 376.937 37.2804 353.882C24.3624 325.818 16.8984 296.361 14.9834 265.512C14.8054 262.644 14.5944 259.778 14.3994 256.911C14.3994 252.193 14.3994 247.474 14.3994 242.756C14.4944 241.983 14.6484 241.212 14.6744 240.437C15.0534 229.324 16.2684 218.303 18.1714 207.349C22.2564 183.839 29.5984 161.39 40.1884 140.019C55.0814 109.965 75.2824 84.0184 100.763 62.1964C118.056 47.3864 137.061 35.2334 157.764 25.7764C184.991 13.3394 213.547 6.11441 243.443 4.26441C246.26 4.09041 249.075 3.88241 251.89 3.69141C256.504 3.69141 261.117 3.69141 265.731 3.69141C266.506 3.78341 267.28 3.89141 268.057 3.96441C277.125 4.82041 286.245 5.31241 295.253 6.59341C320.326 10.1604 344.166 17.8474 366.824 29.1304C393.647 42.4874 417.246 60.1784 437.589 82.1964C455.914 102.031 470.562 124.288 481.559 148.948C483.154 152.52 484.681 156.123 486.239 159.712ZM431.041 215.479C431.078 214.972 431.127 214.612 431.127 214.252C431.131 200.255 431.137 186.258 431.111 172.261C431.11 171.608 430.934 170.902 430.648 170.313C428.686 166.264 426.807 162.166 424.654 158.218C409.009 129.527 387.471 106.283 359.913 88.6974C334.766 72.6504 307.293 63.1454 277.638 60.0214C261.982 58.3714 246.357 58.8064 230.78 61.1634C209.513 64.3814 189.344 70.9724 170.405 81.1264C132.702 101.341 104.867 130.998 86.9334 169.785C72.9594 200.008 67.3954 231.836 69.9874 265.067C71.0824 279.113 73.7514 292.849 77.8694 306.313C78.0434 306.883 78.2694 307.437 78.5084 308.098C99.9214 297.799 121.125 287.6 142.386 277.375C137.723 257.47 137.876 237.768 143.075 218.147C148.289 198.472 157.84 181.172 171.777 166.341C185.686 151.54 202.336 140.941 221.644 134.667C271.835 118.357 321.033 138.3 346.659 168.598C296.493 190.786 246.361 212.96 195.986 235.241C220.87 252.968 245.436 270.468 270.117 288.05C323.772 263.854 377.412 239.664 431.041 215.479Z" fill="#263A4F"/>
</svg>
