<svg width="500" height="501" viewBox="0 0 500 501" fill="none" xmlns="http://www.w3.org/2000/svg">
<g clip-path="url(#clip0_1_6210)">
<path d="M95.6996 272.972C150.1 301.872 206.8 332.072 250.7 355.472L404.4 272.972C348.7 355.672 302.3 424.472 250.6 500.672C198.9 424.672 141.7 340.772 95.6996 272.972ZM101.6 250.172L250.8 170.572L398.1 249.672L250.9 329.372L101.6 250.172ZM250.6 144.972L95.5996 226.572L250 0.671875L404.4 227.072L250.6 144.972Z" fill="#3AB83A"/>
<path d="M250.6 355.472L404.3 272.972C348.7 355.672 250.6 500.672 250.6 500.672V355.472ZM250.8 170.472L398.1 249.572L250.9 329.272L250.8 170.472ZM250.6 144.972L250 0.671875L404.4 227.072L250.6 144.972Z" fill="#0B8311"/>
<path d="M101.6 250.172L250.8 262.372L398.1 249.672L250.9 329.372L101.6 250.172Z" fill="#0B8311"/>
<path d="M250.8 262.372L398.1 249.672L250.9 329.372L250.8 262.372Z" fill="#146714"/>
</g>
<defs>
<clipPath id="clip0_1_6210">
<rect width="500" height="500" fill="white" transform="translate(0 0.671875)"/>
</clipPath>
</defs>
</svg>
