<svg width="500" height="501" viewBox="0 0 500 501" fill="none" xmlns="http://www.w3.org/2000/svg">
<path d="M99 249.472L249 2.17188V185.572L99 249.472Z" fill="url(#paint0_linear_1_6222)"/>
<path d="M398.5 247.572L249 185.572V2.17188L398.5 247.572Z" fill="url(#paint1_linear_1_6222)"/>
<path d="M99 249.472L248.4 336.872L249 185.572L99 249.472Z" fill="url(#paint2_linear_1_6222)"/>
<path d="M398.5 247.572L248.4 336.872L249 185.572L398.5 247.572Z" fill="url(#paint3_linear_1_6222)"/>
<path d="M97.1001 279.172L248.4 498.472V364.872L97.1001 279.172Z" fill="#6C87DC"/>
<path d="M401.5 279.172L248.4 364.872V498.472L401.5 279.172Z" fill="#C8CBF8"/>
<path d="M324.7 298.672L249 192.772L173.1 296.672L165.1 149.872L171.3 149.572L178.3 278.972L249 182.172L319.3 280.372L324.4 153.472L330.6 153.672L324.7 298.672Z" fill="#B0B4E9"/>
<path d="M168.4 157.972C179.004 157.972 187.6 149.376 187.6 138.772C187.6 128.168 179.004 119.572 168.4 119.572C157.796 119.572 149.2 128.168 149.2 138.772C149.2 149.376 157.796 157.972 168.4 157.972Z" fill="url(#paint4_linear_1_6222)"/>
<path d="M178 131.672C177 131.672 176 130.972 175.7 129.972C175.4 129.172 174.8 128.172 172.6 127.772C171.3 127.572 170.4 126.272 170.6 124.872C170.8 123.572 172.1 122.672 173.5 122.872C177.9 123.672 179.7 126.272 180.4 128.372C180.8 129.672 180.1 131.072 178.8 131.472C178.5 131.672 178.2 131.672 178 131.672Z" fill="#DADCF4"/>
<path d="M249.8 204.972C260.404 204.972 269 196.376 269 185.772C269 175.168 260.404 166.572 249.8 166.572C239.196 166.572 230.6 175.168 230.6 185.772C230.6 196.376 239.196 204.972 249.8 204.972Z" fill="url(#paint5_linear_1_6222)"/>
<path d="M259.4 178.672C258.4 178.672 257.4 177.972 257.1 176.972C256.8 176.172 256.2 175.172 254 174.772C252.7 174.572 251.8 173.272 252 171.872C252.2 170.572 253.5 169.672 254.9 169.872C259.3 170.672 261.1 173.272 261.8 175.372C262.2 176.672 261.5 178.072 260.2 178.472C259.9 178.672 259.7 178.672 259.4 178.672Z" fill="#DADCF4"/>
<path d="M176.5 306.873C187.104 306.873 195.7 298.277 195.7 287.673C195.7 277.069 187.104 268.473 176.5 268.473C165.896 268.473 157.3 277.069 157.3 287.673C157.3 298.277 165.896 306.873 176.5 306.873Z" fill="url(#paint6_linear_1_6222)"/>
<path d="M186.1 280.572C185.1 280.572 184.1 279.872 183.8 278.872C183.5 278.072 182.9 277.072 180.7 276.672C179.4 276.472 178.5 275.172 178.7 273.772C178.9 272.472 180.2 271.572 181.6 271.772C186 272.572 187.8 275.172 188.5 277.272C188.9 278.572 188.2 279.972 186.9 280.372C186.6 280.572 186.3 280.572 186.1 280.572Z" fill="#DADCF4"/>
<path d="M321.5 306.572C332.104 306.572 340.7 297.976 340.7 287.372C340.7 276.768 332.104 268.172 321.5 268.172C310.896 268.172 302.3 276.768 302.3 287.372C302.3 297.976 310.896 306.572 321.5 306.572Z" fill="url(#paint7_linear_1_6222)"/>
<path d="M331.1 280.271C330.1 280.271 329.1 279.571 328.8 278.571C328.5 277.771 327.9 276.771 325.7 276.371C324.4 276.171 323.5 274.871 323.7 273.471C323.9 272.171 325.2 271.271 326.6 271.471C331 272.271 332.8 274.871 333.5 276.971C333.9 278.271 333.2 279.671 331.9 280.071C331.6 280.171 331.3 280.271 331.1 280.271Z" fill="#DADCF4"/>
<path d="M329 157.671C339.604 157.671 348.2 149.075 348.2 138.471C348.2 127.868 339.604 119.271 329 119.271C318.396 119.271 309.8 127.868 309.8 138.471C309.8 149.075 318.396 157.671 329 157.671Z" fill="url(#paint8_linear_1_6222)"/>
<path d="M338.5 131.373C337.5 131.373 336.5 130.673 336.2 129.673C335.9 128.873 335.3 127.873 333.1 127.473C331.8 127.273 330.9 125.973 331.1 124.573C331.3 123.273 332.6 122.373 334 122.573C338.4 123.373 340.2 125.973 340.9 128.073C341.3 129.373 340.6 130.773 339.3 131.173C339.1 131.273 338.8 131.373 338.5 131.373Z" fill="#DADCF4"/>
<defs>
<linearGradient id="paint0_linear_1_6222" x1="141.418" y1="273.941" x2="286.003" y2="23.5115" gradientUnits="userSpaceOnUse">
<stop stop-color="#A795F2"/>
<stop offset="0.539" stop-color="#B7D0E1"/>
</linearGradient>
<linearGradient id="paint1_linear_1_6222" x1="212.209" y1="23.4152" x2="355.854" y2="272.215" gradientUnits="userSpaceOnUse">
<stop offset="0.3147" stop-color="#E1EFF3"/>
<stop offset="1" stop-color="#B6DDF5"/>
</linearGradient>
<linearGradient id="paint2_linear_1_6222" x1="158.196" y1="308.664" x2="265.135" y2="201.725" gradientUnits="userSpaceOnUse">
<stop stop-color="#D6CDFB"/>
<stop offset="1" stop-color="#DEE1F9"/>
</linearGradient>
<linearGradient id="paint3_linear_1_6222" x1="225.93" y1="314.429" x2="345.615" y2="194.744" gradientUnits="userSpaceOnUse">
<stop stop-color="#EBF1F1"/>
<stop offset="1" stop-color="#FBFCF7"/>
</linearGradient>
<linearGradient id="paint4_linear_1_6222" x1="154.828" y1="152.333" x2="181.953" y2="125.208" gradientUnits="userSpaceOnUse">
<stop stop-color="#758ED6"/>
<stop offset="1" stop-color="#C6CBF4"/>
</linearGradient>
<linearGradient id="paint5_linear_1_6222" x1="236.25" y1="199.37" x2="263.375" y2="172.245" gradientUnits="userSpaceOnUse">
<stop stop-color="#758ED6"/>
<stop offset="1" stop-color="#C6CBF4"/>
</linearGradient>
<linearGradient id="paint6_linear_1_6222" x1="162.937" y1="301.23" x2="190.062" y2="274.104" gradientUnits="userSpaceOnUse">
<stop stop-color="#758ED6"/>
<stop offset="1" stop-color="#C6CBF4"/>
</linearGradient>
<linearGradient id="paint7_linear_1_6222" x1="307.94" y1="300.904" x2="335.066" y2="273.779" gradientUnits="userSpaceOnUse">
<stop stop-color="#758ED6"/>
<stop offset="1" stop-color="#C6CBF4"/>
</linearGradient>
<linearGradient id="paint8_linear_1_6222" x1="315.401" y1="152.008" x2="342.527" y2="124.883" gradientUnits="userSpaceOnUse">
<stop stop-color="#758ED6"/>
<stop offset="1" stop-color="#C6CBF4"/>
</linearGradient>
</defs>
</svg>
