<svg width="500" height="501" viewBox="0 0 500 501" fill="none" xmlns="http://www.w3.org/2000/svg">
<path d="M336.763 194.146L377.626 225.081L403.423 244.601L374.617 259.318L316.682 288.909L336.556 302.649L364.361 321.869L334.325 337.371L150.046 432.399C180.655 449.273 215.048 458.099 250 458.048C364.531 458.048 457.377 365.202 457.377 250.671C457.45 202.095 440.398 155.048 409.218 117.799L336.763 194.146Z" fill="#091B26"/>
<path d="M163.237 318.013L122.374 287.088L96.5771 267.568L125.383 252.851L183.318 223.252L163.444 209.512L135.639 190.292L165.675 174.79L359.742 74.7052C326.842 54.1252 288.806 43.2382 249.999 43.2932C135.468 43.2932 42.6221 136.139 42.6221 250.67C42.6221 303.915 62.6952 352.465 95.6802 389.187L163.237 318.013Z" fill="#091B26"/>
<path d="M83.043 402.502C46.508 362.382 24.222 309.078 24.222 250.671C24.222 126.177 125.505 24.8943 249.999 24.8943C295.906 24.8443 340.726 38.8703 378.415 65.0803L398.592 54.6773C357.282 23.2783 305.777 4.61133 250 4.61133C114.323 4.61133 3.93994 114.993 3.93994 250.671C3.93994 314.861 28.6571 373.379 69.0601 417.234L83.043 402.502Z" fill="#091B26"/>
<path d="M421.89 104.461C455.472 143.882 475.777 194.947 475.777 250.672C475.777 375.166 374.494 476.449 250 476.449C207.849 476.496 166.538 464.671 130.796 442.328L110.127 452.99C151.186 481.52 200.001 496.786 250 496.732C385.677 496.732 496.06 386.35 496.06 250.672C496.06 189.157 473.373 132.854 435.928 89.6699L421.89 104.461Z" fill="#091B26"/>
<path d="M134.613 270.915L193.564 315.527L60.416 455.807L325.016 319.333L277.219 286.29L365.387 241.246L306.436 196.635L439.584 56.3535L174.984 192.829L222.781 225.872L134.613 270.915Z" fill="#23BEE2"/>
</svg>
