<svg width="500" height="501" viewBox="0 0 500 501" fill="none" xmlns="http://www.w3.org/2000/svg">
<path d="M156.1 173.172L115.5 196.972L158.4 221.072V364.472L199 339.072V198.472L156.1 173.172Z" fill="#383534"/>
<path d="M240.6 173.172L200 196.972L242.9 221.072V364.472L283.6 339.072V198.472L240.6 173.172Z" fill="#383534"/>
<path d="M326.5 173.172L285.8 196.972L328.8 221.072V364.472L369.4 339.072V198.472L326.5 173.172Z" fill="#383534"/>
<path d="M429.2 139.172C435.827 139.172 441.2 133.799 441.2 127.172C441.2 120.544 435.827 115.172 429.2 115.172C422.573 115.172 417.2 120.544 417.2 127.172C417.2 133.799 422.573 139.172 429.2 139.172Z" fill="#FAC83A"/>
<path d="M467.2 260.473C483.492 260.473 496.7 247.265 496.7 230.973C496.7 214.68 483.492 201.473 467.2 201.473C450.908 201.473 437.7 214.68 437.7 230.973C437.7 247.265 450.908 260.473 467.2 260.473Z" fill="#13608A"/>
<path d="M448.7 367.771C461.679 367.771 472.2 357.25 472.2 344.271C472.2 331.293 461.679 320.771 448.7 320.771C435.721 320.771 425.2 331.293 425.2 344.271C425.2 357.25 435.721 367.771 448.7 367.771Z" fill="#1077A6"/>
<path d="M376.1 448.171C387.256 448.171 396.3 439.128 396.3 427.971C396.3 416.815 387.256 407.771 376.1 407.771C364.944 407.771 355.9 416.815 355.9 427.971C355.9 439.128 364.944 448.171 376.1 448.171Z" fill="#228DC1"/>
<path d="M272 482.072C280.284 482.072 287 475.357 287 467.072C287 458.788 280.284 452.072 272 452.072C263.716 452.072 257 458.788 257 467.072C257 475.357 263.716 482.072 272 482.072Z" fill="#29A7D6"/>
<path d="M159.7 456.672C165.223 456.672 169.7 452.195 169.7 446.672C169.7 441.149 165.223 436.672 159.7 436.672C154.177 436.672 149.7 441.149 149.7 446.672C149.7 452.195 154.177 456.672 159.7 456.672Z" fill="#33BDEE"/>
<path d="M72.9998 413.671C92.9925 413.671 109.2 397.464 109.2 377.471C109.2 357.479 92.9925 341.271 72.9998 341.271C53.0071 341.271 36.7998 357.479 36.7998 377.471C36.7998 397.464 53.0071 413.671 72.9998 413.671Z" fill="#E61912"/>
<path d="M34.7998 301.871C52.1968 301.871 66.2998 287.768 66.2998 270.371C66.2998 252.974 52.1968 238.871 34.7998 238.871C17.4028 238.871 3.2998 252.974 3.2998 270.371C3.2998 287.768 17.4028 301.871 34.7998 301.871Z" fill="#E44114"/>
<path d="M55.0999 186.072C70.122 186.072 82.2999 173.894 82.2999 158.872C82.2999 143.85 70.122 131.672 55.0999 131.672C40.0778 131.672 27.8999 143.85 27.8999 158.872C27.8999 173.894 40.0778 186.072 55.0999 186.072Z" fill="#E65A12"/>
<path d="M125.7 97.6719C138.679 97.6719 149.2 87.1506 149.2 74.1719C149.2 61.1932 138.679 50.6719 125.7 50.6719C112.722 50.6719 102.2 61.1932 102.2 74.1719C102.2 87.1506 112.722 97.6719 125.7 97.6719Z" fill="#EE7523"/>
<path d="M231.5 54.2715C242.27 54.2715 251 45.541 251 34.7715C251 24.0019 242.27 15.2715 231.5 15.2715C220.73 15.2715 212 24.0019 212 34.7715C212 45.541 220.73 54.2715 231.5 54.2715Z" fill="#EA8E17"/>
<path d="M345.6 69.1715C353.995 69.1715 360.8 62.3662 360.8 53.9715C360.8 45.5768 353.995 38.7715 345.6 38.7715C337.205 38.7715 330.4 45.5768 330.4 53.9715C330.4 62.3662 337.205 69.1715 345.6 69.1715Z" fill="#EDA717"/>
</svg>
