<svg width="500" height="501" viewBox="0 0 500 501" fill="none" xmlns="http://www.w3.org/2000/svg">
<path d="M250.3 81.8711L420.4 251.971L250.3 422.071L80.2 251.971L250.3 81.8711ZM250.3 71.3711L245.1 76.5711L75 246.671L69.8 251.871L75 257.071L245.1 427.171L250.3 432.371L255.5 427.171L425.6 257.071L430.8 251.871L425.6 246.671L255.6 76.5711L250.3 71.3711Z" fill="#178AFD"/>
<path d="M250.3 18.9719L386.2 251.972L250.3 482.972L115.2 251.972L250.3 18.9719ZM250.3 4.17188L243.9 15.1719L108.8 248.172L106.6 251.872L108.8 255.572L243.9 486.572L250.3 497.472L256.7 486.572L392.6 255.572L394.8 251.872L392.6 248.072L256.7 15.0719L250.3 4.17188Z" fill="#178AFD"/>
<path d="M250.314 192.175L190.493 251.996L250.314 311.817L310.134 251.996L250.314 192.175Z" fill="#178AFD"/>
</svg>
