<svg width="500" height="501" viewBox="0 0 500 501" fill="none" xmlns="http://www.w3.org/2000/svg">
<path fill-rule="evenodd" clip-rule="evenodd" d="M1 250.672C1 113.472 112.3 2.17188 249.5 2.17188C386.7 2.17188 498 113.472 498 250.672C498 387.872 386.7 499.172 249.5 499.172C112.3 499.172 1 387.872 1 250.672Z" fill="url(#paint0_linear_1_6267)"/>
<path d="M161.3 262.071L152.3 274.271C150.2 278.471 153.2 283.471 158 283.471H187.5C196.8 321.971 223.6 348.271 259.6 347.671C285.1 347.671 304.4 334.971 317.2 309.671C318.8 306.471 317.4 302.471 314.1 301.071L300 294.771C296.9 293.371 293.3 294.671 291.8 297.771C285.2 311.271 274.1 319.771 259.6 319.771C246.4 319.771 235.8 313.271 227.7 300.271C224.5 295.171 222 289.571 220.1 283.371H257.8C260.2 283.371 262.4 282.071 263.5 279.871L272.5 267.671C274.6 263.471 271.6 258.471 266.8 258.471H215.8C215.7 255.871 215.6 253.171 215.6 250.471C215.6 247.771 215.6 245.071 215.8 242.471H257.8C260.2 242.471 262.4 241.171 263.5 238.971L272.5 226.771C274.6 222.571 271.6 217.571 266.8 217.571H220C226.8 195.271 241.1 180.671 259.5 180.971C273.5 180.971 284.4 188.671 291.4 201.171C293 203.971 296.5 205.071 299.4 203.771L313.5 197.571C316.9 196.071 318.3 191.971 316.5 188.771C303.5 165.271 284.4 153.371 259.5 153.371C236.7 153.371 218.4 162.471 204.6 180.471C196.5 191.071 190.8 203.471 187.5 217.671H167C164.6 217.671 162.4 218.971 161.3 221.171L152.3 233.371C150.2 237.571 153.2 242.571 158 242.571H184.1C184 245.171 183.9 247.871 183.9 250.571C183.9 253.271 183.9 255.971 184 258.571H167C164.6 258.571 162.4 259.971 161.3 262.071Z" fill="white"/>
<path d="M85.9999 240.173C91.0999 158.473 156.9 92.4726 238.6 87.1726C281.5 84.3726 321.2 98.2726 351.9 122.873C354.9 125.273 359.1 125.173 362 122.573L374 111.873C377.6 108.673 377.5 103.073 373.8 99.9726C338 70.3726 291.5 53.2726 241.1 55.4726C141.1 59.6726 59.6999 140.073 54.3999 240.073C52.0999 283.273 63.9999 323.773 85.6999 357.073C88.2999 361.073 93.8999 361.773 97.4999 358.573L109.5 347.873C112.3 345.373 113 341.073 110.9 337.873C93.1999 309.873 83.6999 276.173 85.9999 240.173Z" fill="white"/>
<path d="M413.3 144.171C410.7 140.171 405.1 139.471 401.5 142.671L389.5 153.371C386.7 155.871 386 160.171 388.1 163.371C405.8 191.371 415.3 225.071 413 261.071C407.9 342.771 342.1 408.771 260.4 414.071C217.5 416.871 177.8 402.971 147.1 378.371C144.1 375.971 139.9 376.071 137 378.671L125 389.371C121.4 392.571 121.5 398.171 125.2 401.271C161 430.871 207.5 447.971 257.9 445.871C357.9 441.671 439.3 361.171 444.6 261.271C446.9 217.971 435.1 177.571 413.3 144.171Z" fill="white"/>
<defs>
<linearGradient id="paint0_linear_1_6267" x1="556.01" y1="557.182" x2="204.575" y2="205.747" gradientUnits="userSpaceOnUse">
<stop stop-color="#8656EF"/>
<stop offset="0.97" stop-color="#1AA3FF"/>
</linearGradient>
</defs>
</svg>
