<svg width="500" height="501" viewBox="0 0 500 501" fill="none" xmlns="http://www.w3.org/2000/svg">
<path d="M195.2 106.772C109.8 139.672 102 223.972 77.5 263.372C52.7 303.172 -3.99999 325.172 3.70001 345.472C11.5 365.772 68.3 343.972 113.2 356.872C157.6 369.672 219.6 427.072 305 394.172C348.5 377.372 380 342.872 394.5 302.072C396.1 297.672 393.1 292.972 388.5 292.572C385.6 292.272 382.9 293.772 381.6 296.372C368.5 322.572 346 344.172 316.6 355.472C268 374.172 214.9 359.472 182.3 322.672C174.9 314.272 168.6 304.772 163.6 294.272C162.2 291.372 160.9 288.472 159.8 285.372C158.6 282.372 157.6 279.272 156.7 276.172C182.4 264.172 212 251.472 245.5 238.472C278.4 225.772 308.4 215.472 335 207.272C353 201.672 369.6 197.072 384.5 193.272C385.6 192.972 386.6 192.772 387.7 192.472C390 191.872 392.3 193.072 393.1 195.272C393.6 196.572 394 197.872 394.5 199.172C397.5 207.572 399.7 216.072 401.1 224.572C401.7 228.272 405.8 230.272 409.1 228.572C421.4 221.972 432.6 215.472 442.6 209.272C479.9 186.172 500.6 166.572 496.4 155.472C492.2 144.372 463.7 143.772 420.6 151.672C406.9 154.172 391.7 157.572 375.3 161.772C372.5 162.472 369.6 163.272 366.7 163.972C352.9 167.672 338.4 171.872 323.2 176.572C295.1 185.372 264.9 195.772 233.7 207.872C204.5 219.072 176.9 230.772 151.5 242.372C151.2 193.072 180.9 146.472 229.4 127.772C258.8 116.472 289.9 117.372 317.1 128.072C319.8 129.172 322.8 128.372 324.8 126.272C327.9 122.872 327 117.372 322.9 115.172C285.1 94.4718 238.7 90.0718 195.2 106.772Z" fill="#ED4E33"/>
</svg>
