<svg width="500" height="501" viewBox="0 0 500 501" fill="none" xmlns="http://www.w3.org/2000/svg">
<path d="M250 7.02344C115.432 7.02344 6.3506 116.105 6.3506 250.673C6.2996 290.301 15.953 329.339 34.4674 364.376L61.9208 336.922L119.23 278.298C131.487 286.226 147.331 285.914 159.266 277.509L184.214 302.457L207.001 279.671L174.526 247.184C174.025 227.353 157.543 211.683 137.713 212.183C118.227 212.675 102.689 228.618 102.7 248.11C102.7 248.957 102.769 249.78 102.826 250.616L49.9784 303.452C20.8952 192.982 86.8716 79.8522 197.341 50.7686C307.811 21.685 420.941 87.6616 450.025 198.131C459.236 233.12 459.109 269.912 449.655 304.836L365.682 220.863L365.499 221.046C365.627 219.822 365.692 218.593 365.693 217.362C365.693 197.033 349.213 180.552 328.883 180.552C308.553 180.552 292.072 197.033 292.072 217.363C292.08 218.989 292.198 220.614 292.427 222.224L110.022 402.959L107.802 405.098L83.975 428.971C129.013 471.043 188.368 494.407 250 494.322C384.567 494.322 493.649 385.24 493.649 250.673C493.649 116.105 384.568 7.02344 250 7.02344ZM250 457.512C209.36 457.572 169.61 445.603 135.759 423.115L313.063 250.558C324.269 255.943 337.443 255.271 348.043 248.774L437.473 338.204C403.463 411.013 330.361 457.535 250 457.512Z" fill="#004DA7"/>
<path d="M329.752 234.898C338.951 234.898 346.407 227.441 346.407 218.243C346.407 209.045 338.951 201.588 329.752 201.588C320.554 201.588 313.097 209.045 313.097 218.243C313.097 227.441 320.554 234.898 329.752 234.898Z" fill="white"/>
<path d="M138.688 264.697C147.886 264.697 155.343 257.24 155.343 248.042C155.343 238.843 147.886 231.387 138.688 231.387C129.489 231.387 122.033 238.843 122.033 248.042C122.033 257.24 129.489 264.697 138.688 264.697Z" fill="white"/>
</svg>
