<svg width="500" height="501" viewBox="0 0 500 501" fill="none" xmlns="http://www.w3.org/2000/svg">
<path d="M250.4 493.971C384.937 493.971 494 384.908 494 250.371C494 115.835 384.937 6.77148 250.4 6.77148C115.863 6.77148 6.80005 115.835 6.80005 250.371C6.80005 384.908 115.863 493.971 250.4 493.971Z" fill="#AF5EFF"/>
<path d="M194.2 385.472C180.9 385.472 167.7 382.072 155.1 375.172C118.3 354.972 94.1 307.872 92 252.272L116.4 241.572C118.4 298.972 138.2 337.172 167.3 353.072C185.7 363.172 205.5 362.672 224.4 351.572L241.9 369.972C226.5 380.172 208.6 385.472 194.2 385.472Z" fill="white"/>
<path d="M306 386.671C237.2 386.671 206.2 309.471 206.2 254.771C206.2 189.871 236.4 182.871 249.4 182.871C270.5 182.871 295.1 201.571 295.1 254.071C295.1 297.271 273 331.071 272.2 332.171L256.2 309.971C256.3 309.771 270 288.971 270 254.071C270 222.371 259.3 207.971 249.4 207.971C238.3 207.971 231.4 225.871 231.4 254.771C231.4 288.271 250.2 361.571 306.1 361.571C364.4 361.571 383.3 281.571 383.3 242.871C383.3 194.271 365.9 170.271 350.6 149.071C349.2 147.171 343.9 140.471 342.6 138.571L367 128.871C368.3 130.671 369.6 132.471 370.9 134.271C386.7 156.071 408.4 185.971 408.4 242.771C408.3 298.371 380.5 386.671 306 386.671Z" fill="white"/>
</svg>
