<svg width="500" height="501" viewBox="0 0 500 501" fill="none" xmlns="http://www.w3.org/2000/svg">
<g clip-path="url(#clip0_1_6285)">
<path d="M252.7 66.9719L411.8 158.872V342.572L252.7 434.472L93.7 342.572V158.872L252.7 66.9719ZM252.7 51.1719C250 51.1719 247.2 51.8719 244.8 53.2719L85.7 145.172C80.8 147.972 77.8 153.172 77.8 158.872V342.572C77.8 348.172 80.8 353.472 85.7 356.272L244.8 448.172C247.2 449.572 250 450.272 252.7 450.272C255.4 450.272 258.2 449.572 260.6 448.172L419.7 356.272C424.6 353.472 427.6 348.272 427.6 342.572V158.872C427.6 153.272 424.6 147.972 419.7 145.172L260.6 53.2719C258.2 51.8719 255.5 51.1719 252.7 51.1719Z" fill="url(#paint0_linear_1_6285)"/>
<path d="M324.4 217.671L317.4 205.971L379 168.871L386.1 180.471L324.4 217.671Z" fill="url(#paint1_linear_1_6285)"/>
<path d="M181 217.671L119.3 180.471L126.4 168.871L188 205.971L181 217.671Z" fill="url(#paint2_linear_1_6285)"/>
<path d="M258.6 335.871H245V398.171H258.6V335.871Z" fill="url(#paint3_linear_1_6285)"/>
<path d="M133.1 181.573V126.473L85.3999 98.9727L37.5999 126.473V181.573L85.3999 209.173L133.1 181.573Z" fill="url(#paint4_linear_1_6285)"/>
<path d="M85.3999 98.9719L133.1 126.572V181.672L85.3999 209.272L37.6999 181.672V126.572L85.3999 98.9719ZM85.3999 92.1719C84.1999 92.1719 82.9999 92.4719 81.9999 93.0719L34.2999 120.672C32.1999 121.872 30.8999 124.172 30.8999 126.572V181.672C30.8999 184.072 32.1999 186.372 34.2999 187.572L81.9999 215.072C83.0999 215.672 84.1999 215.972 85.3999 215.972C86.5999 215.972 87.7999 215.672 88.7999 215.072L136.5 187.472C138.6 186.272 139.9 183.972 139.9 181.572V126.472C139.9 124.072 138.6 121.772 136.5 120.572L88.7999 93.0719C87.6999 92.4719 86.4999 92.1719 85.3999 92.1719Z" fill="white"/>
<path d="M133.1 374.872V319.772L85.3999 292.172L37.5999 319.772V374.872L85.3999 402.372L133.1 374.872Z" fill="url(#paint5_linear_1_6285)"/>
<path d="M85.3999 292.171L133.1 319.771V374.871L85.3999 402.471L37.6999 374.871V319.771L85.3999 292.171ZM85.3999 285.371C84.1999 285.371 82.9999 285.671 81.9999 286.271L34.2999 313.871C32.1999 315.071 30.8999 317.371 30.8999 319.771V374.871C30.8999 377.271 32.1999 379.571 34.2999 380.771L81.9999 408.371C83.0999 408.971 84.1999 409.271 85.3999 409.271C86.5999 409.271 87.7999 408.971 88.7999 408.371L136.5 380.771C138.6 379.571 139.9 377.271 139.9 374.871V319.771C139.9 317.371 138.6 315.071 136.5 313.871L88.7999 286.271C87.6999 285.671 86.4999 285.371 85.3999 285.371Z" fill="white"/>
<path d="M300.5 85.4734V30.3734L252.7 2.77344L205 30.3734V85.4734L252.7 112.973L300.5 85.4734Z" fill="url(#paint6_linear_1_6285)"/>
<path d="M252.7 2.77266L300.4 30.3727V85.4727L252.7 113.073L205 85.4727V30.3727L252.7 2.77266ZM252.7 -4.02734C251.5 -4.02734 250.3 -3.72734 249.3 -3.12734L201.6 24.4727C199.5 25.6727 198.2 27.9727 198.2 30.3727V85.4727C198.2 87.8727 199.5 90.1727 201.6 91.3727L249.3 118.973C250.4 119.573 251.5 119.873 252.7 119.873C253.9 119.873 255.1 119.573 256.1 118.973L303.8 91.3727C305.9 90.1727 307.2 87.8727 307.2 85.4727V30.3727C307.2 27.9727 305.9 25.6727 303.8 24.4727L256.1 -3.12734C255.1 -3.72734 253.9 -4.02734 252.7 -4.02734Z" fill="white"/>
<path d="M300.5 471.073V415.973L252.7 388.373L205 415.973V471.073L252.7 498.573L300.5 471.073Z" fill="url(#paint7_linear_1_6285)"/>
<path d="M252.7 388.372L300.4 415.972V471.072L252.7 498.672L205 471.072V415.972L252.7 388.372ZM252.7 381.572C251.5 381.572 250.3 381.872 249.3 382.472L201.6 410.072C199.5 411.272 198.2 413.572 198.2 415.972V471.072C198.2 473.472 199.5 475.772 201.6 476.972L249.3 504.572C250.4 505.172 251.5 505.472 252.7 505.472C253.9 505.472 255.1 505.172 256.1 504.572L303.8 476.972C305.9 475.772 307.2 473.472 307.2 471.072V415.972C307.2 413.572 305.9 411.272 303.8 410.072L256.1 382.472C255.1 381.872 253.9 381.572 252.7 381.572Z" fill="white"/>
<path d="M335.1 298.272V203.172L252.7 155.672L170.4 203.172V298.272L252.7 345.772L335.1 298.272Z" fill="url(#paint8_linear_1_6285)"/>
<path d="M252.7 155.673L335 203.173V298.273L252.7 345.773L170.4 298.273V203.173L252.7 155.673ZM252.7 147.473C251.3 147.473 249.9 147.873 248.6 148.573L166.3 196.073C163.8 197.573 162.2 200.273 162.2 203.173V298.273C162.2 301.173 163.8 303.873 166.3 305.373L248.6 352.873C249.9 353.573 251.3 353.973 252.7 353.973C254.1 353.973 255.5 353.573 256.8 352.873L339.1 305.373C341.6 303.873 343.2 301.173 343.2 298.273V203.173C343.2 200.273 341.6 197.573 339.1 196.073L256.8 148.573C255.6 147.773 254.2 147.473 252.7 147.473Z" fill="white"/>
<path d="M467.8 182.573V127.473L420.1 99.873L372.4 127.473V182.573L420.1 210.073L467.8 182.573Z" fill="url(#paint9_linear_1_6285)"/>
<path d="M420.1 99.8723L467.8 127.472V182.572L420.1 210.172L372.4 182.572V127.472L420.1 99.8723ZM420.1 93.0723C418.9 93.0723 417.7 93.3723 416.7 93.9723L369 121.472C366.9 122.672 365.6 124.972 365.6 127.372V182.472C365.6 184.872 366.9 187.172 369 188.372L416.7 215.972C417.8 216.572 418.9 216.872 420.1 216.872C421.3 216.872 422.5 216.572 423.5 215.972L471.2 188.372C473.3 187.172 474.6 184.872 474.6 182.472V127.372C474.6 124.972 473.3 122.672 471.2 121.472L423.5 93.8723C422.5 93.3723 421.3 93.0723 420.1 93.0723Z" fill="white"/>
<path d="M467.8 375.772V320.672L420.1 293.172L372.4 320.672V375.772L420.1 403.372L467.8 375.772Z" fill="url(#paint10_linear_1_6285)"/>
<path d="M420.1 293.171L467.8 320.771V375.871L420.1 403.471L372.4 375.871V320.671L420.1 293.171ZM420.1 286.271C418.9 286.271 417.7 286.571 416.7 287.171L369 314.771C366.9 315.971 365.6 318.271 365.6 320.671V375.771C365.6 378.171 366.9 380.471 369 381.671L416.7 409.271C417.8 409.871 418.9 410.171 420.1 410.171C421.3 410.171 422.5 409.871 423.5 409.271L471.2 381.671C473.3 380.471 474.6 378.171 474.6 375.771V320.671C474.6 318.271 473.3 315.971 471.2 314.771L423.5 287.171C422.5 286.671 421.3 286.271 420.1 286.271Z" fill="white"/>
</g>
<defs>
<linearGradient id="paint0_linear_1_6285" x1="252.74" y1="480.452" x2="252.74" y2="17.1113" gradientUnits="userSpaceOnUse">
<stop stop-color="#4D92F5"/>
<stop offset="1" stop-color="#2BE5CF"/>
</linearGradient>
<linearGradient id="paint1_linear_1_6285" x1="351.744" y1="480.451" x2="351.744" y2="17.1105" gradientUnits="userSpaceOnUse">
<stop stop-color="#4D92F5"/>
<stop offset="1" stop-color="#2BE5CF"/>
</linearGradient>
<linearGradient id="paint2_linear_1_6285" x1="153.659" y1="480.451" x2="153.659" y2="17.1105" gradientUnits="userSpaceOnUse">
<stop stop-color="#4D92F5"/>
<stop offset="1" stop-color="#2BE5CF"/>
</linearGradient>
<linearGradient id="paint3_linear_1_6285" x1="251.853" y1="480.451" x2="251.853" y2="17.1105" gradientUnits="userSpaceOnUse">
<stop stop-color="#4D92F5"/>
<stop offset="1" stop-color="#2BE5CF"/>
</linearGradient>
<linearGradient id="paint4_linear_1_6285" x1="85.3664" y1="500.953" x2="85.3664" y2="18.1999" gradientUnits="userSpaceOnUse">
<stop stop-color="#4D92F5"/>
<stop offset="1" stop-color="#2BE5CF"/>
</linearGradient>
<linearGradient id="paint5_linear_1_6285" x1="85.3664" y1="500.953" x2="85.3664" y2="18.1991" gradientUnits="userSpaceOnUse">
<stop stop-color="#4D92F5"/>
<stop offset="1" stop-color="#2BE5CF"/>
</linearGradient>
<linearGradient id="paint6_linear_1_6285" x1="252.74" y1="500.954" x2="252.74" y2="18.2006" gradientUnits="userSpaceOnUse">
<stop stop-color="#4D92F5"/>
<stop offset="1" stop-color="#2BE5CF"/>
</linearGradient>
<linearGradient id="paint7_linear_1_6285" x1="252.74" y1="500.954" x2="252.74" y2="18.2003" gradientUnits="userSpaceOnUse">
<stop stop-color="#4D92F5"/>
<stop offset="1" stop-color="#2BE5CF"/>
</linearGradient>
<linearGradient id="paint8_linear_1_6285" x1="252.74" y1="500.953" x2="252.74" y2="18.1991" gradientUnits="userSpaceOnUse">
<stop stop-color="#4D92F5"/>
<stop offset="1" stop-color="#2BE5CF"/>
</linearGradient>
<linearGradient id="paint9_linear_1_6285" x1="420.114" y1="500.954" x2="420.114" y2="18.2002" gradientUnits="userSpaceOnUse">
<stop stop-color="#4D92F5"/>
<stop offset="1" stop-color="#2BE5CF"/>
</linearGradient>
<linearGradient id="paint10_linear_1_6285" x1="420.114" y1="500.953" x2="420.114" y2="18.199" gradientUnits="userSpaceOnUse">
<stop stop-color="#4D92F5"/>
<stop offset="1" stop-color="#2BE5CF"/>
</linearGradient>
<clipPath id="clip0_1_6285">
<rect width="500" height="500" fill="white" transform="translate(0 0.671875)"/>
</clipPath>
</defs>
</svg>
