<svg width="500" height="501" viewBox="0 0 500 501" fill="none" xmlns="http://www.w3.org/2000/svg">
<path d="M277.59 91.4434H326.408C326.408 91.4434 314.21 93.4974 308.415 98.3704C298.57 106.649 297.159 120.624 297.159 120.624C297.159 120.624 297.159 107.951 291.859 100.346C285.872 91.7584 277.59 91.4434 277.59 91.4434Z" fill="#AA1422"/>
<path d="M327.39 327.43L268.071 328.988C268.071 328.988 281.405 328.002 289.572 319.466C297.286 311.403 297.16 297.461 297.16 297.461C297.16 297.461 297.78 308.449 304.802 316.842C310.048 323.113 316.511 327.076 327.39 327.43Z" fill="#AA1422"/>
<path d="M54.521 411.596H106.141L166.148 329.035H119.13L54.521 411.596Z" fill="#466790"/>
<path d="M444.946 408.457H399.369L335.562 327.432H381.408L444.946 408.457Z" fill="#AA1422"/>
<path d="M246.814 156.691L199.891 157.51L200.201 262.81L246.814 262.93V156.691Z" fill="#AA1422"/>
<path d="M220.081 91.4434H277.59C277.59 91.4434 287.249 92.6584 291.578 99.6534C295.908 106.647 297.159 114.633 297.159 123.213C297.159 131.793 297.159 167.28 297.159 167.28L246.814 156.691V119.867C246.814 119.867 246.814 107.147 238.128 99.3134C230.38 92.3254 220.081 91.4434 220.081 91.4434Z" fill="#466790"/>
<path d="M246.814 262.929L297.159 253.707V298.651C297.159 298.651 298.906 311.807 289.414 320.133C279.922 328.459 272.928 329.034 265.601 329.034C258.274 329.034 221.312 329.034 221.312 329.034C221.312 329.034 234.911 326.663 240.038 320.095C244.705 314.116 246.814 307.809 246.814 303.48C246.814 299.151 246.814 262.929 246.814 262.929Z" fill="#466790"/>
<path d="M464.424 327.43H444.946V408.455L381.407 327.43H327.128C310.645 327.43 297.159 313.944 297.159 297.461V253.707L246.814 262.93V156.69L297.159 167.28V123.213C297.159 106.73 309.925 91.4434 326.408 91.4434L463.735 92.8094C480.218 92.8094 494.394 106.132 494.394 127.311V297.461C494.394 313.944 480.907 327.43 464.424 327.43Z" fill="#F0081D"/>
<path d="M220.174 329.034H119.13L54.5209 411.595L55.1429 329.034H38.0579C23.4059 329.034 4.20093 311.939 4.20093 297.287L5.80893 122.616C5.80893 107.964 21.2319 93.2104 35.8839 93.2104L220.081 91.4414C234.733 91.4414 246.814 105.212 246.814 119.864V156.688L199.891 157.507L200.202 262.807L246.814 262.927V302.393C246.814 317.047 234.826 329.034 220.174 329.034Z" fill="#2C3B4D"/>
</svg>
