<svg width="500" height="501" viewBox="0 0 500 501" fill="none" xmlns="http://www.w3.org/2000/svg">
<mask id="mask0_1_6322" style="mask-type:luminance" maskUnits="userSpaceOnUse" x="2" y="2" width="496" height="497">
<path d="M84.7 2.67188H415.4C461 2.67188 498 39.6719 498 85.3719V416.072C498 461.772 461 498.772 415.3 498.772H84.7C39 498.672 2 461.672 2 415.972V85.3719C2 39.6719 39 2.67188 84.7 2.67188Z" fill="white"/>
</mask>
<g mask="url(#mask0_1_6322)">
<path d="M84.7 2.67188H415.4C461 2.67188 498 39.6719 498 85.3719V416.072C498 461.772 461 498.772 415.3 498.772H84.7C39 498.672 2 461.672 2 415.972V85.3719C2 39.6719 39 2.67188 84.7 2.67188Z" fill="white"/>
<path fill-rule="evenodd" clip-rule="evenodd" d="M224 291.872L182.8 360.372H341.4C360.3 360.372 375.7 375.772 375.7 394.572C375.7 413.372 360.3 428.772 341.4 428.772H197.1C185.5 428.772 175.5 422.972 169.8 412.872C164.1 402.772 164.2 391.272 170.2 381.372L182.9 360.272H137.7C118.8 360.272 103.4 344.872 103.4 326.072C103.4 307.272 118.8 291.872 137.7 291.872H341.6C360.5 291.872 375.9 276.472 375.9 257.672C375.9 238.872 360.5 223.472 341.6 223.472H137.6C118.7 223.472 103.3 208.072 103.3 189.272C103.3 170.472 118.7 155.072 137.6 155.072H341.5C360.4 155.072 375.8 139.672 375.8 120.872C375.8 102.072 360.4 86.6719 341.5 86.6719H197.1C185.5 86.6719 175.5 92.4719 169.8 102.572C164.1 112.672 164.2 124.172 170.2 134.072L182.9 155.172L224.1 223.672L244.7 257.872L224 291.872Z" fill="url(#paint0_linear_1_6322)"/>
<path d="M141.7 360.672L164.4 292.572H223.8L183.6 360.672H141.7Z" fill="url(#paint1_linear_1_6322)"/>
<path d="M141.7 156.371L160.9 222.771H223.8L183.6 156.371H141.7Z" fill="url(#paint2_linear_1_6322)"/>
</g>
<path d="M415.3 498.672H84.7C39.1 498.672 2 461.572 2 415.972V85.3719C2 39.7719 39.1 2.67188 84.7 2.67188H415.4C460.9 2.67188 498 39.7719 498 85.3719V416.072C498 461.572 460.9 498.672 415.3 498.672ZM84.7 33.6719C56.2 33.6719 33 56.8719 33 85.3719V416.072C33 444.572 56.2 467.772 84.7 467.772H415.4C443.9 467.772 467.1 444.572 467.1 416.072V85.3719C467.1 56.8719 443.9 33.6719 415.4 33.6719H84.7Z" fill="url(#paint3_linear_1_6322)"/>
<defs>
<linearGradient id="paint0_linear_1_6322" x1="103.296" y1="257.658" x2="372.009" y2="257.658" gradientUnits="userSpaceOnUse">
<stop stop-color="#B617DD"/>
<stop offset="1" stop-color="#0DB6EA"/>
</linearGradient>
<linearGradient id="paint1_linear_1_6322" x1="172.757" y1="324.35" x2="202.526" y2="331.176" gradientUnits="userSpaceOnUse">
<stop stop-color="#9834E0"/>
<stop offset="1" stop-color="#67278C"/>
</linearGradient>
<linearGradient id="paint2_linear_1_6322" x1="172.783" y1="191.892" x2="202.473" y2="184.906" gradientUnits="userSpaceOnUse">
<stop stop-color="#9834E0"/>
<stop offset="1" stop-color="#67278C"/>
</linearGradient>
<linearGradient id="paint3_linear_1_6322" x1="9.51251" y1="25.6998" x2="489.954" y2="475.145" gradientUnits="userSpaceOnUse">
<stop stop-color="#15AFEA"/>
<stop offset="0.4115" stop-color="#6663E4"/>
<stop offset="1" stop-color="#A924DF"/>
</linearGradient>
</defs>
</svg>
