<svg width="500" height="501" viewBox="0 0 500 501" fill="none" xmlns="http://www.w3.org/2000/svg">
<g clip-path="url(#clip0_1_6336)">
<path d="M250 500.672C388.1 500.672 500 388.772 500 250.672C500 112.572 388.1 0.671875 250 0.671875C111.9 0.671875 0 112.572 0 250.672C0 388.772 111.9 500.672 250 500.672Z" fill="white"/>
<path d="M250 500.672C388.1 500.672 500 388.772 500 250.672C500 112.572 388.1 0.671875 250 0.671875C111.9 0.671875 0 112.572 0 250.672C0 388.772 111.9 500.672 250 500.672Z" fill="url(#paint0_linear_1_6336)"/>
<path d="M299.9 111.771H209.4C187.2 111.771 168.6 118.371 155.4 131.871C142.3 145.171 135.9 163.871 135.9 186.071V320.671C135.9 361.171 169.7 394.571 210.4 394.571H211.5C245.7 394.071 275.1 369.471 282.7 336.971L282.9 336.071H282.6C323.4 336.071 357.1 302.671 357.1 262.171V260.971C357 253.071 355.6 245.271 353.1 237.871L353 237.371L353.1 237.271C366.4 223.471 373.8 205.071 373.9 185.871C374 144.971 340.7 111.771 299.9 111.771Z" fill="black"/>
<path d="M209.4 131.572H299.9C329.8 131.572 354.2 155.872 354.2 185.672C354.2 201.372 347 216.672 334.9 227.072L329.5 231.772L333.2 240.772C335.8 247.072 337.3 254.572 337.3 261.972C337.3 291.472 312.5 316.072 282.6 316.072H265.3L264.5 325.172C262.1 352.672 238.2 374.672 210.4 374.672C180.5 374.672 155.7 350.072 155.7 320.572V186.072C155.7 168.672 160.4 155.072 169.5 145.772C178.7 136.372 192.2 131.572 209.4 131.572Z" fill="#FF00D6"/>
</g>
<defs>
<linearGradient id="paint0_linear_1_6336" x1="125.193" y1="467.338" x2="375.154" y2="33.4033" gradientUnits="userSpaceOnUse">
<stop stop-color="#24FF00"/>
<stop offset="1" stop-color="#F5CDFF" stop-opacity="0.502"/>
</linearGradient>
<clipPath id="clip0_1_6336">
<rect width="500" height="500" fill="white" transform="translate(0 0.671875)"/>
</clipPath>
</defs>
</svg>
