<svg width="500" height="501" viewBox="0 0 500 501" fill="none" xmlns="http://www.w3.org/2000/svg">
<g clip-path="url(#clip0_1_6341)">
<path d="M500 250.672C500 112.572 388.1 0.671875 250 0.671875C111.9 0.671875 0 112.572 0 250.672C0 388.772 111.9 500.672 250 500.672C388.1 500.672 500 388.772 500 250.672Z" fill="white"/>
<path d="M378.4 290.172C379.4 290.972 380.1 291.672 381.1 292.472C381.7 292.972 381.7 292.972 382.3 292.472C382.7 292.072 383.1 291.672 383.5 291.372C385.2 289.872 387.5 289.972 389 291.572C389.6 292.272 390.2 292.972 390.8 293.672C392.2 295.472 392 297.772 390.5 299.372C390.1 299.872 389.6 300.272 389.1 300.672C388.7 300.972 388.7 301.372 389 301.772C389.6 302.672 390.1 303.572 390.7 304.472C391.4 305.672 392 306.872 392.6 308.072C393.1 309.272 393.1 309.272 394.3 308.872C394.8 308.672 395.4 308.472 396 308.372C397.8 307.972 399.6 308.972 400.4 310.772C400.9 311.872 401.2 313.072 401.5 314.272C401.8 315.972 400.8 317.872 399.3 318.672C398.7 318.972 398 319.172 397.4 319.372C396.6 319.672 396.6 319.772 396.7 320.472C397.1 322.972 397.4 325.472 397.4 328.072C397.4 328.672 397.6 328.972 398.2 328.972C398.7 328.972 399.1 329.072 399.6 329.172C401.5 329.372 402.8 330.372 403.3 332.272C403.3 332.472 403.5 335.972 403.3 336.872C402.9 338.972 401.4 340.472 399.3 340.572C398.9 340.572 398.4 340.572 398 340.472C397.2 340.272 396.7 340.672 396.5 341.472C396 343.472 395.4 345.472 394.7 347.372C394.5 347.972 394.6 348.472 395.1 348.772C395.3 348.972 396.2 349.972 396.4 350.372C396.7 351.172 395.3 349.972 395 349.772C394.2 349.272 385 343.872 381.5 341.972C381.7 340.072 382.6 337.572 383 335.672C384.8 325.972 382.9 317.172 377.6 309.172C373.2 302.472 367.2 298.172 359.7 296.072C353.2 294.172 346.7 294.572 340.4 297.072C335.2 299.072 329.4 302.372 326.3 307.572C325.9 307.972 325.8 307.972 325.2 307.672C323.2 306.672 315.5 301.372 312.3 299.372C310.9 297.872 310 295.472 311 293.672C311.7 292.372 312.7 291.372 313.8 290.472C315.3 289.172 317.5 289.172 319.1 290.472C321.1 291.972 321.1 291.972 323 290.372C324 289.572 325.1 288.772 326.2 287.972C327.2 287.272 327.3 286.972 326.8 285.872C325.5 282.772 326.3 280.472 329.2 278.872C330 278.472 330.7 278.072 331.6 277.772C333.8 277.072 335.8 277.872 337 279.972C338.2 282.072 338.2 282.072 340.5 281.572C341.7 281.272 343 281.072 344.2 280.872C345.4 280.672 345.6 280.472 345.7 279.172C345.7 278.572 345.8 277.872 346 277.272C346.3 276.072 346.9 274.972 348.1 274.472C350.4 273.572 352.8 273.372 355.1 274.572C356.5 275.272 357.1 276.572 357.1 278.172C357.1 280.572 357.1 280.572 359.4 280.972C360.9 281.272 362.3 281.572 363.8 281.972C364.9 282.272 365.2 282.172 365.6 280.972C366.7 278.172 369.4 276.672 372.6 278.372C373.5 278.872 374.5 279.172 375.2 279.972C376.8 281.472 376.9 283.772 376.3 285.372C376.2 285.572 376.1 285.872 376 286.072C375.6 287.172 375.5 287.872 375.5 287.872C375.5 287.872 377.4 289.472 378.4 290.172Z" fill="#5F5F5F"/>
<path d="M380.6 341.172C381.5 342.072 393.9 349.272 395 349.972C395.3 349.972 395.6 350.272 395.9 350.372C396.1 350.572 396.3 350.772 396.5 351.072C397.5 352.472 397.5 354.072 396.9 355.672C396.5 356.472 396.1 357.372 395.6 358.072C394.4 359.972 392.3 360.472 390.4 359.472C389.8 359.172 389.3 358.872 388.7 358.472C388.3 358.172 388 358.272 387.7 358.672C386.2 360.772 384.5 362.772 382.7 364.572C382.3 364.972 382.3 365.272 382.6 365.672C383 366.172 383.3 366.672 383.6 367.172C384.9 369.172 384.6 371.572 382.7 373.072C382.1 373.572 381.4 374.072 380.7 374.572C378.9 375.872 376.7 375.472 375.3 373.672C374.9 373.172 374.6 372.672 374.2 372.072C373.9 371.572 373.6 371.472 373.1 371.772C371 373.072 368.8 374.072 366.5 374.872C365.7 375.172 365.7 375.172 365.8 376.072C365.9 376.372 365.9 376.672 366 377.072C366.5 379.772 365.9 381.172 363.7 382.572C363.1 382.872 362.5 382.872 361.9 383.072C360.8 383.372 359.8 383.272 358.7 383.272C358.3 383.072 358 382.872 357.6 382.672C356.6 381.772 356.1 380.572 355.8 379.172C355.4 377.272 355.7 377.572 354 377.672C351.8 377.772 349.6 377.772 347.5 377.672C346.7 377.672 346.7 377.572 346.5 378.472C346.4 378.872 346.3 379.272 346.3 379.672C345.9 382.172 344.1 383.972 341.1 383.372C340.4 383.272 339.6 383.072 338.9 382.772C336.8 382.172 335.7 380.072 336.1 377.872C336.2 377.272 336.3 376.772 336.4 376.172C336.5 375.372 336.5 375.372 335.8 375.072C334.4 374.472 333 373.972 331.7 373.272C330.9 372.872 330.1 372.472 329.3 371.972C328.5 371.572 328.5 371.572 327.9 372.372C327.6 372.772 327.3 373.272 327 373.672C325.6 375.472 323.4 375.872 321.5 374.572C320.8 374.072 320.1 373.572 319.4 372.972C317.7 371.572 317.3 369.172 318.5 367.272C318.8 366.672 319.2 366.172 319.6 365.572C319.9 365.172 319.9 364.872 319.5 364.572C317.6 362.772 315.9 360.772 314.4 358.572C314.1 358.172 313.8 358.172 313.4 358.372C312.9 358.672 312.5 358.972 312 359.272C309.9 360.472 307.6 359.872 306.4 357.672C305.9 356.872 305.4 356.172 305.1 355.272C304.3 353.072 305 351.072 306.9 349.772C307.3 349.472 307.7 349.272 308.1 348.972C308.8 348.472 308.8 348.472 308.5 347.672C307.9 345.972 307.3 344.272 306.8 342.572C306.6 341.772 306.4 341.072 306.2 340.272C306.1 339.672 305.8 339.472 305.3 339.572C304.9 339.672 304.4 339.672 304 339.772C301.4 340.072 299.5 338.472 299.2 335.672C299.1 334.872 299 334.172 299 333.472C298.9 332.372 299.3 331.272 299.9 330.472C300.6 329.672 301.5 329.072 302.5 328.972C303.1 328.872 303.6 328.872 304.2 328.772C304.9 328.672 305 328.672 305 327.772C305 325.972 305.2 324.172 305.4 322.372C305.5 321.572 305.7 320.872 305.7 320.072C305.6 319.572 305.4 319.172 305 318.972C304.7 318.872 304.6 318.872 304.2 318.772C303.4 318.572 302.6 318.172 302 317.572" fill="#414141"/>
<path d="M305.8 320.671C305.9 320.071 305.7 319.271 305.1 319.171C304.6 319.071 303.9 318.771 303.5 318.571C301.7 317.971 300.6 316.471 300.4 314.471C300.2 313.571 300.9 310.871 301.2 309.971C301.9 307.971 303.7 306.871 305.7 307.171C306.1 307.271 306.6 307.371 307 307.471C307.8 307.771 308.4 307.571 308.7 306.771C309.5 304.871 310.8 303.071 311.6 301.171C312.4 299.371 311.8 299.471 312.1 299.571C312.8 300.171 322.4 305.171 325.5 307.671C323.5 309.971 319.1 320.171 318.9 323.571" fill="#414141"/>
<path d="M325.5 307.472C331.7 300.472 336.1 297.472 342.2 295.572C345.9 294.472 349.8 294.072 353.6 294.372C360.1 294.972 365.9 297.272 371 301.472C375.5 305.172 378.8 309.872 381.1 315.372C382.5 318.772 383.2 322.272 383.5 325.972C384 331.272 382.9 337.072 381.2 341.972C380.9 342.272 374.5 337.772 373.9 336.872C373.7 336.372 373.9 335.972 374.1 335.472C374.7 333.072 375.1 330.672 375.1 328.172C374.8 316.172 367 306.372 356.3 303.972C348.4 302.172 340 303.972 332.4 312.172C332.2 312.272 332.1 312.072 330.8 311.072C328.6 309.672 327.5 308.772 326 307.872C325.2 307.572 325.2 307.772 325.5 307.472Z" fill="#414141"/>
<path d="M381.4 341.772C381.2 342.072 381 342.472 380.8 342.872C378.9 347.672 375.9 351.572 372.2 354.872C367.4 359.172 361.8 361.972 355.5 362.772C353.9 362.972 352.4 363.272 350.8 363.172C346.3 363.072 341.9 362.172 337.7 360.272C335 359.072 332.6 357.472 330.3 355.572C326.8 352.572 324 348.972 321.9 344.772C320 340.872 318.9 336.772 318.4 332.372C318 328.672 318.3 324.972 319.1 321.272C320 317.072 321.5 313.272 323.8 309.672C324.1 309.172 325 307.972 325.3 307.672C326.9 308.572 331.3 311.572 332 312.272C332.4 312.872 331.6 313.672 331.4 314.072C330 316.172 328.9 318.372 328.2 320.772C325.7 329.172 326.8 337.072 331.9 344.072C336.1 349.972 341.8 353.172 348.8 353.872C358.7 354.972 368.9 348.972 373.1 338.472C373.3 337.872 373.3 336.972 374.2 336.972C374.9 337.672 380.7 341.372 381.4 341.772Z" fill="#5F5F5F"/>
<path d="M374.3 336.972C373.5 339.072 372.6 341.172 371.4 343.072C367.5 349.072 362.1 352.872 355.3 354.172C348.4 355.472 342 353.872 336.4 349.472C331.4 345.572 328.3 340.372 327.1 334.072C325.7 326.572 327.2 319.672 331.4 313.372C331.6 313.172 331.7 312.872 331.9 312.672C332.1 312.472 334.2 310.072 335.2 309.172C339.7 305.172 344.9 303.172 350.8 302.972C361.9 302.772 371.9 310.672 374.8 322.172C376 326.772 375.9 331.372 374.7 335.972C374.5 336.272 374.4 336.672 374.3 336.972Z" fill="#EDAE50"/>
<path d="M357.6 328.772C357.8 332.672 354.4 335.772 351.1 335.672C347.4 335.672 344.3 332.572 344.4 328.672C344.4 324.872 347.3 321.772 351.2 321.672C354.4 321.772 357.8 324.772 357.6 328.772Z" fill="#414141"/>
<path d="M358 315.671C358.8 315.571 359.4 315.871 359.9 316.471C360.4 316.971 360.9 317.471 361.3 318.071C362.4 319.271 361.7 321.571 360.4 321.971C359.8 322.171 359.3 322.171 358.7 321.771C357.6 320.971 356.6 319.971 355.8 318.971C354.9 317.871 355.4 316.371 356.7 315.871C357.1 315.771 357.5 315.671 358 315.671Z" fill="#FCD38C"/>
<path d="M179.9 382.772C178.1 381.772 177 380.172 176.6 377.972C176.5 377.272 176.3 376.472 176.1 375.772C176 375.272 175.8 375.072 175.2 375.172C171.9 375.472 168.7 375.472 165.4 375.272C165 375.272 164.5 375.172 164.1 375.172C163.7 375.172 163.5 375.272 163.4 375.772C163.2 376.572 163 377.272 162.9 378.072C162.5 380.472 161.3 382.072 159.2 383.072C157.8 383.472 156.5 383.372 155.1 383.072C153.8 382.872 152.6 382.672 151.4 381.972C151 381.672 150.5 381.372 150.1 380.872C148.7 379.372 148.2 377.572 148.5 375.572C148.6 374.772 148.8 374.072 149 373.272C149.3 371.972 149.2 371.972 148.1 371.472C145.4 370.472 142.8 369.272 140.3 367.972C139.7 367.672 139.1 367.372 138.5 366.972C138.1 366.672 137.8 366.772 137.5 367.172C137.1 367.872 136.6 368.472 136.1 369.172C134.2 372.072 130.6 372.972 127.7 370.572C126.9 369.972 126.2 369.372 125.4 368.772C122.7 366.672 122.2 363.172 124.2 360.272C124.7 359.472 125.2 358.772 125.8 357.972C126.1 357.572 126 357.372 125.7 357.072C125.5 356.972 125.4 356.772 125.3 356.672C122.8 354.172 120.5 351.472 118.4 348.572C117.8 347.772 117.8 347.772 116.9 348.272C116.3 348.672 115.7 348.972 115.1 349.372C112 351.272 108.9 350.372 107 347.172C106.7 346.772 106.6 346.572 106.4 346.072C106.1 345.372 105.7 344.772 105.3 343.972C104 340.972 104.9 337.772 107.6 336.072C108.2 335.672 108.9 335.272 109.5 334.872C110.4 334.372 110.4 334.372 110 333.372C108.8 330.372 107.8 327.272 107.1 324.072C107 323.572 106.8 323.072 106.7 322.472C106.6 321.972 106.3 321.772 105.8 321.872C104.9 321.972 104 322.172 103.1 322.172C100.8 322.272 98.8998 321.372 97.6998 319.172C97.1998 318.272 96.9998 317.272 96.8998 316.272C96.7998 315.472 96.6998 314.872 96.5998 314.072C96.3998 310.972 98.0998 307.172 101.7 306.872C102.5 306.772 103.3 306.672 104 306.572C104.9 306.472 104.9 306.472 105 305.572C105.1 302.872 105.3 300.272 105.6 297.672C105.7 296.572 105.9 295.572 106.1 294.472C106.3 293.472 106.3 293.472 105.3 293.072C104.6 292.872 103.9 292.572 103.2 292.372C100.1 291.272 98.5998 288.172 99.3998 284.972C99.6998 283.772 100.1 282.572 100.5 281.372C101.6 278.372 104.5 276.872 107.4 277.772C108.3 278.072 109.2 278.272 110 278.672C110.5 278.872 110.8 278.672 111 278.172C111.5 276.972 112.1 275.772 112.7 274.672C112.9 274.272 113.1 273.972 113.3 273.572C113.9 272.372 114.6 271.272 115.3 270.172C116 269.572 234.1 342.672 233.8 343.572C233.6 343.972 233.4 344.372 233.2 344.872C232.8 345.672 232.4 346.472 231.9 347.172C230.2 350.072 227.1 350.972 224.3 349.372C223.5 348.972 222.8 348.472 222.1 348.072C221.3 347.572 221.3 347.572 220.8 348.272C219.6 349.872 218.4 351.372 217.1 352.872C216 354.172 214.8 355.472 213.5 356.672C212.9 357.272 212.9 357.272 213.4 357.872C213.9 358.572 214.4 359.272 214.9 360.072C216.8 362.872 216.3 366.372 213.7 368.472C212.9 369.172 212 369.772 211.1 370.472C208.4 372.472 205.2 371.872 203.1 369.172C202.6 368.472 202.1 367.672 201.6 366.972C201.1 366.372 201.1 366.272 200.4 366.672C197.6 368.272 194.7 369.672 191.8 370.872C191.4 371.072 191 371.172 190.6 371.372C189.9 371.672 189.8 371.672 190 372.572C190.1 373.372 190.2 374.172 190.5 374.872C191.3 377.672 189.6 381.072 186 382.272C184.9 383.072 181.4 383.472 179.9 382.772Z" fill="#414141"/>
<path d="M234 344.071C231.5 342.571 209.4 328.271 207.9 327.371C207.1 326.971 207.3 326.871 207.8 325.871C209.6 321.771 210.8 317.471 211.4 313.071C211.8 309.871 211.8 306.571 211.5 303.271C211.3 300.171 210.7 297.171 209.9 294.171C208.8 290.371 207.3 286.871 205.3 283.571C203.1 279.771 200.4 276.571 197.4 273.671C195.1 271.371 192.4 269.571 189.6 267.971C185.4 265.571 180.9 263.871 176.1 263.171C173.1 262.671 170.1 262.471 167.2 262.671C160.8 263.071 154.8 264.871 149.2 268.071C144.8 270.671 140.8 274.071 137.5 278.171C136.7 279.171 135.4 281.271 134.6 282.271C134.1 282.871 126.2 277.471 115.4 270.771C115.8 270.071 116.2 269.471 116.6 268.771C116.9 268.371 116.8 268.071 116.5 267.771C115.8 267.171 115.2 266.571 114.5 265.871C112.4 263.871 112 261.171 113.2 258.571C113.5 257.971 114 256.571 114.8 255.571C115.2 255.071 115.6 254.571 116.1 254.171C118.2 251.871 122.2 251.871 124.4 253.971C127 256.471 126.7 255.871 128.9 254.071C130.8 252.571 132.7 251.071 134.7 249.671C135.8 248.971 135.8 248.571 135.3 247.371C134.7 245.971 134.1 244.571 134.3 243.071C134.4 241.171 135.2 239.471 136.7 238.371C138.8 236.871 141.1 235.571 143.9 235.671C146.2 235.771 147.7 236.971 148.9 238.871C149.3 239.571 149.6 240.371 150 241.071C150.3 241.771 150.8 241.971 151.5 241.771C154.4 240.971 157.4 240.371 160.4 239.871C161.5 239.671 161.7 239.371 161.7 238.171C161.7 237.771 161.7 237.371 161.7 236.971C161.5 233.371 164.1 230.371 167.3 230.071C169 229.971 170.8 229.771 172.5 230.171C175 230.671 177.5 233.171 177.3 236.471C177.3 236.971 177.3 237.371 177.3 237.871C177.3 239.271 177.6 239.571 178.9 239.771C181.7 240.171 184.5 240.771 187.2 241.571C188.6 241.971 188.9 241.871 189.5 240.371C190 239.271 190.4 238.171 191.3 237.271C193 235.471 195.1 235.171 197.3 235.671C199 236.071 200.7 236.871 202.1 237.971C204.5 239.671 205.4 242.671 204.4 245.571C204.2 246.171 203.9 246.771 203.7 247.371C203.2 248.471 203.3 248.971 204.3 249.571C206.4 250.971 208.5 252.471 210.5 254.171C212.7 255.971 212.3 256.271 214.6 253.971C216.7 251.971 219.9 251.771 221.8 253.071C223.7 254.471 225.4 256.171 226.5 258.371C227.5 260.271 227.4 263.871 225.4 265.671C224.8 266.171 224.3 266.871 223.7 267.371C223.2 267.871 223.2 268.471 223.5 269.071C225.3 271.771 226.8 274.671 228.2 277.571C228.5 278.271 229.1 278.471 229.8 278.271C230.6 277.971 231.5 277.771 232.4 277.571C234.7 277.171 237.3 278.171 238.5 280.371C239.7 282.471 240.4 284.771 240.4 287.171C240.5 289.871 239.2 291.771 237 292.971C236.3 293.371 235.5 293.671 234.7 293.971C233.9 294.171 233.5 294.771 233.7 295.671C234.3 298.871 234.5 302.171 234.7 305.371C234.7 306.271 235.1 306.671 236 306.771C236.6 306.771 237.2 306.871 237.8 306.971C240.9 307.371 243.1 309.971 243.1 313.271C243.1 313.871 243.1 314.571 243 315.171C242.9 316.171 242.6 317.671 242.3 318.571C241.5 321.371 238.9 322.871 236.2 322.671C235.3 322.571 234.4 322.471 233.6 322.371C232.8 322.271 232.7 322.271 232.5 323.171C231.9 325.671 231.2 328.271 230.4 330.671C230 331.771 229.6 332.971 229.1 334.071C228.9 334.571 229 334.871 229.4 335.171C230.3 335.671 231.1 336.171 232 336.771C234.2 338.271 235.1 340.971 234.3 343.671C234.2 343.771 234.1 343.971 234 344.071Z" fill="#666059"/>
<path d="M144 287.471C145 286.171 146 284.871 147.1 283.671C152.4 277.971 158.8 274.571 166.3 273.671C173 272.871 179.3 274.071 185.1 277.571C194.1 282.871 199.4 290.971 201.1 301.671C202.1 307.871 201.3 313.971 199 319.771C198.9 320.071 198.8 320.471 198.7 320.771C199 321.371 198.7 321.771 198.5 322.271C197.4 324.771 195.9 326.971 194.1 328.971C189.1 334.771 183 338.671 175.6 340.071C165.8 341.871 156.9 339.471 149.2 332.771C143 327.371 139.2 320.371 138 311.871C137.1 305.371 137.8 298.971 140.4 292.871C141 291.371 141.8 289.971 142.5 288.571C143 288.171 143.4 287.671 144 287.471Z" fill="#EDAE50"/>
<path d="M149.7 306.772C149.5 294.672 159.3 285.472 169.7 285.472C179.9 285.372 190.1 293.972 190.1 306.872C190.1 318.872 180.9 327.972 170.1 328.072C158.3 328.272 149.5 318.072 149.7 306.772Z" fill="#45423D"/>
<path d="M189.7 287.071C189.9 288.871 187.7 290.271 186.3 289.271C185.3 288.571 184.4 287.871 183.6 286.971C182.5 285.671 182.7 284.271 184.2 283.371C185.3 282.771 186.4 282.671 187.4 283.571C188.1 284.271 188.8 284.871 189.4 285.771C189.6 286.171 189.8 286.671 189.7 287.071Z" fill="#FCD38C"/>
<path d="M153.7 306.971C153.4 298.271 160.2 289.771 169.9 289.771C179 289.771 186.1 297.471 186 307.071C185.9 316.571 178.5 323.971 169.6 323.871C160.4 323.771 153.5 315.571 153.7 306.971Z" fill="#EDAE50"/>
<path d="M169.8 313.771C166.2 313.771 163.2 310.571 163.2 306.771C163.2 302.971 166 299.871 169.9 299.771C173.4 299.771 176.5 302.771 176.5 306.771C176.4 310.771 173.5 313.771 169.8 313.771Z" fill="#414141"/>
<path d="M177.5 295.271C177.9 295.271 178.3 295.271 178.6 295.571C180 296.571 180.8 297.971 180.7 299.671C180.7 300.571 179.4 301.571 178.6 301.371C177.1 301.071 176 300.271 175.2 298.871C174.5 297.671 174.6 296.671 175.7 295.871C176.1 295.471 176.8 295.271 177.5 295.271Z" fill="#FCD38C"/>
<path d="M144 287.472C142.9 289.272 141.9 290.972 141.1 292.872C139.7 296.072 138.8 299.472 138.5 302.972C138 307.372 138.3 311.872 139.5 316.072C140.7 320.372 142.6 324.272 145.3 327.772C149.3 332.972 154.4 336.572 160.6 338.572C164.1 339.772 167.8 340.272 171.5 339.972C181.2 339.272 189 334.972 195.1 326.972C196.4 325.272 197.5 323.472 198.4 321.472C198.5 321.172 198.7 320.872 198.9 320.672C199.7 321.072 206.3 325.572 207.4 326.372C207.8 326.672 207.6 327.172 207.4 327.472C206.3 329.672 205 331.772 203.6 333.672C200.4 337.972 196.7 341.572 192.3 344.372C188 347.172 183.3 349.072 178.4 350.172C174.6 350.972 170.8 351.172 166.9 350.872C161.8 350.572 156.9 349.172 152.3 346.872C149.1 345.372 146.1 343.372 143.4 341.072C138.1 336.472 133.9 330.872 131.2 324.072C129.5 319.772 128.4 315.172 128 310.472C127.4 303.472 128.4 296.772 130.8 290.272C131.7 287.872 132.8 285.672 134 283.472C134.1 283.272 134.3 283.072 134.4 282.872C135.1 281.772 135.3 281.772 136.4 282.372C138.2 283.472 141.7 285.772 143.5 286.872C143.5 287.172 143.8 287.372 144 287.472Z" fill="#666059"/>
<path d="M200.8 313.872C201.7 309.572 201.8 305.072 201.1 300.672C200.3 296.272 198.8 292.172 196.4 288.472C192.5 283.172 187.7 278.772 182.3 276.072C178.9 274.572 175.3 273.672 171.7 273.572C162 273.172 153.7 276.572 147 283.972C145.9 285.172 144.9 286.372 144 287.672C143.2 287.172 135.9 283.272 134.9 282.272C134.5 281.872 137.7 278.072 139.3 276.272C142.9 272.372 146.9 269.172 151.6 266.772C156 264.372 160.9 263.072 166 262.472C169.9 262.072 173.7 262.172 177.6 262.772C182.6 263.672 187.3 265.672 191.7 268.472C194.7 270.372 197.5 272.572 200 275.272C204.9 280.472 208.4 286.472 210.5 293.472C211.8 297.972 212.4 302.672 212.3 307.372C212.2 314.372 210.6 320.872 208.1 325.972C207.6 326.972 208.1 326.972 206.7 325.972C205 324.672 200.7 321.972 198.9 320.772C198.6 320.772 200 317.372 200.8 313.872Z" fill="#45423D"/>
<path d="M155.8 131.172C155.1 128.672 154.5 126.172 153.9 123.572C153.7 122.872 153.9 122.772 154.6 122.572C191.9 113.072 237.2 120.272 260.4 127.772C264.1 129.172 267.7 130.772 271 132.972C272.4 133.972 273.8 134.972 274.9 136.372C275.2 136.772 275.5 137.172 275.7 137.572C276.3 138.672 276.4 139.672 275.9 140.872C274.7 143.572 273.3 146.172 271.9 148.772C271 150.472 270 152.072 269.1 153.772C268.7 154.572 268.2 155.372 267.6 156.072C267.1 156.572 266.6 156.272 266.1 156.172C263.8 155.672 261.5 155.172 259.3 154.672C259.1 154.672 259 154.672 258.8 154.672C256.4 153.872 253.9 153.772 251.5 153.172C251.2 153.072 250.9 153.272 250.6 153.272C246.6 152.472 242.6 152.072 238.6 151.472C237.2 151.272 235.8 151.372 234.4 150.872C233.9 150.272 233.8 149.572 233.6 148.772C232.6 144.472 231.3 140.272 228.9 136.572C228.5 135.972 228.1 135.472 227.7 134.972C226.5 133.372 225 132.472 223 132.172C217.7 131.472 212.5 130.772 207.2 130.372C198.4 129.572 189.6 129.472 180.8 129.572C176.5 129.672 172.1 129.972 167.8 130.372C164.2 130.672 160.6 131.072 157.1 131.572C156.5 131.572 156.1 131.572 155.8 131.172Z" fill="#EDAE50"/>
<path d="M279.4 206.172C276.9 206.172 274.5 206.072 272 206.172C271.2 206.172 271 205.672 270.9 205.072C270.2 204.872 270.3 204.172 270.1 203.672C269.3 199.572 268.5 195.372 267.7 191.272C265.6 181.172 263.2 171.072 260.2 161.072C259.7 159.372 259.2 157.672 258.7 155.972C258.6 155.472 258.3 154.872 258.7 154.372C258.9 154.172 259.1 154.172 259.4 154.172C262.2 154.672 264.9 155.272 267.6 156.072C269.4 161.372 270.9 166.672 272.2 172.072C274.1 179.372 275.7 186.772 277.2 194.272C277.7 196.972 279.4 206.172 279.4 206.172Z" fill="#45423D"/>
<path d="M155.8 131.172C159.1 130.572 162.3 130.272 165.6 129.972C168 129.772 170.3 129.572 172.7 129.472C179.3 128.972 185.9 128.972 192.5 129.072C197.3 129.172 202.1 129.472 206.9 129.872C210.1 130.172 213.3 130.472 216.4 130.872C219.1 131.172 221.7 131.672 224.4 132.072C225.3 132.172 225.9 132.672 226.5 133.272C228.6 135.272 230.1 137.772 231.3 140.572C232.7 143.772 233.7 147.172 234.3 150.672C234.2 151.172 233.8 151.172 233.4 151.172C231.7 151.072 230 150.972 228.3 150.772C226.8 150.672 225.3 150.572 223.8 150.472C221.4 150.372 219.1 150.072 216.7 150.172C215.8 150.272 214.9 149.972 214 149.972C212.8 149.972 212.4 150.272 211.9 151.472C209.4 158.672 207.3 165.972 205.4 173.272C202.6 184.672 200.4 196.272 198.6 207.872C198.1 210.972 197.7 214.072 197.3 217.272C197.2 217.872 197.1 218.572 196.8 219.072C196.5 219.372 196.1 219.372 195.8 219.272C194.1 218.772 192.4 218.272 190.7 217.772C190.6 217.772 190.4 217.672 190.3 217.572C190.2 217.472 190.1 217.372 190.1 217.272C189.8 216.472 190 215.672 190.1 214.972C191.8 202.372 194 189.872 196.8 177.472C198.8 168.772 201 160.072 203.9 151.572C204.3 150.272 204.1 149.872 202.8 149.872C197.7 149.772 192.7 149.972 187.6 150.272C185.1 150.372 182.5 150.472 180 150.772C179.8 150.772 179.7 150.772 179.5 150.772C176.9 150.772 176.8 150.872 176 153.472C171.1 168.572 167.7 184.072 165.1 199.672C164.3 204.372 163.6 209.072 162.9 213.772C162.8 214.172 162.8 214.672 162.5 214.972C162.3 215.372 161.8 215.472 161.4 215.472C159.3 215.772 157.2 215.972 155.1 216.372C154.6 216.472 154 216.572 154 215.772C154.4 213.272 154.7 210.772 155.1 208.372C156 201.972 157.1 195.472 158.2 189.072C159.7 180.672 161.5 172.372 163.6 164.172C164.6 160.272 165.7 156.372 167 152.572C167.4 151.272 167.4 151.272 166.5 150.272C164.2 148.072 161.8 145.772 159.5 143.572C159.1 143.172 158.8 142.672 158.6 142.072C157.8 138.772 157 135.572 156.1 132.272C155.9 131.872 155.8 131.472 155.8 131.172Z" fill="#45423D"/>
<path d="M155.9 131.172C156 131.472 156.2 131.872 156.1 132.272C155.8 131.872 155.6 131.572 155.9 131.172Z" fill="#A9A9A9"/>
<path d="M209.9 224.671C206 222.471 201.9 220.671 197.7 219.171C197.3 219.071 196.9 218.971 196.6 218.571C197 215.371 197.4 212.271 197.9 209.071C199 201.771 200.3 194.571 201.7 187.271C203.9 176.371 206.6 165.471 210.1 154.971C210.7 153.271 211.2 151.571 211.8 149.871C212.1 148.971 212.1 148.971 213 149.071C217.8 149.171 222.7 149.371 227.5 149.771C229.8 149.971 232.1 150.171 234.4 150.371C238.2 150.771 242 151.271 245.8 151.771C247.4 151.971 249 152.271 250.6 152.571C251.5 152.971 252.1 153.671 252.6 154.571C254.7 157.771 256.4 161.271 257.8 164.871C259.3 168.671 260.6 172.471 261.5 176.471C261.9 178.071 262.4 179.571 262.7 181.171C263.9 186.271 265.2 191.371 266.2 196.571C266.7 199.271 267.2 201.871 267.9 204.571C268.1 205.271 268.4 206.071 267.5 206.571C267.4 206.671 267.3 206.771 267.2 206.871C265.7 207.671 264.7 209.071 263.7 210.471C262 212.771 260.4 215.171 258.7 217.471C258.2 217.671 257.8 217.471 257.5 217.171C255.5 215.671 253.5 214.171 251.5 212.771C250.5 212.071 250.4 211.671 251.1 210.571C252.1 209.071 253.1 207.571 254.1 205.971C254.5 205.371 254.9 204.771 255.2 204.171C255.8 202.971 255.6 201.871 254.7 201.171C253.8 200.471 252.7 200.671 251.9 201.571C250.8 202.871 250 204.271 249.1 205.671C246.2 210.071 243.3 214.471 240.4 218.771C240.1 219.171 239.8 219.571 239.7 220.071C239.3 221.171 239.6 222.271 240.4 222.871C241.3 223.471 242.3 223.371 243.1 222.471C244.2 221.171 245 219.771 245.9 218.371C246.5 217.471 247.1 216.571 247.7 215.771C248.1 215.171 248.6 215.071 249.2 215.471C251.4 216.971 253.5 218.571 255.7 220.171C256.1 220.471 256.4 220.771 256.4 221.271C255.7 222.471 255.1 223.571 254.4 224.771C254.1 225.371 253.7 225.871 253.4 226.471C252 228.871 252 231.371 253.2 233.871C256.4 240.571 259.8 247.071 263.6 253.471C264.1 254.271 264.6 254.971 265.1 255.771C266.4 257.971 268.4 258.871 270.8 258.971C273.1 259.071 275.3 258.771 277.6 258.571C277.5 268.571 274.8 277.671 269.8 286.071C269.1 287.271 268.3 287.771 266.9 287.671C263.2 287.571 259.6 287.671 255.9 287.671C255.2 287.571 255.2 286.871 255.1 286.371C254.7 284.271 254.1 282.171 253.5 280.071C251.2 271.971 247.8 264.371 243.5 257.271C242.1 254.971 240.5 252.771 239.1 250.571C237.7 248.671 236.3 246.971 234.8 245.171C232.1 242.071 229.3 239.171 226.3 236.471C221.9 232.571 217.1 229.171 212.1 226.171C211.1 225.871 210.3 225.571 209.9 224.671Z" fill="#B9E1E1"/>
<path d="M267.3 206.872C267.6 206.272 267.6 205.372 267.4 204.772C266.1 199.472 257 162.472 251.8 154.372C251.2 153.372 251 153.172 250.5 152.672C252.9 152.872 255.3 153.372 257.7 153.772C257.9 153.772 258.1 153.872 258.2 153.972C258.4 154.072 258.5 154.272 258.6 154.372C261.8 164.672 264.6 175.072 266.9 185.672C268.3 192.072 269.8 199.072 270.9 205.572C271.1 206.072 271.2 205.872 269.8 206.072C269.1 206.172 268 206.572 267.3 206.872Z" fill="#DCF9FB"/>
<path d="M190.3 216.971C188.2 216.571 186.1 216.071 184 215.671C181.5 215.271 179 214.871 176.4 214.771C174 214.571 171.6 214.571 169.2 214.571C167.8 214.571 166.5 214.671 165.1 214.571C164.5 214.071 164.6 213.471 164.7 212.871C165.9 204.071 167.2 195.371 168.9 186.671C170.1 180.571 171.5 174.471 173.2 168.571C174.8 162.871 176.7 157.271 179.6 152.171C180 151.371 180.1 150.771 179.6 150.071C179.9 149.971 180.3 149.971 180.6 149.871C188.3 149.471 196 149.071 203.7 149.171C204 149.171 204.4 149.071 204.7 149.271C204.8 149.671 204.6 149.971 204.5 150.271C201.1 160.071 198.5 170.171 196.3 180.271C194.4 188.871 192.9 197.571 191.5 206.271C191.3 209.871 190.8 213.371 190.3 216.971Z" fill="#B9E1E1"/>
<path d="M180.5 149.872C181.9 149.672 181.7 149.772 180.9 151.272C178.7 155.272 176.8 159.472 175.3 163.772C174.5 166.272 173.7 168.872 173 171.472C172.3 174.272 171.5 177.172 170.9 179.972C170.3 182.872 169.7 185.772 169.1 188.672C168.5 191.672 167.9 194.572 167.4 197.672C166.7 202.372 166 206.972 165.3 211.672C165.2 212.672 165 213.572 165 214.572C164.7 214.772 162.3 214.972 162.1 214.572C162.3 212.272 162.7 210.072 163 207.772C163.8 202.172 164.8 196.572 165.8 191.072C168.2 178.272 171.2 165.572 175.2 153.172C175.5 152.372 175.8 151.672 176 150.872C176.1 150.372 176.4 150.272 176.8 150.272C178 150.072 180.4 149.872 180.5 149.872Z" fill="#DCF9FB"/>
<path d="M308 307.673C305.6 307.473 303 305.473 301.1 310.573C299.2 315.573 302 317.573 301.6 317.373C301.4 317.373 301.2 317.373 301 317.373C299.4 317.373 297.8 317.073 296.3 317.073C295.7 316.773 295.9 316.373 296 315.873C296.8 311.873 298 308.073 299.6 304.373C301.7 299.573 304.3 294.973 307.5 290.873C312 285.173 317.3 280.473 323.4 276.773C329.8 272.973 336.6 270.573 343.9 269.573C347.4 269.073 350.9 268.873 354.5 269.173C355.8 269.273 356.9 268.673 357.6 267.573C357.9 267.073 358.2 266.773 358.7 266.573C359.3 266.573 359.8 266.873 360.4 266.973C361.6 267.273 361.8 267.173 362.3 266.073C363.2 264.173 364.1 262.273 365.2 260.573C365.5 260.373 365.7 260.173 365.9 259.873C367.4 257.573 369.2 255.573 371.4 253.973C371.5 253.973 371.5 253.973 371.6 253.973C372.4 253.973 372.6 254.573 372.8 255.273C373.6 257.973 374.6 260.673 375.7 263.273C377.6 267.573 380 271.573 383.1 275.073C383.6 275.573 384.1 276.073 383.9 276.873C382.3 279.773 380.7 282.773 379.1 285.673C378.9 286.073 378.6 286.573 378.4 286.973C378 287.673 377.5 288.373 376.9 289.073C376.8 288.973 376.6 288.873 376.4 288.773C376.3 288.773 376.1 288.573 376 288.473C374.3 287.473 374.6 287.473 375.4 285.673C375.9 284.573 376.2 283.373 375.9 282.173C375.8 281.673 375.5 281.173 375.2 280.773C374.9 280.373 374.5 279.973 374 279.773C372.9 279.173 371.8 278.573 370.6 278.273C368.9 277.873 367.1 278.773 366.3 280.373C366 280.873 365.8 281.473 365.6 282.073C365.2 282.873 365 282.973 364.2 282.773C362.1 282.173 360 281.673 357.8 281.373C357.6 281.373 357.4 281.273 357.2 281.273C356.6 281.173 356.4 280.873 356.4 280.273C356.4 279.673 356.4 279.173 356.4 278.573C356.5 276.373 355.2 274.973 353.3 274.573C351.9 274.273 350.5 274.273 349.1 274.673C347.4 275.073 346.3 276.173 346.1 278.073C346 278.773 345.9 279.473 345.9 280.173C345.9 281.073 345.8 281.173 344.9 281.373C343.8 281.573 342.7 281.773 341.6 281.973C340.5 282.173 339.3 282.473 338.2 282.873C337.5 283.073 337.3 282.973 337 282.273C336.7 281.573 336.5 280.973 336.1 280.373C335.2 278.773 333.5 277.973 331.7 278.473C330.4 278.773 329.3 279.373 328.2 280.073C326.6 281.173 326 283.173 326.7 285.073C326.9 285.673 327.2 286.173 327.4 286.773C327.7 287.473 327.7 287.673 327.1 287.973C325 289.273 323.1 290.873 321.2 292.473C320.6 292.973 320.5 292.973 320 292.473C319.5 291.973 319 291.573 318.5 291.173C317 290.073 315 290.073 313.7 291.273C312.7 292.173 311.8 293.073 311.2 294.173C310.2 295.873 310.4 297.973 311.8 299.373C312.4 299.973 312.4 299.973 313.4 300.673C312 302.173 309.2 306.173 308.4 307.773" fill="#414141"/>
<path d="M289 316.972C283.3 316.972 277.6 316.972 271.9 316.972C262.8 316.972 253.7 316.972 244.6 316.972C242.5 316.972 242.5 316.872 242.8 314.772C243 313.172 243 311.572 242.2 310.172C241.3 308.672 240 307.672 238.3 307.372C237.5 307.272 236.6 307.172 235.8 307.072C234.8 307.072 234.6 306.772 234.6 305.672C234.5 302.172 234.2 298.672 233.6 295.172C233.3 293.772 233.4 293.672 234.7 293.272C235.8 292.972 236.8 292.572 237.7 291.972C240 290.472 240.7 287.972 240.2 285.372C239.9 284.172 239.6 283.072 239.2 281.872C238.2 278.872 235.6 277.372 232.7 277.872C231.7 278.072 230.7 278.372 229.8 278.772C229 279.072 228.9 278.972 228.5 278.172C227 274.772 225.1 271.472 223 268.372C222.6 267.772 222.6 267.572 223.2 267.172C224 266.472 224.7 265.672 225.4 264.972C227.2 263.272 227.2 259.672 226.1 257.872C225.1 256.272 223.8 254.872 222.4 253.672C220.6 252.172 217.5 252.072 215.5 253.972C214.8 254.572 214 255.172 213.4 255.872C213 256.272 212.7 256.372 212.3 255.972C211.3 255.072 210.3 254.172 209.2 253.372C207.6 252.072 205.8 250.872 204.1 249.672C202.6 248.672 202.7 248.872 203.4 247.172C203.7 246.472 204 245.772 204.2 245.072C205.1 242.272 204.3 239.272 201.5 237.772C200.3 237.172 199.1 236.472 197.8 236.072C196 235.572 194.2 235.672 192.6 236.872C191.9 237.372 191.4 238.072 191.1 238.872C190.7 239.772 190.3 240.772 189.9 241.672C189.6 242.372 189.5 242.472 188.8 242.172C186.1 241.272 183.3 240.672 180.4 240.172C179.7 240.072 179.1 239.972 178.4 239.872C177.4 239.772 177.4 239.672 177.3 238.572C177.3 237.672 177.3 236.772 177.3 235.872C177.3 233.372 176.1 231.772 174.1 230.772C173.5 230.472 172.9 230.272 172.2 230.272C170.7 230.172 169.1 230.072 167.6 230.372C164.7 230.872 162.9 233.072 162.8 236.072C162.8 236.872 162.8 237.672 162.8 238.472C162.8 239.672 162.7 239.672 161.6 239.872C158.2 240.472 154.8 241.072 151.5 242.072C150.7 242.272 150.6 242.272 150.3 241.472C150 240.672 149.6 239.872 149.3 239.172C147.9 236.072 144.8 235.072 141.9 236.172C140.8 236.572 139.8 237.072 138.7 237.672C137 238.572 135.9 239.972 135.5 242.072C135.3 243.172 135.4 244.272 135.8 245.272C136.1 246.172 136.5 247.072 136.9 247.872C137.2 248.572 137.2 248.772 136.6 249.172C133.9 250.872 131.4 252.872 128.9 254.972C128.6 255.272 128.3 255.572 128 255.772C127.5 256.272 127.3 256.272 126.8 255.772C126.2 255.272 125.6 254.672 125 254.172C122.9 251.972 119 251.972 117 254.272C116.4 254.972 115.8 255.672 115.2 256.372C114.5 257.172 114.4 257.172 113.6 256.372C113 255.772 111.4 254.372 111.3 254.272C110.3 253.072 110.3 253.072 111.4 251.872C120.1 241.472 131.2 233.572 143.6 228.872C149.8 226.472 156.3 224.972 162.9 224.372C166.9 223.972 171 223.972 175 224.272C180.5 224.572 185.9 225.572 191.2 227.072C195.5 228.272 199.7 229.972 203.8 232.072C206.6 233.472 209.2 234.972 211.8 236.672C215.4 239.072 218.8 241.772 222 244.772C225.1 247.672 227.9 250.772 230.6 254.072C231 254.572 231.3 255.072 231.6 255.572C234.1 258.572 236.1 261.872 238 265.272C241.8 272.072 244.6 279.472 246.3 287.072C246.9 289.772 247.3 292.472 247.8 295.172C248.2 297.572 249.8 298.372 251.9 297.172C254.4 295.772 256 292.272 255.7 289.272C255.6 288.572 255.2 287.872 255.9 287.272C256.4 286.972 257 286.972 257.6 286.972C260.7 286.972 263.7 286.972 266.8 286.972C268.1 286.972 268.9 286.472 269.6 285.372C272.1 281.272 274.1 276.772 275.3 271.972C276.3 268.272 277 264.572 277.3 260.672C277.3 260.272 277.3 259.872 277.3 259.472C277.2 258.972 277.4 258.572 277.8 258.372C278.5 258.372 279.9 258.272 280 258.272C282.5 258.072 282.5 258.072 282.5 260.772C282.5 262.772 282.5 264.872 282.5 266.872C282.5 268.772 283 269.272 284.7 269.772C288.9 270.872 293.1 271.272 297.3 270.972C299.3 270.872 301.2 270.472 303.2 270.372C303.6 270.372 304 270.172 304.4 270.072C305.6 269.572 305.9 269.072 306 267.772C306 265.272 306 262.672 306 260.172C306 259.572 305.9 258.972 306.4 258.572C307.2 257.972 307.9 258.472 308.6 258.772C310.3 259.572 311.6 260.872 312.8 262.272C315 264.972 316.6 267.972 318.1 271.172C318.2 271.372 318.3 271.672 318.3 271.972C318.2 272.672 317.8 272.972 317.3 273.372C313.3 276.072 309.7 279.372 306.4 282.972C302.6 287.072 299.4 291.772 296.8 296.772C293.7 302.572 291.6 308.772 290.3 315.372C289.7 316.072 289.8 316.872 289 316.972Z" fill="#45423D"/>
<path d="M289 316.972C289.3 315.772 289.5 314.572 289.8 313.272C292 303.272 296.3 294.372 302.4 286.472C306.5 281.172 311.3 276.572 316.8 272.872C317.1 272.672 317.5 272.472 317.7 272.072C317.9 271.672 336.5 259.072 357.2 263.072C358.4 263.972 358.6 265.872 357.9 267.472C357.2 269.072 356 269.572 354.1 269.572C352.3 269.572 350.5 269.472 348.7 269.572C345.7 269.772 342.7 270.172 339.7 270.772C331.6 272.572 324.2 276.072 317.6 281.272C309.8 287.372 304 295.172 300 304.472C298.4 308.272 297.1 312.272 296.3 316.272C296.3 316.472 295.6 320.472 295.4 322.172C295.2 323.772 294.5 324.872 293 325.472C290.8 326.272 288.5 324.572 288.5 322.172C288.5 320.972 288.7 319.772 288.9 318.572C288.8 318.172 288.9 317.072 289 316.972Z" fill="#A19D98"/>
<path d="M271.3 308.571C267.6 308.571 263.9 308.571 260.2 308.571C258.5 308.571 257.2 307.671 256.5 306.071C255.8 304.471 256 302.871 257 301.371C257.8 300.271 259 299.771 260.3 299.771C261.2 299.771 262.1 299.771 263 299.771C269.3 299.771 275.5 299.771 281.8 299.771C283 299.771 284.1 299.971 285 300.871C286.3 302.071 286.8 303.971 286.3 305.671C286 306.571 285.5 307.271 284.8 307.771C284.1 308.271 283.3 308.571 282.4 308.571C278.7 308.671 275 308.571 271.3 308.571Z" fill="#FCBE4F"/>
<path d="M154 215.672C154.2 215.872 154.5 215.872 154.8 215.772C157.1 215.272 159.5 214.972 161.8 214.772C162 214.772 161.9 214.772 162.5 214.672C170.7 214.072 181.7 214.472 190.4 216.872C192.3 217.472 194.2 217.872 196.1 218.372C196.3 218.372 205.6 221.972 209.3 224.072C209.6 224.272 209.8 224.472 210 224.672C210.1 226.472 209.6 227.772 208.7 228.972C207.3 230.672 205.5 231.872 203.5 232.572C200.9 231.372 198.3 230.172 195.7 229.172C191 227.472 186.1 226.172 181.2 225.472C176.9 224.872 172.5 224.572 168.2 224.672C163.1 224.772 157.9 225.372 152.9 226.572C137.3 230.272 123.2 238.872 112.5 251.272C112.2 251.672 111.8 252.072 111.5 252.472C110.8 253.272 110.5 253.872 109.9 254.472C109 255.572 108.2 256.672 107.3 257.772C105.3 260.372 101.8 260.472 99.5996 257.772C98.0996 255.972 98.3996 253.172 99.5996 251.372C100.9 249.472 102.3 247.672 103.8 245.972C105.3 244.172 106.8 242.372 108.5 240.672C110.8 238.372 113.2 236.072 115.7 233.972C124.4 226.972 133.9 221.572 144.3 218.272C147.1 217.372 149.9 216.672 152.7 216.072C153.1 216.172 153.6 216.072 154 215.672Z" fill="#EDAE50"/>
<path d="M239.1 250.272C241.6 253.472 243.7 256.972 245.7 260.472C248 264.672 250 268.972 251.6 273.572C253.1 277.772 254.4 281.972 255.3 286.272C255.4 286.772 255.5 287.272 255.6 287.772C255.8 289.072 256.1 290.472 255.8 291.772C255.2 294.572 253.9 296.772 251.3 298.072C249.2 299.072 247.3 298.072 247 295.572C246.1 289.072 244.6 282.772 242.3 276.772C239.6 269.572 236 262.872 231.5 256.772C231.3 256.472 231.1 256.172 230.9 255.872C231.4 254.172 232.4 252.772 233.4 251.372C233.9 250.572 234.8 250.672 235.5 250.472C236.7 250.072 237.9 249.772 239.1 250.272Z" fill="#EDAE50"/>
<path d="M238.6 250.172C233 249.672 231.3 255.472 231.1 255.872C228.7 252.772 226.1 249.772 223.4 247.072C217.8 241.472 211.4 236.772 204.4 233.172C204.1 232.972 203.8 232.872 203.5 232.672C203.8 232.372 206.1 231.872 208 229.072C209.6 226.772 210 225.172 210 224.672C211.8 225.372 213.4 226.572 215.1 227.572C218 229.372 220.7 231.372 223.4 233.472C225.8 235.472 228.1 237.472 230.3 239.672C231.8 241.172 233.2 242.772 234.6 244.372C236.3 246.172 237.9 248.072 239.2 250.172" fill="#FCD38C"/>
<path d="M383.5 276.773C382.9 275.673 382 274.973 381.3 273.973C377.3 268.873 374.5 263.173 372.5 256.973C372.3 256.273 372.1 255.573 371.8 254.873C371.7 254.573 371.6 254.273 371.2 254.273C366.2 249.773 360.1 247.173 354.1 244.473C345.1 240.273 335.7 237.373 326.2 234.873C318.8 232.873 311.2 231.373 303.6 230.073C302.9 229.973 302.2 229.873 301.7 229.173C301.6 228.673 301.6 228.173 301.6 227.673C301.6 221.773 301.6 215.773 301.6 209.873C301.6 209.273 301.4 208.473 302.1 207.973C303.6 208.373 305.1 208.373 306.6 208.573C309.5 208.973 312.3 209.273 315.2 209.773C318.9 210.373 322.6 210.873 326.3 211.673C328.8 212.173 331.4 212.673 333.9 213.273C336.9 213.973 339.8 214.573 342.8 215.373C347.7 216.673 352.6 217.973 357.3 219.773C359.2 220.473 361.1 221.273 363 221.873C365 222.473 366.5 223.773 367.9 225.173C371.1 228.273 374.2 231.373 377.3 234.573C379.3 236.773 381.4 238.873 383.3 241.073C384.1 242.073 385.1 242.973 386 243.873C387.5 245.473 388.9 247.273 390.5 248.873C391.7 250.173 392.5 251.773 392.6 253.673C392.7 256.273 392.6 258.873 392 261.473C390.8 266.173 388.7 270.373 385.8 274.173C385.2 275.073 384.4 275.973 383.5 276.773Z" fill="#EDAE50"/>
<path d="M256.3 221.472L249.3 216.372C249.2 216.272 249.1 216.172 249 216.172C248.6 215.772 248.3 215.972 248.1 216.372C247.7 217.072 247.3 217.672 246.8 218.272C245.8 219.772 244.8 221.372 243.7 222.872C242.9 223.972 241.9 224.372 240.9 223.972C239.3 223.472 238.5 221.572 239.3 219.972C239.6 219.472 239.9 218.972 240.2 218.572C243.8 213.172 247.4 207.772 250.9 202.372C251.1 201.972 251.4 201.672 251.6 201.372C252.5 200.272 254 200.172 255 200.972C255.5 201.372 255.9 201.972 256 202.572C256.1 203.272 256.1 203.872 255.7 204.472C255.4 205.072 255 205.672 254.6 206.272C253.5 207.972 252.4 209.572 251.3 211.272C250.9 211.972 250.8 211.972 251.5 212.372C253.9 214.172 256.3 215.872 258.7 217.672L256.3 221.472Z" fill="#45423E"/>
<path d="M285.3 206.572C285.6 206.772 285.6 207.172 285.6 207.572C285.6 213.872 285.6 220.172 285.6 226.472C285.6 226.672 285.6 226.872 285.5 227.072C285.1 227.572 284.5 227.572 283.9 227.572C281.8 227.572 279.7 227.472 277.6 227.472C271.7 227.372 265.9 227.372 260 227.472C259.6 227.472 259.2 227.472 258.8 227.672C258.6 227.772 258.4 227.972 258.4 228.272C258.4 228.572 258.7 228.672 258.9 228.772C259.1 228.772 259.2 228.872 259.4 228.872C262.3 228.772 265.2 228.972 268.1 228.772C270.9 228.572 273.7 228.672 276.4 228.772C278.8 228.972 281.2 228.972 283.6 229.072C284.2 229.072 284.8 229.072 285.4 229.472C285.7 230.872 286.1 232.372 285.8 233.872C285.8 233.972 285.8 234.172 285.7 234.272C285.3 234.872 284.6 234.872 284 235.072C282.9 235.572 282.3 236.372 282.4 237.672C282.6 243.572 282.1 249.372 282.2 255.272C282.2 255.972 282.2 256.672 282.3 257.272C282.5 258.772 282.1 259.172 280.7 259.372C280.3 259.372 280 259.372 279.6 259.472C278.9 259.472 278.3 259.472 277.6 259.472C275.7 259.772 273.8 259.772 271.8 259.972C268.2 260.272 265.6 258.672 263.8 255.472C261.2 250.972 258.6 246.472 256.3 241.872C255.2 239.772 254.3 237.672 253.1 235.572C251.3 232.272 251.3 229.072 253.4 225.872C254.3 224.472 255 222.972 256.1 221.672C256.7 220.172 257.7 218.972 258.6 217.572C260.6 214.472 262.8 211.372 265.1 208.472C265.8 207.572 266.8 207.072 267.7 206.372C268.9 206.072 273.2 205.972 274.3 205.872C275.5 205.872 276.8 205.872 278 205.872C278.4 205.672 284.1 205.972 285.3 206.572Z" fill="#EDAE50"/>
<path d="M358.6 267.073C358.2 266.873 358 266.573 358 266.073C358.1 264.573 357.2 263.773 356 263.273C354.5 262.673 343 261.573 331.6 265.773C327.6 267.173 323.7 268.873 320.1 271.073C319.4 271.473 318.7 271.773 318.1 272.273C318 272.373 317.8 272.273 317.7 272.273C316.8 270.973 316.2 269.373 315.4 267.973C314.2 265.773 312.8 263.673 311.1 261.873C309.8 260.473 308.3 259.373 306.4 258.973C305.9 258.973 305.8 258.573 305.7 258.173C305.6 257.673 305.6 257.273 305.6 256.773C305.6 253.473 305.5 250.273 305.6 246.973C305.7 243.873 305.3 240.873 305.4 237.773C305.4 236.573 304.9 235.773 303.9 235.373C303.5 235.173 303.1 234.973 302.7 234.773C302.4 234.573 302.1 234.373 302.2 233.973V231.673C302.5 231.173 303 231.273 303.5 231.373C309.2 232.273 314.8 233.373 320.3 234.673C327 236.273 333.7 238.073 340.2 240.273C345.4 242.073 350.6 244.073 355.6 246.573C358 247.773 360.4 248.773 362.6 250.373C363.4 250.973 364.1 251.773 364.7 252.573C366.2 254.473 365.8 256.773 365.7 258.973C365.7 259.673 365.3 260.273 365.3 260.973C364 262.973 362.9 265.173 362 267.473C361.8 267.973 361.6 268.073 361.1 267.973C360.3 267.473 359.4 267.273 358.6 267.073Z" fill="#EDAE50"/>
<path d="M365.3 260.872C365 260.272 365.1 259.672 365.2 259.072C365.4 257.872 365.3 256.572 365.3 255.372C365.3 254.172 364.7 253.172 364 252.272C363.1 251.172 362 250.272 360.8 249.672C355.1 246.572 349.2 244.072 343.1 241.872C338.7 240.272 334.3 238.772 329.8 237.572C324.1 236.072 318.5 234.672 312.7 233.472C309.4 232.772 306.1 232.272 302.8 231.672C302.6 231.672 302.4 231.672 302.2 231.572C302.2 230.772 302.2 229.972 302.2 229.172C304.2 229.372 306.2 229.772 308.2 230.172C310.8 230.672 313.4 231.172 316 231.772C318.7 232.372 321.5 232.972 324.2 233.672C326.3 234.272 328.4 234.772 330.4 235.272C335.5 236.672 340.5 238.272 345.4 240.072C349.4 241.572 353.3 243.372 357.2 245.072C360.9 246.772 364.5 248.672 368 250.872C369 251.472 370 252.272 370.9 253.072C371.2 253.372 371.5 253.672 371.2 254.172C369.9 255.372 368.6 256.572 367.4 257.872C366.7 258.872 366.1 259.872 365.3 260.872Z" fill="#FCD38C"/>
<path d="M285.3 227.073V229.473C278.5 228.873 265.8 228.873 259.4 229.273C258.9 229.273 258.4 229.173 257.9 229.073C257.5 228.973 257 228.473 257 228.173C257 227.573 257.3 227.373 257.7 227.173C258.2 226.873 258.8 226.873 259.4 226.873C265.5 226.873 271.7 226.773 277.8 226.973C280.3 226.973 282.8 226.973 285.3 227.073Z" fill="#FCD38C"/>
<path d="M390.3 255.671C390.3 257.971 389.9 260.071 389.3 262.171C388.2 265.871 386.4 269.171 384.1 272.171C383.6 272.771 383.6 272.771 383.1 272.171C380.9 269.371 379.1 266.371 377.5 263.071C376.3 260.671 375.4 258.071 374.6 255.571C374.3 254.771 374.4 254.671 375.1 254.171C377.8 252.771 380.5 251.671 383.5 251.271C384.9 251.071 386.2 251.071 387.6 250.871C387.7 250.871 387.9 250.871 388 250.871C389.3 250.871 389.5 251.071 390 252.271C390.3 253.471 390.3 254.671 390.3 255.671Z" fill="#FEFEFE"/>
<path d="M302.1 208.472C302.1 215.272 302.2 230.372 302.3 234.572C301.9 235.072 301.4 234.872 301 234.772C296.2 233.272 291.4 233.472 286.6 234.472C286.2 234.572 285.8 234.672 285.5 234.272C285.3 233.972 285.5 200.472 285.5 198.372C285.5 197.472 285.6 196.572 286.1 195.772C286.6 194.772 287.1 193.772 287.6 192.772C287.7 192.672 287.8 192.672 287.9 192.672C293.5 195.172 298.1 198.072 302.3 202.572C302 204.172 302.1 206.372 302.1 208.472Z" fill="#414141"/>
<path d="M287.7 192.272H287.5C287.9 191.272 287.9 190.172 287.9 189.072C287.9 185.872 287.9 182.672 287.9 179.372C287.9 178.172 288.2 177.272 288.9 176.372C292.3 171.872 296.1 167.572 300.1 163.572C302.6 161.072 305.3 158.672 308.3 156.672C308.9 156.772 308.6 157.172 308.5 157.472C306.7 161.672 306.9 166.172 307.5 170.472C307.7 172.372 308.3 174.372 309.8 175.872C309.9 175.972 310 176.072 310 176.272C310 176.372 310 176.572 309.9 176.672C306.4 178.372 303.7 180.972 301.4 184.172C301.1 184.672 300.8 185.172 300.9 185.772C300.7 189.572 300.8 193.472 300.9 199.772C300.9 199.872 300.9 199.872 300.9 199.972C300.4 200.372 300.1 199.972 299.7 199.672C298.3 198.472 297 197.172 295.5 196.072C293.9 194.872 292.2 193.772 290.5 192.872C289.7 192.372 288.8 192.072 287.7 192.272Z" fill="#A19D98"/>
<path d="M310.6 156.271C311.3 156.671 311.6 157.271 311.8 157.971C312.2 159.971 312.5 161.971 312.7 163.971C312.9 167.471 312.5 170.771 311.6 174.171C311.4 174.871 311.2 175.571 310.8 176.071C310.4 176.171 310.2 175.771 310.1 175.471C308.1 171.771 307.7 167.771 308 163.671C308 163.071 308.1 162.571 308.2 161.971C308.2 159.871 309.1 157.771 310.6 156.271Z" fill="#A19D98"/>
<path d="M304.3 234.971C305.4 235.471 305.9 236.171 305.9 237.471C306.1 244.171 306.1 250.971 306.1 257.671C306.1 258.071 306.1 259.871 306.1 260.371C306.1 263.171 306 265.971 306.1 268.771C306.1 269.771 305.7 270.271 304.9 270.671C298.2 272.571 289.4 272.471 283.3 270.471C281.9 270.071 281.6 269.471 281.5 267.971C281.5 265.971 281.5 264.071 281.5 262.071C281.5 261.271 281.5 260.471 281.5 259.571C281.5 258.771 281.7 245.971 281.7 245.571C281.7 242.571 281.7 239.571 281.7 236.571C281.7 235.671 282 235.071 282.9 234.671C292.7 231.471 297.8 232.371 304.3 234.971Z" fill="#A19D98"/>
<path d="M283.6 252.671V238.171C283.6 237.871 283.6 237.671 283.6 237.371C283.6 236.371 283.7 236.271 284.6 235.871C288 234.471 298 233.171 303.4 236.871C304.2 237.371 304.4 237.771 304.4 238.971C304.5 241.471 304.3 260.371 304.3 267.671C304.3 267.771 304.3 267.971 304.3 268.071C304.3 269.071 304.2 269.171 303.2 269.371C297 270.771 290.8 270.571 284.6 268.971C283.7 268.771 283.6 268.671 283.6 267.671C283.6 264.371 283.6 260.971 283.6 257.671C283.7 256.071 283.7 254.371 283.6 252.671Z" fill="#45423D"/>
<path d="M287.5 192.472C287.6 191.572 288.2 191.472 289.2 191.672C290.4 192.072 291.6 192.572 292.7 193.372C295.1 194.872 297.5 196.572 299.5 198.672C300 199.172 300.5 199.572 301 199.972C301.1 200.272 301.2 200.572 301.5 200.772C302.1 201.372 302.2 202.072 302.1 202.972C301 202.772 300.4 202.172 299.7 201.372C297.8 199.172 295.7 197.472 293.4 195.872C292 194.872 289.8 193.872 288.2 193.172C287.7 192.972 287.4 192.972 287.5 192.472Z" fill="#DCF9FB"/>
<path d="M310.6 156.272C311 156.472 311.2 156.572 310.3 157.472C309.1 158.572 308.3 161.372 308.4 166.072C308.5 169.172 308.5 171.872 310.9 176.172C310.7 176.472 310.4 176.772 310.1 176.772C306.1 172.672 306.5 160.072 308.5 156.772C309.2 155.872 309.7 155.772 310.6 156.272Z" fill="#DCF9FB"/>
</g>
<defs>
<clipPath id="clip0_1_6341">
<rect width="500" height="500" fill="white" transform="translate(0 0.671875)"/>
</clipPath>
</defs>
</svg>
