<svg width="500" height="501" viewBox="0 0 500 501" fill="none" xmlns="http://www.w3.org/2000/svg">
<path d="M346.835 148.047H343.698C343.698 147.009 344.736 145.947 344.736 145.947H345.774C346.835 147.01 346.835 148.047 346.835 148.047Z" fill="#EFF3C9"/>
<path d="M232.722 4.663C238.997 4.663 247.374 3.625 253.649 3.625C275.636 3.625 286.116 11.997 281.916 28.745C276.696 48.627 248.421 76.885 211.779 102.004C204.442 105.141 197.127 95.729 199.227 91.532C199.227 90.494 200.265 90.494 200.265 90.494C232.732 68.507 256.797 44.454 262.027 26.645C266.202 9.898 252.612 2.563 228.522 4.658H232.722" fill="#D37D41"/>
<path d="M358.35 28.7456C370.902 35.0206 376.137 45.4926 371.965 61.2006C359.413 108.303 267.276 180.525 166.763 223.429C147.908 231.804 129.081 238.074 112.329 243.314C102.914 244.352 101.852 231.804 106.054 225.527C107.092 223.427 108.155 223.427 109.192 222.39C124.907 218.215 141.658 211.918 159.448 204.603C254.724 163.774 341.624 94.7136 353.134 50.7466C357.309 35.0366 351.033 24.5896 337.418 19.3516C343.693 22.4646 352.07 25.6016 358.345 28.7396" fill="#E8B521"/>
<path d="M489.231 187.836C490.269 193.073 490.269 199.346 488.193 206.683C475.641 252.723 397.117 320.773 301.843 369.95C291.366 374.125 285.091 366.812 287.191 359.477C288.229 356.34 290.328 354.24 292.428 353.202C388.742 302.964 469.366 233.878 481.913 186.799C484.013 178.426 484.013 171.097 481.913 164.812C485.05 173.16 488.188 181.535 489.226 187.832" fill="#417BA4"/>
<path d="M496.569 231.779V240.151C496.569 244.326 496.569 247.486 495.531 252.699C488.194 280.956 453.649 317.586 406.532 353.178C399.195 358.415 395.016 351.078 396.054 345.843C397.092 341.668 400.23 338.508 401.292 337.471C450.511 300.841 486.09 263.174 493.44 233.855C494.478 228.618 495.541 223.383 494.479 218.145L496.579 231.78" fill="#D37D41"/>
<path d="M36.9424 149.106C40.0804 142.831 43.2173 137.596 47.4193 131.319C55.7963 141.791 81.9613 141.791 117.565 130.281C121.74 129.243 121.74 138.653 121.74 138.653" fill="#D37D41"/>
<path d="M121.741 138.635C121.741 143.872 120.703 151.183 75.6843 157.482C63.1323 159.582 45.3174 158.52 36.9424 149.11" fill="#D37D41"/>
<path d="M313.331 11.9975C326.946 17.2345 332.183 26.6445 327.983 41.2925C317.506 81.0675 238.984 142.81 153.145 179.439C85.0984 207.721 32.7423 212.956 19.1523 193.049C21.2523 186.774 23.3274 180.501 25.4274 174.202C37.9794 191.989 86.1614 187.812 147.93 161.654C226.454 127.124 298.7 70.6095 308.115 35.0175C311.252 21.4075 300.531 10.2185 289.016 6.01953" fill="#417BA4"/>
<path d="M22.265 240.471C21.227 243.608 20.165 247.806 18.09 246.746C7.61295 241.531 3.41296 233.161 4.47496 220.589C3.43696 227.924 5.51301 234.199 8.65001 238.376C8.60101 232.005 10.75 224.766 11.787 218.494C13.887 221.631 17.024 223.731 21.202 225.829C24.364 230.004 22.264 240.476 22.264 240.476" fill="#E8B521"/>
<path d="M392.917 48.627L403.394 55.962C411.771 63.297 414.909 73.749 411.771 87.357C398.156 139.696 295.568 220.268 183.539 267.37C76.7453 313.422 -0.737615 311.337 4.49939 266.332C3.46139 273.667 5.53731 280.979 8.67431 286.214C7.63631 279.939 7.63635 272.604 7.63635 266.332C77.7823 340.629 392.913 148.068 396.053 66.436C397.091 51.789 388.716 46.554 384.538 43.416L392.913 48.629" fill="#D37D41"/>
<path d="M14.9522 324.919C13.9142 320.744 12.8521 316.547 13.9141 311.309C12.8521 316.547 13.9152 320.744 14.9522 324.919Z" fill="#417BA4"/>
<path d="M441.075 92.5945C447.35 99.9295 448.412 109.342 445.25 121.89C430.598 177.367 322.747 262.136 203.403 312.363C90.3366 361.565 7.61262 359.465 13.9176 311.325C12.8796 319.697 14.9557 327.035 19.1547 332.245C17.0547 325.97 14.9796 319.697 13.9176 312.363C32.7696 338.52 103.954 332.245 195.055 293.516C311.258 244.314 417.012 160.605 431.662 106.168C434.8 92.5575 432.7 83.1475 425.387 75.8105C430.6 81.0725 435.84 87.3456 441.077 92.5826" fill="#417BA4"/>
<path d="M413.844 229.704C415.944 235.979 413.844 240.176 411.744 243.314C365.687 285.181 297.608 327.046 226.432 357.403C120.681 401.377 41.12 404.505 33.78 366.813C32.742 363.676 30.642 361.576 28.543 358.441C48.433 384.598 121.719 379.361 215.955 338.559C287.139 308.202 355.21 265.3 401.267 224.47C409.667 220.27 412.807 226.545 413.844 229.707" fill="#E8B521"/>
<path d="M148.973 421.227C150.011 423.327 151.073 427.502 146.873 428.562C109.193 434.837 81.9643 431.699 69.3873 418.09C65.2123 412.853 58.9104 405.542 54.7354 400.303C66.2504 414.95 94.5104 419.15 135.359 412.851C142.696 412.851 147.911 419.126 148.974 421.223" fill="#417BA4"/>
<path d="M264.136 425.4C265.174 426.438 265.174 430.637 258.899 433.772C186.653 462.029 130.118 468.302 107.091 452.619C101.854 448.444 94.5387 443.209 89.3037 439.009C111.291 457.856 170.965 451.557 248.452 421.222C259.942 418.085 264.142 425.397 264.142 425.397" fill="#D37D41"/>
<path d="M493.43 295.635C480.878 340.637 391.879 410.759 294.503 452.628C230.631 479.848 179.337 487.158 154.207 477.748C147.932 474.611 139.555 471.473 134.317 468.338C217.898 502.957 471.215 366.96 496.098 277.645" fill="#417BA4"/>
<path d="M478.753 344.83C442.111 420.179 272.511 503.928 205.502 493.449C198.165 492.411 188.75 490.312 182.475 488.212C206.565 495.547 251.584 487.174 306.018 464.13C393.967 426.463 474.578 363.651 487.155 322.846C485.055 329.119 481.893 338.531 478.755 344.833" fill="#E8B521"/>
<path d="M424.322 420.163C424.322 421.201 363.588 465.165 331.146 478.775C303.917 490.285 279.852 496.562 262.037 497.622H235.87C256.797 498.66 287.164 491.347 323.819 476.702C360.461 460.992 426.902 415.57 427.939 415.57C427.939 415.57 425.37 419.127 424.332 420.165" fill="#417BA4"/>
<path d="M36.9417 149.107C34.8417 145.97 33.8047 142.931 33.8047 137.696C33.8047 136.658 33.8047 135.596 34.8427 133.521C37.9797 128.284 42.1796 123.049 45.3196 117.811C44.2816 124.086 44.2817 128.283 47.4197 131.421C43.2187 138.731 40.0817 142.832 36.9417 149.107Z" fill="#D37D41"/>
<path d="M19.1518 193.048C16.0138 188.873 14.9689 183.636 16.0139 177.338C16.0139 175.238 16.0139 174.201 17.0519 172.101C19.0399 165.993 21.4929 160.047 24.3889 154.314C22.2889 161.649 22.6839 169.48 25.8219 174.715C22.6599 182.075 21.1278 187.09 19.1518 193.043" fill="#417BA4"/>
<path d="M8.67457 238.447C5.53757 233.21 3.4375 227.975 4.4745 220.66L6.57447 207.05L8.67457 198.678C6.57457 207.05 7.63653 214.388 11.8115 218.56C11.1695 224.931 8.67457 232.17 8.67457 238.442" fill="#E8B521"/>
<path d="M8.67493 285.451C5.53793 282.314 4.49988 278.88 4.49988 273.647C4.49988 267.372 3.46191 257.937 3.46191 251.66C3.46191 257.935 5.56184 262.132 7.63684 266.307" fill="#D37D41"/>
<path d="M170.96 77.922C169.922 76.86 165.723 71.647 162.583 72.685C154.206 77.922 144.768 82.12 135.354 86.295C106.027 98.843 83.0001 100.942 76.7221 92.563L76.7 92.59C74.627 90.488 75.9591 83.882 76.2531 83.647C77.3151 79.447 80.0081 75.843 83.1461 71.668C79.0351 74.776 62.2932 88.252 62.2112 97.413C61.7762 99.99 62.2111 105.716 63.0581 108.283C70.3951 118.731 99.7741 116.655 136.416 100.948C148.968 96.748 160.481 90.476 170.958 84.201C173.06 82.097 171.998 78.959 170.96 77.922Z" fill="#417BA4"/>
<path d="M19.1521 332.258C17.0521 330.158 16.0142 328.083 14.9772 324.923C12.8772 318.648 10.8021 309.213 8.70215 302.936C9.74015 306.073 11.8391 309.211 13.9391 312.346C15.9901 319.706 17.0521 325.981 19.1521 332.253" fill="#417BA4"/>
<path d="M34.0518 135.501C34.0518 133.401 35.9048 129.547 36.9418 127.474C37.9798 124.336 49.4937 106.554 53.6937 102.354C53.6937 102.354 48.4568 109.689 45.3168 118.064C42.1798 123.301 37.9797 128.536 34.8397 133.774" fill="#D37D41"/>
</svg>
