<svg width="500" height="501" viewBox="0 0 500 501" fill="none" xmlns="http://www.w3.org/2000/svg">
<g clip-path="url(#clip0_1_6420)">
<path d="M250 500.672C388.071 500.672 500 388.743 500 250.672C500 112.601 388.071 0.671875 250 0.671875C111.929 0.671875 0 112.601 0 250.672C0 388.743 111.929 500.672 250 500.672Z" fill="#11182D"/>
<path d="M160.2 187.173C175.995 187.173 188.8 174.368 188.8 158.573C188.8 142.777 175.995 129.973 160.2 129.973C144.404 129.973 131.6 142.777 131.6 158.573C131.6 174.368 144.404 187.173 160.2 187.173Z" fill="white"/>
<path opacity="0.5" d="M280.812 163.153C283.343 147.561 272.755 132.871 257.163 130.34C241.571 127.81 226.881 138.398 224.35 153.99C221.82 169.581 232.408 184.272 248 186.802C263.591 189.333 278.282 178.745 280.812 163.153Z" fill="white"/>
<path opacity="0.9" d="M339.8 187.173C355.596 187.173 368.4 174.368 368.4 158.573C368.4 142.777 355.596 129.973 339.8 129.973C324.005 129.973 311.2 142.777 311.2 158.573C311.2 174.368 324.005 187.173 339.8 187.173Z" fill="white"/>
<path opacity="0.7" d="M165.4 258.372C181.195 258.372 194 245.567 194 229.772C194 213.977 181.195 201.172 165.4 201.172C149.604 201.172 136.8 213.977 136.8 229.772C136.8 245.567 149.604 258.372 165.4 258.372Z" fill="white"/>
<path d="M280.792 234.374C283.322 218.782 272.734 204.091 257.143 201.561C241.551 199.031 226.86 209.619 224.33 225.21C221.799 240.802 232.388 255.493 247.979 258.023C263.571 260.554 278.261 249.965 280.792 234.374Z" fill="white"/>
<path opacity="0.2" d="M339.8 258.372C355.596 258.372 368.4 245.567 368.4 229.772C368.4 213.977 355.596 201.172 339.8 201.172C324.005 201.172 311.2 213.977 311.2 229.772C311.2 245.567 324.005 258.372 339.8 258.372Z" fill="white"/>
<path d="M165.4 329.673C181.195 329.673 194 316.868 194 301.073C194 285.277 181.195 272.473 165.4 272.473C149.604 272.473 136.8 285.277 136.8 301.073C136.8 316.868 149.604 329.673 165.4 329.673Z" fill="white"/>
<path opacity="0.3" d="M252.6 329.673C268.395 329.673 281.2 316.868 281.2 301.073C281.2 285.277 268.395 272.473 252.6 272.473C236.805 272.473 224 285.277 224 301.073C224 316.868 236.805 329.673 252.6 329.673Z" fill="white"/>
<path opacity="0.85" d="M253 400.673C268.796 400.673 281.6 387.868 281.6 372.073C281.6 356.277 268.796 343.473 253 343.473C237.205 343.473 224.4 356.277 224.4 372.073C224.4 387.868 237.205 400.673 253 400.673Z" fill="white"/>
<path d="M339.8 329.673C355.596 329.673 368.4 316.868 368.4 301.073C368.4 285.277 355.596 272.473 339.8 272.473C324.005 272.473 311.2 285.277 311.2 301.073C311.2 316.868 324.005 329.673 339.8 329.673Z" fill="white"/>
</g>
<defs>
<clipPath id="clip0_1_6420">
<rect width="500" height="500" fill="white" transform="translate(0 0.671875)"/>
</clipPath>
</defs>
</svg>
