<svg width="500" height="501" viewBox="0 0 500 501" fill="none" xmlns="http://www.w3.org/2000/svg">
<g clip-path="url(#clip0_1_6432)">
<path d="M250 500.672C388.071 500.672 500 388.743 500 250.672C500 112.601 388.071 0.671875 250 0.671875C111.929 0.671875 0 112.601 0 250.672C0 388.743 111.929 500.672 250 500.672Z" fill="#22996E"/>
<path d="M250 362.072H113.2C94.7001 362.072 83.5001 341.572 93.5001 325.972L171.3 204.572C177 195.572 187 190.172 197.6 190.172H302.4C313 190.172 323 195.572 328.7 204.572L406.5 325.972C416.5 341.572 405.3 362.072 386.8 362.072H250Z" fill="white"/>
<path d="M264 82.7723L296.7 132.772C303.5 143.172 296 156.972 283.6 156.972H217C204.5 156.972 197 142.972 204.1 132.572L238 82.5723C244.2 73.3723 257.9 73.4723 264 82.7723Z" fill="white"/>
</g>
<defs>
<clipPath id="clip0_1_6432">
<rect width="500" height="500" fill="white" transform="translate(0 0.671875)"/>
</clipPath>
</defs>
</svg>
