<svg width="500" height="501" viewBox="0 0 500 501" fill="none" xmlns="http://www.w3.org/2000/svg">
<path d="M492.2 150.071C450.4 150.071 409.5 150.071 369.7 150.071C410.4 109.471 451.6 68.3711 492.2 27.8711C492.2 67.0711 492.2 108.071 492.2 150.071Z" fill="black"/>
<path d="M346.7 4.17188C388.3 4.17188 429.1 4.17188 468.4 4.17188C428 44.2719 386.9 85.2719 346.7 125.172C346.7 87.0719 346.7 46.0719 346.7 4.17188Z" fill="black"/>
<path d="M281 110.871C281 118.471 281 124.571 281 131.371C250.9 131.371 221.2 131.371 190.8 131.371C190.8 95.2715 190.8 59.4715 190.8 22.7715C220.1 22.7715 249.5 22.7715 279.5 22.7715C279.5 29.1715 279.5 35.4715 279.5 42.7715C258.8 42.7715 238.2 42.7715 216.8 42.7715C216.8 50.3715 216.8 56.9715 216.8 64.8715C232.5 64.8715 248.5 64.8715 265.2 64.8715C265.2 72.4715 265.2 78.7715 265.2 86.1715C249.1 86.1715 233.1 86.1715 216.5 86.1715C216.5 94.7715 216.5 102.371 216.5 110.871C238 110.871 259 110.871 281 110.871Z" fill="black"/>
<path d="M442.9 432.771C442.9 418.271 442.9 404.771 442.9 390.471C450.5 390.471 457.4 390.471 464.9 390.471C464.9 426.671 464.9 462.471 464.9 498.971C457.8 498.971 451.1 498.971 442.9 498.971C442.9 484.771 442.9 470.371 442.9 455.471C426.7 455.471 411.9 455.471 396.1 455.471C396.1 470.071 396.1 484.171 396.1 498.871C388.4 498.871 381.8 498.871 374.5 498.871C374.5 462.771 374.5 426.871 374.5 390.371C381.3 390.371 388 390.371 395.6 390.371C395.6 404.271 395.6 418.071 395.6 432.771C411.6 432.771 426.6 432.771 442.9 432.771Z" fill="black"/>
<path d="M33.3004 43.0727C33.3004 51.5727 33.3004 58.9727 33.3004 67.5727C49.6004 67.5727 65.9004 67.5727 82.8004 67.5727C82.8004 74.8727 82.8004 80.8727 82.8004 88.3727C66.3004 88.3727 50.0004 88.3727 32.9004 88.3727C32.9004 103.373 32.9004 116.873 32.9004 131.173C23.6004 131.173 15.1004 131.173 5.40039 131.173C5.40039 112.773 5.40039 94.6727 5.40039 76.5727C5.40039 58.7727 5.40039 40.9727 5.40039 22.4727C36.3004 22.4727 66.4004 22.4727 97.0004 22.4727C97.0004 29.2727 97.0004 35.5727 97.0004 43.0727C75.7004 43.0727 54.7004 43.0727 33.3004 43.0727Z" fill="black"/>
<path d="M463.5 226.772C459.3 230.972 455 235.272 450.8 239.472C429.3 222.772 409.3 221.772 396.1 236.472C383.3 250.872 383.3 271.372 396.2 285.072C409.9 299.672 431.6 298.472 452.5 281.372C456.4 285.472 460.4 289.672 464.2 293.672C454.2 310.972 429.2 319.472 406.3 313.772C383.3 308.072 366 287.372 364.7 264.172C363.4 239.372 378.2 217.172 401.4 209.072C425 200.972 449.9 207.972 463.5 226.772Z" fill="black"/>
<path d="M280.8 205.672C280.8 212.272 280.8 218.672 280.8 226.172C270.3 226.172 259.8 226.172 248 226.172C248 256.272 248 285.372 248 315.072C239.5 315.072 232.2 315.072 223.7 315.072C223.7 285.672 223.7 256.672 223.7 226.872C212.2 226.872 201.9 226.872 190.8 226.872C190.8 219.572 190.8 212.972 190.8 205.772C220.7 205.672 250.5 205.672 280.8 205.672Z" fill="black"/>
</svg>
