<svg width="500" height="501" viewBox="0 0 500 501" fill="none" xmlns="http://www.w3.org/2000/svg">
<path d="M251.534 10.6698L248.134 10.6738L248.266 122.874L251.666 122.87L251.534 10.6698Z" fill="#6868FC"/>
<path d="M362.777 312.685L361.052 315.615L456.367 371.723L458.092 368.792L362.777 312.685Z" fill="#6868FC"/>
<path d="M137.722 312.77L42.4072 368.877L44.132 371.807L139.447 315.7L137.722 312.77Z" fill="#6868FC"/>
<path d="M249.8 252.973C249.4 252.973 248.9 252.873 248.5 252.673L137 188.273C136.2 187.773 135.7 186.973 135.7 186.073C135.7 185.173 136.2 184.373 137 183.873L248.5 119.473C249.3 118.973 250.3 118.973 251 119.473L362.3 184.073C363.1 184.573 363.6 185.373 363.6 186.273C363.6 187.173 363.1 187.973 362.3 188.473L251 252.673C250.6 252.873 250.2 252.973 249.8 252.973ZM143.4 186.073L249.8 247.573L356 186.273L249.8 124.673L143.4 186.073Z" fill="#77E3EF"/>
<path d="M249.8 381.073C249.4 381.073 248.9 380.973 248.5 380.773L137.2 316.873C136.4 316.373 135.9 315.573 135.9 314.673L135.8 186.173C135.8 185.273 136.3 184.473 137.1 183.973C137.9 183.473 138.9 183.473 139.6 183.973L251 248.273C251.8 248.773 252.3 249.573 252.3 250.473V378.573C252.3 379.473 251.8 380.273 251 380.773C250.6 380.873 250.2 381.073 249.8 381.073ZM141 313.173L247.2 374.173V251.873L140.8 190.373L141 313.173Z" fill="#4ACBDC"/>
<path d="M249.8 381.072C249.4 381.072 248.9 380.972 248.5 380.772C247.7 380.272 247.2 379.472 247.2 378.572V250.472C247.2 249.572 247.7 248.772 248.5 248.272L359.8 184.172C360.6 183.672 361.6 183.672 362.3 184.172C363.1 184.672 363.6 185.472 363.6 186.372V314.972C363.6 315.872 363.1 316.772 362.3 317.172L251 380.672C250.6 380.872 250.2 381.072 249.8 381.072ZM252.3 251.872V374.072L358.5 313.372V190.672L252.3 251.872Z" fill="#07ABC5"/>
<path d="M249.8 496.872L36.5 373.672V127.372L249.8 4.17188L463.2 127.372V373.672L249.8 496.872ZM48.3 366.872L249.8 483.172L451.3 366.872V134.172L249.8 17.8719L48.3 134.172V366.872Z" fill="#7C7CFF"/>
<path d="M249.8 257.572L39.8 136.072C37 134.472 36 130.772 37.6 127.972C39.2 125.172 42.9 124.172 45.7 125.772L249.8 243.772L454.6 125.672C457.4 124.072 461.1 124.972 462.7 127.872C464.3 130.672 463.4 134.372 460.5 135.972L249.8 257.572Z" fill="#7C7CFF"/>
<path d="M250.2 495.971C246.9 495.971 244.3 493.271 244.3 490.071V250.771C244.3 247.471 247 244.871 250.2 244.871C253.4 244.871 256.1 247.571 256.1 250.771V490.071C256.1 493.271 253.4 495.971 250.2 495.971Z" fill="#7C7CFF"/>
</svg>
