<svg width="500" height="501" viewBox="0 0 500 501" fill="none" xmlns="http://www.w3.org/2000/svg">
<g clip-path="url(#clip0_1_6454)">
<path d="M376.2 116.272C367.1 126.472 345.7 126.372 336.6 117.172C327.5 107.972 324.4 90.1721 336.6 78.9721C348.8 67.7721 367.1 71.8721 376.2 79.9721C385.4 88.1721 385.4 106.072 376.2 116.272Z" fill="black"/>
<path d="M280.2 43.2725C270.2 55.4725 266.3 62.6725 258.8 82.1725C249 107.473 240.3 135.373 236.7 152.673C233.1 169.973 240.2 184.773 256.4 194.873C273.5 205.573 292 213.873 317 223.273C342 232.673 359.9 245.973 365.6 259.673C371.3 273.373 370 299.673 357.2 324.873C344.4 350.073 326.5 373.473 295.1 396.573C263.7 419.573 242.3 425.073 211.2 432.273C180.2 439.473 190.4 457.173 201.1 460.773C211.8 464.373 235.3 467.973 266.7 466.573C298.1 465.173 329.4 457.173 366.5 438.473C403.6 419.773 440 387.373 459.3 344.173C478.6 300.973 486.3 240.073 463.9 201.573C450.9 179.273 444.3 173.873 440 159.773C435.7 145.673 438.5 134.973 446.4 125.173C451 119.573 461.3 113.873 470.7 107.073C478.1 101.773 487.1 96.3725 493.5 92.0725C499.9 87.7725 502.1 85.4725 497.8 82.5725L497.6 82.4725C493.3 79.5725 484.7 73.7725 469.9 68.2725C454.9 62.6725 452.1 61.8725 446.4 61.4725C440.7 60.9725 433.6 66.0725 422.2 74.6725C410.8 83.2725 405.8 84.9725 405.1 94.8725C404.4 104.673 401.5 117.173 393.7 127.973C385.9 138.773 375.3 144.273 361.3 145.673C347.2 147.073 328.2 142.773 318.8 131.673C309.4 120.573 305.7 114.273 305.7 98.5725C305.7 82.8725 311.7 71.7725 319.8 63.8725C327.8 55.9725 327.5 53.0725 327.5 49.4725C327.5 45.8725 325.6 33.6725 324.1 27.8725C322.5 22.1725 316.9 21.2725 307.8 24.2725C298 27.5725 290.2 31.0725 280.2 43.2725Z" fill="black"/>
<path d="M138.8 343.772C134.2 344.972 130.9 352.872 121.9 368.772C112.8 384.672 104.3 396.172 88.1 413.872C71.9 431.572 61.7 438.872 35.8 454.772L35.1 455.172C9.8 470.772 2.4 475.272 0.599996 479.972C-1.2 484.672 -0.100004 490.972 18.9 493.872C37.9 496.772 53.7 497.472 81.2 478.572C108.6 459.672 130.2 441.372 158.6 427.972C187 414.572 195.9 415.372 227.8 405.972C259.6 396.572 288.7 378.172 308.7 355.772C328.7 333.372 338.7 310.872 342.8 298.072C346.9 285.272 347.4 268.172 336.6 259.672C326.2 251.472 320.7 249.072 297.8 240.472C273.5 231.372 265.4 229.072 247.5 214.872C230.6 201.472 231.6 198.272 221 196.872C210.4 195.472 202.4 211.272 198.8 219.272C196.1 225.272 195.6 235.772 202.8 245.672C209.9 255.572 216.6 266.572 236.1 277.572C255.6 288.672 264.7 290.472 278 292.672C291.3 294.872 296.5 298.072 292.9 304.372C289.3 310.672 282.2 313.772 270 313.772C257.8 313.772 240.7 308.172 223.5 298.072C211.4 290.972 202.8 282.872 196.4 274.972C190.3 267.272 186.6 266.172 180.9 266.172C175.2 266.172 170.5 269.772 163.7 279.872C156.9 289.972 151.9 300.972 151.2 306.872C150.5 312.772 149.8 319.372 160.6 327.372C171.3 335.272 180.6 339.672 192.8 341.772C205 343.972 214.2 347.772 205.3 355.872C196.4 363.972 185.6 362.172 177 360.072C168.4 357.872 156 351.172 151.2 348.172C146.5 344.972 143.4 342.572 138.8 343.772Z" fill="black"/>
<path d="M408.4 58.7719C414.9 54.7719 422 49.4719 422 45.7719C422 42.0719 418.4 37.6719 403.1 28.0719C387.9 18.4719 366.8 7.57188 353 5.97188C339.2 4.37188 345.2 26.2719 346.8 34.9719C348.4 43.6719 348.9 50.3719 354.6 51.0719C360.3 51.7719 364.6 52.4719 369.7 53.8719C374.7 55.2719 381.2 58.2719 388.3 62.4719C395.5 66.6719 402 62.7719 408.4 58.7719Z" fill="black"/>
</g>
<defs>
<clipPath id="clip0_1_6454">
<rect width="500" height="500" fill="white" transform="translate(0 0.671875)"/>
</clipPath>
</defs>
</svg>
