<svg width="500" height="501" viewBox="0 0 500 501" fill="none" xmlns="http://www.w3.org/2000/svg">
<g clip-path="url(#clip0_1_6460)">
<path d="M250 500.672C388.071 500.672 500 388.743 500 250.672C500 112.601 388.071 0.671875 250 0.671875C111.929 0.671875 0 112.601 0 250.672C0 388.743 111.929 500.672 250 500.672Z" fill="#0090FF"/>
<path fill-rule="evenodd" clip-rule="evenodd" d="M273.75 220.672L266.25 260.672L337.5 270.672L332.5 289.422L262.5 279.422C257.5 295.672 255 313.172 248.75 328.172C242.5 345.672 236.25 363.172 228.75 379.422C218.75 400.672 201.25 415.672 177.5 419.422C163.75 421.922 148.75 420.672 137.5 411.922C133.75 409.422 130 404.422 130 400.672C130 395.672 132.5 389.422 136.25 386.922C138.75 385.672 145 386.922 148.75 388.172C152.5 391.922 156.25 396.922 158.75 401.922C166.25 411.922 176.25 413.172 186.25 405.672C197.5 395.672 203.75 381.922 207.5 368.172C215 338.172 222.5 309.422 228.75 279.422V274.422L162.5 264.422L165 245.672L233.75 255.672L242.5 216.922L171.25 205.672L173.75 185.672L247.5 195.672C250 188.172 251.25 181.922 253.75 175.672C260 153.172 266.25 130.672 281.25 110.672C296.25 90.6718 313.75 78.1718 340 79.4218C351.25 79.4218 362.5 83.1718 370 91.9218C371.25 93.1718 373.75 95.6718 373.75 98.1718C373.75 103.172 373.75 109.422 370 113.172C365 116.922 358.75 115.672 353.75 110.672C350 106.922 347.5 103.172 343.75 99.4218C336.25 89.4218 325 88.1718 316.25 96.9218C310 103.172 303.75 111.922 300 120.672C291.25 146.922 285 174.422 276.25 201.922L345 211.922L340 230.672L273.75 220.672Z" fill="white"/>
</g>
<defs>
<clipPath id="clip0_1_6460">
<rect width="500" height="500" fill="white" transform="translate(0 0.671875)"/>
</clipPath>
</defs>
</svg>
