<svg width="500" height="501" viewBox="0 0 500 501" fill="none" xmlns="http://www.w3.org/2000/svg">
<g clip-path="url(#clip0_1_6463)">
<path d="M349.3 121.371H251H172.7V170.071V399.271H251V170.071H349.3V121.371Z" fill="#00A3E0"/>
<path d="M314.309 224.702L264.812 274.199L314.309 323.696L363.806 274.199L314.309 224.702Z" fill="white"/>
<path d="M249.5 500.672C111.4 500.672 -0.5 388.772 -0.5 250.672C-0.5 112.572 111.4 0.671875 249.5 0.671875C387.6 0.671875 499.5 112.572 499.5 250.672C499.4 388.672 387.5 500.572 249.5 500.672ZM249.5 37.6719C131.9 37.6719 36.5 133.072 36.5 250.672C36.5 368.272 131.9 463.672 249.5 463.672C367.1 463.672 462.5 368.272 462.5 250.672C462.4 133.072 367.1 37.7719 249.5 37.6719Z" fill="#6363FF"/>
</g>
<defs>
<clipPath id="clip0_1_6463">
<rect width="500" height="500" fill="white" transform="translate(0 0.671875)"/>
</clipPath>
</defs>
</svg>
