<svg width="500" height="501" viewBox="0 0 500 501" fill="none" xmlns="http://www.w3.org/2000/svg">
<g clip-path="url(#clip0_1_6467)">
<path fill-rule="evenodd" clip-rule="evenodd" d="M250 0.671875C388.1 0.671875 500 112.572 500 250.672C500 388.772 388.1 500.672 250 500.672C111.9 500.672 0 388.772 0 250.672C0 112.572 111.9 0.671875 250 0.671875Z" fill="url(#paint0_linear_1_6467)" stroke="#00F3AB" stroke-opacity="0.2"/>
<path fill-rule="evenodd" clip-rule="evenodd" d="M265.8 321.573C277.2 322.173 288 323.573 298.4 325.673L306.9 352.173L307.4 327.673L311.3 328.673C321.6 332.473 331.9 334.773 342.2 335.773L331.2 388.873H287L265.8 321.573ZM229.9 321.873L209.8 388.773H167.1L156.6 336.073C168.3 335.673 179 333.173 188.6 328.673C190.1 328.273 191.7 327.873 193.3 327.473L194.7 352.173L202 325.573C210.9 323.873 220.2 322.573 229.9 321.873ZM151 112.473L191 297.173C190.2 297.573 189.4 298.073 188.6 298.573C177.1 303.573 165.2 306.073 152.8 306.073C152.1 306.073 151.3 306.073 150.6 306.073L111.9 112.473H151ZM343.1 112.473L388.2 114.673L348.5 306.073C337.5 305.573 325.2 303.073 311.4 298.673C311.1 298.473 310.8 298.373 310.6 298.173L343.1 112.473ZM260.5 206.273L286.5 288.173C276.5 285.473 265.7 283.873 254.1 283.573L247.5 259.373L241 283.773C230.9 284.373 221.4 285.873 212.7 288.373L237 206.273H260.5Z" fill="url(#paint1_linear_1_6467)"/>
</g>
<defs>
<linearGradient id="paint0_linear_1_6467" x1="48.354" y1="4.03957" x2="457.15" y2="504.036" gradientUnits="userSpaceOnUse">
<stop stop-color="#0093ED"/>
<stop offset="1" stop-color="#00F3AB"/>
</linearGradient>
<linearGradient id="paint1_linear_1_6467" x1="333.221" y1="345.013" x2="180.727" y2="89.2538" gradientUnits="userSpaceOnUse">
<stop stop-color="#000A17"/>
<stop offset="1" stop-color="#00554F"/>
</linearGradient>
<clipPath id="clip0_1_6467">
<rect width="500" height="500" fill="white" transform="translate(0 0.671875)"/>
</clipPath>
</defs>
</svg>
