<svg width="500" height="501" viewBox="0 0 500 501" fill="none" xmlns="http://www.w3.org/2000/svg">
<g clip-path="url(#clip0_1_6470)">
<path d="M250 500.672C388.071 500.672 500 388.743 500 250.672C500 112.601 388.071 0.671875 250 0.671875C111.929 0.671875 0 112.601 0 250.672C0 388.743 111.929 500.672 250 500.672Z" fill="black"/>
<path d="M73.2 73.8719C-24.4 171.472 -24.4 329.772 73.2 427.372C170.8 524.972 329.1 524.972 426.7 427.372C524.3 329.772 524.3 171.472 426.7 73.8719C329.1 -23.7281 170.8 -23.7281 73.2 73.8719ZM412.6 413.272C322.9 502.972 177 502.972 87.3 413.272C-2.39999 323.572 -2.3 177.672 87.3 88.0719C176.9 -1.52812 322.9 -1.62812 412.6 88.0719C502.3 177.772 502.3 323.672 412.6 413.272Z" fill="url(#paint0_linear_1_6470)"/>
<path d="M193.6 282.872H159.3L193.9 123.172H380.8L333.3 185.272H253.8L245.7 222.972H304.5L156 417.172L193.6 282.872Z" fill="white"/>
</g>
<defs>
<linearGradient id="paint0_linear_1_6470" x1="73.1987" y1="427.43" x2="426.743" y2="73.8862" gradientUnits="userSpaceOnUse">
<stop stop-color="#00F9FF"/>
<stop offset="1" stop-color="#FF0095"/>
</linearGradient>
<clipPath id="clip0_1_6470">
<rect width="500" height="500" fill="white" transform="translate(0 0.671875)"/>
</clipPath>
</defs>
</svg>
