<svg width="500" height="501" viewBox="0 0 500 501" fill="none" xmlns="http://www.w3.org/2000/svg">
<path d="M250 1.67188C112.5 1.67188 1 113.172 1 250.672C1 388.172 112.5 499.672 250 499.672C387.5 499.672 499 388.172 499 250.672C499 113.172 387.5 1.67188 250 1.67188ZM304.7 416.372L205.9 274.572C194.9 258.872 197.3 237.272 211.5 224.372L221.6 215.172C236.1 201.972 237.1 179.572 223.9 165.072C210.7 150.672 188.3 149.572 173.8 162.772L163.7 171.972C123.4 208.772 116.5 270.172 147.7 314.972L223 423.172C139.5 410.172 75.3 337.772 75.3 250.672C75.3 174.172 124.7 109.272 193.2 85.5719L291.6 226.672C302.6 242.372 300.2 263.972 286 276.872L275.9 286.072C261.4 299.272 260.4 321.672 273.6 336.172C280.6 343.872 290.1 347.772 299.8 347.772C308.4 347.772 316.8 344.772 323.7 338.472L333.8 329.272C374.1 292.472 381 231.072 349.8 186.272L274.2 77.8719C359.1 89.5719 424.6 162.672 424.6 250.672C424.6 327.872 374.3 393.372 304.7 416.372Z" fill="#7E6BE4"/>
</svg>
