<svg width="500" height="501" viewBox="0 0 500 501" fill="none" xmlns="http://www.w3.org/2000/svg">
<path d="M441.3 370.972C436 434.272 361.1 487.972 249.1 485.072C143.5 482.172 69.6 438.272 64.3 374.772C63.7 366.572 64 358.372 65.2 350.272C68.8 325.872 77.2 302.372 89.8 281.072L97.7 284.672C118.4 276.672 139.8 270.572 161.7 266.672C190.5 262.572 219.6 261.672 248.6 263.972C277.6 261.672 306.7 262.672 335.5 266.672C357.5 270.672 379 276.672 399.9 284.672L407.8 281.072L413.3 278.572C426 300.072 434.9 323.672 439.4 348.172C440.7 355.672 441.1 363.272 440.5 370.872" fill="#F4A427"/>
<path d="M441.3 370.972C436 434.272 362.2 485.172 249.1 485.072C143.5 482.172 69.6 438.272 64.3 374.772C63.7 366.572 64 358.372 65.2 350.272C76.4 347.872 88 347.572 99.4 349.372C120.9 352.872 132.8 365.972 147.9 372.872C156.7 376.972 165.4 370.272 173.4 363.072C194.7 342.172 223.2 330.172 253.1 329.672C283.4 329.272 307.6 341.172 334.2 365.372C339.5 370.772 346.7 373.772 354.3 373.772C361.3 371.872 367.8 368.372 373.1 363.372C392.9 350.072 416.9 344.672 440.5 348.172C441.8 355.672 442.2 363.272 441.6 370.872" fill="white"/>
<path d="M130.9 214.971C123.6 222.271 114.3 227.371 104.2 229.571L100.3 230.271C96.2 231.371 92 232.071 87.8 232.371C86.9 232.371 86 232.171 85.1 232.071C82.8 231.471 80.6 230.671 78.4 229.771C71.2 226.471 64.5 222.171 58.3 217.171C45.9 207.171 35 195.471 25.9 182.471C-10.8 129.371 0.300011 56.871 51.1 17.171C54.1 14.671 58.6 15.171 61.1 18.171C62.5 19.871 63 22.171 62.5 24.271C57.6 45.571 53.7 78.971 73.7 107.771C90.7 132.171 127.2 155.571 149.1 155.071C154 181.771 146.6 199.771 131 215.271" fill="#F79422"/>
<path d="M87.8 235.873C87.7 235.873 87.7 235.873 87.6 235.873C86.6 235.773 85.5 235.673 84.5 235.473C84.4 235.473 84.4 235.473 84.3 235.473C81.8 234.873 79.4 233.973 77.1 232.973C69.6 229.473 62.6 225.073 56.3 219.873C43.7 209.673 32.6 197.773 23.3 184.573C-14.5 129.973 -3.1 55.2728 49.1 14.4728C51.2 12.7728 53.9 11.9728 56.7 12.2728C59.5 12.5728 62 13.8728 63.7 16.0728C65.7 18.5728 66.5 21.9728 65.8 25.0728C58.3 57.5728 61.8 84.7728 76.5 105.873C93.3 129.873 128.6 152.173 149.1 151.773C150.7 151.773 152.2 152.873 152.5 154.473C157.3 180.473 151.4 199.873 133.4 217.373C125.6 225.173 115.8 230.473 105 232.873H104.9L101 233.673C96.8 234.773 92.4 235.573 88 235.873C87.9 235.873 87.8 235.873 87.8 235.873ZM85.8 228.873C86.4 228.973 87.1 229.073 87.7 229.073C91.6 228.773 95.6 228.073 99.4 227.073C99.5 227.073 99.6 227.073 99.6 226.973L103.5 226.273C113 224.173 121.7 219.373 128.6 212.573C144.4 197.173 149.8 180.873 146.2 158.373C123.3 156.973 88.3 134.573 70.9 109.673C55.2 86.9728 51.2 57.9728 59.2 23.5728C59.5 22.3728 59.2 21.1728 58.5 20.2728C57.9 19.4728 57 18.9728 56 18.8728C55 18.7728 54 19.0728 53.3 19.6728C3.8 58.3728 -7 129.073 28.7 180.573C37.7 193.273 48.3 204.773 60.5 214.573C66.4 219.473 72.9 223.573 79.9 226.773C81.7 227.673 83.7 228.373 85.8 228.873Z" fill="#221F1F"/>
<path d="M226.9 122.271L218.3 208.071H217.8C204.4 209.771 186.5 212.571 161.8 216.471C138.9 220.071 108.3 235.671 90.3 246.171L87.6 232.671C91.8 232.371 96 231.571 100.1 230.571L104 229.871C114.1 227.671 123.4 222.571 130.7 215.271C146.3 200.071 153.8 182.271 148.8 155.071L151.3 155.871C159.4 147.271 168.9 140.171 179.4 134.871C194.2 127.171 210.3 122.871 226.9 122.271Z" fill="#5A595C"/>
<path d="M90.4 249.672C89.9 249.672 89.5 249.572 89 249.372C88 248.972 87.3 248.072 87.1 246.972L84.4 233.472C84.2 232.572 84.4 231.572 85 230.772C85.6 229.972 86.4 229.572 87.4 229.472C91.4 229.172 95.4 228.472 99.3 227.472C99.4 227.472 99.5 227.472 99.5 227.372L103.4 226.672C112.9 224.572 121.6 219.772 128.4 212.972C144.8 196.972 150 179.872 145.6 155.772C145.4 154.572 145.8 153.472 146.7 152.672C147.6 151.872 148.8 151.672 149.9 151.972L150.4 152.172C158.4 143.972 167.7 137.172 178 132.072C192.9 124.172 209.8 119.672 226.7 119.072C227.7 119.072 228.6 119.472 229.3 120.172C230 120.872 230.3 121.872 230.2 122.772L221.6 208.572C221.4 210.272 220 211.572 218.3 211.572H218C205.8 213.172 189.6 215.572 162.3 219.972C136.5 224.072 102 243.472 92 249.272C91.5 249.472 90.9 249.672 90.4 249.672ZM91.7 235.772L92.8 241.072C97.2 238.572 103.3 235.172 110.5 231.672C108.7 232.272 106.8 232.772 104.9 233.172H104.8L101 233.872C97.9 234.672 94.8 235.272 91.7 235.772ZM153 158.872C156.4 182.872 150.2 201.172 133.2 217.672C130.2 220.672 126.8 223.372 123.2 225.572C135.6 220.072 149.3 215.072 161.3 213.172C187.3 209.072 203.2 206.572 215.3 204.972L223.2 125.772C208.6 126.772 194.1 130.972 181.2 137.772C170.9 142.972 161.8 149.772 153.9 158.072C153.6 158.472 153.3 158.672 153 158.872Z" fill="#221F1F"/>
<path d="M422.3 276.072L416.7 278.572L411.2 281.072L403.2 284.672C382.4 276.672 360.8 270.572 338.8 266.672C310.2 261.172 281.1 258.572 251.9 258.872C222.7 258.572 193.6 261.172 165 266.672C143 270.672 121.5 276.672 100.6 284.672C97.9 283.472 95.3 282.172 92.6 281.072L81.5 275.972C81.8 266.572 81.5 261.472 81.5 252.072C83.8 250.572 86.6 248.772 90.1 246.772C90.4 246.572 90.7 246.372 91 246.272C108 235.672 138.8 220.172 161.5 216.572C186.2 212.672 203.9 209.872 217.5 208.172C226.2 207.672 235.3 207.272 244.8 207.172C258.7 207.172 271.5 207.172 284.2 208.072C297.9 209.772 315.7 212.572 340.7 216.572C363.9 220.172 394.9 236.072 412.7 246.672L413.4 246.972C416.7 248.872 419.4 250.672 421.6 252.072C421.6 261.472 421.3 266.572 421.6 275.972" fill="#929497"/>
<path d="M100.7 288.071C100.2 288.071 99.8 287.971 99.3 287.771C98.3 287.271 97.3 286.871 96.3 286.371C94.6 285.571 93 284.871 91.4 284.171L80.2 279.071C79 278.471 78.2 277.271 78.3 275.871C78.5 269.871 78.5 265.671 78.4 260.871C78.4 258.271 78.3 255.471 78.3 252.171C78.3 251.071 78.9 249.971 79.8 249.371L80.1 249.171C82.3 247.771 85.1 245.971 88.3 244.071C88.7 243.771 89 243.571 89.4 243.371C104.6 233.971 136.7 217.171 161 213.271C186.4 209.171 203.8 206.571 217.1 204.871C217.2 204.871 217.2 204.871 217.3 204.871C227.4 204.271 236.4 203.971 244.8 203.871C258.7 203.871 271.7 203.871 284.5 204.771C284.6 204.771 284.6 204.771 284.7 204.771C298.8 206.571 316.8 209.371 341.4 213.271C368.7 217.571 404.1 237.571 414.5 243.671L415.1 243.971C415.2 243.971 415.2 244.071 415.3 244.071C418.3 245.871 421.1 247.571 423.7 249.271C424.6 249.871 425.1 250.871 425.2 251.871C425.4 256.371 425.4 259.971 425.4 263.371C425.4 267.271 425.4 270.871 425.7 275.671C425.8 277.071 425 278.371 423.7 278.971L418.1 281.471L412.6 283.971L404.6 287.571C403.8 287.971 402.9 287.971 402 287.671C381.4 279.771 360 273.671 338.2 269.771C310.2 265.071 281.5 262.771 253 262.771C252.3 262.771 251.7 262.771 251 262.771C222.4 262.771 193.7 265.171 165.5 269.771C143.8 273.671 122.4 279.671 101.8 287.671C101.5 287.971 101.1 288.071 100.7 288.071ZM253.1 256.271C281.9 256.271 310.9 258.671 339.4 263.371C361.1 267.271 382.5 273.271 403.1 281.071L418.8 273.871C418.6 269.871 418.6 266.571 418.6 263.371C418.6 260.471 418.6 257.471 418.5 253.971C416.5 252.671 414.3 251.271 411.9 249.871L411.3 249.571C411.2 249.571 411.2 249.471 411.1 249.471C390.6 237.271 361.2 223.071 340.3 219.771C315.9 215.871 297.9 213.071 283.9 211.271C271.4 210.371 258.5 210.371 244.8 210.371C236.5 210.471 227.7 210.771 217.8 211.371C204.5 213.071 187.3 215.771 162 219.771C138.6 223.471 107.5 239.971 92.7 249.071C92.6 249.171 92.4 249.271 92.3 249.271C92.3 249.271 92.2 249.271 92.2 249.371C92.1 249.471 91.9 249.571 91.7 249.671C89.1 251.171 86.8 252.571 84.8 253.871C84.8 256.371 84.8 258.571 84.9 260.671C85 264.971 85 268.771 84.9 273.771L94 277.971C95.6 278.671 97.3 279.471 99 280.171C99.6 280.471 100.1 280.671 100.7 280.971C121.3 273.071 142.7 267.171 164.4 263.271C193 258.571 222.1 256.171 251 256.171C251.8 256.271 252.5 256.271 253.1 256.271Z" fill="#221F1F"/>
<path d="M284.6 208.072C272.2 207.372 259.1 206.972 245.2 207.172C235.7 207.172 226.6 207.672 217.9 208.172H218.4L227 122.372L228.8 104.972C235.6 101.172 243.2 99.1723 251 99.0723H252.1C259.9 99.1723 267.6 101.172 274.4 104.972L276.1 122.072V122.572L284.6 208.072Z" fill="#929497"/>
<path d="M218.4 211.571H217.9C216.1 211.571 214.6 210.171 214.6 208.371C214.6 207.571 214.8 206.771 215.3 206.171L223.7 122.071L225.5 104.671C225.6 103.571 226.2 102.671 227.2 102.071C234.5 97.9715 242.7 95.8715 251 95.7715H252.1C260.5 95.8715 268.7 97.9715 276 102.071C277 102.571 277.6 103.571 277.7 104.671L279.4 121.771C279.4 121.871 279.4 121.971 279.4 122.071V122.371L288 207.771C288.1 208.771 287.8 209.671 287.1 210.371C286.4 211.071 285.5 211.471 284.5 211.371C270.9 210.571 258.1 210.271 245.3 210.471C236 210.471 227.3 210.871 219.1 211.371C218.8 211.471 218.6 211.571 218.4 211.571ZM231.9 107.071L230.3 122.671L222.1 204.571C229.4 204.171 237.1 203.871 245.2 203.871C256.8 203.671 268.6 203.971 280.9 204.571L272.7 122.871C272.7 122.771 272.7 122.671 272.7 122.571V122.271L271.2 107.071C265.3 104.071 258.7 102.471 252.1 102.371H251.1C244.3 102.471 237.8 104.071 231.9 107.071Z" fill="#221F1F"/>
<path d="M416.4 281.871C415.5 281.871 414.7 281.471 414 280.871C413.9 280.671 413.7 280.571 413.6 280.371C413.5 280.171 413.4 279.971 413.3 279.771C413.2 279.571 413.2 279.371 413.1 279.171C413.1 278.971 413 278.771 413 278.471C413 277.571 413.4 276.771 414 276.071C414.2 275.871 414.3 275.771 414.5 275.671C414.7 275.571 414.9 275.471 415.1 275.371C415.3 275.271 415.5 275.271 415.7 275.171C416.8 274.971 417.9 275.271 418.7 276.071C419.3 276.671 419.7 277.571 419.7 278.471C419.7 278.671 419.7 278.871 419.6 279.171C419.6 279.371 419.5 279.571 419.4 279.771C419.3 279.971 419.2 280.171 419.1 280.371C419 280.571 418.8 280.771 418.7 280.871C418.2 281.571 417.3 281.871 416.4 281.871Z" fill="#221F1F"/>
<path d="M249.2 489.172C196.7 487.672 151.2 476.372 117.5 456.272C83.3 435.872 63.8 408.072 61.1 375.872C60.5 367.472 60.8 358.972 62 350.672C65.7 325.672 74.1 301.972 87 280.272C87.9 278.772 89.7 278.272 91.3 278.972L98 281.972C118.6 274.172 140 268.172 161.7 264.272C190.5 259.172 219.9 256.572 249.2 256.372C278.5 256.172 307.9 258.772 336.7 264.272C358.4 268.172 379.8 274.172 400.4 281.972L407.7 278.872L413.1 276.372C414.7 275.672 416.5 276.272 417.4 277.672C430.4 299.572 439.3 323.372 444 348.372V348.472C445.2 356.272 445.5 364.172 444.8 371.972C442.1 404.072 420.9 433.672 385 455.372C348.9 477.172 300.7 489.172 249.2 489.172ZM91.3 286.172C79.7 306.472 72.1 328.472 68.7 351.572C67.6 359.372 67.3 367.372 67.9 375.272C70.4 405.272 88.8 431.272 121 450.472C153.7 469.972 198.1 480.972 249.4 482.472C299.5 482.472 346.5 470.772 381.5 449.672C415.5 429.072 435.6 401.372 438.1 371.472C438.7 364.172 438.5 356.872 437.3 349.572C432.9 326.372 424.8 304.172 413 283.672L410.3 284.972H410.2L401.6 288.572C400.8 288.872 399.9 288.972 399.1 288.572C378.5 280.672 357.1 274.572 335.3 270.672C306.9 265.272 277.9 262.672 249 262.872C220.1 263.072 191.1 265.672 162.7 270.672C141 274.572 119.5 280.572 99 288.572C98.2 288.872 97.2 288.872 96.4 288.472L91.3 286.172Z" fill="#221F1F"/>
<path d="M474 182.473C464.8 195.473 453.9 207.173 441.5 217.173C435.4 222.173 428.6 226.473 421.4 229.773L418 231.173L415.9 231.873C411.2 233.173 408.7 231.873 399.8 230.373L395.9 229.673C385.8 227.373 376.5 222.373 369.2 215.073C353.6 199.873 346.1 182.073 351.2 154.873C372.9 155.373 409.5 131.973 426.5 107.573C446.6 79.0727 442.5 45.6727 437.7 24.3727C436.7 20.5727 439 16.7727 442.8 15.7727C445 15.1727 447.3 15.7727 449.1 17.1727C499.8 56.9727 510.7 129.473 474 182.473Z" fill="#F79422"/>
<path d="M412.1 235.772C409.9 235.772 407.8 235.372 405 234.772C403.4 234.472 401.5 234.072 399.2 233.672L395.2 232.972H395.1C384.4 230.572 374.6 225.172 366.7 217.472C348.7 199.972 342.9 180.472 347.7 154.372C348 152.772 349.4 151.672 351 151.672C351 151.672 351 151.672 351.1 151.672C371.2 152.172 407.1 129.372 423.6 105.772C438.2 84.9724 441.7 58.5724 434.3 25.1724C433.6 22.5724 434.1 19.7724 435.5 17.3724C436.9 14.9724 439.2 13.2724 441.9 12.5724C445.1 11.7724 448.6 12.5724 451.1 14.6724C503.1 55.5724 514.3 130.172 476.7 184.572C467.3 197.872 456.2 209.672 443.6 219.972C437.3 225.172 430.3 229.572 422.9 233.072C422.9 233.072 422.8 233.072 422.8 233.172L419.4 234.572C419.3 234.572 419.2 234.672 419.1 234.672L417 235.372C415.1 235.572 413.6 235.772 412.1 235.772ZM396.5 226.372L400.4 227.072C402.8 227.472 404.8 227.872 406.4 228.272C410.7 229.172 412.3 229.472 415 228.772L416.9 228.172L420.1 226.872C427 223.672 433.5 219.572 439.4 214.672C451.5 204.872 462.3 193.372 471.3 180.672C506.9 129.172 496.3 58.5724 447 19.8724C447 19.8724 446.9 19.8724 446.9 19.7724C446 18.9724 444.7 18.6724 443.6 18.9724C442.6 19.1724 441.8 19.8724 441.3 20.6724C440.8 21.5724 440.6 22.5724 440.9 23.4724C448.8 58.9724 444.9 86.9724 429.2 109.472C412.1 133.972 376.5 156.672 354 158.172C350.4 180.872 355.7 197.272 371.6 212.672C378.4 219.472 387 224.272 396.5 226.372Z" fill="#221F1F"/>
<path d="M416 231.873L413.1 246.673C395.3 236.073 364.3 219.973 341.1 216.573C316 212.573 298.3 209.873 284.6 208.073L276 122.473C291.6 123.273 306.7 127.573 320.5 134.873C331.1 140.173 340.7 147.273 348.8 155.873L351.3 155.073C346.3 181.773 353.7 199.773 369.3 215.273C376.7 222.573 385.9 227.673 396 229.873C396.6 229.873 399.3 231.173 399.9 231.373C405.1 233.173 410.7 233.373 416 232.173" fill="#5A595C"/>
<path d="M413.1 250.071C412.5 250.071 411.9 249.871 411.4 249.571C401.3 243.571 366.2 223.571 340.6 219.971C315.1 215.871 297.7 213.271 284.1 211.471C282.6 211.271 281.4 210.071 281.2 208.471L272.6 122.871C272.5 121.871 272.8 120.971 273.5 120.271C274.2 119.571 275.1 119.171 276.1 119.271C292 120.071 307.9 124.571 321.9 132.071C332.3 137.171 341.6 143.971 349.7 152.171L350.3 151.971C351.4 151.571 352.6 151.871 353.5 152.671C354.4 153.471 354.8 154.671 354.6 155.771C350.2 179.171 355.5 196.871 371.7 212.971C378.6 219.871 387.3 224.571 396.8 226.671L400.7 227.371C402.8 227.671 404.5 228.071 406 228.371C410.7 229.271 412.3 229.571 415.1 228.771C416.2 228.471 417.4 228.771 418.3 229.571C419.2 230.371 419.5 231.571 419.3 232.671L416.4 247.471C416.2 248.571 415.5 249.471 414.5 249.871C414.1 249.971 413.6 250.071 413.1 250.071ZM395.8 233.271C401.6 236.271 406.7 239.071 410.8 241.471L411.9 235.871C409.8 235.871 407.7 235.471 404.8 234.871C403.3 234.571 401.6 234.271 399.5 233.971L395.8 233.271ZM287.7 205.171C301 206.971 317.8 209.471 341.7 213.371C351.3 214.771 362.1 218.271 372.4 222.471C370.5 220.971 368.7 219.471 367 217.771C350.1 200.971 343.9 182.771 347.3 159.071C346.9 158.871 346.6 158.671 346.3 158.371C338.4 149.971 329.2 143.171 318.9 138.071H318.8C306.7 131.571 293.3 127.571 279.7 126.271L287.7 205.171Z" fill="#221F1F"/>
<path d="M276 119.172H273.2V125.872H276V119.172Z" fill="#221F1F"/>
<path d="M416.6 228.672C421 234.272 420.1 242.272 414.5 246.672C414 247.072 413.5 247.372 413 247.672" fill="#F79422"/>
<path d="M414.7 250.572L411.3 244.772C411.7 244.572 412.1 244.272 412.4 243.972C416.5 240.772 417.2 234.772 414 230.672L419.2 226.572C424.7 233.572 423.5 243.772 416.5 249.272C416 249.772 415.4 250.172 414.7 250.572Z" fill="#221F1F"/>
<path d="M86.9 228.672C82.5 234.272 83.5 242.272 89.1 246.672C89.6 247.072 90.1 247.372 90.6 247.672" fill="#F79422"/>
<path d="M88.9 250.572C88.2 250.172 87.6 249.772 87 249.272C80 243.772 78.8 233.572 84.3 226.572L89.6 230.672C88 232.672 87.3 235.172 87.6 237.672C87.9 240.172 89.2 242.472 91.2 243.972C91.6 244.272 91.9 244.472 92.3 244.772L88.9 250.572Z" fill="#221F1F"/>
<path d="M231.4 400.871C229.6 400.871 227.8 400.671 226 400.271C224.2 399.871 223.1 398.071 223.4 396.271C223.8 394.471 225.6 393.371 227.4 393.671C231.5 394.571 235.8 394.071 239.6 392.171C239.7 392.171 239.8 392.071 239.9 392.071C245.2 390.071 248.8 385.271 249.3 379.771C249.3 378.771 249.3 377.771 249.4 376.871C249.6 375.171 251.1 373.871 252.8 373.871C254.5 373.871 256 375.271 256.1 377.071C256.2 378.071 256.1 379.071 256.1 379.971C256.5 385.471 260.2 390.271 265.5 392.171C265.6 392.171 265.8 392.271 265.9 392.371C269.6 394.171 274 394.771 278 393.871C279.8 393.471 281.6 394.671 282 396.471C282.4 398.271 281.2 400.071 279.4 400.471C273.9 401.671 268.1 400.971 263.1 398.571C258.7 396.971 255 394.071 252.6 390.271C250.2 393.971 246.7 396.871 242.4 398.571C239 399.971 235.3 400.871 231.4 400.871Z" fill="#171717"/>
<path d="M278.7 354.672C278.7 362.472 266.6 373.472 252 373.472C237.4 373.472 225.3 362.872 225.3 355.072C225.3 347.272 237.4 344.572 252 344.572C266.6 344.572 278.7 346.872 278.7 354.672Z" fill="#171717"/>
<path d="M263.1 351.671C263.1 353.471 258 355.971 251.7 355.971C245.4 355.971 240.3 353.471 240.3 351.671C240.3 349.871 245.4 350.171 251.7 350.171C258 350.271 263.1 349.871 263.1 351.671Z" fill="white"/>
<path d="M226.8 400.072H225C224.8 400.072 224.6 400.072 224.4 399.972C213.5 397.972 206 388.172 206.9 377.072C207.1 375.272 208.7 373.872 210.5 373.972C212.3 374.172 213.7 375.772 213.6 377.572C213 385.072 218 391.772 225.4 393.272H226.8C228.6 393.272 230.1 394.772 230.1 396.572C230.1 398.572 228.6 400.072 226.8 400.072Z" fill="#171717"/>
<path d="M252.7 380.571C250.9 380.571 249.4 379.071 249.4 377.271V368.071C249.4 366.271 250.9 364.771 252.7 364.771C254.5 364.771 256 366.271 256 368.071V377.271C256.1 379.071 254.6 380.571 252.7 380.571Z" fill="#171717"/>
<path d="M280.5 400.372H278.7C276.9 400.372 275.4 398.872 275.4 397.072C275.4 395.272 276.9 393.772 278.7 393.772H280.2C287.6 392.272 292.7 385.272 292 377.772C291.8 375.972 293.2 374.272 295 374.072C296.9 373.872 298.5 375.272 298.7 377.072C299.8 388.172 292.1 398.372 281.2 400.372C280.9 400.372 280.7 400.372 280.5 400.372Z" fill="#171717"/>
<path d="M476.8 184.472L471.3 180.672C506.9 129.172 496.3 58.4723 447 19.8723L451.1 14.5723C503.2 55.3723 514.4 129.972 476.8 184.472Z" fill="#221F1F"/>
<path d="M87.8 235.873C87.7 235.873 87.7 235.873 87.6 235.873C86.6 235.773 85.5 235.673 84.5 235.473C84.4 235.473 84.4 235.473 84.3 235.473C81.8 234.873 79.4 233.973 77.1 232.973C69.6 229.473 62.6 225.073 56.3 219.873C43.7 209.673 32.6 197.773 23.3 184.573C-14.5 129.973 -3.1 55.2728 49.1 14.4728C51.2 12.7728 53.9 11.9728 56.7 12.2728C59.5 12.5728 62 13.8728 63.7 16.0728C65.7 18.5728 66.5 21.9728 65.8 25.0728C58.3 57.5728 61.8 84.7728 76.5 105.873C93.3 129.873 128.6 152.173 149.1 151.773C150.7 151.773 152.2 152.873 152.5 154.473C157.3 180.473 151.4 199.873 133.4 217.373C125.6 225.173 115.8 230.473 105 232.873H104.9L101 233.673C96.8 234.773 92.4 235.573 88 235.873C87.9 235.873 87.8 235.873 87.8 235.873ZM85.8 228.873C86.4 228.973 87.1 229.073 87.7 229.073C91.6 228.773 95.6 228.073 99.4 227.073C99.5 227.073 99.6 227.073 99.6 226.973L103.5 226.273C113 224.173 121.7 219.373 128.6 212.573C144.4 197.173 149.8 180.873 146.2 158.373C123.3 156.973 88.3 134.573 70.9 109.673C55.2 86.9728 51.2 57.9728 59.2 23.5728C59.5 22.3728 59.2 21.1728 58.5 20.2728C57.9 19.4728 57 18.9728 56 18.8728C55 18.7728 54 19.0728 53.3 19.6728C3.8 58.3728 -7 129.073 28.7 180.573C37.7 193.273 48.3 204.773 60.5 214.573C66.4 219.473 72.9 223.573 79.9 226.773C81.7 227.673 83.7 228.373 85.8 228.873Z" fill="#221F1F"/>
<path d="M203.3 311.072C203.3 325.672 194.7 337.372 184.2 337.372C173.6 337.372 165.1 325.572 165.1 311.072C165.1 298.272 171.8 287.572 180.4 285.172L201.7 301.372C202.7 304.472 203.2 307.772 203.3 311.072Z" fill="#221F1F"/>
<path d="M196.2 307.572C196.2 312.672 193.2 316.972 189.5 316.972C185.8 316.972 182.8 312.672 182.8 307.572C182.8 302.472 185.9 298.072 189.5 298.072C193.1 298.072 196.2 302.372 196.2 307.572Z" fill="white"/>
<path d="M179.9 330.771C172.6 336.771 165.9 343.571 159.8 350.872C156.9 354.472 154.5 358.371 152.5 362.571C150.5 366.771 149.1 371.271 148.4 375.971C148 378.271 147.7 380.671 147.4 382.971L147.1 386.571V390.171C146.8 394.971 146.8 399.871 147.1 404.671C147.5 409.571 148.2 414.371 149.2 419.171C149.7 421.571 150.2 423.971 150.9 426.371C151.5 428.672 152.3 430.871 153.3 433.071C152 430.971 151 428.672 150.1 426.371C149.2 424.071 148.4 421.771 147.6 419.671C146.1 414.871 144.8 410.071 143.9 405.171C143 400.271 142.3 395.271 141.9 390.271L141.7 386.571V382.671C141.7 380.171 141.8 377.571 142 375.071C142.4 369.871 143.5 364.671 145.3 359.671C147.1 354.771 149.4 349.971 152.3 345.671C158 337.171 164.5 329.271 171.8 321.971C174.2 319.671 178.1 319.771 180.4 322.271C182.5 324.571 182.6 328.071 180.6 330.372L179.9 330.771Z" fill="#221F1F"/>
<path d="M175.5 328.872C175 328.972 174.6 328.972 174.1 328.872H173.3H171.8L168.7 328.172C166.7 327.772 164.6 327.472 162.5 327.472C158.3 327.172 154.1 327.572 150 328.572C147.9 329.072 145.9 329.772 144 330.672C137.9 333.472 132.8 337.972 129.2 343.672C130.9 339.272 133.3 335.272 136.4 331.772C138 329.972 139.7 328.272 141.6 326.872C143.5 325.372 145.6 324.072 147.8 322.972C152.1 320.472 156.8 318.672 161.6 317.672C164.1 317.272 166.5 316.972 169 316.872C170.3 316.872 171.5 316.872 172.7 316.872H175.4C178.8 316.672 181.6 319.272 181.8 322.672C182 326.072 179.4 328.872 176 329.072C175.6 329.072 175.2 329.072 174.8 328.972" fill="#221F1F"/>
<path d="M340.5 311.071C340.5 325.671 331.9 337.371 321.4 337.371C310.9 337.371 302.3 325.571 302.3 311.071C302.3 307.771 302.7 304.471 303.6 301.271L325 285.271C333.9 287.571 340.5 298.271 340.5 311.071Z" fill="#221F1F"/>
<path d="M309.3 307.572C309.3 312.672 312.4 316.972 316 316.972C319.6 316.972 322.7 312.672 322.7 307.572C322.7 302.472 319.6 298.072 316 298.072C312.4 298.072 309.3 302.372 309.3 307.572Z" fill="white"/>
<path d="M333.9 321.971C340.9 329.171 347.3 336.871 353 345.271C355.9 349.471 358.3 353.971 360.3 358.671C362.2 363.471 363.6 368.471 364.2 373.571C364.8 378.571 364.8 383.671 364.2 388.771C363.7 393.671 362.9 398.571 361.9 403.371C360.9 408.171 359.7 412.871 358.2 417.571C357.4 419.871 356.7 422.171 355.7 424.271C354.8 426.571 353.8 428.871 352.5 430.971C353.5 428.771 354.3 426.571 355 424.271C355.7 421.971 356.2 419.671 356.7 417.271C357.7 412.571 358.4 407.771 358.9 403.071C359.4 398.271 359.6 393.471 359.6 388.671C359.6 383.971 359.1 379.371 358.1 374.871C357 370.471 355.4 366.171 353.2 362.071C351 358.071 348.4 354.271 345.5 350.671C339.4 343.371 332.7 336.671 325.4 330.571C323 328.171 323 324.371 325.3 321.971C327.4 319.771 330.8 319.571 333.3 321.371L333.8 321.771" fill="#221F1F"/>
<path d="M329.5 316.773H332.8C334.1 316.673 335.4 316.673 336.7 316.773C339.3 316.873 341.9 317.073 344.5 317.473C349.7 318.173 354.7 319.673 359.5 321.773C364.2 323.873 368.5 326.773 372.1 330.473C375.6 334.073 378.3 338.273 380.2 342.873C377.5 338.873 374.1 335.473 370.2 332.873C366.4 330.273 362.1 328.473 357.6 327.573C353.2 326.673 348.7 326.373 344.2 326.673C342 326.773 339.7 327.073 337.5 327.473L334.2 328.173H332.6H331.7H331.2H330.3C327 328.673 323.9 326.273 323.4 322.973C322.9 319.673 325.3 316.573 328.6 316.073C329 315.973 329.4 315.973 329.8 315.973" fill="#221F1F"/>
</svg>
