<svg width="500" height="501" viewBox="0 0 500 501" fill="none" xmlns="http://www.w3.org/2000/svg">
<path d="M250.5 499.672C387.743 499.672 499 388.415 499 251.172C499 113.929 387.743 2.67188 250.5 2.67188C113.257 2.67188 2 113.929 2 251.172C2 388.415 113.257 499.672 250.5 499.672Z" fill="#00EF8B"/>
<path d="M359.6 212.271H289.4V282.471H359.6V212.271Z" fill="white"/>
<path d="M219.2 308.771C219.2 323.271 207.4 335.071 192.9 335.071C178.4 335.071 166.6 323.271 166.6 308.771C166.6 294.271 178.4 282.471 192.9 282.471H219.2V212.371H192.9C139.6 212.371 96.4 255.571 96.4 308.871C96.4 362.171 139.6 405.371 192.9 405.371C246.2 405.371 289.4 362.171 289.4 308.871V282.571H219.3V308.771H219.2Z" fill="white"/>
<path d="M315.7 177.173H394.6V106.973H315.7C262.4 107.073 219.3 150.173 219.2 203.473V212.273H289.3V203.473C289.4 188.973 301.2 177.173 315.7 177.173Z" fill="white"/>
<path d="M219.2 282.471H289.4V212.271H219.2V282.471Z" fill="#16FF99"/>
</svg>
