<svg width="500" height="501" viewBox="0 0 500 501" fill="none" xmlns="http://www.w3.org/2000/svg">
<g clip-path="url(#clip0_1_6520)">
<path d="M251.7 0.671589C389.7 1.57159 500.9 114.272 500 252.372C499.1 390.372 386.4 501.572 248.3 500.672C110.9 499.772 0 388.072 0 250.672C0.5 112.172 113.1 0.171589 251.7 0.671589Z" fill="#2B61D1"/>
<path d="M281.5 395.873L252.8 412.473L191.2 376.973L219.2 360.873L219.9 360.473L221 361.073L281.5 395.873Z" fill="white"/>
<path d="M391.5 172.172V205.472L330.9 170.472L314.5 160.972L298.1 170.472L221.1 214.972L204.7 224.472V244.072L175.1 226.972L158.7 217.472L142.3 226.972L114.4 243.072V172.172L253.1 92.0723L391.5 172.172Z" fill="white"/>
<path d="M391.5 243.371V332.371L314.5 376.771H314.4L237.4 332.371V243.371L314.5 198.871L391.5 243.371Z" fill="white"/>
<path d="M202.8 281.073V332.273L158.5 357.873L114.2 332.273V281.073L158.5 255.473L202.8 281.073Z" fill="white"/>
</g>
<defs>
<clipPath id="clip0_1_6520">
<rect width="500" height="500" fill="white" transform="translate(0 0.671875)"/>
</clipPath>
</defs>
</svg>
