<svg width="500" height="501" viewBox="0 0 500 501" fill="none" xmlns="http://www.w3.org/2000/svg">
<g clip-path="url(#clip0_1_6526)">
<path fill-rule="evenodd" clip-rule="evenodd" d="M7.69995 249.772C7.69995 112.172 118.9 0.671875 256.2 0.671875H472.9C483.6 0.671875 492.3 9.37187 492.3 20.1719V251.572C492.3 389.172 381.1 500.672 243.8 500.672H135.5C124.8 500.672 116.1 491.972 116.1 481.172V271.172C116.1 182.572 187.8 110.772 276.1 110.772H369.3C374.7 110.772 379 115.172 379 120.472V157.872C379 163.272 374.6 167.572 369.3 167.572H276.1C229.7 167.572 190.4 198.372 177.4 240.672H364C369.4 240.672 373.7 245.072 373.7 250.372V287.772C373.7 293.172 369.3 297.472 364 297.472H172.9V443.372H243.9C349.8 443.372 435.6 357.372 435.6 251.172V57.1719H256.2C150.3 57.1719 64.5 143.172 64.5 249.372V490.572C64.5 495.972 60.0999 500.272 54.7999 500.272H17.4C12 500.272 7.69995 495.872 7.69995 490.572V249.772Z" fill="black"/>
</g>
<defs>
<clipPath id="clip0_1_6526">
<rect width="500" height="500" fill="white" transform="translate(0 0.671875)"/>
</clipPath>
</defs>
</svg>
