<svg width="500" height="501" viewBox="0 0 500 501" fill="none" xmlns="http://www.w3.org/2000/svg">
<g clip-path="url(#clip0_1_6528)">
<path fill-rule="evenodd" clip-rule="evenodd" d="M250 500.672C388.1 500.672 500 388.772 500 250.672C500 112.572 388.1 0.671875 250 0.671875C111.9 0.671875 0 112.572 0 250.672C0 388.772 111.9 500.672 250 500.672Z" fill="#F0D1CC"/>
<path d="M200 150.672L250 125.672L300 150.672V188.172H200V150.672Z" fill="#846A67"/>
<path d="M200 150.672L250 175.672L262.5 219.472L250 263.172L200 238.172V150.672Z" fill="#83605B"/>
<path d="M300 150.672L250 175.672V263.172L300 238.172V150.672Z" fill="#654A49"/>
<path d="M200 263.172L250 238.172L300 263.172V300.672H200V263.172Z" fill="#846A67"/>
<path d="M200 263.172L250 288.172L262.5 331.972L250 375.672L200 350.672V263.172Z" fill="#664F4E"/>
<path d="M300 263.172L250 288.172V375.672L300 350.672V263.172Z" fill="#55403F"/>
<path d="M100 263.172L150 238.172L200 263.172V300.672H100V263.172Z" fill="#432F30"/>
<path d="M100 263.172L150 288.172L162.5 331.972L150 375.672L100 350.672V263.172Z" fill="#CC9C95"/>
<path d="M200 263.172L150 288.172V375.672L200 350.672V263.172Z" fill="#513C3C"/>
<path d="M100 150.672L150 125.672L200 150.672V188.172H100V150.672Z" fill="#7C6462"/>
<path d="M100 150.672L150 175.672L162.5 219.472L150 263.172L100 238.172V150.672Z" fill="#C3958E"/>
<path d="M200 150.672L150 175.672V220.972V263.172L200 238.172V150.672Z" fill="#554142"/>
<path d="M200 100.672L250 75.6719L300 100.672V138.172H200V100.672Z" fill="#846A67"/>
<path d="M200 100.672L250 125.672L262.5 169.472L250 213.172L200 188.172V100.672Z" fill="#6B4944"/>
<path d="M300 100.672L250 125.672V213.172L300 188.172V100.672Z" fill="#4F3B3B"/>
<path d="M300 263.172L350 238.172L400 263.172V300.672H300V263.172Z" fill="#442F2F"/>
<path d="M300 263.172L350 288.172L362.5 331.972L350 375.672L300 350.672V263.172Z" fill="#93645E"/>
<path d="M400 263.172L350 288.172V375.672L400 350.672V263.172Z" fill="#6F5555"/>
<path d="M300 150.672L350 125.672L400 150.672V188.172H300V150.672Z" fill="#836867"/>
<path d="M300 150.672L350 175.672L362.5 219.472L350 263.172L300 238.172V150.672Z" fill="#93645E"/>
<path d="M400 150.672L350 175.672V263.172L400 238.172V150.672Z" fill="#6E5655"/>
<path d="M200 313.172L250 288.172L300 313.172V350.672H200V313.172Z" fill="#453333"/>
<path d="M200 313.172L250 338.172L262.5 381.972L250 425.672L200 400.672V313.172Z" fill="#D79C93"/>
<path d="M300 313.172L250 338.172V425.672L300 400.672V313.172Z" fill="#705655"/>
<path d="M200 200.672L250 175.672L300 200.672V238.172H200V200.672Z" fill="#7B6362"/>
<path d="M200 200.672L250 225.672L262.5 269.472L250 313.172L200 288.172V200.672Z" fill="#EFAC9E"/>
<path d="M300 200.672L250 225.672V313.172L300 288.172V200.672Z" fill="#745757"/>
</g>
<defs>
<clipPath id="clip0_1_6528">
<rect width="500" height="500" fill="white" transform="translate(0 0.671875)"/>
</clipPath>
</defs>
</svg>
