<svg width="500" height="501" viewBox="0 0 500 501" fill="none" xmlns="http://www.w3.org/2000/svg">
<path d="M5.38721 245.043C7.41521 241.529 9.97621 233.88 15.0712 228.744C86.2182 157.016 157.742 85.6622 229.09 14.1342C242.472 0.719206 260.575 1.50021 275.985 16.9122C312.426 53.3562 348.904 89.7622 385.358 126.192C396.064 136.89 406.783 147.575 417.417 158.344C425.687 166.72 425.743 176.715 417.547 185.175C410.149 192.811 402.061 199.849 395.26 207.974C387.693 217.015 373.646 216.651 365.262 208.056C332.145 174.106 298.389 140.778 264.884 107.206C256.252 98.5572 246.175 98.5662 237.549 107.251C229.194 115.663 220.734 123.973 212.446 132.45C202.375 142.751 202.1 150.884 212.066 161.603C220.416 170.585 229.402 178.973 238.008 187.72C247.881 197.755 248.225 205.882 238.633 216.267C231.426 224.069 223.798 231.51 216.016 238.744C206.09 247.971 198.198 248.103 188.373 239.006C179.679 230.955 170.949 222.825 163.228 213.873C153.114 202.146 140.412 203.265 130.811 213.366C109.126 236.179 86.5312 258.126 64.3902 280.508C45.7892 299.311 39.1412 299.36 20.3822 280.199C11.9152 271.551 5.54421 261.805 5.38721 245.043ZM276.584 482.91C298.558 460.338 321.079 438.301 343.35 416.018C391.075 368.269 438.7 320.42 486.599 272.845C491.945 267.535 494.471 261.787 495.004 254.583C495.862 242.988 493.366 232.798 484.108 224.892C480.384 221.712 477.072 218.048 473.584 214.593C461.83 202.945 454.441 203.705 443.74 214.342C441.128 216.938 438.467 219.484 435.863 222.088C413.587 244.365 391.075 266.415 369.16 289.042C359.322 299.2 349.665 299.294 338.994 288.802C330.244 280.198 321.668 271.418 312.964 262.767C303.153 253.017 295.418 252.696 285.502 262.056C277.77 269.354 270.327 276.968 262.927 284.607C254.83 292.965 254.715 304.957 262.898 313.66C271.578 322.893 280.818 331.599 289.499 340.831C300.336 352.358 300.256 356.922 289.131 368.64C281.246 376.945 273.021 384.928 264.897 393.003C257.796 400.062 249.731 401.621 240.701 396.62C235.83 393.923 231.472 390.02 227.483 386.056C195.847 354.627 164.389 323.02 132.797 291.546C124.552 283.331 115.738 283.06 107.195 290.91C100.008 297.513 92.9842 304.339 86.3742 311.513C75.0782 323.773 75.3112 333.907 86.5802 346.123C87.4122 347.025 88.3102 347.866 89.1782 348.734C113.444 373.017 137.724 397.285 161.972 421.587C180.736 440.393 199.307 459.393 218.267 478C226.944 486.515 235.613 495.712 250.401 494.209C260.695 495.444 268.938 490.765 276.584 482.91Z" fill="#3D424D"/>
</svg>
