<svg width="500" height="501" viewBox="0 0 500 501" fill="none" xmlns="http://www.w3.org/2000/svg">
<path fill-rule="evenodd" clip-rule="evenodd" d="M443.1 44.0719L421.2 175.572L343.3 83.7719L443.1 44.0719ZM421.7 232.172L441.2 304.272L292 345.272L421.7 232.172ZM96.8996 195.972L176.9 91.4719H315.8L404.6 195.972H96.8996ZM394.3 221.772L249.7 347.972L102.4 221.772H394.3ZM150.1 83.8719L78.5996 177.272L56.6996 44.5719L150.1 83.8719ZM206.8 345.272L56.1996 304.272L76.7996 233.972L206.8 345.272ZM234.7 379.672L206.3 410.972C182.2 388.072 155.7 367.772 127.4 350.472L234.7 379.672ZM372.5 349.872C344.2 367.472 317.8 388.072 293.9 411.172L264.9 379.572L372.5 349.872ZM476.1 3.17188L319.3 65.5719H173.1L23.5996 2.67188L57.5996 208.072L24.9996 319.172L110.1 370.072C150.4 394.172 186.5 424.372 217.4 459.672L250.5 497.572L285.3 457.672C315.1 423.472 349.9 394.072 388.6 370.272L472.1 319.072L442 208.072L476.1 3.17188Z" fill="#0A1832"/>
</svg>
