<svg width="500" height="501" viewBox="0 0 500 501" fill="none" xmlns="http://www.w3.org/2000/svg">
<g clip-path="url(#clip0_1_6565)">
<path d="M250 500.672C216.3 500.672 183.5 494.072 152.7 480.972C122.9 468.372 96.2 450.372 73.2 427.372C50.3 404.472 32.2 377.672 19.6 347.872C6.6 317.172 0 284.372 0 250.672C0 216.972 6.6 184.172 19.7 153.372C32.3 123.572 50.3 96.8719 73.3 73.8719C96.3 50.9719 123 32.8719 152.8 20.2719C183.5 7.27188 216.3 0.671875 250 0.671875C283.7 0.671875 316.5 7.27188 347.3 20.3719C377.1 32.9719 403.8 50.9719 426.8 73.9719C449.7 96.8719 467.8 123.672 480.4 153.472C493.4 184.272 500.1 217.072 500.1 250.772C500.1 284.472 493.5 317.272 480.4 348.072C467.8 377.872 449.8 404.572 426.8 427.572C403.9 450.472 377.1 468.572 347.3 481.172C316.5 494.072 283.7 500.672 250 500.672Z" fill="white"/>
<path d="M250 487.471C380.781 487.471 486.8 381.452 486.8 250.671C486.8 119.89 380.781 13.8711 250 13.8711C119.219 13.8711 13.2002 119.89 13.2002 250.671C13.2002 381.452 119.219 487.471 250 487.471Z" fill="black"/>
<path d="M398 250.672C398 238.272 395 226.572 389.5 216.372L424.5 181.372L395 151.872L359.3 187.572C359 187.472 358.8 187.372 358.5 187.172C345.6 181.272 331.2 179.372 316.7 181.772C301.8 184.272 287.2 191.272 274.4 202.172C266.1 209.272 256.9 217.072 249.7 223.272C242.3 216.972 233 209.072 225 202.172C212.2 191.372 197.6 184.272 182.7 181.772C168.2 179.372 153.7 181.272 140.9 187.172C140.7 187.272 140.5 187.372 140.3 187.472L104.7 151.872L75.2002 181.372L110 216.172C104.5 226.372 101.4 238.172 101.4 250.672C101.4 263.172 104.4 274.972 110 285.172L75.2002 319.972L104.7 349.472L140.3 313.872C140.5 313.972 140.7 314.072 140.9 314.172C153.8 320.072 168.2 321.972 182.7 319.572C197.6 317.072 212.2 310.072 225 299.172C232.8 292.572 242.1 284.572 249.7 278.072C257.1 284.372 266.4 292.272 274.4 299.172C287.2 309.972 301.8 317.072 316.7 319.572C320.8 320.272 324.9 320.572 329 320.572C339.3 320.572 349.3 318.372 358.5 314.172C358.8 314.072 359 313.972 359.3 313.772L395 349.472L424.5 319.972L389.5 284.972C395 274.772 398 263.072 398 250.672ZM198.2 267.372C185.2 278.372 170.4 281.772 158.6 276.272C148.9 271.772 143.4 262.472 143.4 250.672C143.4 238.872 149 229.572 158.6 225.072C162.3 223.372 166.4 222.472 170.6 222.472C179.6 222.472 189.4 226.372 198.2 233.972C204.5 239.272 211.5 245.272 217.8 250.672C211.4 256.172 204.3 262.172 198.2 267.372ZM301.5 267.372C295.2 262.072 288.2 256.072 281.9 250.672C288.1 245.372 295.1 239.372 301.5 233.972C314.5 222.972 329.3 219.572 341.1 225.072C350.8 229.572 356.3 238.872 356.3 250.672C356.3 262.472 350.7 271.772 341.1 276.272C329.3 281.772 314.5 278.472 301.5 267.372Z" fill="white"/>
</g>
<defs>
<clipPath id="clip0_1_6565">
<rect width="500" height="500" fill="white" transform="translate(0 0.671875)"/>
</clipPath>
</defs>
</svg>
