<svg width="500" height="501" viewBox="0 0 500 501" fill="none" xmlns="http://www.w3.org/2000/svg">
<g clip-path="url(#clip0_1_6569)">
<path d="M250 500.672C216.3 500.672 183.5 494.072 152.7 480.972C122.9 468.372 96.2 450.372 73.2 427.372C50.3 404.472 32.2 377.672 19.6 347.872C6.6 317.172 0 284.372 0 250.672C0 216.972 6.6 184.172 19.7 153.372C32.3 123.572 50.3 96.8719 73.3 73.8719C96.3 50.9719 123 32.8719 152.8 20.2719C183.5 7.27188 216.3 0.671875 250 0.671875C283.7 0.671875 316.5 7.27188 347.3 20.3719C377.1 32.9719 403.8 50.9719 426.8 73.9719C449.7 96.8719 467.8 123.672 480.4 153.472C493.4 184.272 500.1 217.072 500.1 250.772C500.1 284.472 493.5 317.272 480.4 348.072C467.8 377.872 449.8 404.572 426.8 427.572C403.9 450.472 377.1 468.572 347.3 481.172C316.5 494.072 283.7 500.672 250 500.672Z" fill="white"/>
<path d="M250 487.471C380.781 487.471 486.8 381.452 486.8 250.671C486.8 119.89 380.781 13.8711 250 13.8711C119.219 13.8711 13.2002 119.89 13.2002 250.671C13.2002 381.452 119.219 487.471 250 487.471Z" fill="black"/>
<path d="M387.2 136.772L352.4 101.972L312.9 141.472C298.5 133.672 281.4 129.572 263.4 129.572C244.5 129.572 226.6 133.872 211.6 141.772L171.9 102.072L137 136.772L176.6 176.372C170.8 187.672 167.8 200.472 167.8 214.272V406.372H217V303.472H263.3C291.3 303.472 313.8 296.372 330.1 282.272C342.3 271.772 356.8 251.972 356.8 217.372C356.8 202.472 353.5 188.672 347.4 176.472L387.2 136.772ZM263.4 254.172H217.1V214.272C217.1 180.472 255.7 178.772 263.4 178.772C270.8 178.772 307.7 180.672 307.7 217.372C307.7 236.472 302.3 254.172 263.4 254.172Z" fill="white"/>
</g>
<defs>
<clipPath id="clip0_1_6569">
<rect width="500" height="500" fill="white" transform="translate(0 0.671875)"/>
</clipPath>
</defs>
</svg>
