<svg width="500" height="501" viewBox="0 0 500 501" fill="none" xmlns="http://www.w3.org/2000/svg">
<g clip-path="url(#clip0_1_6573)">
<path d="M425.2 361.572C432 351.172 437.8 340.272 442.7 328.772C453.6 302.972 459.2 275.572 459.2 247.372C459.2 219.172 453.7 191.772 442.7 165.972C437.9 154.572 432.1 143.672 425.4 133.372L496.6 62.1719L435.4 0.971875L364.3 72.0719C354 65.2719 343 59.4719 331.5 54.6719C305.7 43.7719 278.3 38.1719 250.1 38.1719C221.9 38.1719 194.5 43.6719 168.7 54.6719C157.2 59.5719 146.2 65.3719 135.9 72.1719L63.8004 0.171875L2.70039 61.3719L74.7004 133.372C68.0004 143.672 62.2004 154.472 57.4004 165.872C46.5004 191.672 40.9004 219.072 40.9004 247.272C40.9004 275.472 46.4004 302.872 57.4004 328.672C62.3004 340.172 68.1004 351.072 74.8004 361.472L0.400391 435.872L61.6004 497.072L136 422.672C146.3 429.372 157.2 435.172 168.6 439.972C194.4 450.872 221.8 456.472 250 456.472C278.2 456.472 305.6 450.972 331.4 439.972C342.8 435.172 353.7 429.372 363.9 422.672L437.5 496.272L498.7 435.072L425.2 361.572ZM250 372.872C231.2 372.872 213.4 368.772 197.3 361.372C170.4 348.872 148.6 327.172 136.1 300.272C128.6 284.172 124.4 266.272 124.4 247.372C124.4 228.572 128.5 210.772 135.9 194.772C148.3 167.772 170.1 146.072 197 133.472C213.1 125.972 231 121.772 250 121.772C268.9 121.772 286.8 125.972 302.9 133.472C329.8 145.972 351.6 167.772 364 194.672C371.4 210.672 375.5 228.572 375.5 247.372C375.5 266.272 371.3 284.272 363.8 300.372C351.3 327.272 329.5 348.972 302.5 361.472C286.6 368.772 268.8 372.872 250 372.872Z" fill="black"/>
</g>
<defs>
<clipPath id="clip0_1_6573">
<rect width="500" height="500" fill="white" transform="translate(0 0.671875)"/>
</clipPath>
</defs>
</svg>
