<svg width="500" height="501" viewBox="0 0 500 501" fill="none" xmlns="http://www.w3.org/2000/svg">
<path d="M250 496.873C385.972 496.873 496.2 386.645 496.2 250.673C496.2 114.7 385.972 4.47266 250 4.47266C114.027 4.47266 3.7998 114.7 3.7998 250.673C3.7998 386.645 114.027 496.873 250 496.873Z" fill="url(#paint0_linear_1_6581)"/>
<path d="M356.4 126.572L355.1 130.172L350.7 141.772L347.8 149.272C325.7 205.572 308.6 232.272 290.3 232.272C279.8 232.272 273.6 229.172 265.5 221.772L263.2 219.572C257.4 214.072 255 212.672 249.4 212.672C246.5 212.672 241.3 216.472 234.7 225.472C227.9 234.772 220.4 248.472 212.3 266.572L211.6 268.272H289.9L280.2 289.072H207V374.672H185.5V126.572H356.4ZM326 147.372H207.1V230.072C221.4 204.572 234.9 191.772 249.5 191.772C260.8 191.772 267.5 195.072 275.9 202.672L278.3 204.872C283.7 209.972 285.8 211.172 290.4 211.172C295.4 211.372 309 189.272 326 147.372Z" fill="white"/>
<defs>
<linearGradient id="paint0_linear_1_6581" x1="250" y1="496.881" x2="250" y2="4.46406" gradientUnits="userSpaceOnUse">
<stop stop-color="#291C19"/>
<stop offset="0.5156" stop-color="#402A27"/>
<stop offset="1" stop-color="#4C3835"/>
</linearGradient>
</defs>
</svg>
