<svg width="500" height="501" viewBox="0 0 500 501" fill="none" xmlns="http://www.w3.org/2000/svg">
<g clip-path="url(#clip0_1_6584)">
<path d="M250 500.672C216.3 500.672 183.5 494.072 152.7 480.972C122.9 468.372 96.2 450.372 73.2 427.372C50.3 404.472 32.2 377.672 19.6 347.872C6.6 317.172 0 284.372 0 250.672C0 216.972 6.6 184.172 19.7 153.372C32.3 123.572 50.3 96.8719 73.3 73.8719C96.3 50.9719 123 32.8719 152.8 20.2719C183.5 7.27188 216.3 0.671875 250 0.671875C283.7 0.671875 316.5 7.27188 347.3 20.3719C377.1 32.9719 403.8 50.9719 426.8 73.9719C449.7 96.8719 467.8 123.672 480.4 153.472C493.4 184.272 500.1 217.072 500.1 250.772C500.1 284.472 493.5 317.272 480.4 348.072C467.8 377.872 449.8 404.572 426.8 427.572C403.9 450.472 377.1 468.572 347.3 481.172C316.5 494.072 283.7 500.672 250 500.672Z" fill="white"/>
<path d="M250 487.471C380.781 487.471 486.8 381.452 486.8 250.671C486.8 119.89 380.781 13.8711 250 13.8711C119.219 13.8711 13.2002 119.89 13.2002 250.671C13.2002 381.452 119.219 487.471 250 487.471Z" fill="black"/>
<path d="M255.8 206.172V315.272L362.6 250.572L255.8 206.172Z" fill="white"/>
<path d="M255.8 193.872L361.6 237.872L336.3 196.672L390.1 142.872L358 110.672L311.9 156.772L255.8 65.3721V193.872Z" fill="white"/>
<path d="M244.5 315.272V206.172L137.7 250.572L244.5 315.272Z" fill="white"/>
<path d="M138.6 237.872L244.5 193.872V65.3721L188.4 156.772L142.3 110.672L110.2 142.872L163.9 196.572L138.6 237.872Z" fill="white"/>
<path d="M361.4 284.472L255.8 348.472V433.272L299.3 372.072L344.6 417.372L376.8 385.272L326 334.472L361.4 284.472Z" fill="white"/>
<path d="M244.5 348.472L138.9 284.472L174.3 334.472L123.5 385.272L155.7 417.372L201 372.072L244.5 433.272V348.472Z" fill="white"/>
</g>
<defs>
<clipPath id="clip0_1_6584">
<rect width="500" height="500" fill="white" transform="translate(0 0.671875)"/>
</clipPath>
</defs>
</svg>
