<svg width="500" height="501" viewBox="0 0 500 501" fill="none" xmlns="http://www.w3.org/2000/svg">
<path d="M248.833 497.338C385.707 497.338 496.666 386.379 496.666 249.505C496.666 112.63 385.707 1.67188 248.833 1.67188C111.959 1.67188 1 112.63 1 249.505C1 386.379 111.959 497.338 248.833 497.338Z" fill="#1F9AD8"/>
<path d="M284.723 363.955C313.752 363.955 337.285 340.422 337.285 311.393C337.285 282.364 313.752 258.831 284.723 258.831C255.694 258.831 232.161 282.364 232.161 311.393C232.161 340.422 255.694 363.955 284.723 363.955Z" fill="white"/>
<path d="M175.642 105.101C175.642 105.101 214.64 49.7132 249.681 30.4972C284.722 11.2812 306.2 8.45417 322.025 12.9762C337.85 17.4972 357.066 25.9752 362.718 32.7572C368.37 39.5392 370.065 43.4962 370.065 43.4962C370.065 43.4962 343.925 33.6052 313.547 45.7572C288.794 55.6582 273.477 67.3382 254.768 83.6242C241.133 95.4932 240.739 99.2882 240.739 99.2882C240.739 99.2882 273.066 95.4232 325.062 110.117C377.058 124.811 390.977 148.62 399.454 162.185C407.932 175.749 411.888 192.705 411.888 192.705C411.888 192.705 368.369 161.62 304.503 155.403C240.637 149.186 201.074 149.186 201.074 149.186C201.074 149.186 164.902 201.748 140.034 267.875C115.166 334.002 82.9521 433.473 82.9521 433.473C82.9521 433.473 72.7791 365.086 100.473 276.917C128.167 188.748 148.514 152.011 148.514 152.011C148.514 152.011 108.951 152.576 70.5191 167.271C32.0871 181.966 4.39111 208.529 4.39111 208.529C4.39111 208.529 14.3021 172.92 58.0841 147.489C98.7061 123.893 118.558 116.404 175.642 105.101Z" fill="#FBFFFF"/>
</svg>
