<svg width="500" height="501" viewBox="0 0 500 501" fill="none" xmlns="http://www.w3.org/2000/svg">
<path d="M218.9 111.272C218.9 119.572 212.2 126.172 204 126.172H109.4C101.1 126.172 94.5 132.872 94.5 141.072V235.672C94.5 243.972 101.2 250.572 109.4 250.572H204C212.3 250.572 218.9 257.272 218.9 265.472V360.072C218.9 368.372 212.2 374.972 204 374.972H109.4C101.1 374.972 94.5 381.672 94.5 389.872V484.472C94.5 492.772 101.2 499.372 109.4 499.372H204C212.3 499.372 218.9 492.672 218.9 484.472V389.872C218.9 381.572 225.6 374.972 233.8 374.972H328.4C336.7 374.972 343.3 368.272 343.3 360.072V265.472C343.3 257.172 336.6 250.572 328.4 250.572H233.8C225.5 250.572 218.9 243.872 218.9 235.672V141.072C218.9 132.772 225.6 126.172 233.8 126.172H390.7C399 126.172 405.6 119.472 405.6 111.272V16.5719C405.6 8.27187 398.9 1.67188 390.7 1.67188H233.8C225.5 1.67188 218.9 8.37187 218.9 16.5719V111.272Z" fill="url(#paint0_linear_1_6601)"/>
<defs>
<linearGradient id="paint0_linear_1_6601" x1="-40.0136" y1="606.471" x2="487.135" y2="-118.007" gradientUnits="userSpaceOnUse">
<stop offset="0.0545332" stop-color="#00FED0"/>
<stop offset="0.298" stop-color="#00B3EC"/>
<stop offset="0.6109" stop-color="#9756FF"/>
<stop offset="0.992" stop-color="#D834FF"/>
</linearGradient>
</defs>
</svg>
