<svg width="500" height="501" viewBox="0 0 500 501" fill="none" xmlns="http://www.w3.org/2000/svg">
<path d="M104.72 52.886C104.782 81.733 83.2671 103.715 54.8131 103.879C26.4311 104.042 4.48313 82.25 4.15113 53.575C3.80813 23.915 25.8361 1.41902 54.9731 1.67402C83.2431 1.92102 104.658 23.967 104.72 52.886ZM54.4861 137.662C25.8761 137.849 4.14113 159.914 4.10113 188.814C4.06113 217.797 25.8731 239.95 54.4701 239.969C82.8201 239.988 104.625 217.766 104.716 188.762C104.808 159.634 83.0271 137.476 54.4861 137.662ZM195.234 95.673C218.126 95.884 238.284 76.029 238.39 53.166C238.496 30.249 218.646 9.96902 195.956 9.81402C172.641 9.65402 153.58 28.712 153.382 52.379C153.182 76.262 171.738 95.457 195.234 95.673ZM196.789 231.209C219.534 230.593 238.431 211.368 238.351 188.926C238.266 164.979 219.421 146.478 195.251 146.612C170.902 146.747 152.995 165.103 153.342 189.57C153.682 213.604 172.732 231.861 196.789 231.209ZM54.0431 282.115C30.9341 282.445 11.5731 302.233 11.7791 325.311C11.9921 349.148 30.6081 367.061 54.8911 366.794C79.7081 366.522 97.0861 348.969 96.8291 324.433C96.5801 300.786 77.3661 281.782 54.0431 282.115ZM26.6131 469.028C26.3371 485.156 39.1051 497.822 55.2001 497.386C70.5451 496.97 82.3861 484.632 82.2041 469.247C82.0201 453.65 70.1531 441.882 54.5691 441.843C39.1301 441.805 26.8741 453.722 26.6131 469.028ZM167.901 323.578C167.219 339.458 178.113 351.709 193.686 352.576C209.731 353.469 223.416 341.051 223.604 325.427C223.785 310.343 211.579 297.606 196.49 297.132C181.001 296.645 168.563 308.151 167.901 323.578ZM362.174 188.552C361.899 173.645 348.672 160.825 333.838 161.089C318.866 161.355 306.344 174.416 306.659 189.436C306.98 204.75 319.53 216.903 334.848 216.732C350.049 216.563 362.454 203.771 362.174 188.552ZM362.077 52.106C361.661 37.135 350.313 26.173 335.011 25.963C318.669 25.739 306.855 36.838 306.656 52.603C306.458 68.293 318.268 79.717 334.563 79.596C350.814 79.475 362.512 67.786 362.077 52.106ZM474.812 34.006C462.918 33.817 453.443 42.807 453.626 54.109C453.801 64.932 464.387 74.738 475.231 74.123C486.059 73.509 494.135 64.708 494.026 53.64C493.914 42.117 486.153 34.187 474.812 34.006ZM473.848 169.918C463.239 170.006 453.937 178.914 453.607 189.301C453.253 200.444 462.861 210.069 474.325 210.054C485.515 210.04 493.703 202.017 493.971 190.806C494.253 178.958 485.452 169.822 473.848 169.918ZM178.204 469.423C179.2 480.009 185.714 485.709 196.066 486.334C206.316 486.953 214.718 478.37 214.571 468.276C214.423 458.113 205.931 450.035 195.766 450.387C185.497 450.744 177.258 459.356 178.204 469.423ZM353.032 325.396C352.608 314.546 346.217 309.069 335.995 308.297C325.807 307.528 317.379 315.873 317.322 325.868C317.264 335.946 325.46 344.119 335.536 344.03C345.649 343.941 353.436 335.744 353.032 325.396Z" fill="#0DB07B"/>
</svg>
