<svg width="500" height="501" viewBox="0 0 500 501" fill="none" xmlns="http://www.w3.org/2000/svg">
<path d="M250 1.67188C112.6 1.67188 1 113.272 1 250.672C1 388.072 112.6 499.672 250 499.672C387.4 499.672 499 388.072 499 250.672C499 113.272 387.4 1.67188 250 1.67188ZM250 23.3719C375.7 23.3719 477.3 125.072 477.3 250.672C477.3 376.272 375.7 477.972 250 477.972C124.3 477.972 22.7 376.372 22.7 250.672C22.7 124.972 124.3 23.3719 250 23.3719ZM376.8 88.2719C337.9 108.272 303.7 138.272 271.7 167.372C267.8 170.972 259.8 176.272 258.3 180.072C257.1 183.072 257.3 188.172 256.7 192.072C256.2 195.972 255.7 200.172 255.1 203.672C253.9 211.172 252.8 218.572 248.2 223.672C242.6 219.172 243 207.672 241.1 198.772C239.9 198.372 239.2 199.972 238.3 200.872C231.3 207.672 223.1 215.672 215.9 222.472C213.2 240.872 210.7 260.572 206.5 277.872C205.2 283.172 204 289.372 200.1 292.872C195.3 284.372 195.1 269.672 194.9 256.372C194.8 251.172 194.2 245.972 194.5 241.072C193.3 240.572 192.1 242.472 191 243.572C187.9 246.772 183.8 251.172 180.7 254.572C182 274.472 185 299.472 183.8 321.172C183.5 326.372 183 332.872 180.5 333.272C176.7 333.872 171.7 318.972 170.5 315.872C167.8 308.172 166.2 301.872 164 294.772C162.6 294.172 162.1 296.372 161.6 297.172C154.7 308.672 154.2 327.372 155.5 347.072C149.1 333.472 141.6 321.172 133.2 310.072C131.4 307.672 130 308.272 131.2 311.172C136.5 323.872 141.1 338.972 145 353.472C137.5 342.772 125.9 334.972 113.2 328.772C109 326.672 107.8 329.072 111.3 332.472C119.9 340.672 127.6 349.772 135.5 358.672C130.8 363.772 127.4 374.772 131.4 383.872C133 380.772 134.2 377.972 136.3 374.372C137.7 371.972 140 367.172 143.6 367.472C147 367.772 149.6 376.472 148.3 381.372C145.7 391.572 134.3 403.372 129.9 409.972C128.1 412.672 128.1 414.572 130.2 412.672C139.7 403.972 149.2 394.872 155.6 383.572C163.8 390.772 174 395.472 184.8 399.372C188.4 400.672 188.5 399.472 185 397.272C181.6 395.072 178.4 392.572 175.7 389.672C170.5 384.072 164.8 376.472 165.1 366.872C168.3 367.672 168.3 370.772 169.8 372.772C178.2 384.272 195.3 388.372 212.5 390.272C215.8 390.672 215.8 389.272 212.8 388.372C196.6 383.472 183.2 375.272 177 358.472C206.4 362.672 251.2 368.372 277.2 352.972C244.4 353.272 213.8 350.972 183.3 348.472C192.7 332.672 220.3 329.872 244.5 329.572C250.5 329.472 258.2 331.372 261.9 330.072C263.8 329.372 266.2 324.172 268 321.672C281.7 302.072 295.6 282.772 308 263.272C298.7 262.972 287.7 264.872 282.9 259.372C286.2 251.972 296.9 250.372 307.4 250.272C309.7 250.272 312.2 250.972 314.3 250.272C317.2 249.272 322.9 240.472 325.9 236.572C336.6 222.572 348.4 206.972 358.4 193.972C365.6 184.572 372.9 174.972 378.9 164.372C384.8 153.872 390.4 141.072 390.7 126.872C391.1 109.872 385.4 95.8719 376.8 88.2719ZM342.9 146.272C322.6 176.672 303.5 207.972 281.1 236.572C258.8 265.072 233.6 291.072 210.1 317.472C250.6 256.872 296.5 201.272 342.9 146.272Z" fill="#354A51"/>
</svg>
