<svg width="500" height="501" viewBox="0 0 500 501" fill="none" xmlns="http://www.w3.org/2000/svg">
<path fill-rule="evenodd" clip-rule="evenodd" d="M274.2 174.272L364.3 122.272V226.272L274.2 174.272ZM364.3 396.172L245.6 464.772L126.9 396.272V275.672L245.6 344.172L364.3 275.672V396.172ZM126.9 122.272L217 174.272L126.9 226.272V122.272ZM259.9 198.972L350 250.872L259.9 302.872V198.972ZM231.3 302.872L141.3 250.872L231.3 198.872V302.872ZM350 97.4719L245.6 157.772L141.1 97.4719L245.6 37.1719L350 97.4719ZM98.3999 89.1719V242.772V259.172V412.772L245.6 497.772L392.8 412.672V259.172V242.672V89.1719L245.6 4.17188L98.3999 89.1719Z" fill="#040505"/>
</svg>
