<svg width="500" height="501" viewBox="0 0 500 501" fill="none" xmlns="http://www.w3.org/2000/svg">
<path d="M479.821 104.104H323.083L276.611 222.075H130.046V161.337H276.611L298.061 104.104H76.1204C70.363 104.104 65.6958 108.771 65.6958 114.528V222.075H29.9458L8.49579 279.275H65.6958V386.671C65.6958 392.505 70.4252 397.234 76.259 397.234H183.667L205.111 340.04H130.039V279.275H251.589L205.111 397.234H276.611L326.661 279.269H480.6C486.399 279.269 491.1 274.57 491.104 268.772V115.387C491.104 109.155 486.053 104.104 479.821 104.104ZM430.366 213.037C430.366 218.036 426.313 222.089 421.314 222.089H348.111L373.133 161.35H421.281C426.274 161.328 430.34 165.356 430.366 170.349V213.037Z" fill="#4096D0"/>
</svg>
