<svg width="500" height="501" viewBox="0 0 500 501" fill="none" xmlns="http://www.w3.org/2000/svg">
<path d="M176 15.4722C183.4 22.0722 250.2 107.972 254.8 116.972C210.3 116.072 173.1 131.872 144.8 165.972C116.7 199.972 108.4 239.272 117 283.772C148.4 259.972 178 235.672 209.3 212.072C232.4 241.672 255.1 270.672 278.3 300.372C262.6 313.272 246.8 325.072 231.3 337.272C216 349.272 200.7 361.372 185.3 373.472C217.4 414.572 249.2 455.172 281.2 495.972C256.1 503.372 197.6 499.672 153.5 480.672C88.7 452.672 42.5 405.972 17.6 339.972C-32 208.572 35.4 59.9722 176 15.4722ZM249.8 401.672C266 422.472 282.3 443.272 298.6 464.072C304.8 471.972 311 479.772 317.2 487.672C319.2 490.272 321.2 492.172 325.2 490.772C342.8 484.372 360.1 477.272 376.2 467.572C409.6 447.572 437.3 421.572 458.4 388.772C481.3 353.172 495.5 314.372 497.8 271.872C498.8 253.472 499 234.972 496.4 216.572C492.3 188.672 484.1 162.272 471.1 137.172C447.5 91.8722 413 56.9722 368.6 32.1722C335.8 13.8722 300.3 4.77217 263 2.17217C246.7 1.07217 230.3 2.17217 214 3.87217C213.3 3.97217 212.7 4.47217 211.2 5.17217C227.6 26.1722 243.7 46.9722 259.9 67.6722C276.1 88.4722 292.3 109.272 309 130.472C277.8 154.872 247 178.972 215.8 203.272C239.9 234.972 264.2 265.372 288.4 296.072C303.9 283.972 318.6 272.372 333.4 260.872C348.2 249.272 362.7 237.272 378.4 226.172C384.8 254.872 380.7 294.072 359.9 324.472C331 366.772 290.2 385.672 237.7 384.672C242.4 391.472 245.9 396.672 249.8 401.672ZM263.7 397.472C370.7 384.272 415.9 277.172 385.4 202.972C353.7 227.672 322.2 252.272 290.4 277.072C271.8 253.272 253.6 230.072 234.8 206.072C250.2 193.272 265.9 181.472 281.4 169.272C296.7 157.172 312.2 145.272 328.1 132.972C297.9 94.1722 267.9 55.7722 237.1 16.2722C241.3 15.9722 244.6 15.3722 248 15.4722C286.1 15.5722 322.2 23.8722 356.2 41.0722C381.2 53.7722 403 70.5722 422.1 91.0722C444.8 115.372 461.5 143.072 472.4 174.472C477.9 190.472 481.4 206.772 483.6 223.572C485.7 239.972 485.8 256.372 484.5 272.572C482.1 302.472 474 330.972 460.4 357.972C441.6 395.372 414.6 425.572 380 449.072C363.3 460.372 345.3 468.972 325.2 475.972C304.6 449.572 284.3 423.772 263.7 397.472Z" fill="#DD2664"/>
</svg>
