<svg width="500" height="501" viewBox="0 0 500 501" fill="none" xmlns="http://www.w3.org/2000/svg">
<path fill-rule="evenodd" clip-rule="evenodd" d="M99.1 9.17188H400.9C450.9 9.17188 491.4 49.6719 491.4 99.6719V401.472C491.4 451.472 450.9 491.972 400.9 491.972H99.1C49.1 491.972 8.60004 451.472 8.60004 401.472V99.7719C8.50004 49.7719 49.1 9.17188 99.1 9.17188Z" fill="#181818"/>
<path d="M400.9 499.672H99.1C45 499.672 1 455.672 1 401.572V99.7719C1 45.6719 45 1.67188 99.1 1.67188H400.9C455 1.67188 499 45.6719 499 99.7719V401.572C499 455.672 455 499.672 400.9 499.672ZM99.1 16.7719C53.3 16.7719 16.1 53.9719 16.1 99.7719V401.572C16.1 447.372 53.3 484.572 99.1 484.572H400.9C446.7 484.572 483.9 447.372 483.9 401.572V99.7719C483.9 53.9719 446.7 16.7719 400.9 16.7719H99.1Z" fill="white"/>
<path d="M133.1 233.072H99.1V212.672H133.1C133.1 212.072 133.1 211.672 133.1 211.172C133.2 205.272 133 199.272 133.4 193.372C134.1 181.972 137 171.272 143.9 161.872C151.1 152.072 161 146.472 172.6 143.672C182.1 141.372 191.7 141.172 201.4 141.972C211.4 142.872 221.3 145.072 230.6 148.672C231.1 148.872 231.7 149.072 232.3 149.372L226.5 167.772C225.1 167.272 223.9 166.672 222.6 166.272C210.2 161.672 197.4 160.472 184.4 162.472C169.6 164.772 160.6 174.072 158.2 188.972C157.3 194.372 157.4 199.772 157.4 205.172C157.4 207.672 157.4 210.072 157.4 212.672H217.7V232.972H157.5V358.872H133.1V233.072Z" fill="white"/>
<path d="M328.1 296.372C328.1 296.272 328 296.172 328 296.072C328 295.972 328.1 295.872 328.1 295.772C334 285.072 340.2 273.872 346.1 263.172C348.4 259.072 350.8 254.872 353.2 250.472H330.2C330.2 250.472 320 273.172 315.4 283.372H314.9C309.8 273.172 298.8 250.472 298.8 250.472L274.6 250.372C274.9 250.972 292.2 281.872 300.1 295.872C300.2 295.972 300.2 296.072 300.2 296.172L300.1 296.472C292.1 310.272 274.6 341.772 274.3 342.372L298.8 342.272C298.8 342.272 309.8 319.872 314.9 309.872H315.4C320 319.872 330.2 342.272 330.2 342.272H353.5C351.1 337.872 334 306.972 328.1 296.372ZM265.8 349.472C261.8 352.672 257.6 356.072 253.7 359.272C219.8 328.372 216 269.072 253.6 233.172C257.5 236.372 261.7 239.772 265.7 242.972C264.6 244.172 263.6 245.372 262.7 246.472C254.5 256.072 248.8 266.772 246.4 279.172C244.9 287.072 244.6 294.972 245.2 302.972C245.8 311.972 247.9 320.572 251.8 328.772C255.2 335.772 259.5 342.272 264.8 348.072C265 348.572 265.4 348.872 265.8 349.472ZM361.8 349.472C365.8 352.672 370 356.072 373.9 359.272C407.8 328.372 411.6 269.072 374 233.172C370.1 236.372 365.9 239.772 361.9 242.972C363 244.172 364 245.372 364.9 246.472C373.1 256.072 378.8 266.772 381.2 279.172C382.7 287.072 383 294.972 382.4 302.972C381.8 311.972 379.7 320.572 375.8 328.772C372.4 335.772 368.1 342.272 362.8 348.072C362.6 348.572 362.2 348.872 361.8 349.472Z" fill="#F7D509"/>
</svg>
