<svg width="500" height="501" viewBox="0 0 500 501" fill="none" xmlns="http://www.w3.org/2000/svg">
<g clip-path="url(#clip0_1_6623)">
<path d="M250 500.672C388.071 500.672 500 388.743 500 250.672C500 112.601 388.071 0.671875 250 0.671875C111.929 0.671875 0 112.601 0 250.672C0 388.743 111.929 500.672 250 500.672Z" fill="url(#paint0_linear_1_6623)"/>
<path fill-rule="evenodd" clip-rule="evenodd" d="M218.75 167.636V222.1C218.75 225.672 221.875 228.35 225 228.35H310.714C313.839 228.35 316.964 231.029 316.964 234.6V257.815C316.964 260.94 314.286 264.065 310.714 264.065H225C221.875 264.065 218.75 267.19 218.75 270.315V397.1C218.75 402.011 216.071 404.69 212.5 402.458L187.5 384.6C184.375 382.815 183.036 381.029 183.036 377.458V270.315C183.036 267.19 179.464 264.065 176.786 264.065H135.714C132.143 264.065 129.464 260.94 129.464 257.815V234.6C129.464 231.029 132.143 228.35 135.714 228.35H176.786C179.464 228.35 183.036 225.672 183.036 222.1V131.922C183.036 128.35 185.714 125.672 188.839 125.672H346.429C349.554 125.672 352.679 128.797 352.679 131.922V155.136C352.679 158.261 350 161.386 346.429 161.386H225C221.875 161.386 218.75 164.511 218.75 167.636Z" fill="white"/>
</g>
<defs>
<linearGradient id="paint0_linear_1_6623" x1="73.2232" y1="73.8951" x2="426.777" y2="427.449" gradientUnits="userSpaceOnUse">
<stop stop-color="#9A00FF"/>
<stop offset="1" stop-color="#6502FF"/>
</linearGradient>
<clipPath id="clip0_1_6623">
<rect width="500" height="500" fill="white" transform="translate(0 0.671875)"/>
</clipPath>
</defs>
</svg>
