<svg width="500" height="501" viewBox="0 0 500 501" fill="none" xmlns="http://www.w3.org/2000/svg">
<path d="M430.2 370.172L425.9 365.972C462.8 309.272 471.7 235.872 443.4 168.872C438.4 156.972 432.4 145.772 425.5 135.372L458.2 100.772C477.2 80.7723 492.6 64.0723 492.4 63.6723C492 62.3723 431.4 4.57227 430.7 4.57227C430.2 4.57227 414.9 20.2723 396.8 39.4723C380.5 56.6723 366.7 71.1723 363.8 74.0723C307.3 37.3723 234 28.4723 167.2 56.6723C156.8 61.0723 146.9 66.2723 137.5 72.0723L132.9 67.5723C123 57.9723 113.1 48.4723 103.2 38.8723C89.9 26.1723 76.4 13.1723 73.1 9.87227L67.2 4.07227L37.9 35.3723C21.8 52.4723 8.5 66.7723 8.3 67.0723C8.2 67.3723 22.7 81.8723 40.6 99.0723L75 132.372C51.7 166.572 38.5 207.672 38.5 250.772C38.5 292.272 50.5 330.972 71.2 363.672C65.5 369.872 52.8 383.372 38.3 398.772C18.7 419.572 2.7 436.572 2.5 436.972C22.2 456.772 42.2 476.272 62.5 495.472L64.6 497.172L95.7 464.372L131.2 426.672L131.9 425.872C165.4 448.372 205.8 461.572 249.2 461.572C277.4 461.672 305.3 455.972 331.3 444.972C343.1 439.972 354.2 434.072 364.6 427.272L367.5 430.172C390.3 452.372 413.1 474.372 436.1 496.272C436.7 496.472 495.7 434.072 495.6 433.372C495.5 433.072 455 393.772 430.2 370.172ZM121 250.872C121 180.172 178.5 122.672 249.2 122.672C319.9 122.672 377.4 180.172 377.4 250.872C377.4 321.572 319.9 379.072 249.2 379.072C178.5 379.072 121 321.572 121 250.872Z" fill="black"/>
</svg>
