<svg width="500" height="501" viewBox="0 0 500 501" fill="none" xmlns="http://www.w3.org/2000/svg">
<path fill-rule="evenodd" clip-rule="evenodd" d="M1.8999 499.272L479 102.072C484.8 96.9719 489.6 90.7719 492.9 83.7719C496.2 76.7719 498.1 69.172 498.4 61.3719C498.7 53.6719 497.3 45.8719 494.5 38.6719C491.7 31.4719 487.4 24.8719 481.9 19.3719C476.4 13.8719 469.9 9.57195 462.6 6.77195C455.4 3.97195 447.6 2.57195 439.9 2.87195C432.1 3.17195 424.5 4.97195 417.5 8.37195C410.5 11.6719 404.2 16.4719 399.1 22.2719L1.8999 499.272ZM232 76.1719L31.1999 226.772L181.8 25.9719C184.9 21.8719 188.8 18.4719 193.3 15.9719C197.8 13.4719 202.8 12.0719 207.9 11.6719C213 11.2719 218.2 12.0719 223 13.8719C227.8 15.6719 232.2 18.4719 235.8 22.0719C239.4 25.6719 242.3 30.0719 244.1 34.8719C245.9 39.6719 246.7 44.8719 246.3 49.9719C245.9 55.0719 244.5 60.0719 242 64.5719C239.5 69.172 236.1 73.0719 232 76.1719ZM475.2 319.372L274.4 469.972L425 269.172C428.1 265.072 432 261.672 436.5 259.172C441 256.672 446 255.272 451.1 254.872C456.2 254.472 461.4 255.272 466.2 257.072C471 258.872 475.4 261.672 479 265.272C482.6 268.872 485.5 273.272 487.3 278.072C489.1 282.872 489.8 288.072 489.5 293.172C489.1 298.272 487.7 303.272 485.2 307.772C482.7 312.372 479.3 316.272 475.2 319.372Z" fill="black"/>
</svg>
