<svg width="500" height="501" viewBox="0 0 500 501" fill="none" xmlns="http://www.w3.org/2000/svg">
<g clip-path="url(#clip0_1_6636)">
<path d="M459.4 113.771L250.4 0.771484L42.4004 113.771L250.4 234.971L330 189.271L296.4 169.371L250.4 196.571L109.2 114.671L250.4 39.1715L424.4 133.171L459.4 113.771Z" fill="black"/>
<path d="M28.2002 130.572V370.372L239.5 500.572V253.472L159.3 206.072V245.672L205.8 271.972V440.572L61.4002 350.972V150.872L28.2002 130.572Z" fill="black"/>
<path d="M261 346.172V253.872L472.7 130.572V370.772L261 500.572V460.872L439.5 350.972V189.272L294.6 271.972V327.172L261 346.172Z" fill="black"/>
</g>
<defs>
<clipPath id="clip0_1_6636">
<rect width="500" height="500" fill="white" transform="translate(0 0.671875)"/>
</clipPath>
</defs>
</svg>
