<svg width="500" height="501" viewBox="0 0 500 501" fill="none" xmlns="http://www.w3.org/2000/svg">
<g clip-path="url(#clip0_1_6640)">
<path d="M249.2 500.672C387.271 500.672 499.2 388.743 499.2 250.672C499.2 112.601 387.271 0.671875 249.2 0.671875C111.129 0.671875 -0.799805 112.601 -0.799805 250.672C-0.799805 388.743 111.129 500.672 249.2 500.672Z" fill="#FD0024"/>
<path d="M366.9 241.372H270.8L371.2 140.972C374.9 137.272 374.9 131.372 371.2 127.672C367.5 123.972 361.6 123.972 357.9 127.672L257.5 228.072V134.272C257.5 129.072 253.3 124.872 248.1 124.872C242.9 124.872 238.7 129.072 238.7 134.272V226.972L174.8 163.072C171.1 159.372 165.2 159.372 161.5 163.072C157.8 166.772 157.8 172.672 161.5 176.372L226.6 241.472H133.4C128.2 241.472 124 245.672 124 250.872C124 256.072 128.2 260.272 133.4 260.272H225.4L125.1 360.472C121.4 364.172 121.4 370.072 125.1 373.772C126.9 375.572 129.3 376.472 131.7 376.472C134.1 376.472 136.5 375.572 138.3 373.772L238.7 273.372V367.172C238.7 372.372 242.9 376.572 248.1 376.572C253.3 376.572 257.5 372.372 257.5 367.172V272.272L325.5 340.272C327.3 342.072 329.7 342.972 332.1 342.972C334.5 342.972 336.9 342.072 338.7 340.272C342.4 336.572 342.4 330.672 338.7 326.972L271.8 260.072H366.8C372 260.072 376.2 255.872 376.2 250.672C376.2 245.472 372 241.372 366.9 241.372Z" fill="white"/>
</g>
<defs>
<clipPath id="clip0_1_6640">
<rect width="500" height="500" fill="white" transform="translate(0 0.671875)"/>
</clipPath>
</defs>
</svg>
