<svg width="500" height="501" viewBox="0 0 500 501" fill="none" xmlns="http://www.w3.org/2000/svg">
<path d="M250.1 499.472C387.508 499.472 498.9 388.081 498.9 250.672C498.9 113.264 387.508 1.87207 250.1 1.87207C112.691 1.87207 1.2998 113.264 1.2998 250.672C1.2998 388.081 112.691 499.472 250.1 499.472Z" fill="url(#paint0_linear_1_6651)"/>
<path d="M286.4 296.872C286.4 266.172 311.3 241.272 342 241.272H499C497.8 207.372 489.7 175.272 476.2 146.072H342C327.4 146.072 313.1 148.072 299.4 152.272C298.5 149.672 297.5 146.972 296.4 144.472C288.8 126.572 278 110.372 264.1 96.5717C250.3 82.7717 234.1 71.8717 216.2 64.2717C197.6 56.3717 177.8 52.4717 157.5 52.4717H99.2C66.6 77.1717 40.4 109.872 23.1 147.572H157.3C188 147.572 212.9 172.472 212.9 203.172C212.9 233.872 188.1 258.672 157.4 258.672H1C2.1 292.572 9.9 324.672 23.2 353.872H157.4C172 353.872 186.3 351.872 200 347.672C200.9 350.272 201.9 352.972 203 355.472C210.6 373.372 221.4 389.572 235.3 403.372C249.1 417.172 265.3 428.072 283.2 435.672C301.8 443.572 321.6 447.472 341.9 447.472H402.4C434.6 422.572 460.5 389.872 477.3 352.272H342C311.3 352.572 286.4 327.672 286.4 296.872Z" fill="white"/>
<defs>
<linearGradient id="paint0_linear_1_6651" x1="74.0883" y1="74.7099" x2="426.013" y2="426.634" gradientUnits="userSpaceOnUse">
<stop stop-color="#FF7600"/>
<stop offset="1" stop-color="#FD2600"/>
</linearGradient>
</defs>
</svg>
