<svg width="500" height="501" viewBox="0 0 500 501" fill="none" xmlns="http://www.w3.org/2000/svg">
<path d="M250.026 394.155C201.88 317.246 154.382 241.374 106.423 164.763C202.314 164.763 297.259 164.763 393.143 164.763C345.428 241.242 298.014 317.238 250.026 394.155Z" fill="#FF7093"/>
<path d="M227.598 401.362C162.773 391.926 99.2001 382.672 34.9551 373.32C53.5141 309.104 71.9181 245.427 90.6371 180.658C136.417 254.43 181.647 327.314 227.598 401.362Z" fill="#9E4B69"/>
<path d="M409.429 180.653C428.151 245.437 446.523 309.012 465.101 373.297C400.945 382.648 337.296 391.924 272.456 401.375C318.304 327.493 363.528 254.618 409.429 180.653Z" fill="#9E4B69"/>
<path d="M386.289 141.894C295.546 141.894 204.518 141.894 112.346 141.894C158.473 95.4393 203.882 49.7063 248.864 4.4043C294.881 50.4443 340.571 96.1553 386.289 141.894Z" fill="#A55271"/>
<path d="M82.5086 404.253C134.434 411.543 186.358 418.833 238.522 426.157C238.522 448.996 238.522 471.423 238.522 494.76C186.067 464.713 134.124 434.959 82.1816 405.206C82.2906 404.889 82.3996 404.571 82.5086 404.253Z" fill="#613B5A"/>
<path d="M417.966 405.114C366.031 434.882 314.095 464.651 261.558 494.764C261.558 471.507 261.558 449.118 261.558 426.167C313.639 418.847 365.626 411.541 417.614 404.234C417.731 404.527 417.849 404.821 417.966 405.114Z" fill="#613B5A"/>
<path d="M310.793 31.7998C359.912 56.1208 409.031 80.4418 458.856 105.113C444.741 116.552 431.271 127.467 417.259 138.822C381.472 103.36 345.821 68.0338 310.17 32.7068C310.378 32.4038 310.585 32.1018 310.793 31.7998Z" fill="#613B5A"/>
<path d="M189.832 32.7516C154.289 67.9676 118.747 103.185 82.8178 138.784C69.0288 127.636 55.4518 116.66 41.1758 105.118C90.9378 80.4826 140.054 56.1676 189.169 31.8516C189.391 32.1516 189.611 32.4516 189.832 32.7516Z" fill="#613D5B"/>
<path d="M72.1624 157.721C59.2234 204.145 46.3404 250.372 33.4564 296.599C33.2294 296.55 33.0024 296.501 32.7754 296.453C32.7754 240.368 32.7754 184.283 32.7754 127.222C46.2824 137.681 59.1144 147.617 72.1624 157.721Z" fill="#613B5A"/>
<path d="M427.894 157.746C440.893 147.664 453.719 137.716 467.224 127.243C467.224 184.244 467.224 240.318 467.224 296.392C467.015 296.447 466.806 296.503 466.598 296.558C453.722 250.377 440.846 204.196 427.894 157.746Z" fill="#613B5A"/>
</svg>
