<svg width="500" height="501" viewBox="0 0 500 501" fill="none" xmlns="http://www.w3.org/2000/svg">
<path d="M388.7 214.672L425.6 177.772L250.1 2.37207L74.5996 177.872L111.5 214.772L74.5996 251.672L110.6 287.672L74.5996 323.672L250.1 499.172L425.6 323.672L388.7 287.672L424.7 251.672L388.7 214.672ZM97.3996 177.872L250.1 26.0721L401.9 177.872L377.3 202.472L250.1 75.1721L122 202.372L97.3996 177.872ZM250.1 330.472L171.1 251.472L250.1 172.472L329.1 251.472L250.1 330.472ZM340.4 262.072L365 286.672L250.1 403.372L134.2 287.572L158.8 262.972L250 353.372L340.4 262.072ZM250.1 147.972L158.9 239.172L134.2 214.672L250.1 98.8721L365.9 214.672L340.5 239.272L250.1 147.972ZM97.3996 250.672L122 226.072L146.6 250.672L122 275.272L97.3996 250.672ZM401.8 323.472L250.1 476.172L97.3996 323.472L122 298.872L249.2 426.072L376.4 298.872L401.8 323.472ZM352.7 250.672L377.3 226.072L401.9 250.672L377.3 275.272L352.7 250.672Z" fill="#2E2E2E"/>
</svg>
