<svg width="500" height="501" viewBox="0 0 500 501" fill="none" xmlns="http://www.w3.org/2000/svg">
<g clip-path="url(#clip0_1_6667)">
<path d="M250 500.672C388.071 500.672 500 388.743 500 250.672C500 112.601 388.071 0.671875 250 0.671875C111.929 0.671875 0 112.601 0 250.672C0 388.743 111.929 500.672 250 500.672Z" fill="#5326EC"/>
<path d="M455.1 255.872C454.7 261.572 454.5 267.372 453.8 272.972C446.1 333.172 417.7 381.272 368.1 416.472C331 442.772 289.2 454.972 243.8 453.272C191.2 451.372 146 431.772 108.1 395.472C107.8 395.172 107.8 393.772 108.1 393.472C155.7 346.372 203.3 299.272 251 252.272C252.1 251.272 253.6 250.672 255.1 250.572C321.8 250.672 388.5 250.772 455.1 251.072V255.872Z" fill="#FCFCFF"/>
<path d="M256.8 47.1719C262.4 47.5719 268 47.8719 273.6 48.4719C306.3 52.0719 336.4 62.8719 363.8 80.9719C364 81.0719 364.2 81.2719 364.3 81.4719L346.9 98.6719C343.1 102.472 339.3 106.172 335.5 109.872C335.3 110.072 335 110.072 334.7 110.172C334.4 110.172 334.1 110.172 333.9 110.072C306.2 94.0719 276.4 86.7719 244.4 87.9719C172.9 90.6719 110.3 140.872 92.9002 209.972C82.1002 252.772 87.9001 293.472 109.6 331.972C109.8 332.372 109.8 333.172 109.6 333.372C100.1 342.872 90.5002 352.372 80.9002 361.772C80.8002 361.872 80.7001 361.972 80.5001 362.072C79.6001 360.672 78.7001 359.372 77.9002 357.972C54.5002 319.972 44.2001 278.772 47.8001 234.272C55.2001 141.772 124.7 66.1719 216.8 50.3719C226.1 48.7719 235.6 48.3719 245.1 47.4719L247 47.2719L256.8 47.1719Z" fill="#FCFCFF"/>
<path d="M359.7 170.071C359.8 161.671 362.7 153.471 368.2 146.971C373.6 140.471 381.1 136.071 389.5 134.371C397.8 132.771 406.5 134.071 413.9 138.071C421.4 142.071 427.2 148.571 430.4 156.371C433.6 164.171 434 172.871 431.5 180.971C429 189.071 423.8 195.971 416.7 200.671C409.6 205.371 401.1 207.471 392.7 206.571C384.3 205.771 376.4 201.971 370.4 195.971C367 192.571 364.3 188.471 362.5 184.071C360.6 179.671 359.7 174.871 359.7 170.071Z" fill="#FCFCFF"/>
</g>
<defs>
<clipPath id="clip0_1_6667">
<rect width="500" height="500" fill="white" transform="translate(0 0.671875)"/>
</clipPath>
</defs>
</svg>
