<svg width="500" height="501" viewBox="0 0 500 501" fill="none" xmlns="http://www.w3.org/2000/svg">
<path d="M250.6 498.971C387.898 498.971 499.2 387.669 499.2 250.371C499.2 113.073 387.898 1.77148 250.6 1.77148C113.302 1.77148 2 113.073 2 250.371C2 387.669 113.302 498.971 250.6 498.971Z" fill="#0E1027"/>
<path d="M397.2 213.672C398.8 213.672 400.1 212.372 400.1 210.872C400.1 146.372 348.6 94.1719 285.1 94.1719C221.6 94.1719 170.1 146.472 170.1 210.872C170.1 212.472 171.4 213.672 173 213.672H397.2Z" fill="#53CBC8"/>
<path d="M128.3 248.771C124.2 248.771 120.8 245.371 120.8 241.271C120.8 237.171 124.2 233.771 128.3 233.771C132.4 233.771 135.8 237.171 135.8 241.271C135.8 245.371 132.4 248.771 128.3 248.771Z" fill="#DC167C"/>
<path d="M416.8 248.771H153.1C149 248.771 145.6 245.371 145.6 241.271C145.6 237.171 149 233.771 153.1 233.771H416.8C420.9 233.771 424.3 237.171 424.3 241.271C424.3 245.371 420.9 248.771 416.8 248.771Z" fill="#DC167C"/>
<path d="M128.3 312.672C124.2 312.672 120.8 309.272 120.8 305.172C120.8 301.072 124.2 297.672 128.3 297.672C132.4 297.672 135.8 301.072 135.8 305.172C135.8 309.272 132.4 312.672 128.3 312.672Z" fill="#DC167C"/>
<path d="M386 312.672H153C148.9 312.672 145.5 309.272 145.5 305.172C145.5 301.072 148.9 297.672 153 297.672H386C390.1 297.672 393.5 301.072 393.5 305.172C393.5 309.272 390.2 312.672 386 312.672Z" fill="#DC167C"/>
<path d="M87.2998 344.672C83.1998 344.672 79.7998 341.272 79.7998 337.172C79.7998 333.072 83.1998 329.672 87.2998 329.672C91.3998 329.672 94.7998 333.072 94.7998 337.172C94.7998 341.272 91.4998 344.672 87.2998 344.672Z" fill="#DC167C"/>
<path d="M203.5 344.672H112.1C108 344.672 104.6 341.272 104.6 337.172C104.6 333.072 108 329.672 112.1 329.672H203.5C207.6 329.672 211 333.072 211 337.172C211 341.272 207.7 344.672 203.5 344.672Z" fill="#DC167C"/>
<path d="M246.5 375.372C242.4 375.372 239 371.972 239 367.872C239 363.772 242.4 360.372 246.5 360.372C250.6 360.372 254 363.772 254 367.872C254 371.972 250.7 375.372 246.5 375.372Z" fill="#DC167C"/>
<path d="M389.8 375.372H271.3C267.2 375.372 263.8 371.972 263.8 367.872C263.8 363.772 267.2 360.372 271.3 360.372H389.8C393.9 360.372 397.3 363.772 397.3 367.872C397.3 371.972 393.9 375.372 389.8 375.372Z" fill="#DC167C"/>
<path d="M174.1 407.072C170 407.072 166.6 403.672 166.6 399.572C166.6 395.472 170 392.072 174.1 392.072C178.2 392.072 181.6 395.472 181.6 399.572C181.6 403.672 178.2 407.072 174.1 407.072Z" fill="#DC167C"/>
<path d="M317.3 407.072H198.9C194.8 407.072 191.4 403.672 191.4 399.572C191.4 395.472 194.8 392.072 198.9 392.072H317.4C321.5 392.072 324.9 395.472 324.9 399.572C324.8 403.672 321.5 407.072 317.3 407.072Z" fill="#DC167C"/>
<path d="M426.9 344.672H233.6C229.5 344.672 226.1 341.272 226.1 337.172C226.1 333.072 229.5 329.672 233.6 329.672H426.9C431 329.672 434.4 333.072 434.4 337.172C434.4 341.272 431 344.672 426.9 344.672Z" fill="#DC167C"/>
<path d="M73.5 280.372C69.4 280.372 66 276.972 66 272.872C66 268.772 69.4 265.372 73.5 265.372C77.6 265.372 81 268.772 81 272.872C81 277.072 77.7 280.372 73.5 280.372Z" fill="#DC167C"/>
<path d="M293.1 280.372H98.2998C94.1998 280.372 90.7998 276.972 90.7998 272.872C90.7998 268.772 94.1998 265.372 98.2998 265.372H293.1C297.2 265.372 300.6 268.772 300.6 272.872C300.6 277.072 297.3 280.372 293.1 280.372Z" fill="#DC167C"/>
</svg>
