<svg width="500" height="501" viewBox="0 0 500 501" fill="none" xmlns="http://www.w3.org/2000/svg">
<g clip-path="url(#clip0_1_6688)">
<path d="M317.7 18.8717C275.8 -5.32832 224.1 -5.32832 182.2 18.8717L83.0999 76.0717C41.1999 100.272 15.3999 144.972 15.3999 193.372V307.872C15.3999 356.272 41.1999 400.972 83.0999 425.172L182.3 482.472C224.2 506.672 275.9 506.672 317.8 482.472L417 425.172C458.9 400.972 484.7 356.272 484.7 307.872V193.372C484.7 144.972 458.9 100.272 417 76.0717L317.7 18.8717Z" fill="url(#paint0_radial_1_6688)"/>
<path fill-rule="evenodd" clip-rule="evenodd" d="M204.8 57.9717L105.6 115.272C77.6999 131.372 60.3999 161.272 60.3999 193.472V307.972C60.3999 340.272 77.5999 370.072 105.6 386.172L204.8 443.472C232.7 459.572 267.2 459.572 295.1 443.472L394.3 386.172C422.2 370.072 439.5 340.172 439.5 307.972V193.372C439.5 161.072 422.3 131.272 394.3 115.172L295.1 57.8717C267.2 41.7717 232.8 41.7717 204.8 57.9717ZM182.3 18.8717C224.2 -5.32832 275.9 -5.32832 317.8 18.8717L417 76.1717C458.9 100.372 484.7 145.072 484.7 193.472V307.972C484.7 356.372 458.9 401.072 417 425.272L317.8 482.572C275.9 506.772 224.2 506.772 182.3 482.572L83.0999 425.272C41.1999 401.072 15.3999 356.372 15.3999 307.972V193.372C15.3999 144.972 41.1999 100.272 83.0999 76.0717L182.3 18.8717Z" fill="#63EDEE"/>
<path fill-rule="evenodd" clip-rule="evenodd" d="M227.5 98.2715H271.2V129.771C318.9 136.971 353.1 168.471 358.5 210.971H298C292 189.871 273.9 176.971 250.4 176.971C215.6 176.971 195.1 203.871 195.1 250.271C195.1 297.471 217.8 326.071 253.1 326.071C280.8 326.071 300.2 309.871 301.9 285.971L302.1 282.371H258V240.671H361.3V269.871C361.3 328.471 328.2 366.571 271.4 373.571V402.971H227.7V372.971C167.9 363.971 132.7 320.371 132.7 250.971C132.7 182.071 168.3 138.271 227.7 129.671V98.2715H227.5Z" fill="#63EDEE"/>
</g>
<defs>
<radialGradient id="paint0_radial_1_6688" cx="0" cy="0" r="1" gradientUnits="userSpaceOnUse" gradientTransform="translate(611.26 -121.88) rotate(132.374) scale(871.083 794.854)">
<stop stop-color="#29E7E8"/>
<stop offset="1" stop-color="#651FFF"/>
</radialGradient>
<clipPath id="clip0_1_6688">
<rect width="500" height="500" fill="white" transform="translate(0 0.671875)"/>
</clipPath>
</defs>
</svg>
