<svg width="500" height="501" viewBox="0 0 500 501" fill="none" xmlns="http://www.w3.org/2000/svg">
<g clip-path="url(#clip0_1_6692)">
<path fill-rule="evenodd" clip-rule="evenodd" d="M494.8 250.672C494.8 388.772 385.2 500.672 250 500.672C114.8 500.672 5.2002 388.772 5.2002 250.672C5.2002 112.572 114.8 0.671875 250 0.671875C385.2 0.671875 494.8 112.572 494.8 250.672ZM384.7 252.472L419.7 202.472H369L334 252.472L370.7 302.472C342.7 366.772 267.5 397.072 202.8 368.572C171.3 354.272 146.8 329.272 134.6 297.172C122.4 265.072 124.1 231.072 136.3 200.772C164.3 136.472 239.5 106.172 304.2 134.672C325.2 143.572 342.7 157.872 354.9 173.972H410.9C381.2 111.372 318.2 75.6719 253.5 75.6719C229 75.6719 202.8 81.0719 178.3 93.5719C136.3 113.172 103.1 148.972 89.1002 193.572C73.4002 238.172 76.9002 284.672 96.1002 325.672C138.1 413.172 243 448.872 328.7 407.772C351.4 397.072 370.7 382.772 386.4 363.172C402.1 345.272 414.4 323.872 421.4 300.672L384.7 252.472ZM251.8 252.472L288.5 300.672H339.2L304.2 252.472L339.2 202.472H288.5L251.8 252.472Z" fill="black"/>
</g>
<defs>
<clipPath id="clip0_1_6692">
<rect width="500" height="500" fill="white" transform="translate(0 0.671875)"/>
</clipPath>
</defs>
</svg>
