<svg width="500" height="501" viewBox="0 0 500 501" fill="none" xmlns="http://www.w3.org/2000/svg">
<path d="M250 499.672C387.519 499.672 499 388.191 499 250.672C499 113.153 387.519 1.67188 250 1.67188C112.481 1.67188 1 113.153 1 250.672C1 388.191 112.481 499.672 250 499.672Z" fill="url(#paint0_linear_1_6694)"/>
<path d="M351.5 182.672C356.3 182.672 360.1 178.772 360.1 174.072C360.1 169.372 356.2 165.472 351.5 165.472H290V108.972C290 104.172 286.1 100.372 281.4 100.372C276.7 100.372 272.8 104.272 272.8 108.972V165.472H225.6V108.972C225.6 104.172 221.7 100.372 217 100.372C212.2 100.372 208.4 104.272 208.4 108.972V165.472H139.8V327.972H208.4V383.072C208.4 387.872 212.3 391.672 217 391.672C221.8 391.672 225.6 387.772 225.6 383.072V327.972H272.8V383.072C272.8 387.872 276.7 391.672 281.4 391.672C286.1 391.672 290 387.772 290 383.072V327.972H358V233.972H220C215.2 233.972 211.4 237.872 211.4 242.572C211.4 247.272 215.3 251.172 220 251.172H340.7V310.572H156.9V182.672H351.5Z" fill="#272324"/>
<path d="M250 40.1719C134 40.1719 39.5 134.672 39.5 250.672C39.5 366.672 133.9 461.172 250 461.172C366.1 461.172 460.5 366.672 460.5 250.672C460.5 134.672 366 40.1719 250 40.1719ZM250 443.772C143.5 443.772 56.9 357.172 56.9 250.672C56.9 144.172 143.5 57.5719 250 57.5719C356.5 57.5719 443.1 144.172 443.1 250.672C443.1 357.172 356.5 443.772 250 443.772Z" fill="#272324"/>
<defs>
<linearGradient id="paint0_linear_1_6694" x1="73.9304" y1="74.6023" x2="426.07" y2="426.741" gradientUnits="userSpaceOnUse">
<stop stop-color="#D3B55B"/>
<stop offset="1" stop-color="#DEC77B"/>
</linearGradient>
</defs>
</svg>
