<svg width="500" height="501" viewBox="0 0 500 501" fill="none" xmlns="http://www.w3.org/2000/svg">
<path d="M269.09 268.895C289.251 279.216 303.779 277.765 316.614 264.846C326.166 255.232 332.011 235.28 319.755 219.138C322.33 216.562 324.901 213.989 327.469 211.419C347.783 239.367 352.113 290.442 317.48 327.025C280.35 366.244 219.634 366.602 181.699 327.479C145.943 290.602 151.189 239.281 171.178 211.353C173.961 214.234 176.731 217.101 179.52 219.988C169.496 237.152 171.07 253.419 185.945 266.839C199.155 278.757 214.277 279.239 229.661 269.759C235.954 276.259 242.279 282.791 249.031 289.765C256.122 282.387 262.683 275.561 269.09 268.895Z" fill="#039DBD"/>
<path d="M144.514 238.622C138.072 270.747 144.281 299.892 163.572 326.779C158.228 326.177 153.419 325.681 148.621 325.088C125.142 322.187 101.986 317.761 79.632 309.829C59.615 302.726 40.908 293.311 25.663 278.057C15.008 267.396 7.60303 254.831 3.51103 240.32C3.42103 239.999 3.34703 239.668 3.31703 239.337C3.30003 239.152 3.39003 238.958 3.46403 238.622C50.369 238.622 97.275 238.622 144.514 238.622Z" fill="#039DBD"/>
<path d="M495.864 238.695C494.143 243.334 492.73 247.782 490.874 252.038C482.105 272.149 466.799 286.105 448.117 296.715C423.495 310.698 396.563 317.708 368.904 322.284C358.4 324.022 347.793 325.14 337.231 326.529C336.736 326.594 336.226 326.537 335.149 326.537C344.677 313.672 351.03 299.837 354.269 284.631C357.512 269.406 357.377 254.162 354.085 238.695C401.304 238.695 448.253 238.695 495.864 238.695Z" fill="#039DBD"/>
<path d="M249.232 274.543C223.972 249.256 198.503 223.76 172.727 197.958C192.622 175.625 217.457 163.277 247.711 162.846C279.212 162.397 305.139 174.721 325.95 197.91C300.148 223.683 274.668 249.135 249.232 274.543ZM249.378 261.63C270.554 240.497 291.688 219.406 313.101 198.037C292.479 178.823 268.387 170.044 240.427 172.601C219.202 174.542 201.041 183.308 185.752 197.935C207.134 219.34 228.205 240.434 249.378 261.63Z" fill="#039DBD"/>
<path d="M282.5 256.348C291.524 247.456 300.46 238.652 309.426 229.818C315.413 234.587 315.27 247.792 308.858 254.82C302.115 262.212 288.811 263.034 282.5 256.348Z" fill="#039DBD"/>
<path d="M190.024 230.642C198.89 239.543 207.687 248.374 216.486 257.207C211.272 262.592 198.987 262.083 192.549 256.031C185.446 249.356 184.276 237.117 190.024 230.642Z" fill="#039DBD"/>
</svg>
