<svg width="500" height="501" viewBox="0 0 500 501" fill="none" xmlns="http://www.w3.org/2000/svg">
<path d="M225.1 156.872C281.7 156.872 314.4 168.572 333.2 180.872C323.5 177.372 312.2 177.772 302 183.672L107.3 296.672C98 302.072 87.9 304.672 77.8 304.672C67.1 304.672 56.6 301.772 47.4 296.272C39.1 291.272 32 284.272 26.8 275.272C21.4 265.872 18.8 255.472 18.9 245.372C19.1 225.372 29.6 205.872 48.1 195.072L64.1 185.772C105.8 171.472 163.5 156.872 225.1 156.872Z" fill="url(#paint0_linear_1_6707)"/>
<path d="M357 207.172C356.8 206.772 356.6 206.272 356.4 205.772C353.1 193.872 344.1 184.872 333.1 180.872C314.3 168.572 281.6 156.872 225 156.872C163.5 156.872 105.7 171.572 64.1 185.772L219.8 95.1721C227.5 94.3721 235.6 93.7721 241.7 93.7721C258.5 93.7721 301.4 92.3721 330.9 128.072C353.1 154.772 356.5 194.572 357 207.172Z" fill="url(#paint1_linear_1_6707)"/>
<path d="M479.1 81.8716L478.1 438.172C478.1 454.772 471.3 469.772 460.4 480.572C449.5 491.472 434.5 498.172 417.9 498.172C384.7 498.172 357.7 471.272 357.7 438.072V215.972C357.7 214.672 357.6 213.472 357.5 212.172C357.4 210.972 357.2 209.772 357 208.572C357 208.172 357 207.772 357 207.272C356.5 194.672 353 154.872 331 128.172C301.5 92.3716 258.6 93.8716 241.8 93.8716C235.7 93.8716 227.6 94.4716 219.9 95.2716L360.6 13.4716C413.3 -17.2284 479.3 20.9716 479.1 81.8716Z" fill="url(#paint2_linear_1_6707)"/>
<path d="M134.5 406.772L223.6 355.372C235.5 348.472 250.4 357.172 250.3 370.872L249.8 469.572C249.7 483.372 237.4 488.572 222.9 484.872C185.7 475.572 156.5 457.772 134.4 432.672C125.9 422.872 124.6 412.472 134.5 406.772Z" fill="url(#paint3_linear_1_6707)"/>
<defs>
<linearGradient id="paint0_linear_1_6707" x1="176.072" y1="304.63" x2="176.072" y2="156.834" gradientUnits="userSpaceOnUse">
<stop stop-color="#56DDB0"/>
<stop offset="1" stop-color="#156476"/>
</linearGradient>
<linearGradient id="paint1_linear_1_6707" x1="178.672" y1="251.805" x2="273.186" y2="88.1014" gradientUnits="userSpaceOnUse">
<stop offset="0.3245" stop-color="#66F4AF"/>
<stop offset="1" stop-color="#24637F"/>
</linearGradient>
<linearGradient id="paint2_linear_1_6707" x1="349.516" y1="2.55842" x2="349.516" y2="498.174" gradientUnits="userSpaceOnUse">
<stop stop-color="#50FF93"/>
<stop offset="1" stop-color="#25C2F1"/>
</linearGradient>
<linearGradient id="paint3_linear_1_6707" x1="127.55" y1="419.547" x2="250.33" y2="419.547" gradientUnits="userSpaceOnUse">
<stop stop-color="#35DAC6"/>
<stop offset="1" stop-color="#30C4DB"/>
</linearGradient>
</defs>
</svg>
