<svg width="500" height="501" viewBox="0 0 500 501" fill="none" xmlns="http://www.w3.org/2000/svg">
<path d="M250 496.682C385.867 496.682 496.01 386.539 496.01 250.672C496.01 114.804 385.867 4.66211 250 4.66211C114.133 4.66211 3.99017 114.804 3.99017 250.672C3.99017 386.539 114.133 496.682 250 496.682Z" fill="#002D64"/>
<path d="M295.955 213.77C308.107 201.618 314.701 185.627 314.701 168.406C314.7 153.373 309.424 138.816 299.792 127.273L337.087 89.9784L328.772 81.9092L291.477 119.204C279.964 109.61 265.695 104.296 250.59 104.296C215.159 104.32 186.456 133.063 186.48 168.494C186.491 185.472 193.233 201.754 205.226 213.77C215.854 224.398 229.729 231.04 244.637 232.32V279.603C229.696 280.842 215.703 287.428 205.226 298.152C180.232 323.23 180.232 363.802 205.226 388.88C217.379 401.033 233.37 407.626 250.59 407.626C267.607 407.677 283.938 400.929 295.955 388.88C308.107 376.727 314.701 360.737 314.701 343.516C314.701 326.295 308.107 310.305 295.955 298.152C285.327 287.524 271.452 280.882 256.544 279.603V232.319C271.488 231.091 285.484 224.503 295.955 213.77ZM287.64 306.418C297.431 316.406 302.991 329.444 302.991 343.467C303.013 357.368 297.487 370.704 287.64 380.516C277.848 390.504 264.613 395.867 250.591 395.867C236.689 395.889 223.353 390.363 213.542 380.516C203.75 370.528 198.191 357.489 198.191 343.467C198.168 329.565 203.694 316.229 213.542 306.418C223.333 296.43 236.568 291.067 250.591 291.067C264.662 291.116 277.848 296.43 287.64 306.418ZM250.59 221.003C236.689 221.025 223.353 215.5 213.541 205.652C203.75 195.664 198.19 182.625 198.19 168.603C198.177 154.703 203.701 141.371 213.541 131.554C223.333 121.566 236.568 116.203 250.59 116.203C264.492 116.181 277.828 121.706 287.639 131.554C297.627 141.345 302.99 154.581 302.99 168.603C303.013 182.504 297.487 195.84 287.639 205.652C277.848 215.689 264.662 221.003 250.59 221.003Z" fill="white"/>
</svg>
