<svg width="500" height="501" viewBox="0 0 500 501" fill="none" xmlns="http://www.w3.org/2000/svg">
<path d="M413.859 159.058H252.038L169.787 299.719H221.641L277.071 204.654H388.23L442.766 299.719L387.634 395.083L281.759 395.348L249.999 345.911H248.415L202.338 356.518L249.999 440.381H414.455L495.514 299.719L413.859 159.058Z" fill="#11466B"/>
<path d="M196.31 345.911L202.338 356.518L248.415 345.911H196.31Z" fill="#203361"/>
<path d="M330.649 204.654H277.071L267.169 221.637L330.172 205.488L330.649 204.654Z" fill="#F6C329"/>
<path d="M267.169 221.636L221.641 299.718H113.275L58.041 204.569L113.44 109.799L223.031 109.554L252.038 159.057H303.923L248.332 63.2295H87.262L4.58899 204.653L86.193 345.911H249.999L330.172 205.487L267.169 221.636Z" fill="#F8DC1A"/>
</svg>
