<svg width="500" height="501" viewBox="0 0 500 501" fill="none" xmlns="http://www.w3.org/2000/svg">
<path d="M246.6 7.27148C380.7 7.27148 489.3 115.971 489.3 249.971V251.071C489.3 385.171 380.6 493.871 246.5 493.871C228.5 493.871 213.9 479.271 213.9 461.271C213.9 443.271 228.5 429.571 246.5 429.571H248C343.5 429.571 423.9 351.171 423.9 255.671V232.271C423.9 224.671 417.7 218.471 407.2 218.471H245C226.7 218.471 211.9 233.271 211.9 251.571C211.9 268.871 226 282.971 243.3 282.971H337.5C343 282.971 347.5 287.471 347.5 292.971C347.5 314.571 303.3 362.471 253.2 362.471H246C183 362.471 131.8 311.571 131.5 248.471C131.5 247.371 131.5 246.271 131.5 245.271C133.2 174.271 203.5 122.371 277.6 143.571C304.7 151.371 317.4 171.471 345.5 171.471C361.1 171.471 373.8 158.871 374 143.271C374 106.471 309.7 74.0715 262.5 71.6715H246.6C228.6 71.6715 213.9 59.0715 213.5 41.0715C213.1 22.5715 228.1 7.27148 246.6 7.27148Z" fill="#232A7E"/>
<path d="M146.5 96.8719C162.848 96.8719 176.1 83.6195 176.1 67.2719C176.1 50.9242 162.848 37.6719 146.5 37.6719C130.152 37.6719 116.9 50.9242 116.9 67.2719C116.9 83.6195 130.152 96.8719 146.5 96.8719Z" fill="#008BCD"/>
<path d="M71.4001 175.971C87.7477 175.971 101 162.719 101 146.371C101 130.024 87.7477 116.771 71.4001 116.771C55.0524 116.771 41.8 130.024 41.8 146.371C41.8 162.719 55.0524 175.971 71.4001 175.971Z" fill="#008BCD"/>
<path d="M41.2001 279.672C57.5477 279.672 70.8001 266.419 70.8001 250.072C70.8001 233.724 57.5477 220.472 41.2001 220.472C24.8525 220.472 11.6001 233.724 11.6001 250.072C11.6001 266.419 24.8525 279.672 41.2001 279.672Z" fill="#008BCD"/>
<path d="M70.6 382.772C86.9476 382.772 100.2 369.52 100.2 353.172C100.2 336.825 86.9476 323.572 70.6 323.572C54.2524 323.572 41 336.825 41 353.172C41 369.52 54.2524 382.772 70.6 382.772Z" fill="#008BCD"/>
<path d="M146.5 463.272C162.848 463.272 176.1 450.02 176.1 433.672C176.1 417.325 162.848 404.072 146.5 404.072C130.152 404.072 116.9 417.325 116.9 433.672C116.9 450.02 130.152 463.272 146.5 463.272Z" fill="#008BCD"/>
</svg>
