<svg width="500" height="501" viewBox="0 0 500 501" fill="none" xmlns="http://www.w3.org/2000/svg">
<path d="M251.2 497.272C387.504 497.272 498 386.776 498 250.472C498 114.168 387.504 3.67188 251.2 3.67188C114.896 3.67188 4.3999 114.168 4.3999 250.472C4.3999 386.776 114.896 497.272 251.2 497.272Z" fill="#FBE300"/>
<path fill-rule="evenodd" clip-rule="evenodd" d="M206.1 276.672C181.8 276.672 162.1 296.472 162.1 320.772C162.1 323.172 162.3 325.472 162.7 327.772H186.9C186.1 325.572 185.6 323.272 185.6 320.772C185.6 309.472 194.8 300.172 206.1 300.172C217.4 300.172 226.6 309.372 226.6 320.772C226.6 323.272 226.1 325.572 225.3 327.772H249.5C249.9 325.472 250.1 323.172 250.1 320.772C250.1 296.472 230.4 276.672 206.1 276.672Z" fill="#00191B"/>
<path fill-rule="evenodd" clip-rule="evenodd" d="M383.6 292.072C374.6 290.572 366 294.772 361.4 302.072C360.5 307.672 359.3 313.272 357.7 318.672C355.9 324.872 359.5 331.472 365.7 333.272C366.8 333.572 367.9 333.772 369 333.772C374.1 333.772 378.8 330.372 380.3 325.272C383.3 314.672 385.3 303.772 386.2 292.772C385.3 292.472 384.5 292.272 383.6 292.072Z" fill="#00191B"/>
<path fill-rule="evenodd" clip-rule="evenodd" d="M304.7 223.871C311.2 223.871 316.4 218.571 316.4 212.071C316.4 205.571 311.1 200.271 304.7 200.271C298.3 200.271 293 205.571 293 212.071C292.9 218.571 298.2 223.871 304.7 223.871Z" fill="#00191B"/>
<path fill-rule="evenodd" clip-rule="evenodd" d="M427.8 261.272C426.5 257.572 422.4 255.772 418.8 257.072C408.3 260.872 397.3 263.272 386.3 264.272C382.5 219.572 361.2 175.972 328.7 147.872C301.4 124.272 268.8 113.872 236.7 118.572C200 123.972 174.4 150.772 174.4 183.672C174.4 209.272 189.5 231.472 211.3 241.672L229.3 223.172C211.3 219.072 197.9 202.872 197.9 183.672C197.9 166.472 211.1 146.072 240.1 141.772C272.4 136.972 297.7 152.072 313.3 165.572C340.7 189.372 358.9 226.072 362.6 264.072C344.9 262.372 327.8 256.972 312.7 248.472C310.4 247.172 307.6 246.672 304.8 247.172C298.6 248.372 294.5 254.472 295.8 260.672L295.9 261.372C299.9 279.572 299.7 298.772 295.5 316.872C294.7 320.472 293.6 324.072 292.5 327.572H317C317.5 325.772 317.9 323.972 318.4 322.272C321.9 307.372 323 292.072 321.9 276.872C335.5 280.972 349.6 282.972 363.6 283.072C384.6 283.172 405.4 278.572 424.2 269.972C427.4 268.672 429 264.772 427.8 261.272Z" fill="#00191B"/>
<path fill-rule="evenodd" clip-rule="evenodd" d="M161.7 189.672C163.3 186.472 164.2 183.072 164.2 179.472C164.2 173.472 162.1 167.872 158.4 163.172C116.5 190.072 90 237.072 90 288.472C90 301.872 91.8 315.072 95.3 327.872H119.8C115.6 315.272 113.5 302.072 113.5 288.472C113.4 249.172 131.8 212.972 161.7 189.672Z" fill="#00191B"/>
</svg>
