<svg width="500" height="501" viewBox="0 0 500 501" fill="none" xmlns="http://www.w3.org/2000/svg">
<path d="M469.067 234.131C469.224 237.393 469.442 239.838 469.443 242.284C469.464 281.998 469.282 321.712 469.573 361.424C469.651 372.133 465.391 379.237 456.241 384.508C392.914 420.996 329.659 457.611 266.48 494.355C257.431 499.618 249.132 499.093 240.358 493.983C209.361 475.93 81.7479 401.886 48.7669 383.223C38.8809 377.629 34.1799 370.596 34.2339 358.892C34.5729 286.236 34.5349 213.577 34.2559 140.92C34.2159 130.385 38.1989 123.603 47.1569 118.441C101.885 86.9061 156.475 55.1291 211.116 23.4431C221.263 17.5591 231.42 11.6901 241.599 5.86214C251.441 0.227135 260.51 2.73814 269.635 8.11114C294.125 22.5341 410.534 89.7971 444.059 109.328C457.391 117.095 457.607 127.735 444.36 135.53C413.446 153.721 382.316 171.541 351.354 189.651C345.595 193.019 340.455 192.591 334.855 189.334C310.676 175.273 256.685 144.355 253.401 142.506C191.735 178.172 130.109 213.815 67.1829 250.211C71.0429 252.573 190.659 321.87 247.643 354.913C251.24 356.999 254.249 357.965 258.229 355.643C288.039 338.251 349.535 302.346 351.203 300.976C344.436 293.502 314.843 261.604 306.644 252.904C303.151 249.197 299.919 245.349 302.319 239.725C304.675 234.205 309.56 233.402 314.71 233.399C363.901 233.366 413.091 233.364 462.282 233.394C464.252 233.396 466.222 233.811 469.067 234.131Z" fill="#4AACF5"/>
</svg>
