<svg width="500" height="501" viewBox="0 0 500 501" fill="none" xmlns="http://www.w3.org/2000/svg">
<path d="M154.7 451.672C138 451.672 124.5 438.172 124.4 421.472V359.372L315.5 234.372L125.8 110.672V14.0719C125.8 7.17187 131.4 1.67188 138.2 1.67188C140.6 1.67188 143 2.47188 145 3.87188L450.1 209.372C463.9 218.672 467.6 237.372 458.3 251.172C456.1 254.372 453.3 257.172 450.1 259.372L171.5 446.372C166.6 449.772 160.8 451.572 154.8 451.572L154.7 451.672Z" fill="url(#paint0_linear_1_6736)"/>
<path d="M343.9 499.671C337.9 499.671 332.1 497.871 327.2 494.471L49.9 307.671C36.1 298.371 32.4 279.671 41.7 265.871C43.9 262.671 46.7 259.871 49.9 257.671L356.3 51.8715C358.3 50.4715 360.7 49.7715 363.1 49.7715C369.9 49.7715 375.5 55.2715 375.6 62.1715V157.671L184.4 282.671L374.2 406.271V469.371C374.3 477.572 370.9 485.471 365 491.071C359.3 496.571 351.8 499.571 343.9 499.671Z" fill="url(#paint1_linear_1_6736)"/>
<path d="M213.1 301.472L301.6 359.172L213.7 418.172L125.5 358.772L213.1 301.472Z" fill="#264FA1"/>
<path d="M286.9 215.572L198.4 157.872L286.3 98.8721L374.5 158.272L286.9 215.572Z" fill="#264FA1"/>
<defs>
<linearGradient id="paint0_linear_1_6736" x1="293.958" y1="52.5234" x2="293.958" y2="416.589" gradientUnits="userSpaceOnUse">
<stop offset="0.1" stop-color="#264FA1"/>
<stop offset="0.484" stop-color="#288EC3"/>
<stop offset="0.8" stop-color="#2BBEDE"/>
</linearGradient>
<linearGradient id="paint1_linear_1_6736" x1="206.05" y1="475.384" x2="206.05" y2="134.338" gradientUnits="userSpaceOnUse">
<stop offset="0.1" stop-color="#264FA1"/>
<stop offset="0.484" stop-color="#288EC3"/>
<stop offset="0.8" stop-color="#2BBEDE"/>
</linearGradient>
</defs>
</svg>
