<svg width="500" height="501" viewBox="0 0 500 501" fill="none" xmlns="http://www.w3.org/2000/svg">
<g clip-path="url(#clip0_1_6741)">
<path d="M293.2 500.672V295.172C342.2 300.372 375.4 322.972 375.4 322.972L406.6 287.772C355.4 251.272 279.4 249.772 279.4 249.772L267 111.672C275.2 106.172 280.8 96.8719 280.8 86.1719C280.8 69.3719 267 55.6719 250.3 55.6719C233.6 55.6719 219.8 69.4719 219.8 86.1719C219.8 96.9719 225.3 106.372 233.6 111.672L221 249.672C221 249.672 145 250.872 93.8003 287.672L125 322.872C125 322.872 158.2 300.372 207.2 295.072V500.672C15.7003 358.672 0.000303566 152.472 0.500304 83.8719C0.500304 69.6719 9.0003 56.6719 22.0003 50.8719C60.2003 33.8719 147.5 0.671875 250 0.671875C352.5 0.671875 439.8 33.8719 478 50.8719C491 56.6719 499.5 69.6719 499.5 83.8719C500 152.472 484.2 358.672 293.2 500.672Z" fill="#FFAF1D"/>
</g>
<defs>
<clipPath id="clip0_1_6741">
<rect width="500" height="500" fill="white" transform="translate(0 0.671875)"/>
</clipPath>
</defs>
</svg>
