<svg width="500" height="501" viewBox="0 0 500 501" fill="none" xmlns="http://www.w3.org/2000/svg">
<path d="M249.99 497.611C386.376 497.611 496.94 387.048 496.94 250.662C496.94 114.275 386.376 3.71191 249.99 3.71191C113.603 3.71191 3.04004 114.275 3.04004 250.662C3.04004 387.048 113.603 497.611 249.99 497.611Z" fill="black"/>
<path d="M249.481 471.21C371.275 471.21 470.009 372.476 470.009 250.682C470.009 128.887 371.275 30.1533 249.481 30.1533C127.686 30.1533 28.9521 128.887 28.9521 250.682C28.9521 372.476 127.686 471.21 249.481 471.21Z" fill="#FEF102"/>
<path d="M354.009 167.872C348.709 156.072 343.809 132.772 330.309 127.572C312.909 120.872 302.209 164.572 299.609 175.672H297.009C292.609 156.772 286.709 129.872 266.009 123.972C256.409 164.372 276.109 207.972 294.509 242.972C314.109 233.572 323.709 204.172 325.509 183.472H328.109L348.809 245.572C365.409 240.772 371.209 224.272 377.209 209.372C390.109 177.272 400.909 137.772 392.709 103.372C367.909 110.272 360.409 145.772 354.009 167.872ZM105.709 250.672C127.909 240.072 138.509 206.472 141.909 183.472H144.509C147.109 194.572 154.209 223.172 168.009 225.072C185.709 227.372 194.909 188.172 196.209 175.772H198.809C204.409 195.272 210.409 220.572 229.809 230.072C237.009 199.872 228.409 167.772 217.409 139.572C214.609 132.272 208.709 112.772 198.709 112.772C182.309 112.772 173.109 155.972 170.309 168.072H167.709L147.009 105.972C110.709 123.172 90.9092 215.672 105.709 250.672ZM66.9092 281.672C93.9092 399.472 218.509 466.272 330.709 416.572C371.509 398.472 403.909 366.172 422.609 325.672C427.409 315.172 436.909 296.272 431.409 282.572C425.909 268.872 372.509 291.272 359.209 297.072C357.309 297.872 356.009 299.672 355.709 301.672C355.309 304.572 356.009 307.472 357.809 309.772C359.609 312.072 362.309 313.472 365.209 313.672C375.009 314.472 387.609 315.372 387.609 315.372C347.009 393.872 237.309 428.672 160.009 365.872C142.709 351.872 127.309 335.172 116.909 315.372C111.909 305.772 107.209 293.572 98.7092 286.972C90.4092 280.672 78.0092 278.472 66.9092 281.672Z" fill="black"/>
</svg>
