<svg width="500" height="501" viewBox="0 0 500 501" fill="none" xmlns="http://www.w3.org/2000/svg">
<g clip-path="url(#clip0_1_6752)">
<path d="M250 500.672C388.071 500.672 500 388.743 500 250.672C500 112.601 388.071 0.671875 250 0.671875C111.929 0.671875 0 112.601 0 250.672C0 388.743 111.929 500.672 250 500.672Z" fill="#00455F"/>
<path d="M309.6 212.371C334.4 212.371 354.4 192.071 354.4 167.071C354.4 142.071 334.3 121.771 309.6 121.771C284.9 121.771 264.8 142.071 264.8 167.071C264.7 192.071 284.8 212.371 309.6 212.371Z" fill="#F46060"/>
<path d="M336.6 179.772C319.8 174.872 302.1 174.372 285 178.172C267.9 181.972 252.1 190.072 238.9 201.672C237.6 202.772 235.9 203.472 234.1 203.672C232.4 203.772 230.6 203.372 229.1 202.472C223.2 198.672 216.8 195.772 210.1 193.872C208.5 193.472 207.1 192.572 206 191.272C204.9 190.072 204.2 188.472 204 186.872C202 174.172 196.9 162.272 189.1 152.072C181.3 141.972 171.1 133.972 159.4 128.972C147.7 123.972 135 122.072 122.3 123.372C109.7 124.772 97.5999 129.272 87.1999 136.672C84.7999 138.372 83.0999 140.872 82.3999 143.672C81.5999 146.472 81.7999 149.472 82.9999 152.172L152 314.772C156.3 317.672 161.4 319.172 166.5 319.072C171.7 318.972 176.7 317.372 180.9 314.372L327.8 210.972C332.4 207.672 335.9 202.972 337.6 197.572C339.3 192.172 339.3 186.272 337.4 180.872L336.6 179.772Z" fill="url(#paint0_linear_1_6752)"/>
<path d="M320.8 363.271L415 140.971C415.8 139.071 416.1 136.971 415.9 134.871C415.7 132.771 415 130.771 413.9 129.071C412.8 127.271 411.2 125.871 409.4 124.871C407.6 123.871 405.6 123.271 403.5 123.271C384.5 123.271 366 129.371 350.7 140.671C335.4 151.971 324 167.871 318.1 186.171C316.9 189.871 314.9 193.171 312.2 195.971C309.5 198.671 306.2 200.771 302.5 201.971C294.3 204.771 286.7 209.271 280.4 215.271C274.1 221.271 269.1 228.571 265.8 236.771C263.8 241.871 260.3 246.071 255.7 248.871C251.1 251.671 245.7 252.871 240.4 252.371C237.4 252.071 234.4 251.871 231.4 251.871C213 251.871 195.1 258.171 180.6 269.671C166.1 281.171 155.9 297.271 151.5 315.371L172 363.671C200.1 429.271 292.8 429.271 320.8 363.271Z" fill="url(#paint1_linear_1_6752)"/>
<path d="M317.2 280.772C329.6 280.772 339.6 270.672 339.6 258.072C339.6 245.572 329.6 235.372 317.2 235.372C304.8 235.372 294.8 245.472 294.8 258.072C294.8 270.672 304.8 280.772 317.2 280.772Z" fill="#199B57"/>
<path d="M283.8 364.872C292.1 364.872 298.7 358.072 298.7 349.772C298.7 341.472 292 334.672 283.8 334.672C275.6 334.672 268.9 341.472 268.9 349.772C268.9 358.072 275.6 364.872 283.8 364.872Z" fill="#199B57"/>
<path d="M185.2 235.272C191.4 235.272 196.4 230.172 196.4 223.972C196.4 217.672 191.4 212.672 185.2 212.672C179 212.672 174 217.772 174 223.972C174 230.272 179 235.272 185.2 235.272Z" fill="#61D1C9"/>
<path d="M148.5 192.172C158.9 187.572 163.6 175.272 159 164.772C154.4 154.272 142.3 149.472 131.9 154.072C121.5 158.672 116.8 170.972 121.4 181.472C126 191.972 138.1 196.772 148.5 192.172Z" fill="#61D1C9"/>
<path d="M259 293.472C259.8 295.072 260.3 296.772 260.4 298.472C260.5 300.272 260.3 301.972 259.8 303.672C259.3 305.372 258.4 306.872 257.2 308.272C256.1 309.572 254.7 310.672 253.1 311.472C239 318.672 227.3 329.772 219.1 343.472C218.2 345.072 217.1 346.472 215.7 347.572C214.3 348.672 212.7 349.572 210.9 349.972C209.2 350.472 207.4 350.572 205.6 350.372C203.8 350.172 202.1 349.472 200.6 348.572C199.1 347.672 197.7 346.372 196.7 344.872C195.6 343.372 194.9 341.772 194.5 339.972C194.1 338.172 194.1 336.372 194.4 334.572C194.7 332.772 195.4 331.072 196.4 329.572C207.1 311.472 222.7 296.872 241.4 287.472C244.5 285.972 248.1 285.672 251.4 286.772C254.6 287.972 257.4 290.372 259 293.472Z" fill="#199B57"/>
</g>
<defs>
<linearGradient id="paint0_linear_1_6752" x1="293.756" y1="303.792" x2="184.083" y2="88.4921" gradientUnits="userSpaceOnUse">
<stop stop-color="#004560"/>
<stop offset="1" stop-color="#61D1C9"/>
</linearGradient>
<linearGradient id="paint1_linear_1_6752" x1="268.265" y1="220.582" x2="370.372" y2="318.97" gradientUnits="userSpaceOnUse">
<stop stop-color="#43D16A"/>
<stop offset="1" stop-color="#25B7B0"/>
</linearGradient>
<clipPath id="clip0_1_6752">
<rect width="500" height="500" fill="white" transform="translate(0 0.671875)"/>
</clipPath>
</defs>
</svg>
