<svg width="500" height="501" viewBox="0 0 500 501" fill="none" xmlns="http://www.w3.org/2000/svg">
<path d="M385.127 452.725C378.469 457.637 371.391 461.85 363.928 465.418C363.812 460.187 364.881 454.751 361.277 450.125C358.53 442.948 352.125 440.357 345.672 438.178C338.787 435.852 331.561 434.806 324.327 434.208C281.181 430.642 237.746 431.643 194.729 426.014C192.712 425.75 190.853 425.76 189.306 427.502C180.085 437.884 171.125 448.426 166.635 461.92C163.991 467.116 163.604 472.663 164.087 478.344C154.602 475.433 145.699 471.193 137 466.488C138.766 460.926 143.643 457.507 146.502 452.698C155.843 442.914 165.183 433.131 174.625 423.241C169.572 419.651 165.161 416.731 160.983 413.509C147.204 402.884 144.618 391.713 151.679 375.698C157.17 363.244 166.511 353.931 176.125 344.811C181.488 339.724 187.036 334.833 192.905 329.485C190.507 327.987 188.884 326.926 187.218 325.938C142.163 299.243 129.688 239.42 160.602 197.195C187.539 160.401 225.183 150.705 268.258 155.715C283.935 157.538 298.541 162.973 312.073 171.226C321.228 163.113 329.042 154.44 336.592 145.57C347.935 132.243 358.315 118.255 362.018 100.586C366.05 81.3539 356.663 64.3879 339.947 60.4889C326.028 57.2419 311.761 64.6189 304.465 78.5739C303.235 80.9269 303.383 85.1959 298.801 84.3509C297.479 82.8349 298.168 81.3149 298.451 79.8389C303.07 55.7529 317.537 43.5269 342.517 42.5859C343.763 43.5889 345.15 43.6339 346.61 43.1879C347.515 43.3039 348.421 43.4189 349.326 43.5349C358.394 45.8889 366.226 50.3789 372.764 57.1029C384.727 72.2809 383.899 88.4259 376.172 104.953C369.47 119.288 359.711 131.483 348.971 142.964C338.967 153.659 329.035 164.422 317.85 176.47C337.113 176.087 354.635 177.36 372.115 175.586C377.322 175.058 381.434 171.806 384.662 167.647C385.97 165.963 386.998 163.682 390.556 165.667C386.29 177.923 382.004 190.234 377.612 202.85C364.508 202.85 352.083 202.85 338.948 202.85C340.063 205.141 340.762 206.706 341.568 208.215C351.562 226.929 353.37 247.072 349.81 267.385C343.707 302.218 315.151 329.815 278.903 337.502C255.2 342.528 231.656 341.637 208.07 335.154C199.322 342.165 191.613 349.877 187.832 360.707C184.77 369.476 187.861 376.478 196.457 379.948C199.696 381.255 203.171 382.127 206.62 382.738C216.619 384.51 226.757 384.875 236.882 385.163C265.285 385.973 293.729 386.298 321.995 389.416C350.917 392.606 373.919 404.497 383.735 434.259C384.688 440.377 385.598 446.499 385.127 452.725ZM300.702 261.844C300.727 235.851 297.413 214.046 285.544 194.325C277.451 180.878 266.416 171.117 250.171 169.438C223.922 166.726 203.904 181.776 197.178 208.645C193.487 223.388 193.483 238.387 194.725 253.315C196.39 273.325 201.362 292.354 214.316 308.498C237 336.768 280.446 330.7 294.405 297.259C299.602 284.812 300.871 271.739 300.702 261.844Z" fill="#FBFCFC"/>
<path d="M146.503 452.699C143.644 457.508 138.767 460.927 137.001 466.489C118.298 458.133 102.046 446.057 86.9177 432.531C46.5587 396.446 20.6627 351.776 9.68566 298.77C4.43366 273.41 3.85366 247.734 6.61466 221.897C11.4597 176.567 27.7397 135.947 55.7227 100.07C90.6737 55.2596 135.329 24.7656 190.958 12.1076C282.547 -8.73342 362.38 14.1786 427.665 81.5666C476.056 131.517 497.855 192.84 493.91 262.442C489.392 342.153 453.019 404.56 388.616 451.074C387.59 451.815 386.296 452.184 385.127 452.726C385.598 446.5 384.688 440.378 383.736 434.26C393.81 430.646 400.555 422.481 408.052 415.634C422.698 402.255 434.762 386.624 445.332 369.762C464.737 338.807 475.955 305.03 478.798 268.856C480.568 246.336 479.855 223.574 474.884 201.279C462.87 147.392 435.12 103.231 392.014 68.8676C386.214 64.2446 381.027 57.9656 372.765 57.1036C366.226 50.3796 358.395 45.8896 349.327 43.5366C348.908 42.8116 348.657 41.6746 348.044 41.4236C339.102 37.7616 330.295 33.6296 321.098 30.7546C289.959 21.0196 258.167 17.5936 225.569 21.1106C203.792 23.4596 182.658 28.3436 162.599 36.7696C118.337 55.3616 82.8347 84.6796 56.6697 125.256C32.5497 162.661 21.1947 203.812 20.0137 247.877C19.6577 261.164 21.4977 274.499 23.6227 287.739C28.2517 316.574 38.6647 343.205 53.5527 368.102C69.5387 394.835 90.3687 417.346 115.787 435.329C125.364 442.106 134.593 449.884 146.503 452.699Z" fill="#829FAA"/>
<path d="M361.277 450.125C364.882 454.751 363.813 460.187 363.928 465.418C348.942 474.906 332.367 480.799 315.444 485.3C266.382 498.347 217.583 497.296 169.342 480.805C167.492 480.173 165.489 479.916 164.088 478.345C163.605 472.664 163.991 467.117 166.636 461.921C167.696 463.49 169.385 464.025 171.044 464.624C184.656 469.536 198.442 473.545 212.87 475.579C240.256 479.44 267.5 479.357 294.681 474.25C318.177 469.835 340.282 461.49 361.277 450.125Z" fill="#829FAA"/>
<path d="M146.502 452.698C134.592 449.883 125.364 442.106 115.786 435.329C90.3683 417.346 69.5383 394.835 53.5523 368.102C38.6643 343.205 28.2513 316.573 23.6223 287.739C21.4963 274.498 19.6563 261.164 20.0133 247.877C21.1943 203.812 32.5503 162.661 56.6693 125.256C82.8343 84.6803 118.336 55.3623 162.597 36.7703C182.656 28.3443 203.79 23.4603 225.567 21.1113C258.165 17.5943 289.956 21.0203 321.096 30.7553C330.293 33.6303 339.1 37.7623 348.042 41.4243C348.655 41.6753 348.906 42.8133 349.325 43.5373C348.419 43.4213 347.514 43.3063 346.609 43.1913C345.373 42.1203 343.942 42.3693 342.515 42.5883C317.535 43.5293 303.069 55.7553 298.449 79.8413C298.166 81.3173 297.477 82.8373 298.799 84.3533C303.381 85.1973 303.233 80.9293 304.463 78.5763C311.759 64.6223 326.026 57.2443 339.945 60.4913C356.661 64.3913 366.048 81.3573 362.016 100.588C358.312 118.256 347.932 132.244 336.59 145.572C329.041 154.443 321.227 163.115 312.071 171.228C298.54 162.975 283.934 157.541 268.256 155.717C225.181 150.707 187.537 160.403 160.6 197.197C129.687 239.422 142.161 299.245 187.216 325.94C188.882 326.927 190.505 327.988 192.903 329.487C187.034 334.835 181.486 339.726 176.123 344.813C166.509 353.933 157.168 363.246 151.677 375.7C144.616 391.715 147.203 402.886 160.981 413.511C165.159 416.733 169.57 419.652 174.623 423.243C165.183 433.13 155.842 442.914 146.502 452.698Z" fill="#6590A1"/>
<path d="M372.764 57.1035C381.026 57.9665 386.213 64.2445 392.013 68.8675C435.119 103.23 462.869 147.391 474.883 201.279C479.853 223.573 480.567 246.335 478.797 268.855C475.954 305.029 464.736 338.806 445.331 369.762C434.761 386.622 422.697 402.255 408.051 415.634C400.555 422.482 393.809 430.646 383.735 434.26C373.919 404.499 350.917 392.608 321.995 389.418C293.729 386.299 265.286 385.974 236.882 385.165C226.757 384.876 216.619 384.51 206.62 382.74C203.171 382.129 199.696 381.257 196.457 379.95C187.861 376.481 184.77 369.478 187.832 360.708C191.613 349.879 199.322 342.167 208.07 335.156C231.656 341.639 255.2 342.53 278.903 337.504C315.151 329.816 343.707 302.221 349.81 267.387C353.369 247.074 351.561 226.931 341.568 208.217C340.762 206.709 340.063 205.143 338.948 202.852C352.083 202.852 364.508 202.852 377.612 202.852C382.004 190.236 386.289 177.925 390.556 165.669C386.998 163.684 385.97 165.965 384.662 167.649C381.433 171.808 377.322 175.059 372.115 175.588C354.634 177.362 337.112 176.089 317.85 176.472C329.035 164.424 338.966 153.661 348.971 142.966C359.711 131.485 369.471 119.29 376.172 104.955C383.899 88.4265 384.727 72.2815 372.764 57.1035Z" fill="#6590A1"/>
<path d="M300.702 261.843C300.87 271.738 299.602 284.81 294.406 297.258C280.446 330.699 237.001 336.767 214.317 308.497C201.363 292.353 196.391 273.324 194.726 253.314C193.484 238.386 193.488 223.387 197.179 208.644C203.905 181.775 223.923 166.724 250.172 169.437C266.417 171.116 277.453 180.877 285.545 194.324C297.413 214.045 300.728 235.851 300.702 261.843Z" fill="#6590A1"/>
<path d="M361.277 450.125C340.282 461.49 318.177 469.836 294.681 474.25C267.5 479.356 240.256 479.439 212.87 475.579C198.442 473.545 184.655 469.536 171.044 464.624C169.385 464.025 167.696 463.49 166.636 461.921C171.126 448.427 180.086 437.884 189.307 427.502C190.854 425.76 192.713 425.75 194.73 426.014C237.747 431.643 281.182 430.641 324.328 434.208C331.562 434.806 338.788 435.852 345.673 438.178C352.125 440.357 358.529 442.948 361.277 450.125Z" fill="#6590A1"/>
<path d="M342.517 42.5874C343.944 42.3684 345.375 42.1194 346.611 43.1904C345.15 43.6354 343.763 43.5904 342.517 42.5874Z" fill="#829FAA"/>
</svg>
