<svg width="500" height="501" viewBox="0 0 500 501" fill="none" xmlns="http://www.w3.org/2000/svg">
<g clip-path="url(#clip0_1_6772)">
<path fill-rule="evenodd" clip-rule="evenodd" d="M222.1 278.472C160.7 278.472 111 228.672 111 167.372C111 105.972 160.7 56.2719 222.1 56.2719C283.5 56.2719 333.2 105.972 333.2 167.372C333.2 228.672 283.5 278.472 222.1 278.472ZM222.1 0.671875C314.1 0.671875 388.8 75.2719 388.8 167.372C388.8 259.472 314.2 334.072 222.1 334.072C130.1 334.072 55.4004 259.472 55.4004 167.372C55.4004 75.2719 130.1 0.671875 222.1 0.671875ZM380.6 342.172C391.4 352.972 391.4 370.572 380.6 381.472L269.5 492.572C258.7 503.372 241.1 503.372 230.2 492.572C219.4 481.772 219.4 464.172 230.2 453.272L341.3 342.172C352.2 331.272 369.8 331.272 380.6 342.172ZM444.3 28.4719C444.3 43.7719 431.9 56.2719 416.5 56.2719C401.2 56.2719 388.7 43.8719 388.7 28.4719C388.7 13.0719 401.2 0.671875 416.6 0.671875C431.9 0.671875 444.3 13.0719 444.3 28.4719Z" fill="black"/>
</g>
<defs>
<clipPath id="clip0_1_6772">
<rect width="500" height="500" fill="white" transform="translate(0 0.671875)"/>
</clipPath>
</defs>
</svg>
