<svg width="500" height="501" viewBox="0 0 500 501" fill="none" xmlns="http://www.w3.org/2000/svg">
<path d="M496.042 5.0456C495.635 34.6596 484.04 57.6876 462.419 75.7386C445.433 89.9196 425.506 96.7466 403.428 96.8066C352.528 96.9456 301.628 96.8846 250.728 96.8916C160.103 96.9036 88.4702 177.376 99.0402 267.307C108.922 351.387 181.057 410.844 265.366 404.401C340.484 398.66 400.752 334.841 402.242 259.442C402.405 251.198 402.418 242.95 402.626 234.707C402.767 229.124 400.62 226.41 394.62 226.429C347.417 226.575 300.213 226.356 253.012 226.682C237.76 226.788 225.699 240.472 225.829 256.07C225.958 271.589 239.254 284.853 255.67 285.063C279.268 285.365 302.872 285.164 326.474 285.177C329.525 285.179 332.575 285.177 336.604 285.177C335.813 288.182 335.607 290.063 334.848 291.684C318.519 326.563 283.056 346.797 242.987 344.168C205.795 341.728 172.884 315.805 161.621 280.077C141.787 217.162 187.015 155.537 253.066 155.518C325.293 155.498 397.52 155.506 469.747 155.516C489.113 155.519 496.333 162.768 496.247 182.352C496.126 209.647 496.499 236.962 495.559 264.231C491.954 368.74 409.627 467.262 307.476 489.672C225.339 507.691 151.023 490.491 88.3722 434.595C14.9482 369.087 -11.8308 285.696 12.1982 190.38C35.7642 96.9006 98.7352 38.4736 191.1 12.7546C211.609 7.0436 233.71 5.1556 255.117 4.9026C332.168 3.9956 491.883 4.8286 496.042 5.0456Z" fill="url(#paint0_linear_1_6774)"/>
<defs>
<linearGradient id="paint0_linear_1_6774" x1="71.6408" y1="420.637" x2="266.911" y2="233.73" gradientUnits="userSpaceOnUse">
<stop stop-color="#FF8402"/>
<stop offset="0.9995" stop-color="#FF005A"/>
</linearGradient>
</defs>
</svg>
