<svg width="500" height="501" viewBox="0 0 500 501" fill="none" xmlns="http://www.w3.org/2000/svg">
<path d="M117.4 218.972H63.0999C62.9999 218.272 62.9999 217.572 63.0999 216.872C70.3999 179.872 77.2999 142.772 84.9999 105.772C90.6999 79.1719 120.3 55.6719 147.1 55.6719C237.1 55.6719 327 55.6719 417 55.6719H421.5L410.9 110.172H155.9C143.5 110.172 137.5 115.072 135.2 127.372L118.5 213.172L117.4 218.972Z" fill="black"/>
<path d="M379.2 273.872H433.5C433.3 275.272 433.3 276.472 433.1 277.672C426 313.872 419.3 350.172 411.7 386.372C406 413.472 376.6 437.072 349.6 437.072C259.3 437.172 169 437.172 78.8002 437.072H75.2002L85.8002 382.672H340.5C353.3 382.672 359 377.872 361.5 365.172C367 336.572 372.6 307.972 378.2 279.372L379.2 273.872Z" fill="black"/>
<path d="M324.6 273.872L314 328.272H96.2L85.7 382.072L0 273.872H324.6Z" fill="black"/>
<path d="M496.7 218.972H172L182.6 164.572H400.4L410.9 110.672L496.7 218.972Z" fill="black"/>
</svg>
