<svg width="500" height="501" viewBox="0 0 500 501" fill="none" xmlns="http://www.w3.org/2000/svg">
<path d="M480.1 134.672L331 213.072V303.972L382.3 276.672V329.372L237.8 412.672L121.7 345.672C104.1 335.572 93.2999 316.772 93.2999 296.472V162.372L213.1 93.1723C228.4 84.3723 247.1 84.3723 262.4 93.1723L382.2 162.372L455.6 119.972L268.9 12.2723C249.6 1.17227 225.9 1.17227 206.6 12.2723L19.8999 120.072V338.772C19.8999 359.172 30.7999 377.872 48.3999 388.072L237.8 497.372L426.9 388.172C444.7 377.872 455.6 358.972 455.6 338.372V237.572L480 224.572L480.1 134.672Z" fill="#D35756"/>
</svg>
