<svg width="500" height="501" viewBox="0 0 500 501" fill="none" xmlns="http://www.w3.org/2000/svg">
<g clip-path="url(#clip0_1_6783)">
<path d="M250 500.672C388.071 500.672 500 388.743 500 250.672C500 112.601 388.071 0.671875 250 0.671875C111.929 0.671875 0 112.601 0 250.672C0 388.743 111.929 500.672 250 500.672Z" fill="#02E2AC"/>
<path fill-rule="evenodd" clip-rule="evenodd" d="M316.1 211.671C326.4 226.071 332 243.671 331.8 261.271C331.8 278.671 326.2 296.071 316.1 310.171L337.6 326.571C351.3 307.671 358.8 284.771 358.8 261.471C358.9 236.871 350.9 212.671 336 193.271L323.7 204.371L316.1 211.671Z" fill="#0E0333"/>
<path fill-rule="evenodd" clip-rule="evenodd" d="M356.7 337.171L284.5 282.271C289.7 275.471 292.6 267.271 293 258.671C293.3 250.171 291.1 241.771 286.5 234.471L321.1 203.271L357.3 169.371C359.7 167.171 359.8 163.371 357.4 160.971L352.4 155.971C326.6 129.871 291.9 114.771 255.4 113.571L255.5 93.6715C255.6 92.3715 255.5 90.9715 255.2 89.6715C254.8 88.3715 254.2 87.1715 253.3 86.1715C252.4 85.1715 251.4 84.3715 250.1 83.7715C248.9 83.1715 247.6 82.8715 246.3 82.8715C245 82.8715 243.7 83.1715 242.5 83.7715C241.3 84.3715 240.1 85.0715 239.3 86.1715C238.5 87.2715 237.7 88.3715 237.4 89.5715C237 90.8715 236.8 92.2715 237.1 93.5715L237 114.071C228.3 114.971 219.6 116.571 211.3 119.071L211.4 93.5715C211.5 92.2715 211.4 90.8715 211.1 89.5715C210.7 88.2715 210.1 87.0715 209.2 86.0715C208.3 85.0715 207.3 84.2715 206 83.6715C204.8 83.0715 203.5 82.7715 202.2 82.7715C200.9 82.7715 199.6 83.0715 198.4 83.6715C197.2 84.2715 196 84.9715 195.2 86.0715C194.3 87.0715 193.6 88.2715 193.3 89.4715C192.9 90.7715 192.7 92.1715 193 93.4715L192.6 126.071C162.9 139.371 138.5 162.471 123.6 191.471C108.7 220.471 104 253.771 110.5 285.771C117 317.771 134.2 346.571 159.2 367.571C184.2 388.571 215.7 400.271 248.2 400.871L353.4 401.271C356.6 401.271 359.3 398.572 359.3 395.371V342.171C359.1 340.071 358.2 338.271 356.7 337.171ZM250 374.971C224.1 374.871 198.9 366.171 178.5 350.371C158 334.471 143.3 312.171 136.7 287.171C130.1 262.171 132 235.471 141.8 211.571C151.8 187.671 169.3 167.671 191.8 154.671L191.7 193.371C191.6 194.671 191.7 196.071 192 197.371C192.4 198.671 193 199.871 193.9 200.871C194.8 201.871 195.8 202.671 197.1 203.271C198.3 203.871 199.6 204.171 200.9 204.171C202.2 204.171 203.5 203.871 204.7 203.271C205.9 202.671 207.1 201.971 207.9 200.871C208.7 199.771 209.5 198.671 209.8 197.471C210.2 196.171 210.4 194.771 210.1 193.471L210.2 145.871C223.1 141.171 236.8 138.971 250.7 138.971C276.2 138.971 300.9 147.371 321 162.671C322.5 163.871 322.6 165.871 321.3 167.271L266.3 217.771C261.3 215.671 255.9 214.571 250.4 214.571C244.4 214.571 238.3 215.771 232.7 218.271C227.1 220.771 222.3 224.471 218.3 229.071C214.3 233.671 211.4 239.071 209.6 244.871C207.8 250.771 207.4 256.771 208.3 262.871C209.2 268.871 211.2 274.671 214.5 279.771C217.7 284.971 222.2 289.171 227.2 292.571C232.3 295.771 238.1 298.071 244.1 298.871C250.1 299.771 256.3 299.271 262.1 297.571L332.4 351.071C333.1 351.671 333.6 352.571 333.6 353.471L333.5 372.371C333.5 373.971 332.2 375.271 330.6 375.271L250 374.971ZM267.3 257.171C267.3 260.371 266.3 263.671 264.5 266.471C262.6 269.271 260.1 271.371 257 272.671C253.9 273.971 250.5 274.271 247.4 273.571C244.3 272.871 241.2 271.371 238.9 268.971C236.5 266.571 234.9 263.671 234.3 260.471C233.7 257.271 234 253.871 235.3 250.871C236.6 247.771 238.7 245.271 241.5 243.371C244.3 241.571 247.5 240.571 250.8 240.571C255.2 240.571 259.5 242.371 262.6 245.571C265.5 248.471 267.3 252.571 267.3 257.171Z" fill="#0E0333"/>
</g>
<defs>
<clipPath id="clip0_1_6783">
<rect width="500" height="500" fill="white" transform="translate(0 0.671875)"/>
</clipPath>
</defs>
</svg>
