<svg width="500" height="501" viewBox="0 0 500 501" fill="none" xmlns="http://www.w3.org/2000/svg">
<path d="M256.565 251.049C256.565 321.717 256.612 392.386 256.54 463.054C256.514 488.738 247.599 497.762 222.265 497.799C171.153 497.875 120.041 497.895 68.929 497.77C43.193 497.707 31.403 482.296 43.027 459.729C61.666 423.543 64.534 385.794 63.929 346.161C62.682 264.401 63.538 182.607 63.721 100.828C63.851 42.6888 102.65 3.83383 160.436 3.64383C180.881 3.57683 201.326 3.57583 221.771 3.62683C248.045 3.69283 256.306 11.7288 256.335 37.7098C256.415 108.823 256.363 179.936 256.363 251.048C256.43 251.049 256.497 251.049 256.565 251.049Z" fill="url(#paint0_linear_1_6787)"/>
<path d="M293.219 365.356C293.219 332.456 293.076 299.555 293.27 266.656C293.394 245.588 300.411 238.537 321.373 238.464C360.497 238.327 399.623 238.278 438.745 238.621C458.603 238.795 470.919 253.066 462.154 270.173C443.53 306.523 449.189 344.676 448.295 382.513C447.991 395.399 448.535 408.307 448.159 421.19C446.89 464.761 413.67 497.147 369.978 497.532C353.974 497.673 337.954 497.917 321.966 497.384C302.936 496.75 293.37 486.98 293.223 468.057C292.958 433.825 293.148 399.59 293.148 365.356C293.172 365.356 293.195 365.356 293.219 365.356Z" fill="url(#paint1_linear_1_6787)"/>
<path d="M293.076 105.326C293.076 81.3386 292.855 57.3496 293.144 33.3656C293.386 13.2646 302.718 3.96759 322.615 3.67759C339.491 3.43159 356.379 3.35759 373.252 3.69359C413.944 4.50259 447.241 36.7166 448.213 77.2436C449.033 111.428 448.633 145.648 448.402 179.849C448.29 196.353 440.665 206.796 423.976 207.559C388.985 209.159 353.85 209.429 318.847 208.195C301.139 207.571 293.272 196.734 293.032 178.618C292.708 154.191 292.952 129.757 292.952 105.326C292.993 105.326 293.034 105.326 293.076 105.326Z" fill="url(#paint2_linear_1_6787)"/>
<defs>
<linearGradient id="paint0_linear_1_6787" x1="147.561" y1="5.78493" x2="147.561" y2="497.07" gradientUnits="userSpaceOnUse">
<stop stop-color="#FDD900"/>
<stop offset="1" stop-color="#F36E1F"/>
</linearGradient>
<linearGradient id="paint1_linear_1_6787" x1="379.052" y1="239.381" x2="379.052" y2="492.034" gradientUnits="userSpaceOnUse">
<stop stop-color="#38E8DC"/>
<stop offset="1" stop-color="#48A9F2"/>
</linearGradient>
<linearGradient id="paint2_linear_1_6787" x1="370.784" y1="4.91959" x2="370.784" y2="208.384" gradientUnits="userSpaceOnUse">
<stop stop-color="#D27DFF"/>
<stop offset="1" stop-color="#9453FF"/>
</linearGradient>
</defs>
</svg>
