<svg width="500" height="501" viewBox="0 0 500 501" fill="none" xmlns="http://www.w3.org/2000/svg">
<path d="M250 495.022C384.951 495.022 494.35 385.622 494.35 250.671C494.35 115.721 384.951 6.32129 250 6.32129C115.049 6.32129 5.6499 115.721 5.6499 250.671C5.6499 385.622 115.049 495.022 250 495.022Z" fill="#7F27FF"/>
<path d="M241.855 218.092H135.97V323.977C135.749 346.248 153.624 364.481 175.896 364.702C176.162 364.704 176.429 364.704 176.695 364.702H241.855L241.855 218.092ZM258.145 218.092H364.03V323.977C364.251 346.248 346.376 364.481 324.105 364.702C323.838 364.704 323.572 364.704 323.305 364.702H258.145V218.092Z" fill="white"/>
<path d="M258.145 201.802H360.81C372.175 201.802 380.358 192.028 380.358 182.254C380.358 170.889 370.584 162.706 360.81 162.706H140.857C129.492 162.706 121.309 172.48 121.309 182.254C121.309 193.619 131.083 201.802 140.857 201.802H241.855V175.738H258.145" fill="white"/>
<path d="M261.365 169.222C284.171 128.497 302.09 115.465 315.122 128.497C328.154 141.529 320.009 154.561 292.316 169.222" stroke="white" stroke-width="17.2"/>
<path d="M238.635 169.222C215.829 128.497 197.91 115.465 184.878 128.497C171.846 141.529 179.991 154.561 207.684 169.222" stroke="white" stroke-width="17.2"/>
</svg>
