<svg width="500" height="501" viewBox="0 0 500 501" fill="none" xmlns="http://www.w3.org/2000/svg">
<path d="M326.4 42.8723C361.5 42.8723 394.5 56.5723 419.4 81.3723C444.2 106.172 457.9 139.172 457.9 174.372C457.9 209.472 444.2 242.472 419.4 267.372C394.6 292.172 361.6 305.872 326.4 305.872H194.9V174.272C194.9 139.172 208.6 106.172 233.4 81.2723C258.2 56.4723 291.2 42.8723 326.4 42.8723ZM326.4 3.07227C231.8 3.07227 155.2 79.7723 155.2 174.272V309.872H41.1001V345.472H155.2H158.7H326.5C421.1 345.472 497.7 268.772 497.7 174.272C497.6 79.7723 420.9 3.07227 326.4 3.07227Z" fill="#55C8E6"/>
<path d="M305.6 195.972V327.472C305.6 362.572 291.9 395.572 267.1 420.472C242.3 445.272 209.3 458.972 174.1 458.972C139 458.972 106 445.272 81.1 420.472C56.3 395.672 42.6 362.672 42.6 327.472C42.6 292.372 56.3 259.372 81.1 234.472C105.9 209.672 138.9 195.972 174.1 195.972H305.6ZM459.3 156.172H345.4H341.7H174.2C79.6 156.172 3 232.872 3 327.472C3 421.972 79.6 498.672 174.2 498.672C268.8 498.672 345.4 421.972 345.4 327.472V191.772H459.3V156.172Z" fill="#55C8E6"/>
</svg>
