<svg width="500" height="501" viewBox="0 0 500 501" fill="none" xmlns="http://www.w3.org/2000/svg">
<path d="M349.017 196.518C365.139 196.518 379.773 196.518 394.484 196.518C380.044 254.675 314.712 306.512 241.579 301.543C149.236 295.269 82.524 211.35 99.507 118.531C229.393 118.531 359.4 118.531 490.746 118.531C494.317 147.88 492.831 177.04 485.568 205.831C472.726 256.74 446.274 299.463 406.137 333.236C315.177 409.772 189.907 407.287 103.101 340.18C21.424 277.038 -0.375011 180.847 11.466 118.205C25.033 118.205 38.664 118.205 53.296 118.205C45.742 197.725 72.035 262.823 136.959 310.361C173.786 337.326 216.004 349.267 261.294 346.26C377.933 338.516 444.74 242.167 447.127 163.625C345.529 163.625 243.95 163.625 142.36 163.625C145.113 201.311 178.472 241.281 217.613 252.686C243.154 260.128 268.782 259.381 293.482 248.782C318.224 238.165 336.571 220.308 349.017 196.518Z" fill="#00BEB1"/>
</svg>
