<svg width="500" height="501" viewBox="0 0 500 501" fill="none" xmlns="http://www.w3.org/2000/svg">
<path d="M94.401 11.2463C97.121 11.2463 99.843 11.3054 102.562 11.2364C115.696 10.9024 127.223 15.5093 138.444 21.9403C147.145 26.9263 153.936 33.9003 160.857 40.7983C189.537 69.3853 218.108 98.0823 246.721 126.737C250.214 130.235 251.301 130.25 254.888 126.659C281.805 99.7223 308.656 72.7193 335.654 45.8633C342.602 38.9523 349.504 31.8323 357.307 25.9803C368.888 17.2953 381.842 11.2733 396.848 11.3003C403.195 11.3113 409.544 11.3654 415.889 11.2364C428.741 10.9764 440 15.5963 450.848 21.9793C466.047 30.9223 477.061 43.5633 484.671 59.2773C487.767 65.6703 490.478 72.2994 490.556 79.5723C490.669 90.1413 491.333 100.778 490.411 111.267C488.91 128.346 480.532 142.578 468.711 154.53C437.723 185.861 406.414 216.875 375.238 248.02C372.196 251.059 372.282 252.35 375.39 255.466C407.61 287.771 440.143 319.774 471.852 352.573C483.483 364.604 490.518 379.63 490.628 397.045C490.668 403.392 490.651 409.739 490.692 416.085C490.833 438.187 480.397 455.337 465.217 470.192C456.222 478.995 445.494 485.098 433.588 488.961C429.627 490.246 425.313 490.732 421.125 490.966C414.192 491.353 407.229 491.165 400.282 491.351C379.663 491.903 362.664 483.53 348.407 469.449C317.014 438.445 285.93 407.127 254.724 375.933C251.92 373.13 250.161 372.992 247.456 375.69C226.616 396.479 205.865 417.357 184.956 438.077C171.988 450.928 159.333 464.177 145.523 476.069C135.283 484.887 122.858 490.571 108.851 491.033C99.493 491.342 90.112 491.378 80.753 491.129C69.569 490.831 59.75 486.359 50.289 480.673C40.144 474.576 31.63 466.757 24.951 457.124C16.309 444.659 10.07 431.24 10.829 415.466C11.105 409.736 11.038 403.976 10.84 398.24C10.405 385.637 15.351 374.783 21.264 364.11C27.091 353.593 35.944 345.752 44.207 337.402C67.802 313.557 91.551 289.864 115.154 266.028C117.242 263.92 119.073 263.859 121.02 265.601C124.051 268.314 126.919 271.213 129.813 274.077C137.54 281.722 145.236 289.398 152.961 297.045C155.466 299.525 153.909 301.273 152.05 303.122C143.268 311.857 134.53 320.635 125.765 329.388C107.593 347.534 89.335 365.594 71.262 383.838C54.806 400.449 58.6301 428.645 81.426 438.537C93.666 443.848 107.715 442.244 119.089 430.938C139.965 410.185 160.68 389.27 181.468 368.429C190.847 359.026 200.221 349.618 209.634 340.25C213.996 335.909 214.003 335.388 209.524 330.911C177.145 298.548 144.78 266.17 112.406 233.802C86.121 207.522 59.881 181.196 33.511 155.001C23.071 144.631 16.279 132.223 12.086 118.295C11.227 115.442 10.914 112.35 10.829 109.355C10.609 101.653 10.672 93.9433 10.596 86.2373C10.426 68.8543 18.105 54.6093 28.356 41.3243C35.31 32.3123 44.1 25.4684 53.873 19.9784C65.255 13.5834 77.562 10.3033 90.776 11.2213C91.979 11.3053 93.193 11.2323 94.403 11.2323C94.401 11.2373 94.401 11.2413 94.401 11.2463ZM407.664 62.5074C399.221 61.9063 391.797 64.5674 385.633 70.1714C379.163 76.0534 373.017 82.2973 366.823 88.4763C339.133 116.093 311.471 143.739 283.808 171.384C258.065 197.111 232.342 222.859 206.58 248.566C204.249 250.892 204.371 252.626 206.766 254.987C220.312 268.337 233.713 281.833 247.162 295.282C250.306 298.426 251.496 298.394 254.576 295.311C264.177 285.702 273.787 276.102 283.447 266.552C286.927 263.111 287.196 263.111 290.711 266.607C300.668 276.51 310.495 286.544 320.528 296.368C322.977 298.766 322.883 300.35 320.523 302.665C311.901 311.123 303.401 319.706 294.902 328.289C287.008 336.261 286.421 334.588 294.875 343.072C320.128 368.415 345.36 393.779 370.767 418.968C377.269 425.414 382.926 432.882 391.326 437.231C408.375 446.058 430.869 439.957 438.226 419.923C443.227 406.305 440.233 393.443 429.572 382.84C406.988 360.38 384.479 337.845 361.942 315.337C334.173 287.604 306.404 259.871 278.644 232.129C274.162 227.65 269.663 223.184 265.292 218.597C263.597 216.819 262.189 214.984 264.789 212.442C275.053 202.41 285.141 192.197 295.33 182.088C298.248 179.193 299.163 179.199 302.065 182.093C311.695 191.693 321.3 201.318 330.882 210.966C334.084 214.19 335.581 214.266 338.749 211.096C368.938 180.879 399.124 150.659 429.312 120.441C434.545 115.203 438.263 109.224 439.61 101.752C443.636 79.4033 426.149 61.6584 407.664 62.5074ZM61.719 95.6244C60.795 105.256 66.606 114.658 71.875 119.913C91.842 139.823 111.728 159.814 131.648 179.772C142.193 190.337 152.725 200.915 163.309 211.441C166.067 214.184 167.508 214.162 170.148 211.523C183.603 198.074 197.045 184.61 210.467 171.127C213.394 168.186 213.395 166.859 210.52 163.957C205.215 158.6 199.868 153.286 194.532 147.96C169.353 122.822 144.18 97.6773 118.988 72.5523C108.505 62.0973 95.9771 59.9583 83.538 64.1023C69.658 68.7263 60.748 81.9794 61.719 95.6244Z" fill="#639BF8"/>
</svg>
