<svg width="500" height="501" viewBox="0 0 500 501" fill="none" xmlns="http://www.w3.org/2000/svg">
<g clip-path="url(#clip0_1_6810)">
<path d="M250 500.672C388.071 500.672 500 388.743 500 250.672C500 112.601 388.071 0.671875 250 0.671875C111.929 0.671875 0 112.601 0 250.672C0 388.743 111.929 500.672 250 500.672Z" fill="#005BAC"/>
<path d="M410.9 238.971V238.871C410.9 238.171 410.3 237.971 409.7 237.971H250.1C241.5 237.971 234.7 244.871 234.7 253.271C234.7 261.571 241.5 268.371 250.1 268.371H345C333.6 298.271 295.4 320.271 250.1 320.271C195.7 320.271 151.6 288.771 151.6 250.071C151.6 211.371 195.7 179.871 250.1 179.871C279.7 179.871 306.3 189.271 324.3 204.171L324.4 204.271C324.6 204.371 324.9 204.371 325.2 204.371H390.4C391.1 204.371 391.5 203.871 391.5 203.271C391.5 202.971 391.5 202.571 391.3 202.471V202.371C363.3 172.871 310.6 152.771 250.2 152.771C160.6 152.771 88.2 196.371 88.2 250.071C88.2 303.771 160.6 347.471 250.2 347.471C339.8 347.471 412 303.971 412 250.171C412 246.271 411.6 242.571 410.9 238.971Z" fill="white"/>
</g>
<defs>
<clipPath id="clip0_1_6810">
<rect width="500" height="500" fill="white" transform="translate(0 0.671875)"/>
</clipPath>
</defs>
</svg>
