<svg width="500" height="501" viewBox="0 0 500 501" fill="none" xmlns="http://www.w3.org/2000/svg">
<g clip-path="url(#clip0_1_6813)">
<path d="M250 500.672C112.2 500.672 0 388.572 0 250.672C0 112.772 112.2 0.671875 250 0.671875C387.8 0.671875 500 112.872 500 250.672C500 388.472 387.8 500.672 250 500.672ZM250 19.6719C122.6 19.6719 19 123.272 19 250.672C19 378.072 122.6 481.672 250 481.672C377.4 481.672 481 378.072 481 250.672C481 123.272 377.4 19.6719 250 19.6719Z" fill="black"/>
<path d="M217.3 249.771V239.071V162.571L230.9 147.871V146.271H175.5V147.871L188.9 162.571V330.771L175.5 345.271V346.871H230.9V345.271L217.3 330.771V249.771Z" fill="black"/>
<path d="M100.3 295.472C99.9 295.472 99.5 295.272 99.2 295.072C98.9 294.772 98.6 294.372 98.4 293.972C98.2 293.572 98.1 293.072 98.2 292.672C98.1 290.272 98.9 287.972 99.5 285.672C100 283.372 100.2 280.672 98.8 278.772C98.3 278.072 97.7 277.572 97.3 276.872C93.1 270.672 108 259.972 111.8 256.372C118.5 249.972 125.4 243.772 132.6 237.872C143.2 229.172 154.6 220.072 167.4 214.872C178.4 210.372 190.4 212.572 197.9 220.672C205.4 228.672 206.5 240.372 201.1 251.372C197.9 257.872 195.9 262.672 195.2 265.672C195.1 266.072 195.1 266.472 195.2 266.872C195.3 267.272 195.6 267.572 195.9 267.772C196.4 267.972 197.8 267.472 199.5 265.472C200.6 264.272 201.7 262.972 202.9 261.572C208.9 254.672 216.4 246.172 224.9 240.372C233.4 234.572 242.8 233.672 250.1 237.872C255.1 240.772 260.8 247.072 260.8 260.272C289.1 235.072 320.5 236.772 348.4 238.372C361.5 239.072 374.8 239.872 387.9 237.872C391.7 237.272 395.5 236.572 399.2 235.672C401 235.272 403.1 234.972 404.3 236.172C405.8 237.672 405 240.172 403.7 241.772C402.4 243.372 400.7 244.772 400 246.772C399.4 248.772 400 250.772 399.7 252.772C399.5 253.872 399.1 254.972 398.4 255.972C397.7 256.972 396.9 257.772 396 258.372C390.2 262.172 379.7 261.272 373.1 261.472C364.4 261.672 355.8 261.272 347.1 260.772C319.5 259.272 295.6 257.872 273.7 278.972C266.8 285.572 257.6 287.372 249.8 283.572C246 281.672 242.9 278.772 240.8 275.072C238.7 271.372 237.8 267.172 238.2 262.972C238.3 261.472 238.3 259.972 238.2 258.472C238 258.572 237.7 258.772 237.5 258.972C231.3 263.172 225.1 270.172 219.7 276.372C218.5 277.872 217.2 279.172 216.1 280.472C207.5 289.972 195.6 292.872 185.6 287.672C180.9 285.172 177.1 281.172 174.8 276.372C172.6 271.472 172 266.072 173.2 260.872C174.7 254.472 178.3 246.672 180.9 241.472C182.1 238.972 182.3 236.972 181.4 235.972C180.5 234.972 178.5 234.572 175.9 235.672C164.9 240.172 155 248.672 146 256.172C131.4 268.272 118.7 282.572 103.8 294.272C102.7 294.772 101.4 295.572 100.3 295.472Z" fill="#36CCCC"/>
<path d="M321.6 147.871V146.271H266.2V147.871L279.6 162.571V239.071V249.771V330.771L266.2 345.271V346.871H321.6V345.271L308.2 330.771V162.571L321.6 147.871Z" fill="black"/>
</g>
<defs>
<clipPath id="clip0_1_6813">
<rect width="500" height="500" fill="white" transform="translate(0 0.671875)"/>
</clipPath>
</defs>
</svg>
