<svg width="500" height="501" viewBox="0 0 500 501" fill="none" xmlns="http://www.w3.org/2000/svg">
<g clip-path="url(#clip0_1_6818)">
<path d="M250 0.671875C388.1 0.671875 500 112.572 500 250.672C500 388.772 388.1 500.672 250 500.672C111.9 500.672 0 388.772 0 250.672C0 112.572 111.9 0.671875 250 0.671875Z" fill="white"/>
<path fill-rule="evenodd" clip-rule="evenodd" d="M442.3 190.672C442 191.472 441.7 192.372 441.3 193.172C441.1 194.172 440.7 195.572 440.1 197.272L438.7 200.872L436.9 205.172L433.8 212.072L430 219.872L425.8 228.272L421.2 237.172L416.4 246.272L411.4 255.372L406.4 264.172L401.5 272.572L396.9 280.272L392.6 287.072L390.9 289.572L387.9 293.872C386.5 295.772 385.2 297.372 384.1 298.572L382.9 299.672L366.6 313.572L446.6 353.672C407.9 421.672 334.7 467.572 250.7 467.572C165.6 467.572 91.5 420.372 53.2 350.772L131.6 313.372L124 307.172L114.8 299.572C113.3 298.272 111.3 295.772 109 292.272L106 287.672L102.1 281.372L100.1 277.872L95.8 270.372L91.4 262.272L86.9 253.772L82.5 245.072L78.1999 236.372L74.0999 227.972L70.4 219.872L67.0999 212.472L64.3 205.772L62.0999 200.072L61 196.972L60.5999 195.572C59.9999 194.772 59.5999 193.972 59.0999 193.172C73.3999 202.872 101.9 212.372 139.1 219.072L150.5 220.972C156.3 221.872 162.4 222.772 168.6 223.472L181.2 224.872C194 226.172 207.4 227.172 221.4 227.772L229.1 228.072L236.9 228.272L249 228.372L261.1 228.272L267 228.172L274.8 227.972C292.9 227.272 310.2 225.872 326.4 223.972L338.3 222.472C383.2 216.272 418.3 205.872 436.2 194.972L438.7 193.372L440.9 191.772L442.3 190.672ZM145 243.172L149.9 260.772C153.1 271.172 156.8 280.972 161.2 290.972L164.6 298.472L172.6 314.272C173.5 316.172 174.8 317.772 176.4 319.272L178.1 320.772L184.9 325.772C196.5 333.572 209.3 339.072 224.4 343.172L230.2 344.672L246.2 347.772L249.2 348.072H251.5L254.5 347.772L271 344.572C286.3 340.872 299.5 335.772 311.8 328.372L316.3 325.472L322.8 320.672C324.5 319.472 325.9 317.872 327 316.172L328.1 314.372L336.3 298.172C340.9 288.372 344.9 278.572 348.4 268.272L351 260.372L355.5 243.972C345.7 262.672 326.2 275.872 302.7 278.172L299.5 278.372L296 277.972C278.5 275.572 263.1 266.172 253.4 252.572L251.5 249.772L250.5 248.072L248.5 251.072C239 264.772 223.8 274.372 205.9 277.472L202.3 277.972L199 278.272L195.9 278.072C173.3 275.672 154.3 262.072 145 243.172ZM250.3 50.6719C264.6 50.6719 283.5 61.8719 311.5 84.1719L315.8 87.5719L328 97.5719L360.5 125.072L383.8 131.272L394.7 134.372L400.9 136.172L405.9 137.772L412.6 139.972L416.6 141.372L420.1 142.772C435.6 149.072 443.4 155.772 443.4 164.672L443.3 166.472L442.9 168.272L441.6 169.272L439.4 170.972C415.3 188.072 352.2 204.572 274.4 207.572L267.1 207.772L261.2 207.872L249.1 207.972L237 207.872L229.2 207.672C148.8 205.172 83.2 188.172 58.7 170.672C57.7 168.672 57.2999 166.572 57.2999 164.472C57.2999 154.672 65.5999 146.672 83.5999 139.672C80.6999 136.672 79.4 133.872 75.9 131.572C81.3 125.372 91.4 120.272 98.3 119.272C106.5 117.872 112.9 118.772 118.6 119.972L124.2 121.072C126 121.372 127.9 121.672 129.7 121.872C122.5 118.772 108.7 105.372 103.9 99.2719C98.1 86.2719 102.2 75.0719 105.8 68.7719L106.6 67.5719L107.8 65.6719L109.3 63.6719L110.2 63.5719L112.9 63.4719L116.8 63.5719C122.6 63.7719 130 64.8719 133 68.1719C139.9 77.9719 142.3 87.9719 144 96.2719L145 101.572C145.8 105.772 146.6 109.272 148 111.772C148.6 109.672 149.1 107.672 149.5 105.672L150.7 99.6719C151.8 94.6719 153.2 89.4719 156.6 83.3719C162.6 72.4719 183.7 57.4719 198.6 60.4719C198.8 61.9719 199.1 63.2719 199.4 64.4719L200.4 67.8719C201 70.0719 201.2 72.2719 200.4 75.5719L207.9 70.0719C225.9 57.1719 239.5 50.6719 250.3 50.6719Z" fill="#2DA287"/>
</g>
<defs>
<clipPath id="clip0_1_6818">
<rect width="500" height="500" fill="white" transform="translate(0 0.671875)"/>
</clipPath>
</defs>
</svg>
