<svg width="500" height="501" viewBox="0 0 500 501" fill="none" xmlns="http://www.w3.org/2000/svg">
<g clip-path="url(#clip0_1_6821)">
<path d="M250 500.672C388.071 500.672 500 388.743 500 250.672C500 112.601 388.071 0.671875 250 0.671875C111.929 0.671875 0 112.601 0 250.672C0 388.743 111.929 500.672 250 500.672Z" fill="#040000"/>
<path d="M250 500.672C388.071 500.672 500 388.743 500 250.672C500 112.601 388.071 0.671875 250 0.671875C111.929 0.671875 0 112.601 0 250.672C0 388.743 111.929 500.672 250 500.672Z" fill="#0C1433"/>
<path d="M133.6 91.5713L211.2 136.571L133.6 183.271V91.5713Z" fill="#6FC8EF"/>
<path d="M288.8 89.7715L366.4 134.871L288.8 181.571V89.7715Z" fill="#7ACBEB"/>
<path d="M133.6 183.371L211.2 228.371L133.6 275.171V183.371Z" fill="#6FC8EF"/>
<path d="M288.8 181.571L366.4 226.671L288.8 273.371V181.571Z" fill="#24BBEE"/>
<path d="M288.8 273.271L366.4 318.271L288.8 365.071V273.271Z" fill="#009DD2"/>
<path d="M211.2 228.371L288.8 273.371L211.2 320.171V228.371Z" fill="#0EABE1"/>
<path d="M133.6 274.871L211.2 319.871L133.6 366.671V274.871Z" fill="#29BBEE"/>
<path d="M211.2 228.371L133.6 183.271L211.2 136.571V228.371Z" fill="#97D5EE"/>
<path d="M366.4 226.571L288.8 181.571L366.4 134.871V226.571Z" fill="#4ABFED"/>
<path d="M366.4 318.371L288.8 273.371L366.4 226.571V318.371Z" fill="#0EADE4"/>
<path d="M288.8 273.371L211.2 228.371L288.8 181.571V273.371Z" fill="#4CC0EC"/>
<path d="M211.2 320.171L133.6 275.071L211.2 228.371V320.171Z" fill="#4ABFED"/>
<path d="M211.2 411.571L133.6 366.471L211.2 319.771V411.571Z" fill="#04ADE3"/>
<path d="M366.4 410.272L288.8 365.272L366.4 318.472V410.272Z" fill="#06AFE2"/>
</g>
<defs>
<clipPath id="clip0_1_6821">
<rect width="500" height="500" fill="white" transform="translate(0 0.671875)"/>
</clipPath>
</defs>
</svg>
