<svg width="500" height="501" viewBox="0 0 500 501" fill="none" xmlns="http://www.w3.org/2000/svg">
<g clip-path="url(#clip0_1_6840)">
<path d="M250 500.672C388.071 500.672 500 388.743 500 250.672C500 112.601 388.071 0.671875 250 0.671875C111.929 0.671875 0 112.601 0 250.672C0 388.743 111.929 500.672 250 500.672Z" fill="white"/>
<path d="M250 16.0719C281.7 16.0719 312.4 22.2719 341.3 34.4719C369.2 46.2719 394.3 63.1719 415.9 84.7719C437.4 106.272 454.4 131.372 466.2 159.372C478.4 188.272 484.6 218.972 484.6 250.672C484.6 282.372 478.4 313.072 466.2 341.972C454.4 369.872 437.5 394.972 415.9 416.572C394.4 438.072 369.3 455.072 341.3 466.872C312.4 479.072 281.7 485.272 250 485.272C218.3 485.272 187.6 479.072 158.7 466.872C130.8 455.072 105.7 438.172 84.1 416.572C62.6 395.072 45.6 369.972 33.8 341.972C21.6 313.072 15.4 282.372 15.4 250.672C15.4 218.972 21.6 188.272 33.8 159.372C45.6 131.472 62.5 106.372 84.1 84.7719C105.7 63.1719 130.7 46.2719 158.7 34.4719C187.6 22.2719 218.3 16.0719 250 16.0719ZM250 0.671875C111.9 0.671875 0 112.572 0 250.672C0 388.772 111.9 500.672 250 500.672C388.1 500.672 500 388.772 500 250.672C500 112.572 388.1 0.671875 250 0.671875Z" fill="#2898C4"/>
<path d="M250 16.0719C281.7 16.0719 312.4 22.2719 341.3 34.4719C369.2 46.2719 394.3 63.1719 415.9 84.7719C437.4 106.272 454.4 131.372 466.2 159.372C478.4 188.272 484.6 218.972 484.6 250.672C484.6 282.372 478.4 313.072 466.2 341.972C454.4 369.872 437.5 394.972 415.9 416.572C394.4 438.072 369.3 455.072 341.3 466.872C312.4 479.072 281.7 485.272 250 485.272C218.3 485.272 187.6 479.072 158.7 466.872C130.8 455.072 105.7 438.172 84.1 416.572C62.6 395.072 45.6 369.972 33.8 341.972C21.6 313.072 15.4 282.372 15.4 250.672C15.4 218.972 21.6 188.272 33.8 159.372C45.6 131.472 62.5 106.372 84.1 84.7719C105.7 63.1719 130.7 46.2719 158.7 34.4719C187.6 22.2719 218.3 16.0719 250 16.0719ZM250 0.671875C111.9 0.671875 0 112.572 0 250.672C0 388.772 111.9 500.672 250 500.672C388.1 500.672 500 388.772 500 250.672C500 112.572 388.1 0.671875 250 0.671875Z" fill="#2898C4"/>
<path d="M250 16.0719C281.7 16.0719 312.4 22.2719 341.3 34.4719C369.2 46.2719 394.3 63.1719 415.9 84.7719C437.4 106.272 454.4 131.372 466.2 159.372C478.4 188.272 484.6 218.972 484.6 250.672C484.6 282.372 478.4 313.072 466.2 341.972C454.4 369.872 437.5 394.972 415.9 416.572C394.4 438.072 369.3 455.072 341.3 466.872C312.4 479.072 281.7 485.272 250 485.272C218.3 485.272 187.6 479.072 158.7 466.872C130.8 455.072 105.7 438.172 84.1 416.572C62.6 395.072 45.6 369.972 33.8 341.972C21.6 313.072 15.4 282.372 15.4 250.672C15.4 218.972 21.6 188.272 33.8 159.372C45.6 131.472 62.5 106.372 84.1 84.7719C105.7 63.1719 130.7 46.2719 158.7 34.4719C187.6 22.2719 218.3 16.0719 250 16.0719ZM250 0.671875C111.9 0.671875 0 112.572 0 250.672C0 388.772 111.9 500.672 250 500.672C388.1 500.672 500 388.772 500 250.672C500 112.572 388.1 0.671875 250 0.671875Z" fill="#2898C4"/>
<path d="M250 16.0719C281.7 16.0719 312.4 22.2719 341.3 34.4719C369.2 46.2719 394.3 63.1719 415.9 84.7719C437.4 106.272 454.4 131.372 466.2 159.372C478.4 188.272 484.6 218.972 484.6 250.672C484.6 282.372 478.4 313.072 466.2 341.972C454.4 369.872 437.5 394.972 415.9 416.572C394.4 438.072 369.3 455.072 341.3 466.872C312.4 479.072 281.7 485.272 250 485.272C218.3 485.272 187.6 479.072 158.7 466.872C130.8 455.072 105.7 438.172 84.1 416.572C62.6 395.072 45.6 369.972 33.8 341.972C21.6 313.072 15.4 282.372 15.4 250.672C15.4 218.972 21.6 188.272 33.8 159.372C45.6 131.472 62.5 106.372 84.1 84.7719C105.7 63.1719 130.7 46.2719 158.7 34.4719C187.6 22.2719 218.3 16.0719 250 16.0719ZM250 0.671875C111.9 0.671875 0 112.572 0 250.672C0 388.772 111.9 500.672 250 500.672C388.1 500.672 500 388.772 500 250.672C500 112.572 388.1 0.671875 250 0.671875Z" fill="#2898C4"/>
<path d="M250 44.6715C277.8 44.6715 304.8 50.0715 330.2 60.8715C354.7 71.2715 376.8 86.0715 395.7 105.071C414.6 123.971 429.5 146.071 439.9 170.571C450.6 195.971 456.1 222.971 456.1 250.771C456.1 278.571 450.7 305.571 439.9 330.971C429.5 355.471 414.7 377.571 395.7 396.471C376.8 415.371 354.7 430.271 330.2 440.671C304.8 451.271 277.8 456.671 250 456.671C222.2 456.671 195.2 451.271 169.8 440.471C145.3 430.071 123.2 415.271 104.3 396.271C85.4001 377.271 70.5001 355.271 60.1001 330.771C49.4001 305.471 44.0001 278.471 44.0001 250.671C44.0001 222.871 49.4001 195.871 60.2001 170.471C70.6001 145.971 85.4001 123.871 104.4 104.971C123.4 86.0715 145.4 71.1715 169.9 60.7715C195.2 50.0715 222.2 44.6715 250 44.6715ZM250 29.2715C127.7 29.2715 28.6001 128.371 28.6001 250.671C28.6001 372.971 127.7 472.071 250 472.071C372.3 472.071 471.4 372.971 471.4 250.671C471.4 128.371 372.3 29.2715 250 29.2715Z" fill="#2898C4"/>
<path d="M250 44.6715C277.8 44.6715 304.8 50.0715 330.2 60.8715C354.7 71.2715 376.8 86.0715 395.7 105.071C414.6 123.971 429.5 146.071 439.9 170.571C450.6 195.971 456.1 222.971 456.1 250.771C456.1 278.571 450.7 305.571 439.9 330.971C429.5 355.471 414.7 377.571 395.7 396.471C376.8 415.371 354.7 430.271 330.2 440.671C304.8 451.271 277.8 456.671 250 456.671C222.2 456.671 195.2 451.271 169.8 440.471C145.3 430.071 123.2 415.271 104.3 396.271C85.4001 377.271 70.5001 355.271 60.1001 330.771C49.4001 305.471 44.0001 278.471 44.0001 250.671C44.0001 222.871 49.4001 195.871 60.2001 170.471C70.6001 145.971 85.4001 123.871 104.4 104.971C123.4 86.0715 145.4 71.1715 169.9 60.7715C195.2 50.0715 222.2 44.6715 250 44.6715ZM250 29.2715C127.7 29.2715 28.6001 128.371 28.6001 250.671C28.6001 372.971 127.7 472.071 250 472.071C372.3 472.071 471.4 372.971 471.4 250.671C471.4 128.371 372.3 29.2715 250 29.2715Z" fill="#2898C4"/>
<path d="M133.8 91.5723L211.3 136.472L133.8 183.172V91.5723Z" fill="#6FBEE1"/>
<path d="M288.7 89.8721L366.2 134.772L288.7 181.472V89.8721Z" fill="#79C1DF"/>
<path d="M133.8 183.271L211.3 228.171L133.8 274.971V183.271Z" fill="#6FBEE1"/>
<path d="M288.7 181.472L366.2 226.472L288.7 273.172V181.472Z" fill="#31AFDD"/>
<path d="M288.7 273.072L366.2 317.972L288.7 364.672V273.072Z" fill="#1192C3"/>
<path d="M211.3 228.172L288.7 273.172L211.3 319.872V228.172Z" fill="#1F9FD0"/>
<path d="M133.8 274.672L211.3 319.572L133.8 366.272V274.672Z" fill="#34AFDD"/>
<path d="M211.3 228.172L133.8 183.172L211.3 136.472V228.172Z" fill="#94CEE4"/>
<path d="M366.2 226.471L288.7 181.471L366.2 134.771V226.471Z" fill="#4DB4DD"/>
<path d="M366.2 318.172L288.7 273.172L366.2 226.472V318.172Z" fill="#23A1D3"/>
<path d="M288.7 273.172L211.3 228.272L288.7 181.472V273.172Z" fill="#4FB5DD"/>
<path d="M211.3 319.872L133.8 274.872L211.3 228.172V319.872Z" fill="#4DB4DD"/>
<path d="M211.3 411.172L133.8 366.172L211.3 319.472V411.172Z" fill="#1EA1D2"/>
<path d="M366.2 409.872L288.7 364.972L366.2 318.172V409.872Z" fill="#1BA3D1"/>
<path d="M300.3 364.672C300 364.672 299.7 364.672 299.4 364.672C291.7 364.572 284.7 362.372 278.4 358.272C272.2 354.172 267.2 348.772 263.6 342.072C260 335.372 258.2 327.872 258.4 319.872C258.5 313.772 259.7 308.072 262 302.772C264.3 297.572 267.4 292.872 271.2 288.972C275.1 285.072 279.6 281.872 284.7 279.772C286.4 279.072 288.2 278.372 290.1 277.972L291.6 213.572C291.6 212.472 292.5 211.672 293.5 211.672L330.4 212.572C336.7 212.672 342.5 214.472 347.5 217.672C352.5 220.872 356.5 225.172 359.4 230.472C362.3 235.772 363.7 241.772 363.5 248.172C363.4 254.672 361.7 260.672 358.5 265.872C355.3 271.072 351.1 275.172 345.9 278.072C340.9 280.872 335.5 282.272 329.6 282.272C329.3 282.272 329 282.272 328.8 282.272L320.4 282.072C324.7 284.572 328.5 287.872 331.7 291.772C335.3 296.372 338.1 301.672 339.8 307.572C341.5 313.472 342.1 319.872 341.5 326.572C341.4 327.572 340.6 328.372 339.6 328.372L291.4 327.472C291.1 327.472 290.7 327.372 290.4 327.172C290.1 327.072 289.8 326.872 289.5 326.672C289.1 326.272 288.9 325.772 289 325.272L289.7 295.172C289.6 295.272 289.5 295.272 289.4 295.372C285.9 297.272 283 299.972 280.7 303.372C278.4 306.772 276.9 310.672 276.3 314.872C276 316.472 275.9 318.172 275.8 319.972C275.7 327.372 277.9 334.272 281.6 337.972C281.7 338.072 281.7 338.072 281.8 338.172C283.7 340.572 286 342.672 288.6 344.172C291.9 346.172 295.7 347.172 299.8 347.372C299.9 347.372 300.1 347.372 300.3 347.372C304.5 347.372 308.4 346.272 311.8 344.172C315.4 341.972 318.4 338.872 320.7 334.872C321.1 334.272 321.7 333.872 322.4 333.872C322.6 333.872 322.7 333.872 322.9 333.972L336.5 337.472C337.1 337.572 337.5 337.972 337.8 338.572C338 339.072 338 339.672 337.8 340.272C334.3 347.572 329.1 353.572 322.3 358.072C315.7 362.372 308.3 364.672 300.3 364.672ZM324.2 313.572C323.7 310.272 322.5 307.172 320.7 304.272C318.5 300.772 315.6 297.972 312.2 295.772C310.6 294.772 309 294.072 307.2 293.472L306.7 313.172L324.2 313.572ZM307.6 277.272C311.1 277.872 314.4 278.872 317.5 280.372C317.5 280.272 317.5 280.072 317.5 279.972L317.8 266.572C317.8 265.472 318.7 264.672 319.7 264.672L328.2 264.872C328.4 264.872 328.5 264.872 328.7 264.872C331.8 264.872 334.6 264.172 337.2 262.672C339.9 261.172 342.2 258.972 343.8 256.272C345.5 253.572 346.3 250.472 346.4 246.972C346.5 243.472 345.7 240.272 344.2 237.472C342.7 234.672 340.5 232.472 337.9 230.772C335.3 229.072 332.3 228.272 329 228.172L308.7 227.672L307.6 277.272Z" fill="#D2EBF5"/>
<path d="M293.7 213.572L330.5 214.472C336.5 214.572 341.9 216.172 346.6 219.272C351.3 222.272 355.1 226.372 357.8 231.372C360.5 236.372 361.8 241.972 361.7 248.072C361.6 254.272 360 259.872 357 264.772C354 269.672 350 273.472 345.1 276.272C340.4 278.972 335.3 280.272 329.8 280.272C329.5 280.272 329.3 280.272 329 280.272L319.4 280.072L319.7 266.672L328.1 266.872C328.3 266.872 328.4 266.872 328.6 266.872C332 266.872 335.2 266.072 338.1 264.472C341.1 262.772 343.6 260.372 345.4 257.372C347.3 254.372 348.2 250.972 348.3 247.072C348.4 243.172 347.6 239.672 345.9 236.572C344.2 233.472 341.9 230.972 338.9 229.172C335.9 227.272 332.7 226.372 329 226.272L306.7 225.772L305.8 264.672V266.372L305.5 279.072C309.8 279.572 313.8 280.872 317.5 282.672C322.5 285.172 326.7 288.672 330.2 292.972C333.7 297.372 336.3 302.372 338 308.172C339.7 313.872 340.2 319.972 339.6 326.472L318.3 326.072L307.8 325.872L300.7 325.772L291.4 325.572V325.372H290.9L291.7 292.272C290.6 292.672 289.5 293.172 288.4 293.772C284.6 295.872 281.5 298.772 279 302.372C276.5 305.972 274.9 310.172 274.3 314.672C274 316.372 273.9 318.172 273.8 320.072C273.6 328.272 276.2 335.472 280.2 339.472C282.2 342.072 284.7 344.272 287.5 345.972C291.1 348.072 295.1 349.272 299.6 349.372C299.8 349.372 300 349.372 300.1 349.372C304.7 349.372 308.9 348.172 312.6 345.872C316.5 343.472 319.7 340.172 322.2 335.872L335.8 339.372C332.5 346.372 327.5 352.072 321 356.472C314.7 360.672 307.7 362.772 300.1 362.772C299.8 362.772 299.5 362.772 299.3 362.772C292 362.672 285.3 360.572 279.4 356.672C273.4 352.772 268.7 347.572 265.3 341.172C261.8 334.772 260.2 327.672 260.3 319.972C260.4 314.172 261.6 308.672 263.7 303.672C265.9 298.672 268.8 294.272 272.5 290.472C276.2 286.672 280.5 283.772 285.4 281.672C287.5 280.772 289.7 280.072 292 279.572L293.7 213.572ZM326.4 315.572C326.1 311.072 324.7 306.972 322.3 303.272C319.9 299.572 316.9 296.472 313.1 294.172C310.6 292.672 308 291.572 305.2 291.072L304.6 315.172L317.3 315.372H318.5L326.4 315.572ZM293.7 209.672C291.6 209.672 289.8 211.372 289.8 213.472L288.3 276.472C286.8 276.872 285.4 277.472 284 277.972C278.7 280.272 273.9 283.472 269.8 287.672C265.8 291.772 262.5 296.672 260.2 302.072C257.8 307.572 256.6 313.572 256.5 319.872C256.3 328.272 258.2 335.972 261.9 342.972C265.7 349.972 270.9 355.672 277.3 359.872C283.9 364.172 291.3 366.372 299.3 366.572C299.6 366.572 299.9 366.572 300.2 366.572C308.6 366.572 316.4 364.172 323.3 359.572C330.4 354.872 335.8 348.572 339.4 340.972C339.9 339.872 339.9 338.672 339.4 337.672C338.9 336.572 338 335.872 336.8 335.572L323.2 332.072C322.9 331.972 322.6 331.972 322.2 331.972C320.8 331.972 319.5 332.672 318.8 333.872C316.7 337.572 313.9 340.472 310.5 342.472C307.3 344.372 303.9 345.372 300 345.372C299.9 345.372 299.7 345.372 299.6 345.372C295.8 345.272 292.4 344.272 289.4 342.472C287 341.072 284.9 339.172 283.2 336.872C283.1 336.772 283 336.572 282.9 336.472C279.5 333.072 277.5 326.772 277.7 319.872C277.7 318.172 277.9 316.472 278.1 315.072V314.972C278.7 310.972 280.1 307.472 282.2 304.272C283.7 302.072 285.5 300.172 287.6 298.572L287 324.972C287 326.672 288 328.172 289.6 328.772C290.1 329.072 290.7 329.172 291.3 329.172L300.6 329.372L307.7 329.472L318.2 329.672L339.5 330.072H339.6C341.6 330.072 343.3 328.572 343.5 326.572C344.1 319.672 343.6 312.972 341.8 306.772C340 300.572 337.1 295.072 333.3 290.272C331.4 287.872 329.3 285.772 327 283.872H328.9C329.2 283.872 329.5 283.872 329.8 283.872C335.9 283.872 341.7 282.372 347 279.372C352.5 276.272 357 271.972 360.3 266.472C363.7 260.972 365.5 254.772 365.6 247.872C365.8 241.072 364.3 234.772 361.2 229.172C358.2 223.572 353.9 218.972 348.7 215.672C343.4 212.272 337.3 210.472 330.6 210.272L293.7 209.672ZM309.5 275.672L309.7 266.372V264.672L310.5 229.672L328.8 230.072C331.7 230.172 334.3 230.872 336.7 232.372C339.1 233.872 341 235.872 342.4 238.372C343.8 240.872 344.4 243.672 344.3 246.872C344.2 250.072 343.5 252.772 342 255.172C340.5 257.672 338.5 259.472 336.1 260.872C333.8 262.172 331.3 262.772 328.5 262.772C328.4 262.772 328.2 262.772 328.1 262.772L319.7 262.572H319.6C318.6 262.572 317.6 262.972 316.9 263.672C316.1 264.372 315.7 265.372 315.7 266.372L315.4 277.272C313.6 276.672 311.6 276.072 309.5 275.672ZM308.7 311.372L309 296.472C309.7 296.772 310.4 297.172 311.1 297.572C314.3 299.572 317 302.172 319 305.372C320.3 307.372 321.2 309.372 321.8 311.572L318.7 311.472H317.5L308.7 311.372Z" fill="#2898C4"/>
</g>
<defs>
<clipPath id="clip0_1_6840">
<rect width="500" height="500" fill="white" transform="translate(0 0.671875)"/>
</clipPath>
</defs>
</svg>
