<svg width="500" height="501" viewBox="0 0 500 501" fill="none" xmlns="http://www.w3.org/2000/svg">
<path d="M5 249.573C4.985 113.299 114.66 3.64988 250.959 3.67188C386.357 3.69288 495.891 113.807 495.816 249.825C495.741 385.844 385.559 494.563 247.859 494.488C114.899 494.416 5.014 383.601 5 249.573ZM343.519 67.8009C331.408 67.8009 320.827 67.8009 309.744 67.8009C290.205 115.115 270.686 162.383 250.397 211.516C230.532 162.121 211.562 114.954 192.633 67.8879C181.117 67.8879 170.321 67.8879 158.32 67.8879C188.917 141.894 219.211 215.17 250.4 290.607C281.886 215.269 312.466 142.101 343.519 67.8009ZM158.347 208.106C188.978 282.104 219.294 355.338 250.405 430.496C281.898 355.252 312.519 282.09 343.464 208.156C331.359 208.156 320.588 208.156 309.574 208.156C290.017 255.563 270.587 302.661 250.391 351.616C230.617 302.401 211.678 255.262 192.731 208.106C181.264 208.106 170.438 208.106 158.347 208.106Z" fill="black"/>
</svg>
