<svg width="500" height="501" viewBox="0 0 500 501" fill="none" xmlns="http://www.w3.org/2000/svg">
<path d="M75.3995 118.972C99.6995 118.972 124.3 118.972 149.3 118.972C149.3 109.272 149.3 99.8723 149.3 90.4723C149.3 88.3723 146 78.2723 144.8 76.6723C142.3 73.2723 138.8 71.3723 134.5 70.9723C134.5 66.5723 134.5 58.0723 134.5 58.0723H228.2C228.2 58.0723 228.2 66.5723 228.2 70.8723C221.2 72.3723 216.1 77.9723 215.1 85.2723C214.4 90.7723 214.7 118.972 214.7 118.972C214.7 118.972 271.2 118.972 300.3 118.972C300.3 108.772 300.9 98.5723 300.1 88.4723C299.6 81.8723 297 75.3723 289.9 71.3723C289.1 71.3723 287.4 71.2723 285.6 71.1723C285.6 66.8723 285.6 58.1723 285.6 58.1723H381C381 58.1723 381 65.5723 381 69.4723C380.1 70.0723 379.1 71.1723 378.1 71.2723C373.5 71.5723 370.8 74.4723 369.3 78.2723C367.6 82.6723 366.1 86.9723 366.1 91.9723C366.2 166.972 366.1 326.972 366.1 326.972C366.1 326.972 386 326.972 395.5 326.972C401.1 317.172 406.7 307.572 412.6 297.372C412.6 293.472 412.6 284.572 412.6 284.572L497.6 283.972L497.7 298.172C497.7 298.172 492.5 299.672 489.2 300.672C487.9 301.972 486.3 303.872 484.4 305.472C480.7 308.672 478.4 312.772 475.9 316.872C470.8 325.472 440.9 378.372 440.5 379.472C365.1 379.472 213.8 379.472 213.8 379.472C213.8 379.472 213.7 395.572 213.8 403.472C213.8 406.872 217.6 417.872 219.8 420.372C223.3 424.372 228.1 426.372 233.3 427.272C234.5 427.472 235.9 427.072 237 427.472C238.3 427.872 239.4 428.872 240.7 429.572C240.7 432.972 240.7 436.472 240.7 440.172C240.1 440.672 239.3 441.272 238.3 442.172C200.6 442.172 162.6 442.172 124.3 442.172C124.3 437.872 124.3 433.672 124.3 429.372C124.9 428.772 125.6 428.072 126.4 427.272C134 428.472 140.4 425.372 144.5 419.272C147.5 414.772 149.6 409.472 149.6 403.472C149.4 366.872 149.5 330.172 149.5 293.572C149.5 257.972 149.5 181.772 149.5 179.172C171.1 179.172 192.2 179.172 213.5 179.172C213.5 193.872 213.5 223.072 213.5 223.072L300.3 223.572C300.3 223.572 300.3 189.372 300.3 171.872C240.5 171.872 180.5 171.872 119.8 171.872C119.4 172.672 83.4995 234.772 78.1995 243.572C76.0995 247.072 75.3995 250.472 77.6995 254.072C80.9995 259.372 116.2 321.772 120.3 327.172C127.4 327.172 134.6 327.172 141.9 327.172C141.9 344.572 141.9 361.672 141.9 379.072C119.8 379.072 97.6995 379.072 75.1995 379.072C71.4995 375.772 4.39954 256.672 2.69954 253.972C0.299538 250.272 1.09954 246.872 3.29954 243.472C8.59954 235.272 73.3995 122.472 75.3995 118.972ZM300.2 274.872C271.8 274.872 243.6 274.872 215.6 274.872C214.8 275.672 214.3 276.172 213.8 276.672C213.8 293.272 213.8 309.872 213.8 326.672C242.7 326.672 271.5 326.672 300.2 326.672C300.2 309.372 300.2 292.272 300.2 274.872Z" fill="#5C4D94"/>
<path d="M372.4 121.072C373.2 120.272 373.7 119.772 374.3 119.172C395.6 119.172 417 119.172 439.2 119.172C440.4 120.872 441.9 122.872 443.2 125.072C448.9 134.672 454.5 144.372 459.9 154.072C464.3 161.972 469.3 169.572 473.4 177.572C475.9 182.572 478.6 187.572 481.9 191.972C484.9 195.872 489.3 198.472 494.2 199.872C495.3 200.172 496.3 200.772 497.5 201.372C497.5 205.672 497.5 214.072 497.5 214.072L412.5 214.672C412.5 214.672 412.5 209.872 412.5 207.472C412.5 205.272 412.5 202.972 412.5 201.872C406.4 191.372 400.9 181.672 395 171.572C388.5 171.572 381.3 171.572 374.4 171.572C373.6 170.772 373.1 170.272 372.3 169.472C372.4 153.572 372.4 137.472 372.4 121.072Z" fill="#5C4D94"/>
<path d="M391.4 428.771C391.4 433.471 391.4 437.571 391.4 441.971C352.6 441.971 313.9 441.971 275 441.971C275 437.571 275 433.471 275 429.271C277.9 426.971 281.2 427.071 284.2 427.171C287 425.571 289.6 424.471 291.8 422.871C297.7 418.671 299.7 412.271 300.2 405.471C300.6 399.571 300.3 393.571 300.3 387.571C300.5 387.371 300.6 387.171 300.8 387.071C301 386.971 301.2 386.771 301.4 386.771C322.3 386.771 343.1 386.771 363.9 386.771C364.6 387.471 365.1 387.971 366.1 388.971C366.1 393.571 366.3 398.771 366.1 403.971C365.7 413.071 370.1 419.671 376.8 424.871C378.7 426.371 381.6 426.471 384 427.171C386.5 427.771 389 428.271 391.4 428.771Z" fill="#5C4D94"/>
</svg>
