<svg width="500" height="501" viewBox="0 0 500 501" fill="none" xmlns="http://www.w3.org/2000/svg">
<path d="M251.377 439.998C305.845 408.556 359.73 377.45 414.001 346.122C414.001 282.82 414.001 219.505 414.001 155.109C394.315 143.7 374.13 132.003 351.987 119.171C351.987 189.461 351.987 258.009 351.987 326.471C334.378 336.623 317.992 346.069 299.978 356.454C299.978 327.216 299.978 299.649 299.978 271.307C267.154 271.307 235.51 271.307 203.025 271.307C203.025 337.687 203.025 403.535 203.025 470.647C199.688 469.376 197.34 468.823 195.339 467.67C145.523 438.965 95.8089 410.081 45.8879 381.56C38.2519 377.197 35.2949 371.8 35.3249 363.035C35.5769 288.281 35.5779 213.526 35.3059 138.773C35.2729 129.638 38.2089 123.979 46.2939 119.35C111.127 82.2381 175.794 44.8321 240.365 7.26411C247.886 2.88911 254.463 2.13211 261.751 7.11311C266.555 10.3961 271.713 13.1591 276.934 16.2881C276.934 35.5061 276.934 54.4471 276.934 75.2181C267.915 70.3571 259.774 65.9681 250.899 61.1841C196.791 92.4231 142.312 123.876 87.5549 155.489C87.5549 218.752 87.5549 281.659 87.5549 345.614C107.587 357.177 128.033 368.979 149.917 381.611C149.917 311.179 149.917 242.501 149.917 172.903C166.847 163.081 183.511 153.414 201.992 142.693C201.992 168.599 201.992 192.828 201.992 217.987C234.977 217.987 266.577 217.987 299.504 217.987C299.504 155.772 299.504 93.4281 299.504 29.1081C321.865 42.0041 342.388 53.8311 362.903 65.6741C393.984 83.6161 424.943 101.773 456.215 119.374C464.274 123.91 467.349 129.581 467.316 138.753C467.048 212.774 466.977 286.797 467.37 360.816C467.426 371.41 463.675 377.533 454.644 382.695C391.691 418.676 328.845 454.851 266.306 491.546C255.442 497.921 246.292 499.323 236.173 491.378C232.772 488.708 228.795 486.773 224.882 484.38C224.882 465.075 224.882 446.114 224.882 425.293C234.136 430.431 242.29 434.955 251.377 439.998Z" fill="black"/>
</svg>
