<svg width="500" height="501" viewBox="0 0 500 501" fill="none" xmlns="http://www.w3.org/2000/svg">
<path d="M493.8 237.672L380.8 42.6719C377 36.1719 370.1 32.1719 362.6 32.1719H136.4C128.9 32.1719 121.9 36.1719 118.2 42.6719L5.1 237.672C1.3 244.172 1.3 252.272 5.1 258.872L31.2 303.972L106 172.272C108.8 167.272 114.1 164.272 119.8 164.272H287.7C293.4 164.272 298.7 167.372 301.5 172.272L385.7 320.372C388.5 325.272 388.5 331.172 385.7 336.072L312.8 464.372H362.6C370.1 464.372 377.1 460.372 380.8 453.872L493.8 258.872C497.6 252.372 497.6 244.272 493.8 237.672Z" fill="url(#paint0_linear_1_6883)"/>
<path d="M362.2 319.071L289.2 194.471C286.8 190.271 282.3 187.771 277.5 187.771H131.2C126.4 187.771 121.9 190.371 119.5 194.471L46.5 319.071C44 323.271 44 328.571 46.5 332.771L68.9 371.071L108.9 302.471C110.6 299.671 113.6 297.871 116.9 297.871H216C219.3 297.871 222.3 299.571 224 302.471L273.5 387.271C275.2 390.171 275.2 393.671 273.5 396.571L234 464.071H277.5C282.3 464.071 286.8 461.471 289.2 457.371L362.2 332.771C364.7 328.571 364.7 323.271 362.2 319.071Z" fill="url(#paint1_linear_1_6883)"/>
<path d="M206.1 319.472H129.2C126.7 319.472 124.4 320.772 123.1 322.972L84.7001 387.672C83.4001 389.872 83.4001 392.672 84.7001 394.872L123 459.672C124.3 461.872 126.6 463.172 129.1 463.172H206C208.5 463.172 210.8 461.872 212.1 459.672L250.4 394.872C251.7 392.672 251.7 389.872 250.4 387.672L212.1 322.872C210.9 320.772 208.6 319.472 206.1 319.472Z" fill="url(#paint2_linear_1_6883)"/>
<defs>
<linearGradient id="paint0_linear_1_6883" x1="125.899" y1="459.343" x2="366.821" y2="47.8399" gradientUnits="userSpaceOnUse">
<stop stop-color="#FFD802"/>
<stop offset="0.5306" stop-color="#FE5D49"/>
<stop offset="1" stop-color="#FF02F8"/>
</linearGradient>
<linearGradient id="paint1_linear_1_6883" x1="126.142" y1="459.485" x2="367.065" y2="47.9819" gradientUnits="userSpaceOnUse">
<stop stop-color="#FFD802"/>
<stop offset="0.5026" stop-color="#FE5D49"/>
<stop offset="1" stop-color="#FF02F8"/>
</linearGradient>
<linearGradient id="paint2_linear_1_6883" x1="127.32" y1="460.175" x2="368.243" y2="48.6719" gradientUnits="userSpaceOnUse">
<stop stop-color="#FFD802"/>
<stop offset="0.5026" stop-color="#FE5D49"/>
<stop offset="1" stop-color="#FF02F8"/>
</linearGradient>
</defs>
</svg>
