<svg width="500" height="501" viewBox="0 0 500 501" fill="none" xmlns="http://www.w3.org/2000/svg">
<g clip-path="url(#clip0_1_6892)">
<path d="M357.4 278.571C359.1 278.571 360.1 280.371 359.3 281.771L253 465.471C252.6 466.171 251.9 466.571 251.1 466.571H186.2C184.5 466.571 183.5 464.771 184.3 463.371L290.6 279.671C291 278.971 291.7 278.571 292.5 278.571H357.4ZM294.3 225.871C293.5 225.871 292.8 225.471 292.4 224.771L184.4 37.9715C183.6 36.5715 184.6 34.7715 186.3 34.7715H251.2C252 34.7715 252.7 35.1715 253.1 35.8715L361.1 222.671C361.9 224.071 360.9 225.871 359.2 225.871H294.3Z" fill="#E31337"/>
<path d="M307.1 37.9715C306.3 36.5715 307.3 34.7715 309 34.7715H374C374.8 34.7715 375.5 35.1715 375.9 35.8715L499.7 249.671C500.1 250.371 500.1 251.171 499.7 251.771L375.9 465.471C375.5 466.171 374.8 466.571 374 466.571H309C307.3 466.571 306.3 464.771 307.1 463.371L430.3 250.671L307.1 37.9715ZM254.3 249.571C254.7 250.271 254.7 251.071 254.3 251.771L129.8 465.471C129 466.871 126.9 466.871 126.1 465.471L0.3 251.771C-0.1 251.071 -0.1 250.271 0.3 249.571L124.7 35.8715C125.5 34.4715 127.6 34.4715 128.4 35.8715L254.3 249.571Z" fill="#E31337"/>
</g>
<defs>
<clipPath id="clip0_1_6892">
<rect width="500" height="500" fill="white" transform="translate(0 0.671875)"/>
</clipPath>
</defs>
</svg>
