<svg width="500" height="501" viewBox="0 0 500 501" fill="none" xmlns="http://www.w3.org/2000/svg">
<g clip-path="url(#clip0_1_6895)">
<path d="M383.2 197.472C374.9 205.772 364.8 210.872 354.1 212.972C368.9 252.972 359.3 298.672 328.8 329.172C307.8 350.172 279.5 361.372 250.8 361.372C237.9 361.372 224.9 359.072 212.5 354.472C210.4 365.172 205.3 375.372 197 383.672C174.9 405.772 139.1 405.772 117 383.672C94.9 361.572 94.9 325.772 117 303.672C125.2 295.472 135.4 290.272 146.1 288.172C131 248.072 140.5 202.072 171.2 171.472C201.8 140.872 247.7 131.272 287.8 146.372C289.9 135.772 295.1 125.672 303.3 117.472C325.4 95.3719 361.2 95.3719 383.3 117.472C405.3 139.572 405.3 175.372 383.2 197.472ZM250 0.671875C111.9 0.671875 0 112.572 0 250.672C0 388.772 111.9 500.672 250 500.672C388.1 500.672 500 388.772 500 250.672C500 112.572 388.1 0.671875 250 0.671875ZM279.5 279.872C263.3 296.072 237.1 296.072 221 279.872C204.8 263.672 204.8 237.472 221 221.372C237.2 205.172 263.4 205.172 279.5 221.372C295.7 237.472 295.7 263.672 279.5 279.872ZM316.5 130.772C308 139.272 304.1 151.472 306.1 163.372C306.8 167.272 306.4 171.272 304.6 174.972C302.4 179.772 298.4 183.272 293.8 184.972C289.2 186.672 283.9 186.572 279.1 184.372C252 171.872 219.6 177.572 198.5 198.672C177.4 219.772 171.6 252.172 184.2 279.272C186.5 284.172 186.5 289.572 184.7 294.172C183 298.672 179.6 302.572 174.8 304.772C172.2 305.972 169.4 306.572 166.7 306.572C165.4 306.572 164.1 306.372 162.9 306.172C150.5 304.472 139 308.272 130.6 316.672C123.5 323.772 119.7 333.072 119.7 343.072C119.7 353.072 123.6 362.472 130.6 369.472C145.2 384.072 168.9 384.072 183.4 369.472C191.9 360.972 195.8 348.772 193.8 336.872C193.7 336.172 193.7 335.572 193.8 334.972C193.6 331.872 194.1 328.572 195.5 325.472C197.7 320.672 201.7 317.172 206.3 315.472C210.9 313.772 216.2 313.772 221.1 316.072C248.2 328.672 280.6 322.872 301.7 301.772C322.8 280.672 328.6 248.272 316 221.172C313.8 216.372 313.7 211.172 315.4 206.572C317.1 201.872 320.6 197.872 325.4 195.572C328.8 193.972 332.5 193.472 335.9 193.972C336.4 193.872 337 193.872 337.6 193.972C349.4 195.672 360.9 191.772 369.3 183.372C383.9 168.772 383.9 145.072 369.3 130.572C354.7 116.172 331 116.172 316.5 130.772Z" fill="#474DFF"/>
</g>
<defs>
<clipPath id="clip0_1_6895">
<rect width="500" height="500" fill="white" transform="translate(0 0.671875)"/>
</clipPath>
</defs>
</svg>
