<svg width="500" height="501" viewBox="0 0 500 501" fill="none" xmlns="http://www.w3.org/2000/svg">
<path d="M274.847 8.92573C377.583 22.8807 445.638 79.4247 479.723 176.82C485.436 193.144 487.684 210.68 491.533 227.656C492.772 242.614 493.019 255.769 491.533 271.319C488.634 285.648 487.023 300.384 482.628 314.238C454.028 404.407 394.993 462.919 302.098 485.458C280.581 490.443 253.244 491.392 224.275 490.198C196.96 489.073 170.91 481.228 146.786 468.851C135.636 463.13 125.553 463.548 114.536 465.829C105.875 467.622 97.2889 469.782 88.6259 471.564C70.6629 475.258 52.6699 478.81 33.0749 482.744C40.9099 457.099 48.5759 433.474 55.0899 409.537C56.5229 404.27 55.2789 397.215 52.8529 392.138C41.8109 369.025 28.4299 346.923 18.8209 323.267C12.1969 306.959 10.3649 288.705 6.39189 271.32C4.74889 256.568 5.66189 242.352 6.39189 227.657C9.29089 213.328 10.9019 198.592 15.2969 184.738C43.8969 94.5677 102.887 35.8687 195.827 13.5177C234.381 4.24473 273.431 8.73273 274.847 8.92573ZM165.911 100.51C165.911 196.764 165.911 291.191 165.911 386.137C186.642 386.137 206.533 386.137 227.432 386.137C227.432 340.311 227.432 295.529 227.432 249.574C236.949 246.99 245.724 244.009 254.74 242.276C277.76 237.853 284.597 243.599 284.626 266.663C284.67 302.237 284.613 337.811 284.673 373.385C284.68 377.64 285.148 381.894 285.413 386.31C306.337 386.31 325.932 386.31 345.408 386.31C345.935 384.3 346.504 383.143 346.503 381.987C346.452 331.057 347.034 280.113 345.985 229.203C345.411 201.329 330.562 188.52 302.902 187.628C277.181 186.798 252.273 189.998 227.436 202.962C227.436 160.337 227.436 119.736 227.436 77.1137C205.822 85.3317 185.987 92.8747 165.911 100.51Z" fill="#2C343F"/>
<path d="M165.911 100.51C185.987 92.8753 205.822 85.3323 227.434 77.1133C227.434 119.735 227.434 160.336 227.434 202.961C252.271 189.997 277.179 186.797 302.9 187.627C330.561 188.519 345.409 201.328 345.983 229.202C347.031 280.112 346.45 331.056 346.501 381.986C346.502 383.142 345.933 384.299 345.406 386.309C325.93 386.309 306.335 386.309 285.411 386.309C285.147 381.893 284.678 377.639 284.671 373.384C284.611 337.81 284.669 302.236 284.624 266.662C284.595 243.598 277.758 237.852 254.738 242.275C245.722 244.007 236.947 246.989 227.43 249.573C227.43 295.528 227.43 340.31 227.43 386.136C206.531 386.136 186.64 386.136 165.909 386.136C165.911 291.191 165.911 196.764 165.911 100.51Z" fill="white"/>
</svg>
