<svg width="500" height="501" viewBox="0 0 500 501" fill="none" xmlns="http://www.w3.org/2000/svg">
<path d="M5.62704 428.18C13.224 410.775 20.456 394.206 27.715 377.575C63.873 377.451 96.266 366.93 123.516 342.733C142.114 326.219 154.528 305.78 160.651 281.413C140.642 280.295 120.483 283.359 100.572 277.902C107.91 261.082 114.993 244.745 122.258 228.489C122.632 227.651 124.561 227.115 125.771 227.104C137.488 227.002 149.206 227.043 161.429 227.043C154.091 195.773 137.259 171.287 111.429 153.148C85.756 135.12 56.782 127.445 25.398 128.107C18.11 111.41 10.938 94.9773 3.34204 77.5723C54.486 71.5973 101.636 81.4113 144.725 108.847C188.356 136.628 216.232 175.622 225.982 226.951C241.653 226.951 257.205 226.951 272.633 226.951C285.199 165.957 321.534 123.862 376.498 97.3253C414.243 79.1023 454.306 73.1663 496.666 78.9483C493.559 86.1053 490.779 92.4953 488.01 98.8893C483.992 108.169 480.12 117.517 475.812 126.66C475.192 127.976 472.481 128.996 470.741 128.991C446.415 128.924 422.911 133.289 401.467 144.757C389.296 151.265 377.771 159.498 367.265 168.485C349.994 183.258 338.755 202.329 332.655 224.311C332.436 225.1 332.238 225.895 332 226.8C351.632 228.154 371.5 224.584 391.026 230.565C386.789 240.271 382.691 249.629 378.619 258.998C375.987 265.054 373.667 271.27 370.621 277.108C369.645 278.979 366.838 280.949 364.795 281.031C354.824 281.434 344.828 281.213 334.841 281.214C334.033 281.214 333.225 281.214 332.358 281.214C341.249 322.26 387.539 379.097 473.772 378.839C480.872 395.125 488.011 411.501 495.591 428.886C444.682 435.011 397.766 425.338 354.739 398.263C311.165 370.844 283.103 332.272 272.889 281.31C256.962 281.31 241.133 281.31 225.547 281.31C212.45 341.605 176.219 383.124 121.724 409.383C85.21 426.978 46.471 432.776 5.62704 428.18Z" fill="#00838D"/>
</svg>
