<svg width="500" height="501" viewBox="0 0 500 501" fill="none" xmlns="http://www.w3.org/2000/svg">
<path d="M119.4 40.2718C119.4 40.2718 135 31.8718 160.1 28.3718C185.2 24.8718 274.1 12.0718 274.1 12.0718C274.1 12.0718 292.6 8.57183 312.4 11.6718C332.2 14.7718 341 19.5718 341 19.5718C341 19.5718 385 55.6718 381.5 119.472C378 183.272 331.3 227.472 293 240.072C286.4 242.272 282.4 242.872 275.9 244.072C267.6 245.572 262.2 239.372 265 232.072C271.4 215.872 278 189.672 271.8 158.672C261.3 106.272 209.3 31.9718 119.4 40.2718Z" fill="url(#paint0_linear_1_6902)"/>
<path d="M496.3 242.271C496.3 242.271 495.9 259.971 486.5 283.471C477.1 306.971 444.2 390.571 444.2 390.571C444.2 390.571 438.1 408.371 425.6 424.071C413.1 439.771 404.5 444.971 404.5 444.971C404.5 444.971 351.3 465.371 297.7 430.671C244.1 395.971 228.8 333.571 236.7 294.071C238.1 287.271 239.5 283.471 241.7 277.271C244.5 269.371 252.6 267.671 257.5 273.771C268.4 287.371 287.9 306.171 317.9 316.071C368.7 332.871 459 324.471 496.3 242.271Z" fill="url(#paint1_linear_1_6902)"/>
<path d="M132.9 468.372C132.9 468.372 117.8 459.172 102.1 439.272C86.4 419.372 30.4 349.172 30.4 349.172C30.4 349.172 18 335.072 10.7 316.372C3.3 297.772 3 287.672 3 287.672C3 287.672 11.9 231.472 68.7 202.272C125.5 173.072 187.3 191.072 217.5 217.672C222.7 222.272 225.3 225.372 229.6 230.372C235 236.772 232.5 244.572 224.8 245.772C207.5 248.372 181.6 255.972 158 276.972C118.1 312.672 80.3 395.072 132.9 468.372Z" fill="url(#paint2_linear_1_6902)"/>
<path d="M366.6 32.6719C366.6 32.6719 381.7 41.8719 397.3 61.8719C413 81.7719 468.7 152.172 468.7 152.172C468.7 152.172 481 166.372 488.3 185.072C495.6 203.772 495.8 213.772 495.8 213.772C495.8 213.772 486.7 269.972 429.8 298.972C372.9 328.072 311.2 309.872 281.1 283.172C275.9 278.572 273.3 275.472 269.1 270.472C263.7 264.072 266.3 256.172 274 255.072C291.3 252.472 317.3 244.972 340.9 223.972C380.9 188.572 419 106.172 366.6 32.6719Z" fill="url(#paint3_linear_1_6902)"/>
<path d="M379.4 461.172C379.4 461.172 363.8 469.472 338.7 472.872C313.6 476.272 224.6 488.572 224.6 488.572C224.6 488.572 206.1 491.972 186.3 488.772C166.5 485.572 157.7 480.672 157.7 480.672C157.7 480.672 113.9 444.372 117.7 380.572C121.5 316.772 168.5 272.872 206.8 260.472C213.4 258.272 217.4 257.672 223.9 256.572C232.2 255.172 237.6 261.372 234.7 268.572C228.2 284.772 221.4 310.972 227.5 341.972C237.8 394.472 289.4 469.072 379.4 461.172Z" fill="url(#paint4_linear_1_6902)"/>
<path d="M2.89999 255.172C2.89999 255.172 3.7 237.472 13.6 214.172C23.5 190.872 58.2 107.972 58.2 107.972C58.2 107.972 64.7 90.272 77.5 74.872C90.3 59.472 99 54.372 99 54.372C99 54.372 152.6 35.172 205.5 70.872C258.4 106.572 272.4 169.372 263.6 208.672C262.1 215.472 260.6 219.172 258.3 225.372C255.3 233.172 247.2 234.772 242.5 228.572C231.9 214.672 212.8 195.572 183 185.072C132.4 167.272 41.9 173.772 2.89999 255.172Z" fill="url(#paint5_linear_1_6902)"/>
<defs>
<linearGradient id="paint0_linear_1_6902" x1="119.416" y1="127.331" x2="381.664" y2="127.331" gradientUnits="userSpaceOnUse">
<stop stop-color="#252D6F"/>
<stop offset="1" stop-color="#1BF4F8"/>
</linearGradient>
<linearGradient id="paint1_linear_1_6902" x1="234.792" y1="346.623" x2="496.305" y2="346.623" gradientUnits="userSpaceOnUse">
<stop stop-color="#252D6F"/>
<stop offset="1" stop-color="#1BF4F8"/>
</linearGradient>
<linearGradient id="paint2_linear_1_6902" x1="3.029" y1="327.846" x2="232.494" y2="327.846" gradientUnits="userSpaceOnUse">
<stop stop-color="#252D6F"/>
<stop offset="1" stop-color="#1BF4F8"/>
</linearGradient>
<linearGradient id="paint3_linear_1_6902" x1="266.295" y1="173.266" x2="650.491" y2="173.266" gradientUnits="userSpaceOnUse">
<stop stop-color="#FEFEFF"/>
<stop offset="0.1991" stop-color="#F9FCFD"/>
<stop offset="0.425" stop-color="#ECF6F9"/>
<stop offset="0.6641" stop-color="#D5EDF2"/>
<stop offset="0.9107" stop-color="#B5E0E7"/>
<stop offset="1" stop-color="#A8DAE3"/>
</linearGradient>
<linearGradient id="paint4_linear_1_6902" x1="117.477" y1="373.276" x2="379.354" y2="373.276" gradientUnits="userSpaceOnUse">
<stop stop-color="#FEFEFF"/>
<stop offset="0.1991" stop-color="#F9FCFD"/>
<stop offset="0.425" stop-color="#ECF6F9"/>
<stop offset="0.6641" stop-color="#D5EDF2"/>
<stop offset="0.9107" stop-color="#B5E0E7"/>
<stop offset="1" stop-color="#A8DAE3"/>
</linearGradient>
<linearGradient id="paint5_linear_1_6902" x1="2.87309" y1="152.184" x2="265.885" y2="152.184" gradientUnits="userSpaceOnUse">
<stop stop-color="#FEFEFF"/>
<stop offset="0.1991" stop-color="#F9FCFD"/>
<stop offset="0.425" stop-color="#ECF6F9"/>
<stop offset="0.6641" stop-color="#D5EDF2"/>
<stop offset="0.9107" stop-color="#B5E0E7"/>
<stop offset="1" stop-color="#A8DAE3"/>
</linearGradient>
</defs>
</svg>
