<svg width="500" height="501" viewBox="0 0 500 501" fill="none" xmlns="http://www.w3.org/2000/svg">
<path d="M132.97 62.376H230.021C218.35 80.7642 211.186 101.07 211.632 123.075C240.512 123.369 269.465 123.369 298.344 123.075C298.714 101.217 292.806 80.3206 280.174 62.376H377.89C371.169 76.405 359.72 89.4018 360.828 105.868C360.384 179.487 360.975 253.183 360.754 326.802C370.355 326.802 380.033 326.802 389.707 326.876C396.798 312.92 403.077 298.68 408.096 283.901C437.122 284.637 466.298 283.09 495.175 286.929C466.592 311.447 451.671 346.299 433.06 378.049C359.2 378.196 285.34 377.829 211.407 378.27C207.935 405.075 224.553 423.535 243.832 438.969H119.076C129.932 424.716 151.795 415.562 149.507 394.663C150.243 323.48 149.507 252.215 149.728 180.966H213.033V224.828H297.011V174.542H121.667C107.12 199.944 92.5938 225.321 78.089 250.672C92.566 276.074 107.113 301.451 121.731 326.802H143.306V378.044H77.3536C53.2746 335.516 28.3106 293.5 4.82281 250.672V250.599C28.3844 207.845 53.4218 165.829 77.3536 123.295C101.95 123.295 126.544 123.295 151.14 123.075C151.287 101.291 145.304 80.4676 132.97 62.376ZM213.035 276.516V326.802H297.013V276.516H213.035Z" fill="#56428E"/>
<path d="M367.178 123.295H432.902C450.925 152.094 463.334 185.325 489.332 208.372C489.85 210.071 490.803 213.54 491.326 215.237C463.554 218.855 435.425 216.048 407.421 217.443C403.876 202.085 396.859 187.98 389.104 174.469C383.565 174.469 372.633 174.542 367.168 174.542L367.178 123.295ZM299.3 384.473C318.726 384.546 338.225 384.473 357.652 384.399C357.209 409.061 374.57 424.348 391.629 438.968H265.99C282.091 423.767 300.926 409.358 299.3 384.473Z" fill="#56428E"/>
</svg>
