<svg width="500" height="501" viewBox="0 0 500 501" fill="none" xmlns="http://www.w3.org/2000/svg">
<path d="M86.453 334.251C87.325 286.195 105.481 245.869 141.469 213.566C169.346 188.544 192.446 159.57 209.937 126.515C221.326 104.991 226.388 81.2489 229.059 57.1099C230.753 41.8019 231.54 26.4359 230.346 11.0309C230.168 8.73286 229.888 6.30386 232.451 5.08286C234.99 3.87386 236.699 5.56586 238.414 7.13786C276.508 42.0659 300.852 84.8329 311.077 135.48C314.329 151.589 317.106 167.814 313.629 184.39C309.359 204.744 298.32 221.35 285.343 236.97C277.044 246.959 267.79 256.01 258.32 264.868C203.823 315.837 167.727 377.639 149.515 449.944C147.643 457.378 144.796 458.387 139.219 453.22C107.953 424.248 90.287 388.627 87.07 346.002C86.78 342.167 86.662 338.321 86.453 334.251Z" fill="#484F70"/>
<path d="M248.078 494.66C229.662 494.865 212.874 491.746 196.373 486.741C194.191 486.079 192.526 485.119 192.227 482.632C191.899 479.897 193.421 478.576 195.676 477.435C207.855 471.275 215.418 461.491 217.982 448.058C224.949 411.564 244.593 382.26 270.12 356.384C291.641 334.569 313.295 312.902 331.671 288.251C347.591 266.896 359.386 243.379 368.516 218.449C368.997 217.136 369.48 215.823 369.923 214.496C370.563 212.578 371.449 210.923 373.755 210.714C376.098 210.501 377.164 212.092 378.135 213.832C385.661 227.324 391.616 241.492 396.146 256.246C403.534 280.307 407.563 304.88 407.454 330.115C407.262 374.349 393.382 413.335 362.492 445.428C335.68 473.284 302.835 489.454 264.26 493.721C258.505 494.355 252.759 494.748 248.078 494.66Z" fill="#16B4F0"/>
</svg>
