<svg width="500" height="501" viewBox="0 0 500 501" fill="none" xmlns="http://www.w3.org/2000/svg">
<path d="M249.61 496.062C385.135 496.062 495 386.197 495 250.672C495 115.147 385.135 5.28223 249.61 5.28223C114.085 5.28223 4.21997 115.147 4.21997 250.672C4.21997 386.197 114.085 496.062 249.61 496.062Z" fill="#1A61F0"/>
<path d="M324.89 351.642H286.89V287.622C286.89 277.712 278.85 269.672 268.94 269.672H213.17C191.72 269.672 174.34 252.282 174.34 230.842V148.032H212.34V213.732C212.34 223.642 220.38 231.682 230.29 231.682H286.06C307.51 231.682 324.89 249.072 324.89 270.512V351.642Z" fill="white"/>
<path d="M324.89 210.951C303.9 210.951 286.89 193.941 286.89 172.951V148.021H324.89V210.951Z" fill="white"/>
<path d="M212.33 351.642H174.33V290.252C195.32 290.252 212.33 307.262 212.33 328.252V351.642Z" fill="white"/>
</svg>
