<svg width="500" height="501" viewBox="0 0 500 501" fill="none" xmlns="http://www.w3.org/2000/svg">
<path d="M130.6 84.4717H12.8001C-2.79988 84.4717 2.10012 95.5717 8.90012 100.772C17.7001 107.572 36.7001 122.672 43.0001 128.372C50.8001 135.572 64.4001 139.572 67.3001 149.872C70.2001 160.072 77.0001 152.972 81.9001 164.172C86.8001 175.372 94.5001 167.272 99.4001 172.372C104.3 177.472 105.2 179.572 107.2 195.872C109.1 212.172 122.8 215.272 135.4 212.172C148 209.072 154.9 221.372 152.9 233.672C151 245.972 161.7 253.072 173.3 249.972C179 248.472 189.6 243.872 193.7 253.072C197.8 262.272 191.4 273.872 186.9 276.572C176.2 286.472 152.5 307.872 143.1 314.372C133.8 320.872 124.6 322.572 130.5 314.372L147 292.872C162.6 275.472 178.9 250.172 124.6 292.872C62.3001 341.872 26.4001 368.472 5.90012 386.872C-13.3999 404.272 26.3001 388.872 42.8001 381.772C56.0001 376.072 54.8001 380.772 52.5001 383.772C45.7001 388.172 29.2001 399.472 17.5001 409.272C5.80012 419.072 18.5001 416.772 26.3001 414.372C41.9001 407.872 85.1001 378.272 81.8001 396.972C79.6001 409.472 109 385.072 111.9 381.672C125.2 370.072 144.8 349.772 167.4 332.672C190 315.472 186.5 330.272 182 339.772C180.7 342.172 176 349.372 167.4 359.172C156.7 371.472 130.4 391.872 113.9 404.072C101.5 413.272 116.8 417.572 130.4 406.072C135.3 401.972 150.8 392.772 193.6 353.972C206.3 342.472 230.6 318.172 235.4 314.172C239.3 310.872 242.9 312.772 244.2 314.172C275.7 342.072 335.3 394.072 341.5 398.972C351.2 406.672 354.1 411.272 361.9 411.272H490.3C498.1 411.272 502 401.072 495.2 394.972C488.4 388.872 328.8 244.872 324 240.772C320.1 237.472 322.4 234.672 324 233.672C375.9 192.472 482.2 108.272 492.3 100.872C502.4 93.4717 498.2 84.5717 487.4 84.5717H419.3C410 84.5717 402.4 89.3717 399.8 91.7717C366.1 122.072 299.2 177.672 296.1 180.072C292.2 183.172 283.1 191.872 275.3 184.672C267.5 177.572 271.4 195.872 266.5 186.672C261.6 177.472 260.2 172.172 255.3 175.572C252.4 177.572 244.2 192.772 241.2 164.172C238.3 135.572 227.6 146.772 223.7 149.872C219.8 152.972 214 155.972 205.2 149.872C196.4 143.772 199.4 124.372 196.4 113.072C193.5 101.872 184.7 100.772 176 109.972C167.2 119.172 161.4 111.972 149.7 100.772C140.7 91.7717 150 84.4717 130.6 84.4717Z" fill="black"/>
</svg>
