<svg width="500" height="501" viewBox="0 0 500 501" fill="none" xmlns="http://www.w3.org/2000/svg">
<path d="M249.1 497.572C385.293 497.572 495.7 387.165 495.7 250.972C495.7 114.779 385.293 4.37207 249.1 4.37207C112.907 4.37207 2.5 114.779 2.5 250.972C2.5 387.165 112.907 497.572 249.1 497.572Z" fill="#0871F5"/>
<path d="M373.5 288.272C373.5 212.872 287 116.872 259 87.7723C254.3 82.8723 246.4 82.7723 241.6 87.6723C213.5 116.372 127.2 210.972 127.2 288.272C127.2 356.272 182.3 411.472 250.4 411.472C318.5 411.472 373.5 356.272 373.5 288.272Z" fill="white"/>
</svg>
