<svg width="500" height="501" viewBox="0 0 500 501" fill="none" xmlns="http://www.w3.org/2000/svg">
<path d="M135.1 167.572L79.5 93.4717H265.2L282.7 121.472H135.3L151 142.272L135.1 167.572Z" fill="#C69C6D"/>
<path d="M416.6 407.572H233.9L216.7 379.672H362.4L347.9 359.272L363.1 332.572L416.6 407.572Z" fill="#C69C6D"/>
<path d="M331.1 251.372C331.1 240.872 329.1 230.772 325.4 221.472L416.5 93.4717H318.3L335.8 121.472H362.3L309.3 195.872C294.3 179.572 272.7 169.272 248.9 169.272C225.6 169.272 204.5 179.072 189.6 194.672L179.4 181.672L163 207.972L172.6 218.272L174.4 216.872C169.5 227.372 166.8 239.072 166.8 251.372C166.8 262.172 168.9 272.572 172.8 282.072L79.5 407.572H180.4L163.7 379.572H135.2L189 307.472C204 323.472 225.3 333.472 248.9 333.472C273.1 333.472 295 322.872 310 306.172L320.5 320.972L337.4 297.172L325.8 280.272C329.2 271.272 331.1 261.572 331.1 251.372ZM249 309.072C217.2 309.072 191.3 283.172 191.3 251.372C191.3 219.572 217.2 193.672 249 193.672C280.8 193.672 306.7 219.572 306.7 251.372C306.7 283.172 280.8 309.072 249 309.072Z" fill="#C69C6D"/>
<path d="M320.2 166.571L248.8 55.0715L229.8 84.9715H197.9L248.8 2.27148L337.5 143.571L320.2 166.571Z" fill="#C69C6D"/>
<path d="M135.6 317.772L93.2998 251.372L169 130.772L201.3 130.572L126.3 251.372L152.6 294.072L135.6 317.772Z" fill="#C69C6D"/>
<path d="M249.7 499.572L161.7 358.472L178.4 334.972L249.6 446.972L268.6 417.172H300.7L249.7 499.572Z" fill="#C69C6D"/>
<path d="M328.3 372.571H296.8L371.4 251.371L346.1 207.971L363.3 184.271L404.3 251.371L328.3 372.571Z" fill="#C69C6D"/>
</svg>
