<svg width="500" height="501" viewBox="0 0 500 501" fill="none" xmlns="http://www.w3.org/2000/svg">
<g clip-path="url(#clip0_1_6947)">
<path d="M250 97.0719C280.4 97.0719 310.1 106.072 335.3 122.972C360.6 139.872 380.2 163.872 391.9 191.872C403.5 219.972 406.6 250.772 400.6 280.572C394.7 310.372 380 337.772 358.6 359.172C337.1 380.672 309.8 395.272 280 401.172C250.2 407.072 219.3 404.072 191.3 392.472C163.2 380.872 139.2 361.172 122.4 335.872C105.5 310.572 96.4998 280.872 96.4998 250.572C96.5998 209.872 112.8 170.772 141.5 142.072C170.2 113.372 209.3 97.1719 250 97.0719ZM250 0.671875C200.6 0.671875 152.2 15.3719 111.1 42.7719C69.9998 70.2719 37.9998 109.272 18.9998 154.972C0.0998402 200.672 -4.80016 250.972 4.79984 299.472C14.3998 347.972 38.2998 392.472 73.1998 427.472C108.2 462.472 152.7 486.272 201.2 495.872C249.7 505.472 300 500.572 345.6 481.672C391.3 462.772 430.3 430.672 457.8 389.572C485.3 348.472 500 300.072 500 250.672C500 184.372 473.7 120.772 426.8 73.8719C379.9 26.9719 316.3 0.671875 250 0.671875Z" fill="url(#paint0_linear_1_6947)"/>
<path d="M250 446.672C358.2 446.672 446 358.972 446 250.672C446 142.372 358.2 54.6719 250 54.6719C141.8 54.6719 54 142.472 54 250.672C54 358.872 141.8 446.672 250 446.672Z" fill="white"/>
<path d="M361.8 363.572C347 378.372 329.4 389.972 310 397.772C290.6 405.572 269.9 409.472 249 409.072C228.2 409.472 207.6 405.672 188.4 397.772C169.2 389.972 151.7 378.272 137.2 363.472C122.3 348.972 110.5 331.572 102.7 312.272C94.7997 292.972 90.9997 272.372 91.4997 251.572C91.4997 206.072 106.8 168.072 137.4 137.772C152 122.972 169.4 111.272 188.6 103.472C207.8 95.6718 228.5 91.8718 249.2 92.2718C270.1 91.8718 290.8 95.7718 310.2 103.572C329.6 111.372 347.2 123.072 361.9 137.772C393.1 168.172 408.8 206.072 408.8 251.572C409.2 272.472 405.2 293.172 397.1 312.472C389 331.872 377 349.172 361.8 363.572Z" fill="#C43C86"/>
<path d="M195.4 295.372L304.3 295.572L250 201.472L195.4 295.372Z" fill="white"/>
<path d="M250.2 132.472C249.3 132.472 248.4 132.672 247.6 133.172C246.8 133.672 246.1 134.272 245.7 135.072L137.2 321.572C136.7 322.372 136.5 323.272 136.5 324.172C136.5 325.072 136.7 325.972 137.2 326.772L203.3 288.572L250 208.172L250.2 132.472Z" fill="#EF4B2D"/>
<path d="M362.5 321.872L254.7 135.072C254.2 134.272 253.6 133.672 252.8 133.172C252 132.672 251.1 132.472 250.2 132.472V208.272L296.5 288.772L362.5 327.172C363 326.372 363.2 325.472 363.2 324.572C363.2 323.672 363 322.672 362.5 321.872Z" fill="#9D2063"/>
<path d="M362.5 327.072L296.5 288.672H203.3L137.2 326.672C137.6 327.472 138.3 328.172 139.1 328.572C139.9 329.072 140.8 329.272 141.7 329.272L358 329.672C358.9 329.672 359.8 329.472 360.6 328.972C361.4 328.572 362 327.872 362.5 327.072Z" fill="#662F8E"/>
</g>
<defs>
<linearGradient id="paint0_linear_1_6947" x1="467.5" y1="468.171" x2="67.5002" y2="68.1718" gradientUnits="userSpaceOnUse">
<stop offset="0.1594" stop-color="#003CDA"/>
<stop offset="1" stop-color="#33DFCC"/>
</linearGradient>
<clipPath id="clip0_1_6947">
<rect width="500" height="500" fill="white" transform="translate(0 0.671875)"/>
</clipPath>
</defs>
</svg>
