<svg width="500" height="501" viewBox="0 0 500 501" fill="none" xmlns="http://www.w3.org/2000/svg">
<g clip-path="url(#clip0_1_6955)">
<path d="M276.7 473.872C276.7 488.672 264.7 500.672 249.9 500.672C235.1 500.672 223.1 488.672 223.1 473.872V288.272C223.1 273.472 235.1 261.472 249.9 261.472C264.7 261.472 276.7 273.472 276.7 288.272V473.872Z" fill="#88B6D0"/>
<path opacity="0.25" d="M254.5 261.772C253 261.472 251.7 261.472 250.2 261.472C235.4 261.472 223.4 273.472 223.4 288.272V473.872C223.4 475.672 223.7 477.572 224 479.072C252.1 452.272 270.9 403.572 270.9 347.472C270.8 315.772 264.6 286.472 254.5 261.772Z" fill="black" fill-opacity="0.2"/>
<path d="M363.6 114.072C363.6 51.5719 312.7 0.671875 250.2 0.671875C188.7 0.671875 138.5 49.7719 136.8 110.872C136.7 112.972 136.6 115.172 136.5 117.372C136.5 118.372 136.5 119.272 136.5 120.272V341.272C136.5 370.872 160.5 394.872 190.1 394.872H310C339.6 394.872 363.6 370.872 363.6 341.272V120.272C363.6 119.372 363.6 118.472 363.6 117.172C363.6 116.272 363.6 115.072 363.6 114.072Z" fill="#F6F9FA"/>
<path d="M250.2 0.671875C188.7 0.671875 138.5 49.7719 136.8 110.872C136.7 112.972 136.6 115.172 136.5 117.372C136.5 118.372 136.5 119.272 136.5 120.272V294.572C136.5 316.172 151.9 335.572 173.5 334.472C251 330.572 326.8 267.372 361.2 173.572C362.9 168.872 363.7 163.972 363.7 158.972V120.272C363.7 119.372 363.7 118.472 363.7 117.172C363.7 115.972 363.7 114.972 363.7 113.772C363.6 51.2719 312.7 0.671875 250.2 0.671875Z" fill="#F6F9FA"/>
<path d="M250.2 0.671875C188.7 0.671875 138.5 49.7719 136.8 110.872C136.7 112.972 136.6 115.172 136.5 117.372C136.5 118.372 136.5 119.272 136.5 120.272V225.572C136.5 248.372 153.6 268.372 176.3 265.272C254.5 254.672 328.8 184.872 357.5 85.6719C358.1 82.5719 358.3 79.4719 357.3 76.4719C341.9 32.3719 299.6 0.671875 250.2 0.671875Z" fill="#F6F9FA"/>
<path d="M300.6 116.572C300.6 164.572 229.5 208.372 189.5 208.372C155.7 208.372 155.7 164.572 155.7 116.572C155.7 68.5719 188.2 29.6719 228.2 29.6719C268.2 29.6719 300.6 68.5719 300.6 116.572Z" fill="#F6F9FA"/>
<path d="M233.9 101.672C231.7 122.372 218.8 137.772 205.2 136.172C191.3 134.672 182.1 117.072 184.2 96.372C186.4 75.672 199.3 60.272 212.9 61.872C226.5 63.072 236 80.972 233.9 101.672Z" fill="#F6F9FA"/>
<path d="M363.6 114.072C363.6 51.5719 312.7 0.671875 250.2 0.671875C247.1 0.671875 246.8 4.97188 249.8 5.97188C295.4 20.5719 328.5 63.5719 328.5 114.172C328.5 115.372 328.5 116.372 328.5 117.572C328.5 118.472 328.5 119.372 328.5 120.672V341.672C328.5 371.272 304.5 395.272 274.9 395.272H310C339.6 395.272 363.6 371.272 363.6 341.672V120.272C363.6 119.372 363.6 118.472 363.6 117.172C363.6 116.272 363.6 115.072 363.6 114.072Z" fill="#F6F9FA"/>
</g>
<defs>
<clipPath id="clip0_1_6955">
<rect width="500" height="500" fill="white" transform="translate(0 0.671875)"/>
</clipPath>
</defs>
</svg>
