<svg width="500" height="501" viewBox="0 0 500 501" fill="none" xmlns="http://www.w3.org/2000/svg">
<path d="M413.321 248.704C413.321 179.862 413.318 111.019 413.33 42.1769C413.331 38.8439 413.338 35.5039 413.547 32.1799C414.386 18.8189 423.349 9.6149 436.722 8.5039C447.289 7.6259 457.878 7.6129 468.448 8.4909C481.149 9.5449 489.37 17.1079 491.442 29.7429C492.01 33.2049 492.191 36.7659 492.192 40.2809C492.228 179.143 492.229 318.005 492.189 456.866C492.188 460.575 491.981 464.335 491.355 467.983C489.254 480.226 480.891 487.867 468.591 488.804C458.02 489.609 447.422 489.591 436.851 488.802C423.585 487.812 414.418 478.478 413.553 465.227C413.336 461.904 413.331 458.563 413.33 455.23C413.318 386.389 413.321 317.547 413.321 248.704Z" fill="#4C6F8C"/>
<path d="M221.757 345.133C221.757 383.96 221.787 422.787 221.744 461.614C221.724 479.521 212.452 488.765 194.565 488.869C187.114 488.912 179.662 488.9 172.21 488.879C152.695 488.824 142.963 479.209 142.914 459.644C142.832 427.092 142.89 394.54 142.89 361.988C142.89 318.455 142.838 274.921 142.937 231.388C142.957 222.592 144.752 214.442 151.922 208.103C156.499 204.057 161.916 202.086 167.422 201.922C178.73 201.585 190.123 200.536 201.407 202.677C214.022 205.07 221.686 213.977 221.712 226.887C221.79 266.302 221.74 305.718 221.74 345.133C221.745 345.133 221.751 345.133 221.757 345.133Z" fill="#BFCBD5"/>
<path d="M357.049 379.368C357.05 406.815 357.072 434.263 357.042 461.71C357.023 478.764 347.088 488.758 330.08 488.867C321.846 488.92 313.611 488.915 305.378 488.867C288.015 488.765 278.215 478.886 278.199 461.306C278.157 412.685 278.108 364.063 278.25 315.443C278.277 306.083 277.062 296.642 279.342 287.352C282.087 276.164 291.038 268.834 302.569 268.659C312.173 268.514 321.782 268.534 331.388 268.625C346.805 268.77 356.989 279.072 357.029 294.673C357.099 322.904 357.048 351.136 357.049 379.368Z" fill="#BFCBD5"/>
<path d="M87.4216 411.965C87.4216 428.038 87.6996 444.117 87.3196 460.181C87.0836 470.193 84.8776 479.662 75.1216 485.32C71.1156 487.644 66.8616 488.809 62.2906 488.836C53.0786 488.89 43.8656 488.925 34.6536 488.856C18.4546 488.734 8.62361 479.019 8.58761 462.89C8.51261 428.785 8.51461 394.679 8.58861 360.574C8.62161 345.03 18.8526 334.79 34.3176 334.623C42.3526 334.536 50.3906 334.582 58.4266 334.604C77.2006 334.654 87.3036 344.761 87.4036 363.748C87.4886 379.819 87.4216 395.892 87.4216 411.965Z" fill="#BFCBD5"/>
</svg>
