<svg width="500" height="501" viewBox="0 0 500 501" fill="none" xmlns="http://www.w3.org/2000/svg">
<g clip-path="url(#clip0_1_6977)">
<path d="M378.3 127.872C350.3 127.872 319.8 142.772 287.6 172.172C272.3 185.972 259 200.972 249.2 212.872C249.2 212.872 264.9 230.572 282.1 249.472C291.4 237.972 304.8 222.372 320.3 208.372C348.9 182.172 367.6 176.872 378.4 176.872C418.7 176.872 451.3 209.872 451.3 250.772C451.3 291.272 418.7 324.272 378.4 324.672C376.5 324.672 374.2 324.472 371.4 323.772C383.1 329.072 395.8 332.972 407.6 332.972C481.4 332.972 495.8 283.072 496.6 279.472C498.7 270.272 500 260.772 500 250.872C499.8 183.072 445.3 127.872 378.3 127.872Z" fill="url(#paint0_linear_1_6977)"/>
<path d="M120.8 373.472C148.8 373.472 179.3 358.572 211.5 329.172C226.8 315.372 240.1 300.372 249.9 288.472C249.9 288.472 234.2 270.772 217 251.872C207.7 263.372 194.3 278.972 178.8 292.972C150.2 318.972 131.3 324.472 120.7 324.472C80.4001 324.472 47.8001 291.472 47.8001 250.572C47.8001 210.072 80.4001 177.072 120.7 176.672C122.6 176.672 124.9 176.872 127.7 177.572C116 172.272 103.3 168.372 91.5001 168.372C17.7001 168.372 3.3001 218.272 2.5001 221.872C0.400098 231.072 -0.899902 240.572 -0.899902 250.472C-0.899902 318.272 53.6001 373.472 120.8 373.472Z" fill="url(#paint1_linear_1_6977)"/>
<path fill-rule="evenodd" clip-rule="evenodd" d="M176.9 209.472C168.8 201.772 129.4 170.472 91.6998 169.372C24.4998 167.672 4.6998 215.572 2.9998 221.772C15.8998 168.072 63.8998 128.072 121 127.872C167.5 127.872 214.5 172.572 249.3 212.872C249.4 212.772 249.4 212.772 249.5 212.672C249.5 212.672 265.2 230.372 282.4 249.272C282.4 249.272 301.9 271.872 322.7 291.672C330.8 299.372 370 330.272 407.7 331.272C476.8 333.172 495.9 282.672 496.9 278.872C484.2 332.772 436.1 373.072 378.8 373.272C332.3 373.272 285.2 328.572 250.3 288.272C250.2 288.372 250.2 288.472 250.1 288.472C250.1 288.472 234.4 270.772 217.2 251.872C217.1 251.872 197.6 229.272 176.9 209.472ZM2.7998 222.272C2.7998 222.172 2.8998 221.972 2.8998 221.872C2.8998 221.972 2.8998 222.072 2.7998 222.272Z" fill="#29ABE2"/>
</g>
<defs>
<linearGradient id="paint0_linear_1_6977" x1="314.255" y1="146.038" x2="482.63" y2="319.506" gradientUnits="userSpaceOnUse">
<stop offset="0.21" stop-color="#F15A24"/>
<stop offset="0.6841" stop-color="#FBB03B"/>
</linearGradient>
<linearGradient id="paint1_linear_1_6977" x1="184.808" y1="355.346" x2="16.4315" y2="181.878" gradientUnits="userSpaceOnUse">
<stop offset="0.21" stop-color="#ED1E79"/>
<stop offset="0.8929" stop-color="#522785"/>
</linearGradient>
<clipPath id="clip0_1_6977">
<rect width="500" height="500" fill="white" transform="translate(0 0.671875)"/>
</clipPath>
</defs>
</svg>
