<svg width="500" height="501" viewBox="0 0 500 501" fill="none" xmlns="http://www.w3.org/2000/svg">
<path d="M138.1 399.572C154.8 383.372 170.9 367.772 187.8 351.272C215.5 367.272 245.9 374.172 278.5 366.172C301.9 360.372 322.1 348.772 338.4 330.972C367.3 299.472 386.4 245.872 353.1 186.672C369.6 170.472 385.8 154.372 402 138.472C451.5 196.372 457.7 304.772 388.4 379.072C322.9 449.272 211.2 458.872 138.1 399.572ZM161.2 171.472C206 122.872 258.9 118.672 313.9 146.472C331 129.572 346.9 113.772 362.7 98.0721C291.8 39.9721 178.9 49.972 113.4 120.672C44.3002 195.272 51.9002 304.172 101.8 361.972C103 361.172 104.4 360.572 105.5 359.572C120.6 345.172 135.7 330.572 151 315.972C116.6 252.572 134.5 200.372 161.2 171.472ZM440.2 108.272C467.2 108.872 490.3 86.072 490.4 58.772C490.5 31.372 467.8 8.77202 440.6 8.97202C413.9 9.17202 392.4 31.272 392.3 58.372C392.2 85.672 413.4 107.772 440.2 108.272ZM61.4002 389.672C34.6002 390.272 13.0002 412.272 12.9002 439.172C12.8002 466.472 35.5002 489.172 62.7002 488.872C89.3002 488.672 110.9 466.472 110.9 439.372C110.9 411.572 88.4002 389.072 61.4002 389.672Z" fill="#19B8BA"/>
</svg>
