<svg width="500" height="501" viewBox="0 0 500 501" fill="none" xmlns="http://www.w3.org/2000/svg">
<g clip-path="url(#clip0_1_6983)">
<path d="M292.3 338.972C292.3 317.772 309.5 300.572 330.8 300.572H346.2C367.4 300.572 384.6 317.772 384.6 338.972V354.272C384.6 375.472 367.4 392.672 346.1 392.672H330.7C309.5 392.672 292.3 375.472 292.3 354.272V338.972ZM330.8 162.372C309.6 162.372 292.4 179.572 292.3 200.772V216.172C292.3 237.372 309.5 254.572 330.8 254.572H346.2C367.4 254.572 384.6 237.372 384.6 216.172V200.872C384.6 179.672 367.4 162.472 346.1 162.472L330.8 162.372Z" fill="#1EEFA4"/>
<path fill-rule="evenodd" clip-rule="evenodd" d="M153.8 1.07227C68.9 1.07227 0 69.8723 0 154.672V346.672C0 431.472 68.9 500.272 153.8 500.272H346.1C431.1 500.272 499.9 431.472 499.9 346.672V154.672C500 69.8723 431.1 1.07227 346.1 1.07227H153.8ZM346.2 62.4723H153.8C102.8 62.4723 61.5 103.772 61.5 154.672V346.672C61.5 397.572 102.8 438.872 153.8 438.872H346.1C397.1 438.872 438.4 397.572 438.4 346.672V154.672C438.4 103.772 397.1 62.5723 346.2 62.4723Z" fill="#1EEFA4"/>
</g>
<defs>
<clipPath id="clip0_1_6983">
<rect width="500" height="500" fill="white" transform="translate(0 0.671875)"/>
</clipPath>
</defs>
</svg>
