<svg width="500" height="501" viewBox="0 0 500 501" fill="none" xmlns="http://www.w3.org/2000/svg">
<g clip-path="url(#clip0_1_6986)">
<path d="M250 97.0719C280.4 97.0719 310.1 106.072 335.3 122.972C360.6 139.872 380.2 163.872 391.9 191.872C403.5 219.972 406.6 250.772 400.6 280.572C394.7 310.372 380 337.772 358.6 359.172C337.2 380.572 309.8 395.272 280 401.172C250.2 407.072 219.3 404.072 191.3 392.472C163.2 380.872 139.2 361.172 122.4 335.872C105.5 310.572 96.5001 280.872 96.5001 250.572C96.6001 209.872 112.8 170.772 141.5 142.072C170.2 113.372 209.3 97.1719 250 97.0719ZM250 0.671875C200.6 0.671875 152.2 15.3719 111.1 42.7719C70.0001 70.2719 38.0001 109.272 19.0001 154.972C0.100084 200.672 -4.79992 250.972 4.80008 299.472C14.4001 347.972 38.3001 392.472 73.2001 427.472C108.2 462.472 152.7 486.272 201.2 495.872C249.7 505.472 300 500.572 345.6 481.672C391.3 462.772 430.3 430.672 457.8 389.572C485.3 348.472 500 300.072 500 250.672C500 184.372 473.7 120.772 426.8 73.8719C379.9 26.9719 316.3 0.671875 250 0.671875Z" fill="url(#paint0_linear_1_6986)"/>
<path d="M250 446.672C358.2 446.672 446 358.972 446 250.672C446 142.372 358.2 54.6719 250 54.6719C141.8 54.6719 54 142.472 54 250.672C54 358.872 141.8 446.672 250 446.672Z" fill="white"/>
<path d="M250 411.772C338.973 411.772 411.1 339.645 411.1 250.672C411.1 161.699 338.973 89.5723 250 89.5723C161.027 89.5723 88.8999 161.699 88.8999 250.672C88.8999 339.645 161.027 411.772 250 411.772Z" fill="#F8A608"/>
<path fill-rule="evenodd" clip-rule="evenodd" d="M186.1 174.271H251.4C293.6 174.271 327.8 208.471 327.8 250.671C327.8 292.871 293.6 327.071 251.4 327.071H186.1V174.271ZM202.9 191.071V310.271H251.4C284.3 310.271 311 283.571 311 250.671C311 217.771 284.3 191.071 251.4 191.071H202.9Z" fill="white"/>
<path d="M164.6 241.372H342.7V224.572H164.6V241.372Z" fill="white"/>
<path d="M164.6 277.172H342.7V260.372H164.6V277.172Z" fill="white"/>
</g>
<defs>
<linearGradient id="paint0_linear_1_6986" x1="467.5" y1="468.172" x2="67.5001" y2="68.1719" gradientUnits="userSpaceOnUse">
<stop offset="0.1594" stop-color="#003CDA"/>
<stop offset="1" stop-color="#33DFCC"/>
</linearGradient>
<clipPath id="clip0_1_6986">
<rect width="500" height="500" fill="white" transform="translate(0 0.671875)"/>
</clipPath>
</defs>
</svg>
