<svg width="500" height="501" viewBox="0 0 500 501" fill="none" xmlns="http://www.w3.org/2000/svg">
<path d="M249.9 4.47179C385.8 4.47179 495.9 114.672 495.9 250.572C495.9 386.472 385.7 496.572 249.8 496.572C113.9 496.572 3.80005 386.372 3.80005 250.472C3.80005 249.572 3.80005 248.772 3.80005 247.872C5.10005 113.772 114.8 4.07179 249.9 4.47179ZM255.1 22.2718C124.4 22.2718 22.4 124.272 21.8 249.072C21.2 375.072 123.7 478.672 249.8 478.272C312.3 478.072 366.3 455.972 410.4 411.872C460.7 361.772 482.7 300.272 476.9 229.872C473 176.672 449.6 126.772 411.4 89.6718C366.9 45.4718 312.7 23.1718 255.1 22.2718Z" fill="#333333"/>
<path d="M470.9 226.372C466.2 176.172 443.8 129.272 407.8 94.0723C364.2 50.3723 311.1 28.1723 249.3 28.0723C126.5 30.4723 28.9 132.072 31.4 254.872C33.8 373.672 129.1 469.572 247.8 472.772C309.4 473.172 362.9 451.672 406.4 408.072C456.5 357.972 478 296.872 470.9 226.372ZM345.9 77.3723C349.6 77.4723 352.6 80.5723 352.6 84.2723C352.6 87.9723 349.4 90.9723 345.7 90.9723C342 90.8723 339 87.7723 339 84.0723C339 84.0723 339 84.0723 339 83.9723C339.1 80.2723 342.2 77.3723 345.9 77.3723ZM315.5 63.2723C319.3 63.2723 322.4 66.3723 322.4 70.2723C322.3 73.9723 319.2 76.8723 315.5 76.8723C311.9 76.9723 308.9 74.0723 308.8 70.3723C308.8 70.2723 308.8 70.1723 308.8 70.0723C308.8 66.2723 311.8 63.2723 315.5 63.2723ZM283.4 54.5723C287 54.9723 289.8 57.6723 290.3 61.2723C290 65.1723 286.8 68.1723 282.9 68.0723C279.2 67.9723 276.3 64.8723 276.3 61.2723C276.5 57.4723 279.7 54.4723 283.4 54.5723ZM249.9 51.7723C253.6 51.7723 256.7 54.7723 256.7 58.4723C256.7 62.1723 253.7 65.2723 250 65.2723C246.3 65.2723 243.3 62.2723 243.2 58.5723C243.2 54.8723 246.1 51.8723 249.9 51.7723ZM216.7 54.5723C220.3 54.7723 223.2 57.6723 223.4 61.2723C223.4 64.9723 220.3 68.0723 216.6 68.0723C216.5 68.0723 216.4 68.0723 216.4 68.0723C212.7 68.0723 209.7 64.9723 209.8 61.3723C210 57.6723 213 54.7723 216.7 54.6723V54.5723ZM184.3 63.2723C188 63.3723 191 66.3723 191 70.0723C191.1 73.6723 188.2 76.6723 184.6 76.7723C184.5 76.7723 184.4 76.7723 184.3 76.7723C180.6 76.8723 177.4 73.9723 177.3 70.1723C177.3 70.0723 177.3 69.9723 177.3 69.8723C177.5 66.1723 180.6 63.2723 184.3 63.2723ZM153.8 77.3723C157.5 77.0723 160.8 79.9723 161 83.6723C161.3 87.3723 158.4 90.6723 154.7 90.8723C154.4 90.8723 154.1 90.8723 153.8 90.8723C150.1 90.5723 147.2 87.3723 147.5 83.6723C147.7 80.3723 150.4 77.6723 153.8 77.3723ZM126.6 96.5723C130.3 96.6723 133.3 99.6723 133.4 103.372C133.4 107.072 130.4 110.072 126.6 110.172C123 110.372 119.9 107.572 119.8 103.972C119.8 103.872 119.8 103.772 119.8 103.572C119.7 99.8723 122.6 96.7723 126.3 96.5723C126.4 96.5723 126.5 96.5723 126.6 96.5723ZM103.1 120.172C106.8 120.372 109.7 123.472 109.7 127.172C109.6 130.872 106.6 133.872 102.9 133.772C99.2 133.672 96.2 130.672 96.1 126.972C96.2 123.172 99.3 120.172 103.1 120.172ZM83.7 147.672C87.3 147.572 90.3 150.472 90.4 154.072C90.4 154.172 90.4 154.272 90.4 154.372C90.4 158.072 87.5 161.172 83.7 161.272C79.9 161.172 76.8 158.072 76.8 154.272C76.9 150.572 80 147.672 83.7 147.672ZM69.6 177.972C73.4 177.972 76.4 181.072 76.4 184.872C76.4 184.972 76.4 184.972 76.4 185.072C76.1 188.872 72.7 191.572 69 191.272C65.6 190.972 62.9 188.172 62.8 184.672C62.9 180.872 65.9 177.972 69.6 177.972ZM60.8 210.172C64.6 210.172 67.7 213.272 67.8 217.072C67.7 220.772 64.6 223.772 60.9 223.672C57.3 223.672 54.4 220.772 54.3 217.172C54.3 217.072 54.3 217.072 54.3 216.972C54.2 213.472 57.1 210.372 60.8 210.172ZM51.1 250.472C51.2 246.772 54.1 243.772 57.9 243.572C61.6 243.572 64.7 246.572 64.7 250.272C64.9 253.972 62 257.072 58.3 257.272C58.1 257.272 57.8 257.272 57.6 257.272C54 257.072 51.2 254.072 51.1 250.472ZM54.3 283.772C54.3 280.072 57.3 276.972 61 276.972C64.8 277.072 67.9 280.172 67.9 283.972C67.8 287.672 64.7 290.572 61 290.572C57.4 290.672 54.4 287.872 54.3 284.272C54.3 283.972 54.3 283.872 54.3 283.772ZM69.8 322.872C66.1 322.972 63 319.972 62.9 316.272C62.9 312.472 66 309.372 69.8 309.272C73.4 309.472 76.3 312.372 76.5 316.072C76.5 319.772 73.5 322.772 69.7 322.872H69.8ZM83.9 353.172C80.2 353.172 77.2 350.172 77 346.472C77 342.672 80 339.672 83.8 339.672C83.9 339.672 83.9 339.672 84 339.672C87.6 339.572 90.6 342.472 90.7 346.072C90.7 346.172 90.7 346.272 90.7 346.472C90.6 350.172 87.6 353.172 83.9 353.172C83.8 353.072 83.8 353.072 83.7 353.072L83.9 353.172ZM83.9 300.172L84.2 298.972H156.1C174.8 298.972 174.8 298.972 174.8 280.072C174.8 264.272 175 248.572 174.8 232.772C174.8 227.672 175.5 225.272 181.6 225.472C195.1 226.072 208.7 225.872 222.3 225.472C227 225.472 228.6 226.972 228.6 231.572C228.5 258.072 228.5 284.572 228.6 311.072C228.6 316.072 227 318.672 221.7 318.172C220.1 317.972 218.6 317.972 217 318.172C210.9 318.872 208.8 316.472 208.8 310.472C209.1 291.372 208.8 272.172 208.8 253.072C208.8 247.772 207.2 245.372 201.5 245.372C195.9 245.372 194 247.172 194.1 252.772C194.4 271.872 194.1 291.072 194.3 310.172C194.3 316.472 192.4 318.272 186.3 318.172C166.9 317.872 147.5 319.072 128.3 317.672C119.2 316.972 110.4 311.872 101.6 308.472C95.6 306.172 89.7 303.072 83.7 300.272L83.9 300.172ZM103.8 380.672C100 381.072 96.5 378.372 96.1 374.572C96.1 374.172 96 373.872 96.1 373.472C96.3 369.672 99.4 366.672 103.2 366.572C107 367.072 109.9 370.272 110.1 374.072C109.6 377.372 107 379.972 103.7 380.672H103.8ZM126.5 404.172C122.9 404.172 120 401.272 120 397.672C120 397.572 120 397.472 120 397.372C120.1 393.672 123.1 390.672 126.8 390.672C130.5 390.772 133.5 393.772 133.6 397.472C133.6 401.172 130.5 404.172 126.8 404.172C126.7 404.172 126.5 404.172 126.4 404.172H126.5ZM154.2 423.372C150.6 423.472 147.5 420.672 147.4 417.072C147.4 416.972 147.4 416.872 147.4 416.772C147.3 412.972 150.2 409.872 154 409.772C154.1 409.772 154.1 409.772 154.2 409.772C157.9 409.872 160.9 412.872 161 416.572C160.9 420.272 157.9 423.272 154.2 423.372C154.2 423.372 154.1 423.372 154 423.372H154.2ZM184.5 437.472C180.7 437.672 177.5 434.772 177.3 431.072C177.3 430.972 177.3 430.772 177.3 430.672C177.5 426.972 180.5 424.072 184.2 423.972C187.9 423.972 190.9 426.972 191 430.772C191 434.372 188.2 437.372 184.5 437.472C184.5 437.472 184.4 437.472 184.3 437.472H184.5ZM158.8 334.972C152.8 332.572 147.1 329.572 141.2 326.772L141.9 324.872C172.6 324.872 203.3 324.872 234 324.872C248.3 324.872 246.4 326.172 246.5 312.272C246.5 271.072 246.7 229.872 246.5 188.772C246.5 181.972 248.4 179.972 255.1 180.172C268.2 180.672 281.3 180.472 294.5 180.172C299.2 180.172 301.3 181.372 301.3 186.472C301.2 237.472 301.2 288.372 301.3 339.372C301.3 344.872 299 346.572 293.9 345.672C292.2 345.272 290.4 344.972 288.7 344.872C280.3 345.172 280.3 345.172 280.3 336.472C280.3 294.372 280.3 252.372 280.3 210.272C280.3 206.772 281.6 202.372 275.9 201.372C269.1 200.272 267.1 201.872 267.1 208.972C267.1 251.672 267.1 294.472 267.1 337.172C267.1 345.872 267.1 345.872 258.1 345.872C235.8 345.872 213.6 345.572 191.3 345.872C178.6 346.372 169.2 339.172 158.6 334.972H158.8ZM216.7 446.072C213 446.172 209.8 443.272 209.7 439.572C209.7 439.472 209.7 439.372 209.7 439.272C209.7 435.472 212.8 432.472 216.5 432.472C220.3 432.472 223.3 435.572 223.3 439.272C223.4 442.972 220.4 445.972 216.7 446.072ZM249.9 449.272C246.1 449.172 243 446.072 243.1 442.272C243.2 438.472 246.4 435.472 250.1 435.572C253.9 435.672 256.9 438.872 256.8 442.572C256.6 446.272 253.6 449.272 249.9 449.272ZM282.7 446.072C279.1 445.772 276.3 442.772 276.4 439.172C276.5 435.372 279.7 432.472 283.5 432.572C287.3 432.672 290.2 435.872 290.1 439.672C289.9 443.372 286.8 446.272 283 446.072C282.9 446.072 282.8 446.072 282.7 446.072ZM315.5 437.472C311.9 437.572 308.9 434.672 308.8 431.072C308.8 430.972 308.8 430.872 308.8 430.772C308.9 427.072 311.8 424.172 315.5 424.072C319.3 424.172 322.4 427.272 322.4 431.072C322.2 434.672 319.1 437.472 315.5 437.472ZM345.9 423.272C342.2 423.372 339.1 420.472 339.1 416.772V416.672C339.1 412.872 342.2 409.772 346 409.672C349.7 409.772 352.7 412.772 352.7 416.572C352.8 420.172 349.9 423.272 346.3 423.272C346.1 423.372 346 423.372 345.9 423.272ZM351.6 358.272C352.6 348.272 351.2 207.272 351.2 164.572C351.2 160.472 351.6 156.572 345.3 156.672C340.2 156.672 339 158.572 339 163.372C339.2 185.572 338.7 351.672 338.7 351.672C338.7 351.672 338.7 365.372 338.7 372.572C336.3 372.872 334.4 373.172 332.4 373.172C303.5 373.172 274.6 373.772 245.7 372.872C238.4 372.672 231.2 368.072 224.2 365.072C216 361.772 208.1 357.672 200.7 352.872C202.6 352.872 204.5 352.572 206.4 352.572L303.2 352.972C318 352.972 317.8 352.972 317.8 338.672C317.8 273.672 317.8 208.672 317.8 143.672C317.8 138.172 319 135.672 325.2 135.872C339.2 136.272 353.2 136.172 367.2 135.872C371.9 135.872 373.5 137.472 373.5 142.172C373.5 190.872 373.5 239.672 373.5 288.372C373.5 313.572 373.5 338.872 373.5 364.072C373.5 373.072 373.5 373.072 364.2 373.072C349.9 373.172 350.1 372.772 351.6 358.272ZM373.2 404.072C369.5 404.072 366.4 401.172 366.4 397.372C366.5 393.572 369.6 390.472 373.4 390.472C377.1 390.572 380.1 393.672 380 397.372C380.1 400.972 377.3 403.972 373.7 404.072C373.5 404.172 373.3 404.172 373.2 404.072ZM373.4 110.072C369.7 110.172 366.5 107.272 366.4 103.572C366.4 103.472 366.4 103.372 366.4 103.372C366.5 99.6723 369.4 96.6723 373.2 96.5723C376.9 96.5723 379.9 99.5723 380 103.272C380.2 106.872 377.5 109.972 373.9 110.172C373.7 110.172 373.5 110.172 373.4 110.072ZM396.8 380.472C393.1 380.472 390 377.472 390 373.672C390 369.972 393 366.872 396.8 366.872C400.5 366.872 403.6 369.872 403.6 373.672C403.5 377.472 400.5 380.472 396.8 380.472ZM396.8 133.872C393 133.872 390 130.772 390 127.072C390 123.272 393.1 120.272 396.8 120.272C400.6 120.272 403.6 123.372 403.6 127.072C403.6 130.772 400.6 133.872 396.8 133.872ZM445.5 217.172C445.6 220.772 442.7 223.772 439.1 223.872C439 223.872 438.9 223.872 438.7 223.872C435 223.872 431.9 220.872 431.9 217.172C432 213.272 435.2 210.172 439.1 210.272H439.2C442.8 210.472 445.5 213.572 445.5 217.172ZM416 147.772C419.7 147.772 422.7 150.772 422.8 154.472C422.7 158.272 419.6 161.272 415.8 161.372C412.1 161.272 409.2 158.172 409.2 154.472C409.1 150.872 412 147.872 415.6 147.772C415.8 147.772 415.9 147.772 416.1 147.772H416ZM416 353.172C412.3 353.172 409.3 350.172 409.3 346.472C409.2 342.872 412 339.872 415.6 339.672C415.7 339.672 415.8 339.672 416 339.672C419.8 339.572 422.9 342.572 423 346.372C423 346.472 423 346.472 423 346.572C422.7 350.172 419.7 353.072 416 353.172ZM430.1 177.972C433.8 177.972 436.9 180.872 437 184.672C437 188.472 433.9 191.472 430.1 191.472C426.3 191.472 423.3 188.372 423.3 184.672C423.5 180.972 426.4 177.972 430.1 177.972ZM430.3 322.772C426.6 322.872 423.5 319.972 423.3 316.272C423 312.472 425.8 309.172 429.5 308.872C433.3 308.572 436.6 311.372 436.9 315.072C436.9 315.372 436.9 315.672 436.9 315.972C437 319.672 434.1 322.672 430.3 322.772ZM438.7 290.472C435 290.372 432 287.372 432 283.672C432.1 279.872 435.3 276.872 439.2 276.872C442.8 277.172 445.6 280.172 445.5 283.872C445.5 287.472 442.6 290.372 439 290.372C438.9 290.472 438.8 290.472 438.7 290.472ZM441.9 257.172C438.3 257.372 435.2 254.572 435.1 250.972C435.1 250.872 435.1 250.672 435.1 250.572C434.7 247.072 437.3 243.972 440.7 243.672C440.8 243.672 441 243.672 441.1 243.672C445.1 243.372 448.5 246.372 448.8 250.372C448.8 250.472 448.8 250.572 448.8 250.572C448.8 254.272 445.8 257.172 442.2 257.172C442.1 257.172 442.1 257.172 442 257.172H441.9Z" fill="#004B6A"/>
</svg>
