<svg width="500" height="501" viewBox="0 0 500 501" fill="none" xmlns="http://www.w3.org/2000/svg">
<g clip-path="url(#clip0_1_6996)">
<path d="M250 97.0719C280.4 97.0719 310.1 106.072 335.3 122.972C360.6 139.872 380.2 163.872 391.9 191.872C403.5 219.972 406.6 250.772 400.6 280.572C394.7 310.372 380 337.772 358.6 359.172C337.1 380.672 309.8 395.272 280 401.172C250.2 407.072 219.3 404.072 191.3 392.472C163.2 380.872 139.2 361.172 122.4 335.872C105.5 310.572 96.5 280.872 96.5 250.572C96.6 209.872 112.8 170.772 141.5 142.072C170.2 113.372 209.3 97.1719 250 97.0719ZM250 0.671875C200.6 0.671875 152.2 15.3719 111.1 42.7719C70 70.2719 38 109.272 19 154.972C0.0999622 200.672 -4.80004 250.972 4.79996 299.472C14.4 347.972 38.3 392.472 73.2 427.472C108.2 462.472 152.7 486.272 201.2 495.872C249.7 505.472 300 500.572 345.6 481.672C391.3 462.772 430.3 430.672 457.8 389.572C485.3 348.472 500 300.072 500 250.672C500 184.372 473.7 120.772 426.8 73.8719C379.9 26.9719 316.3 0.671875 250 0.671875Z" fill="url(#paint0_linear_1_6996)"/>
<path d="M250 446.672C358.2 446.672 446 358.972 446 250.672C446 142.372 358.2 54.6719 250 54.6719C141.8 54.6719 54 142.472 54 250.672C54 358.872 141.8 446.672 250 446.672Z" fill="white"/>
<path d="M362 361.272C347.2 376.072 329.6 387.672 310.3 395.572C290.9 403.372 270.2 407.272 249.3 406.972C228.5 407.372 207.9 403.572 188.7 395.672C169.5 387.872 152 376.172 137.5 361.372C122.6 346.872 110.8 329.472 103 310.172C95.1 290.872 91.3 270.272 91.7 249.472C91.7 203.972 107 165.972 137.5 135.672C152.1 120.872 169.5 109.172 188.7 101.372C207.9 93.5721 228.6 89.7721 249.3 90.1721C270.2 89.7721 290.9 93.6722 310.3 101.472C329.7 109.272 347.3 120.972 362 135.672C393.2 165.972 408.9 203.972 408.9 249.472C409.3 270.372 405.3 291.072 397.3 310.372C389.2 329.572 377.2 346.972 362 361.272Z" fill="#C8C8C8"/>
<path d="M250.2 115.672L168.2 251.572L250.2 214.372V115.672Z" fill="#8B8B8B"/>
<path d="M250.2 214.372L168.2 251.572L250.2 299.972V214.372Z" fill="#393939"/>
<path d="M250.2 115.672V214.272L332.1 251.472L250.2 115.672Z" fill="#343434"/>
<path d="M250.2 214.372V299.972L332.1 251.572L250.2 214.372Z" fill="#161616"/>
<path d="M168.1 267.072L250.1 382.472V315.472L168.1 267.072Z" fill="#8B8B8B"/>
<path d="M332.2 267.072L250.2 315.472V382.472L332.2 267.072Z" fill="#343434"/>
</g>
<defs>
<linearGradient id="paint0_linear_1_6996" x1="467.5" y1="468.171" x2="67.5" y2="68.1714" gradientUnits="userSpaceOnUse">
<stop offset="0.1594" stop-color="#003CDA"/>
<stop offset="1" stop-color="#33DFCC"/>
</linearGradient>
<clipPath id="clip0_1_6996">
<rect width="500" height="500" fill="white" transform="translate(0 0.671875)"/>
</clipPath>
</defs>
</svg>
