<svg width="500" height="501" viewBox="0 0 500 501" fill="none" xmlns="http://www.w3.org/2000/svg">
<g clip-path="url(#clip0_1_7006)">
<path d="M500 250.672C500 112.572 388.1 0.671875 250 0.671875C111.9 0.671875 0 112.572 0 250.672C0 388.772 111.9 500.672 250 500.672C388.1 500.672 500 388.772 500 250.672Z" fill="white"/>
<path d="M378.4 290.172C379.4 290.972 380.1 291.672 381.1 292.472C381.7 292.972 381.7 292.972 382.3 292.472C382.7 292.072 383.1 291.672 383.5 291.372C385.2 289.872 387.5 289.972 389 291.572C389.6 292.272 390.2 292.972 390.8 293.672C392.2 295.472 392 297.772 390.5 299.472C390.1 299.972 389.6 300.372 389.1 300.772C388.7 301.072 388.7 301.472 389 301.872C389.6 302.772 390.1 303.672 390.7 304.572C391.4 305.772 392 306.972 392.6 308.172C393.1 309.372 393.1 309.372 394.3 308.972C394.8 308.772 395.4 308.572 396 308.472C397.8 308.072 399.6 309.072 400.4 310.872C400.9 311.972 401.2 313.172 401.5 314.372C401.8 316.072 400.8 317.972 399.3 318.772C398.7 319.072 398 319.272 397.4 319.472C396.6 319.772 396.6 319.872 396.7 320.572C397.1 323.072 397.4 325.572 397.4 328.172C397.4 328.772 397.6 329.072 398.2 329.072C398.7 329.072 399.1 329.172 399.6 329.272C401.5 329.472 402.8 330.472 403.3 332.372C403.3 332.572 403.5 336.072 403.3 336.972C402.9 339.072 401.4 340.572 399.3 340.672C398.9 340.672 398.4 340.672 398 340.572C397.2 340.372 396.7 340.772 396.5 341.572C396 343.572 395.4 345.572 394.7 347.472C394.5 348.072 394.6 348.572 395.1 348.872C395.3 349.072 396.2 350.072 396.4 350.472C396.7 351.272 395.3 350.072 395 349.872C394.2 349.372 385 343.972 381.5 342.072C381.7 340.172 382.6 337.672 383 335.772C384.8 326.072 382.9 317.272 377.6 309.272C373.2 302.572 367.2 298.272 359.7 296.172C353.2 294.272 346.7 294.672 340.4 297.172C335.2 299.172 329.4 302.472 326.3 307.672C325.9 308.072 325.8 308.072 325.2 307.772C323.2 306.772 315.5 301.472 312.3 299.472C310.9 297.972 310 295.572 311 293.772C311.7 292.472 312.7 291.472 313.8 290.572C315.3 289.272 317.5 289.272 319.1 290.572C321.1 292.072 321.1 292.072 323 290.472C324 289.672 325.1 288.872 326.2 288.072C327.2 287.372 327.3 287.072 326.8 285.972C325.5 282.872 326.3 280.572 329.2 278.972C330 278.572 330.7 278.172 331.6 277.972C333.8 277.272 335.8 278.072 337 280.172C338.2 282.272 338.2 282.272 340.5 281.772C341.7 281.472 343 281.272 344.2 281.072C345.4 280.872 345.6 280.672 345.7 279.372C345.7 278.772 345.8 278.072 346 277.472C346.3 276.272 346.9 275.172 348.1 274.672C350.4 273.772 352.8 273.572 355.1 274.772C356.5 275.472 357.1 276.772 357.1 278.372C357.1 280.772 357.1 280.772 359.4 281.172C360.9 281.472 362.3 281.772 363.8 282.172C364.9 282.472 365.2 282.372 365.6 281.172C366.7 278.372 369.4 276.872 372.6 278.572C373.5 279.072 374.5 279.372 375.2 280.172C376.8 281.672 376.9 283.972 376.3 285.572C376.2 285.772 376.1 286.072 376 286.272C375.6 287.372 375.5 288.072 375.5 288.072C375.5 288.072 377.4 289.472 378.4 290.172Z" fill="#5F5F5F"/>
<path d="M380.6 341.172C381.5 342.072 393.9 349.272 395 349.972C395.3 349.972 395.6 350.272 395.9 350.372C396.1 350.572 396.3 350.772 396.5 351.072C397.5 352.472 397.5 354.072 396.9 355.672C396.5 356.472 396.1 357.372 395.6 358.072C394.4 359.972 392.3 360.472 390.4 359.472C389.8 359.172 389.3 358.872 388.7 358.472C388.3 358.172 388 358.272 387.7 358.672C386.2 360.772 384.5 362.772 382.7 364.572C382.3 364.972 382.3 365.272 382.6 365.672C383 366.172 383.3 366.672 383.6 367.172C384.9 369.172 384.6 371.572 382.7 373.072C382.1 373.572 381.4 374.072 380.7 374.572C378.9 375.872 376.7 375.472 375.3 373.672C374.9 373.172 374.6 372.672 374.2 372.072C373.9 371.572 373.6 371.472 373.1 371.772C371 373.072 368.8 374.072 366.5 374.872C365.7 375.172 365.7 375.172 365.8 376.072C365.9 376.372 365.9 376.672 366 377.072C366.5 379.772 365.9 381.172 363.7 382.572C363.1 382.872 362.5 382.872 361.9 383.072C360.8 383.372 359.8 383.272 358.7 383.272C358.3 383.072 358 382.872 357.6 382.672C356.6 381.772 356.1 380.572 355.8 379.172C355.4 377.272 355.7 377.572 354 377.672C351.8 377.772 349.6 377.772 347.5 377.672C346.7 377.672 346.7 377.572 346.5 378.472C346.4 378.872 346.3 379.272 346.3 379.672C345.9 382.172 344.1 383.972 341.1 383.372C340.4 383.272 339.6 383.072 338.9 382.772C336.8 382.172 335.7 380.072 336.1 377.872C336.2 377.272 336.3 376.772 336.4 376.172C336.5 375.372 336.5 375.372 335.8 375.072C334.4 374.472 333 373.972 331.7 373.272C330.9 372.872 330.1 372.472 329.3 371.972C328.5 371.572 328.5 371.572 327.9 372.372C327.6 372.772 327.3 373.272 327 373.672C325.6 375.472 323.4 375.872 321.5 374.572C320.8 374.072 320.1 373.572 319.4 372.972C317.7 371.572 317.3 369.172 318.5 367.272C318.8 366.672 319.2 366.172 319.6 365.572C319.9 365.172 319.9 364.872 319.5 364.572C317.6 362.772 315.9 360.772 314.4 358.572C314.1 358.172 313.8 358.172 313.4 358.372C312.9 358.672 312.5 358.972 312 359.272C309.9 360.472 307.6 359.872 306.4 357.672C305.9 356.872 305.4 356.172 305.1 355.272C304.3 353.072 305 351.072 306.9 349.772C307.3 349.472 307.7 349.272 308.1 348.972C308.8 348.472 308.8 348.472 308.5 347.672C307.9 345.972 307.3 344.372 306.8 342.572C306.6 341.772 306.4 341.072 306.2 340.272C306.1 339.672 305.8 339.472 305.3 339.572C304.9 339.672 304.4 339.672 304 339.772C301.4 340.072 299.5 338.472 299.2 335.672C299.1 334.872 299 334.172 299 333.472C298.9 332.372 299.3 331.272 299.9 330.472C300.6 329.672 301.5 329.072 302.5 328.972C303.1 328.872 303.6 328.872 304.2 328.772C304.9 328.672 305 328.672 305 327.772C305 325.972 305.2 324.172 305.4 322.372C305.5 321.572 305.7 320.872 305.7 320.072C305.6 319.572 305.4 319.172 305 318.972C304.7 318.872 304.6 318.872 304.2 318.772C303.4 318.572 302.6 318.172 302 317.572" fill="#414141"/>
<path d="M305.8 320.672C305.9 320.072 305.7 319.272 305.1 319.172C304.6 319.072 303.9 318.772 303.5 318.572C301.7 317.972 300.6 316.472 300.4 314.472C300.2 313.572 300.9 310.872 301.2 309.972C301.9 307.972 303.7 306.872 305.7 307.172C306.1 307.272 306.6 307.372 307 307.472C307.8 307.772 308.4 307.572 308.7 306.772C309.5 304.872 310.8 303.072 311.6 301.172C312.4 299.372 311.8 299.472 312.1 299.572C312.8 300.172 322.4 305.172 325.5 307.672C323.5 309.972 319.1 320.172 318.9 323.572" fill="#414141"/>
<path d="M325.5 307.472C331.7 300.472 336.1 297.472 342.2 295.572C345.9 294.472 349.8 294.072 353.6 294.372C360.1 294.872 365.9 297.272 371 301.472C375.5 305.172 378.8 309.872 381.1 315.372C382.5 318.772 383.2 322.272 383.5 325.972C384 331.272 382.9 337.072 381.2 341.972C380.9 342.272 374.5 337.772 373.9 336.872C373.7 336.372 373.9 335.972 374.1 335.472C374.7 333.072 375.1 330.672 375.1 328.172C374.8 316.172 367 306.372 356.3 303.972C348.4 302.172 340 303.972 332.4 312.172C332.2 312.272 332.1 312.072 330.8 311.072C328.6 309.672 327.5 308.772 326 307.872C325.2 307.472 325.2 307.772 325.5 307.472Z" fill="#414141"/>
<path d="M381.4 341.772C381.2 342.072 381 342.472 380.8 342.872C378.9 347.672 375.9 351.572 372.2 354.872C367.4 359.172 361.8 361.972 355.5 362.772C353.9 362.972 352.4 363.272 350.8 363.172C346.3 362.972 341.9 362.172 337.7 360.272C335 359.072 332.6 357.472 330.3 355.572C326.8 352.572 324 348.972 321.9 344.772C320 340.872 318.9 336.772 318.4 332.372C318 328.672 318.3 324.972 319.1 321.272C320 317.072 321.5 313.272 323.8 309.672C324.1 309.172 325 307.972 325.3 307.672C326.9 308.572 331.3 311.572 332 312.272C332.4 312.872 331.6 313.672 331.4 314.072C330 316.172 328.9 318.372 328.2 320.772C325.7 329.172 326.8 337.072 331.9 344.072C336.1 349.972 341.8 353.172 348.8 353.872C358.7 354.972 368.9 348.972 373.1 338.472C373.3 337.872 373.3 336.972 374.2 336.972C374.9 337.672 380.7 341.372 381.4 341.772Z" fill="#5F5F5F"/>
<path d="M374.3 336.971C373.5 339.071 372.6 341.171 371.4 343.071C367.5 349.071 362.1 352.871 355.3 354.171C348.4 355.471 342 353.871 336.4 349.471C331.4 345.571 328.3 340.371 327.1 334.071C325.7 326.571 327.2 319.672 331.4 313.372C331.6 313.172 331.7 312.871 331.9 312.671C332.1 312.471 334.2 310.071 335.2 309.171C339.7 305.171 344.9 303.171 350.8 302.971C361.9 302.771 371.9 310.671 374.8 322.171C376 326.771 375.9 331.371 374.7 335.971C374.5 336.271 374.4 336.671 374.3 336.971Z" fill="#ED5050"/>
<path d="M357.6 328.772C357.8 332.672 354.4 335.772 351.1 335.672C347.4 335.672 344.3 332.572 344.4 328.672C344.4 324.872 347.3 321.772 351.2 321.672C354.4 321.772 357.8 324.772 357.6 328.772Z" fill="#414141"/>
<path d="M358 315.672C358.8 315.572 359.4 315.872 359.9 316.472C360.4 316.972 360.9 317.472 361.3 317.972C362.4 319.172 361.7 321.472 360.4 321.872C359.8 322.072 359.3 322.072 358.7 321.672C357.6 320.872 356.6 319.872 355.8 318.872C354.9 317.772 355.4 316.272 356.7 315.772C357.1 315.772 357.5 315.672 358 315.672Z" fill="#ED5050"/>
<path d="M179.9 382.772C178.1 381.772 177 380.172 176.6 377.972C176.5 377.272 176.3 376.472 176.1 375.772C176 375.272 175.8 375.072 175.2 375.172C171.9 375.472 168.7 375.472 165.4 375.272C165 375.272 164.5 375.172 164.1 375.172C163.7 375.172 163.5 375.272 163.4 375.772C163.2 376.572 163 377.272 162.9 378.072C162.5 380.472 161.3 382.072 159.2 383.072C157.8 383.472 156.5 383.372 155.1 383.072C153.8 382.872 152.6 382.672 151.4 381.972C151 381.672 150.5 381.372 150.1 380.872C148.7 379.372 148.2 377.572 148.5 375.572C148.6 374.772 148.8 374.072 149 373.272C149.3 371.972 149.2 371.972 148.1 371.472C145.4 370.472 142.8 369.272 140.3 367.972C139.7 367.672 139.1 367.372 138.5 366.972C138.1 366.672 137.8 366.772 137.5 367.172C137.1 367.872 136.6 368.472 136.1 369.172C134.2 372.072 130.6 372.972 127.7 370.572C126.9 369.972 126.2 369.372 125.4 368.772C122.7 366.672 122.2 363.172 124.2 360.272C124.7 359.472 125.2 358.772 125.8 357.972C126.1 357.572 126 357.372 125.7 357.072C125.5 356.972 125.4 356.772 125.3 356.672C122.8 354.172 120.5 351.472 118.4 348.572C117.8 347.772 117.8 347.772 116.9 348.272C116.3 348.672 115.7 348.972 115.1 349.372C112 351.272 108.9 350.372 107 347.172C106.7 346.772 106.6 346.572 106.4 346.172C106.1 345.472 105.7 344.872 105.3 344.072C104 341.072 104.9 337.872 107.6 336.172C108.2 335.772 108.9 335.372 109.5 334.972C110.4 334.472 110.4 334.472 110 333.472C108.8 330.472 107.8 327.372 107.1 324.172C107 323.672 106.8 323.172 106.7 322.572C106.6 322.072 106.3 321.872 105.8 321.972C104.9 322.072 104 322.272 103.1 322.272C100.8 322.372 98.9 321.472 97.7 319.272C97.2 318.372 97 317.372 96.9 316.372C96.8 315.572 96.7 314.972 96.6 314.172C96.4 311.072 98.1 307.272 101.7 306.972C102.5 306.872 103.3 306.772 104 306.672C104.9 306.572 104.9 306.572 105 305.672C105.1 302.972 105.3 300.372 105.6 297.772C105.7 296.672 105.9 295.672 106.1 294.572C106.3 293.572 106.3 293.572 105.3 293.172C104.6 292.972 103.9 292.672 103.2 292.472C100.1 291.372 98.6 288.272 99.4 285.072C99.7 283.872 100.1 282.672 100.5 281.472C101.6 278.472 104.5 276.972 107.4 277.872C108.3 278.172 109.2 278.372 110 278.772C110.5 278.972 110.8 278.772 111 278.272C111.5 277.072 112.1 275.872 112.7 274.772C112.9 274.372 113.1 274.072 113.3 273.672C113.9 272.472 114.6 271.372 115.3 270.272C116 269.672 234.1 342.772 233.8 343.672C233.6 344.072 233.4 344.472 233.2 344.972C232.8 345.772 232.4 346.572 231.9 347.272C230.2 350.172 227.1 351.072 224.3 349.472C223.5 349.072 222.8 348.572 222.1 348.172C221.3 347.672 221.3 347.672 220.8 348.372C219.6 349.972 218.4 351.472 217.1 352.972C216 354.272 214.8 355.572 213.5 356.772C212.9 357.372 212.9 357.372 213.4 357.972C213.9 358.672 214.4 359.372 214.9 360.172C216.8 363.072 216.3 366.472 213.7 368.572C212.9 369.272 212 369.872 211.1 370.572C208.4 372.572 205.2 371.972 203.1 369.272C202.6 368.572 202.1 367.772 201.6 367.072C201.1 366.472 201.1 366.372 200.4 366.772C197.6 368.372 194.7 369.772 191.8 370.972C191.4 371.172 191 371.272 190.6 371.472C189.9 371.772 189.8 371.772 190 372.672C190.1 373.472 190.2 374.272 190.5 374.972C191.3 377.772 189.6 381.172 186 382.372C184.9 383.072 181.4 383.472 179.9 382.772Z" fill="#414141"/>
<path d="M234 344.072C231.5 342.572 209.4 328.272 207.9 327.372C207.1 326.972 207.3 326.872 207.8 325.872C209.6 321.772 210.8 317.472 211.4 313.072C211.8 309.872 211.8 306.572 211.5 303.272C211.3 300.172 210.7 297.172 209.9 294.172C208.8 290.372 207.3 286.872 205.3 283.572C203.1 279.772 200.4 276.572 197.4 273.672C195.1 271.372 192.4 269.572 189.6 267.972C185.4 265.572 180.9 263.872 176.1 263.172C173.1 262.672 170.1 262.472 167.2 262.672C160.8 263.072 154.8 264.872 149.2 268.072C144.8 270.672 140.8 274.072 137.5 278.172C136.7 279.172 135.5 281.272 134.6 282.272C134.1 282.872 126.2 277.472 115.4 270.772C115.8 270.072 116.2 269.472 116.6 268.772C116.9 268.372 116.8 268.072 116.5 267.772C115.8 267.172 115.2 266.572 114.5 265.872C112.4 263.872 112 261.172 113.2 258.572C113.5 257.972 114 256.572 114.8 255.572C115.2 255.072 115.6 254.572 116.1 254.172C118.2 251.872 122.2 251.872 124.4 253.972C127 256.472 126.7 255.872 128.9 254.072C130.8 252.572 132.7 251.072 134.7 249.672C135.8 248.972 135.8 248.572 135.3 247.372C134.7 245.972 134.1 244.572 134.3 243.072C134.4 241.172 135.2 239.472 136.7 238.372C138.8 236.872 141.1 235.572 143.9 235.672C146.2 235.772 147.7 236.972 148.9 238.872C149.3 239.572 149.6 240.372 150 241.072C150.3 241.772 150.8 241.972 151.5 241.772C154.4 240.972 157.4 240.372 160.4 239.872C161.5 239.672 161.7 239.372 161.7 238.172C161.7 237.772 161.7 237.372 161.7 236.972C161.5 233.372 164.1 230.372 167.3 230.072C169 229.972 170.8 229.772 172.5 230.172C175 230.672 177.5 233.172 177.3 236.472C177.3 236.972 177.3 237.372 177.3 237.872C177.3 239.272 177.6 239.572 178.9 239.772C181.7 240.172 184.5 240.772 187.2 241.572C188.6 241.972 188.9 241.872 189.5 240.372C190 239.272 190.4 238.172 191.3 237.272C193 235.472 195.1 235.172 197.3 235.672C199 236.072 200.6 236.872 202.1 237.872C204.5 239.572 205.4 242.572 204.4 245.472C204.2 246.072 203.9 246.672 203.7 247.272C203.2 248.372 203.3 248.872 204.3 249.472C206.4 250.872 208.5 252.372 210.5 254.072C212.7 255.872 212.3 256.172 214.6 253.872C216.7 251.872 219.9 251.672 221.8 252.972C223.7 254.372 225.4 256.072 226.5 258.272C227.5 260.172 227.4 263.772 225.4 265.572C224.8 266.072 224.3 266.772 223.7 267.272C223.2 267.772 223.2 268.372 223.5 268.972C225.3 271.672 226.8 274.572 228.2 277.472C228.5 278.172 229.1 278.372 229.8 278.172C230.6 277.872 231.5 277.672 232.4 277.472C234.7 277.072 237.3 278.072 238.5 280.272C239.7 282.372 240.4 284.672 240.4 287.072C240.5 289.772 239.2 291.672 237 292.872C236.3 293.272 235.5 293.572 234.7 293.772C233.9 294.072 233.5 294.572 233.7 295.472C234.3 298.672 234.5 301.972 234.7 305.172C234.7 306.072 235.1 306.472 236 306.572C236.6 306.572 237.2 306.672 237.8 306.772C240.9 307.172 243.1 309.772 243.1 313.072C243.1 313.672 243.1 314.372 243 314.972C242.9 315.972 242.6 317.472 242.3 318.372C241.5 321.172 238.9 322.672 236.2 322.472C235.3 322.372 234.4 322.272 233.6 322.172C232.8 322.072 232.8 322.072 232.5 322.972C231.9 325.472 231.2 328.072 230.4 330.472C230 331.572 229.6 332.772 229.1 333.872C228.9 334.372 229 334.672 229.4 334.972C230.3 335.472 231.1 335.972 232 336.572C234.2 338.072 235.1 340.772 234.3 343.472C234.2 343.772 234.1 343.872 234 344.072Z" fill="#666059"/>
<path d="M144 287.472C145 286.172 146 284.872 147.1 283.672C152.4 277.972 158.8 274.572 166.3 273.672C173 272.872 179.3 274.072 185.1 277.572C194.1 282.872 199.4 290.972 201.1 301.672C202.1 307.872 201.3 313.972 199 319.772C198.9 320.072 198.8 320.472 198.7 320.772C199 321.372 198.7 321.772 198.5 322.272C197.4 324.772 195.9 326.972 194.1 328.972C189.1 334.772 183 338.672 175.6 340.072C165.8 341.872 156.9 339.472 149.2 332.772C143 327.372 139.2 320.372 138 311.872C137.1 305.372 137.8 298.972 140.4 292.872C141 291.372 141.8 289.972 142.5 288.572C143 288.172 143.4 287.672 144 287.472Z" fill="#ED5050"/>
<path d="M149.7 306.772C149.5 294.672 159.3 285.472 169.7 285.472C179.9 285.372 190.1 293.972 190.1 306.872C190.1 318.872 180.9 327.972 170.1 328.072C158.3 328.272 149.5 318.072 149.7 306.772Z" fill="#45423D"/>
<path d="M189.7 287.072C189.9 288.872 187.7 290.272 186.3 289.272C185.3 288.572 184.4 287.872 183.6 286.972C182.5 285.672 182.7 284.272 184.2 283.372C185.3 282.772 186.4 282.672 187.4 283.572C188.1 284.272 188.8 284.872 189.4 285.772C189.6 286.172 189.8 286.572 189.7 287.072Z" fill="#ED5050"/>
<path d="M153.7 306.971C153.4 298.271 160.2 289.771 169.9 289.771C179 289.771 186.1 297.471 186 307.071C185.9 316.571 178.5 323.971 169.6 323.871C160.4 323.771 153.5 315.571 153.7 306.971Z" fill="#ED5050"/>
<path d="M169.8 313.771C166.2 313.771 163.2 310.571 163.2 306.771C163.2 302.971 166 299.871 169.9 299.771C173.4 299.771 176.5 302.771 176.5 306.771C176.4 310.771 173.5 313.771 169.8 313.771Z" fill="#414141"/>
<path d="M177.5 295.271C177.9 295.271 178.3 295.271 178.6 295.571C180 296.571 180.8 297.971 180.7 299.671C180.7 300.571 179.4 301.571 178.6 301.371C177.1 301.071 176 300.271 175.2 298.871C174.5 297.671 174.6 296.671 175.7 295.871C176.1 295.471 176.8 295.271 177.5 295.271Z" fill="#ED5050"/>
<path d="M144 287.472C142.9 289.272 141.9 290.972 141.1 292.872C139.7 296.072 138.8 299.472 138.5 302.972C138 307.372 138.3 311.872 139.5 316.072C140.7 320.372 142.6 324.272 145.3 327.772C149.3 332.972 154.4 336.572 160.6 338.572C164.1 339.772 167.8 340.272 171.5 339.972C181.2 339.272 189 334.972 195.1 326.972C196.4 325.272 197.5 323.472 198.4 321.472C198.5 321.172 198.7 320.872 198.9 320.672C199.7 321.072 206.3 325.572 207.4 326.372C207.8 326.672 207.6 327.172 207.4 327.472C206.3 329.672 205 331.772 203.6 333.672C200.4 337.972 196.7 341.572 192.3 344.372C188 347.172 183.3 349.072 178.4 350.172C174.6 350.972 170.8 351.172 166.9 350.872C161.8 350.572 156.9 349.172 152.3 346.872C149.1 345.372 146.1 343.372 143.4 341.072C138.1 336.472 133.9 330.872 131.2 324.072C129.5 319.772 128.4 315.172 128 310.472C127.4 303.472 128.4 296.772 130.8 290.272C131.7 287.872 132.8 285.672 134 283.472C134.1 283.272 134.3 283.072 134.4 282.872C135.1 281.772 135.3 281.772 136.4 282.372C138.2 283.472 141.7 285.772 143.5 286.972C143.5 287.172 143.8 287.372 144 287.472Z" fill="#666059"/>
<path d="M200.8 313.871C201.7 309.571 201.8 305.071 201.1 300.671C200.3 296.271 198.8 292.171 196.4 288.471C192.5 283.171 187.7 278.771 182.3 276.071C178.9 274.571 175.3 273.671 171.7 273.571C162 273.171 153.7 276.571 147 283.971C145.9 285.171 144.9 286.371 144 287.671C143.2 287.171 135.9 283.271 134.9 282.271C134.5 281.871 137.7 278.071 139.3 276.271C142.9 272.371 146.9 269.171 151.6 266.771C156 264.371 160.9 263.071 166 262.471C169.9 262.071 173.7 262.171 177.6 262.771C182.6 263.671 187.3 265.671 191.7 268.471C194.7 270.371 197.5 272.571 200 275.271C204.9 280.471 208.4 286.471 210.5 293.471C211.8 297.971 212.4 302.671 212.3 307.371C212.2 314.371 210.6 320.871 208.1 325.971C207.6 326.971 208.1 326.971 206.7 325.971C205 324.671 200.7 321.971 198.9 320.771C198.6 320.771 200 317.371 200.8 313.871Z" fill="#45423D"/>
<path d="M155.8 131.171C155.1 128.671 154.5 126.171 153.9 123.571C153.7 122.871 153.9 122.771 154.6 122.571C191.9 113.071 237.2 120.271 260.4 127.771C264.1 129.171 267.7 130.771 271 132.971C272.4 133.971 273.8 134.971 274.9 136.371C275.2 136.771 275.5 137.171 275.7 137.571C276.3 138.671 276.4 139.671 275.9 140.871C274.7 143.571 273.3 146.171 271.9 148.771C271 150.471 270 152.071 269.1 153.771C268.7 154.571 268.2 155.371 267.6 156.071C267.1 156.571 266.6 156.271 266.1 156.171C263.8 155.671 261.5 155.171 259.3 154.671C259.1 154.671 259 154.671 258.8 154.671C256.4 153.871 253.9 153.771 251.5 153.171C251.2 153.071 250.9 153.271 250.6 153.271C246.6 152.471 242.6 152.071 238.6 151.471C237.2 151.271 235.8 151.371 234.4 150.871C233.9 150.271 233.8 149.571 233.6 148.771C232.6 144.471 231.3 140.271 228.9 136.571C228.5 135.971 228.1 135.471 227.7 134.971C226.5 133.371 225 132.471 223 132.171C217.7 131.471 212.5 130.771 207.2 130.371C198.4 129.571 189.6 129.471 180.8 129.571C176.5 129.671 172.1 129.971 167.8 130.371C164.2 130.671 160.6 131.071 157.1 131.571C156.5 131.571 156.1 131.571 155.8 131.171Z" fill="#ED5050"/>
<path d="M279.4 206.172C276.9 206.172 274.5 206.072 272 206.172C271.2 206.172 271 205.672 270.9 205.072C270.2 204.872 270.3 204.172 270.1 203.672C269.3 199.572 268.5 195.372 267.7 191.272C265.6 181.172 263.2 171.072 260.2 161.072C259.7 159.372 259.2 157.672 258.7 155.972C258.6 155.472 258.3 154.872 258.7 154.372C258.9 154.172 259.1 154.172 259.4 154.172C262.2 154.672 264.9 155.272 267.6 156.072C269.4 161.372 270.9 166.672 272.2 172.072C274.1 179.372 275.7 186.772 277.2 194.272C277.7 196.972 279.4 206.172 279.4 206.172Z" fill="#45423D"/>
<path d="M155.8 131.172C159.1 130.572 162.3 130.272 165.6 129.972C168 129.772 170.3 129.572 172.7 129.472C179.3 128.972 185.9 128.972 192.5 129.072C197.3 129.172 202.1 129.472 206.9 129.872C210.1 130.172 213.3 130.472 216.4 130.872C219.1 131.172 221.7 131.672 224.4 132.072C225.3 132.172 225.9 132.672 226.5 133.272C228.6 135.272 230.1 137.772 231.3 140.572C232.7 143.772 233.7 147.172 234.3 150.672C234.2 151.172 233.8 151.172 233.4 151.172C231.7 151.072 230 150.972 228.3 150.772C226.8 150.672 225.3 150.572 223.8 150.472C221.4 150.372 219.1 150.072 216.7 150.172C215.8 150.272 214.9 149.972 214 149.972C212.8 149.972 212.4 150.272 211.9 151.472C209.4 158.672 207.3 165.972 205.4 173.272C202.6 184.672 200.4 196.272 198.6 207.872C198.1 210.972 197.7 214.072 197.3 217.272C197.2 217.872 197.1 218.572 196.8 219.072C196.5 219.372 196.1 219.372 195.8 219.272C194.1 218.772 192.4 218.272 190.7 217.772C190.6 217.772 190.4 217.672 190.3 217.572C190.2 217.472 190.1 217.372 190.1 217.272C189.8 216.472 190 215.672 190.1 214.972C191.8 202.372 194 189.872 196.8 177.472C198.8 168.772 201 160.072 203.9 151.572C204.3 150.272 204.1 149.872 202.8 149.872C197.7 149.772 192.7 149.972 187.6 150.272C185.1 150.372 182.5 150.472 180 150.772C179.8 150.772 179.7 150.772 179.5 150.772C176.9 150.772 176.8 150.872 176 153.472C171.1 168.572 167.7 184.072 165.1 199.672C164.3 204.372 163.6 209.072 162.9 213.772C162.8 214.172 162.8 214.672 162.5 214.972C162.3 215.372 161.8 215.472 161.4 215.472C159.3 215.772 157.2 215.972 155.1 216.372C154.6 216.472 154 216.572 154 215.772C154.4 213.272 154.7 210.772 155.1 208.372C156 201.972 157.1 195.472 158.2 189.072C159.7 180.672 161.5 172.372 163.6 164.172C164.6 160.272 165.7 156.372 167 152.572C167.4 151.272 167.4 151.272 166.5 150.272C164.2 148.072 161.8 145.772 159.5 143.572C159.1 143.172 158.8 142.672 158.6 142.072C157.8 138.772 157 135.572 156.1 132.272C155.9 131.872 155.8 131.472 155.8 131.172Z" fill="#45423D"/>
<path d="M155.9 131.172C156 131.472 156.2 131.872 156.1 132.272C155.8 131.872 155.6 131.572 155.9 131.172Z" fill="#A9A9A9"/>
<path d="M209.9 224.672C206 222.472 201.9 220.672 197.7 219.172C197.3 219.072 196.9 218.972 196.6 218.572C197 215.372 197.4 212.272 197.9 209.072C199 201.772 200.3 194.572 201.7 187.272C203.9 176.372 206.6 165.472 210.1 154.972C210.7 153.272 211.2 151.572 211.8 149.872C212.1 148.972 212.1 148.972 213 149.072C217.8 149.172 222.7 149.372 227.5 149.772C229.8 149.972 232.1 150.172 234.4 150.372C238.2 150.772 242 151.272 245.8 151.772C247.4 151.972 249 152.272 250.6 152.572C251.5 152.972 252.1 153.672 252.6 154.572C254.7 157.772 256.4 161.272 257.8 164.872C259.3 168.672 260.6 172.472 261.5 176.472C261.9 178.072 262.4 179.572 262.7 181.172C263.9 186.272 265.2 191.372 266.2 196.572C266.7 199.272 267.2 201.872 267.9 204.572C268.1 205.272 268.4 206.072 267.5 206.572C267.4 206.672 267.3 206.772 267.2 206.872C265.7 207.672 264.7 209.072 263.7 210.472C262 212.772 260.4 215.172 258.7 217.472C258.2 217.672 257.8 217.472 257.5 217.172C255.5 215.672 253.5 214.172 251.5 212.772C250.5 212.072 250.4 211.672 251.1 210.572C252.1 209.072 253.1 207.572 254.1 205.972C254.5 205.372 254.9 204.772 255.2 204.172C255.8 202.972 255.6 201.872 254.7 201.172C253.8 200.472 252.7 200.672 251.9 201.572C250.8 202.872 250 204.272 249.1 205.672C246.2 210.072 243.3 214.472 240.4 218.772C240.1 219.172 239.8 219.572 239.7 220.072C239.3 221.172 239.6 222.272 240.4 222.872C241.3 223.472 242.3 223.372 243.1 222.472C244.2 221.172 245 219.772 245.9 218.372C246.5 217.472 247.1 216.572 247.7 215.772C248.1 215.172 248.6 215.072 249.2 215.472C251.4 216.972 253.5 218.572 255.7 220.172C256.1 220.472 256.4 220.772 256.4 221.272C255.7 222.472 255.1 223.572 254.4 224.772C254.1 225.372 253.7 225.872 253.4 226.472C252 228.872 252 231.372 253.2 233.872C256.4 240.572 259.8 247.072 263.6 253.472C264.1 254.272 264.6 254.972 265.1 255.772C266.4 257.972 268.4 258.872 270.8 258.972C273.1 259.072 275.3 258.772 277.6 258.572C277.5 268.572 274.8 277.672 269.8 286.072C269.1 287.272 268.3 287.772 266.9 287.672C263.2 287.572 259.6 287.672 255.9 287.672C255.2 287.572 255.2 286.872 255.1 286.372C254.7 284.272 254.1 282.172 253.5 280.072C251.2 271.972 247.8 264.372 243.5 257.272C242.1 254.972 240.5 252.772 239.1 250.572C237.7 248.672 236.3 246.972 234.8 245.172C232.1 242.072 229.3 239.172 226.3 236.472C221.9 232.572 217.1 229.172 212.1 226.172C211.1 225.872 210.3 225.572 209.9 224.672Z" fill="#B9E1E1"/>
<path d="M267.3 206.872C267.6 206.272 267.6 205.372 267.4 204.772C266.1 199.472 257 162.472 251.8 154.372C251.2 153.372 251 153.172 250.5 152.672C252.9 152.872 255.3 153.372 257.7 153.772C257.9 153.772 258.1 153.872 258.2 153.972C258.4 154.072 258.5 154.272 258.6 154.372C261.8 164.672 264.6 175.072 266.9 185.672C268.3 192.072 269.8 199.072 270.9 205.572C271.1 206.072 271.2 205.872 269.8 206.072C269.1 206.172 268 206.572 267.3 206.872Z" fill="#DCF9FB"/>
<path d="M190.3 216.971C188.2 216.571 186.1 216.071 184 215.671C181.5 215.271 179 214.871 176.4 214.771C174 214.571 171.6 214.571 169.2 214.571C167.8 214.571 166.5 214.671 165.1 214.571C164.5 214.071 164.6 213.471 164.7 212.871C165.9 204.071 167.2 195.371 168.9 186.671C170.1 180.571 171.5 174.471 173.2 168.571C174.8 162.871 176.7 157.271 179.6 152.171C180 151.371 180.1 150.771 179.6 150.071C179.9 149.971 180.3 149.971 180.6 149.871C188.3 149.471 196 149.071 203.7 149.171C204 149.171 204.4 149.071 204.7 149.271C204.8 149.671 204.6 149.971 204.5 150.271C201.1 160.071 198.5 170.171 196.3 180.271C194.4 188.871 192.9 197.571 191.5 206.271C191.3 209.871 190.8 213.371 190.3 216.971Z" fill="#B9E1E1"/>
<path d="M180.5 149.872C181.9 149.672 181.7 149.772 180.9 151.272C178.7 155.272 176.8 159.472 175.3 163.772C174.5 166.272 173.7 168.872 173 171.472C172.3 174.272 171.5 177.172 170.9 179.972C170.3 182.872 169.7 185.772 169.1 188.672C168.5 191.672 167.9 194.572 167.4 197.672C166.7 202.372 166 206.972 165.3 211.672C165.2 212.672 165 213.572 165 214.572C164.7 214.772 162.3 214.972 162.1 214.572C162.3 212.272 162.7 210.072 163 207.772C163.8 202.172 164.8 196.572 165.8 191.072C168.2 178.272 171.2 165.572 175.2 153.172C175.5 152.372 175.8 151.672 176 150.872C176.1 150.372 176.4 150.272 176.8 150.272C178 150.072 180.4 149.872 180.5 149.872Z" fill="#DCF9FB"/>
<path d="M308 307.672C305.6 307.472 303 305.472 301.1 310.572C299.2 315.572 302 317.572 301.6 317.372C301.4 317.372 301.2 317.372 301 317.372C299.4 317.372 297.8 317.072 296.3 317.072C295.7 316.772 295.9 316.372 296 315.872C296.8 311.872 298 308.072 299.6 304.372C301.7 299.572 304.3 294.972 307.5 290.872C312 285.172 317.3 280.472 323.4 276.772C329.8 272.972 336.6 270.572 343.9 269.572C347.4 269.072 350.9 268.872 354.5 269.172C355.8 269.272 356.9 268.672 357.6 267.572C357.9 267.072 358.2 266.772 358.7 266.572C359.3 266.572 359.8 266.872 360.4 266.972C361.6 267.272 361.8 267.172 362.3 266.072C363.2 264.172 364.1 262.272 365.2 260.572C365.5 260.372 365.7 260.172 365.9 259.872C367.4 257.572 369.2 255.572 371.4 253.972C371.5 253.972 371.5 253.972 371.6 253.972C372.4 253.972 372.6 254.572 372.8 255.272C373.6 257.972 374.6 260.672 375.7 263.272C377.6 267.572 380 271.572 383.1 275.072C383.6 275.572 384.1 276.072 383.9 276.872C382.3 279.772 380.7 282.772 379.1 285.672C378.9 286.072 378.6 286.572 378.4 286.972C378 287.672 377.5 288.372 376.9 289.072C376.8 288.972 376.6 288.872 376.4 288.772C376.3 288.772 376.1 288.572 376 288.472C374.3 287.472 374.6 287.472 375.4 285.672C375.9 284.572 376.2 283.372 375.9 282.172C375.8 281.672 375.5 281.172 375.2 280.772C374.9 280.372 374.5 279.972 374 279.772C372.9 279.172 371.8 278.572 370.6 278.272C368.9 277.872 367.1 278.772 366.3 280.372C366 280.872 365.8 281.472 365.6 282.072C365.2 282.872 365 282.972 364.2 282.772C362.1 282.172 360 281.672 357.8 281.372C357.6 281.372 357.4 281.272 357.2 281.272C356.6 281.172 356.4 280.872 356.4 280.272C356.4 279.672 356.4 279.172 356.4 278.572C356.5 276.372 355.2 274.972 353.3 274.572C351.9 274.272 350.5 274.272 349.1 274.672C347.4 275.072 346.3 276.172 346.1 278.072C346 278.772 345.9 279.472 345.9 280.172C345.9 281.072 345.8 281.172 344.9 281.372C343.8 281.572 342.7 281.772 341.6 281.972C340.5 282.172 339.3 282.472 338.2 282.872C337.5 283.072 337.3 282.972 337 282.272C336.7 281.572 336.5 280.972 336.1 280.372C335.2 278.772 333.5 277.972 331.7 278.472C330.4 278.772 329.3 279.372 328.2 280.072C326.6 281.172 326 283.172 326.7 285.072C326.9 285.672 327.2 286.172 327.4 286.772C327.7 287.472 327.7 287.672 327.1 287.972C325 289.272 323.1 290.872 321.2 292.472C320.6 292.972 320.5 292.972 320 292.472C319.5 291.972 319 291.572 318.5 291.172C317 290.072 315 290.072 313.7 291.272C312.7 292.172 311.8 293.072 311.2 294.172C310.2 295.872 310.4 297.972 311.8 299.372C312.4 299.972 312.4 299.972 313.4 300.672C312 302.172 309.2 306.172 308.4 307.772" fill="#414141"/>
<path d="M289 316.972C283.3 316.972 277.6 316.972 271.9 316.972C262.8 316.972 253.7 316.972 244.6 316.972C242.5 316.972 242.5 316.872 242.8 314.772C243 313.172 243 311.572 242.2 310.172C241.3 308.672 240 307.672 238.3 307.372C237.5 307.272 236.6 307.172 235.8 307.072C234.8 307.072 234.6 306.772 234.6 305.672C234.5 302.172 234.2 298.672 233.6 295.172C233.3 293.772 233.4 293.672 234.7 293.272C235.8 292.972 236.8 292.572 237.7 291.972C240 290.472 240.7 287.972 240.2 285.372C239.9 284.172 239.6 283.072 239.2 281.872C238.2 278.872 235.6 277.372 232.7 277.872C231.7 278.072 230.7 278.372 229.8 278.772C229 279.072 228.9 278.972 228.5 278.172C227 274.772 225.1 271.472 223 268.372C222.6 267.772 222.6 267.572 223.2 267.172C224 266.472 224.7 265.672 225.4 264.972C227.2 263.272 227.2 259.672 226.1 257.872C225.1 256.272 223.8 254.872 222.4 253.672C220.6 252.172 217.5 252.072 215.5 253.972C214.8 254.572 214 255.172 213.4 255.872C213 256.272 212.7 256.372 212.3 255.972C211.3 255.072 210.3 254.172 209.2 253.272C207.6 251.972 205.8 250.772 204.1 249.572C202.6 248.572 202.7 248.772 203.4 247.072C203.7 246.372 204 245.672 204.2 244.972C205.1 242.172 204.3 239.172 201.5 237.672C200.3 237.072 199.1 236.372 197.8 235.972C196 235.472 194.2 235.572 192.5 236.772C191.8 237.272 191.3 237.972 191 238.772C190.6 239.672 190.2 240.672 189.8 241.572C189.5 242.272 189.4 242.372 188.7 242.072C186 241.172 183.2 240.572 180.3 240.072C179.6 239.972 179 239.872 178.3 239.772C177.3 239.672 177.3 239.572 177.2 238.472C177.2 237.572 177.2 236.672 177.2 235.772C177.2 233.272 176 231.672 174 230.672C173.4 230.372 172.8 230.172 172.1 230.172C170.6 230.072 169 229.972 167.5 230.272C164.6 230.772 162.8 232.972 162.7 235.972C162.7 236.772 162.7 237.572 162.7 238.372C162.7 239.572 162.6 239.572 161.5 239.772C158.1 240.372 154.7 240.972 151.4 241.972C150.6 242.172 150.5 242.172 150.2 241.372C149.9 240.572 149.5 239.772 149.2 239.072C147.8 235.972 144.7 234.972 141.8 236.072C140.7 236.472 139.7 236.972 138.6 237.572C136.9 238.472 135.8 239.872 135.4 241.972C135.2 243.072 135.3 244.172 135.7 245.172C136 246.072 136.4 246.972 136.8 247.772C137.1 248.472 137.1 248.672 136.5 249.072C133.8 250.772 131.3 252.772 128.8 254.872C128.5 255.172 128.2 255.472 127.9 255.672C127.4 256.172 127.2 256.172 126.7 255.672C126.1 255.172 125.5 254.572 124.9 254.072C122.8 251.872 118.9 251.872 116.9 254.172C116.3 254.872 115.7 255.572 115.1 256.272C114.4 257.072 114.3 257.072 113.5 256.272C112.9 255.672 111.3 254.272 111.2 254.172C110.2 252.972 110.2 252.972 111.3 251.772C120 241.372 131.1 233.472 143.5 228.772C149.7 226.372 156.2 224.872 162.8 224.272C166.8 223.872 170.9 223.872 174.9 224.172C180.4 224.472 185.8 225.472 191.1 226.972C195.4 228.172 199.6 229.872 203.7 231.972C206.5 233.372 209.1 234.872 211.7 236.572C215.3 238.972 218.7 241.672 221.9 244.672C225 247.572 227.8 250.672 230.5 253.972C230.9 254.472 231.2 254.972 231.5 255.472C234 258.472 236 261.772 237.9 265.172C241.7 271.972 244.5 279.372 246.2 287.072C246.8 289.772 247.2 292.472 247.7 295.172C248.1 297.572 249.7 298.372 251.8 297.172C254.3 295.772 255.9 292.272 255.6 289.272C255.5 288.572 255.1 287.872 255.8 287.272C256.3 286.972 256.9 286.972 257.5 286.972C260.6 286.972 263.6 286.972 266.7 286.972C268 286.972 268.8 286.472 269.5 285.372C272 281.272 274 276.772 275.2 271.972C276.2 268.272 276.9 264.572 277.2 260.672C277.2 260.272 277.2 259.872 277.2 259.472C277.1 258.972 277.3 258.572 277.7 258.372C278.4 258.372 279.8 258.272 279.9 258.272C282.4 258.072 282.4 258.072 282.4 260.772C282.4 262.772 282.4 264.872 282.4 266.872C282.4 268.772 282.9 269.272 284.6 269.772C288.8 270.872 293 271.272 297.2 270.972C299.2 270.872 301.1 270.472 303.1 270.372C303.5 270.372 303.9 270.172 304.3 270.072C305.5 269.572 305.8 269.072 305.9 267.772C305.9 265.272 305.9 262.672 305.9 260.172C305.9 259.572 305.8 258.972 306.3 258.572C307.1 257.972 307.8 258.472 308.5 258.772C310.2 259.572 311.5 260.872 312.7 262.272C314.9 264.972 316.5 267.972 318 271.172C318.1 271.372 318.2 271.672 318.2 271.972C318.1 272.672 317.7 272.972 317.2 273.372C313.2 276.072 309.6 279.372 306.3 282.972C302.5 287.172 299.3 291.772 296.7 296.772C293.6 302.572 291.5 308.772 290.2 315.372C289.7 316.072 289.8 316.872 289 316.972Z" fill="#45423D"/>
<path d="M289 316.971C289.3 315.771 289.5 314.571 289.8 313.271C292 303.271 296.3 294.371 302.4 286.471C306.5 281.171 311.3 276.571 316.8 272.871C317.1 272.671 317.5 272.471 317.7 272.071C317.9 271.671 336.5 259.071 357.2 263.071C358.4 263.971 358.6 265.871 357.9 267.471C357.2 269.071 356 269.571 354.1 269.571C352.3 269.571 350.5 269.471 348.7 269.571C345.7 269.771 342.7 270.171 339.7 270.771C331.6 272.571 324.2 276.071 317.6 281.271C309.8 287.371 304 295.171 300 304.471C298.4 308.271 297.1 312.271 296.3 316.271C296.3 316.471 295.6 320.471 295.4 322.171C295.2 323.771 294.5 324.871 293 325.471C290.8 326.271 288.5 324.571 288.5 322.171C288.5 320.971 288.7 319.771 288.9 318.571C288.8 318.171 288.9 317.071 289 316.971Z" fill="#A19D98"/>
<path d="M271.3 308.571C267.6 308.571 263.9 308.571 260.2 308.571C258.5 308.571 257.2 307.671 256.5 306.071C255.8 304.471 256 302.871 257 301.371C257.8 300.271 259 299.771 260.3 299.771C261.2 299.771 262.1 299.771 263 299.771C269.3 299.771 275.5 299.771 281.8 299.771C283 299.771 284.1 299.971 285 300.871C286.3 302.071 286.8 303.971 286.3 305.671C286 306.571 285.5 307.271 284.8 307.771C284.1 308.271 283.3 308.571 282.4 308.571C278.7 308.671 275 308.571 271.3 308.571Z" fill="#FC4F4F"/>
<path d="M154 215.672C154.2 215.872 154.5 215.872 154.8 215.772C157.1 215.272 159.5 214.972 161.8 214.772C162 214.772 161.9 214.772 162.5 214.672C170.7 214.072 181.7 214.472 190.4 216.872C192.3 217.472 194.2 217.872 196.1 218.372C196.3 218.372 205.6 221.972 209.3 224.072C209.6 224.272 209.8 224.472 210 224.672C210.1 226.472 209.6 227.772 208.7 228.972C207.3 230.672 205.5 231.872 203.5 232.572C200.9 231.372 198.3 230.172 195.7 229.172C191 227.472 186.1 226.172 181.2 225.472C176.9 224.872 172.5 224.572 168.2 224.672C163.1 224.772 157.9 225.372 152.9 226.572C137.3 230.272 123.2 238.872 112.5 251.272C112.2 251.672 111.8 252.072 111.5 252.472C110.8 253.272 110.5 253.872 109.9 254.472C109 255.572 108.2 256.672 107.3 257.772C105.3 260.372 101.8 260.472 99.6 257.772C98.1 255.972 98.4 253.172 99.6 251.372C100.9 249.472 102.3 247.672 103.8 245.972C105.3 244.172 106.8 242.372 108.5 240.672C110.8 238.372 113.2 236.072 115.7 233.972C124.4 226.972 133.9 221.572 144.3 218.272C147.1 217.372 149.9 216.672 152.7 216.072C153.1 216.172 153.6 216.072 154 215.672Z" fill="#ED5050"/>
<path d="M239.1 250.272C241.6 253.472 243.7 256.972 245.7 260.472C248 264.672 250 268.972 251.6 273.572C253.1 277.772 254.4 281.972 255.3 286.272C255.4 286.772 255.5 287.272 255.6 287.772C255.8 289.072 256.1 290.472 255.8 291.772C255.2 294.572 253.9 296.772 251.3 298.072C249.2 299.072 247.3 298.072 247 295.572C246.1 289.072 244.6 282.772 242.3 276.772C239.6 269.572 236 262.872 231.5 256.772C231.3 256.472 231.1 256.172 230.9 255.872C231.4 254.172 232.4 252.772 233.4 251.372C233.9 250.572 234.8 250.672 235.5 250.472C236.7 250.072 237.9 249.772 239.1 250.272Z" fill="#ED5050"/>
<path d="M238.6 250.172C233 249.672 231.3 255.472 231.1 255.872C228.7 252.772 226.1 249.772 223.4 247.072C217.8 241.472 211.4 236.772 204.4 233.172C204.1 232.972 203.8 232.872 203.5 232.672C203.8 232.372 206.1 231.872 208 229.072C209.6 226.772 210 225.172 210 224.672C211.8 225.372 213.4 226.572 215.1 227.572C218 229.372 220.7 231.372 223.4 233.472C225.8 235.472 228.1 237.472 230.3 239.672C231.8 241.172 233.2 242.772 234.6 244.372C236.3 246.172 237.9 248.072 239.2 250.172" fill="#ED5050"/>
<path d="M383.5 276.772C382.9 275.672 382 274.972 381.3 273.972C377.3 268.872 374.5 263.172 372.5 256.972C372.3 256.272 372.1 255.572 371.8 254.872C371.7 254.572 371.6 254.272 371.2 254.272C366.2 249.772 360.1 247.172 354.1 244.472C345.1 240.272 335.7 237.372 326.2 234.872C318.8 232.872 311.2 231.372 303.6 230.072C302.9 229.972 302.2 229.872 301.7 229.172C301.6 228.672 301.6 228.172 301.6 227.672C301.6 221.772 301.6 215.772 301.6 209.872C301.6 209.272 301.4 208.472 302.1 207.972C303.6 208.372 305.1 208.372 306.6 208.572C309.5 208.972 312.3 209.272 315.2 209.772C318.9 210.372 322.6 210.872 326.3 211.672C328.8 212.172 331.4 212.672 333.9 213.272C336.9 213.972 339.8 214.572 342.8 215.372C347.7 216.672 352.6 217.972 357.3 219.772C359.2 220.472 361.1 221.272 363 221.872C365 222.472 366.5 223.772 367.9 225.172C371.1 228.272 374.2 231.372 377.3 234.572C379.3 236.772 381.4 238.872 383.3 241.072C384.1 242.072 385.1 242.972 386 243.872C387.5 245.472 388.9 247.272 390.5 248.872C391.7 250.172 392.5 251.772 392.6 253.672C392.7 256.272 392.6 258.872 392 261.472C390.8 266.172 388.7 270.372 385.8 274.172C385.2 275.072 384.4 275.972 383.5 276.772Z" fill="#ED5050"/>
<path d="M256.3 221.472L249.3 216.372C249.2 216.272 249.1 216.172 249 216.172C248.6 215.772 248.3 215.972 248.1 216.372C247.7 217.072 247.3 217.672 246.8 218.272C245.8 219.772 244.8 221.372 243.7 222.872C242.9 223.972 241.9 224.372 240.9 223.972C239.3 223.472 238.5 221.572 239.3 219.972C239.6 219.472 239.9 218.972 240.2 218.572C243.8 213.172 247.4 207.772 250.9 202.372C251.1 201.972 251.4 201.672 251.6 201.372C252.5 200.272 254 200.172 255 200.972C255.5 201.372 255.9 201.972 256 202.572C256.1 203.272 256.1 203.872 255.7 204.472C255.4 205.072 255 205.672 254.6 206.272C253.5 207.972 252.4 209.572 251.3 211.272C250.9 211.972 250.8 211.972 251.5 212.372C253.9 214.172 256.3 215.872 258.7 217.672L256.3 221.472Z" fill="#45423E"/>
<path d="M285.3 206.572C285.6 206.772 285.6 207.172 285.6 207.572C285.6 213.872 285.6 220.172 285.6 226.472C285.6 226.672 285.6 226.872 285.5 227.072C285.1 227.572 284.5 227.572 283.9 227.572C281.8 227.572 279.7 227.472 277.6 227.472C271.7 227.372 265.9 227.372 260 227.472C259.6 227.472 259.2 227.472 258.8 227.672C258.6 227.772 258.4 227.972 258.4 228.272C258.4 228.572 258.7 228.672 258.9 228.772C259.1 228.772 259.2 228.872 259.4 228.872C262.3 228.772 265.2 228.972 268.1 228.772C270.9 228.572 273.7 228.672 276.4 228.772C278.8 228.972 281.2 228.972 283.6 229.072C284.2 229.072 284.8 229.072 285.4 229.472C285.7 230.872 286.1 232.372 285.8 233.872C285.8 233.972 285.8 234.172 285.7 234.272C285.3 234.872 284.6 234.872 284 235.072C282.9 235.572 282.3 236.372 282.4 237.672C282.6 243.572 282.1 249.372 282.2 255.272C282.2 255.972 282.2 256.672 282.3 257.272C282.5 258.772 282.1 259.172 280.7 259.372C280.3 259.372 280 259.372 279.6 259.472C278.9 259.472 278.3 259.472 277.6 259.472C275.7 259.772 273.8 259.772 271.8 259.972C268.2 260.272 265.6 258.672 263.8 255.472C261.2 250.972 258.6 246.472 256.3 241.872C255.2 239.772 254.3 237.672 253.1 235.672C251.3 232.372 251.3 229.172 253.4 225.972C254.3 224.572 255 223.072 256.1 221.772C256.7 220.272 257.7 219.072 258.6 217.672C260.6 214.572 262.8 211.472 265.1 208.572C265.8 207.672 266.8 207.172 267.7 206.472C268.9 206.172 273.2 206.072 274.3 205.972C275.5 205.972 276.8 205.972 278 205.972C278.4 205.672 284.1 205.972 285.3 206.572Z" fill="#ED5050"/>
<path d="M358.6 267.072C358.2 266.872 358 266.572 358 266.072C358.1 264.572 357.2 263.772 356 263.272C354.5 262.672 343 261.572 331.6 265.772C327.6 267.172 323.7 268.872 320.1 271.072C319.4 271.472 318.7 271.772 318.1 272.272C318 272.372 317.8 272.272 317.7 272.272C316.8 270.972 316.2 269.372 315.4 267.972C314.2 265.772 312.8 263.672 311.1 261.872C309.8 260.472 308.3 259.372 306.4 258.972C305.9 258.972 305.8 258.572 305.7 258.172C305.6 257.672 305.6 257.272 305.6 256.772C305.6 253.472 305.5 250.272 305.6 246.972C305.7 243.872 305.3 240.872 305.4 237.772C305.4 236.572 304.9 235.772 303.9 235.372C303.5 235.172 303.1 234.972 302.7 234.772C302.4 234.572 302.1 234.372 302.2 233.972V231.672C302.5 231.172 303 231.272 303.5 231.372C309.2 232.272 314.8 233.372 320.3 234.672C327 236.272 333.7 238.072 340.2 240.272C345.4 242.072 350.6 244.072 355.6 246.572C358 247.772 360.4 248.772 362.6 250.372C363.4 250.972 364.1 251.772 364.7 252.572C366.2 254.472 365.8 256.772 365.7 258.972C365.7 259.672 365.3 260.272 365.3 260.972C364 262.972 362.9 265.172 362 267.472C361.8 267.972 361.6 268.072 361.1 267.972C360.3 267.472 359.4 267.272 358.6 267.072Z" fill="#ED5050"/>
<path d="M365.3 260.871C365 260.271 365.1 259.671 365.2 259.071C365.4 257.871 365.3 256.571 365.3 255.371C365.3 254.171 364.7 253.171 364 252.371C363.1 251.271 362 250.371 360.8 249.771C355.1 246.671 349.2 244.171 343.1 241.971C338.7 240.371 334.3 238.871 329.8 237.671C324.1 236.171 318.5 234.771 312.7 233.571C309.4 232.871 306.1 232.371 302.8 231.771C302.6 231.771 302.4 231.771 302.2 231.671C302.2 230.871 302.2 230.071 302.2 229.271C304.2 229.471 306.2 229.871 308.2 230.271C310.8 230.771 313.4 231.271 316 231.871C318.7 232.471 321.5 233.071 324.2 233.771C326.3 234.371 328.4 234.871 330.4 235.371C335.5 236.771 340.5 238.371 345.4 240.171C349.4 241.671 353.3 243.471 357.2 245.171C360.9 246.871 364.5 248.771 368 250.971C369 251.571 370 252.371 370.9 253.171C371.2 253.471 371.5 253.771 371.2 254.271C369.9 255.471 368.6 256.671 367.4 257.971C366.7 258.871 366.1 259.871 365.3 260.871Z" fill="#ED5050"/>
<path d="M285.3 227.072V229.472C278.5 228.872 265.8 228.872 259.4 229.272C258.9 229.272 258.4 229.172 257.9 229.072C257.5 228.972 257 228.472 257 228.172C257 227.572 257.3 227.372 257.7 227.172C258.2 226.872 258.9 226.872 259.4 226.872C265.5 226.872 271.7 226.772 277.8 226.972C280.3 226.972 282.8 226.972 285.3 227.072Z" fill="#ED5050"/>
<path d="M390.3 255.672C390.3 257.972 389.9 260.072 389.3 262.172C388.2 265.872 386.4 269.172 384.1 272.172C383.6 272.772 383.6 272.772 383.1 272.172C380.9 269.372 379.1 266.372 377.5 263.072C376.3 260.672 375.4 258.072 374.6 255.572C374.3 254.772 374.4 254.672 375.1 254.172C377.8 252.772 380.5 251.672 383.5 251.272C384.9 251.072 386.2 251.072 387.6 250.872C387.7 250.872 387.9 250.872 388 250.872C389.3 250.872 389.5 251.072 390 252.272C390.3 253.472 390.3 254.672 390.3 255.672Z" fill="#FEFEFE"/>
<path d="M302.1 208.472C302.1 215.272 302.2 230.272 302.3 234.572C301.9 235.072 301.4 234.872 301 234.772C296.2 233.272 291.4 233.472 286.6 234.472C286.2 234.572 285.8 234.672 285.5 234.272C285.3 233.972 285.5 200.472 285.5 198.372C285.5 197.472 285.6 196.572 286.1 195.772C286.6 194.772 287.1 193.772 287.6 192.772C287.7 192.672 287.8 192.672 287.9 192.672C293.5 195.172 298.1 198.072 302.3 202.572C302 204.172 302.1 206.372 302.1 208.472Z" fill="#414141"/>
<path d="M287.7 192.272H287.5C287.9 191.272 287.9 190.172 287.9 189.072C287.9 185.872 287.9 182.672 287.9 179.372C287.9 178.172 288.2 177.272 288.9 176.372C292.3 171.872 296.1 167.572 300.1 163.572C302.6 161.072 305.3 158.672 308.3 156.672C308.9 156.772 308.6 157.172 308.5 157.472C306.7 161.672 306.9 166.172 307.5 170.472C307.7 172.372 308.3 174.372 309.8 175.872C309.9 175.972 310 176.072 310 176.272C310 176.372 310 176.572 309.9 176.672C306.4 178.372 303.7 180.972 301.4 184.172C301.1 184.672 300.8 185.172 300.9 185.772C300.7 189.572 300.8 193.472 300.9 199.772C300.9 199.872 300.9 199.872 300.9 199.972C300.4 200.372 300.1 199.972 299.7 199.672C298.3 198.472 297 197.172 295.5 196.072C293.9 194.872 292.2 193.772 290.5 192.872C289.7 192.372 288.8 192.072 287.7 192.272Z" fill="#A19D98"/>
<path d="M310.6 156.271C311.3 156.671 311.6 157.271 311.8 157.971C312.2 159.971 312.5 161.971 312.7 163.971C312.9 167.471 312.5 170.771 311.6 174.171C311.4 174.871 311.2 175.571 310.8 176.071C310.4 176.171 310.2 175.771 310.1 175.471C308.1 171.771 307.7 167.771 308 163.671C308 163.071 308.1 162.571 308.2 161.971C308.2 159.871 309.1 157.771 310.6 156.271Z" fill="#A19D98"/>
<path d="M304.3 234.972C305.4 235.472 305.9 236.172 305.9 237.472C306.1 244.172 306.1 250.972 306.1 257.672C306.1 258.072 306.1 259.872 306.1 260.372C306.1 263.172 306 265.972 306.1 268.772C306.1 269.772 305.7 270.272 304.9 270.672C298.2 272.572 289.4 272.472 283.3 270.472C281.9 270.072 281.6 269.472 281.5 267.972C281.5 265.972 281.5 264.072 281.5 262.072C281.5 261.272 281.5 260.472 281.5 259.572C281.5 258.772 281.7 245.972 281.7 245.572C281.7 242.572 281.7 239.572 281.7 236.572C281.7 235.672 282 235.072 282.9 234.672C292.7 231.472 297.8 232.372 304.3 234.972Z" fill="#A19D98"/>
<path d="M283.6 252.672V238.172C283.6 237.972 283.6 237.672 283.6 237.372C283.6 236.372 283.7 236.272 284.6 235.872C288 234.472 298 233.172 303.4 236.872C304.2 237.372 304.4 237.772 304.4 238.972C304.5 241.472 304.3 260.372 304.3 267.672C304.3 267.772 304.3 267.972 304.3 268.072C304.3 269.072 304.2 269.172 303.2 269.372C297 270.772 290.8 270.572 284.6 268.972C283.7 268.772 283.6 268.672 283.6 267.672C283.6 264.372 283.6 260.972 283.6 257.672C283.7 256.072 283.7 254.372 283.6 252.672Z" fill="#45423D"/>
<path d="M287.5 192.472C287.6 191.572 288.2 191.472 289.2 191.672C290.4 192.072 291.6 192.572 292.7 193.372C295.1 194.872 297.5 196.572 299.5 198.672C300 199.172 300.5 199.572 301 199.972C301.1 200.272 301.2 200.572 301.5 200.772C302.1 201.372 302.2 202.072 302.1 202.972C301 202.772 300.4 202.172 299.7 201.372C297.8 199.172 295.7 197.472 293.4 195.872C292 194.872 289.8 193.872 288.2 193.172C287.7 192.972 287.4 192.972 287.5 192.472Z" fill="#DCF9FB"/>
<path d="M310.6 156.272C311 156.472 311.2 156.572 310.3 157.472C309.1 158.572 308.3 161.372 308.4 166.072C308.5 169.172 308.5 171.872 310.9 176.172C310.7 176.472 310.4 176.772 310.1 176.772C306.1 172.672 306.5 160.072 308.5 156.772C309.2 155.872 309.7 155.772 310.6 156.272Z" fill="#DCF9FB"/>
</g>
<defs>
<clipPath id="clip0_1_7006">
<rect width="500" height="500" fill="white" transform="translate(0 0.671875)"/>
</clipPath>
</defs>
</svg>
