<svg width="500" height="501" viewBox="0 0 500 501" fill="none" xmlns="http://www.w3.org/2000/svg">
<path d="M221.407 4.72949C257.944 26.5565 292.302 51.8125 328.503 74.1985C284.055 153.462 239.583 232.75 195.089 312.061C177.381 280.301 160.79 247.91 143.291 216.007C168.49 145.277 197.258 75.8065 221.407 4.72949Z" fill="#F9C011"/>
<path d="M105.632 496.615C181.158 356.206 259.624 217.337 334.312 76.5771C354.261 112.398 374.28 148.218 394.369 184.037C336.481 288.137 278.173 391.957 220.707 496.266C182.349 496.265 143.999 495.776 105.632 496.615Z" fill="#DB712A"/>
<path d="M227.917 496.054C259.904 440.087 290.074 383.139 322.482 327.451C341.801 352.707 361.4 377.823 380.579 403.216C329.902 434.561 278.943 465.343 227.917 496.054Z" fill="#B7230F"/>
</svg>
