<svg width="500" height="501" viewBox="0 0 500 501" fill="none" xmlns="http://www.w3.org/2000/svg">
<g clip-path="url(#clip0_1_7059)">
<path d="M250 97.0719C280.4 97.0719 310.1 106.072 335.3 122.972C360.6 139.872 380.2 163.872 391.9 191.872C403.5 219.972 406.6 250.772 400.6 280.572C394.7 310.372 380 337.772 358.6 359.172C337.1 380.672 309.8 395.272 280 401.172C250.2 407.072 219.3 404.072 191.3 392.472C163.2 380.872 139.2 361.172 122.4 335.872C105.5 310.572 96.5 280.872 96.5 250.572C96.6 209.872 112.8 170.772 141.5 142.072C170.2 113.372 209.3 97.1719 250 97.0719ZM250 0.671875C200.6 0.671875 152.2 15.3719 111.1 42.7719C70 70.2719 38 109.272 19 154.972C0.0999622 200.672 -4.80004 250.972 4.79996 299.472C14.4 347.972 38.3 392.472 73.2 427.472C108.2 462.472 152.7 486.272 201.2 495.872C249.7 505.472 300 500.572 345.6 481.672C391.2 462.772 430.3 430.672 457.8 389.572C485.3 348.472 500 300.072 500 250.672C500 184.372 473.7 120.772 426.8 73.8719C379.9 26.9719 316.3 0.671875 250 0.671875Z" fill="url(#paint0_linear_1_7059)"/>
<path d="M250 446.672C358.2 446.672 446 358.972 446 250.672C446 142.372 358.2 54.6719 250 54.6719C141.8 54.6719 54 142.472 54 250.672C54 358.872 141.8 446.672 250 446.672Z" fill="white"/>
<path d="M361.8 363.572C347 378.372 329.4 389.972 310 397.772C290.6 405.572 269.9 409.472 249 409.072C228.2 409.472 207.6 405.672 188.4 397.772C169.2 389.972 151.7 378.272 137.2 363.472C122.3 348.972 110.5 331.572 102.7 312.272C94.7999 292.972 90.9999 272.372 91.4999 251.572C91.4999 206.072 106.8 168.072 137.4 137.772C152 122.972 169.4 111.272 188.6 103.472C207.8 95.6718 228.5 91.8718 249.2 92.2718C270.1 91.8718 290.8 95.7718 310.2 103.572C329.6 111.372 347.2 123.072 361.9 137.772C393.1 168.172 408.8 206.072 408.8 251.572C409.2 272.472 405.2 293.172 397.1 312.472C389 331.872 377 349.172 361.8 363.572Z" fill="#49BC98"/>
<path d="M312.6 185.072L260.4 146.672L257.8 146.872C256.5 148.472 255.5 150.172 254.8 152.072C250.2 171.872 245.7 191.772 241.2 211.672C240 217.172 238.7 222.572 237.5 228.072C237.1 229.972 236.7 231.872 236.2 234.072L235.8 235.972C236.4 235.672 236.9 235.372 237.4 235.172C238 234.872 238.6 234.572 239.1 234.272L295.2 203.472C301.4 200.072 307.6 196.772 313.8 193.272C314.4 192.972 314.9 192.472 315.3 191.872C315.7 191.272 315.9 190.672 316 189.972C316.1 189.272 315.9 188.572 315.7 187.972C315.4 187.372 315 186.772 314.4 186.372L312.6 185.072Z" fill="white"/>
<path d="M184.6 189.472C181.3 191.672 178.7 194.872 177.1 198.572L177 304.572C178.5 307.272 180.3 309.772 182.4 311.972C194.2 321.572 206.1 331.172 217.9 340.672C222 343.972 226.1 347.272 230.3 350.572C231.9 351.872 233.6 352.772 235.5 351.572C236.3 350.972 237 350.172 237.3 349.172C237.6 348.172 237.6 347.172 237.2 346.272C231 315.872 224.8 285.572 218.7 255.172C218.2 252.872 218.2 250.472 218.7 248.072C224.9 217.772 231.1 187.472 237.4 157.272C237.9 155.072 237.8 152.972 235.7 151.772C233.6 150.572 231.9 151.772 230.3 153.072C226 156.472 221.7 159.872 217.5 163.272C206.5 172.072 195.5 180.772 184.6 189.472Z" fill="white"/>
<path d="M257.4 354.672C256.2 353.172 255.2 351.572 254.4 349.772C249.6 328.672 244.9 307.472 240.2 286.372C238.9 280.572 237.6 274.772 236.3 268.872C236.3 268.272 236.2 267.672 236 266.972C235.9 266.572 235.8 266.172 235.8 265.672C236.2 265.872 236.5 266.072 236.9 266.172C237.6 266.472 238.2 266.772 238.8 267.072L312.6 307.772C317.2 310.272 317.3 313.072 313 315.972L260.4 354.072L260 354.472L257.4 354.672Z" fill="white"/>
<path d="M248.7 243.472L238 249.472L240.8 251.172L289.5 278.472L316.1 293.672C318.7 295.072 321 294.872 322.1 292.972C322.7 291.672 323 290.272 322.9 288.872V210.972C322.9 205.272 320.2 203.772 315.2 206.472L248.7 243.472Z" fill="white"/>
</g>
<defs>
<linearGradient id="paint0_linear_1_7059" x1="467.5" y1="468.172" x2="67.5" y2="68.1719" gradientUnits="userSpaceOnUse">
<stop offset="0.1594" stop-color="#003CDA"/>
<stop offset="1" stop-color="#33DFCC"/>
</linearGradient>
<clipPath id="clip0_1_7059">
<rect width="500" height="500" fill="white" transform="translate(0 0.671875)"/>
</clipPath>
</defs>
</svg>
