<svg width="500" height="501" viewBox="0 0 500 501" fill="none" xmlns="http://www.w3.org/2000/svg">
<path d="M250.3 67.2723C247.6 148.572 247.7 236.072 250.3 317.972C252.6 236.172 252.7 148.672 250.3 67.2723ZM160 497.672L160.2 498.272C161 497.872 161.8 497.572 162.6 497.072C178.7 488.172 195.8 481.672 213.3 475.972C235.5 468.772 258.1 467.972 280.6 474.172C300.1 479.472 318.9 486.972 336.7 496.372C337.8 496.972 338.7 498.172 340.4 497.772C340.2 497.472 340 497.172 339.8 496.972C311.7 475.472 283.7 453.872 255.6 432.372C251.6 429.272 248.5 429.672 244.6 432.672C216.4 454.372 188.2 476.072 160 497.672ZM143.4 189.172C141.6 191.572 142.4 193.272 144.2 195.172C150.9 202.372 155 210.972 157.8 220.272C161.3 231.672 162.6 243.472 163.1 255.372C163.9 273.672 163.7 291.872 163.3 310.172C162.8 334.472 162.7 358.872 162.9 383.172C163.1 410.072 159.4 436.172 150.8 461.672C147.5 471.572 144.1 481.572 139.4 492.072C140.2 491.872 140.9 491.472 141.6 491.172C166.1 471.472 190.5 451.672 216 433.272C219.3 430.872 219.3 427.972 217.3 424.872C215.3 421.772 213.1 418.872 210.8 416.072C204 407.972 201.3 398.572 201.2 388.172C201 374.672 200.7 361.072 200.6 347.572C200 297.672 200.4 247.772 199.8 197.872C199 133.872 199 69.7723 198.7 5.77227V3.17227H197.8C195 28.5723 192.1 53.9723 187.2 79.0723C179.5 118.472 168.1 156.472 143.4 189.172ZM301 119.272C300.2 176.572 300.9 233.972 300 291.272C299.5 321.072 299.6 350.872 299.7 380.672C299.7 395.772 296.6 409.672 285.8 420.972C284.8 422.072 283.9 423.372 283.1 424.572C280.7 428.072 281.3 430.872 284.9 433.472C309.4 451.172 332.9 470.172 356.4 489.072C357.5 489.972 358.4 491.272 360.6 491.072C352.8 473.472 347.4 455.472 343 437.172C341.3 430.072 339.5 422.972 338.9 415.672C337.4 397.772 337.8 379.772 337.5 361.872C336.9 331.172 337.2 300.472 337.1 269.672C337 259.172 337.6 248.672 339 238.272C340.9 224.272 344.3 210.772 353 199.172C358.7 191.572 358.8 191.672 353.2 183.672C333.8 155.972 323.3 124.672 316.1 92.0723C309.6 62.6723 306.1 32.9723 303.1 3.07227H301.9C301.3 41.8723 301.5 80.5723 301 119.272Z" fill="black"/>
</svg>
