<svg width="500" height="501" viewBox="0 0 500 501" fill="none" xmlns="http://www.w3.org/2000/svg">
<path d="M370.6 371.272C370.6 371.272 316 307.572 297.8 286.272C295.7 283.872 295 280.572 295.7 277.572C296.3 275.872 297.5 274.072 298.6 272.772L307 263.472L400.2 371.272H370.6ZM313 371.272L245.4 292.372L242 288.072C238.8 284.372 238.9 278.672 242.2 275.072L368.3 128.172H399.5L272.7 273.172C269.4 276.772 269.3 282.472 272.5 286.172L345.7 371.272H313ZM234.2 255.372C208.1 285.572 134.8 371.272 134.8 371.272H102.2L202 255.672C205.2 251.972 205.2 246.472 202 242.872L103 128.272H134.3L233.9 243.872C236.5 247.272 236.9 252.172 234.2 255.372ZM233 320.972L223.3 332.272L189.8 371.372H159.5L223.6 296.772C223.6 296.772 230.7 305.272 233.2 308.072C236.4 311.772 236.3 317.372 233 320.972ZM189.4 128.272C189.4 128.272 243.1 192.472 262.5 212.372C265.6 215.472 265 219.572 262.2 222.872C251.9 234.972 251.6 235.172 251.6 235.172L159.3 128.172H189.4V128.272ZM269.9 178.572L279.6 167.272L313.1 128.172H343.4L279.3 202.772C279.3 202.772 272.2 194.272 269.7 191.472C266.5 187.772 266.6 182.172 269.9 178.572ZM249.5 2.07227C112.3 2.07227 1 113.272 1 250.572C1 387.772 112.3 499.072 249.5 499.072C386.7 499.072 498 387.772 498 250.572C498 113.272 386.7 2.07227 249.5 2.07227Z" fill="black"/>
</svg>
