<svg width="500" height="501" viewBox="0 0 500 501" fill="none" xmlns="http://www.w3.org/2000/svg">
<path d="M249.4 3.17188C113 3.17188 2.3999 113.772 2.3999 250.172C2.3999 386.572 113 497.172 249.4 497.172C385.8 497.172 496.4 386.572 496.4 250.172C496.4 113.772 385.8 3.17188 249.4 3.17188ZM249.4 479.172C197.3 479.172 149.4 461.772 110.9 432.572C111.8 421.972 116.2 401.072 134.2 373.572C160.8 333.072 200.5 312.372 264.5 312.372C328.5 312.372 371.7 335.772 374.9 344.172C378.1 352.472 363.4 359.672 363.4 359.672C363.4 359.672 375.7 359.272 392.4 348.972C409.1 338.672 396.4 321.972 396.4 321.972L351.9 277.072C351.9 277.072 352.3 274.272 346.3 257.172C340.3 240.072 322.9 203.172 283.2 177.372C244.2 152.072 216.5 148.772 148.6 147.172C94.7999 145.872 54.4999 154.072 39.9999 157.572C75.5999 77.2719 156 21.2719 249.4 21.2719C375.9 21.2719 478.4 123.772 478.4 250.272C478.4 376.772 375.9 479.172 249.4 479.172ZM275.6 215.872L323.3 263.972H296.7L274.2 216.872C273.8 215.972 274.9 215.172 275.6 215.872Z" fill="#3A3A3A"/>
</svg>
