<svg width="500" height="501" viewBox="0 0 500 501" fill="none" xmlns="http://www.w3.org/2000/svg">
<g clip-path="url(#clip0_1_7078)">
<path d="M60.5998 86.9002C63.6998 83.0002 66.9998 79.2002 70.2999 75.5002C70.3998 75.3002 70.7999 75.3002 70.8998 75.1002C71.1999 74.7002 71.6998 74.5002 71.9998 74.1002L72.2999 73.7002C74.5999 71.6002 76.9998 69.3002 79.8998 67.3002C89.7999 59.7002 100.2 54.0002 111.1 50.2002C146 37.9002 184.9 45.5002 215.4 74.3002C258 114.2 254.2 178.5 220.2 221.3C177.2 285 103.4 373.9 205.6 453.6C224 467.9 237.6 479.7 295.5 496.5C257.6 503.5 222.5 501.3 183.5 491.3C155.9 475.7 112.4 442.3 97.5998 397.2C75.1998 328.8 136.9 226.5 166.8 187.1C207.8 132.6 141.5 73.6002 92.6998 139.5C67.0998 173.7 22.5998 270.9 37.9998 343C47.0998 383.9 59.0998 413.7 107 454.6C98.0998 449.4 89.4998 443.4 81.0998 436.8C-30.1002 333 -17.1002 172.8 60.5998 86.9002Z" fill="url(#paint0_linear_1_7078)"/>
<path d="M439.4 414.1C436.3 418 433 421.8 429.7 425.5C429.6 425.7 429.2 425.7 429.1 425.9C428.8 426.3 428.3 426.5 428 426.9L427.7 427.3C425.4 429.4 423 431.7 420.1 433.7C410.2 441.3 399.8 447 388.9 450.8C354 463.1 315.1 455.5 284.6 426.7C242 386.8 245.8 322.5 279.8 279.7C322.8 216 396.6 127.1 294.3 47.4C275.9 33.1 262.3 21.3 204.4 4.50001C242.3 -2.49999 277.4 -0.299991 316.4 9.70001C344 25.3 387.5 58.7 402.3 103.8C424.7 172.2 363 274.5 333.2 313.9C292.2 368.4 358.5 427.4 407.3 361.5C432.8 327.2 477.4 230 461.9 157.9C452.8 117 440.8 87.2 392.9 46.3C401.8 51.5 410.4 57.5 418.8 64.1C530 167.9 517.1 328.2 439.4 414.1Z" fill="url(#paint1_linear_1_7078)"/>
</g>
<defs>
<linearGradient id="paint0_linear_1_7078" x1="-0.000149983" y1="272.517" x2="500.02" y2="272.517" gradientUnits="userSpaceOnUse">
<stop stop-color="#0082FA"/>
<stop offset="1" stop-color="#00F2FE"/>
</linearGradient>
<linearGradient id="paint1_linear_1_7078" x1="-0.00172875" y1="228.483" x2="500.018" y2="228.483" gradientUnits="userSpaceOnUse">
<stop stop-color="#0082FA"/>
<stop offset="1" stop-color="#00F2FE"/>
</linearGradient>
<clipPath id="clip0_1_7078">
<rect width="500" height="500" fill="white" transform="translate(0 0.5)"/>
</clipPath>
</defs>
</svg>
