<svg width="500" height="505" viewBox="0 0 500 505" fill="none" xmlns="http://www.w3.org/2000/svg">
<path d="M193.217 170.451C210.098 170.451 223.782 156.904 223.782 140.192C223.782 123.48 210.098 109.933 193.217 109.933C176.336 109.933 162.652 123.48 162.652 140.192C162.652 156.904 176.336 170.451 193.217 170.451Z" fill="#B2A3F6"/>
<path d="M280.531 135.879C297.412 135.879 311.096 122.332 311.096 105.62C311.096 88.9079 297.412 75.3604 280.531 75.3604C263.65 75.3604 249.966 88.9079 249.966 105.62C249.966 122.332 263.65 135.879 280.531 135.879Z" fill="#B2A3F6"/>
<path d="M315.477 343.348C332.358 343.348 346.042 329.8 346.042 313.088C346.042 296.377 332.358 282.829 315.477 282.829C298.597 282.829 284.912 296.377 284.912 313.088C284.912 329.8 298.597 343.348 315.477 343.348Z" fill="#B2A3F6"/>
<path d="M22.9356 300.115C32.5763 300.115 40.3916 292.376 40.3916 282.829C40.3916 273.282 32.5763 265.543 22.9356 265.543C13.2948 265.543 5.47949 273.282 5.47949 282.829C5.47949 292.376 13.2948 300.115 22.9356 300.115Z" fill="#B2A3F6"/>
<path d="M70.9567 412.526C78.1966 412.526 84.0657 406.718 84.0657 399.553C84.0657 392.388 78.1966 386.58 70.9567 386.58C63.7168 386.58 57.8477 392.388 57.8477 399.553C57.8477 406.718 63.7168 412.526 70.9567 412.526Z" fill="#B2A3F6"/>
<path d="M210.673 498.958C217.913 498.958 223.782 493.15 223.782 485.985C223.782 478.82 217.913 473.012 210.673 473.012C203.433 473.012 197.564 478.82 197.564 485.985C197.564 493.15 203.433 498.958 210.673 498.958Z" fill="#B2A3F6"/>
<path d="M437.737 421.152C444.977 421.152 450.846 415.344 450.846 408.179C450.846 401.014 444.977 395.206 437.737 395.206C430.498 395.206 424.628 401.014 424.628 408.179C424.628 415.344 430.498 421.152 437.737 421.152Z" fill="#B2A3F6"/>
<path d="M298.021 395.24C305.261 395.24 311.13 389.432 311.13 382.267C311.13 375.102 305.261 369.294 298.021 369.294C290.781 369.294 284.912 375.102 284.912 382.267C284.912 389.432 290.781 395.24 298.021 395.24Z" fill="#B2A3F6"/>
<path d="M376.608 334.722C383.848 334.722 389.717 328.913 389.717 321.749C389.717 314.584 383.848 308.775 376.608 308.775C369.368 308.775 363.499 314.584 363.499 321.749C363.499 328.913 369.368 334.722 376.608 334.722Z" fill="#B2A3F6"/>
<path d="M284.912 498.958C294.553 498.958 302.368 491.219 302.368 481.672C302.368 472.125 294.553 464.386 284.912 464.386C275.271 464.386 267.456 472.125 267.456 481.672C267.456 491.219 275.271 498.958 284.912 498.958Z" fill="#B2A3F6"/>
<path d="M363.498 282.829C373.139 282.829 380.954 275.09 380.954 265.543C380.954 255.996 373.139 248.257 363.498 248.257C353.857 248.257 346.042 255.996 346.042 265.543C346.042 275.09 353.857 282.829 363.498 282.829Z" fill="#B2A3F6"/>
<path d="M389.716 455.725C399.357 455.725 407.172 447.985 407.172 438.439C407.172 428.892 399.357 421.152 389.716 421.152C380.076 421.152 372.26 428.892 372.26 438.439C372.26 447.985 380.076 455.725 389.716 455.725Z" fill="#B2A3F6"/>
<path d="M44.7388 369.294C56.7991 369.294 66.5758 359.624 66.5758 347.695C66.5758 335.766 56.7991 326.096 44.7388 326.096C32.6786 326.096 22.9019 335.766 22.9019 347.695C22.9019 359.624 32.6786 369.294 44.7388 369.294Z" fill="#B2A3F6"/>
<path d="M254.347 455.725C271.228 455.725 284.912 442.177 284.912 425.465C284.912 408.754 271.228 395.206 254.347 395.206C237.467 395.206 223.782 408.754 223.782 425.465C223.782 442.177 237.467 455.725 254.347 455.725Z" fill="#B2A3F6"/>
<path d="M88.4128 308.776C105.293 308.776 118.978 295.228 118.978 278.516C118.978 261.804 105.293 248.257 88.4128 248.257C71.5321 248.257 57.8477 261.804 57.8477 278.516C57.8477 295.228 71.5321 308.776 88.4128 308.776Z" fill="#B2A3F6"/>
<path d="M254.347 377.92C266.407 377.92 276.184 368.25 276.184 356.321C276.184 344.392 266.407 334.722 254.347 334.722C242.287 334.722 232.51 344.392 232.51 356.321C232.51 368.25 242.287 377.92 254.347 377.92Z" fill="#B2A3F6"/>
<path d="M149.543 187.772C156.783 187.772 162.652 181.963 162.652 174.798C162.652 167.633 156.783 161.825 149.543 161.825C142.303 161.825 136.434 167.633 136.434 174.798C136.434 181.963 142.303 187.772 149.543 187.772Z" fill="#B2A3F6"/>
<path d="M232.51 239.63C246.971 239.63 258.694 228.013 258.694 213.684C258.694 199.354 246.971 187.737 232.51 187.737C218.049 187.737 206.326 199.354 206.326 213.684C206.326 228.013 218.049 239.63 232.51 239.63Z" fill="#B2A3F6"/>
<path d="M293.64 265.542C303.281 265.542 311.096 257.803 311.096 248.256C311.096 238.709 303.281 230.97 293.64 230.97C283.999 230.97 276.184 238.709 276.184 248.256C276.184 257.803 283.999 265.542 293.64 265.542Z" fill="#B2A3F6"/>
<path d="M324.205 49.4474C331.445 49.4474 337.314 43.6391 337.314 36.4742C337.314 29.3093 331.445 23.501 324.205 23.501C316.965 23.501 311.096 29.3093 311.096 36.4742C311.096 43.6391 316.965 49.4474 324.205 49.4474Z" fill="#B2A3F6"/>
<path d="M263.075 49.4136C275.135 49.4136 284.912 39.7432 284.912 27.8142C284.912 15.8852 275.135 6.21484 263.075 6.21484C251.015 6.21484 241.238 15.8852 241.238 27.8142C241.238 39.7432 251.015 49.4136 263.075 49.4136Z" fill="#B2A3F6"/>
<path d="M276.184 187.737C285.825 187.737 293.64 179.998 293.64 170.451C293.64 160.904 285.825 153.165 276.184 153.165C266.543 153.165 258.728 160.904 258.728 170.451C258.728 179.998 266.543 187.737 276.184 187.737Z" fill="#B2A3F6"/>
<path d="M110.25 377.954C124.711 377.954 136.434 366.338 136.434 352.008C136.434 337.678 124.711 326.062 110.25 326.062C95.7889 326.062 84.0659 337.678 84.0659 352.008C84.0659 366.338 95.7889 377.954 110.25 377.954Z" fill="#B2A3F6"/>
<path d="M363.498 403.866C377.959 403.866 389.682 392.25 389.682 377.92C389.682 363.59 377.959 351.974 363.498 351.974C349.037 351.974 337.314 363.59 337.314 377.92C337.314 392.25 349.037 403.866 363.498 403.866Z" fill="#B2A3F6"/>
<path d="M328.586 464.385C343.047 464.385 354.77 452.768 354.77 438.439C354.77 424.109 343.047 412.492 328.586 412.492C314.125 412.492 302.402 424.109 302.402 438.439C302.402 452.768 314.125 464.385 328.586 464.385Z" fill="#B2A3F6"/>
<path d="M123.359 464.385C140.239 464.385 153.924 450.837 153.924 434.126C153.924 417.414 140.239 403.866 123.359 403.866C106.478 403.866 92.7935 417.414 92.7935 434.126C92.7935 450.837 106.478 464.385 123.359 464.385Z" fill="#B2A3F6"/>
<path d="M31.6635 239.63C46.1245 239.63 57.8475 228.013 57.8475 213.684C57.8475 199.354 46.1245 187.737 31.6635 187.737C17.2025 187.737 5.47949 199.354 5.47949 213.684C5.47949 228.013 17.2025 239.63 31.6635 239.63Z" fill="#B2A3F6"/>
<path d="M162.652 282.829C181.952 282.829 197.598 267.35 197.598 248.256C197.598 229.162 181.952 213.684 162.652 213.684C143.351 213.684 127.706 229.162 127.706 248.256C127.706 267.35 143.351 282.829 162.652 282.829Z" fill="#FC4C04"/>
<path d="M346.042 230.969C365.342 230.969 380.988 215.491 380.988 196.397C380.988 177.303 365.342 161.824 346.042 161.824C326.742 161.824 311.096 177.303 311.096 196.397C311.096 215.491 326.742 230.969 346.042 230.969Z" fill="#FC4C04"/>
<path d="M442.085 377.953C456.546 377.953 468.269 366.337 468.269 352.007C468.269 337.677 456.546 326.061 442.085 326.061C427.623 326.061 415.9 337.677 415.9 352.007C415.9 366.337 427.623 377.953 442.085 377.953Z" fill="#FC4C04"/>
<path d="M468.302 274.202C482.764 274.202 494.487 262.586 494.487 248.256C494.487 233.926 482.764 222.31 468.302 222.31C453.841 222.31 442.118 233.926 442.118 248.256C442.118 262.586 453.841 274.202 468.302 274.202Z" fill="#FC4C04"/>
<path d="M367.879 153.165C379.94 153.165 389.716 143.494 389.716 131.565C389.716 119.636 379.94 109.966 367.879 109.966C355.819 109.966 346.042 119.636 346.042 131.565C346.042 143.494 355.819 153.165 367.879 153.165Z" fill="#FC4C04"/>
<path d="M372.227 84.0196C381.867 84.0196 389.683 76.2803 389.683 66.7334C389.683 57.1865 381.867 49.4473 372.227 49.4473C362.586 49.4473 354.771 57.1865 354.771 66.7334C354.771 76.2803 362.586 84.0196 372.227 84.0196Z" fill="#FC4C04"/>
<path d="M411.519 101.306C418.759 101.306 424.628 95.4975 424.628 88.3326C424.628 81.1677 418.759 75.3594 411.519 75.3594C404.279 75.3594 398.41 81.1677 398.41 88.3326C398.41 95.4975 404.279 101.306 411.519 101.306Z" fill="#FC4C04"/>
<path d="M481.412 205.058C488.652 205.058 494.521 199.249 494.521 192.085C494.521 184.92 488.652 179.111 481.412 179.111C474.172 179.111 468.303 184.92 468.303 192.085C468.303 199.249 474.172 205.058 481.412 205.058Z" fill="#FC4C04"/>
<path d="M105.869 92.6798C113.109 92.6798 118.978 86.8715 118.978 79.7066C118.978 72.5417 113.109 66.7334 105.869 66.7334C98.6289 66.7334 92.7598 72.5417 92.7598 79.7066C92.7598 86.8715 98.6289 92.6798 105.869 92.6798Z" fill="#FC4C04"/>
<path d="M88.4127 205.058C95.6527 205.058 101.522 199.249 101.522 192.085C101.522 184.92 95.6527 179.111 88.4127 179.111C81.1728 179.111 75.3037 184.92 75.3037 192.085C75.3037 199.249 81.1728 205.058 88.4127 205.058Z" fill="#FC4C04"/>
<path d="M123.359 222.344C130.598 222.344 136.468 216.536 136.468 209.371C136.468 202.206 130.598 196.397 123.359 196.397C116.119 196.397 110.25 202.206 110.25 209.371C110.25 216.536 116.119 222.344 123.359 222.344Z" fill="#FC4C04"/>
<path d="M166.999 58.0734C174.239 58.0734 180.108 52.2651 180.108 45.1002C180.108 37.9353 174.239 32.127 166.999 32.127C159.759 32.127 153.89 37.9353 153.89 45.1002C153.89 52.2651 159.759 58.0734 166.999 58.0734Z" fill="#FC4C04"/>
<path d="M481.412 317.435C488.652 317.435 494.521 311.626 494.521 304.461C494.521 297.297 488.652 291.488 481.412 291.488C474.172 291.488 468.303 297.297 468.303 304.461C468.303 311.626 474.172 317.435 481.412 317.435Z" fill="#FC4C04"/>
<path d="M437.737 179.112C454.618 179.112 468.303 165.564 468.303 148.852C468.303 132.14 454.618 118.593 437.737 118.593C420.857 118.593 407.172 132.14 407.172 148.852C407.172 165.564 420.857 179.112 437.737 179.112Z" fill="#FC4C04"/>
<path d="M411.52 248.256C423.58 248.256 433.357 238.586 433.357 226.657C433.357 214.728 423.58 205.058 411.52 205.058C399.459 205.058 389.683 214.728 389.683 226.657C389.683 238.586 399.459 248.256 411.52 248.256Z" fill="#FC4C04"/>
<path d="M114.63 153.165C126.691 153.165 136.467 143.494 136.467 131.565C136.467 119.636 126.691 109.966 114.63 109.966C102.57 109.966 92.7935 119.636 92.7935 131.565C92.7935 143.494 102.57 153.165 114.63 153.165Z" fill="#FC4C04"/>
<path d="M210.673 92.646C222.733 92.646 232.51 82.9756 232.51 71.0466C232.51 59.1176 222.733 49.4473 210.673 49.4473C198.613 49.4473 188.836 59.1176 188.836 71.0466C188.836 82.9756 198.613 92.646 210.673 92.646Z" fill="#FC4C04"/>
<path d="M153.924 101.306C163.565 101.306 171.38 93.5665 171.38 84.0196C171.38 74.4727 163.565 66.7334 153.924 66.7334C144.283 66.7334 136.468 74.4727 136.468 84.0196C136.468 93.5665 144.283 101.306 153.924 101.306Z" fill="#FC4C04"/>
<path d="M57.8477 170.451C67.4884 170.451 75.3037 162.712 75.3037 153.165C75.3037 143.618 67.4884 135.879 57.8477 135.879C48.207 135.879 40.3916 143.618 40.3916 153.165C40.3916 162.712 48.207 170.451 57.8477 170.451Z" fill="#FC4C04"/>
<path d="M424.628 308.775C434.269 308.775 442.085 301.035 442.085 291.488C442.085 281.941 434.269 274.202 424.628 274.202C414.988 274.202 407.172 281.941 407.172 291.488C407.172 301.035 414.988 308.775 424.628 308.775Z" fill="#FC4C04"/>
<path d="M236.891 317.435C253.771 317.435 267.456 303.887 267.456 287.175C267.456 270.464 253.771 256.916 236.891 256.916C220.01 256.916 206.326 270.464 206.326 287.175C206.326 303.887 220.01 317.435 236.891 317.435Z" fill="#FC4C04"/>
<path d="M180.108 334.721C189.749 334.721 197.564 326.982 197.564 317.435C197.564 307.888 189.749 300.148 180.108 300.148C170.467 300.148 162.652 307.888 162.652 317.435C162.652 326.982 170.467 334.721 180.108 334.721Z" fill="#FC4C04"/>
<path d="M188.836 403.866C203.297 403.866 215.02 392.25 215.02 377.92C215.02 363.59 203.297 351.974 188.836 351.974C174.375 351.974 162.652 363.59 162.652 377.92C162.652 392.25 174.375 403.866 188.836 403.866Z" fill="#FC4C04"/>
<path d="M188.836 455.725C198.477 455.725 206.292 447.985 206.292 438.439C206.292 428.892 198.477 421.152 188.836 421.152C179.195 421.152 171.38 428.892 171.38 438.439C171.38 447.985 179.195 455.725 188.836 455.725Z" fill="#FC4C04"/>
</svg>
