<svg width="500" height="501" viewBox="0 0 500 501" fill="none" xmlns="http://www.w3.org/2000/svg">
<g clip-path="url(#clip0_1_7135)">
<path d="M250 500.5C388.071 500.5 500 388.571 500 250.5C500 112.429 388.071 0.5 250 0.5C111.929 0.5 0 112.429 0 250.5C0 388.571 111.929 500.5 250 500.5Z" fill="#3A456B"/>
<path d="M223.1 182L250.9 154.8L278.5 182.9L317.9 183.3L317.5 222.6L345.1 250.7L317 278.3C316.8 293.8 329.2 306.5 344.7 306.7L433.7 307.6C465.2 206 408.3 98.2002 306.8 66.7002C228.5 42.4002 143.4 70.4002 94.8 136.4C81.3 154.7 94.6 180.7 117.4 180.9L223.1 182Z" fill="white"/>
<path d="M277.1 317.5L249 345L221.4 316.9L182 316.5L182.4 277.1L154.8 249L182.9 221.4C183.1 205.8 170.5 193 154.9 192.8L66.3998 191.9C59.4998 213.6 56.4998 236.4 57.5998 259.1C61.7998 356.3 139.5 436 236.5 442.6C303.1 447.3 367.4 417.1 406.3 362.8C415.2 350.1 412.2 332.6 399.6 323.7C394.9 320.4 389.4 318.6 383.7 318.6L277.1 317.5Z" fill="white"/>
<path d="M301.6 229.8L301.5 229.7L301.8 199.6L271.9 199.3H271.8L250.8 177.8L229.4 198.8L229.3 198.9L199.2 198.6L198.9 228.5V228.7L177.4 249.7L198.4 271.1L198.5 271.2L198.2 301.3L228.1 301.6H228.3L249.3 323.1L270.7 302.1L270.8 302L300.9 302.3L301.2 272.4V272.2L322.7 251.2L301.6 229.8Z" fill="#4DBD97"/>
<path opacity="0.46" d="M288.7 235L288.8 212.4L266.3 212.2H266.2L250.4 196.1L234.4 211.8L234.3 211.9L211.8 211.7L211.6 234.1V234.2L195.5 250L211.2 266L211.3 266.1L211.1 288.6L233.5 288.8H233.6L249.4 304.9L265.4 289.2L265.5 289.1L288 289.3L288.2 266.9V266.8L304.3 251L288.7 235Z" fill="url(#paint0_linear_1_7135)"/>
<path opacity="0.46" d="M291.7 251.2L300.6 230.4L280 221.5H279.9L271.6 200.5L250.7 208.8H250.6L229.9 199.9L221 220.5V220.6L200 228.9L208.3 249.8V249.9L199.4 270.6L220 279.5H220.1L228.4 300.5L249.3 292.2H249.4L270.1 301.1L279 280.5V280.4L300 272.1C300 272 291.7 251.2 291.7 251.2Z" fill="url(#paint1_linear_1_7135)"/>
<path opacity="0.46" d="M271.9 241.7L272 228.9L259.3 228.8L250.4 219.7L241.3 228.6L228.5 228.5L228.4 241.2V241.3L219.3 250.2L228.2 259.3L228.1 272.1L240.8 272.2H240.9L249.8 281.3L258.9 272.4L271.7 272.5L271.8 259.8V259.7L280.9 250.8C280.8 250.8 271.9 241.7 271.9 241.7Z" fill="url(#paint2_linear_1_7135)"/>
<path opacity="0.46" d="M273.6 250.9L278.6 239.1L266.9 234.1L262.2 222.2L250.4 226.9H250.3L238.6 221.8L233.6 233.5L221.7 238.2L226.4 250L221.3 261.7L233 266.7L237.7 278.6L249.5 273.9L261.2 279L266.2 267.3L278.1 262.6L273.6 250.9Z" fill="url(#paint3_linear_1_7135)"/>
</g>
<defs>
<linearGradient id="paint0_linear_1_7135" x1="195.761" y1="250.091" x2="304.663" y2="251.155" gradientUnits="userSpaceOnUse">
<stop stop-color="white"/>
<stop offset="1" stop-color="white" stop-opacity="0"/>
</linearGradient>
<linearGradient id="paint1_linear_1_7135" x1="207.713" y1="249.402" x2="337.047" y2="251.784" gradientUnits="userSpaceOnUse">
<stop stop-color="white"/>
<stop offset="1" stop-color="white" stop-opacity="0"/>
</linearGradient>
<linearGradient id="paint2_linear_1_7135" x1="219.351" y1="250.322" x2="281.072" y2="250.925" gradientUnits="userSpaceOnUse">
<stop stop-color="white"/>
<stop offset="1" stop-color="white" stop-opacity="0"/>
</linearGradient>
<linearGradient id="paint3_linear_1_7135" x1="225.642" y1="249.734" x2="298.949" y2="251.077" gradientUnits="userSpaceOnUse">
<stop stop-color="white"/>
<stop offset="1" stop-color="white" stop-opacity="0"/>
</linearGradient>
<clipPath id="clip0_1_7135">
<rect width="500" height="500" fill="white" transform="translate(0 0.5)"/>
</clipPath>
</defs>
</svg>
