<svg width="500" height="501" viewBox="0 0 500 501" fill="none" xmlns="http://www.w3.org/2000/svg">
<path d="M250 6.25293L38.4688 128.377V372.624L250 494.747L461.531 372.623V128.376L250 6.25293ZM254.325 401.862L91.9637 309.259L92.6217 264.226L254.231 356.735L332.168 311.797L279.896 281.619L260.341 292.901L223.676 271.842L243.325 260.466L217.659 245.612L202.147 254.637L165.388 233.578L180.994 224.553L98.1677 176.7L254.231 86.6349L401.456 170.589L361.97 193.528L254.23 131.761L176.293 176.699L219.915 201.895L242.196 188.921L278.955 209.98L256.486 222.954L282.152 237.808L300.391 227.184L337.15 248.243L318.723 258.961L410.104 311.703L254.325 401.862Z" fill="black"/>
</svg>
