<svg width="500" height="501" viewBox="0 0 500 501" fill="none" xmlns="http://www.w3.org/2000/svg">
<path d="M362.853 428.019C361.421 412.229 376.757 401.246 389.597 401.612C405.725 402.073 417.106 413.13 417.055 427.662C417.003 442.664 405.014 453.173 389.496 453.614C376.69 453.977 361.681 442.716 362.853 428.019ZM340.836 38.1044C333.53 43.6544 329.784 54.3574 331.657 62.8184C335.773 81.4114 358.29 90.3164 375.126 78.4834C383.043 72.9194 387.179 64.8444 385.875 55.2474C383.927 40.9154 372.991 32.2734 358.339 32.3264C351.503 32.3504 346.033 34.1564 340.836 38.1044ZM18.5065 248.917C11.2035 255.071 8.14047 263.073 9.80947 272.792C12.4395 288.107 27.9085 298.062 45.6115 292.724C60.5155 288.23 69.4455 271.07 60.5515 255.981C55.2765 247.033 47.2365 242.57 36.0715 242.809C29.7735 242.182 23.6195 244.608 18.5065 248.917ZM307.34 445.942C307.327 431.791 296.192 424.143 284.141 423.727C271.493 423.291 260.735 434.184 260.647 445.96C260.558 457.92 271.322 468.063 284.106 468.065C296.935 468.067 307.352 458.192 307.34 445.942ZM404.695 135.68C404.759 147.556 416.093 158.102 428.253 157.85C440.999 157.586 451.521 147.35 451.393 135.34C451.263 123.192 440.686 113.317 427.868 113.376C417.597 112.826 404.62 121.74 404.695 135.68ZM95.5765 249.61C108.008 250.505 120.277 238.88 119.613 226.912C118.898 214.02 108.855 205.933 96.5995 205.206C83.4925 204.429 71.7605 216.735 73.0855 226.848C72.0215 237.452 80.0065 248.489 95.5765 249.61ZM96.0985 172.24C95.6105 160.458 86.0555 150.433 72.1435 150.679C59.5915 150.901 49.2835 160.922 49.5745 172.467C49.8995 185.395 59.1505 194.437 72.7725 194.387C85.9055 194.34 96.6125 184.653 96.0985 172.24ZM366.987 149.369C379.375 149.153 390.317 139.039 389.874 127.471C389.375 114.435 378.701 105.447 366.221 105.556C351.443 105.685 342.23 117.49 343.314 127.795C343.403 140.194 353.724 149.6 366.987 149.369ZM299.23 399.364C299.202 409.889 304.222 416.589 315.542 420.504C324.594 423.635 336.65 419.351 341.778 411.601C346.477 404.5 346.962 396.915 343.253 389.475C339.125 381.193 331.776 377.679 321.883 377.622C310.468 376.713 299.267 385.342 299.23 399.364ZM173.05 441.938C173.013 452.146 181.989 460.844 192.83 460.812C204.12 460.779 212.712 453.683 213.105 441.563C213.435 431.372 203.656 423.032 192.889 423.103C181.998 423.175 173.088 431.634 173.05 441.938ZM379.008 186.173C378.871 175.7 369.208 167.054 358.019 167.393C347.226 167.719 338.404 176.621 338.805 186.78C339.218 197.237 348.145 205.329 359.094 205.171C369.7 205.018 379.137 196.015 379.008 186.173ZM102.075 100.125C102.209 110.446 111.39 118.911 122.213 118.693C132.939 118.477 141.866 109.59 141.684 99.3104C141.5 88.9824 132.496 80.8134 121.442 80.9464C110.506 81.0784 101.938 89.5634 102.075 100.125ZM154.138 223.093C164.804 222.668 173.931 213.635 173.806 203.627C173.682 193.613 164.271 185.277 153.215 185.387C141.687 185.501 133.951 193.254 134.114 204.528C134.267 215.01 143.444 223.519 154.138 223.093ZM423.833 212.599C436.664 211.47 445.407 196.455 437.484 184.427C433.174 177.885 426.823 175.732 419.899 175.501C409.344 175.149 401.447 183.761 400.786 194.046C400.223 202.812 407.942 213.082 419.356 212.881C420.848 212.789 422.344 212.73 423.833 212.599ZM253.744 409.867C253.174 399.882 244.852 391.349 234.578 391.066C224.031 390.775 213.511 400.528 214.095 410.634C214.712 421.319 223.606 429.565 234.521 428.81C245.022 429.435 254.352 420.525 253.744 409.867ZM489.571 212.399C489.093 201.796 481.083 192.836 470.096 193.328C458.44 193.85 450.48 201.118 450.019 212.151C449.615 221.837 458.333 231.327 469.826 230.776C481.846 231.435 489.983 221.513 489.571 212.399ZM252.904 364.165C253.413 374.381 261.509 382.492 272.066 382.654C282.842 382.82 293.345 373.205 292.578 363.254C291.766 352.721 283.336 344.549 272.066 345.212C261.469 344.659 252.372 353.492 252.904 364.165ZM134.956 167.38C144.165 165.689 151.459 156.275 150.147 147.252C148.038 132.753 130.026 125.567 118.171 134.265C111.485 139.17 108.763 147.891 111.456 155.777C113.967 163.13 121.446 167.814 131.294 167.697C131.991 167.641 133.499 167.648 134.956 167.38ZM141.735 403.137C141.608 412.164 149.505 419.492 159.327 419.463C168.365 419.436 176.01 411.879 175.876 403.105C175.742 394.385 168.015 387.18 158.798 387.182C149.567 387.184 141.858 394.392 141.735 403.137ZM340.702 217.559C331.839 217.515 323.43 225.88 323.522 233.435C323.632 242.419 331.638 250.256 340.986 250.024C349.99 249.801 357.667 242.243 357.675 233.594C357.721 225.26 349.227 217.601 340.702 217.559ZM183.01 124.25C174.154 124.466 166.251 130.251 165.369 140.031C164.597 148.597 172.57 156.189 181.988 156.559C191.213 156.921 199.086 149.823 199.309 140.944C200.445 132.319 191.131 124.051 183.01 124.25ZM419.13 241.774C418.462 232.689 411.73 225.566 402.333 225.383C393.923 225.219 385.25 233.485 385.116 241.791C384.98 250.258 392.948 257.525 402.371 257.529C410.712 258.653 419.765 250.423 419.13 241.774ZM222.76 195.267C222.773 185.757 216.134 179.516 206.038 179.546C196.778 179.574 188.679 186.937 188.686 195.32C188.693 203.763 196.68 210.978 206.003 210.962C216.116 210.945 222.747 204.735 222.76 195.267ZM217.186 371.708C217.183 363.158 209.321 356.005 199.939 356.018C189.74 356.032 183.15 362.15 183.106 371.645C183.064 380.728 190.115 387.304 199.959 387.365C209.306 387.422 217.189 380.258 217.186 371.708ZM221.029 325.138C221.099 333.725 228.875 340.671 238.42 340.671C248.541 340.671 255.161 334.431 255.129 324.921C255.098 315.814 248.029 309.357 238.12 309.384C228.723 309.411 220.96 316.566 221.029 325.138ZM468.943 260.187C468.42 250.243 461.781 243.632 451.423 243.471C443.878 243.353 434.533 249.709 435.116 260.114C435.628 269.244 442.369 275.611 452.345 275.518C461.352 275.434 469.38 268.5 468.943 260.187ZM157.561 91.4534C157.78 100.826 164.736 106.873 174.935 106.556C184.487 106.259 190.764 99.9584 190.71 90.7204C190.654 81.1874 183.915 74.9864 173.788 75.1494C163.854 75.3084 157.337 81.8574 157.561 91.4534ZM330.615 269.743C330.826 262.151 324.578 255.998 316.344 255.691C308.563 255.4 301.94 261.596 301.851 269.249C301.752 277.78 306.86 282.799 315.78 282.936C324.074 283.062 330.4 277.436 330.615 269.743ZM265.825 197.555C265.699 189.806 259.294 183.635 251.358 183.619C243.381 183.602 236.966 189.696 236.946 197.309C236.924 205.854 242.063 210.798 251.01 210.84C259.224 210.877 265.943 204.853 265.825 197.555ZM152.52 364.688C152.3 356.913 145.744 350.917 137.789 351.214C130.014 351.504 123.555 358.092 123.695 365.591C123.826 372.662 131.058 379.1 138.797 379.037C146.827 378.972 152.749 372.78 152.52 364.688ZM203.025 286.509C202.732 294.028 209.299 300.457 217.441 300.621C225.246 300.778 231.596 295.133 231.868 287.795C232.186 279.217 226.886 273.6 218.324 273.44C209.904 273.283 203.321 278.907 203.025 286.509ZM363.21 277.657C363.09 285.305 369.626 291.476 377.736 291.609C385.81 291.742 392.52 284.376 392.098 277.553C391.629 269.975 386.233 264.485 378.139 264.373C369.732 264.257 363.331 269.952 363.21 277.657ZM213.416 142.612C213.743 150.059 219.358 156.213 226.92 156.502C234.755 156.802 242.047 150.601 242.38 143.356C242.728 135.76 236.307 129.444 228.154 129.362C221 128.483 213.063 134.564 213.416 142.612ZM233.571 93.7574C233.782 85.7534 227.659 79.2774 219.813 79.2064C211.607 79.1314 204.848 85.1584 204.725 92.6584C204.598 100.374 210.933 106.414 219.167 106.43C227.365 106.447 233.376 101.158 233.571 93.7574ZM165.1 333.102C164.98 341.332 171.5 347.518 180.128 347.357C187.657 347.217 193.882 341.02 193.887 333.66C193.893 325.868 187.665 320.148 179.232 320.2C171.135 320.251 165.209 325.661 165.1 333.102ZM413.172 296.166C413.339 303.447 419.625 309.5 427.105 309.583C434.839 309.669 441.614 303.291 441.847 295.704C442.078 288.176 435.529 282.232 427.083 282.304C418.25 282.38 412.977 287.634 413.172 296.166ZM399.236 309.537C392.845 309.629 386.787 315.405 386.899 321.3C387.007 327.007 393.396 332.847 399.651 332.956C406.721 333.079 411.923 327.708 411.801 320.411C411.692 313.825 406.615 309.431 399.236 309.537ZM220.877 251.891C221.177 245.651 214.653 239.365 208.065 239.548C201.794 239.722 195.684 245.697 195.79 251.551C195.907 258.047 201.225 262.973 208.206 263.051C215.299 263.132 220.559 258.498 220.877 251.891ZM275.365 207.959C275.395 213.824 282.078 219.644 288.164 219.462C294.797 219.263 299.75 213.98 300.319 207.586C300.834 201.809 294.721 195.147 288.349 196.085C280.158 195.28 275.34 202.9 275.365 207.959ZM268.733 103.695C269.05 97.4124 263.632 91.8774 256.973 91.6814C249.403 91.4584 244.438 95.5334 244.154 102.203C243.84 109.563 248.77 114.939 255.942 115.058C262.463 115.167 268.421 109.873 268.733 103.695ZM276.755 152.753C276.767 146.537 270.935 140.632 264.829 140.677C258.381 140.724 252.091 146.257 251.85 152.095C251.567 158.925 257.056 164.051 264.651 164.05C271.99 164.049 276.742 159.613 276.755 152.753ZM157.898 298.11C157.917 305.168 163.284 309.73 170.803 309.865C176.582 309.969 182.844 303.782 182.727 297.638C182.615 291.746 176.109 286.228 169.809 286.296C162.938 286.37 157.879 291.387 157.898 298.11ZM116.421 329.753C116.05 334.749 121.922 341.356 128.654 341.877C135.004 342.368 141.667 335.848 141.559 329.561C141.448 323.13 136.116 318.47 128.903 318.498C121.67 318.526 116.912 323.128 116.421 329.753ZM362.816 303.59C363.203 297.627 357.369 291.763 350.867 291.579C343.142 291.36 337.937 296.012 337.941 303.131C337.945 309.776 343.112 314.885 349.907 314.963C356.221 315.034 362.428 309.565 362.816 303.59ZM288.759 283.017C282.95 282.239 276.981 287.872 276.506 293.671C275.916 300.858 280.18 305.863 287.239 306.27C294.715 306.701 299.892 302.666 300.393 296.018C300.915 287.714 296.457 284.049 288.759 283.017ZM293.498 158.08C287.592 157.936 282.558 162.064 282.305 167.258C282.041 172.687 287.538 178.101 293.216 178.003C298.78 177.907 303.701 173.211 303.737 167.963C303.779 162.045 299.83 158.234 293.498 158.08ZM371.945 347.244C376.944 347.235 382.299 342.068 382.556 337.004C382.81 331.993 377.727 327.345 371.904 327.264C365.307 327.172 361.472 330.531 361.333 336.522C361.196 342.412 365.989 347.255 371.945 347.244ZM284.844 107.994C278.552 107.997 273.745 112.705 274.109 118.509C274.468 124.235 278.781 127.907 285.031 127.808C291.452 127.707 295.161 124.061 295.062 117.946C294.967 112 290.852 107.992 284.844 107.994ZM169.89 257.383C163.414 257.21 158.611 261.552 158.755 267.449C158.889 272.919 163.553 277.18 169.446 277.215C175.545 277.252 179.59 273.401 179.736 267.42C179.885 261.261 176.248 257.553 169.89 257.383ZM311.244 319.514C311.461 324.499 316.949 329.452 322.181 329.318C327.361 329.186 333.069 323.915 332.689 319.228C332.198 313.182 328.889 309.517 322.482 309.392C316.312 309.272 311.007 314.05 311.244 319.514ZM118.089 298.866C118.107 304.268 122.828 309.183 128.133 309.324C133.467 309.465 139.48 303.63 139.234 298.55C138.993 293.566 133.524 288.669 128.226 288.693C122.605 288.718 118.071 293.269 118.089 298.866ZM336.209 345.169C336.125 349.353 340.393 353.962 344.845 353.929C350.141 353.89 354.635 349.181 354.284 345.045C353.863 340.082 350.897 336.75 345.761 336.654C340.317 336.553 336.311 340.124 336.209 345.169ZM125.37 273.078C125.379 277.895 129.681 282.16 134.414 282.043C138.978 281.931 143.7 277.044 143.373 272.771C143.006 267.98 138.722 264.424 133.56 264.628C128.555 264.826 125.361 268.122 125.37 273.078ZM314.538 135.997C314.683 130.869 310.938 127.421 305.266 127.459C299.949 127.495 296.622 130.562 296.525 135.519C296.419 140.915 299.835 144.065 305.7 143.979C311.037 143.899 314.4 140.863 314.538 135.997Z" fill="black"/>
</svg>
