<svg width="500" height="501" viewBox="0 0 500 501" fill="none" xmlns="http://www.w3.org/2000/svg">
<path d="M299.359 129.591L200.641 74.5517L299.359 19.5117V129.591Z" fill="#32DFC5"/>
<path d="M188.726 174.524L90.0088 119.485L188.726 64.4463V174.524Z" fill="#67E9D1"/>
<path d="M173.096 278.178L74.3789 223.138L173.096 168.099V278.178Z" fill="#0BDBB5"/>
<path d="M101.924 376.072L3.20703 321.033L101.924 265.994V376.072Z" fill="#72EBD6"/>
<path d="M279.615 452.578L180.898 397.539L279.615 342.5V452.578Z" fill="#99EFE9"/>
<path d="M496.793 349.748L398.076 294.708L496.793 239.669V349.748Z" fill="#1DD7D6"/>
<path d="M496.793 239.669L398.076 184.63L496.793 129.591V239.669Z" fill="#00D4CD"/>
<path d="M398.076 184.63L299.359 129.591L398.076 74.5518V184.63Z" fill="#00D6C2"/>
<path d="M299.359 349.748L200.641 294.708L299.359 239.669V349.748Z" fill="#67E7DC"/>
<path d="M287.443 232.487L188.726 177.447L287.443 122.408V232.487Z" fill="#6AE6D9"/>
<path d="M52.5654 124.978L151.283 180.018L52.5654 235.057V124.978Z" fill="#99F1DD"/>
<path d="M101.924 238.435L200.641 293.475L101.924 348.514V238.435Z" fill="#99F1DD"/>
<path d="M188.726 108.947L287.443 163.986L188.726 219.025V108.947Z" fill="#0BDABB"/>
<path d="M167.337 321.033L266.055 376.072L167.337 431.112V321.033Z" fill="#1BDAC7"/>
<path d="M301.428 370.392L400.146 425.431L301.428 480.47V370.392Z" fill="#4DE3DE"/>
<path d="M398.076 294.708L496.793 349.748L398.076 404.787V294.708Z" fill="#00D3D3"/>
<path d="M398.076 184.63L496.793 239.669L398.076 294.708V184.63Z" fill="#34DED6"/>
<path d="M398.076 74.5518L496.793 129.591L398.076 184.63V74.5518Z" fill="#19DACD"/>
<path d="M299.359 129.591L398.076 184.63L299.359 239.669V129.591Z" fill="#34DFD0"/>
<path d="M299.359 19.5117L398.076 74.5517L299.359 129.591V19.5117Z" fill="#00D7BC"/>
<path d="M299.359 239.669L398.076 294.709L299.359 349.748V239.669Z" fill="#34DFD3"/>
<path d="M398.076 294.709L299.359 239.669L398.076 184.63V294.709Z" fill="#0DD8CB"/>
<path d="M398.076 404.787L299.359 349.748L398.076 294.708V404.787Z" fill="#4BE2DC"/>
</svg>
