<svg width="500" height="501" viewBox="0 0 500 501" fill="none" xmlns="http://www.w3.org/2000/svg">
<path d="M468.2 295.9C468.2 305.5 466.4 314.8 463.2 323.3C452.1 352.4 424 373 391 373C357.3 373 328.6 351.4 318.1 321.3C255.8 325.8 220.1 298 205.3 244.9C167.9 234.7 140.3 200.6 140.3 159.9C140.3 133.6 151.8 110.1 170.1 93.8998C185.6 80.1998 206.1 71.7998 228.5 71.7998C254.2 71.7998 277.3 82.6998 293.4 100.2C304.2 93.0998 317.2 88.9998 331 88.9998C340.7 88.9998 349.9 90.9998 358.3 94.5998C382.5 105 399.6 129 399.9 156.9C399.9 157.2 399.9 157.5 399.9 157.9V159.1C403.4 158.3 407.1 157.9 410.8 157.9C427.6 157.9 442.5 165.9 451.9 178.4C458.4 187 462.3 197.8 462.3 209.4C462.3 221.5 458.1 233.2 450.3 242.4C449.7 243.1 449.1 243.8 448.5 244.5C460.8 258.2 468.2 276.2 468.2 295.9Z" fill="#FF5CAA"/>
<path d="M392.9 301.6C343 301.6 302.5 261.1 302.5 211.3C302.5 188.6 311 166.9 326.4 150.1C328.4 148 331.7 147.8 333.8 149.8C335.9 151.8 336.1 155.1 334.1 157.2C320.5 172 313 191.2 313 211.3C313 255.3 348.9 291.1 393 291.1C398.7 291.1 404.4 290.5 410 289.3C412.9 288.7 415.6 290.5 416.2 293.3C416.8 296.1 415 298.9 412.2 299.5C405.7 300.9 399.3 301.6 392.9 301.6ZM283.9 186.5C250.2 186.5 221.9 160.2 219.6 126.6C219.4 123.7 221.6 121.2 224.5 121C227.5 120.8 229.9 123 230.1 125.9C232.1 154 255.7 176 284 176C286.9 176 289.2 178.3 289.2 181.2C289.2 184.1 286.8 186.5 283.9 186.5ZM378.1 175.1C376.6 175.1 375.1 174.5 374.1 173.2C372.3 171 372.6 167.7 374.8 165.8C381.8 160 390.1 156 399 154.1C401.9 153.4 404.6 155.3 405.2 158.1C405.8 160.9 404 163.7 401.2 164.3C394 165.8 387.2 169.1 381.6 173.8C380.4 174.7 379.3 175.1 378.1 175.1ZM269.8 131.5C269 131.5 268.2 131.3 267.4 130.9C264.8 129.6 263.8 126.4 265.2 123.8C271.1 112.5 279.8 102.9 290.5 95.9C292.9 94.3 296.2 95 297.8 97.4C299.4 99.8 298.7 103.1 296.3 104.7C287.1 110.7 279.6 119 274.5 128.7C273.5 130.4 271.7 131.5 269.8 131.5Z" fill="#103849"/>
<path d="M391 377.6C357.4 377.6 327.3 357 315 326C255.7 329.2 217.8 303.1 201.6 248.6C162.7 236.9 135.8 200.8 135.8 159.9C135.8 108.8 177.4 67.2998 228.6 67.2998C253.2 67.2998 276.9 77.1998 294.2 94.4998C305.3 87.9998 318 84.4998 331 84.4998C370.1 84.4998 402.2 115.2 404.4 153.8C406.5 153.6 408.7 153.4 410.9 153.4C441.8 153.4 467 178.6 467 209.5C467 222.4 462.6 234.7 454.6 244.6C466.3 259.1 472.7 277.1 472.7 295.9C472.8 340.9 436.1 377.6 391 377.6ZM318.1 316.6C320 316.6 321.8 317.8 322.4 319.7C332.5 348.8 360.1 368.4 391 368.4C431 368.4 463.6 335.9 463.6 295.9C463.6 278 457 260.9 445.2 247.6C443.6 245.8 443.6 243.1 445.3 241.4C453.4 232.7 457.9 221.3 457.9 209.4C457.9 183.5 436.8 162.5 410.9 162.5C407.5 162.5 404.2 162.9 400.9 163.6C399.5 163.9 398.1 163.6 397 162.7C395.9 161.8 395.3 160.5 395.3 159.1V157.9C395.3 122.5 366.4 93.5998 330.9 93.5998C318.3 93.5998 306.2 97.1998 295.8 104C293.9 105.2 291.4 104.9 289.9 103.3C274.1 86.1998 251.7 76.3998 228.4 76.3998C182.3 76.3998 144.8 113.8 144.8 159.9C144.8 197.5 170.1 230.6 206.4 240.4C208 240.8 209.2 242 209.6 243.6C224.5 296.9 259.8 320.8 317.7 316.6C317.9 316.6 318 316.6 318.1 316.6Z" fill="#103849"/>
<path d="M448.6 244.6C448.6 244.6 442.6 238.4 434.4 231.9L448.6 244.6ZM218.4 384.3C215 377.3 212.9 369.7 212 361.9L218.4 384.3Z" fill="black"/>
<path d="M218.5 389.6C216.5 389.6 214.7 388.5 213.8 386.6C210.2 379 207.8 370.9 206.9 362.5C206.6 359.6 208.7 357 211.5 356.7C214.4 356.4 217 358.5 217.3 361.3C218.1 368.5 220.1 375.4 223.2 382C224.5 384.6 223.3 387.7 220.7 389C220 389.4 219.2 389.6 218.5 389.6ZM448.6 249.8C447.2 249.8 445.9 249.3 444.8 248.2C444.7 248.1 438.9 242.2 431.1 236C428.8 234.2 428.4 230.9 430.2 228.6C432 226.3 435.3 225.9 437.6 227.7C446 234.3 452 240.6 452.3 240.8C454.3 242.9 454.3 246.2 452.2 248.2C451.2 249.3 449.9 249.8 448.6 249.8Z" fill="#103849"/>
<path d="M369.8 330.7C372.5 338.3 373.9 346.2 373.9 354.3C373.9 395.6 337.6 429.1 292.8 429.1C259.6 429.1 231 410.7 218.5 384.3C208.2 391.3 195.8 395.4 182.5 395.4C152.7 395.4 127.5 374.9 119.6 346.9C114 348.3 108.2 349 102.4 349C63.3998 349 31.7998 317.5 31.7998 278.5C31.7998 248.6 50.3998 223.1 76.7998 212.8C75.7998 208.5 75.1998 204.1 75.1998 199.5C75.1998 164.2 108 135.6 148.6 135.6C171.9 135.6 192.6 145 206 159.8C216.8 154 229.2 150.7 242.4 150.7C283.5 150.7 316.7 182.5 316.7 221.7C316.7 222.6 316.7 223.5 316.6 224.5C350.5 230.7 376.2 261.8 376.2 299.2C376.3 310.5 374 321.2 369.8 330.7Z" fill="#FF5CAA"/>
<path d="M119.6 352.2C117.3 352.2 115.2 350.7 114.6 348.4C112.8 341.9 111.8 335.1 111.8 328.3C111.8 300.5 126.9 275.6 151.3 263.3C153.9 262 157 263 158.3 265.6C159.6 268.2 158.6 271.3 156 272.6C135.2 283.1 122.3 304.4 122.3 328.3C122.3 334.2 123.1 340 124.7 345.6C125.5 348.4 123.9 351.3 121.1 352.1C120.5 352.1 120 352.2 119.6 352.2ZM369.8 336C367.7 336 365.6 334.7 364.9 332.5C360.3 319.8 351.8 308.6 340.4 300.1C338.1 298.4 337.6 295.1 339.3 292.8C341 290.5 344.3 290 346.6 291.7C359.7 301.4 369.5 314.3 374.7 329C375.7 331.7 374.3 334.7 371.5 335.7C371 335.9 370.4 336 369.8 336ZM76.8004 218.2C74.7004 218.2 72.7003 216.9 71.9003 214.9C70.8003 212.2 72.2003 209.2 74.9003 208.1C81.2003 205.6 87.8003 204 94.7003 203.3C97.6003 203 100.2 205.1 100.5 208C100.8 210.9 98.7003 213.5 95.8004 213.8C89.9004 214.4 84.2004 215.8 78.8004 217.9C78.0004 218 77.4004 218.2 76.8004 218.2ZM182.5 185C181.4 185 180.3 184.6 179.3 183.9C177 182.1 176.6 178.8 178.4 176.5C185.1 167.9 193.8 160.5 203.5 155.3C206.1 153.9 209.2 154.9 210.6 157.4C212 159.9 211 163.1 208.5 164.5C200 169.1 192.5 175.4 186.7 182.9C185.6 184.3 184.1 185 182.5 185Z" fill="#103849"/>
<path d="M292.8 433.7C260.6 433.7 231.3 417 216.7 390.9C206.3 396.9 194.5 400.1 182.5 400.1C152.9 400.1 126.3 380.7 116.5 352.4C111.9 353.3 107.2 353.7 102.5 353.7H102.4C60.9998 353.7 27.2998 320 27.2998 278.7C27.2998 248.8 44.5998 222.4 71.5998 210.3C70.9998 206.8 70.6998 203.3 70.6998 199.8C70.6998 162 105.7 131.3 148.6 131.3C171.1 131.3 192.2 139.7 207 154.4C218 149.1 230.2 146.4 242.5 146.4C285.7 146.4 320.9 179.8 321.4 221C356.2 229.3 381 261.6 381 299.4C381 310.4 378.9 321.1 374.8 331.1C377.3 338.7 378.6 346.5 378.6 354.5C378.5 398.1 340 433.7 292.8 433.7ZM218.5 379.8C218.9 379.8 219.3 379.9 219.7 380C221 380.3 222.1 381.2 222.6 382.5C234.8 408.1 262.3 424.7 292.8 424.7C335 424.7 369.4 393.2 369.4 354.5C369.4 347 368.1 339.6 365.6 332.5C365.2 331.4 365.2 330.2 365.7 329.1C369.8 319.8 371.8 309.8 371.8 299.4C371.8 264.7 348.3 235.2 315.9 229.2C313.6 228.8 312 226.7 312.2 224.4C312.2 223.6 312.3 222.8 312.3 222C312.3 185.3 281 155.5 242.6 155.5C230.6 155.5 218.8 158.5 208.3 164C206.5 165 204.2 164.6 202.7 163C189.6 148.6 169.9 140.3 148.6 140.3C110.7 140.3 79.7998 166.9 79.7998 199.6C79.7998 203.7 80.2998 207.8 81.2998 211.8C81.7998 214 80.5998 216.3 78.4998 217.2C52.9998 227.1 36.4998 251.2 36.4998 278.6C36.4998 314.9 66.0998 344.5 102.5 344.5C107.5 344.2 113.3 343.8 118.6 342.5C121 341.9 123.5 343.3 124.1 345.7C131.6 372.3 155.6 390.9 182.6 390.9C194.5 390.9 206.1 387.3 216 380.6C216.6 380 217.5 379.8 218.5 379.8Z" fill="#103849"/>
<path d="M268.2 340.1C234.4 340.1 206.8 312.6 206.8 278.8C206.8 264.7 211.7 250.9 220.6 240C222.4 237.8 225.7 237.4 228 239.3C230.2 241.1 230.6 244.4 228.7 246.7C221.3 255.7 217.2 267.1 217.2 278.8C217.2 306.8 240 329.6 268.1 329.6C283.6 329.6 298.1 322.6 307.9 310.5C309.7 308.2 313 307.9 315.3 309.7C317.6 311.5 317.9 314.8 316.1 317.1C304.4 331.7 286.9 340.1 268.2 340.1ZM253.3 250.9C252 250.9 250.7 250.4 249.7 249.5C247.6 247.5 247.5 244.2 249.5 242.1C267.3 223.4 293.1 215 317.7 219.5C320.6 220 322.4 222.7 321.9 225.6C321.4 228.5 318.6 230.4 315.8 229.8C294.7 226 272.5 233.2 257.1 249.3C256 250.4 254.6 250.9 253.3 250.9Z" fill="#103849"/>
<path d="M293 362.5C293 351.5 290.2 341.1 285.3 332.1L293 362.5ZM175.7 326.8C185 313.1 199.4 303.2 216.1 299.8L175.7 326.8ZM75.7002 278.6C82.8002 275.8 90.4002 274.3 98.0002 274.3C110.3 274.3 122.2 278 132.3 285M191 227C187.2 228.1 183.1 228.7 179 228.7C167.9 228.7 157.2 224.4 149.3 216.6M375.2 224.3C381.1 219.9 388.2 217.6 395.5 217.6C397.5 217.6 399.6 217.8 401.6 218.1" fill="black"/>
<path d="M293 367.8C290.1 367.8 287.8 365.5 287.8 362.6C287.8 352.8 285.4 343.2 280.7 334.7C279.3 332.2 280.3 329 282.8 327.6C285.3 326.2 288.5 327.1 289.9 329.7C295.3 339.7 298.2 351.1 298.2 362.6C298.2 365.4 295.9 367.8 293 367.8ZM175.7 332C174.7 332 173.7 331.7 172.8 331.1C170.4 329.5 169.8 326.2 171.4 323.8C181.7 308.6 197.2 298.2 215.2 294.6C218.1 294.1 220.8 295.9 221.4 298.7C222 301.5 220.1 304.3 217.3 304.9C202.1 308 188.9 316.7 180.2 329.6C179 331.2 177.4 332 175.7 332ZM132.3 290.3C131.3 290.3 130.2 290 129.3 289.4C120.1 283 109.2 279.7 97.9998 279.7C90.9998 279.7 84.0998 281 77.5998 283.6C74.8998 284.7 71.8998 283.3 70.7998 280.6C69.6998 277.9 71.0998 274.9 73.7998 273.8C81.5998 270.7 89.6998 269.2 98.0998 269.2C98.0998 269.2 98.0998 269.2 98.1998 269.2C111.6 269.2 124.4 273.2 135.4 280.8C137.8 282.4 138.4 285.7 136.7 288.1C135.6 289.5 134 290.3 132.3 290.3ZM178.9 234C166.4 234 154.6 229.2 145.6 220.5C143.5 218.5 143.5 215.2 145.5 213.1C147.5 211 150.8 211 152.9 213C159.9 219.8 169.1 223.6 178.9 223.6C178.9 223.6 178.9 223.6 179 223.6C182.6 223.6 186.2 223.1 189.6 222.1C192.4 221.3 195.3 222.9 196.1 225.6C196.9 228.4 195.3 231.3 192.6 232.1C188.1 233.4 183.3 233.9 178.9 234ZM375.2 229.6C373.6 229.6 372 228.9 371 227.5C369.3 225.2 369.8 221.9 372.1 220.2C378.8 215.2 387.1 212.4 395.5 212.4C395.5 212.4 395.5 212.4 395.6 212.4C397.9 212.4 400.3 212.6 402.6 213C405.5 213.5 407.3 216.2 406.8 219.1C406.3 222 403.6 223.8 400.7 223.3C399 223 397.3 222.8 395.5 222.8C389.4 222.8 383.3 224.8 378.3 228.5C377.4 229.2 376.3 229.6 375.2 229.6Z" fill="#103849"/>
<path d="M292.8 442.9C260.4 442.9 230.8 427.7 213.4 402.8C203.7 407 193.2 409.2 182.6 409.2C182.6 409.2 182.6 409.2 182.5 409.2C151.6 409.2 123.6 390.7 110.7 362.4C107.9 362.7 105.2 362.8 102.4 362.8C55.8996 362.8 18.0996 325 18.0996 278.6C18.0996 247.8 34.9996 219.5 61.6996 204.9C61.5996 203.2 61.4996 201.4 61.4996 199.7C61.4996 161.6 92.0996 129.6 133.6 123.2C148.8 84.1002 186.2 58.2002 228.6 58.2002C253.5 58.2002 277.1 67.1002 295.7 83.4002C306.7 78.2002 318.8 75.5002 331.1 75.5002C371.9 75.5002 406.1 105.1 412.7 144.4C447.9 145.3 476.3 174.2 476.3 209.6C476.3 222 472.7 234.2 466.1 244.6C476.4 259.6 482.1 277.6 482.1 296C482.1 346.1 441.3 386.8 391.2 386.8C388 386.8 384.7 386.6 381.5 386.3C367.3 419.9 332 442.9 292.8 442.9ZM216.7 381.7C217.5 381.7 218.3 381.8 219.1 382C221.5 382.7 223.5 384.2 224.7 386.4C237.9 409.9 264 424.5 292.8 424.5C326.9 424.5 357.2 403.4 366.5 373.3C367.9 368.8 372.5 366 377 367C381.7 367.9 386.4 368.4 391 368.4C431 368.4 463.6 335.9 463.6 295.9C463.6 279.4 457.9 263.2 447.5 250.4C444.8 247 444.8 242.2 447.5 238.9C454.2 230.6 457.9 220.2 457.9 209.5C457.9 183.6 436.8 162.6 410.9 162.6C409.1 162.6 407.3 162.7 405.5 162.9C403 163.2 400.5 162.4 398.5 160.8C396.6 159.2 395.4 156.8 395.2 154.3C393.3 120.3 365 93.7002 330.9 93.7002C319.5 93.7002 308.4 96.7002 298.6 102.4C295 104.5 290.5 103.9 287.5 101C271.8 85.2002 250.8 76.5002 228.5 76.5002C192.1 76.5002 160.1 99.8002 149 134.4C147.9 137.9 144.8 140.4 141.1 140.7C106.1 144 79.7996 169.3 79.7996 199.7C79.7996 202.7 80.0996 205.7 80.5996 208.6C81.2996 212.7 79.0996 216.8 75.2996 218.6C51.2996 229.3 36.3996 252.3 36.3996 278.7C36.3996 315 65.9996 344.6 102.4 344.6C106.5 344.6 110.7 344.2 114.8 343.4C119.3 342.6 123.7 345.1 125.2 349.4C133.8 374.3 156.9 391 182.5 391C182.5 391 182.5 391 182.6 391C193 391 203.2 388.3 212.2 383.1C213.5 382.1 215.1 381.7 216.7 381.7Z" fill="#103849"/>
<path d="M228.5 41.0996C204.3 41.0996 181 48.2996 161.1 61.8996C144 73.6996 130.4 89.4996 121.4 108.2C77.7 118.8 46.4 153.9 44.5 195.4C17.4 214.2 1 245.2 1 278.6C1 333.8 45.5 378.9 100.6 379.8C118 408.3 149 426.2 182.4 426.2C190.9 426.2 199.3 425.1 207.5 422.8C228.6 446.2 259.6 459.9 292.7 459.9C315.2 459.9 336.9 453.5 355.7 441.5C370.9 431.7 383.2 418.8 391.6 403.7C450.9 403.4 498.9 355.1 498.9 295.9C498.9 277.6 494.3 259.8 485.6 244C490.6 233.2 493.2 221.4 493.2 209.5C493.2 187.9 484.9 167.5 469.8 152.1C457.9 139.9 442.8 131.9 426.4 128.7C420.9 110.7 410.2 94.4996 395.7 82.0996C377.7 66.7996 354.7 58.2996 331 58.2996C320 58.2996 308.9 60.1996 298.4 63.7996C278.1 49.0996 253.7 41.0996 228.5 41.0996ZM228.5 58.0996C253.1 58.0996 277.2 67.1996 295.6 83.2996C306.7 78.0996 318.8 75.3996 331 75.3996C371.8 75.3996 406 105 412.6 144.3C447.8 145.2 476.2 174.1 476.2 209.5C476.2 221.9 472.6 234 466 244.5C476.3 259.5 482 277.5 482 295.9C482 346 441.2 386.7 391.1 386.7C387.9 386.7 384.6 386.5 381.4 386.2C367.4 419.9 332.1 442.9 292.9 442.9C260.5 442.9 230.9 427.7 213.5 402.8C203.8 407 193.2 409.2 182.6 409.2C151.7 409.2 123.7 390.7 110.8 362.4C108.1 362.7 105.3 362.8 102.5 362.8C56 362.8 18.2 325 18.2 278.6C18.2 247.8 35.1 219.5 61.8 204.9C61.7 203.2 61.6 201.4 61.6 199.7C61.6 161.6 92.2 129.6 133.7 123.2C148.6 83.9996 186.1 58.0996 228.5 58.0996Z" fill="#F0F0F0"/>
</svg>
