<svg width="500" height="501" viewBox="0 0 500 501" fill="none" xmlns="http://www.w3.org/2000/svg">
<path d="M497.3 250.8C497.3 379.5 398.7 485.2 272.9 496.5C271.7 496.6 271.3 494.9 272.4 494.5C283.9 490 301.2 481.4 321.8 466C340.8 451.8 351.7 435.2 357.9 422.1C360.5 416.6 353.9 411.3 349.2 415.2C340.1 422.6 326.7 431.8 308.3 441C266.6 461.8 239.9 450.7 227.4 445.5C214.9 440.3 182.3 410.8 201 342.1C217.4 281.7 271.4 255.8 289.8 248.5C292.5 247.4 293.1 243.9 290.8 242C286.9 238.7 281.6 234.1 278 230.6C271.7 224.4 244.7 198.3 244.7 136.9C244.7 75.4002 284.7 44.9002 307.6 44.9002C330.5 44.9002 346.8 67.1002 346.8 102.5C346.8 134.8 324.8 156.5 320.9 160.1C320.6 160.4 320.5 160.9 320.7 161.4C328.2 176.1 337.7 181.7 351 181.7C367.5 181.7 393.3 152.6 393.3 114.3C393.3 65.3002 367.7 33.8002 367.7 33.8002L367.9 33.7002C447.4 74.5002 497.3 155.2 497.3 250.8Z" fill="#094B89"/>
<path d="M240.3 4.2998C241.5 4.2998 242 5.7998 241 6.4998C230.2 13.1998 218.9 20.7998 209.7 28.1998C183.6 49.1998 163.3 95.9998 163.3 133.4C163.3 174 180.6 208.5 187.1 220.1C188.3 222.1 187.4 224.8 185.2 225.7C180 227.9 169.6 233.6 150.6 247.7C112.9 275.6 93.6999 329.2 92.1999 374C91.0999 407.8 105.6 437.4 117.3 455.7C118 456.8 116.7 458 115.7 457.3C48.2999 413.2 3.8999 337.2 3.8999 250.8C3.8999 118 108.8 9.6998 240.3 4.2998Z" fill="#388CE0"/>
<path d="M320.3 160.6C327.9 175.8 337.4 181.6 351 181.6C367.5 181.6 393.3 152.5 393.3 114.2C393.3 65.1996 367.7 33.6996 367.7 33.6996L363.3 31.2996L363 31.0996C329.3 13.7996 291.1 4.09961 250.7 4.09961C248.7 4.09961 246.8 4.09961 244.8 4.19961C232.9 11.3996 220 19.8996 209.7 28.1996C183.6 49.1996 163.3 95.9996 163.3 133.4C163.3 174 180.6 208.5 187.1 220.1C188.3 222.1 187.4 224.8 185.2 225.7C180 227.9 169.6 233.6 150.6 247.7C112.9 275.6 93.6998 329.2 92.1998 374C90.9998 410.8 108.3 442.7 120.3 460.3C132.9 468.2 146.4 475 160.4 480.5C187.6 491.2 217.1 497.2 248 497.5C248.9 497.5 249.8 497.5 250.7 497.5C255.6 497.5 260.5 497.4 265.4 497.1C276 493.6 296.4 485.1 322 466C341 451.8 351.9 435.2 358.1 422.1C360.7 416.6 354.1 411.3 349.4 415.2C340.3 422.6 326.9 431.8 308.5 441C266.8 461.8 240.1 450.7 227.6 445.5C215.1 440.3 182.5 410.8 201.2 342.1C217.6 281.7 271.6 255.8 290 248.5C292.7 247.4 293.3 243.9 291 242C287.1 238.7 281.8 234.1 278.2 230.6C271.9 224.4 244.9 198.3 244.9 136.9C244.9 75.3996 284.9 44.8996 307.8 44.8996C330.7 44.8996 347 67.0996 347 102.5C346.8 137.9 320.3 160.6 320.3 160.6Z" fill="white"/>
</svg>
