<svg width="500" height="501" viewBox="0 0 500 501" fill="none" xmlns="http://www.w3.org/2000/svg">
<g clip-path="url(#clip0_1_7190)">
<path d="M250 96.9C280.4 96.9 310.1 105.9 335.3 122.8C360.6 139.7 380.2 163.7 391.9 191.7C403.5 219.8 406.6 250.6 400.6 280.4C394.7 310.2 380 337.6 358.6 359C337.1 380.5 309.8 395.1 280 401C250.2 406.9 219.3 403.9 191.3 392.3C163.2 380.7 139.2 361 122.4 335.7C105.5 310.4 96.4998 280.7 96.4998 250.4C96.5998 209.7 112.8 170.6 141.5 141.8C170.2 113.2 209.3 97 250 96.9ZM250 0.5C200.6 0.5 152.2 15.2 111.1 42.6C69.9998 70.1 37.9998 109.1 18.9998 154.8C0.0998402 200.5 -4.80016 250.8 4.79984 299.3C14.3998 347.8 38.2998 392.3 73.1998 427.3C108.2 462.3 152.7 486.1 201.2 495.7C249.7 505.3 300 500.4 345.6 481.5C391.3 462.6 430.3 430.5 457.8 389.4C485.3 348.3 500 299.9 500 250.5C500 184.2 473.7 120.6 426.8 73.7C379.9 26.8 316.3 0.5 250 0.5Z" fill="url(#paint0_linear_1_7190)"/>
<path d="M250 446.5C358.2 446.5 446 358.8 446 250.5C446 142.2 358.2 54.5 250 54.5C141.8 54.5 54 142.3 54 250.5C54 358.7 141.8 446.5 250 446.5Z" fill="white"/>
<path d="M361.6 363.5C346.8 378.2 329.2 389.9 309.8 397.7C290.4 405.5 269.7 409.3 248.8 408.9C228 409.3 207.4 405.4 188.2 397.5C169 389.6 151.6 377.9 137 363.1C106.5 332.7 91.2999 295.4 91.3999 251.1C91.3999 205.6 106.7 167.7 137.4 137.4C152 122.6 169.5 111 188.7 103.2C207.9 95.4003 228.6 91.6003 249.4 92.1003C270.3 91.8003 291 95.7003 310.4 103.5C329.8 111.4 347.3 123 362.1 137.8C393.3 168.2 408.9 206.1 408.7 251.7C409.1 272.6 405.1 293.3 397 312.6C388.8 331.8 376.8 349.2 361.6 363.5Z" fill="#5F2652"/>
<path fill-rule="evenodd" clip-rule="evenodd" d="M215.3 254.7L215 256.6L214.9 257.4C213.5 268 209.5 271.1 199.4 275.6C199.4 275.6 199.4 275.6 199.3 275.6L162.7 291.9L245.4 339.6V312.3C245.4 302.3 244.8 300.5 236 295.6C234.3 294.6 232.5 293.6 230.6 292.5L229.4 291.8C223.9 288.8 219.5 284.5 216.2 279.3C216.1 279.1 215.2 277.8 215.1 277.6C215.8 277.2 216.4 276.8 217 276.2C217.6 275.7 218.1 275 218.5 274.3C221.4 280 225.8 284.8 231.4 287.9L232.8 288.7C234.7 289.8 236.6 290.8 238.3 291.8C249.1 297.8 249.9 301.5 249.9 312.3V339.6L333.4 291L297.7 275.2L295.4 274.2C294.5 273.8 291.6 272.6 289.4 272.5C287.2 272.4 283.7 272.5 281.9 274.9C280.2 277.1 278.5 279.3 276.8 281.4C272.9 286.6 267.7 290.8 261.6 293.3C261.6 293.3 261.6 293.3 261.5 293.3C259.9 294 258.1 294.4 256.4 294.8C256 294.1 255.5 293.3 255 292.7C254.6 292.2 254.1 291.6 253.6 291.1C256.2 290.6 259.2 289.7 261.6 288.6C266.3 286.4 270.3 283.2 273.4 279.2C273.6 279 273.7 278.8 273.8 278.6C274.1 278.2 274.4 277.8 274.7 277.3C275.5 276.2 276.8 274.5 278.5 272.3C279.7 270.8 281.3 269.8 283.1 269.1C285 268.4 287.2 268.1 289.6 268.1C293.2 268.2 297.3 270.2 297.3 270.2L298.6 270.7H298.7L302 272.1L333.2 285.9L250.1 151.9V208.6C250.1 218.4 250.8 220.5 259.7 225.5C260.4 225.9 261.1 226.2 261.8 226.6L262.9 227.2C263.2 227.3 263.5 227.5 263.7 227.6C275.3 233.3 283.5 244.7 284.2 258.1C283.4 258.3 282.3 258.6 281.6 258.8C281.1 258.9 280.4 259.3 279.8 259.6C279.7 247.2 272.3 236.6 261.6 231.4H261.5C260.9 231.1 260.3 230.8 259.6 230.5C257.3 229.4 255.2 228.2 253.1 226.8C252.8 226.6 252.5 226.4 252.2 226.1C251.5 225.6 250.9 225.1 250.4 224.7C250.1 224.4 249.8 224.2 249.6 223.9C246 220.3 245.3 216.2 245.3 208.6V151.8L161.9 287.1L198.7 270.7C206.9 267.1 209.3 264 210.4 255.2C210.4 255.1 210.5 254.8 210.5 254.7C212.6 240.7 223 229.4 236.6 225.5L238.4 225C238.6 225.7 238.9 226.4 239.3 227.1C239.7 227.8 240.2 228.4 240.8 229L239.1 229.4C227.1 232.6 217.6 242.4 215.3 254.7ZM155.2 290.1L245.8 143.2C246 142.9 246.3 142.6 246.6 142.4C246.9 142.2 247.3 142.1 247.7 142.1C248.1 142.1 248.5 142.2 248.8 142.4C249.1 142.6 249.4 142.9 249.6 143.2L340.4 289.5C340.5 289.7 340.6 290 340.7 290.3C340.7 290.6 340.7 290.9 340.7 291.2C340.6 291.5 340.5 291.7 340.3 292C340.1 292.2 339.9 292.4 339.7 292.6L248.9 345.4C248.6 345.6 248.2 345.7 247.8 345.7C247.4 345.7 247 345.6 246.7 345.4L156 293.1C155.7 293 155.5 292.8 155.4 292.5C155.2 292.3 155.1 292 155 291.7C154.9 291.4 154.9 291.1 155 290.8C154.9 290.6 155 290.3 155.2 290.1Z" fill="white" stroke="white"/>
</g>
<defs>
<linearGradient id="paint0_linear_1_7190" x1="467.5" y1="467.999" x2="67.4999" y2="67.9994" gradientUnits="userSpaceOnUse">
<stop offset="0.1594" stop-color="#003CDA"/>
<stop offset="1" stop-color="#33DFCC"/>
</linearGradient>
<clipPath id="clip0_1_7190">
<rect width="500" height="500" fill="white" transform="translate(0 0.5)"/>
</clipPath>
</defs>
</svg>
