<svg width="500" height="501" viewBox="0 0 500 501" fill="none" xmlns="http://www.w3.org/2000/svg">
<path d="M377.2 254.7C375.1 246.2 365.5 240.9 357.1 243C355 244.1 351.8 245.1 350.7 246.2C346.5 250.4 344.3 256.8 346.5 263.2C348.6 271.7 350.7 281.2 349.7 290.8V362.9C349.7 414.8 311.5 460.4 259.6 465.7C204.5 471 155.7 430.7 150.4 375.6C150.4 372.4 150.4 369.2 150.4 366.1V293C150.4 243.2 184.3 200.8 233.1 192.3C252.2 189.1 270.2 191.2 288.2 198.7C293.5 200.8 299.9 199.8 305.2 195.5C311.6 189.1 312.6 179.6 307.3 173.2C305.2 171.1 304.1 170 300.9 169C279.7 160.5 255.3 157.3 233.1 160.5C165.3 169 116.5 227.3 116.5 294V362.9C116.5 437.1 176.9 500.7 251.1 499.6C323.2 498.5 381.5 439.2 381.5 367.1V290.8C382.5 279 380.4 266.3 377.2 254.7ZM148.3 178.4C153.6 174.2 154.7 167.8 153.6 161.4C149.4 147.6 148.3 132.8 151.5 117.9C160 62.7995 211.9 26.7995 267 35.2995C322.1 43.7995 358.1 95.6995 349.7 150.8C342.3 195.3 306.2 229.2 261.7 234.5C244.7 236.6 227.8 234.5 212.9 228.1C207.6 226 201.2 227 195.9 231.3C189.5 237.7 188.5 247.2 193.8 253.6C195.9 255.7 197 256.8 200.2 257.8C223.5 267.3 249 270.5 273.3 266.3C345.4 253.6 394.1 184.7 381.4 112.6C368.7 40.4995 298.8 -9.20046 226.7 3.49954C154.6 16.1995 105.9 85.0995 119.7 157.2C120.8 161.4 121.8 166.7 122.9 171C125 179.5 134.6 184.8 143 181.6C145.1 181.5 147.2 179.4 148.3 178.4Z" fill="url(#paint0_linear_1_7206)"/>
<defs>
<linearGradient id="paint0_linear_1_7206" x1="197.876" y1="463.074" x2="291.826" y2="74.7476" gradientUnits="userSpaceOnUse">
<stop stop-color="#FEBC08"/>
<stop offset="0.3394" stop-color="#FF5400"/>
<stop offset="0.7079" stop-color="#FD8EEC"/>
<stop offset="1" stop-color="#295AFE"/>
</linearGradient>
</defs>
</svg>
