<svg width="500" height="501" viewBox="0 0 500 501" fill="none" xmlns="http://www.w3.org/2000/svg">
<g clip-path="url(#clip0_1_7208)">
<path d="M250 96.9C280.4 96.9 310.1 105.9 335.3 122.8C360.6 139.7 380.2 163.7 391.9 191.7C403.5 219.8 406.6 250.6 400.6 280.4C394.7 310.2 380 337.6 358.6 359C337.2 380.4 309.8 395.1 280 401C250.2 406.9 219.3 403.9 191.3 392.3C163.2 380.7 139.2 361 122.4 335.7C105.5 310.4 96.5001 280.7 96.5001 250.4C96.6001 209.7 112.8 170.6 141.5 141.9C170.2 113.2 209.3 97 250 96.9ZM250 0.5C200.6 0.5 152.2 15.2 111.1 42.6C70.0001 70.1 38.0001 109.1 19.0001 154.8C0.100084 200.5 -4.79992 250.8 4.80008 299.3C14.4001 347.8 38.3001 392.3 73.2001 427.3C108.2 462.3 152.7 486.1 201.2 495.7C249.7 505.3 300 500.4 345.6 481.5C391.3 462.6 430.3 430.5 457.8 389.4C485.3 348.3 500 299.9 500 250.5C500 184.2 473.7 120.6 426.8 73.7C379.9 26.8 316.3 0.5 250 0.5Z" fill="url(#paint0_linear_1_7208)"/>
<path d="M250 446.5C358.2 446.5 446 358.8 446 250.5C446 142.2 358.2 54.5 250 54.5C141.8 54.5 54 142.3 54 250.5C54 358.7 141.8 446.5 250 446.5Z" fill="white"/>
<path d="M250 410.5C338.366 410.5 410 338.866 410 250.5C410 162.134 338.366 90.5 250 90.5C161.634 90.5 90 162.134 90 250.5C90 338.866 161.634 410.5 250 410.5Z" fill="url(#paint1_linear_1_7208)"/>
<path d="M327.2 286.6C327.2 276.1 319.7 269.2 310.5 269.2H283V278.2H310.5C315.2 278.2 319 281.3 319 286.7C319 291.9 315.2 294.9 310.5 294.9H283V304.5H310.4C319.7 304.4 327.2 297.4 327.2 286.6Z" fill="white"/>
<path d="M327.2 246.3C327.2 236.7 322 230.1 313.8 230.1C306.6 230.1 302.3 234.9 300.6 242.8L299.7 246.9C298.8 251 297.2 252.7 294.9 252.7C292 252.7 290.1 250.5 290.1 246.5C290.1 242 292.3 239.9 295.2 239.1V231.6H290.8C285.5 232.8 282.2 238.3 282.2 246.2C282.2 255.7 287 261.9 295.4 261.9C302.4 261.9 306.6 257.5 308.2 249.6L309 245.6C310 241.2 311.6 239.3 314.4 239.3C317.6 239.3 319.5 242 319.5 246C319.5 250.6 317.5 253.4 314.2 254.5V262H318.5C323.2 260.3 327.2 255.2 327.2 246.3Z" fill="white"/>
<path d="M326.3 223V207.9C326.3 194.6 316.5 186.4 304.5 186.4C292.7 186.4 283 194.6 283 207.9V223H326.3ZM318.2 213.4H291.2V208C291.2 200.5 297.2 196.1 304.5 196.1C312.1 196.1 318.2 200.4 318.2 208V213.4Z" fill="white"/>
<path d="M226.9 239.3C231.3 239.3 234.9 242.8 234.9 247.2C234.9 251.6 231.3 255.1 226.9 255.1H206.2C186.2 255.1 170 238.9 170 219C170 199.1 186.2 182.9 206.2 182.9H259.5C263.9 182.9 267.5 186.4 267.5 190.8C267.5 195.2 263.9 198.7 259.5 198.7H206.2C195 198.7 185.9 207.8 185.9 218.9C185.9 230.1 195 239.1 206.2 239.1H226.9V239.3Z" fill="white"/>
<path d="M210.6 255.2C206.2 255.2 202.6 251.6 202.6 247.3C202.6 243 206.2 239.4 210.6 239.4H231.3C251.3 239.4 267.5 255.6 267.5 275.5C267.5 295.4 251.3 311.6 231.3 311.6H178C173.6 311.6 170 308.1 170 303.7C170 299.3 173.6 295.8 178 295.8H231.3C242.5 295.8 251.6 286.7 251.6 275.6C251.6 264.4 242.5 255.4 231.3 255.4H210.6V255.2Z" fill="white"/>
<path d="M184.2 308.3L171.3 299.1L252.7 186L265.6 195.2L184.2 308.3Z" fill="white" fill-opacity="0.5"/>
</g>
<defs>
<linearGradient id="paint0_linear_1_7208" x1="467.5" y1="468" x2="67.5001" y2="68" gradientUnits="userSpaceOnUse">
<stop offset="0.1594" stop-color="#003CDA"/>
<stop offset="1" stop-color="#33DFCC"/>
</linearGradient>
<linearGradient id="paint1_linear_1_7208" x1="140" y1="140.5" x2="372.5" y2="373" gradientUnits="userSpaceOnUse">
<stop stop-color="#342F49"/>
<stop offset="1"/>
</linearGradient>
<clipPath id="clip0_1_7208">
<rect width="500" height="500" fill="white" transform="translate(0 0.5)"/>
</clipPath>
</defs>
</svg>
