<svg width="500" height="501" viewBox="0 0 500 501" fill="none" xmlns="http://www.w3.org/2000/svg">
<g clip-path="url(#clip0_1_7218)">
<path d="M250 96.9C280.4 96.9 310.1 105.9 335.3 122.8C360.6 139.7 380.2 163.7 391.9 191.7C403.5 219.8 406.6 250.6 400.6 280.4C394.7 310.2 380 337.6 358.6 359C337.1 380.5 309.8 395.1 280 401C250.2 406.9 219.3 403.9 191.3 392.3C163.2 380.7 139.2 361 122.4 335.7C105.5 310.4 96.5 280.7 96.5 250.4C96.6 209.7 112.8 170.6 141.5 141.8C170.2 113.2 209.3 97 250 96.9ZM250 0.5C200.6 0.5 152.2 15.2 111.1 42.6C70 70.1 38 109.1 19 154.8C0.0999622 200.5 -4.80004 250.8 4.79996 299.3C14.4 347.8 38.3 392.3 73.2 427.3C108.2 462.3 152.7 486.1 201.2 495.7C249.7 505.3 300 500.4 345.6 481.5C391.3 462.6 430.3 430.5 457.8 389.4C485.3 348.3 500 299.9 500 250.5C500 184.2 473.7 120.6 426.8 73.7C379.9 26.8 316.3 0.5 250 0.5Z" fill="url(#paint0_linear_1_7218)"/>
<path d="M250 446.5C358.2 446.5 446 358.8 446 250.5C446 142.2 358.2 54.5 250 54.5C141.8 54.5 54 142.3 54 250.5C54 358.7 141.8 446.5 250 446.5Z" fill="white"/>
<path d="M408.6 250.8C408.8 163.3 337.9 92.3 250.3 92.1C162.7 91.9 91.6 162.7 91.4 250.2C91.2 337.7 162.1 408.7 249.7 408.9C337.3 409.1 408.4 338.3 408.6 250.8Z" fill="#3574B9"/>
<path d="M220.7 359.9C220.7 363.8 218 365.2 214.1 365.2C190 357.5 168.9 342.4 154 322C139 301.5 131 276.8 131.1 251.5C131.1 226.2 139.3 201.5 154.3 181.2C169.3 160.8 190.4 145.7 214.6 138.2C218.5 136.9 221.2 139.5 221.2 143.5V152.9C221.2 154.3 220.9 155.6 220.2 156.8C219.5 158 218.5 158.9 217.3 159.5C198.3 166.3 181.9 178.9 170.2 195.4C158.6 211.9 152.3 231.6 152.3 251.8C152.3 272 158.4 291.7 170 308.3C181.6 324.9 197.9 337.5 216.9 344.4C218.1 345 219.1 346 219.8 347.1C220.5 348.3 220.8 349.6 220.8 351L220.7 359.9Z" fill="white"/>
<path d="M260.4 327.1C260.4 328.5 259.8 329.8 258.8 330.8C257.8 331.8 256.5 332.4 255.1 332.5H244.5C243.1 332.4 241.8 331.8 240.9 330.8C239.9 329.8 239.3 328.5 239.3 327.1V311.5C218.1 308.8 207.6 296.9 203.6 279.7C203.6 277.1 205 274.4 207.5 274.4H219.4C222 274.4 223.3 275.7 224.7 278.3C227.3 287.6 232.5 295.5 249.8 295.5C263 295.5 272.3 288.9 272.3 278.4C272.3 267.9 267 263.9 248.5 261.2C220.7 257.3 207.5 249.2 207.6 226.8C207.6 209.7 220.9 196.4 239.4 193.9V177.7C239.5 176.3 240.1 175 241 174.1C242 173.1 243.3 172.5 244.6 172.5H255.2C256.6 172.6 257.9 173.2 258.8 174.1C259.8 175.1 260.4 176.4 260.4 177.7V193.6C276.3 196.3 286.8 205.5 289.4 220C289.4 222.6 288.1 225.3 285.5 225.3H275C272.3 225.3 271.1 224 269.7 221.4C267.1 212.1 260.5 208.2 248.6 208.2C235.4 208.2 228.8 214.8 228.8 223.8C228.8 232.8 232.7 238.3 252.6 241C280.3 244.9 293.5 253 293.5 275.4C293.5 292.5 280.3 307 260.4 311V327.1Z" fill="white"/>
<path d="M285.5 365.4C281.6 366.7 278.9 364.1 278.9 360.1V350.8C278.9 349.4 279.2 348.1 279.9 347C280.6 345.8 281.6 344.9 282.8 344.3C301.8 337.5 318.2 324.9 329.9 308.4C341.5 291.9 347.8 272.2 347.8 252C347.8 231.8 341.7 212.1 330.1 195.5C318.5 178.9 302.2 166.3 283.2 159.4C282 158.8 281 157.8 280.3 156.7C279.6 155.5 279.3 154.2 279.3 152.8V143.5C279.3 139.6 282 138.2 285.9 138.2C333.4 154.1 369 199.1 368.9 251.9C368.8 277.2 360.7 301.8 345.7 322.2C330.7 342.7 309.6 357.8 285.5 365.4Z" fill="white"/>
</g>
<defs>
<linearGradient id="paint0_linear_1_7218" x1="467.5" y1="467.999" x2="67.5001" y2="67.9994" gradientUnits="userSpaceOnUse">
<stop offset="0.1594" stop-color="#003CDA"/>
<stop offset="1" stop-color="#33DFCC"/>
</linearGradient>
<clipPath id="clip0_1_7218">
<rect width="500" height="500" fill="white" transform="translate(0 0.5)"/>
</clipPath>
</defs>
</svg>
