<svg width="500" height="501" viewBox="0 0 500 501" fill="none" xmlns="http://www.w3.org/2000/svg">
<g clip-path="url(#clip0_1_7225)">
<path d="M250 96.9C280.4 96.9 310.1 105.9 335.3 122.8C360.6 139.7 380.2 163.7 391.9 191.7C403.5 219.8 406.6 250.6 400.6 280.4C394.7 310.2 380 337.6 358.6 359C337.1 380.5 309.8 395.1 280 401C250.2 406.9 219.3 403.9 191.3 392.3C163.2 380.7 139.2 361 122.4 335.7C105.5 310.4 96.5 280.7 96.5 250.4C96.6 209.7 112.8 170.6 141.5 141.9C170.2 113.2 209.3 97 250 96.9ZM250 0.5C200.6 0.5 152.2 15.2 111.1 42.6C70 70.1 38 109.1 19 154.8C0.0999928 200.5 -4.80001 250.8 4.79999 299.3C14.4 347.8 38.3 392.3 73.2 427.3C108.2 462.3 152.7 486.1 201.2 495.7C249.7 505.3 300 500.4 345.6 481.5C391.2 462.6 430.3 430.5 457.8 389.4C485.3 348.3 500 299.9 500 250.5C500 184.2 473.7 120.6 426.8 73.7C379.9 26.8 316.3 0.5 250 0.5Z" fill="url(#paint0_linear_1_7225)"/>
<path d="M250 446.5C358.2 446.5 446 358.8 446 250.5C446 142.2 358.2 54.5 250 54.5C141.8 54.5 54 142.3 54 250.5C54 358.7 141.8 446.5 250 446.5Z" fill="white"/>
<path d="M403.8 289.1C396.2 319.5 379.7 347 356.5 368.1C333.3 389.2 304.3 402.9 273.3 407.5C242.3 412.1 210.6 407.4 182.2 394C153.8 380.6 130.1 359.1 114 332.2C97.9 305.3 90.1 274.2 91.6 242.9C93.2 211.6 104 181.4 122.7 156.2C141.4 131 167.2 111.9 196.7 101.4C226.2 90.8997 258.3 89.2997 288.7 96.9997C329.4 107.3 364.4 133.2 386 169.3C407.5 205.2 414 248.3 403.8 289.1Z" fill="url(#paint1_linear_1_7225)"/>
<path d="M320 228C323.2 206.9 307.1 195.8 285.2 188L292.4 159.4L275 155L268 182.9C263.4 181.7 258.7 180.7 254.1 179.6L261.1 151.6L243.7 147.3L236.5 175.8C232.6 174.9 229 174.1 225.4 173.2L201.4 167.2L196.8 185.8C196.8 185.8 209.7 188.8 209.4 189C211.8 189.3 214 190.5 215.5 192.4C217 194.3 217.7 196.7 217.5 199.1L198 277.2C197.4 278.7 196.3 280 194.9 280.7C193.4 281.4 191.8 281.6 190.2 281.1C190.2 281.3 177.5 277.9 177.5 277.9L168.8 297.8L191.4 303.5L203.8 306.7L196.2 335.7L213.6 340.1L220.8 311.5C225.6 312.8 230.1 314 234.7 315.1L227.6 343.5L245 347.9L252.3 319.1C281.9 324.8 304.3 322.5 313.7 295.7C321.5 274.1 313.4 261.7 297.8 253.6C309.1 250.9 317.7 243.4 320 228ZM280.1 283.7C274.7 305.2 238.3 293.5 226.6 290.6L236.2 252.4C247.9 255.3 285.7 261.2 280.1 283.7ZM285.6 227.7C280.6 247.2 250.4 237.3 240.6 234.8L249.3 200.1C259.1 202.6 290.7 207.2 285.6 227.7Z" fill="white"/>
</g>
<defs>
<linearGradient id="paint0_linear_1_7225" x1="467.5" y1="467.999" x2="67.5005" y2="67.9997" gradientUnits="userSpaceOnUse">
<stop offset="0.1594" stop-color="#003CDA"/>
<stop offset="1" stop-color="#33DFCC"/>
</linearGradient>
<linearGradient id="paint1_linear_1_7225" x1="250.296" y1="57.5248" x2="249.733" y2="377.531" gradientUnits="userSpaceOnUse">
<stop stop-color="#F8A94B"/>
<stop offset="1" stop-color="#F6921E"/>
</linearGradient>
<clipPath id="clip0_1_7225">
<rect width="500" height="500" fill="white" transform="translate(0 0.5)"/>
</clipPath>
</defs>
</svg>
