<svg width="500" height="501" viewBox="0 0 500 501" fill="none" xmlns="http://www.w3.org/2000/svg">
<path d="M433.7 399.2L468 379.5V140.8L433.7 160.6V399.2Z" fill="url(#paint0_linear_1_7230)"/>
<path d="M319.1 465.6L352.9 445.8V207.2L319.1 227V465.6Z" fill="url(#paint1_linear_1_7230)"/>
<path d="M261.8 499L295.6 479.2V240.6L261.8 259.9V499Z" fill="url(#paint2_linear_1_7230)"/>
<path d="M376.4 432.7L410.2 412.9V173.8L376.4 193.5V432.7Z" fill="url(#paint3_linear_1_7230)"/>
<path d="M32.2 339.9V379L237.9 499.5L238.4 460.4L32.2 339.9Z" fill="url(#paint4_linear_1_7230)"/>
<path d="M33.2 206.7L32.7 246.2L238.8 366.7V327.2L33.2 206.7Z" fill="url(#paint5_linear_1_7230)"/>
<path d="M33.2 140.4V179.9L238.9 300.4L239.4 260.9L33.2 140.4Z" fill="url(#paint6_linear_1_7230)"/>
<path d="M32.7 273.6V312.7L238.4 433.2L238.9 393.7L32.7 273.6Z" fill="url(#paint7_linear_1_7230)"/>
<path d="M283.9 21.3L250.1 1.5L43.5 120.6L77.8 140.4L283.9 21.3Z" fill="url(#paint8_linear_1_7230)"/>
<path d="M399 87.5998L364.7 68.2998L158.1 187.4L192.4 207.2L399 87.5998Z" fill="url(#paint9_linear_1_7230)"/>
<path d="M456.2 121.1L422.4 101.3L215.8 220.4L249.6 240.2L456.2 121.1Z" fill="url(#paint10_linear_1_7230)"/>
<path d="M341.2 54.7004L307.4 34.9004L100.8 154L135.1 173.8L341.2 54.7004Z" fill="url(#paint11_linear_1_7230)"/>
<defs>
<linearGradient id="paint0_linear_1_7230" x1="426.198" y1="163.606" x2="481.371" y2="401.934" gradientUnits="userSpaceOnUse">
<stop stop-color="#FF6647"/>
<stop offset="1" stop-color="#FF6647" stop-opacity="0"/>
</linearGradient>
<linearGradient id="paint1_linear_1_7230" x1="311.397" y1="230.007" x2="366.571" y2="468.335" gradientUnits="userSpaceOnUse">
<stop stop-color="#FF6647"/>
<stop offset="1" stop-color="#FF6647" stop-opacity="0"/>
</linearGradient>
<linearGradient id="paint2_linear_1_7230" x1="254.08" y1="263.284" x2="309.252" y2="501.612" gradientUnits="userSpaceOnUse">
<stop stop-color="#FF6647"/>
<stop offset="1" stop-color="#FF6647" stop-opacity="0"/>
</linearGradient>
<linearGradient id="paint3_linear_1_7230" x1="368.669" y1="196.76" x2="423.834" y2="435.048" gradientUnits="userSpaceOnUse">
<stop stop-color="#FF6647"/>
<stop offset="1" stop-color="#FF6647" stop-opacity="0"/>
</linearGradient>
<linearGradient id="paint4_linear_1_7230" x1="239.175" y1="452.015" x2="6.01311" y2="379.687" gradientUnits="userSpaceOnUse">
<stop stop-color="#FF6647"/>
<stop offset="1" stop-color="#FF6647" stop-opacity="0"/>
</linearGradient>
<linearGradient id="paint5_linear_1_7230" x1="239.907" y1="318.978" x2="6.7457" y2="246.648" gradientUnits="userSpaceOnUse">
<stop stop-color="#FF6647"/>
<stop offset="1" stop-color="#FF6647" stop-opacity="0"/>
</linearGradient>
<linearGradient id="paint6_linear_1_7230" x1="240.109" y1="252.673" x2="6.94901" y2="180.345" gradientUnits="userSpaceOnUse">
<stop stop-color="#FF6647"/>
<stop offset="1" stop-color="#FF6647" stop-opacity="0"/>
</linearGradient>
<linearGradient id="paint7_linear_1_7230" x1="239.578" y1="385.627" x2="6.41741" y2="313.297" gradientUnits="userSpaceOnUse">
<stop stop-color="#FF6647"/>
<stop offset="1" stop-color="#FF6647" stop-opacity="0"/>
</linearGradient>
<linearGradient id="paint8_linear_1_7230" x1="83.4729" y1="145.385" x2="262.561" y2="-20.8204" gradientUnits="userSpaceOnUse">
<stop stop-color="#FF6647"/>
<stop offset="1" stop-color="#FF6647" stop-opacity="0"/>
</linearGradient>
<linearGradient id="paint9_linear_1_7230" x1="198.212" y1="212.054" x2="377.382" y2="45.7693" gradientUnits="userSpaceOnUse">
<stop stop-color="#FF6647"/>
<stop offset="1" stop-color="#FF6647" stop-opacity="0"/>
</linearGradient>
<linearGradient id="paint10_linear_1_7230" x1="255.646" y1="245.319" x2="434.733" y2="79.1117" gradientUnits="userSpaceOnUse">
<stop stop-color="#FF6647"/>
<stop offset="1" stop-color="#FF6647" stop-opacity="0"/>
</linearGradient>
<linearGradient id="paint11_linear_1_7230" x1="140.793" y1="178.775" x2="319.88" y2="12.5679" gradientUnits="userSpaceOnUse">
<stop stop-color="#FF6647"/>
<stop offset="1" stop-color="#FF6647" stop-opacity="0"/>
</linearGradient>
</defs>
</svg>
