<svg width="500" height="501" viewBox="0 0 500 501" fill="none" xmlns="http://www.w3.org/2000/svg">
<g clip-path="url(#clip0_1_7243)">
<path d="M250 96.9C280.4 96.9 310.1 105.9 335.3 122.8C360.6 139.7 380.2 163.7 391.9 191.7C403.5 219.8 406.6 250.6 400.6 280.4C394.7 310.2 380 337.6 358.6 359C337.1 380.5 309.8 395.1 280 401C250.2 406.9 219.3 403.9 191.3 392.3C163.2 380.7 139.2 361 122.4 335.7C105.5 310.4 96.5 280.7 96.5 250.4C96.6 209.7 112.8 170.6 141.5 141.8C170.2 113.2 209.3 97 250 96.9ZM250 0.5C200.6 0.5 152.2 15.2 111.1 42.6C70 70.1 38 109.1 19 154.8C0.0999622 200.5 -4.80004 250.8 4.79996 299.3C14.4 347.8 38.3 392.3 73.2 427.3C108.2 462.3 152.7 486.1 201.2 495.7C249.7 505.3 300 500.4 345.6 481.5C391.3 462.6 430.3 430.5 457.8 389.4C485.3 348.3 500 299.9 500 250.5C500 184.2 473.7 120.6 426.8 73.7C379.9 26.8 316.3 0.5 250 0.5Z" fill="url(#paint0_linear_1_7243)"/>
<path d="M250 446.5C358.2 446.5 446 358.8 446 250.5C446 142.2 358.2 54.5 250 54.5C141.8 54.5 54 142.3 54 250.5C54 358.7 141.8 446.5 250 446.5Z" fill="white"/>
<path d="M361.6 363.5C346.8 378.2 329.2 389.9 309.8 397.7C290.4 405.5 269.7 409.3 248.8 408.9C228 409.3 207.4 405.4 188.2 397.5C169 389.6 151.6 377.9 137 363.1C106.5 332.7 91.3 295.4 91.4 251.1C91.4 205.6 106.7 167.7 137.4 137.4C152 122.6 169.5 111 188.7 103.2C207.9 95.4003 228.6 91.6003 249.4 92.1003C270.3 91.8003 291 95.7003 310.4 103.5C329.8 111.4 347.3 123 362.1 137.8C393.3 168.2 408.9 206.1 408.7 251.7C409.1 272.6 405.1 293.3 397 312.6C388.8 331.8 376.8 349.2 361.6 363.5Z" fill="#6F68AE"/>
<path d="M190.7 353.4C214.6 335.6 238.1 318.2 261.9 300.4C267.7 306.1 273.6 311.7 279.1 317.5C279.5 318.1 280 318.5 280.5 318.9C281.1 319.3 281.7 319.5 282.4 319.6C283.1 319.7 283.7 319.7 284.4 319.5C285 319.3 285.7 319 286.2 318.6C296.7 312.9 305.9 304.9 312.9 295.2C313.5 294.4 314.1 293.6 315.1 292.4C319.4 298 323.5 303.3 327.6 308.7C331.7 314.1 335.4 319.4 339.3 324.6C339.7 324.9 340 325.4 340.2 325.8C340.4 326.3 340.5 326.8 340.5 327.3C340.5 327.8 340.3 328.3 340.1 328.8C339.9 329.3 339.5 329.6 339.1 330C325 345.7 307 357.4 286.9 363.9C273 368.6 258.3 370.6 243.6 369.8C225.7 368.8 208.2 363.7 192.5 355C191.8 354.4 191.2 353.9 190.7 353.4Z" fill="white"/>
<path d="M208.1 315.5C196.7 324 185.8 332.1 174.7 340.1C174 340.3 173.2 340.3 172.5 340.2C171.8 340 171.1 339.7 170.5 339.2C155.4 325.9 144 309 137.4 290C132.1 275.5 129.8 260 130.6 244.6C131.5 227.6 136.1 211 143.9 195.8C144.5 194.6 145.3 193.3 146.3 191.4C149.4 195.3 152.3 199.2 155.1 202.7C169.3 221.4 183.5 240.1 197.8 258.8C198.2 259.2 198.6 259.7 198.8 260.2C199 260.8 199.1 261.4 199.1 261.9C199.1 262.5 198.9 263.1 198.6 263.6C198.3 264.1 197.9 264.6 197.4 264.9C192.4 269.6 187.8 274.8 182.8 279.5C182.3 279.9 181.8 280.4 181.5 281C181.2 281.6 180.9 282.2 180.9 282.9C180.8 283.6 180.9 284.2 181.1 284.9C181.3 285.5 181.6 286.1 182 286.6C187.7 297 195.7 305.9 205.2 312.9C205.9 313.7 206.7 314.3 208.1 315.5Z" fill="white"/>
<path d="M184.9 208.6C179.2 201 173.8 194 168.4 186.8C165.7 183.2 163.1 179.4 160.4 175.8C160.1 175.5 159.8 175.2 159.7 174.8C159.5 174.4 159.4 174 159.4 173.6C159.4 173.2 159.5 172.8 159.7 172.4C159.9 172 160.1 171.7 160.4 171.4C177 152.7 199 139.7 223.4 134.2C239.5 130.4 256.3 130.1 272.5 133.3C284.7 135.7 296.5 139.9 307.4 145.9C308.1 146.4 308.7 146.9 309.3 147.5C304.4 151.1 299.7 154.5 295 157.9C276.7 170.9 258.4 183.9 240.3 197C237.8 198.8 236.4 198.8 234.1 196.5C229.6 191.8 224.8 187.5 220.3 182.8C219.6 181.9 218.7 181.4 217.6 181.2C216.5 181.1 215.4 181.3 214.5 182C204.1 187.5 195.1 195.2 188.1 204.6C187.3 205.7 186.3 206.8 184.9 208.6Z" fill="white"/>
<path d="M291.8 185.5C299.2 179.9 306.2 174.5 313.2 169.3C317.1 166.5 321 163.9 324.5 161C326.1 159.8 327.2 159.6 328.8 161C345.9 176 358.3 195.5 364.6 217.4C368.3 229.7 370 242.5 369.4 255.4C368.5 273.6 363.5 291.3 354.8 307.3C354.8 307.6 354.3 307.8 353.6 308.5C350.4 304.2 347.1 300.1 344 295.9C330.8 278.4 317.6 260.9 304.4 243.4C300 237.6 300.8 238.9 304.8 234.7C308.7 230.5 313.3 225.6 317.8 221.3C318.7 220.6 319.3 219.5 319.4 218.4C319.5 217.2 319.2 216.1 318.5 215.2C312.9 204.7 305.1 195.6 295.6 188.6L291.8 185.5Z" fill="white"/>
</g>
<defs>
<linearGradient id="paint0_linear_1_7243" x1="467.5" y1="467.999" x2="67.5001" y2="67.9994" gradientUnits="userSpaceOnUse">
<stop offset="0.1594" stop-color="#003CDA"/>
<stop offset="1" stop-color="#33DFCC"/>
</linearGradient>
<clipPath id="clip0_1_7243">
<rect width="500" height="500" fill="white" transform="translate(0 0.5)"/>
</clipPath>
</defs>
</svg>
