<svg width="500" height="501" viewBox="0 0 500 501" fill="none" xmlns="http://www.w3.org/2000/svg">
<path d="M22.7691 249.145C22.7691 224.47 22.6531 199.795 22.8011 175.121C22.9541 149.717 30.3711 126.78 48.3341 108.375C55.3381 101.199 63.6121 94.8525 72.2721 89.7715C114.951 64.7315 158.045 40.3995 200.792 15.4735C215.795 6.72553 231.775 1.64453 248.948 1.50253C264.899 1.37053 280.29 4.96253 294.3 13.0985C341.806 40.6835 389.783 67.5035 436.585 96.2355C460.812 111.109 474.476 135.029 475.189 163.604C476.554 218.37 476.962 273.195 476.091 327.969C475.533 363.065 458.425 390.007 427.94 407.784C384.544 433.09 340.923 458.01 297.515 483.295C282.67 491.942 266.667 496.477 249.728 496.5C232.791 496.523 216.76 492.053 201.914 483.413C158.331 458.05 114.581 432.976 70.9841 407.636C45.4501 392.795 29.7491 370.774 24.3281 341.681C23.3011 336.17 22.8701 330.478 22.8351 324.865C22.6821 299.626 22.7691 274.385 22.7691 249.145ZM231.849 114.941C231.703 118.109 231.482 120.702 231.48 123.296C231.458 160.034 231.484 196.771 231.462 233.509C231.446 260.449 231.547 287.391 231.261 314.328C231.11 328.549 223.809 338.77 211.007 344.299C198.554 349.678 186.405 348.305 175.542 339.523C174.567 338.735 173.411 338.171 173.058 337.951C164.562 346.544 156.428 354.769 148.17 363.121C148.069 362.925 148.18 363.31 148.422 363.575C149.054 364.271 149.718 364.943 150.414 365.575C167.707 381.261 188.094 386.139 210.668 382.081C240.454 376.727 264.119 350.84 266.966 320.798C267.812 311.872 267.948 302.879 268.422 293.656C298.904 306.318 327.114 305.335 351.722 281.706C342.791 272.84 334.565 264.674 326.112 256.282C325.504 256.741 324.447 257.49 323.443 258.305C314.373 265.678 303.913 266.994 293.071 264.252C278.127 260.472 268.086 247.408 268.018 231.963C267.856 195.415 267.955 158.865 267.921 122.316C267.919 119.942 267.685 117.568 267.546 114.942C255.509 114.941 244.081 114.941 231.849 114.941Z" fill="#0050DB"/>
<path d="M231.849 114.941C244.081 114.941 255.51 114.941 267.549 114.941C267.688 117.567 267.922 119.941 267.924 122.315C267.958 158.864 267.859 195.414 268.021 231.962C268.089 247.407 278.131 260.471 293.074 264.251C303.915 266.993 314.376 265.678 323.446 258.304C324.449 257.488 325.507 256.74 326.115 256.281C334.568 264.673 342.794 272.839 351.725 281.705C327.117 305.334 298.906 306.317 268.425 293.655C267.95 302.878 267.815 311.871 266.969 320.797C264.121 350.839 240.456 376.725 210.671 382.08C188.097 386.138 167.709 381.26 150.417 365.574C149.721 364.942 149.057 364.27 148.425 363.574C148.183 363.308 148.072 362.924 148.173 363.12C156.432 354.768 164.565 346.543 173.061 337.95C173.414 338.17 174.57 338.734 175.545 339.522C186.408 348.304 198.556 349.677 211.01 344.298C223.812 338.768 231.113 328.548 231.264 314.327C231.549 287.39 231.448 260.448 231.465 233.508C231.487 196.77 231.461 160.033 231.483 123.295C231.482 120.702 231.703 118.108 231.849 114.941Z" fill="white"/>
</svg>
