<svg width="500" height="501" viewBox="0 0 500 501" fill="none" xmlns="http://www.w3.org/2000/svg">
<path d="M249.1 496.5C385.459 496.5 496 385.959 496 249.6C496 113.241 385.459 2.7002 249.1 2.7002C112.741 2.7002 2.2002 113.241 2.2002 249.6C2.2002 385.959 112.741 496.5 249.1 496.5Z" fill="#B21514"/>
<path d="M248.1 181.7C266.27 181.7 281 166.971 281 148.8C281 130.63 266.27 115.9 248.1 115.9C229.93 115.9 215.2 130.63 215.2 148.8C215.2 166.971 229.93 181.7 248.1 181.7Z" fill="white"/>
<path d="M248.1 409.6C266.27 409.6 281 394.87 281 376.7C281 358.53 266.27 343.8 248.1 343.8C229.93 343.8 215.2 358.53 215.2 376.7C215.2 394.87 229.93 409.6 248.1 409.6Z" fill="white"/>
<path d="M381.6 277.4H112.1V321.4H381.6V277.4Z" fill="white"/>
<path d="M341.1 115.3C341.1 115.4 341.1 115.6 341.1 115.7C341.1 167.4 299 209.4 247.4 209.4C195.7 209.4 153.7 167.3 153.7 115.7C153.7 115.6 153.7 115.4 153.7 115.3H110.7C110.7 115.4 110.7 115.6 110.7 115.7C110.7 191.1 172 252.4 247.4 252.4C322.8 252.4 384.1 191.1 384.1 115.7C384.1 115.6 384.1 115.4 384.1 115.3H341.1Z" fill="white"/>
</svg>
