<svg width="500" height="501" viewBox="0 0 500 501" fill="none" xmlns="http://www.w3.org/2000/svg">
<g clip-path="url(#clip0_1_7263)">
<path d="M249.7 497.5C388 497.5 500 386.7 500 250C500 113.3 388 2.5 249.7 2.5C111.5 2.5 -0.5 113.3 -0.5 250C-0.5 386.7 111.5 497.5 249.7 497.5Z" fill="white"/>
<path d="M495.1 250.1C495.1 385.6 385.2 495.5 249.7 495.5C114.2 495.4 4.3999 385.6 4.3999 250.1C4.3999 114.6 114.2 4.7002 249.7 4.7002C385.3 4.7002 495.1 114.6 495.1 250.1Z" fill="black" stroke="white" stroke-width="9.7927"/>
<path fill-rule="evenodd" clip-rule="evenodd" d="M257.9 151.4C257.9 146.7 254.3 142.8 249.9 142.8C245.5 142.8 241.9 146.6 241.9 151.4C241.9 185.9 241.9 314.5 241.9 349C241.9 353.7 245.5 357.6 249.9 357.6C254.3 357.6 257.9 353.8 257.9 349C257.9 314.5 257.9 185.9 257.9 151.4Z" fill="white"/>
<path fill-rule="evenodd" clip-rule="evenodd" d="M225.7 314.2C221.3 314.2 217.7 318 217.7 322.7C217.7 327.4 221.3 331.3 225.7 331.3C238 331.3 261.3 331.3 273.6 331.3C278 331.3 281.6 327.5 281.6 322.8C281.6 318.1 278 314.2 273.6 314.2C261.3 314.2 238 314.2 225.7 314.2Z" fill="white"/>
<path fill-rule="evenodd" clip-rule="evenodd" d="M186.2 202.3C181.8 202.3 178.2 206.1 178.2 210.8C178.2 215.5 181.8 219.4 186.2 219.4C211.3 219.4 288.2 219.5 313.2 219.5C317.6 219.5 321.2 215.7 321.2 211C321.2 206.3 317.6 202.4 313.2 202.4C288.2 202.4 211.3 202.3 186.2 202.3Z" fill="white"/>
<path fill-rule="evenodd" clip-rule="evenodd" d="M212.6 159C209.5 155.7 204.4 155.7 201.3 159C198.2 162.3 198.2 167.8 201.3 171.1C218.5 189.5 270 244.6 287.2 263C290.3 266.3 295.4 266.3 298.5 263C301.6 259.7 301.6 254.2 298.5 250.9C281.3 232.5 229.7 177.4 212.6 159Z" fill="white"/>
<path fill-rule="evenodd" clip-rule="evenodd" d="M201.4 251.1C198.3 254.4 198.3 259.9 201.4 263.2C204.5 266.5 209.6 266.5 212.7 263.2C229.8 244.8 281.2 189.5 298.4 171.1C301.5 167.8 301.5 162.3 298.4 159C295.3 155.7 290.2 155.7 287.1 159C269.9 177.3 218.5 232.6 201.4 251.1Z" fill="white"/>
<path d="M249.7 470.3C371.3 470.3 469.9 371.7 469.9 250.1C469.9 128.5 371.4 29.9004 249.7 29.9004C128 29.9004 29.5 128.5 29.5 250.1C29.5 371.7 128.1 470.3 249.7 470.3Z" stroke="#F0827D" stroke-width="5.6256"/>
</g>
<defs>
<clipPath id="clip0_1_7263">
<rect width="500" height="500" fill="white" transform="translate(0 0.5)"/>
</clipPath>
</defs>
</svg>
