<svg width="500" height="501" viewBox="0 0 500 501" fill="none" xmlns="http://www.w3.org/2000/svg">
<g clip-path="url(#clip0_1_7272)">
<path d="M477.6 151.9C465.1 121.7 445.4 94.0998 422.4 71.0998C399.4 48.0998 370.5 31.6998 340.3 19.1998C311.4 7.39981 279.2 0.799805 245.7 0.799805C212.2 0.799805 178 2.0998 148.5 13.9998C118.2 26.4998 93.3001 50.0998 70.3001 73.0998C47.3001 96.0998 21.0001 119.8 8.50007 150C-3.29993 178.9 0.600071 214.4 0.600071 247.9C0.600071 281.4 3.20007 314.3 15.1001 343.2C27.6001 373.4 53.2001 394.4 75.5001 417.4C98.5001 440.4 120.2 468 149.1 479.8C178 491.6 211.5 500.2 245 500.2C278.5 500.2 311.4 490.3 340.3 478.5C370.5 466 397.5 446.3 420.5 424C443.5 401 461.2 373.4 474.4 343.2C486.2 314.3 500 281.4 500 248.6C500.6 214.4 489.5 180.9 477.6 151.9ZM316 390.4L262.8 382.5L277.9 280L166.9 365.4L134 322.8L231.9 247.9L134 173L166.9 130.3L277.9 215.7L262.8 113.2L316 105.3L337 247.9L316 390.4Z" fill="#6FC7BA"/>
</g>
<defs>
<clipPath id="clip0_1_7272">
<rect width="500" height="500" fill="white" transform="translate(0 0.5)"/>
</clipPath>
</defs>
</svg>
