<svg width="500" height="501" viewBox="0 0 500 501" fill="none" xmlns="http://www.w3.org/2000/svg">
<g clip-path="url(#clip0_1_7277)">
<path d="M166.2 250.6L314.3 398.7L407.8 305.2C424.5 290.2 450.1 290.8 466 306.7C481.9 322.6 482.6 348.2 467.5 364.9L344.1 488.3C327.5 504.6 301 504.6 284.4 488.3L106.4 310.3V416.1C106.4 439.5 87.4998 458.4 64.0998 458.4C40.6998 458.4 21.7998 439.5 21.7998 416.1V84.8996C21.7998 61.4996 40.6998 42.5996 64.0998 42.5996C87.4998 42.5996 106.4 61.4996 106.4 84.8996V190.7L284.3 12.6996C300.9 -3.60039 327.4 -3.60039 344 12.6996L467.4 136.1C482.4 152.8 481.8 178.4 465.9 194.3C450 210.2 424.4 210.9 407.7 195.8L314.2 102.3L166.2 250.6ZM314.3 208.2C297.2 208.2 281.7 218.5 275.2 234.3C268.7 250.1 272.3 268.3 284.4 280.4C296.5 292.5 314.7 296.1 330.5 289.6C346.3 283 356.6 267.6 356.6 250.5C356.6 239.3 352.2 228.5 344.2 220.6C336.3 212.7 325.6 208.2 314.3 208.2Z" fill="#00D193"/>
</g>
<defs>
<clipPath id="clip0_1_7277">
<rect width="500" height="500" fill="white" transform="translate(0 0.5)"/>
</clipPath>
</defs>
</svg>
