<svg width="500" height="501" viewBox="0 0 500 501" fill="none" xmlns="http://www.w3.org/2000/svg">
<path d="M497.21 248.457C497.199 385.313 386.45 495.794 249.414 495.655C113.803 495.517 3.93214 384.796 3.99514 248.336C4.05814 112.047 114.539 2.42404 251.759 2.50004C387.484 2.57504 497.221 112.538 497.21 248.457ZM267.563 460.005C333.301 459.136 405.977 411.232 438.661 346.69C470.383 284.049 470.527 220.626 441.659 155.985C400.969 179.161 361.39 201.703 320.545 224.967C340.641 235.785 359.062 245.522 377.3 255.589C387.092 260.994 390.148 270.375 385.589 279.101C381.017 287.853 371.328 290.821 361.598 285.698C333.491 270.9 305.356 256.132 277.707 240.513C273.195 237.964 268.425 231.216 268.305 226.298C267.491 192.915 267.635 159.499 268.046 126.1C268.182 115.057 278.19 108.104 288.822 110.32C297.325 112.092 302.222 118.995 302.275 129.902C302.378 151.318 302.305 172.736 302.305 195.884C343.632 172.367 383.55 149.652 423.484 126.928C391.637 73.15 314.459 33.613 245.882 35.953C174.976 38.373 118.68 68.694 75.3351 126.185C116.668 149.679 156.844 172.514 198.244 196.046C198.244 192.036 198.243 190.132 198.244 188.229C198.259 167.673 198.081 147.114 198.38 126.562C198.512 117.464 204.573 111.158 212.917 110.136C221.543 109.08 229.215 113.816 231.382 122.042C232.266 125.397 232.331 129.025 232.379 132.534C232.8 163.021 233.1 193.509 233.513 223.996C233.622 232.07 229.416 237.158 222.688 240.755C195.523 255.275 168.385 269.843 141.21 284.344C129.387 290.653 119.55 288.702 114.571 279.206C109.688 269.894 113.626 260.596 125.3 254.263C143.05 244.634 160.849 235.097 179.839 224.868C138.794 201.574 98.7822 178.867 58.7471 156.146C29.0841 211.785 26.4821 293.961 68.5171 360.313C106.468 420.217 161.362 453.055 231.837 460.924C231.837 411.734 231.837 363.819 231.837 314.679C212.183 326.016 193.89 336.644 175.519 347.134C164.516 353.417 154.788 351.682 149.522 342.749C144.201 333.723 147.355 324.182 158.135 317.872C185.275 301.985 212.28 285.838 239.898 270.822C244.855 268.127 253.942 267.896 258.637 270.696C286.468 287.292 313.651 304.988 340.865 322.603C349.624 328.272 351.633 338.02 346.633 346.108C341.531 354.36 331.502 356.685 322.146 350.975C306.257 341.278 290.678 331.075 274.935 321.138C272.647 319.694 270.173 318.545 267.562 317.139C267.563 365.345 267.563 412.674 267.563 460.005Z" fill="url(#paint0_linear_1_7288)"/>
<defs>
<linearGradient id="paint0_linear_1_7288" x1="3.99514" y1="249.078" x2="497.21" y2="249.078" gradientUnits="userSpaceOnUse">
<stop stop-color="#27BAE3"/>
<stop offset="1" stop-color="#5C469B"/>
</linearGradient>
</defs>
</svg>
