<svg width="500" height="501" viewBox="0 0 500 501" fill="none" xmlns="http://www.w3.org/2000/svg">
<path d="M331.91 190.395H309.19V167.675C309.19 159.802 315.576 153.416 323.449 153.416H331.91C339.783 153.416 346.169 159.802 346.169 167.675V176.139C346.169 184.012 339.783 190.395 331.91 190.395Z" fill="#005FFF"/>
<path d="M198.253 190.395H175.533C167.66 190.395 161.274 184.012 161.274 176.14V167.676C161.274 159.803 167.66 153.417 175.533 153.417H183.994C191.867 153.417 198.253 159.803 198.253 167.676V190.395Z" fill="#005FFF"/>
<path d="M175.533 342.008C167.66 342.008 161.274 335.625 161.274 327.753V319.289C161.274 311.416 167.66 305.03 175.533 305.03H198.253V327.754C198.253 335.627 191.867 342.009 183.994 342.009L175.533 342.008Z" fill="#005FFF"/>
<path d="M323.449 342.008C315.576 342.008 309.19 335.625 309.19 327.753V305.029H331.91C339.783 305.029 346.169 311.415 346.169 319.288V327.752C346.169 335.625 339.783 342.007 331.91 342.007L323.449 342.008Z" fill="#005FFF"/>
<path d="M249.491 157.114C241.618 157.114 235.232 150.728 235.232 142.855V134.391C235.232 126.518 241.618 120.136 249.491 120.136H257.952C265.825 120.136 272.211 126.519 272.211 134.391V142.855C272.211 150.728 265.825 157.114 257.952 157.114H249.491Z" fill="#00CCEE"/>
<path d="M249.491 382.685C241.618 382.685 235.232 376.302 235.232 368.43V359.966C235.232 352.093 241.618 345.707 249.491 345.707H257.952C265.825 345.707 272.211 352.093 272.211 359.966V368.43C272.211 376.303 265.825 382.685 257.952 382.685H249.491Z" fill="#00CCEE"/>
<path d="M360.428 268.051C352.552 268.051 346.169 261.668 346.169 253.796V245.332C346.169 237.459 352.552 231.073 360.428 231.073H368.889C376.762 231.073 383.148 237.459 383.148 245.332V253.796C383.148 261.669 376.762 268.051 368.889 268.051H360.428Z" fill="#00CCEE"/>
<path d="M134.857 268.051C126.98 268.051 120.598 261.668 120.598 253.796V245.332C120.598 237.459 126.981 231.073 134.857 231.073H143.318C151.191 231.073 157.577 237.459 157.577 245.332V253.796C157.577 261.669 151.191 268.051 143.318 268.051H134.857Z" fill="#00CCEE"/>
<path d="M298.943 232.477C304.601 232.477 309.19 227.84 309.19 222.119V194.093H280.964C275.306 194.093 270.713 198.726 270.713 204.447L270.717 213.658C270.713 224.053 262.9 232.998 252.612 232.998C242.328 232.998 233.472 224.053 233.472 213.658V204.073C233.472 198.559 229.049 194.092 223.591 194.092H198.253V308.727H223.384C228.957 308.727 233.472 304.164 233.472 298.539V289.908C233.472 278.959 241.463 269.766 251.751 269.766C262.035 269.803 270.717 278.574 270.717 288.965L270.713 298.454C270.717 304.127 275.269 308.727 280.882 308.727H309.189V280.383C309.189 274.714 304.637 270.114 299.02 270.114H290.567C280.279 270.114 270.717 261.69 270.717 251.295C270.754 240.9 279.089 232.476 289.377 232.476H298.94L298.943 232.477Z" fill="#003EC5"/>
<path d="M309.785 383.673C316.386 380.94 323.955 384.076 326.688 390.677C329.428 397.281 326.289 404.847 319.688 407.584C313.087 410.317 305.518 407.185 302.781 400.58C300.049 393.975 303.185 386.409 309.785 383.673Z" fill="#0054FF"/>
<path d="M191.453 95.2372C198.054 92.5042 205.627 95.6402 208.36 102.241C211.093 108.845 207.957 116.411 201.356 119.148C194.752 121.881 187.182 118.749 184.449 112.144C181.716 105.539 184.852 97.9732 191.453 95.2372Z" fill="#0054FF"/>
<path d="M384.135 197.195C381.402 190.591 384.538 183.025 391.139 180.288C397.743 177.555 405.306 180.691 408.046 187.292C410.779 193.896 407.643 201.466 401.042 204.199C394.438 206.932 386.868 203.8 384.135 197.195Z" fill="#0044FF"/>
<path d="M99.3969 315.528C96.6639 308.927 99.7999 301.358 106.401 298.625C113.005 295.885 120.568 299.024 123.308 305.625C126.041 312.226 122.905 319.799 116.304 322.532C109.7 325.264 102.13 322.132 99.3969 315.528Z" fill="#0054FF"/>
<path d="M99.3973 187.292C102.137 180.691 109.699 177.555 116.304 180.288C122.905 183.024 126.041 190.594 123.308 197.195C120.568 203.799 113.006 206.932 106.401 204.199C99.8013 201.466 96.6653 193.897 99.3973 187.292Z" fill="#002DAE"/>
<path d="M306.088 119.147C299.487 116.411 296.351 108.845 299.084 102.24C301.817 95.6393 309.386 92.5033 315.991 95.2363C322.592 97.9723 325.728 105.538 322.995 112.143C320.262 118.748 312.688 121.88 306.088 119.147Z" fill="#002DAE"/>
<path d="M384.135 305.625C386.875 299.024 394.441 295.885 401.042 298.625C407.643 301.358 410.779 308.927 408.046 315.528C405.313 322.132 397.744 325.265 391.139 322.532C384.538 319.799 381.403 312.226 384.135 305.625Z" fill="#00CCEE"/>
<path d="M184.057 411.281C177.456 408.545 174.317 400.979 177.057 394.374C179.79 387.773 187.359 384.637 193.96 387.37C200.561 390.106 203.697 397.672 200.964 404.277C198.227 410.882 190.658 414.014 184.057 411.281Z" fill="#0081E9"/>
<path d="M374.221 373.759C377.113 370.871 381.791 370.871 384.679 373.759C387.567 376.647 387.567 381.329 384.679 384.217C381.791 387.105 377.113 387.105 374.221 384.217C371.333 381.328 371.333 376.647 374.221 373.759Z" fill="#002DAE"/>
<path d="M122.764 118.604C125.652 115.716 130.334 115.716 133.222 118.604C136.11 121.492 136.11 126.174 133.222 129.062C130.334 131.95 125.652 131.95 122.764 129.062C119.876 126.173 119.876 121.492 122.764 118.604Z" fill="#0099C0"/>
<path d="M374.221 129.061C371.333 126.173 371.333 121.491 374.221 118.603C377.113 115.715 381.791 115.715 384.679 118.603C387.567 121.491 387.567 126.173 384.679 129.061C381.791 131.95 377.113 131.95 374.221 129.061Z" fill="#0099C0"/>
<path d="M122.764 384.216C119.876 381.328 119.876 376.646 122.764 373.758C125.652 370.87 130.334 370.87 133.222 373.758C136.11 376.646 136.11 381.328 133.222 384.216C130.334 387.104 125.652 387.104 122.764 384.216Z" fill="#0099C0"/>
<path d="M427.523 249.565C427.523 245.479 430.836 242.166 434.915 242.166C439.001 242.166 442.314 245.479 442.314 249.565C442.314 253.644 439.001 256.957 434.915 256.957C430.836 256.957 427.523 253.644 427.523 249.565Z" fill="#0099C0"/>
<path d="M68.8271 249.565C68.8271 245.479 72.1371 242.166 76.2231 242.166C80.3051 242.166 83.6191 245.479 83.6191 249.565C83.6191 253.644 80.3061 256.957 76.2231 256.957C72.1371 256.957 68.8271 253.644 68.8271 249.565Z" fill="#0099C0"/>
<path d="M253.725 79.458C249.639 79.458 246.326 76.148 246.326 72.062C246.326 67.976 249.639 64.666 253.725 64.666C257.804 64.666 261.117 67.976 261.117 72.062C261.117 76.148 257.804 79.458 253.725 79.458Z" fill="#0099C0"/>
<path d="M253.725 438.154C249.639 438.154 246.326 434.841 246.326 430.758C246.326 426.672 249.639 423.362 253.725 423.362C257.804 423.362 261.117 426.672 261.117 430.758C261.117 434.84 257.804 438.154 253.725 438.154Z" fill="#83FFEE"/>
<path d="M482.991 249.561C482.991 253.64 486.308 256.957 490.387 256.957C494.466 256.957 497.783 253.64 497.783 249.561C497.783 245.482 494.466 242.165 490.387 242.165C486.308 242.165 482.991 245.482 482.991 249.561Z" fill="#005FFF"/>
<path d="M7.81214 245.863C4.75414 245.863 2.26514 248.348 2.26514 251.41C2.26514 254.472 4.75414 256.957 7.81214 256.957C10.8741 256.957 13.3591 254.472 13.3591 251.41C13.3591 248.348 10.8741 245.863 7.81214 245.863Z" fill="#005FFF"/>
<path d="M242.628 12.896C242.628 16.975 245.945 20.292 250.024 20.292C254.103 20.292 257.42 16.975 257.42 12.896C257.42 8.817 254.103 5.5 250.024 5.5C245.945 5.5 242.628 8.817 242.628 12.896Z" fill="#00CCEE"/>
<path d="M461.677 337.697C459.299 343.329 461.951 349.852 467.583 352.23C468.988 352.822 470.449 353.103 471.884 353.103C476.214 353.103 480.334 350.559 482.12 346.328C484.498 340.689 481.85 334.173 476.214 331.792C470.574 329.406 464.054 332.061 461.677 337.697Z" fill="#00CCEE"/>
<path d="M341.647 457.227C340.726 456.839 339.754 456.643 338.777 456.643C337.834 456.643 336.891 456.828 335.992 457.19C334.162 457.933 332.73 459.346 331.961 461.165C331.196 462.981 331.181 464.989 331.924 466.819C332.667 468.649 334.08 470.081 335.899 470.846C337.715 471.615 339.719 471.634 341.553 470.887C343.383 470.144 344.815 468.735 345.584 466.912C346.349 465.096 346.364 463.088 345.621 461.258C344.879 459.431 343.47 458 341.647 457.227Z" fill="#00CCEE"/>
<path d="M34.7213 150.302C33.7973 149.914 32.8243 149.718 31.8443 149.718C30.9083 149.718 29.9653 149.903 29.0673 150.265C27.2333 151.008 25.8023 152.421 25.0363 154.24C24.2713 156.056 24.2563 158.067 24.9993 159.894C25.7423 161.724 27.1513 163.156 28.9743 163.921C30.7903 164.69 32.7983 164.705 34.6283 163.958C36.4583 163.215 37.8903 161.806 38.6593 159.986C39.4243 158.17 39.4393 156.159 38.6963 154.332C37.9533 152.502 36.5413 151.075 34.7213 150.302Z" fill="#00CCEE"/>
<path d="M14.087 340.263C16.073 335.559 21.494 333.359 26.198 335.341C30.902 337.327 33.102 342.748 31.12 347.452C29.134 352.156 23.713 354.356 19.009 352.374C14.305 350.388 12.105 344.963 14.087 340.263Z" fill="#83FFEE"/>
<path d="M337.028 34.3553C332.324 32.3693 330.124 26.9483 332.106 22.2443C334.092 17.5403 339.513 15.3403 344.217 17.3223C348.921 19.3083 351.121 24.7293 349.139 29.4333C347.153 34.1363 341.728 36.3373 337.028 34.3553Z" fill="#83FFEE"/>
<path d="M475.359 146.43C473.987 146.988 472.911 148.046 472.338 149.41C471.761 150.775 471.75 152.283 472.308 153.655C472.866 155.023 473.924 156.099 475.288 156.672C476.653 157.249 478.161 157.26 479.53 156.702C480.902 156.144 481.978 155.09 482.555 153.725C483.742 150.907 482.418 147.649 479.604 146.459C478.909 146.163 478.18 146.019 477.448 146.019C476.742 146.02 476.032 146.157 475.359 146.43Z" fill="#83FFEE"/>
<path d="M150.617 27.3772C149.426 30.1952 150.75 33.4532 153.568 34.6432C154.936 35.2242 156.445 35.2272 157.813 34.6732C159.185 34.1152 160.261 33.0532 160.838 31.6892C162.029 28.8712 160.701 25.6172 157.883 24.4302C157.18 24.1302 156.452 23.9902 155.735 23.9902C153.568 23.9892 151.508 25.2622 150.617 27.3772Z" fill="#005FFF"/>
<path d="M152.037 464.039C149.874 464.039 147.814 465.311 146.919 467.43C145.728 470.244 147.056 473.506 149.874 474.696C152.692 475.887 155.953 474.559 157.14 471.741C158.331 468.927 157.007 465.665 154.189 464.478C153.487 464.179 152.758 464.039 152.037 464.039Z" fill="#50E7F0"/>
<path d="M414.266 424.897C417.15 422.009 417.15 417.32 414.266 414.439C412.868 413.038 411.008 412.268 409.033 412.268C407.055 412.268 405.198 413.037 403.8 414.439C400.916 417.32 400.916 422.009 403.8 424.897C406.685 427.781 411.374 427.785 414.266 424.897Z" fill="#50E7F0"/>
<path d="M68.3721 75.309C64.0491 79.636 64.0491 86.68 68.3721 91.003C70.5391 93.166 73.3791 94.25 76.2231 94.25C79.0671 94.25 81.9071 93.167 84.0741 91.003C88.3971 86.68 88.3971 79.636 84.0741 75.309C79.7431 70.979 72.6991 70.979 68.3721 75.309Z" fill="#50E7F0"/>
<path d="M418.056 77.3828C417.006 78.4328 416.429 79.8238 416.429 81.3058C416.429 82.7888 417.006 84.1828 418.056 85.2258C420.216 87.3968 423.74 87.3928 425.899 85.2298C428.062 83.0668 428.062 79.5458 425.903 77.3828C424.82 76.2998 423.4 75.7598 421.98 75.7598C420.556 75.7598 419.136 76.2998 418.056 77.3828Z" fill="#50E7F0"/>
<path d="M70.4499 413.895C68.2869 416.055 68.2869 419.579 70.4459 421.738C72.6129 423.905 76.1369 423.901 78.2969 421.738C80.4599 419.578 80.4599 416.054 78.2969 413.895C77.2499 412.845 75.8559 412.268 74.3739 412.268C72.8909 412.268 71.5009 412.845 70.4499 413.895Z" fill="#00CCEE"/>
<path d="M246.326 485.237C246.326 489.316 249.643 492.633 253.722 492.633C257.801 492.633 261.118 489.316 261.118 485.237C261.118 481.158 257.801 477.841 253.722 477.841C249.643 477.841 246.326 481.158 246.326 485.237Z" fill="#00CCEE"/>
</svg>
