<svg width="500" height="501" viewBox="0 0 500 501" fill="none" xmlns="http://www.w3.org/2000/svg">
<path d="M365.7 297.9C359 291.2 347.3 291.2 340.6 297.9L286.8 351.7L237.3 302.2C208.6 273.5 208.6 226.9 237.3 198.3L354.5 80.9996C354.8 80.6996 355.3 80.4996 355.8 80.4996H437.5L252.3 265.7L277.4 290.8L492.4 75.6996C497.6 70.5996 499.2 62.8996 496.4 56.1996C493.6 49.4996 487.1 45.0996 479.8 45.0996H355.8C345.8 45.0996 336.5 48.9996 329.4 55.9996L212.3 173.1C173.6 211.8 170.3 272.7 202.2 315.3L97.7001 419.7H37.6001V82.2996H100.6V362.1L136.1 328.4V78.6996C136.1 61.0996 121.8 46.7996 104.2 46.7996H34.0001C16.4001 46.7996 2.1001 61.0996 2.1001 78.6996V455.2H112.4L226.4 341.2L261.9 376.7L184.3 454.3L234 454.8L353.2 335.5L436.5 418.8H356.9L335.9 397.8L310.8 422.9L337 449.1C340.3 452.4 344.8 454.3 349.5 454.3H479.3C486.5 454.3 492.9 450 495.7 443.3C498.4 436.7 496.9 429 491.9 424L365.7 297.9Z" fill="url(#paint0_linear_1_7334)"/>
<defs>
<linearGradient id="paint0_linear_1_7334" x1="25.6049" y1="478.717" x2="473.314" y2="31.0077" gradientUnits="userSpaceOnUse">
<stop stop-color="#0F90FF"/>
<stop offset="0.5008" stop-color="#7D23BA"/>
<stop offset="1" stop-color="#FF0476"/>
</linearGradient>
</defs>
</svg>
