<svg width="500" height="501" viewBox="0 0 500 501" fill="none" xmlns="http://www.w3.org/2000/svg">
<path d="M264.4 224H148.8L90.7002 324.3L148.8 424.6H264.4L322.4 324.3L264.4 224Z" fill="#1B5784"/>
<path d="M322.4 324.3L264.4 224H148.8L206.3 324.3H322.4Z" fill="#4CC2F1"/>
<path d="M148.8 224L90.7002 324.3L148.8 424.6L206.3 324.3L148.8 224Z" fill="#348EBC"/>
<path d="M421.9 51.4L308.1 249.1L336.4 298.9L450.7 101.1L421.9 51.4ZM393.1 1.5H364.2L250.4 199.3H279.3L286.2 211.3L293.5 223.9L407.3 26.2L393.1 1.5ZM278.2 1.5L163.9 199.3H221L335.3 1.5H278.2Z" fill="#26364B"/>
<path d="M464.9 126.4L278.7 449.6H134.4L62.5999 324.7L185.9 111.2H128.6L5.3999 324.7L106.1 498.9H307L493.8 175.7L464.9 126.4Z" fill="#26364B"/>
</svg>
