<svg width="500" height="501" viewBox="0 0 500 501" fill="none" xmlns="http://www.w3.org/2000/svg">
<g clip-path="url(#clip0_1_7347)">
<path d="M500 434.9C500 471.1 470.7 500.4 434.5 500.4H65.8C29.6 500.4 0.300049 471.1 0.300049 434.9V66.0996C0.300049 29.8996 29.6 0.599609 65.8 0.599609H434.5C470.7 0.599609 500 29.8996 500 66.0996V434.9Z" fill="white"/>
<path d="M422.5 421.1H250.1L422.5 250.5V421.1Z" fill="url(#paint0_linear_1_7347)"/>
<path d="M422.5 421.1H79.6001V78.2002L422.5 421.1Z" fill="url(#paint1_linear_1_7347)"/>
<path opacity="0.14" d="M422.5 422.8L336.3 336.6L351.8 322.8L422.5 422.8Z" fill="url(#paint2_linear_1_7347)"/>
</g>
<defs>
<linearGradient id="paint0_linear_1_7347" x1="336.303" y1="249.724" x2="336.303" y2="421.434" gradientUnits="userSpaceOnUse">
<stop stop-color="#FF4681"/>
<stop offset="1" stop-color="#9B44F6"/>
</linearGradient>
<linearGradient id="paint1_linear_1_7347" x1="-2.1294" y1="167.956" x2="341.324" y2="511.392" gradientUnits="userSpaceOnUse">
<stop stop-color="#FF4681"/>
<stop offset="0.739" stop-color="#9B44F6"/>
</linearGradient>
<linearGradient id="paint2_linear_1_7347" x1="377.883" y1="334.949" x2="353.723" y2="398.779" gradientUnits="userSpaceOnUse">
<stop/>
<stop offset="1"/>
</linearGradient>
<clipPath id="clip0_1_7347">
<rect width="500" height="500" fill="white" transform="translate(0 0.5)"/>
</clipPath>
</defs>
</svg>
