<svg width="500" height="501" viewBox="0 0 500 501" fill="none" xmlns="http://www.w3.org/2000/svg">
<g clip-path="url(#clip0_1_7352)">
<path d="M1.59998 250.7C1.59998 388.7 113.5 500.6 251.6 500.5C389.6 500.5 501.5 388.6 501.4 250.5C501.4 231 499.1 211.5 494.6 192.6C491.1 178.2 476.6 169.3 462.2 172.8C447.8 176.3 438.9 190.8 442.4 205.2C467.4 310.6 402.3 416.4 296.9 441.4C191.4 466.5 85.7 401.3 60.6 295.9C35.5 190.5 100.8 84.7 206.2 59.7C236.1 52.6 267.2 52.6 297.1 59.7C311.5 63.1 326 54.2 329.5 39.7C332.9 25.3 324 10.8 309.5 7.30002C175.3 -24.7 40.5 58.1 8.49998 192.3C3.89998 211.5 1.59998 231 1.59998 250.7Z" fill="url(#paint0_radial_1_7352)"/>
<path d="M341.6 229C341.1 227.4 340.6 225.7 340.2 224.1C340.2 223.9 340.2 223.6 340.2 223.3C331.2 184.9 355.1 146.5 393.5 137.5C396.7 136.7 400 136.2 403.4 135.9H404.9C406.4 135.9 407.9 135.9 409.5 135.9H409.8C419 135 427.7 131 434.2 124.4C435.8 122.8 437.2 121.1 438.5 119.2C451.7 101.6 448.1 76.6002 430.5 63.5002C414.4 51.4002 391.8 53.3002 377.9 67.8002C377.6 68.1002 377.3 68.5002 377 68.9002C370.9 75.4002 367.2 83.7002 366.4 92.5002C366.4 93.9002 366.4 95.3002 366.4 96.8002C366.4 98.2002 366.4 98.7002 366.1 99.7002C362.3 138.9 327.4 167.6 288.1 163.8C284.9 163.5 281.7 163 278.6 162.2C276.8 161.8 275 161.3 273.3 160.7C265.7 158.9 257.9 158 250.2 158.1C227.4 158.5 205.6 167.3 189 182.8C188.1 183.7 187.1 184.4 186.2 185.3C151.4 222.7 153.4 281.2 190.8 316C226.3 349.1 281.5 349.1 317 316C339.3 293.1 348.6 260.4 341.6 229Z" fill="url(#paint1_linear_1_7352)"/>
</g>
<defs>
<radialGradient id="paint0_radial_1_7352" cx="0" cy="0" r="1" gradientUnits="userSpaceOnUse" gradientTransform="translate(403.296 91.2711) scale(216.533 216.533)">
<stop stop-color="#00EDD3"/>
<stop offset="0.42" stop-color="#00EDD3"/>
<stop offset="0.94" stop-color="#1B456E"/>
<stop offset="1" stop-color="#1B456E"/>
</radialGradient>
<linearGradient id="paint1_linear_1_7352" x1="186.097" y1="316.084" x2="434.279" y2="67.9023" gradientUnits="userSpaceOnUse">
<stop stop-color="#1B456E"/>
<stop offset="0.06" stop-color="#1B456E"/>
<stop offset="0.58" stop-color="#00EDD3"/>
<stop offset="1" stop-color="#00EDD3"/>
</linearGradient>
<clipPath id="clip0_1_7352">
<rect width="500" height="500" fill="white" transform="translate(0 0.5)"/>
</clipPath>
</defs>
</svg>
