<svg width="500" height="501" viewBox="0 0 500 501" fill="none" xmlns="http://www.w3.org/2000/svg">
<g clip-path="url(#clip0_1_7355)">
<path d="M230 249.5L416 355.9C422.5 359.6 430.6 354.9 430.6 347.5V151.5C430.6 144 422.5 139.4 416 143.1L230 249.5Z" fill="#31CB9E"/>
<path d="M411.9 95.8996L284.8 2.4996C278.9 -1.8004 270.5 1.2996 268.9 8.1996L222.5 216L410.6 111.9C417 108.5 417.5 100.1 411.9 95.8996Z" fill="#31CB9E"/>
<path d="M284.7 496.4L411.9 403C417.6 398.8 417 390.4 410.9 387L222.6 282.9L269 490.7C270.4 497.7 278.9 500.7 284.7 496.4Z" fill="#31CB9E"/>
<path d="M181.7 245.8L229.8 19.8001C231.7 10.9001 221.7 4.50012 214.5 10.0001L91.4 104.9C85.1 109.7 81.4 117.4 81.4 125.4V366.2C81.4 374.2 85.1 381.8 91.4 386.7L214.5 481.5C221.6 487 231.6 480.6 229.8 471.7L181.7 245.8Z" fill="#31CB9E"/>
</g>
<defs>
<clipPath id="clip0_1_7355">
<rect width="500" height="500" fill="white" transform="translate(0 0.5)"/>
</clipPath>
</defs>
</svg>
