<svg width="500" height="501" viewBox="0 0 500 501" fill="none" xmlns="http://www.w3.org/2000/svg">
<g clip-path="url(#clip0_1_7360)">
<path d="M499.5 1.09961H0.599976V500H499.5V1.09961Z" fill="black" stroke="black" stroke-width="1.1338" stroke-miterlimit="11.3379"/>
<path d="M423.6 144.9C417.7 140.3 410.7 133.9 397.9 132.3C385.9 130.7 373.6 138.8 365.4 144.1C357.1 149.4 341.5 165.1 335 169.8C328.5 174.5 312 179 285.3 195C258.6 211 154.1 278.1 154.1 278.1L181.3 278.4L60 341H72.1L54.6 354.3C54.6 354.3 70 358.4 82.9 350.2V353.9C82.9 353.9 227.3 297 255.2 311.7L238.2 316.7C239.7 316.7 267.1 318.5 267.1 318.5C268.4 330 274.8 340.3 284.6 346.6C301.2 357.5 301.5 363.5 301.5 363.5C301.5 363.5 292.9 367 292.9 371.4C292.9 371.4 305.6 367.5 317.4 367.9C324.9 368.2 332.3 369.4 339.5 371.4C339.5 371.4 338.6 366.6 327.1 363.5C315.6 360.3 304.3 347.9 298.8 341.1C291.9 332.3 290.1 320.5 294.2 310C298.2 299.7 312 294 340.6 279.3C374.3 261.8 382 248.9 386.7 238.8C391.5 228.7 398.5 208.6 402.5 199.2C407.5 187.1 413.6 180.6 418.7 176.8C423.8 172.9 446.5 164.4 446.5 164.4C446.5 164.4 429.1 149.4 423.6 144.9Z" fill="white"/>
</g>
<defs>
<clipPath id="clip0_1_7360">
<rect width="500" height="500" fill="white" transform="translate(0 0.5)"/>
</clipPath>
</defs>
</svg>
