<svg width="500" height="501" viewBox="0 0 500 501" fill="none" xmlns="http://www.w3.org/2000/svg">
<path d="M135.7 227.4L135.4 227.7C122.9 240.1 122.9 260.3 135.3 272.8L135.6 273.1C148 285.6 168.2 285.6 180.7 273.2L181 272.9C193.5 260.5 193.5 240.3 181.1 227.8L180.8 227.5C168.4 215.1 148.2 215 135.7 227.4Z" fill="#02D767"/>
<path d="M159.8 91.7002L125.7 125.7L125.9 125.9L34.8 216.6V216.5L1 250L1.1 250.1L1 250.3L34.4 283.8L158.7 409.3C158.7 409.3 188.1 370.5 159.2 341.5L68.2 250.1L159.2 159.4L205.2 205.6C244.4 245 272.3 204.7 272.3 204.7L159.8 91.7002Z" fill="#02D767"/>
<path d="M496.6 250.8L497 250.4L339.9 92.5C339.9 92.5 311 130.2 338.4 157.7L431.2 250.9L340.4 341.4L297.9 298.8C267.5 268.2 227.1 295.9 227.1 295.9L339.1 408.3L373.2 374.3L496.9 251.1L496.6 250.8Z" fill="#02D767"/>
<path d="M317.4 227.4L317.1 227.7C304.6 240.1 304.6 260.3 317 272.8L317.3 273.1C329.7 285.6 349.9 285.6 362.4 273.2L362.7 272.9C375.2 260.5 375.2 240.3 362.8 227.8L362.5 227.5C350.1 215.1 329.9 215 317.4 227.4Z" fill="#02D767"/>
</svg>
