<svg width="500" height="501" viewBox="0 0 500 501" fill="none" xmlns="http://www.w3.org/2000/svg">
<g clip-path="url(#clip0_1_7373)">
<path d="M250 0.5C388.1 0.5 500 112.4 500 250.5C500 388.6 388.1 500.5 250 500.5C111.9 500.5 0 388.6 0 250.5C0 112.4 111.9 0.5 250 0.5ZM250 23.8C124.8 23.8 23.3 125.3 23.3 250.5C23.3 375.7 124.8 477.2 250 477.2C375.2 477.2 476.7 375.7 476.7 250.5C476.7 125.3 375.2 23.8 250 23.8Z" fill="#E53935"/>
<path d="M397 158.5V137.3H329.9C326.3 123.6 322.7 111.5 318.8 100.4L296.2 104.3C300.5 115.1 304.3 126.1 307.7 137.2H236.6V158.5H397ZM225.1 316V180.7H192C198.9 170.6 205.8 158.2 212.6 143.2V127.5H158.6C161.5 121 164.2 114.5 166.8 107.6L145.8 101.1C136 133.1 120.6 158.8 100 178.7L104.9 201.8C109.1 197.9 113.4 194 117.3 189.7V315.9H225.1V316ZM169.4 180.7H125.5C134.4 169.8 142.4 158.3 149.4 146.1H190.7C183.5 159.2 176.6 170.9 169.4 180.7ZM304.4 400.5C320.8 400.5 329.3 391.4 329.3 373.4V280.5H381.4V187.9H253.9V280.5H306.3V367.9C306.3 376 303 380.3 296.5 380.3C289 380.3 281.1 379.7 273.2 378.7L277.8 400.5H304.4ZM161.9 238.8H137.7V200H161.9V238.8ZM204.8 238.8H180.9V200H204.8V238.8ZM359.1 260H276.2V208.8H359.1V260ZM204.8 296.5H180.9V257.7H204.8V296.5ZM161.9 296.5H137.7V257.7H161.9V296.5ZM382.6 385.5L400 373.4C391.2 352.5 378.7 328.4 362.3 300.7L345 311.2C360.7 338.2 373.5 363 382.6 385.5ZM245.4 391C259.8 368.5 272.3 341.8 282.7 311.1L263.7 302C253.6 331.3 241.4 356.8 227.7 378.3L245.4 391ZM218.2 368.9L234.2 365C229.6 349.4 225 335.6 219.8 323.9L204.4 328.5C209.8 341.6 214.4 355.1 218.2 368.9ZM183.5 387.8L200.5 385.8C198.5 361 194.9 341.5 189.7 327.1L173.3 329.1C178.6 342.8 181.9 362.4 183.5 387.8ZM121 396.6C127.9 377.4 132.1 355.5 134.1 330.7L116.4 328.4C114.8 351.9 110.2 372.7 103 391C102.9 391 121 396.6 121 396.6ZM148.5 392.7L165.5 390.7C164.8 364.9 163.2 344.4 160.9 329.4L145.2 331.4C146.8 345.7 147.8 366.3 148.5 392.7Z" fill="#E53935"/>
</g>
<defs>
<clipPath id="clip0_1_7373">
<rect width="500" height="500" fill="white" transform="translate(0 0.5)"/>
</clipPath>
</defs>
</svg>
