<svg width="500" height="501" viewBox="0 0 500 501" fill="none" xmlns="http://www.w3.org/2000/svg">
<path d="M497.6 89.0004V22.4004C497.6 16.0004 491.2 11.6004 485.3 13.9004L239.2 108.6L283.4 16.4004C286.3 10.4004 281.9 3.40039 275.2 3.40039H209.2C205.7 3.40039 202.5 5.40039 201 8.50039L142.3 129.6L96.9 9.30039C95.6 5.80039 92.2 3.40039 88.4 3.40039H21.5C15.1 3.40039 10.7 9.80039 13 15.7004L108.1 263L16.9 220.3C10.9 217.5 4 221.9 4 228.5V291.8C4 295.3 6 298.4 9.1 300L127.8 358.2L9.8 403C6.3 404.3 4 407.7 4 411.5V478.2C4 484.6 10.4 488.9 16.3 486.7L263.8 393L218.6 484C215.6 490 220 497.1 226.7 497.1H293.9C297.4 497.1 300.6 495.1 302.1 492L358.5 375.2L403.6 491.4C405 494.9 408.3 497.2 412.1 497.2H478.8C485.2 497.2 489.6 490.8 487.3 484.9L394.4 240.4L483.5 280.5C489.5 283.2 496.3 278.8 496.3 272.2V208.7C496.3 205.2 494.3 202.1 491.2 200.5L372.9 142.7L491.9 97.6004C495.3 96.1004 497.6 92.8004 497.6 89.0004ZM308.9 291.1L232.4 320C223.5 316 218.6 313.8 209.7 309.8L180.8 233.3C184.8 224.4 187 219.5 191 210.6L267.5 181.7C276.4 185.7 281.3 187.9 290.2 191.9L319.1 268.4C315.1 277.2 312.9 282.2 308.9 291.1Z" fill="url(#paint0_linear_1_7377)"/>
<defs>
<linearGradient id="paint0_linear_1_7377" x1="10.8399" y1="10.3273" x2="489.999" y2="489.486" gradientUnits="userSpaceOnUse">
<stop stop-color="#38BFB4"/>
<stop offset="1" stop-color="#1281A0"/>
</linearGradient>
</defs>
</svg>
