<svg width="500" height="501" viewBox="0 0 500 501" fill="none" xmlns="http://www.w3.org/2000/svg">
<path d="M33.0429 459.331C43.3769 441.413 52.9579 424.799 63.2209 407.004C42.9679 407.004 23.8379 407.004 2.12988 407.004C75.6839 280.406 148.188 155.618 221.463 29.5C231.901 47.637 241.597 64.485 251.759 82.143C262.158 64.41 272.012 47.605 282.628 29.502C354.292 155.423 425.215 280.042 497 406.177C475.952 406.177 456.808 406.177 435.835 406.177C446.193 424.542 455.735 441.458 465.816 459.331C321.389 459.331 178.071 459.331 33.0429 459.331ZM251.434 133.175C203.129 216.347 155.693 298.021 107.887 380.333C203.504 380.333 297.182 380.333 392.085 380.333C345.135 297.831 298.76 216.338 251.434 133.175ZM266.087 107.619C318.225 199.211 369.922 290.028 421.434 380.521C432.343 380.521 442.341 380.521 453.574 380.521C396.437 280.121 339.806 180.609 282.366 79.677C276.479 89.783 271.466 98.387 266.087 107.619ZM221.215 79.751C162.492 180.817 104.74 280.211 46.5229 380.407C58.0339 380.407 68.3099 380.407 78.4879 380.407C88.7949 362.725 98.8569 345.518 108.867 328.281C150.24 257.038 191.644 185.813 232.809 114.45C234.616 111.318 235.788 106.214 234.498 103.214C231.204 95.553 226.349 88.563 221.215 79.751ZM407.291 407.157C301.754 407.157 197.092 407.157 92.1359 407.157C87.0919 416.052 82.1719 424.727 76.9659 433.905C192.692 433.905 307.041 433.905 422.521 433.905C417.014 424.233 412.061 415.533 407.291 407.157Z" fill="black"/>
</svg>
