<svg width="500" height="501" viewBox="0 0 500 501" fill="none" xmlns="http://www.w3.org/2000/svg">
<path d="M249.8 493.852C384.42 493.852 493.551 384.721 493.551 250.1C493.551 115.48 384.42 6.34863 249.8 6.34863C115.179 6.34863 6.04785 115.48 6.04785 250.1C6.04785 384.721 115.179 493.852 249.8 493.852Z" fill="#00A5C5"/>
<path d="M266.61 332.051L170.791 427.871L143.474 398.453L209.875 332.051L140.952 263.128L170.371 233.71L266.61 332.051ZM322.505 276.997L351.924 247.579L283.001 178.656L349.402 112.254L322.085 82.8359L225.845 178.656L322.505 276.997ZM182.558 222.363L279.218 320.704L308.637 291.286L211.976 194.626L182.558 222.363Z" fill="white"/>
</svg>
