<svg width="500" height="501" viewBox="0 0 500 501" fill="none" xmlns="http://www.w3.org/2000/svg">
<path d="M249.7 498.1C386.169 498.1 496.8 387.47 496.8 251C496.8 114.531 386.169 3.90039 249.7 3.90039C113.23 3.90039 2.59961 114.531 2.59961 251C2.59961 387.47 113.23 498.1 249.7 498.1Z" fill="#11021E"/>
<path d="M214.1 117.4L247.5 98.9004L321.5 142.4V224.7L271.8 245.1V210.2H308V150L247.5 114.8L227.9 125L214.1 117.4Z" fill="url(#paint0_linear_1_7398)"/>
<path d="M159.9 328.9L132.6 309.6V248.7L180.1 225L225.9 244.6V210.6H177.2L119.5 241V316.4L151.2 339.8L159.9 328.9Z" fill="url(#paint1_linear_1_7398)"/>
<path d="M252.8 297.6V329.3L289.8 357.5L352.5 313.3V284H366.4V320.2L290.1 374.3L239.2 335.6V297.6L198.4 254.4H294.6L252.8 297.6Z" fill="url(#paint2_linear_1_7398)"/>
<path d="M186.9 285.7V347.4L246.5 378.1L267.1 370.1L273 382.3L246.2 393.5L173 355.8V285.4L186.9 285.7Z" fill="url(#paint3_linear_1_7398)"/>
<path d="M310.7 284L365.4 249.5V186.4L339.3 164.8L348.7 154.3L380.7 180.1V257.2L318.3 295.8L310.7 284Z" fill="url(#paint4_linear_1_7398)"/>
<path d="M132.9 215.3V176.6L196 138.6L246.2 167.6L253.5 155.7L195.3 122.6L119.6 168.6V215.7L132.9 215.3Z" fill="url(#paint5_linear_1_7398)"/>
<path d="M225.9 244.6L180.1 225L225.9 210.6V244.6Z" fill="url(#paint6_linear_1_7398)"/>
<path d="M271.8 245.1V210.2L321.5 224.7L271.8 245.1Z" fill="url(#paint7_linear_1_7398)"/>
<defs>
<linearGradient id="paint0_linear_1_7398" x1="267.775" y1="245.065" x2="267.775" y2="98.8526" gradientUnits="userSpaceOnUse">
<stop stop-color="#F2792B"/>
<stop offset="1" stop-color="#FAEC32"/>
</linearGradient>
<linearGradient id="paint1_linear_1_7398" x1="172.704" y1="339.755" x2="172.704" y2="210.599" gradientUnits="userSpaceOnUse">
<stop stop-color="#F26E2A"/>
<stop offset="0.7363" stop-color="#FAEB32"/>
</linearGradient>
<linearGradient id="paint2_linear_1_7398" x1="282.435" y1="374.28" x2="282.435" y2="254.362" gradientUnits="userSpaceOnUse">
<stop stop-color="#F26E2A"/>
<stop offset="0.7951" stop-color="#FAEB32"/>
</linearGradient>
<linearGradient id="paint3_linear_1_7398" x1="222.998" y1="393.453" x2="222.998" y2="285.387" gradientUnits="userSpaceOnUse">
<stop stop-color="#F26E2A"/>
<stop offset="0.7951" stop-color="#FAEB32"/>
</linearGradient>
<linearGradient id="paint4_linear_1_7398" x1="345.706" y1="295.844" x2="345.706" y2="154.313" gradientUnits="userSpaceOnUse">
<stop stop-color="#F26E2A"/>
<stop offset="0.6178" stop-color="#FAEB32"/>
</linearGradient>
<linearGradient id="paint5_linear_1_7398" x1="186.569" y1="215.666" x2="186.569" y2="122.59" gradientUnits="userSpaceOnUse">
<stop stop-color="#F26E2A"/>
<stop offset="0.7951" stop-color="#FAEB32"/>
</linearGradient>
<linearGradient id="paint6_linear_1_7398" x1="219.196" y1="206.726" x2="201.494" y2="237.387" gradientUnits="userSpaceOnUse">
<stop stop-color="#F26E2A"/>
<stop offset="1" stop-color="#FAEB32"/>
</linearGradient>
<linearGradient id="paint7_linear_1_7398" x1="270.406" y1="243.705" x2="305.417" y2="208.693" gradientUnits="userSpaceOnUse">
<stop stop-color="#F26E2A"/>
<stop offset="0.7089" stop-color="#FAEB32"/>
</linearGradient>
</defs>
</svg>
