<svg width="500" height="501" viewBox="0 0 500 501" fill="none" xmlns="http://www.w3.org/2000/svg">
<path d="M6 238.8L37.5 204.9C41.6 200.5 47.5 198.1 53.6 198.5L82.2 200.2C92.6 200.8 102.8 196.7 109.9 189.1L249.6 38.0996L282.7 67.1996L156 204C150.6 209.9 143.1 213.2 135.3 213.4C131.5 213.5 127.8 212.7 124.3 211.3L118.1 208.8C106.5 204.2 93.3 207.3 84.9 216.6L38.3 268.3L6 238.8Z" fill="url(#paint0_linear_1_7413)"/>
<path d="M77.3999 302.6L143.1 232.9C147.2 228.5 153.1 226.1 159.2 226.5L187.8 228.2C198.2 228.8 208.4 224.7 215.5 217.1L321.2 102.1L354.3 131.2L261.6 232.1C256.2 238 248.7 241.3 240.9 241.5C237.1 241.6 233.4 240.8 229.9 239.4L223.7 236.9C212.1 232.3 198.9 235.4 190.5 244.7L109.7 332.2L77.3999 302.6Z" fill="url(#paint1_linear_1_7413)"/>
<path d="M147.1 366L243.7 260.9C247.8 256.5 253.7 254.1 259.8 254.5L288.4 256.2C298.8 256.8 309 252.7 316.1 245.1L391.7 165.9L424.8 195L362.1 260C356.7 265.9 349.2 269.2 341.4 269.4C337.6 269.5 333.9 268.7 330.4 267.3L324.2 264.8C312.6 260.2 299.4 263.3 291 272.6L179.3 395.5L147.1 366Z" fill="url(#paint2_linear_1_7413)"/>
<path d="M217.6 431.2L349.1 288.9C353.2 284.5 359.1 282.1 365.2 282.5L393.8 284.2C404.2 284.8 414.4 280.7 421.5 273.1L461.8 231.6L494.9 260.7L467.6 288.1C462.2 294 454.7 297.3 446.9 297.5C443.1 297.6 439.4 296.8 435.9 295.4L429.7 292.9C418.1 288.3 404.9 291.4 396.5 300.7L249.9 460.7L217.6 431.2Z" fill="url(#paint3_linear_1_7413)"/>
<defs>
<linearGradient id="paint0_linear_1_7413" x1="41.1998" y1="268.813" x2="244.181" y2="40.904" gradientUnits="userSpaceOnUse">
<stop offset="0.2287" stop-color="#2AE38D"/>
<stop offset="0.2856" stop-color="#1ED27B"/>
</linearGradient>
<linearGradient id="paint1_linear_1_7413" x1="112.698" y1="332.657" x2="315.709" y2="104.714" gradientUnits="userSpaceOnUse">
<stop offset="0.3741" stop-color="#2AE38D"/>
<stop offset="0.4877" stop-color="#1ED27B"/>
</linearGradient>
<linearGradient id="paint2_linear_1_7413" x1="182.725" y1="396.391" x2="385.905" y2="168.259" gradientUnits="userSpaceOnUse">
<stop offset="0.5512" stop-color="#2AE38D"/>
<stop offset="0.6162" stop-color="#1ED27B"/>
</linearGradient>
<linearGradient id="paint3_linear_1_7413" x1="253.257" y1="461.556" x2="456.021" y2="233.891" gradientUnits="userSpaceOnUse">
<stop offset="0.7235" stop-color="#2AE38D"/>
<stop offset="0.7979" stop-color="#1ED27B"/>
</linearGradient>
</defs>
</svg>
