<svg width="500" height="501" viewBox="0 0 500 501" fill="none" xmlns="http://www.w3.org/2000/svg">
<path d="M257.2 6.19958C257.4 7.19958 257.8 7.99958 257.7 8.69958C257.1 12.8996 255.2 17.3996 255.9 21.2996C256.6 25.2996 260.3 28.5996 261.9 32.5996C262.7 34.3996 262.1 37.1996 261.3 39.1996C256.1 51.7996 257.9 65.0996 258.1 78.0996C258.1 81.0996 261.3 83.9996 263.1 86.9996C264.9 85.9996 265.9 85.4996 266.9 84.8996C276 79.3996 282.4 82.5996 286.9 93.5996C287.8 95.7996 288.3 98.1996 289.5 100.1C296.8 111.6 297.8 124.6 298.6 137.5C299.3 149.9 298.8 162.4 298.8 174.8C298.9 185.5 298.4 196 294.8 206.4C292.4 213.3 293.1 221.3 291.5 228.5C289.4 238.1 290.1 248.1 287.3 257.6C286 262 285.8 267.5 287.2 271.9C291.3 284.7 288.3 296.7 285.6 309.1C283.9 317.1 284.4 325.8 284.7 334.1C284.8 336.9 287.8 339.4 289.1 342.2C291.3 346.8 292.5 352.1 295.5 356C298.5 360 303.6 362.4 307.1 366.1C316.7 376.3 328.2 383.6 340.5 390.2C351.1 395.9 361.7 398.1 373.4 397.7C378.1 397.6 382.7 397.3 387.5 399.5C390.5 400.9 394.8 400.6 398.2 399.6C412 395.6 426 398.5 439.9 397.9C442.4 397.8 445 399.6 448.1 400.7C447.8 413.4 444.1 425.3 439.6 438.1C429.9 440 418.1 436.5 406.2 440.3C408.8 446 410.6 449.8 412.4 453.7C412.5 454 413.3 465 413.2 465C408.9 467.5 405.2 471.9 399.3 468.2C397 466.8 394.2 466.1 391.6 465.4C387.6 464.3 384.6 465.5 383.2 469.6C390.4 478.2 392.1 478.9 408.2 479.7C413.1 483.9 412 488.5 409.1 493.2C408.5 494.2 407.3 495.6 406.5 495.5C399.4 495 392.9 499.5 385.7 497.4C383.5 496.8 381.1 496.3 378.7 496.3C365.6 496.3 352.7 494.7 340 491.6C338.9 491.3 337.6 491.6 336.4 491.5C324.1 490.6 311.9 489.8 299.6 488.7C294.1 488.2 288.5 487.9 283.3 486.2C274.7 483.4 266 484.3 257.3 484.1C231.2 483.6 207.9 475.1 187 459.9C177.3 452.9 165.8 449.8 154.8 445.8C147.8 443.3 140.5 441.6 133.3 439.8C130.3 439 127 438.2 124 438.6C112.9 440 102.9 444 94.3002 451.6C88.7002 456.6 82.3002 460.7 76.2002 465C72.3002 467.8 68.4002 470.6 62.6002 469.4C55.8002 462.3 59.3002 453.2 58.2002 445C68.6002 432.8 81.3002 423.5 95.0002 415.2C107.1 407.9 119.1 400.2 131.4 393.2C139.2 388.8 147.4 383.6 156.9 385.8C165 387.7 171.6 387.3 178.7 382.3C185.7 377.4 193 381.8 195 391.2C195.7 394.4 195.7 397.4 198.3 399.8C202.5 403.6 204 403.5 210.3 397.4C207.7 395.2 205.2 393.1 201.2 389.8C202.6 389.2 203.6 388.5 204.6 388.5C206.1 388.5 208.2 388.4 209 389.3C212.7 393.5 217.6 393.4 222.3 393C226.8 392.6 231.7 394.2 235.7 389.8C240.7 384.4 245.1 378.6 245.3 371.3C245.8 356.9 245.9 342.4 245.2 328C244.8 320.7 243 313.2 240.5 306.3C238.8 301.7 234.5 298 232 293.6C228.2 287.1 224.5 281 217.7 276.9C215 275.3 212.9 271.3 212.2 268.1C210.8 261.2 209.7 254 209.8 247C210.2 228.3 210.6 209.5 212.4 190.9C213.1 183.9 215.1 176.7 214 169.8C211.4 153.9 212.1 137.6 207.7 121.9C205.5 114 205 105.5 204.8 97.2996C204.5 84.9996 202.7 73.0996 200.3 60.9996C198.5 51.4996 197.9 41.1996 204.4 32.1996C207.9 27.4996 210 21.6996 213.7 17.1996C216.6 13.5996 220.7 9.69958 224.8 8.79958C233.4 6.89958 241.1 0.29958 250.7 3.29958C253.3 3.79958 255.3 5.19958 257.2 6.19958Z" fill="url(#paint0_linear_1_7418)"/>
<defs>
<linearGradient id="paint0_linear_1_7418" x1="252.92" y1="498.157" x2="252.92" y2="2.34518" gradientUnits="userSpaceOnUse">
<stop stop-color="#4B1015"/>
<stop offset="0.9996" stop-color="#AB1B21"/>
</linearGradient>
</defs>
</svg>
