<svg width="500" height="501" viewBox="0 0 500 501" fill="none" xmlns="http://www.w3.org/2000/svg">
<path d="M495.7 236.5C495.7 328.8 437 407.7 354.1 439.8C413.6 400.5 452.6 334.1 452.6 258.8C452.5 137.9 352 40.0002 228 40.0002C198.7 40.0002 170.7 45.5002 145 55.4002C180.9 31.6002 224.4 17.7002 271.1 17.7002C395.1 17.7002 495.7 115.7 495.7 236.5Z" fill="#0B0381"/>
<path d="M228 40C198.7 40 170.7 45.5 145 55.4C85.5 94.8 46.5 161.2 46.5 236.5C46.5 357.3 147.1 455.2 271.1 455.2C300.4 455.2 328.4 449.7 354 439.8C413.5 400.5 452.5 334.1 452.5 258.8C452.5 137.9 352 40 228 40ZM296.1 344.6C277.4 358.5 254 366.7 228.8 366.7C167 366.7 116.8 317.4 116.8 256.5C116.8 204.1 154 160.2 203.8 149C222.5 135.1 245.9 126.9 271.1 126.9C332.9 126.9 383.1 176.2 383.1 237.1C383.2 289.6 346 333.4 296.1 344.6Z" fill="#00024C"/>
<path d="M354 439.8C318.1 463.6 274.7 477.5 228 477.5C104 477.5 3.3999 379.6 3.3999 258.8C3.3999 166.5 61.9999 87.6004 145 55.4004C85.4999 94.8004 46.4999 161.2 46.4999 236.5C46.4999 357.3 147.1 455.2 271.1 455.2C300.4 455.2 328.4 449.7 354 439.8Z" fill="#00D397"/>
<path d="M383.2 237.1C383.2 289.5 346 333.4 296.1 344.6C323.2 324.5 340.8 292.5 340.8 256.5C340.8 195.6 290.7 146.3 228.8 146.3C220.2 146.3 211.9 147.2 203.9 149C222.6 135.1 246 126.9 271.2 126.9C333.1 126.9 383.2 176.3 383.2 237.1Z" fill="#00D397"/>
<path d="M296.1 344.6C277.4 358.5 254 366.7 228.8 366.7C167 366.7 116.8 317.4 116.8 256.5C116.8 204.1 154 160.2 203.8 149C176.7 169.1 159.2 201.1 159.2 237.1C159.2 298 209.3 347.3 271.2 347.3C279.8 347.3 288.1 346.4 296.1 344.6Z" fill="#0B0381"/>
</svg>
