<svg width="500" height="501" viewBox="0 0 500 501" fill="none" xmlns="http://www.w3.org/2000/svg">
<path d="M250.5 67.2C256.6 90.5 265.9 112.6 277.9 132.7C282.4 129.1 286.9 125.8 291.2 122.6C270.6 87.3 258.7 46.2 258.7 2.5H242.2C242.2 46.2 230.4 87.3 209.8 122.7C214.1 125.8 218.6 129.2 223.1 132.8C235.1 112.6 244.4 90.5 250.5 67.2Z" fill="#E5D540"/>
<path d="M378.3 209.8C373.4 207.1 368.7 204.1 364.2 200.9C359.2 197.6 354.5 194 349.9 190.3C345.5 186.9 341.3 183.4 337.2 179.6C331.7 174.6 326.5 169.3 321.4 163.8C317.1 166.8 312.6 170.2 308.2 173.8C314.1 180.5 320.5 186.9 327.2 192.7C331.3 196.4 335.5 200.1 339.8 203.4C344.4 207.1 349.2 210.6 354.1 214C358.7 217.1 363.4 220.1 368.2 223C388.5 235 410.4 244.2 433.7 250.4C410.4 256.5 388.4 265.8 368.2 277.8C363.4 280.7 358.7 283.7 354.1 286.8C349.2 290.2 344.4 293.7 339.8 297.4C335.4 300.8 331.2 304.4 327.2 308.1C320.5 314 314.1 320.3 308.2 327C312.7 330.6 317.1 333.9 321.4 337C326.4 331.5 331.7 326.3 337.2 321.2C341.3 317.4 345.6 313.8 349.9 310.5C354.5 306.8 359.2 303.2 364.2 299.9C368.7 296.8 373.5 293.8 378.3 291C413.7 270.4 454.7 258.6 498.5 258.6V242.1C454.7 242.2 413.7 230.4 378.3 209.8Z" fill="#E5D540"/>
<path d="M136.8 300C141.8 303.3 146.5 306.9 151.1 310.6C155.5 314 159.7 317.5 163.8 321.3C169.3 326.3 174.5 331.6 179.6 337.1C183.9 334.1 188.4 330.7 192.8 327.1C186.9 320.4 180.5 314 173.8 308.2C169.7 304.5 165.5 300.8 161.2 297.5C156.6 293.8 151.8 290.3 146.9 286.9C142.3 283.8 137.6 280.8 132.8 277.9C112.5 265.9 90.6 256.7 67.3 250.5C90.6 244.4 112.6 235.1 132.8 223.1C137.6 220.2 142.3 217.2 146.9 214.1C151.8 210.7 156.6 207.2 161.2 203.5C165.6 200.1 169.8 196.5 173.8 192.8C180.5 186.9 186.9 180.6 192.8 173.9C188.3 170.3 183.9 167 179.6 163.9C174.6 169.4 169.3 174.6 163.8 179.7C159.7 183.5 155.4 187.1 151.1 190.4C146.5 194.1 141.8 197.7 136.8 201C132.3 204.1 127.5 207.1 122.7 209.9C87.3 230.5 46.3 242.3 2.5 242.3V258.8C46.3 258.8 87.3 270.6 122.7 291.2C127.6 293.9 132.3 296.9 136.8 300Z" fill="#E5D540"/>
<path d="M250.5 433.8C244.4 410.5 235.1 388.4 223.1 368.3C218.6 371.9 214.1 375.2 209.8 378.4C230.4 413.8 242.2 454.9 242.2 498.6H258.7C258.7 454.9 270.5 413.8 291.1 378.4C286.8 375.3 282.3 371.9 277.8 368.3C265.9 388.4 256.6 410.5 250.5 433.8Z" fill="#E5D540"/>
<path d="M373.7 313.6C368.8 316.9 364 320.5 359.4 324.3C379.9 355.1 389.3 379.6 393.5 393.5C379.6 389.4 355.1 380 324.3 359.5C319.9 356.5 315.4 353.4 310.7 350C306.4 346.9 302.1 343.6 297.5 339.9C293.4 336.6 289.1 333 284.7 329.3C281.7 326.6 278.5 323.8 275.3 320.9H275.2C271.2 317.3 267.3 313.5 263.2 309.6L304.3 268.5L309.6 263.2C313.6 267.3 317.4 271.3 320.9 275.2H321C323.8 278.4 326.6 281.6 329.3 284.7C333.9 281 338.7 277.4 343.6 274.1C340.5 270.4 337.2 266.6 333.5 262.7C329.9 258.8 326.2 254.6 322.3 250.6C326.3 246.5 330 242.3 333.5 238.5C337.1 234.6 340.4 230.8 343.6 227.1C338.7 223.8 333.9 220.2 329.3 216.5C326.6 219.6 323.8 222.8 321 226H320.9C317.3 229.9 313.5 233.9 309.6 238L304.3 232.7L263.2 191.6C267.3 187.6 271.2 183.9 275.2 180.3H275.3C278.5 177.4 281.7 174.6 284.7 171.9C289.1 168.2 293.4 164.6 297.5 161.3C302 157.7 306.4 154.4 310.7 151.2C315.4 147.8 320 144.7 324.3 141.7C355.1 121.2 379.6 111.8 393.5 107.6C389.4 121.5 380 146 359.4 176.8C364 180.6 368.8 184.2 373.7 187.5C409.3 134.5 413.9 98.7996 414.1 96.7996L415.4 85.5996L404.2 86.8996C402.2 87.0996 366.5 91.6996 313.5 127.3C309.1 130.2 304.6 133.3 300 136.8C295.7 139.9 291.3 143.2 286.8 146.9C282.6 150.2 278.3 153.8 273.9 157.6C270.2 160.6 266.4 164 262.6 167.6H262.5C258.5 171.2 254.6 175 250.5 178.9L250.4 178.8L250.3 178.9C246.2 174.9 242.3 171.1 238.3 167.6H238.2C234.4 164 230.6 160.7 226.9 157.6C222.5 153.8 218.2 150.2 214 146.9C209.5 143.3 205.1 140 200.8 136.8C196.2 133.3 191.6 130.2 187.3 127.3C134.3 91.6996 98.5999 87.0996 96.5999 86.8996L85.3999 85.5996L86.6999 96.7996C86.8999 98.7996 91.4999 134.5 127.1 187.5C132 184.2 136.8 180.6 141.4 176.8C120.9 146 111.5 121.5 107.4 107.6C121.3 111.7 145.8 121.1 176.6 141.7C181 144.7 185.5 147.8 190.2 151.2C194.5 154.3 198.8 157.6 203.4 161.3C207.5 164.6 211.8 168.2 216.2 171.9C219.2 174.6 222.4 177.4 225.6 180.3H225.7C229.7 183.9 233.6 187.7 237.7 191.6L196.6 232.7L191.3 238C187.3 233.9 183.5 229.9 180 226C177.2 222.8 174.4 219.6 171.7 216.5C167.1 220.2 162.3 223.8 157.4 227.1C160.5 230.8 163.8 234.6 167.5 238.5C171.1 242.4 174.8 246.6 178.7 250.6C174.7 254.7 171 258.9 167.5 262.7C163.9 266.6 160.6 270.4 157.4 274.1C162.3 277.4 167.1 281 171.7 284.7C174.4 281.6 177.2 278.4 180 275.2H180.1C183.7 271.3 187.5 267.3 191.4 263.2L196.7 268.5L237.8 309.6C233.7 313.6 229.8 317.3 225.8 320.9H225.7C222.5 323.8 219.3 326.6 216.3 329.3C211.9 333 207.6 336.6 203.5 339.9C199 343.5 194.6 346.8 190.3 350C185.6 353.4 181 356.5 176.7 359.5C145.9 380 121.4 389.4 107.5 393.5C111.6 379.6 121 355.1 141.5 324.3C136.9 320.5 132.1 316.9 127.2 313.6C91.5999 366.6 86.9999 402.3 86.7999 404.3L85.4999 415.5L96.6999 414.2C98.6999 414 134.4 409.4 187.4 373.8C191.8 370.9 196.3 367.8 200.9 364.3C205.2 361.2 209.6 357.9 214.1 354.2C218.3 350.9 222.6 347.3 227 343.5C230.7 340.5 234.5 337.1 238.3 333.5H238.4C242.4 329.9 246.3 326.1 250.4 322.2L250.5 322.3L250.6 322.2C254.7 326.2 258.6 330 262.6 333.5H262.7C266.5 337.1 270.3 340.4 274 343.5C278.4 347.3 282.7 350.9 286.9 354.2C291.4 357.8 295.8 361.1 300.1 364.3C304.7 367.8 309.3 370.9 313.6 373.8C366.6 409.4 402.3 414 404.3 414.2L415.5 415.5L414.2 404.3C413.8 402.3 409.3 366.6 373.7 313.6ZM255.9 291.7L250.5 297.1L245.1 291.7L209.3 255.9L203.9 250.5L209.3 245.1L245.1 209.3L250.5 203.9L255.9 209.3L291.7 245.1L297.1 250.5L291.7 255.9L255.9 291.7Z" fill="#E5D540"/>
</svg>
