<svg width="500" height="501" viewBox="0 0 500 501" fill="none" xmlns="http://www.w3.org/2000/svg">
<g clip-path="url(#clip0_1_7437)">
<path fill-rule="evenodd" clip-rule="evenodd" d="M251.7 0.5C242.8 0.5 233.8 1 225 2C99.1 15.3 1.19995 121.5 1.19995 250.7C1.19995 388.8 113.3 500.8 251.7 500.8H252.3C292.2 500.8 331.4 491.2 366.8 472.9C376.9 467.7 372.5 452.4 361.2 452.7H360.7C260.5 455.2 170.6 412.9 133.9 334.5C111.9 287.6 112.8 244.1 123 209.8C123.1 209.5 123.2 209.2 123.2 208.9C128.4 187.7 138.2 168.2 152.7 153C153.8 151.7 155 150.4 156.3 149.2C157.1 148.3 158 147.5 158.9 146.8C159.2 146.4 159.6 146.1 160 145.8C160.3 145.6 160.6 145.3 160.9 145C161.5 144.4 162.3 143.8 163 143.3C187.7 123.2 218.6 112.3 250.4 112.4C325.1 112.4 385.7 170.7 385.7 242.7C385.7 267.4 378.4 291.6 364.7 312.3C424.4 291.7 467.2 236.7 467.2 172C467.2 135.2 453.3 101.6 430.2 75.5C420.5 65.6 410.1 56.5 398.9 48.4L398.8 48.3C356.3 17.2 304.9 0.5 252.1 0.5C251.9 0.5 251.8 0.5 251.7 0.5Z" fill="url(#paint0_linear_1_7437)"/>
<path fill-rule="evenodd" clip-rule="evenodd" d="M465.9 170.5C465.9 235.1 425.2 290.1 368.2 310.8C352.2 316.7 335.3 319.6 318.2 319.6C263.4 319.6 215.6 289.5 190.1 244.6C183.9 233.7 179 215.1 175.7 199.3C172.6 184.3 153 180.4 144.4 193.1C141.4 197.4 139.2 202.2 137.9 207.3C137.7 208 137.5 208.8 137.3 209.5C137.2 209.7 137.2 209.9 137.2 210.2C133.1 227.1 131.9 244.6 133.7 261.9C133.7 262.1 133.7 262.3 133.8 262.6C134.6 270.5 136 278.2 138 285.9C140.4 295.9 143.8 305.7 148.1 315.1C179.3 384.9 249 427.9 341 420.4C350.1 419.7 359.1 418.4 368 416.5C443.9 400.5 498.5 331.7 499 250.6V249.1C499 239.1 498.4 229 497.2 219.1C491.2 164.9 467.7 114 430.4 74.2002C453.3 101.1 465.9 135.2 465.9 170.5Z" fill="url(#paint1_linear_1_7437)"/>
</g>
<defs>
<linearGradient id="paint0_linear_1_7437" x1="1.19995" y1="250.65" x2="467.2" y2="250.65" gradientUnits="userSpaceOnUse">
<stop stop-color="#2D2D4B"/>
<stop offset="1" stop-color="#1D1D3A"/>
</linearGradient>
<linearGradient id="paint1_linear_1_7437" x1="132.887" y1="247.723" x2="499" y2="247.723" gradientUnits="userSpaceOnUse">
<stop stop-color="#95A1D4"/>
<stop offset="1" stop-color="#594DA0"/>
</linearGradient>
<clipPath id="clip0_1_7437">
<rect width="500" height="500" fill="white" transform="translate(0 0.5)"/>
</clipPath>
</defs>
</svg>
