<svg width="500" height="501" viewBox="0 0 500 501" fill="none" xmlns="http://www.w3.org/2000/svg">
<path d="M149.3 53.7998H351.3L498.3 200.9L250.7 448.5L2.70001 200.5L149.3 53.7998Z" fill="#71E580"/>
<path d="M84.9 200.1L146 139C146 139 178.9 100.3 251.2 100.3C327.5 100.3 356.4 139 356.4 139L418 200.5L360.4 258.1C360.4 258.1 324 301.4 252.1 301.4C180.2 301.4 143.8 259.6 143.8 259.6L84.9 200.1Z" fill="black"/>
<path d="M251.5 125C209.6 125 175.7 159 175.7 200.8C175.7 242.6 209.7 276.6 251.5 276.6C293.4 276.6 327.3 242.6 327.3 200.8C327.3 159 293.4 125 251.5 125ZM251.5 234.1C233.1 234.1 218.2 219.2 218.2 200.8C218.2 182.4 233.1 167.5 251.5 167.5C269.9 167.5 284.8 182.4 284.8 200.8C284.8 219.2 269.9 234.1 251.5 234.1Z" fill="white"/>
</svg>
