<svg width="500" height="501" viewBox="0 0 500 501" fill="none" xmlns="http://www.w3.org/2000/svg">
<path d="M7.61195 153.996C10.22 133.305 17.832 116.494 31.07 101.457C34.197 97.905 38.09 94.912 41.991 92.174C68.97 73.24 96.044 54.441 123.647 35.209C129.011 38.938 134.548 42.77 140.066 46.628C164.814 63.931 189.591 81.194 214.295 98.561C259.379 130.254 304.422 162.007 349.478 193.741C367.149 206.187 384.81 218.648 402.476 231.102C397.07 235.076 391.854 239.352 386.189 242.914C382.673 245.125 379.768 248.512 375.377 249.254C370.163 247.159 366.074 243.341 361.565 240.178C327.993 216.63 294.464 193.02 260.899 169.463C218.067 139.403 175.222 109.361 132.349 79.359C129.52 77.38 126.972 74.749 123.846 74.406C121.904 74.576 120.883 75.255 119.826 75.99C100.421 89.498 80.906 102.85 61.628 116.535C56.091 120.465 51.281 125.385 47.326 131.026C31.615 153.432 34.786 188.232 60.903 206.766C72.155 214.751 83.317 222.864 94.519 230.92C88.682 235.124 82.868 239.359 77 243.519C73.987 245.655 71.269 248.305 67.528 249.248C65.609 248.08 63.565 247.074 61.79 245.717C49.646 236.434 35.866 229.21 26.221 216.784C15.816 203.379 8.37795 188.862 7.64995 171.532C7.58595 170.056 6.82295 160.262 7.61195 153.996Z" fill="#4DC0C8"/>
<path d="M67.526 249.248C71.267 248.305 73.985 245.655 76.998 243.519C82.866 239.359 88.68 235.124 94.517 230.92C96.012 230.03 97.572 229.231 98.994 228.237C123.545 211.075 148.038 193.83 172.64 176.743C180.428 171.334 187.994 165.536 196.481 161.061C205.327 167.34 213.89 173.417 222.818 179.754C220.972 181.233 219.853 182.232 218.635 183.091C194.557 200.061 170.424 216.954 146.405 234.007C138.654 239.51 130.334 244.24 123.316 250.754C114.405 255.267 107.147 262.253 98.587 267.297C97.685 267.829 97.401 268.858 97.507 269.928C94.992 269.585 93.27 271.115 91.397 272.412C81.249 279.439 71.008 286.334 60.907 293.427C28.946 315.868 30.964 362.673 60.773 383.26C81.523 397.592 102.077 412.208 123.323 427.122C147.329 410.371 171.451 393.539 195.804 376.545C204.587 382.721 213.219 388.792 222.852 395.566C189.58 419.34 156.494 442.017 123.425 465.29C114.006 458.751 104.901 452.478 95.845 446.134C78.493 433.98 61.144 421.822 43.841 409.599C24.414 395.876 12.24 377.445 8.00498 353.924C6.28298 339.576 7.82798 327.044 7.77698 324.841C10.423 304.997 19.766 288.71 34.149 275.079C40.79 268.785 48.704 264.206 55.945 258.722C59.921 255.709 64.497 253.421 67.526 249.248Z" fill="#05829C"/>
<path d="M97.507 269.927C97.4 268.857 97.684 267.828 98.587 267.296C107.147 262.253 114.405 255.266 123.316 250.753C207.236 309.606 291.156 368.458 374.938 427.214C377.306 425.685 379.024 424.651 380.664 423.506C398.804 410.842 416.844 398.032 435.089 385.52C453.659 372.785 462.34 355.608 460.459 332.951C459.141 317.084 451.883 304.61 439.584 295.204C428.009 286.352 415.794 278.337 403.86 269.954C411.592 264.291 419.319 258.621 427.06 252.971C428.35 252.029 429.865 252.146 431.355 252.239C433.732 251.858 434.971 253.773 436.56 254.898C447.439 262.6 458.947 269.448 468.275 279.219C483.754 295.431 491.612 314.638 492.034 337.042C492.546 364.237 482.037 386.525 461.88 404.269C452.631 412.411 441.934 418.731 431.821 425.777C414.894 437.57 397.98 449.38 381.103 461.244C379.037 462.696 376.998 464.085 374.45 465.072C363.84 457.707 353.294 450.442 342.808 443.094C318.903 426.343 295.016 409.566 271.143 392.771C226.066 361.059 181.006 329.322 135.932 297.606C123.994 289.206 112.033 280.84 100.067 272.481C99.047 271.769 97.783 271.358 97.507 269.927Z" fill="#4DC0C8"/>
<path d="M431.354 252.238C429.864 252.145 428.349 252.029 427.059 252.97C419.318 258.621 411.591 264.29 403.859 269.953C402.96 270.391 401.985 270.718 401.175 271.282C375.562 289.112 350.015 307.039 324.332 324.768C317.148 329.727 310.315 335.273 302.26 339.574C293.493 333.385 276.293 321.242 276.293 321.242C276.293 321.242 340.384 275.153 369.407 254.712C371.608 253.162 374.43 252.208 375.376 249.253C379.767 248.511 382.672 245.124 386.188 242.913C391.853 239.35 397.069 235.075 402.475 231.101C416.102 222.491 429.932 214.013 442.218 203.645C468.281 181.649 467.662 141.197 441.241 120.258C426.637 108.684 410.896 98.5437 395.654 87.7767C389.081 83.1337 382.474 78.5377 375.353 73.5497C351.304 90.3427 327.371 107.054 302.938 124.115C294.077 117.939 285.289 111.815 275.659 105.103C309.201 81.6187 341.964 58.6807 375.29 35.3477C385.017 42.0937 394.932 48.9027 404.775 55.8137C421.495 67.5537 438.24 79.2587 454.847 91.1567C482.965 111.303 495.302 138.999 491.593 173.081C488.803 198.724 475.634 218.906 454.476 233.781C447.465 238.71 440.567 243.802 433.535 248.7C432.181 249.644 431.127 250.463 431.354 252.238Z" fill="#05829C"/>
</svg>
