<svg width="500" height="501" viewBox="0 0 500 501" fill="none" xmlns="http://www.w3.org/2000/svg">
<g clip-path="url(#clip0_1_7450)">
<path d="M250 500.5C388.071 500.5 500 388.571 500 250.5C500 112.429 388.071 0.5 250 0.5C111.929 0.5 0 112.429 0 250.5C0 388.571 111.929 500.5 250 500.5Z" fill="url(#paint0_linear_1_7450)"/>
<path d="M161.8 137.2V304.1H295.6V266H273.6C281.9 250.2 298.4 239.3 317.5 239.3C344.8 239.3 367 261.5 367 288.8C367 316.1 344.8 338.3 317.5 338.3C306 338.3 295.3 334.4 286.7 327.6H239C253.9 357.7 284 376.4 317.6 376.4C319.6 376.4 321.5 376.3 323.5 376.2C302.5 388.1 278.1 394.9 252.2 394.9C172.2 394.9 107.4 330.1 107.4 250.2C107.4 204.5 128.7 163.7 161.8 137.2ZM251.5 106C331.5 106 396.4 170.7 396.4 250.4V251.9C382.4 222.1 352.1 201.5 316.9 201.5C276.5 201.5 242.3 228.9 232.2 266.1H199.1V115.7C215.4 109.4 233.1 106 251.5 106Z" fill="white"/>
</g>
<defs>
<linearGradient id="paint0_linear_1_7450" x1="362.933" y1="25.3481" x2="56.2192" y2="636.753" gradientUnits="userSpaceOnUse">
<stop stop-color="#A7A469"/>
<stop offset="1" stop-color="#727043"/>
</linearGradient>
<clipPath id="clip0_1_7450">
<rect width="500" height="500" fill="white" transform="translate(0 0.5)"/>
</clipPath>
</defs>
</svg>
