<svg width="500" height="501" viewBox="0 0 500 501" fill="none" xmlns="http://www.w3.org/2000/svg">
<g clip-path="url(#clip0_1_7463)">
<path d="M403.8 240C379.2 240 357.9 259.7 354.7 284.2H287.6C286 276 282.7 267.8 277.8 261.3L358 179.4C372.7 189.2 394 187.6 405.5 172.8C417 158.1 417 136.8 403.9 123.7C390.8 110.6 371.1 109 356.4 120.4C341.7 131.9 338.4 153.2 348.2 169.5L268 251.4C261.4 246.5 253.3 243.2 245.1 241.6V99.1003C272.9 95.8003 291 69.6003 287.7 43.4003C286.1 15.6003 259.9 -2.49972 233.7 0.800285C207.5 4.10028 187.7 30.4003 191 58.2003C194.3 79.5003 210.7 97.5003 233.6 100.8V241.6C225.4 243.2 217.2 246.5 210.7 251.4L146.8 185.9C151.7 174.4 146.8 161.3 137 156.4C135.4 156.4 135.4 156.4 133.7 154.8C123.9 149.9 114 153.2 107.5 161.4C102.6 169.6 102.6 181.1 109.1 187.6C115.7 195.8 125.5 197.4 135.3 192.5L199.2 259.6C187.7 276 186.1 298.9 195.9 316.9L94.3001 421.8C81.2001 410.3 59.9001 412 48.4001 426.7C36.9001 441.4 36.9001 462.7 50.0001 475.8C63.1001 488.9 82.8001 490.5 97.5001 479.1C112.2 467.6 115.5 446.3 105.7 430L205.6 326.8C212.2 333.3 222 338.3 231.8 339.9V428.3C213.8 431.6 202.3 449.6 204 467.6C205.6 487.3 222 502 241.7 500.4C259.7 498.8 272.8 485.7 274.5 467.6C276.1 449.6 264.7 431.6 246.7 428.3V339.9C254.9 338.3 263.1 335 269.6 330.1L333.5 395.6C331.9 398.9 331.9 402.2 331.9 405.4C331.9 416.9 341.7 426.7 353.2 426.7C364.7 426.7 374.5 416.9 374.5 405.4C374.5 393.9 364.7 384.1 353.2 384.1C349.9 384.1 346.6 384.1 343.4 385.7L279.5 320.2C284.4 313.6 287.7 305.5 289.3 297.3H356.4C359.7 323.5 384.2 343.2 410.4 341.5C438.2 338.2 457.9 312 454.6 284.2C449.7 259.6 430.1 240 403.8 240Z" fill="#333333"/>
</g>
<defs>
<clipPath id="clip0_1_7463">
<rect width="500" height="500" fill="white" transform="translate(0 0.5)"/>
</clipPath>
</defs>
</svg>
