<svg width="500" height="501" viewBox="0 0 500 501" fill="none" xmlns="http://www.w3.org/2000/svg">
<path d="M213.5 463.5C331.192 463.5 426.6 368.092 426.6 250.4C426.6 132.708 331.192 37.2998 213.5 37.2998C95.808 37.2998 0.399902 132.708 0.399902 250.4C0.399902 368.092 95.808 463.5 213.5 463.5Z" fill="#2EB6EA"/>
<path d="M212.3 463.5C0.400085 463.5 -83.2999 184.6 103.9 67.0996C81.6001 300.1 200.1 305.3 310 300.1C494.2 291.6 494.3 463.5 494.3 463.5H212.3Z" fill="#1542CD"/>
<path fill-rule="evenodd" clip-rule="evenodd" d="M414.9 320.1C382.8 402.3 304 461 211.1 463.6C213.3 463.7 215.5 463.7 217.7 463.7H497.9C497.9 463.7 497.8 363 414.9 320.1Z" fill="#745DDF"/>
</svg>
