<svg width="500" height="501" viewBox="0 0 500 501" fill="none" xmlns="http://www.w3.org/2000/svg">
<path d="M239.208 483.561C279.734 438.101 320.26 392.642 361.107 346.822C309.877 258.79 258.839 171.089 207.702 83.217C221.485 59.589 235.054 36.327 249.536 11.5C252.272 14.968 254.364 17.056 255.803 19.525C287.567 74.024 319.226 128.584 350.974 183.092C382.707 237.574 414.527 292.006 446.263 346.487C447.982 349.437 449.275 352.635 451.049 356.303C445.468 362.656 440.052 368.911 434.539 375.08C405.184 407.931 375.269 440.305 346.769 473.882C338.533 483.585 330.35 486.603 318.415 486.246C294.805 485.54 271.157 486.116 247.524 486.161C245.178 486.165 242.833 486.162 240.487 486.162C240.061 485.295 239.635 484.428 239.208 483.561ZM57.1452 365.64C67.6262 377.218 78.3362 388.591 88.7032 400.27C112.661 427.259 136.52 454.337 160.274 481.506C163.367 485.044 166.861 486.106 171.27 486.066C181.002 485.979 190.741 485.982 200.468 486.258C204.669 486.377 207.399 484.913 210.213 481.709C225.785 463.98 241.709 446.561 257.402 428.937C261.424 424.42 265.048 419.548 270.029 413.386C265.257 413.032 262.3 412.638 259.341 412.623C241.263 412.531 223.181 412.337 205.107 412.598C199.325 412.681 195.56 410.749 191.962 406.186C185.53 398.03 178.283 390.515 171.365 382.743C160.783 370.853 150.19 358.972 139.411 346.872C146.417 334.814 153.177 323.151 159.963 311.503C183.523 271.067 206.944 230.548 230.79 190.281C235.311 182.646 236.191 176.537 231.169 168.565C219.899 150.677 209.677 132.13 198.938 113.905C197.793 111.962 196.05 110.372 193.571 107.406C145.047 190.669 97.1362 272.882 48.9512 355.564C52.3362 359.747 54.5962 362.824 57.1452 365.64Z" fill="url(#paint0_linear_1_7471)"/>
<defs>
<linearGradient id="paint0_linear_1_7471" x1="250" y1="5.5" x2="250" y2="486.551" gradientUnits="userSpaceOnUse">
<stop stop-color="#0C4EA2"/>
<stop offset="1" stop-color="#092D64"/>
</linearGradient>
</defs>
</svg>
