<svg width="500" height="501" viewBox="0 0 500 501" fill="none" xmlns="http://www.w3.org/2000/svg">
<path d="M249.8 499.1C386.988 499.1 498.2 387.887 498.2 250.7C498.2 113.512 386.988 2.2998 249.8 2.2998C112.613 2.2998 1.40039 113.512 1.40039 250.7C1.40039 387.887 112.613 499.1 249.8 499.1Z" fill="#335E9F"/>
<path d="M139.4 403.1L176.4 282.9L136.1 295.2L146.8 265.6L183.8 254.1L235.5 84.0004C236.6 80.4004 240 77.9004 243.8 77.9004H296.6C302.4 77.9004 306.5 83.5004 304.9 89.0004L262.9 229.4L300.8 218.7L293.9 247.3L254.8 259.1L227.5 346.3H366.5C370.7 346.3 373.7 350.3 372.6 354.3L360.5 398.5C359.7 401.2 357.3 403.1 354.4 403.1H139.4Z" fill="white"/>
</svg>
