<svg width="500" height="501" viewBox="0 0 500 501" fill="none" xmlns="http://www.w3.org/2000/svg">
<path d="M300.4 37.6005L253.1 84.9005L262.8 94.6005C268.2 100.1 277 100.1 282.5 94.7005L282.6 94.6005L330 47.3005L320.3 37.6005C314.9 32.1005 306.1 32.1005 300.6 37.5005C300.5 37.5005 300.5 37.6005 300.4 37.6005ZM180.2 37.6005L168.8 47.3005L218.2 94.6005C223.4 100 231.9 100.1 237.3 94.9005C237.4 94.8005 237.5 94.7005 237.6 94.6005L247.3 84.9005L199.6 37.6005C194.4 32.2005 185.9 32.1005 180.5 37.3005C180.4 37.4005 180.3 37.5005 180.2 37.6005ZM345.1 99.7005L255.3 189.5L273.4 208.1C283.7 218.2 300.2 218.2 310.5 208.1L400.4 117.8L382.3 99.7005C372.1 89.7005 355.8 89.7005 345.6 99.7005H345.1ZM117.7 99.7005L99.6 117.8L189.5 207.7C199.3 218 215.6 218.3 225.9 208.4C226.2 208.2 226.4 207.9 226.6 207.7L244.7 189.6L154.8 99.7005C144.5 89.6005 128 89.6005 117.7 99.7005ZM240.1 97.5005L230.8 107.2L250.2 126.6L269.6 107.2L259.9 97.5005C254.7 92.1005 246.2 92.0005 240.8 97.2005C240.7 97.3005 240.6 97.4005 240.5 97.5005H240.1ZM408.9 187.4L259.1 336.8L289.1 367.201C305 384.201 331.7 385.1 348.7 369.201C349.4 368.6 350 367.901 350.7 367.201L500 217.8L470 187.4C454.1 170.4 427.4 169.5 410.4 185.4C409.7 186 409.1 186.7 408.4 187.4H408.9ZM29.1 187.4L0 217.4L149.4 367.201C165.3 384.201 192 385.1 209 369.201C209.7 368.6 210.3 367.901 211 367.201L241.4 336.8L92 187.4C76.1 170.4 49.4 169.5 32.4 185.4C31.7 186 31.1 186.7 30.4 187.4H29.1ZM230.4 213.6L212.3 231.7L249 268.4L287 231.7L268.9 213.6C258.7 203.3 242.2 203.3 231.9 213.5L231.8 213.6H230.4ZM219.4 376.4L189 406.4L250.2 467.6L311 406.4L281 376.4C265.1 359.4 238.4 358.5 221.4 374.4C220.7 375.1 220 375.8 219.4 376.4Z" fill="url(#paint0_linear_1_7476)"/>
<defs>
<linearGradient id="paint0_linear_1_7476" x1="185.562" y1="250.52" x2="600.562" y2="250.52" gradientUnits="userSpaceOnUse">
<stop stop-color="#7CB7FF"/>
<stop offset="1" stop-color="#BA6DF6"/>
</linearGradient>
</defs>
</svg>
