<svg width="500" height="501" viewBox="0 0 500 501" fill="none" xmlns="http://www.w3.org/2000/svg">
<path d="M257.4 424.3C267.838 424.3 276.3 415.838 276.3 405.4C276.3 394.962 267.838 386.5 257.4 386.5C246.962 386.5 238.5 394.962 238.5 405.4C238.5 415.838 246.962 424.3 257.4 424.3Z" fill="url(#paint0_linear_1_7478)"/>
<path d="M217.1 420.9C227.538 420.9 236 412.438 236 402C236 391.562 227.538 383.1 217.1 383.1C206.662 383.1 198.2 391.562 198.2 402C198.2 412.438 206.662 420.9 217.1 420.9Z" fill="url(#paint1_linear_1_7478)"/>
<path d="M179.1 407.2C189.538 407.2 198 398.738 198 388.3C198 377.862 189.538 369.4 179.1 369.4C168.662 369.4 160.2 377.862 160.2 388.3C160.2 398.738 168.662 407.2 179.1 407.2Z" fill="url(#paint2_linear_1_7478)"/>
<path d="M146 384.1C156.438 384.1 164.9 375.638 164.9 365.2C164.9 354.762 156.438 346.3 146 346.3C135.561 346.3 127.1 354.762 127.1 365.2C127.1 375.638 135.561 384.1 146 384.1Z" fill="url(#paint3_linear_1_7478)"/>
<path d="M119.9 353.2C130.338 353.2 138.8 344.738 138.8 334.3C138.8 323.862 130.338 315.4 119.9 315.4C109.462 315.4 101 323.862 101 334.3C101 344.738 109.462 353.2 119.9 353.2Z" fill="url(#paint4_linear_1_7478)"/>
<path d="M102.7 316.6C113.138 316.6 121.6 308.138 121.6 297.7C121.6 287.262 113.138 278.8 102.7 278.8C92.2616 278.8 83.7998 287.262 83.7998 297.7C83.7998 308.138 92.2616 316.6 102.7 316.6Z" fill="url(#paint5_linear_1_7478)"/>
<path d="M95.6002 276.9C106.038 276.9 114.5 268.438 114.5 258C114.5 247.561 106.038 239.1 95.6002 239.1C85.162 239.1 76.7002 247.561 76.7002 258C76.7002 268.438 85.162 276.9 95.6002 276.9Z" fill="url(#paint6_linear_1_7478)"/>
<path d="M98.9996 236.6C109.438 236.6 117.9 228.138 117.9 217.7C117.9 207.262 109.438 198.8 98.9996 198.8C88.5614 198.8 80.0996 207.262 80.0996 217.7C80.0996 228.138 88.5614 236.6 98.9996 236.6Z" fill="url(#paint7_linear_1_7478)"/>
<path d="M112.7 198.6C123.138 198.6 131.6 190.138 131.6 179.7C131.6 169.262 123.138 160.8 112.7 160.8C102.262 160.8 93.7998 169.262 93.7998 179.7C93.7998 190.138 102.262 198.6 112.7 198.6Z" fill="url(#paint8_linear_1_7478)"/>
<path d="M135.8 165.4C146.239 165.4 154.7 156.938 154.7 146.5C154.7 136.061 146.239 127.6 135.8 127.6C125.362 127.6 116.9 136.061 116.9 146.5C116.9 156.938 125.362 165.4 135.8 165.4Z" fill="url(#paint9_linear_1_7478)"/>
<path d="M166.7 139.3C177.138 139.3 185.6 130.838 185.6 120.4C185.6 109.962 177.138 101.5 166.7 101.5C156.262 101.5 147.8 109.962 147.8 120.4C147.8 130.838 156.262 139.3 166.7 139.3Z" fill="url(#paint10_linear_1_7478)"/>
<path d="M203.3 122.1C213.739 122.1 222.2 113.638 222.2 103.2C222.2 92.7616 213.739 84.2998 203.3 84.2998C192.862 84.2998 184.4 92.7616 184.4 103.2C184.4 113.638 192.862 122.1 203.3 122.1Z" fill="url(#paint11_linear_1_7478)"/>
<path d="M243 115C253.438 115 261.9 106.538 261.9 96.1002C261.9 85.662 253.438 77.2002 243 77.2002C232.561 77.2002 224.1 85.662 224.1 96.1002C224.1 106.538 232.561 115 243 115Z" fill="url(#paint12_linear_1_7478)"/>
<path d="M283.3 118.4C293.739 118.4 302.2 109.938 302.2 99.4996C302.2 89.0614 293.739 80.5996 283.3 80.5996C272.862 80.5996 264.4 89.0614 264.4 99.4996C264.4 109.938 272.862 118.4 283.3 118.4Z" fill="url(#paint13_linear_1_7478)"/>
<path d="M321.3 132.1C331.739 132.1 340.2 123.638 340.2 113.2C340.2 102.762 331.739 94.2998 321.3 94.2998C310.862 94.2998 302.4 102.762 302.4 113.2C302.4 123.638 310.862 132.1 321.3 132.1Z" fill="url(#paint14_linear_1_7478)"/>
<path d="M354.5 155.2C364.938 155.2 373.4 146.739 373.4 136.3C373.4 125.862 364.938 117.4 354.5 117.4C344.061 117.4 335.6 125.862 335.6 136.3C335.6 146.739 344.061 155.2 354.5 155.2Z" fill="url(#paint15_linear_1_7478)"/>
<path d="M380.6 186.1C391.038 186.1 399.5 177.638 399.5 167.2C399.5 156.762 391.038 148.3 380.6 148.3C370.162 148.3 361.7 156.762 361.7 167.2C361.7 177.638 370.162 186.1 380.6 186.1Z" fill="url(#paint16_linear_1_7478)"/>
<path d="M397.8 222.7C408.239 222.7 416.7 214.239 416.7 203.8C416.7 193.362 408.239 184.9 397.8 184.9C387.362 184.9 378.9 193.362 378.9 203.8C378.9 214.239 387.362 222.7 397.8 222.7Z" fill="url(#paint17_linear_1_7478)"/>
<path d="M404.9 262.5C415.338 262.5 423.8 254.038 423.8 243.6C423.8 233.162 415.338 224.7 404.9 224.7C394.462 224.7 386 233.162 386 243.6C386 254.038 394.462 262.5 404.9 262.5Z" fill="url(#paint18_linear_1_7478)"/>
<path d="M401.5 302.8C411.938 302.8 420.4 294.338 420.4 283.9C420.4 273.462 411.938 265 401.5 265C391.061 265 382.6 273.462 382.6 283.9C382.6 294.338 391.061 302.8 401.5 302.8Z" fill="url(#paint19_linear_1_7478)"/>
<path d="M387.8 340.8C398.239 340.8 406.7 332.338 406.7 321.9C406.7 311.462 398.239 303 387.8 303C377.362 303 368.9 311.462 368.9 321.9C368.9 332.338 377.362 340.8 387.8 340.8Z" fill="url(#paint20_linear_1_7478)"/>
<path d="M364.7 374C375.138 374 383.6 365.538 383.6 355.1C383.6 344.662 375.138 336.2 364.7 336.2C354.262 336.2 345.8 344.662 345.8 355.1C345.8 365.538 354.262 374 364.7 374Z" fill="url(#paint21_linear_1_7478)"/>
<path d="M333.8 400C344.239 400 352.7 391.538 352.7 381.1C352.7 370.662 344.239 362.2 333.8 362.2C323.362 362.2 314.9 370.662 314.9 381.1C314.9 391.538 323.362 400 333.8 400Z" fill="url(#paint22_linear_1_7478)"/>
<path d="M297.2 417.2C307.638 417.2 316.1 408.738 316.1 398.3C316.1 387.862 307.638 379.4 297.2 379.4C286.762 379.4 278.3 387.862 278.3 398.3C278.3 408.738 286.762 417.2 297.2 417.2Z" fill="url(#paint23_linear_1_7478)"/>
<path d="M236.3 456C245.468 456 252.9 448.568 252.9 439.4C252.9 430.232 245.468 422.8 236.3 422.8C227.132 422.8 219.7 430.232 219.7 439.4C219.7 448.568 227.132 456 236.3 456Z" fill="url(#paint24_linear_1_7478)"/>
<path d="M187.7 446.2C196.868 446.2 204.3 438.768 204.3 429.6C204.3 420.432 196.868 413 187.7 413C178.532 413 171.1 420.432 171.1 429.6C171.1 438.768 178.532 446.2 187.7 446.2Z" fill="url(#paint25_linear_1_7478)"/>
<path d="M143.3 424.1C152.468 424.1 159.9 416.668 159.9 407.5C159.9 398.332 152.468 390.9 143.3 390.9C134.132 390.9 126.7 398.332 126.7 407.5C126.7 416.668 134.132 424.1 143.3 424.1Z" fill="url(#paint26_linear_1_7478)"/>
<path d="M106.2 391.3C115.368 391.3 122.8 383.868 122.8 374.7C122.8 365.532 115.368 358.1 106.2 358.1C97.0317 358.1 89.5996 365.532 89.5996 374.7C89.5996 383.868 97.0317 391.3 106.2 391.3Z" fill="url(#paint27_linear_1_7478)"/>
<path d="M78.8002 350C87.9681 350 95.4002 342.568 95.4002 333.4C95.4002 324.232 87.9681 316.8 78.8002 316.8C69.6323 316.8 62.2002 324.232 62.2002 333.4C62.2002 342.568 69.6323 350 78.8002 350Z" fill="url(#paint28_linear_1_7478)"/>
<path d="M63.0004 303C72.1683 303 79.6004 295.568 79.6004 286.4C79.6004 277.232 72.1683 269.8 63.0004 269.8C53.8325 269.8 46.4004 277.232 46.4004 286.4C46.4004 295.568 53.8325 303 63.0004 303Z" fill="url(#paint29_linear_1_7478)"/>
<path d="M59.8998 253.6C69.0677 253.6 76.4998 246.168 76.4998 237C76.4998 227.832 69.0677 220.4 59.8998 220.4C50.7319 220.4 43.2998 227.832 43.2998 237C43.2998 246.168 50.7319 253.6 59.8998 253.6Z" fill="url(#paint30_linear_1_7478)"/>
<path d="M69.6996 205C78.8675 205 86.2996 197.568 86.2996 188.4C86.2996 179.232 78.8675 171.8 69.6996 171.8C60.5317 171.8 53.0996 179.232 53.0996 188.4C53.0996 197.568 60.5317 205 69.6996 205Z" fill="url(#paint31_linear_1_7478)"/>
<path d="M91.8002 160.6C100.968 160.6 108.4 153.168 108.4 144C108.4 134.832 100.968 127.4 91.8002 127.4C82.6323 127.4 75.2002 134.832 75.2002 144C75.2002 153.168 82.6323 160.6 91.8002 160.6Z" fill="url(#paint32_linear_1_7478)"/>
<path d="M124.6 123.4C133.768 123.4 141.2 115.968 141.2 106.8C141.2 97.6323 133.768 90.2002 124.6 90.2002C115.432 90.2002 108 97.6323 108 106.8C108 115.968 115.432 123.4 124.6 123.4Z" fill="url(#paint33_linear_1_7478)"/>
<path d="M165.9 95.9998C175.068 95.9998 182.5 88.5677 182.5 79.3998C182.5 70.2319 175.068 62.7998 165.9 62.7998C156.732 62.7998 149.3 70.2319 149.3 79.3998C149.3 88.5677 156.732 95.9998 165.9 95.9998Z" fill="url(#paint34_linear_1_7478)"/>
<path d="M212.9 80.2C222.068 80.2 229.5 72.7679 229.5 63.6C229.5 54.4321 222.068 47 212.9 47C203.732 47 196.3 54.4321 196.3 63.6C196.3 72.7679 203.732 80.2 212.9 80.2Z" fill="url(#paint35_linear_1_7478)"/>
<path d="M262.4 77.1004C271.568 77.1004 279 69.6683 279 60.5004C279 51.3325 271.568 43.9004 262.4 43.9004C253.232 43.9004 245.8 51.3325 245.8 60.5004C245.8 69.6683 253.232 77.1004 262.4 77.1004Z" fill="url(#paint36_linear_1_7478)"/>
<path d="M311 86.9998C320.168 86.9998 327.6 79.5677 327.6 70.3998C327.6 61.2319 320.168 53.7998 311 53.7998C301.832 53.7998 294.4 61.2319 294.4 70.3998C294.4 79.5677 301.832 86.9998 311 86.9998Z" fill="url(#paint37_linear_1_7478)"/>
<path d="M355.4 109C364.568 109 372 101.568 372 92.3998C372 83.2319 364.568 75.7998 355.4 75.7998C346.232 75.7998 338.8 83.2319 338.8 92.3998C338.8 101.568 346.232 109 355.4 109Z" fill="url(#paint38_linear_1_7478)"/>
<path d="M392.5 141.8C401.668 141.8 409.1 134.368 409.1 125.2C409.1 116.032 401.668 108.6 392.5 108.6C383.332 108.6 375.9 116.032 375.9 125.2C375.9 134.368 383.332 141.8 392.5 141.8Z" fill="url(#paint39_linear_1_7478)"/>
<path d="M419.9 183.1C429.068 183.1 436.5 175.668 436.5 166.5C436.5 157.332 429.068 149.9 419.9 149.9C410.732 149.9 403.3 157.332 403.3 166.5C403.3 175.668 410.732 183.1 419.9 183.1Z" fill="url(#paint40_linear_1_7478)"/>
<path d="M435.7 230.1C444.868 230.1 452.3 222.668 452.3 213.5C452.3 204.332 444.868 196.9 435.7 196.9C426.532 196.9 419.1 204.332 419.1 213.5C419.1 222.668 426.532 230.1 435.7 230.1Z" fill="url(#paint41_linear_1_7478)"/>
<path d="M438.8 279.6C447.968 279.6 455.4 272.168 455.4 263C455.4 253.832 447.968 246.4 438.8 246.4C429.632 246.4 422.2 253.832 422.2 263C422.2 272.168 429.632 279.6 438.8 279.6Z" fill="url(#paint42_linear_1_7478)"/>
<path d="M429 328.2C438.168 328.2 445.6 320.768 445.6 311.6C445.6 302.432 438.168 295 429 295C419.832 295 412.4 302.432 412.4 311.6C412.4 320.768 419.832 328.2 429 328.2Z" fill="url(#paint43_linear_1_7478)"/>
<path d="M406.9 372.6C416.068 372.6 423.5 365.168 423.5 356C423.5 346.832 416.068 339.4 406.9 339.4C397.732 339.4 390.3 346.832 390.3 356C390.3 365.168 397.732 372.6 406.9 372.6Z" fill="url(#paint44_linear_1_7478)"/>
<path d="M374.1 409.8C383.268 409.8 390.7 402.368 390.7 393.2C390.7 384.032 383.268 376.6 374.1 376.6C364.932 376.6 357.5 384.032 357.5 393.2C357.5 402.368 364.932 409.8 374.1 409.8Z" fill="url(#paint45_linear_1_7478)"/>
<path d="M332.8 437.2C341.968 437.2 349.4 429.768 349.4 420.6C349.4 411.432 341.968 404 332.8 404C323.632 404 316.2 411.432 316.2 420.6C316.2 429.768 323.632 437.2 332.8 437.2Z" fill="url(#paint46_linear_1_7478)"/>
<path d="M285.8 452.9C294.968 452.9 302.4 445.468 302.4 436.3C302.4 427.132 294.968 419.7 285.8 419.7C276.632 419.7 269.2 427.132 269.2 436.3C269.2 445.468 276.632 452.9 285.8 452.9Z" fill="url(#paint47_linear_1_7478)"/>
<path d="M209.3 476.6C217.032 476.6 223.3 470.332 223.3 462.6C223.3 454.868 217.032 448.6 209.3 448.6C201.568 448.6 195.3 454.868 195.3 462.6C195.3 470.332 201.568 476.6 209.3 476.6Z" fill="url(#paint48_linear_1_7478)"/>
<path d="M155.8 458.7C163.532 458.7 169.8 452.432 169.8 444.7C169.8 436.968 163.532 430.7 155.8 430.7C148.068 430.7 141.8 436.968 141.8 444.7C141.8 452.432 148.068 458.7 155.8 458.7Z" fill="url(#paint49_linear_1_7478)"/>
<path d="M108.8 427.7C116.532 427.7 122.8 421.432 122.8 413.7C122.8 405.968 116.532 399.7 108.8 399.7C101.068 399.7 94.7998 405.968 94.7998 413.7C94.7998 421.432 101.068 427.7 108.8 427.7Z" fill="url(#paint50_linear_1_7478)"/>
<path d="M71.4004 385.5C79.1324 385.5 85.4004 379.232 85.4004 371.5C85.4004 363.768 79.1324 357.5 71.4004 357.5C63.6684 357.5 57.4004 363.768 57.4004 371.5C57.4004 379.232 63.6684 385.5 71.4004 385.5Z" fill="url(#paint51_linear_1_7478)"/>
<path d="M46.0996 335C53.8316 335 60.0996 328.732 60.0996 321C60.0996 313.268 53.8316 307 46.0996 307C38.3676 307 32.0996 313.268 32.0996 321C32.0996 328.732 38.3676 335 46.0996 335Z" fill="url(#paint52_linear_1_7478)"/>
<path d="M34.7998 279.8C42.5318 279.8 48.7998 273.532 48.7998 265.8C48.7998 258.068 42.5318 251.8 34.7998 251.8C27.0678 251.8 20.7998 258.068 20.7998 265.8C20.7998 273.532 27.0678 279.8 34.7998 279.8Z" fill="url(#paint53_linear_1_7478)"/>
<path d="M38.2002 223.5C45.9322 223.5 52.2002 217.232 52.2002 209.5C52.2002 201.768 45.9322 195.5 38.2002 195.5C30.4682 195.5 24.2002 201.768 24.2002 209.5C24.2002 217.232 30.4682 223.5 38.2002 223.5Z" fill="url(#paint54_linear_1_7478)"/>
<path d="M56.0996 170C63.8316 170 70.0996 163.732 70.0996 156C70.0996 148.268 63.8316 142 56.0996 142C48.3676 142 42.0996 148.268 42.0996 156C42.0996 163.732 48.3676 170 56.0996 170Z" fill="url(#paint55_linear_1_7478)"/>
<path d="M87.0996 123C94.8316 123 101.1 116.732 101.1 109C101.1 101.268 94.8316 95 87.0996 95C79.3676 95 73.0996 101.268 73.0996 109C73.0996 116.732 79.3676 123 87.0996 123Z" fill="url(#paint56_linear_1_7478)"/>
<path d="M129.3 85.5996C137.032 85.5996 143.3 79.3316 143.3 71.5996C143.3 63.8676 137.032 57.5996 129.3 57.5996C121.568 57.5996 115.3 63.8676 115.3 71.5996C115.3 79.3316 121.568 85.5996 129.3 85.5996Z" fill="url(#paint57_linear_1_7478)"/>
<path d="M179.8 60.4004C187.532 60.4004 193.8 54.1324 193.8 46.4004C193.8 38.6684 187.532 32.4004 179.8 32.4004C172.068 32.4004 165.8 38.6684 165.8 46.4004C165.8 54.1324 172.068 60.4004 179.8 60.4004Z" fill="url(#paint58_linear_1_7478)"/>
<path d="M235 49.0996C242.732 49.0996 249 42.8316 249 35.0996C249 27.3676 242.732 21.0996 235 21.0996C227.268 21.0996 221 27.3676 221 35.0996C221 42.8316 227.268 49.0996 235 49.0996Z" fill="url(#paint59_linear_1_7478)"/>
<path d="M291.3 52.5C299.032 52.5 305.3 46.232 305.3 38.5C305.3 30.768 299.032 24.5 291.3 24.5C283.568 24.5 277.3 30.768 277.3 38.5C277.3 46.232 283.568 52.5 291.3 52.5Z" fill="url(#paint60_linear_1_7478)"/>
<path d="M344.8 70.2998C352.532 70.2998 358.8 64.0318 358.8 56.2998C358.8 48.5678 352.532 42.2998 344.8 42.2998C337.068 42.2998 330.8 48.5678 330.8 56.2998C330.8 64.0318 337.068 70.2998 344.8 70.2998Z" fill="url(#paint61_linear_1_7478)"/>
<path d="M391.8 101.4C399.532 101.4 405.8 95.1324 405.8 87.4004C405.8 79.6684 399.532 73.4004 391.8 73.4004C384.068 73.4004 377.8 79.6684 377.8 87.4004C377.8 95.1324 384.068 101.4 391.8 101.4Z" fill="url(#paint62_linear_1_7478)"/>
<path d="M429.2 143.6C436.932 143.6 443.2 137.332 443.2 129.6C443.2 121.868 436.932 115.6 429.2 115.6C421.468 115.6 415.2 121.868 415.2 129.6C415.2 137.332 421.468 143.6 429.2 143.6Z" fill="url(#paint63_linear_1_7478)"/>
<path d="M454.4 194C462.132 194 468.4 187.732 468.4 180C468.4 172.268 462.132 166 454.4 166C446.668 166 440.4 172.268 440.4 180C440.4 187.732 446.668 194 454.4 194Z" fill="url(#paint64_linear_1_7478)"/>
<path d="M465.7 249.2C473.432 249.2 479.7 242.932 479.7 235.2C479.7 227.468 473.432 221.2 465.7 221.2C457.968 221.2 451.7 227.468 451.7 235.2C451.7 242.932 457.968 249.2 465.7 249.2Z" fill="url(#paint65_linear_1_7478)"/>
<path d="M462.3 305.5C470.032 305.5 476.3 299.232 476.3 291.5C476.3 283.768 470.032 277.5 462.3 277.5C454.568 277.5 448.3 283.768 448.3 291.5C448.3 299.232 454.568 305.5 462.3 305.5Z" fill="url(#paint66_linear_1_7478)"/>
<path d="M444.5 359C452.232 359 458.5 352.732 458.5 345C458.5 337.268 452.232 331 444.5 331C436.768 331 430.5 337.268 430.5 345C430.5 352.732 436.768 359 444.5 359Z" fill="url(#paint67_linear_1_7478)"/>
<path d="M413.4 406.1C421.132 406.1 427.4 399.832 427.4 392.1C427.4 384.368 421.132 378.1 413.4 378.1C405.668 378.1 399.4 384.368 399.4 392.1C399.4 399.832 405.668 406.1 413.4 406.1Z" fill="url(#paint68_linear_1_7478)"/>
<path d="M371.2 443.5C378.932 443.5 385.2 437.232 385.2 429.5C385.2 421.768 378.932 415.5 371.2 415.5C363.468 415.5 357.2 421.768 357.2 429.5C357.2 437.232 363.468 443.5 371.2 443.5Z" fill="url(#paint69_linear_1_7478)"/>
<path d="M320.8 468.7C328.532 468.7 334.8 462.432 334.8 454.7C334.8 446.968 328.532 440.7 320.8 440.7C313.068 440.7 306.8 446.968 306.8 454.7C306.8 462.432 313.068 468.7 320.8 468.7Z" fill="url(#paint70_linear_1_7478)"/>
<path d="M265.6 480C273.332 480 279.6 473.732 279.6 466C279.6 458.268 273.332 452 265.6 452C257.868 452 251.6 458.268 251.6 466C251.6 473.732 257.868 480 265.6 480Z" fill="url(#paint71_linear_1_7478)"/>
<path d="M182.1 483.9C188.341 483.9 193.4 478.841 193.4 472.6C193.4 466.359 188.341 461.3 182.1 461.3C175.859 461.3 170.8 466.359 170.8 472.6C170.8 478.841 175.859 483.9 182.1 483.9Z" fill="url(#paint72_linear_1_7478)"/>
<path d="M127.1 458.7C133.341 458.7 138.4 453.641 138.4 447.4C138.4 441.159 133.341 436.1 127.1 436.1C120.859 436.1 115.8 441.159 115.8 447.4C115.8 453.641 120.859 458.7 127.1 458.7Z" fill="url(#paint73_linear_1_7478)"/>
<path d="M80.5998 420.1C86.8406 420.1 91.8998 415.041 91.8998 408.8C91.8998 402.559 86.8406 397.5 80.5998 397.5C74.359 397.5 69.2998 402.559 69.2998 408.8C69.2998 415.041 74.359 420.1 80.5998 420.1Z" fill="url(#paint74_linear_1_7478)"/>
<path d="M45.5998 370.7C51.8406 370.7 56.8998 365.641 56.8998 359.4C56.8998 353.159 51.8406 348.1 45.5998 348.1C39.359 348.1 34.2998 353.159 34.2998 359.4C34.2998 365.641 39.359 370.7 45.5998 370.7Z" fill="url(#paint75_linear_1_7478)"/>
<path d="M24.5998 314C30.8406 314 35.8998 308.941 35.8998 302.7C35.8998 296.459 30.8406 291.4 24.5998 291.4C18.359 291.4 13.2998 296.459 13.2998 302.7C13.2998 308.941 18.359 314 24.5998 314Z" fill="url(#paint76_linear_1_7478)"/>
<path d="M19.0002 253.8C25.241 253.8 30.3002 248.741 30.3002 242.5C30.3002 236.259 25.241 231.2 19.0002 231.2C12.7594 231.2 7.7002 236.259 7.7002 242.5C7.7002 248.741 12.7594 253.8 19.0002 253.8Z" fill="url(#paint77_linear_1_7478)"/>
<path d="M29.0998 194.2C35.3406 194.2 40.3998 189.14 40.3998 182.9C40.3998 176.659 35.3406 171.6 29.0998 171.6C22.859 171.6 17.7998 176.659 17.7998 182.9C17.7998 189.14 22.859 194.2 29.0998 194.2Z" fill="url(#paint78_linear_1_7478)"/>
<path d="M54.3996 139.3C60.6404 139.3 65.6996 134.241 65.6996 128C65.6996 121.759 60.6404 116.7 54.3996 116.7C48.1588 116.7 43.0996 121.759 43.0996 128C43.0996 134.241 48.1588 139.3 54.3996 139.3Z" fill="url(#paint79_linear_1_7478)"/>
<path d="M93.0002 92.6996C99.241 92.6996 104.3 87.6404 104.3 81.3996C104.3 75.1588 99.241 70.0996 93.0002 70.0996C86.7594 70.0996 81.7002 75.1588 81.7002 81.3996C81.7002 87.6404 86.7594 92.6996 93.0002 92.6996Z" fill="url(#paint80_linear_1_7478)"/>
<path d="M142.3 57.8002C148.541 57.8002 153.6 52.741 153.6 46.5002C153.6 40.2594 148.541 35.2002 142.3 35.2002C136.059 35.2002 131 40.2594 131 46.5002C131 52.741 136.059 57.8002 142.3 57.8002Z" fill="url(#paint81_linear_1_7478)"/>
<path d="M199 36.8002C205.241 36.8002 210.3 31.741 210.3 25.5002C210.3 19.2594 205.241 14.2002 199 14.2002C192.759 14.2002 187.7 19.2594 187.7 25.5002C187.7 31.741 192.759 36.8002 199 36.8002Z" fill="url(#paint82_linear_1_7478)"/>
<path d="M259.2 31.1996C265.441 31.1996 270.5 26.1404 270.5 19.8996C270.5 13.6588 265.441 8.59961 259.2 8.59961C252.96 8.59961 247.9 13.6588 247.9 19.8996C247.9 26.1404 252.96 31.1996 259.2 31.1996Z" fill="url(#paint83_linear_1_7478)"/>
<path d="M318.9 41.3002C325.14 41.3002 330.2 36.241 330.2 30.0002C330.2 23.7594 325.14 18.7002 318.9 18.7002C312.659 18.7002 307.6 23.7594 307.6 30.0002C307.6 36.241 312.659 41.3002 318.9 41.3002Z" fill="url(#paint84_linear_1_7478)"/>
<path d="M373.8 66.6C380.041 66.6 385.1 61.5408 385.1 55.3C385.1 49.0592 380.041 44 373.8 44C367.559 44 362.5 49.0592 362.5 55.3C362.5 61.5408 367.559 66.6 373.8 66.6Z" fill="url(#paint85_linear_1_7478)"/>
<path d="M420.3 105.2C426.541 105.2 431.6 100.14 431.6 93.8996C431.6 87.6588 426.541 82.5996 420.3 82.5996C414.059 82.5996 409 87.6588 409 93.8996C409 100.14 414.059 105.2 420.3 105.2Z" fill="url(#paint86_linear_1_7478)"/>
<path d="M455.3 154.5C461.541 154.5 466.6 149.441 466.6 143.2C466.6 136.96 461.541 131.9 455.3 131.9C449.059 131.9 444 136.96 444 143.2C444 149.441 449.059 154.5 455.3 154.5Z" fill="url(#paint87_linear_1_7478)"/>
<path d="M476.3 211.2C482.541 211.2 487.6 206.14 487.6 199.9C487.6 193.659 482.541 188.6 476.3 188.6C470.059 188.6 465 193.659 465 199.9C465 206.14 470.059 211.2 476.3 211.2Z" fill="url(#paint88_linear_1_7478)"/>
<path d="M481.9 271.4C488.14 271.4 493.2 266.341 493.2 260.1C493.2 253.859 488.14 248.8 481.9 248.8C475.659 248.8 470.6 253.859 470.6 260.1C470.6 266.341 475.659 271.4 481.9 271.4Z" fill="url(#paint89_linear_1_7478)"/>
<path d="M471.8 331C478.041 331 483.1 325.941 483.1 319.7C483.1 313.459 478.041 308.4 471.8 308.4C465.559 308.4 460.5 313.459 460.5 319.7C460.5 325.941 465.559 331 471.8 331Z" fill="url(#paint90_linear_1_7478)"/>
<path d="M446.5 386C452.741 386 457.8 380.941 457.8 374.7C457.8 368.459 452.741 363.4 446.5 363.4C440.259 363.4 435.2 368.459 435.2 374.7C435.2 380.941 440.259 386 446.5 386Z" fill="url(#paint91_linear_1_7478)"/>
<path d="M407.9 432.5C414.14 432.5 419.2 427.441 419.2 421.2C419.2 414.959 414.14 409.9 407.9 409.9C401.659 409.9 396.6 414.959 396.6 421.2C396.6 427.441 401.659 432.5 407.9 432.5Z" fill="url(#paint92_linear_1_7478)"/>
<path d="M358.6 467.5C364.841 467.5 369.9 462.441 369.9 456.2C369.9 449.959 364.841 444.9 358.6 444.9C352.359 444.9 347.3 449.959 347.3 456.2C347.3 462.441 352.359 467.5 358.6 467.5Z" fill="url(#paint93_linear_1_7478)"/>
<path d="M301.9 488.5C308.14 488.5 313.2 483.441 313.2 477.2C313.2 470.959 308.14 465.9 301.9 465.9C295.659 465.9 290.6 470.959 290.6 477.2C290.6 483.441 295.659 488.5 301.9 488.5Z" fill="url(#paint94_linear_1_7478)"/>
<path d="M241.7 494.1C247.941 494.1 253 489.041 253 482.8C253 476.559 247.941 471.5 241.7 471.5C235.46 471.5 230.4 476.559 230.4 482.8C230.4 489.041 235.46 494.1 241.7 494.1Z" fill="url(#paint95_linear_1_7478)"/>
<path d="M219.1 499.5C224.016 499.5 228 495.516 228 490.6C228 485.685 224.016 481.7 219.1 481.7C214.185 481.7 210.2 485.685 210.2 490.6C210.2 495.516 214.185 499.5 219.1 499.5Z" fill="url(#paint96_linear_1_7478)"/>
<path d="M158 483.3C162.915 483.3 166.9 479.315 166.9 474.4C166.9 469.485 162.915 465.5 158 465.5C153.084 465.5 149.1 469.485 149.1 474.4C149.1 479.315 153.084 483.3 158 483.3Z" fill="url(#paint97_linear_1_7478)"/>
<path d="M103.2 451.9C108.115 451.9 112.1 447.915 112.1 443C112.1 438.085 108.115 434.1 103.2 434.1C98.2845 434.1 94.2998 438.085 94.2998 443C94.2998 447.915 98.2845 451.9 103.2 451.9Z" fill="url(#paint98_linear_1_7478)"/>
<path d="M58.4 407.3C63.3153 407.3 67.3 403.315 67.3 398.4C67.3 393.485 63.3153 389.5 58.4 389.5C53.4847 389.5 49.5 393.485 49.5 398.4C49.5 403.315 53.4847 407.3 58.4 407.3Z" fill="url(#paint99_linear_1_7478)"/>
<path d="M26.6002 352.7C31.5155 352.7 35.5002 348.715 35.5002 343.8C35.5002 338.885 31.5155 334.9 26.6002 334.9C21.6849 334.9 17.7002 338.885 17.7002 343.8C17.7002 348.715 21.6849 352.7 26.6002 352.7Z" fill="url(#paint100_linear_1_7478)"/>
<path d="M10.1002 291.7C15.0155 291.7 19.0002 287.715 19.0002 282.8C19.0002 277.885 15.0155 273.9 10.1002 273.9C5.18486 273.9 1.2002 277.885 1.2002 282.8C1.2002 287.715 5.18486 291.7 10.1002 291.7Z" fill="url(#paint101_linear_1_7478)"/>
<path d="M9.9 228.5C14.8153 228.5 18.8 224.516 18.8 219.6C18.8 214.685 14.8153 210.7 9.9 210.7C4.98467 210.7 1 214.685 1 219.6C1 224.516 4.98467 228.5 9.9 228.5Z" fill="url(#paint102_linear_1_7478)"/>
<path d="M26.1002 167.4C31.0155 167.4 35.0002 163.415 35.0002 158.5C35.0002 153.584 31.0155 149.6 26.1002 149.6C21.1849 149.6 17.2002 153.584 17.2002 158.5C17.2002 163.415 21.1849 167.4 26.1002 167.4Z" fill="url(#paint103_linear_1_7478)"/>
<path d="M57.4996 112.6C62.4149 112.6 66.3996 108.615 66.3996 103.7C66.3996 98.7845 62.4149 94.7998 57.4996 94.7998C52.5843 94.7998 48.5996 98.7845 48.5996 103.7C48.5996 108.615 52.5843 112.6 57.4996 112.6Z" fill="url(#paint104_linear_1_7478)"/>
<path d="M102.1 67.8C107.016 67.8 111 63.8153 111 58.9C111 53.9847 107.016 50 102.1 50C97.1849 50 93.2002 53.9847 93.2002 58.9C93.2002 63.8153 97.1849 67.8 102.1 67.8Z" fill="url(#paint105_linear_1_7478)"/>
<path d="M156.7 36.0002C161.615 36.0002 165.6 32.0155 165.6 27.1002C165.6 22.1849 161.615 18.2002 156.7 18.2002C151.784 18.2002 147.8 22.1849 147.8 27.1002C147.8 32.0155 151.784 36.0002 156.7 36.0002Z" fill="url(#paint106_linear_1_7478)"/>
<path d="M217.7 19.5002C222.615 19.5002 226.6 15.5155 226.6 10.6002C226.6 5.68486 222.615 1.7002 217.7 1.7002C212.784 1.7002 208.8 5.68486 208.8 10.6002C208.8 15.5155 212.784 19.5002 217.7 19.5002Z" fill="url(#paint107_linear_1_7478)"/>
<path d="M280.9 19.3C285.815 19.3 289.8 15.3153 289.8 10.4C289.8 5.48467 285.815 1.5 280.9 1.5C275.985 1.5 272 5.48467 272 10.4C272 15.3153 275.985 19.3 280.9 19.3Z" fill="url(#paint108_linear_1_7478)"/>
<path d="M342 35.5002C346.915 35.5002 350.9 31.5155 350.9 26.6002C350.9 21.6849 346.915 17.7002 342 17.7002C337.084 17.7002 333.1 21.6849 333.1 26.6002C333.1 31.5155 337.084 35.5002 342 35.5002Z" fill="url(#paint109_linear_1_7478)"/>
<path d="M396.8 66.8996C401.716 66.8996 405.7 62.9149 405.7 57.9996C405.7 53.0843 401.716 49.0996 396.8 49.0996C391.885 49.0996 387.9 53.0843 387.9 57.9996C387.9 62.9149 391.885 66.8996 396.8 66.8996Z" fill="url(#paint110_linear_1_7478)"/>
<path d="M441.6 111.5C446.516 111.5 450.5 107.516 450.5 102.6C450.5 97.6849 446.516 93.7002 441.6 93.7002C436.685 93.7002 432.7 97.6849 432.7 102.6C432.7 107.516 436.685 111.5 441.6 111.5Z" fill="url(#paint111_linear_1_7478)"/>
<path d="M473.4 166.1C478.315 166.1 482.3 162.115 482.3 157.2C482.3 152.284 478.315 148.3 473.4 148.3C468.485 148.3 464.5 152.284 464.5 157.2C464.5 162.115 468.485 166.1 473.4 166.1Z" fill="url(#paint112_linear_1_7478)"/>
<path d="M489.9 227.1C494.815 227.1 498.8 223.115 498.8 218.2C498.8 213.284 494.815 209.3 489.9 209.3C484.985 209.3 481 213.284 481 218.2C481 223.115 484.985 227.1 489.9 227.1Z" fill="url(#paint113_linear_1_7478)"/>
<path d="M490.1 290.3C495.016 290.3 499 286.315 499 281.4C499 276.485 495.016 272.5 490.1 272.5C485.185 272.5 481.2 276.485 481.2 281.4C481.2 286.315 485.185 290.3 490.1 290.3Z" fill="url(#paint114_linear_1_7478)"/>
<path d="M473.9 351.4C478.815 351.4 482.8 347.415 482.8 342.5C482.8 337.585 478.815 333.6 473.9 333.6C468.985 333.6 465 337.585 465 342.5C465 347.415 468.985 351.4 473.9 351.4Z" fill="url(#paint115_linear_1_7478)"/>
<path d="M442.5 406.2C447.415 406.2 451.4 402.215 451.4 397.3C451.4 392.385 447.415 388.4 442.5 388.4C437.584 388.4 433.6 392.385 433.6 397.3C433.6 402.215 437.584 406.2 442.5 406.2Z" fill="url(#paint116_linear_1_7478)"/>
<path d="M397.9 451C402.815 451 406.8 447.016 406.8 442.1C406.8 437.185 402.815 433.2 397.9 433.2C392.985 433.2 389 437.185 389 442.1C389 447.016 392.985 451 397.9 451Z" fill="url(#paint117_linear_1_7478)"/>
<path d="M343.3 482.8C348.216 482.8 352.2 478.815 352.2 473.9C352.2 468.985 348.216 465 343.3 465C338.385 465 334.4 468.985 334.4 473.9C334.4 478.815 338.385 482.8 343.3 482.8Z" fill="url(#paint118_linear_1_7478)"/>
<path d="M282.3 499.3C287.216 499.3 291.2 495.315 291.2 490.4C291.2 485.485 287.216 481.5 282.3 481.5C277.385 481.5 273.4 485.485 273.4 490.4C273.4 495.315 277.385 499.3 282.3 499.3Z" fill="url(#paint119_linear_1_7478)"/>
<defs>
<linearGradient id="paint0_linear_1_7478" x1="-80.9911" y1="66.061" x2="423.204" y2="571.7" gradientUnits="userSpaceOnUse">
<stop offset="0.000676877" stop-color="#A9DA5F"/>
<stop offset="1" stop-color="#1F9EB8"/>
</linearGradient>
<linearGradient id="paint1_linear_1_7478" x1="-99.4802" y1="84.4973" x2="404.714" y2="590.137" gradientUnits="userSpaceOnUse">
<stop offset="0.000676877" stop-color="#A9DA5F"/>
<stop offset="1" stop-color="#1F9EB8"/>
</linearGradient>
<linearGradient id="paint2_linear_1_7478" x1="-111.685" y1="96.6673" x2="392.51" y2="602.307" gradientUnits="userSpaceOnUse">
<stop offset="0.000676877" stop-color="#A9DA5F"/>
<stop offset="1" stop-color="#1F9EB8"/>
</linearGradient>
<linearGradient id="paint3_linear_1_7478" x1="-116.776" y1="101.743" x2="387.419" y2="607.382" gradientUnits="userSpaceOnUse">
<stop offset="0.000676877" stop-color="#A9DA5F"/>
<stop offset="1" stop-color="#1F9EB8"/>
</linearGradient>
<linearGradient id="paint4_linear_1_7478" x1="-114.402" y1="99.3758" x2="389.793" y2="605.015" gradientUnits="userSpaceOnUse">
<stop offset="0.000676877" stop-color="#A9DA5F"/>
<stop offset="1" stop-color="#1F9EB8"/>
</linearGradient>
<linearGradient id="paint5_linear_1_7478" x1="-104.727" y1="89.7288" x2="399.468" y2="595.368" gradientUnits="userSpaceOnUse">
<stop offset="0.000676877" stop-color="#A9DA5F"/>
<stop offset="1" stop-color="#1F9EB8"/>
</linearGradient>
<linearGradient id="paint6_linear_1_7478" x1="-88.4104" y1="73.4588" x2="415.784" y2="579.098" gradientUnits="userSpaceOnUse">
<stop offset="0.000676877" stop-color="#A9DA5F"/>
<stop offset="1" stop-color="#1F9EB8"/>
</linearGradient>
<linearGradient id="paint7_linear_1_7478" x1="-66.5648" y1="51.6751" x2="437.63" y2="557.315" gradientUnits="userSpaceOnUse">
<stop offset="0.000676877" stop-color="#A9DA5F"/>
<stop offset="1" stop-color="#1F9EB8"/>
</linearGradient>
<linearGradient id="paint8_linear_1_7478" x1="-40.6767" y1="25.8612" x2="463.518" y2="531.501" gradientUnits="userSpaceOnUse">
<stop offset="0.000676877" stop-color="#A9DA5F"/>
<stop offset="1" stop-color="#1F9EB8"/>
</linearGradient>
<linearGradient id="paint9_linear_1_7478" x1="-12.5123" y1="-2.22236" x2="491.682" y2="503.417" gradientUnits="userSpaceOnUse">
<stop offset="0.000676877" stop-color="#A9DA5F"/>
<stop offset="1" stop-color="#1F9EB8"/>
</linearGradient>
<linearGradient id="paint10_linear_1_7478" x1="16.009" y1="-30.6624" x2="520.204" y2="474.977" gradientUnits="userSpaceOnUse">
<stop offset="0.000676877" stop-color="#A9DA5F"/>
<stop offset="1" stop-color="#1F9EB8"/>
</linearGradient>
<linearGradient id="paint11_linear_1_7478" x1="42.9457" y1="-57.5217" x2="547.14" y2="448.118" gradientUnits="userSpaceOnUse">
<stop offset="0.000676877" stop-color="#A9DA5F"/>
<stop offset="1" stop-color="#1F9EB8"/>
</linearGradient>
<linearGradient id="paint12_linear_1_7478" x1="66.4589" y1="-80.968" x2="570.654" y2="424.671" gradientUnits="userSpaceOnUse">
<stop offset="0.000676877" stop-color="#A9DA5F"/>
<stop offset="1" stop-color="#1F9EB8"/>
</linearGradient>
<linearGradient id="paint13_linear_1_7478" x1="84.9492" y1="-99.4055" x2="589.144" y2="406.234" gradientUnits="userSpaceOnUse">
<stop offset="0.000676877" stop-color="#A9DA5F"/>
<stop offset="1" stop-color="#1F9EB8"/>
</linearGradient>
<linearGradient id="paint14_linear_1_7478" x1="97.1547" y1="-111.576" x2="601.349" y2="394.064" gradientUnits="userSpaceOnUse">
<stop offset="0.000676877" stop-color="#A9DA5F"/>
<stop offset="1" stop-color="#1F9EB8"/>
</linearGradient>
<linearGradient id="paint15_linear_1_7478" x1="102.244" y1="-116.65" x2="606.438" y2="388.989" gradientUnits="userSpaceOnUse">
<stop offset="0.000676877" stop-color="#A9DA5F"/>
<stop offset="1" stop-color="#1F9EB8"/>
</linearGradient>
<linearGradient id="paint16_linear_1_7478" x1="99.8709" y1="-114.284" x2="604.066" y2="391.355" gradientUnits="userSpaceOnUse">
<stop offset="0.000676877" stop-color="#A9DA5F"/>
<stop offset="1" stop-color="#1F9EB8"/>
</linearGradient>
<linearGradient id="paint17_linear_1_7478" x1="90.1962" y1="-104.637" x2="594.391" y2="401.003" gradientUnits="userSpaceOnUse">
<stop offset="0.000676877" stop-color="#A9DA5F"/>
<stop offset="1" stop-color="#1F9EB8"/>
</linearGradient>
<linearGradient id="paint18_linear_1_7478" x1="73.8794" y1="-88.3669" x2="578.074" y2="417.272" gradientUnits="userSpaceOnUse">
<stop offset="0.000676877" stop-color="#A9DA5F"/>
<stop offset="1" stop-color="#1F9EB8"/>
</linearGradient>
<linearGradient id="paint19_linear_1_7478" x1="52.0331" y1="-66.5835" x2="556.228" y2="439.056" gradientUnits="userSpaceOnUse">
<stop offset="0.000676877" stop-color="#A9DA5F"/>
<stop offset="1" stop-color="#1F9EB8"/>
</linearGradient>
<linearGradient id="paint20_linear_1_7478" x1="26.145" y1="-40.7689" x2="530.34" y2="464.871" gradientUnits="userSpaceOnUse">
<stop offset="0.000676877" stop-color="#A9DA5F"/>
<stop offset="1" stop-color="#1F9EB8"/>
</linearGradient>
<linearGradient id="paint21_linear_1_7478" x1="-2.01966" y1="-12.6851" x2="502.175" y2="492.955" gradientUnits="userSpaceOnUse">
<stop offset="0.000676877" stop-color="#A9DA5F"/>
<stop offset="1" stop-color="#1F9EB8"/>
</linearGradient>
<linearGradient id="paint22_linear_1_7478" x1="-30.5406" y1="15.7549" x2="473.654" y2="521.395" gradientUnits="userSpaceOnUse">
<stop offset="0.000676877" stop-color="#A9DA5F"/>
<stop offset="1" stop-color="#1F9EB8"/>
</linearGradient>
<linearGradient id="paint23_linear_1_7478" x1="-57.4771" y1="42.6133" x2="446.718" y2="548.253" gradientUnits="userSpaceOnUse">
<stop offset="0.000676877" stop-color="#A9DA5F"/>
<stop offset="1" stop-color="#1F9EB8"/>
</linearGradient>
<linearGradient id="paint24_linear_1_7478" x1="-108.565" y1="93.556" x2="395.63" y2="599.195" gradientUnits="userSpaceOnUse">
<stop offset="0.000676877" stop-color="#A9DA5F"/>
<stop offset="1" stop-color="#1F9EB8"/>
</linearGradient>
<linearGradient id="paint25_linear_1_7478" x1="-128.017" y1="112.951" x2="376.178" y2="618.591" gradientUnits="userSpaceOnUse">
<stop offset="0.000676877" stop-color="#A9DA5F"/>
<stop offset="1" stop-color="#1F9EB8"/>
</linearGradient>
<linearGradient id="paint26_linear_1_7478" x1="-139.242" y1="124.145" x2="364.953" y2="629.784" gradientUnits="userSpaceOnUse">
<stop offset="0.000676877" stop-color="#A9DA5F"/>
<stop offset="1" stop-color="#1F9EB8"/>
</linearGradient>
<linearGradient id="paint27_linear_1_7478" x1="-141.477" y1="126.373" x2="362.718" y2="632.013" gradientUnits="userSpaceOnUse">
<stop offset="0.000676877" stop-color="#A9DA5F"/>
<stop offset="1" stop-color="#1F9EB8"/>
</linearGradient>
<linearGradient id="paint28_linear_1_7478" x1="-134.567" y1="119.483" x2="369.628" y2="625.123" gradientUnits="userSpaceOnUse">
<stop offset="0.000676877" stop-color="#A9DA5F"/>
<stop offset="1" stop-color="#1F9EB8"/>
</linearGradient>
<linearGradient id="paint29_linear_1_7478" x1="-118.985" y1="103.946" x2="385.21" y2="609.586" gradientUnits="userSpaceOnUse">
<stop offset="0.000676877" stop-color="#A9DA5F"/>
<stop offset="1" stop-color="#1F9EB8"/>
</linearGradient>
<linearGradient id="paint30_linear_1_7478" x1="-95.7932" y1="80.8207" x2="408.402" y2="586.46" gradientUnits="userSpaceOnUse">
<stop offset="0.000676877" stop-color="#A9DA5F"/>
<stop offset="1" stop-color="#1F9EB8"/>
</linearGradient>
<linearGradient id="paint31_linear_1_7478" x1="-66.5709" y1="51.6812" x2="437.624" y2="557.321" gradientUnits="userSpaceOnUse">
<stop offset="0.000676877" stop-color="#A9DA5F"/>
<stop offset="1" stop-color="#1F9EB8"/>
</linearGradient>
<linearGradient id="paint32_linear_1_7478" x1="-33.3098" y1="18.5164" x2="470.885" y2="524.156" gradientUnits="userSpaceOnUse">
<stop offset="0.000676877" stop-color="#A9DA5F"/>
<stop offset="1" stop-color="#1F9EB8"/>
</linearGradient>
<linearGradient id="paint33_linear_1_7478" x1="1.72332" y1="-16.4171" x2="505.918" y2="489.222" gradientUnits="userSpaceOnUse">
<stop offset="0.000676877" stop-color="#A9DA5F"/>
<stop offset="1" stop-color="#1F9EB8"/>
</linearGradient>
<linearGradient id="paint34_linear_1_7478" x1="36.1405" y1="-50.7365" x2="540.335" y2="454.903" gradientUnits="userSpaceOnUse">
<stop offset="0.000676877" stop-color="#A9DA5F"/>
<stop offset="1" stop-color="#1F9EB8"/>
</linearGradient>
<linearGradient id="paint35_linear_1_7478" x1="67.5967" y1="-82.1027" x2="571.791" y2="423.537" gradientUnits="userSpaceOnUse">
<stop offset="0.000676877" stop-color="#A9DA5F"/>
<stop offset="1" stop-color="#1F9EB8"/>
</linearGradient>
<linearGradient id="paint36_linear_1_7478" x1="93.9486" y1="-108.379" x2="598.143" y2="397.26" gradientUnits="userSpaceOnUse">
<stop offset="0.000676877" stop-color="#A9DA5F"/>
<stop offset="1" stop-color="#1F9EB8"/>
</linearGradient>
<linearGradient id="paint37_linear_1_7478" x1="113.4" y1="-127.775" x2="617.595" y2="377.865" gradientUnits="userSpaceOnUse">
<stop offset="0.000676877" stop-color="#A9DA5F"/>
<stop offset="1" stop-color="#1F9EB8"/>
</linearGradient>
<linearGradient id="paint38_linear_1_7478" x1="124.625" y1="-138.968" x2="628.82" y2="366.671" gradientUnits="userSpaceOnUse">
<stop offset="0.000676877" stop-color="#A9DA5F"/>
<stop offset="1" stop-color="#1F9EB8"/>
</linearGradient>
<linearGradient id="paint39_linear_1_7478" x1="126.86" y1="-141.197" x2="631.055" y2="364.443" gradientUnits="userSpaceOnUse">
<stop offset="0.000676877" stop-color="#A9DA5F"/>
<stop offset="1" stop-color="#1F9EB8"/>
</linearGradient>
<linearGradient id="paint40_linear_1_7478" x1="119.95" y1="-134.307" x2="624.145" y2="371.333" gradientUnits="userSpaceOnUse">
<stop offset="0.000676877" stop-color="#A9DA5F"/>
<stop offset="1" stop-color="#1F9EB8"/>
</linearGradient>
<linearGradient id="paint41_linear_1_7478" x1="104.369" y1="-118.77" x2="608.564" y2="386.87" gradientUnits="userSpaceOnUse">
<stop offset="0.000676877" stop-color="#A9DA5F"/>
<stop offset="1" stop-color="#1F9EB8"/>
</linearGradient>
<linearGradient id="paint42_linear_1_7478" x1="81.1774" y1="-95.6437" x2="585.372" y2="409.995" gradientUnits="userSpaceOnUse">
<stop offset="0.000676877" stop-color="#A9DA5F"/>
<stop offset="1" stop-color="#1F9EB8"/>
</linearGradient>
<linearGradient id="paint43_linear_1_7478" x1="51.9548" y1="-66.5052" x2="556.15" y2="439.134" gradientUnits="userSpaceOnUse">
<stop offset="0.000676877" stop-color="#A9DA5F"/>
<stop offset="1" stop-color="#1F9EB8"/>
</linearGradient>
<linearGradient id="paint44_linear_1_7478" x1="18.6931" y1="-33.3391" x2="522.888" y2="472.3" gradientUnits="userSpaceOnUse">
<stop offset="0.000676877" stop-color="#A9DA5F"/>
<stop offset="1" stop-color="#1F9EB8"/>
</linearGradient>
<linearGradient id="paint45_linear_1_7478" x1="-16.3391" y1="1.5936" x2="487.855" y2="507.233" gradientUnits="userSpaceOnUse">
<stop offset="0.000676877" stop-color="#A9DA5F"/>
<stop offset="1" stop-color="#1F9EB8"/>
</linearGradient>
<linearGradient id="paint46_linear_1_7478" x1="-50.756" y1="35.9124" x2="453.439" y2="541.551" gradientUnits="userSpaceOnUse">
<stop offset="0.000676877" stop-color="#A9DA5F"/>
<stop offset="1" stop-color="#1F9EB8"/>
</linearGradient>
<linearGradient id="paint47_linear_1_7478" x1="-82.2124" y1="67.2794" x2="421.982" y2="572.919" gradientUnits="userSpaceOnUse">
<stop offset="0.000676877" stop-color="#A9DA5F"/>
<stop offset="1" stop-color="#1F9EB8"/>
</linearGradient>
<linearGradient id="paint48_linear_1_7478" x1="-133.691" y1="118.61" x2="370.503" y2="624.25" gradientUnits="userSpaceOnUse">
<stop offset="0.000676877" stop-color="#A9DA5F"/>
<stop offset="1" stop-color="#1F9EB8"/>
</linearGradient>
<linearGradient id="paint49_linear_1_7478" x1="-151.593" y1="136.461" x2="352.602" y2="642.1" gradientUnits="userSpaceOnUse">
<stop offset="0.000676877" stop-color="#A9DA5F"/>
<stop offset="1" stop-color="#1F9EB8"/>
</linearGradient>
<linearGradient id="paint50_linear_1_7478" x1="-159.649" y1="144.494" x2="344.546" y2="650.133" gradientUnits="userSpaceOnUse">
<stop offset="0.000676877" stop-color="#A9DA5F"/>
<stop offset="1" stop-color="#1F9EB8"/>
</linearGradient>
<linearGradient id="paint51_linear_1_7478" x1="-157.308" y1="142.16" x2="346.886" y2="647.8" gradientUnits="userSpaceOnUse">
<stop offset="0.000676877" stop-color="#A9DA5F"/>
<stop offset="1" stop-color="#1F9EB8"/>
</linearGradient>
<linearGradient id="paint52_linear_1_7478" x1="-144.733" y1="129.62" x2="359.462" y2="635.259" gradientUnits="userSpaceOnUse">
<stop offset="0.000676877" stop-color="#A9DA5F"/>
<stop offset="1" stop-color="#1F9EB8"/>
</linearGradient>
<linearGradient id="paint53_linear_1_7478" x1="-122.777" y1="107.727" x2="381.418" y2="613.366" gradientUnits="userSpaceOnUse">
<stop offset="0.000676877" stop-color="#A9DA5F"/>
<stop offset="1" stop-color="#1F9EB8"/>
</linearGradient>
<linearGradient id="paint54_linear_1_7478" x1="-92.9381" y1="77.9738" x2="411.257" y2="583.613" gradientUnits="userSpaceOnUse">
<stop offset="0.000676877" stop-color="#A9DA5F"/>
<stop offset="1" stop-color="#1F9EB8"/>
</linearGradient>
<linearGradient id="paint55_linear_1_7478" x1="-57.2515" y1="42.3886" x2="446.943" y2="548.028" gradientUnits="userSpaceOnUse">
<stop offset="0.000676877" stop-color="#A9DA5F"/>
<stop offset="1" stop-color="#1F9EB8"/>
</linearGradient>
<linearGradient id="paint56_linear_1_7478" x1="-18.1467" y1="3.3955" x2="486.048" y2="509.035" gradientUnits="userSpaceOnUse">
<stop offset="0.000676877" stop-color="#A9DA5F"/>
<stop offset="1" stop-color="#1F9EB8"/>
</linearGradient>
<linearGradient id="paint57_linear_1_7478" x1="21.7114" y1="-36.3488" x2="525.906" y2="469.291" gradientUnits="userSpaceOnUse">
<stop offset="0.000676877" stop-color="#A9DA5F"/>
<stop offset="1" stop-color="#1F9EB8"/>
</linearGradient>
<linearGradient id="paint58_linear_1_7478" x1="59.605" y1="-74.1334" x2="563.8" y2="431.506" gradientUnits="userSpaceOnUse">
<stop offset="0.000676877" stop-color="#A9DA5F"/>
<stop offset="1" stop-color="#1F9EB8"/>
</linearGradient>
<linearGradient id="paint59_linear_1_7478" x1="92.9526" y1="-107.386" x2="597.147" y2="398.253" gradientUnits="userSpaceOnUse">
<stop offset="0.000676877" stop-color="#A9DA5F"/>
<stop offset="1" stop-color="#1F9EB8"/>
</linearGradient>
<linearGradient id="paint60_linear_1_7478" x1="119.481" y1="-133.839" x2="623.676" y2="371.801" gradientUnits="userSpaceOnUse">
<stop offset="0.000676877" stop-color="#A9DA5F"/>
<stop offset="1" stop-color="#1F9EB8"/>
</linearGradient>
<linearGradient id="paint61_linear_1_7478" x1="137.383" y1="-151.69" x2="641.578" y2="353.949" gradientUnits="userSpaceOnUse">
<stop offset="0.000676877" stop-color="#A9DA5F"/>
<stop offset="1" stop-color="#1F9EB8"/>
</linearGradient>
<linearGradient id="paint62_linear_1_7478" x1="145.438" y1="-159.722" x2="649.633" y2="345.918" gradientUnits="userSpaceOnUse">
<stop offset="0.000676877" stop-color="#A9DA5F"/>
<stop offset="1" stop-color="#1F9EB8"/>
</linearGradient>
<linearGradient id="paint63_linear_1_7478" x1="143.099" y1="-157.389" x2="647.294" y2="348.25" gradientUnits="userSpaceOnUse">
<stop offset="0.000676877" stop-color="#A9DA5F"/>
<stop offset="1" stop-color="#1F9EB8"/>
</linearGradient>
<linearGradient id="paint64_linear_1_7478" x1="130.523" y1="-144.848" x2="634.717" y2="360.791" gradientUnits="userSpaceOnUse">
<stop offset="0.000676877" stop-color="#A9DA5F"/>
<stop offset="1" stop-color="#1F9EB8"/>
</linearGradient>
<linearGradient id="paint65_linear_1_7478" x1="108.567" y1="-122.955" x2="612.762" y2="382.684" gradientUnits="userSpaceOnUse">
<stop offset="0.000676877" stop-color="#A9DA5F"/>
<stop offset="1" stop-color="#1F9EB8"/>
</linearGradient>
<linearGradient id="paint66_linear_1_7478" x1="78.7285" y1="-93.2027" x2="582.923" y2="412.437" gradientUnits="userSpaceOnUse">
<stop offset="0.000676877" stop-color="#A9DA5F"/>
<stop offset="1" stop-color="#1F9EB8"/>
</linearGradient>
<linearGradient id="paint67_linear_1_7478" x1="43.041" y1="-57.6169" x2="547.236" y2="448.023" gradientUnits="userSpaceOnUse">
<stop offset="0.000676877" stop-color="#A9DA5F"/>
<stop offset="1" stop-color="#1F9EB8"/>
</linearGradient>
<linearGradient id="paint68_linear_1_7478" x1="3.93631" y1="-18.6234" x2="508.131" y2="487.016" gradientUnits="userSpaceOnUse">
<stop offset="0.000676877" stop-color="#A9DA5F"/>
<stop offset="1" stop-color="#1F9EB8"/>
</linearGradient>
<linearGradient id="paint69_linear_1_7478" x1="-35.921" y1="21.1197" x2="468.274" y2="526.759" gradientUnits="userSpaceOnUse">
<stop offset="0.000676877" stop-color="#A9DA5F"/>
<stop offset="1" stop-color="#1F9EB8"/>
</linearGradient>
<linearGradient id="paint70_linear_1_7478" x1="-73.8156" y1="58.9058" x2="430.379" y2="564.545" gradientUnits="userSpaceOnUse">
<stop offset="0.000676877" stop-color="#A9DA5F"/>
<stop offset="1" stop-color="#1F9EB8"/>
</linearGradient>
<linearGradient id="paint71_linear_1_7478" x1="-107.163" y1="92.1575" x2="397.032" y2="597.797" gradientUnits="userSpaceOnUse">
<stop offset="0.000676877" stop-color="#A9DA5F"/>
<stop offset="1" stop-color="#1F9EB8"/>
</linearGradient>
<linearGradient id="paint72_linear_1_7478" x1="-152.375" y1="137.24" x2="351.82" y2="642.879" gradientUnits="userSpaceOnUse">
<stop offset="0.000676877" stop-color="#A9DA5F"/>
<stop offset="1" stop-color="#1F9EB8"/>
</linearGradient>
<linearGradient id="paint73_linear_1_7478" x1="-167.305" y1="152.128" x2="336.89" y2="657.767" gradientUnits="userSpaceOnUse">
<stop offset="0.000676877" stop-color="#A9DA5F"/>
<stop offset="1" stop-color="#1F9EB8"/>
</linearGradient>
<linearGradient id="paint74_linear_1_7478" x1="-171.34" y1="156.151" x2="332.855" y2="661.79" gradientUnits="userSpaceOnUse">
<stop offset="0.000676877" stop-color="#A9DA5F"/>
<stop offset="1" stop-color="#1F9EB8"/>
</linearGradient>
<linearGradient id="paint75_linear_1_7478" x1="-164.204" y1="149.035" x2="339.991" y2="654.675" gradientUnits="userSpaceOnUse">
<stop offset="0.000676877" stop-color="#A9DA5F"/>
<stop offset="1" stop-color="#1F9EB8"/>
</linearGradient>
<linearGradient id="paint76_linear_1_7478" x1="-146.383" y1="131.265" x2="357.812" y2="636.905" gradientUnits="userSpaceOnUse">
<stop offset="0.000676877" stop-color="#A9DA5F"/>
<stop offset="1" stop-color="#1F9EB8"/>
</linearGradient>
<linearGradient id="paint77_linear_1_7478" x1="-119.093" y1="104.054" x2="385.102" y2="609.693" gradientUnits="userSpaceOnUse">
<stop offset="0.000676877" stop-color="#A9DA5F"/>
<stop offset="1" stop-color="#1F9EB8"/>
</linearGradient>
<linearGradient id="paint78_linear_1_7478" x1="-84.1927" y1="69.2528" x2="420.002" y2="574.892" gradientUnits="userSpaceOnUse">
<stop offset="0.000676877" stop-color="#A9DA5F"/>
<stop offset="1" stop-color="#1F9EB8"/>
</linearGradient>
<linearGradient id="paint79_linear_1_7478" x1="-44.0611" y1="29.2361" x2="460.134" y2="534.876" gradientUnits="userSpaceOnUse">
<stop offset="0.000676877" stop-color="#A9DA5F"/>
<stop offset="1" stop-color="#1F9EB8"/>
</linearGradient>
<linearGradient id="paint80_linear_1_7478" x1="-1.43154" y1="-13.2717" x2="502.763" y2="492.368" gradientUnits="userSpaceOnUse">
<stop offset="0.000676877" stop-color="#A9DA5F"/>
<stop offset="1" stop-color="#1F9EB8"/>
</linearGradient>
<linearGradient id="paint81_linear_1_7478" x1="40.7887" y1="-55.3709" x2="544.983" y2="450.269" gradientUnits="userSpaceOnUse">
<stop offset="0.000676877" stop-color="#A9DA5F"/>
<stop offset="1" stop-color="#1F9EB8"/>
</linearGradient>
<linearGradient id="paint82_linear_1_7478" x1="79.7236" y1="-94.1943" x2="583.918" y2="411.445" gradientUnits="userSpaceOnUse">
<stop offset="0.000676877" stop-color="#A9DA5F"/>
<stop offset="1" stop-color="#1F9EB8"/>
</linearGradient>
<linearGradient id="paint83_linear_1_7478" x1="112.72" y1="-127.097" x2="616.914" y2="378.543" gradientUnits="userSpaceOnUse">
<stop offset="0.000676877" stop-color="#A9DA5F"/>
<stop offset="1" stop-color="#1F9EB8"/>
</linearGradient>
<linearGradient id="paint84_linear_1_7478" x1="137.527" y1="-151.833" x2="641.722" y2="353.806" gradientUnits="userSpaceOnUse">
<stop offset="0.000676877" stop-color="#A9DA5F"/>
<stop offset="1" stop-color="#1F9EB8"/>
</linearGradient>
<linearGradient id="paint85_linear_1_7478" x1="152.458" y1="-166.721" x2="656.652" y2="338.918" gradientUnits="userSpaceOnUse">
<stop offset="0.000676877" stop-color="#A9DA5F"/>
<stop offset="1" stop-color="#1F9EB8"/>
</linearGradient>
<linearGradient id="paint86_linear_1_7478" x1="156.492" y1="-170.744" x2="660.687" y2="334.895" gradientUnits="userSpaceOnUse">
<stop offset="0.000676877" stop-color="#A9DA5F"/>
<stop offset="1" stop-color="#1F9EB8"/>
</linearGradient>
<linearGradient id="paint87_linear_1_7478" x1="149.356" y1="-163.628" x2="653.551" y2="342.012" gradientUnits="userSpaceOnUse">
<stop offset="0.000676877" stop-color="#A9DA5F"/>
<stop offset="1" stop-color="#1F9EB8"/>
</linearGradient>
<linearGradient id="paint88_linear_1_7478" x1="131.536" y1="-145.859" x2="635.73" y2="359.781" gradientUnits="userSpaceOnUse">
<stop offset="0.000676877" stop-color="#A9DA5F"/>
<stop offset="1" stop-color="#1F9EB8"/>
</linearGradient>
<linearGradient id="paint89_linear_1_7478" x1="104.245" y1="-118.647" x2="608.44" y2="386.993" gradientUnits="userSpaceOnUse">
<stop offset="0.000676877" stop-color="#A9DA5F"/>
<stop offset="1" stop-color="#1F9EB8"/>
</linearGradient>
<linearGradient id="paint90_linear_1_7478" x1="69.3449" y1="-83.8459" x2="573.54" y2="421.794" gradientUnits="userSpaceOnUse">
<stop offset="0.000676877" stop-color="#A9DA5F"/>
<stop offset="1" stop-color="#1F9EB8"/>
</linearGradient>
<linearGradient id="paint91_linear_1_7478" x1="29.2141" y1="-43.8292" x2="533.409" y2="461.81" gradientUnits="userSpaceOnUse">
<stop offset="0.000676877" stop-color="#A9DA5F"/>
<stop offset="1" stop-color="#1F9EB8"/>
</linearGradient>
<linearGradient id="paint92_linear_1_7478" x1="-13.4159" y1="-1.32201" x2="490.779" y2="504.318" gradientUnits="userSpaceOnUse">
<stop offset="0.000676877" stop-color="#A9DA5F"/>
<stop offset="1" stop-color="#1F9EB8"/>
</linearGradient>
<linearGradient id="paint93_linear_1_7478" x1="-55.6364" y1="40.7781" x2="448.558" y2="546.418" gradientUnits="userSpaceOnUse">
<stop offset="0.000676877" stop-color="#A9DA5F"/>
<stop offset="1" stop-color="#1F9EB8"/>
</linearGradient>
<linearGradient id="paint94_linear_1_7478" x1="-94.5713" y1="79.6015" x2="409.624" y2="585.241" gradientUnits="userSpaceOnUse">
<stop offset="0.000676877" stop-color="#A9DA5F"/>
<stop offset="1" stop-color="#1F9EB8"/>
</linearGradient>
<linearGradient id="paint95_linear_1_7478" x1="-127.566" y1="112.503" x2="376.629" y2="618.142" gradientUnits="userSpaceOnUse">
<stop offset="0.000676877" stop-color="#A9DA5F"/>
<stop offset="1" stop-color="#1F9EB8"/>
</linearGradient>
<linearGradient id="paint96_linear_1_7478" x1="-142.772" y1="127.666" x2="361.423" y2="633.305" gradientUnits="userSpaceOnUse">
<stop offset="0.000676877" stop-color="#A9DA5F"/>
<stop offset="1" stop-color="#1F9EB8"/>
</linearGradient>
<linearGradient id="paint97_linear_1_7478" x1="-165.316" y1="150.145" x2="338.878" y2="655.784" gradientUnits="userSpaceOnUse">
<stop offset="0.000676877" stop-color="#A9DA5F"/>
<stop offset="1" stop-color="#1F9EB8"/>
</linearGradient>
<linearGradient id="paint98_linear_1_7478" x1="-177.089" y1="161.884" x2="327.105" y2="667.524" gradientUnits="userSpaceOnUse">
<stop offset="0.000676877" stop-color="#A9DA5F"/>
<stop offset="1" stop-color="#1F9EB8"/>
</linearGradient>
<linearGradient id="paint99_linear_1_7478" x1="-177.286" y1="162.081" x2="326.908" y2="667.721" gradientUnits="userSpaceOnUse">
<stop offset="0.000676877" stop-color="#A9DA5F"/>
<stop offset="1" stop-color="#1F9EB8"/>
</linearGradient>
<linearGradient id="paint100_linear_1_7478" x1="-165.894" y1="150.721" x2="338.301" y2="656.36" gradientUnits="userSpaceOnUse">
<stop offset="0.000676877" stop-color="#A9DA5F"/>
<stop offset="1" stop-color="#1F9EB8"/>
</linearGradient>
<linearGradient id="paint101_linear_1_7478" x1="-143.692" y1="128.582" x2="360.504" y2="634.221" gradientUnits="userSpaceOnUse">
<stop offset="0.000676877" stop-color="#A9DA5F"/>
<stop offset="1" stop-color="#1F9EB8"/>
</linearGradient>
<linearGradient id="paint102_linear_1_7478" x1="-112.19" y1="97.1711" x2="392.004" y2="602.811" gradientUnits="userSpaceOnUse">
<stop offset="0.000676877" stop-color="#A9DA5F"/>
<stop offset="1" stop-color="#1F9EB8"/>
</linearGradient>
<linearGradient id="paint103_linear_1_7478" x1="-73.5362" y1="58.6271" x2="430.658" y2="564.266" gradientUnits="userSpaceOnUse">
<stop offset="0.000676877" stop-color="#A9DA5F"/>
<stop offset="1" stop-color="#1F9EB8"/>
</linearGradient>
<linearGradient id="paint104_linear_1_7478" x1="-30.3643" y1="15.5781" x2="473.83" y2="521.218" gradientUnits="userSpaceOnUse">
<stop offset="0.000676877" stop-color="#A9DA5F"/>
<stop offset="1" stop-color="#1F9EB8"/>
</linearGradient>
<linearGradient id="paint105_linear_1_7478" x1="14.3832" y1="-29.0408" x2="518.578" y2="476.599" gradientUnits="userSpaceOnUse">
<stop offset="0.000676877" stop-color="#A9DA5F"/>
<stop offset="1" stop-color="#1F9EB8"/>
</linearGradient>
<linearGradient id="paint106_linear_1_7478" x1="57.6572" y1="-72.1914" x2="561.852" y2="433.448" gradientUnits="userSpaceOnUse">
<stop offset="0.000676877" stop-color="#A9DA5F"/>
<stop offset="1" stop-color="#1F9EB8"/>
</linearGradient>
<linearGradient id="paint107_linear_1_7478" x1="96.5081" y1="-110.931" x2="600.703" y2="394.708" gradientUnits="userSpaceOnUse">
<stop offset="0.000676877" stop-color="#A9DA5F"/>
<stop offset="1" stop-color="#1F9EB8"/>
</linearGradient>
<linearGradient id="paint108_linear_1_7478" x1="128.289" y1="-142.622" x2="632.484" y2="363.017" gradientUnits="userSpaceOnUse">
<stop offset="0.000676877" stop-color="#A9DA5F"/>
<stop offset="1" stop-color="#1F9EB8"/>
</linearGradient>
<linearGradient id="paint109_linear_1_7478" x1="150.834" y1="-165.102" x2="655.028" y2="340.537" gradientUnits="userSpaceOnUse">
<stop offset="0.000676877" stop-color="#A9DA5F"/>
<stop offset="1" stop-color="#1F9EB8"/>
</linearGradient>
<linearGradient id="paint110_linear_1_7478" x1="162.606" y1="-176.841" x2="666.801" y2="328.799" gradientUnits="userSpaceOnUse">
<stop offset="0.000676877" stop-color="#A9DA5F"/>
<stop offset="1" stop-color="#1F9EB8"/>
</linearGradient>
<linearGradient id="paint111_linear_1_7478" x1="162.804" y1="-177.037" x2="666.999" y2="328.602" gradientUnits="userSpaceOnUse">
<stop offset="0.000676877" stop-color="#A9DA5F"/>
<stop offset="1" stop-color="#1F9EB8"/>
</linearGradient>
<linearGradient id="paint112_linear_1_7478" x1="151.413" y1="-165.679" x2="655.607" y2="339.96" gradientUnits="userSpaceOnUse">
<stop offset="0.000676877" stop-color="#A9DA5F"/>
<stop offset="1" stop-color="#1F9EB8"/>
</linearGradient>
<linearGradient id="paint113_linear_1_7478" x1="129.209" y1="-143.539" x2="633.404" y2="362.1" gradientUnits="userSpaceOnUse">
<stop offset="0.000676877" stop-color="#A9DA5F"/>
<stop offset="1" stop-color="#1F9EB8"/>
</linearGradient>
<linearGradient id="paint114_linear_1_7478" x1="97.7081" y1="-112.127" x2="601.902" y2="393.512" gradientUnits="userSpaceOnUse">
<stop offset="0.000676877" stop-color="#A9DA5F"/>
<stop offset="1" stop-color="#1F9EB8"/>
</linearGradient>
<linearGradient id="paint115_linear_1_7478" x1="59.0545" y1="-73.5839" x2="563.249" y2="432.055" gradientUnits="userSpaceOnUse">
<stop offset="0.000676877" stop-color="#A9DA5F"/>
<stop offset="1" stop-color="#1F9EB8"/>
</linearGradient>
<linearGradient id="paint116_linear_1_7478" x1="15.8814" y1="-30.5355" x2="520.077" y2="475.104" gradientUnits="userSpaceOnUse">
<stop offset="0.000676877" stop-color="#A9DA5F"/>
<stop offset="1" stop-color="#1F9EB8"/>
</linearGradient>
<linearGradient id="paint117_linear_1_7478" x1="-28.8653" y1="14.0847" x2="475.329" y2="519.724" gradientUnits="userSpaceOnUse">
<stop offset="0.000676877" stop-color="#A9DA5F"/>
<stop offset="1" stop-color="#1F9EB8"/>
</linearGradient>
<linearGradient id="paint118_linear_1_7478" x1="-72.1397" y1="57.235" x2="432.055" y2="562.875" gradientUnits="userSpaceOnUse">
<stop offset="0.000676877" stop-color="#A9DA5F"/>
<stop offset="1" stop-color="#1F9EB8"/>
</linearGradient>
<linearGradient id="paint119_linear_1_7478" x1="-110.991" y1="95.9754" x2="393.203" y2="601.615" gradientUnits="userSpaceOnUse">
<stop offset="0.000676877" stop-color="#A9DA5F"/>
<stop offset="1" stop-color="#1F9EB8"/>
</linearGradient>
</defs>
</svg>
