<svg width="500" height="501" viewBox="0 0 500 501" fill="none" xmlns="http://www.w3.org/2000/svg">
<path d="M459.385 126.439C458.011 133.238 452.956 135.803 448.076 138.617C411.369 159.778 374.678 180.967 337.991 202.162C322.21 211.279 306.461 220.451 290.665 229.543C288.152 230.989 285.469 232.139 283.699 233.014C275.122 228.153 267.479 223.821 258.745 218.87C258.745 202.039 258.745 183.886 258.745 164.981C261.768 163.738 265.194 162.479 268.493 160.947C285.161 153.212 293.633 135.052 289.025 117.095C284.93 101.138 268.16 88.5176 251.349 89.6456C235.622 90.7006 220.8 99.9086 216.075 119.99C212.506 135.158 219.802 151.291 234.777 159.486C238.319 161.424 242.136 162.862 246.442 164.808C246.442 183.034 246.442 201.538 246.442 218.973C238.322 223.718 231.049 227.968 223.324 232.481C214.726 230.325 55.1003 138.438 47.8143 131.22C45.1693 123.197 49.2893 118.878 55.8403 115.127C104.951 87.0077 153.958 58.7066 202.999 30.4636C215.591 23.2116 228.503 16.4496 240.669 8.54164C248.982 3.13864 255.734 3.25964 264.319 8.25764C316.131 38.4186 368.235 68.0767 420.249 97.8897C429.936 103.442 439.698 108.866 449.34 114.494C453.87 117.139 458.31 120.03 459.385 126.439ZM195.204 228.613C149.83 202.38 104.456 176.146 59.0582 149.955C54.2512 147.182 49.4752 143.906 43.4102 146.157C36.4092 150.142 36.4052 156.845 36.4072 163.741C36.4212 230.918 36.5782 298.098 36.0842 365.272C36.0042 376.111 39.8132 382.388 49.0402 387.54C79.2462 404.407 109.096 421.912 139.075 439.187C168.426 456.1 197.743 473.07 227.123 489.93C236.976 495.584 239.95 494.944 246.667 486.442C248.596 423.658 247.811 303.535 245.838 295.938C237.538 291.022 230.285 286.726 221.382 281.452C206.221 290.121 189.992 299.4 174.25 308.401C176.439 332.864 166.406 350.265 147.962 355.559C131.314 360.338 112.135 352.375 104.166 336.809C95.7473 320.364 99.8652 301.976 113.902 290.791C120.505 285.53 127.899 282.518 136.362 282.26C150.052 281.841 160.204 288.981 169.92 299.042C186.097 289.748 202.031 280.594 216.547 272.255C216.547 261.16 216.547 252.111 216.547 241.069C209.935 237.208 202.586 232.881 195.204 228.613ZM468.698 371.033C468.699 301.207 468.7 231.38 468.698 161.554C468.698 159.687 468.846 157.797 468.61 155.958C467.485 147.176 460.676 143.312 452.409 146.772C450.711 147.483 449.181 148.598 447.573 149.524C396.326 179.045 345.075 208.558 293.85 238.117C291.694 239.361 289.792 241.043 288.85 241.732C288.85 252.667 288.85 262.238 288.85 272.043C305.061 281.278 320.262 291.004 337.774 299.393C339.999 296.544 341.512 293.825 343.722 291.91C355.464 281.733 368.861 279.146 383.106 285.397C397.655 291.782 405.516 303.497 405.871 319.455C406.327 339.946 389.924 356.128 369.27 356.205C346.517 356.289 331.637 341.433 331.661 318.658C331.664 315.377 331.661 312.097 331.661 308.36C315.27 299.063 299.227 289.964 284.565 281.648C274.744 287.175 266.777 291.659 258.577 296.274C258.581 296.26 258.392 296.619 258.391 296.979C258.271 358.579 258.082 420.18 258.143 481.78C258.153 491.531 265.218 495.809 274.082 492.139C276.132 491.29 277.999 489.996 279.936 488.881C339.315 454.718 398.707 420.578 458.033 386.324C461.802 384.148 465.061 381.089 468.696 378.335C468.698 374.745 468.698 372.889 468.698 371.033Z" fill="#F9544C"/>
</svg>
