<svg width="500" height="501" viewBox="0 0 500 501" fill="none" xmlns="http://www.w3.org/2000/svg">
<path d="M153.8 426C153.8 481.7 151.8 487.8 151.8 487.8C151.8 487.8 151.4 487.9 150.7 488.1C62.8996 449.7 1.59961 362.1 1.59961 260.1C1.59961 236.9 4.79961 214.4 10.7996 193.1V193C15.1996 181.4 18.2996 174 18.2996 174C18.2996 174 65.8996 224.7 105.2 289C139.7 345.7 153.8 377.3 153.8 426Z" fill="#5493F8"/>
<path d="M451.9 114.5L186.4 174C186.4 174 168.4 177 144.2 161.8C137.1 157.3 129.4 151.3 121.5 143.1C117.1 138.6 113.2 133.1 109.6 127C100.3 111.2 93.5 91.0004 88.7 72.0004C88.6 71.7004 88.5 71.5004 88.5 71.2004C132 33.9004 188.5 11.4004 250.3 11.4004C317.6 11.4004 378.7 38.2004 423.5 81.6004C433.9 91.8004 443.4 102.8 451.9 114.5Z" fill="#2745AD"/>
<path d="M311.6 484.5C311.6 484.5 293.9 486.2 274.8 474.7C255.7 463.2 214.8 430.9 213 381.9C211.1 329.7 282.2 295.4 282.2 295.4L470 321C470 321 455.6 370.3 433.1 397.4C410.7 424.5 335.8 479.9 311.6 484.5Z" fill="#2745AD"/>
<path d="M463.6 376.4C469.9 383.7 422.4 441.3 384.6 465.6C356.4 483.7 333.8 486.3 325.8 473.7C318.4 461.9 330.9 445 350.1 429C377.9 406.1 459.2 371.4 463.6 376.4Z" fill="#5493F8"/>
<path d="M28.2998 150.3C28.2998 150.3 55.8998 97 93.5998 68.1C141.2 31.6 162 32.3 179.7 44.1C194.2 53.8 184.5 78 157.5 99.1C130.5 120.2 67.0998 150 28.2998 150.3Z" fill="#5493F8"/>
<path d="M499 260.1C499 292.5 492.8 323.5 481.5 352C475.1 354.9 466.7 357 456.5 357.5C454.9 357.6 453.3 357.6 451.6 357.6C417 357.6 331.5 337.8 261.1 308.1C241.3 299.8 222.7 290.6 206.7 280.9C133.9 236.8 136.9 205.7 136.6 192.7C136.3 181.7 139.1 171.4 144.3 161.8C169.4 114.9 249.8 84.0001 292.2 71.2001C343.3 55.7001 392.8 56.5001 418.4 77.4001C420 78.7001 421.8 80.2001 423.6 81.7001C434 91.8001 443.5 102.8 452.1 114.6C481.6 155.5 499 205.8 499 260.1Z" fill="#5493F8"/>
</svg>
