<svg width="500" height="501" viewBox="0 0 500 501" fill="none" xmlns="http://www.w3.org/2000/svg">
<path d="M296.7 332.7C292.8 352.6 272.7 367.1 250.9 367.1C197.1 367.1 199.2 302.7 199.2 302.7L130.7 322.5C143.7 395.7 179.9 422 220.7 430.4V496.1C97.7002 482 2.2002 377.5 2.2002 250.8V11.4004C2.2002 7.20039 5.6002 3.90039 9.7002 3.90039H220.7V73.1004C170.5 89.4004 148.9 137.8 148.9 167.4C148.9 203.4 167.9 237 228.5 263.2C282.8 286.6 303.6 297.6 296.7 332.7Z" fill="#2EB6EA"/>
<path d="M496 250.8C496 319 468.4 380.7 423.7 425.4C389.1 460 344.2 484.4 294.1 493.6V427.9C335.8 412.5 369.5 369.2 369.5 315.9C369.5 249 314.2 227.2 266.6 205.4C218.9 183.6 220.5 172.4 220.5 167.9C220.5 163.3 221.5 135.5 256 135.5C290.5 135.5 306.2 177.6 306.2 177.6L362.5 140.1C362.5 140.1 343.3 91.3004 294.2 73.8004V7.90039C409 29.1004 496 129.8 496 250.8Z" fill="#745DDF"/>
<path d="M369.5 315.9C369.5 369.2 335.7 412.5 294.1 427.9V493.6C279.5 496.3 264.5 497.7 249.1 497.7C239.5 497.7 230 497.1 220.7 496.1V430.4C179.9 421.9 143.7 395.7 130.7 322.5L199.2 302.7C199.2 302.7 197.2 367.1 250.9 367.1C272.7 367.1 292.8 352.6 296.7 332.7C303.6 297.6 282.8 286.6 228.5 263.2C167.9 237 148.9 203.4 148.9 167.4C148.9 137.8 170.5 89.3998 220.7 73.0998V3.7998H249.1C264.5 3.7998 279.5 5.19981 294.1 7.89981V73.5998C343.3 91.0998 362.4 139.9 362.4 139.9L306.1 177.5C306.1 177.5 290.4 135.4 255.9 135.4C221.4 135.4 220.4 163.3 220.4 167.8C220.4 172.4 218.9 183.5 266.5 205.3C314.2 227.1 369.5 249 369.5 315.9Z" fill="white"/>
</svg>
