<svg width="500" height="501" viewBox="0 0 500 501" fill="none" xmlns="http://www.w3.org/2000/svg">
<path d="M148.7 25.8996H75.1999L238.9 280.7L122.9 458.7L96.0999 458.9L212.4 280.7L200.4 261.9L187.2 241.4L34.3999 3.59961H160.6L256.6 147L242.7 166L148.7 25.8996Z" fill="#1178BA"/>
<path d="M318.9 238.1L300.6 225.6L436.4 25.9998H363L226.5 224.5L107.4 41.6998L133.9 41.4998L227.1 184.5L351.3 3.7998H478.5L318.9 238.1Z" fill="#29A7E4"/>
<path d="M484.1 497.6H354.6L247.8 343.6L265.1 328.7L366.3 475.4H443.7L267.7 197.4L375.3 41.1004L402.6 40.9004L294.3 197.9L484.1 497.6Z" fill="#1178BA"/>
<path d="M407.5 458.6L380.7 458.7L279.7 308.5L154.4 498.3H14.5L187.2 241.4L200.4 261.9L56.2 476H142.4L279.6 268.4L407.5 458.6Z" fill="#29A7E4"/>
</svg>
