<svg width="500" height="501" viewBox="0 0 500 501" fill="none" xmlns="http://www.w3.org/2000/svg">
<path d="M274.305 256.588L177.77 89.4817C177.77 89.4817 170.601 74.4277 155.547 74.4277C140.493 74.4277 21.1318 74.4277 21.1318 74.4277C21.1318 74.4277 -6.46815 84.8227 6.43585 107.763C19.3398 130.703 185.548 415.715 185.548 415.715L274.305 256.588Z" fill="url(#paint0_linear_1_7617)"/>
<path d="M460.292 164.398H351.814C333.323 164.398 324.026 177.563 312.894 196.381L187.202 392.49C179.866 403.935 183.289 419.463 195.118 426.161C201.007 429.495 205.019 431.244 215.799 431.244H339.165C357.656 431.244 367.228 416.104 378.625 398.346L489.739 204.892C493.292 199.037 499.145 188.945 496.571 182.599C491.573 170.275 474.353 164.398 460.292 164.398Z" fill="url(#paint1_linear_1_7617)"/>
<defs>
<linearGradient id="paint0_linear_1_7617" x1="138.653" y1="416.364" x2="138.653" y2="72.1363" gradientUnits="userSpaceOnUse">
<stop stop-color="#C23657"/>
<stop offset="1" stop-color="#F7655B"/>
</linearGradient>
<linearGradient id="paint1_linear_1_7617" x1="184.956" y1="428.128" x2="497.878" y2="173.548" gradientUnits="userSpaceOnUse">
<stop stop-color="#DE7053"/>
<stop offset="1" stop-color="#E5204E"/>
</linearGradient>
</defs>
</svg>
