<svg width="500" height="501" viewBox="0 0 500 501" fill="none" xmlns="http://www.w3.org/2000/svg">
<path d="M54.3999 158.4V345.1C54.3999 376 70.6999 404.5 97.1999 419.9L219 490.9C238.6 502.3 262.6 502.3 282.2 490.9L404 419.9C430.4 404.4 446.8 375.9 446.8 345.1V158.4C446.8 127.5 430.5 99 404 83.6L282.2 12.5C262.6 1 238.6 1 219 12.5L97.1999 83.5C70.7999 99 54.3999 127.5 54.3999 158.4Z" fill="#DC2626"/>
<path d="M249.4 392.2L152.3 335.5L77 402.4C82.5 408.2 88.9 413.3 96 417.4L217.8 488.5C227.6 494.2 238.5 497.1 249.4 497.1V392.2Z" fill="#DC2626"/>
<path d="M152.3 163L249.4 106.4V1.5C238.5 1.5 227.6 4.3 217.8 10.1L96.0001 81.1C88.9001 85.2 82.6001 90.3 77.1001 96.1L152.3 163Z" fill="#EA7D7D"/>
<path d="M249.4 392.2V497.1C260.3 497.1 271.2 494.2 281 488.5L402.8 417.5C409.9 413.4 416.2 408.3 421.7 402.5L346.5 335.6L249.4 392.2Z" fill="#6E1313"/>
<path d="M77.0002 402.4L152.3 335.5V163L77.1002 96.0996C62.0002 112 53.2002 133.3 53.2002 155.9V249.2V342.6C53.2002 365.2 62.0002 386.5 77.0002 402.4Z" fill="#E35151"/>
<path d="M346.4 163L421.7 96.1C416.2 90.3 409.9 85.2 402.8 81.1L281 10.1C271.2 4.3 260.3 1.5 249.4 1.5V106.4L346.4 163Z" fill="#DC2626"/>
<path d="M346.5 163V335.6L421.7 402.5C436.8 386.6 445.6 365.3 445.6 342.6V249.2V155.9C445.6 133.3 436.8 111.9 421.7 96.0996L346.5 163Z" fill="#A51C1C"/>
<path d="M346.5 163V335.6L249.4 392.2L152.3 335.5V163L249.4 106.4L346.5 163Z" fill="#FE0E01"/>
<path d="M152.3 335.5L249.4 392.2L346.5 335.6V163L152.3 335.5Z" fill="#FE0E01"/>
<path d="M152.3 335.5L346.5 163L296.6 133.9L152.3 248.1V335.5Z" fill="#A51C1C"/>
<path d="M296.6 133.9L249.4 106.4L152.3 163V248.1L296.6 133.9Z" fill="#6E1313"/>
<path d="M152.3 335.5L77 402.4C82.5 408.2 88.9 413.3 96 417.4L122.5 432.9L179 351.1L152.3 335.5Z" fill="#F7CBCB"/>
<path d="M249.4 106.4V1.5C238.5 1.5 227.6 4.4 217.8 10.1L216.7 10.7L231.2 117L249.4 106.4Z" fill="#530E0E"/>
<path d="M249.4 497.1C260.3 497.1 271.2 494.2 281 488.5L282 487.9L267.5 381.6L249.5 392.1L249.4 497.1Z" fill="#F2B1B1"/>
<path d="M346.4 163L421.7 96.0996C416.2 90.2996 409.9 85.1996 402.8 81.0996L376.2 65.5996L319.7 147.4L346.4 163Z" fill="#F7CBCB"/>
<path d="M249.4 392.2L152.3 335.5L77 402.4C82.5 408.2 88.9 413.3 96 417.4L217.8 488.5C227.6 494.2 238.5 497.1 249.4 497.1V392.2Z" fill="#DC2626"/>
<path d="M152.3 163L249.4 106.4V1.5C238.5 1.5 227.6 4.3 217.8 10.1L96.0001 81.1C88.9001 85.2 82.6001 90.3 77.1001 96.1L152.3 163Z" fill="#DC2626"/>
<path d="M249.4 392.2V497.1C260.3 497.1 271.2 494.2 281 488.5L402.8 417.5C409.9 413.4 416.2 408.3 421.7 402.5L346.5 335.6L249.4 392.2Z" fill="#DC2626"/>
<path d="M77.0002 402.4L152.3 335.5V163L77.1002 96.0996C62.0002 112 53.2002 133.3 53.2002 155.9V249.2V342.6C53.2002 365.2 62.0002 386.5 77.0002 402.4Z" fill="#DC2626"/>
<path d="M346.4 163L421.7 96.1C416.2 90.3 409.9 85.2 402.8 81.1L281 10.1C271.2 4.3 260.3 1.5 249.4 1.5V106.4L346.4 163Z" fill="#DC2626"/>
<path d="M346.5 163V335.6L421.7 402.5C436.8 386.6 445.6 365.3 445.6 342.6V249.2V155.9C445.6 133.3 436.8 111.9 421.7 96.0996L346.5 163Z" fill="#DC2626"/>
<path d="M346.5 163V335.6L249.4 392.2L152.3 335.5V163L249.4 106.4L346.5 163Z" fill="#DC2626"/>
<path d="M152.3 335.5L249.4 392.2L346.5 335.6V163L152.3 335.5Z" fill="#DC2626"/>
<path d="M152.3 335.5L346.5 163L296.6 133.9L152.3 248.1V335.5Z" fill="#DC2626"/>
<path d="M296.6 133.9L249.4 106.4L152.3 163V248.1L296.6 133.9Z" fill="#DC2626"/>
<path d="M152.3 335.5L77 402.4C82.5 408.2 88.9 413.3 96 417.4L122.5 432.9L179 351.1L152.3 335.5Z" fill="#DC2626"/>
<path d="M249.4 106.4V1.5C238.5 1.5 227.6 4.4 217.8 10.1L216.7 10.7L231.2 117L249.4 106.4Z" fill="#DC2626"/>
<path d="M249.4 497.1C260.3 497.1 271.2 494.2 281 488.5L282 487.9L267.5 381.6L249.5 392.1L249.4 497.1Z" fill="#DC2626"/>
<path d="M346.4 163L421.7 96.0996C416.2 90.2996 409.9 85.1996 402.8 81.0996L376.2 65.5996L319.7 147.4L346.4 163Z" fill="#DC2626"/>
<path d="M346.4 334.8L281 473.1C274.7 486.4 262.1 493 249.4 493V392.2L346.4 334.8Z" fill="#DC2626"/>
<path d="M152.3 163.8L217.8 25.4996C224.1 12.1996 236.8 5.59961 249.4 5.59961V106.4L152.3 163.8Z" fill="#DC2626"/>
<path d="M249.4 5.5C262.1 5.5 274.7 12.1 281 25.4L346.5 163.7L249.4 106.3V5.5Z" fill="#DC2626"/>
<path d="M152.3 334.9L249.4 392.2V493C236.7 493 224.1 486.4 217.8 473.1L152.3 334.9Z" fill="#DA2525"/>
<path d="M249.4 5.5C257 5.5 264.5 7.9 270.7 12.7L257.6 111.2L249.4 106.3V5.5Z" fill="#DA2525"/>
<path d="M249.4 392.2V493C242.1 493 234.7 490.7 228.6 486.2L241.7 387.6L249.4 392.2Z" fill="#DC2727"/>
<path d="M257.6 111.2L346.5 163.7V334.6V334.7L257.7 387.2V111.2H257.6Z" fill="#DC2626"/>
<path d="M241.7 387.7L152.3 334.9V163.8L241.7 110.9V387.7Z" fill="#DB2525"/>
<path d="M163.5 140.2L241.8 81.9004V110.9L152.4 163.8L163.5 140.2Z" fill="#DC2727"/>
<path d="M346.4 334.8L333.8 361.4L257.6 418.2V387.3L346.4 334.8Z" fill="#DC2727"/>
<path d="M257.6 111.2L249.4 106.3L241.7 110.8V387.6L249.4 392.1L257.6 387.2V111.2Z" fill="#DC2626"/>
<path d="M152.3 334.8L217.7 473.1C224 486.4 236.6 493 249.3 493V392.2L152.3 334.8Z" fill="#DC2626"/>
<path d="M346.5 163.8L281 25.5C274.7 12.2 262.1 5.5 249.4 5.5V106.3L346.5 163.8Z" fill="#DC2626"/>
<path d="M249.4 5.5C236.7 5.5 224.1 12.1 217.8 25.4L152.3 163.7L249.4 106.3V5.5Z" fill="#E14A4A"/>
<path d="M346.5 334.9L249.4 392.2V493C262.1 493 274.7 486.4 281 473.1L346.5 334.9Z" fill="#AE1E1E"/>
<path d="M249.4 5.5C241.8 5.5 234.3 7.9 228.1 12.7L241.2 111.2L249.4 106.3V5.5Z" fill="#A31C1C"/>
<path d="M249.4 392.2V493C256.7 493 264.1 490.7 270.2 486.2L257 387.7L249.4 392.2Z" fill="#E55F5F"/>
<path d="M241.2 111.2L152.3 163.7V334.6V334.7L241.1 387.2V111.2H241.2Z" fill="#DE3737"/>
<path d="M257 387.7L346.4 334.9V163.8L257 110.9V387.7Z" fill="#C52121"/>
<path d="M335.3 140.2L257 81.9004V110.9L346.4 163.8L335.3 140.2Z" fill="#E76A6A"/>
<path d="M152.3 334.8L164.9 361.4L241.1 418.2V387.3L152.3 334.8Z" fill="#E76A6A"/>
<path d="M241.2 111.2L249.4 106.3L257.1 110.8V387.6L249.4 392.1L241.2 387.2V111.2Z" fill="#DC2626"/>
<path d="M264.5 164.2L365.9 115.5C369.9 127.8 372.2 141.6 372.2 156V342.7C372.2 365.9 366.4 387.7 356.6 403.7L264.5 336.7V164.2Z" fill="#DC2626"/>
<path d="M202.6 113.4L269.2 10L345.5 81C354.3 89.3 361.3 101.3 365.9 115.4L264.5 164.1L202.6 113.4Z" fill="#DC2626"/>
<path d="M146.9 147.5L165.3 70.0997L229.6 10.0997C235.9 4.19966 243 1.39966 250 1.49966L195.5 107.5L146.9 147.5Z" fill="#DC2626"/>
<path d="M247.5 350.6L325.8 435.7L269.2 488.5C263.1 494.2 256.2 497.1 249.4 497.1L195.5 393.4L247.5 350.6Z" fill="#DC2626"/>
<path d="M264.5 336.7L356.6 403.7C353.3 409 349.6 413.7 345.4 417.5L325.8 435.7L247.5 350.6L264.5 336.7Z" fill="#DC2626"/>
<path d="M195.5 107.6L250 1.5C256.6 1.7 263.2 4.5 269.2 10L202.6 113.3L195.5 107.6Z" fill="#DC2626"/>
<path d="M195.5 393.4L249.4 497.1C242.6 497.1 235.8 494.2 229.6 488.5L190.2 389.1L195.5 393.4Z" fill="#DC2626"/>
<path d="M153.4 81.2L165.4 70L146.9 147.5L126.6 164.2V156C126.6 125 136.8 96.5 153.4 81.2Z" fill="#DC2626"/>
<path d="M229.6 488.5L153.3 417.5C136.8 402 126.5 373.5 126.5 342.7V336.8L190.1 389.1L229.6 488.5Z" fill="#DC2626"/>
<path d="M126.6 336.7L195.6 393.4L264.5 336.8V164.2L126.6 336.7Z" fill="#DC2626"/>
<path d="M126.6 336.7L264.5 164.2L229 135.1L126.6 249.3V336.7Z" fill="#DC2626"/>
<path d="M229 135.1L195.5 107.6L126.5 164.2V249.3L229 135.1Z" fill="#DC2626"/>
<path d="M264.5 164.2L365.9 115.5C369.9 127.8 372.2 141.6 372.2 156V342.7C372.2 365.9 366.4 387.7 356.6 403.7L264.5 336.7V164.2Z" fill="#CC2323"/>
<path d="M202.6 113.4L269.2 10L345.5 81C354.3 89.3 361.3 101.3 365.9 115.4L264.5 164.1L202.6 113.4Z" fill="#DC2626"/>
<path d="M146.9 147.5L165.3 70.0997L229.6 10.0997C235.9 4.19966 243 1.39966 250 1.49966L195.5 107.5L146.9 147.5Z" fill="#DF3E3E"/>
<path d="M247.5 350.6L325.8 435.7L269.2 488.5C263.1 494.2 256.2 497.1 249.4 497.1L195.5 393.4L247.5 350.6Z" fill="#BD2020"/>
<path d="M264.5 336.7L356.6 403.7C353.3 409 349.6 413.7 345.4 417.5L325.8 435.7L247.5 350.6L264.5 336.7Z" fill="#E35353"/>
<path d="M195.5 107.6L250 1.5C256.6 1.7 263.2 4.5 269.2 10L202.6 113.3L195.5 107.6Z" fill="#B61F1F"/>
<path d="M195.5 393.4L249.4 497.1C242.6 497.1 235.8 494.2 229.6 488.5L190.2 389.1L195.5 393.4Z" fill="#E24C4C"/>
<path d="M153.4 81.2L165.4 70L146.9 147.5L126.6 164.2V156C126.6 125 136.8 96.5 153.4 81.2Z" fill="#E35353"/>
<path d="M229.6 488.5L153.3 417.5C136.8 402 126.5 373.5 126.5 342.7V336.8L190.1 389.1L229.6 488.5Z" fill="#DC2626"/>
<path d="M126.6 336.7L195.6 393.4L264.5 336.8V164.2L126.6 336.7Z" fill="#E51F1B"/>
<path d="M126.6 336.7L264.5 164.2L229 135.1L126.6 249.3V336.7Z" fill="#CC2323"/>
<path d="M229 135.1L195.5 107.6L126.5 164.2V249.3L229 135.1Z" fill="#BD2020"/>
<path d="M234.3 164.2L132.9 115.5C128.9 127.8 126.6 141.6 126.6 156V342.7C126.6 365.9 132.4 387.7 142.2 403.7L234.3 336.7V164.2Z" fill="#DC2B2B"/>
<path d="M296.2 113.4L229.6 10L153.3 81C144.5 89.3 137.5 101.3 132.9 115.4L234.3 164.1L296.2 113.4Z" fill="#DD3131"/>
<path d="M351.9 147.5L333.5 70.0998L269.2 10.0998C262.9 4.19984 255.9 1.39984 248.8 1.59984L303.3 107.6L351.9 147.5Z" fill="#DC2626"/>
<path d="M251.2 350.6L172.9 435.7L229.6 488.5C235.7 494.2 242.6 497.1 249.4 497.1L303.3 393.4L251.2 350.6Z" fill="#DC2626"/>
<path d="M234.3 336.7L142.2 403.7C145.5 409 149.2 413.7 153.4 417.5L173 435.7L251.3 350.6L234.3 336.7Z" fill="#DF3C3C"/>
<path d="M303.3 107.6L248.8 1.5C242.2 1.7 235.6 4.5 229.6 10L296.2 113.3L303.3 107.6Z" fill="#C92222"/>
<path d="M303.3 393.4L249.4 497.1C256.2 497.1 263 494.2 269.2 488.5L308.6 389.1L303.3 393.4Z" fill="#DE3838"/>
<path d="M345.4 81.2L333.4 70L351.8 147.4L372.1 164.1V155.9C372.2 125 362 96.5 345.4 81.2Z" fill="#DF3C3C"/>
<path d="M269.2 488.5L345.5 417.5C362 402 372.3 373.5 372.3 342.7V336.8L308.7 389.1L269.2 488.5Z" fill="#CD2323"/>
<path d="M234.3 336.7L303.3 393.4L372.2 336.8V164.2L234.3 336.7Z" fill="#E02220"/>
<path d="M234.3 336.7L372.2 164.2L336.7 135.1L234.3 249.3V336.7Z" fill="#D42424"/>
<path d="M336.7 135.1L303.2 107.6L234.2 164.2V249.3L336.7 135.1Z" fill="#CD2323"/>
<path d="M249.4 392.2L152.3 335.5L77 402.4C82.5 408.2 88.9 413.3 96 417.4L217.8 488.5C227.6 494.2 238.5 497.1 249.4 497.1V392.2Z" fill="#DC2626"/>
<path d="M152.3 163L249.4 106.4V1.5C238.5 1.5 227.6 4.3 217.8 10.1L96.0001 81.1C88.9001 85.2 82.6001 90.3 77.1001 96.1L152.3 163Z" fill="#DE3737"/>
<path d="M249.4 392.2V497.1C260.3 497.1 271.2 494.2 281 488.5L402.8 417.5C409.9 413.4 416.2 408.3 421.7 402.5L346.5 335.6L249.4 392.2Z" fill="#C52222"/>
<path d="M77.0002 402.4L152.3 335.5V163L77.1002 96.0996C62.0002 112 53.2002 133.3 53.2002 155.9V249.2V342.6C53.2002 365.2 62.0002 386.5 77.0002 402.4Z" fill="#DD2E2E"/>
<path d="M346.4 163L421.7 96.1C416.2 90.3 409.9 85.2 402.8 81.1L281 10.1C271.2 4.3 260.3 1.5 249.4 1.5V106.4L346.4 163Z" fill="#DC2626"/>
<path d="M346.5 163V335.6L421.7 402.5C436.8 386.6 445.6 365.3 445.6 342.6V249.2V155.9C445.6 133.3 436.8 111.9 421.7 96.0996L346.5 163Z" fill="#D02323"/>
<path d="M346.5 163V335.6L249.4 392.2L152.3 335.5V163L249.4 106.4L346.5 163Z" fill="#E2211E"/>
<path d="M152.3 335.5L249.4 392.2L346.5 335.6V163L152.3 335.5Z" fill="#E2211E"/>
<path d="M152.3 335.5L346.5 163L296.6 133.9L152.3 248.1V335.5Z" fill="#D02323"/>
<path d="M296.6 133.9L249.4 106.4L152.3 163V248.1L296.6 133.9Z" fill="#C52222"/>
<path d="M152.3 335.5L77 402.4C82.5 408.2 88.9 413.3 96 417.4L122.5 432.9L179 351.1L152.3 335.5Z" fill="#E14747"/>
<path d="M249.4 106.4V1.5C238.5 1.5 227.6 4.4 217.8 10.1L216.7 10.7L231.2 117L249.4 106.4Z" fill="#BF2121"/>
<path d="M249.4 497.1C260.3 497.1 271.2 494.2 281 488.5L282 487.9L267.5 381.6L249.5 392.1L249.4 497.1Z" fill="#E04242"/>
<path d="M346.4 163L421.7 96.0996C416.2 90.2996 409.9 85.1996 402.8 81.0996L376.2 65.5996L319.7 147.4L346.4 163Z" fill="#E14747"/>
<path d="M398.3 246.6L353.5 231.2C337.1 225.5 324.8 211.5 321.4 194.3L302.5 100C302 97.6004 299.9 95.9004 297.5 95.9004C295 95.9004 292.9 97.6004 292.5 100L273.6 194.3C270.2 211.5 257.9 225.5 241.5 231.2L196.7 246.6C194.6 247.3 193.3 249.3 193.3 251.5C193.3 253.7 194.7 255.6 196.7 256.4L241.5 271.8C257.9 277.5 270.2 291.5 273.6 308.7L292.5 403C293 405.4 295.1 407.1 297.5 407.1C300 407.1 302.1 405.4 302.5 403L321.4 308.7C324.8 291.5 337.1 277.5 353.5 271.8L398.3 256.4C400.4 255.7 401.7 253.7 401.7 251.5C401.7 249.3 400.3 247.3 398.3 246.6Z" fill="#FFFDF7"/>
<path d="M194.4 325.5L173.2 318.3C165.4 315.6 159.6 309 158 300.8L149.1 256.2C148.9 255 147.9 254.3 146.7 254.3C145.6 254.3 144.5 255.1 144.3 256.2L135.4 300.8C133.8 309 128 315.6 120.2 318.3L98.8998 325.5C97.8998 325.8 97.2998 326.8 97.2998 327.8C97.2998 328.9 97.9998 329.8 98.8998 330.1L120.1 337.3C127.9 340 133.7 346.6 135.3 354.8L144.2 399.4C144.4 400.6 145.4 401.3 146.6 401.3C147.7 401.3 148.7 400.4 149 399.4L157.9 354.8C159.5 346.6 165.3 340 173.1 337.3L194.3 330.1C195.2 329.8 195.9 328.8 195.9 327.8C196 326.8 195.3 325.8 194.4 325.5Z" fill="#FFFDF7"/>
<path d="M157.5 161.9L173.3 167.3C179.1 169.3 183.5 174.2 184.6 180.4L191.3 213.7C191.5 214.6 192.2 215.1 193.1 215.1C194 215.1 194.7 214.5 194.9 213.7L201.6 180.4C202.8 174.4 207.1 169.4 213 167.3L228.8 161.9C229.6 161.6 230 160.9 230 160.2C230 159.5 229.5 158.8 228.8 158.5L213 153.1C207.2 151.1 202.8 146.2 201.6 140L194.9 106.7C194.7 105.8 193.9 105.3 193.1 105.3C192.3 105.3 191.5 105.9 191.3 106.7L184.6 140C183.4 146 179.1 151 173.3 153.1L157.5 158.5C156.7 158.8 156.3 159.5 156.3 160.2C156.3 160.9 156.7 161.6 157.5 161.9Z" fill="#FFFDF7"/>
</svg>
