<svg width="500" height="501" viewBox="0 0 500 501" fill="none" xmlns="http://www.w3.org/2000/svg">
<path d="M264.86 249.028C267.357 247.239 269.485 246.088 271.147 244.462C279.69 236.101 288.235 227.735 296.534 219.135C301.478 214.011 301.297 207.73 296.638 203.185C292.176 198.833 286.212 198.782 281.084 203.173C279.305 204.696 277.721 206.448 276.064 208.111C267.503 216.706 258.948 225.306 250.154 234.142C248.255 232.437 246.802 231.246 245.479 229.926C216.908 201.441 188.354 172.939 159.791 144.446C155.711 140.376 151.758 136.16 147.473 132.317C141.773 127.207 133.826 127.978 130.454 134.247C128.941 137.06 128.551 140.76 128.546 144.059C128.463 195.718 128.527 247.377 128.556 299.037C128.557 301.551 128.556 304.065 128.556 306.143C110.232 317.249 103.62 330.032 107.549 345.813C111.133 360.211 123.743 370.395 138.637 370.921C152.794 371.421 166.126 362.306 170.791 348.939C176.509 332.551 170.863 320.269 151.033 306.046C151.033 260.327 151.033 214.569 151.033 168.636C178.398 196.283 205.454 223.618 233.051 251.499C225.362 259.071 216.617 267.208 208.416 275.861C190.813 294.434 188.047 321.478 201.137 343.374C214.371 365.511 239.86 375.645 265.332 368.898C288.95 362.642 306.231 340.368 306.745 315.544C307.082 299.273 301.191 285.562 289.783 274.101C281.862 266.144 273.956 258.18 264.86 249.028ZM139.567 348.805C133.501 348.795 128.506 343.758 128.627 337.773C128.744 332.005 133.503 327.237 139.293 327.087C145.377 326.929 150.421 331.766 150.489 337.824C150.557 343.936 145.704 348.815 139.567 348.805ZM273.128 340.009C260.209 351.863 239.332 351.803 226.423 339.875C213.16 327.621 211.161 306.466 222.948 293.066C231.214 283.668 240.753 275.389 249.605 266.727C258.947 275.72 268.663 283.837 276.87 293.267C288.773 306.942 286.62 327.63 273.128 340.009Z" fill="url(#paint0_linear_1_7744)"/>
<path d="M359.546 128.808C344.982 129.032 332.319 138.675 328.152 152.715C323.39 168.758 329.54 181.319 348.842 194.182C348.842 196.325 348.84 198.855 348.842 201.384C348.881 251.758 348.92 302.133 348.964 352.508C348.966 355.069 348.856 357.643 349.066 360.189C349.587 366.504 354.495 371.128 360.362 371.011C366.071 370.898 370.566 366.518 371.14 360.381C371.318 358.475 371.24 356.542 371.245 354.622C371.371 303.608 371.492 252.594 371.613 201.58C371.619 199.043 371.614 196.505 371.614 194.391C391.689 179.717 397.218 167.77 391.823 151.548C387.234 137.748 374.224 128.582 359.546 128.808ZM360.011 172.609C354.12 172.528 349.457 167.797 349.488 161.933C349.518 156.19 354.425 151.405 360.24 151.447C366.035 151.489 370.746 156.331 370.68 162.178C370.612 168.137 365.955 172.691 360.011 172.609Z" fill="url(#paint1_linear_1_7744)"/>
<path d="M249.091 3.41504C111.862 3.41404 -3.51203 118.051 3.19497 262.496C9.23697 392.636 118.286 498.224 249.018 496.78C382.523 498.979 496.203 389.438 496.48 251.065C496.754 113.811 386.395 3.41604 249.091 3.41504ZM265.329 368.896C239.858 375.643 214.369 365.509 201.134 343.372C188.044 321.476 190.81 294.432 208.413 275.859C216.614 267.206 225.36 259.07 233.048 251.497C205.451 223.616 178.395 196.281 151.03 168.634C151.03 214.567 151.03 260.325 151.03 306.044C170.86 320.267 176.506 332.548 170.788 348.937C166.124 362.305 152.792 371.419 138.634 370.919C123.74 370.393 111.13 360.209 107.546 345.811C103.618 330.03 110.23 317.247 128.553 306.141C128.553 304.063 128.554 301.549 128.553 299.035C128.523 247.376 128.46 195.717 128.543 144.057C128.548 140.758 128.938 137.058 130.451 134.245C133.823 127.976 141.771 127.205 147.47 132.315C151.756 136.158 155.708 140.374 159.788 144.444C188.351 172.937 216.905 201.439 245.476 229.924C246.8 231.244 248.253 232.434 250.151 234.14C258.946 225.303 267.501 216.703 276.061 208.109C277.718 206.446 279.302 204.694 281.081 203.171C286.209 198.781 292.173 198.831 296.635 203.183C301.294 207.727 301.475 214.009 296.531 219.133C288.232 227.734 279.688 236.1 271.144 244.46C269.482 246.087 267.354 247.238 264.857 249.026C273.953 258.178 281.859 266.143 289.776 274.097C301.184 285.558 307.075 299.269 306.738 315.54C306.228 340.366 288.947 362.639 265.329 368.896ZM371.614 194.391C371.614 196.505 371.619 199.043 371.613 201.58C371.492 252.594 371.371 303.608 371.245 354.622C371.24 356.543 371.319 358.475 371.14 360.381C370.566 366.518 366.072 370.898 360.362 371.011C354.495 371.127 349.587 366.503 349.066 360.189C348.856 357.643 348.966 355.069 348.964 352.508C348.92 302.133 348.882 251.759 348.842 201.384C348.84 198.855 348.842 196.325 348.842 194.182C329.539 181.319 323.389 168.758 328.152 152.715C332.319 138.675 344.982 129.032 359.546 128.808C374.223 128.582 387.234 137.748 391.823 151.548C397.218 167.77 391.689 179.717 371.614 194.391Z" fill="url(#paint2_linear_1_7744)"/>
<path d="M249.605 266.727C240.753 275.389 231.214 283.668 222.948 293.066C211.161 306.466 213.161 327.621 226.423 339.875C239.332 351.803 260.209 351.863 273.128 340.009C286.619 327.63 288.772 306.942 276.87 293.267C268.662 283.836 258.946 275.719 249.605 266.727Z" fill="url(#paint3_linear_1_7744)"/>
<path d="M139.293 327.087C133.504 327.237 128.745 332.005 128.627 337.773C128.505 343.758 133.5 348.795 139.567 348.805C145.704 348.815 150.557 343.936 150.489 337.824C150.421 331.766 145.377 326.929 139.293 327.087Z" fill="url(#paint4_linear_1_7744)"/>
<path d="M360.24 151.448C354.424 151.406 349.518 156.191 349.488 161.934C349.457 167.798 354.121 172.529 360.011 172.61C365.955 172.692 370.612 168.138 370.68 162.18C370.745 156.332 366.035 151.49 360.24 151.448Z" fill="url(#paint5_linear_1_7744)"/>
<path d="M250.153 234.141C258.948 225.304 267.503 216.704 276.063 208.11C277.72 206.447 279.304 204.695 281.083 203.172C286.211 198.782 292.175 198.832 296.637 203.184C301.296 207.728 301.477 214.01 296.533 219.134C288.234 227.735 279.689 236.101 271.146 244.461C269.484 246.088 267.356 247.239 264.859 249.027C273.955 258.179 281.861 266.144 289.779 274.098C301.187 285.559 307.078 299.27 306.741 315.541C306.227 340.365 288.946 362.639 265.328 368.895C239.857 375.642 214.368 365.508 201.133 343.371C188.043 321.475 190.809 294.431 208.412 275.858C216.613 267.205 225.359 259.069 233.047 251.496C205.45 223.615 178.394 196.28 151.029 168.633C151.029 214.565 151.029 260.324 151.029 306.043C170.859 320.266 176.505 332.547 170.787 348.936C166.123 362.304 152.791 371.418 138.633 370.918C123.739 370.392 111.129 360.208 107.545 345.81C103.617 330.029 110.229 317.246 128.552 306.14C128.552 304.062 128.553 301.548 128.552 299.034C128.522 247.375 128.459 195.716 128.542 144.057C128.547 140.758 128.937 137.058 130.45 134.245C133.822 127.976 141.77 127.205 147.469 132.315C151.755 136.158 155.707 140.374 159.787 144.444C188.35 172.937 216.904 201.439 245.475 229.924C246.802 231.246 248.254 232.436 250.153 234.141ZM249.605 266.727C240.753 275.389 231.215 283.668 222.948 293.066C211.161 306.466 213.161 327.621 226.423 339.875C239.333 351.803 260.209 351.863 273.128 340.009C286.619 327.63 288.772 306.942 276.87 293.267C268.662 283.836 258.946 275.719 249.605 266.727ZM139.567 348.805C145.704 348.815 150.557 343.936 150.489 337.824C150.421 331.766 145.378 326.929 139.293 327.087C133.504 327.237 128.745 332.005 128.627 337.773C128.506 343.758 133.501 348.795 139.567 348.805Z" fill="white"/>
<path d="M371.614 194.391C371.614 196.505 371.619 199.043 371.613 201.58C371.492 252.594 371.371 303.608 371.245 354.622C371.24 356.543 371.319 358.475 371.14 360.381C370.566 366.518 366.072 370.898 360.362 371.011C354.495 371.127 349.587 366.503 349.066 360.189C348.856 357.643 348.966 355.069 348.964 352.508C348.92 302.133 348.882 251.759 348.842 201.384C348.84 198.855 348.842 196.325 348.842 194.182C329.539 181.319 323.389 168.758 328.152 152.715C332.319 138.675 344.982 129.032 359.546 128.808C374.223 128.582 387.234 137.748 391.823 151.548C397.218 167.77 391.689 179.717 371.614 194.391ZM360.24 151.447C354.424 151.405 349.518 156.19 349.488 161.933C349.457 167.797 354.121 172.528 360.011 172.609C365.955 172.691 370.612 168.137 370.68 162.179C370.745 156.331 366.035 151.489 360.24 151.447Z" fill="white"/>
<defs>
<linearGradient id="paint0_linear_1_7744" x1="426.071" y1="69.5368" x2="37.9065" y2="383.399" gradientUnits="userSpaceOnUse">
<stop stop-color="#6790B3"/>
<stop offset="1" stop-color="#2E5170"/>
</linearGradient>
<linearGradient id="paint1_linear_1_7744" x1="486.614" y1="144.412" x2="98.4494" y2="458.274" gradientUnits="userSpaceOnUse">
<stop stop-color="#6790B3"/>
<stop offset="1" stop-color="#2E5170"/>
</linearGradient>
<linearGradient id="paint2_linear_1_7744" x1="444.794" y1="92.6929" x2="56.6302" y2="406.555" gradientUnits="userSpaceOnUse">
<stop stop-color="#6790B3"/>
<stop offset="1" stop-color="#2E5170"/>
</linearGradient>
<linearGradient id="paint3_linear_1_7744" x1="475.303" y1="130.424" x2="87.1385" y2="444.286" gradientUnits="userSpaceOnUse">
<stop stop-color="#6790B3"/>
<stop offset="1" stop-color="#2E5170"/>
</linearGradient>
<linearGradient id="paint4_linear_1_7744" x1="444.058" y1="91.783" x2="55.8943" y2="405.645" gradientUnits="userSpaceOnUse">
<stop stop-color="#6790B3"/>
<stop offset="1" stop-color="#2E5170"/>
</linearGradient>
<linearGradient id="paint5_linear_1_7744" x1="445.249" y1="93.2562" x2="57.0854" y2="407.118" gradientUnits="userSpaceOnUse">
<stop stop-color="#6790B3"/>
<stop offset="1" stop-color="#2E5170"/>
</linearGradient>
</defs>
</svg>
