<svg width="500" height="501" viewBox="0 0 500 501" fill="none" xmlns="http://www.w3.org/2000/svg">
<path d="M250.3 499C387.4 499 498.5 387.9 498.5 250.8C498.5 113.7 387.4 2.59961 250.3 2.59961C113.2 2.59961 2 113.7 2 250.8C2 387.9 113.2 499 250.3 499Z" fill="#1C68F3"/>
<path fill-rule="evenodd" clip-rule="evenodd" d="M400.1 189.8V272.2H148.8H138C149.4 322.2 194.8 359.6 249.1 359.6C294 359.6 332.8 334.1 351.3 297H400V366.2C400 382.6 386.5 395.9 369.8 395.9H128.7C112 395.9 98.5 382.6 98.5 366.2V189.8H400.1ZM322.5 296.9C306.5 319.9 279.6 335 249.2 335C218.8 335 191.9 319.9 175.9 296.9H322.5ZM184.8 209.5C161.2 209.5 141.6 226.7 138.4 249.1H164.1C166.9 240.5 175.1 234.3 184.8 234.3C194.5 234.3 202.7 240.5 205.5 249.1H231.2C228 226.7 208.5 209.5 184.8 209.5ZM313.8 209.5C290.2 209.5 270.6 226.7 267.4 249.1H293.1C295.9 240.5 304.1 234.3 313.8 234.3C323.5 234.3 331.7 240.5 334.5 249.1H360.2C357 226.7 337.4 209.5 313.8 209.5ZM369.9 99.0996C386.6 99.0996 400.1 112.4 400.1 128.8V165.1H98.6V128.8C98.6 112.4 112.1 99.0996 128.8 99.0996H369.9Z" fill="white"/>
</svg>
