<svg width="500" height="501" viewBox="0 0 500 501" fill="none" xmlns="http://www.w3.org/2000/svg">
<path d="M157.6 185.4C172.125 185.4 183.9 173.625 183.9 159.1C183.9 144.575 172.125 132.8 157.6 132.8C143.075 132.8 131.3 144.575 131.3 159.1C131.3 173.625 143.075 185.4 157.6 185.4Z" fill="black"/>
<path d="M111.7 231.3C126.225 231.3 138 219.525 138 205C138 190.475 126.225 178.7 111.7 178.7C97.1749 178.7 85.4 190.475 85.4 205C85.4 219.525 97.1749 231.3 111.7 231.3Z" fill="black"/>
<path d="M157.9 277.5C172.425 277.5 184.2 265.725 184.2 251.2C184.2 236.675 172.425 224.9 157.9 224.9C143.375 224.9 131.6 236.675 131.6 251.2C131.6 265.725 143.375 277.5 157.9 277.5Z" fill="black"/>
<path d="M65.4 271.1C76.3905 271.1 85.3 262.19 85.3 251.2C85.3 240.209 76.3905 231.3 65.4 231.3C54.4095 231.3 45.5 240.209 45.5 251.2C45.5 262.19 54.4095 271.1 65.4 271.1Z" fill="black"/>
<path d="M250.2 271.1C261.191 271.1 270.1 262.19 270.1 251.2C270.1 240.209 261.191 231.3 250.2 231.3C239.21 231.3 230.3 240.209 230.3 251.2C230.3 262.19 239.21 271.1 250.2 271.1Z" fill="black"/>
<path d="M296.5 317.3C307.49 317.3 316.4 308.39 316.4 297.4C316.4 286.41 307.49 277.5 296.5 277.5C285.51 277.5 276.6 286.41 276.6 297.4C276.6 308.39 285.51 317.3 296.5 317.3Z" fill="black"/>
<path d="M204 317.3C214.99 317.3 223.9 308.39 223.9 297.4C223.9 286.41 214.99 277.5 204 277.5C193.01 277.5 184.1 286.41 184.1 297.4C184.1 308.39 193.01 317.3 204 317.3Z" fill="black"/>
<path d="M111.7 317.3C122.691 317.3 131.6 308.39 131.6 297.4C131.6 286.41 122.691 277.5 111.7 277.5C100.71 277.5 91.8 286.41 91.8 297.4C91.8 308.39 100.71 317.3 111.7 317.3Z" fill="black"/>
<path d="M19 310.6C26.2902 310.6 32.2001 304.69 32.2001 297.4C32.2001 290.11 26.2902 284.2 19 284.2C11.7099 284.2 5.80005 290.11 5.80005 297.4C5.80005 304.69 11.7099 310.6 19 310.6Z" fill="black"/>
<path d="M65.4 356.4C72.6901 356.4 78.5999 350.49 78.5999 343.2C78.5999 335.91 72.6901 330 65.4 330C58.1098 330 52.2 335.91 52.2 343.2C52.2 350.49 58.1098 356.4 65.4 356.4Z" fill="black"/>
<path d="M435.1 271.1C446.09 271.1 455 262.19 455 251.2C455 240.209 446.09 231.3 435.1 231.3C424.109 231.3 415.2 240.209 415.2 251.2C415.2 262.19 424.109 271.1 435.1 271.1Z" fill="black"/>
<path d="M388.9 317.3C399.89 317.3 408.8 308.39 408.8 297.4C408.8 286.41 399.89 277.5 388.9 277.5C377.91 277.5 369 286.41 369 297.4C369 308.39 377.91 317.3 388.9 317.3Z" fill="black"/>
<path d="M481.5 310.6C488.79 310.6 494.7 304.69 494.7 297.4C494.7 290.11 488.79 284.2 481.5 284.2C474.21 284.2 468.3 290.11 468.3 297.4C468.3 304.69 474.21 310.6 481.5 310.6Z" fill="black"/>
<path d="M435.1 356.4C442.39 356.4 448.3 350.49 448.3 343.2C448.3 335.91 442.39 330 435.1 330C427.81 330 421.9 335.91 421.9 343.2C421.9 350.49 427.81 356.4 435.1 356.4Z" fill="black"/>
<path d="M250.2 356.4C257.49 356.4 263.4 350.49 263.4 343.2C263.4 335.91 257.49 330 250.2 330C242.91 330 237 335.91 237 343.2C237 350.49 242.91 356.4 250.2 356.4Z" fill="black"/>
<path d="M204 231.3C218.525 231.3 230.3 219.525 230.3 205C230.3 190.475 218.525 178.7 204 178.7C189.475 178.7 177.7 190.475 177.7 205C177.7 219.525 189.475 231.3 204 231.3Z" fill="black"/>
<path d="M342.4 185.4C356.925 185.4 368.7 173.625 368.7 159.1C368.7 144.575 356.925 132.8 342.4 132.8C327.875 132.8 316.1 144.575 316.1 159.1C316.1 173.625 327.875 185.4 342.4 185.4Z" fill="black"/>
<path d="M296.4 231.3C310.925 231.3 322.7 219.525 322.7 205C322.7 190.475 310.925 178.7 296.4 178.7C281.875 178.7 270.1 190.475 270.1 205C270.1 219.525 281.875 231.3 296.4 231.3Z" fill="black"/>
<path d="M342.7 277.5C357.225 277.5 369 265.725 369 251.2C369 236.675 357.225 224.9 342.7 224.9C328.175 224.9 316.4 236.675 316.4 251.2C316.4 265.725 328.175 277.5 342.7 277.5Z" fill="black"/>
<path d="M388.8 231.3C403.325 231.3 415.1 219.525 415.1 205C415.1 190.475 403.325 178.7 388.8 178.7C374.275 178.7 362.5 190.475 362.5 205C362.5 219.525 374.275 231.3 388.8 231.3Z" fill="black"/>
</svg>
