<svg width="500" height="501" viewBox="0 0 500 501" fill="none" xmlns="http://www.w3.org/2000/svg">
<g clip-path="url(#clip0_1_7791)">
<path d="M377.3 164.4C368.1 159 356.1 159 345.9 164.4L273.9 206.1L225 233.3L153 275C143.8 280.4 131.8 280.4 121.6 275L64.4 242.4C55.2 237 48.7 227 48.7 216.1V151.8C48.7 140.9 54.2 131 64.4 125.5L120.7 93.7998C129.9 88.3998 141.9 88.3998 152.1 93.7998L208.4 125.5C217.6 130.9 224.1 140.9 224.1 151.8V193.5L273 165.4V123.7C273 112.8 267.5 102.9 257.3 97.3998L153.1 37.5998C143.9 32.1998 131.9 32.1998 121.7 37.5998L15.7 97.3998C5.5 102.8 0 112.8 0 123.7V244.2C0 255.1 5.5 265 15.7 270.5L121.8 330.3C131 335.7 143 335.7 153.2 330.3L225.2 289.5L274.1 261.4L346.1 220.6C355.3 215.2 367.3 215.2 377.5 220.6L433.8 252.3C443 257.7 449.5 267.7 449.5 278.6V342.9C449.5 353.8 444 363.7 433.8 369.2L377.5 401.8C368.3 407.2 356.3 407.2 346.1 401.8L289.8 370.1C280.6 364.7 274.1 354.7 274.1 343.8V302.1L225.2 330.2V371.9C225.2 382.8 230.7 392.7 240.9 398.2L347 458C356.2 463.4 368.2 463.4 378.4 458L484.5 398.2C493.7 392.8 500.2 382.8 500.2 371.9V251.4C500.2 240.5 494.7 230.6 484.5 225.1L377.3 164.4Z" fill="#8247E5"/>
</g>
<defs>
<clipPath id="clip0_1_7791">
<rect width="500" height="500" fill="white" transform="translate(0 0.5)"/>
</clipPath>
</defs>
</svg>
