<svg width="500" height="501" viewBox="0 0 500 501" fill="none" xmlns="http://www.w3.org/2000/svg">
<g clip-path="url(#clip0_1_7793)">
<path fill-rule="evenodd" clip-rule="evenodd" d="M369.5 231.8C313.7 231.8 268.5 277 268.5 332.8C268.5 352.2 274 370.4 283.5 385.8C234.4 425.2 184.7 451.6 142.3 463.1C98.3001 475 66.1001 469.8 48.3001 452C28.5001 432.2 24.4001 394.5 41.7001 343.3C44.2001 335.7 40.2001 327.6 32.6001 325C25.0001 322.5 16.9001 326.5 14.3001 334.1C-3.79989 388.1 -3.99989 440.5 27.9001 472.5C56.7001 501.3 102.2 503.9 149.8 491.1C197.1 478.3 250.5 449.5 302 408.1C319.9 424.2 343.6 434 369.5 434C425.3 434 470.5 388.8 470.5 333C470.6 277 425.3 231.8 369.5 231.8ZM369.5 408.7C327.6 408.7 293.6 374.7 293.6 332.8C293.6 290.9 327.6 256.9 369.5 256.9C411.4 256.9 445.4 290.9 445.4 332.8C445.4 374.8 411.4 408.7 369.5 408.7Z" fill="black"/>
<path fill-rule="evenodd" clip-rule="evenodd" d="M472.4 26.3995C444.9 -1.10047 402.1 -4.70047 357 6.19953C312.7 16.8995 262.7 42.1995 213.7 78.8995C196.8 66.1995 175.8 58.5995 153 58.5995C97.2 58.5995 52 103.8 52 159.6C52 215.4 97.2 260.6 153 260.6C208.8 260.6 254 215.4 254 159.6C254 137.1 246.6 116.3 234.2 99.4995C279.9 65.7995 325.1 43.4995 363.7 34.1995C405 24.2995 435 29.8995 452 46.7995C471.8 66.5995 475.9 104.3 458.6 155.5C456.1 163.1 460.1 171.2 467.7 173.8C475.3 176.3 483.4 172.3 486 164.7C504.1 110.8 504.3 58.3995 472.4 26.3995ZM203.5 169.7H163.1V210.1H142.9V169.7H102.5V149.5H142.9V109.1H163.1V149.5H203.5V169.7Z" fill="black"/>
<path d="M405.6 341.5V321.3H333.4V341.5H405.6Z" fill="black"/>
</g>
<defs>
<clipPath id="clip0_1_7793">
<rect width="500" height="500" fill="white" transform="translate(0 0.5)"/>
</clipPath>
</defs>
</svg>
