<svg width="500" height="501" viewBox="0 0 500 501" fill="none" xmlns="http://www.w3.org/2000/svg">
<g clip-path="url(#clip0_1_7797)">
<path d="M250 500.5C388.071 500.5 500 388.571 500 250.5C500 112.429 388.071 0.5 250 0.5C111.929 0.5 0 112.429 0 250.5C0 388.571 111.929 500.5 250 500.5Z" fill="url(#paint0_linear_1_7797)"/>
<path d="M340.46 366.98C327.27 366.98 314.91 366.98 301.52 366.98C301.52 317.51 301.52 269 301.52 220.48C300.57 220.2 276 273.81 264.53 301.22C254.23 301.22 244.63 301.22 233.33 301.22C222.24 274.4 198.07 219.86 197.3 219.96C197.3 268.57 197.3 317.19 197.3 366.82C183.44 366.82 171.09 366.82 157.9 366.82C157.9 288.51 157.9 210.91 157.9 132.45C173.53 132.45 188.28 132.45 204.56 132.45C218.71 167.83 249.23 240.16 250.1 240.33C264.51 204.27 278.91 168.2 293.23 132.37C309.48 132.37 324.52 132.37 340.46 132.37C340.46 210.86 340.46 288.47 340.46 366.98Z" fill="white"/>
<path d="M268.25 366.96C255.27 366.96 242.97 366.96 229.95 366.96C229.95 353.92 229.95 341.82 229.95 328.63C242.69 328.63 254.96 328.63 268.25 328.63C268.25 341.45 268.25 353.75 268.25 366.96Z" fill="white"/>
</g>
<defs>
<linearGradient id="paint0_linear_1_7797" x1="409.676" y1="430.527" x2="80.5466" y2="59.4496" gradientUnits="userSpaceOnUse">
<stop stop-color="#D85BF0"/>
<stop offset="1" stop-color="#5F3CBE"/>
</linearGradient>
<clipPath id="clip0_1_7797">
<rect width="500" height="500" fill="white" transform="translate(0 0.5)"/>
</clipPath>
</defs>
</svg>
