<svg width="500" height="501" viewBox="0 0 500 501" fill="none" xmlns="http://www.w3.org/2000/svg">
<path d="M99.5563 267.078L154.545 226.138L203.152 257.043V312.609L239.926 347.868L239.909 364.407L204.475 397.452H174.528L99.5563 267.078ZM273.315 364.448L273.243 347.803L309.892 312.616V257.043L357.977 225.76L412.86 267.078L338.262 397.074H308.716L273.315 364.448ZM221.188 257.043L203.296 210.412H309.674L292.143 257.043L297.319 309.146L256.268 309.235L215.706 309.308L221.188 257.043ZM256.268 197.653L155.176 197.605L173.97 114.031H338.086L357.891 197.713L256.268 197.653ZM256.268 9.78285L48.7812 130.011V370.625L256.268 490.81L256.509 490.935L465.582 370.615V130.011L256.521 9.66504L256.268 9.78285Z" fill="#0A2F4B"/>
</svg>
