<svg width="500" height="501" viewBox="0 0 500 501" fill="none" xmlns="http://www.w3.org/2000/svg">
<path d="M281.417 337.699C281.417 346.792 281.417 355.384 281.417 364.848C304.063 364.848 326.495 364.848 349.616 364.848C349.616 375.308 349.616 384.927 349.616 395.5C326.981 395.5 304.327 395.5 281.085 395.5C281.085 401.372 281.085 406.312 281.085 411.906C303.941 411.906 326.429 411.906 349.611 411.906C349.611 421.306 349.611 430.093 349.611 440.135C327.086 440.135 304.467 440.135 281.271 440.135C281.271 458.94 281.271 476.525 281.271 494.721C261.54 494.721 242.392 494.721 222.352 494.721C222.352 477.155 222.352 459.364 222.352 440.5C199.097 440.5 176.699 440.5 153.9 440.5C153.9 430.591 153.9 421.77 153.9 412.104C176.702 412.104 199.13 412.104 222.02 412.104C222.02 406.501 222.02 401.728 222.02 396.118C199.537 396.118 177.101 396.118 154.074 396.118C154.074 385.675 154.074 376.035 154.074 365.331C176.373 365.331 198.77 365.331 221.573 365.331C221.573 355.414 221.573 346.545 221.573 337.087C172.127 327.999 134.786 301.132 109.747 257.839C87.3397 219.095 84.1737 176.99 91.8897 133.801C103.605 68.2263 163.355 2.85922 258.028 5.58222C346.872 8.13822 403.857 77.6432 412.748 144.99C418.585 189.204 412.417 231.283 387.123 269.075C361.827 306.87 326.51 329.796 281.417 337.699ZM179.376 169.17C179.272 197.247 185.29 220.72 203.646 239.665C231.451 268.363 280.185 266.162 304.799 235.242C331.965 201.115 331.063 142.679 302.856 109.385C274.388 75.7823 225.195 76.6772 198.051 111.35C184.189 129.056 179.162 149.552 179.376 169.17Z" fill="#00A65A"/>
</svg>
