<svg width="500" height="501" viewBox="0 0 500 501" fill="none" xmlns="http://www.w3.org/2000/svg">
<path fill-rule="evenodd" clip-rule="evenodd" d="M92.5004 114.3C191.9 143.8 242.7 118.9 275.6 102.7C283.7 98.7 290.8 95.2 297.3 93L303.9 112.3C298.1 114.3 291.8 117.4 284.6 120.9C248.9 138.4 193.7 165.5 86.9004 133.8L92.5004 114.3Z" fill="#FF5B04"/>
<path fill-rule="evenodd" clip-rule="evenodd" d="M42.6002 359.8C69.4002 377.3 101 381.8 132.4 379C175.9 375 219.2 357.1 249.9 339.7C275.4 325.3 302.1 322.5 326.5 326C359.6 330.7 388.5 347.1 403.5 361.3L389.6 376.2C376.9 364.2 352.3 350.3 323.8 346.2C303.3 343.3 281 345.5 260 357.5C227.3 376 181.2 395.1 134.4 399.4C98.8002 402.6 62.8002 397.4 31.7002 377.1L42.6002 359.8Z" fill="#FF5B04"/>
<path fill-rule="evenodd" clip-rule="evenodd" d="M42.4002 178.8C137.7 191.4 180.4 178.5 217.2 167.3C258.4 154.8 292.7 144.4 377.1 169.6L371.4 189.2C292.8 165.8 261.1 175.4 223 186.9C184.3 198.6 139.4 212.2 39.7002 199L42.4002 178.8Z" fill="#FF5B04"/>
<path fill-rule="evenodd" clip-rule="evenodd" d="M114 443.4C205.4 388.3 261.4 403.8 314.1 418.4C323.3 421 332.5 423.5 341.6 425.5L337.2 445.4C327.6 443.3 318.2 440.7 308.7 438C260.1 424.6 208.4 410.3 124.5 460.9L114 443.4Z" fill="#FF5B04"/>
<path fill-rule="evenodd" clip-rule="evenodd" d="M34.6998 241.5C131 276.3 178.1 250.9 220.3 228.2C268.6 202.2 311.2 179.3 402 236.3L391.3 253.5C310.5 202.7 272.8 223 230 246.1C184 270.9 132.7 298.5 27.7998 260.7L34.6998 241.5Z" fill="#FF5B04"/>
<path fill-rule="evenodd" clip-rule="evenodd" d="M35.1002 305.8C67.3002 323.6 104.7 322.9 143 313.7C182.5 304.1 223.2 285.3 259.9 267.9C300.2 248.8 334.5 252.2 361.9 263.3C388.8 274.3 408.5 292.6 421 304.4L407.1 319.3C395.7 308.5 377.7 291.8 354.2 282.3C331.3 273 302.6 270.2 268.5 286.4C230.9 304.2 189.2 323.5 147.7 333.6C104.9 344 62.5002 344.5 25.2002 323.8L35.1002 305.8Z" fill="#FF5B04"/>
<path fill-rule="evenodd" clip-rule="evenodd" d="M443 91.2998C449.6 91.2998 455.5 88.5998 459.8 84.2998C464.1 79.9998 466.8 73.9998 466.8 67.4998C466.8 60.8998 464.1 54.9998 459.8 50.6998C455.5 46.3998 449.6 43.6998 443 43.6998C436.5 43.6998 430.5 46.3998 426.2 50.6998C421.9 54.9998 419.2 60.9998 419.2 67.4998C419.2 74.0998 421.9 79.9998 426.2 84.2998C430.5 88.6998 436.5 91.2998 443 91.2998ZM483.3 107.9C473 118.2 458.7 124.6 443 124.6C427.3 124.6 413 118.2 402.7 107.9C392.4 97.5998 386 83.2998 386 67.4998C386 51.6998 392.4 37.3998 402.7 27.0998C413 16.6998 427.3 10.2998 443 10.2998C458.7 10.2998 473 16.6998 483.3 26.9998C493.6 37.3998 500 51.6998 500 67.4998C500 83.2998 493.6 97.5998 483.3 107.9Z" fill="#FF5B04"/>
<path fill-rule="evenodd" clip-rule="evenodd" d="M210.5 68.1001C268.6 68.1001 321.3 91.8001 359.4 130C397.5 168.2 421.1 221.1 421.1 279.4C421.1 337.7 397.5 390.6 359.4 428.8C321.3 467 268.7 490.7 210.5 490.7C152.4 490.7 99.7 467 61.6 428.8C23.6 390.5 0 337.7 0 279.4C0 221.1 23.6 168.2 61.7 130C99.8 91.7001 152.4 68.1001 210.5 68.1001ZM333.5 156C302 124.4 258.6 104.9 210.5 104.9C162.5 104.9 119 124.4 87.5 156C56 187.6 36.6 231.2 36.6 279.4C36.6 327.6 56.1 371.2 87.5 402.8C118.9 434.4 162.4 453.9 210.5 453.9C258.5 453.9 302 434.4 333.5 402.8C365 371.2 384.4 327.6 384.4 279.4C384.4 231.2 365 187.6 333.5 156Z" fill="#FF5B04"/>
</svg>
