<svg width="500" height="501" viewBox="0 0 500 501" fill="none" xmlns="http://www.w3.org/2000/svg">
<path d="M205.528 239.838C226.068 239.838 242.719 223.187 242.719 202.647C242.719 182.107 226.068 165.456 205.528 165.456C184.988 165.456 168.337 182.107 168.337 202.647C168.337 223.187 184.988 239.838 205.528 239.838Z" fill="#1E252C"/>
<path d="M296.816 239.838C317.356 239.838 334.007 223.187 334.007 202.647C334.007 182.107 317.356 165.456 296.816 165.456C276.276 165.456 259.625 182.107 259.625 202.647C259.625 223.187 276.276 239.838 296.816 239.838Z" fill="#1E252C"/>
<path d="M205.528 331.126C226.068 331.126 242.719 314.475 242.719 293.935C242.719 273.395 226.068 256.744 205.528 256.744C184.988 256.744 168.337 273.395 168.337 293.935C168.337 314.475 184.988 331.126 205.528 331.126Z" fill="#1E252C"/>
<path d="M296.816 331.126C317.356 331.126 334.007 314.475 334.007 293.935C334.007 273.395 317.356 256.744 296.816 256.744C276.276 256.744 259.625 273.395 259.625 293.935C259.625 314.475 276.276 331.126 296.816 331.126Z" fill="#1E252C"/>
<path d="M388.104 229.695C403.042 229.695 415.152 217.585 415.152 202.647C415.152 187.709 403.042 175.599 388.104 175.599C373.166 175.599 361.056 187.709 361.056 202.647C361.056 217.585 373.166 229.695 388.104 229.695Z" fill="#1E252C"/>
<path d="M388.104 320.983C403.042 320.983 415.152 308.873 415.152 293.935C415.152 278.997 403.042 266.887 388.104 266.887C373.166 266.887 361.056 278.997 361.056 293.935C361.056 308.873 373.166 320.983 388.104 320.983Z" fill="#1E252C"/>
<path d="M110.859 229.695C125.797 229.695 137.907 217.585 137.907 202.647C137.907 187.709 125.797 175.599 110.859 175.599C95.9207 175.599 83.811 187.709 83.811 202.647C83.811 217.585 95.9207 229.695 110.859 229.695Z" fill="#1E252C"/>
<path d="M110.859 320.983C125.797 320.983 137.907 308.873 137.907 293.935C137.907 278.997 125.797 266.887 110.859 266.887C95.9207 266.887 83.811 278.997 83.811 293.935C83.811 308.873 95.9207 320.983 110.859 320.983Z" fill="#1E252C"/>
<path d="M205.528 412.27C220.466 412.27 232.576 400.16 232.576 385.222C232.576 370.284 220.466 358.174 205.528 358.174C190.59 358.174 178.48 370.284 178.48 385.222C178.48 400.16 190.59 412.27 205.528 412.27Z" fill="#1E252C"/>
<path d="M296.816 412.27C311.754 412.27 323.864 400.16 323.864 385.222C323.864 370.284 311.754 358.174 296.816 358.174C281.878 358.174 269.768 370.284 269.768 385.222C269.768 400.16 281.878 412.27 296.816 412.27Z" fill="#1E252C"/>
<path d="M205.528 138.407C220.466 138.407 232.576 126.297 232.576 111.359C232.576 96.4208 220.466 84.311 205.528 84.311C190.59 84.311 178.48 96.4208 178.48 111.359C178.48 126.297 190.59 138.407 205.528 138.407Z" fill="#1E252C"/>
<path d="M296.816 138.407C311.754 138.407 323.864 126.297 323.864 111.359C323.864 96.4208 311.754 84.311 296.816 84.311C281.878 84.311 269.768 96.4208 269.768 111.359C269.768 126.297 281.878 138.407 296.816 138.407Z" fill="#1E252C"/>
<path d="M205.528 36.977C214.864 36.977 222.433 29.4084 222.433 20.072C222.433 10.7356 214.864 3.16699 205.528 3.16699C196.192 3.16699 188.623 10.7356 188.623 20.072C188.623 29.4084 196.192 36.977 205.528 36.977Z" fill="#1E252C"/>
<path d="M296.816 36.977C306.153 36.977 313.721 29.4084 313.721 20.072C313.721 10.7356 306.153 3.16699 296.816 3.16699C287.48 3.16699 279.911 10.7356 279.911 20.072C279.911 29.4084 287.48 36.977 296.816 36.977Z" fill="#1E252C"/>
<path d="M479.391 219.552C488.728 219.552 496.296 211.984 496.296 202.647C496.296 193.311 488.728 185.742 479.391 185.742C470.055 185.742 462.486 193.311 462.486 202.647C462.486 211.984 470.055 219.552 479.391 219.552Z" fill="#1E252C"/>
<path d="M479.391 310.84C488.728 310.84 496.296 303.271 496.296 293.935C496.296 284.598 488.728 277.03 479.391 277.03C470.055 277.03 462.486 284.598 462.486 293.935C462.486 303.271 470.055 310.84 479.391 310.84Z" fill="#1E252C"/>
<path d="M19.572 219.552C28.9084 219.552 36.4771 211.984 36.4771 202.647C36.4771 193.311 28.9084 185.742 19.572 185.742C10.2356 185.742 2.66699 193.311 2.66699 202.647C2.66699 211.984 10.2356 219.552 19.572 219.552Z" fill="#1E252C"/>
<path d="M19.572 310.84C28.9084 310.84 36.4771 303.271 36.4771 293.935C36.4771 284.598 28.9084 277.03 19.572 277.03C10.2356 277.03 2.66699 284.598 2.66699 293.935C2.66699 303.271 10.2356 310.84 19.572 310.84Z" fill="#1E252C"/>
<path d="M205.528 496.796C214.864 496.796 222.433 489.227 222.433 479.891C222.433 470.554 214.864 462.986 205.528 462.986C196.192 462.986 188.623 470.554 188.623 479.891C188.623 489.227 196.192 496.796 205.528 496.796Z" fill="#1E252C"/>
<path d="M296.816 496.796C306.153 496.796 313.721 489.227 313.721 479.891C313.721 470.554 306.153 462.986 296.816 462.986C287.48 462.986 279.911 470.554 279.911 479.891C279.911 489.227 287.48 496.796 296.816 496.796Z" fill="#1E252C"/>
</svg>
