<svg width="500" height="501" viewBox="0 0 500 501" fill="none" xmlns="http://www.w3.org/2000/svg">
<path d="M191.2 133.4L74.8002 395.1C67.0002 412.7 46.3002 420.6 28.7002 412.8C11.1002 405 3.20022 384.3 11.0002 366.7L127.4 105C135.2 87.4 155.9 79.5 173.5 87.3C191.1 95.2 199.1 115.8 191.2 133.4Z" fill="#0073F1"/>
<path d="M489.4 133.4L373 395.1C365.2 412.7 344.5 420.6 326.9 412.8C309.3 405 301.4 384.3 309.2 366.7L425.6 105C433.4 87.4 454.1 79.5 471.7 87.3C489.3 95.2 497.3 115.8 489.4 133.4Z" fill="#C2E4FF"/>
<path d="M340.1 134L282.2 264.2C274.4 281.8 253.7 289.7 236.1 281.9C218.5 274.1 210.6 253.4 218.4 235.8L276.3 105.6C284.1 88.0001 304.8 80.1001 322.4 87.9001C340 95.7001 347.9 116.3 340.1 134Z" fill="#0073F1"/>
<path d="M489.4 133.4C481.6 151 460.9 158.9 443.3 151.1C425.7 143.3 417.8 122.6 425.6 105C433.4 87.4 454.1 79.5 471.7 87.3C489.3 95.2 497.3 115.8 489.4 133.4Z" fill="#0073F1"/>
<path d="M373 395.1C365.2 412.7 344.5 420.6 326.9 412.8C309.3 405 301.4 384.3 309.2 366.7C317 349.1 337.7 341.2 355.3 349C372.9 356.9 380.8 377.5 373 395.1Z" fill="#0073F1"/>
</svg>
