<svg width="500" height="501" viewBox="0 0 500 501" fill="none" xmlns="http://www.w3.org/2000/svg">
<g clip-path="url(#clip0_1_7865)">
<path d="M384.7 0.5H346.2V39H384.7V0.5Z" fill="#451834"/>
<path d="M346.2 0.5H307.7V39H346.2V0.5Z" fill="#451834"/>
<path d="M307.7 0.5H269.2V39H307.7V0.5Z" fill="#451834"/>
<path d="M269.3 0.5H230.8V39H269.3V0.5Z" fill="#451834"/>
<path d="M230.8 0.5H192.3V39H230.8V0.5Z" fill="#451834"/>
<path d="M192.3 0.5H153.8V39H192.3V0.5Z" fill="#451834"/>
<path d="M153.9 0.5H115.4V39H153.9V0.5Z" fill="#451834"/>
<path d="M384.7 39H346.2V77.5H384.7V39Z" fill="#FFE84F"/>
<path d="M346.2 39H307.7V77.5H346.2V39Z" fill="#FFE84F"/>
<path d="M307.7 39H269.2V77.5H307.7V39Z" fill="#FFE84F"/>
<path d="M269.3 39H230.8V77.5H269.3V39Z" fill="#FFE84F"/>
<path d="M230.8 39H192.3V77.5H230.8V39Z" fill="#FFE84F"/>
<path d="M192.3 39H153.8V77.5H192.3V39Z" fill="#FFE84F"/>
<path d="M153.9 39H115.4V77.5H153.9V39Z" fill="#A1472A"/>
<path d="M384.7 77.3999H346.2V115.9H384.7V77.3999Z" fill="#A1472A"/>
<path d="M346.2 77.3999H307.7V115.9H346.2V77.3999Z" fill="#E39400"/>
<path d="M307.7 77.3999H269.2V115.9H307.7V77.3999Z" fill="#E39400"/>
<path d="M269.3 77.3999H230.8V115.9H269.3V77.3999Z" fill="#E39400"/>
<path d="M230.8 77.3999H192.3V115.9H230.8V77.3999Z" fill="#E39400"/>
<path d="M192.3 77.3999H153.8V115.9H192.3V77.3999Z" fill="#E39400"/>
<path d="M153.9 77.3999H115.4V115.9H153.9V77.3999Z" fill="#FFE84F"/>
<path d="M384.7 115.9H346.2V154.4H384.7V115.9Z" fill="#E39400"/>
<path d="M346.2 115.9H307.7V154.4H346.2V115.9Z" fill="#E39400"/>
<path d="M307.7 115.9H269.2V154.4H307.7V115.9Z" fill="#E39400"/>
<path d="M269.3 115.9H230.8V154.4H269.3V115.9Z" fill="#E39400"/>
<path d="M230.8 115.9H192.3V154.4H230.8V115.9Z" fill="#E39400"/>
<path d="M192.3 115.9H153.8V154.4H192.3V115.9Z" fill="#E39400"/>
<path d="M153.9 115.9H115.4V154.4H153.9V115.9Z" fill="#E39400"/>
<path d="M384.7 154.3H346.2V192.8H384.7V154.3Z" fill="#E39400"/>
<path d="M346.2 154.3H307.7V192.8H346.2V154.3Z" fill="#A1472A"/>
<path d="M307.7 154.3H269.2V192.8H307.7V154.3Z" fill="#A1472A"/>
<path d="M269.3 154.3H230.8V192.8H269.3V154.3Z" fill="#E39400"/>
<path d="M230.8 154.3H192.3V192.8H230.8V154.3Z" fill="#A1472A"/>
<path d="M192.3 154.3H153.8V192.8H192.3V154.3Z" fill="#A1472A"/>
<path d="M153.9 154.3H115.4V192.8H153.9V154.3Z" fill="#E39400"/>
<path d="M384.7 192.8H346.2V231.3H384.7V192.8Z" fill="#E39400"/>
<path d="M346.2 192.8H307.7V231.3H346.2V192.8Z" fill="#A1472A"/>
<path d="M307.7 192.8H269.2V231.3H307.7V192.8Z" fill="#A1472A"/>
<path d="M269.3 192.8H230.8V231.3H269.3V192.8Z" fill="#A1472A"/>
<path d="M230.8 192.8H192.3V231.3H230.8V192.8Z" fill="#A1472A"/>
<path d="M192.3 192.8H153.8V231.3H192.3V192.8Z" fill="#A1472A"/>
<path d="M153.9 192.8H115.4V231.3H153.9V192.8Z" fill="#E39400"/>
<path d="M384.7 231.3H346.2V269.8H384.7V231.3Z" fill="#E39400"/>
<path d="M346.2 231.3H307.7V269.8H346.2V231.3Z" fill="#A1472A"/>
<path d="M307.7 231.3H269.2V269.8H307.7V231.3Z" fill="#A1472A"/>
<path d="M269.3 231.3H230.8V269.8H269.3V231.3Z" fill="#A1472A"/>
<path d="M230.8 231.3H192.3V269.8H230.8V231.3Z" fill="#A1472A"/>
<path d="M192.3 231.3H153.8V269.8H192.3V231.3Z" fill="#A1472A"/>
<path d="M153.9 231.3H115.4V269.8H153.9V231.3Z" fill="#E39400"/>
<path d="M384.7 269.7H346.2V308.2H384.7V269.7Z" fill="#E39400"/>
<path d="M346.2 269.7H307.7V308.2H346.2V269.7Z" fill="#A1472A"/>
<path d="M307.7 269.7H269.2V308.2H307.7V269.7Z" fill="#E39400"/>
<path d="M269.3 269.7H230.8V308.2H269.3V269.7Z" fill="#A1472A"/>
<path d="M230.8 269.7H192.3V308.2H230.8V269.7Z" fill="#E39400"/>
<path d="M192.3 269.7H153.8V308.2H192.3V269.7Z" fill="#A1472A"/>
<path d="M153.9 269.7H115.4V308.2H153.9V269.7Z" fill="#E39400"/>
<path d="M384.7 308.2H346.2V346.7H384.7V308.2Z" fill="#E39400"/>
<path d="M346.2 308.2H307.7V346.7H346.2V308.2Z" fill="#A1472A"/>
<path d="M307.7 308.2H269.2V346.7H307.7V308.2Z" fill="#E39400"/>
<path d="M269.3 308.2H230.8V346.7H269.3V308.2Z" fill="#E39400"/>
<path d="M230.8 308.2H192.3V346.7H230.8V308.2Z" fill="#E39400"/>
<path d="M192.3 308.2H153.8V346.7H192.3V308.2Z" fill="#A1472A"/>
<path d="M153.9 308.2H115.4V346.7H153.9V308.2Z" fill="#E39400"/>
<path d="M384.7 346.7H346.2V385.2H384.7V346.7Z" fill="#E39400"/>
<path d="M346.2 346.7H307.7V385.2H346.2V346.7Z" fill="#E39400"/>
<path d="M307.7 346.7H269.2V385.2H307.7V346.7Z" fill="#E39400"/>
<path d="M269.3 346.7H230.8V385.2H269.3V346.7Z" fill="#E39400"/>
<path d="M230.8 346.7H192.3V385.2H230.8V346.7Z" fill="#E39400"/>
<path d="M192.3 346.7H153.8V385.2H192.3V346.7Z" fill="#E39400"/>
<path d="M153.9 346.7H115.4V385.2H153.9V346.7Z" fill="#E39400"/>
<path d="M384.7 385.1H346.2V423.6H384.7V385.1Z" fill="#A1472A"/>
<path d="M346.2 385.1H307.7V423.6H346.2V385.1Z" fill="#E39400"/>
<path d="M307.7 385.1H269.2V423.6H307.7V385.1Z" fill="#E39400"/>
<path d="M269.3 385.1H230.8V423.6H269.3V385.1Z" fill="#E39400"/>
<path d="M230.8 385.1H192.3V423.6H230.8V385.1Z" fill="#E39400"/>
<path d="M192.3 385.1H153.8V423.6H192.3V385.1Z" fill="#E39400"/>
<path d="M153.9 385.1H115.4V423.6H153.9V385.1Z" fill="#FFE84F"/>
<path d="M384.7 423.6H346.2V462.1H384.7V423.6Z" fill="#FFE84F"/>
<path d="M346.2 423.6H307.7V462.1H346.2V423.6Z" fill="#FFE84F"/>
<path d="M307.7 423.6H269.2V462.1H307.7V423.6Z" fill="#FFE84F"/>
<path d="M269.3 423.6H230.8V462.1H269.3V423.6Z" fill="#FFE84F"/>
<path d="M230.8 423.6H192.3V462.1H230.8V423.6Z" fill="#FFE84F"/>
<path d="M192.3 423.6H153.8V462.1H192.3V423.6Z" fill="#FFE84F"/>
<path d="M153.9 423.6H115.4V462.1H153.9V423.6Z" fill="#A1472A"/>
<path d="M384.7 462H346.2V500.5H384.7V462Z" fill="#451834"/>
<path d="M346.2 462H307.7V500.5H346.2V462Z" fill="#451834"/>
<path d="M307.7 462H269.2V500.5H307.7V462Z" fill="#451834"/>
<path d="M269.3 462H230.8V500.5H269.3V462Z" fill="#451834"/>
<path d="M230.8 462H192.3V500.5H230.8V462Z" fill="#451834"/>
<path d="M192.3 462H153.8V500.5H192.3V462Z" fill="#451834"/>
<path d="M153.9 462H115.4V500.5H153.9V462Z" fill="#451834"/>
<path d="M115.4 39H76.8999V77.5H115.4V39Z" fill="#451834"/>
<path d="M77 77.3999H38.5V115.9H77V77.3999Z" fill="#451834"/>
<path d="M115.4 77.3999H76.8999V115.9H115.4V77.3999Z" fill="#A1472A"/>
<path d="M423.1 39H384.6V77.5H423.1V39Z" fill="#451834"/>
<path d="M461.6 77.3999H423.1V115.9H461.6V77.3999Z" fill="#451834"/>
<path d="M423.1 77.3999H384.6V115.9H423.1V77.3999Z" fill="#FFE84F"/>
<path d="M500 115.9H461.5V154.4H500V115.9Z" fill="#451834"/>
<path d="M500 154.3H461.5V192.8H500V154.3Z" fill="#451834"/>
<path d="M500 192.8H461.5V231.3H500V192.8Z" fill="#451834"/>
<path d="M500 231.3H461.5V269.8H500V231.3Z" fill="#451834"/>
<path d="M500 269.7H461.5V308.2H500V269.7Z" fill="#451834"/>
<path d="M500 308.2H461.5V346.7H500V308.2Z" fill="#451834"/>
<path d="M500 346.7H461.5V385.2H500V346.7Z" fill="#451834"/>
<path d="M461.6 115.9H423.1V154.4H461.6V115.9Z" fill="#FFE84F"/>
<path d="M461.6 154.3H423.1V192.8H461.6V154.3Z" fill="#FFE84F"/>
<path d="M461.6 192.8H423.1V231.3H461.6V192.8Z" fill="#FFE84F"/>
<path d="M461.6 231.3H423.1V269.8H461.6V231.3Z" fill="#FFE84F"/>
<path d="M461.6 269.7H423.1V308.2H461.6V269.7Z" fill="#FFE84F"/>
<path d="M461.6 308.2H423.1V346.7H461.6V308.2Z" fill="#FFE84F"/>
<path d="M461.6 346.7H423.1V385.2H461.6V346.7Z" fill="#FFE84F"/>
<path d="M423.1 115.9H384.6V154.4H423.1V115.9Z" fill="#A1472A"/>
<path d="M423.1 154.3H384.6V192.8H423.1V154.3Z" fill="#A1472A"/>
<path d="M423.1 192.8H384.6V231.3H423.1V192.8Z" fill="#A1472A"/>
<path d="M423.1 231.3H384.6V269.8H423.1V231.3Z" fill="#A1472A"/>
<path d="M423.1 269.7H384.6V308.2H423.1V269.7Z" fill="#A1472A"/>
<path d="M423.1 308.2H384.6V346.7H423.1V308.2Z" fill="#A1472A"/>
<path d="M423.1 346.7H384.6V385.2H423.1V346.7Z" fill="#A1472A"/>
<path d="M115.4 115.9H76.8999V154.4H115.4V115.9Z" fill="#FFE84F"/>
<path d="M115.4 154.3H76.8999V192.8H115.4V154.3Z" fill="#FFE84F"/>
<path d="M115.4 192.8H76.8999V231.3H115.4V192.8Z" fill="#FFE84F"/>
<path d="M115.4 231.3H76.8999V269.8H115.4V231.3Z" fill="#FFE84F"/>
<path d="M115.4 269.7H76.8999V308.2H115.4V269.7Z" fill="#FFE84F"/>
<path d="M115.4 308.2H76.8999V346.7H115.4V308.2Z" fill="#FFE84F"/>
<path d="M115.4 346.7H76.8999V385.2H115.4V346.7Z" fill="#FFE84F"/>
<path d="M77 115.9H38.5V154.4H77V115.9Z" fill="#A1472A"/>
<path d="M77 154.3H38.5V192.8H77V154.3Z" fill="#A1472A"/>
<path d="M77 192.8H38.5V231.3H77V192.8Z" fill="#A1472A"/>
<path d="M77 231.3H38.5V269.8H77V231.3Z" fill="#A1472A"/>
<path d="M77 269.7H38.5V308.2H77V269.7Z" fill="#A1472A"/>
<path d="M77 308.2H38.5V346.7H77V308.2Z" fill="#A1472A"/>
<path d="M77 346.7H38.5V385.2H77V346.7Z" fill="#A1472A"/>
<path d="M38.5 115.9H0V154.4H38.5V115.9Z" fill="#451834"/>
<path d="M38.5 154.3H0V192.8H38.5V154.3Z" fill="#451834"/>
<path d="M38.5 192.8H0V231.3H38.5V192.8Z" fill="#451834"/>
<path d="M38.5 231.3H0V269.8H38.5V231.3Z" fill="#451834"/>
<path d="M38.5 269.7H0V308.2H38.5V269.7Z" fill="#451834"/>
<path d="M38.5 308.2H0V346.7H38.5V308.2Z" fill="#451834"/>
<path d="M38.5 346.7H0V385.2H38.5V346.7Z" fill="#451834"/>
<path d="M77 385.1H38.5V423.6H77V385.1Z" fill="#451834"/>
<path d="M115.4 385.1H76.8999V423.6H115.4V385.1Z" fill="#A1472A"/>
<path d="M115.4 423.6H76.8999V462.1H115.4V423.6Z" fill="#451834"/>
<path d="M461.6 385.1H423.1V423.6H461.6V385.1Z" fill="#451834"/>
<path d="M423.1 385.1H384.6V423.6H423.1V385.1Z" fill="#FFE84F"/>
<path d="M423.1 423.6H384.6V462.1H423.1V423.6Z" fill="#451834"/>
</g>
<defs>
<clipPath id="clip0_1_7865">
<rect width="500" height="500" fill="white" transform="translate(0 0.5)"/>
</clipPath>
</defs>
</svg>
