<svg width="500" height="501" viewBox="0 0 500 501" fill="none" xmlns="http://www.w3.org/2000/svg">
<path d="M450.1 338.4C433.9 338 418.6 345.6 409.1 358.7L380.5 346.4C381.7 340.1 382.3 333.7 382.3 327.3C382.3 276.1 344.3 232.8 293.5 226.3V110.8C319.9 104.6 336.3 78.1 330 51.7C323.7 25.3 297.3 8.89996 270.9 15.2C244.5 21.4 228.1 47.9 234.4 74.3C238.6 92 252.3 106 269.9 110.6H269.7V226.1C253.5 227.8 238 233.4 224.4 242.3L193.4 213.2C196.2 207.4 197.7 201.2 197.8 194.8C198.4 169.8 178.7 149 153.6 148.4C128.5 147.8 107.8 167.5 107.2 192.6C106.6 217.6 126.3 238.4 151.4 239C160.8 239.2 170 236.5 177.8 231.3L206.1 257.9C180.4 285.3 171.9 324.7 184 360.3L137.6 378.9C116.7 344.4 71.8 333.4 37.4 354.3C2.99995 375.2 -8.10005 420.1 12.8 454.5C33.7 488.9 78.6 500 113 479.1C134.3 466.2 147.6 443.3 148.2 418.4C148.4 412.6 147.8 406.7 146.5 401L194.2 381.9C224.1 429.5 287 443.8 334.6 413.9C351.6 403.2 365 387.8 373.2 369.6L400.1 381.2C399.8 383.1 399.6 385 399.6 386.9C399.1 414.1 420.7 436.6 447.9 437.2C475.1 437.7 497.6 416.1 498.2 388.9C498.5 361.6 477.1 339.1 450.1 338.4Z" fill="black"/>
</svg>
