<svg width="500" height="501" viewBox="0 0 500 501" fill="none" xmlns="http://www.w3.org/2000/svg">
<path d="M250.1 5.2998C112.8 5.2998 1.40002 116.7 1.40002 254.1C1.40002 353 59.1 438.4 142.7 478.5C143.4 476.9 145.8 472.3 149 468.5C152.9 463.9 159.5 455.7 164.5 445.5C169.4 435.3 178.6 414.6 180.9 407.7C182.3 403.6 183 401.2 183.5 399.8H183.6C183.6 399.8 185.4 392.3 186.3 387.1C187.1 381.9 193.2 365.5 193.3 364.8C193.5 364.1 198 365.5 204.7 365.6C211.4 365.8 230.3 361.6 240.5 356.6C250.7 351.6 257.4 343.7 254.9 339.2C252.4 334.7 240.8 337.2 227.3 342C213.7 346.9 200 355.6 198.2 356.2C196.4 356.9 198.2 351.3 199.9 345.5C201.6 339.6 210.1 322.6 210.4 321.2C210.7 319.9 213.4 321.5 232.5 320.9C251.6 320.2 264.8 313.7 273.8 306.5C282.8 299.3 263.4 301.8 247.4 304.5C231.3 307.2 219.5 311.5 217.6 311.9C215.8 312.2 216.3 309.4 219.8 302.7C223.3 296 234.4 278.4 235.2 276.8C236 275.2 241.4 278.3 262.8 275.1C284.2 271.9 298.9 262.2 305.5 257.5C312 252.8 306.7 251.6 299.3 251.8C291.9 252 283.7 252.6 272.5 255.1C261.3 257.6 249.4 263.3 246.9 264C244.4 264.7 249.6 258.3 252.9 254C256.2 249.6 271.5 233.3 272.6 232.1C273.8 230.9 280 233.9 295.7 232.9C311.4 231.9 332.7 223.5 341.5 216.8C350.4 210.1 325.9 212.4 312.4 214.5C298.8 216.5 291.3 218.9 288.3 219.7C285.3 220.5 287.8 218.4 289.8 217C291.8 215.7 299.2 210.1 317.1 200.1C335 190.1 356.8 175.2 361.3 171C365.8 166.8 363.6 164.8 358.8 165C353.9 165.2 342.7 167.8 325.2 178.9C307.6 189.9 286.7 210.2 285 211.2C283.3 212.2 288.3 206.3 294.7 195.6C301.1 184.9 305.7 172 307.9 161.3C310.1 150.6 304.1 154.4 296 163.5C288 172.5 277.1 189.6 271.4 203.8C265.7 218 266.5 228.6 265.5 230.2C264.5 231.9 255.1 240.9 250.6 246.4C246.1 251.9 243.9 254.9 242.7 255.8C241.5 256.6 245.2 245.1 247.4 234.2C249.6 223.3 248.6 208.8 248.2 200.6C247.9 192.4 243.8 191.4 238.2 200.1C232.5 208.8 231 224.4 230.3 240.4C229.6 256.5 231.8 270.2 231.8 271.4C231.8 272.6 228 277.1 224.8 282.3C221.6 287.5 218.6 292.5 216.4 296C214.2 299.5 213.9 299.3 213.6 297.3C213.3 295.3 213.4 278.7 211.3 263.7C209.1 248.6 207.3 243.1 201.8 243.1C196.3 243.1 197.1 251.5 197.1 272.4C197.1 293.3 205 316.2 205 318.4C205 320.6 203 324.1 201.3 327.8C199.6 331.5 195.9 340.2 194.9 342.7C193.9 345.2 194.1 344.7 192.9 344.7C191.7 344.7 185.4 327.3 179.8 315.9C174.3 304.5 168.1 297 162.9 301.7C157.7 306.4 165.9 324.1 172.9 337C179.9 349.9 189.8 357.6 190 358.6C190.2 359.6 188.7 363.8 186 374C183.7 382.6 182 394.6 181.5 398.1C177.8 397.5 170.4 395.9 164.1 392.2C155.2 386.9 151.6 382.7 148 381.7C144.4 380.7 135.2 378.7 129.9 373.8C124.6 368.9 118.1 358.7 115.4 349.5C112.8 340.3 111.1 335.4 106.8 332.1C102.5 328.8 96.3 328.5 94.6 324.2C93 319.9 89.3 312.7 88.3 306.8C87.3 300.9 88.3 295.9 78.8 290.4C69.3 284.8 61 276.6 59.4 269.3C57.8 262.1 58.4 255.2 56.8 253.8C55.2 252.5 52.9 251.2 53.2 247.5C53.5 243.9 58 235.9 59.1 233.2C60.2 230.4 61 228.4 60.1 226.8C59.1 225.3 57.3 225.3 57.7 224C58.1 222.8 59.6 221.5 59.6 219.8C59.6 218.1 58.8 214 58.6 209.8C58.5 205.6 60.1 195.7 67.7 187.5C75.3 179.3 80.7 176 81.4 174.6C82.1 173.2 81.7 171.7 80.3 171.4C78.9 171.1 76.6 170.2 79.5 168.9C82.4 167.7 87.4 167.1 89.3 165C91.2 162.9 90.7 161.3 93.6 157.1C96.5 152.9 99.3 150.6 102.1 150.4C104.9 150.3 106 149.8 108.2 146.5C110.4 143.2 111.5 141.2 115.7 140.5C119.9 139.8 126.1 139.9 131.5 135C136.9 130 150.3 115.5 156 110.9C161.7 106.3 166.4 104.4 170.5 101.1C174.7 97.7998 183.9 88.3998 192.9 84.7998C201.9 81.1998 221.4 74.0998 236.4 73.9998C251.4 73.8998 274.5 79.7998 281.3 80.7998C288.1 81.7998 319.5 82.4998 339.8 89.4998C360 96.5998 363.6 100.9 367.6 107.5C371.6 114.2 380.3 127.6 380.9 130.4C381.5 133.2 381.3 136.9 383.1 140.2C384.9 143.5 403.1 173.7 404.4 175.9C405.8 178.1 406.5 180.6 405 185.3C403.5 190 400.6 197.1 400.8 204.4C401.1 211.7 407.9 220.5 414.5 227C421.1 233.5 432.7 242.7 437.1 245.7C441.5 248.7 446.9 253.2 442.2 257.6C437.5 262 435.5 263.8 431.9 266.2C428.3 268.6 423.3 270.5 423.3 272.9C423.3 275.3 425.5 280.1 426.6 281.8C427.7 283.5 430.3 286.9 426.6 290.9C422.9 294.9 421.3 296.3 421.3 298.7C421.3 301.1 427.5 304.7 427.5 307.8C427.5 310.9 419.3 317.5 419.2 320.8C419.1 324.1 420.9 331.2 420.9 336.2C420.9 341.2 419.7 351.3 414.1 354.6C408.6 357.9 396.5 359.4 386.9 359.9C377.3 360.3 350.9 360.5 347 362.5C343.1 364.6 338 374.4 336.5 380.9C335 387.4 331.2 404.5 326.4 416C321.6 427.5 313.5 447.3 309.6 455.1C305.7 462.9 301.3 471.7 301 478.1C300.7 484.5 309.3 491.5 310.8 492.5C311.2 492.7 312.2 493.5 313.4 494.4C419.8 466.2 498.2 369.3 498.2 254C498.8 116.7 387.5 5.2998 250.1 5.2998Z" fill="#00DACC"/>
</svg>
