<svg width="500" height="501" viewBox="0 0 500 501" fill="none" xmlns="http://www.w3.org/2000/svg">
<path d="M476.9 159.1V340.7C476.9 363.7 464.5 384.8 444.5 396.1L281.1 488.2C261.7 499.1 238 499.1 218.6 488.2L196.3 475.6L151.3 450.3L55.1 396.1C35.1 384.8 22.7 363.7 22.7 340.7V159.1C22.7 136.1 35.1 115 55.1 103.7L218.5 11.5998C237.9 0.699804 261.6 0.699804 281 11.5998L298.9 21.6998L343.9 46.9998L444.4 103.7C464.6 115 476.9 136.2 476.9 159.1Z" fill="url(#paint0_linear_1_8028)"/>
<path d="M378.4 233.2L354.9 312.6L336.6 281L217.7 345C199.2 355 179.2 359.7 159.6 359.7C115.8 359.7 73.2 336.2 51 295C35.4 266.1 32.1 232.8 41.5 201.3C50.9 169.8 72.1 143.9 101 128.3L299 21.7002L344 47.0002L121.7 166.7C83.1 187.5 68.7 235.7 89.4 274.3C110.2 312.9 158.4 327.3 197 306.6L314.7 243.2L296.8 212.2L378.4 233.2Z" fill="white"/>
<path d="M398.7 366.8L196.4 475.7L151.4 450.4L378 328.4C416.6 307.6 431.1 259.4 410.3 220.8C400.2 202.1 383.5 188.5 363.2 182.4C342.9 176.3 321.4 178.5 302.7 188.5L185 251.9L202.9 282.9L121.4 261.9L144.9 182.5L163.1 214.1L282 150.1C310.9 134.5 344.2 131.1 375.7 140.6C407.2 150 433.1 171.2 448.7 200.1C480.9 259.9 458.4 334.7 398.7 366.8Z" fill="white"/>
<defs>
<linearGradient id="paint0_linear_1_8028" x1="22.9341" y1="249.91" x2="476.926" y2="249.91" gradientUnits="userSpaceOnUse">
<stop stop-color="#26A8E1"/>
<stop offset="0.5086" stop-color="#2B4192"/>
<stop offset="1" stop-color="#582D8C"/>
</linearGradient>
</defs>
</svg>
