<svg width="500" height="501" viewBox="0 0 500 501" fill="none" xmlns="http://www.w3.org/2000/svg">
<path d="M241.8 398.8L398.8 241.8C409.2 231.4 423.3 225.6 438 225.6C452.7 225.6 466.8 231.4 477.2 241.8C487.6 252.2 493.4 266.3 493.4 281C493.4 295.7 487.6 309.8 477.2 320.2L320.2 477.2C309.8 487.6 295.7 493.4 281 493.4C266.3 493.4 252.2 487.6 241.8 477.2C231.4 466.8 225.6 452.7 225.6 438C225.6 423.3 231.4 409.2 241.8 398.8ZM22.7 258.2C33.1 268.6 47.2 274.4 61.9 274.4C76.6 274.4 90.7 268.6 101.1 258.2L258.1 101.2C268.5 90.8 274.3 76.7 274.3 62C274.3 47.3 268.5 33.2 258.1 22.8C247.8 12.3 233.6 6.5 218.9 6.5C204.2 6.5 190.1 12.3 179.7 22.7L22.7 179.7C12.3 190.1 6.5 204.2 6.5 218.9C6.5 233.6 12.3 247.8 22.7 258.2ZM191.1 308.8C201.5 319.2 215.6 325 230.3 325C245 325 259.1 319.2 269.5 308.8L308.7 269.6C319.1 259.2 324.9 245.1 324.9 230.4C324.9 215.7 319.1 201.6 308.7 191.2C298.3 180.8 284.2 175 269.5 175C254.8 175 240.7 180.8 230.3 191.2L191.1 230.4C180.7 240.8 174.9 254.9 174.9 269.6C174.9 284.3 180.7 298.4 191.1 308.8Z" fill="#781CFE"/>
</svg>
