<svg width="500" height="501" viewBox="0 0 500 501" fill="none" xmlns="http://www.w3.org/2000/svg">
<g clip-path="url(#clip0_1_8034)">
<path d="M125 167.2H83.3V208.9H125V167.2Z" fill="#FED955"/>
<path d="M125 250.5H83.3V292.2H125V250.5Z" fill="#FED955"/>
<path d="M125 208.8H83.3V250.5H125V208.8Z" fill="#FED955"/>
<path d="M125 292.2H83.3V333.9H125V292.2Z" fill="#FED955"/>
<path d="M291.7 83.7998H250V125.5H291.7V83.7998Z" fill="#FED955"/>
<path d="M291.7 375.5H250V417.2H291.7V375.5Z" fill="#FED955"/>
<path d="M333.4 83.7998H291.7V125.5H333.4V83.7998Z" fill="#FED955"/>
<path d="M375 83.7998H333.3V125.5H375V83.7998Z" fill="#9695F8"/>
<path d="M166.7 83.7998H125V125.5H166.7V83.7998Z" fill="#9695F8"/>
<path d="M416.7 333.8H375V375.5H416.7V333.8Z" fill="#9695F8"/>
<path d="M125 333.8H83.3V375.5H125V333.8Z" fill="#9695F8"/>
<path d="M333.4 42.2002H291.7V83.9002H333.4V42.2002Z" fill="#9695F8"/>
<path d="M333.4 0.5H291.7V42.2H333.4V0.5Z" fill="#5552FD"/>
<path d="M333.4 458.8H291.7V500.5H333.4V458.8Z" fill="#5552FD"/>
<path d="M333.4 417.2H291.7V458.9H333.4V417.2Z" fill="#9695F8"/>
<path d="M250 42.2002H208.3V83.9002H250V42.2002Z" fill="#9695F8"/>
<path d="M250 0.5H208.3V42.2H250V0.5Z" fill="#5552FD"/>
<path d="M250 458.8H208.3V500.5H250V458.8Z" fill="#5552FD"/>
<path d="M250 417.2H208.3V458.9H250V417.2Z" fill="#9695F8"/>
<path d="M291.7 42.2002H250V83.9002H291.7V42.2002Z" fill="#9695F8"/>
<path d="M291.7 0.5H250V42.2H291.7V0.5Z" fill="#5552FD"/>
<path d="M291.7 458.8H250V500.5H291.7V458.8Z" fill="#5552FD"/>
<path d="M291.7 417.2H250V458.9H291.7V417.2Z" fill="#9695F8"/>
<path d="M208.4 42.2002H166.7V83.9002H208.4V42.2002Z" fill="#9695F8"/>
<path d="M208.4 0.5H166.7V42.2H208.4V0.5Z" fill="#5552FD"/>
<path d="M208.4 458.8H166.7V500.5H208.4V458.8Z" fill="#5552FD"/>
<path d="M208.4 417.2H166.7V458.9H208.4V417.2Z" fill="#9695F8"/>
<path d="M416.7 125.5H375V167.2H416.7V125.5Z" fill="#9695F8"/>
<path d="M125 125.5H83.3V167.2H125V125.5Z" fill="#9695F8"/>
<path d="M375 375.5H333.3V417.2H375V375.5Z" fill="#9695F8"/>
<path d="M166.7 375.5H125V417.2H166.7V375.5Z" fill="#9695F8"/>
<path d="M458.4 167.2H416.7V208.9H458.4V167.2Z" fill="#9695F8"/>
<path d="M83.4 167.2H41.7V208.9H83.4V167.2Z" fill="#9695F8"/>
<path d="M41.7 167.2H0V208.9H41.7V167.2Z" fill="#5552FD"/>
<path d="M83.4 125.5H41.7V167.2H83.4V125.5Z" fill="#5552FD"/>
<path d="M458.4 125.5H416.7V167.2H458.4V125.5Z" fill="#5552FD"/>
<path d="M375 417.2H333.3V458.9H375V417.2Z" fill="#5552FD"/>
<path d="M83.4 333.8H41.7V375.5H83.4V333.8Z" fill="#5552FD"/>
<path d="M125 83.7998H83.3V125.5H125V83.7998Z" fill="#5552FD"/>
<path d="M416.7 83.7998H375V125.5H416.7V83.7998Z" fill="#5552FD"/>
<path d="M416.7 375.5H375V417.2H416.7V375.5Z" fill="#5552FD"/>
<path d="M125 375.5H83.3V417.2H125V375.5Z" fill="#5552FD"/>
<path d="M166.7 42.2002H125V83.9002H166.7V42.2002Z" fill="#5552FD"/>
<path d="M375 42.2002H333.3V83.9002H375V42.2002Z" fill="#5552FD"/>
<path d="M458.4 333.8H416.7V375.5H458.4V333.8Z" fill="#5552FD"/>
<path d="M166.7 417.2H125V458.9H166.7V417.2Z" fill="#5552FD"/>
<path d="M500 167.2H458.3V208.9H500V167.2Z" fill="#5552FD"/>
<path d="M458.4 208.8H416.7V250.5H458.4V208.8Z" fill="#9695F8"/>
<path d="M83.4 208.8H41.7V250.5H83.4V208.8Z" fill="#9695F8"/>
<path d="M41.7 208.8H0V250.5H41.7V208.8Z" fill="#5552FD"/>
<path d="M500 208.8H458.3V250.5H500V208.8Z" fill="#5552FD"/>
<path d="M458.4 250.5H416.7V292.2H458.4V250.5Z" fill="#9695F8"/>
<path d="M83.4 250.5H41.7V292.2H83.4V250.5Z" fill="#9695F8"/>
<path d="M41.7 250.5H0V292.2H41.7V250.5Z" fill="#5552FD"/>
<path d="M500 250.5H458.3V292.2H500V250.5Z" fill="#5552FD"/>
<path d="M458.4 292.2H416.7V333.9H458.4V292.2Z" fill="#9695F8"/>
<path d="M83.4 292.2H41.7V333.9H83.4V292.2Z" fill="#9695F8"/>
<path d="M41.7 292.2H0V333.9H41.7V292.2Z" fill="#5552FD"/>
<path d="M500 292.2H458.3V333.9H500V292.2Z" fill="#5552FD"/>
<path d="M333.4 375.5H291.7V417.2H333.4V375.5Z" fill="#FED955"/>
<path d="M291.7 167.2H250V208.9H291.7V167.2Z" fill="#FED955"/>
<path d="M291.7 250.5H250V292.2H291.7V250.5Z" fill="#FED955"/>
<path d="M291.7 292.2H250V333.9H291.7V292.2Z" fill="#FED955"/>
<path d="M291.7 125.5H250V167.2H291.7V125.5Z" fill="#FED955"/>
<path d="M291.7 333.8H250V375.5H291.7V333.8Z" fill="#FED955"/>
<path d="M208.4 250.5H166.7V292.2H208.4V250.5Z" fill="#FED955"/>
<path d="M208.4 208.8H166.7V250.5H208.4V208.8Z" fill="#FED955"/>
<path d="M208.4 292.2H166.7V333.9H208.4V292.2Z" fill="#FED955"/>
<path d="M208.4 125.5H166.7V167.2H208.4V125.5Z" fill="#FED955"/>
<path d="M208.4 333.8H166.7V375.5H208.4V333.8Z" fill="#FED955"/>
<path d="M333.4 250.5H291.7V292.2H333.4V250.5Z" fill="#FED955"/>
<path d="M333.4 208.8H291.7V250.5H333.4V208.8Z" fill="#FED955"/>
<path d="M333.4 292.2H291.7V333.9H333.4V292.2Z" fill="#FED955"/>
<path d="M333.4 125.5H291.7V167.2H333.4V125.5Z" fill="#FED955"/>
<path d="M333.4 333.8H291.7V375.5H333.4V333.8Z" fill="#FED955"/>
<path d="M250 83.7998H208.3V125.5H250V83.7998Z" fill="#FED955"/>
<path d="M250 375.5H208.3V417.2H250V375.5Z" fill="#FED955"/>
<path d="M208.4 83.7998H166.7V125.5H208.4V83.7998Z" fill="#FED955"/>
<path d="M208.4 375.5H166.7V417.2H208.4V375.5Z" fill="#FED955"/>
<path d="M250 167.2H208.3V208.9H250V167.2Z" fill="#FED955"/>
<path d="M250 250.5H208.3V292.2H250V250.5Z" fill="#FED955"/>
<path d="M208.4 167.2H166.7V208.9H208.4V167.2Z" fill="#5552FD"/>
<path d="M291.7 208.8H250V250.5H291.7V208.8Z" fill="#5552FD"/>
<path d="M375 167.2H333.3V208.9H375V167.2Z" fill="#5552FD"/>
<path d="M375 250.5H333.3V292.2H375V250.5Z" fill="#5552FD"/>
<path d="M375 208.8H333.3V250.5H375V208.8Z" fill="#5552FD"/>
<path d="M375 292.2H333.3V333.9H375V292.2Z" fill="#5552FD"/>
<path d="M375 125.5H333.3V167.2H375V125.5Z" fill="#5552FD"/>
<path d="M375 333.8H333.3V375.5H375V333.8Z" fill="#5552FD"/>
<path d="M166.7 167.2H125V208.9H166.7V167.2Z" fill="#5552FD"/>
<path d="M166.7 250.5H125V292.2H166.7V250.5Z" fill="#5552FD"/>
<path d="M166.7 208.8H125V250.5H166.7V208.8Z" fill="#5552FD"/>
<path d="M166.7 292.2H125V333.9H166.7V292.2Z" fill="#5552FD"/>
<path d="M166.7 125.5H125V167.2H166.7V125.5Z" fill="#5552FD"/>
<path d="M166.7 333.8H125V375.5H166.7V333.8Z" fill="#5552FD"/>
<path d="M333.4 167.2H291.7V208.9H333.4V167.2Z" fill="#5552FD"/>
<path d="M250 208.8H208.3V250.5H250V208.8Z" fill="#5552FD"/>
<path d="M250 292.2H208.3V333.9H250V292.2Z" fill="#FED955"/>
<path d="M250 125.5H208.3V167.2H250V125.5Z" fill="#FED955"/>
<path d="M250 333.8H208.3V375.5H250V333.8Z" fill="#FED955"/>
<path d="M416.7 167.2H375V208.9H416.7V167.2Z" fill="#FED955"/>
<path d="M416.7 250.5H375V292.2H416.7V250.5Z" fill="#FED955"/>
<path d="M416.7 208.8H375V250.5H416.7V208.8Z" fill="#FED955"/>
<path d="M416.7 292.2H375V333.9H416.7V292.2Z" fill="#FED955"/>
</g>
<defs>
<clipPath id="clip0_1_8034">
<rect width="500" height="500" fill="white" transform="translate(0 0.5)"/>
</clipPath>
</defs>
</svg>
