<svg width="500" height="501" viewBox="0 0 500 501" fill="none" xmlns="http://www.w3.org/2000/svg">
<path d="M249.9 475.4C241.5 475.6 233.4 472.7 227.2 467.1C221 461.5 217.1 453.8 216.4 445.5L212.6 415.9C176.6 405.6 155.6 379 150.1 336.7L117.6 86.7999C110.7 85.6999 103.6 85.1999 96.6002 85.2999C86.2002 85.1999 75.8002 86.5999 65.8002 89.2999V468.1H2.2002V163.6C2.2002 122.3 20.7002 93.0999 54.5002 80.9999V61.2999C54.5002 38.5999 68.3002 23.3999 88.8002 23.3999C109.3 23.3999 122.1 36.1999 125.4 59.3999L127.9 77.5999C164.9 87.8999 186.4 117.7 192.9 165.9L222.8 406.7C240.7 410.2 259.1 410.2 277 406.7L306.9 166C313.2 117.7 335 87.9999 371.9 77.5999L374.4 59.3999C377.7 36.1999 390.7 23.3999 411 23.3999C431.3 23.3999 445.3 38.5999 445.3 61.2999V80.8999C479.1 92.9999 497.6 122.2 497.6 163.5V468H434V89.1999C424 86.4999 413.6 85.0999 403.2 85.1999C396.2 85.0999 389.1 85.5999 382.2 86.6999L349.7 336.5C344.3 378.1 322.8 405.4 287.2 415.7L283.6 445.4C283 453.8 279.2 461.7 272.9 467.3C266.6 473 258.3 475.8 249.9 475.4ZM224.3 418.7L227.6 444.2C227.9 449.8 230.5 455 234.7 458.8C238.9 462.5 244.4 464.5 250 464.2C252.8 464.4 255.6 464 258.2 463.1C260.8 462.2 263.3 460.8 265.4 458.9C267.5 457 269.2 454.8 270.4 452.3C271.6 449.8 272.3 447 272.4 444.2L275.7 418.6C258.5 421.5 241.2 421.5 224.3 418.7ZM445.3 456.9H486.3V163.6C486.3 128.6 472.2 104.4 445.3 93.0999V456.9ZM13.4002 456.9H54.5002V93.0999C27.7002 104.4 13.7002 128.5 13.7002 163.6L13.4002 456.9ZM129.5 89.8999L161.2 335.1C165.8 370.5 182.5 393.5 211 403.5L181.7 167.3C176.2 125.7 159.1 100.2 129.5 89.8999ZM370.2 89.8999C340.6 100.2 323.4 125.7 318.1 167.3L288.8 403.3C317.3 393.3 334 370.3 338.5 334.9L370.2 89.8999ZM65.8002 77.2999C75.9002 74.7999 86.3002 73.5999 96.6002 73.6999C103.1 73.5999 109.6 73.9999 116 74.8999L114.1 60.6999C111.6 43.2999 103.1 34.4999 88.7002 34.4999C74.3002 34.4999 65.8002 44.7999 65.8002 61.1999V77.2999ZM403.1 73.6999C413.5 73.5999 423.8 74.7999 433.9 77.2999V61.2999C433.9 44.8999 425.1 34.6999 411 34.6999C396.9 34.6999 388.1 43.4999 385.6 60.8999L383.7 75.0999C390.1 74.2999 396.6 73.8999 403.1 73.8999V73.6999Z" fill="#2D2D2D"/>
</svg>
