<svg width="500" height="501" viewBox="0 0 500 501" fill="none" xmlns="http://www.w3.org/2000/svg">
<path d="M251.7 240C254.3 235.1 256.1 232 257.6 228.7C275.8 190 293.9 151.4 312 112.7C313 110.5 313.8 108.2 315.2 106.3C320.5 98.8002 329.2 98.3002 335.1 105.3C336.8 107.4 338.1 109.9 339.4 112.2C367.6 162.2 395.1 212.6 424.1 262.2C439.6 288.7 457.7 313.7 474.6 339.4C480.1 347.7 485.6 355.9 491 364.2C494.2 369.1 497.4 374.4 494.1 380.4C490.8 386.4 484.8 386.4 478.8 386.4C360.2 386.4 241.5 386.4 122.9 386.4C89.1004 386.4 55.2004 386.4 21.4004 386.4C18.7004 386.4 15.9004 386.6 13.2004 386.2C4.70038 384.9 0.600383 376.8 4.70038 369.3C6.10038 366.7 8.40038 364.4 10.5004 362.2C28.9004 342.9 46.9004 323.2 65.7004 304.4C83.0004 287 95.4004 266.1 109.1 246.1C128.5 218 147.5 189.6 166.7 161.3C167.7 159.9 168.6 158.4 169.6 157.1C177.1 147.5 184.7 147.5 191.9 157.5C206.6 177.7 220.9 198.1 235.5 218.4C240.6 225.1 245.6 231.8 251.7 240ZM260.9 330L328.7 361.8L392.4 361.5C392.4 361.5 345.4 294.4 321.5 260.3C301.3 284.5 260.9 330 260.9 330ZM124.7 359.9L191.1 276.5L171.7 254.7L105.9 287.8L96.5004 300.6L124.7 359.9ZM242.9 332.7C228 316.6 214.4 302 199.3 285.8C180 312 160.9 336.2 141.9 362.8C168.3 362.8 191.1 362.7 215.8 362.7C224.4 353.4 233.6 342.9 242.9 332.7ZM316.4 160.2L255.8 277.9V314.3L315.2 247.4L316.4 160.2ZM178.2 244.1L244.7 317.5L246.1 269L184.4 188.9L178.2 244.1ZM398.6 262.7L327.9 142.3L325.5 245.5L398.6 262.7ZM402.6 354.6L408.8 276.7L333.3 257.5L402.6 354.6ZM36.4004 362.5H112L89.2004 310.4L36.4004 362.5ZM419.5 299.7L414.3 361.6L461.6 362L419.5 299.7ZM170.2 194.4L121.7 266.5C121.7 266.5 153.8 249.6 166.5 241.8C167.7 228.6 170.2 194.4 170.2 194.4ZM231.3 362.6L302.5 362.3L252 339.7L231.3 362.6Z" fill="#003977"/>
</svg>
