<svg width="500" height="501" viewBox="0 0 500 501" fill="none" xmlns="http://www.w3.org/2000/svg">
<path d="M21.8429 104.404C21.0154 105.703 21.4222 107.223 21.4219 108.645C21.3994 211.507 21.4049 314.369 21.3902 417.231C21.3899 418.993 21.4019 420.809 21.0062 422.507C20.0582 426.572 16.1609 429.273 12.1739 428.879C8.03016 428.47 4.86041 425.296 4.50966 421.13C4.40691 419.91 4.45841 418.676 4.45841 417.449C4.45816 308.038 4.45966 198.627 4.46116 89.2163C4.46116 88.6705 4.48641 88.1235 4.45866 87.5795C4.26091 83.7135 5.49491 80.555 9.11891 78.7715C12.7007 77.0088 15.9037 77.8915 18.9974 80.252C33.1972 91.086 47.4567 101.842 61.6912 112.631C115.048 153.07 168.385 193.533 221.796 233.9C225.412 236.632 227.009 239.757 227.003 244.272C226.919 302.115 226.942 359.959 226.938 417.802C226.938 418.484 226.959 419.167 226.933 419.848C226.727 425.223 223.257 428.908 218.383 428.94C213.598 428.97 210.01 425.179 209.998 419.783C209.952 397.819 209.977 375.855 209.976 353.891C209.975 319.24 209.953 284.588 210.021 249.937C210.025 247.44 209.462 245.775 207.323 244.158C146.191 197.952 85.1237 151.658 24.0317 105.397C23.4339 104.945 22.9669 104.075 21.8429 104.404Z" fill="#1EBC9C"/>
<path d="M478.679 103.43C475.751 105.618 473.604 107.204 471.476 108.817C412.246 153.694 353.032 198.592 293.746 243.397C291.093 245.402 290.042 247.393 290.049 250.774C290.169 306.293 290.134 361.812 290.132 417.331C290.132 418.559 290.194 419.794 290.082 421.012C289.685 425.317 286.221 428.71 282.078 428.926C277.804 429.15 273.883 425.864 273.249 421.432C273.076 420.226 273.143 418.982 273.143 417.755C273.138 360.19 273.185 302.624 273.058 245.059C273.046 239.882 274.88 236.455 278.968 233.365C345.974 182.721 412.903 131.976 479.816 81.2088C483.265 78.5918 486.693 76.6003 491.021 78.7783C495.18 80.871 495.682 84.6553 495.681 88.8548C495.634 198.666 495.645 308.476 495.64 418.287C495.639 424.929 492.304 429.036 487.056 428.929C481.78 428.821 478.656 424.767 478.657 418.016C478.664 316.253 478.672 214.491 478.679 112.728C478.68 110.006 478.679 107.284 478.679 103.43Z" fill="#576B7C"/>
</svg>
