<svg width="500" height="501" viewBox="0 0 500 501" fill="none" xmlns="http://www.w3.org/2000/svg">
<g clip-path="url(#clip0_1_8158)">
<path d="M181.9 193.7C179.7 187 175.7 180.3 171.3 174.7C166.8 170.2 161.2 168 155.1 168.5H149.5C154.5 170.2 159 173.5 162.9 177.5C166.8 183.1 170.2 189.3 173 195.4L236.3 346.6C238 343.8 239.1 340.4 239.7 337.1C239.1 333.2 238 329.3 236.3 325.9L181.9 193.7Z" fill="#1D1D1B"/>
<path d="M304.6 347.2H309.6C315.8 347.2 319.7 345.5 321.4 342.2C323.1 336 323.6 329.9 323.6 323.7V190.9C323 183.6 324.2 176.3 326.4 169.1C322.5 169.7 320.2 170.2 318.6 172.5C316.9 174.7 315.8 177 315.8 179.8C315.2 184.8 315.2 189.9 315.2 194.9V327.6C315.8 332.1 315.2 336.6 313 341C310.2 343.2 307.4 345.5 304.6 347.2Z" fill="#1D1D1B"/>
<path d="M250.2 26.7998C127 26.7998 26.7998 127.1 26.7998 250.3C26.7998 373.5 127 473.7 250.2 473.7C373.4 473.7 473.7 373.5 473.7 250.3C473.7 127.1 373.4 26.7998 250.2 26.7998ZM371.2 169.1C364.5 168.5 357.8 169.7 351.6 173C347.7 175.2 345.4 178.6 345.4 183.1C344.8 190.9 344.3 198.8 344.3 207.2V325.9C344.3 330.4 344.9 335.4 347.1 339.9C348.8 343.3 351.6 345.5 354.9 346.1C360.5 347.8 366.1 348.3 371.7 348.9V356.2H282.7V348.9C289.4 349.5 295.6 348.3 301.7 345.5C305.1 343.8 307.9 341 308.4 337.1C309 331.5 309.5 325.3 309.5 319.7V185.9L240.6 355H232.8L165.6 190.9V303.5C165 314.1 167.8 324.2 172.9 333.2C179.1 341 187.5 346.1 197 347.8V355.1H127.6V347.8C136.6 347.2 145 342.8 150.6 336C156.2 328.2 159 318.1 158.4 308.6V181.4C155 177.5 150 174.1 145 172.4C139.4 170.7 133.8 169.6 128.2 169.6V162.3H190.9L251.9 309L311.8 162.3H370.6L371.2 169.1Z" fill="#1D1D1B"/>
<path d="M160.1 329.2C159 333.1 156.7 336.5 154.5 339.3C151.1 342.1 147.8 344.9 144.4 347.1H173C169.6 345.4 166.8 342.6 165.2 339.8C162.3 336.5 161.2 333.2 160.1 329.2Z" fill="#1D1D1B"/>
<path d="M250.2 500.6C112.5 500.6 0.500391 389.2 -0.0996094 250.8C-0.0996094 113.1 111.3 1.1 249.7 0.5C387.4 0.5 499.4 111.9 500 250.3C499.4 388 388 500 250.2 500.6ZM250.2 10.6C118 10.6 10.5004 117.6 10.5004 250.3C10.5004 382.5 117.5 490 250.2 490C382.9 490 489.9 383 489.9 250.3C489.4 118.1 382.4 11.1 250.2 10.6Z" fill="#1D1D1B"/>
</g>
<defs>
<clipPath id="clip0_1_8158">
<rect width="500" height="500" fill="white" transform="translate(0 0.5)"/>
</clipPath>
</defs>
</svg>
