<svg width="500" height="501" viewBox="0 0 500 501" fill="none" xmlns="http://www.w3.org/2000/svg">
<g clip-path="url(#clip0_1_8164)">
<path fill-rule="evenodd" clip-rule="evenodd" d="M236.6 117.3C257.6 128.1 280.6 131.8 302.6 131.7C315.4 143.4 326 157.2 336 171.4C340.1 177.3 343.9 183.5 347.2 189.9C354.8 204.6 360.5 220.2 366.1 235.9C367.8 240.5 369.4 245.2 371.2 249.8C371.7 251.8 372.3 253.8 372.9 255.8C381.7 285.9 394.5 318.1 411.7 344.6C417.4 353.3 423.7 361.6 430.7 369.3C432.1 370.8 433.5 372.3 434.9 373.7C441.5 380.6 448.1 387.5 451.9 396.2C456.6 407 456.2 419.5 453.4 430.9C440.1 484.9 388.1 499.1 338.5 500.4V500.3C319.9 500.7 301.4 499.3 285 497.6C285 497.6 205.9 489.4 138.8 440.4L136.6 438.8C128.8 433 121.3 426.7 114.2 419.9C95.4002 402 78.7002 381.6 65.9002 359.3C66.0002 359.2 66.1002 359.1 66.2002 359C64.7002 356.3 63.2002 353.5 61.8002 350.7C49.4002 325.9 41.9002 299 41.5002 270.3C40.9002 222.2 57.4002 173 88.6002 137.3V137.2C105.5 118.7 126.7 104.1 151.7 95.8C167.4 90.6 183.9 88 200.4 88.4C210.6 100.4 222.8 110.1 236.6 117.3Z" fill="url(#paint0_linear_1_8164)"/>
<path fill-rule="evenodd" clip-rule="evenodd" d="M400.8 78.1998L401.5 77.7999C313.3 -72.7001 198 45.6998 198 45.6998L198.2 45.9998C264.4 162.3 390.5 84.7998 400.8 78.1998Z" fill="url(#paint1_linear_1_8164)"/>
<path d="M291.5 337.4C267.2 395.5 220.5 434 164 439.8C162.8 440 147.3 441.2 138.8 440.6C205.9 489.6 285 497.8 285 497.8C301.9 499.5 321.1 501 340.4 500.5C347.2 482.8 351 462.6 349.9 439.6C347.4 386.2 378.3 358.8 411.8 344.8C394.6 318.2 381.8 286.1 373 256C346.7 262.7 313.5 284.6 291.5 337.4Z" fill="url(#paint2_linear_1_8164)"/>
<path d="M348.7 439.1C349.8 462.1 345.2 482.8 338.4 500.5C388.1 499.2 440.1 485 453.3 431C456.1 419.5 456.5 407.1 451.8 396.3C447.2 385.8 438.4 377.8 430.6 369.3C423.3 361.2 416.7 352.6 410.8 343.4C377.4 357.5 346.1 385.7 348.7 439.1Z" fill="url(#paint3_linear_1_8164)"/>
<path d="M371.2 249.8C363.6 229.4 357.1 208.9 347.2 189.9C343.9 183.5 340.2 177.3 336 171.4C326 157.2 315.4 143.5 302.6 131.7C280.6 131.8 257.6 128.1 236.6 117.3C215.3 147.5 191 198.7 213.3 257.1C246.2 343.4 179.4 402.4 136.6 438.9L138.8 440.5C146.8 441.1 154.9 441 162.9 440.2C219.4 434.4 268.8 395 293.1 336.9C315.1 284.2 347.2 264.2 373.3 257.2C372.5 254.7 371.8 252.3 371.2 249.8Z" fill="url(#paint4_linear_1_8164)"/>
<path d="M90.8996 134.9C58.0996 170.8 40.8996 221.2 41.4996 270.5C41.7996 299.2 49.3996 326.1 61.7996 350.9C63.6996 354.6 65.5996 358.3 67.6996 361.9C136.5 292.8 111.6 189.8 90.8996 134.9Z" fill="url(#paint5_linear_1_8164)"/>
<path d="M214.4 257.1C192.1 198.6 215.9 147.8 237.2 117.6C223.2 110.4 210.7 100.5 200.5 88.5002C183.9 88.2002 167.5 90.7002 151.8 95.9002C126.8 104.2 105.6 118.8 88.7 137.3C109 190.9 133.3 291.7 66 359.3C78.8 381.6 95.5 402 114.3 419.9C121.7 427 129.6 433.6 137.8 439.6C180.5 403.3 247.3 343.4 214.4 257.1Z" fill="url(#paint6_linear_1_8164)"/>
<path d="M297.5 55.3001C344.1 73.7001 376.8 78.7001 400.5 78.0001L401.2 77.6001C312.9 -72.8999 197.6 45.5001 197.6 45.5001L197.8 45.8001C222.6 41.4001 258.8 40.1001 297.5 55.3001Z" fill="url(#paint7_linear_1_8164)"/>
<path d="M298.1 54.3002C259.4 39.1002 223.1 39.6002 197.8 45.9002C264.1 162.2 390.2 84.7002 400.5 78.1002C376.8 78.7002 344.7 72.7002 298.1 54.3002Z" fill="url(#paint8_linear_1_8164)"/>
</g>
<defs>
<linearGradient id="paint0_linear_1_8164" x1="-5.42453" y1="151.306" x2="533.982" y2="474.545" gradientUnits="userSpaceOnUse">
<stop stop-color="#E54033"/>
<stop offset="0.4896" stop-color="#FECA1A"/>
<stop offset="1" stop-color="#AFD803"/>
</linearGradient>
<linearGradient id="paint1_linear_1_8164" x1="83292.6" y1="85430.5" x2="49524.1" y2="50694.8" gradientUnits="userSpaceOnUse">
<stop offset="0.15" stop-color="#6CBF00"/>
<stop offset="1" stop-color="#AFD803"/>
</linearGradient>
<linearGradient id="paint2_linear_1_8164" x1="83.0303" y1="444.6" x2="421.028" y2="362.416" gradientUnits="userSpaceOnUse">
<stop offset="0.21" stop-color="#E54033"/>
<stop offset="0.84" stop-color="#FECA1A"/>
</linearGradient>
<linearGradient id="paint3_linear_1_8164" x1="349.323" y1="421.792" x2="453.616" y2="422.574" gradientUnits="userSpaceOnUse">
<stop stop-color="#FECA1A"/>
<stop offset="0.4" stop-color="#FECA1A"/>
<stop offset="1" stop-color="#AFD803"/>
</linearGradient>
<linearGradient id="paint4_linear_1_8164" x1="113.262" y1="446.706" x2="327.086" y2="157.227" gradientUnits="userSpaceOnUse">
<stop offset="0.16" stop-color="#E54033"/>
<stop offset="0.84" stop-color="#FECA1A"/>
</linearGradient>
<linearGradient id="paint5_linear_1_8164" x1="82.1134" y1="159.065" x2="72.6448" y2="346.04" gradientUnits="userSpaceOnUse">
<stop stop-color="#FECA1A"/>
<stop offset="0.76" stop-color="#E54033"/>
</linearGradient>
<linearGradient id="paint6_linear_1_8164" x1="186.714" y1="110.512" x2="129.607" y2="327.357" gradientUnits="userSpaceOnUse">
<stop offset="0.16" stop-color="#FECA1A"/>
<stop offset="1" stop-color="#E54033"/>
</linearGradient>
<linearGradient id="paint7_linear_1_8164" x1="208.836" y1="6.68734" x2="420.275" y2="84.6236" gradientUnits="userSpaceOnUse">
<stop offset="0.15" stop-color="#6CBF00"/>
<stop offset="1" stop-color="#AFD803"/>
</linearGradient>
<linearGradient id="paint8_linear_1_8164" x1="83289.4" y1="85432.8" x2="49520.9" y2="50697.1" gradientUnits="userSpaceOnUse">
<stop offset="0.15" stop-color="#6CBF00"/>
<stop offset="1" stop-color="#AFD803"/>
</linearGradient>
<clipPath id="clip0_1_8164">
<rect width="500" height="500" fill="white" transform="translate(0 0.5)"/>
</clipPath>
</defs>
</svg>
