<svg width="500" height="501" viewBox="0 0 500 501" fill="none" xmlns="http://www.w3.org/2000/svg">
<g clip-path="url(#clip0_1_8174)">
<path d="M102.9 175.8L27.0996 137.2C21.1996 148.9 16.0996 161.1 12.0996 173.5L93.0996 199.7C95.6996 191.5 98.9996 183.5 102.9 175.8Z" fill="black"/>
<path d="M167.3 107.8L209.3 180.2C215.4 176.6 222 173.9 228.8 172.1L207.1 91.3002C212.6 89.8002 218.3 88.6002 223.9 87.7002L210.5 3.7002C197.6 5.8002 184.7 8.8002 172.3 12.9002L198.3 92.5002C190 95.2002 182 98.5002 174.2 102.5L136 28.0002C124.4 33.9002 113.2 40.9002 102.6 48.6002L152.8 117.3C157.5 113.8 162.4 110.7 167.3 107.8Z" fill="black"/>
<path d="M392.7 167.7L320.4 209.7C324 215.8 326.7 222.4 328.5 229.2L409.3 207.4C410.8 212.9 412 218.5 412.9 224.2L496.9 210.8C494.8 197.9 491.7 185 487.7 172.6L408.1 198.6C405.4 190.3 402 182.3 398.1 174.6L472.6 136.4C466.7 124.8 459.7 113.6 452 103L383.3 153.2C386.6 158 389.8 162.8 392.7 167.7Z" fill="black"/>
<path d="M363.2 27.5C351.5 21.6 339.3 16.5 326.9 12.5L300.8 93.5C309 96.1 317 99.5 324.7 103.4L363.2 27.5Z" fill="black"/>
<path d="M332.9 106.3L290.4 180C296.6 183.5 302.2 187.9 307.3 192.9L426.5 73.4C417.3 64.2 407.2 55.6 396.7 48L347.6 115.8C342.8 112.4 338 109.2 332.9 106.3Z" fill="black"/>
<path d="M105.9 167.5L179.6 210C183.1 203.9 187.5 198.2 192.5 193.1L72.9996 74C63.7996 83.2 55.1996 93.3 47.5996 103.8L115.3 153C111.9 157.6 108.8 162.5 105.9 167.5Z" fill="black"/>
<path d="M275.8 86.2L288.6 3.5C275.9 1.5 262.9 0.5 250 0.5H249.8V169.3H250C257.1 169.3 264.2 170.2 270.9 172L292.7 89.8C287.2 88.3 281.5 87.1 275.8 86.2Z" fill="black"/>
<path d="M171.5 229.5L89.3 207.6C87.8 213.2 86.6 218.8 85.7 224.6L3 211.7C1 224.5 0 237.5 0 250.5H168.8C168.8 243.4 169.7 236.3 171.5 229.5Z" fill="black"/>
<path d="M397.1 325.2L472.9 363.8C478.8 352.1 483.9 339.9 487.9 327.5L406.9 301.3C404.3 309.5 401 317.5 397.1 325.2Z" fill="black"/>
<path d="M332.7 393.2L290.7 320.8C284.6 324.4 278 327.1 271.2 328.9L292.9 409.7C287.4 411.2 281.7 412.4 276.1 413.3L289.4 497.3C302.3 495.2 315.2 492.2 327.6 488.1L301.6 408.5C309.9 405.8 317.9 402.5 325.7 398.5L363.9 473C375.5 467.1 386.7 460.1 397.3 452.4L347.1 383.7C342.5 387.2 337.6 390.3 332.7 393.2Z" fill="black"/>
<path d="M107.3 333.3L179.6 291.3C176 285.2 173.3 278.6 171.5 271.8L90.8002 293.5C89.3002 288 88.1002 282.4 87.2002 276.7L3.2002 290.1C5.3002 303 8.4002 315.9 12.4002 328.3L92.0002 302.3C94.7002 310.6 98.1002 318.6 102 326.3L27.5002 364.5C33.4002 376.1 40.4002 387.3 48.1002 397.9L116.8 347.7C113.4 343.1 110.2 338.2 107.3 333.3Z" fill="black"/>
<path d="M136.8 473.5C148.5 479.4 160.7 484.5 173.1 488.5L199.2 407.5C191 404.9 183 401.5 175.3 397.6L136.8 473.5Z" fill="black"/>
<path d="M167.1 394.7L209.6 321C203.4 317.5 197.8 313.1 192.7 308.1L73.5 427.6C82.7 436.8 92.8 445.4 103.3 453L152.4 385.2C157.2 388.7 162 391.8 167.1 394.7Z" fill="black"/>
<path d="M394.1 333.5L320.4 291C316.9 297.1 312.5 302.8 307.5 307.9L427 427.1C436.2 417.9 444.8 407.8 452.4 397.3L384.7 348.1C388.1 343.4 391.2 338.6 394.1 333.5Z" fill="black"/>
<path d="M229.1 329L207.3 411.2C212.9 412.7 218.5 413.9 224.3 414.7L211.4 497.5C224.1 499.5 237.1 500.5 250 500.5H250.2V331.7H250C242.9 331.7 235.9 330.8 229.1 329Z" fill="black"/>
<path d="M331.2 250.5C331.2 257.6 330.3 264.7 328.5 271.5L410.7 293.4C412.2 287.8 413.4 282.2 414.3 276.4L497 289.3C499 276.6 500 263.5 500 250.5H331.2Z" fill="black"/>
</g>
<defs>
<clipPath id="clip0_1_8174">
<rect width="500" height="500" fill="white" transform="translate(0 0.5)"/>
</clipPath>
</defs>
</svg>
