<svg width="500" height="501" viewBox="0 0 500 501" fill="none" xmlns="http://www.w3.org/2000/svg">
<path d="M427.1 2.5H72.9C33.7 2.5 2 34.2 2 73.4V427.7C2 466.8 33.7 498.5 72.9 498.5H427.2C466.3 498.5 498.1 466.8 498.1 427.6V73.4C498 34.2 466.3 2.5 427.1 2.5Z" fill="url(#paint0_radial_1_8192)"/>
<path d="M226.4 132.4H108.3C98.8998 132.4 89.8998 136.1 83.1998 142.8C76.5998 149.4 72.7998 158.5 72.7998 167.9V333.2C72.7998 340.7 75.1998 348 79.5998 354.1C83.9998 360.2 90.2998 364.6 97.3998 366.9C104.5 369.2 112.2 369.1 119.3 366.8C126.4 364.4 132.6 359.9 137 353.8L255.1 188.5C258.9 183.2 261.1 177 261.6 170.5C262.1 164 260.7 157.5 257.8 151.7C254.8 145.9 250.3 141.1 244.8 137.7C239.3 134.2 232.9 132.4 226.4 132.4ZM131.9 215.1C127.2 215.1 122.7 213.7 118.8 211.1C114.9 208.5 111.9 204.8 110.1 200.5C108.3 196.2 107.8 191.4 108.8 186.9C109.7 182.3 112 178.1 115.3 174.8C118.6 171.5 122.8 169.2 127.4 168.3C132 167.4 136.7 167.9 141 169.6C145.3 171.4 149 174.4 151.6 178.3C154.2 182.2 155.6 186.8 155.6 191.4C155.6 197.7 153.1 203.7 148.7 208.1C144.2 212.6 138.2 215.1 131.9 215.1Z" fill="#0D0A03"/>
<path d="M315 356.8C331.3 356.8 344.5 343.6 344.5 327.3C344.5 311 331.3 297.8 315 297.8C298.7 297.8 285.5 311 285.5 327.3C285.5 343.6 298.6 356.8 315 356.8Z" fill="#0D0A03"/>
<path d="M427.1 167.8V333.1C427.1 341.9 423.8 350.5 417.9 357C411.9 363.5 403.8 367.6 395 368.4C386.2 369.2 377.4 366.7 370.4 361.4C363.4 356.1 358.6 348.3 356.9 339.6C356.5 337.5 356.3 335.3 356.3 333.1V306.2C356.2 298.7 353.8 291.5 349.4 285.4C345 279.4 338.7 274.9 331.6 272.7C324.5 270.4 316.8 270.5 309.7 272.9C302.6 275.3 296.4 279.8 292.1 285.9L273.7 311.8L244 353.4C238.3 360.6 230.1 365.3 221.1 366.6C212 367.9 202.8 365.6 195.4 360.2C188 354.8 182.9 346.8 181.3 337.8C179.7 328.8 181.6 319.5 186.6 311.9L304.7 146.6C308 142.2 312.2 138.7 317 136.2C321.9 133.7 327.2 132.4 332.6 132.4H391.6C401 132.4 410 136.1 416.7 142.8C423.4 149.4 427.1 158.4 427.1 167.8Z" fill="#FFFDFA"/>
<defs>
<radialGradient id="paint0_radial_1_8192" cx="0" cy="0" r="1" gradientUnits="userSpaceOnUse" gradientTransform="translate(250.001 250.501) scale(248.002 248.002)">
<stop offset="0.474" stop-color="#FFC640"/>
<stop offset="1" stop-color="#F2AF13"/>
</radialGradient>
</defs>
</svg>
