<svg width="500" height="501" viewBox="0 0 500 501" fill="none" xmlns="http://www.w3.org/2000/svg">
<g clip-path="url(#clip0_1_8202)">
<path d="M250 500.5C388.071 500.5 500 388.571 500 250.5C500 112.429 388.071 0.5 250 0.5C111.929 0.5 0 112.429 0 250.5C0 388.571 111.929 500.5 250 500.5Z" fill="url(#paint0_radial_1_8202)"/>
<path d="M348.3 274.7C332 271.5 292.3 272.6 252.5 276.1C212.9 279.6 173.5 285.4 157.9 291.4C127.8 303.1 134.8 315.8 139.6 333.8C148.9 368.7 167.1 395.9 192.3 409.9C215.1 422.6 244.4 424.2 265.2 422.4C286 420.6 314.5 413.9 334.8 397.5C357.2 379.2 370.5 349.4 373.5 313.4C375.1 294.7 379.9 281 348.3 274.7ZM314.1 353.8C310.2 357.8 303.8 357.8 299.8 353.9L284.4 338.9L261.1 371.2L232.7 343.5L220.2 360.9C217 365.5 210.6 366.5 206.1 363.3C201.5 360.1 200.5 353.7 203.7 349.2L230 312.6L258.5 340.4L281.8 308.1L314 339.5C318 343.4 318.1 349.9 314.1 353.8Z" fill="white"/>
<path d="M236.9 98.1002C278 94.6002 302.4 105.3 311 110.2C334.9 123.6 353.3 150.9 363 187.1C363.4 188.7 365.2 194.8 366.3 199.1C366.9 201.4 365.9 204 363.7 205.1C361.9 206 359.4 207.2 356.1 208.5C339 215.2 289.5 221.9 248.1 225.5C190.7 230.5 151.9 230.2 138.8 227.5C135.3 226.8 132.8 226.1 130.7 225.4C128.4 224.6 126.8 222.3 127.1 219.9C127.5 215.5 128 209.1 128.3 207.5C131.3 170 144.7 140 165.9 122.6C188.9 104.2 223.2 99.3002 236.9 98.1002ZM234.7 72.8002C209.4 75.0002 174.7 83.1002 150 103.2C122.8 125.3 106.7 161.7 103 205.5C101.1 228.2 95.2999 244.8 133.8 252.4C153.6 256.3 202.1 255 250.3 250.7C298.5 246.5 346.5 239.4 365.3 232.1C402 217.8 393.3 202.5 387.5 180.5C376.3 138 354.1 105.1 323.3 88.0002C295.6 72.4002 260 70.5002 234.7 72.8002Z" fill="white"/>
<path d="M272 196.4C264.4 197.1 255.8 193.7 246.5 186.4C246 185.9 245.4 185.5 244.9 185.2C239.1 192.1 230.3 200.1 220.3 200.9C204.2 202.3 189 193.3 182.6 178.4C180.4 173.3 182.8 167.3 187.8 165.1C192.9 162.9 198.9 165.3 201.1 170.3C204.1 177.1 211 181.2 218.4 180.6C222.4 180.3 230.5 171.6 234.9 164.4L242 152.7L251.1 163C257.5 170.1 266.6 176.3 270.2 176C277.5 175.4 283.7 170 285.5 162.8C286.8 157.4 292.3 154 297.6 155.3C303 156.6 306.4 162.1 305.1 167.5C301.5 183.5 288.2 195 272 196.4Z" fill="white"/>
</g>
<defs>
<radialGradient id="paint0_radial_1_8202" cx="0" cy="0" r="1" gradientUnits="userSpaceOnUse" gradientTransform="translate(44.3368 80.1357) rotate(51.2869) scale(507.714 673.192)">
<stop stop-color="#939EFF"/>
<stop offset="0.5024" stop-color="#6B00AD"/>
<stop offset="1" stop-color="#300056"/>
</radialGradient>
<clipPath id="clip0_1_8202">
<rect width="500" height="500" fill="white" transform="translate(0 0.5)"/>
</clipPath>
</defs>
</svg>
