<svg width="500" height="501" viewBox="0 0 500 501" fill="none" xmlns="http://www.w3.org/2000/svg">
<g clip-path="url(#clip0_1_8211)">
<path d="M250 461.5C133.6 461.5 39 366.8 39 250.5C39 250 39.1 249.6 39.1 249.1L251.4 461.5C250.9 461.5 250.5 461.5 250 461.5ZM261.3 461V314H418.7L294.8 190.2V243.1L328.3 276.6H223.9V329.5V348.9V381L44.8 202L13.4 170.5C4.8 195.7 0 222.5 0 250.5C0 388.3 112.1 500.5 250 500.5C343.6 500.5 424.8 448.6 467.6 372.3L438.8 343.5C405.9 410 339.4 456.8 261.3 461Z" fill="#70CC8B"/>
<path d="M461 251.9L248.6 39.5C249.1 39.5 249.5 39.4 250 39.4C366.4 39.4 461 134.1 461 250.4C461 251 461 251.4 461 251.9ZM250 0.5C156.5 0.5 75.1999 52.4 32.3999 128.7L61.1999 157.5C94.0999 91 160.6 44.2 238.7 40V186.9H81.3999L205.2 310.7V257.8L171.7 224.3H276.1V158.5V120L455.2 299.1L486.7 330.6C495.2 305.5 500 278.6 500 250.6C500 112.6 387.9 0.5 250 0.5Z" fill="#70CC8B"/>
</g>
<defs>
<clipPath id="clip0_1_8211">
<rect width="500" height="500" fill="white" transform="translate(0 0.5)"/>
</clipPath>
</defs>
</svg>
