<svg width="500" height="501" viewBox="0 0 500 501" fill="none" xmlns="http://www.w3.org/2000/svg">
<g clip-path="url(#clip0_1_8214)">
<path d="M468.8 288.9L451.8 276.7C452.8 268.6 453.3 260.4 453.3 252C453.3 226.1 448.4 201.4 439.6 178.6L452.4 161.2C438.9 131.4 419 105.2 394.5 84.2L375.5 92.6C351.6 74 323.4 60.6 292.6 54.2L287.6 34.5C275.8 32.6 263.7 31.5 251.4 31.5C237.8 31.5 224.4 32.7 211.4 35.1L205.9 55.2C175.6 62.2 147.9 76 124.5 94.9L106.1 86.1C84.0001 105.5 65.8001 129.2 52.8001 155.9L65.1001 173.7C54.9001 197.8 49.3001 224.3 49.3001 252.1C49.3001 252.9 49.3001 253.7 49.3001 254.5L31.1001 265C33.0001 298.5 42.4001 330 57.7001 357.8L79.1001 357.6C91.3001 377.5 106.9 395.1 125.1 409.7L122.2 430.9C149 450.2 180.2 463.7 214.1 469.4L227 452.5C234.9 453.4 243 454 251.2 454C261.9 454 272.5 453.2 282.7 451.5L296.6 467.9C328.5 461.2 357.8 447.7 383 428.9L379.1 408.3C397.9 392.9 413.9 374.1 426.2 352.9L446.3 355C457.2 334.6 464.8 312.4 468.8 288.9Z" fill="#D6B66A"/>
<path d="M251.3 31.5C263.6 31.5 275.7 32.5 287.5 34.5L292.6 54.3C323.4 60.7 351.6 74.1 375.5 92.7L394.5 84.3C419 105.3 438.9 131.5 452.4 161.3L439.6 178.7C448.5 201.4 453.3 226.2 453.3 252.1C453.3 260.5 452.8 268.7 451.8 276.8L468.8 289C464.8 312.5 457.2 334.7 446.4 355L426.3 352.9C414.1 374.1 398.1 392.9 379.2 408.3L383.1 428.9C357.9 447.7 328.5 461.3 296.7 467.9L282.8 451.5C272.5 453.1 262 454 251.3 454C243.1 454 235 453.5 227.1 452.5L214.2 469.5C180.3 463.8 149.1 450.3 122.3 431L125.2 409.8C107 395.2 91.4001 377.6 79.2001 357.7L57.8001 357.9C42.6001 330.1 33.2001 298.6 31.2001 265.1L49.4001 254.5C49.4001 253.7 49.4001 252.9 49.4001 252.1C49.4001 224.3 55.0001 197.8 65.2001 173.7L52.9001 155.9C65.9001 129.2 84.1001 105.5 106.2 86.1L124.6 94.9C148 76 175.7 62.2 206 55.2L211.5 35.1C224.3 32.8 237.7 31.5 251.3 31.5ZM251.3 0.5C236 0.5 220.7 1.9 205.7 4.6C194 6.7 184.5 15.4 181.4 27L180.6 30.1C159.6 36.8 139.4 46.6 121.1 59L119.5 58.2C115.2 56.2 110.7 55.2 106.1 55.2C98.7001 55.2 91.4001 57.8 85.7001 62.9C60.2001 85.3 39.7001 112 25.0001 142.5C20.1001 152.6 21.0001 164.5 27.4001 173.7L30.4001 178.1C24.1001 197 20.2001 216.5 18.9001 236.4L15.7001 238.3C5.6001 244.2 -0.3999 255.3 0.3001 266.9C2.5001 304.4 12.7001 340 30.6001 372.8C36.0001 382.7 46.5001 388.9 57.8001 388.9C57.9001 388.9 58.0001 388.9 58.0001 388.9H62.7001C71.4001 401 81.3001 412.1 92.2001 422.3L91.6001 426.8C90.1001 438.1 94.9001 449.4 104.2 456.1C135.2 478.5 171.5 493.7 209.1 500.1C210.8 500.4 212.6 500.5 214.3 500.5C223.9 500.5 233 496.1 239 488.3L241.6 484.8C244.9 484.9 248.2 485 251.4 485C257.6 485 263.8 484.8 270 484.3L273.1 488C279.1 495 287.8 499 296.8 499C298.9 499 301 498.8 303.2 498.3C339.2 490.8 372.3 475.8 401.9 453.7C411.4 446.6 416 434.7 413.8 423.1L413.2 419.8C424 409.4 433.8 398 442.3 385.7L443.3 385.8C444.4 385.9 445.5 386 446.6 386C458 386 468.6 379.7 474 369.5C486.5 345.8 495.1 320.5 499.5 294.1C501.5 282.4 496.6 270.6 487 263.7L484.2 261.7C484.3 258.5 484.4 255.2 484.4 252C484.4 228.7 481 205.9 474.3 183.9L477.4 179.6C484.1 170.6 485.3 158.6 480.7 148.4C465.6 114.9 442.7 84.6 414.7 60.6C409 55.7 401.8 53.2 394.5 53.2C390.2 53.2 386 54.1 381.9 55.9L379.1 57.2C360.3 44.9 339.6 35.3 318.1 28.8L317.6 26.8C314.5 14.9 304.7 5.9 292.6 3.9C279 1.6 265.1 0.5 251.3 0.5Z" fill="black"/>
<path d="M251.2 454.8C363.424 454.8 454.4 363.824 454.4 251.6C454.4 139.376 363.424 48.3999 251.2 48.3999C138.976 48.3999 48 139.376 48 251.6C48 363.824 138.976 454.8 251.2 454.8Z" fill="#EED789"/>
<path d="M416.5 289C419.1 277.1 420.6 264.8 420.6 252.1C420.6 230.8 416.6 210.3 409.4 191.5C417.7 173.1 406.5 141.9 381 116.4C353.5 88.8999 319.1 77.9999 301.7 90.4999C285.8 85.5999 268.9 82.8999 251.4 82.8999C158 82.8999 82.2 158.6 82.2 252.1C82.2 295.4 98.5 334.9 125.3 364.9C120.7 378.7 138.5 400.3 166.5 414.4C192.9 427.7 219.4 429.7 229.3 419.8C236.5 420.7 243.9 421.2 251.4 421.2C273.5 421.2 294.6 417 314 409.2C335.9 411.7 362.7 403.1 385.5 384.2C419.5 356 432.4 314.7 416.5 289Z" fill="#F4EBBF"/>
<path d="M392.4 190.3C389.1 193.6 384.7 195.3 379.4 195.7C379.5 181.5 370.1 162.3 353.6 145.8C336.3 128.5 316.1 119 301.7 120.1C301.7 114 303.5 108.8 307.2 105.1C319.5 92.8 348.6 101.9 372.1 125.4C395.6 148.9 404.7 177.9 392.4 190.3Z" fill="#C19C58"/>
<path d="M379.4 195.6C365 196.6 344.8 187.1 327.5 169.9C311 153.4 301.6 134.2 301.7 120C316.1 119 336.3 128.5 353.6 145.7C370.1 162.2 379.5 181.4 379.4 195.6Z" fill="#A07F44"/>
<path d="M377.9 375.2C347.5 400.4 309 404.1 291.8 383.4C287.1 377.7 284.5 370.9 283.8 363.3C302.6 366.7 326.7 359.5 347.1 342.5C369.1 324.2 380.8 299.5 379 279.5C388.2 281.1 396.1 285.3 401.7 292.1C418.9 312.8 408.2 350 377.9 375.2Z" fill="#C19C58"/>
<path d="M347.1 342.5C326.7 359.4 302.6 366.7 283.8 363.3C281.9 343.3 293.6 318.6 315.7 300.3C336.1 283.4 360.2 276.1 379 279.5C380.9 299.6 369.2 324.2 347.1 342.5Z" fill="#A07F44"/>
<path d="M228.6 405.3C222.6 417.1 197.2 416.4 171.8 403.6C146.4 390.8 130.6 370.9 136.6 359C138.6 355 142.9 352.4 148.6 351.3C152.5 362.2 165.7 375 183.9 384.1C200.7 392.5 217.5 395.7 228.7 393.5C230.3 397.9 230.3 401.9 228.6 405.3Z" fill="#C19C58"/>
<path d="M228.7 393.6C217.5 395.8 200.7 392.6 183.9 384.2C165.8 375.1 152.5 362.3 148.6 351.4C159.8 349.2 176.6 352.4 193.4 360.8C211.6 369.9 224.8 382.7 228.7 393.6Z" fill="#A07F44"/>
<path d="M252.8 170.6C216.6 161.6 177.2 181.7 160.6 219.6C149.9 244.1 151 270.5 161.6 291.7C157.7 290.7 153.7 289.4 149.9 287.7C110.9 270.6 94.2999 222.7 112.7 180.7C131.1 138.7 177.7 118.6 216.6 135.7C232.8 142.9 245.2 155.4 252.8 170.6Z" fill="#C19C58"/>
<path d="M253.8 242.8C237.2 280.6 197.7 300.7 161.5 291.8C150.9 270.6 149.8 244.1 160.5 219.7C177.1 181.9 216.6 161.7 252.7 170.7C263.4 191.8 264.5 218.3 253.8 242.8Z" fill="#A07F44"/>
</g>
<defs>
<clipPath id="clip0_1_8214">
<rect width="500" height="500" fill="white" transform="translate(0 0.5)"/>
</clipPath>
</defs>
</svg>
