<svg width="500" height="501" viewBox="0 0 500 501" fill="none" xmlns="http://www.w3.org/2000/svg">
<path d="M220.59 176.226C232.167 189.786 243.34 202.875 254.888 216.401C264.016 214.515 273.206 212.615 282.689 210.656C298.782 231.245 314.691 251.597 330.563 271.902C338.979 273.351 345.737 272.489 352.344 265.812C368.849 249.133 386.323 233.414 404.059 216.696C435.304 257.861 466.262 298.648 497.22 339.434C496.961 339.665 496.702 339.897 496.442 340.128C465.831 305.961 435.221 271.794 404.115 237.075C391.856 250.463 379.965 263.449 367.688 276.856C375.749 306.467 383.812 336.089 391.876 365.711C391.508 365.932 391.14 366.153 390.772 366.374C354.982 323.495 319.191 280.616 283.299 237.615C278.287 237.615 273.378 237.615 268.167 237.615C267.756 238.982 267.356 240.313 266.707 242.468C251.341 226.191 236.355 210.316 220.447 193.466C197.391 260.474 174.729 326.335 152.067 392.197C151.587 392.125 151.107 392.053 150.627 391.98C148.337 370.667 146.048 349.355 143.729 327.772C124.851 319.336 106.213 311.007 87.179 302.502C59.022 325.583 30.956 348.589 2.88997 371.596C2.64897 371.36 2.40897 371.124 2.16797 370.888C27.784 341.02 53.401 311.151 79.223 281.042C88.646 286.289 97.813 291.394 107.414 296.74C145.049 256.666 182.499 216.788 220.59 176.226ZM238.939 119.649C239.192 111.082 232.23 103.728 223.802 103.661C215.25 103.593 208.234 110.634 208.285 119.234C208.336 127.731 214.859 134.253 223.397 134.342C231.954 134.431 238.69 128.063 238.939 119.649ZM157.498 164.485C157.563 155.826 150.683 148.902 142.017 148.903C133.936 148.904 126.896 155.982 126.806 164.196C126.712 172.815 133.657 179.683 142.383 179.6C150.918 179.518 157.434 173.002 157.498 164.485ZM320.41 164.404C320.439 155.969 313.115 148.718 304.734 148.884C296.151 149.054 289.493 156.17 289.725 164.926C289.948 173.357 296.661 179.696 305.255 179.593C313.632 179.493 320.382 172.727 320.41 164.404Z" fill="#354368"/>
</svg>
