<svg width="500" height="501" viewBox="0 0 500 501" fill="none" xmlns="http://www.w3.org/2000/svg">
<path d="M487.4 217.6C482.9 224.4 471.5 236.9 440.9 252.7C434.1 256.1 426.2 259.5 417.1 262.9C410.3 265.2 409.2 272 408 276.5V282.2V333.2C453.3 317.3 485.1 295.8 496.4 269.7C498.7 264 499.8 258.4 499.8 251.6C501 239.2 495.3 227.8 487.4 217.6Z" fill="#FF8801"/>
<path d="M357 274.3C332.1 278.8 306 282.2 277.7 283.4V303.8C277.7 315.1 269.8 325.3 260.7 325.3C251.6 325.3 243.7 316.2 243.7 303.8V284.5C140.6 283.4 53.3 255 20.4 216.5C12.5 226.7 7.90002 236.9 7.90002 248.2C7.90002 253.9 9.00002 259.5 11.3 266.3C31.7 313.9 132.6 350.2 253.9 350.2C297 350.2 336.6 345.7 371.8 337.7V292.4C370.6 275.4 358.2 274.3 357 274.3Z" fill="#FF8801"/>
<path d="M247.1 46.5C109.9 46.5 0 92.9 0 149.6C0 155.3 1.1 162.1 3.4 167.7C23.8 214.2 120.1 250.5 238 251.6V250.5C238 230.1 236.9 201.8 224.4 189.3C216.5 181.4 185.9 170 172.3 162.1C167.8 159.8 163.2 157.6 159.8 155.3C158.7 154.2 157.5 153 156.4 151.9C150.7 146.2 147.3 140.6 147.3 133.8C147.3 110 196 90.7 256.1 90.7C316.2 90.7 365 110 365 133.8C365 146.3 352.5 156.5 333.3 164.4C325.4 168.9 291.4 176.9 282.3 193.9C274.4 208.6 274.4 231.3 274.4 251.7C383.2 247.2 471.6 212 489.8 167.8C492.1 162.1 493.2 156.5 493.2 149.7C493.1 92.9 383.1 46.5 247.1 46.5Z" fill="#FF8801"/>
<path d="M400.1 362.7V397.8C400.1 406.9 392.2 414.8 383.1 414.8C374 414.8 366.1 406.9 366.1 397.8V372.9C331 380.8 290.2 385.4 248.2 385.4C141.7 385.4 51 357 15.9 318.5C5.7 328.7 0 341.2 0 352.5C0 408 109.9 454.5 247.1 454.5C383.1 454.5 494.2 409.2 494.2 352.5C494.2 340 488.5 328.7 479.5 317.4C462.5 335.5 435.2 351.4 400.1 362.7Z" fill="#FF8801"/>
</svg>
