<svg width="500" height="501" viewBox="0 0 500 501" fill="none" xmlns="http://www.w3.org/2000/svg">
<path d="M250.6 493.6C385.302 493.6 494.5 384.402 494.5 249.7C494.5 114.998 385.302 5.7998 250.6 5.7998C115.898 5.7998 6.70001 114.998 6.70001 249.7C6.70001 384.402 115.898 493.6 250.6 493.6Z" fill="black"/>
<path d="M152.9 186.4C152.9 178.7 152.4 171.3 151.7 163.7H186L187.2 179.3C191 174 200.3 161.1 224.5 161.1C252.3 161.1 260.1 178.1 262.5 183.8C272.5 164.4 288.8 161.3 301.3 161.3C325.7 161.3 335.5 175.9 338.1 180.7C344.6 191.2 344.1 205.8 344.1 216.4V282.5H308.5V213.5C308.5 200.6 306.6 186.2 288.2 186.2C266.9 186.2 266.4 206.1 266.4 224V282.5H230.8V212.7C230.8 203.4 230.6 186.1 210.9 186.1C188.7 186.1 188.7 205.3 188.7 213.4V282.4H153V186.4H152.9Z" fill="white"/>
<path d="M151.7 309.1H344.1V338.5H151.7V309.1Z" fill="white"/>
</svg>
