<svg width="500" height="501" viewBox="0 0 500 501" fill="none" xmlns="http://www.w3.org/2000/svg">
<path d="M452.711 7.24316C464.583 7.24316 474.329 7.24316 485.294 7.24316C485.294 167.906 485.294 328.016 485.294 489.457C474.786 489.457 464.234 489.457 452.711 489.457C452.711 328.866 452.711 168.746 452.711 7.24316ZM47.616 9.86916C36.085 9.86916 25.538 9.86916 15.032 9.86916C15.032 171.31 15.032 331.42 15.032 492.083C25.996 492.083 35.743 492.083 47.616 492.083C47.616 330.582 47.616 170.462 47.616 9.86916ZM150.532 404.316C163.362 404.316 175.008 404.316 186.693 404.316C186.693 299.036 186.693 195.134 186.693 90.4452C174.455 90.4452 163.107 90.4452 150.532 90.4452C150.532 195.751 150.532 299.556 150.532 404.316ZM306.806 324.749C318.462 324.749 328.615 324.749 339.405 324.749C339.405 273.859 339.405 224.033 339.405 173.667C328.066 173.667 317.855 173.667 306.806 173.667C306.806 225.322 306.806 275.156 306.806 324.749Z" fill="black"/>
</svg>
