<svg width="500" height="501" viewBox="0 0 500 501" fill="none" xmlns="http://www.w3.org/2000/svg">
<path d="M425.607 75.294C396.927 49.221 368.583 50.266 346.084 60.085C327.437 68.223 263.954 77.902 241.357 77.032C218.76 76.163 181.824 70.514 145.756 57.043C109.688 43.572 75.147 74.636 75.147 74.636C61.9 87.885 50.59 109.624 50.155 130.048C49.72 150.472 78.828 198.625 75.565 256.706C73.737 289.249 56.239 335.155 52.328 355.579C48.417 376.003 55.2 405.773 78.309 426.753C104.497 450.528 129.513 449.875 163.138 436.84C189.632 426.569 232.231 422.5 261.781 422.5C291.33 422.5 330.874 435.102 357.817 443.793C384.759 452.484 414.743 434.667 428.649 420.762C442.555 406.856 457.329 380.783 448.638 354.71C439.947 328.637 426.041 273.015 425.607 243.9C425.172 214.785 446.9 156.555 449.073 143.084C451.245 129.613 454.287 101.367 425.607 75.294ZM392.537 173.398C390.98 183.053 378.67 217.116 378.959 243.416C379.188 264.284 385.997 306.384 392.225 325.071C398.454 343.758 411.327 369.423 393.119 387.631C373.756 406.994 346.442 395.145 327.133 388.917C307.824 382.688 277.308 376.071 256.13 376.071C234.952 376.071 207.092 378.941 187.606 383.934C162.568 390.35 130.234 409.13 112.309 391.204C85.326 364.221 105.385 340.332 108.188 325.694C110.991 311.056 121.009 277.144 122.319 253.82C124.658 212.193 110.695 178.12 106.631 164.054C101.608 146.671 86.193 132.725 109.561 109.358C109.561 109.358 127.522 85.617 175.149 111.731C187.63 118.574 220.293 123.477 241.68 123.477C261.985 123.477 301.821 118.243 318.724 113.912C335.767 109.545 369.999 87.062 391.734 108.797C415.952 133.015 394.094 163.743 392.537 173.398Z" fill="url(#paint0_linear_1_8246)"/>
<path d="M497.312 250.777C495.468 212.061 474.687 192.758 451.836 183.791C432.897 176.36 381.163 138.315 365.799 121.722C350.435 105.129 328.312 75.016 312.333 39.987C296.355 4.958 249.965 2.5 249.965 2.5C231.23 2.5 207.86 9.875 193.111 24.009C178.362 38.144 164.895 92.775 121.517 131.537C97.213 153.255 52.379 173.344 35.172 185.02C17.965 196.696 1.70999 222.544 3.21599 253.719C4.92199 289.048 23.073 306.276 56.067 320.835C82.064 332.307 115.063 359.551 135.958 380.446C156.853 401.341 175.904 438.213 188.809 463.41C201.714 488.606 235.515 497.21 255.18 497.21C274.845 497.21 303.729 489.221 316.02 464.639C328.311 440.057 357.809 390.893 378.089 369.999C398.369 349.104 454.907 323.293 465.969 315.304C477.032 307.315 499.156 289.493 497.312 250.777ZM404.558 296.763C396.63 302.489 363.839 317.871 345.447 336.672C330.853 351.59 305.898 386.174 297.089 403.792C288.28 421.41 279.235 448.661 253.485 448.661C226.102 448.661 215.166 420.969 205.917 402.911C196.668 384.853 179.769 358.596 164.794 343.62C149.819 328.645 128.089 310.974 110.78 300.727C88.539 287.559 52.396 277.975 52.396 252.625C52.396 214.465 83.472 211.757 95.805 203.388C108.138 195.02 139.201 178.124 156.62 162.558C187.709 134.777 201.928 100.811 209 87.991C217.74 72.148 216.701 51.387 249.747 51.387C249.747 51.387 279.235 47.3 294.447 99.443C298.433 113.107 318.064 139.67 333.186 154.793C347.544 169.151 379.414 193.618 394.428 202.508C409.567 211.471 449.67 219.779 449.67 250.517C449.67 284.765 412.486 291.037 404.558 296.763Z" fill="url(#paint1_linear_1_8246)"/>
<defs>
<linearGradient id="paint0_linear_1_8246" x1="251.458" y1="453.245" x2="249.974" y2="49.0162" gradientUnits="userSpaceOnUse">
<stop stop-color="#1D2C87"/>
<stop offset="0.9995" stop-color="#5CBFD7"/>
</linearGradient>
<linearGradient id="paint1_linear_1_8246" x1="252.839" y1="497.239" x2="247.647" y2="2.52041" gradientUnits="userSpaceOnUse">
<stop stop-color="#1D2C87"/>
<stop offset="0.9995" stop-color="#5CBFD7"/>
</linearGradient>
</defs>
</svg>
