<svg width="500" height="501" viewBox="0 0 500 501" fill="none" xmlns="http://www.w3.org/2000/svg">
<path fill-rule="evenodd" clip-rule="evenodd" d="M58.1 291.2C83.4 291.2 105 307.4 113 330.1L113.5 331.7L143.2 407.5H58.1C26 407.5 0 381.4 0 349.3C0 317.2 26 291.2 58.1 291.2ZM161.2 93.5C176.6 93.5 190.4 102.7 196.5 116.8L320.9 407.5H217.8C202.4 407.5 188.6 398.3 182.5 384.2L58.1 93.5H161.2ZM340.3 93.5C355.7 93.5 369.5 102.7 375.6 116.8L500 407.5H396.9C381.5 407.5 367.7 398.3 361.6 384.2L237.3 93.5H340.3Z" fill="#8E41AD"/>
</svg>
