<svg width="500" height="501" viewBox="0 0 500 501" fill="none" xmlns="http://www.w3.org/2000/svg">
<path d="M314.6 340.8L249.9 287.4L185.2 340.8L249.9 365.4L314.6 340.8Z" fill="#383635"/>
<path d="M250 4C113.9 4 3.5 114.4 3.5 250.5C3.5 386.6 113.9 497 250 497C386.1 497 496.5 386.6 496.5 250.5C496.5 114.4 386.1 4 250 4ZM309.3 405.1L249.9 382.5L190.5 405.1L72.9 307.3L94.2 155.8L246.5 96L228.3 248.7L249.9 266.6L271.5 248.7L253.3 96L405.6 155.8L426.9 307.3L309.3 405.1Z" fill="#383635"/>
<path d="M237.3 277L211.3 255.5L227.4 120.7L108.7 167.3L89.8999 300.7L193.5 386.8L227.4 373.9L153.8 346L237.3 277Z" fill="#383635"/>
<path d="M391.1 167.3L272.4 120.7L288.5 255.5L262.5 277L346 346L272.4 373.9L306.3 386.8L409.8 300.7L391.1 167.3Z" fill="#383635"/>
</svg>
