<svg width="500" height="501" viewBox="0 0 500 501" fill="none" xmlns="http://www.w3.org/2000/svg">
<path d="M44.2002 427.427C28.2002 427.427 15.2002 414.427 15.2002 398.427V326.427C15.2002 310.427 28.2002 297.427 44.2002 297.427C60.2002 297.427 73.2002 310.427 73.2002 326.427V398.427C73.2002 414.427 60.2002 427.427 44.2002 427.427Z" fill="black"/>
<path d="M461.8 435.427C445.8 435.427 432.8 422.427 432.8 406.427V142.927C432.8 132.327 424.2 123.627 413.5 123.627C404.9 123.627 397.2 129.427 394.9 137.727L329.9 371.527C320.3 406.127 289.8 429.227 253.9 429.227C253.7 429.227 253.4 429.227 253.2 429.227C217 428.927 186.6 405.227 177.5 370.227L118 140.727C115.4 130.727 106.4 123.727 95.9998 123.727C83.4998 123.727 73.2998 133.927 73.2998 146.427V162.927C73.2998 178.927 60.2998 191.927 44.2998 191.927C28.2998 191.927 15.2998 178.927 15.2998 162.927V146.427C15.2998 101.827 51.5998 65.6274 96.0998 65.6274C132.9 65.6274 165.1 90.5274 174.3 126.127L234 355.727C237.7 370.027 250.2 371.227 253.9 371.327C254 371.327 254 371.327 254.1 371.327C258 371.327 270.2 370.127 274.1 356.127L339.1 122.327C348.4 89.0274 379 65.7274 413.6 65.7274C456.3 65.7274 491 100.427 491 143.127V406.527C490.9 422.427 477.9 435.427 461.8 435.427Z" fill="black"/>
<path d="M74.2 255.527L54.4 275.327C48.8 280.927 39.6 280.927 34 275.327L14.2 255.527C8.6 249.927 8.6 240.727 14.2 235.127L34 215.327C39.6 209.727 48.8 209.727 54.4 215.327L74.2 235.127C79.8 240.727 79.8 249.927 74.2 255.527Z" fill="#FEBF00"/>
</svg>
