<svg width="500" height="501" viewBox="0 0 500 501" fill="none" xmlns="http://www.w3.org/2000/svg">
<path d="M8.80246 279.04C8.80246 235.403 8.88946 191.765 8.70146 148.129C8.67546 142.144 10.6475 138.479 15.9055 135.461C90.7595 92.4835 165.529 49.3605 240.258 6.16553C245.024 3.41053 249.063 3.26253 253.898 6.04753C310.768 38.8055 367.728 71.4065 424.636 104.1C433.09 108.957 433.167 115.941 424.903 120.947C416.7 125.916 408.253 130.499 400.216 135.717C394.942 139.141 390.488 138.922 385.108 135.805C342.64 111.199 299.976 86.9295 257.563 62.2315C251.028 58.4265 245.941 58.4995 239.422 62.2875C181.053 96.2075 122.545 129.887 63.9605 163.433C58.0365 166.825 55.5085 170.835 55.5305 177.788C55.7535 245.688 55.7645 313.589 55.5745 381.49C55.5555 388.41 57.8385 392.707 63.9595 395.873C72.3015 400.188 80.2555 405.248 88.4255 409.902C97.5765 415.116 103.846 411.446 103.853 400.809C103.895 339.491 103.891 278.174 103.905 216.856C103.908 203.254 109.083 200.296 121.012 207.094C160.551 229.625 200.148 252.057 239.556 274.815C245.722 278.376 250.573 278.311 256.702 274.703C296.404 251.327 336.298 228.278 376.141 205.144C386.827 198.939 392.334 202.169 392.338 214.605C392.361 275.735 392.369 336.864 392.392 397.994C392.397 410.921 398.212 414.277 409.38 407.84C417.527 403.145 425.592 398.296 433.868 393.842C439.119 391.016 441.195 387.126 441.184 381.117C441.054 313.216 441.223 245.315 440.986 177.415C440.96 170.021 443.298 165.501 449.871 162.212C457.423 158.433 464.542 153.788 471.861 149.542C483.449 142.82 488.694 145.765 488.711 159.016C488.771 204.91 488.773 370.806 488.998 407.859C489.038 414.484 486.751 418.547 480.943 421.877C440.976 444.798 401.23 468.105 361.223 490.957C357.772 492.928 352.064 494.218 349.034 492.658C346.453 491.329 345.128 485.442 345.113 481.564C344.889 421.376 344.971 361.186 344.979 300.997C344.979 299.116 345.055 297.229 344.926 295.356C344.326 286.616 337.987 283.001 330.405 287.355C305.781 301.497 281.159 315.647 256.735 330.129C250.769 333.667 245.913 333.477 240.039 330.009C216.398 316.052 192.553 302.437 168.759 288.74C158.941 283.088 152.762 286.671 152.76 298.037C152.748 360.107 152.85 422.177 152.596 484.246C152.58 488.035 150.832 493.357 148.069 495.131C145.643 496.689 140.077 495.277 136.895 493.446C96.6375 470.275 56.6105 446.705 16.3805 423.486C10.7905 420.26 8.58846 416.418 8.62246 409.951C8.85646 366.315 8.78346 279.04 8.80246 279.04Z" fill="url(#paint0_linear_1_8263)"/>
<defs>
<linearGradient id="paint0_linear_1_8263" x1="9.41616" y1="142.251" x2="486.417" y2="417.4" gradientUnits="userSpaceOnUse">
<stop stop-color="#833CFE"/>
<stop offset="1" stop-color="#4444DA"/>
</linearGradient>
</defs>
</svg>
