<svg width="500" height="501" viewBox="0 0 500 501" fill="none" xmlns="http://www.w3.org/2000/svg">
<path d="M389.861 287.23C407.704 287.23 422.169 272.765 422.169 254.922C422.169 237.079 407.704 222.614 389.861 222.614C372.018 222.614 357.553 237.079 357.553 254.922C357.553 272.765 372.018 287.23 389.861 287.23Z" fill="#4A4C56"/>
<path d="M262.647 63.6504H496.21V443.948H262.647V391.446H442.363V116.824H262.647V63.6504Z" fill="#E7BA05"/>
<path d="M109.072 288.353C126.915 288.353 141.38 273.889 141.38 256.045C141.38 238.202 126.915 223.737 109.072 223.737C91.2285 223.737 76.7637 238.202 76.7637 256.045C76.7637 273.889 91.2285 288.353 109.072 288.353Z" fill="#4A4C56"/>
<path d="M236.286 64.7734H2.72266V445.071H236.286V392.569H56.5707V117.947H236.286V64.7734Z" fill="#E7BA05"/>
</svg>
