<svg width="500" height="501" viewBox="0 0 500 501" fill="none" xmlns="http://www.w3.org/2000/svg">
<path d="M217.5 10.2271C237.6 -1.47285 262.4 -1.47285 282.5 10.2271L362.1 56.4272L441.9 102.227C462 113.827 474.5 135.327 474.4 158.527L474.2 250.527L474.4 342.527C474.4 365.727 462 387.227 441.9 398.827L362.1 444.627L282.5 490.827C262.4 502.527 237.6 502.527 217.5 490.827L137.9 444.627L58.0998 398.827C37.9998 387.227 25.5998 365.727 25.6998 342.527L25.8998 250.527L25.6998 158.527C25.6998 135.327 38.0998 113.827 58.1998 102.227L138 56.4272L217.5 10.2271Z" fill="url(#paint0_linear_1_8272)"/>
<path d="M217.5 10.2271C237.6 -1.47285 262.4 -1.47285 282.5 10.2271L362.1 56.4272L441.9 102.227C462 113.827 474.5 135.327 474.4 158.527L474.2 250.527L474.4 342.527C474.4 365.727 462 387.227 441.9 398.827L362.1 444.627L282.5 490.827C262.4 502.527 237.6 502.527 217.5 490.827L137.9 444.627L58.0998 398.827C37.9998 387.227 25.5998 365.727 25.6998 342.527L25.8998 250.527L25.6998 158.527C25.6998 135.327 38.0998 113.827 58.1998 102.227L138 56.4272L217.5 10.2271Z" fill="url(#paint1_radial_1_8272)" fill-opacity="0.2"/>
<path d="M309.3 195.327C309.5 193.127 310.4 191.127 312 189.627C313.6 188.127 315.6 187.227 317.8 187.127H343C344.4 187.127 345.8 186.527 346.8 185.527C347.8 184.527 348.4 183.127 348.4 181.727V153.527C348.4 152.127 347.8 150.727 346.8 149.727C345.8 148.727 344.4 148.127 343 148.127H314.8C313.4 148.127 312 148.727 311 149.727C310 150.727 309.4 152.127 309.4 153.527V178.727C309.3 180.827 308.5 182.827 307.1 184.327C305.7 185.827 303.8 186.927 301.7 187.227H275.7C274.3 187.227 272.9 187.827 271.9 188.827C270.9 189.827 270.3 191.227 270.3 192.627V217.827C270.2 219.927 269.4 221.927 268 223.427C266.6 224.927 264.7 226.027 262.6 226.327H238.8C236.9 226.027 235.1 225.127 233.8 223.827C232.4 222.427 231.6 220.727 231.3 218.727V192.727C231.3 191.327 230.7 189.927 229.7 188.927C228.7 187.927 227.3 187.327 225.9 187.327H199.8C197.9 187.027 196.1 186.127 194.8 184.827C193.4 183.427 192.6 181.727 192.3 179.727V153.727C192.3 152.327 191.7 150.927 190.7 149.927C189.7 148.927 188.3 148.327 186.9 148.327H158.7C157.3 148.327 155.9 148.927 154.9 149.927C153.9 150.927 153.3 152.327 153.3 153.727V181.927C153.3 183.327 153.9 184.727 154.9 185.727C155.9 186.727 157.3 187.327 158.7 187.327H183.8C186.2 187.427 188.4 188.527 190.1 190.327C190.9 191.227 191.5 192.327 191.9 193.527C192.3 194.727 192.4 195.927 192.3 197.227L192.4 197.127V217.927C192.3 220.127 191.4 222.127 190 223.727C188.6 225.227 186.8 226.127 184.8 226.427H158.8C157.4 226.427 156 227.027 155 228.027C154 229.027 153.4 230.427 153.4 231.827V338.227C153.4 339.627 154 341.027 155 342.027C156 343.027 157.4 343.627 158.8 343.627H187C188.4 343.627 189.8 343.027 190.8 342.027C191.8 341.027 192.4 339.627 192.4 338.227V234.427C192.5 232.527 193.3 230.727 194.6 229.227C196.2 227.427 198.5 226.427 200.9 226.227H223C224.2 226.327 225.4 226.627 226.5 227.127C227.6 227.627 228.6 228.427 229.4 229.327C230.2 230.227 230.8 231.327 231.1 232.527C231.5 233.727 231.6 234.927 231.4 236.127L231.5 236.027V259.927C231.5 260.627 231.6 261.327 231.9 262.027C232.2 262.727 232.6 263.327 233.1 263.827C233.6 264.327 234.2 264.727 234.9 265.027C235.6 265.327 236.3 265.427 237 265.427H265.2C265.9 265.427 266.6 265.327 267.3 265.027C268 264.727 268.6 264.327 269.1 263.827C269.6 263.327 270 262.727 270.3 262.027C270.6 261.327 270.7 260.627 270.7 259.927V234.427C270.9 232.527 271.6 230.727 272.9 229.227C274.5 227.427 276.8 226.427 279.2 226.227H301.3C303.7 226.327 305.9 227.427 307.6 229.227C308.4 230.127 309 231.227 309.4 232.427C309.8 233.627 309.9 234.827 309.8 236.127L309.9 236.027V338.127C309.9 339.527 310.5 340.927 311.5 341.927C312.5 342.927 313.9 343.527 315.3 343.527H343.5C344.9 343.527 346.3 342.927 347.3 341.927C348.3 340.927 348.9 339.527 348.9 338.127V231.727C348.9 230.327 348.3 228.927 347.3 227.927C346.3 226.927 344.9 226.327 343.5 226.327H317.5C315.6 226.027 313.8 225.127 312.5 223.827C311.1 222.427 310.3 220.727 310 218.727V195.327H309.3Z" fill="white"/>
<defs>
<linearGradient id="paint0_linear_1_8272" x1="142.771" y1="-59.7506" x2="327.289" y2="474.173" gradientUnits="userSpaceOnUse">
<stop stop-color="#0049FF"/>
<stop offset="0.4219" stop-color="#6300FF"/>
<stop offset="0.8906" stop-color="#F43178"/>
</linearGradient>
<radialGradient id="paint1_radial_1_8272" cx="0" cy="0" r="1" gradientUnits="userSpaceOnUse" gradientTransform="translate(250.001 509.643) rotate(-87.4969) scale(539.344 539.344)">
<stop offset="0.2947" stop-color="#F43178"/>
<stop offset="0.7231" stop-opacity="0"/>
</radialGradient>
</defs>
</svg>
