<svg width="500" height="501" viewBox="0 0 500 501" fill="none" xmlns="http://www.w3.org/2000/svg">
<path d="M299.2 34.3271C255.9 34.3271 245.1 34.3271 201.8 34.3271L5.2998 374.727C26.9998 412.127 32.3998 421.527 53.9998 459.027H447C468.6 421.527 474.1 412.127 495.7 374.727L299.2 34.3271ZM288.1 156.327L203.8 291.427H166.1L288.8 77.0271L460.7 374.727L440.4 409.827L288.1 156.327ZM249.7 275.227L258.8 291.527H239.5L249.7 275.227ZM219.3 64.7271H260.9L113.9 321.827H275.9L298.2 361.427L47.5998 362.127L219.3 64.7271ZM66.1998 419.427L50.4998 392.327L350 391.527L268 245.927L287.6 214.427L416.4 428.727H71.4998L66.1998 419.427Z" fill="url(#paint0_linear_1_8276)"/>
<defs>
<linearGradient id="paint0_linear_1_8276" x1="83.0408" y1="153.135" x2="417.957" y2="488.051" gradientUnits="userSpaceOnUse">
<stop stop-color="#4DC5DA"/>
<stop offset="1" stop-color="#76CBC2"/>
</linearGradient>
</defs>
</svg>
