<svg width="500" height="501" viewBox="0 0 500 501" fill="none" xmlns="http://www.w3.org/2000/svg">
<path d="M40.4407 355.043C59.8995 355.043 75.6739 339.269 75.6739 319.81C75.6739 300.351 59.8995 284.577 40.4407 284.577C20.982 284.577 5.20752 300.351 5.20752 319.81C5.20752 339.269 20.982 355.043 40.4407 355.043Z" fill="#4A90E2"/>
<path d="M460.295 145.116C441.221 145.116 425.062 160.539 425.062 180.349C425.062 208.253 420.647 215.582 389.829 215.582H386.885C369.283 217.054 355.331 231.742 355.331 250.08V250.816C355.331 277.983 350.181 284.577 320.098 284.577C318.626 284.577 317.155 284.577 316.419 285.313C298.817 287.52 284.865 302.208 284.865 319.81C284.865 338.884 300.288 355.044 320.098 355.044C338.436 355.044 353.86 340.356 354.596 322.754V319.81C354.596 294.85 362.661 285.313 389.093 284.577H389.829C408.167 284.577 423.59 269.89 424.326 251.551V249.344C424.326 223.648 432.392 214.111 459.559 214.111C478.633 214.111 494.792 198.687 494.792 178.878C494.792 160.539 479.369 145.116 460.295 145.116ZM253.311 215.582H250.368C219.549 215.582 215.135 208.253 215.135 180.349C215.135 161.275 199.711 145.116 179.901 145.116C160.827 145.116 144.668 160.539 144.668 180.349C144.668 208.253 140.253 214.846 109.435 214.846H106.492C88.8893 216.318 74.9375 231.006 74.9375 249.344C74.9375 268.418 90.3609 284.577 110.171 284.577C128.509 284.577 143.932 269.889 144.668 252.287V250.08C144.668 224.383 152.733 214.846 179.901 214.846C207.069 214.846 215.135 224.383 215.135 249.344C215.135 268.418 230.558 284.577 250.368 284.577C270.178 284.577 285.601 269.154 285.601 249.344C284.865 231.741 270.913 217.054 253.311 215.582Z" fill="#4A90E2"/>
</svg>
