<svg width="500" height="501" viewBox="0 0 500 501" fill="none" xmlns="http://www.w3.org/2000/svg">
<path d="M5 249.261C70.825 216.786 135.18 185.036 199.418 153.345C216.282 103.663 232.994 54.4324 250.274 3.52539C282.703 69.2584 314.411 133.527 346.203 197.969C395.697 214.775 445.093 231.548 495.999 248.833C430.343 281.222 366.181 312.874 301.55 344.758C284.837 393.986 268.052 443.422 250.716 494.485C218.302 428.795 186.589 364.525 154.802 300.105C105.303 283.304 55.9 266.536 5 249.261ZM253.107 46.9144C226.871 124.297 201.292 199.743 175.122 276.93C227.596 251.045 278.066 226.148 329.075 200.986C303.751 149.626 278.846 99.1164 253.107 46.9144ZM452.547 251.669C413.982 238.596 377.147 226.111 340.793 213.788C288.115 239.785 236.236 265.389 182.529 291.894C221.014 304.955 257.373 317.294 294.177 329.785C346.253 304.098 398.465 278.345 452.547 251.669ZM155.532 282.72C167.513 247.372 179.274 212.672 191.036 177.972C190.559 177.588 190.082 177.204 189.606 176.819C143.075 199.759 96.543 222.699 48.456 246.406C84.958 258.785 119.913 270.64 155.532 282.72ZM247.859 451.054C260.252 414.533 272.104 379.604 284.18 344.015C248.829 332.091 214.119 320.382 177.304 307.964C201.236 356.499 224.16 402.992 247.859 451.054Z" fill="black"/>
<path d="M253.107 46.9146C278.846 99.1166 303.751 149.628 329.075 200.987C278.067 226.149 227.597 251.046 175.122 276.931C201.292 199.744 226.871 124.298 253.107 46.9146Z" fill="white"/>
<path d="M452.547 251.67C398.464 278.346 346.253 304.099 294.177 329.785C257.373 317.294 221.014 304.955 182.529 291.894C236.236 265.389 288.115 239.785 340.793 213.788C377.148 226.112 413.982 238.598 452.547 251.67Z" fill="white"/>
<path d="M155.532 282.72C119.913 270.64 84.9581 258.785 48.4551 246.406C96.5421 222.699 143.073 199.759 189.605 176.819C190.082 177.203 190.559 177.587 191.035 177.972C179.274 212.671 167.513 247.371 155.532 282.72Z" fill="white"/>
<path d="M247.859 451.054C224.161 402.992 201.236 356.499 177.304 307.964C214.119 320.382 248.829 332.09 284.18 344.015C272.104 379.604 260.251 414.533 247.859 451.054Z" fill="white"/>
</svg>
