<svg width="500" height="501" viewBox="0 0 500 501" fill="none" xmlns="http://www.w3.org/2000/svg">
<path d="M387.644 120.158H492.729L377.537 250.127L387.644 120.158Z" fill="#3EBAEC"/>
<path d="M366.925 380.096L377.537 250.127L492.729 120.158L366.925 380.096Z" fill="#28B1E9"/>
<path d="M310.831 279.06L387.644 120.158L377.537 250.127L327.002 307.865L310.831 279.06Z" fill="#439FE2"/>
<path d="M327.002 307.865L377.537 250.127L366.925 380.096L327.002 307.865Z" fill="#2A96E0"/>
<path d="M327.002 307.865L312.678 323.448L366.925 380.096L327.002 307.865Z" fill="#2E53BD"/>
<path d="M312.678 323.448L262.383 380.096H366.925L312.678 323.448Z" fill="#1244B9"/>
<path d="M262.383 380.096L297.406 307.865L312.678 323.448L262.383 380.096Z" fill="#2E53BD"/>
<path d="M297.406 307.866L310.831 279.061L327.002 307.866L312.678 323.449L297.406 307.866Z" fill="#4068C6"/>
<path d="M310.831 279.06L223.102 120.158L242.38 250.127L297.406 307.865L310.831 279.06Z" fill="#707FD7"/>
<path d="M242.38 250.127L297.406 307.865L262.383 380.096L242.38 250.127Z" fill="#5876D4"/>
<path d="M242.38 250.127L262.383 380.096L176.833 226.815L190.81 196.451L242.38 250.127Z" fill="#8371D1"/>
<path d="M242.38 250.127L190.81 196.451L223.102 120.158L242.38 250.127Z" fill="#8E81D7"/>
<path d="M223.102 120.158L174.423 179.1L118.514 120.158H223.102Z" fill="#775CB8"/>
<path d="M174.423 179.1L190.81 196.451L223.102 120.158L174.423 179.1Z" fill="#644BB3"/>
<path d="M118.514 120.158L7.51123 380.096L160.446 196.451L118.514 120.158Z" fill="#B44FC4"/>
<path d="M160.446 196.451L174.423 179.1L118.514 120.158L160.446 196.451Z" fill="#7046AC"/>
<path d="M176.833 226.816L160.446 196.452L174.423 179.101L190.81 196.452L176.833 226.816Z" fill="#5933A5"/>
<path d="M7.51123 380.096L160.446 196.451L176.833 226.815L113.213 380.096H7.51123Z" fill="#AA3CBD"/>
</svg>
