<svg width="500" height="501" viewBox="0 0 500 501" fill="none" xmlns="http://www.w3.org/2000/svg">
<path d="M200.477 404.29L199.45 398.311L89.384 417.219L86.039 316.215L129.825 210.669L130.387 211.834L135.851 209.2L90.632 115.385L214.201 68.0471L245.363 130.533L215.178 146.055L218.711 150.335L249.583 135.166L297.725 154.152L299.952 148.509L254.738 130.678L329.923 52.9291L373.899 100.471L376.127 98.4111L378.354 96.3521L301.066 12.7971L298.112 11.9111L199.239 36.2801L198.3 36.6901L84.804 111.196L83.737 115.048L124.79 200.219H40.3L28.709 171.099L23.074 173.342L79.783 315.806L56.404 395.574L62.225 397.28L80.582 334.647L83.439 420.898L86.983 423.787L200.477 404.29ZM201.194 42.0491L297.826 18.2321L325.797 48.4711L250.202 126.645L219.892 65.8671L227.508 62.9501L225.338 57.2851L111.623 100.847L201.194 42.0491ZM125.076 206.285L83.044 307.601L42.714 206.285H125.076Z" fill="#14566C"/>
<path d="M427.678 428.015L376.476 303.342L376.1 316.794L420.126 425.526L224.387 401.948L220.169 397.516L293.749 366.496L291.391 360.908L215.699 392.819L210.516 387.374L206.123 391.556L219.007 405.094L169.655 473.332L174.57 476.886L223.26 409.563L302.21 492.519L306.606 488.337L230.955 408.849L424.503 432.163L427.678 428.015Z" fill="#14566C"/>
<path d="M492.614 320.64L483.835 315.628L426.017 416.898L386.43 380.733L379.61 388.197L417.247 422.581L313.986 453.053L217.049 379.31L213.974 388.464L300.89 455.704L180.09 477.86L210.095 388.673L200.713 387.068L172.483 468.9L142.687 381.45L134.324 389.54L162.71 471.567L71.0241 408.816L128.859 387.313L125.336 377.835L63.9701 400.65L42.834 288.932L122.358 371.018L128.243 362.726L40.466 271.916L88.9181 122.704L120.288 129.31L122.371 119.417L93.5291 113.344L136.57 42.2831L227.319 58.5921L196.76 119.04L207.058 119.163L236.042 63.7271L288.738 123.588L297.151 118.506L246.112 59.8901H375.643L371.127 119.576L380.222 122.251L385.093 68.4191L460.382 167.604L383.164 127.568L380.222 135.05L475.727 187.021L482.561 180.227L431.769 81.5451L429.966 79.5791L383.587 50.4171L300.147 3.97611L296.828 3.41211L133.184 31.7121L130.425 33.1651L16.5871 149.988L15.1561 153.32L9.35205 303.52L9.77805 305.753L55.4911 409.514L57.2611 411.649L169.64 488.563L172.203 489.438L310.203 497.421L313.025 496.752L429.802 429.27L431.662 427.398L492.614 320.64ZM305.536 487.024L214.787 481.774L307.361 464.795L305.536 487.024ZM317.692 462.5L387.985 441.757L315.978 483.367L317.692 462.5ZM81.8781 113.064L48.295 131.934L106.836 71.8581L81.8781 113.064ZM76.7081 127.566L36.9831 249.902L25.633 156.266L76.7081 127.566ZM29.4771 271.992L20.1481 285.987L22.8131 217.014L29.4771 271.992ZM32.055 286.35L46.9421 365.037L20.1461 304.215L32.055 286.35ZM361.65 49.7781H250.305L298.078 14.3961L361.65 49.7781ZM233.733 49.4721L163.155 36.7881L277.572 17.0021L233.733 49.4721ZM447.04 133.305L401.946 73.8981L423.413 87.3991L447.04 133.305Z" fill="#15A9D5"/>
<path d="M378.208 365.912V141.979C382.877 140.002 386.162 135.374 386.162 129.993C386.162 122.82 380.326 116.984 373.153 116.984C367.772 116.984 363.144 120.268 361.167 124.938H309.136C307.159 120.269 302.531 116.984 297.15 116.984C289.977 116.984 284.141 122.82 284.141 129.993C284.141 135.374 287.425 140.002 292.094 141.979V233.867C291.755 234.011 291.426 234.174 291.102 234.345L211.86 138.067C213.625 135.846 214.688 133.043 214.688 129.993C214.688 122.82 208.852 116.984 201.679 116.984C196.298 116.984 191.67 120.268 189.693 124.938H142.569C140.592 120.269 135.964 116.984 130.583 116.984C123.41 116.984 117.574 122.82 117.574 129.993C117.574 135.374 120.859 140.002 125.528 141.979V365.912C120.859 367.889 117.574 372.517 117.574 377.898C117.574 385.071 123.41 390.907 130.583 390.907C135.964 390.907 140.593 387.622 142.569 382.953H194.613C196.59 387.623 201.218 390.907 206.599 390.907C213.772 390.907 219.608 385.071 219.608 377.898C219.608 372.517 216.324 367.889 211.654 365.912V274.254C212.221 274.014 212.759 273.723 213.281 273.408L294.27 370.929C292.984 372.946 292.227 375.333 292.227 377.898C292.227 385.071 298.063 390.907 305.236 390.907C310.617 390.907 315.246 387.622 317.222 382.953H361.165C363.142 387.623 367.77 390.907 373.151 390.907C380.324 390.907 386.16 385.071 386.16 377.898C386.162 372.517 382.878 367.889 378.208 365.912ZM373.153 125.072C375.866 125.072 378.074 127.28 378.074 129.993C378.074 132.706 375.866 134.914 373.153 134.914C370.44 134.914 368.232 132.706 368.232 129.993C368.233 127.28 370.44 125.072 373.153 125.072ZM297.151 125.072C299.864 125.072 302.072 127.28 302.072 129.993C302.072 132.706 299.864 134.914 297.151 134.914C294.438 134.914 292.23 132.706 292.23 129.993C292.23 127.28 294.438 125.072 297.151 125.072ZM297.151 240.933C299.864 240.933 302.072 243.141 302.072 245.854C302.072 248.567 299.864 250.775 297.151 250.775C294.438 250.775 292.23 248.567 292.23 245.854C292.23 243.14 294.438 240.933 297.151 240.933ZM201.681 125.072C204.394 125.072 206.602 127.28 206.602 129.993C206.602 132.706 204.394 134.914 201.681 134.914C198.968 134.914 196.76 132.706 196.76 129.993C196.76 127.28 198.968 125.072 201.681 125.072ZM130.585 125.072C133.298 125.072 135.506 127.28 135.506 129.993C135.506 132.706 133.298 134.914 130.585 134.914C127.872 134.914 125.664 132.706 125.664 129.993C125.664 127.28 127.872 125.072 130.585 125.072ZM130.585 382.819C127.872 382.819 125.664 380.611 125.664 377.898C125.664 375.185 127.872 372.977 130.585 372.977C133.298 372.977 135.506 375.185 135.506 377.898C135.506 380.611 133.298 382.819 130.585 382.819ZM206.601 382.819C203.888 382.819 201.68 380.611 201.68 377.898C201.68 375.185 203.888 372.977 206.601 372.977C209.314 372.977 211.522 375.185 211.522 377.898C211.522 380.611 209.314 382.819 206.601 382.819ZM201.681 262.268C201.681 259.555 203.889 257.347 206.602 257.347C209.315 257.347 211.523 259.555 211.523 262.268C211.523 264.981 209.315 267.189 206.602 267.189C203.889 267.189 201.681 264.981 201.681 262.268ZM305.239 382.819C302.526 382.819 300.318 380.611 300.318 377.898C300.318 375.185 302.526 372.977 305.239 372.977C307.952 372.977 310.16 375.185 310.16 377.898C310.159 380.611 307.952 382.819 305.239 382.819ZM361.168 372.842H317.225C315.248 368.173 310.62 364.889 305.239 364.889C304.342 364.889 303.466 364.98 302.62 365.154L219.346 264.882C219.519 264.037 219.61 263.163 219.61 262.268C219.61 255.095 213.774 249.259 206.601 249.259C199.428 249.259 193.592 255.095 193.592 262.268C193.592 267.649 196.877 272.277 201.546 274.254V365.912C198.432 367.23 195.934 369.728 194.615 372.842H142.57C141.251 369.728 138.754 367.23 135.64 365.912V141.979C138.754 140.66 141.252 138.162 142.571 135.048H189.695C191.672 139.717 196.3 143.002 201.681 143.002C202.053 143.002 202.419 142.977 202.783 142.946L284.626 242.385C284.319 243.491 284.142 244.651 284.142 245.853C284.142 253.026 289.978 258.862 297.151 258.862C304.324 258.862 310.16 253.026 310.16 245.853C310.16 240.472 306.875 235.843 302.206 233.867V141.979C305.321 140.661 307.819 138.162 309.137 135.048H361.168C362.486 138.162 364.985 140.661 368.099 141.979V365.912C364.984 367.23 362.486 369.728 361.168 372.842ZM373.153 382.819C370.44 382.819 368.232 380.611 368.232 377.898C368.232 375.185 370.44 372.977 373.153 372.977C375.866 372.977 378.074 375.185 378.074 377.898C378.074 380.611 375.867 382.819 373.153 382.819Z" fill="#E5E5E5"/>
</svg>
