<svg width="500" height="501" viewBox="0 0 500 501" fill="none" xmlns="http://www.w3.org/2000/svg">
<path d="M303.2 397.727H62.4001C52.6001 397.727 44.6001 389.827 44.6001 379.927C44.6001 370.027 52.5001 362.127 62.4001 362.127H303.2C389.4 362.127 459.5 292.027 459.5 205.827C459.5 119.627 389.4 49.6273 303.2 49.6273H207C197.2 49.6273 189.2 41.7273 189.2 31.8273C189.2 21.9273 197.1 14.0273 207 14.0273H303.2C409 14.0273 495 100.127 495 205.827C495 311.527 409 397.727 303.2 397.727Z" fill="#6F51A0"/>
<path d="M305.5 309.827H170.3C160.5 309.827 152.5 301.927 152.5 292.027C152.5 282.127 160.4 274.227 170.3 274.227H305.4C343.1 274.227 373.8 243.527 373.8 205.827C373.8 168.127 343.1 137.427 305.4 137.427H56.9001C47.1001 137.427 39.1001 129.527 39.1001 119.627C39.1001 109.727 47.0001 101.827 56.9001 101.827H305.5C362.8 101.827 409.5 148.427 409.5 205.827C409.4 263.227 362.8 309.827 305.5 309.827Z" fill="#6F51A0"/>
<path d="M179.1 223.127H126.9C117.1 223.127 109.1 215.227 109.1 205.327C109.1 195.427 117 187.527 126.9 187.527H179.1C188.9 187.527 196.9 195.427 196.9 205.327C196.9 215.227 188.9 223.127 179.1 223.127Z" fill="#6F51A0"/>
<path d="M135.8 482.527H22.3C12.5 482.527 4.5 474.627 4.5 464.727C4.5 454.827 12.4 446.927 22.3 446.927H135.8C145.6 446.927 153.6 454.827 153.6 464.727C153.6 474.627 145.6 482.527 135.8 482.527Z" fill="#6F51A0"/>
</svg>
