<svg width="500" height="501" viewBox="0 0 500 501" fill="none" xmlns="http://www.w3.org/2000/svg">
<g clip-path="url(#clip0_1_8326)">
<path d="M400.7 26.3271L296.3 181.127C289.1 191.627 303 204.427 312.9 195.527L415.6 106.227C418.4 104.027 422.3 105.627 422.3 109.527V388.627C422.3 392.527 417.3 394.127 415.1 391.427L104.3 19.6271C94.3 7.42715 79.9 0.827148 63.8 0.827148H52.7C23.9 0.827148 0 24.6271 0 54.1271V447.027C0 476.427 23.9 500.327 53.3 500.327C71.6 500.327 88.8 490.927 98.8 474.827L203.1 320.027C210.3 309.527 196.4 296.727 186.5 305.627L83.8 394.227C81 396.427 77.1 394.827 77.1 390.927V112.327C77.1 108.427 82.1 106.827 84.3 109.527L395.1 481.327C405.1 493.527 420.1 500.227 435.6 500.227H446.7C476.1 500.227 500 476.327 500 446.927V54.1271C500 24.7271 476.1 0.827148 446.7 0.827148C427.9 0.827148 410.7 10.2271 400.7 26.3271Z" fill="black"/>
</g>
<defs>
<clipPath id="clip0_1_8326">
<rect width="500" height="500" fill="white" transform="translate(0 0.527344)"/>
</clipPath>
</defs>
</svg>
