<svg width="500" height="519" viewBox="0 0 500 519" fill="none" xmlns="http://www.w3.org/2000/svg">
<path d="M122.153 200.061V190.275L20.9388 135.495C14.2986 146.187 10.77 158.519 10.749 171.105V260.079L10.9971 260.216L122.153 200.061Z" fill="#3377B5"/>
<path d="M10.9993 260.218L122.153 320.373V200.063L10.9993 260.218Z" fill="#4F6CB0"/>
<path d="M479.716 136.645L380.626 190.275V200.061L489.251 258.849V171.105C489.251 158.835 485.852 147.026 479.718 136.643" fill="#504CA1"/>
<path d="M122.153 325.153V320.375L10.9968 260.22L10.7488 260.357V347.92C10.7488 361.06 14.6412 373.68 21.6255 384.566L122.349 330.054L122.153 325.153Z" fill="#3B9CC7"/>
<path d="M370.402 183.841V65.7056L261.264 124.772L370.402 183.841Z" fill="#5465AD"/>
<path d="M380.626 189.372V190.272L479.716 136.643C473.148 125.528 463.444 116.065 451.298 109.485L370.401 65.7056V183.841" fill="#513D9A"/>
<path d="M251.329 378.787L359.793 320.085V318.92L251.329 260.218V378.787Z" fill="#214688"/>
<path d="M130.984 335.09V454.068L132.291 454.775L242.213 395.287L130.984 335.09Z" fill="#4395C4"/>
<path d="M122.364 330.421L122.352 330.054L21.6282 384.564C28.1487 394.729 37.3592 403.406 48.6969 409.535L130.994 454.068V335.09L122.364 330.421Z" fill="#54A4CB"/>
<path d="M252.085 119.809L261.258 124.767L370.394 65.6982L287.94 21.0712C276.694 15.0252 264.158 11.7717 251.391 11.5854V120.178L252.085 119.809Z" fill="#7F6FB3"/>
<path d="M242.212 125.149L251.386 120.191V11.5855C239.504 11.3656 227.723 13.791 216.894 18.6862L131.195 65.0687L242.212 125.149Z" fill="#5054A4"/>
<path d="M131.195 65.0684L130.982 65.1798V185.346L242.21 125.149L131.195 65.0684Z" fill="#50479E"/>
<path d="M122.153 190.158L126.864 187.57L130.97 185.339V65.1826L44.0583 112.229C34.6907 118.136 26.7856 126.092 20.939 135.498L122.153 190.275V190.158Z" fill="#5057A6"/>
<path d="M252.085 400.629L251.391 400.255V507.442C264.161 507.253 276.699 503.997 287.948 497.949L369.1 454.031L261.263 395.671L252.085 400.629Z" fill="#2C7AB6"/>
<path d="M242.212 395.284L132.291 454.787L212.045 497.954C224.126 504.444 237.676 507.711 251.388 507.442V400.253" fill="#4FA2CA"/>
<path d="M261.263 395.661L369.1 454.021L370.402 453.315V336.597L261.263 395.661Z" fill="#4D8DC0"/>
<path d="M380.626 331.061L370.404 336.595V453.314L451.298 409.533C463.055 403.171 472.545 394.107 479.103 383.455L380.626 330.151" fill="#4488BE"/>
<path d="M380.626 330.159L479.103 383.463C485.718 372.785 489.231 360.478 489.251 347.918V261.586L380.626 320.375" fill="#6687BE"/>
<path d="M380.626 320.375L489.251 261.586V258.849L380.626 200.058V320.375Z" fill="#415CA8"/>
<path d="M359.79 318.92V201.518L251.326 260.218L359.79 318.92Z" fill="#5D62AC"/>
</svg>
