<svg width="500" height="501" viewBox="0 0 500 501" fill="none" xmlns="http://www.w3.org/2000/svg">
<path d="M93.9 310.327C84.7 299.827 84.7 282.927 93.9 272.427L187 166.427L150 124.127C140.8 113.627 125.9 113.627 116.7 124.127L9.50001 246.127C0.300006 256.627 0.300006 273.527 9.50001 284.027L122.6 412.827C131.8 423.327 146.7 423.327 155.9 412.827L169.9 396.827C170 396.927 93.9 310.327 93.9 310.327Z" fill="#6642FA"/>
<path d="M284.7 470.827L103.9 264.827C94.7 254.327 94.7 237.427 103.9 226.927L275.9 30.9272C285.1 20.4272 300 20.4272 309.2 30.9272L490 236.827C499.2 247.327 499.2 264.227 490 274.727L318.2 470.827C308.9 481.327 293.9 481.327 284.7 470.827Z" fill="#6642FA"/>
</svg>
