<svg width="500" height="501" viewBox="0 0 500 501" fill="none" xmlns="http://www.w3.org/2000/svg">
<path d="M249.5 495.527C385.638 495.527 496 385.166 496 249.027C496 112.889 385.638 2.52734 249.5 2.52734C113.362 2.52734 3 112.889 3 249.027C3 385.166 113.362 495.527 249.5 495.527Z" fill="url(#paint0_linear_1_8356)"/>
<path d="M350.5 85.7275C339.4 85.7275 328.1 90.0275 320.5 97.0275C304.6 107.828 286.4 113.028 265.7 113.028C245.4 113.028 227.7 108.028 211.9 97.7275C204.2 90.3275 192.7 85.7275 181.2 85.7275C157.7 85.7275 138.6 104.828 138.6 128.328C138.6 151.828 157.7 170.928 181.2 170.928C192 170.928 203 166.828 210.5 160.228C226.5 149.328 244.8 143.928 265.6 143.928C287 143.928 305.8 149.628 322 161.028C329.4 167.128 340 170.928 350.3 170.928C373.8 170.928 392.9 151.828 392.9 128.328C392.9 104.828 374.1 85.7275 350.5 85.7275Z" fill="white"/>
<path d="M269.4 200.627C258.3 200.627 247 204.927 239.4 211.927C223.5 222.727 205.3 227.927 184.6 227.927C164.3 227.927 146.6 222.927 130.8 212.627C123.1 205.227 111.6 200.627 100.1 200.627C76.6 200.627 57.5 219.727 57.5 243.227C57.5 266.727 76.6 285.827 100.1 285.827C110.9 285.827 121.9 281.727 129.4 275.127C145.4 264.227 163.7 258.827 184.5 258.827C205.9 258.827 224.7 264.527 240.9 275.927C248.3 282.027 258.9 285.827 269.2 285.827C292.7 285.827 311.8 266.727 311.8 243.227C311.8 219.727 293 200.627 269.4 200.627Z" fill="white"/>
<path d="M349.9 317.527C338.8 317.527 327.5 321.827 319.9 328.827C304 339.627 285.8 344.827 265.1 344.827C244.8 344.827 227.1 339.827 211.3 329.527C203.6 322.127 192.1 317.527 180.6 317.527C157.1 317.527 138 336.627 138 360.127C138 383.627 157.1 402.727 180.6 402.727C191.4 402.727 202.4 398.627 209.9 392.027C225.9 381.127 244.2 375.727 265 375.727C286.4 375.727 305.2 381.427 321.4 392.827C328.8 398.927 339.4 402.727 349.7 402.727C373.2 402.727 392.3 383.627 392.3 360.127C392.3 336.627 373.4 317.527 349.9 317.527Z" fill="white"/>
<defs>
<linearGradient id="paint0_linear_1_8356" x1="35.9891" y1="372.298" x2="463.011" y2="125.757" gradientUnits="userSpaceOnUse">
<stop stop-color="#63034A"/>
<stop offset="1" stop-color="#A3215F"/>
</linearGradient>
</defs>
</svg>
