<svg width="500" height="501" viewBox="0 0 500 501" fill="none" xmlns="http://www.w3.org/2000/svg">
<path d="M421.1 298.127C421.2 294.727 421.7 291.427 422.4 288.127L445 173.527C445.7 172.227 446.3 170.827 447.7 170.827H465C467 170.827 468.3 172.827 467.7 174.127L463 195.527C462.7 196.927 463.5 198.427 465 198.727C465.2 198.827 465.4 198.827 465.7 198.827H495.6C498.3 198.127 499.6 199.527 498.9 201.527L496.2 214.927C495.5 216.227 494.9 217.627 493.5 217.627H461.6C460.2 217.727 459 218.827 458.9 220.327L445.6 286.627C445.1 288.827 444.9 291.027 444.9 293.327C444 301.327 449.8 308.527 457.8 309.427C459 309.527 460.3 309.527 461.5 309.327C466.9 309.327 472.1 307.927 476.8 305.327C477.8 304.427 479.4 304.627 480.2 305.627C480.6 306.127 480.8 306.727 480.8 307.327L484.1 319.427C484.7 320.627 484.1 322.127 482.9 322.727C482.9 322.727 482.8 322.727 482.8 322.827C474.4 327.827 464.7 330.427 454.9 330.227C435 330.327 421.1 318.227 421.1 298.127ZM286.2 316.227C284.9 315.527 284.9 313.527 285.5 312.227L293.5 298.827C294.3 297.427 296 296.827 297.5 297.527C310 305.427 324.6 309.427 339.4 308.927C362 308.927 373.3 301.527 373.3 289.527C373.3 264.027 302.2 282.127 302.2 238.627C302.2 213.127 325.5 196.427 360 196.427C374.9 196.127 389.6 199.827 402.5 207.127C403.7 208.127 403.9 209.827 403.2 211.127L396.6 224.527C396.1 225.927 394.6 226.627 393.2 226.127C393 226.027 392.8 225.927 392.6 225.827C381.8 219.927 369.7 216.927 357.4 217.127C335.5 217.127 324.8 225.127 324.8 236.527C324.8 262.627 395.9 244.527 395.9 287.427C395.9 314.227 372 329.627 336.8 329.627C319 330.027 301.5 325.327 286.2 316.227ZM3.8001 329.627C1.8001 329.627 0.500103 327.627 1.1001 326.327L25.0001 201.027C25.7001 199.727 26.3001 198.327 27.7001 198.327H44.3001C46.3001 198.327 47.6001 200.327 47.0001 201.627L45.7001 207.027C45.7001 209.727 48.4001 211.727 50.4001 210.327C62.1001 201.627 76.4001 197.227 90.9001 197.627C120.1 197.627 137.4 213.027 137.4 240.527C137.2 245.427 136.8 250.427 136.1 255.227L122.1 325.627C121.4 326.927 120.8 328.327 119.4 328.327H102.1C100.1 328.327 98.8001 326.327 99.4001 325.027L113.4 256.027C114.1 252.527 114.5 248.927 114.7 245.327C114.7 228.627 104.7 219.227 84.8001 219.227C59.6001 219.227 42.9001 232.627 37.6001 260.727L24.3001 327.027C23.6001 328.327 23.0001 329.727 21.6001 329.727L3.8001 329.627ZM154.7 272.727C154.7 229.827 185.3 197.027 227.1 197.027C261 197.027 284.2 217.127 284.9 254.027V258.027C284.9 259.327 283.6 260.027 282.2 260.727L181.2 279.527C179.2 279.527 177.9 280.827 178.5 282.827C181.8 298.927 194.4 308.327 217.7 308.327C231.2 308.627 244.4 304.127 254.9 295.627C255.9 294.427 257.7 294.327 258.9 295.427C259.2 295.627 259.4 295.927 259.6 296.327L266.9 308.427C267.7 309.727 267.4 311.427 266.2 312.427C252.1 323.727 234.4 329.727 216.4 329.327C177.9 329.027 154.7 306.827 154.7 272.727ZM178.6 259.327C178.2 260.727 179 262.227 180.4 262.627C180.9 262.827 181.5 262.827 182 262.627L260.4 247.927C261.7 247.227 263.1 245.927 263.1 245.227C260.4 227.127 246.5 217.127 226.6 217.127C201.2 217.127 183.2 233.127 178.6 259.327Z" fill="black"/>
</svg>
