<svg width="500" height="501" viewBox="0 0 500 501" fill="none" xmlns="http://www.w3.org/2000/svg">
<path d="M227.6 350.527C221 350.527 214.3 349.527 207.7 347.427C204.7 346.227 200.5 346.127 195.3 346.827C180.5 349.327 168.6 347.727 159.2 342.127C157.4 341.227 153.5 340.627 148.9 340.627C132.6 341.527 122.5 339.327 115.9 333.627C114.7 333.327 111.6 332.827 107.3 332.827C91 332.827 80.7 329.327 77.3 322.527C76.4 322.127 74.3999 321.427 71.2 320.927C58.4 319.527 51.1 316.827 47.7 312.427C46.5 310.927 45.9 309.227 45.7 307.427C45.1 307.227 44.2 307.027 42.9 306.827C30.9 304.727 24.7999 301.427 22.9 296.227C22.5 295.027 22 293.127 22.6 290.727C15.9 288.927 8.99995 286.027 7.99995 279.927C7.49995 277.127 8.39995 274.427 10.6 271.927C7.19995 270.127 3.19995 267.027 3.19995 262.127C3.19995 257.227 7.19995 254.127 10.6 252.327C8.39995 249.827 7.49995 247.227 7.99995 244.327C8.99995 238.027 16.2 235.127 22.6 233.427C22 231.127 22.4 229.227 22.7999 228.027C24.6999 222.827 30.7999 219.527 42.5999 217.427C44 217.227 45 216.927 45.5999 216.727C45.7999 214.527 46.6 212.527 47.9 210.827C51.4 206.327 58.1 203.827 70.5 202.527C73.7 202.027 75.6 201.327 76.5 200.927C80.6 192.927 91.2999 190.627 106.2 189.927C110.8 189.927 113.7 188.727 114.3 188.327C120.3 182.327 131.9 179.627 148.5 180.527C154 180.527 157.6 179.527 158.3 179.127C167 173.927 178.4 172.327 194.4 174.227C198.1 174.727 202.2 174.527 207 173.627C217.4 169.727 229 169.227 243.5 171.927C247.4 172.627 252.3 172.627 256.4 171.927C268.6 168.827 280.7 169.127 292.9 172.927C295.9 174.127 300.1 174.227 305.3 173.527C320.1 171.027 332 172.627 341.4 178.227C343.2 179.127 347.1 179.727 351.7 179.727C368.9 178.827 379.2 181.227 385.7 187.727C386.1 188.027 389 189.127 393.3 189.127C409.7 189.127 420 192.727 423.4 199.527C424.3 200.027 426.4 200.927 428.6 200.927C441.7 201.827 449.9 205.927 454.1 213.327C454.8 214.727 455 215.027 456.8 215.027C465.9 215.027 474.1 219.127 476.9 224.927C477.8 226.827 478.1 228.827 477.8 230.827C484.9 231.627 490.1 235.227 491.6 240.227C492.4 242.927 492.2 246.627 489.7 249.927C493.3 251.827 497.3 254.927 497.3 259.827C497.3 264.527 493.6 267.527 490.4 269.327C492.2 271.627 493 274.127 492.5 276.727C491.4 283.227 483.8 286.127 477.2 287.827C477.1 287.827 476.9 287.927 476.8 287.927C476.2 298.627 470.3 301.427 457.8 303.627C456.4 303.827 455.5 304.127 454.8 304.327C454.6 306.527 453.8 308.527 452.5 310.227C449 314.727 442.3 317.227 429.9 318.527C426.7 319.027 424.8 319.727 423.9 320.127C419.3 329.127 406.2 330.427 393.9 330.427C389.6 330.427 386.7 331.627 386.1 332.027C380.1 338.027 368.6 340.727 352 339.827C346.5 339.827 342.9 340.827 342.2 341.227C333.5 346.427 322 347.927 306.1 346.127C302.4 345.627 298.4 345.827 293.5 346.727C283.1 350.627 271.5 351.127 257 348.427C253 347.727 248.2 347.727 244.1 348.427C238.6 349.827 233.1 350.527 227.6 350.527ZM201.2 334.627C205.2 334.627 208.7 335.227 211.6 336.327C221.2 339.227 231.2 339.527 241.8 336.827C247.6 335.827 253.8 335.827 259.1 336.727C271.9 339.127 281.3 338.727 289.8 335.427L290.8 335.127C297.2 333.827 302.7 333.527 307.7 334.327C320.6 335.827 330 334.827 336 331.127C340.1 328.327 348.1 327.927 352.4 327.927C371.1 328.927 376.8 324.727 378.1 323.327C381.1 320.327 387.3 318.427 394.1 318.427C410.2 318.427 413.3 315.427 413.8 314.127C415.8 310.227 420.7 307.827 428.6 306.727C441.4 305.327 443.3 302.927 443.4 302.827C443.2 299.127 444.9 293.627 456 291.827C463.3 290.527 464.8 289.527 465.1 289.227C465.1 289.127 465.2 288.527 465.2 286.627C465.2 280.427 468.3 278.227 473.9 276.327C476.2 275.727 477.9 275.127 479 274.627C476.4 272.627 475.1 269.727 475.6 266.727C476.2 263.427 478.7 260.927 482.4 259.827C482.7 259.727 482.9 259.627 483.1 259.527C482.8 259.427 482.4 259.227 482 259.027C476.6 256.827 475.4 253.227 475.2 251.227C474.9 248.127 476.5 245.127 479.4 243.127C479.5 243.127 479.5 243.027 479.6 243.027C478.9 242.627 477.6 242.227 475.6 242.227C470.6 242.227 466.6 239.927 465 236.127C464 233.727 464.2 231.127 465.5 229.027C464.2 228.027 461.1 226.527 456.7 226.527C450.6 226.527 446.2 223.827 443.6 218.527C442.4 216.427 439.3 213.127 428 212.327C422.7 212.327 415.2 209.627 413 205.127L412.7 204.327C412.1 203.427 407.2 200.527 393.1 200.527C386.4 200.527 380.1 198.627 377.2 195.627C373.3 191.727 365.5 190.327 351.8 191.027H351.7C346.8 191.027 340.4 190.527 335.5 188.027C328.2 183.627 319 182.627 306.9 184.627C299.4 185.727 293.4 185.327 288.8 183.527C279.2 180.627 269.2 180.327 258.6 183.027C252.8 184.027 246.6 184.027 241.3 183.127C228.7 180.727 219 181.127 210.6 184.427L209.6 184.727C203.2 186.027 197.7 186.227 192.7 185.527C179.7 184.027 170.4 185.027 164.4 188.627C160.3 191.427 152.4 191.827 148 191.827C129.3 190.827 123.6 195.027 122.3 196.427C119.4 199.427 113.1 201.327 106.4 201.327C91.6 202.127 87.5 204.527 86.7 206.427C84.7999 210.327 79.8 212.727 71.9 213.827C59.1 215.227 57.1999 217.627 57.0999 217.727C57.2999 221.327 55.6 226.927 44.5 228.727C39.2 229.627 36.4 230.727 34.9 231.427C35.8 233.027 36.1 234.927 35.7 236.727C34.7 241.027 30.3 242.927 26.6 244.227C24.3 244.827 22.6 245.427 21.5 245.927C23.9 247.727 25.1 250.327 24.9 253.027C24.6999 256.327 22.4 259.327 18.7 261.127C18.2 261.327 17.7 261.527 17.3 261.727C17.6 261.827 18 262.027 18.3 262.227C22.4 264.227 24.6 267.227 24.9 270.527C25.1 273.327 23.7999 275.927 21.4 277.727C22.5 278.127 24 278.727 26.2 279.327C32.7 280.327 34.7999 284.027 35.5 286.127C36.2 288.227 35.9 290.327 34.9 292.227C36.4 292.927 39.1999 294.027 44.5999 294.927C54.9999 296.427 57.2999 301.427 57.2999 305.327C58.3999 306.027 62 307.827 72.5 309.027C80.6 310.227 85.5 312.627 87.3 316.227L87.6 317.027C88.2 317.927 93.1 320.827 107.1 320.827C111.7 320.827 118.3 321.427 121.5 323.027L123 324.127C126.9 328.027 134.7 329.427 148.4 328.727H148.5C153.4 328.727 159.8 329.227 164.7 331.727C172 336.127 181.2 337.127 193.3 335.127C196.3 334.827 198.9 334.627 201.2 334.627ZM25 237.927C25.1 238.127 25.2999 238.227 25.4 238.427C25.1999 238.227 25.1 238.127 25 237.927Z" fill="black"/>
<path d="M233.8 85.8272C242.4 82.7272 250.3 74.0272 249.5 62.2272C248.7 50.4272 236.9 46.5272 222 52.0272C192.2 62.2272 184.3 96.0272 179.6 129.827C178 139.227 177.2 149.427 176.5 158.127C167.9 228.027 161.6 310.527 163.9 373.327C164.7 385.927 168.6 400.027 158.4 413.427C141.1 415.027 145.8 404.827 130.1 410.327C105.8 418.927 111.2 451.927 129.3 450.427C134.8 450.427 139.5 448.827 145.8 444.927C176.4 429.227 180.4 388.327 185.9 347.527C195.3 271.327 200 196.727 199.3 125.227V124.427C199.3 111.027 196.9 89.1272 205.6 84.3272C214.1 80.3272 220.4 91.3272 233.8 85.8272Z" fill="black"/>
<path d="M348.8 53.8272C319 64.0272 311.1 97.8272 306.4 131.627C304.8 141.027 304 151.227 303.3 159.927C294.7 229.827 288.4 312.327 290.7 375.127C291.5 387.727 295.4 401.827 285.2 415.227C267.9 417.627 272.6 406.627 256.9 412.127C232.6 420.727 238 453.727 256.1 452.227C261.6 452.227 266.3 450.627 272.6 446.727C303.2 431.027 307.2 390.127 312.7 349.327C322.1 273.127 326.8 198.527 326.1 127.027V126.227C326.1 112.827 323.7 90.9272 332.4 86.1272C341 81.4272 347.3 92.4272 360.7 86.9272C369.3 83.8272 377.2 75.1272 376.4 63.3272C375.5 52.2272 363.7 48.3272 348.8 53.8272Z" fill="black"/>
</svg>
