<svg width="500" height="501" viewBox="0 0 500 501" fill="none" xmlns="http://www.w3.org/2000/svg">
<path d="M250.5 496.627C386.252 496.627 496.3 386.579 496.3 250.827C496.3 115.076 386.252 5.02734 250.5 5.02734C114.749 5.02734 4.7002 115.076 4.7002 250.827C4.7002 386.579 114.749 496.627 250.5 496.627Z" fill="#0B69FF"/>
<path d="M320.3 199.327H235.3C229.1 199.327 224.3 193.727 225.4 187.627L231.2 153.227C233.1 142.127 242.7 134.027 253.9 134.027H333.2C340 134.027 345.2 140.027 344.3 146.727L339.3 182.727C338.1 192.227 330 199.327 320.3 199.327Z" fill="#0048D8"/>
<path d="M319.7 380.627H211C204.8 380.627 200 375.027 201.1 368.927L206.9 334.527C208.8 323.427 218.4 315.327 229.6 315.327H332.7C339.5 315.327 344.7 321.327 343.8 328.027L338.8 364.027C337.5 373.527 329.4 380.627 319.7 380.627Z" fill="#0048D8"/>
<path d="M278.7 290.627H133.3C127.1 290.627 122.3 285.027 123.4 278.927L129.2 244.527C131.1 233.427 140.7 225.327 151.9 225.327H291.6C298.4 225.327 303.6 231.327 302.7 238.027L297.7 274.027C296.5 283.527 288.4 290.627 278.7 290.627Z" fill="#0048D8"/>
<path d="M306.7 185.028H221.7C215.5 185.028 210.7 179.428 211.8 173.328L217.6 138.928C219.5 127.828 229.1 119.728 240.3 119.728H319.6C326.4 119.728 331.6 125.728 330.7 132.428L325.7 168.428C324.5 177.928 316.3 185.028 306.7 185.028Z" fill="white"/>
<path d="M306.1 366.427H197.3C191.1 366.427 186.3 360.827 187.4 354.727L193.2 320.327C195.1 309.227 204.7 301.127 215.9 301.127H319C325.8 301.127 331 307.127 330.1 313.827L325.1 349.827C323.9 359.327 315.7 366.427 306.1 366.427Z" fill="white"/>
<path d="M265.1 276.327H119.7C113.5 276.327 108.7 270.727 109.8 264.627L115.6 230.227C117.5 219.127 127.1 211.027 138.3 211.027H278C284.8 211.027 290 217.027 289.1 223.727L284.1 259.727C282.9 269.227 274.7 276.327 265.1 276.327Z" fill="white"/>
</svg>
