<svg width="500" height="501" viewBox="0 0 500 501" fill="none" xmlns="http://www.w3.org/2000/svg">
<path d="M1.7002 111.127V384.027C1.7002 385.627 2.1002 387.227 3.0002 388.727C3.8002 390.127 5.0002 391.327 6.5002 392.127L126.2 459.027V180.527L1.7002 111.127Z" fill="#60BEFF"/>
<path d="M374.7 41.5273L494.4 108.427C495.9 109.227 497.1 110.427 497.9 111.827C498.7 113.227 499.2 114.827 499.2 116.527V389.427L374.7 319.827V41.5273Z" fill="#1A4199"/>
<path d="M125.9 458.928L250.4 389.328L125.9 319.728V458.928Z" fill="#3CA9E5"/>
<path d="M130.7 44.2273L374.6 180.627V319.727L1.7002 111.127L121.4 44.2273C122.8 43.4273 124.4 43.0273 126.1 43.0273C127.7 43.0273 129.3 43.4273 130.7 44.2273Z" fill="#3CA9E5"/>
<path d="M374.7 41.5273L250.4 111.127L374.7 180.727V41.5273Z" fill="#2853C3"/>
<path d="M499.1 389.427L379.4 456.327C377.9 457.127 376.3 457.527 374.6 457.527C372.9 457.527 371.3 457.127 369.8 456.327L125.9 319.827V180.527L499.1 389.427Z" fill="#2853C3"/>
</svg>
