<svg width="500" height="501" viewBox="0 0 500 501" fill="none" xmlns="http://www.w3.org/2000/svg">
<g clip-path="url(#clip0_1_8382)">
<path d="M421.5 150.227L250.8 51.1274C250.3 50.8274 249.8 50.8274 249.3 51.1274L78.4 150.227C78 150.427 77.8 150.827 77.8 151.227C77.7 233.827 77.7 316.327 77.8 398.827C78.1 399.027 78.2 399.427 78 399.927C78 400.027 77.9 400.127 77.9 400.127C77.8 400.227 77.8 400.227 77.7 400.327C77.6 400.327 77.5 400.427 77.4 400.327C77.3 400.327 77.2 400.327 77.1 400.227L35 375.827C34.7 375.627 34.5 375.427 34.3 375.127C34.1 374.827 34 374.527 34 374.227L34.1 126.327C34.1 125.627 34.4 125.127 35 124.827L249.3 0.727441C249.8 0.427441 250.3 0.427441 250.8 0.727441L465.4 125.127C465.5 125.227 465.6 125.327 465.7 125.427C465.8 125.527 465.8 125.727 465.8 125.827V374.627C465.8 375.127 465.6 375.527 465.1 375.827L250.4 500.427C250.3 500.527 250.2 500.527 250.1 500.527C250 500.527 249.9 500.527 249.8 500.427L129.5 430.627C129.1 430.327 128.8 430.027 128.8 429.527V156.627C128.8 156.427 128.9 156.227 129 156.127C129.1 156.027 129.3 155.927 129.5 155.927H162C162.4 155.927 162.8 156.027 163.2 156.227C163.6 156.427 163.9 156.727 164.1 157.027L240.9 267.527C241.4 268.227 241.6 268.127 241.6 267.327V156.627C241.6 156.127 241.8 155.927 242.3 155.927C265.5 155.827 288.5 155.827 311.5 155.927C327.8 156.027 342.8 156.727 356 165.127C377 178.527 386.8 197.227 385.5 221.527C384 249.427 365.8 272.027 338.5 278.627C330 280.727 319.5 281.227 307 280.127C306.6 280.127 306.4 279.827 306.4 279.427V242.127C306.4 241.627 306.7 241.327 307.2 241.327C313.8 241.627 319.5 241.427 324.3 240.927C352.7 237.727 351.5 195.827 320.6 195.327C308.2 195.127 295.8 195.027 283.3 195.227C282.7 195.227 282.4 195.527 282.4 196.127L282.3 348.527C282.3 349.027 282 349.227 281.5 349.227H249C248.5 349.227 248.1 349.027 247.8 348.627L170.4 237.927C170.3 237.827 170.2 237.727 170.1 237.727C170 237.727 169.9 237.727 169.8 237.727C169.7 237.727 169.6 237.827 169.5 237.927C169.4 238.027 169.4 238.127 169.4 238.227L169.5 402.527C169.5 403.027 169.7 403.427 170.1 403.627L249.3 449.627C249.5 449.727 249.8 449.827 250 449.827C250.2 449.827 250.5 449.727 250.7 449.627L421.3 350.627C421.5 350.527 421.7 350.227 421.9 350.027C422 349.827 422.1 349.527 422.1 349.227V151.427C422.2 150.827 422 150.427 421.5 150.227Z" fill="url(#paint0_linear_1_8382)"/>
</g>
<defs>
<linearGradient id="paint0_linear_1_8382" x1="297.441" y1="29.0548" x2="199.752" y2="485.767" gradientUnits="userSpaceOnUse">
<stop stop-color="#72BFFF"/>
<stop offset="1" stop-color="#1A7CCD"/>
</linearGradient>
<clipPath id="clip0_1_8382">
<rect width="500" height="500" fill="white" transform="translate(0 0.527344)"/>
</clipPath>
</defs>
</svg>
