<svg width="500" height="501" viewBox="0 0 500 501" fill="none" xmlns="http://www.w3.org/2000/svg">
<g clip-path="url(#clip0_1_8384)">
<path d="M500 250.527C500 388.627 388.1 500.527 250 500.527C111.9 500.527 0 388.627 0 250.527C0 112.427 111.9 0.527344 250 0.527344C388.1 0.527344 500 112.427 500 250.527Z" fill="#F8931F"/>
<path d="M368.3 219.127L360.3 192.127L322.4 201.227L304.3 140.427L259.3 151.327L293.6 266.427L292.9 266.827L187.3 168.627L141.9 179.527L160 240.327L121.8 249.527L129.8 276.527L168 267.327L173.3 285.127L135.1 294.327L143.1 321.327L181.3 312.127L195.7 360.527L241 349.627L206.8 234.527L207.5 234.127L313.1 332.327L358.1 321.427L343.7 273.027L381.6 263.927L373.6 236.927L335.7 246.027L330.4 228.227L368.3 219.127Z" fill="white"/>
</g>
<defs>
<clipPath id="clip0_1_8384">
<rect width="500" height="500" fill="white" transform="translate(0 0.527344)"/>
</clipPath>
</defs>
</svg>
