<svg width="500" height="501" viewBox="0 0 500 501" fill="none" xmlns="http://www.w3.org/2000/svg">
<g clip-path="url(#clip0_1_8387)">
<path d="M250 10.2273C299.5 10.2273 347.2 28.8273 381.6 63.2273C416.9 97.7273 436.4 142.727 436.4 191.327V490.827H63.6004V191.327C63.6004 142.727 83.0004 97.7273 118.4 63.2273C152.8 28.8273 199.6 10.2273 250 10.2273ZM250 0.527344C197.9 0.527344 148.4 19.9273 111.3 56.2273C74.2004 92.5273 53.9004 140.127 53.9004 191.427V500.527H446.1V191.327C446.1 140.127 425.8 92.4273 388.7 57.0273C351.6 19.9273 302.1 0.527344 250 0.527344Z" fill="#070001"/>
<path d="M365.4 81.0271L356.6 72.2271C327.4 46.6271 290.3 33.3271 250.6 33.3271C207.3 33.3271 165.8 50.1271 135.8 81.0271C104.8 111.927 88 152.627 88 195.927V466.227H413.1V196.727C413.1 152.627 395.4 111.927 365.4 81.0271ZM315.1 449.427C300.1 454.727 283.3 457.427 266.5 457.427H149V403.527C146.3 400.827 143.7 397.327 141.9 394.727C121.6 368.227 111 335.527 111 301.927V200.327C111 160.527 126 123.427 152.5 94.3272C156 94.3272 160.5 94.3271 164.9 95.2271C192.3 97.9271 229.4 107.627 261.2 129.727C289.5 149.127 323.9 184.527 323.9 241.927V446.827C321.2 447.627 318.6 448.527 315.1 449.427Z" fill="#070001"/>
<path d="M262 129.628C230.2 108.428 193.1 97.8275 165.7 95.1275C161.3 95.1275 156.9 94.2275 153.3 94.2275C126.8 123.428 111.8 160.528 111.8 200.228V301.828C111.8 335.428 122.4 368.128 142.7 394.628C145.4 397.328 147.1 400.828 149.8 403.428V457.328H267.3C284.1 457.328 300 454.628 315.9 449.328C319.4 448.428 322.1 447.528 325.6 445.828V240.928C324.8 183.528 290.3 149.028 262 129.628ZM158.7 447.628V413.128C174.6 428.128 193.2 440.528 213.5 447.628H158.7ZM315.1 439.728C300.1 445.028 283.3 447.728 266.5 447.728C227.6 447.728 191.4 432.728 163.1 404.428L157.8 399.128C154.3 395.628 150.7 391.128 148.1 386.728C129.5 362.028 119.8 331.928 119.8 301.028V200.328C119.8 165.028 133.1 130.528 156 104.028C217.8 106.728 314.1 149.128 314.1 240.928V439.728C314.2 439.728 315.1 439.728 315.1 439.728Z" fill="#070001"/>
<path d="M212.9 329.527C210.2 329.527 207.6 326.827 207.6 324.227V234.127C207.6 210.227 227 190.827 250.9 190.827C274.8 190.827 294.2 210.227 294.2 234.127C294.2 236.827 291.5 239.427 288.9 239.427C286.3 239.427 283.6 236.727 283.6 234.127C283.6 216.427 268.6 201.427 250.9 201.427C233.2 201.427 218.2 216.427 218.2 234.127V324.227C218.2 326.827 215.5 329.527 212.9 329.527Z" fill="#070001"/>
<path d="M266.8 259.727C264.1 259.727 261.5 257.027 261.5 254.427C261.5 248.227 257.1 243.827 250.9 243.827C244.7 243.827 240.3 248.227 240.3 254.427C240.3 257.127 237.6 259.727 235 259.727C232.4 259.727 229.7 257.027 229.7 254.427C229.7 242.027 239.4 232.327 251.8 232.327C264.2 232.327 273.9 242.027 273.9 254.427C272.1 257.027 269.4 259.727 266.8 259.727Z" fill="#070001"/>
<path d="M212.9 329.527C197 329.527 183.7 316.227 183.7 300.327C183.7 297.627 186.4 295.027 189 295.027C191.6 295.027 194.3 297.727 194.3 300.327C194.3 310.027 202.3 318.027 212 318.027C221.7 318.027 229.7 310.027 229.7 300.327C229.7 297.627 232.4 295.027 235 295.027C237.6 295.027 240.3 297.727 240.3 300.327C241.1 316.227 228.8 329.527 212.9 329.527Z" fill="#070001"/>
<path d="M182 268.527C180.2 268.527 179.3 267.627 178.5 266.727L154.6 242.827V263.127C154.6 265.827 151.9 268.427 149.3 268.427C146.7 268.427 143.1 265.727 143.1 262.227V229.527C143.1 226.827 144.9 225.127 146.6 224.227C149.3 223.327 151 223.327 152.8 225.127L176.7 249.027V234.927C176.7 232.227 179.4 229.627 182 229.627C184.6 229.627 187.3 232.327 187.3 234.927V262.327C187.3 265.027 185.5 266.727 183.8 267.627C183.7 268.527 182.8 268.527 182 268.527Z" fill="#070001"/>
<path d="M212 240.327C209.3 240.327 206.7 237.627 206.7 235.027C206.7 234.127 206.7 212.027 191.7 212.027C189 212.027 186.4 209.327 186.4 206.727C186.4 204.027 189.1 201.427 191.7 201.427C212 201.427 217.3 223.527 217.3 235.027C217.3 237.627 214.6 240.327 212 240.327Z" fill="#070001"/>
</g>
<defs>
<clipPath id="clip0_1_8387">
<rect width="500" height="500" fill="white" transform="translate(0 0.527344)"/>
</clipPath>
</defs>
</svg>
