<svg width="500" height="501" viewBox="0 0 500 501" fill="none" xmlns="http://www.w3.org/2000/svg">
<path d="M250 497.427C386.359 497.427 496.9 386.887 496.9 250.527C496.9 114.168 386.359 3.62744 250 3.62744C113.641 3.62744 3.09961 114.168 3.09961 250.527C3.09961 386.887 113.641 497.427 250 497.427Z" fill="#EC2032"/>
<path d="M215.6 413.628C217 372.428 218.4 333.228 219.8 293.328C211.4 293.328 204 293.328 195.5 293.328C199.2 257.428 202.7 222.128 206.4 186.328C240.5 181.328 308.9 171.228 308.9 171.228L276.4 265.928C276.4 265.928 301.8 264.628 314.2 264.028C311.8 271.128 227 399.728 215.6 413.628Z" fill="white"/>
<path d="M245.3 142.627C250 125.527 243.6 109.427 228.2 101.127C228.6 99.2271 230.9 90.9271 232 87.8271C243 91.7271 250.7 98.8271 255.9 108.927C261 119.027 262.1 129.927 261.5 140.827C276.6 148.827 305.9 164.827 305.9 164.827L206.9 178.427C206.9 178.427 233 153.727 245.3 142.627Z" fill="white"/>
</svg>
