<svg width="500" height="501" viewBox="0 0 500 501" fill="none" xmlns="http://www.w3.org/2000/svg">
<g clip-path="url(#clip0_1_8402)">
<path d="M108.7 321.327L71.2998 383.027H140.5C125.3 365.627 114.3 344.527 108.7 321.327Z" fill="#66D5BB"/>
<path d="M359.4 383.027H428.6L391.2 321.327C385.6 344.527 374.6 365.627 359.4 383.027Z" fill="#66D5BB"/>
<path d="M249.9 142.027C262 142.027 273.7 143.527 285 146.327L249.9 88.5273L214.8 146.327C226.1 143.527 237.8 142.027 249.9 142.027Z" fill="#66D5BB"/>
<path d="M104.8 289.327C104.8 288.727 104.8 288.027 104.8 287.427C104.8 230.527 137.4 181.327 184.8 157.427L227.7 86.6274C126.9 97.8274 48.2998 183.427 48.2998 287.527C48.2998 313.127 53.0998 337.727 61.7998 360.227L104.8 289.327Z" fill="#08192E"/>
<path d="M315.1 157.527C362.5 181.427 395.1 230.627 395.1 287.527C395.1 288.127 395.1 288.827 395.1 289.427L438.1 360.327C446.8 337.827 451.6 313.227 451.6 287.627C451.6 183.527 373 97.9271 272.1 86.8271L315.1 157.527Z" fill="#08192E"/>
<path d="M341.4 400.527C316.4 420.827 284.6 433.027 249.9 433.027C215.2 433.027 183.4 420.827 158.4 400.527H82.7002C118.9 454.227 180.3 489.527 249.9 489.527C319.5 489.527 380.9 454.227 417.1 400.527H341.4Z" fill="#08192E"/>
<path d="M227.8 86.7275L250 50.1275L272.2 86.7275C281.2 87.7275 290.1 89.3275 298.7 91.5275L250 11.2275L201.2 91.5275C209.9 89.3275 218.7 87.7275 227.8 86.7275Z" fill="#66D5BB"/>
<path d="M399.3 423.227H500L446.1 334.427C444 343.227 441.3 351.927 438.1 360.227L462.5 400.427H417.2C411.8 408.527 405.8 416.027 399.3 423.227Z" fill="#66D5BB"/>
<path d="M82.7004 400.527H37.4004L61.8004 360.327C58.6004 352.027 55.9004 343.327 53.8004 334.527L-0.0996094 423.327H100.6C94.1004 416.027 88.1004 408.527 82.7004 400.527Z" fill="#66D5BB"/>
</g>
<defs>
<clipPath id="clip0_1_8402">
<rect width="500" height="500" fill="white" transform="translate(0 0.527344)"/>
</clipPath>
</defs>
</svg>
