<svg width="500" height="501" viewBox="0 0 500 501" fill="none" xmlns="http://www.w3.org/2000/svg">
<path d="M251 496.527C387.193 496.527 497.6 386.121 497.6 249.927C497.6 113.734 387.193 3.32715 251 3.32715C114.806 3.32715 4.3999 113.734 4.3999 249.927C4.3999 386.121 114.806 496.527 251 496.527Z" fill="url(#paint0_linear_1_8412)"/>
<path d="M130.5 172.927C182.1 123.527 257.4 138.427 293.3 195.427C246 240.627 165.9 235.427 130.5 172.927Z" fill="white"/>
<path d="M199.1 257.927C249.8 318.627 230.2 389.627 177.1 421.027C135.1 382.027 131 304.227 199.1 257.927Z" fill="white"/>
<path d="M243.1 311.527C246 241.327 310 194.227 374 212.927C373.8 281.827 309 328.027 243.1 311.527Z" fill="white"/>
<path d="M273.6 69.0273C317.3 83.6273 338.2 136.027 310.8 178.327C262.7 160.627 247.9 105.927 273.6 69.0273Z" fill="white"/>
<path d="M181.8 241.027C162 291.627 106.7 303.127 72.7002 277.927C88.7002 233.227 139.3 215.227 181.8 241.027Z" fill="white"/>
<path d="M242.6 336.627C288.8 314.927 338.9 343.427 346 386.827C311.7 405.627 258.4 392.127 242.6 336.627Z" fill="white"/>
<path d="M183.3 79.3273C222.1 72.6273 247.8 105.827 244.9 134.327C215 141.227 181.2 117.427 183.3 79.3273Z" fill="white"/>
<path d="M83.6002 369.127C78.7002 355.427 83.1002 343.027 89.7002 331.327C98.6002 315.527 120.1 305.027 137.4 307.127C145.3 337.727 123 363.927 83.6002 369.127Z" fill="white"/>
<path d="M402.7 316.627C380.2 344.727 342.8 346.427 320.6 320.727C340.6 292.427 382 290.227 402.7 316.627Z" fill="white"/>
<defs>
<linearGradient id="paint0_linear_1_8412" x1="250.972" y1="496.505" x2="250.972" y2="3.25115" gradientUnits="userSpaceOnUse">
<stop stop-color="#25346E"/>
<stop offset="1" stop-color="#6073B4"/>
</linearGradient>
</defs>
</svg>
