<svg width="500" height="501" viewBox="0 0 500 501" fill="none" xmlns="http://www.w3.org/2000/svg">
<g clip-path="url(#clip0_1_8423)">
<path fill-rule="evenodd" clip-rule="evenodd" d="M250 500.527C111.9 500.527 0 388.627 0 250.527C0 112.427 111.9 0.527344 250 0.527344C316.3 0.527344 379.9 26.8273 426.8 73.7273L382.6 117.927C309.5 44.5273 190.7 44.3273 117.3 117.527C43.9 190.727 43.7 309.527 116.8 382.827C189.9 456.127 308.7 456.427 382.1 383.227C409.7 355.727 428.1 320.227 434.6 281.727H250V219.227H497.8C515.9 355.327 420.2 480.227 284.2 498.327C272.8 499.827 261.4 500.527 250 500.527Z" fill="#111444"/>
</g>
<defs>
<clipPath id="clip0_1_8423">
<rect width="500" height="500" fill="white" transform="translate(0 0.527344)"/>
</clipPath>
</defs>
</svg>
