<svg width="500" height="501" viewBox="0 0 500 501" fill="none" xmlns="http://www.w3.org/2000/svg">
<path d="M496.5 497.027C332.2 497.027 167.9 497.027 3.6001 497.027C3.6001 332.727 3.6001 168.427 3.6001 4.12744C167.9 4.12744 332.2 4.12744 496.5 4.12744C496.5 168.327 496.5 332.727 496.5 497.027ZM464 250.427C464 224.127 463.9 197.827 464.1 171.627C464.2 162.827 461.2 156.527 453.9 151.327C414 122.427 374.3 93.2274 334.5 64.2274C310 46.2274 285.4 28.3274 260.9 10.3274C256.3 6.92744 251.3 5.42744 245.9 6.72744C242.6 7.52744 239.5 9.32744 236.7 11.3274C201.5 36.9274 166.4 62.6274 131.2 88.3274C102.2 109.527 73.3001 130.827 44.2001 151.927C38.2001 156.227 35.0001 161.627 34.8001 168.927C34.8001 170.327 34.8001 171.827 34.8001 173.227C34.8001 224.727 34.8001 276.327 34.8001 327.827C34.8001 329.627 34.8001 331.527 34.9001 333.327C35.3001 339.627 38.1001 344.527 43.3001 348.327C108 395.527 172.7 442.727 237.2 490.127C245 495.827 254.9 495.227 262.1 489.927C325.6 443.227 389.2 396.727 453 350.427C460.8 344.827 464.2 338.227 464.1 328.627C463.8 302.627 464 276.527 464 250.427Z" fill="white"/>
<path d="M464 250.427C464 276.527 463.8 302.627 464.1 328.627C464.2 338.127 460.8 344.727 453 350.427C389.2 396.727 325.6 443.227 262.1 489.927C254.9 495.227 244.9 495.827 237.2 490.127C172.7 442.827 108 395.627 43.2998 348.427C38.0998 344.627 35.2998 339.727 34.8998 333.427C34.7998 331.627 34.7998 329.727 34.7998 327.927C34.7998 276.427 34.7998 224.827 34.7998 173.327C34.7998 171.927 34.7998 170.427 34.7998 169.027C34.9998 161.727 38.1998 156.327 44.1998 152.027C73.2998 130.927 102.2 109.627 131.2 88.4274C166.3 62.7274 201.5 37.0274 236.7 11.4274C239.5 9.42741 242.6 7.52741 245.9 6.82741C251.3 5.52741 256.3 7.02741 260.9 10.4274C285.4 28.4274 309.9 46.3274 334.5 64.2274C374.3 93.3274 414 122.527 453.9 151.327C461.1 156.527 464.2 162.927 464.1 171.627C463.8 197.927 464 224.127 464 250.427ZM272.6 90.8274C272.6 110.127 272.6 128.727 272.6 147.327C276 147.327 278.9 147.327 282.5 147.327C282.5 135.127 282.5 123.427 282.5 111.727C284.5 113.027 285.6 114.427 286.5 115.927C291.8 124.227 297.1 132.527 302.4 140.827C303.6 142.627 304.6 144.927 307.4 143.727C309 134.527 308.7 132.827 304.2 125.627C298.7 116.927 293.2 108.327 287.7 99.6274C285.7 96.5274 283.7 93.5274 281.9 90.7274C278.6 90.8274 275.8 90.8274 272.6 90.8274ZM219.2 301.127C219.8 300.827 220.3 300.527 220.9 300.227C221.3 295.427 222.6 290.527 219.9 286.027C211.9 273.127 203.7 260.427 195.3 247.227C193.5 247.227 191.6 247.127 189.8 247.227C188.6 247.327 187.4 247.527 185.9 247.727C185.9 266.527 185.9 285.127 185.9 303.927C189.3 303.927 192.4 303.927 196 303.927C196 291.727 196 280.127 196 268.527C198.2 270.027 199.5 271.727 200.7 273.527C205.6 281.127 210.3 288.827 215.2 296.427C216.2 298.227 217.8 299.627 219.2 301.127ZM415 291.327C402.8 299.127 391.1 306.527 379.4 313.927C379.4 317.427 379.4 320.627 379.4 323.827C398.4 323.827 416.9 323.827 435.5 323.827C435.5 320.427 435.5 317.427 435.5 313.927C423.3 313.527 411.4 314.027 399.6 313.127C403.5 310.027 407.5 307.527 411.4 304.927C415.2 302.427 419.5 300.527 422.8 296.727C420.2 294.927 417.9 293.327 415 291.327ZM149.5 363.627C149.5 367.127 149.5 370.127 149.5 373.027C157.1 374.227 201.8 373.927 206 372.727C206 369.827 206 366.827 206 363.227C193.7 363.227 182 363.227 170.3 363.227C170.2 362.827 170.1 362.427 170 362.127C177.8 357.127 185.5 352.127 194 346.727C190.5 344.427 187.9 342.627 185.2 340.927C173 348.627 161.1 356.227 149.5 363.627ZM243.9 325.427C263.2 325.427 281.7 325.427 300.5 325.427C300.5 322.027 300.5 319.127 300.5 315.527C288.3 315.527 276.6 315.527 264.8 315.527C264.7 315.127 264.6 314.727 264.5 314.427C272.3 309.427 280.1 304.327 288.6 298.827C285.2 296.527 282.6 294.827 279.9 293.027C267.6 300.827 255.7 308.427 243.9 315.927C243.9 319.327 243.9 322.127 243.9 325.427ZM411.7 236.027C409.3 237.827 407.4 239.127 406.5 239.827C406.5 245.127 406.5 249.127 406.5 253.227C409.7 253.227 412.4 253.227 415.3 253.227C415.6 250.627 415.9 248.427 416.2 246.127C423.7 246.127 430.9 246.127 438.7 246.127C438.7 260.227 438.7 273.827 438.7 287.927C442.2 287.927 445.1 287.927 448.3 287.927C448.3 271.927 448.3 256.427 448.3 240.427C446.9 238.927 445.4 237.327 444.3 236.027C432.7 236.027 422 236.027 411.7 236.027ZM67.7998 293.927C67.7998 290.627 67.7998 287.927 67.7998 284.927C63.1998 284.927 59.1998 284.927 55.0998 284.927C53.4998 286.627 51.8998 288.227 50.6998 289.527C50.6998 300.727 50.6998 311.427 50.6998 322.927C51.8998 324.227 53.4998 325.827 54.2998 326.727C69.4998 326.727 83.2998 326.727 97.4998 326.727C97.4998 323.427 97.4998 320.527 97.4998 317.027C84.8998 317.027 72.8998 317.027 60.5998 317.027C60.5998 309.327 60.5998 302.227 60.5998 294.927C62.9998 294.527 65.1998 294.227 67.7998 293.927ZM294.6 209.127C294.6 220.727 294.6 231.627 294.6 242.327C296.1 244.027 297.5 245.527 298.7 246.727C313.2 246.727 327.2 246.727 341.4 246.727C341.4 243.427 341.4 240.527 341.4 237.027C328.8 237.027 316.8 237.027 304.4 237.027C304.2 229.227 304.1 222.027 304.4 214.927C307.4 214.527 309.5 214.127 311.7 213.827C311.7 210.627 311.7 207.927 311.7 204.827C307.2 204.827 303.2 204.827 298.8 204.827C297.4 206.227 296 207.627 294.6 209.127ZM209.7 159.427C209.7 163.827 209.7 167.827 209.7 172.227C211.2 173.627 212.8 175.127 214.1 176.427C225.4 176.427 236.3 176.427 247.2 176.427C248.9 174.927 250.6 173.527 251.9 172.327C251.7 157.627 252.3 143.827 251.5 129.827C248.1 129.827 245.4 129.827 242 129.827C242 142.227 242 154.227 242 166.427C234.1 166.427 226.9 166.427 219.6 166.427C219.2 163.827 218.9 161.727 218.6 159.427C215.6 159.427 212.8 159.427 209.7 159.427ZM165.6 264.527C161.5 250.327 157.7 237.027 154 223.927C147.2 223.927 141.4 223.927 135 223.927C131.1 237.427 127.3 250.627 123.4 264.527C127 264.527 129.8 264.527 133.1 264.527C136.1 254.127 139 243.727 142 233.127C144.1 233.327 145.6 233.527 147.2 233.727C148.7 239.127 150.2 244.327 151.6 249.427C153 254.527 154.5 259.627 155.9 264.627C159.3 264.527 161.9 264.527 165.6 264.527ZM256.2 262.927C260.7 262.927 264.7 262.927 269 262.927C270.4 261.427 272 259.827 273.3 258.427C273.3 247.127 273.3 236.227 273.3 225.327C271.8 223.727 270.4 222.227 269.4 221.227C256.6 220.127 230.9 220.527 226.7 221.827C226.7 224.627 226.7 227.427 226.7 230.827C239.2 230.827 251.2 230.827 263.3 230.827C263.3 238.627 263.3 245.627 263.3 252.827C260.7 253.227 258.6 253.527 256.2 253.927C256.2 256.827 256.2 259.527 256.2 262.927ZM261.2 424.027C261.2 412.227 261.2 401.227 261.2 390.627C259.6 388.627 258.3 387.027 257.5 386.127C243.4 385.027 218.7 385.427 214.3 386.827C214.3 389.427 214.3 392.027 214.3 395.527C226.7 395.527 238.9 395.527 251.3 395.527C251.3 403.427 251.3 410.527 251.3 417.727C248.7 418.127 246.3 418.427 244.2 418.727C244.2 422.027 244.2 424.827 244.2 427.727C248.7 427.727 252.8 427.727 257.1 427.727C258.5 426.427 260 425.027 261.2 424.027ZM380 187.527C376.1 173.727 372.3 160.427 368.5 147.327C361.7 147.327 355.7 147.327 349.3 147.327C345.5 160.827 341.7 174.027 337.9 187.527C341.6 187.527 344.4 187.527 347.5 187.527C350.4 177.127 353.3 167.027 356.2 156.627C358.2 156.727 359.7 156.827 361.6 156.827C364.6 167.227 367.5 177.327 370.3 187.427C373.8 187.527 376.6 187.527 380 187.527ZM293.2 341.427C289.3 355.127 285.1 368.227 281.8 382.227C284.1 382.227 285.6 382.327 287 382.227C288.4 382.127 289.8 381.927 291.4 381.727C294.3 371.327 297.2 361.127 300.1 350.827C302 350.827 303.5 350.827 305.3 350.827C308.3 361.327 311.3 371.727 314.2 381.827C317.7 381.827 320.5 381.827 323.8 381.827C319.8 368.027 316 354.727 312.2 341.427C305.7 341.427 299.8 341.427 293.2 341.427ZM101 188.627C91.6998 187.327 55.0998 187.727 50.9998 189.027C50.9998 192.027 50.9998 194.927 50.9998 198.427C60.9998 198.427 70.5998 198.427 80.0998 198.427C80.1998 198.727 80.2998 199.127 80.4998 199.427C77.1998 201.627 73.9998 203.927 70.1998 206.527C73.1998 208.827 75.6998 210.727 78.2998 212.627C86.2998 207.527 93.7998 202.727 101 198.127C101 194.527 101 191.727 101 188.627ZM237 50.0274C244.9 50.0274 252.1 50.0274 260 50.0274C260 58.9274 260 67.4274 260 76.0274C263.4 76.0274 266.2 76.0274 269.3 76.0274C269.3 65.3274 269.3 54.9274 269.3 44.4274C267.9 42.8274 266.5 41.1274 265.6 39.9274C253.6 39.9274 242.8 39.9274 231.7 39.9274C230.1 41.4274 228.5 42.9274 227.6 43.7274C227.6 48.9274 227.6 52.9274 227.6 56.8274C230.9 56.8274 233.7 56.8274 236.5 56.8274C236.7 54.4274 236.8 52.4274 237 50.0274ZM351.9 327.327C351.9 316.427 351.9 306.027 351.9 295.527C350.4 294.027 348.9 292.627 347.5 291.327C336.3 291.327 325.2 291.327 313.9 291.327C312.4 292.727 311 294.127 309.9 295.127C309.9 299.927 309.9 304.027 309.9 308.227C313.2 308.227 316.1 308.227 319 308.227C319.4 305.527 319.6 303.327 320 301.027C327.4 301.027 334.5 301.027 342.3 301.027C342.3 309.827 342.3 318.327 342.3 327.327C345.6 327.327 348.4 327.327 351.9 327.327ZM324.4 393.027C312.3 400.727 300.2 408.427 288.5 415.827C288.5 419.427 288.5 422.327 288.5 425.427C298.9 425.427 308.7 425.427 318.7 425.427C318.7 422.027 318.7 419.027 318.7 415.927C315.2 415.727 312.1 415.527 307.7 415.227C316.7 409.427 324.5 404.327 332.9 398.927C329.7 396.727 327.2 395.027 324.4 393.027ZM131.6 125.227C134.8 127.627 137.3 129.427 139.9 131.427C150.8 124.527 161.5 117.827 171.8 111.327C171.8 107.827 171.8 105.027 171.8 101.927C161.8 101.927 152.1 101.927 142.4 101.927C142.4 105.327 142.4 108.327 142.4 111.327C145.6 111.627 148.2 111.827 152.1 112.227C144.7 116.827 138.6 120.727 131.6 125.227ZM360.5 394.227C362.1 392.127 363.2 390.727 364.2 389.227C367.1 384.827 369.7 380.027 373 375.927C378.1 369.627 376.7 362.827 375.4 355.727C370.6 362.927 365.8 370.227 360.7 377.927C355.5 369.927 350.7 362.727 345.9 355.427C345.4 355.527 345 355.727 344.5 355.827C344.7 360.827 343.5 366.527 345.5 370.627C349.4 378.827 355.1 386.027 360.5 394.227ZM194.9 156.027C199.3 149.327 202.9 143.127 207.2 137.527C212.3 131.027 211 124.027 210.6 115.527C205 124.027 200.1 131.427 194.9 139.427C189.5 131.327 184.6 124.027 179.7 116.627C179.2 116.827 178.8 117.027 178.3 117.227C178.7 122.227 177.6 128.027 179.7 132.227C183.8 140.427 189.5 147.827 194.9 156.027ZM134.6 331.727C129.3 323.827 124.4 316.527 119.5 309.127C119.2 309.327 118.9 309.427 118.7 309.627C118.7 314.527 118.7 319.327 118.7 324.227C123.9 332.127 129.1 339.927 134.6 348.327C140.2 339.727 145.4 331.827 150.2 324.627C150.2 319.127 150.2 314.427 150.2 308.227C144.6 316.627 139.8 323.927 134.6 331.727ZM121.2 196.127C130 201.927 138 207.127 145.1 211.827C150.8 211.827 155.5 211.827 161.4 211.827C153 206.227 145.6 201.327 137.7 196.127C145.7 190.827 153 186.027 161.4 180.427C152.2 179.827 144.7 179.127 138 184.827C133.2 189.027 127.4 192.027 121.2 196.127ZM195.2 207.527C205.1 208.727 234.3 208.327 238.4 207.027C238.4 204.027 238.4 201.127 238.4 198.327C228.4 197.227 199.5 197.627 195.2 198.927C195.2 201.627 195.2 204.427 195.2 207.527ZM121.6 152.127C106.6 152.427 92.2998 151.627 77.8998 152.627C77.8998 156.227 77.8998 159.027 77.8998 162.227C92.5998 162.227 107 162.227 121.6 162.227C121.6 158.927 121.6 156.127 121.6 152.127ZM375.8 218.927C390.2 218.927 404.4 218.927 418.8 218.927C418.8 215.527 418.8 212.427 418.8 209.227C404.2 209.227 390.2 209.227 375.8 209.227C375.8 212.527 375.8 215.427 375.8 218.927ZM375.1 116.727C358.9 116.727 343.4 116.727 327.5 116.727C327.5 120.027 327.5 122.927 327.5 125.727C337.3 126.927 370.7 126.527 375.1 125.127C375.1 122.627 375.1 120.027 375.1 116.727ZM164.3 413.627C173.8 414.727 199.9 414.427 204.3 413.127C204.3 410.327 204.3 407.527 204.3 404.127C190.9 403.727 177.7 403.727 164.3 404.027C164.3 407.727 164.3 410.527 164.3 413.627ZM211.7 101.327C211.7 86.6274 211.7 72.3274 211.7 57.8274C208.4 57.8274 205.4 57.8274 202.2 57.8274C202.2 72.5274 202.2 86.7274 202.2 101.327C205.4 101.327 208.2 101.327 211.7 101.327ZM116.9 291.127C131.7 291.127 145.7 291.127 159.9 291.127C159.9 287.727 159.9 284.827 159.9 281.627C145.4 281.627 131.4 281.627 116.9 281.627C116.9 284.927 116.9 287.827 116.9 291.127ZM223.4 333.527C223.4 346.327 222.9 358.627 223.7 370.827C227.4 370.827 230.3 370.827 233.3 370.827C233.3 358.127 233.3 346.027 233.3 333.527C230.1 333.527 227.3 333.527 223.4 333.527ZM375.1 302.627C375.1 290.827 375.1 279.527 375.1 268.027C371.7 268.027 368.7 268.027 365.5 268.027C365.5 279.727 365.5 291.027 365.5 302.627C368.9 302.627 371.9 302.627 375.1 302.627ZM397.6 171.027C401.1 171.027 404.2 171.027 407.3 171.027C407.3 160.227 407.3 150.127 407.3 139.527C404 139.527 401 139.527 397.6 139.527C397.6 150.227 397.6 160.527 397.6 171.027ZM97.5998 237.027C97.5998 247.927 97.5998 258.027 97.5998 268.427C101.1 268.427 104.2 268.427 107.3 268.427C107.3 257.727 107.3 247.627 107.3 237.027C103.9 237.027 101 237.027 97.5998 237.027ZM282.6 200.027C282.6 189.127 282.6 178.927 282.6 168.427C279.4 168.427 276.6 168.427 273.5 168.427C273.5 179.127 273.5 189.427 273.5 200.027C276.6 200.027 279.3 200.027 282.6 200.027ZM354.6 266.727C344 266.727 334.1 266.727 324 266.727C324 270.127 324 273.027 324 276.127C334.4 276.127 344.3 276.127 354.5 276.127C354.7 274.527 354.9 273.327 354.9 272.127C354.8 270.427 354.7 268.827 354.6 266.727ZM317.8 74.0274C311.4 72.8274 295.4 72.9274 290.8 74.2274C290.8 77.1274 290.8 80.1274 290.8 83.7274C300 83.8274 308.8 83.9274 317.8 83.6274C317.8 79.8274 317.8 76.9274 317.8 74.0274ZM106.3 364.227C106.3 367.827 106.3 370.827 106.3 373.727C115.2 373.727 123.5 373.727 132.1 373.727C132.1 370.427 132.1 367.427 132.1 364.227C123.3 364.227 114.9 364.227 106.3 364.227ZM253.8 473.027C255.2 465.927 254.9 454.627 253.5 450.627C250.5 450.627 247.6 450.627 244.7 450.627C244.7 458.327 244.7 465.527 244.7 473.027C247.8 473.027 250.6 473.027 253.8 473.027ZM230.5 254.727C229.2 262.627 229.5 275.227 231.2 279.727C233.9 279.627 236.9 279.427 239.6 279.327C239.6 270.727 239.6 262.927 239.6 254.827C236.4 254.727 233.7 254.727 230.5 254.727ZM172.1 230.927C180.4 230.727 188.3 231.327 196.3 230.527C196.3 227.127 196.3 224.327 196.3 221.227C188.1 221.227 180.2 221.227 172.1 221.227C172.1 224.527 172.1 227.527 172.1 230.927ZM200.2 429.627C204.4 437.027 208.2 443.727 211.8 450.027C215.5 450.027 218.4 450.027 222.7 450.027C218.7 442.627 215.1 436.127 211.5 429.627C208 429.627 204.7 429.627 200.2 429.627ZM245.5 78.9274C241.7 78.9274 238.4 78.9274 234.2 78.9274C238.4 86.3274 242.1 92.8274 245.9 99.4274C249.5 99.2274 252.5 99.0274 256.6 98.8274C252.5 91.3274 248.9 84.9274 245.5 78.9274ZM271.3 363.627C268 356.027 264 349.727 260.4 343.527C256.6 343.527 253.4 343.527 249.2 343.527C253.3 350.827 257 357.327 260.6 363.627C264.2 363.627 267.2 363.627 271.3 363.627ZM421.4 159.927C425.7 167.527 429.4 173.927 432.9 180.127C436.6 180.127 439.7 180.127 443.9 180.127C439.7 172.727 436.1 166.227 432.6 159.927C428.9 159.927 425.9 159.927 421.4 159.927ZM165.5 176.027C168.8 176.027 171.7 176.027 174.6 176.027C174.6 168.127 174.6 160.727 174.6 153.327C171.3 153.327 168.6 153.327 165.5 153.327C165.5 160.927 165.5 168.227 165.5 176.027ZM291.6 265.927C291.6 269.427 291.6 272.527 291.6 275.627C295 275.627 297.7 275.627 300.7 275.627C300.7 272.127 300.7 269.027 300.7 265.927C297.4 265.927 294.6 265.927 291.6 265.927ZM129 152.627C129 155.827 129 158.927 129 162.327C132.2 162.327 135.2 162.327 138.3 162.327C138.3 158.927 138.3 155.927 138.3 152.627C135.1 152.627 132.3 152.627 129 152.627ZM273.7 274.827C273.7 278.327 273.7 281.427 273.7 284.327C277 284.327 279.8 284.327 282.5 284.327C282.5 280.827 282.5 277.927 282.5 274.827C279.3 274.827 276.6 274.827 273.7 274.827ZM176.6 327.927C180.2 327.927 183.2 327.927 186.2 327.927C186.2 324.527 186.2 321.627 186.2 318.627C182.7 318.627 179.8 318.627 176.6 318.627C176.6 321.827 176.6 324.627 176.6 327.927ZM352 218.927C352 215.327 352 212.427 352 209.227C348.6 209.227 345.7 209.227 342.6 209.227C342.6 212.627 342.6 215.627 342.6 218.927C345.9 218.927 348.6 218.927 352 218.927ZM397.8 186.927C397.8 190.327 397.8 193.427 397.8 196.627C401.2 196.627 404.2 196.627 407.7 196.627C407.5 193.027 407.4 190.027 407.3 186.927C403.7 186.927 401 186.927 397.8 186.927ZM313.1 98.8274C313.1 102.327 313.1 105.127 313.1 108.027C316.5 108.027 319.4 108.027 322.6 108.027C322.6 104.827 322.6 102.027 322.6 98.8274C319.3 98.8274 316.4 98.8274 313.1 98.8274ZM65.4998 254.927C69.1998 254.927 72.0998 254.927 74.9998 254.927C74.9998 251.627 74.9998 248.927 74.9998 245.927C71.5998 245.927 68.6998 245.927 65.4998 245.927C65.4998 249.127 65.4998 251.927 65.4998 254.927ZM228.4 105.527C228.4 109.127 228.4 112.127 228.4 114.927C231.8 114.927 234.7 114.927 237.5 114.927C237.5 111.527 237.5 108.627 237.5 105.527C234.2 105.527 231.5 105.527 228.4 105.527ZM258.4 198.227C255.1 198.227 252.2 198.227 248.9 198.227C248.9 201.427 248.9 204.327 248.9 207.327C252.3 207.327 255.4 207.327 258.4 207.327C258.4 204.027 258.4 201.227 258.4 198.227ZM389.4 357.027C393.1 357.027 396 357.027 398.8 357.027C398.8 353.627 398.8 350.727 398.8 347.327C395.3 347.527 392.4 347.627 389.4 347.727C389.4 351.227 389.4 353.927 389.4 357.027ZM307.8 181.027C311.3 181.027 314.1 181.027 317.1 181.027C317.1 177.727 317.1 174.727 317.1 171.727C313.8 171.727 310.8 171.727 307.8 171.727C307.8 175.027 307.8 177.827 307.8 181.027ZM145.7 389.727C145.7 393.227 145.7 396.127 145.7 399.227C149.1 399.227 152 399.227 155.1 399.227C155.1 395.827 155.1 392.927 155.1 389.727C151.9 389.727 149.1 389.727 145.7 389.727ZM267.7 440.527C267.7 443.927 267.7 446.827 267.7 449.727C271.1 449.727 274 449.727 276.8 449.727C276.8 446.427 276.8 443.627 276.8 440.527C273.8 440.527 271 440.527 267.7 440.527Z" fill="black"/>
<path d="M272.6 90.8271C275.7 90.8271 278.5 90.8271 281.9 90.8271C283.7 93.6271 285.7 96.6271 287.7 99.7271C293.2 108.327 298.7 117.027 304.2 125.727C308.7 132.827 309 134.527 307.4 143.827C304.5 144.927 303.5 142.727 302.4 140.927C297.1 132.627 291.8 124.327 286.5 116.027C285.5 114.527 284.5 113.127 282.5 111.827C282.5 123.527 282.5 135.227 282.5 147.427C278.9 147.427 276 147.427 272.6 147.427C272.6 128.727 272.6 110.227 272.6 90.8271Z" fill="white"/>
<path d="M219.2 301.127C217.8 299.627 216.2 298.227 215.1 296.527C210.2 288.927 205.4 281.327 200.6 273.627C199.4 271.827 198.1 270.027 195.9 268.627C195.9 280.227 195.9 291.827 195.9 304.027C192.3 304.027 189.2 304.027 185.8 304.027C185.8 285.227 185.8 266.627 185.8 247.827C187.3 247.627 188.5 247.327 189.7 247.327C191.5 247.227 193.3 247.327 195.2 247.327C203.6 260.527 211.8 273.227 219.8 286.127C222.6 290.627 221.2 295.527 220.8 300.327C220.3 300.527 219.7 300.827 219.2 301.127Z" fill="white"/>
<path d="M415 291.327C417.8 293.327 420.1 294.927 422.8 296.827C419.5 300.727 415.2 302.527 411.4 305.027C407.5 307.627 403.5 310.127 399.6 313.227C411.5 314.127 423.3 313.627 435.5 314.027C435.5 317.527 435.5 320.427 435.5 323.927C416.9 323.927 398.3 323.927 379.4 323.927C379.4 320.727 379.4 317.527 379.4 314.027C391.1 306.527 402.8 299.127 415 291.327Z" fill="white"/>
<path d="M149.5 363.627C161.1 356.227 173 348.627 185.3 340.827C188 342.627 190.6 344.327 194.1 346.627C185.6 352.027 177.9 357.027 170.1 362.027C170.2 362.427 170.3 362.827 170.4 363.127C182.1 363.127 193.9 363.127 206.1 363.127C206.1 366.727 206.1 369.627 206.1 372.627C201.9 373.827 157.2 374.227 149.6 372.927C149.5 370.127 149.5 367.127 149.5 363.627Z" fill="white"/>
<path d="M243.9 325.427C243.9 322.027 243.9 319.227 243.9 315.927C255.7 308.427 267.6 300.827 279.9 293.027C282.6 294.827 285.2 296.627 288.6 298.827C280.1 304.327 272.3 309.327 264.5 314.427C264.6 314.827 264.7 315.227 264.8 315.527C276.5 315.527 288.3 315.527 300.5 315.527C300.5 319.027 300.5 322.027 300.5 325.427C281.7 325.427 263.1 325.427 243.9 325.427Z" fill="white"/>
<path d="M411.7 236.027C422.1 236.027 432.7 236.027 444.2 236.027C445.4 237.327 446.9 238.927 448.2 240.427C448.2 256.327 448.2 271.927 448.2 287.927C445 287.927 442.1 287.927 438.6 287.927C438.6 273.927 438.6 260.227 438.6 246.127C430.9 246.127 423.6 246.127 416.1 246.127C415.8 248.427 415.6 250.627 415.2 253.227C412.3 253.227 409.5 253.227 406.4 253.227C406.4 249.127 406.4 245.127 406.4 239.827C407.4 239.127 409.2 237.827 411.7 236.027Z" fill="white"/>
<path d="M67.8002 293.927C65.2002 294.227 63.0002 294.527 60.6002 294.827C60.6002 302.127 60.6002 309.227 60.6002 316.927C72.9002 316.927 84.9002 316.927 97.5002 316.927C97.5002 320.427 97.5002 323.327 97.5002 326.627C83.4002 326.627 69.5002 326.627 54.3002 326.627C53.4002 325.727 51.9002 324.127 50.7002 322.827C50.7002 311.327 50.7002 300.727 50.7002 289.427C51.9002 288.127 53.5002 286.527 55.1002 284.827C59.2002 284.827 63.3002 284.827 67.8002 284.827C67.8002 287.827 67.8002 290.627 67.8002 293.927Z" fill="white"/>
<path d="M294.6 209.127C296 207.727 297.5 206.227 298.8 204.927C303.2 204.927 307.2 204.927 311.7 204.927C311.7 207.927 311.7 210.727 311.7 213.927C309.5 214.227 307.4 214.527 304.4 215.027C304.1 222.127 304.2 229.327 304.4 237.127C316.8 237.127 328.8 237.127 341.4 237.127C341.4 240.627 341.4 243.527 341.4 246.827C327.2 246.827 313.2 246.827 298.7 246.827C297.5 245.527 296.2 244.027 294.6 242.427C294.6 231.627 294.6 220.727 294.6 209.127Z" fill="white"/>
<path d="M209.7 159.427C212.8 159.427 215.6 159.427 218.7 159.427C219 161.727 219.3 163.827 219.7 166.427C227 166.427 234.2 166.427 242.1 166.427C242.1 154.227 242.1 142.227 242.1 129.827C245.5 129.827 248.2 129.827 251.6 129.827C252.4 143.727 251.8 157.627 252 172.327C250.7 173.527 249 174.927 247.3 176.427C236.4 176.427 225.5 176.427 214.2 176.427C212.8 175.127 211.2 173.627 209.8 172.227C209.7 167.827 209.7 163.827 209.7 159.427Z" fill="white"/>
<path d="M165.6 264.527C161.9 264.527 159.2 264.527 155.9 264.527C154.5 259.527 153 254.427 151.6 249.327C150.1 244.227 148.7 239.127 147.2 233.627C145.6 233.427 144 233.327 142 233.027C139 243.627 136.1 253.927 133.1 264.427C129.9 264.427 127.1 264.427 123.4 264.427C127.4 250.627 131.2 237.327 135 223.827C141.4 223.827 147.2 223.827 154 223.827C157.8 237.027 161.6 250.327 165.6 264.527Z" fill="white"/>
<path d="M256.2 262.928C256.2 259.528 256.2 256.828 256.2 253.928C258.6 253.528 260.7 253.228 263.3 252.828C263.3 245.728 263.3 238.628 263.3 230.828C251.2 230.828 239.2 230.828 226.7 230.828C226.7 227.428 226.7 224.628 226.7 221.828C230.9 220.628 256.6 220.128 269.4 221.228C270.4 222.328 271.8 223.828 273.3 225.328C273.3 236.228 273.3 247.028 273.3 258.428C272 259.728 270.5 261.428 269 262.928C264.7 262.928 260.6 262.928 256.2 262.928Z" fill="white"/>
<path d="M261.2 424.027C260.1 425.027 258.6 426.427 257.1 427.727C252.8 427.727 248.8 427.727 244.2 427.727C244.2 424.727 244.2 422.027 244.2 418.727C246.3 418.427 248.6 418.127 251.3 417.727C251.3 410.527 251.3 403.427 251.3 395.527C238.9 395.527 226.8 395.527 214.3 395.527C214.3 392.027 214.3 389.427 214.3 386.827C218.7 385.427 243.4 384.927 257.5 386.127C258.3 387.127 259.6 388.627 261.2 390.627C261.2 401.227 261.2 412.227 261.2 424.027Z" fill="white"/>
<path d="M380 187.527C376.5 187.527 373.8 187.527 370.4 187.527C367.5 177.527 364.6 167.327 361.7 156.927C359.9 156.827 358.3 156.827 356.3 156.727C353.4 167.127 350.5 177.227 347.6 187.627C344.5 187.627 341.7 187.627 338 187.627C341.8 174.127 345.6 160.827 349.4 147.427C355.8 147.427 361.8 147.427 368.6 147.427C372.3 160.427 376.1 173.727 380 187.527Z" fill="white"/>
<path d="M293.2 341.427C299.8 341.427 305.6 341.427 312.2 341.427C316 354.727 319.8 368.027 323.8 381.827C320.5 381.827 317.8 381.827 314.2 381.827C311.3 371.727 308.3 361.427 305.3 350.827C303.5 350.827 302 350.827 300.1 350.827C297.2 361.127 294.3 371.327 291.4 381.727C289.8 381.927 288.4 382.127 287 382.227C285.6 382.327 284.2 382.227 281.8 382.227C285.1 368.227 289.3 355.127 293.2 341.427Z" fill="white"/>
<path d="M101 188.627C101 191.727 101 194.527 101 198.127C93.8 202.727 86.3 207.527 78.3 212.627C75.7 210.727 73.2 208.827 70.2 206.527C74 203.927 77.2 201.727 80.5 199.427C80.4 199.127 80.3 198.727 80.1 198.427C70.5 198.427 61 198.427 51 198.427C51 194.927 51 192.027 51 189.027C55.1 187.727 91.7 187.327 101 188.627Z" fill="white"/>
<path d="M237 50.0273C236.8 52.4273 236.6 54.4273 236.4 56.9273C233.6 56.9273 230.8 56.9273 227.5 56.9273C227.5 52.9273 227.5 49.0273 227.5 43.8273C228.4 43.0273 230.1 41.5273 231.6 40.0273C242.7 40.0273 253.5 40.0273 265.5 40.0273C266.4 41.1273 267.9 42.8273 269.2 44.5273C269.2 55.0273 269.2 65.4273 269.2 76.1273C266.1 76.1273 263.3 76.1273 259.9 76.1273C259.9 67.5273 259.9 59.0273 259.9 50.1273C252.2 50.0273 244.9 50.0273 237 50.0273Z" fill="white"/>
<path d="M351.9 327.327C348.4 327.327 345.6 327.327 342.2 327.327C342.2 318.427 342.2 309.927 342.2 301.027C334.5 301.027 327.4 301.027 319.9 301.027C319.6 303.327 319.3 305.527 318.9 308.227C316 308.227 313.1 308.227 309.8 308.227C309.8 304.027 309.8 299.927 309.8 295.127C310.9 294.127 312.3 292.727 313.8 291.327C325.1 291.327 336.1 291.327 347.4 291.327C348.8 292.627 350.3 294.127 351.8 295.527C351.9 306.027 351.9 316.427 351.9 327.327Z" fill="white"/>
<path d="M324.4 393.027C327.2 395.027 329.7 396.727 332.9 398.927C324.5 404.327 316.7 409.327 307.7 415.227C312.2 415.527 315.2 415.727 318.7 415.927C318.7 419.027 318.7 422.027 318.7 425.427C308.7 425.427 298.9 425.427 288.5 425.427C288.5 422.427 288.5 419.427 288.5 415.827C300.3 408.427 312.3 400.827 324.4 393.027Z" fill="white"/>
<path d="M131.6 125.227C138.6 120.827 144.7 116.827 152.1 112.227C148.2 111.827 145.5 111.627 142.4 111.327C142.4 108.327 142.4 105.427 142.4 101.927C152.1 101.927 161.7 101.927 171.8 101.927C171.8 104.927 171.8 107.727 171.8 111.327C161.5 117.827 150.9 124.527 139.9 131.427C137.2 129.427 134.8 127.627 131.6 125.227Z" fill="white"/>
<path d="M360.5 394.227C355.2 386.027 349.4 378.727 345.5 370.627C343.5 366.527 344.7 360.827 344.5 355.827C345 355.727 345.4 355.527 345.9 355.427C350.7 362.727 355.5 369.927 360.7 377.927C365.8 370.227 370.6 363.027 375.4 355.727C376.7 362.827 378.1 369.727 373 375.927C369.6 380.027 367.1 384.827 364.2 389.227C363.2 390.827 362 392.127 360.5 394.227Z" fill="white"/>
<path d="M194.9 156.027C189.5 147.727 183.8 140.427 179.8 132.227C177.7 128.027 178.8 122.327 178.4 117.227C178.9 117.027 179.3 116.827 179.8 116.627C184.7 124.027 189.6 131.327 195 139.427C200.2 131.427 205.1 124.027 210.7 115.527C211.1 123.927 212.4 131.027 207.3 137.527C202.9 143.127 199.3 149.427 194.9 156.027Z" fill="white"/>
<path d="M134.6 331.728C139.8 323.928 144.6 316.628 150.2 308.228C150.2 314.428 150.2 319.128 150.2 324.628C145.4 331.928 140.3 339.728 134.6 348.328C129.1 339.928 123.9 332.128 118.7 324.228C118.7 319.428 118.7 314.528 118.7 309.628C119 309.428 119.3 309.328 119.5 309.128C124.4 316.528 129.3 323.828 134.6 331.728Z" fill="white"/>
<path d="M121.2 196.127C127.4 192.127 133.3 189.027 138.1 184.927C144.8 179.127 152.3 179.927 161.5 180.527C153.1 186.027 145.8 190.827 137.8 196.227C145.7 201.427 153 206.327 161.5 211.927C155.6 211.927 150.9 211.927 145.2 211.927C137.9 207.127 130 201.827 121.2 196.127Z" fill="white"/>
<path d="M195.2 207.527C195.2 204.427 195.2 201.627 195.2 198.927C199.5 197.627 228.4 197.227 238.4 198.327C238.4 201.127 238.4 204.127 238.4 207.027C234.3 208.327 205.1 208.727 195.2 207.527Z" fill="white"/>
<path d="M121.6 152.127C121.6 156.127 121.6 158.927 121.6 162.227C107 162.227 92.5999 162.227 77.8999 162.227C77.8999 159.027 77.8999 156.227 77.8999 152.627C92.2999 151.627 106.6 152.427 121.6 152.127Z" fill="white"/>
<path d="M375.8 218.928C375.8 215.528 375.8 212.528 375.8 209.228C390.2 209.228 404.2 209.228 418.8 209.228C418.8 212.428 418.8 215.528 418.8 218.928C404.4 218.928 390.2 218.928 375.8 218.928Z" fill="white"/>
<path d="M375.1 116.728C375.1 120.028 375.1 122.628 375.1 125.128C370.8 126.528 337.3 126.928 327.5 125.728C327.5 122.928 327.5 120.028 327.5 116.728C343.4 116.728 358.9 116.728 375.1 116.728Z" fill="white"/>
<path d="M164.3 413.627C164.3 410.427 164.3 407.727 164.3 404.027C177.6 403.627 190.8 403.627 204.3 404.127C204.3 407.527 204.3 410.327 204.3 413.127C199.9 414.427 173.9 414.727 164.3 413.627Z" fill="white"/>
<path d="M211.7 101.327C208.2 101.327 205.4 101.327 202.2 101.327C202.2 86.7272 202.2 72.5271 202.2 57.8271C205.4 57.8271 208.4 57.8271 211.7 57.8271C211.7 72.3271 211.7 86.6272 211.7 101.327Z" fill="white"/>
<path d="M116.9 291.127C116.9 287.827 116.9 284.927 116.9 281.627C131.4 281.627 145.4 281.627 159.9 281.627C159.9 284.827 159.9 287.727 159.9 291.127C145.8 291.127 131.7 291.127 116.9 291.127Z" fill="white"/>
<path d="M223.4 333.527C227.4 333.527 230.2 333.527 233.4 333.527C233.4 346.027 233.4 358.127 233.4 370.827C230.4 370.827 227.4 370.827 223.8 370.827C222.9 358.527 223.4 346.227 223.4 333.527Z" fill="white"/>
<path d="M375.1 302.627C371.9 302.627 368.9 302.627 365.5 302.627C365.5 291.027 365.5 279.727 365.5 268.027C368.7 268.027 371.7 268.027 375.1 268.027C375.1 279.527 375.1 290.827 375.1 302.627Z" fill="white"/>
<path d="M397.6 171.027C397.6 160.627 397.6 150.227 397.6 139.527C401 139.527 403.9 139.527 407.3 139.527C407.3 150.127 407.3 160.227 407.3 171.027C404.2 171.027 401.1 171.027 397.6 171.027Z" fill="white"/>
<path d="M97.6001 237.027C101 237.027 103.9 237.027 107.3 237.027C107.3 247.527 107.3 257.727 107.3 268.427C104.2 268.427 101.1 268.427 97.6001 268.427C97.6001 258.027 97.6001 247.827 97.6001 237.027Z" fill="white"/>
<path d="M282.6 200.027C279.3 200.027 276.6 200.027 273.5 200.027C273.5 189.327 273.5 179.027 273.5 168.427C276.6 168.427 279.3 168.427 282.6 168.427C282.6 178.827 282.6 189.127 282.6 200.027Z" fill="white"/>
<path d="M354.6 266.728C354.7 268.828 354.9 270.528 354.9 272.128C354.9 273.328 354.7 274.528 354.5 276.128C344.4 276.128 334.4 276.128 324 276.128C324 273.028 324 270.128 324 266.728C334 266.728 344 266.728 354.6 266.728Z" fill="white"/>
<path d="M317.8 74.0274C317.8 76.9274 317.8 79.8274 317.8 83.6274C308.9 83.9274 300 83.8274 290.8 83.7274C290.8 80.1274 290.8 77.1274 290.8 74.2274C295.3 72.9274 311.4 72.8274 317.8 74.0274Z" fill="white"/>
<path d="M106.3 364.227C115 364.227 123.3 364.227 132.1 364.227C132.1 367.427 132.1 370.427 132.1 373.727C123.5 373.727 115.2 373.727 106.3 373.727C106.3 370.827 106.3 367.927 106.3 364.227Z" fill="white"/>
<path d="M253.8 473.027C250.7 473.027 247.9 473.027 244.6 473.027C244.6 465.527 244.6 458.327 244.6 450.627C247.5 450.627 250.5 450.627 253.4 450.627C254.9 454.627 255.1 466.027 253.8 473.027Z" fill="white"/>
<path d="M230.5 254.728C233.7 254.728 236.4 254.728 239.7 254.728C239.7 262.828 239.7 270.628 239.7 279.228C236.9 279.328 234 279.528 231.3 279.628C229.5 275.328 229.2 262.728 230.5 254.728Z" fill="white"/>
<path d="M172.1 230.928C172.1 227.528 172.1 224.528 172.1 221.228C180.2 221.228 188.1 221.228 196.3 221.228C196.3 224.328 196.3 227.128 196.3 230.528C188.4 231.328 180.5 230.728 172.1 230.928Z" fill="white"/>
<path d="M200.2 429.627C204.7 429.627 208 429.627 211.6 429.627C215.2 436.127 218.7 442.627 222.8 450.027C218.6 450.027 215.6 450.027 211.9 450.027C208.2 443.727 204.4 437.027 200.2 429.627Z" fill="white"/>
<path d="M245.5 78.9272C248.9 85.0272 252.4 91.3272 256.6 98.8272C252.6 99.0272 249.5 99.2272 245.9 99.4272C242.1 92.8272 238.4 86.3272 234.2 78.9272C238.4 78.9272 241.7 78.9272 245.5 78.9272Z" fill="white"/>
<path d="M271.3 363.627C267.2 363.627 264.2 363.627 260.7 363.627C257.1 357.327 253.4 350.827 249.3 343.527C253.4 343.527 256.7 343.527 260.5 343.527C264 349.727 268 356.027 271.3 363.627Z" fill="white"/>
<path d="M421.4 159.927C425.8 159.927 428.9 159.927 432.6 159.927C436.1 166.127 439.7 172.727 443.9 180.127C439.7 180.127 436.6 180.127 432.9 180.127C429.4 173.927 425.7 167.427 421.4 159.927Z" fill="white"/>
<path d="M165.5 176.027C165.5 168.127 165.5 160.927 165.5 153.327C168.6 153.327 171.4 153.327 174.6 153.327C174.6 160.827 174.6 168.227 174.6 176.027C171.8 176.027 168.8 176.027 165.5 176.027Z" fill="white"/>
<path d="M291.6 265.927C294.6 265.927 297.4 265.927 300.7 265.927C300.7 269.027 300.7 272.127 300.7 275.627C297.7 275.627 294.9 275.627 291.6 275.627C291.6 272.527 291.6 269.427 291.6 265.927Z" fill="white"/>
<path d="M129 152.627C132.3 152.627 135.1 152.627 138.3 152.627C138.3 155.927 138.3 158.927 138.3 162.327C135.1 162.327 132.2 162.327 129 162.327C129 158.927 129 155.827 129 152.627Z" fill="white"/>
<path d="M273.7 274.827C276.5 274.827 279.3 274.827 282.5 274.827C282.5 277.927 282.5 280.927 282.5 284.327C279.7 284.327 277 284.327 273.7 284.327C273.7 281.327 273.7 278.227 273.7 274.827Z" fill="white"/>
<path d="M176.6 327.927C176.6 324.627 176.6 321.927 176.6 318.627C179.8 318.627 182.8 318.627 186.2 318.627C186.2 321.527 186.2 324.527 186.2 327.927C183.1 327.927 180.2 327.927 176.6 327.927Z" fill="white"/>
<path d="M352 218.928C348.6 218.928 345.8 218.928 342.6 218.928C342.6 215.628 342.6 212.728 342.6 209.228C345.6 209.228 348.6 209.228 352 209.228C352 212.428 352 215.328 352 218.928Z" fill="white"/>
<path d="M397.8 186.927C400.9 186.927 403.7 186.927 407.2 186.927C407.3 190.027 407.5 193.027 407.6 196.627C404.1 196.627 401.2 196.627 397.7 196.627C397.8 193.327 397.8 190.327 397.8 186.927Z" fill="white"/>
<path d="M313.1 98.8271C316.4 98.8271 319.3 98.8271 322.6 98.8271C322.6 102.027 322.6 104.827 322.6 108.027C319.5 108.027 316.5 108.027 313.1 108.027C313.1 105.127 313.1 102.327 313.1 98.8271Z" fill="white"/>
<path d="M65.5 254.927C65.5 251.927 65.5 249.127 65.5 245.927C68.7 245.927 71.6 245.927 75 245.927C75 248.827 75 251.627 75 254.927C72.1 254.927 69.1 254.927 65.5 254.927Z" fill="white"/>
<path d="M228.4 105.527C231.5 105.527 234.3 105.527 237.5 105.527C237.5 108.627 237.5 111.527 237.5 114.927C234.7 114.927 231.8 114.927 228.4 114.927C228.4 112.027 228.4 109.127 228.4 105.527Z" fill="white"/>
<path d="M258.4 198.228C258.4 201.328 258.4 204.028 258.4 207.328C255.3 207.328 252.3 207.328 248.9 207.328C248.9 204.328 248.9 201.428 248.9 198.228C252.2 198.228 255.1 198.228 258.4 198.228Z" fill="white"/>
<path d="M389.4 357.027C389.4 353.927 389.4 351.227 389.4 347.827C392.4 347.727 395.4 347.527 398.8 347.427C398.8 350.727 398.8 353.627 398.8 357.127C396 357.027 393.1 357.027 389.4 357.027Z" fill="white"/>
<path d="M307.8 181.028C307.8 177.828 307.8 175.028 307.8 171.728C310.8 171.728 313.7 171.728 317.1 171.728C317.1 174.728 317.1 177.728 317.1 181.028C314.1 181.028 311.4 181.028 307.8 181.028Z" fill="white"/>
<path d="M145.7 389.727C149.1 389.727 151.9 389.727 155.1 389.727C155.1 392.927 155.1 395.827 155.1 399.227C152 399.227 149.1 399.227 145.7 399.227C145.7 396.127 145.7 393.227 145.7 389.727Z" fill="white"/>
<path d="M267.7 440.527C271 440.527 273.7 440.527 276.8 440.527C276.8 443.627 276.8 446.327 276.8 449.727C273.9 449.727 271 449.727 267.7 449.727C267.7 446.827 267.7 443.927 267.7 440.527Z" fill="white"/>
</svg>
