<svg width="500" height="501" viewBox="0 0 500 501" fill="none" xmlns="http://www.w3.org/2000/svg">
<path fill-rule="evenodd" clip-rule="evenodd" d="M458.3 179.027C432.5 164.227 400.7 164.227 375 179.027L250 250.527L375 322.027C400.8 336.827 432.6 336.827 458.3 322.027C484.1 307.227 500 280.027 500 250.527C500 221.027 484.1 193.727 458.3 179.027Z" fill="#050505"/>
<path fill-rule="evenodd" clip-rule="evenodd" d="M41.7 179.027C15.9 193.727 0 221.027 0 250.527C0 280.027 15.9 307.327 41.7 322.027C67.5 336.827 99.3 336.827 125 322.027L250 250.527L125 179.027C99.2 164.227 67.4 164.227 41.7 179.027Z" fill="#050505"/>
<path fill-rule="evenodd" clip-rule="evenodd" d="M177.8 457.027C192.7 482.627 220.2 498.327 250 498.327C279.8 498.327 307.3 482.627 322.2 457.027C337.1 431.427 337.1 400.027 322.2 374.427L250 250.527L177.8 374.427C163 399.927 163 431.427 177.8 457.027Z" fill="#050505"/>
<path fill-rule="evenodd" clip-rule="evenodd" d="M322.2 44.0275C307.3 18.5275 279.8 2.72754 250 2.72754C220.2 2.72754 192.7 18.4275 177.8 44.0275C162.9 69.6275 162.9 101.028 177.8 126.628L250 250.528L322.2 126.628C337.1 101.128 337.1 69.6275 322.2 44.0275Z" fill="#050505"/>
</svg>
