<svg width="500" height="501" viewBox="0 0 500 501" fill="none" xmlns="http://www.w3.org/2000/svg">
<path d="M313.649 357.023C280.859 331.058 248.828 305.696 216.527 280.118C216.527 277.816 216.527 275.409 216.527 271.956C269.949 314.166 322.785 355.913 376.679 398.495C334.76 431.636 293.46 464.287 251.793 497.227C205 460.232 158.427 423.411 111.852 386.589C111.852 298.985 111.852 211.633 111.852 122.552C181.687 177.741 250.454 232.085 320.252 287.243C320.252 240.944 320.252 196.019 320.252 150.027C298.07 132.513 275.136 114.405 251.792 95.9729C231.119 112.306 210.87 128.305 189.896 144.876C222.895 170.99 254.907 196.322 287.229 221.9C287.229 224.137 287.229 226.542 287.229 230.066C233.804 187.859 180.96 146.11 126.922 103.419C168.667 70.3882 209.912 37.7537 251.739 4.65869C298.796 41.8309 345.573 78.7807 391.892 115.369C391.892 203.484 391.892 290.843 391.892 379.476C322.246 324.441 253.456 270.082 183.528 214.823C183.528 261.349 183.528 306.276 183.528 352.042C205.735 369.559 228.483 387.503 251.746 405.853C272.204 389.716 292.52 373.69 313.649 357.023Z" fill="black"/>
</svg>
