<svg width="500" height="501" viewBox="0 0 500 501" fill="none" xmlns="http://www.w3.org/2000/svg">
<g clip-path="url(#clip0_1_8495)">
<path d="M250.1 500.327C388.116 500.327 500 388.443 500 250.427C500 112.411 388.116 0.527344 250.1 0.527344C112.084 0.527344 0.199951 112.411 0.199951 250.427C0.199951 388.443 112.084 500.327 250.1 500.327Z" fill="#3B3B46"/>
<path d="M250.078 233.873L233.461 250.49L250.078 267.107L266.695 250.49L250.078 233.873Z" fill="#FFBE12"/>
<path d="M223.293 260.556L139.36 344.488L155.977 361.105L239.909 277.172L223.293 260.556Z" fill="#FFBE12"/>
<path d="M344.018 139.909L260.085 223.842L276.702 240.459L360.635 156.526L344.018 139.909Z" fill="#FFBE12"/>
<path d="M239.933 223.787L156 139.854L139.383 156.471L223.316 240.404L239.933 223.787Z" fill="#FFBE12"/>
<path d="M360.658 344.434L276.725 260.501L260.108 277.118L344.041 361.051L360.658 344.434Z" fill="#FFBE12"/>
</g>
<defs>
<clipPath id="clip0_1_8495">
<rect width="500" height="500" fill="white" transform="translate(0 0.527344)"/>
</clipPath>
</defs>
</svg>
