<svg width="500" height="501" viewBox="0 0 500 501" fill="none" xmlns="http://www.w3.org/2000/svg">
<g clip-path="url(#clip0_1_8504)">
<path d="M252.076 499.519C261.126 498.05 267.271 489.523 265.803 480.474C264.334 471.424 255.807 465.278 246.757 466.747C237.708 468.216 231.562 476.743 233.031 485.792C234.5 494.842 243.026 500.988 252.076 499.519Z" fill="#4C51BF"/>
<path d="M50.6 151.127C59.8 151.127 67.2 143.727 67.2 134.527C67.2 134.327 67.2 134.127 67.2 133.927V134.027L138.7 89.5272C141.7 92.9272 146.2 95.1272 151.1 95.1272C155.6 95.1272 159.7 93.3272 162.7 90.3272L229.4 132.927C229.4 133.427 229.3 133.927 229.3 134.527C229.3 145.527 238.3 154.527 249.3 154.527C260.3 154.527 269.3 145.527 269.3 134.527C269.3 134.127 269.3 133.827 269.2 133.427L338.3 91.5272C341.3 94.4272 345.3 96.1272 349.8 96.1272C359 96.1272 366.4 88.7272 366.4 79.5272C366.4 70.3272 359 62.9272 349.8 62.9272C340.8 62.9272 333.5 70.1272 333.3 79.0272L333 78.6272L263.7 120.627C260.1 116.827 254.9 114.427 249.2 114.427C243.7 114.427 238.7 116.627 235.1 120.327L167.5 77.1272C166.8 68.6272 159.7 61.9272 151 61.9272C142.8 61.9272 136 67.9272 134.7 75.7272L61 121.627C58.2 119.327 54.5 117.927 50.6 117.927C41.4 117.927 34 125.327 34 134.527C34 143.727 41.4 151.127 50.6 151.127Z" fill="#4C51BF"/>
<path d="M253.197 34.0771C262.12 31.9703 267.645 23.0295 265.538 14.1073C263.431 5.18508 254.49 -0.339925 245.568 1.76687C236.646 3.87365 231.121 12.8144 233.228 21.7367C235.334 30.6589 244.275 36.1839 253.197 34.0771Z" fill="#4C51BF"/>
<path d="M449.4 233.427C440.2 233.427 432.8 240.827 432.8 250.027C432.8 250.727 432.9 251.427 433 252.127L364.6 293.527C360.9 289.627 355.8 287.127 350 287.127C343.4 287.127 337.6 290.327 333.9 295.227L275.1 257.627C275.9 255.227 276.3 252.627 276.3 249.927C276.3 247.727 276 245.527 275.5 243.427L336.6 206.427C340.2 209.627 344.9 211.627 350 211.627C361 211.627 370 202.627 370 191.627C370 190.727 369.9 189.927 369.8 189.127L438.9 147.327C441.8 149.727 445.4 151.127 449.4 151.127C458.6 151.127 466 143.727 466 134.527C466 125.327 458.6 117.927 449.4 117.927C440.2 117.927 432.8 125.327 432.8 134.527C432.8 134.627 432.8 134.827 432.8 134.927L363.4 176.927C359.8 173.627 355.1 171.627 349.9 171.627C338.9 171.627 329.9 180.627 329.9 191.627C329.9 192.527 330 193.427 330.1 194.227L268.5 231.527C263.9 226.927 257.5 224.127 250.5 224.127C242.7 224.127 235.8 227.627 231.1 233.027L167.6 192.527C167.6 192.227 167.6 191.927 167.6 191.627C167.6 180.627 158.6 171.627 147.6 171.627C136.6 171.627 127.6 180.627 127.6 191.627C127.6 193.227 127.8 194.827 128.2 196.327L61.6 237.627C58.7 234.927 54.7 233.227 50.4 233.227C41.2 233.227 33.8 240.627 33.8 249.827C33.8 259.027 41.4 266.527 50.6 266.527C59.6 266.527 66.9 259.427 67.1 250.527L135.9 207.827C139.2 210.227 143.3 211.727 147.7 211.727C153.4 211.727 158.6 209.327 162.2 205.427L225.2 245.627C225 247.027 224.8 248.427 224.8 249.927C224.8 252.527 225.2 255.027 225.9 257.427L166 293.727C162.3 289.627 157 287.027 151.1 287.027C140.1 287.027 131.1 296.027 131.1 307.027C131.1 308.027 131.2 308.927 131.3 309.827L61.7 353.127C58.8 350.427 54.8 348.727 50.5 348.727C41.3 348.727 33.9 356.127 33.9 365.327C33.9 374.527 41.3 381.927 50.5 381.927C59.5 381.927 66.8 374.827 67 365.927L137.7 322.027C141.2 325.127 145.9 327.127 151 327.127C162 327.127 171 318.127 171 307.127C171 307.027 171 306.827 171 306.727L233.2 269.027C237.8 273.127 243.8 275.627 250.4 275.627C257 275.627 263 273.127 267.5 269.127L329.9 309.027C330.9 319.127 339.4 327.127 349.8 327.127C360.8 327.127 369.8 318.127 369.8 307.127C369.8 306.827 369.8 306.627 369.8 306.327L440.1 263.727C442.7 265.527 445.9 266.527 449.3 266.527C458.5 266.527 465.9 259.127 465.9 249.927C465.9 240.727 458.6 233.427 449.4 233.427Z" fill="#4C51BF"/>
<path d="M449.4 348.827C440.4 348.827 433 356.027 432.8 365.027L359 409.727C356.4 408.027 353.3 407.027 350 407.027C346.3 407.027 342.8 408.227 340.1 410.327L269.4 365.127C269.4 364.827 269.5 364.427 269.5 364.127C269.5 353.127 260.5 344.127 249.5 344.127C238.5 344.127 229.5 353.127 229.5 364.127C229.5 365.527 229.6 366.827 229.9 368.227L161.6 409.627C158.8 407.327 155.1 405.927 151.2 405.927C142 405.927 134.6 413.327 134.6 422.527C134.6 431.727 142 439.127 151.2 439.127C160.4 439.127 167.8 431.727 167.8 422.527C167.8 422.327 167.8 422.127 167.8 421.927V422.027L237.2 380.027C240.6 382.727 244.9 384.327 249.6 384.327C255.3 384.327 260.4 381.927 264.1 378.127L333.7 422.627C333.7 423.027 333.6 423.427 333.6 423.827C333.6 433.027 341 440.427 350.2 440.427C359.4 440.427 366.8 433.027 366.8 423.827C366.8 423.027 366.7 422.227 366.6 421.527L438.6 377.927C441.5 380.527 445.4 382.127 449.6 382.127C458.8 382.127 466.2 374.727 466.2 365.527C466 356.227 458.6 348.827 449.4 348.827Z" fill="#4C51BF"/>
</g>
<defs>
<clipPath id="clip0_1_8504">
<rect width="500" height="500" fill="white" transform="translate(0 0.527344)"/>
</clipPath>
</defs>
</svg>
