<svg width="500" height="501" viewBox="0 0 500 501" fill="none" xmlns="http://www.w3.org/2000/svg">
<path fill-rule="evenodd" clip-rule="evenodd" d="M421.8 392.128C421.8 411.628 406.3 427.528 387.4 427.528C377.9 427.528 369.3 423.528 363 417.128C356.8 410.728 352.9 401.828 352.9 392.128V321.328C352.9 237.528 295.9 167.028 219.6 148.828C227 123.728 243.4 102.428 264.7 89.0275C280.4 79.1275 298.8 73.5275 318.4 73.5275C375.4 73.5275 421.7 121.128 421.7 179.728V392.128H421.8ZM318.4 2.72754C262.2 2.72754 212.2 30.6275 180.7 73.5275H180.6C165 94.9275 154 120.028 149.1 147.328C69.2 162.528 8.5 234.828 8.5 321.328V392.128C8.5 402.928 10 413.228 12.9 423.028C25.8 466.628 65.3 498.328 111.8 498.328C168.8 498.328 215.1 450.728 215.1 392.128V321.328C215.1 301.828 199.6 285.928 180.7 285.928C161.7 285.928 146.3 301.828 146.3 321.328V392.128C146.3 411.628 130.8 427.528 111.9 427.528C102.4 427.528 93.8 423.528 87.5 417.128C81.3 410.728 77.4 401.828 77.4 392.128V321.328C77.4 275.128 106.2 235.828 146.3 221.228C157.1 217.328 168.7 215.128 180.7 215.128C192.8 215.128 204.4 217.328 215.1 221.228C255.2 235.828 284 275.228 284 321.328V392.128C284 402.928 285.5 413.228 288.4 423.028C301.3 466.628 340.8 498.328 387.3 498.328C444.3 498.328 490.6 450.728 490.6 392.128V179.728C490.6 82.1275 413.4 2.72754 318.4 2.72754Z" fill="#2BD0F4"/>
</svg>
