<svg width="500" height="501" viewBox="0 0 500 501" fill="none" xmlns="http://www.w3.org/2000/svg">
<path d="M476.8 198.527L369.3 92.8273C343.4 67.3273 301.9 66.8273 275.4 91.7273L244.8 120.527L222.1 97.3273C196.4 71.0273 154.3 70.3273 127.7 95.7273L22.3 196.327C-5.20004 222.627 -6.20004 266.227 20.2 293.727L129.2 407.127C154.9 433.827 197.4 434.627 224.1 409.027L253.7 380.527L278.8 405.027C304.4 430.027 345.3 430.227 371.1 405.527L476.1 305.027C506.3 276.027 506.7 227.827 476.8 198.527ZM206.9 390.427C191 406.127 165.5 406.127 149.6 390.427L40.4 283.127C21.5 264.527 21.6 234.127 40.6 215.727L145.2 114.227C161 98.9273 186 98.6273 202.1 113.627L210.1 121.027L140.4 188.627C129.4 199.327 129.3 217.027 140.2 227.827L217.9 304.727C227.8 314.527 243.6 314.527 253.5 304.727L329.7 229.527C329.7 229.527 338.1 240.427 337.5 252.327C336.9 264.227 327.1 271.727 327.1 271.727L206.9 390.427ZM460.3 283.127L354 386.427C338.2 401.727 313.2 401.927 297.2 386.827L290.7 380.727L376 299.727C389 287.427 389.2 266.727 376.6 254.127L300.7 178.527C290.5 168.327 274 168.427 263.9 178.627L189.7 253.527C189.7 253.527 183 242.527 183.6 230.627C184.2 218.827 192.3 211.327 192.3 211.327L291.3 111.427C307.8 94.8273 334.7 94.9273 351 111.727L461.1 224.827C477 241.127 476.6 267.227 460.3 283.127Z" fill="url(#paint0_radial_1_8513)"/>
<defs>
<radialGradient id="paint0_radial_1_8513" cx="0" cy="0" r="1" gradientUnits="userSpaceOnUse" gradientTransform="translate(157.691 103.889) scale(356.775 356.775)">
<stop stop-color="#8E388E"/>
<stop offset="1" stop-color="#1D4C8B"/>
</radialGradient>
</defs>
</svg>
