<svg width="500" height="501" viewBox="0 0 500 501" fill="none" xmlns="http://www.w3.org/2000/svg">
<path d="M376.5 96.3273L336.7 115.227C336.5 115.327 336.3 115.427 336.2 115.627C336 115.827 335.9 116.027 335.9 116.227C335.8 116.427 335.8 116.627 335.8 116.927C335.8 117.127 335.9 117.327 336 117.527L396.6 245.227C419.1 292.727 413.1 328.827 378.9 345.127C351.2 358.227 327.3 349.127 308.6 317.027L236.9 165.727C207.6 104.427 168 88.2273 120.9 110.527C90.3 125.027 72.6 150.927 72.9 183.927C72.9 184.327 72.8 184.727 72.5 185.027C72.3 185.327 71.9 185.527 71.5 185.627C71.1 185.727 70.7 185.627 70.4 185.527C70 185.327 69.8 185.027 69.6 184.727L53.9 151.727C53.8 151.527 53.7 151.327 53.5 151.227C53.3 151.027 53.1 150.927 52.9 150.927C52.7 150.827 52.5 150.827 52.2 150.827C52 150.827 51.8 150.927 51.6 151.027L12 169.627C11.6 169.827 11.3 170.127 11.1 170.627C10.9 171.027 11 171.527 11.2 171.927L121.2 403.927C121.4 404.327 121.7 404.627 122.2 404.827C122.6 405.027 123.1 404.927 123.5 404.727L163.3 385.827C163.5 385.727 163.7 385.627 163.8 385.427C164 385.227 164.1 385.027 164.1 384.827C164.2 384.627 164.2 384.427 164.2 384.127C164.2 383.927 164.1 383.727 164 383.527L105.1 259.327C81.1 208.727 85.7 172.127 122.4 154.727C150.6 141.327 172.6 150.327 192.3 184.627C192.3 184.627 192.3 184.727 192.4 184.727L263.4 334.527C290.8 392.327 333.4 412.127 378.3 390.827C413.1 374.327 427.5 349.527 426.6 316.927C426.6 316.527 426.7 316.127 427 315.827C427.2 315.527 427.6 315.327 428 315.227C428.4 315.127 428.8 315.227 429.1 315.327C429.5 315.527 429.7 315.827 429.9 316.127L445.7 349.527C445.8 349.727 445.9 349.927 446.1 350.027C446.3 350.227 446.5 350.327 446.7 350.327C446.9 350.427 447.1 350.427 447.4 350.427C447.6 350.427 447.8 350.327 448 350.227L487.8 331.327C488 331.227 488.2 331.127 488.3 330.927C488.5 330.727 488.6 330.527 488.6 330.327C488.7 330.127 488.7 329.927 488.7 329.627C488.7 329.427 488.6 329.227 488.5 329.027L378.5 97.0273C378.3 96.6273 378 96.3273 377.5 96.1273C377 95.9273 376.9 96.1273 376.5 96.3273Z" fill="#1E65F3"/>
</svg>
