<svg width="500" height="501" viewBox="0 0 500 501" fill="none" xmlns="http://www.w3.org/2000/svg">
<path d="M449.47 373.667C477.377 373.667 500 351.044 500 323.137C500 295.23 477.377 272.607 449.47 272.607C421.563 272.607 398.94 295.23 398.94 323.137C398.94 351.044 421.563 373.667 449.47 373.667Z" fill="#0AB682"/>
<path d="M181.01 499.197C208.917 499.197 231.54 476.574 231.54 448.667C231.54 420.761 208.917 398.137 181.01 398.137C153.103 398.137 130.48 420.761 130.48 448.667C130.48 476.574 153.103 499.197 181.01 499.197Z" fill="#0AB682"/>
<path d="M50.53 231.107C78.437 231.107 101.06 208.484 101.06 180.577C101.06 152.67 78.437 130.047 50.53 130.047C22.6231 130.047 0 152.67 0 180.577C0 208.484 22.6231 231.107 50.53 231.107Z" fill="#0AB682"/>
<path d="M321.64 102.917C349.547 102.917 372.17 80.2944 372.17 52.3874C372.17 24.4805 349.547 1.85742 321.64 1.85742C293.733 1.85742 271.11 24.4805 271.11 52.3874C271.11 80.2944 293.733 102.917 321.64 102.917Z" fill="#0AB682"/>
<path d="M326.24 463.987C344.72 482.467 376.73 484.397 395.75 466.487C415.92 447.497 416.28 415.747 396.83 396.297L352.49 351.957C333.59 333.057 333.59 302.427 352.49 283.527L464.53 171.487C483.01 153.007 484.94 120.997 467.03 101.977C448.04 81.8073 416.29 81.4473 396.84 100.897L347.62 150.117C331.42 166.317 305.15 166.317 288.94 150.117L173.88 35.0473C155.4 16.5673 123.39 14.6373 104.37 32.5473C84.2 51.5373 83.84 83.2873 103.29 102.737L150.1 149.547C169 168.447 169 199.077 150.1 217.977L36.61 331.467C17.16 350.917 17.52 382.667 37.69 401.657C56.71 419.567 88.73 417.637 107.2 399.157L154.97 351.387C171.17 335.187 197.44 335.187 213.65 351.387L326.24 463.987ZM214.58 288.087C194.43 267.937 194.43 235.267 214.58 215.117C234.73 194.967 267.4 194.967 287.55 215.117C307.7 235.267 307.7 267.937 287.55 288.087C267.4 308.237 234.73 308.237 214.58 288.087Z" fill="#0AB682"/>
</svg>
