<svg width="500" height="501" viewBox="0 0 500 501" fill="none" xmlns="http://www.w3.org/2000/svg">
<g clip-path="url(#clip0_1_8526)">
<path d="M24.2002 362.427L117.9 204.427C114.2 200.127 112 194.527 112 188.427C112 186.227 112.3 184.127 112.8 182.127L24.2002 133.527V362.427Z" fill="black"/>
<path d="M30.3999 378.327L238.8 500.527L141.8 337.027C140.3 337.327 138.7 337.427 137.1 337.427C129.9 337.427 123.5 334.427 118.9 329.727L30.3999 378.327Z" fill="black"/>
<path d="M261.2 500.527L469.6 378.327L381.1 329.727C376.5 334.527 370.1 337.427 362.9 337.427C361.3 337.427 359.7 337.227 358.2 337.027L261.2 500.527Z" fill="black"/>
<path d="M475.8 362.427V133.527L387.2 182.227C387.7 184.227 388 186.327 388 188.527C388 194.627 385.8 200.227 382.1 204.527L475.8 362.427Z" fill="black"/>
<path d="M469.6 122.727L261.2 0.527344L358.2 164.027C359.7 163.727 361.3 163.627 362.9 163.627C370.1 163.627 376.5 166.627 381.1 171.327L469.6 122.727Z" fill="black"/>
<path d="M238.8 0.527344L30.3999 122.727L118.9 171.327C123.5 166.527 129.9 163.627 137.1 163.627C138.7 163.627 140.3 163.827 141.8 164.027L238.8 0.527344Z" fill="black"/>
<path d="M338.6 306.328C338.1 308.328 337.8 310.428 337.8 312.628C337.8 320.228 341.3 327.128 346.8 331.628L258.4 480.728V262.228L338.6 306.328Z" fill="black"/>
<path d="M153.2 331.628L241.6 480.728V262.228L161.3 306.328C161.8 308.328 162.1 310.428 162.1 312.628C162.2 320.228 158.7 327.028 153.2 331.628Z" fill="black"/>
<path d="M338.6 194.727L258.3 238.827V20.3271L346.7 169.427C341.2 174.027 337.7 180.827 337.7 188.427C337.8 190.627 338.1 192.727 338.6 194.727Z" fill="black"/>
<path d="M153.2 169.427L241.6 20.3271V238.827L161.3 194.727C161.8 192.727 162.1 190.627 162.1 188.427C162.2 180.827 158.7 174.027 153.2 169.427Z" fill="black"/>
<path d="M356.6 288.527C352 289.727 347.9 292.127 344.7 295.427L262.9 250.427L344.7 205.427C347.9 208.727 352 211.227 356.6 212.327V288.527Z" fill="black"/>
<path d="M387.2 318.828C387.7 316.828 388 314.728 388 312.528C388 300.928 380 291.228 369.2 288.528V212.528C370.1 212.328 371 212.028 371.9 211.728L458.8 358.228L387.2 318.828Z" fill="black"/>
<path d="M237.1 250.528L155.3 295.528C152.1 292.228 148 289.728 143.4 288.628V212.628C148 211.428 152.1 209.028 155.3 205.728L237.1 250.528Z" fill="black"/>
<path d="M130.8 212.527V288.527C120 291.327 112 301.027 112 312.527C112 314.727 112.3 316.827 112.8 318.827L41.2002 358.127L128.1 211.627C129 212.027 129.9 212.227 130.8 212.527Z" fill="black"/>
</g>
<defs>
<clipPath id="clip0_1_8526">
<rect width="500" height="500" fill="white" transform="translate(0 0.527344)"/>
</clipPath>
</defs>
</svg>
