<svg width="500" height="501" viewBox="0 0 500 501" fill="none" xmlns="http://www.w3.org/2000/svg">
<path d="M465.447 133.306C462.596 132.413 460.466 131.794 458.368 131.079C443.81 126.118 429.253 121.307 413.757 119.943C394.67 118.263 375.874 120.048 357.225 123.915C294.98 136.824 238.29 162.568 186.561 199.156C167.981 212.298 150.574 227.098 132.633 241.143C131.689 241.882 130.762 242.645 129.814 243.379C126.53 245.92 123.639 247.14 119.191 244.619C110.82 239.875 100.081 241.987 93.1923 248.644C86.1573 255.441 83.6613 265.862 87.9203 274.465C90.7393 280.159 89.0043 284.36 85.5803 288.628C79.9973 295.588 74.2623 302.43 68.8223 309.499C55.7683 326.461 44.6263 344.521 37.4213 364.832C36.6343 367.051 34.7923 368.896 33.0393 371.513C30.6053 366.405 28.4363 361.998 26.3913 357.534C13.5543 329.505 4.8623 300.303 1.9933 269.528C-1.7297 229.593 5.0933 191.384 21.4553 154.856C35.1323 124.321 53.3063 96.7314 76.8973 72.9474C108.876 40.7054 147.337 20.2114 191.733 10.7394C215.342 5.70243 239.24 3.93943 263.279 5.00443C320.702 7.54843 371.005 28.0474 414.015 66.1664C434.63 84.4374 451.821 105.48 464.058 130.334C464.413 131.06 464.743 131.8 465.447 133.306ZM341.759 180.163C331.573 176.101 320.824 174.775 310.02 174.664C289.417 174.452 269.553 179.167 249.991 185.084C213.56 196.105 180.777 214.341 149.975 236.377C144.245 240.476 138.647 244.762 133.019 249.003C130.327 251.032 129.094 252.98 130.728 256.89C134.581 266.107 132.651 274.746 125.746 281.998C119.33 288.736 109.252 290.606 100.384 287.039C96.1153 285.322 92.5223 286.086 89.9333 289.871C80.4983 303.666 70.7653 317.288 62.0003 331.503C53.6583 345.031 48.1963 359.777 48.0403 376.532C48.1513 378.361 48.1203 380.704 48.4593 382.991C51.4723 403.279 64.5143 414.27 83.0143 420.267C102.624 426.624 122.406 424.444 141.635 419.758C222.458 400.061 289.088 357.929 339.999 291.735C354.876 272.392 365.91 251.254 368.95 226.56C371.475 206.042 360.92 187.803 341.759 180.163Z" fill="url(#paint0_linear_1_8541)"/>
<path d="M159.475 478.019C169.46 475.343 178.399 473.118 187.239 470.551C232.434 457.43 274.583 437.616 314.144 412.248C349.21 389.762 382.104 364.497 411.624 334.997C439.929 306.711 462.362 274.364 478.861 237.889C482.505 229.832 486.523 221.944 490.379 213.983C490.663 213.396 491.033 212.851 492.034 211.137C493.396 217.202 494.908 222.179 495.591 227.267C499.559 256.837 495.489 285.739 487.54 314.189C475.843 356.057 455.787 393.25 424.513 423.864C384.482 463.05 336.584 486.294 281.049 493.556C244.61 498.321 208.794 495.485 173.882 483.547C169.31 481.984 164.851 480.092 159.475 478.019Z" fill="url(#paint1_linear_1_8541)"/>
<defs>
<linearGradient id="paint0_linear_1_8541" x1="234.061" y1="-1.12097" x2="232.196" y2="426.077" gradientUnits="userSpaceOnUse">
<stop stop-color="#71C7EB"/>
<stop offset="1" stop-color="#186D94"/>
</linearGradient>
<linearGradient id="paint1_linear_1_8541" x1="159.475" y1="353.445" x2="497.129" y2="353.445" gradientUnits="userSpaceOnUse">
<stop stop-color="#71C7EB"/>
<stop offset="1" stop-color="#186D94"/>
</linearGradient>
</defs>
</svg>
