<svg width="500" height="501" viewBox="0 0 500 501" fill="none" xmlns="http://www.w3.org/2000/svg">
<path d="M358.9 322.217L217.484 228.54H179.548C166.436 228.54 155.806 217.91 155.806 204.798C155.806 191.686 166.436 181.056 179.548 181.056H231.667L373.083 274.733H434.502C436.308 259.388 436.308 243.885 434.502 228.54H363.805C350.693 228.54 340.063 217.91 340.063 204.798C340.063 191.686 350.693 181.056 363.805 181.056H421.87C382.643 86.0914 274.001 40.9414 179.291 80.1554C127.702 101.318 88.4383 144.657 72.4543 198.078L188.581 274.981H225.226C238.338 274.981 248.968 285.611 248.968 298.723C248.968 311.835 238.338 322.465 225.226 322.465H173.873L64.4453 249.702V251.766C64.6933 354.473 148.056 437.321 250.763 437.053C325.599 436.805 393.212 391.635 421.858 322.475L358.891 322.227L358.9 322.217Z" fill="#008FBB"/>
<path opacity="0.3" d="M250 469.326C220.47 469.326 191.814 463.539 164.828 452.125C138.771 441.104 115.374 425.33 95.2861 405.242C75.1971 385.154 59.4241 361.756 48.4031 335.7C36.9891 308.714 31.2021 280.058 31.2021 250.528C31.2021 220.998 36.9891 192.342 48.4031 165.356C59.4241 139.3 75.1981 115.902 95.2861 95.8142C115.374 75.7252 138.772 59.9522 164.828 48.9312C191.814 37.5172 220.47 31.7302 250 31.7302C279.53 31.7302 308.186 37.5172 335.172 48.9312C361.228 59.9522 384.626 75.7262 404.714 95.8142C424.803 115.902 440.576 139.3 451.597 165.356C463.011 192.342 468.798 220.998 468.798 250.528C468.798 280.058 463.011 308.714 451.597 335.7C440.576 361.756 424.802 385.154 404.714 405.242C384.626 425.331 361.228 441.104 335.172 452.125C308.186 463.538 279.53 469.326 250 469.326ZM250 66.2382C225.114 66.2382 200.981 71.1082 178.272 80.7132C156.329 89.9942 136.619 103.284 119.688 120.215C102.758 137.145 89.4672 156.856 80.1862 178.799C70.5812 201.508 65.7112 225.641 65.7112 250.527C65.7112 275.413 70.5812 299.546 80.1862 322.255C89.4672 344.198 102.757 363.908 119.688 380.839C136.618 397.769 156.329 411.06 178.272 420.341C200.981 429.946 225.114 434.816 250 434.816C274.886 434.816 299.019 429.946 321.728 420.341C343.671 411.06 363.381 397.77 380.311 380.839C397.241 363.908 410.532 344.198 419.813 322.255C429.418 299.546 434.288 275.413 434.288 250.527C434.288 225.641 429.418 201.508 419.813 178.799C410.532 156.856 397.242 137.146 380.311 120.215C363.381 103.285 343.67 89.9942 321.728 80.7132C299.019 71.1082 274.886 66.2382 250 66.2382Z" fill="#008FBB"/>
<path opacity="0.1" d="M250 496.954C216.739 496.954 184.465 490.436 154.075 477.583C124.729 465.171 98.3772 447.404 75.7502 424.777C53.1232 402.15 35.3572 375.798 22.9442 346.452C10.0902 316.062 3.57324 283.788 3.57324 250.527C3.57324 217.266 10.0902 184.992 22.9442 154.602C35.3562 125.256 53.1232 98.9043 75.7502 76.2773C98.3772 53.6503 124.729 35.8843 154.075 23.4713C184.465 10.6173 216.739 4.10034 250 4.10034C283.261 4.10034 315.535 10.6173 345.925 23.4713C375.271 35.8833 401.623 53.6503 424.25 76.2773C446.877 98.9043 464.643 125.256 477.056 154.602C489.91 184.992 496.427 217.266 496.427 250.527C496.427 283.788 489.91 316.062 477.056 346.452C464.644 375.798 446.877 402.151 424.25 424.777C401.623 447.403 375.271 465.17 345.925 477.583C315.535 490.437 283.261 496.954 250 496.954ZM250 32.4473C220.553 32.4473 191.995 38.2113 165.118 49.5793C139.151 60.5623 115.827 76.2883 95.7953 96.3213C75.7623 116.354 60.0362 139.677 49.0532 165.644C37.6852 192.521 31.9213 221.079 31.9213 250.526C31.9213 279.973 37.6852 308.531 49.0532 335.408C60.0362 361.375 75.7623 384.699 95.7953 404.732C115.828 424.765 139.151 440.491 165.118 451.474C191.995 462.842 220.553 468.606 250 468.606C279.447 468.606 308.005 462.842 334.882 451.474C360.849 440.491 384.173 424.765 404.205 404.732C424.238 384.699 439.964 361.375 450.947 335.408C462.315 308.531 468.079 279.973 468.079 250.526C468.079 221.079 462.315 192.521 450.947 165.644C439.964 139.677 424.238 116.353 404.205 96.3213C384.173 76.2883 360.849 60.5623 334.882 49.5793C308.005 38.2113 279.447 32.4473 250 32.4473Z" fill="#008FBB"/>
<path d="M251.291 439.426C354.62 439.426 438.384 355.662 438.384 252.333C438.384 149.005 354.62 65.2402 251.291 65.2402C147.963 65.2402 64.1982 149.005 64.1982 252.333C64.1982 355.662 147.963 439.426 251.291 439.426Z" fill="#008FBB"/>
<path d="M112.196 256.668H143.163C150.289 256.668 156.066 262.446 156.066 269.572C156.066 276.698 150.289 282.474 143.163 282.474H112.196C105.07 282.474 99.293 276.698 99.293 269.572C99.293 262.446 105.07 256.668 112.196 256.668ZM313.483 208.927H390.901C398.027 208.927 403.804 214.704 403.804 221.83C403.804 228.956 398.027 234.733 390.901 234.733H313.483C306.357 234.733 300.58 228.956 300.58 221.83C300.579 214.704 306.356 208.927 313.483 208.927Z" fill="white"/>
<path d="M377.998 250.475V221.574C378.014 214.603 383.661 208.956 390.633 208.939H391.148C398.119 208.955 403.766 214.602 403.783 221.574V250.475C403.767 257.446 398.12 263.093 391.148 263.11H390.633C383.416 263.119 377.998 257.444 377.998 250.475ZM150.905 211.508L220.581 257.959H243.806C250.932 257.959 256.709 263.736 256.709 270.862C256.709 277.988 250.932 283.765 243.806 283.765H212.839C208.194 283.765 204.064 281.441 201.743 277.324L202.519 278.615L138.003 234.733H112.196C105.07 234.733 99.293 228.956 99.293 221.83C99.293 214.704 105.07 208.927 112.196 208.927H143.163C146.775 208.927 150.389 210.475 152.711 213.314M256.441 211.508L329.481 257.959H353.739C360.965 257.711 367.159 263.637 367.159 270.861C366.911 278.087 360.966 284.021 353.739 283.763H321.223C316.578 283.763 311.933 281.439 309.609 277.322L310.384 278.613L242.772 234.734H215.935C208.709 234.982 202.515 229.056 202.515 221.832C202.763 214.606 208.708 208.672 215.935 208.93H248.451C252.277 208.897 255.937 210.492 258.517 213.317" fill="white"/>
</svg>
