<svg width="500" height="501" viewBox="0 0 500 501" fill="none" xmlns="http://www.w3.org/2000/svg">
<path d="M395.6 432.227L373.9 147.327L342.3 149.727L360.4 387.727L209.1 339.727C210.3 333.927 211 327.927 211 321.727C211 302.927 204.9 285.527 194.6 271.427L377.2 88.8273L164.3 57.2273C157 27.9273 130.6 6.22729 99.0002 6.22729C61.8002 6.22729 31.7002 36.4273 31.7002 73.5273C31.7002 106.527 55.5002 133.927 86.8002 139.727L92.4002 242.727C61.5002 255.627 39.8002 286.127 39.8002 321.727C39.8002 369.027 78.1002 407.327 125.4 407.327C155.2 407.327 181.4 392.127 196.7 369.027L395.6 432.227ZM118.5 138.127C141.3 131.227 158.9 112.727 164.5 89.4273L310.2 111.027L171.4 249.727C158.1 241.227 142.3 236.227 125.3 236.227C124.8 236.227 124.3 236.327 123.8 236.327L118.5 138.127Z" fill="#666472"/>
<path d="M379.6 495.827C428.422 495.827 468 456.249 468 407.427C468 358.605 428.422 319.027 379.6 319.027C330.778 319.027 291.2 358.605 291.2 407.427C291.2 456.249 330.778 495.827 379.6 495.827Z" fill="#F07748"/>
<path d="M341.7 181.727C385.055 181.727 420.2 146.582 420.2 103.227C420.2 59.8729 385.055 24.7273 341.7 24.7273C298.346 24.7273 263.2 59.8729 263.2 103.227C263.2 146.582 298.346 181.727 341.7 181.727Z" fill="#F07748"/>
<path d="M341.7 142.927C363.626 142.927 381.4 125.153 381.4 103.227C381.4 81.3016 363.626 63.5273 341.7 63.5273C319.774 63.5273 302 81.3016 302 103.227C302 125.153 319.774 142.927 341.7 142.927Z" fill="#666472"/>
<path d="M127.2 374.127C157.078 374.127 181.3 349.906 181.3 320.027C181.3 290.149 157.078 265.927 127.2 265.927C97.321 265.927 73.0996 290.149 73.0996 320.027C73.0996 349.906 97.321 374.127 127.2 374.127Z" fill="#F07748"/>
</svg>
