<svg width="500" height="501" viewBox="0 0 500 501" fill="none" xmlns="http://www.w3.org/2000/svg">
<path d="M301.894 265.284H270.112L245.012 216.278L219.926 265.895L206.591 293.37L192.534 321.582H161.503L245.776 152.563L301.894 265.284ZM460.759 152.535L412.767 214.056L430.464 237.044L496.277 152.535H460.759ZM412.767 260.047L460.759 321.582H496.277L430.464 237.044L412.767 260.047ZM146.723 177.01C131.015 160.914 109.341 152.044 86.8556 152.507C69.346 152.206 52.2234 157.672 38.1278 168.064L58.7412 188.9C67.2032 183.773 76.9654 181.197 86.8556 181.482C101.869 181.089 116.351 187.051 126.735 197.901C137.145 208.617 142.975 222.965 142.987 237.906C143.343 252.947 137.454 267.464 126.721 278.007C126.179 278.577 125.61 279.133 125.04 279.688C103.016 300.772 68.0724 300.02 46.9758 278.007C36.5642 267.293 30.7392 252.943 30.7378 238.003C30.6698 227.788 33.4812 217.76 38.8498 209.069L18.1256 188.233C7.77619 202.39 2.32859 219.538 2.60999 237.072C2.60019 237.762 2.59918 238.451 2.60658 239.141C3.10218 285.167 40.8154 322.077 86.8418 321.582C110.483 321.582 130.486 314.15 146.724 297.135C162.528 281.163 171.299 259.541 171.087 237.072C171.638 214.541 162.815 192.791 146.723 177.01ZM364.651 153.285H328.411L394.651 237.42L328.93 320.922L315.229 293.37H284.17L298.227 321.582H328.411H329.258H364.651L412.643 260.019L395.235 237.419L412.643 214.82L364.651 153.285Z" fill="#1B457D"/>
</svg>
