<svg width="500" height="501" viewBox="0 0 500 501" fill="none" xmlns="http://www.w3.org/2000/svg">
<g clip-path="url(#clip0_1_8561)">
<path fill-rule="evenodd" clip-rule="evenodd" d="M66.1004 241.227C66.1004 255.927 54.2004 267.827 39.5004 267.827C24.8004 267.827 12.9004 255.927 12.9004 241.227C12.9004 226.527 24.8004 214.627 39.5004 214.627C54.2004 214.627 66.1004 226.527 66.1004 241.227ZM488.5 241.227C488.5 255.927 476.6 267.827 461.9 267.827C447.2 267.827 435.3 255.927 435.3 241.227C435.3 226.527 447.2 214.627 461.9 214.627C476.6 214.627 488.5 226.527 488.5 241.227ZM277.3 346.027C277.3 360.727 265.4 372.627 250.7 372.627C236 372.627 224.1 360.727 224.1 346.027C224.1 331.327 236 319.427 250.7 319.427C265.4 319.527 277.3 331.427 277.3 346.027ZM171 294.327C171 309.027 159.1 320.927 144.4 320.927C129.7 320.927 117.8 309.027 117.8 294.327C117.8 279.627 129.7 267.727 144.4 267.727C159.1 267.727 171 279.627 171 294.327ZM382.2 294.327C382.2 309.027 370.3 320.927 355.6 320.927C340.9 320.927 329 309.027 329 294.327C329 279.627 340.9 267.727 355.6 267.727C370.3 267.727 382.2 279.627 382.2 294.327ZM57.5004 321.627C57.5004 331.527 49.5004 339.627 39.5004 339.627C29.6004 339.627 21.5004 331.527 21.5004 321.627C21.5004 311.727 29.5004 303.627 39.5004 303.627C49.4004 303.727 57.5004 311.727 57.5004 321.627ZM479.9 321.627C479.9 331.527 471.9 339.627 461.9 339.627C452 339.627 443.9 331.527 443.9 321.627C443.9 311.727 451.9 303.627 461.9 303.627C471.8 303.727 479.9 311.727 479.9 321.627ZM268.7 427.927C268.7 437.827 260.7 445.927 250.7 445.927C240.8 445.927 232.7 437.827 232.7 427.927C232.7 418.027 240.8 410.027 250.7 410.027C260.6 410.027 268.7 418.027 268.7 427.927ZM162.4 374.827C162.4 384.727 154.4 392.827 144.4 392.827C134.5 392.827 126.4 384.827 126.4 374.827C126.4 364.927 134.4 356.827 144.4 356.827C154.3 356.827 162.4 364.927 162.4 374.827ZM373.6 374.827C373.6 384.727 365.5 392.827 355.6 392.827C345.7 392.827 337.6 384.827 337.6 374.827C337.6 364.927 345.6 356.827 355.6 356.827C365.5 356.827 373.6 364.927 373.6 374.827ZM48.9004 384.827C48.9004 390.027 44.7004 394.127 39.6004 394.127C34.4004 394.127 30.3004 389.927 30.3004 384.827C30.3004 379.627 34.5004 375.527 39.6004 375.527C44.7004 375.527 48.9004 379.727 48.9004 384.827ZM471.3 384.827C471.3 390.027 467.1 394.127 462 394.127C456.8 394.127 452.7 389.927 452.7 384.827C452.7 379.627 456.9 375.527 462 375.527C467.1 375.527 471.3 379.727 471.3 384.827ZM260.1 491.227C260.1 496.427 255.9 500.527 250.8 500.527C245.6 500.527 241.5 496.327 241.5 491.227C241.5 486.027 245.7 481.927 250.8 481.927C255.9 481.827 260.1 486.027 260.1 491.227ZM153.7 438.027C153.7 443.227 149.5 447.327 144.4 447.327C139.2 447.327 135.1 443.127 135.1 438.027C135.1 432.827 139.3 428.727 144.4 428.727C149.6 428.727 153.7 432.827 153.7 438.027ZM364.9 438.027C364.9 443.227 360.7 447.327 355.6 447.327C350.4 447.327 346.3 443.127 346.3 438.027C346.3 432.827 350.5 428.727 355.6 428.727C360.8 428.727 364.9 432.827 364.9 438.027ZM285.9 36.4273C285.9 56.2273 269.8 72.3273 250 72.3273C230.2 72.3273 214.1 56.2273 214.1 36.4273C214.1 16.6273 230.2 0.527344 250 0.527344C269.8 0.527344 285.9 16.6273 285.9 36.4273ZM285.9 142.727C285.9 162.527 269.8 178.627 250 178.627C230.2 178.627 214.1 162.527 214.1 142.727C214.1 122.927 230.2 106.827 250 106.827C269.8 106.827 285.9 122.927 285.9 142.727ZM285.9 247.627C285.9 267.427 269.8 283.527 250 283.527C230.2 283.527 214.1 267.427 214.1 247.627C214.1 227.827 230.2 211.727 250 211.727C269.8 211.727 285.9 227.827 285.9 247.627ZM497.1 142.727C497.1 162.527 481 178.627 461.2 178.627C441.4 178.627 425.3 162.527 425.3 142.727C425.3 122.927 441.4 106.827 461.2 106.827C481 106.827 497.1 122.927 497.1 142.727ZM74.7004 142.727C74.7004 162.527 58.6004 178.627 38.8004 178.627C19.0004 178.627 2.90039 162.627 2.90039 142.727C2.90039 122.927 19.0004 106.827 38.8004 106.827C58.6004 106.827 74.7004 122.927 74.7004 142.727ZM181 89.6273C181 109.427 164.9 125.527 145.1 125.527C125.3 125.527 109.2 109.427 109.2 89.6273C109.2 69.8273 125.3 53.7273 145.1 53.7273C164.9 53.7273 181 69.7273 181 89.6273ZM181 194.527C181 214.327 164.9 230.427 145.1 230.427C125.3 230.427 109.2 214.327 109.2 194.527C109.2 174.727 125.3 158.627 145.1 158.627C164.9 158.627 181 174.627 181 194.527ZM392.2 89.6273C392.2 109.427 376.1 125.527 356.3 125.527C336.5 125.527 320.4 109.427 320.4 89.6273C320.4 69.8273 336.5 53.7273 356.3 53.7273C376.2 53.7273 392.2 69.7273 392.2 89.6273ZM392.2 194.527C392.2 214.327 376.1 230.427 356.3 230.427C336.5 230.427 320.4 214.327 320.4 194.527C320.4 174.727 336.5 158.627 356.3 158.627C376.2 158.527 392.2 174.627 392.2 194.527Z" fill="#141414"/>
</g>
<defs>
<clipPath id="clip0_1_8561">
<rect width="500" height="500" fill="white" transform="translate(0 0.527344)"/>
</clipPath>
</defs>
</svg>
