<svg width="500" height="501" viewBox="0 0 500 501" fill="none" xmlns="http://www.w3.org/2000/svg">
<path d="M250.065 494.646C114.081 494.7 4.85062 383.408 5.95062 248.502C7.03862 114.996 116.557 4.93732 252.892 6.42332C384.512 7.85832 494.985 114.796 494.052 252.784C493.156 385.182 385.617 494.447 250.065 494.646ZM471.993 262.182C472.153 126.851 370.311 27.2343 247.489 28.3633C130.637 29.4373 25.8196 125.851 28.0576 253.941C29.1296 315.299 52.0516 367.829 96.2556 410.315C148.078 460.124 210.964 479.605 281.495 470.483C330.94 464.088 373.927 441.668 408.844 405.448C450.464 362.275 471.268 310.412 471.993 262.182Z" fill="#182227"/>
<path d="M471.993 262.182C471.268 310.412 450.465 362.275 408.844 405.448C373.927 441.668 330.94 464.088 281.495 470.483C210.964 479.605 148.078 460.123 96.2557 410.315C52.0527 367.829 29.1297 315.3 28.0577 253.941C25.8197 125.851 130.637 29.4373 247.488 28.3633C370.311 27.2343 472.152 126.851 471.993 262.182ZM249.889 41.9893C134.351 41.9803 41.4797 135.579 41.6717 252.35C41.8587 365.629 136.038 460.156 252.158 459.029C364.524 457.938 457.346 366.282 458.542 252.885C459.771 136.381 365.118 41.8073 249.889 41.9893Z" fill="#FBFCFC"/>
<path d="M371.523 329.069C354.673 355.497 331.367 374.026 302.394 385.657C294.47 388.838 286.275 390.983 277.508 392.696C277.508 380.068 277.508 367.568 277.508 354.571C309.54 345.202 333.562 325.512 347.853 294.801C357.984 273.029 360.146 250.105 354.777 226.701C345.895 187.983 306.948 148.027 277.606 147.734C277.606 134.747 277.606 121.738 277.606 108.327C288.694 110.05 299.297 113.567 309.493 118.308C365.471 144.341 397.552 197.77 394.788 259.786C394.568 264.722 395.096 270.329 393.961 274.537C391.707 282.9 389.888 291.555 386.428 299.622C385.239 302.399 377.148 322.827 371.523 329.069Z" fill="#FBFCFC"/>
<path d="M113.213 297.815C101.956 265.965 102.017 233.966 113.377 202.324C128.185 161.078 156.457 132.389 196.88 115.501C205.18 112.034 213.786 110.12 222.757 108.088C222.757 121.222 222.757 133.791 222.757 146.281C169.104 162.085 144.078 207.397 142.61 246.854C140.999 290.174 168.42 339.415 222.707 354.808C222.707 367.38 222.707 379.964 222.707 393.069C179.428 383.388 146.318 360.403 124.191 322.097C120.798 317.951 114.613 303.546 113.213 297.815Z" fill="#FBFCFC"/>
<path d="M249.888 41.9893C365.117 41.8073 459.77 136.381 458.542 252.885C457.346 366.282 364.524 457.938 252.158 459.029C136.038 460.156 41.8592 365.629 41.6722 252.35C41.4782 135.58 134.35 41.9813 249.888 41.9893ZM113.212 297.815C115.576 306.495 119.45 314.492 124.191 322.097C146.317 360.403 179.428 383.388 222.707 393.069C222.707 379.964 222.707 367.38 222.707 354.808C168.42 339.414 140.999 290.174 142.61 246.854C144.078 207.397 169.104 162.085 222.757 146.281C222.757 133.792 222.757 121.222 222.757 108.088C213.786 110.12 205.18 112.033 196.88 115.501C156.457 132.389 128.185 161.078 113.377 202.324C102.016 233.965 101.955 265.965 113.212 297.815ZM371.522 329.069C376.339 322.586 379.457 315.562 382.84 307.943C384.466 304.332 385.237 302.399 386.428 299.624C389.888 291.557 392.705 280.477 393.406 275.183C394.079 270.536 394.567 264.723 394.787 259.787C397.551 197.771 365.469 144.342 309.492 118.309C299.297 113.568 288.694 110.051 277.605 108.328C277.605 121.738 277.605 134.748 277.605 147.735C306.946 148.028 345.894 187.983 354.776 226.702C360.145 250.107 357.983 273.03 347.852 294.802C333.562 325.513 309.539 345.203 277.507 354.572C277.507 367.569 277.507 380.069 277.507 392.697C286.274 390.984 294.469 388.839 302.393 385.658C331.366 374.026 354.672 355.497 371.522 329.069Z" fill="#182227"/>
</svg>
