<svg width="500" height="501" viewBox="0 0 500 501" fill="none" xmlns="http://www.w3.org/2000/svg">
<path d="M338.755 396.976C339.952 398.683 340.99 399.476 340.995 400.275C341.072 411.693 341.149 423.117 340.827 434.527C340.78 436.199 338.887 438.023 337.492 439.422C325.533 451.422 313.678 463.534 301.439 475.244C270.947 504.418 228.977 503.794 199.133 473.974C141.52 416.409 83.8678 358.881 26.2848 301.283C0.19981 275.193 -3.54719 237.186 17.7598 208.85C24.5818 199.777 33.0368 191.881 41.0988 183.799C93.2828 131.484 145.485 79.1854 197.85 27.0514C223.349 1.66443 256.881 -3.57757 285.649 13.2924C291.906 16.9614 297.698 21.7744 302.856 26.9104C359.991 83.8014 417.006 140.813 473.954 197.891C504.994 229.001 504.759 271.182 473.594 302.356C448.194 327.763 422.887 353.263 397.292 378.472C392.833 382.864 391.104 387.317 391.177 393.514C391.482 419.23 391.326 444.952 391.292 470.671C391.279 480.868 386.237 486.704 377.695 486.598C369.489 486.497 364.263 480.638 364.443 470.871C364.95 443.338 365.825 415.811 366.199 388.277C366.244 384.97 365.071 380.622 362.824 378.462C330.316 347.214 297.529 316.257 264.8 285.238C264.511 284.964 264.114 284.805 263.163 284.221C249.411 287.784 236.035 286.364 225.106 275.493C217.475 267.902 214.313 258.508 214.802 247.67C215.722 227.283 233.741 212.515 255.38 214.717C277.937 217.012 288.724 236.101 283.732 266.26C314.39 296.368 345.489 326.91 376.961 357.819C379.023 355.921 430.471 304.769 454.546 280.635C472.766 262.37 472.836 238.011 454.589 219.739C396.749 161.821 338.87 103.941 280.951 46.1024C262.575 27.7514 238.393 27.7164 220.051 46.0314C162.129 103.867 104.254 161.751 46.4098 219.666C28.1238 237.975 28.1188 262.356 46.3298 280.582C104.186 338.484 162.065 396.363 219.967 454.22C238.195 472.434 262.675 472.437 280.902 454.28C298.257 436.993 336.416 399.104 338.755 396.976Z" fill="#1CB5E0"/>
</svg>
