<svg width="500" height="501" viewBox="0 0 500 501" fill="none" xmlns="http://www.w3.org/2000/svg">
<path d="M368.3 203.327C394.3 177.327 419.1 152.527 445 126.727C449.3 138.327 454.5 149.827 457.8 161.927C480.3 243.527 476.4 323.127 432.2 396.727C386.5 472.827 316.3 504.427 228.8 497.527C162.7 492.327 111.2 461.127 73.5998 406.727C69.9998 401.527 67.0998 396.127 62.9998 389.227C151.3 300.827 239.3 212.727 329.1 122.927C318.2 116.327 309.4 109.727 299.7 105.327C226.9 73.1273 152.7 112.027 134.4 191.827C127.5 221.827 125.9 252.027 129.8 282.627C130.4 287.627 130.8 292.627 131.6 300.127C107.6 324.027 82.6998 348.727 56.9998 374.227C54.5998 370.827 52.8998 369.127 52.1998 367.127C15.3998 268.027 18.4998 172.127 81.4998 84.2273C126.4 21.6273 191.6 -1.77271 267.2 3.02729C323.1 6.62729 370.6 29.0273 408 71.1273C418.3 82.7273 426.8 95.8273 436.8 109.127C391.4 154.527 347.4 198.627 303.3 242.727C259.2 286.727 215.1 330.727 169.1 376.627C179.9 383.527 188.4 390.327 198.1 394.927C266 426.827 339.9 393.227 362.3 320.527C372.6 286.927 374.5 252.627 370.2 217.827C369.4 212.527 368.8 207.227 368.3 203.327Z" fill="#1A82FF"/>
</svg>
