<svg width="500" height="501" viewBox="0 0 500 501" fill="none" xmlns="http://www.w3.org/2000/svg">
<g clip-path="url(#clip0_1_8574)">
<path d="M250 500.527C388.071 500.527 500 388.599 500 250.527C500 112.456 388.071 0.527344 250 0.527344C111.929 0.527344 0 112.456 0 250.527C0 388.599 111.929 500.527 250 500.527Z" fill="#81949F"/>
<path d="M360.1 246.927C360.1 188.327 310.8 140.827 250 140.827C189.2 140.827 139.9 188.327 139.9 246.927C139.9 280.427 156 310.327 181.2 329.727H139.9V361.327H225.7V350.427V319.827C194.5 309.727 172 280.927 172 246.827C172 204.427 206.9 170.027 249.9 170.027C292.9 170.027 327.8 204.427 327.8 246.827C327.8 280.927 305.3 309.727 274.1 319.827V350.427V361.327H359.9V329.727H318.6C344 310.327 360.1 280.427 360.1 246.927Z" fill="#FFFFFB"/>
</g>
<defs>
<clipPath id="clip0_1_8574">
<rect width="500" height="500" fill="white" transform="translate(0 0.527344)"/>
</clipPath>
</defs>
</svg>
