<svg width="500" height="501" viewBox="0 0 500 501" fill="none" xmlns="http://www.w3.org/2000/svg">
<path d="M126.9 157.127C148.6 134.127 179.7 119.227 216.2 119.227C266.3 119.227 302.8 144.927 323.1 182.827L451.7 200.427C431.3 89.5272 338 16.4272 217.5 16.4272C120.1 16.4272 40.2 63.8272 1 140.927L126.9 157.127Z" fill="#F3E6AC"/>
<path d="M365 182.827C374.5 201.727 379.9 224.827 379.9 249.127C379.9 322.227 331.2 380.427 256.8 380.427C181 380.427 133.7 322.227 133.7 249.127C133.7 212.627 145.9 180.127 167.5 155.727L41.5999 140.927C25.3999 173.427 15.8999 209.927 15.8999 250.527C15.8999 388.527 120.1 484.627 258.1 484.627C396.1 484.627 499 388.527 499 250.527C499 232.927 497.6 216.727 493.6 200.427L365 182.827Z" fill="#F3E6AC"/>
</svg>
