<svg width="500" height="501" viewBox="0 0 500 501" fill="none" xmlns="http://www.w3.org/2000/svg">
<path d="M464.732 437.634C431.183 457.022 397.393 476.549 362.872 496.499C328.681 476.786 294.611 457.143 260.729 437.608C260.729 397.456 260.729 358.403 260.729 317.865C294.068 298.611 327.839 279.108 362.773 258.932C396.559 278.392 430.63 298.015 464.732 317.656C464.732 357.792 464.732 397.164 464.732 437.634Z" fill="#008D9F"/>
<path d="M36.551 181.026C36.551 141.144 36.551 102.08 36.551 61.3943C70.003 42.0693 104.038 22.4083 138.452 2.52734C172.743 22.3143 206.537 41.8143 240.23 61.2563C240.23 101.386 240.23 140.458 240.23 181.148C206.783 200.458 172.73 220.119 138.423 239.926C104.131 220.099 70.344 200.564 36.551 181.026Z" fill="#008D9F"/>
<path d="M463.07 180.573C429.954 199.728 397.065 218.751 362.856 238.538C329.579 219.251 296.163 199.884 262.137 180.163C262.137 141.432 262.137 102.825 262.137 62.2613C294.929 43.2633 328.624 23.7433 362.833 3.92432C396.343 23.2403 429.515 42.3623 463.071 61.7043C463.07 101.173 463.07 140.136 463.07 180.573Z" fill="#00F1D0"/>
<path d="M139.127 260.714C174.011 280.913 206.522 299.737 238.858 318.46C238.858 358.174 238.858 396.491 238.858 436.902C206.074 455.834 172.421 475.267 138.54 494.833C104.474 475.337 70.9379 456.144 37.3199 436.904C37.3199 397.392 37.3199 358.76 37.3199 318.451C71.2169 299.228 105.563 279.749 139.127 260.714Z" fill="#00F1D0"/>
</svg>
