<svg width="500" height="501" viewBox="0 0 500 501" fill="none" xmlns="http://www.w3.org/2000/svg">
<path d="M249.9 498.627C113.5 498.627 2.60001 387.627 2.60001 251.327C2.60001 114.927 113.6 4.02734 249.9 4.02734C386.2 4.02734 497.2 115.027 497.2 251.327C497.2 387.727 386.3 498.627 249.9 498.627ZM249.9 23.8273C124.5 23.8273 22.4 125.927 22.4 251.327C22.4 376.727 124.5 478.827 249.9 478.827C375.3 478.827 477.4 376.727 477.4 251.327C477.4 125.927 375.3 23.8273 249.9 23.8273Z" fill="black"/>
<path d="M257.5 310.527H237.8L207.4 231.627C207.4 231.627 207.4 283.927 207.4 310.527C200.5 310.527 187.8 310.527 187.8 310.527L187.5 193.327H215.2L247.8 282.827L280.3 193.227H307.3L307.8 310.927C307.8 310.927 301.4 310.927 298.2 310.927C294.9 310.927 291.7 310.927 287.7 310.927C287.7 284.427 287.7 232.527 287.7 232.527L257.5 310.527Z" fill="black"/>
<path d="M433.1 247.527C433.1 268.627 433.1 289.227 433.1 310.427C426.5 311.227 420 310.627 413.1 310.827C412.9 306.627 412.7 303.127 412.5 300.027C407.6 303.427 403.1 307.527 397.7 309.827C375.4 319.427 346.1 312.127 332.4 287.627C324.1 272.627 322.1 256.527 324.8 239.727C326.5 229.327 330 219.727 336.2 211.327C345.1 199.227 357.2 192.727 372.1 190.727C384.7 188.927 396.8 190.227 408.3 195.727C423.1 202.827 430.8 215.027 433.1 231.527C425.6 231.527 418.4 231.527 411.3 231.527C411 230.927 410.6 230.427 410.4 229.827C408.2 221.027 402.4 215.627 394 212.827C376 206.827 354.1 212.327 347.6 236.927C344.5 248.727 344.7 260.227 349.1 271.527C354.3 284.927 364 292.627 378.7 292.827C383.6 292.927 388.8 292.827 393.4 291.427C404.4 288.127 410.3 280.227 411.8 268.027C406.2 267.927 384.2 267.827 378.2 267.827C378.2 260.927 378.2 254.427 378.2 247.627C396.6 247.527 414.5 247.527 433.1 247.527Z" fill="black"/>
<path d="M52.7 252.127C53.4 233.427 58.9 217.027 72.9 204.227C81.5 196.327 91.8 192.227 103.4 190.527C117.2 188.527 130.2 190.527 142.2 197.227C158.4 206.227 167.2 220.627 170.5 238.727C173.4 254.727 171.6 270.027 163.9 284.327C155.5 300.027 142.3 309.427 124.7 312.627C110.2 315.327 96.3 313.827 83.3 306.827C69.3 299.327 60.3 287.427 56.2 272.227C54.5 265.627 53.9 258.827 52.7 252.127ZM75.1 251.527C76 256.827 76.5 262.127 77.9 267.227C82 282.027 94.4 291.727 109.5 292.527C126.9 293.427 139.9 285.627 146 270.527C150.2 260.227 150.7 249.627 148 239.027C144.3 224.727 135.7 214.727 120.8 211.727C105.9 208.727 92.9 212.427 83.5 225.127C77.7 232.827 75.5 241.827 75.1 251.527Z" fill="black"/>
</svg>
