<svg width="500" height="501" viewBox="0 0 500 501" fill="none" xmlns="http://www.w3.org/2000/svg">
<path d="M390.8 3.52734C331.9 3.52734 284.1 51.1273 284 110.027V228.027C273 228.727 261.8 229.227 250.1 229.227C238.4 229.227 227.2 229.727 216.2 230.327V110.027C215.2 51.7273 167.7 4.92734 109.4 4.92734C51.1 4.92734 3.49998 51.7273 2.59998 110.027V392.127C3.49998 450.427 51 497.227 109.4 497.227C167.8 497.227 215.3 450.427 216.2 392.127V274.127C227.2 273.427 238.4 272.927 250.1 272.927C261.8 272.927 273 272.427 284 271.827V392.227C284.9 450.527 332.5 497.327 390.8 497.327C449.1 497.327 496.7 450.527 497.6 392.227V110.027C497.4 51.1273 449.7 3.52734 390.8 3.52734ZM109.4 47.2273C144.1 47.2273 172.3 75.3273 172.4 110.027V235.027C141.2 239.527 110.6 248.227 81.6 260.727C69 266.227 57.2 273.327 46.4 281.727V110.027C46.5 75.3273 74.7 47.2273 109.4 47.2273ZM172.4 392.127C172.4 426.927 144.2 455.127 109.4 455.127C74.6 455.127 46.4 426.927 46.4 392.127V363.827C46.4 338.827 66.2 315.127 99.4 300.427C122.8 290.327 147.3 283.127 172.5 279.027V392.127H172.4ZM390.8 454.927C356.1 454.927 327.9 426.827 327.8 392.127V267.127C359 262.627 389.6 253.927 418.6 241.427C431.2 235.927 443 228.827 453.8 220.427V392.127C453.6 426.827 425.5 454.927 390.8 454.927ZM400.8 201.527C377.4 211.627 352.9 218.827 327.7 222.927V110.027C327.7 75.2273 355.9 47.0273 390.7 47.0273C425.5 47.0273 453.7 75.2273 453.7 110.027V138.327C453.8 163.227 434 186.927 400.8 201.527Z" fill="url(#paint0_linear_1_8600)"/>
<defs>
<linearGradient id="paint0_linear_1_8600" x1="33.828" y1="467.328" x2="465.142" y2="33.6585" gradientUnits="userSpaceOnUse">
<stop stop-color="#00AEE9"/>
<stop offset="1" stop-color="#69FABD"/>
</linearGradient>
</defs>
</svg>
