<svg width="500" height="501" viewBox="0 0 500 501" fill="none" xmlns="http://www.w3.org/2000/svg">
<path d="M250.4 498.227C113.7 497.927 3.30003 387.327 3.50003 250.727C3.70003 113.927 114.6 3.72722 251.8 4.02722C387.7 4.22722 498 115.427 497.7 251.827C497.4 388.227 386.7 498.427 250.4 498.227ZM207.4 58.8272C209.1 62.6272 210.4 65.1272 211.5 67.8272C219.7 86.6272 219.9 104.827 206.7 121.727C202.8 126.827 199.2 132.227 194.9 136.927C172.1 161.627 149 185.927 126.3 210.627C105 233.827 90.6 260.727 88.3 292.527C84.5 344.227 106.9 383.827 148.2 412.827C185.6 439.127 227.9 447.327 273 442.227C312.7 437.827 347.8 423.027 375.4 393.827C413 353.927 424.1 307.827 403.9 255.727C395.2 233.227 379.7 215.427 363.6 198.027C340.5 173.127 317.6 148.027 295.4 122.427C281.9 106.827 281.4 88.5272 288.9 69.8272C290.3 66.4272 291.8 63.1272 293.6 58.8272C274.3 58.4272 260.8 66.6272 250.6 82.4272C240.6 66.4272 226.9 58.4272 207.4 58.8272Z" fill="#7D50D0"/>
<path d="M207.4 58.8271C226.9 58.4271 240.6 66.5271 250.6 82.4271C260.8 66.6271 274.3 58.4271 293.6 58.8271C291.8 63.1271 290.2 66.4271 288.9 69.8271C281.4 88.5271 281.9 106.827 295.4 122.427C317.6 148.127 340.5 173.227 363.6 198.027C379.8 215.427 395.2 233.227 403.9 255.727C424 307.827 413 354.027 375.4 393.827C347.8 423.027 312.7 437.727 273 442.227C227.9 447.227 185.6 439.127 148.2 412.827C106.9 383.727 84.5 344.127 88.3 292.527C90.6 260.727 105 233.827 126.3 210.627C149 185.827 172.1 161.527 194.9 136.927C199.2 132.227 202.8 126.827 206.7 121.727C219.9 104.827 219.7 86.6271 211.5 67.8271C210.4 65.1271 209.1 62.5271 207.4 58.8271ZM234.1 149.127C235.2 150.427 236.1 151.827 237.3 152.927C256.4 171.627 275.6 190.227 294.7 208.927C309.2 223.127 324.8 236.327 338.1 251.627C370.6 288.827 367.1 332.627 330.3 362.527C287.6 397.227 214.3 397.527 171.5 362.927C152.5 347.627 141 328.227 141.1 303.027C141.2 281.327 151.6 263.927 165.5 248.727C178.1 235.027 192.1 222.627 205.6 209.827C213.2 202.527 220.9 195.427 227.6 189.127C222.2 183.027 217.3 177.427 212.4 171.827C198.3 184.927 184.2 197.127 171.2 210.527C158.7 223.427 146 236.527 135.7 251.127C106.4 292.627 115.5 339.727 147 371.927C170.8 396.327 200.8 408.327 234 411.527C275.8 415.527 314.4 406.027 347.2 378.527C380.1 350.927 391.4 308.727 376.5 270.927C369 251.927 356.8 235.827 342.4 221.627C325.2 204.627 307 188.527 289.7 171.527C276.1 158.227 263.1 144.427 249.6 130.627C244.9 136.327 239.6 142.627 234.1 149.127ZM201.4 252.127C189.5 263.927 179.1 275.627 173.6 290.827C168.6 304.527 170.8 317.327 179.9 328.827C187.5 338.427 197.2 345.327 208.6 349.927C226.1 356.927 244.4 358.927 262.9 356.927C283 354.827 301.8 348.927 316.6 333.927C325.9 324.427 331.6 313.327 329.4 299.827C326.3 280.127 313.2 266.627 301.7 254.427C295.2 259.827 289.4 264.627 283.5 269.427C286.9 273.227 289.8 276.227 292.3 279.427C306.5 297.627 303.3 314.227 282.7 324.827C260.3 336.327 237.5 335.727 215.5 323.427C198.3 313.827 195 298.127 206.5 282.127C209.7 277.627 213.6 273.627 217.5 269.027C212.2 263.527 207.1 258.227 201.4 252.127ZM270 300.527C267.3 284.427 264.7 269.027 262.2 254.027C275.7 240.827 277.5 226.927 267.3 216.627C258.4 207.627 243.8 207.327 234.8 215.927C226 224.427 222.3 240.227 239.3 254.127C236.6 269.427 234 284.827 231.2 300.427C244.4 306.927 256.8 307.427 270 300.527Z" fill="white"/>
<path d="M234.1 149.127C239.6 142.627 245 136.327 249.8 130.627C263.3 144.427 276.3 158.327 289.9 171.527C307.3 188.427 325.4 204.527 342.6 221.627C357 235.827 369.2 251.927 376.7 270.927C391.6 308.727 380.3 350.927 347.4 378.527C314.6 406.027 276 415.527 234.2 411.527C201 408.327 170.9 396.327 147.2 371.927C115.7 339.727 106.7 292.627 135.9 251.127C146.2 236.527 158.8 223.427 171.4 210.527C184.4 197.227 198.5 185.027 212.6 171.827C217.5 177.427 222.4 182.927 227.8 189.127C221.1 195.427 213.4 202.527 205.8 209.827C192.3 222.727 178.3 235.027 165.7 248.727C151.7 263.927 141.4 281.327 141.3 303.027C141.2 328.227 152.7 347.527 171.7 362.927C214.5 397.527 287.8 397.227 330.5 362.527C367.3 332.627 370.8 288.827 338.3 251.627C325 236.427 309.4 223.127 294.9 208.927C275.8 190.227 256.6 171.627 237.5 152.927C236.1 151.827 235.2 150.427 234.1 149.127Z" fill="#7D50D0"/>
<path d="M201.4 252.127C207.2 258.127 212.3 263.527 217.5 268.927C213.6 273.527 209.7 277.527 206.5 282.027C195 298.027 198.3 313.727 215.5 323.327C237.5 335.627 260.2 336.227 282.7 324.727C303.3 314.127 306.5 297.527 292.3 279.327C289.8 276.127 286.9 273.127 283.5 269.327C289.4 264.527 295.2 259.627 301.7 254.327C313.2 266.427 326.4 280.027 329.4 299.727C331.5 313.327 325.9 324.327 316.6 333.827C301.8 348.927 283 354.727 262.9 356.827C244.4 358.727 226.1 356.827 208.6 349.827C197.2 345.227 187.5 338.427 179.9 328.727C170.8 317.227 168.6 304.427 173.6 290.727C179 275.727 189.5 264.027 201.4 252.127Z" fill="#7D50D0"/>
<path d="M270 300.527C256.8 307.427 244.4 306.927 231.2 300.427C233.9 284.827 236.6 269.427 239.3 254.127C222.3 240.227 226 224.327 234.8 215.927C243.8 207.227 258.5 207.527 267.3 216.627C277.4 226.927 275.7 240.827 262.2 254.027C264.7 269.027 267.3 284.427 270 300.527Z" fill="#7D50D0"/>
</svg>
