<svg width="500" height="501" viewBox="0 0 500 501" fill="none" xmlns="http://www.w3.org/2000/svg">
<path d="M11.0871 24.4563C142.218 155.409 272.652 285.666 403.625 416.461C367.998 451.866 324.959 474.115 274.87 480.455C156.715 495.411 56.588 431.989 19.996 318.663C13.473 298.462 11.1151 276.2 10.8181 254.834C9.77507 179.806 10.4671 104.754 10.5291 29.7123C10.5301 28.0783 10.8671 26.4443 11.0871 24.4563ZM492.12 472.081C492.135 397.041 492.412 321.999 491.996 246.962C491.651 184.787 468.883 131.07 424.407 88.2882C352.237 18.8672 267.423 4.35225 174.177 37.8142C145.162 48.2272 119.887 65.6313 98.5891 88.0523C229.605 219.014 359.773 349.129 491.348 480.65C491.703 476.851 492.12 474.466 492.12 472.081Z" fill="#23A4BC"/>
</svg>
