<svg width="500" height="501" viewBox="0 0 500 501" fill="none" xmlns="http://www.w3.org/2000/svg">
<g clip-path="url(#clip0_1_8611)">
<path d="M250 500.527C388.071 500.527 500 388.599 500 250.527C500 112.456 388.071 0.527344 250 0.527344C111.929 0.527344 0 112.456 0 250.527C0 388.599 111.929 500.527 250 500.527Z" fill="#FF0420"/>
<path d="M177.133 316.973C162.247 316.973 150.051 313.47 140.544 306.465C131.162 299.335 126.471 289.203 126.471 276.068C126.471 273.316 126.784 269.938 127.409 265.935C129.036 256.929 131.35 246.108 134.352 233.474C142.858 199.074 164.812 181.874 200.213 181.874C209.845 181.874 218.476 183.5 226.107 186.752C233.738 189.879 239.742 194.633 244.12 201.013C248.498 207.267 250.688 214.773 250.688 223.529C250.688 226.156 250.375 229.471 249.749 233.474C247.873 244.607 245.621 255.428 242.994 265.935C238.616 283.073 231.048 295.895 220.29 304.401C209.532 312.782 195.147 316.973 177.133 316.973ZM179.76 289.953C186.766 289.953 192.707 287.889 197.586 283.761C202.59 279.633 206.155 273.316 208.281 264.81C211.158 253.051 213.348 242.793 214.849 234.037C215.349 231.41 215.599 228.721 215.599 225.968C215.599 214.585 209.657 208.893 197.774 208.893C190.768 208.893 184.764 210.957 179.76 215.085C174.882 219.214 171.379 225.531 169.253 234.037C167.001 242.418 164.749 252.676 162.498 264.81C161.997 267.311 161.747 269.938 161.747 272.69C161.747 284.199 167.752 289.953 179.76 289.953Z" fill="white"/>
<path d="M259.303 315.097C257.927 315.097 256.863 314.659 256.113 313.783C255.487 312.782 255.3 311.657 255.55 310.406L281.444 188.441C281.694 187.065 282.382 185.939 283.508 185.063C284.634 184.188 285.822 183.75 287.073 183.75H336.985C350.87 183.75 362.003 186.627 370.384 192.381C378.891 198.136 383.144 206.454 383.144 217.337C383.144 220.464 382.769 223.717 382.018 227.094C378.891 241.48 372.574 252.113 363.067 258.993C353.685 265.873 340.8 269.313 324.413 269.313H299.082L290.451 310.406C290.2 311.782 289.512 312.907 288.387 313.783C287.261 314.659 286.072 315.097 284.822 315.097H259.303ZM325.727 243.419C330.98 243.419 335.546 241.98 339.424 239.103C343.427 236.226 346.054 232.098 347.305 226.719C347.68 224.592 347.868 222.716 347.868 221.09C347.868 217.462 346.805 214.71 344.678 212.834C342.551 210.832 338.924 209.832 333.795 209.832H311.278L304.148 243.419H325.727Z" fill="white"/>
</g>
<defs>
<clipPath id="clip0_1_8611">
<rect width="500" height="500" fill="white" transform="translate(0 0.527344)"/>
</clipPath>
</defs>
</svg>
