<svg width="500" height="501" viewBox="0 0 500 501" fill="none" xmlns="http://www.w3.org/2000/svg">
<path d="M327.27 152.771C365.024 126.413 385.6 91.2814 385.318 44.7894C471.291 95.0954 530.028 224.024 476.138 348.676C421.944 474.032 271.473 531.398 147.921 474.064C21.0119 415.172 -32.9342 264.798 28.2278 141.333C92.4778 11.6364 240.961 -24.9676 346.961 23.2464C348.486 52.2484 338.546 77.7594 320.865 100.791C319.752 102.241 318.467 103.56 317.253 104.931C302.932 121.113 289.225 131.348 263.302 127.702C211.629 120.435 169.726 142.56 143.523 188.108C117.338 233.625 120.441 279.67 150.961 322.392C183.38 367.772 242.313 384.528 293.897 364.785C345.957 344.861 378.616 292.593 372.948 237.045C369.865 206.824 356.826 181.045 335.008 159.81C332.713 157.577 330.271 155.494 327.27 152.771Z" fill="#4D93DF"/>
</svg>
