<svg width="500" height="501" viewBox="0 0 500 501" fill="none" xmlns="http://www.w3.org/2000/svg">
<g clip-path="url(#clip0_1_8619)">
<path d="M30.2001 250.227C30.2001 212.727 30.3001 175.327 30.1001 137.827C29.9001 133.427 31.0001 129.027 33.2001 125.227C35.4001 121.427 38.7001 118.327 42.7001 116.327C83.8001 92.7274 124.9 69.0274 165.9 45.3274C189.4 31.7274 213 18.3274 236.5 4.62744C240.5 2.02744 245.2 0.627441 250 0.627441C254.8 0.627441 259.5 2.02744 263.5 4.62744C328 41.8274 392.6 79.0274 457.3 116.127C460.3 117.627 463 119.827 465.1 122.527C467.2 125.227 468.7 128.327 469.5 131.627C469.9 133.327 470 135.027 470 136.727C470 212.527 470 288.227 470 364.027C470.1 368.127 469.1 372.127 467 375.627C464.9 379.127 461.9 382.027 458.3 383.927C445.3 391.527 432.3 398.927 419.2 406.427C367.7 436.027 316.2 465.727 264.8 495.327C262.1 497.027 259.2 498.327 256.2 499.427C253.1 500.327 249.8 500.627 246.5 500.127C243.3 499.627 240.2 498.527 237.4 496.727C220 486.627 202.6 476.627 185.2 466.627C174.9 460.727 164.7 454.727 154.4 448.927C150.3 446.827 146.9 443.627 144.6 439.727C142.3 435.727 141.2 431.227 141.4 426.627C141.5 404.927 141.4 383.227 141.4 361.527C141.1 355.927 142.9 350.327 146.5 345.927C150.1 341.527 155.1 338.627 160.7 337.827C166.3 336.927 172.1 338.227 176.9 341.227C192.8 350.427 208.7 359.627 224.6 368.727C231.5 372.727 238.5 376.527 245.2 380.727C246.5 381.727 248.1 382.227 249.8 382.227C251.4 382.227 253 381.727 254.4 380.727C283 364.127 311.7 347.527 340.4 331.127C347.4 327.127 354.4 322.927 361.5 319.027C362.7 318.527 363.8 317.527 364.5 316.427C365.2 315.227 365.5 313.927 365.4 312.527C365.3 271.027 365.3 229.527 365.4 188.027C365.5 186.727 365.2 185.327 364.6 184.127C363.9 182.927 362.9 182.027 361.7 181.427C325.7 160.827 289.8 140.127 253.9 119.327C252.7 118.527 251.3 118.127 249.9 118.127C248.5 118.127 247.1 118.627 245.9 119.427C210.1 140.127 174.3 160.727 138.4 181.327C137 182.027 135.9 183.227 135.2 184.527C134.5 185.927 134.2 187.527 134.4 189.027C134.5 257.727 134.5 326.427 134.4 395.127C134.5 397.627 134.3 400.027 133.9 402.427C133.2 405.927 131.7 409.227 129.5 411.927C127.3 414.727 124.5 416.927 121.2 418.427C117.9 419.927 114.4 420.627 110.9 420.527C107.3 420.427 103.9 419.427 100.7 417.727C95.2001 414.827 89.9001 411.627 84.5001 408.427C70.3001 400.327 56.2001 392.127 42.0001 384.027C38.0001 381.927 34.7001 378.627 32.5001 374.727C30.7001 371.427 29.8001 367.727 29.9001 363.927C30.2001 326.227 30.2001 288.227 30.2001 250.227ZM111.7 398.027V391.827C111.7 323.827 111.7 255.927 111.6 187.927C111.4 182.627 112.6 177.327 115.3 172.827C118 168.227 121.9 164.527 126.6 162.127C162.9 141.427 199.1 120.527 235.2 99.6274C239.6 96.8274 244.7 95.3274 250 95.3274C255.2 95.3274 260.4 96.8274 264.8 99.6274C301 120.527 337.2 141.427 373.4 162.127C378.2 164.627 382.2 168.427 384.8 173.027C387.5 177.727 388.8 183.027 388.5 188.427C388.4 229.827 388.4 271.127 388.5 312.527C388.8 317.927 387.5 323.427 384.7 328.127C382 332.827 377.9 336.627 373.1 339.127C336.8 359.827 300.7 380.827 264.5 401.627C262.6 402.727 260.7 403.727 258.6 404.427C254.8 405.727 250.8 406.127 246.8 405.727C242.8 405.227 239 403.927 235.6 401.827C213.5 389.027 191.3 376.227 169.1 363.527C167.8 362.727 166.4 362.027 164.5 360.927V365.927C164.5 385.427 164.6 404.927 164.4 424.527C164.3 425.827 164.6 427.227 165.2 428.327C165.9 429.527 166.9 430.427 168.1 430.927C194.1 445.727 220 460.727 245.9 475.727C247 476.527 248.4 477.027 249.8 477.027C251.2 477.027 252.6 476.627 253.7 475.827C316.9 439.327 380.1 402.827 443.4 366.527C444.7 365.927 445.7 364.927 446.4 363.727C447.1 362.527 447.4 361.127 447.2 359.727C447.1 287.027 447.1 214.227 447.2 141.527C447.3 140.127 447 138.727 446.3 137.527C445.6 136.327 444.5 135.327 443.2 134.827C380.2 98.6274 317.2 62.3274 254.2 26.0274C252.7 25.1274 251.2 24.3274 249.7 23.5274C184.1 61.2274 118.4 99.0274 53.0001 136.727V364.327C72.4001 375.427 91.6001 386.527 111.7 398.027Z" fill="#23262F"/>
<path d="M177.6 250.327C177.6 239.527 177.7 228.627 177.5 217.827C177.3 215.027 178 212.227 179.4 209.727C180.8 207.327 182.9 205.327 185.5 204.127C204.5 193.327 223.4 182.527 242.2 171.427C244.5 169.927 247.2 169.127 249.9 169.127C252.7 169.127 255.4 169.927 257.7 171.427C276.8 182.527 296 193.527 315.2 204.527C317.5 205.727 319.5 207.527 320.8 209.827C322.1 212.127 322.7 214.727 322.6 217.327C322.6 239.427 322.6 261.527 322.6 283.727C322.7 286.427 322.1 289.027 320.7 291.427C319.3 293.727 317.3 295.627 314.9 296.827C295.8 307.527 276.8 318.527 257.8 329.527C255.5 331.027 252.8 331.827 250.1 331.827C247.3 331.827 244.6 331.027 242.3 329.527C223.3 318.427 204.3 307.527 185.2 296.627C182.7 295.427 180.7 293.427 179.3 291.127C177.9 288.827 177.3 286.027 177.5 283.227C177.7 272.327 177.6 261.327 177.6 250.327ZM250.1 181.627C249.7 181.827 249.2 181.927 248.8 182.227C230 193.027 211.3 203.827 192.4 214.627C191.5 215.127 190.8 215.827 190.4 216.727C190 217.627 189.8 218.627 190 219.627C190.1 240.327 190.1 260.927 190 281.627C189.9 282.727 190.2 283.827 190.8 284.827C191.4 285.827 192.2 286.527 193.3 287.027C205.4 293.827 217.4 300.827 229.4 307.727L250 319.527C251.4 318.727 252.7 318.127 253.9 317.327C271.4 307.227 288.9 297.127 306.5 287.127C307.7 286.627 308.6 285.727 309.2 284.627C309.8 283.527 310.1 282.227 310 281.027C309.9 260.627 309.9 240.227 310 219.927C310.1 218.627 309.8 217.427 309.2 216.327C308.6 215.227 307.6 214.327 306.4 213.827C288.6 203.727 270.8 193.427 253 183.227C252.1 182.627 251.1 182.127 250.1 181.627Z" fill="#23262F"/>
</g>
<defs>
<clipPath id="clip0_1_8619">
<rect width="500" height="500" fill="white" transform="translate(0 0.527344)"/>
</clipPath>
</defs>
</svg>
