<svg width="500" height="501" viewBox="0 0 500 501" fill="none" xmlns="http://www.w3.org/2000/svg">
<path d="M250 498.527C387 498.527 498 387.527 498 250.527C498 113.527 387 2.52734 250 2.52734C113 2.52734 2 113.527 2 250.527C2 387.527 113 498.527 250 498.527Z" fill="url(#paint0_linear_1_8622)"/>
<path opacity="0.95" fill-rule="evenodd" clip-rule="evenodd" d="M298.8 70.4272C273.7 70.4272 249.1 77.8272 228.2 91.8272C207.3 105.827 191 125.627 181.4 148.827C171.8 172.027 169.3 197.627 174.2 222.327C179.1 247.027 191.2 269.627 209 287.427C226.8 305.227 249.4 317.327 274.1 322.227C298.8 327.127 324.3 324.627 347.6 315.027C370.8 305.427 390.7 289.127 404.7 268.227C418.7 247.327 426.1 222.727 426.1 197.627C426.1 163.927 412.7 131.627 388.9 107.727C364.9 83.8272 332.5 70.4272 298.8 70.4272ZM298.8 275.027C283.5 275.027 268.5 270.527 255.7 261.927C242.9 253.427 233 241.327 227.1 227.127C221.2 212.927 219.7 197.327 222.7 182.327C225.7 167.327 233.1 153.427 243.9 142.627C254.7 131.827 268.6 124.427 283.6 121.427C298.6 118.427 314.2 119.927 328.4 125.827C342.6 131.727 354.7 141.627 363.2 154.427C371.7 167.227 376.3 182.127 376.3 197.527C376.3 218.027 368.1 237.727 353.6 252.327C339.1 266.827 319.4 275.027 298.8 275.027ZM160.9 403.227C198.7 391.827 220.1 351.827 208.6 314.027C197.2 276.227 157.2 254.827 119.4 266.327C81.6001 277.727 60.2001 317.727 71.7001 355.527C83.2001 393.327 123.1 414.627 160.9 403.227ZM280.5 371.527C299.2 365.927 316.3 356.027 330.4 342.527C345.3 338.727 359.6 332.627 372.6 324.327C357 352.027 332.8 374.027 303.7 386.727C274.5 399.527 242 402.527 211 395.127C215.8 388.827 219.8 382.027 222.9 374.827C242.1 378.227 261.8 377.127 280.5 371.527Z" fill="url(#paint1_linear_1_8622)"/>
<defs>
<linearGradient id="paint0_linear_1_8622" x1="250" y1="2.52734" x2="250" y2="494.138" gradientUnits="userSpaceOnUse">
<stop stop-color="#E75241"/>
<stop offset="1" stop-color="#D13735"/>
</linearGradient>
<linearGradient id="paint1_linear_1_8622" x1="247.288" y1="399.354" x2="247.288" y2="69.4882" gradientUnits="userSpaceOnUse">
<stop stop-color="white"/>
<stop offset="1" stop-color="white" stop-opacity="0.9"/>
</linearGradient>
</defs>
</svg>
