<svg width="500" height="501" viewBox="0 0 500 501" fill="none" xmlns="http://www.w3.org/2000/svg">
<g clip-path="url(#clip0_1_8625)">
<path d="M207.5 214.327L223.7 260.527H187.5L203.7 214.327H207.5ZM292.5 285.527H266.3V294.327H331.3V285.527H305V211.727H331.2V202.927H266.2V211.727H292.4V285.527H292.5ZM175 295.527L183.8 270.527H226.3L235.1 295.527H248.9L215 203.027H196.2L162.5 295.527H175ZM382.5 383.027H117.5V118.027H382.5V383.027Z" fill="#231F20"/>
<path d="M276.2 500.527C393.8 488.027 488.7 394.327 500 276.727H468.8C457.5 379.327 380 460.527 276.2 473.027V500.527Z" fill="#231F20"/>
<path d="M0 276.727C12.5 394.327 106.2 488.027 223.8 500.527V471.727C120 460.527 42.5 378.027 31.2 276.727H0Z" fill="#231F20"/>
<path d="M500 224.327C487.5 106.727 393.8 13.0273 276.2 0.527344V29.3273C381.2 40.5273 457.5 123.027 468.8 225.527H500V224.327Z" fill="#231F20"/>
<path d="M223.8 0.527344C106.2 13.0273 12.5 106.727 0 224.327H31.2C42.5 121.727 120 40.5273 223.8 29.3273V0.527344Z" fill="#231F20"/>
</g>
<defs>
<clipPath id="clip0_1_8625">
<rect width="500" height="500" fill="white" transform="translate(0 0.527344)"/>
</clipPath>
</defs>
</svg>
