<svg width="500" height="501" viewBox="0 0 500 501" fill="none" xmlns="http://www.w3.org/2000/svg">
<path fill-rule="evenodd" clip-rule="evenodd" d="M141.8 321.427C140.3 326.727 135.6 328.027 131.4 324.227L48.0002 251.727C43.7002 248.027 44.7002 243.327 50.1002 241.227L167 197.627C172.4 195.627 175.7 198.227 174.2 203.527L141.8 321.427Z" fill="#404971"/>
<path fill-rule="evenodd" clip-rule="evenodd" d="M77.5001 389.127C73.2001 392.727 68.8001 391.227 67.8001 385.827L45.6001 266.827C44.6001 261.427 47.2001 260.027 51.3001 263.827L128.5 333.527C132.7 337.327 132.5 343.327 128.2 346.927L77.5001 389.127Z" fill="#546096"/>
<path fill-rule="evenodd" clip-rule="evenodd" d="M172.5 170.027C176.4 174.527 175 179.927 169.5 182.127L52.2997 228.627C46.7997 230.827 43.9997 228.127 46.0997 222.527L94.1997 94.0274C96.2997 88.5274 101.1 87.6274 105 92.1274L172.5 170.027Z" fill="#546096"/>
<path fill-rule="evenodd" clip-rule="evenodd" d="M55.8002 375.527C56.9002 381.227 55.1002 381.927 51.7002 377.027L4.60017 308.527C1.30017 303.727 1.50017 295.927 5.20017 291.327L26.3002 264.727C30.0002 260.127 33.9002 260.927 35.0002 266.627L55.8002 375.527Z" fill="#546096"/>
<path fill-rule="evenodd" clip-rule="evenodd" d="M36 214.527C34 219.927 30.8 219.927 29 214.427L13.7 168.627C11.9 163.127 13.9 155.427 18.2 151.527L72.7 102.227C77 98.3274 78.9 99.6274 76.9 105.027L36 214.527Z" fill="#546096"/>
<path fill-rule="evenodd" clip-rule="evenodd" d="M23.1003 222.827C24.7003 227.927 23.5003 235.527 20.5003 239.827L6.90027 259.027C3.90027 263.327 1.80027 262.427 2.30027 257.127L8.80027 190.427C9.30027 185.127 11.1003 184.927 12.6003 190.027L23.1003 222.827Z" fill="#546096"/>
<path fill-rule="evenodd" clip-rule="evenodd" d="M87.7001 68.4273C89.6001 70.4273 87.7001 74.8273 83.5001 78.2273L59.8001 97.7273C55.6001 101.127 54.9001 100.627 58.3001 96.5273L78.2001 72.3273C81.5001 68.2273 85.8001 66.5273 87.7001 68.4273Z" fill="#546096"/>
<path fill-rule="evenodd" clip-rule="evenodd" d="M229.4 451.927C226.5 456.927 221.4 457.127 218.2 452.327L154.7 360.127C151.4 355.427 153.5 351.027 159.2 350.427L286.9 337.327C292.6 336.727 295 340.327 292 345.327L229.4 451.927Z" fill="#546096"/>
<path fill-rule="evenodd" clip-rule="evenodd" d="M205.4 449.927C208.6 454.627 206.9 457.027 201.4 455.127L82.4001 414.927C77.0001 413.127 76.1001 408.527 80.4001 404.827L131.4 361.127C135.7 357.427 142 358.227 145.2 362.927L205.4 449.927Z" fill="#546096"/>
<path fill-rule="evenodd" clip-rule="evenodd" d="M291.2 314.727C294.9 319.127 293.3 323.127 287.7 323.727L161.1 337.127C155.5 337.727 152 333.627 153.5 328.027L185.2 201.927C186.6 196.327 190.8 195.327 194.4 199.727L291.2 314.727Z" fill="#15F9FF"/>
<path fill-rule="evenodd" clip-rule="evenodd" d="M388.2 417.327C391.9 421.727 390.4 426.327 384.9 427.527L256.2 455.527C250.7 456.727 248.5 453.627 251.3 448.527L312 341.327C314.8 336.327 320.2 335.827 323.8 340.227L388.2 417.327Z" fill="#546096"/>
<path fill-rule="evenodd" clip-rule="evenodd" d="M175.9 486.527C171.1 489.327 163.8 488.427 159.7 484.427L101.8 428.027C97.7005 424.027 98.6005 422.327 103.8 424.327L203 461.527C208.2 463.427 208.5 467.427 203.7 470.227L175.9 486.527Z" fill="#546096"/>
<path fill-rule="evenodd" clip-rule="evenodd" d="M322.4 495.527C318.1 499.127 310.5 500.027 305.6 497.427L264.4 475.927C259.4 473.327 259.8 470.227 265.3 469.027L374.7 445.327C380.1 444.127 381.1 446.127 376.8 449.727L322.4 495.527Z" fill="#546096"/>
<path fill-rule="evenodd" clip-rule="evenodd" d="M201.2 495.827C195.1 495.627 194.5 493.327 199.9 490.727L224 479.327C229.4 476.827 238.2 476.727 243.6 479.127L278.8 494.927C284.2 497.327 283.7 499.127 277.6 498.927L201.2 495.827Z" fill="#546096"/>
<path fill-rule="evenodd" clip-rule="evenodd" d="M411.1 435.527C413.1 438.127 410.4 442.827 405 446.027L373.1 464.727C367.7 467.927 367.2 467.027 371.9 462.727L398.8 438.627C403.5 434.327 409.1 432.927 411.1 435.527Z" fill="#546096"/>
<path fill-rule="evenodd" clip-rule="evenodd" d="M333.2 304.127C327.8 306.127 324.5 303.527 326 298.227L358.5 180.427C360 175.127 364.7 173.827 369 177.627L452.4 250.127C456.7 253.827 455.7 258.527 450.3 260.627L333.2 304.127Z" fill="#404971"/>
<path fill-rule="evenodd" clip-rule="evenodd" d="M454.7 235.027C455.7 240.427 453.1 241.827 449 238.027L371.8 168.327C367.6 164.527 367.8 158.527 372.1 154.927L422.8 112.727C427.1 109.127 431.5 110.627 432.5 116.027L454.7 235.027Z" fill="#546096"/>
<path fill-rule="evenodd" clip-rule="evenodd" d="M406.1 407.927C404 413.427 399.2 414.327 395.3 409.827L327.8 331.927C323.9 327.427 325.3 322.027 330.8 319.827L448 273.227C453.5 271.027 456.3 273.727 454.2 279.227L406.1 407.927Z" fill="#546096"/>
<path fill-rule="evenodd" clip-rule="evenodd" d="M495.7 193.327C499 198.227 498.8 205.927 495.1 210.527L474 237.127C470.3 241.727 466.4 240.927 465.3 235.227L444.4 126.227C443.3 120.527 445.1 119.827 448.5 124.727L495.7 193.327Z" fill="#546096"/>
<path fill-rule="evenodd" clip-rule="evenodd" d="M486.5 333.227C488.3 338.727 486.3 346.427 482 350.327L427.5 399.627C423.2 403.527 421.3 402.227 423.3 396.827L464.1 287.327C466.1 281.927 469.3 281.927 471.1 287.427L486.5 333.227Z" fill="#546096"/>
<path fill-rule="evenodd" clip-rule="evenodd" d="M491.4 311.527C490.9 316.827 489.1 317.027 487.5 311.927L477.1 279.027C475.5 273.927 476.7 266.327 479.7 262.027L493.3 242.827C496.3 238.527 498.4 239.427 497.9 244.727L491.4 311.527Z" fill="#546096"/>
<path fill-rule="evenodd" clip-rule="evenodd" d="M422 429.527C418.6 433.627 414.3 435.327 412.5 433.427C410.6 431.427 412.5 427.027 416.7 423.627L440.5 404.127C444.7 400.727 445.4 401.227 442 405.327L422 429.527Z" fill="#546096"/>
<path fill-rule="evenodd" clip-rule="evenodd" d="M334.8 141.727C338.1 146.427 336 150.827 330.3 151.427L202.6 164.527C196.9 165.127 194.6 161.527 197.5 156.527L260 49.9273C262.9 44.9273 268 44.7273 271.2 49.5273L334.8 141.727Z" fill="#404971"/>
<path fill-rule="evenodd" clip-rule="evenodd" d="M368.8 140.727C364.5 144.427 358.2 143.627 355 138.927L294.9 51.8274C291.6 47.1274 293.4 44.7274 298.9 46.6274L417.9 86.8274C423.3 88.6274 424.2 93.2274 419.9 96.9274L368.8 140.727Z" fill="#546096"/>
<path fill-rule="evenodd" clip-rule="evenodd" d="M315.1 299.927C313.7 305.527 309.5 306.527 305.9 302.127L209 187.127C205.3 182.727 206.9 178.727 212.5 178.127L339.1 164.727C344.7 164.127 348.2 168.227 346.7 173.827L315.1 299.927Z" fill="#546096"/>
<path fill-rule="evenodd" clip-rule="evenodd" d="M188.2 160.527C185.4 165.527 180 166.027 176.3 161.627L112 84.5274C108.3 80.1274 109.8 75.5274 115.3 74.3274L244 46.3274C249.5 45.1274 251.7 48.2274 248.9 53.3274L188.2 160.527Z" fill="#546096"/>
<path fill-rule="evenodd" clip-rule="evenodd" d="M297.3 40.4274C292.1 38.5274 291.8 34.5274 296.7 31.7274L324.3 15.3274C329.1 12.5274 336.4 13.4274 340.5 17.4274L398.4 73.8274C402.5 77.8274 401.6 79.5274 396.4 77.5274L297.3 40.4274Z" fill="#546096"/>
<path fill-rule="evenodd" clip-rule="evenodd" d="M125.6 56.5272C120.2 57.7272 119.2 55.7272 123.5 52.1272L177.9 6.32724C182.2 2.72724 189.8 1.82724 194.7 4.42724L235.9 25.9272C240.9 28.5272 240.5 31.6272 235 32.7272L125.6 56.5272Z" fill="#546096"/>
<path fill-rule="evenodd" clip-rule="evenodd" d="M276.3 22.5273C270.9 25.0273 262.1 25.1273 256.7 22.7273L221.5 6.92729C216.1 4.52729 216.6 2.72729 222.7 2.92729L299 6.12729C305.1 6.32729 305.7 8.62729 300.3 11.2273L276.3 22.5273Z" fill="#546096"/>
<path fill-rule="evenodd" clip-rule="evenodd" d="M101.4 63.3275C96.7004 67.5275 91.1004 68.9275 89.1004 66.3275C87.1004 63.7275 89.8004 59.0275 95.2004 55.8275L127.1 37.1275C132.5 33.9275 133 34.8275 128.3 39.1275L101.4 63.3275Z" fill="#546096"/>
<path fill-rule="evenodd" clip-rule="evenodd" d="M67.7001 413.427C69.7001 411.527 74.1001 413.427 77.5001 417.627L97.0001 441.327C100.4 445.527 99.9001 446.227 95.8001 442.827L71.6001 422.927C67.5001 419.527 65.7001 415.227 67.7001 413.427Z" fill="#546096"/>
<path fill-rule="evenodd" clip-rule="evenodd" d="M434.7 89.9273C437.3 87.9273 442 90.6273 445.2 96.0273L463.9 127.927C467.1 133.327 466.2 133.827 461.9 129.127L437.8 102.227C433.4 97.4273 432.1 91.9273 434.7 89.9273Z" fill="#546096"/>
<path fill-rule="evenodd" clip-rule="evenodd" d="M428.7 78.9274C432.8 82.3274 434.5 86.6274 432.6 88.4274C430.6 90.3274 426.2 88.4274 422.8 84.2274L403.3 60.5274C399.9 56.3274 400.4 55.6274 404.5 59.0274L428.7 78.9274Z" fill="#546096"/>
<path fill-rule="evenodd" clip-rule="evenodd" d="M51.8002 399.727C56.0002 404.427 57.4002 410.027 54.8002 412.027C52.2002 414.027 47.5002 411.327 44.4002 405.927L25.7002 374.027C22.5002 368.627 23.4002 368.127 27.7002 372.827L51.8002 399.727Z" fill="#546096"/>
</svg>
