<svg width="500" height="501" viewBox="0 0 500 501" fill="none" xmlns="http://www.w3.org/2000/svg">
<g clip-path="url(#clip0_1_8667)">
<path fill-rule="evenodd" clip-rule="evenodd" d="M249.5 336.427C297.2 336.427 335.9 297.727 335.9 250.027C335.9 202.327 297.2 163.627 249.5 163.627C201.8 163.627 163.1 202.327 163.1 250.027C163.1 297.727 201.8 336.427 249.5 336.427ZM249.5 100.327C332.2 100.327 399.2 167.327 399.2 250.027C399.2 332.727 332.2 399.727 249.5 399.727C166.8 399.727 99.7996 332.727 99.7996 250.027C99.7996 167.327 166.9 100.327 249.5 100.327ZM499 244.727V245.027C499 256.927 489.4 266.627 477.5 266.627C465.6 266.627 455.9 256.927 456 245.027V244.727C455.9 133.727 366.2 43.7273 255.5 43.7273H255.4H254.5C242.6 43.7273 232.9 34.0273 233 22.1273C233 10.2273 242.6 0.527344 254.5 0.527344C254.8 0.527344 255.1 0.527344 255.4 0.527344H255.5C389.9 0.527344 499 109.827 499 244.727ZM465.7 288.827C478 288.827 487.9 298.727 487.9 311.027C487.9 323.327 478 333.227 465.7 333.227C453.4 333.227 443.5 323.327 443.5 311.027C443.5 298.727 453.5 288.827 465.7 288.827ZM244.6 456.227C256.5 456.227 266.2 465.927 266.1 477.827C266.1 489.727 256.5 499.427 244.6 499.427C244.3 499.427 244 499.427 243.7 499.427H247.2C227.5 499.727 207.9 497.627 188.7 493.227C80.6996 468.227 0.0996094 371.227 0.0996094 255.327V255.027C0.0996094 243.127 9.69961 233.427 21.5996 233.427C33.4996 233.427 43.1996 243.127 43.1996 255.027C43.1996 255.127 43.1996 255.127 43.1996 255.227H43.2996V255.327C43.2996 351.527 110.7 431.927 200.8 451.727C214.6 454.727 229 456.327 243.7 456.327H243.8L244.6 456.227ZM33.2996 211.227C20.9996 211.227 11.0996 201.327 11.0996 189.027C11.0996 176.727 20.9996 166.827 33.2996 166.827C45.5996 166.827 55.4996 176.727 55.4996 189.027C55.4996 201.227 45.5996 211.227 33.2996 211.227Z" fill="url(#paint0_linear_1_8667)"/>
</g>
<defs>
<linearGradient id="paint0_linear_1_8667" x1="0.0500239" y1="250.008" x2="499" y2="250.008" gradientUnits="userSpaceOnUse">
<stop stop-color="#006BB8"/>
<stop offset="1" stop-color="#00B288"/>
</linearGradient>
<clipPath id="clip0_1_8667">
<rect width="500" height="500" fill="white" transform="translate(0 0.527344)"/>
</clipPath>
</defs>
</svg>
