<svg width="500" height="501" viewBox="0 0 500 501" fill="none" xmlns="http://www.w3.org/2000/svg">
<path d="M416.1 251.527C416.1 288.527 406.4 323.227 389.3 353.227C389 353.827 388.6 354.427 388.2 355.027C380.5 367.727 366.5 376.227 350.6 376.227C326.3 376.227 306.6 356.527 306.6 332.227C306.6 324.827 308.5 317.727 311.7 311.627C312.1 310.927 312.5 310.227 312.9 309.427C312.9 309.327 313 309.327 313 309.327C313.4 308.527 313.8 307.827 314.3 307.027C327 283.827 334.2 257.127 334.2 228.827C334.3 138.627 261.2 65.5273 171 65.5273C131.2 65.5273 94.8 79.7273 66.5 103.327C103.6 67.4273 154.2 45.2273 209.9 45.2273C323.8 45.2273 416.1 137.627 416.1 251.527Z" fill="url(#paint0_linear_1_8669)"/>
<path d="M314.4 307.027C323.3 290.227 328.3 271.127 328.3 250.827C328.3 184.527 274.6 130.727 208.2 130.727C141.9 130.727 88.1002 184.427 88.1002 250.827C88.1002 317.127 141.9 370.927 208.2 370.927C250.4 370.927 287.6 349.127 309 316.227C280.1 361.927 229 392.227 171 392.227C80.8002 392.227 7.7002 319.127 7.7002 228.927C7.7002 218.927 8.6002 209.027 10.3002 199.527C20.0002 162.427 39.7002 129.327 66.4002 103.427C94.8002 79.7273 131.2 65.5273 171 65.5273C261.2 65.5273 334.3 138.627 334.3 228.827C334.3 257.127 327.1 283.727 314.4 307.027Z" fill="url(#paint1_linear_1_8669)"/>
<path d="M413 113.527C435.478 113.527 453.7 95.3054 453.7 72.8274C453.7 50.3495 435.478 32.1274 413 32.1274C390.522 32.1274 372.3 50.3495 372.3 72.8274C372.3 95.3054 390.522 113.527 413 113.527Z" fill="url(#paint2_linear_1_8669)"/>
<path d="M494.1 184.127C494.1 160.527 474.9 141.327 451.3 141.327C445.4 141.327 439.8 142.527 434.7 144.627C413.9 151.727 394.5 163.527 376.5 179.327L394.6 300.627C408.4 269.127 429.7 238.127 466 224.327C466.1 224.327 466.2 224.227 466.2 224.227C466.4 224.127 466.7 224.027 466.9 223.927C482.8 217.727 494.1 202.227 494.1 184.127Z" fill="url(#paint3_linear_1_8669)"/>
<path d="M428.1 213.627C428.1 190.027 408.9 170.827 385.3 170.827C370.9 170.827 358.1 177.927 350.4 188.927C349.7 189.927 349 191.027 348.3 192.127C321.6 234.027 306.2 278.627 305.5 326.927L389.8 352.027C396.7 342.427 400.1 328.827 400.2 317.927C400.5 278.127 404.3 262.227 419 240.027C424.7 232.727 428.1 223.527 428.1 213.627Z" fill="url(#paint4_linear_1_8669)"/>
<path d="M350.7 288.227C334.8 288.227 320.9 296.627 313.2 309.227L313.1 309.327C312.7 310.027 312.3 310.727 311.9 311.527C311 313.027 310.1 314.527 309.1 316.027C280.2 361.727 229.1 392.027 171.1 392.027C80.9002 392.027 7.8002 318.927 7.8002 228.727C7.8002 218.727 8.7002 208.827 10.4002 199.327C6.0002 216.027 3.7002 233.527 3.7002 251.527C3.7002 365.427 96.0002 457.727 209.9 457.727C286 457.727 352.5 416.427 388.2 355.027C388.6 354.427 388.9 353.827 389.3 353.227C392.7 347.027 394.6 339.827 394.6 332.227C394.6 307.927 374.9 288.227 350.7 288.227Z" fill="url(#paint5_linear_1_8669)"/>
<defs>
<linearGradient id="paint0_linear_1_8669" x1="66.4763" y1="210.726" x2="416.101" y2="210.726" gradientUnits="userSpaceOnUse">
<stop stop-color="#4B83BC"/>
<stop offset="1" stop-color="#70C3D5"/>
</linearGradient>
<linearGradient id="paint1_linear_1_8669" x1="8.0648" y1="228.806" x2="331.099" y2="228.806" gradientUnits="userSpaceOnUse">
<stop stop-color="#A1D5D9"/>
<stop offset="1" stop-color="#3866B0"/>
</linearGradient>
<linearGradient id="paint2_linear_1_8669" x1="384.962" y1="113.371" x2="432.754" y2="44.3385" gradientUnits="userSpaceOnUse">
<stop stop-color="#59388D"/>
<stop offset="1" stop-color="#E06EA6"/>
</linearGradient>
<linearGradient id="paint3_linear_1_8669" x1="399.34" y1="271.103" x2="455.097" y2="139.235" gradientUnits="userSpaceOnUse">
<stop stop-color="#FFE080"/>
<stop offset="1" stop-color="#FF753E"/>
</linearGradient>
<linearGradient id="paint4_linear_1_8669" x1="305.427" y1="261.386" x2="428.053" y2="261.386" gradientUnits="userSpaceOnUse">
<stop stop-color="#59388D"/>
<stop offset="1" stop-color="#E06EA6"/>
</linearGradient>
<linearGradient id="paint5_linear_1_8669" x1="3.703" y1="328.53" x2="394.611" y2="328.53" gradientUnits="userSpaceOnUse">
<stop offset="0.155" stop-color="#529FC1"/>
<stop offset="0.7646" stop-color="#FF7714"/>
</linearGradient>
</defs>
</svg>
