<svg width="500" height="501" viewBox="0 0 500 501" fill="none" xmlns="http://www.w3.org/2000/svg">
<g clip-path="url(#clip0_1_8676)">
<path d="M477.8 88.9273C472.7 69.3273 456.3 49.7273 426.9 27.9273C403.3 10.5273 378.2 0.527344 358.2 0.527344C354.2 0.527344 350.6 0.927344 346.9 1.62734C337.8 3.42734 329.8 10.1273 324.7 20.1273C318.5 31.9273 317.1 47.8273 321.1 57.5273C322.6 60.5273 324.4 64.2273 326.6 67.5273C307.3 79.3273 296.4 82.7273 295 83.0273C345.2 100.027 387 135.527 413.2 181.727L413.6 177.327C414.7 165.127 418.3 151.027 423.4 136.627C428.5 138.127 433.6 138.827 438.7 138.827C452.2 138.827 463.8 133.327 471.1 123.327C478.2 113.327 481.1 100.027 477.8 88.9273Z" fill="#5E12A0"/>
<path d="M425.5 125.927C458.6 135.127 472 109.327 467.7 91.9274C463 74.5274 447.7 56.8274 420.8 36.8274C393.9 16.8274 366.6 8.72736 349.2 12.4274C331.7 16.1274 326.7 43.1274 331 53.5274C332.8 57.6274 336.8 63.5274 342.3 70.1274C335.4 74.9274 328.8 78.6274 323.4 81.9274C356.8 97.1274 385.9 120.727 407.7 150.327C410.2 140.327 413.9 131.427 417.2 123.727C419.7 124.027 422.6 124.827 425.5 125.927Z" fill="url(#paint0_radial_1_8676)"/>
<path d="M236.1 488.327C348.3 488.327 439.3 395.727 439.3 281.627C439.3 167.527 348.3 74.9272 236.1 74.9272C123.9 74.9272 32.8999 167.527 32.8999 281.627C32.8999 395.727 123.8 488.327 236.1 488.327Z" fill="url(#paint1_radial_1_8676)"/>
<path opacity="0.6" d="M450.9 74.8273C423.3 45.2273 400 37.5273 372 31.2273C350.2 26.0273 356 13.4273 382.5 16.0273C369.8 11.6273 357.8 10.5273 349.1 12.3273C331.6 16.0273 326.6 43.0273 330.9 53.4273C332.7 57.5273 336.7 63.4273 342.2 70.0273C332.4 76.7273 324 81.5273 317.1 85.2273C320.4 86.7273 324.4 88.5273 329.1 91.1273C341.5 97.8273 354.9 108.927 354.9 108.927C334.5 91.1273 338.9 83.0273 366.9 63.0273C375.6 56.7273 391.6 57.5273 406.5 65.2273C421.4 72.9273 438.9 92.6273 438.9 92.6273L422.2 125.127C423.3 125.527 424.4 125.827 425.5 126.227C436 129.227 444.4 128.427 450.9 125.827C458.6 121.127 478.6 104.827 450.9 74.8273Z" fill="#A98698"/>
<path d="M371.7 48.9274C379 51.9274 388.4 57.0274 400.1 64.8274C413.9 74.0274 425.9 84.4274 433.5 92.5274C420.8 109.527 412.4 132.827 407.3 149.127C409.8 152.827 412.8 156.527 415.3 160.227C417.8 151.027 422.2 137.327 428 123.627C429.5 124.027 431.3 124.027 433.1 124.027C437.5 124.027 442.6 123.327 446.6 119.927C449.5 117.727 452.8 113.627 452.4 106.227C452.4 99.2274 446.9 90.3274 435.7 79.6274C427.7 71.8274 416.8 63.3274 405.9 55.6274C374.6 34.5274 352.8 28.6274 343 38.6274C336.5 45.3274 337.2 53.4274 339.4 59.3274C327.8 67.1274 317.9 72.6274 311.4 76.3274C315.8 77.8274 319.8 79.6274 324.1 81.5274C335.7 75.2274 352.4 64.5274 371.7 48.9274ZM440.4 101.827C441.5 103.627 441.9 105.527 441.9 106.627C441.9 109.927 440.8 111.027 440.1 111.827C438.6 112.927 435.7 113.627 433.2 113.627C435.3 109.227 437.8 105.527 440.4 101.827ZM350.6 46.7274C351.7 45.6274 354.6 44.9274 359.3 45.6274C355.7 48.6274 352 51.1274 348.4 53.7274C348 51.2274 348.4 48.6274 350.6 46.7274Z" fill="#5E12A0"/>
<path d="M236.1 62.6274C117.2 62.6274 20.8999 160.627 20.8999 281.527C20.8999 402.427 117.2 500.527 236.1 500.527C355 500.527 451.3 402.527 451.3 281.627C451.3 160.727 354.6 62.6274 236.1 62.6274ZM236.1 488.327C123.8 488.327 32.8999 395.827 32.8999 281.627C32.8999 167.427 123.7 74.8274 236.1 74.8274C348.4 74.8274 439.3 167.327 439.3 281.527C439.3 395.727 348 488.327 236.1 488.327Z" fill="#5E12A0"/>
<path opacity="0.6" d="M236.1 488.327C348.3 488.327 439.3 395.727 439.3 281.627C439.3 167.527 348.3 74.9272 236.1 74.9272C123.9 74.9272 32.8999 167.527 32.8999 281.627C32.8999 395.727 123.8 488.327 236.1 488.327Z" fill="url(#paint2_linear_1_8676)"/>
<path opacity="0.6" d="M234.6 463.127C123.7 445.027 48.4999 338.827 66.5999 226.027C74.5999 176.127 99.2999 133.527 134.2 102.827C83.2999 132.827 45.4999 184.927 35.2999 248.527C17.4999 361.327 92.6999 467.427 203.3 485.627C265.1 496.027 324.7 476.427 368.7 437.927C329.9 460.927 282.6 470.927 234.6 463.127Z" fill="#A98698"/>
<path opacity="0.6" d="M268.4 77.8274C217.1 69.3274 167.3 81.1274 126.6 107.427C125.9 108.127 125.1 108.927 125.1 108.927C140.7 99.3274 163.6 90.8274 163.6 90.8274C104.7 125.627 86.5 165.127 86.5 165.127C109.4 120.027 176.7 88.2274 229.4 86.0274C282.1 83.8274 316.7 99.7274 358.8 134.127C401 168.927 426.4 239.927 423.9 296.127C421.7 352.327 392.6 397.827 392.6 397.827C412.6 371.527 424.6 352.327 432.2 332.727C433.7 326.827 435.1 320.927 435.8 314.627C454.2 202.127 379.3 95.9274 268.4 77.8274Z" fill="url(#paint3_linear_1_8676)"/>
<path d="M429.1 279.727C429.1 388.127 342.6 476.127 236 476.127C129.4 476.127 42.6001 388.127 42.6001 279.727H429.1Z" fill="url(#paint4_linear_1_8676)"/>
<g opacity="0.6">
<path opacity="0.6" d="M413.8 279.727C413.8 385.527 331.6 472.027 228.4 476.127C230.9 476.127 233.5 476.127 236 476.127C342.5 476.127 429.1 388.127 429.1 279.727H413.8Z" fill="url(#paint5_linear_1_8676)"/>
</g>
<g opacity="0.7">
<path opacity="0.7" d="M69.9001 279.727H42.6001C42.6001 388.127 129.1 476.127 235.7 476.127C240.4 476.127 244.8 476.127 249.2 475.727C149.2 468.327 69.9001 383.327 69.9001 279.727Z" fill="url(#paint6_linear_1_8676)"/>
</g>
<path d="M428.8 281.627C428.8 259.027 390.3 246.127 339 241.727C301.9 238.727 264.5 242.427 221.6 255.827C184.5 266.927 151.1 265.027 126.7 262.127C72.5002 255.827 42.7002 255.127 42.7002 281.727C42.7002 320.227 119.8 368.227 235.4 351.627C293.9 343.127 324.1 325.727 358.6 313.927C396 301.227 428.8 301.527 428.8 281.627Z" fill="url(#paint7_linear_1_8676)"/>
<path d="M299.3 188.427C317.4 188.427 332 173.527 332 155.127C332 136.727 317.3 121.827 299.3 121.827C281.3 121.827 266.6 136.727 266.6 155.127C266.6 173.527 281.3 188.427 299.3 188.427Z" fill="white"/>
<path d="M352.8 213.127C360.4 213.127 366.6 206.827 366.6 199.027C366.6 191.227 360.4 184.927 352.8 184.927C345.2 184.927 339 191.227 339 199.027C339 206.827 345.1 213.127 352.8 213.127Z" fill="white"/>
<g opacity="0.6">
<path opacity="0.6" d="M402.2 128.527C401.8 128.527 401.5 128.527 401.5 128.527C399.3 128.127 397.9 125.927 398.2 123.327C401.5 106.327 415.3 90.0273 416 89.3273C417.5 87.5273 420.4 87.5273 421.8 88.9273C423.6 90.4273 423.6 93.3273 422.2 94.8273C421.8 95.2273 409.1 110.327 406.2 125.127C405.8 127.427 404 128.527 402.2 128.527Z" fill="url(#paint8_linear_1_8676)"/>
</g>
<path opacity="0.2" d="M222.6 435.827C228.2 435.827 232.8 431.227 232.8 425.427C232.8 419.727 228.2 415.027 222.6 415.027C217 415.027 212.4 419.627 212.4 425.427C212.5 431.127 217 435.827 222.6 435.827Z" fill="white"/>
<g opacity="0.4">
<path opacity="0.6" d="M216.8 432.127C212.8 428.027 212.8 421.427 216.8 417.327C217.5 416.627 218.3 416.227 219 415.427C217.5 415.827 216.5 416.527 215.4 417.627C211.4 421.727 211.4 428.327 215.4 432.427C218.7 435.727 223.8 436.527 227.8 434.227C224.1 435.827 219.7 435.127 216.8 432.127Z" fill="url(#paint9_linear_1_8676)"/>
</g>
<path opacity="0.3" d="M226.2 422.527C227.4 422.527 228.4 421.527 228.4 420.327C228.4 419.127 227.4 418.127 226.2 418.127C225 418.127 224 419.127 224 420.327C224.1 421.527 225 422.527 226.2 422.527Z" fill="white"/>
<path opacity="0.2" d="M275.7 430.627C281.3 430.627 285.9 426.027 285.9 420.227C285.9 414.527 281.3 409.827 275.7 409.827C270.1 409.827 265.5 414.427 265.5 420.227C265.5 426.027 270.1 430.627 275.7 430.627Z" fill="white"/>
<g opacity="0.4">
<path opacity="0.6" d="M269.9 426.927C265.9 422.827 265.9 416.227 269.9 412.127C270.6 411.427 271.4 411.027 272.1 410.327C270.6 410.727 269.6 411.427 268.5 412.527C264.5 416.627 264.5 423.227 268.5 427.327C271.8 430.627 276.9 431.427 280.9 429.127C277.1 430.627 272.8 429.927 269.9 426.927Z" fill="url(#paint10_linear_1_8676)"/>
</g>
<path opacity="0.3" d="M279.3 417.327C280.5 417.327 281.5 416.327 281.5 415.127C281.5 413.927 280.5 412.927 279.3 412.927C278.1 412.927 277.1 413.927 277.1 415.127C277.1 416.327 278.1 417.327 279.3 417.327Z" fill="white"/>
<path opacity="0.2" d="M249.5 454.627C253.7 454.627 257.1 451.127 257.1 446.827C257.1 442.527 253.7 439.027 249.5 439.027C245.3 439.027 241.9 442.527 241.9 446.827C241.9 451.227 245.3 454.627 249.5 454.627Z" fill="white"/>
<g opacity="0.4">
<path opacity="0.6" d="M245.2 451.727C242.3 448.727 242.3 443.627 245.2 440.627C245.6 440.227 246.3 439.927 246.7 439.527C245.6 439.927 244.9 440.627 244.2 441.327C241.3 444.327 241.3 449.427 244.2 452.427C246.7 455.027 250.4 455.427 253.7 453.527C250.6 454.727 247.3 453.927 245.2 451.727Z" fill="url(#paint11_linear_1_8676)"/>
</g>
<path opacity="0.3" d="M252.1 444.327C252.9 444.327 253.6 443.627 253.6 442.827C253.6 442.027 252.9 441.327 252.1 441.327C251.3 441.327 250.6 442.027 250.6 442.827C250.6 443.627 251.3 444.327 252.1 444.327Z" fill="white"/>
<path opacity="0.2" d="M296.4 449.127C300.6 449.127 304 445.627 304 441.327C304 437.027 300.6 433.527 296.4 433.527C292.2 433.527 288.8 437.027 288.8 441.327C288.8 445.627 292.2 449.127 296.4 449.127Z" fill="white"/>
<g opacity="0.4">
<path opacity="0.6" d="M292.1 446.127C289.2 443.127 289.2 438.027 292.1 435.027C292.5 434.627 293.2 434.327 293.6 433.927C292.5 434.327 291.8 435.027 291.1 435.727C288.2 438.727 288.2 443.827 291.1 446.827C293.6 449.427 297.3 449.827 300.6 447.927C297.5 449.127 294.2 448.427 292.1 446.127Z" fill="url(#paint12_linear_1_8676)"/>
</g>
<path opacity="0.3" d="M299 438.727C299.8 438.727 300.5 438.027 300.5 437.227C300.5 436.427 299.8 435.727 299 435.727C298.2 435.727 297.5 436.427 297.5 437.227C297.5 438.127 298.2 438.727 299 438.727Z" fill="white"/>
<path opacity="0.2" d="M179.3 432.127C188.5 432.127 196 424.527 196 415.127C196 405.727 188.5 398.127 179.3 398.127C170.1 398.127 162.6 405.727 162.6 415.127C162.6 424.527 170.1 432.127 179.3 432.127Z" fill="white"/>
<g opacity="0.4">
<path opacity="0.6" d="M169.9 425.827C163.4 419.127 163.4 408.427 169.9 401.827C171 400.727 172.1 400.027 173.5 399.227C171.3 399.927 169.5 401.427 167.7 402.927C161.2 409.627 161.2 420.327 167.7 426.927C173.2 432.427 181.5 433.627 188.1 429.527C181.9 432.127 174.6 431.027 169.9 425.827Z" fill="url(#paint13_linear_1_8676)"/>
</g>
<path opacity="0.3" d="M185.2 409.927C187.2 409.927 188.8 408.227 188.8 406.227C188.8 404.227 187.2 402.527 185.2 402.527C183.2 402.527 181.6 404.227 181.6 406.227C181.6 408.227 183.2 409.927 185.2 409.927Z" fill="white"/>
<path opacity="0.2" d="M328.8 390.327C338 390.327 345.5 382.727 345.5 373.327C345.5 363.927 338 356.327 328.8 356.327C319.6 356.327 312.1 363.927 312.1 373.327C312.1 382.727 319.5 390.327 328.8 390.327Z" fill="white"/>
<g opacity="0.4">
<path opacity="0.6" d="M319 384.027C312.5 377.327 312.5 366.627 319 360.027C320.1 358.927 321.2 358.227 322.6 357.427C320.4 358.127 318.6 359.627 316.8 361.127C310.3 367.827 310.3 378.527 316.8 385.127C322.3 390.627 330.6 391.827 337.2 387.727C331 390.327 324 389.227 319 384.027Z" fill="url(#paint14_linear_1_8676)"/>
</g>
<path opacity="0.3" d="M334.6 368.127C336.6 368.127 338.2 366.427 338.2 364.427C338.2 362.427 336.6 360.727 334.6 360.727C332.6 360.727 331 362.427 331 364.427C331 366.527 332.6 368.127 334.6 368.127Z" fill="white"/>
</g>
<defs>
<radialGradient id="paint0_radial_1_8676" cx="0" cy="0" r="1" gradientUnits="userSpaceOnUse" gradientTransform="translate(461.022 68.5728) scale(162.492 165.29)">
<stop stop-color="#FFEAFF" stop-opacity="0.6"/>
<stop offset="0.6807" stop-color="#A087C9"/>
<stop offset="1" stop-color="#10002F"/>
</radialGradient>
<radialGradient id="paint1_radial_1_8676" cx="0" cy="0" r="1" gradientUnits="userSpaceOnUse" gradientTransform="translate(370.621 139.064) scale(397.561 404.407)">
<stop stop-color="#FFEAFF" stop-opacity="0.6"/>
<stop offset="0.6807" stop-color="#A087C9"/>
<stop offset="1" stop-color="#10002F"/>
</radialGradient>
<linearGradient id="paint2_linear_1_8676" x1="202.44" y1="485.511" x2="269.685" y2="77.677" gradientUnits="userSpaceOnUse">
<stop stop-color="#81FFFF"/>
<stop offset="0.6202" stop-color="white" stop-opacity="0"/>
</linearGradient>
<linearGradient id="paint3_linear_1_8676" x1="381.027" y1="143.122" x2="210.354" y2="297.068" gradientUnits="userSpaceOnUse">
<stop offset="0.2888" stop-color="white"/>
<stop offset="0.7796" stop-color="white" stop-opacity="0"/>
</linearGradient>
<linearGradient id="paint4_linear_1_8676" x1="42.647" y1="377.932" x2="429.115" y2="377.932" gradientUnits="userSpaceOnUse">
<stop stop-color="#0002E9"/>
<stop offset="0.9952" stop-color="#FF00C7"/>
</linearGradient>
<linearGradient id="paint5_linear_1_8676" x1="448.322" y1="298.071" x2="234.727" y2="496.514" gradientUnits="userSpaceOnUse">
<stop offset="0.2888" stop-color="white"/>
<stop offset="0.7796" stop-color="white" stop-opacity="0"/>
</linearGradient>
<linearGradient id="paint6_linear_1_8676" x1="42.647" y1="377.932" x2="249.151" y2="377.932" gradientUnits="userSpaceOnUse">
<stop stop-color="#000292"/>
<stop offset="0.9952" stop-color="#7D00C7"/>
</linearGradient>
<linearGradient id="paint7_linear_1_8676" x1="43.0699" y1="297.787" x2="428.762" y2="297.787" gradientUnits="userSpaceOnUse">
<stop stop-color="#000292"/>
<stop offset="0.9952" stop-color="#BE00C7"/>
</linearGradient>
<linearGradient id="paint8_linear_1_8676" x1="422.916" y1="87.787" x2="394.505" y2="133.175" gradientUnits="userSpaceOnUse">
<stop offset="0.2888" stop-color="white"/>
<stop offset="0.7796" stop-color="white" stop-opacity="0"/>
</linearGradient>
<linearGradient id="paint9_linear_1_8676" x1="212.34" y1="425.545" x2="227.722" y2="425.545" gradientUnits="userSpaceOnUse">
<stop offset="0.2888" stop-color="white"/>
<stop offset="0.7796" stop-color="white" stop-opacity="0"/>
</linearGradient>
<linearGradient id="paint10_linear_1_8676" x1="265.373" y1="420.363" x2="280.755" y2="420.363" gradientUnits="userSpaceOnUse">
<stop offset="0.2888" stop-color="white"/>
<stop offset="0.7796" stop-color="white" stop-opacity="0"/>
</linearGradient>
<linearGradient id="paint11_linear_1_8676" x1="241.832" y1="447.123" x2="253.38" y2="447.123" gradientUnits="userSpaceOnUse">
<stop offset="0.2888" stop-color="white"/>
<stop offset="0.7796" stop-color="white" stop-opacity="0"/>
</linearGradient>
<linearGradient id="paint12_linear_1_8676" x1="288.574" y1="441.574" x2="300.122" y2="441.574" gradientUnits="userSpaceOnUse">
<stop offset="0.2888" stop-color="white"/>
<stop offset="0.7796" stop-color="white" stop-opacity="0"/>
</linearGradient>
<linearGradient id="paint13_linear_1_8676" x1="162.647" y1="415.579" x2="187.767" y2="415.579" gradientUnits="userSpaceOnUse">
<stop offset="0.2888" stop-color="white"/>
<stop offset="0.7796" stop-color="white" stop-opacity="0"/>
</linearGradient>
<linearGradient id="paint14_linear_1_8676" x1="311.838" y1="373.791" x2="336.959" y2="373.791" gradientUnits="userSpaceOnUse">
<stop offset="0.2888" stop-color="white"/>
<stop offset="0.7796" stop-color="white" stop-opacity="0"/>
</linearGradient>
<clipPath id="clip0_1_8676">
<rect width="500" height="500" fill="white" transform="translate(0 0.527344)"/>
</clipPath>
</defs>
</svg>
