<svg width="500" height="501" viewBox="0 0 500 501" fill="none" xmlns="http://www.w3.org/2000/svg">
<path d="M234.543 157.487C252.227 129.935 269.442 103.115 286.517 76.5134C271.504 49.9004 280.498 30.4793 292.694 19.6763C306.975 7.02832 326.374 4.52034 343.463 15.3653C359.304 25.4183 366.751 45.0664 361.527 62.4534C355.329 83.0834 338.643 93.5804 311.579 93.2164C297.633 113.934 284.252 135.669 270.007 157.687C323.352 165.899 364.827 191.231 393.146 236.525C413.077 268.403 421.276 303.541 417.167 340.728C407.124 431.62 327.596 495.453 239.696 489.68C169.124 485.045 94.591 431.071 84.742 340.371C79.816 295.002 92.572 253.699 121.801 218.196C150.942 182.803 188.686 162.82 234.543 157.487ZM331.394 357.407C301.54 383.565 271.46 373.664 256.365 357.665C239.42 339.706 237.101 311.967 254.216 290.563C261.633 281.287 271.328 274.994 283.13 273.038C300.869 270.099 316.895 274.155 330.898 288.051C323.479 261.844 286.987 228.689 238.295 235.567C199.617 241.03 164.56 272.44 162.748 319.904C161.211 360.163 186.843 398.632 232.646 409.077C273.944 418.497 317.421 394.291 331.394 357.407Z" fill="#1F3B4A"/>
</svg>
