<svg width="500" height="501" viewBox="0 0 500 501" fill="none" xmlns="http://www.w3.org/2000/svg">
<path d="M250.1 4.42725C238.8 4.42725 227.6 5.22725 216.7 6.72725C302.2 31.0272 364.8 109.727 364.8 203.027C364.8 315.727 273.5 407.027 160.8 407.027C111.3 407.027 65.9001 389.427 30.6001 360.027C71.0001 440.327 154.1 495.527 250.1 495.527C385.7 495.527 495.6 385.627 495.6 250.027C495.6 114.427 385.7 4.42725 250.1 4.42725Z" fill="#434FA2"/>
<path d="M349.4 414.627C236.7 414.627 145.4 323.327 145.4 210.627C145.4 112.427 214.7 30.5274 307.1 11.0274C288.8 6.72739 269.7 4.32739 250.1 4.32739C114.5 4.42739 4.6001 114.327 4.6001 249.927C4.6001 385.527 114.5 495.427 250.1 495.427C335.7 495.427 411 451.627 454.9 385.227C424.2 403.927 388 414.627 349.4 414.627Z" fill="#4078BB"/>
<path d="M50.9001 356.327C50.9001 243.627 142.2 152.327 254.9 152.327C367.6 152.327 458.9 243.627 458.9 356.327C458.9 364.827 458.4 373.327 457.3 381.527C481.5 343.427 495.6 298.327 495.6 249.827C495.6 114.227 385.7 4.32739 250.1 4.32739C114.5 4.32739 4.6001 114.327 4.6001 249.927C4.6001 306.227 23.6001 358.127 55.5001 399.527C52.5001 385.627 50.9001 371.227 50.9001 356.327Z" fill="#3FBBEC"/>
</svg>
