<svg width="500" height="501" viewBox="0 0 500 501" fill="none" xmlns="http://www.w3.org/2000/svg">
<g clip-path="url(#clip0_1_8726)">
<path d="M447.3 96.0272C432.7 76.8272 406.7 55.0272 406.7 55.0272C376.9 31.4272 340.9 14.2272 300 5.92724C231.3 -8.17276 165.2 5.92724 112.8 41.0272C60.1998 75.8272 21.3998 131.727 7.29982 201.427C-8.10018 277.627 10.2998 350.327 52.5998 405.027C52.5998 405.027 56.4998 410.427 63.9998 418.627H64.0998C93.5998 389.127 103.8 345.527 91.5998 305.527C82.9998 276.727 81.5998 246.327 87.5998 216.927C97.3998 168.527 125.2 127.927 163.4 103.327C197.1 81.9272 238.7 72.9272 283.2 82.0272C378.8 101.527 430.6 192.727 412.2 284.227C402.4 332.627 374.6 373.127 336.4 397.727C302.7 419.127 261.1 428.127 216.6 419.027C208.2 417.327 200 415.027 191.9 412.027C153.7 398.227 111 407.827 82.3998 436.727C85.6998 439.727 89.2998 442.827 93.1998 445.927C123 469.527 159.1 486.727 199.9 495.027C268.6 509.027 334.7 494.927 387.1 459.927C439.7 425.127 478.5 369.127 492.6 299.527C508 223.427 489.7 150.827 447.3 96.0272ZM93.2998 446.027L94.2998 445.027L94.3998 445.127L93.2998 446.027Z" fill="#318BF5"/>
</g>
<defs>
<clipPath id="clip0_1_8726">
<rect width="500" height="500" fill="white" transform="translate(0 0.527344)"/>
</clipPath>
</defs>
</svg>
