<svg width="500" height="501" viewBox="0 0 500 501" fill="none" xmlns="http://www.w3.org/2000/svg">
<path fill-rule="evenodd" clip-rule="evenodd" d="M141.6 66.1273C134.8 77.6273 120 81.3273 108.5 74.5273C97 67.8273 93.2 52.9273 100 41.5273C106.8 30.0273 121.6 26.3273 133.1 33.1273C144.6 39.8273 148.4 54.7273 141.6 66.1273Z" fill="#5F46BA"/>
<path fill-rule="evenodd" clip-rule="evenodd" d="M22.4999 47.9272C19.0999 53.6272 11.6999 55.5272 5.99991 52.1272C0.19991 48.7272 -1.70009 41.3272 1.69991 35.5272C5.09991 29.8272 12.4999 27.9272 18.2999 31.3272C23.9999 34.7272 25.8999 42.1272 22.4999 47.9272Z" fill="#5F46BA"/>
<path fill-rule="evenodd" clip-rule="evenodd" d="M443.7 103.727C403.9 60.2274 348.9 34.2274 288.8 30.5274C274.3 29.6274 259.6 30.1274 245.1 31.9274C240.1 32.3274 235.3 32.9274 230.6 33.7274L226.3 34.2274L226.7 34.3274C205.9 38.3274 190.6 44.8274 189.8 45.2274L189.7 45.3274C166.8 56.1274 154.2 73.9274 154.2 95.6274C154.2 125.427 179.4 149.727 210.4 149.727C216.8 149.727 236.8 143.227 237 143.127C251.4 138.327 266.4 136.327 281.8 137.227C320.8 139.627 355.5 160.727 374.6 193.727V193.827C385.2 212.227 390.1 233.027 388.7 254.127C384.7 314.727 330.4 360.927 267.4 357.127C231.6 354.927 199.8 337.227 179.7 308.627L179 307.827L174.5 301.227C159 275.527 161 240.127 161.6 232.827L161.7 232.127V231.827C160.6 202.527 135.9 179.527 105.5 179.527C80.1999 179.527 57.8999 196.027 51.1999 219.627C49.8999 224.427 49.2999 237.127 49.3999 238.527C44.3999 355.527 139.1 456.727 260.4 464.127C265 464.427 269.6 464.527 274.2 464.527C282.7 464.527 291.2 464.027 299.8 463.127H299.9L301.1 463.027L319 461.027L317.7 460.527C417.6 441.927 493 360.427 499.5 261.027C503.3 203.027 483.5 147.227 443.7 103.727Z" fill="#5F46BA"/>
<path fill-rule="evenodd" clip-rule="evenodd" d="M91.5 132.727C81.3 149.927 59.1 155.627 41.8 145.327C24.7 135.127 19 112.927 29.2 95.7272C39.5 78.5272 61.7 72.8272 78.9 83.0272C96.1 93.3272 101.8 115.527 91.5 132.727Z" fill="#5F46BA"/>
</svg>
