<svg width="500" height="501" viewBox="0 0 500 501" fill="none" xmlns="http://www.w3.org/2000/svg">
<path d="M360.6 360.627C350 360.627 341.5 352.027 341.5 341.527V223.927C341.5 213.327 350.1 204.827 360.6 204.827C371.1 204.827 379.7 213.427 379.7 223.927V341.527C379.8 352.127 371.2 360.627 360.6 360.627Z" fill="url(#paint0_linear_1_8734)"/>
<path d="M244.9 358.727C170.6 358.727 110.1 298.227 110.1 223.927C110.1 149.627 170.6 89.1274 244.9 89.1274C319.2 89.1274 379.7 149.627 379.7 223.927C379.7 298.327 319.3 358.727 244.9 358.727ZM244.9 127.427C191.7 127.427 148.4 170.727 148.4 223.927C148.4 277.127 191.7 320.427 244.9 320.427C298.1 320.427 341.4 277.127 341.4 223.927C341.5 170.727 298.2 127.427 244.9 127.427Z" fill="#3BA7DB"/>
<path d="M370.6 64.6273C386.174 64.6273 398.8 52.0017 398.8 36.4273C398.8 20.8529 386.174 8.22729 370.6 8.22729C355.026 8.22729 342.4 20.8529 342.4 36.4273C342.4 52.0017 355.026 64.6273 370.6 64.6273Z" fill="#05FFFF"/>
<path d="M129.3 494.427C118.7 494.427 110.2 485.827 110.2 475.327V223.927C110.2 149.627 170.7 89.1274 245 89.1274C298.4 89.1274 346.9 120.727 368.4 169.627C372.7 179.327 368.3 190.627 358.6 194.827C348.9 199.127 337.6 194.727 333.4 185.027C318 150.027 283.3 127.327 245 127.327C191.8 127.327 148.5 170.627 148.5 223.827V475.127C148.4 485.827 139.9 494.427 129.3 494.427Z" fill="url(#paint1_linear_1_8734)"/>
<path d="M244.9 358.727C221.4 358.727 198.3 352.627 178 340.927C158.3 329.627 141.7 313.527 129.9 294.127C124.4 285.127 127.2 273.327 136.2 267.827C145.2 262.327 157 265.127 162.5 274.127C180.2 303.027 211 320.327 244.9 320.327C298.1 320.327 341.4 277.027 341.4 223.827C341.4 210.327 338.7 197.227 333.3 185.027C329 175.327 333.4 164.027 343.1 159.827C352.8 155.527 364.1 159.927 368.3 169.627C375.8 186.727 379.7 205.027 379.7 223.927C379.7 298.327 319.3 358.727 244.9 358.727Z" fill="url(#paint2_linear_1_8734)"/>
<defs>
<linearGradient id="paint0_linear_1_8734" x1="360.641" y1="360.662" x2="360.641" y2="204.82" gradientUnits="userSpaceOnUse">
<stop stop-color="#0DF7FB"/>
<stop offset="0.9976" stop-color="#14D9EA"/>
</linearGradient>
<linearGradient id="paint1_linear_1_8734" x1="240.068" y1="494.406" x2="240.068" y2="89.1693" gradientUnits="userSpaceOnUse">
<stop stop-color="#861DAF"/>
<stop offset="0.4943" stop-color="#4C8AD0"/>
<stop offset="0.8108" stop-color="#11F6FB"/>
<stop offset="1" stop-color="#0CFFFF"/>
</linearGradient>
<linearGradient id="paint2_linear_1_8734" x1="253.407" y1="358.75" x2="253.407" y2="158.263" gradientUnits="userSpaceOnUse">
<stop stop-color="#22D2EF"/>
<stop offset="1" stop-color="#10F7FC"/>
</linearGradient>
</defs>
</svg>
