<svg width="500" height="501" viewBox="0 0 500 501" fill="none" xmlns="http://www.w3.org/2000/svg">
<g clip-path="url(#clip0_1_8740)">
<path d="M458.8 322.527L275.2 293.927L271.8 293.127L449.5 267.027L409.2 261.127L440.4 256.527L241.8 227.127L369.6 208.427L369.5 208.027L416.7 201.027L367.7 193.827L346 26.8274L124 119.527L117.9 189.027L199.4 201.027L41.2 227.127L201.6 253.227L168.8 258.027L229.8 267.027L55.5 293.127L253.4 322.527L104.2 344.427L95.1999 447.527H400.7L384.9 334.027L458.8 322.527Z" fill="url(#paint0_linear_1_8740)"/>
<path d="M401 447.727H95.5L60.1 500.527H437.4L401 447.727Z" fill="url(#paint1_linear_1_8740)"/>
</g>
<defs>
<linearGradient id="paint0_linear_1_8740" x1="141.794" y1="474.429" x2="386.663" y2="50.3042" gradientUnits="userSpaceOnUse">
<stop offset="0.0503" stop-color="#7E0AE5"/>
<stop offset="0.3797" stop-color="#AC11EE"/>
<stop offset="0.733" stop-color="#D818F7"/>
<stop offset="0.9125" stop-color="#E91BFA"/>
</linearGradient>
<linearGradient id="paint1_linear_1_8740" x1="248.75" y1="500.527" x2="248.75" y2="447.727" gradientUnits="userSpaceOnUse">
<stop stop-color="#002037" stop-opacity="0"/>
<stop offset="1" stop-color="#002037" stop-opacity="0.5"/>
</linearGradient>
<clipPath id="clip0_1_8740">
<rect width="500" height="500" fill="white" transform="translate(0 0.527344)"/>
</clipPath>
</defs>
</svg>
