<svg width="500" height="501" viewBox="0 0 500 501" fill="none" xmlns="http://www.w3.org/2000/svg">
<path d="M284.968 213.36C254.316 231.012 223.875 249.034 193.101 266.469C182.859 272.271 177.883 279.927 178.431 291.845C178.997 304.158 178.728 316.521 178.445 328.854C178.345 333.204 177.69 337.721 176.292 341.822C173.616 349.672 166.411 353.361 158.516 350.97C153.899 349.571 149.409 347.442 145.203 345.043C121.146 331.325 97.262 317.3 73.163 303.656C64.303 298.639 60.358 291.41 60.387 281.414C60.482 248.355 60.423 215.296 60.423 182.236C60.375 182.236 60.326 182.236 60.278 182.236C60.278 149.642 60.423 117.048 60.195 84.4564C60.12 73.7994 64.315 66.4643 73.606 61.1623C104.331 43.6283 134.934 25.8764 165.42 7.92735C174.636 2.50135 183.03 2.49935 192.266 7.95535C223.326 26.3014 254.58 44.3194 285.809 62.3773C293.389 66.7603 297.194 73.3373 297.215 81.8503C297.31 119.1 297.289 156.35 297.12 193.599C297.08 202.432 292.729 208.891 284.968 213.36ZM439.094 318.443C439.001 318.443 438.908 318.443 438.815 318.443C438.815 285.159 438.746 251.875 438.864 218.592C438.893 210.266 436.352 203.317 429.025 199.065C402.262 183.534 375.505 167.985 348.488 152.904C333.177 144.357 321.869 151.398 321.603 169.152C321.391 183.347 321.629 197.548 321.461 211.745C321.352 221.025 317.432 228.071 309.112 232.863C277.665 250.976 246.367 269.348 214.955 287.52C206.761 292.261 202.666 298.941 202.695 308.564C202.803 344.873 202.824 381.184 202.532 417.492C202.45 427.735 206.674 434.609 215.372 439.616C246.021 457.262 276.642 474.962 307.072 492.983C316.54 498.59 325.091 498.556 334.54 492.978C364.794 475.116 395.183 457.475 425.718 440.098C435.03 434.798 439.268 427.593 439.186 416.897C438.933 384.081 439.094 351.261 439.094 318.443Z" fill="url(#paint0_linear_1_8743)"/>
<defs>
<linearGradient id="paint0_linear_1_8743" x1="118.541" y1="36.7804" x2="383.03" y2="467.039" gradientUnits="userSpaceOnUse">
<stop stop-color="#3D8382"/>
<stop offset="0.4997" stop-color="#14BCA1"/>
<stop offset="0.9995" stop-color="#3D8382"/>
</linearGradient>
</defs>
</svg>
