<svg width="500" height="501" viewBox="0 0 500 501" fill="none" xmlns="http://www.w3.org/2000/svg">
<path d="M97.1 137.127C113.4 122.427 129.7 107.827 145.8 93.1274C178.4 63.8274 211 34.5274 243.6 5.22739C244.3 4.52739 245 4.02739 245.5 3.52739C246.2 2.82739 246.9 2.32739 247.4 1.82739C247.6 1.62739 247.9 1.32739 248.1 1.32739C248.1 1.32739 248.3 1.52739 248.6 1.82739C249.1 2.32739 249.5 2.72739 250.3 3.52739C250.8 4.02739 251.2 4.72739 252 5.42739C257.7 11.8274 263.6 18.2274 269.3 24.5274C285.6 42.2274 301.9 60.2274 316.8 78.6274C336.9 103.427 353.9 128.527 363.6 154.227C373.3 179.727 375.7 206.027 366.4 232.727C357.2 259.627 336.4 287.527 299.1 316.627C292.2 321.627 283 322.727 274.3 320.927C265.6 319.027 257.8 314.027 254 306.527C249.7 298.727 248.6 292.327 249 286.627C249.5 281.227 251.8 276.227 255.4 271.527C258.5 267.227 262.5 263.027 266.7 258.527C267.2 258.027 267.6 257.627 267.9 257.127C272.6 252.127 277.6 246.927 281.6 241.027C321.1 177.727 238.1 97.6274 171.2 155.927C168.4 158.527 165.3 161.327 162 164.427L161.8 164.627C158.7 167.727 155.4 170.727 152.1 173.627C145.2 179.727 137.9 185.427 130.8 189.227C123.7 193.027 116.6 194.627 110 193.227C103.4 191.527 96.8 186.827 90.1 176.227C82.7 165.027 85.8 147.127 97.1 137.127Z" fill="black"/>
<path d="M402 363.127C414.3 352.227 417.6 333.127 409.6 320.627C382.7 277.427 347.9 320.427 324.8 340.427C259.8 396.927 179.9 319.427 218 258.427C233.6 235.027 263.4 223.427 245.9 190.827C237.2 174.527 212.1 169.127 197 179.927C46.7 296.927 157.5 398.727 243.8 494.727C249.7 501.127 248.3 501.127 255.4 494.927C304.6 450.527 353.1 407.027 402 363.127Z" fill="black"/>
</svg>
