<svg width="500" height="501" viewBox="0 0 500 501" fill="none" xmlns="http://www.w3.org/2000/svg">
<g clip-path="url(#clip0_1_8748)">
<path d="M251 476.027C363.224 476.027 454.2 375.157 454.2 250.727C454.2 126.297 363.224 25.4272 251 25.4272C138.776 25.4272 47.8 126.297 47.8 250.727C47.8 375.157 138.776 476.027 251 476.027Z" fill="white"/>
<path d="M283.4 237.227C289.6 248.127 298.6 249.027 304.6 239.927C312.5 228.027 319.1 214.327 321.9 200.527C323.7 191.627 323.1 178.927 312.7 172.427C305.6 167.927 295.4 168.427 291.6 174.627C285.4 184.927 275.6 194.627 278.4 209.827C281.1 218.027 278.3 228.227 283.4 237.227ZM216.6 232.927C223 232.427 227.8 230.327 230.8 223.027C235.8 210.727 242.3 199.227 239.3 184.727C240 176.227 240.7 167.327 235.7 158.827C228.2 146.127 218.8 147.127 210.3 156.127C195.2 172.227 192.7 202.427 202.5 222.927C205.7 229.527 209.6 233.427 216.6 232.927ZM345.7 243.727C342.2 240.327 334.2 246.627 330.8 252.427C327.6 257.927 328.1 264.127 332.8 267.727C340.7 273.627 335.9 278.627 334.1 285.027C325 319.127 299.3 334.227 268.2 341.127C246.4 346.027 223.6 339.427 206.6 327.727C188.1 315.027 176.9 293.527 166.7 272.527C159.4 257.427 153.4 244.627 172.5 233.927C178.8 230.427 182.6 224.027 179.4 216.027C176.1 207.827 168.5 207.427 161.7 208.627C153 210.327 144 208.927 136.3 204.627C130.7 201.727 124.3 199.827 119 205.827C113.7 211.827 117.6 217.627 119.1 223.527C121.3 232.327 130.8 237.327 130.8 247.527C130.8 276.327 141.6 299.827 159.5 323.427C181.2 351.927 207.2 366.127 241 373.227C254.5 376.127 265.1 368.427 281.1 372.127C306.5 373.027 324.8 352.627 342.8 335.727C360.8 318.827 360.9 288.127 385.1 273.927C392.8 269.427 392.5 260.527 389 253.127C379.2 232.327 358.9 256.327 345.7 243.727ZM496.1 199.127C493.7 180.527 487.5 162.927 483.8 144.627C477.1 111.527 450.3 87.3273 429.2 61.5273C420.8 51.3273 410.6 39.5273 399.2 33.8273C365.7 17.2273 329.4 5.7273 292.6 1.4273C258 -2.5727 222.8 4.7273 189.3 15.4273C179.6 18.5273 169 16.9273 159.7 24.2273C135.1 43.7273 107.2 58.6273 84.7 81.1273C76.6 89.3273 69.1 98.0273 62.2 107.227C48.2 125.727 41.6 149.627 25.9 166.227C23.6 168.627 22.4 171.827 21.5 175.027C18 187.427 17.4 199.827 12.5 211.827C7.5 224.427 1.9 236.227 3.7 250.327C5.2 261.927 7.5 272.827 7.2 284.527C12.5 313.727 14.4 343.427 24.4 371.727C28.8 383.927 37.6 392.927 44.7 402.827C67.7 435.127 90.1 469.227 133.3 478.327C139.4 479.627 145.7 481.327 151.2 484.227C186.2 502.627 224.3 501.427 261.5 498.827C308.3 495.527 350.3 476.427 385.6 445.027C393.5 437.927 404.8 436.527 411 427.327C426 405.227 446.4 386.927 457.1 361.827C467.7 337.027 477.3 311.827 488.6 287.327C492.7 278.527 493.7 269.427 493.9 260.127C494 254.827 493.8 249.427 493.8 244.027C493.9 229.127 497.9 213.927 496.1 199.127ZM434.3 257.127C425 312.127 403.3 364.027 352.9 397.827C326.5 415.527 301.6 433.827 267.1 434.527C253.7 434.827 240.4 445.427 224.7 442.227C192.1 436.827 163.2 425.127 133.6 407.027C96.6 384.427 90.4 346.727 69.9 316.327C68.1 313.727 66.9 308.927 68.1 306.227C78.6 283.527 65.6 260.727 68.3 237.427C70.8 216.227 80.1 199.127 87.8 181.427C98.6 156.827 116.7 136.127 136.5 117.527C162 93.5273 188.9 70.6273 225.5 68.2273C240 67.3273 251.2 58.0273 265.8 58.8273C320.9 62.0273 365.4 81.0273 400.7 127.327C431.4 167.527 441.9 211.727 434.3 257.127Z" fill="#F00A19"/>
</g>
<defs>
<clipPath id="clip0_1_8748">
<rect width="500" height="500" fill="white" transform="translate(0 0.527344)"/>
</clipPath>
</defs>
</svg>
