<svg width="500" height="501" viewBox="0 0 500 501" fill="none" xmlns="http://www.w3.org/2000/svg">
<g clip-path="url(#clip0_1_8751)">
<path d="M250.3 499.927C388.206 499.927 500 388.133 500 250.227C500 112.322 388.206 0.527344 250.3 0.527344C112.395 0.527344 0.600098 112.322 0.600098 250.227C0.600098 388.133 112.395 499.927 250.3 499.927Z" fill="#0022FF"/>
<path d="M239.8 97.5273C304.9 97.5273 357.6 150.227 357.6 215.227C357.6 280.227 304.8 332.927 239.8 332.927C222.6 332.927 206.2 329.227 191.5 322.627V278.227C204.6 288.027 220.8 293.727 238.4 293.727C281.8 293.727 317 258.627 317 215.227C317 171.827 281.8 136.727 238.4 136.727C214.6 136.727 193.3 147.327 178.9 164.027L138.7 154.827C159.2 120.527 196.8 97.5273 239.8 97.5273ZM167.2 248.427H161.3V302.927C155.8 297.927 150.7 292.527 146.2 286.627V257.827L165.8 245.127C166.2 246.327 166.7 247.427 167.2 248.427Z" fill="white"/>
<path d="M218.6 211.227V402.427H188.4V230.727L218.6 211.227ZM176.3 238.527V402.427H146.1V258.027L176.3 238.527Z" fill="white"/>
</g>
<defs>
<clipPath id="clip0_1_8751">
<rect width="500" height="500" fill="white" transform="translate(0 0.527344)"/>
</clipPath>
</defs>
</svg>
