<svg width="500" height="501" viewBox="0 0 500 501" fill="none" xmlns="http://www.w3.org/2000/svg">
<g clip-path="url(#clip0_1_8756)">
<mask id="mask0_1_8756" style="mask-type:luminance" maskUnits="userSpaceOnUse" x="0" y="0" width="500" height="501">
<path d="M500 0.527344H0V500.527H500V0.527344Z" fill="white"/>
</mask>
<g mask="url(#mask0_1_8756)">
<path d="M311.3 312.727H187.7V188.327H311.3V312.727ZM497.9 104.627C492.8 75.0274 476.5 47.0274 452.9 28.3274C431 10.3274 403 0.627355 374.7 0.527355C290.8 0.527355 206.8 0.427355 122.8 0.527355C79 1.12735 37.6 26.5274 16.3 64.6273C4.50001 85.1273 1.30599e-05 108.127 1.30599e-05 131.627C0.100013 208.127 1.30599e-05 284.727 1.30599e-05 361.327C-0.0999869 379.127 0.600013 396.227 6.20001 413.327C18.6 452.927 51.9 484.927 91.8 496.127C79.8 486.527 74.4 473.127 70.5 458.627C62.4 426.827 61.8 393.927 63.1 361.327C63 284.727 63.1 208.227 63 131.627C63.1 118.427 64.1 106.027 70.8 94.4274C81.2 75.8274 101.4 63.4274 122.8 63.6274C202.6 63.6274 282.4 63.6274 362.2 63.6274C374.2 63.6274 385.2 62.7273 396.7 67.1273C415.8 73.5274 431 90.6273 435.2 110.327C437.6 121.927 436.9 134.727 437 146.527V371.227C437 382.227 435.8 393.027 431 403.127C421.2 423.627 400.1 437.827 377.2 437.427C314.1 437.527 250.9 437.427 187.7 437.427C187.6 416.827 187.6 396.227 187.7 375.627C239.2 375.627 290.7 375.527 342.3 375.627C353.4 376.227 366.2 370.627 371.3 360.327C374.2 355.127 374.7 349.527 374.8 343.727C374.7 281.327 374.8 218.927 374.8 156.427C375.3 144.827 369.7 134.527 359.5 129.027C351 124.027 341.8 125.327 332.3 125.127C273.3 125.227 214.2 125.027 155.3 125.227C138.4 124.827 124.4 139.527 124.9 156.327C124.7 246.027 124.9 336.227 124.8 425.927C125.3 443.727 124.7 460.627 135 476.127C142.8 488.927 156.1 495.327 170.3 498.127C187.1 500.827 203.2 500.227 220.1 500.227C271.6 500.227 323.1 500.227 374.7 500.327C400.3 500.527 425.3 492.227 446.3 477.727C468.9 461.027 486.4 438.127 494.4 411.027C500 392.727 499.9 374.927 500 356.027C500 284.427 500 212.927 500 141.327C499.9 129.327 499.8 116.727 497.9 104.627Z" fill="#46D593"/>
</g>
</g>
<defs>
<clipPath id="clip0_1_8756">
<rect width="500" height="500" fill="white" transform="translate(0 0.527344)"/>
</clipPath>
</defs>
</svg>
