<svg width="500" height="501" viewBox="0 0 500 501" fill="none" xmlns="http://www.w3.org/2000/svg">
<path fill-rule="evenodd" clip-rule="evenodd" d="M139.9 75.7273C149.4 64.9273 158 55.7273 166.2 48.0273C26.7998 43.5273 67.3998 145.027 21.9998 248.227C-30.3002 367.027 28.1998 412.327 115.2 426.427C103.1 412.027 93.2998 395.627 85.7998 377.927C29.3998 306.227 52.0998 175.727 139.9 75.7273Z" fill="#B3D336"/>
<path fill-rule="evenodd" clip-rule="evenodd" d="M475.3 202.227C462.3 239.027 438.5 280.327 404.9 321.027C378.7 352.727 349.5 377.627 319.4 395.727C284.6 418.427 241.5 431.827 193.2 431.827C166.2 431.827 139.6 430.327 115.3 426.327C129.7 443.427 147.1 457.627 167.5 467.427C293.5 528.827 301.5 414.727 434.8 356.927C509.6 324.427 509.9 260.927 475.3 202.227Z" fill="#1E94D2"/>
<path fill-rule="evenodd" clip-rule="evenodd" d="M319.3 83.5274C337.9 86.9274 355.5 93.1274 371.3 102.127C413.6 126.227 452.2 163.127 475.2 202.227C497.9 137.827 487.3 87.1274 437.7 78.0274C383.1 67.9274 340.4 64.7274 299.4 35.9274C249 0.327414 204.7 12.0274 166.3 48.0274C169 48.1274 171.8 48.2274 174.6 48.4274C227.9 51.5274 278.8 62.0274 319.3 83.5274Z" fill="#EDE80A"/>
<path fill-rule="evenodd" clip-rule="evenodd" d="M139.9 75.7272C52.1001 175.727 29.4001 306.227 85.9001 377.827C60.5001 317.827 62.3001 243.027 98.0001 183.327C145.6 103.827 241 69.1272 319.3 83.5272C278.7 61.9272 227.9 51.5272 174.6 48.3272C171.7 48.1272 169 48.0272 166.3 47.9272C158 55.7272 149.4 64.9272 139.9 75.7272Z" fill="#52B849"/>
<path fill-rule="evenodd" clip-rule="evenodd" d="M371.3 102.127C355.5 93.1273 337.9 87.0273 319.3 83.5273C372.7 111.927 408.3 159.727 407.9 235.827C407.5 301.827 373.7 360.127 319.3 395.727C349.4 377.627 378.6 352.727 404.8 321.027C438.5 280.427 462.2 239.127 475.2 202.227C452.2 163.227 413.7 126.227 371.3 102.127Z" fill="#00855E"/>
<path fill-rule="evenodd" clip-rule="evenodd" d="M310.5 359.527C250.2 398.627 169.7 381.127 130.8 320.627C91.8999 260.127 111.1 182.027 169.6 140.227C234.9 93.4273 318.8 111.927 349.3 179.127C379.1 244.727 370.9 320.427 310.5 359.527ZM319.3 83.5273C241 69.1273 145.6 103.827 97.9999 183.327C62.2999 243.027 60.4999 317.827 85.8999 377.827C93.3999 395.527 103.2 412.027 115.3 426.327C139.6 430.227 166.2 431.727 193.2 431.727C241.5 431.727 284.6 418.327 319.4 395.627C373.8 360.127 407.6 301.827 408 235.727C408.3 159.727 372.8 112.027 319.3 83.5273Z" fill="#0D5229"/>
</svg>
