<svg width="500" height="501" viewBox="0 0 500 501" fill="none" xmlns="http://www.w3.org/2000/svg">
<path d="M140.7 78.5272C150.1 67.9272 158.6 58.8272 166.8 51.2272C28.6998 46.8272 68.8998 146.627 23.8998 248.127C-27.9002 365.027 29.9998 409.527 116.3 423.427C104.3 409.327 94.5998 393.127 87.0998 375.727C31.1998 305.227 53.6998 176.927 140.7 78.5272Z" fill="#EFE812"/>
<path d="M473.1 203.027C460.2 239.227 436.7 279.827 403.3 319.827C377.3 350.927 348.4 375.527 318.6 393.327C284.1 415.627 241.3 428.827 193.5 428.827C166.7 428.827 140.4 427.327 116.3 423.427C130.5 440.227 147.9 454.127 168 463.927C292.9 524.327 300.8 412.127 432.9 355.227C507.2 323.227 507.4 260.727 473.1 203.027Z" fill="#EDE70A"/>
<path d="M318.6 86.3274C337 89.7274 354.5 95.7274 370.2 104.627C412.1 128.327 450.3 164.627 473.2 203.127C495.7 139.727 485.2 89.9274 436 80.9274C381.9 71.0274 339.6 67.8274 299 39.4274C248.9 4.42738 205 16.0274 167 51.3274C169.7 51.4274 172.4 51.5274 175.2 51.7274C227.9 54.7274 278.4 65.0274 318.6 86.3274Z" fill="#EDE70A"/>
<path d="M140.7 78.5274C53.7001 176.827 31.2001 305.227 87.1001 375.727C62.0001 316.727 63.7001 243.127 99.1001 184.427C146.3 106.227 240.8 72.1274 318.5 86.3274C278.3 65.1274 227.9 54.8274 175 51.7274C172.2 51.5274 169.4 51.4274 166.7 51.3274C158.7 58.8274 150.1 67.9274 140.7 78.5274Z" fill="#DEC21C"/>
<path d="M370.1 104.527C354.4 95.6273 337 89.6273 318.5 86.2273C371.5 114.227 406.7 161.127 406.3 236.027C405.9 300.927 372.4 358.327 318.5 393.227C348.3 375.427 377.2 350.927 403.2 319.727C436.6 279.727 460.1 239.127 473 202.927C450.3 164.627 412.1 128.227 370.1 104.527Z" fill="#E5CB22"/>
<path d="M318.6 86.3274C241 72.1274 146.4 106.227 99.2 184.427C63.8 243.127 62 316.727 87.2 375.727C94.6 393.127 104.4 409.327 116.4 423.427C140.5 427.327 166.8 428.727 193.6 428.727C241.4 428.727 284.2 415.527 318.7 393.227C372.6 358.327 406.1 300.927 406.5 236.027C406.8 161.227 371.5 114.227 318.6 86.3274ZM309.9 357.727C250.1 396.127 170.4 379.027 131.8 319.427C93.2001 259.827 112.3 183.127 170.2 141.927C235 95.9274 318 114.027 348.3 180.227C377.8 244.727 369.7 319.327 309.9 357.727Z" fill="#CCA727"/>
</svg>
