<svg width="500" height="501" viewBox="0 0 500 501" fill="none" xmlns="http://www.w3.org/2000/svg">
<path d="M361.576 406.749C323.894 366.496 286.719 326.786 249.016 286.511C211.716 326.467 174.648 366.174 137.323 406.155C101.632 367.357 66.3213 328.97 31.0083 290.585C22.9473 281.823 14.6723 273.247 6.8753 264.256C-0.5567 255.687 -1.2157 246.092 6.4953 237.638C49.5523 190.429 92.8923 143.477 136.677 95.8494C174.12 135.839 211.375 175.628 249.169 215.993C286.455 176.043 323.518 136.332 360.833 96.3524C399.836 138.726 438.523 180.668 477.107 222.704C503.699 251.676 503.728 251.818 477.205 280.773C439.953 321.441 402.546 361.967 365.211 402.56C364.05 403.821 362.961 405.148 361.576 406.749ZM216.169 251.383C190.036 223.357 164.211 195.662 138.11 167.67C117.026 190.209 96.1203 212.073 75.8173 234.482C66.7163 244.527 67.4283 260.334 76.5893 270.616C84.4983 279.493 92.8683 287.96 101.059 296.585C113.268 309.44 125.498 322.275 137.882 335.289C164.232 307.047 189.985 279.446 216.169 251.383ZM360.071 334.84C381.167 312.277 402.217 290.501 422.338 267.899C430.981 258.19 432.208 245.109 423.804 235.354C403.64 211.951 381.9 189.907 360.507 167.004C333.919 195.483 307.972 223.276 281.986 251.111C308.245 279.268 333.895 306.772 360.071 334.84Z" fill="#2D2D2D"/>
</svg>
