<svg width="500" height="501" viewBox="0 0 500 501" fill="none" xmlns="http://www.w3.org/2000/svg">
<path d="M312.6 134.027C312.6 134.027 287.8 146.727 279.6 142.227C279.6 142.227 283.7 150.427 293.3 148.427" fill="url(#paint0_linear_1_8779)"/>
<path d="M294.9 147.127C294.9 147.127 286.1 155.427 281.7 153.027C282.4 154.127 283.4 155.027 284.6 155.627C285.8 156.227 287.1 156.627 288.4 156.627" fill="url(#paint1_linear_1_8779)"/>
<path d="M71.7005 66.2274C71.7005 66.2274 66.8005 54.4274 55.3005 48.3274C55.3005 48.3274 51.8005 123.827 87.2005 149.327C119 172.327 71.7005 66.2274 71.7005 66.2274Z" fill="url(#paint2_linear_1_8779)"/>
<path d="M88.9004 150.827C88.9004 150.827 78.3004 141.327 68.9004 142.827C68.9004 142.827 89.4004 195.127 118.7 211.027C147.9 227.027 88.9004 150.827 88.9004 150.827Z" fill="url(#paint3_linear_1_8779)"/>
<path d="M120.2 211.427C120.2 211.427 109.4 205.627 101.9 208.927C101.9 208.927 127.2 242.427 160.1 256.927C163.7 258.527 189 271.027 189 271.027L120.2 211.427Z" fill="url(#paint4_linear_1_8779)"/>
<path d="M416.6 246.927C416.6 246.927 422.6 244.527 428.9 246.527C428.9 246.527 402.7 274.427 380.9 270.627C361.4 267.227 416.6 246.927 416.6 246.927Z" fill="url(#paint5_linear_1_8779)"/>
<path d="M379.6 269.927C379.6 269.927 386.8 270.127 389.7 274.027C389.7 274.027 363.8 285.827 347.5 281.427C331.2 276.927 379.6 269.927 379.6 269.927Z" fill="url(#paint6_linear_1_8779)"/>
<path d="M349.9 281.127C349.9 281.127 356 282.327 357.9 285.927C357.9 285.927 336.9 291.027 317.7 292.427C310.2 293.027 295.8 293.327 295.8 293.327L349.9 281.127Z" fill="url(#paint7_linear_1_8779)"/>
<path d="M247.1 294.627C242.1 298.327 236.9 301.727 231.5 304.827C236.6 301.327 241.8 297.827 247.1 294.627Z" fill="url(#paint8_linear_1_8779)"/>
<path d="M164.2 193.327C171.5 202.427 179.2 211.027 187.4 219.327C178.8 211.427 171 202.727 164.2 193.327Z" fill="url(#paint9_linear_1_8779)"/>
<path d="M247.3 256.127C249.5 256.927 251.7 257.727 254 258.427C251.7 257.827 249.4 257.027 247.3 256.127Z" fill="url(#paint10_linear_1_8779)"/>
<path d="M296.7 203.627C297.3 204.827 297.9 206.027 298.4 207.327C297.6 206.127 296.9 204.827 296.2 203.427C295.6 202.327 295.1 201.227 294.6 200.027C295.4 201.227 296.1 202.427 296.7 203.627Z" fill="url(#paint11_linear_1_8779)"/>
<path d="M297.2 238.127C296.4 239.827 295.4 241.427 294.3 243.027C295.4 241.427 296.3 239.827 297.2 238.127Z" fill="url(#paint12_linear_1_8779)"/>
<path d="M296.1 293.127C295.9 293.427 295.7 293.627 295.5 293.927L294 293.227C294.7 293.227 295.4 293.227 296.1 293.127Z" fill="url(#paint13_linear_1_8779)"/>
<path d="M247.1 294.627C242.1 298.327 236.9 301.727 231.5 304.827C236.6 301.327 241.8 297.827 247.1 294.627Z" fill="url(#paint14_linear_1_8779)"/>
<path d="M216.2 368.527C211.2 396.227 199.8 422.427 182.8 444.927C165.9 467.427 143.8 485.727 118.6 498.127C124.7 464.027 140.5 432.427 164.2 407.127C179 391.227 196.6 378.127 216.2 368.527Z" fill="url(#paint15_linear_1_8779)"/>
<path d="M296.7 203.627C297.3 204.827 297.9 206.027 298.4 207.327C297.6 206.127 296.9 204.827 296.2 203.427C295.6 202.327 295.1 201.227 294.6 200.027C295.4 201.227 296.1 202.427 296.7 203.627Z" fill="url(#paint16_linear_1_8779)"/>
<path d="M284.6 257.527C278.7 267.327 257.9 286.827 251.9 291.027C230 287.627 208.8 280.927 189 270.927C186.8 269.327 181.7 267.127 181.7 267.127C125.9 236.427 84.2998 181.127 73.6998 113.327C67.8998 76.0273 72.0998 37.8273 85.8998 2.62732C86.9998 5.32732 88.0998 8.02732 89.1998 10.7273C89.7998 16.8273 90.5998 22.9273 91.5998 29.1273C100.9 89.2273 125.9 145.927 164.1 193.327C171 202.727 178.7 211.427 187.3 219.327C210.5 242.827 255.9 241.427 284.6 257.527Z" fill="url(#paint17_linear_1_8779)"/>
<path d="M164.2 193.327C171.5 202.427 179.2 211.027 187.4 219.327C178.8 211.427 171 202.727 164.2 193.327Z" fill="url(#paint18_linear_1_8779)"/>
<path d="M254 258.427C251.7 257.827 249.5 257.127 247.3 256.127C249.5 256.927 251.7 257.727 254 258.427Z" fill="url(#paint19_linear_1_8779)"/>
<path d="M247.1 294.627C242.1 298.327 236.9 301.727 231.5 304.827C236.6 301.327 241.8 297.827 247.1 294.627Z" fill="url(#paint20_linear_1_8779)"/>
<path d="M296.7 203.627C297.3 204.827 297.9 206.027 298.4 207.327C297.6 206.127 296.9 204.827 296.2 203.427C295.6 202.327 295.1 201.227 294.6 200.027C295.4 201.227 296.1 202.427 296.7 203.627Z" fill="url(#paint21_linear_1_8779)"/>
<path d="M321.3 131.027C320.7 131.327 320.1 131.527 319.5 131.827C319.5 131.727 319.5 131.627 319.5 131.527C320.1 131.327 320.7 131.127 321.3 131.027Z" fill="url(#paint22_linear_1_8779)"/>
<path d="M254 258.427C251.7 257.827 249.5 257.127 247.3 256.127C249.5 256.927 251.7 257.727 254 258.427Z" fill="url(#paint23_linear_1_8779)"/>
<path d="M297.2 238.127C296.4 239.827 295.4 241.427 294.3 243.027C295.4 241.427 296.3 239.827 297.2 238.127Z" fill="url(#paint24_linear_1_8779)"/>
<path d="M337.6 214.927C336.1 220.227 334.4 225.527 332.4 230.727C325.5 229.327 318.9 226.527 313 222.527C307.2 218.527 302.2 213.327 298.4 207.427C297.9 206.127 297.3 204.927 296.7 203.727C301.3 205.327 306 206.827 310.7 208.227C319.6 210.727 328.5 213.027 337.6 214.927Z" fill="url(#paint25_linear_1_8779)"/>
<path d="M300.7 215.527C301.1 217.827 301.2 220.227 301.1 222.627C300.9 228.027 299.6 233.327 297.2 238.227C296.3 239.927 295.3 241.527 294.3 243.127C291.4 248.127 288.1 252.927 284.6 257.527C274.5 270.627 248.7 268.927 234.9 259.727C215.2 246.527 204 236.327 187.3 219.427C179.1 211.127 171.4 202.427 164.1 193.327C126 145.927 101 89.3273 91.6998 29.1273C90.6998 23.0273 89.8998 16.8273 89.2998 10.7273C99.9998 35.8273 113.6 59.5273 129.8 81.4273C159.1 120.927 196.5 153.827 239.4 177.827C241.2 179.127 243.1 180.127 245.2 181.027C247.6 182.327 249.9 183.527 252.3 184.727C262.9 190.127 273.8 194.927 284.9 199.227C288.6 200.627 292.4 202.027 296.2 203.327C296.9 204.627 297.6 205.927 298.4 207.227C299.4 209.927 300.2 212.727 300.7 215.527Z" fill="url(#paint26_linear_1_8779)"/>
<path d="M319.5 131.527C319.5 131.627 319.5 131.727 319.5 131.827C307.4 137.827 298 148.227 293.4 160.927C288.8 173.627 289.2 187.627 294.5 200.027C295 201.227 295.5 202.327 296.1 203.427C292.3 202.127 288.5 200.727 284.8 199.327C273.7 195.027 262.8 190.227 252.2 184.827C249.8 183.627 242.5 179.727 240.1 178.527C245.1 180.627 251.7 183.227 261.6 181.627C274.6 179.627 282 167.127 285.3 160.827C293.5 145.227 304.2 136.027 319.5 131.527Z" fill="url(#paint27_linear_1_8779)"/>
<path d="M444.9 220.527C428.7 239.127 409.3 254.827 387.7 266.827C365.8 278.927 342 287.027 317.3 290.927C310.2 292.027 303.1 292.827 296 293.227C302.4 285.527 308.3 277.427 313.5 269.027C313.9 268.427 314.3 267.827 314.6 267.227C322.1 267.027 329.7 266.327 337.1 265.127C371.1 259.827 402.9 244.927 428.7 222.027C434.2 221.527 439.5 221.127 444.9 220.527Z" fill="url(#paint28_linear_1_8779)"/>
<path d="M428.8 221.827C403.1 244.727 371.3 259.727 337.2 264.927C329.7 266.127 322.2 266.827 314.7 267.027C321 256.627 326.4 245.727 330.9 234.427C331.4 233.127 331.9 231.827 332.4 230.627C334.3 225.427 336.1 220.227 337.6 214.827C337.9 213.827 338.2 212.827 338.4 211.827C338.9 210.027 340.5 200.227 340.9 198.527L342.5 198.027C343.3 195.727 340.7 203.527 342.1 201.527C341.5 203.527 341.4 205.627 341.8 207.627C342.5 212.227 345.6 216.127 349.8 217.327C353.4 218.427 365.2 219.727 370.8 220.327C372.2 220.527 373.7 220.627 375.1 220.827C382.8 221.627 390.6 222.127 398.4 222.327C408.5 222.527 418.6 222.427 428.8 221.827Z" fill="url(#paint29_linear_1_8779)"/>
<path d="M345.4 154.127C345.5 154.827 345.6 155.427 345.6 156.127C345.6 158.227 345.6 160.227 345.5 162.327C345.1 177.227 343.2 192.027 339.7 206.527C339.3 208.327 338.8 210.127 338.3 211.927C338 212.927 337.7 213.927 337.5 214.927C328.4 213.027 319.5 210.727 310.7 208.127C306 206.727 301.3 205.227 296.7 203.627C296.1 202.427 295.3 201.227 294.5 200.027C292.7 195.927 291.5 191.627 290.8 187.227C289.1 176.127 290.9 164.827 296.1 154.827C301.3 144.827 309.5 136.827 319.5 131.827C320.1 131.527 320.7 131.227 321.3 131.027C322.7 130.627 324.1 130.327 325.5 130.127C330.7 131.927 335.3 135.127 338.8 139.427C342.3 143.627 344.6 148.727 345.4 154.127Z" fill="url(#paint30_linear_1_8779)"/>
<path d="M251.9 291.027C250.3 292.227 248.8 293.427 247.2 294.627C240.9 299.927 237.2 301.427 231.6 304.827C200.7 327.227 176.4 357.427 161.1 392.327L172.7 365.727C179.9 350.327 187.3 335.627 193.4 321.627C194.9 318.127 196.3 314.727 197.6 311.327C199.1 307.527 200.4 303.827 201.5 300.127C202.2 297.127 201.9 294.227 201.4 291.127C200.8 287.127 199.4 283.227 197.2 279.827C195.1 276.327 192.2 273.327 188.9 271.027C208.8 280.927 230 287.627 251.9 291.027Z" fill="url(#paint31_linear_1_8779)"/>
<path d="M279 264.627C279 264.627 243.1 294.727 189 271.027C189 271.027 225 297.527 269 289.627C313.1 281.527 279 264.627 279 264.627Z" fill="url(#paint32_linear_1_8779)"/>
<path d="M89.2998 10.8274C89.2998 10.8274 103.5 184.127 235 259.727C235 259.727 121.6 187.027 106.8 46.1274L89.2998 10.8274Z" fill="url(#paint33_linear_1_8779)"/>
<path d="M428.8 221.827C428.8 221.827 399.4 254.627 337.2 264.927C337.2 264.927 404.1 246.627 417.5 222.227L428.8 221.827Z" fill="url(#paint34_linear_1_8779)"/>
<path d="M216.2 368.527C216.2 368.527 145 453.627 118.6 498.227C118.6 498.227 121.3 482.627 125.5 471.727C129.6 460.827 216.2 368.527 216.2 368.527Z" fill="url(#paint35_linear_1_8779)"/>
<path d="M234.9 357.027C237.1 368.727 236.5 380.727 233.2 392.127C229.9 403.527 223.9 414.027 215.8 422.627C213.1 408.327 214.6 393.527 220.2 380.027C223.6 371.527 228.6 363.727 234.9 357.027Z" fill="url(#paint36_linear_1_8779)"/>
<path d="M234.9 357.027C234.9 357.027 219.5 401.127 215.8 422.627C215.8 422.627 214.5 416.127 214.5 411.127C214.5 406.327 234.9 357.027 234.9 357.027Z" fill="url(#paint37_linear_1_8779)"/>
<path d="M155.3 396.627C150.9 410.427 143.4 423.027 133.3 433.327C123.2 443.727 110.8 451.527 97.0996 456.227C102.5 439.227 112.6 424.227 126.3 412.927C134.9 405.727 144.7 400.227 155.3 396.627Z" fill="url(#paint38_linear_1_8779)"/>
<path d="M155.3 396.627C155.3 396.627 113.4 435.227 97.0996 456.227C97.0996 456.227 99.4996 448.527 102.3 443.227C105.1 437.827 155.3 396.627 155.3 396.627Z" fill="url(#paint39_linear_1_8779)"/>
<path d="M372.2 170.127C372.2 170.127 371.7 172.727 371.6 173.627C368.1 200.327 351.6 200.027 342.2 201.527C343.8 193.627 341.7 184.127 340.5 174.927C340.4 173.927 340.2 172.827 340.1 171.827C344.2 170.827 350.6 169.727 355.3 170.627C365.5 172.427 369.7 166.927 372.2 170.127Z" fill="url(#paint40_linear_1_8779)"/>
<path d="M333 231.427C321.6 263.427 309.9 276.727 296 293.127C295.8 293.427 295.6 293.627 295.4 293.927C275.8 317.127 251.5 335.927 224.1 348.927C224.1 348.927 224.1 348.927 224 348.927C220.8 350.427 217.6 351.827 214.3 353.227C194.2 362.927 176.2 376.227 161 392.527V392.427V392.327C165.1 382.927 169.9 373.827 175.3 365.227C189.9 341.627 209 321.227 231.5 304.927C237.6 300.927 242.1 298.327 247.1 294.727C248.7 293.527 250.3 292.327 251.8 291.127C261.7 283.327 270.8 274.427 278.9 264.727C284.5 257.927 289.7 250.727 294.2 243.227C294.2 243.227 294.2 243.227 294.2 243.127C295.3 241.527 296.2 239.927 297.1 238.227C299.5 233.427 300.8 228.027 300.9 222.627C301 220.227 300.8 217.927 300.5 215.527C300.1 212.727 299.3 209.927 298.3 207.327C300 210.027 301.9 212.527 304.1 214.827C304.1 214.827 304.1 214.827 304.1 214.927C304.2 215.127 304.4 215.227 304.6 215.427C305.3 216.227 306 216.927 306.7 217.627C307.5 218.527 308.4 219.327 309.3 220.027C309.6 220.327 309.9 220.527 310 220.527C313.5 223.427 317.4 225.827 321.6 227.727C325 229.227 328.5 230.427 332.1 231.227C332.5 231.327 332.8 231.427 333 231.427Z" fill="url(#paint41_linear_1_8779)"/>
<path d="M346.8 174.327C346.6 176.927 346.3 179.727 345.8 182.627C344.3 192.627 341.6 204.627 337.2 218.827C335.8 223.327 334.4 227.527 333 231.427C332.7 231.327 332.4 231.327 332.1 231.227C328.5 230.427 325 229.227 321.7 227.727C317.5 225.827 313.7 223.427 310.1 220.527C310 220.427 309.7 220.227 309.4 220.027C308.5 219.227 307.6 218.427 306.8 217.627C306.1 216.927 305.4 216.127 304.7 215.427C304.5 215.227 304.4 215.127 304.2 214.927C304.2 214.927 304.2 214.927 304.2 214.827C302 212.527 300.1 210.027 298.4 207.327C297.6 206.127 296.8 204.827 296.2 203.427C295.7 202.327 295.1 201.227 294.6 200.027C292.8 195.927 291.6 191.627 291 187.127C289.2 176.027 291.1 164.727 296.2 154.727C301.4 144.727 309.6 136.727 319.6 131.727C320.2 131.427 320.8 131.127 321.4 130.927C322.8 130.527 324.2 130.227 325.6 130.027C325.9 129.927 326.3 129.927 326.6 129.827C326.6 129.927 350.6 129.827 346.8 174.327Z" fill="url(#paint42_linear_1_8779)"/>
<path d="M386.3 171.027C387.5 178.427 385.5 186.627 383.2 191.227C381.5 183.627 376.4 171.927 368.1 173.227C360.6 174.427 359.4 175.227 354 175.227C351.5 175.227 349.1 174.927 346.7 174.227C350.6 129.727 326.5 129.827 326.5 129.827C332.3 128.927 338.2 128.927 344 130.027C365.5 133.927 382.8 148.227 386.3 171.027Z" fill="url(#paint43_linear_1_8779)"/>
<defs>
<linearGradient id="paint0_linear_1_8779" x1="280.988" y1="146.902" x2="313.642" y2="137.54" gradientUnits="userSpaceOnUse">
<stop stop-color="#1CBBED"/>
<stop offset="1" stop-color="#474C9F"/>
</linearGradient>
<linearGradient id="paint1_linear_1_8779" x1="282.141" y1="154.538" x2="295.894" y2="150.594" gradientUnits="userSpaceOnUse">
<stop stop-color="#1CBBED"/>
<stop offset="1" stop-color="#474C9F"/>
</linearGradient>
<linearGradient id="paint2_linear_1_8779" x1="69.0522" y1="97.9256" x2="216.522" y2="173.682" gradientUnits="userSpaceOnUse">
<stop stop-color="#1CBBED"/>
<stop offset="1" stop-color="#474C9F"/>
</linearGradient>
<linearGradient id="paint3_linear_1_8779" x1="43.3081" y1="149.247" x2="188.538" y2="223.855" gradientUnits="userSpaceOnUse">
<stop stop-color="#1CBBED"/>
<stop offset="1" stop-color="#474C9F"/>
</linearGradient>
<linearGradient id="paint4_linear_1_8779" x1="28.975" y1="177.15" x2="174.206" y2="251.757" gradientUnits="userSpaceOnUse">
<stop stop-color="#1CBBED"/>
<stop offset="1" stop-color="#474C9F"/>
</linearGradient>
<linearGradient id="paint5_linear_1_8779" x1="403.987" y1="258.396" x2="324.057" y2="231.405" gradientUnits="userSpaceOnUse">
<stop stop-color="#1CBBED"/>
<stop offset="1" stop-color="#474C9F"/>
</linearGradient>
<linearGradient id="paint6_linear_1_8779" x1="397.651" y1="285.838" x2="318.57" y2="261.569" gradientUnits="userSpaceOnUse">
<stop stop-color="#1CBBED"/>
<stop offset="1" stop-color="#474C9F"/>
</linearGradient>
<linearGradient id="paint7_linear_1_8779" x1="399.679" y1="303.288" x2="310.478" y2="284.699" gradientUnits="userSpaceOnUse">
<stop stop-color="#1CBBED"/>
<stop offset="1" stop-color="#474C9F"/>
</linearGradient>
<linearGradient id="paint8_linear_1_8779" x1="230.984" y1="301.104" x2="247.738" y2="298.479" gradientUnits="userSpaceOnUse">
<stop stop-color="#1CBBED"/>
<stop offset="1" stop-color="#474C9F"/>
</linearGradient>
<linearGradient id="paint9_linear_1_8779" x1="166.435" y1="207.797" x2="185.1" y2="204.873" gradientUnits="userSpaceOnUse">
<stop stop-color="#1CBBED"/>
<stop offset="1" stop-color="#474C9F"/>
</linearGradient>
<linearGradient id="paint10_linear_1_8779" x1="247.545" y1="257.735" x2="253.695" y2="256.771" gradientUnits="userSpaceOnUse">
<stop stop-color="#1CBBED"/>
<stop offset="1" stop-color="#474C9F"/>
</linearGradient>
<linearGradient id="paint11_linear_1_8779" x1="295.167" y1="203.863" x2="297.819" y2="203.447" gradientUnits="userSpaceOnUse">
<stop stop-color="#1CBBED"/>
<stop offset="1" stop-color="#474C9F"/>
</linearGradient>
<linearGradient id="paint12_linear_1_8779" x1="294.028" y1="240.883" x2="297.583" y2="240.326" gradientUnits="userSpaceOnUse">
<stop stop-color="#1CBBED"/>
<stop offset="1" stop-color="#474C9F"/>
</linearGradient>
<linearGradient id="paint13_linear_1_8779" x1="294.031" y1="293.701" x2="296.105" y2="293.376" gradientUnits="userSpaceOnUse">
<stop stop-color="#1CBBED"/>
<stop offset="1" stop-color="#474C9F"/>
</linearGradient>
<linearGradient id="paint14_linear_1_8779" x1="230.984" y1="301.104" x2="247.738" y2="298.479" gradientUnits="userSpaceOnUse">
<stop stop-color="#1CBBED"/>
<stop offset="1" stop-color="#474C9F"/>
</linearGradient>
<linearGradient id="paint15_linear_1_8779" x1="112.78" y1="449.381" x2="214.37" y2="419.554" gradientUnits="userSpaceOnUse">
<stop stop-color="#1CBBED"/>
<stop offset="1" stop-color="#474C9F"/>
</linearGradient>
<linearGradient id="paint16_linear_1_8779" x1="295.167" y1="203.863" x2="297.819" y2="203.447" gradientUnits="userSpaceOnUse">
<stop stop-color="#1CBBED"/>
<stop offset="1" stop-color="#474C9F"/>
</linearGradient>
<linearGradient id="paint17_linear_1_8779" x1="83.6446" y1="134.195" x2="259.544" y2="160.295" gradientUnits="userSpaceOnUse">
<stop stop-color="#1CBBED"/>
<stop offset="1" stop-color="#474C9F"/>
</linearGradient>
<linearGradient id="paint18_linear_1_8779" x1="166.435" y1="207.797" x2="185.1" y2="204.873" gradientUnits="userSpaceOnUse">
<stop stop-color="#1CBBED"/>
<stop offset="1" stop-color="#474C9F"/>
</linearGradient>
<linearGradient id="paint19_linear_1_8779" x1="247.545" y1="257.735" x2="253.695" y2="256.771" gradientUnits="userSpaceOnUse">
<stop stop-color="#1CBBED"/>
<stop offset="1" stop-color="#474C9F"/>
</linearGradient>
<linearGradient id="paint20_linear_1_8779" x1="230.984" y1="301.104" x2="247.738" y2="298.479" gradientUnits="userSpaceOnUse">
<stop stop-color="#1CBBED"/>
<stop offset="1" stop-color="#474C9F"/>
</linearGradient>
<linearGradient id="paint21_linear_1_8779" x1="295.167" y1="203.863" x2="297.819" y2="203.447" gradientUnits="userSpaceOnUse">
<stop stop-color="#1CBBED"/>
<stop offset="1" stop-color="#474C9F"/>
</linearGradient>
<linearGradient id="paint22_linear_1_8779" x1="319.48" y1="131.572" x2="321.336" y2="131.281" gradientUnits="userSpaceOnUse">
<stop stop-color="#1CBBED"/>
<stop offset="1" stop-color="#474C9F"/>
</linearGradient>
<linearGradient id="paint23_linear_1_8779" x1="247.545" y1="257.735" x2="253.695" y2="256.771" gradientUnits="userSpaceOnUse">
<stop stop-color="#1CBBED"/>
<stop offset="1" stop-color="#474C9F"/>
</linearGradient>
<linearGradient id="paint24_linear_1_8779" x1="294.028" y1="240.883" x2="297.583" y2="240.326" gradientUnits="userSpaceOnUse">
<stop stop-color="#1CBBED"/>
<stop offset="1" stop-color="#474C9F"/>
</linearGradient>
<linearGradient id="paint25_linear_1_8779" x1="281.52" y1="221.555" x2="353.408" y2="211.921" gradientUnits="userSpaceOnUse">
<stop stop-color="#CFD1D2"/>
<stop offset="0.11" stop-color="#E1E3E3"/>
<stop offset="0.26" stop-color="#F2F3F3"/>
<stop offset="0.42" stop-color="#FCFCFC"/>
<stop offset="0.63" stop-color="white"/>
</linearGradient>
<linearGradient id="paint26_linear_1_8779" x1="78.1565" y1="36.3364" x2="304.718" y2="278.915" gradientUnits="userSpaceOnUse">
<stop stop-color="#1CBBED"/>
<stop offset="1" stop-color="#474C9F"/>
</linearGradient>
<linearGradient id="paint27_linear_1_8779" x1="240.212" y1="178.068" x2="324.719" y2="164.828" gradientUnits="userSpaceOnUse">
<stop stop-color="#1CBBED"/>
<stop offset="1" stop-color="#474C9F"/>
</linearGradient>
<linearGradient id="paint28_linear_1_8779" x1="469.703" y1="243.009" x2="323.243" y2="263.304" gradientUnits="userSpaceOnUse">
<stop stop-color="#1CBBED"/>
<stop offset="1" stop-color="#474C9F"/>
</linearGradient>
<linearGradient id="paint29_linear_1_8779" x1="446.612" y1="216.523" x2="300.801" y2="236.716" gradientUnits="userSpaceOnUse">
<stop stop-color="#1CBBED"/>
<stop offset="1" stop-color="#474C9F"/>
</linearGradient>
<linearGradient id="paint30_linear_1_8779" x1="275.944" y1="179.952" x2="347.834" y2="170.322" gradientUnits="userSpaceOnUse">
<stop offset="0.08" stop-color="#CFD1D2"/>
<stop offset="0.25" stop-color="#E1E3E3"/>
<stop offset="0.46" stop-color="#F2F3F3"/>
<stop offset="0.7" stop-color="#FCFCFC"/>
<stop offset="1" stop-color="white"/>
</linearGradient>
<linearGradient id="paint31_linear_1_8779" x1="152.125" y1="335.286" x2="256.283" y2="318.967" gradientUnits="userSpaceOnUse">
<stop stop-color="#1CBBED"/>
<stop offset="1" stop-color="#474C9F"/>
</linearGradient>
<linearGradient id="paint32_linear_1_8779" x1="171.895" y1="274.977" x2="264.912" y2="277.815" gradientUnits="userSpaceOnUse">
<stop stop-color="#1CBBED"/>
<stop offset="1" stop-color="#474C9F"/>
</linearGradient>
<linearGradient id="paint33_linear_1_8779" x1="109.635" y1="143.473" x2="214.163" y2="127.096" gradientUnits="userSpaceOnUse">
<stop stop-color="#1CBBED"/>
<stop offset="1" stop-color="#474C9F"/>
</linearGradient>
<linearGradient id="paint34_linear_1_8779" x1="425.541" y1="220.635" x2="346.301" y2="267.323" gradientUnits="userSpaceOnUse">
<stop stop-color="#1CBBED"/>
<stop offset="1" stop-color="#474C9F"/>
</linearGradient>
<linearGradient id="paint35_linear_1_8779" x1="116.642" y1="466.698" x2="230.372" y2="391.929" gradientUnits="userSpaceOnUse">
<stop stop-color="#1CBBED"/>
<stop offset="1" stop-color="#474C9F"/>
</linearGradient>
<linearGradient id="paint36_linear_1_8779" x1="206.217" y1="404.331" x2="241.793" y2="377.429" gradientUnits="userSpaceOnUse">
<stop stop-color="#1CBBED"/>
<stop offset="1" stop-color="#474C9F"/>
</linearGradient>
<linearGradient id="paint37_linear_1_8779" x1="210.305" y1="410.582" x2="243.971" y2="364.174" gradientUnits="userSpaceOnUse">
<stop stop-color="#1CBBED"/>
<stop offset="1" stop-color="#474C9F"/>
</linearGradient>
<linearGradient id="paint38_linear_1_8779" x1="97.2753" y1="430.946" x2="150.977" y2="422.463" gradientUnits="userSpaceOnUse">
<stop stop-color="#1CBBED"/>
<stop offset="1" stop-color="#474C9F"/>
</linearGradient>
<linearGradient id="paint39_linear_1_8779" x1="98.1018" y1="440.03" x2="160.949" y2="409.458" gradientUnits="userSpaceOnUse">
<stop stop-color="#1CBBED"/>
<stop offset="1" stop-color="#474C9F"/>
</linearGradient>
<linearGradient id="paint40_linear_1_8779" x1="337.249" y1="196.397" x2="368.711" y2="166.462" gradientUnits="userSpaceOnUse">
<stop stop-color="#1CBBED"/>
<stop offset="1" stop-color="#474C9F"/>
</linearGradient>
<linearGradient id="paint41_linear_1_8779" x1="137.671" y1="346.969" x2="339.405" y2="243.899" gradientUnits="userSpaceOnUse">
<stop offset="0.08" stop-color="#CFD1D2"/>
<stop offset="0.25" stop-color="#E1E3E3"/>
<stop offset="0.46" stop-color="#F2F3F3"/>
<stop offset="0.7" stop-color="#FCFCFC"/>
<stop offset="1" stop-color="white"/>
</linearGradient>
<linearGradient id="paint42_linear_1_8779" x1="293.54" y1="198.379" x2="355.413" y2="166.763" gradientUnits="userSpaceOnUse">
<stop offset="0.08" stop-color="#CFD1D2"/>
<stop offset="0.25" stop-color="#E1E3E3"/>
<stop offset="0.46" stop-color="#F2F3F3"/>
<stop offset="0.7" stop-color="#FCFCFC"/>
<stop offset="1" stop-color="white"/>
</linearGradient>
<linearGradient id="paint43_linear_1_8779" x1="331.928" y1="164.16" x2="383.977" y2="156.006" gradientUnits="userSpaceOnUse">
<stop stop-color="#1CBBED"/>
<stop offset="1" stop-color="#474C9F"/>
</linearGradient>
</defs>
</svg>
