<svg width="500" height="501" viewBox="0 0 500 501" fill="none" xmlns="http://www.w3.org/2000/svg">
<path d="M442.3 255.327C468.367 255.327 489.5 234.195 489.5 208.127C489.5 182.06 468.367 160.927 442.3 160.927C416.232 160.927 395.1 182.06 395.1 208.127C395.1 234.195 416.232 255.327 442.3 255.327Z" fill="#E0077D"/>
<path d="M112.3 239.127C112.3 239.127 152.9 208.127 215.4 208.127C285.9 208.127 384.5 261.727 446.9 261.727C481.9 261.727 489.4 250.527 489.4 250.527C489.4 250.527 455.9 289.527 388.2 289.527C312.6 289.527 232 233.927 159.7 233.927C119.9 233.927 112.3 239.127 112.3 239.127Z" fill="#E0077D"/>
<path d="M11.0996 293.627C11.0996 293.627 51.6996 262.627 114.2 262.627C184.7 262.627 283.3 316.227 345.7 316.227C380.7 316.227 388.2 305.027 388.2 305.027C388.2 305.027 354.7 344.027 287 344.027C211.4 344.027 130.8 288.427 58.4996 288.427C18.5996 288.527 11.0996 293.627 11.0996 293.627Z" fill="#E0077D"/>
</svg>
