<svg width="500" height="501" viewBox="0 0 500 501" fill="none" xmlns="http://www.w3.org/2000/svg">
<path d="M495.5 250.627C495.5 318.427 467.9 379.827 423.4 424.227C379.1 468.327 318 495.527 250.5 495.527C183 495.527 121.9 468.227 77.6 424.127C33.1 379.727 5.5 318.327 5.5 250.627C5.5 115.327 115.2 5.62735 250.5 5.62735C385.9 5.42735 495.5 115.127 495.5 250.627Z" fill="#FF6766"/>
<path d="M495.5 250.627C495.5 385.927 385.8 495.627 250.5 495.627C182.9 495.627 121.8 468.327 77.5 424.127L424 77.4274C468.1 121.727 495.5 182.927 495.5 250.627Z" fill="#D95E59"/>
<path d="M423.5 424.227C379.2 468.327 318.1 495.527 250.6 495.527C183.1 495.527 122 468.327 77.7002 424.227C122 380.127 183.1 352.827 250.6 352.827C318.1 352.827 379 380.027 423.5 424.227Z" fill="#FEF4C8"/>
<path d="M407 250.527C407 293.827 389.4 333.027 361 361.427C332.7 389.627 293.7 407.027 250.6 407.027C207.5 407.027 168.5 389.627 140.2 361.427C111.6 333.127 94 293.927 94 250.527C94 164.127 164.1 94.0273 250.5 94.0273C336.9 94.0273 407 164.127 407 250.527Z" fill="#F5F7E2"/>
<path d="M372.6 250.527C372.6 284.327 358.9 314.927 336.7 337.027C314.6 359.027 284.2 372.627 250.6 372.627C217 372.627 186.5 359.027 164.5 337.027C142.3 314.927 128.5 284.327 128.5 250.527C128.5 183.127 183.1 128.527 250.5 128.527C317.9 128.527 372.6 183.127 372.6 250.527Z" fill="white"/>
<path d="M132 179.527C136.3 173.427 140.4 167.227 145.3 161.527C154.2 151.227 164.3 142.327 175.8 135.027C186.2 128.427 197.1 123.227 208.8 119.627C227 114.027 245.6 112.327 264.5 114.427C278.3 116.027 291.7 119.527 304.3 125.227C312 128.727 319.2 132.927 326.3 137.627C340.6 146.927 352 159.027 361.6 172.927C371.8 187.727 378.4 204.127 382.1 221.827C384.7 234.227 385.7 246.727 384.6 259.327C383.2 274.827 379.8 289.827 373.4 304.127C368 316.327 361.2 327.427 352.6 337.527C344.2 347.427 334.7 356.027 323.8 363.127C316.4 367.927 308.6 372.327 300.5 375.527C286.8 380.927 272.6 384.527 257.8 385.127C247.4 385.527 237 385.427 226.7 383.527C217.8 381.927 209.2 379.627 200.7 376.527C192.5 373.427 184.5 369.827 177.2 365.227C166.6 358.527 157.1 350.527 148.6 341.227C139.2 330.827 131.5 319.327 125.6 306.627C117.3 288.727 113.2 269.827 113 250.027C112.9 242.627 113.8 235.227 114.7 227.927C114.8 227.427 114.7 226.827 114.7 226.327C115.6 225.827 115.5 224.827 115.6 224.027C117.8 212.527 121.5 201.427 126.5 190.827C128.4 187.027 130.8 183.527 132 179.527ZM290.8 252.427C294.5 250.427 298 249.327 300.7 246.927C311.4 237.427 314.2 215.027 296.9 204.227C291.5 200.827 285.8 198.327 279.6 195.827C280.6 187.527 283.9 179.727 285 171.227C279.9 169.927 275.1 168.327 270.1 167.727C268.1 175.727 266.1 183.327 264.1 191.327C260.3 190.127 256.3 190.227 252.8 188.227C254.1 180.127 257.2 172.527 258 164.427C252.7 163.627 248.3 161.527 243.2 161.327C241.2 169.327 239.3 177.127 237.2 185.127C227.1 183.627 217.8 180.127 207.6 178.227C205.4 183.227 204.4 188.527 203.5 194.227C206.8 195.027 209.7 195.727 212.6 196.327C219.9 198.027 221.9 202.027 220.2 208.427C219 212.927 217.9 217.527 216.7 222.127C212.6 238.527 208.6 255.027 204.5 271.427C203.6 275.127 201.3 276.327 197.5 275.827C193.8 275.327 190.3 273.627 186.2 273.727C184.4 279.427 180.9 284.327 179.7 290.627C189.4 293.127 198.8 295.527 208.6 298.027C207.9 306.627 204.3 314.427 203.3 323.027C208.2 324.227 212.9 325.327 217.7 326.427C220.9 318.527 221.6 310.227 224.6 302.027C228.2 303.827 232.1 303.327 235.6 305.627C233.7 313.527 231.8 321.327 229.9 329.327C235 331.127 239.9 331.927 245 333.127C247.1 324.927 249 316.927 251 309.227C252.2 308.627 253.1 308.727 253.9 308.927C261.9 310.627 269.9 311.027 277.9 310.127C284.9 309.327 291.1 306.727 296 301.427C301.5 295.627 304.3 288.527 305.6 280.827C306.7 274.627 306.4 268.227 302.7 262.727C299.8 258.427 295.9 255.127 290.8 252.427ZM233.3 284.927C243.1 287.327 252.9 289.927 263.2 288.127C268.7 287.127 272.8 284.327 274.5 278.827C276.1 273.627 275.2 268.927 271.3 264.827C267.3 260.527 262.1 258.327 256.8 256.527C250.5 254.327 244 252.327 237.1 251.727C234.4 262.527 231.9 273.027 229.2 283.727C230.8 284.127 232 284.627 233.3 284.927ZM267.9 239.627C273.3 238.827 277.8 235.227 279.1 230.427C280.7 224.427 278.9 219.227 274.1 215.727C268.6 211.727 262.3 209.627 255.8 208.227C253.4 207.727 251 206.327 248.1 207.227C245.8 216.727 243.4 226.227 241 236.127C250.3 238.327 258.8 240.927 267.9 239.627Z" fill="#F39321"/>
</svg>
