<svg width="500" height="501" viewBox="0 0 500 501" fill="none" xmlns="http://www.w3.org/2000/svg">
<g clip-path="url(#clip0_1_8835)">
<path d="M457.8 199.027C457.8 302.027 379.3 386.727 278.8 396.527C283.6 337.827 241 285.827 182.5 279.127V16.1273L182.4 15.9273C206.7 5.72734 232.9 0.527344 259.3 0.527344C368.9 0.527344 457.8 89.4273 457.8 199.027Z" fill="#DEDEDE"/>
<path d="M61.5001 400.027C57.6001 366.327 69.7001 332.727 94.1001 309.127C129.7 362.427 190.4 397.527 259.3 397.527C265.9 397.527 272.4 397.227 278.8 396.527C274.7 447.427 235.1 490.027 182.4 496.027C122.5 502.927 68.4001 459.827 61.5001 400.027Z" fill="#1E4480"/>
<path d="M182.4 16.1274V279.127C240.9 285.927 283.5 337.827 278.7 396.527C272.3 397.127 265.8 397.427 259.2 397.527C190.3 397.527 129.6 362.427 94 309.127C111.3 292.427 133.6 281.827 157.5 279.127H157.6V28.7274L157.5 28.5274C165.5 23.7274 173.8 19.5274 182.3 15.9274L182.4 16.1274Z" fill="#152E51"/>
<path d="M60.8004 199.027C60.8004 126.627 99.6004 63.2273 157.5 28.5273L157.6 28.7273V279.127H157.5C133.6 281.827 111.3 292.327 94.0004 309.127C72.3004 276.527 60.7004 238.227 60.8004 199.027Z" fill="#DEDEDE"/>
</g>
<defs>
<clipPath id="clip0_1_8835">
<rect width="500" height="500" fill="white" transform="translate(0 0.527344)"/>
</clipPath>
</defs>
</svg>
