<svg width="500" height="501" viewBox="0 0 500 501" fill="none" xmlns="http://www.w3.org/2000/svg">
<g clip-path="url(#clip0_1_8840)">
<path d="M59.5997 138.727C54.5997 137.127 53.3997 133.827 56.3997 129.527C57.6997 127.627 59.2997 125.727 61.1997 124.427C66.2997 120.927 71.5997 117.727 76.7997 114.427C77.7997 113.727 78.8997 112.927 79.3997 111.927C84.4997 102.327 91.0997 94.1273 100.2 88.0273C104.6 85.0273 109.1 82.1273 113.5 79.1273C114.1 78.7273 114.5 77.8273 114.7 77.1273C116 73.6273 116.7 69.8273 118.5 66.7273C124.9 56.2273 131.7 46.1273 138.2 35.7273C143.7 26.9273 152.1 22.2273 160.9 17.6273C168.6 13.5273 176.5 11.2273 185.4 11.7273C192.4 12.1273 199.5 11.4273 206.4 12.0273C213.4 12.7273 218.9 16.9273 224.1 21.6273C228.4 25.5273 233.3 28.7273 238.1 32.1273C238.7 32.5273 240.5 32.0273 241 31.3273C251.6 17.5273 265.5 10.5273 282.8 9.1273C296.5 8.0273 310.1 7.9273 323.7 9.3273C329.3 9.9273 334 12.3273 338.9 14.9273C345.9 18.6273 353 22.3273 357.8 28.8273C362.5 35.1273 366.6 41.9273 370.9 48.4273C373.8 52.7273 376.5 57.1273 379.7 61.3273C383.9 66.8273 388.3 72.2273 392.7 77.4273C396.4 81.7273 400.6 85.5273 404 90.0273C408.7 96.2273 413.2 102.627 417.1 109.227C424.1 121.027 430.6 133.127 437.2 145.127C442.6 155.127 447.8 165.327 453 175.427C456.8 182.727 460.8 189.827 464.3 197.327C470 209.427 475.7 221.627 479 234.727C481.5 244.827 484.8 254.727 486.7 264.927C488.7 275.327 489.4 285.927 490.9 296.427C491.8 303.127 493.3 309.827 494.2 316.527C494.9 321.327 495 326.227 495.6 331.127C496.9 342.327 498.1 353.427 499.6 364.627C500.7 372.927 499.8 381.127 498.4 389.327C496.8 399.027 493.3 408.027 489.6 416.927C485.9 425.927 480 433.727 472.5 439.727C465.9 445.027 458.3 448.927 451 453.127C447.1 455.427 442.9 457.327 438.7 459.127C433.8 461.227 428.9 463.227 423.9 464.927C417.7 467.027 411.6 469.027 405.2 470.427C397 472.227 388.7 473.627 380.4 474.527C369 475.727 357.6 476.427 346.1 477.027C335.8 477.527 325.4 478.127 315.1 477.727C305.1 477.327 295.1 475.227 285 474.727C274.9 474.127 264.7 474.627 254.6 474.527C243.4 474.427 232.2 474.727 221.1 473.627C213.7 472.827 206.6 469.827 199.4 467.627C197.5 467.027 195.7 466.027 193.8 465.527C187.8 463.727 184.1 459.327 180.8 454.227C180.2 453.227 179 452.627 178.1 451.927C177.5 452.827 176.5 453.627 176.3 454.627C175 460.527 170.5 463.227 165.9 466.027C157.4 471.427 148.9 477.027 140.4 482.527C133.3 487.127 125.4 489.227 117.2 489.827C102.8 490.927 88.2997 491.827 73.8997 492.527C64.2997 493.027 54.6997 492.727 45.4997 489.527C37.2997 486.727 28.7997 484.427 20.7997 481.127C15.5997 479.027 10.6997 476.027 6.2997 472.427C-0.700296 466.727 -1.6003 462.227 2.1997 453.127C6.0997 443.727 9.99971 434.327 16.1997 425.927C19.8997 420.927 21.4997 414.327 25.3997 409.627C33.9997 399.527 40.6997 387.527 51.5997 379.527C59.8997 373.427 68.9997 368.427 77.5997 362.727C80.4997 360.827 82.9997 358.427 85.3997 355.927C87.1997 354.127 86.9997 352.027 84.9997 350.027C79.2997 344.027 73.5997 337.827 72.2997 329.327C71.5997 324.927 72.5997 320.327 72.6997 315.827C72.6997 314.127 72.6997 312.127 71.8997 310.827C69.5997 307.327 66.9997 304.127 64.2997 300.927C58.8997 294.227 58.7997 287.327 63.7997 280.127C64.3997 279.327 64.2997 277.327 63.6997 276.527C60.4997 272.427 56.6997 268.727 53.6997 264.527C50.7997 260.527 47.5997 256.327 46.2997 251.727C44.3997 244.927 48.7997 239.127 52.5997 234.027C55.4997 230.227 57.7997 226.327 60.0997 222.127C63.3997 216.127 68.0997 210.927 72.3997 205.627C74.8997 202.627 75.0997 202.327 72.1997 199.527C60.9997 188.927 57.1997 176.027 59.4997 160.827C59.9997 157.327 59.3997 153.627 59.3997 150.027C59.5997 146.327 59.5997 142.527 59.5997 138.727ZM60.3997 131.927C60.6997 131.527 60.8997 131.127 61.1997 130.727C61.0997 130.627 60.8997 130.527 60.7997 130.427C60.4997 130.827 60.1997 131.127 59.8997 131.527C59.8997 131.727 59.7997 131.927 59.7997 132.227C59.9997 132.027 60.1997 131.927 60.3997 131.927ZM97.0997 393.427C97.3997 393.527 97.6997 393.627 97.9997 393.727C97.8997 393.427 97.7997 393.027 97.6997 392.727C95.9997 389.827 94.1997 387.127 92.7997 384.127C92.3997 383.327 92.9997 381.527 93.6997 380.827C97.2997 377.327 102 376.127 106.7 375.227C112.4 374.227 118 374.527 122.8 378.227C128 382.127 133.3 385.927 138.2 390.127C145.5 396.327 153.7 397.227 162.5 394.927C165.6 394.127 168.5 392.727 169.6 389.227C171.6 382.927 166.6 375.427 160 375.027C159.5 375.027 158.9 375.127 158.5 375.327C156.4 376.527 154.1 377.627 152.2 379.127C148.7 381.927 148.7 384.027 152 387.227C152.8 388.027 154.1 388.527 154.6 389.527C155.2 390.527 155.2 391.927 155.4 393.127C154.1 393.127 152.6 393.627 151.7 393.127C150.1 392.227 148.7 390.727 147.5 389.227C143.5 384.627 143.4 381.527 147.7 377.027C149.8 374.827 152.4 373.027 154.8 371.027C153.6 370.027 152.5 369.027 151.4 368.027C141.8 358.527 131.8 349.627 119.1 344.527C110.3 340.927 105.7 340.727 99.2997 347.027C97.4997 348.827 95.2997 350.227 93.4997 352.027C91.9997 353.527 90.6997 355.127 89.4997 356.827C86.8997 360.327 84.6997 364.027 80.3997 365.927C75.7997 368.027 71.3997 370.827 66.9997 373.227C50.3997 382.227 40.0997 397.527 28.6997 411.627C23.6997 417.827 19.8997 425.027 16.3997 432.227C11.9997 441.227 8.3997 450.627 4.5997 459.927C3.2997 463.127 4.5997 467.427 7.4997 469.227C12.3997 472.427 17.1997 475.827 22.4997 478.127C28.8997 480.927 35.7997 482.827 42.5997 484.927C53.8997 488.527 65.2997 489.527 77.1997 488.527C90.6997 487.427 104.4 487.727 117.9 485.927C125.4 484.927 132.8 483.427 139.3 479.127C148.2 473.227 157.1 467.527 166 461.627C167.7 460.527 169.8 459.327 170.8 457.627C174.5 450.827 175.5 443.327 174.8 435.627C174.1 428.627 174.6 422.027 179.8 416.527C180.5 415.727 181.2 414.827 181.6 413.927C183.9 408.627 188.2 404.927 192.1 400.727C194.9 397.727 197.2 394.127 199 390.527C200.8 386.827 199.6 383.127 196.6 380.827C194.8 379.527 192.9 378.327 190.9 377.227C185 373.927 175.5 379.127 175.1 386.427C174.9 390.427 173.3 393.827 170.1 396.327C166.5 399.127 162.4 400.127 158 400.527C157 400.627 155.5 401.227 155.3 401.927C154.4 404.727 153.3 407.727 153.3 410.527C153.4 418.327 150.3 424.627 144.6 429.627C139.7 434.027 134.1 437.727 129.5 442.427C122.3 449.927 114.3 454.627 103.4 453.027C102.6 460.527 98.2997 464.427 91.0997 465.027C84.8997 465.527 78.5997 467.027 72.6997 464.127C71.6997 466.227 71.0997 468.127 70.0997 469.827C67.8997 473.127 64.3997 473.527 60.7997 473.827C55.3997 474.327 50.4997 473.027 46.7997 469.027C39.8997 461.627 33.3997 454.027 26.8997 446.327C26.3997 445.727 26.2997 443.927 26.7997 443.327C27.2997 442.727 28.9997 442.527 29.6997 442.827C30.9997 443.427 32.0997 444.627 32.9997 445.727C38.1997 451.727 43.5997 457.627 48.4997 463.927C51.9997 468.327 56.2997 469.427 61.4997 469.027C63.8997 468.827 66.2997 468.327 67.0997 465.627C68.0997 462.327 69.9997 458.927 66.2997 455.727C62.7997 452.727 59.5997 449.527 56.3997 446.227C52.8997 442.627 49.4997 438.927 46.3997 435.027C45.6997 434.227 46.1997 432.427 46.1997 431.127C47.2997 431.327 48.4997 431.227 49.4997 431.727C50.3997 432.127 51.0997 433.127 51.7997 433.927C56.6997 439.227 61.6997 444.527 66.5997 449.827C68.7997 452.127 71.2997 454.227 72.8997 456.927C74.4997 459.627 76.5997 460.727 79.3997 460.627C83.7997 460.427 88.2997 459.927 92.6997 459.327C97.4997 458.727 100.4 453.327 98.1997 448.927C95.7997 444.127 92.9997 439.427 90.2997 434.727C86.7997 428.827 82.4997 423.627 76.1997 420.327C75.3997 419.927 74.4997 419.127 74.1997 418.327C73.8997 417.527 73.7997 416.127 74.1997 415.527C74.6997 414.927 76.2997 414.627 76.8997 415.027C80.7997 417.827 85.1997 420.227 88.1997 423.827C93.6997 430.527 98.9997 437.427 102.2 445.727C102.5 446.527 103.4 447.527 104.3 447.727C108.7 449.027 113 448.327 117 446.327C122.6 443.527 126.7 439.027 129.9 433.827C131.8 430.727 132.3 427.627 129.7 424.327C127.9 422.127 126.7 419.427 124.9 417.127C122.1 413.627 119.1 410.627 114.8 408.627C108.3 405.727 102.1 402.127 96.1997 398.127C89.9997 393.927 84.1997 389.027 78.2997 384.227C77.3997 383.527 76.6997 381.427 77.1997 380.627C78.2997 378.627 79.9997 379.427 81.4997 380.627C86.4997 385.327 91.7997 389.427 97.0997 393.427ZM62.9997 129.327C67.6997 126.327 72.4997 123.727 78.1997 123.327C86.2997 122.727 94.2997 122.027 102.4 121.327C117.4 120.027 131.5 122.527 143.8 131.927C147.3 134.627 150.5 137.927 153.6 141.127C154.2 141.727 153.8 143.327 153.9 144.527C152.7 144.527 151.4 144.627 150.2 144.427C149.7 144.327 149.3 143.527 148.9 143.127C138.3 131.727 125.3 125.727 109.7 126.127C99.4997 126.427 89.1997 126.827 79.0997 128.227C74.4997 128.827 69.8997 131.527 65.8997 134.027C64.3997 134.927 63.9997 138.127 63.7997 140.327C63.4997 144.027 63.6997 147.827 63.6997 151.527C65.7997 149.627 67.2997 147.527 68.5997 145.427C72.0997 139.927 76.0997 135.127 83.0997 133.927C93.0997 132.227 103.2 131.327 113.3 132.827C116.3 133.227 119.9 132.927 122.3 134.427C128.9 138.327 135.4 142.527 141.2 147.427C145.6 151.127 149 156.127 152.6 160.627C156 164.927 160.1 169.027 162.3 174.027C166.5 183.527 164 187.327 156.6 189.427C148.3 191.727 139.9 192.627 131.4 192.727C119.3 192.827 107.2 194.527 94.9997 192.827C83.6997 191.327 74.3997 187.227 67.3997 178.027C66.3997 176.627 65.0997 175.527 63.3997 173.727C63.7997 183.427 68.1997 190.227 74.0997 196.327C78.1997 200.427 82.9997 202.827 88.9997 202.327C91.0997 202.127 93.2997 202.027 95.3997 201.927C97.2997 201.827 99.3997 202.127 99.4997 204.427C99.5997 206.627 97.5997 206.827 95.7997 206.827C91.2997 206.827 86.6997 206.827 81.9997 206.827C84.0997 210.727 86.9997 213.127 91.3997 213.327C94.5997 213.527 97.7997 213.527 101 213.927C101.9 214.027 103 215.027 103.3 215.927C103.5 216.527 102.4 218.227 101.9 218.227C95.1997 218.727 88.3997 219.727 82.6997 214.827C80.2997 212.827 78.2997 210.327 75.7997 207.727C73.0997 211.027 70.3997 214.327 67.5997 217.427C60.7997 225.127 60.5997 234.027 63.9997 242.927C66.2997 249.027 69.7997 254.727 73.2997 260.227C77.6997 267.327 83.8997 272.427 92.0997 274.727C102.1 277.527 112.3 277.927 122.5 277.827C136.5 277.727 150.6 276.827 164.6 276.027C177.1 275.327 189.7 274.627 202.2 273.427C213.7 272.327 225.3 270.827 236.7 268.927C248.1 266.927 259.4 264.027 270.7 261.727C278.3 260.127 286.1 259.327 293.6 257.427C303.3 254.927 312.7 251.627 322.3 248.927C329.3 247.027 336.3 245.327 343.4 243.827C346.7 243.127 350.2 243.427 352.6 246.227C358 252.627 359.1 262.827 352.2 269.027C347.2 273.527 341.6 277.627 335.8 281.127C328.7 285.427 321.1 288.827 313.8 292.627C308.5 295.427 303.4 298.527 298.1 301.127C288.9 305.627 279.4 309.427 270.4 314.227C261.3 319.027 251.7 321.627 241.6 322.927C233.6 323.927 225.7 325.527 217.7 326.827C213.7 327.427 209.7 328.127 205.7 328.327C197.8 328.727 189.9 328.827 182.1 328.927C170.2 329.027 158.2 329.427 146.3 328.927C133.1 328.327 119.9 327.027 106.7 328.327C99.7997 329.027 93.4997 327.727 87.4997 324.927C83.6997 323.127 80.1997 320.627 76.5997 318.427C72.5997 325.827 78.5997 340.327 89.4997 349.427C91.9997 347.327 94.6997 345.227 97.0997 342.827C102 338.027 107.7 336.227 114.4 338.127C117.8 339.127 121.1 340.627 124.4 342.027C132.5 345.427 139.4 350.727 146 356.627C151.6 361.527 157.2 366.527 163 371.127C166.3 373.727 170.1 375.627 173.9 378.027C177.5 373.127 183.1 371.827 189.4 372.427C197.4 373.227 205.3 381.427 204.2 389.227C203.6 393.627 201.2 398.327 198.3 401.627C192.8 407.627 187.5 413.627 183.2 420.527C180.8 424.327 179.3 428.027 179.4 432.427C179.5 436.727 178.6 441.327 179.8 445.427C181 449.327 184.2 452.727 186.5 456.327C188.2 459.027 190.5 460.627 193.4 461.627C195.5 462.327 197.5 463.327 199.6 463.927C206.6 466.027 213.5 468.927 220.6 469.927C229.6 471.127 238.8 471.027 248 471.127C259.8 471.327 271.7 471.127 283.6 471.227C288.6 471.327 293.6 471.627 298.5 472.127C305 472.727 311.6 474.327 318.1 474.227C334.6 474.027 351.1 473.327 367.5 472.527C372.4 472.327 377.3 471.927 382 470.927C392.1 468.727 402.7 468.427 412.4 464.227C412.6 464.127 412.8 464.127 413 464.127C420.4 461.827 428 459.927 435.1 457.027C442.8 453.827 450.2 449.827 457.6 445.827C469.5 439.527 478.8 430.527 484.6 418.327C488.7 409.627 492 400.627 493.8 391.027C495.4 382.327 496.4 373.727 495.3 364.827C493.9 353.627 492.7 342.327 491.4 331.027C490.9 326.827 491 322.527 490.4 318.327C489.3 311.227 487.7 304.127 486.6 297.027C485.1 286.627 484 276.227 482.5 265.827C481 255.627 478.1 245.827 475 235.927C471 222.927 465.8 210.627 460.1 198.327C455.3 188.027 449.9 178.127 444.7 168.127C437.1 153.627 429.5 139.127 421.6 124.827C417.7 117.727 413 111.127 408.9 104.227C405 97.7273 400.8 91.5273 395.2 86.3273C392.6 83.9273 390.4 80.9273 388.1 78.2273C383.8 73.2273 379.6 68.1273 375.4 63.0273C373.7 60.9273 371.9 58.7273 370.5 56.3273C367.5 51.3273 364.8 46.1273 361.7 41.1273C356.1 31.9273 349 24.3273 339.1 19.7273C335.6 18.1273 332.3 15.5273 328.7 15.0273C318.3 13.7273 307.8 12.9273 297.2 12.5273C292.3 12.3273 287.4 13.2273 282.6 13.6273C274.1 14.4273 265.9 16.2273 258.4 20.9273C248.1 27.4273 241.3 36.5273 237.1 47.6273C236.1 50.3273 235.7 53.2273 234.9 56.4273C237.9 56.2273 240.3 56.0273 242.6 55.8273C243 55.8273 243.4 55.7273 243.9 55.7273C261.3 53.2273 278.7 52.1273 296.1 55.3273C303.4 56.7273 310.8 58.1273 317 62.8273C323.3 67.5273 329.3 72.5273 335.5 77.4273C335.7 77.5273 335.9 77.7273 335.9 77.9273C336.1 78.8273 336.5 79.8273 336.2 80.5273C336 81.1273 334.8 81.6273 334.1 81.5273C333.1 81.4273 332 81.0273 331.2 80.3273C327 77.0273 323 73.5273 318.7 70.4273C315.2 67.9273 311.6 65.1273 307.6 63.6273C295.9 59.2273 283.7 57.6273 271.2 58.3273C259.6 59.0273 248.1 60.1273 236.5 61.1273C234.9 61.2273 233.2 61.9273 231.7 62.7273C224.6 66.7273 217.9 71.0273 211.9 76.6273C199.9 87.6273 192.3 101.427 185.4 115.727C184.7 117.027 184.8 118.727 184.5 120.627C185.5 120.327 185.7 120.327 185.9 120.227C186.8 119.427 187.6 118.627 188.4 117.727C193.7 111.927 200 108.527 208.1 108.927C212.1 109.127 216.1 108.927 220.2 108.927C234.9 108.927 249.6 108.927 264.3 109.027C272 109.127 279.6 109.527 287.3 109.627C293.9 109.727 300.5 108.827 307 111.027C313.3 113.127 320.1 114.227 325.1 119.227C331.1 125.327 337.4 131.127 342.8 137.727C344.9 140.227 345.7 144.427 345.8 147.827C345.9 152.627 341.7 155.127 336.8 154.227C335 153.927 333 153.427 331.4 154.027C323.3 157.227 315.4 160.927 307.3 164.027C302.4 165.927 297.7 168.027 293.9 171.827C291.3 174.427 288.6 177.427 285.3 178.927C278.8 181.927 271.9 184.227 265 186.427C254.9 189.627 244.9 193.327 234.3 194.627C226.2 195.627 218.1 197.327 209.9 196.127C205.5 195.527 201.2 194.327 196.9 193.227C193.5 192.327 190.3 190.827 187 189.827C184.5 189.027 181.8 188.627 178.6 187.827C175.7 189.727 174.9 192.427 177.5 194.727C184.5 200.827 192.2 205.427 201.9 204.727C212.2 204.027 222.5 203.527 232.8 202.627C245.3 201.527 257.9 200.527 270.3 198.827C278.2 197.727 285.5 194.727 291.7 189.527C296.4 185.527 300.7 181.027 305.3 176.927C306.5 175.827 308 174.627 309.5 174.127C310.5 173.827 311.9 174.727 313.1 175.127C312.7 176.227 312.6 177.627 311.9 178.227C308.5 181.227 304.5 183.727 301.4 187.027C293.4 195.427 284.1 201.527 272.6 203.527C265.3 204.827 257.8 205.527 250.4 206.227C238.2 207.327 226 208.127 213.8 208.927C208.8 209.327 203.7 209.527 198.1 209.827C200.2 212.127 202 213.827 203.6 215.827C208.4 221.827 214.2 226.627 220.8 230.327C224.6 232.427 229 233.827 233.3 234.927C243 237.427 251.4 244.127 262 244.027C262.7 244.027 263.8 245.627 264 246.727C264.1 247.227 262.5 248.627 261.8 248.627C258.4 248.427 254.9 248.327 251.8 247.227C244.1 244.727 236.7 241.427 229 238.927C222.8 236.927 216.6 234.727 211.8 230.227C205.7 224.627 200.1 218.427 194.1 212.727C191.4 210.127 188.2 207.927 185.1 205.827C181.8 203.527 178.3 201.527 175.1 199.127C168.9 194.527 170.6 186.027 177.2 183.027C177.9 182.727 178.8 182.227 179 181.527C181.1 176.127 183.3 170.727 185.2 165.127C189.1 153.627 197 146.227 208 141.627C215.8 138.427 223.2 134.627 230.1 129.627C235.9 125.327 242.4 121.927 249.5 121.027C268.2 118.727 286.7 120.927 304.8 126.027C309.7 127.427 314.4 129.427 318.9 131.727C325 134.927 329 140.427 332.7 146.027C334.1 148.127 335.8 149.427 338.4 149.627C340.2 149.827 341.3 148.927 341 147.327C340.5 144.827 339.9 141.927 338.4 140.027C335.3 136.127 331.5 132.827 328.2 129.027C317.9 117.327 304.6 113.927 289.7 114.627C283.2 114.927 276.7 114.427 270.2 114.327C259 114.127 247.7 112.027 236.8 116.727C234.7 117.627 232.4 118.427 230.2 119.127C220 122.227 211.4 127.427 204.1 135.627C197.7 142.827 190.1 148.927 182.9 155.427C177 160.727 173.9 167.427 173.2 175.227C173.1 176.827 172.8 178.327 170.7 178.227C168.5 178.127 168.5 176.527 168.7 174.927C169.3 170.927 170 166.927 170.7 162.927C167.6 163.627 166.8 163.127 166.8 159.827C166.8 156.527 166.7 153.227 167 149.927C167.5 144.127 168.6 138.527 172.6 133.927C174.9 131.327 177.5 128.827 179.7 126.127C180.4 125.227 180.4 123.827 180.5 122.527C180.8 119.527 180.1 116.027 181.4 113.627C186.2 104.427 191.4 95.3273 196.9 86.5273C199.4 82.5273 202.9 79.2273 206.1 75.5273C202.6 74.4273 199.2 73.3273 195.8 72.3273C182.8 68.4273 169.5 66.8273 156 68.9273C147.3 70.3273 138.7 72.6273 130.4 75.3273C125.3 77.0273 120.6 80.0273 115.9 82.7273C104.8 89.2273 94.3997 96.5273 86.9997 107.427C86.0997 108.727 85.3997 110.227 84.2997 112.227C89.0997 111.827 93.0997 111.027 97.0997 111.127C105 111.327 112.9 111.827 120.7 112.527C126.2 113.027 131.3 114.627 136.1 117.527C137.7 118.527 139.3 119.727 137.9 121.427C137.3 122.127 135.1 122.027 133.8 121.627C130.6 120.627 127.5 118.727 124.3 118.227C113 116.227 101.7 116.027 90.1997 116.527C78.8997 117.027 70.8997 122.927 62.7997 129.327C62.1997 129.527 61.5997 129.827 60.9997 130.027C61.2997 130.327 61.6997 130.727 61.9997 131.027C61.9997 130.127 62.4997 129.727 62.9997 129.327ZM56.1997 235.027C54.7997 237.727 53.4997 240.427 51.8997 243.027C48.5997 248.327 49.4997 253.427 53.0997 257.927C58.2997 264.527 63.5997 271.027 69.3997 277.127C73.9997 281.927 79.1997 286.327 84.4997 290.427C86.9997 292.327 90.2997 294.027 93.3997 294.327C105.4 295.327 117.4 295.927 129.4 296.327C133.5 296.427 137.6 295.327 141.8 295.327C148.2 295.227 154.6 295.927 160.9 295.727C168.6 295.427 176.4 294.727 184.1 293.827C192.7 292.727 201.3 291.227 209.9 289.927C217.6 288.727 225.3 287.127 233.1 286.327C238.3 285.727 243.8 286.727 249 286.027C258 284.827 267.2 283.627 275.9 281.127C289.8 277.227 303.5 272.627 317 267.627C321.9 265.827 326 262.127 330.6 259.427C331.7 258.827 333.2 259.027 334.6 258.827C334.2 260.227 334.3 262.127 333.4 262.927C328.5 267.027 323.5 270.927 317.2 272.827C306.5 276.027 295.9 279.427 285.3 283.127C271.9 287.827 258.2 290.627 243.9 290.827C235.2 290.927 226.3 291.027 217.9 293.127C198.3 298.127 178.3 299.927 158.2 300.827C154.9 300.927 151.6 300.327 148.3 300.427C140.8 300.527 133.4 301.127 125.9 300.927C116 300.727 106.1 299.927 96.1997 299.727C89.8997 299.527 84.5997 297.427 79.9997 293.327C75.8997 289.727 71.5997 286.327 67.4997 282.827C62.3997 288.227 63.6997 294.427 67.0997 298.727C69.0997 301.227 71.2997 303.527 72.9997 306.127C80.6997 317.527 91.0997 323.827 105.1 323.527C113.3 323.327 121.5 322.827 129.7 323.027C142.2 323.327 154.8 324.527 167.3 324.727C176.7 324.827 186 324.027 195.4 323.527C203.3 323.127 211.1 324.127 219 321.227C225 319.027 231.7 319.127 238.2 318.327C246.5 317.227 254.9 316.227 262.6 312.527C272.4 307.927 282.3 303.327 291.9 298.527C302.9 293.027 313.9 287.427 324.6 281.427C331.6 277.527 338.5 273.127 345.1 268.527C351.2 264.327 352.7 259.727 350.9 253.427C349.8 249.627 348.1 248.027 344.2 248.627C339.2 249.327 334.2 250.327 329.3 251.727C320.3 254.327 311.6 257.727 302.5 260.027C293.4 262.327 284 263.627 274.7 265.527C262.6 268.127 250.5 271.127 238.3 273.527C229.4 275.227 220.5 276.227 211.5 277.327C200.2 278.727 189 280.627 177.5 279.927C176.9 279.927 176.2 279.927 175.6 280.027C159.8 281.127 144 282.227 128.2 283.127C123.2 283.427 118.2 282.827 113.2 282.427C108.3 282.127 103.4 281.927 98.5997 281.127C93.6997 280.227 88.6997 279.127 84.2997 277.027C73.5997 271.927 67.2997 262.427 62.2997 252.127C59.9997 246.627 58.3997 240.827 56.1997 235.027ZM118.4 73.4273C128 70.5273 136.5 67.5273 145.1 65.3273C160.1 61.6273 175.3 62.0273 190.4 65.4273C195.5 66.5273 200.4 68.4273 205.4 69.7273C207.3 70.2273 209.9 70.6273 211.4 69.7273C217.1 66.3273 222.6 62.3273 228 58.4273C229 57.7273 229.8 56.4273 230 55.2273C230.9 49.3273 232.3 43.7273 235.4 38.6273C236.8 36.3273 236.3 35.3273 234.2 33.8273C229.3 30.3273 224.4 26.7273 219.9 22.7273C215.5 18.8273 210.6 15.8273 204.9 15.5273C195.9 15.1273 186.8 15.5273 177.8 15.7273C176 15.7273 174 15.6273 172.4 16.3273C159.9 22.1273 146.9 27.1273 139.3 40.0273C132.8 51.4273 125.6 62.2273 118.4 73.4273ZM329 149.227C323.9 141.127 318 135.127 309.1 131.927C295.4 126.927 281.2 125.427 266.9 124.627C259.7 124.227 252.4 123.927 245.4 126.427C242.8 127.327 240.2 128.327 237.8 129.727C230 134.427 222.4 139.227 214.7 144.027C219.7 144.327 224.9 145.027 230.1 145.027C240.2 145.127 250.3 144.427 260.4 144.727C274.6 145.227 288.9 146.127 303.1 147.227C308.6 147.627 314.3 148.527 319.2 150.627C323.2 152.527 325.6 150.727 329 149.227ZM229.6 149.627C221 149.427 212.7 149.227 204.3 149.027C203.5 149.027 202.5 149.127 201.9 149.627C197.7 152.727 193.7 156.227 191.6 161.127C189.1 167.027 186.7 173.127 184.5 179.127C184 180.627 184 182.227 183.8 183.827C184 183.527 184.3 183.227 184.5 183.027C199.5 189.127 214.7 193.627 230.7 189.127C229.3 186.527 227.5 184.127 226.7 181.427C223.1 170.727 220.7 159.927 229.6 149.627ZM170.8 161.527C174.1 157.827 176.7 154.327 179.8 151.327C186.7 144.627 194.2 138.327 200.9 131.327C207 125.027 213.3 119.427 221.8 116.627C224.1 115.827 226.4 114.927 229.2 113.727C228.2 113.227 228 113.027 227.7 113.027C220.8 113.027 213.8 113.027 206.9 113.127C201.1 113.227 196.3 115.727 192.3 120.027C187.7 125.027 182.8 129.827 177.9 134.427C175 137.227 172.9 140.427 172.3 144.227C171.6 149.927 171.3 155.527 170.8 161.527ZM63.5997 161.727C63.7997 161.827 64.0997 162.027 64.2997 162.127C65.3997 161.527 66.4997 160.927 67.5997 160.327C73.4997 157.427 79.3997 154.527 85.3997 151.727C88.2997 150.427 91.1997 148.727 94.1997 148.327C101.8 147.327 109.4 146.927 117.1 146.327C121.7 146.027 126.3 145.827 130.9 145.627C131 145.327 131.1 145.127 131.1 144.827C127.1 142.527 123.2 139.127 118.9 138.327C107.9 136.227 96.6997 136.027 85.5997 138.227C81.2997 139.127 77.3997 140.427 74.7997 144.727C71.8997 149.427 68.1997 153.527 64.8997 158.027C64.1997 159.027 64.0997 160.427 63.5997 161.727ZM98.2997 152.627C97.1997 152.727 96.4997 152.627 95.9997 152.927C92.0997 154.727 88.1997 156.627 84.2997 158.427C78.8997 160.927 73.4997 163.227 68.0997 165.827C65.4997 167.027 65.3997 168.427 67.2997 170.527C69.1997 172.627 71.1997 174.727 73.0997 176.927C79.4997 184.227 87.7997 187.127 97.5997 187.627C88.3997 175.727 90.0997 164.327 98.2997 152.627ZM149.6 401.627C145.6 399.627 141.6 398.227 138.2 395.827C132.1 391.727 126.5 387.027 120.6 382.527C117.4 380.127 113.9 378.727 109.1 380.027C120.1 394.627 133.6 405.827 147.3 417.927C148.1 411.927 148.9 406.527 149.6 401.627ZM144.6 422.327C137.9 416.227 131.2 410.327 124.8 404.127C118 397.527 110.7 391.427 105.8 383.127C104.7 381.227 103.5 380.627 101.4 381.627C99.2997 382.627 98.8997 384.327 99.7997 386.127C103.1 392.827 107.7 398.727 113.6 403.227C116.1 405.127 119.5 405.927 121.9 407.827C129 413.627 133.8 421.227 137.1 431.227C139.9 428.127 142.2 425.227 144.6 422.327ZM316 154.827C316 154.527 316 154.227 316 153.927C304.5 152.527 293.1 151.227 282 149.927C285.3 155.527 288.6 160.927 291.7 166.227C298 159.827 308 159.427 316 154.827ZM245 174.627C248.3 175.527 250.2 173.527 251.6 170.827C252.9 168.327 252.5 165.427 250.4 163.827C248.1 162.027 245.1 160.027 242.4 160.027C236.3 160.127 233.2 163.827 236.3 170.327C238 173.827 241 175.127 245 174.627ZM144.7 158.727C144.5 158.827 144.2 159.027 144 159.127C147.4 167.827 150.5 176.527 147.3 186.227C150.7 185.327 153.7 184.627 156.6 183.927C158.7 183.427 159.8 182.327 158.9 180.027C158.1 177.927 157.8 175.427 156.5 173.627C152.8 168.427 148.7 163.627 144.7 158.727ZM101.2 169.827C101.2 174.227 103.1 176.427 107 176.427C111.4 176.427 113.5 174.327 113.5 170.127C113.5 166.727 111.4 163.627 109.2 163.627C103.6 163.527 101.3 165.327 101.2 169.827ZM270.4 161.227C272.9 161.427 274 159.927 274.3 157.827C274.6 155.927 272.2 153.327 270.3 153.627C268.3 153.927 266.3 154.727 266.3 157.327C266.4 159.927 268 161.127 270.4 161.227ZM134.7 162.927C134.1 160.027 133.5 157.727 131 158.027C129.7 158.227 127.5 160.527 127.8 161.327C128.2 162.927 129.8 164.527 131.4 165.327C132 165.627 133.7 163.627 134.7 162.927ZM267.8 174.627C270.3 174.527 271.7 173.527 271.7 171.127C271.7 168.627 269.8 167.627 267.7 167.427C265.7 167.227 264.6 168.427 264.6 170.527C264.6 172.927 265.6 174.427 267.8 174.627ZM130.4 180.027C132.6 179.927 133.4 178.627 133.4 176.727C133.3 174.627 132.1 173.827 130 173.927C127.9 174.027 127.2 175.027 127.3 176.927C127.3 179.027 128.2 180.127 130.4 180.027Z" fill="#030602"/>
<path d="M62.3001 128.727C70.4001 122.327 78.5001 116.427 89.7001 115.927C101.2 115.427 112.5 115.627 123.8 117.627C127.1 118.227 130.1 120.127 133.3 121.027C134.6 121.427 136.8 121.527 137.4 120.827C138.8 119.027 137.2 117.827 135.6 116.927C130.9 114.027 125.7 112.427 120.2 111.927C112.3 111.227 104.5 110.727 96.6001 110.527C92.6001 110.427 88.6001 111.227 83.8001 111.627C84.9001 109.627 85.6001 108.227 86.5001 106.827C93.9001 95.9273 104.3 88.6273 115.4 82.1273C120.1 79.4273 124.8 76.3273 129.9 74.7273C138.3 72.0273 146.9 69.7273 155.5 68.3273C168.9 66.2273 182.3 67.8273 195.3 71.7273C198.7 72.7273 202.1 73.8273 205.6 74.9273C202.5 78.6273 198.9 81.9273 196.4 85.9273C190.9 94.7273 185.7 103.827 180.9 113.027C179.6 115.527 180.3 118.927 180 121.927C179.9 123.127 179.8 124.627 179.2 125.527C177 128.227 174.5 130.727 172.1 133.327C168.1 137.927 167 143.527 166.5 149.327C166.2 152.627 166.3 155.927 166.3 159.227C166.3 162.427 167.2 163.027 170.2 162.327C169.5 166.227 168.8 170.327 168.2 174.327C168 175.827 168 177.427 170.2 177.627C172.3 177.727 172.5 176.227 172.7 174.627C173.4 166.827 176.5 160.127 182.4 154.827C189.6 148.327 197.2 142.127 203.6 135.027C210.9 126.927 219.5 121.727 229.7 118.527C231.9 117.827 234.1 117.027 236.3 116.127C247.1 111.527 258.5 113.527 269.7 113.727C276.2 113.827 282.7 114.327 289.2 114.027C304.2 113.327 317.4 116.627 327.7 128.427C331 132.227 334.8 135.527 337.9 139.427C339.4 141.327 339.9 144.227 340.5 146.727C340.8 148.327 339.7 149.227 337.9 149.027C335.4 148.727 333.6 147.527 332.2 145.427C328.4 139.827 324.5 134.227 318.4 131.127C313.9 128.827 309.1 126.827 304.3 125.427C286.2 120.327 267.7 118.127 249 120.427C241.9 121.327 235.4 124.727 229.6 129.027C222.8 134.027 215.3 137.827 207.5 141.027C196.5 145.627 188.6 153.127 184.7 164.527C182.8 170.027 180.7 175.427 178.5 180.927C178.2 181.527 177.4 182.127 176.7 182.427C170.1 185.427 168.4 193.927 174.6 198.527C177.8 200.927 181.4 202.927 184.6 205.227C187.7 207.427 190.8 209.627 193.6 212.127C199.6 217.827 205.2 223.927 211.3 229.627C216.1 234.127 222.3 236.327 228.5 238.327C236.2 240.827 243.6 244.127 251.3 246.627C254.5 247.627 258 247.827 261.3 248.027C262 248.127 263.6 246.627 263.5 246.127C263.3 245.127 262.2 243.427 261.5 243.427C250.9 243.527 242.5 236.927 232.8 234.327C228.5 233.227 224.1 231.827 220.3 229.727C213.7 226.027 207.9 221.227 203.1 215.227C201.5 213.227 199.7 211.527 197.6 209.227C203.2 208.927 208.2 208.727 213.3 208.327C225.5 207.427 237.7 206.627 249.9 205.627C257.3 205.027 264.8 204.227 272.1 202.927C283.6 200.927 292.9 194.827 300.9 186.427C304 183.127 308 180.627 311.4 177.627C312.1 176.927 312.2 175.527 312.6 174.527C311.4 174.127 310 173.227 309 173.527C307.4 174.027 306 175.227 304.8 176.327C300.2 180.527 295.9 184.927 291.2 188.927C285.1 194.127 277.7 197.227 269.8 198.227C257.4 199.927 244.8 200.927 232.3 202.027C222 202.927 211.7 203.427 201.4 204.127C191.6 204.727 183.9 200.227 177 194.127C174.3 191.827 175.2 189.127 178.1 187.227C181.3 187.927 184 188.427 186.5 189.227C189.8 190.227 193.1 191.727 196.4 192.627C200.7 193.827 205 194.927 209.4 195.527C217.6 196.727 225.7 195.027 233.8 194.027C244.5 192.727 254.4 189.027 264.5 185.827C271.4 183.627 278.3 181.327 284.8 178.327C288.1 176.827 290.8 173.927 293.4 171.227C297.2 167.427 301.9 165.327 306.8 163.427C314.9 160.327 322.8 156.627 330.9 153.427C332.4 152.827 334.5 153.327 336.3 153.627C341.2 154.527 345.5 152.027 345.3 147.227C345.2 143.827 344.4 139.627 342.3 137.127C336.9 130.627 330.6 124.727 324.6 118.627C319.6 113.527 312.8 112.527 306.5 110.427C300.1 108.327 293.4 109.127 286.8 109.027C279.1 108.927 271.5 108.527 263.8 108.427C249.1 108.327 234.4 108.327 219.7 108.327C215.7 108.327 211.6 108.527 207.6 108.327C199.5 107.927 193.2 111.327 187.9 117.127C187.1 118.027 186.2 118.827 185.4 119.627C185.3 119.727 185 119.727 184 120.027C184.3 118.227 184.2 116.527 184.9 115.127C191.9 100.827 199.5 87.0273 211.4 76.0273C217.4 70.4273 224.1 66.1273 231.2 62.1273C232.7 61.3273 234.4 60.6273 236 60.5273C247.6 59.5273 259.1 58.4273 270.7 57.7273C283.1 57.0273 295.4 58.7273 307.1 63.0273C311.1 64.5273 314.7 67.3273 318.2 69.8273C322.5 72.9273 326.5 76.4273 330.7 79.7273C331.5 80.3273 332.6 80.8273 333.6 80.9273C334.3 81.0273 335.5 80.4273 335.7 79.9273C336 79.2273 335.5 78.2273 335.4 77.3273C335.4 77.1273 335.1 77.0273 335 76.8273C328.8 71.9273 322.8 66.9273 316.5 62.2273C310.4 57.6273 302.9 56.1273 295.6 54.7273C278.2 51.4273 260.8 52.5273 243.4 55.1273C243 55.2273 242.6 55.2273 242.1 55.2273C239.8 55.4273 237.5 55.5273 234.4 55.8273C235.2 52.6273 235.6 49.7273 236.6 47.0273C240.8 35.8273 247.6 26.7273 257.9 20.3273C265.4 15.6273 273.6 13.9273 282.1 13.0273C287 12.5273 291.9 11.6273 296.7 11.9273C307.2 12.4273 317.7 13.1273 328.2 14.4273C331.8 14.9273 335.1 17.5273 338.6 19.1273C348.6 23.7273 355.7 31.3273 361.2 40.5273C364.2 45.5273 366.9 50.7273 370 55.7273C371.4 58.0273 373.1 60.2273 374.9 62.4273C379.1 67.5273 383.3 72.5273 387.6 77.6273C389.9 80.3273 392.1 83.3273 394.7 85.7273C400.3 90.9273 404.5 97.1273 408.4 103.627C412.6 110.527 417.2 117.227 421.1 124.227C429 138.527 436.6 153.027 444.2 167.527C449.5 177.527 454.9 187.527 459.6 197.727C465.3 209.927 470.6 222.327 474.5 235.327C477.5 245.227 480.4 255.027 482 265.227C483.5 275.627 484.6 286.027 486.1 296.427C487.2 303.527 488.8 310.627 489.9 317.727C490.5 321.927 490.5 326.227 490.9 330.427C492.1 341.727 493.3 352.927 494.8 364.227C495.9 373.127 494.9 381.727 493.3 390.427C491.5 400.027 488.2 409.027 484.1 417.727C478.3 429.927 469 438.927 457.1 445.227C449.7 449.127 442.3 453.227 434.6 456.427C427.5 459.327 419.9 461.227 412.5 463.527C412.3 463.627 412.1 463.627 411.9 463.627C402.2 467.727 391.7 468.127 381.5 470.327C376.8 471.327 371.8 471.727 367 471.927C350.5 472.627 334 473.427 317.6 473.627C311.1 473.727 304.5 472.127 298 471.527C293 471.027 288 470.627 283.1 470.627C271.2 470.527 259.4 470.727 247.5 470.527C238.4 470.427 229.1 470.527 220.1 469.327C213 468.327 206.1 465.427 199.1 463.327C197 462.727 195 461.727 192.9 461.027C190 460.027 187.6 458.427 186 455.727C183.8 452.127 180.5 448.727 179.3 444.827C178.1 440.827 179.1 436.227 178.9 431.827C178.8 427.427 180.3 423.727 182.7 419.927C187.1 413.027 192.3 407.027 197.8 401.027C200.8 397.727 203.1 393.027 203.7 388.627C204.8 380.927 196.9 372.727 188.9 371.827C182.6 371.127 177 372.527 173.4 377.427C169.6 375.027 165.8 373.127 162.5 370.527C156.7 365.927 151.1 361.027 145.5 356.027C138.9 350.227 132.1 344.927 123.9 341.427C120.6 340.027 117.3 338.527 113.9 337.527C107.3 335.627 101.6 337.527 96.6001 342.227C94.2001 344.527 91.5001 346.627 89.0001 348.827C78.1001 339.827 72.1001 325.327 76.1001 317.827C79.7001 320.027 83.2001 322.527 87.0001 324.327C93.0001 327.227 99.3001 328.427 106.2 327.727C119.4 326.427 132.6 327.727 145.8 328.327C157.7 328.827 169.6 328.427 181.6 328.327C189.5 328.227 197.4 328.127 205.2 327.727C209.2 327.527 213.2 326.827 217.2 326.227C225.2 324.927 233.1 323.327 241.1 322.327C251.2 321.027 260.8 318.527 269.9 313.627C278.9 308.827 288.4 305.027 297.6 300.527C302.9 297.927 308 294.827 313.3 292.027C320.6 288.127 328.2 284.727 335.3 280.527C341.1 277.027 346.7 273.027 351.7 268.427C358.6 262.127 357.5 252.027 352.1 245.627C349.8 242.827 346.2 242.627 342.9 243.227C335.8 244.727 328.8 246.327 321.8 248.327C312.2 251.027 302.7 254.427 293.1 256.827C285.6 258.727 277.8 259.627 270.2 261.127C258.8 263.427 247.6 266.427 236.2 268.327C224.8 270.327 213.3 271.727 201.7 272.827C189.2 274.027 176.7 274.727 164.1 275.427C150.1 276.227 136 277.127 122 277.227C111.8 277.327 101.6 276.927 91.6001 274.127C83.4001 271.827 77.2001 266.627 72.8001 259.627C69.3001 254.027 65.8001 248.327 63.5001 242.327C60.1001 233.427 60.3001 224.627 67.1001 216.827C69.9001 213.627 72.5001 210.327 75.3001 207.127C77.8001 209.727 79.8001 212.227 82.2001 214.227C87.9001 219.027 94.7001 218.127 101.4 217.627C102 217.627 103 215.927 102.8 215.327C102.5 214.427 101.3 213.427 100.5 213.327C97.3001 212.927 94.1001 212.927 90.9001 212.727C86.6001 212.527 83.7001 210.127 81.5001 206.227C86.3001 206.227 90.8001 206.227 95.3001 206.227C97.1001 206.227 99.1001 206.027 99.0001 203.827C98.9001 201.527 96.8001 201.227 94.9001 201.327C92.8001 201.427 90.6001 201.527 88.5001 201.727C82.5001 202.227 77.7001 199.827 73.6001 195.727C67.7001 189.727 63.3001 182.827 62.9001 173.127C64.6001 174.927 65.9001 176.027 66.9001 177.427C73.8001 186.627 83.2001 190.727 94.5001 192.227C106.7 193.827 118.8 192.127 130.9 192.127C139.4 192.027 147.9 191.127 156.1 188.827C163.5 186.727 166.1 182.927 161.8 173.427C159.6 168.527 155.5 164.427 152.1 160.027C148.5 155.427 145.1 150.527 140.7 146.827C134.9 141.927 128.4 137.727 121.8 133.827C119.3 132.427 115.8 132.727 112.8 132.227C102.7 130.727 92.6001 131.627 82.6001 133.327C75.6001 134.527 71.6001 139.327 68.1001 144.827C66.8001 146.927 65.3001 149.027 63.2001 150.927C63.2001 147.227 63.0001 143.427 63.3001 139.727C63.5001 137.527 63.9001 134.327 65.4001 133.427C69.5001 130.927 74.0001 128.227 78.6001 127.627C88.7001 126.227 99.0001 125.827 109.2 125.527C124.8 125.027 137.8 131.027 148.4 142.527C148.8 143.027 149.2 143.727 149.7 143.827C150.9 144.027 152.2 143.927 153.4 143.927C153.3 142.727 153.7 141.227 153.1 140.527C150 137.327 146.9 134.027 143.3 131.327C131.1 121.927 117 119.427 101.9 120.727C93.9001 121.427 85.8001 122.127 77.7001 122.727C72.0001 123.127 67.2001 125.827 62.5001 128.727C62.8001 129.127 62.5001 128.927 62.3001 128.727ZM133.3 211.127C130.2 214.627 126.7 218.427 123.4 222.427C120.3 226.327 117.3 230.327 114.6 234.527C114.1 235.327 115.1 237.027 115.4 238.327C116.5 237.827 117.9 237.727 118.5 236.927C122.7 231.727 127 226.627 130.9 221.227C136.6 213.527 144.4 208.727 152.9 204.827C153.9 204.327 155.1 203.827 155.8 202.927C156.4 202.127 156.5 200.827 156.7 199.727C155.6 199.527 154.3 198.827 153.3 199.127C149.7 200.327 146.2 202.027 142.6 203.127C134 205.927 125.2 207.327 116.2 205.227C114.3 204.827 112.4 204.027 111.6 206.427C110.8 208.927 113.2 209.327 114.7 210.127C115.1 210.327 115.7 210.327 116.3 210.427C122.1 210.627 127.8 210.927 133.3 211.127ZM330.6 233.027C329.7 233.027 328.7 232.727 328.1 233.127C326.9 233.827 325.9 234.927 324.8 235.927C325.9 236.627 327 237.727 328.2 237.927C333.3 238.527 338.5 238.827 343.7 239.327C352 240.127 358.6 243.827 363.1 251.127C363.7 252.027 365.6 253.027 366.5 252.727C368.5 252.027 368 250.227 367.1 248.727C364.6 244.027 360.8 240.727 356.3 238.227C348.3 233.727 339.4 233.527 330.6 233.027ZM337.8 216.127C337.7 216.427 337.7 216.627 337.6 216.927C337.1 216.927 336.5 216.827 336 216.827C334.4 216.927 332.3 216.227 332 218.627C331.6 221.427 333.8 221.127 335.5 221.527C340.4 222.527 345.4 223.527 350.3 224.727C352 225.127 353.7 226.227 354.7 224.127C355.7 222.027 354.3 220.627 352.4 220.027C347.5 218.627 342.6 217.427 337.8 216.127Z" fill="#3A953D"/>
<path d="M97.0999 393.527C91.7999 389.427 86.4999 385.327 81.2999 381.227C79.7999 380.027 78.0999 379.227 76.9999 381.227C76.5999 382.027 77.2999 384.127 78.0999 384.827C83.8999 389.627 89.6999 394.527 95.9999 398.727C101.9 402.727 108.1 406.227 114.6 409.227C118.9 411.227 122 414.227 124.7 417.727C126.5 419.927 127.7 422.627 129.5 424.927C132.1 428.127 131.6 431.327 129.7 434.427C126.4 439.627 122.3 444.127 116.8 446.927C112.8 448.927 108.5 449.627 104.1 448.327C103.3 448.127 102.3 447.127 102 446.327C98.7999 438.027 93.4999 431.127 87.9999 424.427C84.9999 420.827 80.5999 418.427 76.6999 415.627C76.0999 415.227 74.4999 415.527 73.9999 416.127C73.4999 416.727 73.5999 418.127 73.9999 418.927C74.2999 419.727 75.1999 420.427 75.9999 420.927C82.2999 424.227 86.5999 429.427 90.0999 435.327C92.7999 440.027 95.5999 444.627 97.9999 449.527C100.2 453.927 97.2999 459.327 92.4999 459.927C88.0999 460.527 83.6999 460.927 79.1999 461.227C76.3999 461.427 74.2999 460.227 72.6999 457.527C71.0999 454.827 68.4999 452.727 66.3999 450.427C61.4999 445.127 56.4999 439.827 51.5999 434.527C50.8999 433.727 50.1999 432.827 49.2999 432.327C48.2999 431.827 47.0999 431.927 45.9999 431.727C45.9999 433.027 45.5999 434.827 46.1999 435.627C49.3999 439.527 52.7999 443.227 56.1999 446.827C59.3999 450.127 62.5999 453.327 66.0999 456.327C69.7999 459.527 67.8999 462.927 66.8999 466.227C66.0999 468.927 63.6999 469.427 61.2999 469.627C56.0999 470.027 51.7999 469.027 48.2999 464.527C43.3999 458.227 37.9999 452.327 32.7999 446.327C31.7999 445.227 30.7999 444.027 29.4999 443.427C28.6999 443.027 27.0999 443.327 26.5999 443.927C26.0999 444.527 26.1999 446.227 26.6999 446.927C33.1999 454.627 39.7999 462.227 46.5999 469.627C50.2999 473.527 55.1999 474.827 60.5999 474.427C64.1999 474.127 67.6999 473.727 69.8999 470.427C70.9999 468.827 71.5999 466.827 72.4999 464.727C78.4999 467.627 84.6999 466.027 90.8999 465.627C98.0999 465.127 102.4 461.227 103.2 453.627C114.1 455.227 122.1 450.527 129.3 443.027C133.8 438.327 139.4 434.627 144.4 430.227C150.1 425.127 153.1 418.927 153.1 411.127C153.1 408.227 154.2 405.327 155.1 402.527C155.3 401.827 156.8 401.227 157.8 401.127C162.2 400.627 166.4 399.727 169.9 396.927C173.1 394.427 174.7 391.027 174.9 387.027C175.3 379.727 184.7 374.527 190.7 377.827C192.6 378.927 194.6 380.027 196.4 381.427C199.4 383.727 200.6 387.527 198.8 391.127C197 394.827 194.7 398.327 191.9 401.327C188.1 405.427 183.8 409.127 181.4 414.527C181 415.527 180.4 416.427 179.6 417.127C174.4 422.527 173.9 429.127 174.6 436.227C175.3 443.927 174.4 451.427 170.6 458.227C169.7 459.927 167.6 461.027 165.8 462.227C156.9 468.127 148 473.827 139.1 479.727C132.6 484.027 125.2 485.527 117.7 486.527C104.2 488.327 90.4999 488.027 76.9999 489.127C65.0999 490.127 53.6999 489.127 42.3999 485.527C35.6999 483.327 28.7999 481.527 22.2999 478.727C16.9999 476.427 12.1999 472.927 7.29988 469.827C4.39988 467.927 3.09988 463.727 4.39988 460.527C8.19988 451.227 11.7999 441.827 16.1999 432.827C19.6999 425.627 23.4999 418.427 28.4999 412.227C39.8999 398.127 50.1999 382.827 66.7999 373.827C71.2999 371.427 75.5999 368.627 80.1999 366.527C84.4999 364.527 86.6999 360.827 89.2999 357.427C90.5999 355.727 91.7999 354.027 93.2999 352.627C95.0999 350.827 97.2999 349.427 99.0999 347.627C105.5 341.327 110.1 341.627 118.9 345.127C131.6 350.227 141.6 359.127 151.2 368.627C152.3 369.627 153.4 370.627 154.6 371.627C152.2 373.627 149.6 375.427 147.5 377.627C143.2 382.127 143.3 385.327 147.3 389.827C148.6 391.227 149.9 392.727 151.5 393.727C152.4 394.227 153.9 393.727 155.2 393.727C155 392.527 155 391.127 154.4 390.127C153.9 389.227 152.6 388.627 151.8 387.827C148.5 384.627 148.5 382.527 152 379.727C153.9 378.227 156.2 377.127 158.3 375.927C158.7 375.727 159.3 375.627 159.8 375.627C166.4 376.127 171.4 383.627 169.4 389.827C168.3 393.327 165.5 394.727 162.3 395.527C153.5 397.827 145.3 396.927 138 390.727C133.1 386.527 127.7 382.827 122.6 378.827C117.7 375.127 112.2 374.827 106.5 375.827C101.8 376.727 97.0999 377.927 93.4999 381.427C92.7999 382.127 92.1999 383.927 92.5999 384.727C93.9999 387.727 95.7999 390.527 97.4999 393.327C97.4999 393.027 97.2999 393.227 97.0999 393.527Z" fill="#3A953D"/>
<path d="M56.1995 235.027C58.2995 240.827 59.8995 246.627 62.4995 251.827C67.4995 262.127 73.7995 271.527 84.4995 276.727C88.8995 278.827 93.8995 279.927 98.7995 280.827C103.599 281.727 108.499 281.827 113.399 282.127C118.399 282.427 123.399 283.027 128.399 282.827C144.199 282.027 159.999 280.827 175.799 279.727C176.399 279.727 177.099 279.627 177.699 279.627C189.199 280.327 200.399 278.327 211.699 277.027C220.699 275.927 229.599 274.927 238.499 273.227C250.699 270.927 262.699 267.827 274.899 265.227C284.099 263.227 293.499 262.027 302.699 259.727C311.699 257.427 320.499 254.027 329.499 251.427C334.399 250.027 339.399 249.027 344.399 248.327C348.299 247.827 349.999 249.327 351.099 253.127C352.899 259.427 351.399 264.027 345.299 268.227C338.699 272.827 331.899 277.227 324.799 281.127C313.999 287.127 303.099 292.727 292.099 298.227C282.399 303.127 272.599 307.627 262.799 312.227C255.099 315.827 246.699 316.927 238.399 318.027C231.999 318.827 225.199 318.727 219.199 320.927C211.299 323.827 203.499 322.827 195.599 323.227C186.199 323.627 176.899 324.527 167.499 324.427C154.999 324.227 142.399 323.127 129.899 322.727C121.699 322.527 113.499 323.127 105.299 323.227C91.2995 323.527 80.8995 317.227 73.1995 305.827C71.3995 303.227 69.1995 300.927 67.2995 298.427C63.8995 294.127 62.5995 287.927 67.6995 282.527C71.8995 286.027 76.0995 289.427 80.1995 293.027C84.8995 297.127 90.0995 299.327 96.3995 299.427C106.299 299.727 116.199 300.527 126.099 300.627C133.499 300.727 140.999 300.227 148.499 300.127C151.799 300.127 155.099 300.727 158.399 300.527C178.499 299.627 198.399 297.827 218.099 292.827C226.399 290.727 235.399 290.627 244.099 290.527C258.399 290.327 272.099 287.527 285.499 282.827C295.999 279.127 306.699 275.727 317.399 272.527C323.699 270.627 328.699 266.727 333.599 262.627C334.499 261.827 334.399 259.927 334.799 258.527C333.499 258.727 331.899 258.527 330.799 259.127C326.199 261.727 322.099 265.527 317.199 267.327C303.699 272.327 289.999 276.927 276.099 280.827C267.399 283.327 258.199 284.527 249.199 285.727C243.999 286.427 238.599 285.427 233.299 286.027C225.499 286.827 217.799 288.427 210.099 289.627C201.499 291.027 192.899 292.527 184.299 293.527C176.599 294.427 168.899 295.127 161.099 295.427C154.699 295.627 148.299 294.927 141.999 295.027C137.899 295.027 133.699 296.227 129.599 296.027C117.599 295.627 105.599 295.027 93.5995 294.027C90.4995 293.727 87.1995 292.127 84.6995 290.127C79.3995 286.027 74.1995 281.727 69.5995 276.827C63.7995 270.727 58.4995 264.227 53.2995 257.627C49.7995 253.127 48.8995 248.027 52.0995 242.727C53.4995 240.427 54.7995 237.627 56.1995 235.027Z" fill="#176715"/>
<path d="M118.399 73.4273C125.599 62.1273 132.799 51.4273 139.299 40.2273C146.899 27.3273 159.899 22.2273 172.399 16.5273C173.999 15.8273 175.999 15.9273 177.799 15.9273C186.799 15.7273 195.899 15.3273 204.899 15.7273C210.599 16.0273 215.499 19.0273 219.899 22.9273C224.399 26.9273 229.299 30.5273 234.199 34.0273C236.299 35.5273 236.799 36.5273 235.399 38.8273C232.299 43.9273 230.899 49.5273 229.999 55.4273C229.799 56.5273 228.999 57.9273 227.999 58.6273C222.499 62.5273 217.099 66.4273 211.399 69.9273C209.899 70.8273 207.299 70.3273 205.399 69.9273C200.299 68.6273 195.399 66.8273 190.399 65.6273C175.299 62.2273 160.199 61.8273 145.099 65.5273C136.499 67.5273 127.999 70.5273 118.399 73.4273Z" fill="#3A953D"/>
<path d="M329 149.227C325.6 150.727 323.2 152.527 319.1 150.727C314.2 148.627 308.5 147.727 303 147.327C288.8 146.127 274.6 145.227 260.3 144.827C250.2 144.527 240.1 145.127 230 145.127C224.8 145.127 219.6 144.427 214.6 144.127C222.3 139.327 229.9 134.527 237.7 129.827C240 128.427 242.7 127.527 245.3 126.527C252.3 124.027 259.6 124.327 266.8 124.727C281.1 125.527 295.3 127.127 309 132.027C317.9 135.127 323.9 141.127 329 149.227Z" fill="#3A953D"/>
<path d="M229.6 149.627C220.8 159.827 223.2 170.627 226.7 181.427C227.6 184.127 229.3 186.427 230.7 189.127C214.7 193.627 199.5 189.127 184.5 183.027C184.3 183.327 184 183.627 183.8 183.827C184 182.227 184 180.527 184.5 179.127C186.8 173.127 189.1 167.027 191.6 161.127C193.7 156.227 197.6 152.727 201.9 149.627C202.5 149.227 203.5 149.027 204.3 149.027C212.6 149.227 221 149.427 229.6 149.627Z" fill="#FEFEFE"/>
<path d="M170.8 161.527C171.3 155.627 171.6 150.027 172.4 144.427C173 140.627 175 137.327 178 134.627C182.9 129.927 187.8 125.127 192.4 120.227C196.4 115.927 201.2 113.527 207 113.327C213.9 113.127 220.9 113.227 227.8 113.227C228.1 113.227 228.3 113.427 229.3 113.927C226.4 115.027 224.2 116.027 221.9 116.827C213.4 119.627 207.1 125.227 201 131.527C194.3 138.427 186.8 144.727 179.9 151.527C176.7 154.327 174 157.727 170.8 161.527Z" fill="#3A953D"/>
<path d="M63.5996 161.727C63.9996 160.527 64.1996 159.027 64.8996 158.027C68.0996 153.527 71.8996 149.427 74.7996 144.727C77.3996 140.427 81.3996 139.127 85.5996 138.227C96.6996 136.027 107.9 136.227 118.9 138.327C123.2 139.127 127 142.627 131.1 144.827C131 145.127 130.9 145.327 130.9 145.627C126.3 145.827 121.7 146.027 117.1 146.327C109.5 146.927 101.8 147.327 94.1996 148.327C91.1996 148.727 88.1996 150.427 85.3996 151.727C79.3996 154.527 73.4996 157.427 67.5996 160.327C66.4996 160.827 65.3996 161.527 64.2996 162.127C64.0996 161.927 63.8996 161.827 63.5996 161.727Z" fill="#3A953D"/>
<path d="M98.2997 152.627C90.0997 164.327 88.4997 175.727 97.5997 187.527C87.7997 187.127 79.4997 184.127 73.0997 176.827C71.1997 174.627 69.1997 172.627 67.2997 170.427C65.3997 168.327 65.5997 167.027 68.0997 165.727C73.3997 163.127 78.8997 160.827 84.2997 158.327C88.1997 156.527 92.0997 154.627 95.9997 152.827C96.4997 152.627 97.1997 152.727 98.2997 152.627Z" fill="#FEFEFE"/>
<path d="M149.6 401.627C148.9 406.527 148.2 411.927 147.3 418.027C133.6 405.927 120.1 394.627 109.1 380.127C113.9 378.827 117.3 380.227 120.6 382.627C126.4 387.027 132.1 391.727 138.2 395.927C141.6 398.227 145.6 399.627 149.6 401.627Z" fill="#3A953D"/>
<path d="M144.6 422.327C142.2 425.227 139.8 428.027 137.1 431.327C133.8 421.227 129 413.727 121.9 407.927C119.5 405.927 116.1 405.227 113.6 403.327C107.7 398.727 103.1 392.927 99.7995 386.227C98.8995 384.427 99.1995 382.727 101.4 381.727C103.4 380.727 104.7 381.327 105.8 383.227C110.7 391.527 118 397.627 124.8 404.227C131.3 410.327 138 416.227 144.6 422.327Z" fill="#FEFEFE"/>
<path d="M316 154.827C308 159.327 298 159.827 291.6 166.227C288.5 160.927 285.2 155.527 281.9 149.927C293 151.227 304.5 152.627 315.9 153.927C316 154.227 316 154.527 316 154.827Z" fill="#FEFEFE"/>
<path d="M245 174.627C241 175.127 238 173.827 236.3 170.327C233.2 163.827 236.3 160.227 242.4 160.027C245.1 159.927 248.1 162.027 250.4 163.827C252.4 165.427 252.9 168.327 251.6 170.827C250.3 173.527 248.3 175.527 245 174.627Z" fill="#FEFEFE"/>
<path d="M144.7 158.727C148.6 163.627 152.7 168.527 156.4 173.627C157.7 175.427 158 177.927 158.8 180.027C159.7 182.327 158.6 183.427 156.5 183.927C153.6 184.727 150.6 185.427 147.2 186.227C150.5 176.527 147.4 167.827 143.9 159.127C144.3 158.927 144.5 158.827 144.7 158.727Z" fill="#FEFEFE"/>
<path d="M101.199 169.827C101.199 165.327 103.499 163.527 109.099 163.627C111.399 163.627 113.399 166.727 113.399 170.127C113.499 174.327 111.299 176.427 106.899 176.427C103.099 176.427 101.199 174.227 101.199 169.827Z" fill="#FEFEFE"/>
<path d="M270.4 161.227C268 161.127 266.4 159.927 266.4 157.327C266.4 154.727 268.4 153.927 270.4 153.627C272.3 153.327 274.6 155.927 274.4 157.827C274 159.927 272.9 161.427 270.4 161.227Z" fill="#FEFEFE"/>
<path d="M134.699 162.927C133.699 163.627 131.999 165.627 131.299 165.327C129.799 164.627 128.199 162.927 127.699 161.327C127.499 160.527 129.699 158.227 130.899 158.027C133.499 157.727 134.099 160.027 134.699 162.927Z" fill="#FEFEFE"/>
<path d="M267.8 174.627C265.6 174.427 264.6 172.927 264.6 170.627C264.6 168.527 265.6 167.327 267.7 167.527C269.8 167.727 271.6 168.627 271.7 171.227C271.7 173.527 270.3 174.527 267.8 174.627Z" fill="#FEFEFE"/>
<path d="M130.4 180.027C128.2 180.127 127.3 178.927 127.2 176.927C127.1 175.027 127.8 173.927 129.9 173.927C132 173.827 133.3 174.627 133.3 176.727C133.4 178.627 132.6 180.027 130.4 180.027Z" fill="#FEFEFE"/>
<path d="M63 129.327C62.5 129.727 62 130.127 61.5 130.527C61.2 130.227 60.8 129.827 60.5 129.527C61.1 129.327 61.7 129.027 62.3 128.827C62.5 128.927 62.8 129.127 63 129.327Z" fill="#3A953D"/>
<path d="M59.7998 131.427C60.0998 131.027 60.3998 130.727 60.6998 130.327C60.7998 130.427 60.9998 130.527 61.0998 130.627C60.7998 131.027 60.5998 131.427 60.2998 131.827C60.1998 131.727 59.9998 131.527 59.7998 131.427Z" fill="#3A953D"/>
<path d="M97.6 392.827C97.7 393.127 97.8 393.527 97.9 393.827C97.6 393.727 97.3 393.627 97 393.527C97.3 393.227 97.5 393.027 97.6 392.827Z" fill="#3A953D"/>
<path d="M60.3992 131.927C60.1992 132.027 59.8992 132.027 59.6992 132.127C59.6992 131.927 59.7992 131.727 59.7992 131.427C59.9992 131.527 60.1992 131.727 60.3992 131.927Z" fill="#3A953D"/>
<path d="M133.3 211.127C127.7 210.927 122 210.627 116.3 210.327C115.8 210.327 115.2 210.327 114.7 210.027C113.2 209.227 110.8 208.827 111.6 206.327C112.4 203.927 114.3 204.727 116.2 205.127C125.2 207.127 134 205.727 142.6 203.027C146.2 201.827 149.7 200.127 153.3 199.027C154.3 198.727 155.6 199.427 156.7 199.627C156.4 200.727 156.4 202.027 155.8 202.827C155.1 203.727 153.9 204.227 152.9 204.727C144.4 208.627 136.6 213.327 130.9 221.127C127 226.527 122.7 231.727 118.5 236.827C117.8 237.627 116.4 237.827 115.4 238.227C115.1 236.927 114.1 235.227 114.6 234.427C117.3 230.227 120.3 226.227 123.4 222.327C126.7 218.427 130.2 214.627 133.3 211.127Z" fill="#030602"/>
<path d="M330.6 233.027C339.4 233.627 348.3 233.727 356.3 238.227C360.8 240.727 364.6 244.127 367.1 248.727C367.9 250.227 368.4 252.027 366.5 252.727C365.6 253.027 363.7 252.027 363.1 251.127C358.6 243.827 352 240.227 343.7 239.327C338.5 238.827 333.3 238.527 328.2 237.927C327 237.827 325.9 236.627 324.8 235.927C325.9 234.927 326.8 233.827 328.1 233.127C328.7 232.627 329.8 233.027 330.6 233.027Z" fill="#030602"/>
<path d="M337.8 216.127C342.7 217.427 347.5 218.627 352.4 220.127C354.3 220.727 355.7 222.127 354.7 224.227C353.7 226.327 352 225.227 350.3 224.827C345.4 223.627 340.5 222.627 335.5 221.627C333.8 221.227 331.5 221.627 332 218.727C332.4 216.227 334.4 216.927 336 216.927C336.5 216.927 337.1 216.927 337.6 217.027C337.6 216.627 337.7 216.327 337.8 216.127Z" fill="#030602"/>
</g>
<defs>
<clipPath id="clip0_1_8840">
<rect width="500" height="500" fill="white" transform="translate(0 0.527344)"/>
</clipPath>
</defs>
</svg>
