<svg width="500" height="501" viewBox="0 0 500 501" fill="none" xmlns="http://www.w3.org/2000/svg">
<g clip-path="url(#clip0_1_8869)">
<path fill-rule="evenodd" clip-rule="evenodd" d="M237.1 12.7273V23.5273C240.9 22.0273 244.4 20.0273 247.6 17.5273C244 17.5273 240.4 12.7273 236.8 12.7273H237.1Z" fill="black"/>
<path fill-rule="evenodd" clip-rule="evenodd" d="M249.8 13.4273C246 13.4273 242 12.8273 238.3 12.7273H237.1C105.9 19.8273 5.19982 132.027 12.2998 263.327C16.2998 336.727 53.8998 404.227 114.4 446.227C98.9998 432.327 90.2998 412.427 90.2998 391.727C90.5998 351.127 123.4 318.327 164 318.027L178.7 317.527V314.327C178.7 282.627 199 254.627 229.1 244.727C236.5 242.227 244.2 241.027 251.9 241.027C280.7 241.027 306.9 257.927 318.7 284.227C386.5 237.727 403.7 145.127 357.2 77.3273C332.6 41.2273 293.3 17.9273 249.8 13.4273Z" fill="#B4E1FF"/>
<path fill-rule="evenodd" clip-rule="evenodd" d="M257.6 12.7273C386.3 28.3273 426.1 122.827 426.2 208.127C426.2 295.427 352.9 359.027 288.8 375.827C264.9 381.727 240.6 386.027 216.2 388.927L206.5 390.127C204.2 390.427 201.9 390.927 199.6 391.627C185.7 395.727 174.3 405.927 168.8 419.327C166.4 425.127 165.2 431.227 165.2 437.527C165.2 457.927 178.1 476.027 197.3 482.827C200.6 483.627 204.1 484.227 207.6 484.927C221.6 487.427 235.7 488.627 249.9 488.627C381.3 488.227 487.6 381.327 487.1 249.827C486.7 121.927 385.4 17.3273 257.6 12.7273Z" fill="#90D595"/>
<path fill-rule="evenodd" clip-rule="evenodd" d="M257.6 12.7273C255 12.7273 252.5 12.7273 249.8 12.7273C246 12.7273 242 12.7273 238.3 12.7273C242.2 12.7273 246.1 13.1273 249.8 13.5273C331.6 21.6273 391.2 94.5273 383 176.227C378.6 220.027 355.1 259.527 318.8 284.327C302.5 247.327 259.2 230.527 222.2 246.927C195.5 258.727 178.3 285.227 178.5 314.427V317.527L163.7 318.027C123 318.127 90.0999 351.127 90.1999 391.827C90.1999 412.527 98.9999 432.227 114.3 446.127C119 449.427 123.7 452.327 128.6 455.327C149.9 468.027 173.1 477.227 197.2 482.627C178 475.927 165.1 457.827 165.1 437.427C165.1 431.127 166.3 424.927 168.7 419.227C174.3 405.827 185.6 395.627 199.5 391.527C201.8 390.927 204 390.427 206.4 390.127L216.1 389.027C240.5 386.127 264.8 381.727 288.7 375.827C352.8 358.927 426.2 295.327 426.1 208.127C426.2 122.327 386.3 27.9273 257.6 12.7273Z" fill="white"/>
<path fill-rule="evenodd" clip-rule="evenodd" d="M249.9 0.527393C245.8 0.527393 242.1 0.527393 237.8 0.527393H237.3C99.4998 7.42739 -6.60021 124.827 0.299794 262.727C4.19979 340.027 43.6998 411.227 107.3 455.427C111.9 459.527 116.9 463.127 122.2 466.227C123.5 466.927 125 467.327 126.5 467.527C147.7 479.627 170.6 488.527 194.4 493.927C198.3 495.227 202.3 496.227 206.3 496.627C220.8 499.227 235.4 500.527 250.1 500.527C388.2 502.927 502 393.027 504.4 254.927C506.8 116.827 396.8 2.92739 258.7 0.527393C255.8 0.427393 252.9 0.427393 249.9 0.527393ZM156.4 456.227C143.9 450.627 132 443.827 120.8 436.027C96.2998 412.227 95.6998 373.127 119.5 348.627C131.2 336.627 147.3 329.827 164 329.927C168.8 329.927 174.4 329.927 179 329.427C185.4 329.127 190.4 323.927 190.5 317.527V314.427C190.5 280.527 217.9 253.027 251.8 253.027C276 253.027 298 267.227 307.9 289.327C310.6 295.227 317.5 297.927 323.5 295.327C324.1 295.027 324.7 294.627 325.2 294.127C392.6 248.327 414.8 159.227 376.9 87.1274C408.7 128.327 414 179.227 414 207.927C414 287.427 347.8 347.727 285.5 363.727C258.8 370.127 231.8 374.727 204.5 377.627C175 381.827 153.1 407.027 153 436.827C153.1 443.227 154.2 449.527 156.3 455.627L156.4 456.227ZM23.9998 250.527C23.8998 129.227 119.7 29.4274 240.9 24.6274C316.3 27.8274 374.8 91.5274 371.6 166.927C370 205.427 352.1 241.427 322.5 266.127C296.1 227.227 243.1 217.127 204.2 243.527C183.3 257.727 169.8 280.427 167.3 305.527H163.6C116.3 305.527 77.8998 343.927 77.8998 391.227C77.8998 393.327 77.8998 395.327 78.3998 397.427C43.1998 356.527 23.7998 304.427 23.8998 250.527H23.9998ZM249.9 476.427C233.2 476.327 216.5 474.427 200.2 470.727C181.7 463.727 172.3 442.927 179.3 424.427C183.9 412.227 194.7 403.527 207.6 401.627C236 398.527 264.1 393.627 291.8 387.027C362.7 368.427 438.1 299.227 438 207.827C439.1 165.327 428 123.427 406.1 87.0274C496.5 173.127 499.9 316.127 413.9 406.427C371.3 451.227 312.1 476.527 250.3 476.527L249.9 476.427Z" fill="#41474E"/>
</g>
<defs>
<clipPath id="clip0_1_8869">
<rect width="500" height="500" fill="white" transform="translate(0 0.527344)"/>
</clipPath>
</defs>
</svg>
