<svg width="500" height="501" viewBox="0 0 500 501" fill="none" xmlns="http://www.w3.org/2000/svg">
<g clip-path="url(#clip0_1_8875)">
<path fill-rule="evenodd" clip-rule="evenodd" d="M143.5 44.6273C171.6 17.1273 216.5 17.1273 244.6 44.6273L311.1 109.727C340 138.027 340 184.627 311.1 212.927L195.3 326.427L278.4 407.827C294.2 423.327 294.5 448.727 279 464.527C263.5 480.327 238.1 480.627 222.3 465.127L20.9001 268.027C-7.9999 239.627 -7.9999 193.127 20.9001 164.827L143.5 44.6273ZM137.9 270.327L249.1 161.427L194.1 107.527L82.9001 216.427L137.9 270.327Z" fill="#3CEAAA"/>
<path fill-rule="evenodd" clip-rule="evenodd" d="M310.7 99.6273C338.8 72.1273 383.7 72.1273 411.8 99.6273L478.3 164.727C507.2 193.027 507.2 239.627 478.3 267.927L277 465.227C261.2 480.727 235.8 480.427 220.3 464.627C204.8 448.827 205.1 423.427 220.9 407.927L304 326.527L244.3 268.027C215.4 239.727 215.4 193.127 244.3 164.827L310.7 99.6273ZM361.3 270.327L416.3 216.427L361.3 162.527L306.3 216.427L361.3 270.327Z" fill="#03BCE4"/>
<path opacity="0.95" d="M306.2 216.527L247.8 161.027L191.7 216.127L248.8 272.927L306.2 216.527Z" fill="#00A4E1"/>
</g>
<defs>
<clipPath id="clip0_1_8875">
<rect width="500" height="500" fill="white" transform="translate(0 0.527344)"/>
</clipPath>
</defs>
</svg>
