<svg width="500" height="501" viewBox="0 0 500 501" fill="none" xmlns="http://www.w3.org/2000/svg">
<g clip-path="url(#clip0_1_8885)">
<path d="M250 0.527344C388.1 0.527344 500 112.427 500 250.527C500 388.627 388.1 500.527 250 500.527C111.9 500.527 0 388.627 0 250.527C0 112.427 111.9 0.527344 250 0.527344ZM38.9 218.627C30.2 275.527 44.4 332.427 78.7 378.527C113 424.627 162.8 454.827 219.6 463.527C230.3 465.227 241.1 465.927 251.8 465.927C297.5 465.927 341.8 451.327 379.2 423.627C425.2 389.327 455.3 339.327 464 282.427C465.4 276.227 461.2 270.327 455 269.227C448.8 268.127 442.9 272.727 441.8 278.927C434.2 329.527 407.2 374.627 366 405.127C324.8 435.627 274.3 448.527 223.4 440.827C172.9 433.227 127.9 406.127 97.4 364.827C66.9 323.527 54.1 272.927 61.8 221.927C77.3 117.327 175.2 44.5273 279.8 60.4273C286 61.4273 291.9 56.9273 293 50.7273C294 44.5273 289.5 38.6273 283.3 37.5273C165.9 19.9273 56.5 101.427 38.9 218.627ZM331 254.327L329.3 266.427L334.5 267.127C329 294.227 308.5 317.727 279.5 329.227C251.1 340.327 222.1 337.227 200.6 320.927L203.4 317.427L193.7 310.127L177.8 331.627L187.5 338.927L190.6 334.727C216.6 354.527 252.2 358.627 285.8 345.527C286.5 345.227 286.8 345.227 287.5 344.827C321.1 330.927 345.3 302.527 351.5 269.927L355.7 270.627L357.4 258.527L331 254.327ZM150.7 200.927C138.2 206.827 132.7 221.727 138.6 234.527C144.5 247.027 159.4 252.527 172.2 246.627C184.7 240.727 190.2 225.827 184.3 213.027C178.4 200.227 163.1 195.027 150.7 200.927ZM286.3 145.827C273.8 151.727 268.3 166.627 274.2 179.427C280.1 191.927 295 197.427 307.8 191.527C320.3 185.627 325.8 170.727 319.9 157.927C313.7 145.427 298.8 139.927 286.3 145.827Z" fill="#4C20F0"/>
</g>
<defs>
<clipPath id="clip0_1_8885">
<rect width="500" height="500" fill="white" transform="translate(0 0.527344)"/>
</clipPath>
</defs>
</svg>
