<svg width="500" height="501" viewBox="0 0 500 501" fill="none" xmlns="http://www.w3.org/2000/svg">
<g clip-path="url(#clip0_1_8895)">
<path d="M169.7 132.227H170.1C127.2 132.227 88.5001 106.127 72.4001 66.3274C67.3001 78.9274 64.6001 92.3274 64.6001 105.927V396.227C65.9001 453.627 112.8 499.427 170.1 499.427C227.4 499.427 274.3 453.627 275.6 396.227V238.327C275.6 179.827 228.2 132.427 169.7 132.427" fill="#0E560E"/>
<path d="M272.6 1.72739C265.5 0.927386 258.4 0.527386 251.3 0.527386H170.3C127.3 0.427386 88.5999 26.5274 72.3999 66.3274C88.4999 106.127 127.2 132.227 170.1 132.227C228.5 132.427 275.7 179.927 275.6 238.427V368.127C367.7 355.627 436.1 276.527 435.3 183.627C434.6 90.6274 364.8 12.7274 272.6 1.72739ZM98.1999 207.427C95.9999 207.427 93.8999 206.527 92.3999 205.027C85.4999 198.127 81.6999 188.827 81.6999 179.127C81.6999 169.427 85.5999 160.127 92.3999 153.227C95.5999 150.027 100.8 150.027 104 153.227C107.2 156.427 107.2 161.627 104 164.827C96.1999 172.727 96.1999 185.427 104 193.327C106.4 195.727 107.1 199.227 105.8 202.327C104.5 205.427 101.5 207.427 98.1999 207.427ZM98.1999 298.627C95.9999 298.627 93.9999 297.727 92.3999 296.227C78.0999 281.927 78.0999 258.627 92.3999 244.327C95.5999 241.127 100.8 241.127 104 244.327C107.2 247.527 107.2 252.727 104 256.027C96.1999 263.927 96.1999 276.627 104 284.527C105.6 286.027 106.4 288.127 106.4 290.327C106.4 292.527 105.5 294.627 104 296.127C102.5 297.827 100.4 298.627 98.1999 298.627ZM98.1999 389.727C95.9999 389.727 93.8999 388.827 92.3999 387.327C85.4999 380.427 81.6999 371.127 81.6999 361.427C81.6999 351.727 85.5999 342.427 92.3999 335.527C95.5999 332.327 100.8 332.327 104 335.527C107.2 338.727 107.2 343.927 104 347.227C96.1999 355.127 96.1999 367.827 104 375.727C106.3 378.127 107 381.627 105.7 384.727C104.5 387.727 101.5 389.727 98.1999 389.727ZM140.3 253.027C138.1 253.027 136 252.227 134.5 250.627C120.2 236.227 120.2 213.127 134.5 198.727C137.7 195.527 142.9 195.527 146.2 198.727C147.8 200.227 148.6 202.327 148.6 204.527C148.6 206.727 147.7 208.827 146.2 210.327C138.4 218.227 138.4 230.927 146.2 238.827C148.6 241.227 149.3 244.727 148 247.827C146.7 251.027 143.6 253.027 140.3 253.027ZM140.3 344.227C138.1 344.227 136 343.327 134.5 341.827C120.2 327.427 120.2 304.327 134.5 289.927C137.7 286.727 142.9 286.727 146.2 289.927C147.8 291.527 148.6 293.527 148.6 295.727C148.6 297.927 147.7 300.027 146.2 301.527C138.2 309.327 138 322.127 145.8 330.127C147.4 331.627 148.2 333.727 148.2 335.927C148.2 338.127 147.3 340.227 145.8 341.727C144.2 343.227 142.1 344.127 140 344.127" fill="#48C148"/>
</g>
<defs>
<clipPath id="clip0_1_8895">
<rect width="500" height="500" fill="white" transform="translate(0 0.527344)"/>
</clipPath>
</defs>
</svg>
