<svg width="500" height="501" viewBox="0 0 500 501" fill="none" xmlns="http://www.w3.org/2000/svg">
<g clip-path="url(#clip0_1_8898)">
<path d="M250 500.427C388.071 500.427 500 388.499 500 250.427C500 112.356 388.071 0.427368 250 0.427368C111.929 0.427368 0 112.356 0 250.427C0 388.499 111.929 500.427 250 500.427Z" fill="#FDE74E"/>
<path d="M224.5 231.627C224.5 210.727 224.4 189.827 224.5 169.027C224.6 158.227 226.9 147.827 230.9 137.727C234.7 128.127 240.2 119.827 248.3 113.427C257 106.527 267 103.027 278.2 102.527C295.4 101.727 311.5 105.827 326.2 114.327C341 122.827 352.4 135.027 360.6 150.027C368 163.427 372.8 177.727 375.4 193.027C377.6 205.727 377.6 218.327 376.6 230.827C375.6 242.327 372.6 253.627 368.5 264.727C364.5 275.427 359.4 285.327 352.8 294.627C341.5 310.427 327.1 322.427 309.7 331.027C298.8 336.427 287.4 339.827 275.5 342.227C269.6 343.427 264.4 349.527 264.4 355.627C264.4 377.127 264.4 398.627 264.4 420.027C264.4 428.527 260.6 434.727 253.1 438.727C243.5 443.827 230.8 439.527 226.7 429.527C225.2 425.727 224.4 421.427 224.4 417.327C224.2 398.127 223.9 378.927 224.4 359.727C224.8 346.827 219.1 342.627 208.2 340.227C181.6 334.427 160.2 320.627 144.2 298.727C138.4 290.727 133 282.227 128.7 273.327C125.1 265.827 123.1 257.527 120.6 249.527C115.9 234.427 115.3 218.927 116.3 203.327C117.3 189.327 120.5 175.727 126.3 162.927C131.9 150.527 139.5 139.527 149.4 130.027C157 122.827 165.6 117.227 175 112.727C187.5 106.827 200.8 103.527 214.6 102.727C218.9 102.427 222.3 104.427 224.6 108.027C229.9 116.627 224.3 124.027 216.9 126.127C204.7 129.627 196.1 137.227 189.8 147.827C184.9 156.127 181.8 165.127 179.6 174.527C174.7 195.727 174.8 217.027 177.1 238.427C178.6 252.527 181.7 266.227 187.5 279.027C193 291.027 201.5 300.927 212.9 307.927C217.2 310.527 223 307.227 223.9 301.727C224.2 299.927 224.2 298.127 224.2 296.327C224.5 274.827 224.5 253.227 224.5 231.627ZM265.3 231.527C265.3 251.527 265.3 271.527 265.3 291.627C265.3 295.027 265.2 298.427 265.4 301.727C266 310.027 272.5 313.827 280 310.327C281.1 309.827 282.2 309.327 283.3 308.827C298.7 301.627 309.2 289.727 316.1 274.427C320 265.827 322.3 256.927 323.9 247.527C325.9 235.427 325.8 223.227 324.4 211.127C322.9 197.627 319.5 184.327 313.6 172.027C307.8 159.927 301 148.427 287.1 143.727C281.6 141.927 272.7 142.027 269 149.027C266.5 153.727 265.4 158.727 265.4 163.827C265.3 186.327 265.3 208.927 265.3 231.527Z" fill="black"/>
</g>
<defs>
<clipPath id="clip0_1_8898">
<rect width="500" height="500" fill="white" transform="translate(0 0.527344)"/>
</clipPath>
</defs>
</svg>
