<svg width="500" height="501" viewBox="0 0 500 501" fill="none" xmlns="http://www.w3.org/2000/svg">
<g clip-path="url(#clip0_1_8901)">
<path d="M250 500.527C388.071 500.527 500 388.599 500 250.527C500 112.456 388.071 0.527344 250 0.527344C111.929 0.527344 0 112.456 0 250.527C0 388.599 111.929 500.527 250 500.527Z" fill="#1149FF"/>
<path d="M138.9 215.027C138.9 147.027 188.8 96.2273 259.3 96.2273C329.3 96.2273 380.6 147.027 380.6 215.927C380.6 283.427 331.1 333.727 256.9 333.727H199.6V401.027C199.6 404.327 199.1 404.727 195.9 404.727H169.3C169.3 404.727 145.9 404.727 142.7 404.727C139.4 404.727 139 404.227 139 401.027V215.027H138.9ZM320 215.427C320 179.527 297.6 152.127 259.3 152.127C220.5 152.127 199.6 179.627 199.6 215.027V277.927H257C297.6 277.927 320 251.327 320 215.427Z" fill="white"/>
</g>
<defs>
<clipPath id="clip0_1_8901">
<rect width="500" height="500" fill="white" transform="translate(0 0.527344)"/>
</clipPath>
</defs>
</svg>
