<svg width="500" height="501" viewBox="0 0 500 501" fill="none" xmlns="http://www.w3.org/2000/svg">
<path d="M249.797 6.17297L50.3624 47.8598V324.288C50.3624 364.761 91.827 403.007 136.729 432.755C171.916 455.824 208.736 476.062 246.762 493.667L249.997 494.889L253.233 493.667C261.323 490.632 449.635 410.496 449.635 324.288V47.86L249.797 6.17297ZM433.456 324.288C433.456 384.593 303.804 448.337 249.797 469.586L247.168 468.575L246.156 468.169L244.336 467.36L243.324 466.955L241.504 466.146L240.898 465.943L238.672 464.932L238.066 464.729L235.64 463.717L235.234 463.514L232.605 462.503H232.407L229.372 461.281H229.169C202.268 449.342 167.277 431.736 136.532 411.096L132.891 408.667L129.25 406.035L125.812 403.606L125.61 403.404L122.374 400.975L122.172 400.772L118.931 398.363L118.729 398.16L115.493 395.731L115.088 395.528L112.053 393.302L111.647 393.099L108.815 390.873L108.41 390.468L105.781 388.242L105.375 387.836L102.949 385.61L102.343 385.205L100.117 382.979L99.5106 382.373L97.2846 380.147L96.6786 379.541L94.4526 377.517L93.8466 376.911L91.8234 374.888L91.2174 374.079L89.397 372.056L88.791 371.247L86.9706 369.224L86.3646 368.415L84.747 366.392L83.9382 365.583L82.5234 363.763L81.7146 362.751L80.2998 360.931L79.491 359.919L78.2692 358.099L77.6632 357.087L76.4414 355.267L75.8354 354.045C75.4298 353.439 75.2294 352.823 74.8238 352.425L74.015 351.203C73.6658 350.707 73.3932 350.161 73.2062 349.583L72.6002 348.362C72.3974 347.756 71.9942 347.35 71.7914 346.742C71.6312 346.315 71.4282 345.906 71.1854 345.52C70.95 344.993 70.7476 344.452 70.5794 343.9C70.3766 343.294 70.1738 343.091 69.9734 342.483C69.8086 341.995 69.606 341.521 69.3674 341.065C69.1398 340.624 69.002 340.143 68.9618 339.648C68.9618 339.243 68.5562 338.637 68.5562 338.231C68.516 337.736 68.3782 337.255 68.1506 336.814C67.9478 336.408 67.9478 336.005 67.745 335.397C67.5422 334.788 67.5422 334.385 67.3394 333.777C67.1878 333.388 67.1188 332.972 67.1366 332.555C67.1366 332.149 66.9338 331.543 66.9338 330.935C66.9338 330.326 66.731 330.126 66.731 329.713C66.672 329.092 66.5356 328.48 66.3254 327.893C66.1226 327.287 66.3254 327.287 66.3254 326.881V62.6336L248.99 33.2964H250.608L433.267 62.6336L433.47 324.291L433.456 324.288Z" fill="#5E4778"/>
<path d="M249.797 53.5264L111.451 75.787L82.9276 80.2392V317.207C82.9276 372.047 200.848 430.126 249.797 449.351C278.316 438.221 330.097 413.937 368.326 384.798C371.158 382.572 374.191 380.346 376.822 378.12C389.969 367.395 400.891 356.062 407.973 344.528C413.434 335.624 416.669 326.517 416.669 317.405V80.2394L249.797 53.5264ZM169.295 179.193H266.584V199.431H169.295V179.193ZM359.021 188.706C359.021 236.665 325.647 267.632 279.53 267.632H215.614V368.814H190.331V244.761H276.099C310.485 244.761 332.936 223.917 332.936 188.706C332.936 153.9 310.485 133.663 276.503 133.663H249.797L185.881 133.865V110.796H279.323C325.642 110.796 359.016 140.746 359.016 188.706" fill="#5E4778"/>
<path d="M249.797 6.17297V33.2964H250.606L433.266 62.6336V324.078C433.266 384.382 303.614 448.127 249.607 469.376V494.672L252.842 493.45C260.932 490.415 449.244 410.279 449.244 324.071V47.86L249.797 6.17297Z" fill="#5E4778"/>
<path d="M279.323 267.425H215.614V279.361C226.445 288.014 237.943 295.796 250 302.636C290.25 325.706 342.031 341.288 408.173 344.323C413.634 335.419 416.87 326.312 416.87 317.2V80.2394L250 53.5264L111.451 75.787C117.924 127.796 137.14 199.633 190.336 256.094V244.761H276.104C310.49 244.761 332.941 223.917 332.941 188.706C332.941 153.9 310.49 133.662 276.508 133.662H249.797L185.881 133.865V110.796H279.323C325.44 110.796 358.814 140.949 358.814 188.5C358.814 236.46 325.642 267.427 279.323 267.427M249.797 179.193H266.372V199.431H169.295V179.193L249.797 179.193Z" fill="#5E4778"/>
<path d="M247.371 468.575L246.359 468.169L244.539 467.563L243.527 467.158L241.707 466.349L241.101 466.146L238.875 465.134L238.269 464.932L235.842 463.92L235.437 463.717L232.808 462.495H232.407L229.372 461.274H229.169C202.471 449.334 167.477 431.729 136.732 410.885L133.092 408.456L129.451 405.624L126.013 403.196L125.81 402.993L122.575 400.564L122.372 400.361L119.137 397.932L118.934 397.73L115.699 395.301L115.293 395.098L112.258 392.872L111.853 392.669L109.021 390.443L108.618 390.055L105.988 387.829L105.583 387.423L103.156 385.197L102.55 384.791L100.324 382.565L99.7184 381.959L97.4924 379.733L96.8864 379.127L94.6604 377.104L94.0544 376.498L92.0312 374.475L91.4252 373.666L89.6048 371.643L88.9988 370.834L87.1784 368.811L86.5724 368.002L84.752 366.382L83.9432 365.573L82.5284 363.753L81.7196 362.741L80.3048 360.921L79.496 359.909L78.2742 358.089L77.6682 357.077L76.4464 355.257L75.8404 354.245C75.4348 353.639 75.2344 353.024 74.8288 352.625L74.02 351.404L73.2112 349.784L72.6052 348.562C72.4024 347.956 71.9992 347.55 71.7964 346.942C71.6362 346.515 71.4332 346.106 71.1904 345.72C70.955 345.193 70.7526 344.652 70.5844 344.1C70.3816 343.494 70.1788 343.291 69.9784 342.683C69.8136 342.195 69.611 341.721 69.3724 341.266C69.1186 340.835 68.979 340.348 68.9668 339.848C68.9668 339.242 68.5612 338.627 68.5612 338.228C68.521 337.734 68.3832 337.252 68.1556 336.811C67.9528 336.406 67.9528 336.002 67.75 335.394C67.5472 334.786 67.5472 334.382 67.3444 333.774C67.1928 333.385 67.1236 332.969 67.1416 332.552C67.1416 332.147 66.9388 331.541 66.9388 330.932C66.9388 330.324 66.736 330.123 66.736 329.71C66.677 329.089 66.5406 328.478 66.3304 327.89C66.1276 327.284 66.3304 327.284 66.3304 326.878V62.6336L248.99 33.2964H249.799V6.17297L50.3642 47.8598V324.288C50.3642 364.761 91.8288 403.007 136.731 432.755C171.918 455.824 208.738 476.062 246.764 493.667L249.999 494.889V469.586L247.37 468.575" fill="#3D3144"/>
<path d="M249.797 302.636C237.74 295.796 226.242 288.014 215.412 279.361V368.795H190.133V256.091C136.932 199.43 117.919 127.59 111.451 75.7871L82.9276 80.2393V317.207C82.9276 372.047 200.848 430.126 249.797 449.351C278.316 438.221 330.097 413.937 368.326 384.798C371.158 382.572 374.191 380.346 376.822 378.12C389.969 367.395 400.891 356.062 407.973 344.528C341.831 341.088 290.252 325.505 249.8 302.639" fill="#3D3144"/>
</svg>
