<svg width="500" height="501" viewBox="0 0 500 501" fill="none" xmlns="http://www.w3.org/2000/svg">
<g clip-path="url(#clip0_1_8913)">
<path d="M250 0.527344H37.5C16.8 0.527344 0 17.3273 0 38.0273V463.027C0 483.727 16.8 500.527 37.5 500.527H250C388.1 500.527 500 388.627 500 250.527C500 112.427 388.1 0.527344 250 0.527344ZM118.2 105.627C129.2 88.0273 152.3 82.7273 169.9 93.7273L341.5 201.027C335.1 202.127 328.9 204.427 323.4 207.927L267.2 243.027L130.1 157.327C112.6 146.327 107.2 123.227 118.2 105.627ZM187.5 375.527C187.5 396.227 170.7 413.027 150 413.027C129.3 413.027 112.5 396.227 112.5 375.527V159.027C115.6 162.527 119.2 165.527 123.3 168.127L187.5 208.227V375.527ZM369.9 282.327L198.3 389.527C199.6 385.027 200.3 380.327 200.3 375.527V299.827L330.1 218.727C347.7 207.727 370.8 213.127 381.8 230.627C392.8 248.227 387.4 271.327 369.9 282.327Z" fill="#2BCAB0"/>
</g>
<defs>
<clipPath id="clip0_1_8913">
<rect width="500" height="500" fill="white" transform="translate(0 0.527344)"/>
</clipPath>
</defs>
</svg>
