<svg width="500" height="501" viewBox="0 0 500 501" fill="none" xmlns="http://www.w3.org/2000/svg">
<path d="M34.1001 126.527V374.527L248.1 498.527L462.1 374.527V126.527L248.1 2.52734L34.1001 126.527Z" fill="#8340FB"/>
<path d="M402.1 106.527H352.5L330.3 68.0273H286.1L261.2 24.7273H212.5L211.8 23.5273L178.6 42.7273L188.8 60.3273H237.4L262.4 103.627H306.6L328.8 142.127H378.3L402.4 183.827H449.6L462.1 205.427V148.227H426.1L402.1 106.527Z" fill="#7936F9"/>
<path d="M402.4 183.827L378.3 142.127H328.8L306.6 103.627H262.4L237.4 60.3273H188.8L178.6 42.7273L145.9 61.7273L167.6 99.3273H216.3L241.2 142.627H285.4L307.6 181.127H357.2L381.2 222.827H428.4L449.5 259.427H462.1V205.427L449.6 183.827H402.4Z" fill="#702EF7"/>
<path d="M428.4 222.827H381.2L357.2 181.127H307.6L285.4 142.627H241.2L216.3 99.3273H167.6L145.9 61.7273L86.1001 96.4273H120.1L147.3 143.327H195.9L220.9 186.627H265L287.3 225.127H336.8L360.9 266.827H408.1L429.2 303.427H462.1V259.427H449.5L428.4 222.827Z" fill="#6527E5"/>
<path d="M429.2 303.427L408.1 266.827H360.9L336.8 225.127H287.3L265 186.627H220.9L195.9 143.327H147.3L120.1 96.4274H86.1001L34.1001 126.527V130.727H97.3001L124.4 177.627H173L198 220.927H242.2L264.4 259.427H313.9L338 301.127H385.2L406.3 337.727H450.8L462.1 357.227V303.427H429.2Z" fill="#5A22D2"/>
<path d="M406.3 337.727L385.2 301.127H338L313.9 259.427H264.4L242.2 220.927H198L173 177.627H124.4L97.3001 130.727H34.1001V167.127H75.2001L102.4 214.127H151L176 257.327H220.1L242.4 295.927H291.9L316 337.527H363.2L384.3 374.127H428.8L437.3 388.927L462.1 374.527V357.227L450.8 337.727H406.3Z" fill="#501CC1"/>
<path d="M384.3 374.127L363.2 337.527H316L291.9 295.927H242.4L220.1 257.327H176L151 214.127H102.4L75.2001 167.127H34.1001V206.127H54.1001L81.2001 253.027H129.8L154.8 296.327H199L221.2 334.827H270.7L294.8 376.527H342L363.1 413.127H395.4L437.3 388.927L428.8 374.127H384.3Z" fill="#4719AC"/>
<path d="M342 376.527H294.8L270.7 334.827H221.2L199 296.327H154.8L129.8 253.027H81.2001L54.1001 206.127H34.1001V243.127L60.8001 289.527H109.5L134.5 332.727H178.6L200.9 371.327H250.4L274.5 412.927H321.6L340.2 445.127L395.4 413.127H363.1L342 376.527Z" fill="#3A128F"/>
<path d="M321.6 412.927H274.5L250.4 371.327H200.9L178.6 332.727H134.5L109.5 289.527H60.8001L34.1001 243.127V318.727L35.6001 321.427H84.3001L109.3 364.727H153.4L175.7 403.227H225.2L249.3 444.927H296.4L307.5 464.127L340.2 445.127L321.6 412.927Z" fill="#300D79"/>
<path d="M296.4 444.927H249.3L225.2 403.227H175.7L153.4 364.727H109.3L84.3001 321.427H35.6001L34.1001 318.727V374.527L248.1 498.527L307.5 464.127L296.4 444.927Z" fill="#2A0A6A"/>
<path d="M291.7 293.927C291.5 309.727 286.1 322.627 274.2 332.027C265.3 339.027 254.7 342.227 246.2 341.027C246.1 339.427 245.8 337.827 245.8 336.127C245.7 290.327 245.5 244.527 245.6 198.727C245.7 169.927 265.6 145.227 293.9 139.727C333.6 131.927 364.6 162.127 366.1 192.827C366.9 210.127 367.6 227.627 365.5 244.727C363 265.727 350.2 280.827 331.1 289.927C318.9 295.727 305.8 296.627 291.7 293.927ZM319.4 199.627C319.2 191.627 313.9 186.127 306.3 185.927C298.8 185.727 292.1 191.527 291.9 199.227C291.6 211.227 291.6 223.227 291.8 235.227C291.9 242.927 298.3 248.727 305.9 248.727C313.8 248.627 319.6 243.127 319.8 235.127C320.1 229.227 319.6 205.627 319.4 199.627Z" fill="white"/>
<path d="M144.2 342.227C144.2 330.827 143.6 319.927 144.4 309.127C145.2 298.427 149.6 289.027 157.6 281.627C174 266.527 210.7 267.927 221.7 296.727C227.3 311.527 224.8 326.627 225.2 342.227C198.1 342.227 171.6 342.227 144.2 342.227ZM159.8 322.327C176.6 322.327 192.6 322.327 208.9 322.327C209.2 311.827 207.7 302.227 198.6 296.727C189.4 291.127 179.1 291.627 170 297.127C161 302.627 159.7 311.927 159.8 322.327Z" fill="white"/>
<path d="M225 207.827C220.7 209.427 216.3 211.127 211.7 212.927C211.7 221.327 211.7 229.627 211.7 238.227C216.1 239.927 220.4 241.727 225.1 243.527C225.1 250.327 225.1 257.127 225.1 265.327C197.4 253.827 170.7 242.727 143.8 231.627C143.8 226.227 143.8 221.327 143.8 215.527C170.4 205.527 197.2 195.427 225 184.927C225 192.727 225 199.827 225 207.827ZM195.1 218.127C188.2 220.427 182.2 222.427 176.2 224.327C176.2 224.727 176.2 225.227 176.2 225.627C182.3 227.727 188.4 229.827 195.1 232.127C195.1 227.227 195.1 223.327 195.1 218.127Z" fill="white"/>
<path d="M225.5 153.027C225.5 159.727 225.5 166.027 225.5 172.727C198 172.727 171 172.727 143.7 172.727C143.7 165.927 143.7 159.927 143.7 153.027C171 153.027 197.9 153.027 225.5 153.027Z" fill="white"/>
</svg>
