<svg width="500" height="501" viewBox="0 0 500 501" fill="none" xmlns="http://www.w3.org/2000/svg">
<path d="M250 1.82739L170.7 81.0274L275.6 185.927L276 186.227L278.2 188.327L298.9 167.627L212.4 81.1274L212.8 80.7274L250 43.3274L287.6 81.0274L287.2 81.4274L259.6 109.127L280.3 129.827L282.9 127.327L329.2 80.9274L250 1.82739ZM259.5 226.027L280.3 246.727L366.8 160.227L404.4 197.927L404 198.327L376.3 225.927L397.2 246.827L446 197.927L366.7 118.727L259.5 226.027ZM53.7998 197.827L161.1 305.127L181.8 284.427L179.4 281.827L95.3998 197.827L95.7998 197.427L133 160.127L161.1 188.127L182 167.527L133.2 118.627L53.7998 197.827ZM142.7 226.027L163.4 246.827L237.1 173.127L240.2 169.827L219.5 149.127L142.7 226.027ZM318.1 228.327L404.5 314.727L404.1 315.127L366.9 352.427L338.8 324.427L318.1 345.227L320.6 347.727L320.5 347.827L366.7 394.027L446 314.727L338.8 207.527L318.1 228.327ZM201.2 228.327L278.1 305.127L298.8 284.427L222 207.527L201.2 228.327ZM333.9 268.527L256.7 345.727V469.927H243.2V345.627L222 324.327L201.1 345.227L213.7 357.927V460.227L213.5 460.327L204 469.927H133.1V499.327H366.9V469.927H295.9L295.7 469.727L286.1 460.127V357.827L286.3 357.627L357.3 286.627L336.5 265.827L333.9 268.527ZM133.1 352.427L132.7 352.027L95.4998 314.727L95.8998 314.327L120.3 289.927L123.4 286.627L102.7 265.927L53.8998 314.727L133.1 394.027L240.3 286.627L219.6 265.927L133.1 352.427Z" fill="url(#paint0_linear_1_8938)"/>
<defs>
<linearGradient id="paint0_linear_1_8938" x1="340.578" y1="430.429" x2="96.7634" y2="186.636" gradientUnits="userSpaceOnUse">
<stop stop-color="#24B1C6"/>
<stop offset="1" stop-color="#D852D8"/>
</linearGradient>
</defs>
</svg>
