<svg width="500" height="501" viewBox="0 0 500 501" fill="none" xmlns="http://www.w3.org/2000/svg">
<path d="M36 126.527V374.527L250 498.527L464 374.527V126.527L250 2.52734L36 126.527Z" fill="#8340FB"/>
<path d="M404 106.527H354.5L332.2 68.0273H288.1L263.1 24.7273H214.4L213.7 23.5273L180.6 42.7273L190.7 60.3273H239.4L264.3 103.627H308.5L330.7 142.127H380.3L404.3 183.827H451.5L464 205.427V148.227H428.1L404 106.527Z" fill="#7936F9"/>
<path d="M404.3 183.827L380.3 142.127H330.7L308.5 103.627H264.3L239.4 60.3274H190.7L180.6 42.7274L147.8 61.7274L169.5 99.3274H218.2L243.2 142.627H287.3L309.5 181.127H359.1L383.1 222.827H430.3L451.4 259.427H464V205.427L451.5 183.827H404.3Z" fill="#702EF7"/>
<path d="M430.3 222.827H383.1L359.1 181.127H309.5L287.3 142.627H243.2L218.2 99.3274H169.5L147.8 61.7274L88 96.4274H122.1L149.2 143.327H197.8L222.8 186.627H267L289.2 225.127H338.7L362.8 266.827H410L431.1 303.427H464V259.427H451.4L430.3 222.827Z" fill="#6527E5"/>
<path d="M431.1 303.427L410 266.827H362.8L338.7 225.127H289.2L267 186.627H222.8L197.8 143.327H149.2L122.1 96.4273H88L36 126.527V130.727H99.2L126.3 177.627H175L200 220.927H244.1L266.3 259.427H315.9L339.9 301.127H387.1L408.2 337.727H452.7L464 357.227V303.427H431.1Z" fill="#5A22D2"/>
<path d="M408.2 337.727L387.1 301.127H339.9L315.9 259.427H266.3L244.1 220.927H200L175 177.627H126.3L99.2 130.727H36V167.127H77.2L104.3 214.127H152.9L177.9 257.327H222.1L244.3 295.927H293.8L317.9 337.527H365.1L386.2 374.127H430.7L439.2 388.927L464 374.527V357.227L452.7 337.727H408.2Z" fill="#501CC1"/>
<path d="M386.2 374.127L365.1 337.527H317.9L293.8 295.927H244.3L222.1 257.327H177.9L152.9 214.127H104.3L77.2 167.127H36V206.127H56L83.1 253.027H131.8L156.7 296.327H200.9L223.1 334.827H272.7L296.7 376.527H343.9L365 413.127H397.3L439.2 388.927L430.7 374.127H386.2Z" fill="#4719AC"/>
<path d="M343.9 376.527H296.7L272.7 334.827H223.1L200.9 296.327H156.7L131.8 253.027H83.1L56 206.127H36V243.127L62.8 289.527H111.4L136.4 332.727H180.6L202.8 371.327H252.3L276.4 412.927H323.6L342.1 445.127L397.3 413.127H365L343.9 376.527Z" fill="#3A128F"/>
<path d="M323.6 412.927H276.4L252.3 371.327H202.8L180.6 332.727H136.4L111.4 289.527H62.8L36 243.127V318.727L37.5 321.427H86.2L111.2 364.727H155.3L177.6 403.227H227.1L251.2 444.927H298.3L309.4 464.127L342.1 445.127L323.6 412.927Z" fill="#300D79"/>
<path d="M298.3 444.927H251.2L227.1 403.227H177.6L155.3 364.727H111.2L86.2 321.427H37.5L36 318.727V374.527L250 498.527L309.4 464.127L298.3 444.927Z" fill="#2A0A6A"/>
<path d="M297 294.527C296 311.727 289.9 326.227 274.7 335.527C267.5 339.927 259.8 342.727 250.6 341.927C250.5 339.827 250.3 337.927 250.3 336.027C250.2 290.427 250 244.827 250.1 199.127C250.1 170.727 268.6 146.927 296.2 139.627C330.5 130.527 362.9 152.727 370.4 183.327C371.5 187.727 372.299 192.327 372.299 196.827C372.299 212.027 373.2 227.327 371.4 242.427C368.5 267.027 354.1 283.427 331 292.227C320 296.427 308.8 296.027 297 294.527ZM297 217.027H296.9C296.9 220.027 296.9 223.027 296.9 226.027C296.9 229.227 296.8 232.427 297 235.527C297.5 243.027 303.6 248.627 311 248.627C318.9 248.627 325 243.027 325.1 235.227C325.2 223.227 325.2 211.227 325 199.227C324.8 191.327 318.6 185.227 311.2 185.227C303.6 185.227 297.3 191.527 297.1 199.527C296.9 205.327 297 211.227 297 217.027Z" fill="white"/>
<path d="M228.9 243.027C210.4 243.027 193.4 243.027 176.2 243.027C175.8 242.427 175.1 241.827 175.2 241.227C175.8 232.127 175.4 222.727 177.4 214.027C180 203.227 191.2 196.727 202.8 197.227C214.9 197.727 224.4 204.627 226.7 216.027C228.4 224.627 228.2 233.627 228.9 243.027ZM216.9 229.227C217.1 222.027 215.4 216.527 209.5 213.227C204.7 210.527 195.2 211.527 191.4 214.927C187.1 218.727 185.9 223.627 186.5 229.227C196.9 229.227 206.7 229.227 216.9 229.227Z" fill="white"/>
<path d="M175.6 348.627C175.6 343.427 175.6 339.827 175.6 335.327C183.9 335.327 192 335.427 200 335.327C203.3 335.327 206.8 335.427 210 334.627C215.7 333.227 218.4 329.827 217.9 325.627C217.4 321.227 213.7 318.027 208.1 317.827C200.2 317.527 192.2 317.627 184.3 317.627C181.7 317.627 179.1 317.627 175.8 317.627C175.8 313.127 175.8 309.327 175.8 304.127C189 304.727 202.1 304.527 214.9 306.227C224.7 307.527 229.6 316.127 229.4 327.327C229.2 337.627 223.5 345.927 213.8 347.027C201.4 348.327 188.8 348.127 175.6 348.627Z" fill="white"/>
<path d="M219.4 295.127C217 292.527 214.8 290.127 212.2 287.327C213.1 285.827 214.4 284.327 215 282.627C216.1 279.427 217.5 276.027 217.6 272.727C217.7 271.127 215.3 268.627 213.6 268.127C212.3 267.727 209.6 269.427 208.7 270.827C206.8 273.927 205.7 277.527 204.1 280.927C200.5 288.527 194.9 292.027 187.9 291.227C181.2 290.427 176 285.427 174.5 277.427C173 269.127 175.2 261.927 181.2 255.027C184.2 257.327 186.7 259.227 189.5 261.327C188.2 267.027 181.4 272.727 190.3 279.327C192.1 275.827 193.4 273.127 194.7 270.427C196.8 266.427 198.3 261.927 201.2 258.527C207.5 251.127 219.5 252.227 225 260.127C232.4 270.627 230.1 286.427 219.4 295.127Z" fill="white"/>
<path d="M180.4 142.827C183.6 144.927 186.6 146.827 189.5 148.627C184.7 161.827 185.3 166.827 191.9 171.327C198 175.427 207.4 175.227 212.7 170.827C218.1 166.327 218.4 159.927 213.3 148.827C216 146.627 218.9 144.127 221.6 141.827C231.2 148.527 232.5 166.627 224.5 177.627C215.9 189.527 196.5 192.327 185.2 183.427C172.4 173.227 170 155.827 180.4 142.827Z" fill="white"/>
</svg>
