<svg width="500" height="501" viewBox="0 0 500 501" fill="none" xmlns="http://www.w3.org/2000/svg">
<g clip-path="url(#clip0_1_8956)">
<path d="M465.56 133.397V103.647C465.56 82.0274 447.97 64.4274 426.34 64.4274H396.93V39.9174C396.93 18.2974 379.34 0.697357 357.71 0.697357H298.89C277.27 0.697357 259.67 18.2874 259.67 39.9174V461.487C259.67 483.107 277.26 500.707 298.89 500.707H357.71C379.33 500.707 396.93 483.117 396.93 461.487V397.757H406.73C428.35 397.757 445.95 380.167 445.95 358.537V319.317H460.66C482.28 319.317 499.88 301.727 499.88 280.097V201.667V172.257C499.87 152.317 484.87 135.827 465.56 133.397ZM480.26 201.687V280.117C480.26 290.927 471.46 299.727 460.65 299.727H406.73H377.32C366.51 299.727 357.71 290.927 357.71 280.117V267.597C363.55 264.197 367.51 257.947 367.51 250.707C367.51 239.877 358.73 231.097 347.9 231.097C337.07 231.097 328.29 239.877 328.29 250.707C328.29 257.947 332.26 264.197 338.09 267.597V280.117C338.09 301.737 355.68 319.337 377.31 319.337H406.72H426.33V358.557C426.33 369.367 417.53 378.167 406.72 378.167H350.08C346.68 372.327 340.43 368.367 333.19 368.367C322.36 368.367 313.58 377.147 313.58 387.977C313.58 398.807 322.36 407.587 333.19 407.587C340.43 407.587 346.68 403.617 350.08 397.787H377.31V461.517C377.31 472.327 368.51 481.127 357.7 481.127H298.88C288.07 481.127 279.27 472.327 279.27 461.517V39.9174C279.27 29.1074 288.07 20.3074 298.88 20.3074H357.7C368.51 20.3074 377.31 29.1074 377.31 39.9174V64.4274C355.69 64.4274 338.09 82.0174 338.09 103.647V116.167C332.25 119.567 328.29 125.817 328.29 133.057C328.29 143.887 337.07 152.667 347.9 152.667C358.73 152.667 367.51 143.887 367.51 133.057C367.51 125.817 363.54 119.567 357.71 116.167V103.647C357.71 92.8374 366.51 84.0374 377.32 84.0374H426.34C437.15 84.0374 445.95 92.8374 445.95 103.647V133.057H436.15C414.53 133.057 396.93 150.647 396.93 172.277V184.797C391.09 188.197 387.13 194.447 387.13 201.687C387.13 212.517 395.91 221.297 406.74 221.297C417.57 221.297 426.35 212.517 426.35 201.687C426.35 194.447 422.38 188.197 416.55 184.797V172.277C416.55 161.467 425.35 152.667 436.16 152.667H448.41H455.76H460.66C471.47 152.667 480.27 161.467 480.27 172.277V201.687H480.26ZM347.91 260.507C342.5 260.507 338.11 256.107 338.11 250.707C338.11 245.297 342.51 240.907 347.91 240.907C353.32 240.907 357.71 245.307 357.71 250.707C357.71 256.107 353.31 260.507 347.91 260.507ZM343.01 387.957C343.01 393.367 338.61 397.757 333.21 397.757C327.8 397.757 323.41 393.357 323.41 387.957C323.41 382.557 327.81 378.157 333.21 378.157C338.61 378.157 343.01 382.557 343.01 387.957ZM347.91 123.257C353.32 123.257 357.71 127.657 357.71 133.057C357.71 138.467 353.31 142.857 347.91 142.857C342.5 142.857 338.11 138.457 338.11 133.057C338.1 127.657 342.5 123.257 347.91 123.257ZM406.73 191.887C412.14 191.887 416.53 196.287 416.53 201.687C416.53 207.097 412.13 211.487 406.73 211.487C401.32 211.487 396.93 207.087 396.93 201.687C396.93 196.277 401.33 191.887 406.73 191.887Z" fill="#F1396D"/>
<path d="M-0.129883 172.277V201.687V280.117C-0.129883 301.737 17.4601 319.337 39.0901 319.337H53.8001V358.557C53.8001 380.177 71.3901 397.777 93.0201 397.777H102.82V461.507C102.82 483.127 120.41 500.727 142.04 500.727H200.86C222.48 500.727 240.08 483.137 240.08 461.507V39.9174C240.08 18.2974 222.49 0.697357 200.86 0.697357H142.04C120.42 0.697357 102.82 18.2874 102.82 39.9174V64.4274H73.4001C51.7801 64.4274 34.1801 82.0174 34.1801 103.647V133.397C14.8701 135.827 -0.129883 152.317 -0.129883 172.277ZM19.4801 172.277C19.4801 161.467 28.2801 152.667 39.0901 152.667H43.9901H51.3401H63.5901C74.4001 152.667 83.2001 161.467 83.2001 172.277V184.797C77.3601 188.197 73.4001 194.447 73.4001 201.687C73.4001 212.517 82.1801 221.297 93.0101 221.297C103.84 221.297 112.62 212.517 112.62 201.687C112.62 194.447 108.65 188.197 102.82 184.797V172.277C102.82 150.657 85.2301 133.057 63.6001 133.057H53.8001V103.647C53.8001 92.8374 62.6001 84.0374 73.4101 84.0374H122.43C133.24 84.0374 142.04 92.8374 142.04 103.647V116.167C136.2 119.567 132.24 125.817 132.24 133.057C132.24 143.887 141.02 152.667 151.85 152.667C162.68 152.667 171.46 143.887 171.46 133.057C171.46 125.817 167.49 119.567 161.66 116.167V103.647C161.66 82.0274 144.07 64.4274 122.44 64.4274V39.9174C122.44 29.1074 131.24 20.3074 142.05 20.3074H200.87C211.68 20.3074 220.48 29.1074 220.48 39.9174V461.487C220.48 472.297 211.68 481.097 200.87 481.097H142.05C131.24 481.097 122.44 472.297 122.44 461.487V397.757H149.67C153.07 403.597 159.32 407.557 166.56 407.557C177.39 407.557 186.17 398.777 186.17 387.947C186.17 377.117 177.39 368.337 166.56 368.337C159.32 368.337 153.07 372.307 149.67 378.137H93.0101C82.2001 378.137 73.4001 369.337 73.4001 358.527V319.307H93.0101H122.42C144.04 319.307 161.64 301.717 161.64 280.087V267.567C167.48 264.167 171.44 257.917 171.44 250.677C171.44 239.847 162.66 231.067 151.83 231.067C141 231.067 132.22 239.847 132.22 250.677C132.22 257.917 136.19 264.167 142.02 267.567V280.087C142.02 290.897 133.22 299.697 122.41 299.697H93.0101H39.0801C28.2701 299.697 19.4701 290.897 19.4701 280.087V201.657V172.277H19.4801ZM142.03 250.707C142.03 245.297 146.43 240.907 151.83 240.907C157.24 240.907 161.63 245.307 161.63 250.707C161.63 256.117 157.23 260.507 151.83 260.507C146.42 260.507 142.03 256.107 142.03 250.707ZM166.54 378.157C171.95 378.157 176.34 382.557 176.34 387.957C176.34 393.357 171.94 397.757 166.54 397.757C161.13 397.757 156.74 393.357 156.74 387.957C156.74 382.557 161.13 378.157 166.54 378.157ZM161.63 133.057C161.63 138.467 157.23 142.857 151.83 142.857C146.42 142.857 142.03 138.457 142.03 133.057C142.03 127.647 146.43 123.257 151.83 123.257C157.24 123.257 161.63 127.657 161.63 133.057ZM102.81 201.687C102.81 207.097 98.4101 211.487 93.0101 211.487C87.6101 211.487 83.2101 207.087 83.2101 201.687C83.2101 196.277 87.6101 191.887 93.0101 191.887C98.4101 191.887 102.81 196.277 102.81 201.687Z" fill="#F1396D"/>
</g>
<defs>
<clipPath id="clip0_1_8956">
<rect width="500" height="500" fill="white" transform="translate(0 0.527344)"/>
</clipPath>
</defs>
</svg>
