<svg width="500" height="501" viewBox="0 0 500 501" fill="none" xmlns="http://www.w3.org/2000/svg">
<path d="M276.6 180.627C280.4 189.727 284.1 198.927 287.8 208.127C288.4 209.627 289.1 211.127 288.7 213.427C281.8 210.327 276 206.227 270.4 202.127C250.8 187.727 234.8 170.127 222.9 148.827C219.2 142.227 219.1 142.227 212.8 147.127C187.2 167.127 162.3 188.127 135.7 206.927C128.3 212.127 120.6 214.827 111.6 212.627C104.1 210.827 102.1 207.127 105.9 200.727C120.5 175.827 125.1 148.127 128.4 120.227C131.3 95.2273 137.4 71.5273 153.3 51.3273C163.3 38.6273 175.5 28.3273 189.9 20.8273C192 19.7273 194 17.9273 197.3 18.6273C198.2 27.1273 199.2 35.8273 200.2 44.8273C204.3 44.9273 205.8 41.4273 207.9 39.3273C220.8 26.0273 235.8 16.1273 253.6 10.7273C257.7 9.22734 281.3 6.52734 289 6.52734C291 8.32734 292.3 10.2273 292.5 13.2273C293.9 30.4273 289.4 45.6273 278.4 58.8273C274.4 63.6273 270.4 68.5273 266.4 73.3273C265.9 74.0273 264.8 75.3273 264.8 75.4273C266 76.6273 284.7 65.7273 293.4 61.5273C308.4 54.4273 323.6 48.1273 340.4 47.1273C347.1 46.7273 353.5 47.8273 359.8 50.3273C363.3 51.7273 363.5 53.5273 361.7 56.5273C354.4 68.2273 344.7 77.4273 333.9 85.7273C322 94.7273 309.3 102.427 295.7 108.627C294 109.427 292 109.927 290 112.527C314.7 119.227 339.6 125.227 356.8 147.327C340.8 154.727 325.3 155.327 309.6 152.927C292.5 150.327 276.9 143.427 263 132.927C260.8 131.327 255.4 127.127 254.7 127.827C254.1 128.527 269.6 163.627 276.6 180.627ZM194.1 111.327C194.3 107.527 191.1 103.927 187.2 103.627C183 103.327 179.8 106.027 179.6 110.327C179.4 114.727 181.9 117.627 186.3 117.827C190.7 118.027 193.9 115.327 194.1 111.327ZM146.8 103.827C142.7 104.027 140.1 106.627 140.1 110.627C140.1 114.727 143.2 117.827 147.5 117.827C151.8 117.827 154.9 114.627 154.7 110.527C154.5 106.527 151.1 103.627 146.8 103.827Z" fill="#FE6C02"/>
<path d="M324.5 10.4273C376 23.0273 414.9 53.4273 445.8 95.3273C451.5 103.027 456.7 111.227 461.3 120.027C456.7 123.227 451.5 123.727 446.4 124.127C426.7 125.827 407.9 121.627 390.1 113.827C372.6 106.127 354.7 100.327 333.5 100.327C338 96.8273 341.1 94.4273 344.2 91.9273C355.9 82.4273 366.2 71.8273 373.3 58.4273C377.6 50.2273 377 48.0273 369.2 43.0273C357.3 35.5273 344.2 35.0273 330.9 37.0273C320.3 38.6273 310.2 42.3273 299.2 46.6273C303.1 32.9273 306.2 19.9273 302.3 6.52734C304.4 6.52734 319.3 9.12734 324.5 10.4273Z" fill="#FE6C02"/>
<path d="M231.1 494.927C228.5 488.127 230.9 481.827 233.3 475.827C238 463.827 246 453.927 255.7 445.627C272.5 431.327 292.4 422.527 312.4 413.927C313 413.627 314 414.027 315.5 414.127C312 420.927 308.1 427.127 305.8 434.027C300.6 449.827 301.2 465.427 307.2 480.827C309.8 487.427 309.7 487.627 302.6 489.127C294.8 490.727 286.9 491.927 279 493.227C277.7 493.427 245.9 494.927 231.1 494.927Z" fill="#FE6C02"/>
<path d="M7.59961 254.827C20.6996 258.227 26.0996 268.827 30.2996 280.027C33.4996 288.527 37.0996 296.827 41.8996 304.527C44.6996 308.927 47.7996 313.127 50.6996 317.527C51.9996 319.527 53.9996 321.227 54.0996 324.027C49.1996 325.127 44.7996 322.727 40.0996 322.827C35.9996 322.927 31.7996 322.727 27.6996 322.927C17.8996 323.527 17.9996 323.627 15.2996 313.727C12.5996 303.927 10.8996 293.927 9.29961 283.827C9.19961 282.327 7.59961 263.127 7.59961 254.827Z" fill="#FE6C02"/>
<path d="M10.8 213.627C12.3 207.027 13.2 200.327 15.7 193.127C21.3 197.327 21.6 202.927 21.2 208.027C20.4 219.327 20.1 230.427 21.1 241.727C21.6 246.627 20.5 247.127 15.4 245.627C12.8 244.827 10.2 244.027 7.5 243.327C7.6 238.327 9.7 218.527 10.8 213.627Z" fill="#FE6C02"/>
<path d="M215.7 158.927C223.1 168.627 230.1 178.427 238.3 187.327C253.1 203.227 269.6 216.727 289.2 226.227C293.1 228.127 295 230.627 295.8 234.827C298.5 250.227 298.4 265.427 295.5 281.027C289.1 279.327 284.1 275.927 278.9 273.027C261.6 263.427 243.2 260.527 223.8 264.327C220.2 265.027 217.9 264.627 215.8 260.827C212.5 254.927 212.1 255.027 205.4 258.327C180.6 270.627 154.6 279.327 127.7 285.527C121.3 287.027 114.8 288.327 108.1 288.127C104.7 288.027 101.9 287.027 101.1 283.627C100.3 280.227 102.3 277.927 105.3 276.427C106.5 275.827 107.8 275.227 109.1 274.827C130.6 268.527 145.8 254.227 158.2 236.427C166.6 224.427 173.8 211.727 180 198.527C188 181.927 200.3 169.427 215.7 158.927Z" fill="#FE6C02"/>
<path d="M279.3 155.627C289.7 159.627 300 163.127 310.9 164.627C329.8 167.227 347.6 164.327 364.8 156.327C370.7 153.627 371.3 151.827 368.3 146.027C362.2 134.027 352.3 125.827 340.9 119.327C336.7 116.927 332.4 114.827 327 112.027C370.8 110.027 399 125.327 413.7 162.127C418.8 174.727 421.3 187.927 421.7 201.527C421.8 204.427 421.7 206.727 418.7 208.427C384.7 227.327 349.2 235.627 310.8 223.427C305.6 221.827 302.6 219.227 301.2 213.727C296.6 196.427 288.1 180.527 281.6 163.827C280.5 161.427 278.5 159.227 279.3 155.627Z" fill="#FE6C02"/>
<path d="M187 305.427C188.4 303.227 189.4 301.827 190.2 300.427C206.1 273.127 238.2 267.527 262.2 277.327C271.7 281.227 280.2 286.827 289.5 291.027C293.5 292.827 291.1 295.027 290.4 296.927C279.4 329.427 256.2 349.227 224.8 360.827C212.4 365.427 199.5 368.327 186.4 370.427C178.9 371.627 177.2 370.727 174 364.127C165 345.327 156 326.327 147.1 307.427C146.2 305.427 145.4 303.327 144.7 301.327C141.3 292.027 144.2 288.127 154.3 287.827C161 287.627 166.6 290.427 172.1 293.627C177.3 296.727 181.9 300.727 187 305.427Z" fill="#FE6C02"/>
<path d="M306.8 233.827C347.9 246.427 385.6 239.027 422.5 218.827C423.3 239.627 423.3 258.727 415.8 276.927C410.8 289.227 400.5 295.127 387.9 297.827C372.1 301.227 356.6 298.727 341.2 295.527C332.3 293.727 323.8 290.527 314.9 288.527C310.9 287.627 309.4 285.327 309.2 281.627C308.9 275.827 308.6 270.027 308.8 264.327C309.1 254.527 308.1 244.727 306.8 233.827Z" fill="#FE6C02"/>
<path d="M431.9 257.927C433.9 261.427 435.3 264.027 436.8 266.627C446.7 283.227 460.6 293.627 480.4 295.327C487.4 295.927 487.4 296.227 486.1 302.827C480.5 330.627 469.9 356.427 455 380.427C451.4 386.127 451.3 386.127 445.5 383.027C437.3 378.627 432.8 371.127 429.7 362.727C424.5 348.527 423.5 333.727 423.8 318.827C424.1 298.627 427.4 278.827 431.9 257.927Z" fill="#FE6C02"/>
<path d="M410.7 301.127C401.3 329.427 389.6 354.527 365.1 371.227C351.1 380.727 341.9 378.827 332.7 364.527C323.8 350.727 319.4 335.127 315.7 319.227C314.2 312.927 313.3 306.527 311.9 299.327C344.8 308.227 376.7 317.427 410.7 301.127Z" fill="#FE6C02"/>
<path d="M246 438.727C242 443.327 238.3 447.327 234.9 451.527C226.3 462.527 219.7 474.527 219.3 489.027C219.2 492.427 218 493.027 214.7 492.527C180.2 487.227 148.2 475.427 118.4 456.127C124.1 449.127 131.6 445.327 139.3 442.127C159.2 433.827 179.8 432.327 200.9 435.627C214.5 437.727 228.2 438.827 242.1 438.427C243.1 438.327 244.1 438.527 246 438.727Z" fill="#FE6C02"/>
<path d="M378.6 374.727C372 402.027 364.999 428.127 388.899 449.527C388.399 451.327 386.9 452.127 385.6 453.027C367.3 465.327 347.699 475.127 326.799 482.327C322.099 483.927 320 483.027 318.1 478.527C310.2 458.927 312.1 440.327 323.2 422.527C328.9 413.327 336.1 405.427 344.5 398.627C354.9 390.027 366.8 383.827 378.6 374.727Z" fill="#FE6C02"/>
<path d="M431.3 187.227C435.7 191.327 438.9 194.627 442.5 197.627C454.7 207.927 468.3 214.427 484.8 212.227C487.8 211.827 489.1 212.327 489.5 215.827C491.9 236.727 491.7 257.627 490.2 278.527C489.9 283.427 488.1 285.027 483.1 284.627C469 283.527 457.9 277.427 449.6 266.027C441.2 254.327 437.6 240.827 434.7 227.027C432.1 214.327 433.9 201.327 431.3 187.227Z" fill="#FE6C02"/>
<path d="M445.1 395.027C432.4 412.327 418.6 426.727 403 439.527C399.6 442.327 397.4 441.627 394.5 439.227C386.8 432.727 383.9 424.127 383.4 414.427C382.7 399.227 387.1 385.127 392.2 371.127C397.5 356.627 405.5 343.427 412.4 329.427C413.2 338.527 414.2 347.527 416.4 356.327C420.5 372.927 427.4 387.527 445.1 395.027Z" fill="#FE6C02"/>
<path d="M274 344.227C275.2 347.527 273.7 350.427 273.1 353.627C270.7 367.127 268.1 380.627 270.2 394.627C271.4 402.727 273.8 410.127 279.2 416.927C271.8 421.627 264 423.827 256 425.327C241.8 428.027 227.5 427.327 213.2 426.027C208.3 425.627 207.5 423.727 208.6 419.127C212.6 402.727 222.2 389.827 233.5 377.927C239.9 371.027 247.6 365.627 254.9 359.727C261.2 354.627 267.6 349.427 274 344.227Z" fill="#FE6C02"/>
<path d="M107.7 366.527C126.5 374.627 145.9 380.327 166.6 381.427C183 382.327 199 380.627 214.9 376.727C216.2 376.427 217.4 375.627 219 376.327C219.1 378.727 217.1 379.927 215.8 381.527C207 393.027 199.6 405.227 197.7 419.927C197.3 423.227 195.7 424.027 192.7 423.427C174.6 419.727 156.7 415.627 140 407.327C130.6 402.627 123.4 395.627 117.5 387.127C113.3 381.027 109.1 374.827 106.6 367.827C107 367.327 107.3 366.927 107.7 366.527Z" fill="#FE6C02"/>
<path d="M409.2 132.227C414.9 133.027 419.2 133.627 423.5 134.327C436.5 136.727 449.3 135.927 461.9 132.027C465.6 130.927 467.1 131.227 468.7 134.827C477.2 154.627 482.9 175.227 486.9 196.327C487.6 200.127 486.2 201.327 482.8 201.627C472.7 202.427 463.8 199.227 455.6 193.727C444.9 186.527 437 176.727 429.7 166.227C422.4 155.627 418 143.427 409.2 132.227Z" fill="#FE6C02"/>
<path d="M107 392.227C89.7004 389.127 73.5004 389.327 59.9004 402.827C43.4004 382.427 31.3004 360.227 21.9004 335.027C31.0004 333.427 39.6004 333.427 48.1004 335.027C67.3004 338.527 82.0004 349.127 92.2004 365.627C97.5004 373.927 101.8 382.827 107 392.227Z" fill="#FE6C02"/>
<path d="M301.5 304.127C304.3 321.927 308.4 338.927 315.3 355.227C321.9 370.727 327.1 377.227 340.2 386.727C324.9 395.627 309.3 403.527 293.4 410.927C290.4 412.327 288.7 411.227 287.1 409.127C282.7 403.527 281.1 396.927 280.6 389.927C279.6 374.927 282.6 360.327 286.1 345.927C289.1 333.627 293.2 321.727 297.6 309.927C298.4 308.027 298.4 305.527 301.5 304.127Z" fill="#FE6C02"/>
<path d="M152.7 425.227C137.2 429.827 123.1 436.127 111.3 446.827C108.8 449.027 107.1 448.427 104.9 446.727C92.5995 437.027 80.8995 426.727 70.4995 414.927C67.2995 411.327 68.5995 409.427 71.6995 407.227C81.1995 400.427 91.7995 400.727 102.5 402.827C110.3 404.427 117.7 407.427 124.7 411.327C133.7 416.327 142.8 421.427 152.7 425.227Z" fill="#FE6C02"/>
<path d="M106.6 367.727C105.9 367.427 105.3 366.927 105.9 366.227C106.5 365.527 107.1 366.127 107.7 366.527C107.3 366.927 107 367.327 106.6 367.727Z" fill="#FE6C02"/>
</svg>
