<svg width="500" height="501" viewBox="0 0 500 501" fill="none" xmlns="http://www.w3.org/2000/svg">
<path d="M494.8 250.127C494.8 317.927 467.2 379.327 422.7 423.727C378.4 467.827 317.3 495.127 249.8 495.127C182.3 495.127 121.2 467.827 76.9002 423.727C32.3002 379.327 4.7002 317.927 4.7002 250.127C4.7002 114.827 114.4 5.12736 249.7 5.12736C385.1 5.02736 494.8 114.727 494.8 250.127Z" fill="#FF6766"/>
<path d="M494.8 250.127C494.8 385.427 385.1 495.127 249.8 495.127C182.2 495.127 121.1 467.827 76.7998 423.627L423.2 77.0273C467.4 121.327 494.8 182.527 494.8 250.127Z" fill="#D95E59"/>
<path d="M422.7 423.727C378.4 467.827 317.3 495.127 249.8 495.127C182.3 495.127 121.2 467.827 76.9004 423.727C121.2 379.627 182.3 352.327 249.8 352.327C317.3 352.327 378.3 379.527 422.7 423.727Z" fill="#FEF4C8"/>
<path d="M250 150.827C266.955 150.827 280.7 137.083 280.7 120.127C280.7 103.172 266.955 89.4274 250 89.4274C233.045 89.4274 219.3 103.172 219.3 120.127C219.3 137.083 233.045 150.827 250 150.827Z" fill="#016273"/>
<path d="M250 89.5274C266.9 89.5274 280.7 103.227 280.7 120.227C280.7 137.227 267 150.927 250 150.927C233 150.927 219.3 137.227 219.3 120.227C219.3 103.227 233 89.5274 250 89.5274ZM250 58.7274C216.1 58.7274 188.5 86.3274 188.5 120.227C188.5 154.127 216.1 181.727 250 181.727C283.9 181.727 311.5 154.127 311.5 120.227C311.5 86.3274 283.9 58.7274 250 58.7274Z" fill="white"/>
</svg>
