<svg width="500" height="501" viewBox="0 0 500 501" fill="none" xmlns="http://www.w3.org/2000/svg">
<path d="M495.015 250.527C495.015 385.864 385.337 495.543 250 495.543C114.663 495.543 4.98438 385.864 4.98438 250.527C4.98438 115.191 114.663 5.51193 250 5.51193C385.337 5.51193 495.015 115.191 495.015 250.527Z" fill="#393534"/>
<path d="M466.518 252.631C466.518 371.037 370.509 467.045 252.103 467.045C133.696 467.045 37.688 371.037 37.688 252.631C37.688 134.224 133.696 38.2157 252.103 38.2157C370.509 38.2157 466.518 134.224 466.518 252.631Z" fill="#F2F2F2"/>
<path d="M333.221 190.887L179.272 348.306L175.907 284.897L268.76 190.887L307.248 150.927L332.17 142.725L350.257 147.457L367.187 161.548L346.787 184.998L333.221 190.887Z" fill="white"/>
<path d="M347.198 195.291L316.387 227.048H363.076L368.334 221.685C372.014 217.899 374.959 213.272 376.957 208.33C378.955 203.282 379.901 197.919 379.901 192.556C379.901 181.83 375.905 171.63 368.755 163.849L347.513 185.932C348.67 187.193 349.196 188.981 349.196 190.664C349.09 192.346 348.354 194.029 347.198 195.291Z" fill="#E1DED9"/>
<path d="M220.596 328.939L195.463 355.017H242.153L267.496 328.939H220.596Z" fill="#E1DED9"/>
<path d="M233.221 315.713H279.911L307.777 286.795H261.088L233.221 315.713Z" fill="#E1DED9"/>
<path d="M350.35 242.629H303.66L273.796 273.44H320.486L350.35 242.629Z" fill="#E1DED9"/>
<path d="M365.778 152.416C360.94 147.368 355.157 143.373 348.847 140.638C342.538 137.904 335.703 136.537 328.868 136.537C322.032 136.537 315.197 137.904 308.888 140.638C302.578 143.372 296.795 147.474 291.958 152.521L171.027 277.448C169.87 278.815 169.134 280.602 169.24 282.39V346.746L135.905 381.553H154.202L178.914 356H240.746C241.587 356 242.429 355.894 243.27 355.474C244.006 355.158 244.742 354.527 245.268 353.896L365.462 229.391L365.672 229.18C375.452 218.98 380.92 205.205 380.815 190.903C380.92 183.753 379.553 176.707 376.924 170.187C374.506 163.352 370.615 157.464 365.778 152.416ZM295.533 166.928L300.791 161.565C308.257 153.888 318.352 149.577 328.868 149.577C339.383 149.577 349.478 153.888 356.944 161.565C357.155 161.775 357.155 161.985 357.365 161.985C364.516 169.767 368.512 180.178 368.512 191.009C368.406 201.84 364.305 212.145 356.944 219.822L351.687 225.185H304.997L335.598 193.427C336.754 192.27 337.49 190.588 337.49 188.905C337.49 187.223 336.965 185.54 335.808 184.279C335.597 184.068 335.597 184.068 335.597 183.858C334.441 182.596 332.758 181.965 331.076 181.965C329.393 181.965 327.711 182.701 326.554 183.858L295.533 216.036L295.533 166.928ZM191.638 342.645L216.77 316.566H263.46L238.328 342.645H191.638ZM264.932 266.616L294.797 235.595H341.486L311.622 266.616H264.932ZM301.422 277.132L273.555 306.05H226.865L254.732 277.132H301.422ZM255.468 208.359L285.333 177.338V226.446L255.468 257.468V208.359ZM217.401 247.793L245.268 218.875V267.983L217.401 296.901V247.793ZM181.858 284.703L207.412 258.414V307.522L181.858 333.812" fill="#393534"/>
</svg>
