<svg width="500" height="501" viewBox="0 0 500 501" fill="none" xmlns="http://www.w3.org/2000/svg">
<path d="M322.6 17.0273V108.027C322.6 137.527 298.2 161.427 268.1 161.427H267.3C252.2 161.327 238.6 161.427 238.6 161.427C236 161.427 233.2 161.127 230.7 161.427C213.8 163.127 199 170.727 186.7 184.127C186.3 184.427 186 184.927 185.7 185.227C175.7 197.827 170.3 214.227 170.3 231.927V232.827C170.3 244.127 172.7 255.027 177 264.727C181.3 274.427 179.1 285.727 170.8 292.427C162.7 299.127 153.1 306.927 146.6 312.027C127.8 291.027 116.8 263.727 116.8 233.827V232.927C116.8 167.927 169.8 113.627 241.9 113.627C246.4 113.627 261.1 113.627 267.9 113.627V7.22734C262.2 6.82734 256.2 6.52734 250.3 6.52734C113 6.52734 1.7002 115.727 1.7002 250.527C1.7002 360.627 76.0002 453.627 178 483.927V393.627C178 363.827 202.6 339.627 233 339.627H233.3C248.4 339.727 262 339.627 262 339.627C264.6 339.627 267.4 339.927 269.9 339.627C286.8 337.927 301.6 330.327 313.9 316.927C314.3 316.627 314.6 316.127 314.9 315.827C324.9 303.227 330.3 286.827 330.3 269.127V268.227C330.3 259.427 326.5 247.527 322.7 238.027C318.5 227.327 321.7 215.127 330.6 207.927C338.3 201.627 346.1 195.327 353.9 189.227C372.7 210.227 383.7 237.527 383.7 267.427V268.327C383.7 333.327 330.7 387.627 258.6 387.627C254.1 387.627 239.4 387.627 232.6 387.627V493.927C238.4 494.327 244.3 494.627 250.3 494.627C387.6 494.627 498.9 385.427 498.9 250.627C498.9 140.427 424.6 47.4273 322.6 17.0273Z" fill="#1D8AED"/>
</svg>
