<svg width="500" height="501" viewBox="0 0 500 501" fill="none" xmlns="http://www.w3.org/2000/svg">
<g clip-path="url(#clip0_1_9041)">
<path fill-rule="evenodd" clip-rule="evenodd" d="M452.4 65.1273C420.9 33.3273 380.8 17.4273 332.4 17.4273H133.9V142.427V209.127C177.2 222.927 208.6 263.427 208.6 311.227C208.6 359.127 177.2 399.627 133.9 413.327V484.127H241.9V354.727H332.7C381.1 354.727 421.2 338.827 452.7 307.027C484.2 275.227 500.1 234.927 500.1 186.127C500 137.127 484.1 96.9273 452.4 65.1273ZM369.5 244.127C355.5 259.227 337.7 266.827 315.8 266.827H241.8V105.527H315.8C337.6 105.527 355.4 113.127 369.5 128.227C383.5 143.327 390.4 162.627 390.4 186.227C390.6 209.727 383.4 229.027 369.5 244.127Z" fill="black"/>
<path d="M78.2 390.227C121.4 390.227 156.4 355.227 156.4 312.027C156.4 268.827 121.4 233.827 78.2 233.827C35 233.827 0 268.827 0 312.027C0 355.227 35 390.227 78.2 390.227Z" fill="#FF3465"/>
</g>
<defs>
<clipPath id="clip0_1_9041">
<rect width="500" height="500" fill="white" transform="translate(0 0.527344)"/>
</clipPath>
</defs>
</svg>
