<svg width="500" height="501" viewBox="0 0 500 501" fill="none" xmlns="http://www.w3.org/2000/svg">
<path d="M448.198 99.2363L484.937 97.5143L450.638 106.986L448.198 99.2363Z" fill="#5D6CAC"/>
<path d="M448.198 99.2363L403.279 130.952L450.638 106.986L448.198 99.2363Z" fill="#495692"/>
<path d="M450.638 106.986L403.279 130.952L423.371 145.59L450.638 106.986Z" fill="#3F4B80"/>
<path d="M403.279 130.952L361.805 127.508L423.371 145.59L403.279 130.952Z" fill="#313A62"/>
<path d="M423.371 145.59L404.284 157.071L361.805 127.508L423.371 145.59Z" fill="#3F4B80"/>
<path d="M423.371 145.59L432.125 153.77L404.284 157.071L423.371 145.59Z" fill="#313A62"/>
<path d="M404.284 157.071L432.125 153.77L464.128 149.608L473.743 157.071H404.284Z" fill="#495692"/>
<path d="M404.284 157.071L424.806 171.709L473.743 157.071H404.284Z" fill="#4F60A3"/>
<path d="M464.128 149.608L491.969 125.355L473.743 157.071L464.128 149.608Z" fill="#3F4B80"/>
<path d="M491.969 125.355L497.673 127.508L473.743 157.071L491.969 125.355Z" fill="#4F60A3"/>
<path d="M491.969 125.355L496.561 111.435L497.673 127.508L491.969 125.355Z" fill="black"/>
<path d="M424.806 171.709L439.951 167.179L446.906 189.791L424.806 171.709Z" fill="#313A62"/>
<path d="M446.906 189.791L449.92 251.5L422.223 264.273L446.906 189.791Z" fill="#313A62"/>
<path d="M446.906 189.791L424.806 171.709L422.223 264.273L446.906 189.791Z" fill="#3F4B80"/>
<path d="M424.806 171.709L375.726 235.14L422.223 264.273L424.806 171.709Z" fill="#495692"/>
<path d="M424.806 171.709L368.837 177.019L375.726 235.14L424.806 171.709Z" fill="#3F4B80"/>
<path d="M424.806 171.709L361.805 127.508L368.837 177.019L424.806 171.709Z" fill="#4B5897"/>
<path d="M368.837 177.019L359.509 217.991L375.726 235.14L368.837 177.019Z" fill="#313A62"/>
<path d="M368.837 177.019L361.805 127.508L302.536 96.9304L368.837 177.019Z" fill="#313A62"/>
<path d="M368.837 177.019L359.509 217.991L302.536 96.9304L368.837 177.019Z" fill="#3F4B80"/>
<path d="M359.509 217.991L268.093 103.972L302.536 96.9304L359.509 217.991Z" fill="#4B5897"/>
<path d="M268.093 103.972L260.774 179.889L359.509 217.991L268.093 103.972Z" fill="#5161A4"/>
<path d="M260.774 179.889L250.585 248.056L359.509 217.991L260.774 179.889Z" fill="#4B5897"/>
<path d="M359.509 217.991L310.142 241.168L250.585 248.056L359.509 217.991Z" fill="#3F4B80"/>
<path d="M310.142 241.168L359.509 217.991L357.93 241.168H310.142Z" fill="#5161A4"/>
<path d="M310.142 241.168L327.506 287.234L357.93 241.168H310.142Z" fill="#4B5897"/>
<path d="M310.142 241.168L301.1 282.068L327.506 287.234L310.142 241.168Z" fill="#3F4B80"/>
<path d="M301.1 282.068L289.333 304.025L327.506 287.234L301.1 282.068Z" fill="#4B5897"/>
<path d="M301.1 282.068L266.658 319.237L289.333 304.025L301.1 282.068Z" fill="#313A62"/>
<path d="M301.1 282.068L273.547 284.077L266.658 319.237L301.1 282.068Z" fill="#3F4B80"/>
<path d="M310.142 241.168L251.59 268.435L250.585 248.056L310.142 241.168Z" fill="#313A62"/>
<path d="M250.585 248.056L190.024 258.102L251.59 268.435L250.585 248.056Z" fill="#3F4B80"/>
<path d="M250.585 248.056L159.313 194.24L260.774 179.889L250.585 248.056Z" fill="#3F4B80"/>
<path d="M260.774 179.889L268.093 103.972L159.313 194.24L260.774 179.889Z" fill="#4B5897"/>
<path d="M159.313 194.24L250.585 248.056L190.024 258.102L159.313 194.24Z" fill="#4B5897"/>
<path d="M159.313 194.24L190.024 258.102L160.748 280.059L159.313 194.24Z" fill="#313A62"/>
<path d="M159.313 194.24L119.847 284.651L160.748 280.059L159.313 194.24Z" fill="#3F4B80"/>
<path d="M159.313 194.24L107.793 211.461L119.847 284.651L159.313 194.24Z" fill="#4B5897"/>
<path d="M107.793 211.461L86.4099 234.279L119.847 284.651L107.793 211.461Z" fill="#5161A4"/>
<path d="M119.847 284.651L160.748 280.059L142.379 309.909L119.847 284.651Z" fill="#313A62"/>
<path d="M119.847 284.651L68.614 339.759L142.379 309.909L119.847 284.651Z" fill="#4B5897"/>
<path d="M119.847 284.651L86.41 291.109L68.614 339.759L119.847 284.651Z" fill="#313A62"/>
<path d="M119.847 284.651L86.4099 234.279V291.109L119.847 284.651Z" fill="#3F4B80"/>
<path d="M86.41 234.279L47.949 234.853L86.41 258.102V234.279Z" fill="#313A62"/>
<path d="M86.41 258.102L51.25 250.537L47.949 234.853L86.41 258.102Z" fill="#3F4B80"/>
<path d="M47.9489 234.853L29.1489 269.87L51.2499 250.537L47.9489 234.853Z" fill="#4B5897"/>
<path d="M51.25 250.537L29.149 269.87L27.571 281.494L51.25 250.537Z" fill="#5161A4"/>
<path d="M29.149 269.87L3.03003 277.619L27.571 281.494L29.149 269.87Z" fill="#313A62"/>
<path d="M68.614 339.759L96.01 328.673L72.202 378.22L68.614 339.759Z" fill="#3F4B80"/>
<path d="M68.614 339.759L58.282 384.391L72.202 378.22L68.614 339.759Z" fill="#1F243E"/>
<path d="M72.202 378.22L58.282 384.391L47.231 403.124L72.202 378.22Z" fill="#313A62"/>
<path d="M72.202 378.22L75.79 397.019L47.231 403.124L72.202 378.22Z" fill="#3F4B80"/>
</svg>
