<svg width="500" height="501" viewBox="0 0 500 501" fill="none" xmlns="http://www.w3.org/2000/svg">
<path opacity="0.9" d="M250 499.527C387.519 499.527 499 388.046 499 250.527C499 113.008 387.519 1.52734 250 1.52734C112.481 1.52734 1 113.008 1 250.527C1 388.046 112.481 499.527 250 499.527Z" fill="white"/>
<path d="M309.4 237.627C301.9 244.227 289.8 247.827 272.3 247.827H194.2V366.727H226.8V278.727H276.3C291.9 278.727 305.5 275.927 317 270.227C328.8 264.327 338 256.027 344.7 245.327C351.4 234.627 354.7 221.927 354.7 207.427C354.7 193.027 351.5 178.327 344.7 167.527C338.1 156.827 328.8 148.627 317 143.027C305.4 137.127 291.8 134.227 276.2 134.227H194V165.127H272.1C289.6 165.127 301.7 168.727 309.2 175.327C316.6 181.927 320.6 193.727 320.6 207.427C320.8 220.827 316.9 230.727 309.4 237.627Z" fill="url(#paint0_linear_1_9100)"/>
<path fill-rule="evenodd" clip-rule="evenodd" d="M499 250.527C499 388.027 387.5 499.527 250 499.527C112.5 499.527 1 388.027 1 250.527C1 113.027 112.5 1.52734 250 1.52734C387.5 1.52734 499 113.027 499 250.527ZM466.4 250.527C466.4 370.027 369.5 466.927 250 466.927C130.5 466.927 33.6 370.027 33.6 250.527C33.6 131.027 130.5 34.1273 250 34.1273C369.5 34.1273 466.4 131.027 466.4 250.527Z" fill="url(#paint1_linear_1_9100)"/>
<defs>
<linearGradient id="paint0_linear_1_9100" x1="274.613" y1="128.081" x2="273.731" y2="576.157" gradientUnits="userSpaceOnUse">
<stop stop-color="#FF2E72"/>
<stop offset="0.9349" stop-color="#4A125E"/>
</linearGradient>
<linearGradient id="paint1_linear_1_9100" x1="250.241" y1="128.033" x2="249.359" y2="576.109" gradientUnits="userSpaceOnUse">
<stop stop-color="#FF2E72"/>
<stop offset="0.9349" stop-color="#4A125E"/>
</linearGradient>
</defs>
</svg>
