<svg width="500" height="501" viewBox="0 0 500 501" fill="none" xmlns="http://www.w3.org/2000/svg">
<path d="M249.8 479.427C376.384 479.427 479 376.811 479 250.227C479 123.644 376.384 21.0273 249.8 21.0273C123.216 21.0273 20.6001 123.644 20.6001 250.227C20.6001 376.811 123.216 479.427 249.8 479.427Z" fill="black"/>
<path d="M249.8 2.32733C112.9 2.32733 1.8999 113.327 1.8999 250.227C1.8999 387.127 112.9 498.127 249.8 498.127C386.7 498.127 497.7 387.127 497.7 250.227C497.7 113.327 386.7 2.32733 249.8 2.32733ZM249.8 458.427C225.6 458.427 202.4 454.227 180.8 446.627V360.527C200.8 373.027 224.5 380.327 249.8 380.327C321.7 380.327 379.9 322.027 379.9 250.227C379.9 178.327 321.6 120.127 249.8 120.127C177.9 120.127 119.7 178.427 119.7 250.227V412.727C72.0999 374.527 41.5999 315.927 41.5999 250.227C41.5999 135.227 134.8 42.0273 249.8 42.0273C364.8 42.0273 458 135.227 458 250.227C458 365.227 364.8 458.427 249.8 458.427ZM179.7 250.227C179.7 211.527 211.1 180.127 249.8 180.127C288.5 180.127 319.9 211.527 319.9 250.227C319.9 288.927 288.5 320.327 249.8 320.327C211.1 320.227 179.7 288.927 179.7 250.227Z" fill="#00D1FF"/>
</svg>
