<svg width="500" height="501" viewBox="0 0 500 501" fill="none" xmlns="http://www.w3.org/2000/svg">
<g clip-path="url(#clip0_1_9106)">
<path fill-rule="evenodd" clip-rule="evenodd" d="M323.8 82.3273C317.4 75.9273 308.8 72.4273 299.8 72.4273H299.7C290.7 72.4273 282 76.0273 275.7 82.5273L9.90001 349.427C3.50001 355.827 -0.0999849 364.527 1.50937e-05 373.527C1.50937e-05 382.627 3.60002 391.127 10 397.627C16.4 404.027 25 407.527 34 407.527C43.1 407.527 51.7 403.927 58.2 397.527L323.9 130.627C337.1 117.127 337 95.6273 323.8 82.3273Z" fill="#2DB8E3"/>
<path fill-rule="evenodd" clip-rule="evenodd" d="M478 75.6273C465.3 70.3273 450.6 73.2273 440.9 83.1273L175.2 350.127C161.9 363.427 162 385.027 175.3 398.327C188.6 411.527 210.2 411.527 223.5 398.227L431 189.827V374.227C431 393.027 446.3 408.227 465.1 408.327C483.9 408.327 499.1 393.027 499.2 374.227V107.127C499.1 93.3273 490.8 80.8273 478 75.6273Z" fill="#3840C7"/>
</g>
<defs>
<clipPath id="clip0_1_9106">
<rect width="500" height="500" fill="white" transform="translate(0 0.527344)"/>
</clipPath>
</defs>
</svg>
