<svg width="500" height="501" viewBox="0 0 500 501" fill="none" xmlns="http://www.w3.org/2000/svg">
<g clip-path="url(#clip0_1_9109)">
<path d="M250 500.527C388.071 500.527 500 388.599 500 250.527C500 112.456 388.071 0.527344 250 0.527344C111.929 0.527344 0 112.456 0 250.527C0 388.599 111.929 500.527 250 500.527Z" fill="url(#paint0_linear_1_9109)"/>
<path d="M261.3 68.9273C318 68.9273 364 115.727 364 173.327V233.427C364 291.127 318 337.827 261.3 337.827C252.4 337.827 243.7 336.627 235.5 334.527V341.627C235.5 383.827 201.7 418.127 159.7 418.827H158.4V189.027H158.5V173.327C158.5 115.727 204.5 68.9273 261.3 68.9273ZM261.3 147.227C247.1 147.227 235.6 158.927 235.6 173.327V233.427C235.6 247.827 247.1 259.527 261.3 259.527C275.5 259.527 287 247.827 287 233.427V173.327C286.9 158.927 275.4 147.227 261.3 147.227Z" fill="white"/>
</g>
<defs>
<linearGradient id="paint0_linear_1_9109" x1="250" y1="0.527344" x2="250" y2="500.527" gradientUnits="userSpaceOnUse">
<stop stop-color="#7E46F2"/>
<stop offset="1" stop-color="#46279A"/>
</linearGradient>
<clipPath id="clip0_1_9109">
<rect width="500" height="500" fill="white" transform="translate(0 0.527344)"/>
</clipPath>
</defs>
</svg>
