<svg width="500" height="501" viewBox="0 0 500 501" fill="none" xmlns="http://www.w3.org/2000/svg">
<g clip-path="url(#clip0_1_9112)">
<path d="M250 0.527344C388.1 0.527344 500 112.427 500 250.527C500 388.627 388.1 500.527 250 500.527C111.9 500.527 0 388.627 0 250.527C0 112.427 111.9 0.527344 250 0.527344Z" fill="#FEE45D"/>
<path d="M250 313.027C250 278.527 222 250.527 187.5 250.527C153 250.527 125 278.527 125 313.027C125 347.527 153 375.527 187.5 375.527C222 375.527 250 347.527 250 313.027Z" fill="black"/>
<path d="M268.3 357.227C292.7 381.627 332.3 381.627 356.7 357.227C381.1 332.827 381.1 293.227 356.7 268.827L268.3 357.227Z" fill="black"/>
<path d="M294.2 294.727C318.6 270.327 318.6 230.727 294.2 206.327C269.8 181.927 230.2 181.927 205.8 206.327L294.2 294.727Z" fill="black"/>
<path d="M356.7 232.227C381.1 207.827 381.1 168.227 356.7 143.827C332.3 119.427 292.7 119.427 268.3 143.827L356.7 232.227Z" fill="black"/>
<path d="M231.7 143.827C207.3 119.427 167.7 119.427 143.3 143.827C118.9 168.227 118.9 207.827 143.3 232.227L231.7 143.827Z" fill="black"/>
</g>
<defs>
<clipPath id="clip0_1_9112">
<rect width="500" height="500" fill="white" transform="translate(0 0.527344)"/>
</clipPath>
</defs>
</svg>
