<svg width="500" height="501" viewBox="0 0 500 501" fill="none" xmlns="http://www.w3.org/2000/svg">
<g clip-path="url(#clip0_1_9119)">
<path opacity="0.73" d="M166.7 83.8273L250.1 0.427338L333.5 83.8273L250.1 167.227L166.7 83.8273Z" fill="#00CDD7"/>
<path opacity="0.43" d="M166.7 417.127L250.1 333.727L333.5 417.127L250.1 500.527L166.7 417.127Z" fill="#00CDD7"/>
<path opacity="0.48" d="M94.3999 353.127L208.3 322.627L238.8 436.527L124.9 467.027L94.3999 353.127Z" fill="#00CDD7"/>
<path opacity="0.18" d="M261 64.5273L375 34.0273L405.5 147.927L291.6 178.427L261 64.5273Z" fill="#00CDD7"/>
<path opacity="0.53" d="M33.3999 375.527L63.8999 261.627L177.8 292.127L147.3 406.027L33.3999 375.527Z" fill="#00CDD7"/>
<path opacity="0.23" d="M322 208.727L352.5 94.8273L466.4 125.327L435.9 239.227L322 208.727Z" fill="#00CDD7"/>
<path opacity="0.58" d="M0 250.527L83.4 167.127L166.8 250.527L83.4 333.927L0 250.527Z" fill="#00CDD7"/>
<path opacity="0.28" d="M333.2 250.327L416.6 166.927L500 250.327L416.6 333.727L333.2 250.327Z" fill="#00CDD7"/>
<path opacity="0.63" d="M33.3 125.427L147.2 94.9273L177.7 208.827L63.8 239.327L33.3 125.427Z" fill="#00CDD7"/>
<path opacity="0.33" d="M321.9 292.127L435.8 261.627L466.3 375.527L352.4 406.027L321.9 292.127Z" fill="#00CDD7"/>
<path opacity="0.68" d="M94.3999 147.927L124.9 34.0273L238.8 64.5273L208.3 178.427L94.3999 147.927Z" fill="#00CDD7"/>
<path opacity="0.38" d="M261.1 436.527L291.6 322.627L405.5 353.127L375 467.027L261.1 436.527Z" fill="#00CDD7"/>
</g>
<defs>
<clipPath id="clip0_1_9119">
<rect width="500" height="500" fill="white" transform="translate(0 0.527344)"/>
</clipPath>
</defs>
</svg>
