<svg width="500" height="501" viewBox="0 0 500 501" fill="none" xmlns="http://www.w3.org/2000/svg">
<g clip-path="url(#clip0_1_9132)">
<path d="M250 500.527C388.071 500.527 500 388.599 500 250.527C500 112.456 388.071 0.527344 250 0.527344C111.929 0.527344 0 112.456 0 250.527C0 388.599 111.929 500.527 250 500.527Z" fill="url(#paint0_linear_1_9132)"/>
<path d="M250 270.027L410.2 233.827C401.8 153.127 333.3 90.3273 250 90.3273C166.7 90.3273 98.2 153.127 89.8 233.827L250 270.027Z" fill="white"/>
<path d="M93 285.427C95.2 296.027 98.8 306.227 103.2 315.827L250.2 325.427L397.2 315.827C401.7 306.227 404.9 295.927 407.4 285.427L250.4 297.627L93 285.427Z" fill="white"/>
<path d="M171.5 390.227C194.9 403.027 221.5 410.727 250 410.727C278.5 410.727 305.4 403.327 328.5 390.227H171.5Z" fill="white"/>
<path d="M250 348.527L119.3 344.027C126 353.627 134 362.327 142.7 369.927H357.3C365.9 362.227 374 353.627 380.7 344.027L250 348.527Z" fill="white"/>
</g>
<defs>
<linearGradient id="paint0_linear_1_9132" x1="250" y1="512.833" x2="250" y2="0.527344" gradientUnits="userSpaceOnUse">
<stop stop-color="#A32CCD"/>
<stop offset="1" stop-color="#FE453D"/>
</linearGradient>
<clipPath id="clip0_1_9132">
<rect width="500" height="500" fill="white" transform="translate(0 0.527344)"/>
</clipPath>
</defs>
</svg>
