<svg width="500" height="501" viewBox="0 0 500 501" fill="none" xmlns="http://www.w3.org/2000/svg">
<path d="M494.875 249.777C495.637 384.191 385.02 494.572 249.98 494.527C115.317 494.482 5.15681 384.47 5.05281 249.602C4.95081 118.54 110.397 4.28433 250.525 4.52733C390.087 4.77033 495.984 118.76 494.875 249.777ZM324.899 381.418C326.766 379.86 327.895 379.137 328.75 378.171C335.603 370.426 342.92 363.023 349.117 354.781C363.566 335.565 372.606 313.975 374.504 289.836C376.604 263.124 369.967 238.398 356.187 215.555C337.792 185.064 311.544 163.103 280.238 147C240.431 126.524 197.83 118.561 153.303 119.969C151.609 120.023 149.928 120.467 147.865 120.787C147.865 122.393 147.865 123.741 147.865 125.089C147.868 172.499 147.811 219.91 147.944 267.32C147.961 273.516 148.412 279.814 149.582 285.888C155.599 317.128 170.902 342.643 197.474 360.681C221.983 377.319 249.698 382.106 278.694 381.358C280.181 381.32 282.13 379.841 283.009 378.481C294.09 361.322 299.872 342.427 300.399 322.053C301.115 294.347 292.912 268.96 279.318 245.16C262.513 215.738 239.381 192.071 212.221 172.13C211.199 171.38 210.246 170.537 209.261 169.737C209.439 169.438 209.616 169.14 209.794 168.841C210.873 169.265 211.991 169.609 213.024 170.125C228.678 177.948 243.635 186.906 257.52 197.594C288.4 221.362 310.36 251.277 320.602 289.247C327.947 316.478 328.447 344.132 325.651 371.987C325.374 374.747 325.207 377.519 324.899 381.418Z" fill="#3CB055"/>
<path d="M324.899 381.418C325.206 377.519 325.373 374.748 325.65 371.987C328.446 344.132 327.947 316.478 320.601 289.247C310.359 251.278 288.399 221.362 257.519 197.594C243.634 186.906 228.676 177.949 213.023 170.125C211.99 169.609 210.872 169.265 209.793 168.841C209.615 169.14 209.438 169.438 209.26 169.737C210.245 170.537 211.198 171.38 212.22 172.13C239.379 192.071 262.512 215.738 279.317 245.16C292.911 268.96 301.114 294.347 300.398 322.053C299.872 342.428 294.089 361.323 283.008 378.481C282.129 379.841 280.18 381.32 278.693 381.358C249.696 382.105 221.981 377.318 197.473 360.681C170.902 342.643 155.599 317.128 149.581 285.888C148.411 279.814 147.96 273.517 147.943 267.32C147.81 219.91 147.866 172.499 147.864 125.089C147.864 123.741 147.864 122.393 147.864 120.787C149.927 120.466 151.609 120.022 153.302 119.969C197.829 118.561 240.431 126.524 280.237 147C311.544 163.104 337.792 185.064 356.186 215.555C369.966 238.398 376.603 263.123 374.503 289.836C372.605 313.975 363.565 335.565 349.116 354.781C342.918 363.023 335.601 370.426 328.749 378.171C327.896 379.136 326.767 379.86 324.899 381.418Z" fill="white"/>
</svg>
