<svg width="500" height="501" viewBox="0 0 500 501" fill="none" xmlns="http://www.w3.org/2000/svg">
<path d="M76.1999 305.327L19.1999 237.427C7.5999 223.427 8.9999 202.727 22.4999 190.527L219.6 12.5273C232.6 0.827332 252.5 1.42733 264.7 13.8273L326.4 76.6273C331.2 81.5273 339 81.7273 344.1 77.2273L403.8 24.0273C412.1 16.6273 424.8 17.3273 432.3 25.6273L447.7 42.9273C455.1 51.2273 454.4 63.9273 446.1 71.4273L346.8 160.027C338.6 167.327 326.1 166.927 318.4 159.127L250.1 89.5273C244.6 83.9273 235.7 83.7273 229.9 88.9273L96.6999 209.127C90.8999 214.327 90.2999 223.227 95.2999 229.227L124.9 264.527C132.1 273.027 130.9 285.727 122.4 292.927L104.6 307.827C96.0999 314.927 83.3999 313.827 76.1999 305.327Z" fill="#43878D"/>
<path d="M422.7 194.927L479.7 262.827C491.4 276.727 490 297.427 476.5 309.627L279.4 487.627C266.4 499.327 246.5 498.727 234.3 486.327L172.6 423.527C167.8 418.627 160 418.427 154.9 422.927L95.2002 476.127C86.9002 483.527 74.2002 482.827 66.7002 474.527L51.3002 457.227C43.9002 448.927 44.6002 436.227 52.9002 428.727L152.2 340.127C160.4 332.827 172.9 333.227 180.6 341.027L249 410.627C254.5 416.227 263.4 416.427 269.2 411.227L402.3 291.027C408.1 285.827 408.7 276.927 403.7 270.927L374.1 235.627C366.9 227.127 368.1 214.427 376.6 207.227L394.4 192.327C402.9 185.227 415.6 186.327 422.7 194.927Z" fill="#74C2C2"/>
</svg>
