<svg width="500" height="501" viewBox="0 0 500 501" fill="none" xmlns="http://www.w3.org/2000/svg">
<path d="M389.197 250.127C389.197 330.781 389.163 411.435 389.295 492.089C389.302 496.292 388.36 497.467 384.024 497.46C294.93 497.323 205.835 497.321 116.741 497.46C112.311 497.467 111.085 496.54 111.089 491.923C111.225 330.771 111.22 169.62 111.108 8.46884C111.105 4.23609 112.106 3.08959 116.431 3.09634C205.682 3.23309 294.933 3.23059 384.183 3.10084C388.268 3.09484 389.309 3.99159 389.301 8.16584C389.16 88.8196 389.196 169.473 389.197 250.127ZM204.324 301.619C204.324 305.839 204.324 310.06 204.324 314.281C204.324 363.834 204.32 413.388 204.335 462.942C204.336 465.279 203.416 467.902 207.707 467.86C226.776 467.671 245.849 467.73 264.919 467.831C267.661 467.845 268.399 466.888 268.322 464.292C268.16 458.825 268.273 453.351 268.273 447.88C268.272 413.333 268.294 378.786 268.228 344.239C268.223 341.55 268.438 338.962 271.12 337.951C273.516 337.047 276.226 336.546 278.788 336.582C293.982 336.8 309.01 335.444 324.026 333.108C339.727 330.665 347.774 320.728 347.913 305.601C348.305 262.929 348.077 220.251 348.02 177.576C348.013 171.859 348.173 166.179 347.121 160.425C345.269 150.293 339.705 143.597 330.267 140.186C317.659 135.629 304.275 135.012 291.165 134.648C264.298 133.902 237.397 134.423 210.509 134.417C204.357 134.416 204.322 134.444 204.322 140.764C204.321 194.382 204.321 248 204.324 301.619Z" fill="#1A1A19"/>
<path d="M193.663 235.713C193.666 267.592 193.588 299.471 193.761 331.349C193.784 335.537 192.573 336.718 188.47 336.567C179.418 336.233 170.346 336.488 161.287 336.29C155.533 336.165 153.656 334.338 152.637 328.545C152.369 327.019 152.253 325.448 152.253 323.897C152.235 266.078 152.235 208.259 152.244 150.44C152.246 135.661 153.787 134.144 168.609 134.144C175.329 134.144 182.058 134.36 188.764 134.058C192.76 133.879 193.75 135.323 193.734 139.14C193.603 171.33 193.66 203.522 193.663 235.713Z" fill="#CCB749"/>
<path d="M186.001 79.8181C186.055 53.4284 206.856 33.3496 234.024 33.4639C259.569 33.5714 280.648 54.5139 280.484 79.6236C280.312 105.991 259.145 127.194 233.058 127.131C207.186 127.068 185.948 105.715 186.001 79.8181Z" fill="#CCB749"/>
<path d="M268.269 233.841C268.273 211.803 268.341 189.764 268.204 167.726C268.182 164.265 268.782 162.981 272.711 162.897C280.957 162.722 284.991 163.709 285.093 175.396C285.451 216.5 285.237 257.61 285.227 298.717C285.225 305.648 277.015 310.598 270.838 307.374C268.416 306.111 268.223 303.854 268.229 301.364C268.291 278.857 268.265 256.349 268.269 233.841Z" fill="#1A1A19"/>
</svg>
