<svg width="500" height="501" viewBox="0 0 500 501" fill="none" xmlns="http://www.w3.org/2000/svg">
<path d="M3 497.194C3 332.639 3 168.083 3 3.52734C167.556 3.52734 332.111 3.52734 496.667 3.52734C496.667 168.082 496.667 332.638 496.667 497.194C332.111 497.194 167.556 497.194 3 497.194ZM438.585 61.7223C312.015 61.7223 186.884 61.7223 61.354 61.7223C61.354 187.864 61.354 312.985 61.354 438.429C187.575 438.429 312.637 438.429 438.585 438.429C438.585 312.448 438.585 187.622 438.585 61.7223Z" fill="url(#paint0_linear_1_9150)"/>
<path d="M97.5967 98.5613C98.8797 98.4993 191.635 97.6153 219.232 97.5703C269.579 97.4883 313.998 137.137 320.905 188.2C326.193 227.297 314.646 261.269 284.783 287.926C267.685 303.188 247.165 309.856 224.333 309.748C209.119 309.676 193.905 309.734 177.298 309.734C177.298 342.229 177.298 372.736 177.298 403.925C150.083 403.925 124.326 403.925 97.5967 403.925C97.5967 302.292 97.5967 201.259 97.5967 98.5613ZM178.152 171.002C178.152 193.053 178.152 214.174 178.152 236.017C193.503 236.017 207.675 236.352 221.811 235.785C225.416 235.641 229.562 233.358 232.336 230.827C243.596 220.556 243.504 187.369 232.179 177.139C229.077 174.337 224.72 171.474 220.807 171.278C206.77 170.574 192.676 171.002 178.152 171.002Z" fill="url(#paint1_linear_1_9150)"/>
<path d="M402.191 346.598C402.191 365.886 402.191 383.705 402.191 402.827C339.505 402.827 277.345 402.827 214.413 402.827C214.413 384.128 214.413 365.74 214.413 346.598C277.036 346.598 338.941 346.598 402.191 346.598Z" fill="#F36F1F"/>
<defs>
<linearGradient id="paint0_linear_1_9150" x1="249.833" y1="3.52744" x2="249.833" y2="496.304" gradientUnits="userSpaceOnUse">
<stop stop-color="#118EBE"/>
<stop offset="0.9995" stop-color="#254562"/>
</linearGradient>
<linearGradient id="paint1_linear_1_9150" x1="209.871" y1="95.6785" x2="209.871" y2="406.375" gradientUnits="userSpaceOnUse">
<stop stop-color="#118EBE"/>
<stop offset="0.9995" stop-color="#254562"/>
</linearGradient>
</defs>
</svg>
