<svg width="500" height="501" viewBox="0 0 500 501" fill="none" xmlns="http://www.w3.org/2000/svg">
<path fill-rule="evenodd" clip-rule="evenodd" d="M136 118.127H364C377 118.127 384.5 132.827 376.8 143.327L268.3 292.527C260.7 303.027 268.2 317.727 281.1 317.727H376.7C381.8 317.727 386.5 315.327 389.5 311.227L497 163.627C501 158.027 501 150.527 497 144.927L402.9 15.5273C399.9 11.4273 395.1 9.02734 390.1 9.02734H110C104.9 9.02734 100.2 11.4273 97.2 15.5273L3 144.927C-1 150.527 -1 158.027 3 163.627L237.2 485.527C243.5 494.227 256.5 494.227 262.9 485.527L310.7 419.727C314.7 414.127 314.7 406.627 310.7 401.027L123.1 143.327C115.5 132.827 123 118.127 136 118.127Z" fill="#5294FF"/>
</svg>
