<svg width="500" height="501" viewBox="0 0 500 501" fill="none" xmlns="http://www.w3.org/2000/svg">
<g clip-path="url(#clip0_1_9156)">
<path d="M319.2 124.227L46.4003 395.927C-33.6997 283.327 -7.39967 127.127 105.1 46.9274C217.6 -33.2726 373.9 -6.87263 454 105.727C458.3 111.727 462.2 117.827 465.9 124.127L319.2 124.227Z" fill="#DFF141"/>
<path d="M346.3 191.027L91.9996 444.427C85.1996 438.927 78.6996 433.027 72.5996 426.827L336 164.327H484.9C488.1 173.127 490.8 182.027 493 191.027H346.3ZM390.2 298.327H495.4C468.8 433.927 337.3 522.327 201.6 495.727C199 495.227 196.5 494.627 193.9 494.127L390.2 298.327Z" fill="#DFF141"/>
<path d="M500 250.227C500 252.927 500 255.527 499.9 258.227H373.5L150.8 480.027C142.3 476.327 134 472.227 125.9 467.627L363.1 231.227H499.3C499.8 237.427 500 243.827 500 250.227Z" fill="#DFF141"/>
</g>
<defs>
<clipPath id="clip0_1_9156">
<rect width="500" height="500" fill="white" transform="translate(0 0.527344)"/>
</clipPath>
</defs>
</svg>
