<svg width="500" height="501" viewBox="0 0 500 501" fill="none" xmlns="http://www.w3.org/2000/svg">
<path d="M235.634 119.505C147.732 125.068 106.536 187.921 99.2877 200.332H98.6285C89.3815 200.34 81.8925 207.842 81.9005 217.089C81.9035 220.311 82.8355 223.464 84.5865 226.169C82.1885 230.673 72.5427 250.526 70.3827 282.218L48.0455 260.237C43.6935 256.25 42.1796 250.03 44.2117 244.489C70.0057 163.576 131.639 124.269 131.639 124.269C140.027 128.131 149.958 124.462 153.82 116.074C154.584 114.414 155.071 112.639 155.262 110.821C250.314 67.1724 330.796 101.78 347.624 110.087C347.632 119.339 355.138 126.834 364.391 126.827C367.162 126.825 369.888 126.135 372.327 124.821C382.583 132.027 392.109 140.221 400.767 149.286L378.926 171.126C340.354 127.974 282.275 119.949 265.738 118.512C261.44 110.332 251.324 107.185 243.144 111.483C239.808 113.235 237.162 116.062 235.634 119.505ZM387.804 371.534C385.03 374.502 385.187 379.157 388.155 381.931C389.524 383.211 391.33 383.92 393.205 383.913H454.546V394.174C454.552 424.294 430.14 448.715 400.02 448.721C400.013 448.721 400.006 448.721 399.998 448.721H101.879C71.7595 448.727 47.3386 424.315 47.3326 394.195C47.3326 394.188 47.3326 394.181 47.3326 394.173V383.912L106.924 383.826C110.078 383.873 112.956 382.032 114.236 379.149C115.57 376.164 114.911 372.664 112.583 370.367L15.3696 274.072C5.12961 263.939 1.38166 248.947 5.64866 235.187C20.7707 186.473 71.2786 76.7304 222.304 53.3674C222.304 53.3674 333.558 39.3254 411.329 108.454C411.329 108.454 481.463 163.757 495.58 243.472C497.427 253.917 494.122 266.49 486.582 273.943L387.804 371.534ZM64.6036 396.874C64.6036 417.157 81.0457 433.599 101.329 433.599H399.448C419.73 433.599 436.173 417.157 436.173 396.874H64.6036ZM469.322 268.597C475.779 262.191 478.22 252.769 475.684 244.035C467.226 215.141 442.2 150.916 381.053 109.568C380.779 100.349 373.084 93.0984 363.865 93.3724C361.155 93.4534 358.505 94.1924 356.145 95.5264C250.864 44.6194 162.216 88.1814 148.531 95.5804C141.113 90.0804 130.641 91.6344 125.141 99.0524C123.001 101.937 121.848 105.435 121.852 109.027C121.855 110.06 121.953 111.09 122.144 112.105L121.852 111.727C59.4517 151.692 35.5377 216.393 26.3567 243.504C23.7497 251.196 25.7536 259.701 31.5196 265.42L144.028 379.029C147.325 382.365 152.671 382.494 156.125 379.321C159.675 376.06 159.908 370.539 156.647 366.989C156.547 366.881 156.445 366.775 156.341 366.672L149.374 356.551C126.173 314.782 134.717 275.324 145.345 251.95L180.385 273.045C164.489 312.304 183.427 357.015 222.686 372.912C261.945 388.808 306.656 369.87 322.553 330.611C335.615 298.353 325.318 261.344 297.473 240.468L317.164 206.336C339.609 223.964 395.604 279.786 345.518 368.454C342.994 372.504 344.231 377.834 348.282 380.358C351.769 382.531 356.304 381.948 359.128 378.964L469.322 268.597ZM411.059 160.669L384.055 188.504C381.017 191.649 376.004 191.735 372.86 188.696C372.728 188.568 372.6 188.435 372.476 188.298C359.838 174.148 324.647 141.787 263.987 136.797C258.193 143.996 247.661 145.135 240.462 139.341C239.482 138.552 238.594 137.655 237.815 136.667C215.475 138.288 193.705 144.471 173.849 154.835L188.075 181.612C188.48 182.376 189.428 182.667 190.192 182.262C190.206 182.254 190.221 182.246 190.235 182.238C258.857 144.703 323.87 188.395 323.87 188.395C408.121 246.723 380.037 333.134 380.037 333.134L414.98 298.202C417.065 265.798 406.63 241.981 402.332 233.718C393.081 233.222 385.984 225.32 386.48 216.069C386.976 206.818 394.878 199.721 404.129 200.217C413.38 200.713 420.477 208.615 419.981 217.866C419.832 220.639 418.997 223.332 417.551 225.703C426.97 243.223 431.204 270.626 432.5 280.671L456.101 257.081C459.169 254.013 459.19 249.52 457.84 245.351C445.613 208.131 427.737 180.382 411.059 160.669ZM190.883 201.196C186.616 203.53 181.265 201.981 178.904 197.729L159.98 162.981C141.372 175.289 125.672 191.508 113.977 210.507C117.591 218.998 113.638 228.812 105.146 232.426C103.862 232.973 102.514 233.356 101.134 233.568C90.4836 249.295 86.7677 282.088 85.5907 297.167L120.404 331.386C116.516 312.159 108.857 251.456 154.731 208.25C155.65 207.39 157.087 207.418 157.971 208.315L167.552 217.885C168.46 218.799 168.456 220.276 167.542 221.184C167.51 221.216 167.477 221.246 167.444 221.276C161.77 226.355 156.797 232.167 152.657 238.558L187.47 259.61C208.541 227.668 249.933 216.145 284.478 232.606L304.482 197.955C254.947 171.643 208.306 191.712 190.883 201.196ZM99.1676 207.85C93.7986 207.85 89.4466 212.202 89.4466 217.571C89.4466 222.94 93.7986 227.292 99.1676 227.292C104.537 227.292 108.889 222.94 108.889 217.571C108.89 212.202 104.537 207.85 99.1676 207.85ZM139.134 99.8364C133.765 99.8364 129.413 104.188 129.413 109.557C129.413 114.926 133.766 119.278 139.134 119.278C144.502 119.278 148.855 114.926 148.855 109.557C148.855 104.188 144.503 99.8364 139.134 99.8364ZM251.469 117.118C246.1 117.118 241.748 121.47 241.748 126.839C241.748 132.208 246.101 136.56 251.469 136.56C256.837 136.56 261.19 132.208 261.19 126.839C261.19 121.47 256.837 117.118 251.469 117.118ZM364.883 99.8364C359.514 99.8364 355.162 104.188 355.162 109.557C355.162 114.926 359.515 119.278 364.883 119.278C370.251 119.278 374.604 114.926 374.604 109.557C374.604 104.188 370.252 99.8364 364.883 99.8364ZM403.768 207.85C398.399 207.85 394.047 212.202 394.047 217.571C394.047 222.94 398.399 227.292 403.768 227.292C409.137 227.292 413.489 222.94 413.489 217.571C413.49 212.202 409.137 207.85 403.768 207.85Z" fill="url(#paint0_linear_1_9160)"/>
<defs>
<linearGradient id="paint0_linear_1_9160" x1="249.912" y1="497.345" x2="249.912" y2="100.823" gradientUnits="userSpaceOnUse">
<stop offset="0.13" stop-color="#0987FB"/>
<stop offset="0.14" stop-color="#0989FB"/>
<stop offset="0.53" stop-color="#05A3FD"/>
<stop offset="0.87" stop-color="#00C7FF"/>
</linearGradient>
</defs>
</svg>
