<svg width="500" height="501" viewBox="0 0 500 501" fill="none" xmlns="http://www.w3.org/2000/svg">
<g clip-path="url(#clip0_1_9162)">
<path d="M432 415.927C432 425.627 423.2 433.527 413.5 433.527C413.5 433.527 142.8 433.527 142 433.527C132.3 433.527 123.5 425.627 123.5 415.027V408.827C123.5 407.927 124.4 395.627 132.3 380.627C145.5 355.927 170.2 338.327 205.5 325.927L313.9 289.827C316.5 288.927 338.6 281.027 359.7 262.527C389.7 236.927 405.5 202.527 406.4 163.827L414.3 169.127C432 180.527 432 200.727 432 201.627V415.927ZM339.4 162.827C339.4 182.227 332.3 198.127 318.2 211.327C306.7 221.927 294.4 226.327 293.5 227.227L185.1 263.327C120.8 284.527 89 321.527 74.1 348.927C71.5 354.227 68.8 359.527 67 364.827C67 365.727 66.1 365.727 66.1 366.627V202.527C66.1 183.127 81.1 171.627 83.7 169.927L231.8 72.9274C248.6 61.4274 266.2 72.9274 266.2 72.9274L339.4 121.427V162.827ZM499 412.327V202.527C499 192.827 496.4 144.327 451.4 114.327L407.3 85.2273V19.1273C407.3 8.52735 398.5 0.62735 388.8 0.62735H359.7C349.1 0.62735 341.2 8.52735 341.2 19.1273V41.1273L304.2 16.4274C276.9 -1.17265 233.7 -8.27265 195.8 16.4274L47.6 113.527C38.8 118.727 0 147.827 0 201.627V411.527C0 431.827 4.4 448.527 14.1 462.627C21.2 474.127 31.7 482.927 44.1 489.027C66.1 499.627 87.3 500.527 88.2 500.527H411.8C412.7 500.527 433.8 500.527 455.9 489.027C469.1 482.827 478.8 474.027 486.8 462.627C494.6 449.427 499 432.627 499 412.327Z" fill="#38A6FA"/>
</g>
<defs>
<clipPath id="clip0_1_9162">
<rect width="500" height="500" fill="white" transform="translate(0 0.527344)"/>
</clipPath>
</defs>
</svg>
