<svg width="500" height="501" viewBox="0 0 500 501" fill="none" xmlns="http://www.w3.org/2000/svg">
<g clip-path="url(#clip0_1_9167)">
<path d="M384.9 117.627L383.5 116.227C382.8 115.527 382.8 115.527 382.1 114.827L309.4 188.127C310.1 188.827 310.1 188.827 310.8 189.527L312.2 190.927C394.1 274.227 410.5 362.627 386.3 387.027C377.8 395.627 362.8 397.827 352.1 397.127C305.8 396.427 243.1 363.327 191.8 312.327L190.4 310.927C189.7 310.227 189.7 310.227 189 309.527L116.3 382.827C117 383.527 117 383.527 117.7 384.227L119.1 385.627C190.4 456.727 276.6 499.827 350 500.527C350.7 500.527 352.1 500.527 352.9 500.527C395.6 500.527 432 486.127 458.3 459.627C497.5 420.127 508.9 359.827 489.6 290.127C473.9 231.127 436.2 169.327 384.9 117.627Z" fill="url(#paint0_linear_1_9167)"/>
<path d="M105 147.827C105 137.027 106.4 121.927 115 113.327C122.1 106.127 133.5 103.227 147.8 103.227C158.5 103.227 170.6 105.427 183.4 108.927C224.7 120.427 270.3 149.127 309.5 188.627L382.2 115.327C330.2 63.6273 269.7 26.2273 211.3 9.72733C142 -9.47267 82.2002 1.32733 42.3002 41.5273C15.2002 68.8273 1.7002 106.127 1.7002 150.727C3.1002 225.427 45.2002 312.327 115.7 384.227L189.1 308.827C138.5 257.727 105.7 194.527 105 147.827Z" fill="url(#paint1_linear_1_9167)"/>
</g>
<defs>
<linearGradient id="paint0_linear_1_9167" x1="259.349" y1="436.016" x2="541.242" y2="175.26" gradientUnits="userSpaceOnUse">
<stop stop-color="#00FFFF"/>
<stop offset="1" stop-color="#5900F7" stop-opacity="0"/>
</linearGradient>
<linearGradient id="paint1_linear_1_9167" x1="-85.39" y1="348.795" x2="267.933" y2="55.6592" gradientUnits="userSpaceOnUse">
<stop stop-color="#5900F7" stop-opacity="0"/>
<stop offset="1" stop-color="white"/>
</linearGradient>
<clipPath id="clip0_1_9167">
<rect width="500" height="500" fill="white" transform="translate(0 0.527344)"/>
</clipPath>
</defs>
</svg>
