<svg width="500" height="501" viewBox="0 0 500 501" fill="none" xmlns="http://www.w3.org/2000/svg">
<g clip-path="url(#clip0_1_9170)">
<path d="M105.7 339.327V394.027H160.5V380.327H235.8V500.427C109.6 493.627 6.8 390.127 0 264.127H120.4V338.327L105.7 339.327Z" fill="#005CC7"/>
<path d="M338.6 380.327V394.027H393.4V339.327H379.7V265.127H500C493.2 391.127 389.4 493.627 263.2 500.427V380.327H338.6Z" fill="#005CC7"/>
<path d="M235.8 123.527H339.5V106.927H394.3V167.527H339.5V150.927H235.8V264.227L353.2 265.227V339.427H339.5V353.127H160.5V339.427H147.8V161.627H161.5V106.927H106.7V161.627H120.4V235.827H0C6.8 109.927 110.6 7.32734 235.8 0.527344V123.527Z" fill="#005CC7"/>
</g>
<defs>
<clipPath id="clip0_1_9170">
<rect width="500" height="500" fill="white" transform="translate(0 0.527344)"/>
</clipPath>
</defs>
</svg>
