<svg width="500" height="501" viewBox="0 0 500 501" fill="none" xmlns="http://www.w3.org/2000/svg">
<path d="M227.394 425.691C243.008 416.303 258.22 416.916 273.209 426.832C313.64 404.913 353.923 383.075 394.353 361.157C394.154 343.624 401.598 330.648 416.992 322.431C416.992 275.445 416.992 228.623 416.992 183.001C411.64 178.074 406.565 174.101 402.357 169.359C396.532 162.793 394.09 154.711 394.555 145.92C394.698 143.223 393.903 141.689 391.465 140.4C379.2 133.913 281.371 79.5014 272.875 74.8134C257.42 84.7414 241.804 84.8854 226.182 74.8464C219.972 78.3384 118.028 135.522 108.981 140.459C107.229 141.415 105.953 142.419 105.981 144.753C106.18 161.243 98.5991 173.153 84.3431 181.06C84.0571 181.219 83.8181 181.463 83.3561 181.825C83.3561 228.496 83.3561 275.307 83.3561 322.367C89.4491 325.698 94.9841 329.845 99.0891 335.744C104.979 344.207 106.826 353.46 105.511 363.607C104.674 370.066 102.482 375.854 98.6001 381.027C88.9301 393.911 75.9641 398.659 60.2091 396.602C52.1171 395.545 44.5781 392.391 39.0241 386.875C34.8131 382.693 31.9291 376.588 29.9861 370.823C24.9391 355.848 28.2521 342.209 39.1101 330.75C42.3391 327.343 46.5911 324.905 50.8361 321.671C50.8361 275.584 50.8361 228.887 50.8361 181.948C48.6641 180.554 46.3561 179.241 44.2281 177.681C27.5611 165.456 23.3311 144.438 32.8961 125.511C38.9291 113.572 49.5461 109.408 61.3721 107.144C70.4391 105.409 79.0901 107.45 86.9221 112.38C89.1731 113.797 91.0791 113.922 93.3831 112.608C111.632 102.203 207.302 48.3034 210.205 46.6204C209.831 32.7974 214.376 21.1024 225.218 12.4534C232.468 6.66936 240.916 3.87036 250.313 3.98936C267.738 4.20936 289.389 18.2004 288.856 46.5574C291.957 48.3334 295.205 50.2324 298.488 52.0684C313.327 60.3704 398.46 107.999 406.64 112.688C408.728 113.885 410.535 114.306 412.804 112.877C426.005 104.562 439.335 105.563 453.192 111.692C471.786 119.916 477.771 149.988 466.9 165.521C464.626 168.77 462.186 171.996 459.328 174.715C456.463 177.44 452.982 179.517 449.379 182.167C449.379 228.547 449.379 275.35 449.379 322.418C461.096 328.329 469.003 337.499 471.644 350.582C473.683 360.681 471.477 370.103 466.737 379.228C461.128 390.026 451.433 394.306 440.462 396.317C429.427 398.34 418.965 396.378 409.828 389.169C369.336 411.202 329.059 433.119 288.659 455.102C288.846 468.712 284.44 480.249 273.794 488.737C265.638 495.24 256.115 497.972 245.689 496.991C226.624 495.197 208.594 478.686 210.457 453.096C200.698 447.114 190.695 440.983 180.863 434.957C163.575 441.227 146.299 437.351 139.493 425.742C131.181 411.565 130.993 393.425 149.34 379.446C149.34 328.348 149.34 277.187 149.34 226.163C131.695 213.675 130.44 194.943 139.512 179.587C143.885 172.185 151.39 169.46 159.143 167.619C167.136 165.72 174.812 167.301 182.097 171.338C190.376 166.856 212.623 155.18 215.275 153.385C216.541 152.528 217.785 150.804 217.982 149.331C219.697 136.544 229.011 125.904 241.77 122.509C253.679 119.34 267.361 124.086 274.73 134.161C277.906 138.503 280.004 143.375 280.87 148.779C281.081 150.098 282.02 151.816 283.126 152.398C295.418 158.863 307.807 165.142 320.175 171.461C320.36 171.555 320.608 171.525 320.827 171.551C337.271 164.652 355.354 167.247 362.204 177.249C371.966 191.502 373.494 210.346 355.616 225.027C355.892 228.983 358.141 260.668 358.912 272.319C359.134 275.674 359.695 278.606 362.049 281.454C373.05 294.767 371.098 310.861 361.448 323.183C358.662 326.74 353.532 328.755 349.13 330.684C341.813 333.891 334.231 333.636 326.658 330.996C325.294 330.521 323.309 330.686 322.009 331.344C309.019 337.921 296.088 344.617 283.225 351.439C282.099 352.036 281.051 353.691 280.852 354.99C278.543 370.072 266.004 381.65 251.148 382.218C235.479 382.816 221.966 372.631 218.539 357.637C218.415 357.096 218.147 356.525 218.224 356.009C219.077 350.267 215.376 347.762 211.09 345.358C206.362 342.707 201.865 339.644 197.144 336.684C197.711 325.061 198.265 313.705 198.864 301.451C201.54 302.859 223.332 315.546 232.491 320.802C233.683 321.486 235.589 321.983 236.738 321.516C246.344 317.609 255.637 318.222 264.79 322.851C265.279 323.098 265.811 323.258 266.641 323.583C274.197 319.69 299.089 306.89 303.719 304.246C304.777 303.642 305.967 302.187 306.021 301.071C306.679 287.547 313.142 278.003 325.287 272.193C325.58 272.053 325.827 271.817 326.592 271.272C325.593 256.845 324.574 242.122 323.532 227.08C313.328 221.375 307.319 212.661 306.021 200.444C292.939 193.749 279.721 186.984 266.57 180.253C255.367 186.251 244.368 186.664 233.077 180.549C221.273 186.92 209.47 193.29 197.546 199.725C196.511 210.847 191.53 219.616 181.977 225.782C181.977 276.923 181.977 328.094 181.977 379.457C191.622 385.994 197.185 395.005 197.497 407.334C207.317 413.366 217.23 419.451 227.394 425.691Z" fill="url(#paint0_linear_1_9179)"/>
<defs>
<linearGradient id="paint0_linear_1_9179" x1="36.7372" y1="120.717" x2="463.805" y2="383.659" gradientUnits="userSpaceOnUse">
<stop stop-color="#DE3925"/>
<stop offset="1" stop-color="#F17F0B"/>
</linearGradient>
</defs>
</svg>
