<svg width="500" height="501" viewBox="0 0 500 501" fill="none" xmlns="http://www.w3.org/2000/svg">
<g clip-path="url(#clip0_1_9181)">
<path fill-rule="evenodd" clip-rule="evenodd" d="M250 0.527344C44.8999 0.527344 0.899902 44.6273 0.899902 250.527C0.899902 456.427 44.8999 500.527 250 500.527C455.1 500.527 499.1 456.427 499.1 250.527C499.1 44.6273 455.1 0.527344 250 0.527344ZM278.2 123.027C293.5 124.627 308.3 129.527 321.6 137.327C342.5 150.227 357 172.127 357 203.927C357 235.727 342.6 258.227 322.2 272.227C309 281.027 293.9 286.727 278.2 288.927V317.227H239.2V290.327H211.9V356.227H231.1V395.327H154V356.227H173.2V160.927H154V121.827H239.4V97.3273H278.3L278.2 123.027ZM258.8 251.227H212.1V160.927H258.8C274.8 160.927 290.4 163.827 301.3 170.627C310.9 176.527 318.1 185.927 318.1 203.927C318.1 221.927 310.8 232.927 300.3 239.927C287.9 247.627 273.4 251.627 258.8 251.227Z" fill="url(#paint0_linear_1_9181)"/>
</g>
<defs>
<linearGradient id="paint0_linear_1_9181" x1="250" y1="0.527344" x2="250" y2="500.527" gradientUnits="userSpaceOnUse">
<stop stop-color="#5CC6F6"/>
<stop offset="1" stop-color="#007AFF"/>
</linearGradient>
<clipPath id="clip0_1_9181">
<rect width="500" height="500" fill="white" transform="translate(0 0.527344)"/>
</clipPath>
</defs>
</svg>
