<svg width="500" height="501" viewBox="0 0 500 501" fill="none" xmlns="http://www.w3.org/2000/svg">
<g clip-path="url(#clip0_1_9183)">
<path d="M-0.0999756 40.5273H140.6L235 191.827L313.9 40.5273H466.5C466.5 40.5273 405.7 150.427 371.3 211.927C338.3 207.627 306.8 195.427 279.6 176.327C279.6 176.327 328.6 235.527 499.1 285.427C322.1 279.227 189.5 173.327 134.6 116.927C140.5 145.627 154.1 172.127 174 193.527C82.8 139.227 -0.0999756 40.5273 -0.0999756 40.5273Z" fill="url(#paint0_linear_1_9183)"/>
<path d="M337 275.927L235.3 460.527C235.3 460.527 165.7 336.927 132.2 274.827C157.4 288.527 184.6 298.027 212.7 303.227C145.3 276.627 77.6 219.527 6.40002 140.727C85.4 201.127 152.5 236.127 256.2 279.027C236.8 261.527 220.5 240.727 208 217.827C249.3 240.827 292.4 260.227 337 275.927Z" fill="url(#paint1_linear_1_9183)"/>
</g>
<defs>
<linearGradient id="paint0_linear_1_9183" x1="249.54" y1="40.5336" x2="249.54" y2="285.413" gradientUnits="userSpaceOnUse">
<stop stop-color="#7D0753"/>
<stop offset="1" stop-color="#F55D0E"/>
</linearGradient>
<linearGradient id="paint1_linear_1_9183" x1="171.685" y1="140.698" x2="171.685" y2="460.539" gradientUnits="userSpaceOnUse">
<stop stop-color="#7D0753"/>
<stop offset="1" stop-color="#F55D0E"/>
</linearGradient>
<clipPath id="clip0_1_9183">
<rect width="500" height="500" fill="white" transform="translate(0 0.527344)"/>
</clipPath>
</defs>
</svg>
