<svg width="500" height="501" viewBox="0 0 500 501" fill="none" xmlns="http://www.w3.org/2000/svg">
<g clip-path="url(#clip0_1_9186)">
<path d="M299.9 200.527C299.9 228.127 277.6 250.527 250 250.527V300.527C305.1 300.527 349.7 255.727 349.7 200.527C349.7 145.327 305 100.527 250 100.527C231.8 100.527 214.8 105.427 200.1 113.927C170.3 131.227 150.2 163.527 150.2 200.527V450.527L195 495.527L200 500.527V200.527C200 172.927 222.3 150.527 249.9 150.527C277.5 150.527 299.9 172.927 299.9 200.527Z" fill="#110F23"/>
<path d="M250 0.527344C213.7 0.527344 179.6 10.2273 150.3 27.3273C131.5 38.2273 114.7 52.0273 100.4 68.3273C69.4 103.527 50.5 149.827 50.5 200.527V350.527L100.4 400.527V200.527C100.4 156.127 119.7 116.227 150.3 88.7273C164.7 75.8273 181.6 65.6273 200.2 59.1273C215.7 53.5273 232.5 50.5273 250 50.5273C332.6 50.5273 399.6 117.727 399.6 200.527C399.6 283.327 332.6 350.527 250 350.527V400.527C360.2 400.527 449.5 310.927 449.5 200.527C449.5 90.1273 360.2 0.527344 250 0.527344Z" fill="#110F23"/>
</g>
<defs>
<clipPath id="clip0_1_9186">
<rect width="500" height="500" fill="white" transform="translate(0 0.527344)"/>
</clipPath>
</defs>
</svg>
