<svg width="500" height="501" viewBox="0 0 500 501" fill="none" xmlns="http://www.w3.org/2000/svg">
<path d="M250.524 496.285C116.679 499.791 3.43301 383.968 3.55601 249.792C3.67501 118.685 113.643 3.25833 250.486 3.20333C385.08 3.14933 497.62 116 497.425 250.437C497.228 386.897 381.969 499.89 250.524 496.285ZM459.99 250.427C460.009 135.236 366.51 40.7623 252.359 40.6303C135.624 40.4953 41.115 133.575 41.017 248.777C40.918 365.261 134.238 459.547 249.684 459.602C365.959 459.657 459.971 366.151 459.99 250.427ZM469.578 242.374C475.838 242.01 481.153 241.702 486.814 241.373C486.814 238.839 486.814 237.202 486.814 235.02C480.826 235.547 475.316 236.033 469.578 236.538C469.578 238.461 469.578 239.915 469.578 242.374ZM13.866 235.003C14.033 237.432 14.146 239.076 14.306 241.403C20.274 241.403 25.767 241.403 31.871 241.403C31.555 239.512 31.289 237.918 31.039 236.421C25.25 235.943 20.097 235.517 13.866 235.003ZM201.151 18.0863C202.344 24.1473 203.414 29.5843 204.604 35.6283C206.743 35.1763 208.312 34.8453 210.458 34.3923C209.342 28.5623 208.339 23.3183 207.247 17.6073C205.002 17.7833 203.377 17.9113 201.151 18.0863ZM296.523 35.4633C297.706 29.2133 298.701 23.9573 299.809 18.1043C297.447 18.1043 295.685 18.1043 293.491 18.1043C292.522 23.8613 291.643 29.0823 290.693 34.7263C293.036 35.0233 294.469 35.2043 296.523 35.4633ZM321.993 476.476C320.077 470.161 318.519 465.027 316.818 459.42C314.792 459.958 313.19 460.383 311.006 460.962C312.623 466.507 314.119 471.64 315.754 477.244C317.868 476.984 319.48 476.785 321.993 476.476ZM184.122 459.249C182.34 465.442 180.819 470.727 179.298 476.013C180.301 476.5 181.304 476.987 182.307 477.474C189.173 474.613 187.109 466.567 190.068 460.953C187.748 460.288 186.302 459.874 184.122 459.249ZM112.109 420.201C108.127 425.253 104.793 429.484 101.009 434.284C103.089 435.508 104.646 436.424 106.348 437.426C110.017 432.773 113.228 428.701 116.737 424.251C115.199 422.905 113.937 421.801 112.109 420.201ZM479.742 189.591C473.571 191.208 468.055 192.654 462.022 194.236C463.124 196.608 463.833 198.132 464.627 199.841C469.989 198.415 474.955 197.093 480.375 195.651C480.16 193.595 479.99 191.973 479.742 189.591ZM21.153 189.507C21.153 192.161 21.153 193.931 21.153 195.918C26.595 197.27 31.554 198.503 36.85 199.819C37.47 197.689 37.934 196.095 38.529 194.051C32.846 192.565 27.651 191.207 21.153 189.507ZM464.04 147.434C458.248 150.195 453.409 152.502 448.1 155.032C449.184 157.058 449.967 158.521 450.935 160.329C456.228 157.895 461.11 155.649 466.387 153.221C465.584 151.241 464.96 149.701 464.04 147.434ZM34.612 153.215C39.89 155.644 44.773 157.891 50.062 160.326C51.037 158.519 51.827 157.055 52.944 154.986C47.445 152.42 42.425 150.077 36.944 147.519C36.054 149.692 35.424 151.231 34.612 153.215ZM170.407 45.7793C167.932 39.8803 165.794 34.7843 163.397 29.0693C161.079 30.6873 159.728 31.6293 158.217 32.6843C160.557 38.1203 162.672 43.0343 164.912 48.2363C166.972 47.3143 168.359 46.6943 170.407 45.7793ZM403.945 93.9313C408.502 89.1063 412.18 85.2123 416.226 80.9273C414.854 79.2153 413.795 77.8933 412.287 76.0133C407.706 80.9203 403.947 84.9473 399.433 89.7823C401.07 91.2873 402.171 92.2993 403.945 93.9313ZM100.992 89.1023C96.871 84.7483 93.099 80.7623 88.972 76.4013C87.318 78.4263 86.271 79.7083 85.024 81.2353C89.041 85.4463 92.732 89.3153 96.795 93.5743C98.386 91.8793 99.511 90.6803 100.992 89.1023ZM336.287 48.2773C338.631 42.5173 340.662 37.5273 342.867 32.1113C340.864 31.2343 339.353 30.5733 337.301 29.6753C335.004 35.2973 332.907 40.4313 330.682 45.8773C332.697 46.7393 334.09 47.3363 336.287 48.2773ZM349.677 446.326C352.442 451.516 354.962 456.245 357.704 461.392C359.709 460.297 361.169 459.5 363.039 458.48C360.212 453.168 357.608 448.275 354.73 442.867C352.695 444.261 351.325 445.198 349.677 446.326ZM146.127 442.756C143.125 448.707 140.637 453.639 137.905 459.055C140.253 459.859 141.818 460.394 143.661 461.025C146.292 455.959 148.679 451.365 151.304 446.31C149.685 445.198 148.315 444.258 146.127 442.756ZM400.012 434.184C395.982 429.163 392.607 424.958 388.947 420.397C387.234 421.735 385.917 422.764 384.132 424.158C387.79 428.737 391.148 432.94 394.786 437.493C396.517 436.397 397.94 435.496 400.012 434.184ZM456.187 366.785C451.143 363.823 446.533 361.115 441.485 358.15C440.369 360.113 439.557 361.54 438.417 363.545C443.629 366.55 448.402 369.302 453.624 372.313C454.655 370.088 455.354 368.58 456.187 366.785ZM47.629 372.315C53.095 369.084 57.685 366.37 62.741 363.381C61.393 361.332 60.495 359.967 59.347 358.222C54.31 361.212 49.714 363.941 44.691 366.922C45.706 368.784 46.498 370.238 47.629 372.315ZM456.004 326.163C462.082 328.273 467.284 330.08 472.942 332.044C473.538 329.755 473.95 328.175 474.46 326.216C468.99 324.284 463.987 322.517 458.661 320.636C457.784 322.461 457.15 323.78 456.004 326.163ZM28.345 332.091C33.96 330.061 39.133 328.191 45.2 325.997C43.797 323.687 42.889 322.192 41.952 320.649C36.363 322.706 31.56 324.474 26.366 326.386C27.069 328.41 27.609 329.968 28.345 332.091ZM468.278 279.609C467.74 281.921 467.367 283.524 466.888 285.58C472.927 286.392 478.412 287.129 484.804 287.988C484.434 285.264 484.191 283.482 483.965 281.819C478.525 281.053 473.867 280.397 468.278 279.609ZM34.519 285.512C33.657 283.161 33.086 281.602 32.383 279.687C27.14 280.422 22.285 281.103 16.9 281.858C16.9 283.861 16.9 285.637 16.9 287.957C22.777 287.141 28.09 286.404 34.519 285.512ZM56.06 114.381C61.364 118.176 65.747 121.312 70.66 124.828C71.892 122.804 72.837 121.253 73.888 119.528C69.091 116.119 64.871 113.119 60.26 109.842C58.892 111.321 57.765 112.538 56.06 114.381ZM426.746 119.835C428.303 121.684 429.481 123.081 430.806 124.654C435.691 121.046 440.02 117.849 445.006 114.167C443.181 112.433 441.885 111.202 440.567 109.949C435.847 113.324 431.802 116.218 426.746 119.835ZM133.802 64.5893C130.287 59.2363 127.251 54.6123 123.942 49.5713C121.985 51.1163 120.684 52.1433 119.071 53.4173C122.311 58.2983 125.269 62.7553 128.398 67.4693C130.267 66.4733 131.584 65.7713 133.802 64.5893ZM83.273 391.357C78.165 395.835 74.117 399.384 68.964 403.901C70.697 405.577 71.913 406.753 73.378 408.171C78.54 403.666 82.731 400.009 87.613 395.749C85.847 393.961 84.775 392.877 83.273 391.357ZM431.24 403.118C426.666 399.172 422.444 395.529 417.884 391.595C416.43 393.52 415.423 394.853 414.196 396.477C418.64 400.331 422.71 403.861 427.124 407.689C428.617 406.032 429.751 404.772 431.24 403.118ZM376.813 49.8343C373.465 54.9893 370.546 59.4843 367.347 64.4093C369.307 65.5613 370.718 66.3903 372.632 67.5153C375.896 62.4863 378.892 57.8723 382.085 52.9523C380.024 51.7343 378.734 50.9703 376.813 49.8343ZM253.209 30.5103C253.209 24.5813 253.209 19.4333 253.209 13.7753C251.311 13.7753 249.72 13.7753 247.865 13.7753C247.865 19.5813 247.865 24.8993 247.865 30.5103C249.737 30.5103 251.236 30.5103 253.209 30.5103ZM225.853 468.229C225.199 474.093 224.606 479.411 223.954 485.256C226.453 485.43 228.092 485.544 229.949 485.673C230.594 480 231.177 474.875 231.815 469.268C229.62 468.886 227.995 468.603 225.853 468.229ZM269.091 469.367C269.85 475.34 270.501 480.463 271.219 486.113C273.306 485.627 274.923 485.25 277.118 484.738C276.398 478.981 275.739 473.71 275.029 468.023C272.75 468.539 271.291 468.869 269.091 469.367Z" fill="#1441F2"/>
<path d="M315.185 339.273C321.452 344.985 327.724 350.565 333.835 356.317C338.654 360.853 339.998 366.209 334.999 371.223C330.125 376.111 325.007 374.411 320.662 369.918C314.022 363.052 307.499 356.073 300.582 348.779C277.957 360.371 254.422 356.238 231.43 356.414C194.574 356.697 163.507 325.548 163.199 288.646C162.94 257.666 162.927 226.68 163.183 195.699C163.491 158.366 191.784 128.046 229.262 126.379C248.003 125.545 267.314 125.508 285.597 129.066C316.367 135.054 337.58 163.466 337.818 194.88C338.048 225.178 337.713 255.48 337.976 285.777C338.141 304.77 331.473 320.84 318.842 334.709C317.953 335.683 317.184 336.767 315.185 339.273ZM301.297 325.082C313.113 313.891 318.926 301.876 319.035 287.56C319.269 257.051 319.176 226.538 319.088 196.028C319.01 169.051 297.727 146.715 270.771 145.718C257.13 145.213 243.437 145.211 229.798 145.75C203.261 146.799 182.006 169.185 181.921 195.777C181.824 226.288 181.826 256.799 181.923 287.31C181.995 310.095 198.951 332.672 221.281 335.873C238.439 338.333 256.156 337.021 273.626 337.077C277.049 337.088 280.476 335.681 287.133 334.217C280.597 328.59 275.852 324.74 271.382 320.594C266.574 316.136 264.908 310.821 270.153 305.783C275.359 300.783 280.558 302.699 285.009 307.444C290.291 313.075 295.489 318.786 301.297 325.082Z" fill="#1441F2"/>
</svg>
