<svg width="500" height="501" viewBox="0 0 500 501" fill="none" xmlns="http://www.w3.org/2000/svg">
<path d="M294.2 429.227C280.1 432.627 265.4 434.527 250.3 434.527C148.6 434.527 66.2 352.127 66.2 250.527C66.2 148.927 148.6 66.4273 250.2 66.4273C351.8 66.4273 434.3 148.827 434.3 250.527C434.3 268.127 431.8 285.227 427.2 301.327C449.4 307.027 468.8 319.627 483.1 336.627C493 309.827 498.4 280.827 498.4 250.527C498.4 113.427 387.3 2.32733 250.2 2.32733C113.1 2.32733 2 113.427 2 250.527C2 387.627 113.1 498.727 250.2 498.727C277.1 498.727 303 494.427 327.3 486.527C310.9 471.527 299 451.727 294.2 429.227Z" fill="#255C84"/>
<path d="M400.1 480.127C440.914 480.127 474 447.041 474 406.227C474 365.414 440.914 332.327 400.1 332.327C359.286 332.327 326.2 365.414 326.2 406.227C326.2 447.041 359.286 480.127 400.1 480.127Z" fill="#255C84"/>
</svg>
