<svg width="500" height="501" viewBox="0 0 500 501" fill="none" xmlns="http://www.w3.org/2000/svg">
<g clip-path="url(#clip0_1_9196)">
<path d="M248.5 157.927C240 150.227 223.2 139.527 193.9 139.627C164.7 139.727 169.4 154.827 169.4 154.827C169.4 154.827 168.8 167.127 187.9 167.527C207 167.927 227.5 168.627 244.1 174.927C260.7 181.127 257 165.627 248.5 157.927ZM179.4 186.027C177.6 187.127 177.2 190.027 179.2 190.427C190.7 192.527 209 196.327 229.4 193.027C231.3 192.727 231 190.127 229.6 188.727C222.5 181.727 203.1 171.827 179.4 186.027Z" fill="#151619"/>
<path d="M419.6 383.727C418.8 382.627 417.2 382.327 416.1 383.127C415.7 383.427 415.3 383.827 415.2 384.327C403.3 419.627 393.6 411.027 389.1 403.427C387.5 400.727 386.4 397.827 385.6 394.827C374.3 349.727 384.6 308.127 384.6 308.127C390.8 327.327 407 333.027 415.2 334.727C416.6 335.027 417.9 334.127 418.2 332.727C418.3 332.127 418.2 331.527 417.9 331.027C386.1 268.827 404.9 242.427 404.9 242.427C410.4 248.527 419.4 249.027 425.1 248.727C426.5 248.627 427.6 247.427 427.5 246.027C427.5 245.427 427.2 244.927 426.9 244.527C403.9 219.127 402.1 210.527 401.2 167.427C400.7 143.627 392.3 131.027 384.5 124.527C375.6 117.027 368.5 107.527 364.6 96.5274C333.7 9.22736 275.6 -2.27263 221.6 1.02737C154.7 5.12737 119 56.3274 102.1 81.8274C84.2 108.827 70.3 148.727 71.2 160.927C72.1 173.127 83.4 171.227 83.4 185.327C83.4 199.427 61.6 211.227 70.2 250.827C74 268.327 89.3 281.427 82.4 321.327C70.1 393.127 125.1 480.327 138.8 493.327C140.5 494.927 143.4 493.627 143.1 491.327C141 475.327 144.1 453.027 144.1 453.027C171.7 512.127 248.8 501.127 273 496.127C274.4 495.827 275.3 494.527 275 493.127C274.8 492.427 274.4 491.727 273.7 491.427C249.3 478.427 243.7 452.127 243.7 452.127C268 463.627 283.5 461.727 291 459.227C292.3 458.827 293 457.327 292.6 456.027C292.4 455.427 292 455.027 291.5 454.727C284.2 450.127 273 431.227 264.6 412.627C257.5 397.027 260.1 378.727 271.1 365.627C281 353.827 293.9 337.427 308.6 319.927C311.7 316.227 316 319.827 317.6 323.827C339.1 377.627 367.1 418.227 386.3 429.427C400.3 438.027 415.6 439.627 422.5 434.227C441.5 419.327 426.5 393.527 419.6 383.727ZM186.9 333.627C163.8 335.027 169.1 305.027 152.2 305.827C134.1 306.627 139.5 329.527 127.3 330.827C115.1 332.127 116.6 297.227 125.1 293.227C138.6 286.827 154.3 285.327 166.9 285.727C181.8 286.227 196.1 285.627 202.8 300.027C210.8 317.027 210 332.327 186.9 333.627ZM332.7 119.527C302 137.727 300.2 146.727 295.9 178.727C294.9 185.727 293.9 194.027 297.2 198.627C304.5 209.127 318.3 216.927 314.5 234.627C305.5 276.827 281.6 326.427 249.6 341.927C245.7 343.827 241.3 340.027 240.4 335.827C236.8 319.127 228.3 288.627 226 278.727C214.6 221.827 160.3 221.027 158.8 231.927C158.4 235.127 169.8 239.427 177.1 241.827C183.8 244.027 184 253.527 177.4 255.827C175.7 256.427 173.8 256.627 172 256.727C158.6 255.827 141.5 256.827 133.9 257.427C128.6 257.827 123.8 254.127 122.9 248.827C119.9 231.427 125.2 225.127 131.6 208.627C134.8 200.427 138.9 183.827 140.3 175.227C141 170.627 140.7 165.127 140.2 161.027C139.6 156.127 139.4 151.227 139.5 146.327C140 130.527 141.5 117.627 153.6 117.627C175.3 117.627 221.1 117.727 228.4 107.027C236 95.8274 193.5 106.727 147.9 105.227C146.1 105.127 144.5 103.727 144.4 101.927C144.4 101.627 144.3 101.327 144.3 101.127C144 97.9274 146.4 95.1274 149.6 94.8274C149.7 94.8274 149.9 94.8274 150 94.8274C174.4 94.5274 192.9 92.8274 197.8 85.7274C202.8 78.4274 178.1 81.7274 150.2 81.9274C146.6 81.9274 143.7 81.8274 143.9 78.3274V78.2274C144.1 75.3274 146.4 72.9274 149.3 72.7274C165.7 71.6274 172.7 70.4274 173.4 65.1274C174.1 59.8274 171.7 60.4274 153.5 61.4274C149.5 61.6274 150.7 58.6274 152.9 55.4274C158.6 47.1274 183.9 23.0274 240 24.7274C336.1 27.8274 333.1 95.8274 336 112.427C336.5 115.327 335.2 118.127 332.7 119.527Z" fill="#151619"/>
</g>
<defs>
<clipPath id="clip0_1_9196">
<rect width="500" height="500" fill="white" transform="translate(0 0.527344)"/>
</clipPath>
</defs>
</svg>
