<svg width="500" height="501" viewBox="0 0 500 501" fill="none" xmlns="http://www.w3.org/2000/svg">
<path d="M248.499 497.805C114.737 498.716 -1.99895 387.407 2.10505 242.964C5.76305 114.233 112.2 1.02536 255.095 3.74036C385.171 6.21136 500.606 114.078 496.227 259.73C492.386 387.53 386.971 498.455 248.499 497.805ZM304.562 267.859C306.02 269.816 306.981 271.156 307.993 272.457C332.297 303.686 356.73 334.816 380.814 366.214C385.831 372.754 392.078 373.617 398.952 372.087C406.009 370.517 409.01 365.285 409.006 358.079C408.965 286.461 408.972 214.842 408.997 143.224C408.999 136.394 406.021 131.301 399.541 129.487C393.038 127.667 386.365 127.997 381.645 134.037C371.387 147.164 361.309 160.432 351.038 173.549C335.606 193.256 320.072 212.882 304.11 233.14C289.923 215.081 276.207 197.711 262.596 180.259C255.221 170.803 243.013 170.654 235.59 180.129C231.202 185.729 226.937 191.424 222.552 197.026C213.232 208.934 203.869 220.808 194.036 233.318C183.39 219.816 173.529 207.439 163.808 194.953C148.194 174.897 132.651 154.787 117.127 134.661C112.22 128.299 105.585 127.627 98.6781 129.505C91.5881 131.432 89.3641 136.967 89.3721 144.026C89.4551 215.37 89.4481 286.714 89.3831 358.058C89.3771 364.889 92.0891 369.844 98.5721 371.874C105.265 373.97 112.092 373.079 116.583 367.411C130.309 350.086 143.492 332.332 157.039 314.863C169.047 299.378 181.26 284.05 193.89 268.008C205.818 283.277 217.812 297.147 228.114 312.176C242.575 333.271 255.001 334.073 269.719 312.639C280.191 297.389 292.414 283.344 304.562 267.859ZM377.047 175.33C357.423 200.363 337.798 225.396 317.822 250.877C337.81 276.389 357.595 301.641 378.794 328.699C378.794 275.847 378.794 225.896 378.794 175.944C378.212 175.74 377.629 175.535 377.047 175.33ZM180.534 250.906C160.48 225.331 140.764 200.187 119.719 173.349C119.719 225.963 119.719 276.064 119.719 328.65C140.897 301.578 160.624 276.359 180.534 250.906ZM242.221 294.665C246.336 299.917 250.805 300.508 255.032 295.303C267.047 280.507 278.81 265.506 290.62 250.651C278.856 235.757 267.568 221.339 256.128 207.044C251.457 201.207 246.41 201.177 242.001 206.756C230.656 221.112 219.382 235.523 207.507 250.641C219.321 265.611 230.813 280.105 242.221 294.665Z" fill="url(#paint0_linear_1_9199)"/>
<defs>
<linearGradient id="paint0_linear_1_9199" x1="249.174" y1="4.52736" x2="249.174" y2="497.553" gradientUnits="userSpaceOnUse">
<stop offset="0.000478316" stop-color="#36A7DD"/>
<stop offset="1" stop-color="#13307E"/>
</linearGradient>
</defs>
</svg>
