<svg width="500" height="501" viewBox="0 0 500 501" fill="none" xmlns="http://www.w3.org/2000/svg">
<path d="M48.6082 248.152C47.9942 302.065 76.6982 438.641 251.904 451.112C263.144 451.768 271.724 461.411 271.068 472.651C271.066 472.684 271.064 472.716 271.062 472.749C270.292 483.49 261.241 491.746 250.475 491.528C189.07 490.411 12.7701 455.678 8.20373 248.252C7.99753 237.155 16.8261 227.992 27.9229 227.786C28.3165 227.779 28.7103 227.783 29.1037 227.799C40.0555 228.156 48.7172 237.194 48.6082 248.152ZM248.733 49.322C302.646 49.0094 439.055 78.4726 450.554 253.745C451.121 264.984 460.692 273.635 471.931 273.068C471.98 273.065 472.03 273.063 472.08 273.06C482.835 272.365 491.157 263.36 491.004 252.584C490.211 191.179 456.472 14.6786 249.068 8.92877C237.972 8.66337 228.762 17.443 228.497 28.5386C228.488 28.9278 228.49 29.317 228.503 29.706C228.805 40.651 237.784 49.3566 248.733 49.322ZM248.733 125.989C302.646 125.676 369.154 157.529 375.305 250.898C375.872 262.143 385.448 270.799 396.693 270.232C396.742 270.229 396.792 270.227 396.842 270.224C407.585 269.506 415.887 260.503 415.732 249.737C414.94 188.332 377.672 86.5336 249.045 85.6182C237.843 85.4608 228.634 94.4146 228.476 105.617C228.473 105.876 228.474 106.136 228.48 106.395C228.795 117.34 237.783 126.036 248.733 125.989ZM106.139 227.419C94.9401 227.098 85.6012 235.916 85.28 247.115C85.2726 247.375 85.27 247.635 85.2726 247.895C85.7304 376.522 187.328 414.213 248.733 415.251C259.485 415.452 268.517 407.209 269.298 396.484C269.987 385.24 261.431 375.566 250.186 374.877C250.145 374.874 250.103 374.872 250.061 374.869C156.703 368.338 125.13 301.697 125.666 247.794C125.781 236.823 117.106 227.771 106.139 227.419ZM251.669 296.952C201.161 293.201 202.221 254.393 202.913 246.823C203.014 245.796 203.059 244.769 203.103 243.73C203.952 222.719 219.537 212.09 231.271 207.044C240.32 203.095 250.34 201.929 260.054 203.694C287.496 208.875 295.535 233.905 297.7 251.233C299.039 261.64 308.092 269.309 318.578 268.917C329.769 268.541 338.536 259.163 338.16 247.972C338.154 247.816 338.147 247.66 338.138 247.504C333.996 177.469 275.528 164.618 275.528 164.618C225.086 152.415 196.092 173.315 180.528 193.389C168.739 208.573 162.81 227.396 162.665 246.622C162.219 313.821 213.698 334.029 245.629 338.171C258.959 339.913 270.917 330.122 270.481 316.691C270.171 306.273 262.06 297.763 251.669 296.952ZM332.98 332.544C341.119 324.401 341.119 311.202 332.98 303.059L305.125 275.203C296.977 267.063 283.775 267.063 275.628 275.203C267.489 283.347 267.489 296.545 275.628 304.689L303.539 332.6C311.696 340.688 324.855 340.663 332.98 332.544Z" fill="#763C8A"/>
</svg>
