<svg width="500" height="501" viewBox="0 0 500 501" fill="none" xmlns="http://www.w3.org/2000/svg">
<path d="M126.7 35.2274L250.8 180.627L334.1 131.627C334.1 131.627 233.6 -2.77264 206.8 6.72736C181.6 16.3274 126.7 35.2274 126.7 35.2274Z" fill="black"/>
<path d="M337.2 131.627C337.2 131.627 356.1 98.4273 365.5 54.1273C365.5 54.1273 459.8 92.0273 423.6 186.927L337.2 131.627Z" fill="black"/>
<path d="M423.6 187.027L431.5 286.627L467.6 281.927C467.6 281.927 477 278.727 475.5 261.427C473.9 242.427 470.8 202.927 470.8 202.927C470.8 202.927 472.4 193.427 450.4 190.327C423.6 185.427 423.6 187.027 423.6 187.027Z" fill="black"/>
<path d="M431.4 286.627L359.1 345.127L392.1 409.927C392.1 409.927 400 435.227 423.5 406.727C445.5 378.227 454.9 373.527 453.3 356.127C451.9 338.727 447.1 297.627 431.4 286.627Z" fill="black"/>
<path d="M357.6 345.027L258.6 300.727L172.2 476.227C172.2 476.227 165.9 488.827 187.9 490.427C209.9 493.627 246 501.527 264.9 482.527C283.8 465.227 357.6 345.027 357.6 345.027Z" fill="black"/>
<path d="M258.6 299.227L249.2 182.227L35.4998 196.527C35.4998 196.527 22.8998 198.127 24.4998 221.827C26.0998 253.427 29.1998 288.227 29.1998 288.227C29.1998 288.227 27.5998 302.427 55.8998 304.027C84.1998 305.527 255.5 305.527 258.6 299.227Z" fill="black"/>
</svg>
