<svg width="500" height="501" viewBox="0 0 500 501" fill="none" xmlns="http://www.w3.org/2000/svg">
<path d="M494.2 201.827C483.1 146.127 452.8 95.3273 408.9 58.8273C364.4 21.9273 307.9 1.52734 250 1.52734C112.7 1.52734 1 113.227 1 250.527C1 266.827 2.6 283.227 5.8 299.027C5.9 299.427 5.9 299.727 6 300.127C10.1 320.327 27.8 334.227 47.7 334.227C50.5 334.227 53.3 333.927 56.2 333.327C79.2 328.627 94.1 306.227 89.5 283.127C87.2 272.527 86.1 261.527 86.1 250.527C86.1 160.127 159.6 86.6273 250 86.6273C328 86.6273 395.6 142.027 410.7 218.327C415.3 241.427 437.7 256.327 460.7 251.827C483.8 247.227 498.8 224.827 494.2 201.827Z" fill="url(#paint0_linear_1_9210)"/>
<path d="M438.3 413.327C476.1 369.627 499 312.727 499 250.527C499 234.127 497.4 217.727 494.2 201.827C489.6 178.727 467.2 163.827 444.2 168.327C421.1 172.927 406.2 195.327 410.7 218.327C412.8 228.827 413.8 239.627 413.8 250.527C413.8 286.027 402.4 318.927 383.2 345.827L367.2 326.227C352.3 308.027 325.5 305.327 307.3 320.127C289.1 335.027 286.4 361.827 301.2 380.027L317.3 399.827C296.7 409.127 273.9 414.327 249.8 414.327C172.1 414.327 104.6 359.127 89.2002 283.127C93.9002 306.127 79.0002 328.627 55.9002 333.327C53.1002 333.927 50.2002 334.227 47.4002 334.227C27.6002 334.227 9.8002 320.327 5.7002 300.127C17.2002 355.627 47.5002 406.227 91.4002 442.527C135.9 479.327 192.2 499.527 250 499.527C294.5 499.527 336.3 487.827 372.5 467.227L383.8 481.127C392.2 491.427 404.5 496.827 416.8 496.827C426.3 496.827 435.8 493.727 443.7 487.227C461.9 472.327 464.6 445.527 449.8 427.327L438.3 413.327Z" fill="url(#paint1_linear_1_9210)"/>
<defs>
<linearGradient id="paint0_linear_1_9210" x1="1" y1="167.896" x2="495.046" y2="167.896" gradientUnits="userSpaceOnUse">
<stop stop-color="#FEE000"/>
<stop offset="0.8724" stop-color="#1BD866"/>
</linearGradient>
<linearGradient id="paint1_linear_1_9210" x1="5.9616" y1="333.526" x2="499" y2="333.526" gradientUnits="userSpaceOnUse">
<stop stop-color="#06ABFF"/>
<stop offset="0.7125" stop-color="#FF3CE9"/>
</linearGradient>
</defs>
</svg>
