<svg width="500" height="501" viewBox="0 0 500 501" fill="none" xmlns="http://www.w3.org/2000/svg">
<path d="M5.72754 65.7881C5.72754 65.3099 5.72754 64.8319 5.72754 64.3536C6.73829 63.5884 7.85504 62.9294 8.74429 62.0424C26.3448 44.4846 43.9175 26.8989 61.5028 9.32561C62.3988 8.43036 63.357 7.59711 64.4268 6.60461C90.495 32.6749 116.337 58.5191 141.92 84.1039C214.423 41.5884 286.492 41.5576 359.444 84.2296C384.999 58.6734 410.882 32.7891 436.204 7.46536C455.685 26.9496 475.076 46.3439 494.875 66.1456C469.398 91.6204 443.565 117.451 417.971 143.043C460.235 215.357 460.177 287.423 417.561 360.074C443.12 385.631 468.957 411.467 494.479 436.988C475.054 456.412 455.658 475.808 435.725 495.74C435.091 494.922 434.324 493.682 433.322 492.678C409.341 468.654 385.302 444.688 361.387 420.598C359.266 418.461 357.958 418.465 355.433 419.961C293.949 456.391 230.524 460.046 165.341 430.707C157.435 427.149 149.992 422.563 141.373 417.936C115.771 443.544 89.884 469.437 63.5325 495.794C62.8443 494.905 62.1398 493.76 61.2158 492.834C43.7415 475.318 26.247 457.824 8.73129 440.35C7.84654 439.467 6.73429 438.813 5.72804 438.052C5.72804 437.574 5.72804 437.096 5.72804 436.618C6.73454 435.857 7.84729 435.202 8.73204 434.319C32.5038 410.587 56.196 386.775 80.077 363.153C82.9583 360.303 83.385 358.513 81.1483 354.909C63.0835 325.8 53.318 293.998 51.904 259.802C50.2143 218.933 60.2388 181.002 81.8918 146.254C83.548 143.596 83.0565 142.287 81.0588 140.3C56.8215 116.188 32.6725 91.9876 8.47904 67.8319C7.67854 67.0334 6.64979 66.4644 5.72754 65.7881ZM280.627 221.796C305.916 247.088 331.206 272.381 356.445 297.623C377.047 254.486 367.372 192.569 317.985 156.949C269.988 122.331 203.031 129.893 164.016 174.096C124.289 219.105 124.922 286.548 165.358 329.835C206.062 373.41 264.286 373.732 297.665 356.445C272.213 331 246.916 305.712 221.809 280.613C241.234 261.188 260.562 241.86 280.627 221.796Z" fill="#1F2338"/>
</svg>
