<svg width="500" height="501" viewBox="0 0 500 501" fill="none" xmlns="http://www.w3.org/2000/svg">
<g clip-path="url(#clip0_1_9215)">
<path d="M250 500.527C388.071 500.527 500 388.599 500 250.527C500 112.456 388.071 0.527344 250 0.527344C111.929 0.527344 0 112.456 0 250.527C0 388.599 111.929 500.527 250 500.527Z" fill="#43A1FF"/>
<path d="M250 499.627C387.575 499.627 499.1 388.102 499.1 250.527C499.1 112.953 387.575 1.42737 250 1.42737C112.426 1.42737 0.900391 112.953 0.900391 250.527C0.900391 388.102 112.426 499.627 250 499.627Z" stroke="#DAE9FD"/>
<path d="M344.7 318.127L302.8 275.227C323.9 247.627 337.5 215.027 342 180.527C343.8 167.727 334.9 155.927 322.1 154.127C321.1 154.027 320.1 153.927 319.1 153.927C307.5 154.027 297.7 162.627 296.2 174.127C293 198.327 283.9 221.427 269.8 241.427L230.6 201.327C230.9 200.927 231.1 200.427 231.4 200.027C237.5 188.927 241.3 176.727 242.6 164.227C243.2 159.127 239.5 154.527 234.4 153.927C234.1 153.927 233.8 153.827 233.5 153.827H160C154.9 153.827 150.7 158.127 150.8 163.227V238.127C150.7 243.227 154.9 247.427 160 247.527C160.3 247.527 160.7 247.527 161 247.527C173.7 246.127 186 242.127 197 235.627C197.4 235.427 197.8 235.127 198.3 234.827L237.3 274.727L237.4 274.827C217.9 289.427 194.9 298.927 170.8 302.227C159.4 303.827 150.9 313.727 151 325.227V325.927C150.9 338.627 161 348.927 173.7 349.127C174.7 349.127 175.7 349.127 176.8 348.927C193.8 346.627 210.4 342.027 226.2 335.227C242.1 328.427 257 319.427 270.5 308.527L312.2 351.227C321 360.227 335.4 360.527 344.4 351.727C344.5 351.627 344.7 351.427 344.8 351.327C353.7 342.127 353.7 327.427 344.7 318.127Z" fill="white"/>
<path opacity="0.174" d="M302.7 275.027C286.4 258.127 259.9 256.527 241.6 271.227C240.1 272.427 238.7 273.527 237.2 274.727L270.1 308.427C282.2 298.627 293.2 287.427 302.7 275.027Z" fill="#478EFE"/>
</g>
<defs>
<clipPath id="clip0_1_9215">
<rect width="500" height="500" fill="white" transform="translate(0 0.527344)"/>
</clipPath>
</defs>
</svg>
