<svg width="500" height="501" viewBox="0 0 500 501" fill="none" xmlns="http://www.w3.org/2000/svg">
<g clip-path="url(#clip0_1_9222)">
<path fill-rule="evenodd" clip-rule="evenodd" d="M479.8 496.327C469.5 496.427 461.2 488.127 461.1 477.827C461 467.527 469.3 459.227 479.6 459.127C489.9 459.027 498.2 467.327 498.3 477.627V477.727C498.3 488.027 490 496.327 479.8 496.327ZM470 296.027C459.6 295.827 451.3 287.327 451.5 276.927C451.7 266.527 460.2 258.227 470.6 258.427C481 258.627 489.2 267.127 489.1 277.527C488.9 287.827 480.6 296.027 470.3 296.027H470ZM470 239.827C459.6 239.827 451.2 231.427 451.2 221.027C451.2 210.627 459.6 202.227 470 202.227C480.4 202.227 488.8 210.627 488.8 221.027V221.127C488.8 231.327 480.6 239.727 470.3 239.827H470ZM432.4 206.627V240.827H394.9V199.227C394.9 194.227 396.9 189.527 400.4 186.027L444.6 142.227C450.4 136.327 459.2 134.727 466.7 138.227C476 142.627 479.9 153.727 475.5 163.027C474.6 165.027 473.3 166.827 471.8 168.327L432.4 206.627ZM466.4 363.227C458.9 366.727 450.1 365.027 444.3 359.227L400.1 315.427C396.6 311.927 394.6 307.127 394.6 302.227V259.827H432.4V294.027L471.5 333.127C478.7 340.427 478.7 352.227 471.4 359.427C470 360.827 468.5 361.927 466.7 362.827L466.4 363.227ZM376 181.327V316.727L483.6 424.327C491.1 431.627 491.2 443.627 483.9 451.127C476.6 458.627 464.6 458.727 457.1 451.427L343.7 337.827C340.1 334.327 338.1 329.527 338.1 324.527V173.427C338.1 168.427 340.1 163.627 343.7 160.127L413 90.8273C420.3 83.3273 432.2 83.1273 439.8 90.4273C447.3 97.7273 447.5 109.627 440.2 117.227L376 181.327ZM332.5 147.127C328.9 150.727 324.1 152.627 319.1 152.627H168.4C163.4 152.727 158.5 150.727 155 147.127L85.7003 77.7273C78.2003 70.4273 78.1003 58.4273 85.4003 51.0273C92.7003 43.6273 104.7 43.4273 112.1 50.7273L176.2 114.927H311.5L375.1 51.1273C380.9 45.2273 389.9 43.5273 397.4 47.1273C406.8 51.8273 410.5 63.2273 405.8 72.6273C404.9 74.4273 403.7 76.0273 402.3 77.4273L332.5 147.127ZM311.5 90.4273C308 94.0273 303.1 96.0273 298.1 96.0273H256.2V58.2273H290.6L329.3 19.5273C335.1 13.6273 344 11.9273 351.5 15.4273C360.9 20.1273 364.6 31.5273 359.9 40.9273C359 42.7273 357.8 44.3273 356.4 45.7273L311.5 90.4273ZM271.4 41.5273C261 41.5273 252.6 33.1273 252.6 22.7273C252.6 12.3273 261 3.92734 271.4 3.92734C281.8 3.92734 290.2 12.3273 290.2 22.7273C290 32.8273 281.9 40.9273 271.8 41.1273L271.4 41.5273ZM195.1 96.0273C190.1 96.0273 185.2 94.0273 181.7 90.4273L137.5 46.1273C130 38.8273 129.9 26.8273 137.2 19.4273C144.5 12.0273 156.5 11.8273 163.9 19.1273L203 58.2273H237.4V96.0273H195.1ZM215.6 41.1273C205.2 41.1273 196.8 32.7273 196.8 22.3273C196.8 11.9273 205.3 3.52734 215.6 3.52734C226 3.52734 234.4 11.9273 234.4 22.3273C234.4 32.7273 226 41.1273 215.6 41.1273ZM149.1 173.727V324.727C149.1 329.727 147.2 334.527 143.6 338.127L74.4003 407.527C68.6003 413.427 59.6003 415.127 52.1003 411.527C42.8003 406.727 39.1003 395.327 43.8003 386.027C44.7003 384.227 45.9003 382.527 47.4003 381.127L111.4 316.727V181.627L47.4003 117.627C39.9003 110.327 39.8003 98.3273 47.1003 90.8273C54.4003 83.3273 66.4003 83.2273 73.9003 90.5273L143.8 160.227C147.2 163.727 149.2 168.727 149.1 173.727ZM86.5003 185.727C90.3003 189.227 92.5003 194.127 92.5003 199.327V241.327H54.7003V207.127L16.0003 168.427C8.50031 161.227 8.30031 149.327 15.5003 141.827C22.7003 134.327 34.6003 134.127 42.1003 141.327C42.2003 141.427 42.2003 141.427 42.3003 141.527L86.5003 185.727ZM16.7003 202.327C27.1003 202.027 35.7003 210.227 36.0003 220.627C36.3003 231.027 28.1003 239.627 17.7003 239.927C7.30031 240.227 -1.29969 232.027 -1.59969 221.627C-1.59969 221.427 -1.59969 221.327 -1.59969 221.127C-1.59969 210.827 6.80031 202.427 17.1003 202.327H16.7003ZM16.7003 258.627C27.1003 258.327 35.7003 266.527 36.0003 276.927C36.3003 287.327 28.1003 295.927 17.7003 296.227C7.30031 296.527 -1.29969 288.327 -1.59969 277.927C-1.59969 277.827 -1.59969 277.727 -1.59969 277.627C-1.69969 267.227 6.60031 258.727 17.0003 258.627H17.1003H16.7003ZM54.3003 294.027V259.827H92.5003V301.827C92.4003 306.827 90.2003 311.627 86.5003 315.027L42.7003 358.827C36.9003 364.727 28.1003 366.327 20.6003 362.827C11.3003 358.427 7.40031 347.327 11.9003 338.027C12.8003 336.027 14.1003 334.327 15.6003 332.827L54.3003 294.027ZM155 347.227C158.5 343.627 163.3 341.627 168.3 341.627H319C324 341.627 328.9 343.627 332.4 347.227L445 460.027C452.5 467.327 452.6 479.327 445.3 486.727C438 494.227 426 494.327 418.6 487.027L310.9 379.427H176L112.3 443.127C106.5 449.027 97.6003 450.727 90.1003 447.227C80.7003 442.527 77.0003 431.127 81.7003 421.727C82.6003 419.927 83.8003 418.327 85.2003 416.927L155 347.227ZM181.8 403.927C185.4 400.427 190.2 398.527 195.2 398.427H237.5V436.227H203L164.8 474.827C157.5 482.327 145.6 482.527 138.1 475.227C130.6 467.927 130.4 456.027 137.7 448.527L181.8 403.927ZM215.7 457.327C226.1 457.227 234.5 465.627 234.6 476.027C234.7 486.427 226.3 494.827 215.9 494.927C205.5 495.027 197.1 486.627 197 476.227V476.127C197.1 465.827 205.3 457.427 215.7 457.327ZM298.6 398.627C303.6 398.627 308.4 400.627 312 404.127L356.2 448.427C363.7 455.727 363.8 467.727 356.5 475.227C349.2 482.727 337.2 482.827 329.7 475.527L290.6 436.427H256.2V398.427H298.5L298.6 398.627ZM271.9 457.327C282.3 457.527 290.6 466.027 290.4 476.427C290.2 486.827 281.7 495.127 271.3 494.927C261 494.727 252.8 486.427 252.8 476.127C252.8 465.727 261.2 457.327 271.6 457.327C271.7 457.327 271.7 457.327 271.9 457.327Z" fill="#0645F7"/>
<path fill-rule="evenodd" clip-rule="evenodd" d="M432.6 206.627V240.827H394.8V199.227C394.8 194.227 396.8 189.527 400.3 186.027L444.5 142.227C450.3 136.327 459.1 134.727 466.6 138.227C475.9 142.627 479.8 153.727 475.4 163.027C474.5 165.027 473.2 166.827 471.7 168.327L432.6 206.627ZM466.7 363.227C459.2 366.727 450.4 365.027 444.6 359.227L400.4 315.427C396.9 311.927 394.9 307.127 394.9 302.227V259.827H432.7V294.027L471.8 333.127C479 340.527 478.8 352.227 471.5 359.427C470.1 360.827 468.5 361.927 466.8 362.827V363.227H466.7ZM332.5 147.927C328.9 151.527 324.1 153.427 319.1 153.427H168.4C163.3 153.327 158.4 151.027 155 147.127L85.7003 77.7273C78.2003 70.4273 78.1003 58.4273 85.4003 51.0273C92.7003 43.6273 104.7 43.4273 112.1 50.7273L176.2 114.927H311.5L375.1 51.1273C380.9 45.2273 389.9 43.5273 397.4 47.1273C406.8 51.8273 410.5 63.2273 405.8 72.6273C404.9 74.4273 403.7 76.0273 402.3 77.4273L332.5 147.927ZM311.5 90.4273C308 94.0273 303.1 96.0273 298.1 96.0273H256.2V58.2273H290.6L329.3 19.5273C335.1 13.6273 344 11.9273 351.5 15.4273C360.9 20.1273 364.6 31.5273 359.9 40.9273C359 42.7273 357.8 44.3273 356.4 45.7273L311.5 90.4273ZM271.4 41.5273C261 41.5273 252.6 33.1273 252.6 22.7273C252.6 12.3273 261 3.92734 271.4 3.92734C281.8 3.92734 290.2 12.3273 290.2 22.7273C290 32.8273 281.9 40.9273 271.8 41.1273L271.4 41.5273ZM195.1 96.0273C190.1 96.0273 185.2 94.0273 181.7 90.4273L137.5 46.1273C130 38.8273 129.9 26.8273 137.2 19.4273C144.5 12.0273 156.5 11.8273 163.9 19.1273L203 58.2273H237.4V96.0273H195.1ZM215.6 41.1273C205.2 41.1273 196.8 32.7273 196.8 22.3273C196.8 11.9273 205.3 3.52734 215.6 3.52734C226 3.52734 234.4 11.9273 234.4 22.3273C234.4 32.7273 226 41.1273 215.6 41.1273ZM149.1 173.727V324.727C149.1 329.727 147.2 334.527 143.6 338.127L74.4003 407.527C68.6003 413.427 59.6003 415.127 52.1003 411.527C42.8003 406.727 39.1003 395.327 43.8003 386.027C44.7003 384.227 45.9003 382.527 47.4003 381.127L111.4 316.727V181.627L47.4003 117.627C39.9003 110.327 39.8003 98.3273 47.1003 90.8273C54.4003 83.3273 66.4003 83.2273 73.9003 90.5273L143.8 160.227C147.2 163.727 149.2 168.727 149.1 173.727ZM86.5003 185.727C90.3003 189.227 92.5003 194.127 92.5003 199.327V241.327H54.7003V207.127L16.0003 168.427C8.50031 161.227 8.30031 149.327 15.5003 141.827C22.7003 134.327 34.6003 134.127 42.1003 141.327C42.2003 141.427 42.2003 141.427 42.3003 141.527L86.5003 185.727ZM16.7003 202.327C27.1003 202.027 35.7003 210.227 36.0003 220.627C36.3003 231.027 28.1003 239.627 17.7003 239.927C7.30031 240.227 -1.29969 232.027 -1.59969 221.627C-1.59969 221.427 -1.59969 221.327 -1.59969 221.127C-1.59969 210.827 6.80031 202.427 17.1003 202.327H16.7003ZM16.7003 258.627C27.1003 258.327 35.7003 266.527 36.0003 276.927C36.3003 287.327 28.1003 295.927 17.7003 296.227C7.30031 296.527 -1.29969 288.327 -1.59969 277.927C-1.59969 277.827 -1.59969 277.727 -1.59969 277.627C-1.69969 267.227 6.60031 258.727 17.0003 258.627H17.1003H16.7003ZM54.3003 294.027V259.827H92.5003V301.827C92.4003 306.827 90.2003 311.627 86.5003 315.027L42.7003 358.827C36.9003 364.727 28.1003 366.327 20.6003 362.827C11.3003 358.427 7.40031 347.327 11.9003 338.027C12.8003 336.027 14.1003 334.327 15.6003 332.827L54.3003 294.027ZM155 347.227C158.5 343.627 163.3 341.627 168.3 341.627H319C324 341.627 328.9 343.627 332.4 347.227L445 460.027C452.5 467.327 452.6 479.327 445.3 486.727C438 494.227 426 494.327 418.6 487.027L310.9 379.427H176L112.3 443.127C106.5 449.027 97.6003 450.727 90.1003 447.227C80.7003 442.527 77.0003 431.127 81.7003 421.727C82.6003 419.927 83.8003 418.327 85.2003 416.927L155 347.227ZM181.8 403.927C185.4 400.427 190.2 398.527 195.2 398.427H237.5V436.227H203L164.8 474.827C157.5 482.327 145.6 482.527 138.1 475.227C130.6 467.927 130.4 456.027 137.7 448.527L181.8 403.927ZM215.7 457.327C226.1 457.227 234.5 465.627 234.6 476.027C234.7 486.427 226.3 494.827 215.9 494.927C205.5 495.027 197.1 486.627 197 476.227V476.127C197.1 465.827 205.3 457.427 215.7 457.327ZM298.6 398.627C303.6 398.627 308.4 400.627 312 404.127L356.2 448.427C363.7 455.727 363.8 467.727 356.5 475.227C349.2 482.727 337.2 482.827 329.7 475.527L290.6 436.427H256.2V398.427H298.5L298.6 398.627ZM271.9 457.327C282.3 457.527 290.6 466.027 290.4 476.427C290.2 486.827 281.7 495.127 271.3 494.927C261 494.727 252.8 486.427 252.8 476.127C252.8 465.727 261.2 457.327 271.6 457.327C271.7 457.327 271.7 457.327 271.9 457.327Z" fill="#0645F7"/>
</g>
<defs>
<clipPath id="clip0_1_9222">
<rect width="500" height="500" fill="white" transform="translate(0 0.527344)"/>
</clipPath>
</defs>
</svg>
