<svg width="500" height="501" viewBox="0 0 500 501" fill="none" xmlns="http://www.w3.org/2000/svg">
<g clip-path="url(#clip0_1_9225)">
<path d="M484.9 265.627C484.9 288.427 481.6 310.527 475.6 331.327C462.5 376.527 436.1 416.027 401.1 445.527C395.5 450.227 389.7 454.627 383.7 458.827C345.8 485.127 299.7 500.527 250 500.527C188.5 500.527 132.6 476.927 90.6996 438.327C44.9996 396.027 16.0996 335.927 15.0996 269.027C15.0996 267.927 15.0996 266.727 15.0996 265.627C15.0996 135.927 120.3 30.7273 250 30.7273C278.9 30.7273 306.6 35.9273 332.2 45.5273C334.6 46.4273 336.9 47.3273 339.2 48.2273C424.7 83.3273 484.9 167.427 484.9 265.627Z" fill="#408AC9"/>
<path d="M386.2 428.627C336.1 470.527 272.4 485.327 212.7 474.727C206.2 473.527 199.8 472.127 193.4 470.327C153.1 459.227 115.8 436.227 86.9996 401.727C51.3996 359.127 35.2996 306.627 37.7996 255.127C37.7996 255.127 37.7996 255.127 37.7996 255.027C40.5996 198.827 65.4996 143.927 111.4 104.427C112.2 103.727 113 103.127 113.8 102.427C203.8 27.2274 337.8 39.2274 413 129.227C488.2 219.427 476.2 353.427 386.2 428.627Z" fill="url(#paint0_linear_1_9225)"/>
<path d="M421.3 362.527C421.3 396.527 410.8 425.727 401.1 445.527C360.3 479.827 307.6 500.527 250.1 500.527C188.6 500.527 132.7 476.927 90.7998 438.227C116.7 459.727 149.3 474.527 190.2 474.527C232.6 474.527 262 463.827 282.3 448.427C334.3 408.927 326.6 338.627 326.6 338.627C319.1 347.827 309.1 354.627 299.4 359.127C302.6 353.127 305.5 346.327 305.6 339.227C300.7 344.327 295.3 347.827 290.2 349.927L296.1 330.327L294.6 322.327C295.4 311.327 293.3 300.727 288.6 290.827L287.4 284.627L279.5 276.627C276.7 273.127 273.5 269.827 269.9 266.627L269.8 266.527C269.5 266.227 269.1 265.927 268.8 265.627C269 265.827 269.3 266.127 269.7 266.627L268.4 265.327C268.4 265.327 237.9 246.027 195.7 246.027C153.5 246.027 145.3 255.627 145.3 265.327C145.3 275.127 153.6 280.027 153.6 280.027C127.9 278.827 107.2 269.427 93.1998 249.427L93.4998 249.127C140.2 216.127 195.3 207.427 258.7 222.827C261.9 223.627 265.1 224.427 268.3 225.327C264.4 217.927 258.9 211.327 252.5 205.727C245.5 199.527 237.5 194.427 229 190.527C229 190.527 244.3 189.927 250.5 190.227C256.6 190.527 302.4 189.627 349.3 222.127C396.1 254.527 421.3 304.827 421.3 362.527Z" fill="#262F72"/>
<path d="M270.4 243.227C202.3 215.527 144.4 221.527 93.0996 249.327V249.227C139.9 216.127 195.1 207.227 258.6 222.727C264 230.327 268.3 237.227 270.4 243.227Z" fill="#161E41"/>
<path d="M405.2 192.727C381.5 175.627 353.5 164.427 323.9 160.527C353.6 160.927 382.2 167.027 410.1 182.027C408.8 177.027 406.1 172.427 402.7 168.027C425.2 177.227 446.7 191.727 467.4 209.627C424 158.327 356 124.927 304.3 124.327C288.1 137.427 271 146.327 253.1 151.727C262.4 143.327 268.8 132.527 272.4 119.127C299 108.827 320.9 90.9273 338.7 66.0273C333.1 68.2273 327.8 69.6273 322.8 70.3273C329.1 63.0273 334.5 55.6273 339.1 48.2273C349 32.6273 355.4 16.6273 359.9 0.527344C352.5 16.8273 343.3 31.8273 332.3 45.5273C316.7 64.9273 297.4 81.6273 274.6 95.8273C274.1 84.0273 270.8 74.4273 264.8 67.0273C264.8 67.0273 258.6 82.5273 234.6 97.1273C217.3 107.627 202.9 112.927 187.9 118.327C180.2 121.127 167.2 130.627 167.2 146.927C167.2 163.227 186.2 164.727 186.2 164.727C186.2 164.727 181.3 167.227 176.1 167.227C170.9 167.227 165.4 162.727 165.4 162.727C165.4 162.727 145.8 186.527 124.1 186.527C108.9 186.527 115.2 163.927 115.2 163.927C76.6998 191.827 71.4998 223.727 80.7998 258.827C84.7998 255.527 88.8998 252.427 93.0998 249.427C93.1998 249.327 93.2998 249.327 93.3998 249.227C140.1 216.227 195.2 207.527 258.6 222.927C261.8 223.727 265 224.527 268.2 225.427C264.3 218.027 258.8 211.427 252.4 205.827C245.4 199.627 237.4 194.527 228.9 190.627C228.9 190.627 244.2 190.027 250.4 190.327C256.5 190.627 302.3 189.727 349.2 222.227C396.2 254.727 421.3 305.127 421.3 362.827C421.3 396.827 410.8 426.027 401.1 445.827C436.2 416.327 462.5 376.827 475.6 331.627V329.727C474.8 270.427 446.6 222.527 405.2 192.727ZM117.9 209.927C117.8 209.927 117.8 210.027 117.9 209.927C117.6 210.427 117.5 210.727 117.5 210.727C117.5 210.727 117 205.627 111.5 205.627C106.1 205.627 96.7998 216.827 96.3998 217.327C96.3998 217.327 100.9 193.827 114.3 193.827C125.8 193.827 119.7 206.527 117.9 209.927ZM191.5 155.327C191.5 155.327 188.1 145.827 202 137.327C213.3 130.327 222.4 128.127 230 125.627C231.7 125.127 233.3 124.527 234.8 123.927C243.3 120.527 248.8 114.927 248.8 114.927C242 140.827 225.8 157.327 191.5 155.327Z" fill="white"/>
<path d="M282.2 448.427C261.9 463.827 232.6 474.527 190.1 474.527C149.2 474.527 116.6 459.827 90.6996 438.227C44.9996 396.027 16.0996 335.927 15.0996 269.027C33.7996 311.027 79.4996 385.627 167.5 385.427C253.8 385.327 287.6 324.627 281 290.727C280.6 288.827 280.1 287.027 279.5 285.327C279.3 284.727 279.1 284.127 278.8 283.627C274.4 273.227 271.2 268.527 269.5 266.527C269.1 266.127 268.8 265.727 268.6 265.527C268.9 265.827 269.3 266.127 269.6 266.427L269.7 266.527C273.2 269.727 276.4 273.027 279.3 276.527C283 281.027 286 285.827 288.4 290.827C293.1 300.727 295.2 311.327 294.4 322.327C293.7 331.827 290.9 341.627 285.8 351.327C287.2 350.927 288.6 350.427 290.1 349.827C295.3 347.727 300.6 344.227 305.5 339.127C305.4 346.227 302.5 352.927 299.3 359.027C309 354.627 319 347.727 326.5 338.527C326.5 338.627 334.2 408.927 282.2 448.427Z" fill="#161E41"/>
<path d="M421.3 362.527C421.3 396.527 410.8 425.727 401.1 445.527C395.5 450.227 400.9 446.027 401.1 445.527C407 432.527 415 399.127 412.9 371.227C409.7 328.827 405.6 291.427 354.3 246.727C311.6 209.627 270.2 206.227 252.4 205.527C245.4 199.327 237.4 194.227 228.9 190.327C228.9 190.327 244.2 189.727 250.4 190.027C256.5 190.327 302.3 189.427 349.2 221.927C396.1 254.527 421.3 304.827 421.3 362.527Z" fill="#161E41"/>
<path d="M248.8 114.927C242 140.827 225.8 157.327 191.5 155.327C191.5 155.327 212.9 152.327 222.3 139.927C226.7 134.027 228.9 129.127 230 125.627C231.7 125.127 233.3 124.527 234.8 123.927C243.3 120.527 248.8 114.927 248.8 114.927Z" fill="#161E41"/>
<path d="M117.9 209.927C118.4 208.827 123 198.027 113.7 198.027C104 198.027 96.6004 216.727 96.4004 217.327C96.4004 217.327 100.9 193.827 114.3 193.827C125.8 193.827 119.7 206.527 117.9 209.927Z" fill="#161E41"/>
<path d="M359.2 22.5273C357.6 37.1273 356.9 45.9273 344.2 75.5273C331.5 105.127 304.5 124.427 304.5 124.427C288.3 137.527 271.2 146.427 253.3 151.827C262.6 143.427 269 132.627 272.6 119.227C299.2 108.927 321.1 91.0273 338.9 66.1273C333.3 68.3273 328 69.7273 323 70.4273C342.5 47.8273 353.4 24.4273 360 0.627343C359.9 0.527343 360.8 7.92734 359.2 22.5273Z" fill="#161E41"/>
<path d="M467.5 209.627C466.9 209.227 457.1 203.427 437.1 197.827C422.3 193.727 410.6 192.827 405.2 192.727C381.5 175.627 353.5 164.427 323.9 160.527C353.6 160.927 382.2 167.027 410.1 182.027C408.8 177.027 406.1 172.427 402.7 168.027C425.3 177.227 446.7 191.727 467.5 209.627Z" fill="#161E41"/>
<path d="M305.6 339.127C299.3 345.627 292.3 349.627 285.9 351.327C302.2 320.227 295.3 289.227 269.9 266.527L269.8 266.427C269.5 266.127 269.1 265.827 268.8 265.527C268.7 265.427 268.7 265.427 268.6 265.327C268.5 265.327 268.5 265.227 268.4 265.127C268.4 265.127 268.3 265.127 268.3 265.027C268.6 265.227 273.2 267.127 276.2 268.927C279.3 270.727 296.9 282.127 302.7 302.027C308.5 322.027 305.6 339.127 305.6 339.127Z" fill="#0F1F65"/>
<path d="M346.9 348.727C346.9 366.227 345.4 385.727 323.3 413.927C307.3 434.427 290.3 444.427 282.2 448.427C334.2 408.927 326.5 338.627 326.5 338.627C326.5 338.627 332.4 332.527 334.6 326.127C336.8 319.727 338.2 313.427 338.2 313.427C338.2 313.427 346.9 331.227 346.9 348.727Z" fill="#0F1F65"/>
</g>
<defs>
<linearGradient id="paint0_linear_1_9225" x1="113.816" y1="102.59" x2="386.182" y2="428.613" gradientUnits="userSpaceOnUse">
<stop stop-color="#89ACDA"/>
<stop offset="0.1911" stop-color="#87AADA" stop-opacity="0"/>
</linearGradient>
<clipPath id="clip0_1_9225">
<rect width="500" height="500" fill="white" transform="translate(0 0.527344)"/>
</clipPath>
</defs>
</svg>
