<svg width="500" height="501" viewBox="0 0 500 501" fill="none" xmlns="http://www.w3.org/2000/svg">
<path fill-rule="evenodd" clip-rule="evenodd" d="M17.1999 226.627C19.3999 197.127 33.1999 112.027 119.1 48.6273V48.7273C172.3 9.32734 230.6 1.72734 267.3 1.72734C278.5 1.62734 289.7 2.42734 300.8 4.02734C320.4 7.32734 342 25.6273 342 48.9273C342 73.3273 322 89.5273 297.9 93.0273C294.4 93.5273 287.1 92.9273 277 92.1273C275.7 92.0273 274.3 91.9273 272.9 91.8273C256.4 90.0273 239.9 89.4273 223.4 89.9273C189.8 90.4273 149.9 95.5273 113.7 113.827C106.6 117.227 99.6999 121.127 93.0999 125.427C75.3999 137.027 59.8999 151.527 47.0999 168.327C38.7999 178.927 31.8999 190.427 26.4999 202.727C22.7999 210.527 19.6999 218.427 17.1999 226.627ZM94.5999 128.027C61.7999 149.527 36.7999 181.027 23.3999 217.927C20.3999 226.627 17.9999 235.527 16.3999 244.627V249.727C16.2999 298.027 30.3999 345.227 56.9999 385.627C74.0999 395.527 121.9 417.127 216.1 417.427C241.1 417.527 266 413.727 289.9 406.127H289.7C357.1 384.727 408.2 335.227 414.5 277.527C414.5 277.027 414.6 276.627 414.6 276.127C414.6 275.927 414.6 275.727 414.7 275.527C396.7 261.627 374.3 254.727 351.6 256.327C328.9 257.927 307.6 267.727 291.7 284.027C275.8 300.327 266.5 321.827 265.5 344.527C264.5 367.027 271.7 389.127 285.8 406.627C278.7 407.627 271.5 408.027 264.3 408.127C224.2 408.127 185.5 393.027 156.2 365.627C126.8 338.327 108.9 300.827 106.1 260.827C103.3 220.827 115.7 181.227 141 150.027C166.2 118.827 202.4 98.3273 242.1 92.7273C240.8 92.7273 239.4 92.7273 238 92.7273C236.5 92.7273 235 92.7273 233.5 92.7273C194.5 92.8273 138.9 98.9273 94.5999 128.027ZM197.8 350.127C190.3 332.027 186.4 312.527 186.4 292.927C186.4 268.627 192.4 244.827 203.8 223.327C215.2 201.927 231.6 183.527 251.6 169.927C271.6 156.227 294.7 147.727 318.8 144.927C342.9 142.227 367.3 145.427 389.9 154.227C392.1 157.727 394.4 161.627 396.6 166.027C405.8 183.927 415.7 211.827 415.9 249.727C395 233.027 368.6 224.527 341.9 225.827C315.1 227.127 289.8 238.227 270.6 256.927C251.4 275.627 239.7 300.727 237.7 327.427C235.7 354.127 243.5 380.627 259.7 402.027C249.8 401.827 239.9 400.627 230.2 398.427C216.4 384.727 205.3 368.227 197.8 350.127ZM426.8 279.127C422.3 319.827 398.1 357.727 358.7 386.127C319.3 414.527 269.1 429.927 216.9 429.927H216C144.5 429.727 98.7999 417.627 72.0999 406.927C122.3 471.327 222.8 515.427 315.9 492.727C489.2 450.527 509.1 286.127 461.2 213.427C447.9 193.227 430.2 176.327 409.4 163.927C422.1 189.627 432.5 227.627 426.8 279.127Z" fill="#FCC33C"/>
</svg>
