<svg width="500" height="501" viewBox="0 0 500 501" fill="none" xmlns="http://www.w3.org/2000/svg">
<path d="M492.4 157.727L315.1 55.7273C311.3 53.5273 306.4 54.8273 304.2 58.6273C302.9 60.8273 302.8 63.5273 303.8 65.9273L376.6 228.227C378.4 232.227 383.1 234.027 387.1 232.227C387.3 232.127 387.6 232.027 387.8 231.827L492.4 171.527C496.2 169.327 497.5 164.427 495.3 160.627C494.6 159.427 493.6 158.427 492.4 157.727Z" fill="#384051"/>
<path d="M123.5 228.127L196.2 65.8273C198 61.8273 196.2 57.1273 192.2 55.2273C189.9 54.1273 187.1 54.3273 184.9 55.6273L7.59988 157.727C3.79988 160.027 2.49988 164.927 4.69988 168.727C5.39988 169.927 6.39988 170.927 7.59988 171.627L112.3 231.827C116.1 234.027 121 232.727 123.2 228.927C123.3 228.627 123.4 228.427 123.5 228.127Z" fill="#384051"/>
<path d="M243.3 445.127L157.6 253.827C156.7 251.827 156.7 249.427 157.6 247.427L243.3 56.0273C245.1 52.0273 249.8 50.1273 253.8 51.9273C255.6 52.7273 257.1 54.2273 257.9 56.0273L342.4 247.927C343.3 249.927 343.3 252.327 342.4 254.327L257.9 445.027C256.1 449.027 251.4 450.927 247.3 449.127C245.5 448.327 244.1 446.927 243.3 445.127Z" fill="#384051"/>
</svg>
