<svg width="500" height="501" viewBox="0 0 500 501" fill="none" xmlns="http://www.w3.org/2000/svg">
<g clip-path="url(#clip0_1_9272)">
<path d="M250 500.527C388.071 500.527 500 388.599 500 250.527C500 112.456 388.071 0.527344 250 0.527344C111.929 0.527344 0 112.456 0 250.527C0 388.599 111.929 500.527 250 500.527Z" fill="#192123"/>
<path d="M250 19.9273C280 19.9273 309.2 25.6273 336.8 36.8273C365.4 48.4273 391.1 65.5273 413.1 87.5273C435.1 109.527 452.2 135.227 463.8 163.827C475 191.427 480.7 220.627 480.7 250.627C480.7 280.627 475 309.827 463.8 337.427C452.2 366.027 435.1 391.727 413.1 413.727C391.1 435.727 365.4 452.827 336.8 464.427C309.2 475.527 280 481.127 250 481.127C220 481.127 190.8 475.427 163.2 464.227C134.6 452.627 108.9 435.527 86.9 413.527C64.9 391.527 47.8 365.827 36.2 337.227C25 309.727 19.4 280.427 19.4 250.527C19.4 220.627 25.1 191.327 36.3 163.727C47.9 135.127 65 109.427 87 87.4273C109 65.4273 134.7 48.3273 163.3 36.7273C190.8 25.5273 220 19.9273 250 19.9273ZM250 0.527344C186 0.527344 122 25.0273 73.2 73.7273C-24.4 171.327 -24.4 329.627 73.2 427.227C122 476.027 186 500.527 250 500.527C314 500.527 378 476.127 426.8 427.327C524.4 329.727 524.4 171.427 426.8 73.8273C378 25.0273 314 0.527344 250 0.527344Z" fill="url(#paint0_linear_1_9272)"/>
<mask id="mask0_1_9272" style="mask-type:luminance" maskUnits="userSpaceOnUse" x="147" y="162" width="126" height="164">
<path d="M272.8 162.427L147.2 192.127L182.9 325.927L272.8 162.427Z" fill="white"/>
</mask>
<g mask="url(#mask0_1_9272)">
<path opacity="0.5" d="M290.8 225.127L118.4 310.327" stroke="white" stroke-width="26.7624" stroke-miterlimit="10"/>
</g>
<mask id="mask1_1_9272" style="mask-type:luminance" maskUnits="userSpaceOnUse" x="147" y="162" width="126" height="164">
<path d="M272.8 162.427L147.2 192.127L182.9 325.927L272.8 162.427Z" fill="white"/>
</mask>
<g mask="url(#mask1_1_9272)">
<path opacity="0.5" d="M312.1 177.927L139.7 263.127" stroke="white" stroke-width="13.3812" stroke-miterlimit="10"/>
</g>
<path d="M175.2 184.127C176.8 185.727 179.7 193.827 179.7 193.827C179.7 193.827 182.2 186.227 184.2 184.127C186.2 182.027 193.9 179.627 193.9 179.627C193.9 179.627 185.9 176.927 184.2 175.127C182.5 173.427 179.7 165.427 179.7 165.427C179.7 165.427 177.1 173.227 175.2 175.127C173.3 177.027 165.5 179.627 165.5 179.627C165.5 179.627 173.5 182.427 175.2 184.127Z" fill="white"/>
<path d="M227.6 194.127C228.3 194.827 229.6 198.527 229.6 198.527C229.6 198.527 230.7 195.027 231.6 194.127C232.5 193.227 236 192.127 236 192.127C236 192.127 232.4 190.927 231.6 190.127C230.8 189.327 229.6 185.727 229.6 185.727C229.6 185.727 228.4 189.227 227.6 190.127C226.8 191.027 223.2 192.127 223.2 192.127C223.2 192.127 226.9 193.427 227.6 194.127Z" fill="white"/>
<mask id="mask2_1_9272" style="mask-type:luminance" maskUnits="userSpaceOnUse" x="135" y="106" width="170" height="207">
<path d="M195.8 306.327L295 157.327C295.8 156.027 296.5 154.627 296.9 153.127L304.3 122.927C307.2 111.127 294.4 101.827 284 108.127L151.4 189.527C148.7 191.227 146.6 193.727 145.6 196.827L136.6 224.127C135.5 227.527 135.8 231.227 137.3 234.327L172.2 304.827C177 314.227 190.1 315.027 195.8 306.327Z" fill="white"/>
</mask>
<g mask="url(#mask2_1_9272)">
<path d="M312.1 90.9274L147.2 192.127L272.8 162.427L312.1 90.9274Z" fill="#19898A"/>
</g>
<mask id="mask3_1_9272" style="mask-type:luminance" maskUnits="userSpaceOnUse" x="135" y="106" width="170" height="207">
<path d="M195.8 306.327L295 157.327C295.8 156.027 296.5 154.627 296.9 153.127L304.3 122.927C307.2 111.127 294.4 101.827 284 108.127L151.4 189.527C148.7 191.227 146.6 193.727 145.6 196.827L136.6 224.127C135.5 227.527 135.8 231.227 137.3 234.327L172.2 304.827C177 314.227 190.1 315.027 195.8 306.327Z" fill="white"/>
</mask>
<g mask="url(#mask3_1_9272)">
<path d="M272.8 162.427L182.9 325.927L296.2 155.327L312.1 90.9274L272.8 162.427Z" fill="#68FEE2"/>
</g>
<mask id="mask4_1_9272" style="mask-type:luminance" maskUnits="userSpaceOnUse" x="135" y="106" width="170" height="207">
<path d="M195.8 306.327L295 157.327C295.8 156.027 296.5 154.627 296.9 153.127L304.3 122.927C307.2 111.127 294.4 101.827 284 108.127L151.4 189.527C148.7 191.227 146.6 193.727 145.6 196.827L136.6 224.127C135.5 227.527 135.8 231.227 137.3 234.327L172.2 304.827C177 314.227 190.1 315.027 195.8 306.327Z" fill="white"/>
</mask>
<g mask="url(#mask4_1_9272)">
<path d="M272.8 162.427L147.2 192.127L182.9 325.927L272.8 162.427Z" fill="#1FC9A8"/>
</g>
<mask id="mask5_1_9272" style="mask-type:luminance" maskUnits="userSpaceOnUse" x="135" y="106" width="170" height="207">
<path d="M195.8 306.327L295 157.327C295.8 156.027 296.5 154.627 296.9 153.127L304.3 122.927C307.2 111.127 294.4 101.827 284 108.127L151.4 189.527C148.7 191.227 146.6 193.727 145.6 196.827L136.6 224.127C135.5 227.527 135.8 231.227 137.3 234.327L172.2 304.827C177 314.227 190.1 315.027 195.8 306.327Z" fill="white"/>
</mask>
<g mask="url(#mask5_1_9272)">
<path d="M182.9 325.927L147.2 192.127L135 229.327L182.9 325.927Z" fill="#68FEE2"/>
</g>
<mask id="mask6_1_9272" style="mask-type:luminance" maskUnits="userSpaceOnUse" x="135" y="106" width="170" height="207">
<path d="M195.8 306.327L295 157.327C295.8 156.027 296.5 154.627 296.9 153.127L304.3 122.927C307.2 111.127 294.4 101.827 284 108.127L151.4 189.527C148.7 191.227 146.6 193.727 145.6 196.827L136.6 224.127C135.5 227.527 135.8 231.227 137.3 234.327L172.2 304.827C177 314.227 190.1 315.027 195.8 306.327Z" fill="white"/>
</mask>
<g mask="url(#mask6_1_9272)">
<mask id="mask7_1_9272" style="mask-type:luminance" maskUnits="userSpaceOnUse" x="147" y="162" width="126" height="164">
<path d="M272.8 162.427L147.2 192.127L182.9 325.927L272.8 162.427Z" fill="white"/>
</mask>
<g mask="url(#mask7_1_9272)">
<path opacity="0.6" d="M231.3 287.127L186.8 100.127" stroke="white" stroke-width="26.7624" stroke-miterlimit="10"/>
</g>
</g>
<mask id="mask8_1_9272" style="mask-type:luminance" maskUnits="userSpaceOnUse" x="135" y="106" width="170" height="207">
<path d="M195.8 306.327L295 157.327C295.8 156.027 296.5 154.627 296.9 153.127L304.3 122.927C307.2 111.127 294.4 101.827 284 108.127L151.4 189.527C148.7 191.227 146.6 193.727 145.6 196.827L136.6 224.127C135.5 227.527 135.8 231.227 137.3 234.327L172.2 304.827C177 314.227 190.1 315.027 195.8 306.327Z" fill="white"/>
</mask>
<g mask="url(#mask8_1_9272)">
<mask id="mask9_1_9272" style="mask-type:luminance" maskUnits="userSpaceOnUse" x="147" y="162" width="126" height="164">
<path d="M272.8 162.427L147.2 192.127L182.9 325.927L272.8 162.427Z" fill="white"/>
</mask>
<g mask="url(#mask9_1_9272)">
<path opacity="0.6" d="M272.5 318.427L228.1 131.327" stroke="white" stroke-width="13.3812" stroke-miterlimit="10"/>
</g>
</g>
<mask id="mask10_1_9272" style="mask-type:luminance" maskUnits="userSpaceOnUse" x="135" y="106" width="170" height="207">
<path d="M195.8 306.327L295 157.327C295.8 156.027 296.5 154.627 296.9 153.127L304.3 122.927C307.2 111.127 294.4 101.827 284 108.127L151.4 189.527C148.7 191.227 146.6 193.727 145.6 196.827L136.6 224.127C135.5 227.527 135.8 231.227 137.3 234.327L172.2 304.827C177 314.227 190.1 315.027 195.8 306.327Z" fill="white"/>
</mask>
<g mask="url(#mask10_1_9272)">
<path d="M175.2 184.127C176.8 185.727 179.7 193.827 179.7 193.827C179.7 193.827 182.2 186.227 184.2 184.127C186.2 182.027 193.9 179.627 193.9 179.627C193.9 179.627 185.9 176.927 184.2 175.127C182.5 173.427 179.7 165.427 179.7 165.427C179.7 165.427 177.1 173.227 175.2 175.127C173.3 177.027 165.5 179.627 165.5 179.627C165.5 179.627 173.5 182.427 175.2 184.127Z" fill="white"/>
</g>
<mask id="mask11_1_9272" style="mask-type:luminance" maskUnits="userSpaceOnUse" x="135" y="106" width="170" height="207">
<path d="M195.8 306.327L295 157.327C295.8 156.027 296.5 154.627 296.9 153.127L304.3 122.927C307.2 111.127 294.4 101.827 284 108.127L151.4 189.527C148.7 191.227 146.6 193.727 145.6 196.827L136.6 224.127C135.5 227.527 135.8 231.227 137.3 234.327L172.2 304.827C177 314.227 190.1 315.027 195.8 306.327Z" fill="white"/>
</mask>
<g mask="url(#mask11_1_9272)">
<path d="M227.6 194.127C228.3 194.827 229.6 198.527 229.6 198.527C229.6 198.527 230.7 195.027 231.6 194.127C232.5 193.227 236 192.127 236 192.127C236 192.127 232.4 190.927 231.6 190.127C230.8 189.327 229.6 185.727 229.6 185.727C229.6 185.727 228.4 189.227 227.6 190.127C226.8 191.027 223.2 192.127 223.2 192.127C223.2 192.127 226.9 193.427 227.6 194.127Z" fill="white"/>
</g>
<mask id="mask12_1_9272" style="mask-type:luminance" maskUnits="userSpaceOnUse" x="195" y="188" width="170" height="208">
<path d="M216 392.927L348.6 311.527C351.3 309.827 353.4 307.327 354.4 304.227L363.4 276.927C364.5 273.527 364.2 269.827 362.7 266.727L327.8 196.227C323.1 186.827 310.2 186.027 304.4 194.727L205 343.727C204.2 345.027 203.5 346.427 203.1 347.927L195.7 378.127C192.9 389.927 205.7 399.327 216 392.927Z" fill="white"/>
</mask>
<g mask="url(#mask12_1_9272)">
<path d="M187.9 410.227L352.8 309.027L227.2 338.727L187.9 410.227Z" fill="#19898A"/>
</g>
<mask id="mask13_1_9272" style="mask-type:luminance" maskUnits="userSpaceOnUse" x="195" y="188" width="170" height="208">
<path d="M216 392.927L348.6 311.527C351.3 309.827 353.4 307.327 354.4 304.227L363.4 276.927C364.5 273.527 364.2 269.827 362.7 266.727L327.8 196.227C323.1 186.827 310.2 186.027 304.4 194.727L205 343.727C204.2 345.027 203.5 346.427 203.1 347.927L195.7 378.127C192.9 389.927 205.7 399.327 216 392.927Z" fill="white"/>
</mask>
<g mask="url(#mask13_1_9272)">
<path d="M227.2 338.727L317.1 175.327L203.8 345.727L187.9 410.227L227.2 338.727Z" fill="#68FEE2"/>
</g>
<mask id="mask14_1_9272" style="mask-type:luminance" maskUnits="userSpaceOnUse" x="195" y="188" width="170" height="208">
<path d="M216 392.927L348.6 311.527C351.3 309.827 353.4 307.327 354.4 304.227L363.4 276.927C364.5 273.527 364.2 269.827 362.7 266.727L327.8 196.227C323.1 186.827 310.2 186.027 304.4 194.727L205 343.727C204.2 345.027 203.5 346.427 203.1 347.927L195.7 378.127C192.9 389.927 205.7 399.327 216 392.927Z" fill="white"/>
</mask>
<g mask="url(#mask14_1_9272)">
<path d="M227.2 338.727L352.8 309.027L317.1 175.327L227.2 338.727Z" fill="#3AC1AC"/>
</g>
<mask id="mask15_1_9272" style="mask-type:luminance" maskUnits="userSpaceOnUse" x="195" y="188" width="170" height="208">
<path d="M216 392.927L348.6 311.527C351.3 309.827 353.4 307.327 354.4 304.227L363.4 276.927C364.5 273.527 364.2 269.827 362.7 266.727L327.8 196.227C323.1 186.827 310.2 186.027 304.4 194.727L205 343.727C204.2 345.027 203.5 346.427 203.1 347.927L195.7 378.127C192.9 389.927 205.7 399.327 216 392.927Z" fill="white"/>
</mask>
<g mask="url(#mask15_1_9272)">
<path d="M317.1 175.327L352.8 309.027L365 271.827L317.1 175.327Z" fill="#68FEE2"/>
</g>
<mask id="mask16_1_9272" style="mask-type:luminance" maskUnits="userSpaceOnUse" x="195" y="188" width="170" height="208">
<path d="M216 392.927L348.6 311.527C351.3 309.827 353.4 307.327 354.4 304.227L363.4 276.927C364.5 273.527 364.2 269.827 362.7 266.727L327.8 196.227C323.1 186.827 310.2 186.027 304.4 194.727L205 343.727C204.2 345.027 203.5 346.427 203.1 347.927L195.7 378.127C192.9 389.927 205.7 399.327 216 392.927Z" fill="white"/>
</mask>
<g mask="url(#mask16_1_9272)">
<mask id="mask17_1_9272" style="mask-type:luminance" maskUnits="userSpaceOnUse" x="227" y="175" width="126" height="164">
<path d="M227.2 338.727L352.8 309.027L317.1 175.327L227.2 338.727Z" fill="white"/>
</mask>
<g mask="url(#mask17_1_9272)">
<path opacity="0.5" d="M368.3 322.627L199.3 230.727" stroke="white" stroke-width="26.7624" stroke-miterlimit="10"/>
</g>
</g>
<mask id="mask18_1_9272" style="mask-type:luminance" maskUnits="userSpaceOnUse" x="195" y="188" width="170" height="208">
<path d="M216 392.927L348.6 311.527C351.3 309.827 353.4 307.327 354.4 304.227L363.4 276.927C364.5 273.527 364.2 269.827 362.7 266.727L327.8 196.227C323.1 186.827 310.2 186.027 304.4 194.727L205 343.727C204.2 345.027 203.5 346.427 203.1 347.927L195.7 378.127C192.9 389.927 205.7 399.327 216 392.927Z" fill="white"/>
</mask>
<g mask="url(#mask18_1_9272)">
<mask id="mask19_1_9272" style="mask-type:luminance" maskUnits="userSpaceOnUse" x="227" y="175" width="126" height="164">
<path d="M227.2 338.727L352.8 309.027L317.1 175.327L227.2 338.727Z" fill="white"/>
</mask>
<g mask="url(#mask19_1_9272)">
<path opacity="0.5" d="M419 312.827L250.2 221.027" stroke="white" stroke-width="13.3812" stroke-miterlimit="10"/>
</g>
</g>
<mask id="mask20_1_9272" style="mask-type:luminance" maskUnits="userSpaceOnUse" x="195" y="188" width="170" height="208">
<path d="M216 392.927L348.6 311.527C351.3 309.827 353.4 307.327 354.4 304.227L363.4 276.927C364.5 273.527 364.2 269.827 362.7 266.727L327.8 196.227C323.1 186.827 310.2 186.027 304.4 194.727L205 343.727C204.2 345.027 203.5 346.427 203.1 347.927L195.7 378.127C192.9 389.927 205.7 399.327 216 392.927Z" fill="white"/>
</mask>
<g mask="url(#mask20_1_9272)">
<path d="M272.4 336.727C271.7 336.027 270.4 332.327 270.4 332.327C270.4 332.327 269.3 335.827 268.4 336.727C267.5 337.627 264 338.727 264 338.727C264 338.727 267.6 339.927 268.4 340.727C269.2 341.427 270.4 345.127 270.4 345.127C270.4 345.127 271.6 341.627 272.4 340.727C273.2 339.827 276.8 338.727 276.8 338.727C276.8 338.727 273.1 337.327 272.4 336.727Z" fill="white"/>
</g>
<mask id="mask21_1_9272" style="mask-type:luminance" maskUnits="userSpaceOnUse" x="195" y="188" width="170" height="208">
<path d="M216 392.927L348.6 311.527C351.3 309.827 353.4 307.327 354.4 304.227L363.4 276.927C364.5 273.527 364.2 269.827 362.7 266.727L327.8 196.227C323.1 186.827 310.2 186.027 304.4 194.727L205 343.727C204.2 345.027 203.5 346.427 203.1 347.927L195.7 378.127C192.9 389.927 205.7 399.327 216 392.927Z" fill="white"/>
</mask>
<g mask="url(#mask21_1_9272)">
<path d="M187.9 410.227L352.8 309.027L227.2 338.727L187.9 410.227Z" fill="#19898A"/>
</g>
<mask id="mask22_1_9272" style="mask-type:luminance" maskUnits="userSpaceOnUse" x="195" y="188" width="170" height="208">
<path d="M216 392.927L348.6 311.527C351.3 309.827 353.4 307.327 354.4 304.227L363.4 276.927C364.5 273.527 364.2 269.827 362.7 266.727L327.8 196.227C323.1 186.827 310.2 186.027 304.4 194.727L205 343.727C204.2 345.027 203.5 346.427 203.1 347.927L195.7 378.127C192.9 389.927 205.7 399.327 216 392.927Z" fill="white"/>
</mask>
<g mask="url(#mask22_1_9272)">
<path d="M227.2 338.727L317.1 175.327L203.8 345.727L187.9 410.227L227.2 338.727Z" fill="#68FEE2"/>
</g>
<mask id="mask23_1_9272" style="mask-type:luminance" maskUnits="userSpaceOnUse" x="195" y="188" width="170" height="208">
<path d="M216 392.927L348.6 311.527C351.3 309.827 353.4 307.327 354.4 304.227L363.4 276.927C364.5 273.527 364.2 269.827 362.7 266.727L327.8 196.227C323.1 186.827 310.2 186.027 304.4 194.727L205 343.727C204.2 345.027 203.5 346.427 203.1 347.927L195.7 378.127C192.9 389.927 205.7 399.327 216 392.927Z" fill="white"/>
</mask>
<g mask="url(#mask23_1_9272)">
<path d="M227.2 338.727L352.8 309.027L317.1 175.327L227.2 338.727Z" fill="#1FC9A8"/>
</g>
<mask id="mask24_1_9272" style="mask-type:luminance" maskUnits="userSpaceOnUse" x="195" y="188" width="170" height="208">
<path d="M216 392.927L348.6 311.527C351.3 309.827 353.4 307.327 354.4 304.227L363.4 276.927C364.5 273.527 364.2 269.827 362.7 266.727L327.8 196.227C323.1 186.827 310.2 186.027 304.4 194.727L205 343.727C204.2 345.027 203.5 346.427 203.1 347.927L195.7 378.127C192.9 389.927 205.7 399.327 216 392.927Z" fill="white"/>
</mask>
<g mask="url(#mask24_1_9272)">
<path d="M317.1 175.327L352.8 309.027L365 271.827L317.1 175.327Z" fill="#68FEE2"/>
</g>
<mask id="mask25_1_9272" style="mask-type:luminance" maskUnits="userSpaceOnUse" x="195" y="188" width="170" height="208">
<path d="M216 392.927L348.6 311.527C351.3 309.827 353.4 307.327 354.4 304.227L363.4 276.927C364.5 273.527 364.2 269.827 362.7 266.727L327.8 196.227C323.1 186.827 310.2 186.027 304.4 194.727L205 343.727C204.2 345.027 203.5 346.427 203.1 347.927L195.7 378.127C192.9 389.927 205.7 399.327 216 392.927Z" fill="white"/>
</mask>
<g mask="url(#mask25_1_9272)">
<mask id="mask26_1_9272" style="mask-type:luminance" maskUnits="userSpaceOnUse" x="227" y="175" width="126" height="164">
<path d="M227.2 338.727L352.8 309.027L317.1 175.327L227.2 338.727Z" fill="white"/>
</mask>
<g mask="url(#mask26_1_9272)">
<path d="M379.5 307.827L210.6 215.927" stroke="white" stroke-width="22.5264" stroke-miterlimit="10"/>
</g>
</g>
<mask id="mask27_1_9272" style="mask-type:luminance" maskUnits="userSpaceOnUse" x="195" y="188" width="170" height="208">
<path d="M216 392.927L348.6 311.527C351.3 309.827 353.4 307.327 354.4 304.227L363.4 276.927C364.5 273.527 364.2 269.827 362.7 266.727L327.8 196.227C323.1 186.827 310.2 186.027 304.4 194.727L205 343.727C204.2 345.027 203.5 346.427 203.1 347.927L195.7 378.127C192.9 389.927 205.7 399.327 216 392.927Z" fill="white"/>
</mask>
<g mask="url(#mask27_1_9272)">
<mask id="mask28_1_9272" style="mask-type:luminance" maskUnits="userSpaceOnUse" x="227" y="175" width="126" height="164">
<path d="M227.2 338.727L352.8 309.027L317.1 175.327L227.2 338.727Z" fill="white"/>
</mask>
<g mask="url(#mask28_1_9272)">
<path d="M430.3 298.027L261.4 206.127" stroke="white" stroke-width="15.0176" stroke-miterlimit="10"/>
</g>
</g>
<mask id="mask29_1_9272" style="mask-type:luminance" maskUnits="userSpaceOnUse" x="195" y="188" width="170" height="208">
<path d="M216 392.927L348.6 311.527C351.3 309.827 353.4 307.327 354.4 304.227L363.4 276.927C364.5 273.527 364.2 269.827 362.7 266.727L327.8 196.227C323.1 186.827 310.2 186.027 304.4 194.727L205 343.727C204.2 345.027 203.5 346.427 203.1 347.927L195.7 378.127C192.9 389.927 205.7 399.327 216 392.927Z" fill="white"/>
</mask>
<g mask="url(#mask29_1_9272)">
<path d="M272.4 336.727C271.7 336.027 270.4 332.327 270.4 332.327C270.4 332.327 269.3 335.827 268.4 336.727C267.5 337.627 264 338.727 264 338.727C264 338.727 267.6 339.927 268.4 340.727C269.2 341.427 270.4 345.127 270.4 345.127C270.4 345.127 271.6 341.627 272.4 340.727C273.2 339.827 276.8 338.727 276.8 338.727C276.8 338.727 273.1 337.327 272.4 336.727Z" fill="white"/>
</g>
</g>
<defs>
<linearGradient id="paint0_linear_1_9272" x1="124.98" y1="33.9861" x2="375.02" y2="467.068" gradientUnits="userSpaceOnUse">
<stop offset="0.000788763" stop-color="#2F353D"/>
<stop offset="0.1394" stop-color="#314348"/>
<stop offset="0.4008" stop-color="#376864"/>
<stop offset="0.7542" stop-color="#41A291"/>
<stop offset="1" stop-color="#48CFB4"/>
</linearGradient>
<clipPath id="clip0_1_9272">
<rect width="500" height="500" fill="white" transform="translate(0 0.527344)"/>
</clipPath>
</defs>
</svg>
