<svg width="500" height="501" viewBox="0 0 500 501" fill="none" xmlns="http://www.w3.org/2000/svg">
<path d="M250 481.527C381.996 481.527 489 374.523 489 242.527C489 110.531 381.996 3.52734 250 3.52734C118.004 3.52734 11 110.531 11 242.527C11 374.523 118.004 481.527 250 481.527Z" fill="url(#paint0_radial_1_9415)"/>
<path d="M329.9 242.227C346.7 248.927 354.1 262.027 353.6 280.327C353.3 291.227 353.5 302.227 353.5 313.827C347.6 313.827 342.3 313.827 337.1 313.827C324.6 313.827 312.1 313.727 299.6 313.927C296.1 313.927 294.9 312.727 295 309.327C295.2 299.827 295.1 290.327 295.1 280.827C295.1 270.527 290.7 265.927 280.2 265.827C265.2 265.627 250.2 265.827 235.2 265.827C227.5 265.827 219.9 265.827 211.7 265.827C211.6 267.827 211.4 269.527 211.4 271.327C211.4 284.027 211.4 296.627 211.4 309.327C211.4 311.727 211.6 314.027 207.9 313.927C190.2 313.827 172.6 313.827 154.9 313.827C154.4 313.827 154 313.527 153.2 313.327C153.2 266.227 153.2 219.127 153.2 171.527C154.8 171.427 156.4 171.327 158 171.327C204.5 171.327 251 171.027 297.5 171.627C307.8 171.727 318.5 173.527 328.3 176.727C353.1 184.927 360.1 218.627 341 235.527C337.6 238.327 333.4 240.127 329.9 242.227ZM211.5 226.027C213.4 226.127 214.9 226.327 216.4 226.327C238.1 226.327 259.7 226.327 281.4 226.327C288.9 226.327 291.9 224.427 291.9 220.027C291.9 215.627 288.7 213.627 281.4 213.627C259.7 213.627 238.1 213.627 216.4 213.627C214.8 213.627 213.2 213.727 211.5 213.827C211.5 218.127 211.5 221.827 211.5 226.027Z" fill="white"/>
<defs>
<radialGradient id="paint0_radial_1_9415" cx="0" cy="0" r="1" gradientUnits="userSpaceOnUse" gradientTransform="translate(127.081 130.215) scale(373.306)">
<stop offset="0.1678" stop-color="#2B6FFE"/>
<stop offset="0.5059" stop-color="#5899FF"/>
<stop offset="0.8038" stop-color="#FF74F1"/>
</radialGradient>
</defs>
</svg>
