<svg width="500" height="501" viewBox="0 0 500 501" fill="none" xmlns="http://www.w3.org/2000/svg">
<g clip-path="url(#clip0_1_9418)">
<path d="M438.8 188.027V362.227L245 474.227L51.1001 362.327V138.427L245 26.4273L394 112.427L416.5 99.4273L245 0.527344L28.6001 125.527V375.327L245 500.327L461.4 375.327V175.127L438.8 188.027Z" fill="url(#paint0_linear_1_9418)"/>
<path d="M190.8 362.427H158.4V253.727H266.5C276.7 253.627 286.5 249.527 293.7 242.227C300.9 234.927 305 225.127 305 214.927C305.1 209.827 304.1 204.827 302.1 200.227C300.1 195.527 297.3 191.327 293.6 187.827C290.1 184.227 285.9 181.327 281.2 179.427C276.5 177.427 271.5 176.527 266.5 176.527H158.3V143.427H266.5C285.4 143.527 303.6 151.127 317 164.527C330.4 177.927 338 196.027 338.1 215.027C338.2 229.527 333.8 243.727 325.5 255.527C317.8 266.827 307 275.727 294.4 281.027C281.9 285.027 268.8 286.927 255.7 286.827H190.8V362.427Z" fill="url(#paint1_linear_1_9418)"/>
<path d="M337.3 359.727H299.5L270.3 308.827C281.8 308.127 293.2 305.827 304.1 301.927L337.3 359.727Z" fill="url(#paint2_linear_1_9418)"/>
<path d="M416.2 151.827L438.6 164.227L461 151.827V125.527L438.6 112.527L416.2 125.527V151.827Z" fill="url(#paint3_linear_1_9418)"/>
</g>
<defs>
<linearGradient id="paint0_linear_1_9418" x1="474.269" y1="158.71" x2="15.3691" y2="342.223" gradientUnits="userSpaceOnUse">
<stop stop-color="#C200FB"/>
<stop offset="0.4897" stop-color="#3772FF"/>
<stop offset="0.4898" stop-color="#3773FE"/>
<stop offset="1" stop-color="#5AC4BE"/>
</linearGradient>
<linearGradient id="paint1_linear_1_9418" x1="465.41" y1="136.556" x2="6.50955" y2="320.069" gradientUnits="userSpaceOnUse">
<stop stop-color="#C200FB"/>
<stop offset="0.4897" stop-color="#3772FF"/>
<stop offset="0.4898" stop-color="#3773FE"/>
<stop offset="1" stop-color="#5AC4BE"/>
</linearGradient>
<linearGradient id="paint2_linear_1_9418" x1="511.296" y1="251.301" x2="52.3958" y2="434.814" gradientUnits="userSpaceOnUse">
<stop stop-color="#C200FB"/>
<stop offset="0.4897" stop-color="#3772FF"/>
<stop offset="0.4898" stop-color="#3773FE"/>
<stop offset="1" stop-color="#5AC4BE"/>
</linearGradient>
<linearGradient id="paint3_linear_1_9418" x1="462.338" y1="128.969" x2="3.43835" y2="312.482" gradientUnits="userSpaceOnUse">
<stop stop-color="#C200FB"/>
<stop offset="0.4897" stop-color="#3772FF"/>
<stop offset="0.4898" stop-color="#3773FE"/>
<stop offset="1" stop-color="#5AC4BE"/>
</linearGradient>
<clipPath id="clip0_1_9418">
<rect width="500" height="500" fill="white" transform="translate(0 0.527344)"/>
</clipPath>
</defs>
</svg>
