<svg width="500" height="501" viewBox="0 0 500 501" fill="none" xmlns="http://www.w3.org/2000/svg">
<g clip-path="url(#clip0_1_9426)">
<path d="M331.7 338.127C325.2 323.727 317.8 309.027 317 293.127C315.8 270.627 327.8 250.027 337.8 230.027C340.9 223.927 343.9 217.627 346.7 211.427C318 182.527 294.6 148.027 278.3 110.227C263.5 137.827 252.7 167.727 246.5 198.627H235.2C219.8 121.127 174.9 50.2273 112.3 4.62734C89.3 -12.0727 94.7 27.7273 95.1 40.1273C95.9 62.3273 98.4 84.4273 102.4 106.227C110.3 149.327 124.3 191.227 143.9 230.027C154 250.027 165.9 270.627 164.7 293.127C163.9 309.027 156.5 323.727 150 338.127C138.1 364.427 128.5 391.727 121.2 419.727C119.7 425.327 118.4 431.227 119.4 436.927C120.7 444.027 125.6 449.827 130.6 454.927C153.6 478.127 183.5 494.027 215.3 499.827C222 501.027 230.5 501.127 234 495.027C237.9 488.227 232.1 479.627 225.6 475.327C219.2 470.927 207.9 463.727 208.3 460.127C209.4 452.827 227.4 467.527 239.2 468.827C239.6 468.827 239.9 468.927 240.2 468.927C240.3 468.927 240.3 468.927 240.4 468.927C240.5 468.927 240.6 468.927 240.7 468.927C240.8 468.927 240.9 468.927 241 468.927C241.1 468.927 241.1 468.927 241.2 468.927C241.5 468.927 241.9 468.927 242.2 468.827C254 467.527 272 452.827 273.1 460.127C273.5 463.727 262.3 470.927 255.8 475.327C249.4 479.727 243.5 488.227 247.4 495.027C250.9 501.127 259.3 501.027 266.1 499.827C297.8 494.027 327.7 478.127 350.8 454.927C355.8 449.827 360.7 444.027 362 436.927C363.1 431.227 361.7 425.327 360.2 419.727C353.3 391.827 343.6 364.427 331.7 338.127Z" fill="#E73747"/>
<path d="M397.8 131.727C396 121.227 394 110.727 391.6 100.327H287.2C309 156.127 344 205.327 388.1 240.527C410.6 258.427 405.3 215.827 404.8 202.527C404 178.727 401.7 155.027 397.8 131.727Z" fill="#303031"/>
</g>
<defs>
<clipPath id="clip0_1_9426">
<rect width="500" height="500" fill="white" transform="translate(0 0.527344)"/>
</clipPath>
</defs>
</svg>
