<svg width="500" height="501" viewBox="0 0 500 501" fill="none" xmlns="http://www.w3.org/2000/svg">
<path d="M47.96 323.808C42.656 333.466 38.591 340.758 34.629 348.106C27.775 360.82 20.139 361.692 9.34496 350.976C6.84696 344.374 9.10601 338.528 12.34 333.016C20.791 318.609 29.419 304.307 38.839 288.517C29.559 228.595 42.518 172.162 80.376 122.255C110.532 82.5014 150.525 56.6884 198.783 44.7134C295.781 20.6434 407.551 67.0544 451.861 179.537C458.171 171.745 461.659 163.098 466.151 155.076C471.034 146.356 477.636 144.373 485.906 149.139C487.658 150.149 489.009 151.854 490.059 152.8C493.151 159.953 490.958 165.775 487.882 171.399C483.872 178.732 479.94 186.124 475.55 193.228C471.157 200.337 466.24 207.122 460.944 214.949C470.352 276.643 457.32 333.831 418.353 384.164C388.373 422.889 349.079 448.214 301.689 459.96C248.873 473.051 197.881 466.724 149.687 441.223C101.46 415.705 68.484 376.444 47.96 323.808ZM431.33 208.249C411.928 122.345 323.123 47.0784 212.329 69.2334C106.739 90.3474 55.657 190.505 64.604 260.417C67.852 257.894 70.852 255.86 73.513 253.451C100.828 228.728 131.993 210.328 166.285 197.169C201.548 183.638 237.929 174.77 275.651 171.667C285.363 170.868 295.045 169.699 306.268 168.543C296.034 158.307 286.886 149.159 277.739 140.01C268.662 130.932 259.586 121.853 250.286 112.552C256.779 105.288 262.616 99.0044 269.175 93.6794C288.344 109.845 352.957 175.624 356.253 181.28C330.141 207.394 304.49 233.046 279.393 258.145C274.549 253.384 268.69 247.625 262.227 241.271C276.401 227.073 290.652 212.799 306.515 196.91C300.189 196.91 296.439 196.516 292.798 196.976C273.347 199.43 253.731 201.121 234.527 204.885C188.039 213.998 144.836 231.358 106.807 260.135C92.521 270.946 78.673 282.421 68.682 297.045C87.987 382.552 176.79 457.851 287.592 435.681C393.728 414.445 444.282 313.773 435.317 244.499C432.07 247.023 429.072 249.062 426.407 251.47C399.079 276.172 367.929 294.597 333.632 307.751C298.365 321.277 261.981 330.141 224.258 333.25C214.551 334.05 204.874 335.21 193.649 336.362C212.972 355.692 231.193 373.919 249.639 392.371C243.132 399.635 237.297 405.921 230.745 411.246C211.141 394.679 146.975 329.332 142.18 321.052C167.755 295.477 193.405 269.827 217.687 245.545C224.929 252.002 231.069 257.477 237.833 263.508C223.517 277.848 209.268 292.121 193.51 307.905C214.918 308.679 233.465 305.979 251.926 302.738C293.38 295.462 332.936 282.77 369.179 260.85C392.6 246.686 413.952 230.11 431.33 208.249Z" fill="#415CF5"/>
</svg>
