<svg width="500" height="501" viewBox="0 0 500 501" fill="none" xmlns="http://www.w3.org/2000/svg">
<path d="M207.5 435.427L176.1 370.227L119.9 458.827C124.8 461.827 129.8 464.727 134.9 467.427C141.3 470.827 147.9 473.927 154.6 476.727C176.1 485.627 198.7 491.527 221.8 494.027C226.6 494.527 231.5 494.927 236.3 495.227L207.5 435.427Z" fill="#7CC245"/>
<path d="M487.1 183.027C485.5 177.427 483.8 171.927 481.8 166.427L308.4 319.627L284.5 340.727L286.5 360.227L299.6 490.427C308.2 488.627 316.6 486.427 325 483.727C424.3 451.827 496.2 358.727 496.2 248.827C496.1 226.127 492.9 204.027 487.1 183.027Z" fill="#FCCB32"/>
<path d="M146.1 380.527L184.4 460.027L317.3 342.627L293.2 104.127L146.1 380.527Z" fill="#EE3F26"/>
<path d="M162.9 371.727L289.6 133.727L290.5 142.827L304.1 117.327V117.227L65.5 192.027L159.9 388.227L165.6 377.427L162.9 371.727Z" fill="#CF3627"/>
<path d="M195.9 440.227L221.8 494.027C230.9 495.027 240.1 495.627 249.5 495.627C275.8 495.627 301.2 491.427 325 483.827L310.4 339.227L195.9 440.227Z" fill="#F05048"/>
<path d="M310.3 339.127L324.9 483.727C424.2 451.827 496.1 358.727 496.1 248.827C496.1 226.027 492.9 203.927 487.1 182.927L310.3 339.127Z" fill="#FCCB32"/>
<path d="M276.5 3.82739C267.5 2.82739 258.5 2.32739 249.5 2.32739C161.5 2.32739 84.2999 48.4274 40.7 117.727C29.6 135.427 20.8 154.327 14.5 174.227L80 199.427L289.7 133.727H289.8L312.3 10.5274C300.4 7.32739 288.5 5.12739 276.5 3.82739Z" fill="#2591D4"/>
<path d="M436 87.7274C412 59.9274 382.1 37.8274 348.5 23.0274C336.7 17.8274 324.6 13.6274 312.2 10.4274L289.7 133.627L289.6 133.727L310.3 339.127L487.1 183.027C477.4 147.827 459.9 115.327 436 87.7274Z" fill="#F47F22"/>
<path d="M162.9 371.727L79.8999 199.327L14.4 174.127C6.70002 198.327 2.69995 223.527 2.69995 248.827C2.69995 336.427 48.4 413.427 117.3 457.127C123 460.727 128.8 464.127 134.8 467.227L176.9 400.927L162.9 371.727Z" fill="#4CAA4C"/>
<path d="M195.9 440.227L177 401.027L134.9 467.327C141.3 470.727 147.9 473.827 154.6 476.627C176.1 485.527 198.7 491.427 221.8 493.927L195.9 440.227Z" fill="#7CC245"/>
<path d="M436 87.7273C412 59.9273 382.1 37.8273 348.5 23.0273L289.6 133.627L436 87.7273ZM289.6 133.727L310.3 339.127L487.1 183.027C477.3 147.827 459.9 115.327 436 87.7273L289.6 133.627V133.727Z" fill="#F47F22"/>
<path d="M162.9 371.727L195.9 440.227L310.4 339.127L289.7 133.727L162.9 371.727Z" fill="#EE3F26"/>
<path d="M289.6 133.627L276.5 3.82739C267.5 2.82739 258.5 2.32739 249.4 2.32739C161.4 2.32739 84.2 48.4274 40.6 117.727L79.8999 199.427L289.6 133.627Z" fill="#1E85CA"/>
<path d="M289.6 133.627L79.8999 199.327L162.9 371.727L289.6 133.727V133.627Z" fill="#CF3627"/>
<path d="M289.7 133.627L348.6 23.0273C325.7 12.9273 301.4 6.42729 276.6 3.72729L289.7 133.627Z" fill="#35A9E1"/>
<path d="M195.9 440.227L221.8 494.027C230.9 495.027 240.1 495.627 249.5 495.627C275.8 495.627 301.2 491.427 325 483.827L310.4 339.227L195.9 440.227Z" fill="#F05048"/>
<path d="M310.3 339.127L324.9 483.727C424.2 451.827 496.1 358.727 496.1 248.827C496.1 226.027 492.9 203.927 487.1 182.927L310.3 339.127Z" fill="#FCCB32"/>
<path d="M154.6 476.727C176.1 485.627 198.7 491.527 221.8 494.027L195.9 440.227L154.6 476.727Z" fill="#7CC245"/>
<path d="M40.6 117.727C20.5 149.627 7.99998 185.727 4.09998 223.127L79.8999 199.327L40.6 117.727Z" fill="#0161AD"/>
<path d="M79.8999 199.327L4.09998 223.127C3.19998 231.727 2.80005 240.327 2.80005 248.927C2.80005 336.527 48.4999 413.527 117.4 457.227L162.9 371.727L79.8999 199.327Z" fill="#4CAA4C"/>
<path d="M162.9 371.727L117.4 457.227C129.2 464.727 141.7 471.227 154.6 476.627L195.9 440.227L162.9 371.727Z" fill="#51B34B"/>
<path d="M294.8 56.5273L288.9 73.8273C340.3 101.627 390.1 151.127 417.1 194.327L434.8 189.027C405.9 141.827 351.2 87.0273 294.8 56.5273Z" fill="#444344"/>
<path d="M380.5 16.4274C347.4 16.4274 318.6 34.5274 303.4 61.3274C301.4 64.8274 299.6 68.4274 298.1 72.2274C297.7 73.2274 297.4 74.2274 297.1 75.2274C296.8 76.1274 296.4 77.0274 296.2 77.9274C342.5 104.827 386.6 148.427 413 187.827C413.4 187.627 413.8 187.527 414.2 187.427C417.1 186.227 420 184.827 422.7 183.327C424.8 182.127 426.9 180.927 428.9 179.627C453.2 163.827 469.4 136.427 469.4 105.227C469.3 56.2274 429.6 16.4274 380.5 16.4274Z" fill="#EE3F26"/>
<path d="M297 75.2274C296.7 76.1274 296.3 77.0274 296.1 77.9274C342.4 104.827 386.5 148.427 412.9 187.827C413.3 187.627 413.7 187.527 414.1 187.427C417 186.227 419.9 184.827 422.6 183.327C394.6 144.027 346.5 100.527 297 75.2274Z" fill="#C03225"/>
</svg>
