<svg width="500" height="501" viewBox="0 0 500 501" fill="none" xmlns="http://www.w3.org/2000/svg">
<path d="M411.413 275.129C379.071 275.129 346.588 275.129 313.698 275.129C312.833 262.53 312.786 250.767 311.104 239.244C303.04 183.994 276.36 138.331 237.573 99.1653C201.452 62.6913 158.502 36.2783 112.284 14.7443C109.33 13.3683 106.488 11.7533 104.038 8.52734C167.892 8.52734 231.745 8.52734 296.023 8.52734C363.647 57.9223 428.631 207.177 411.413 275.129ZM170.615 192.131C170.615 291.512 170.615 390.69 170.615 491.982C212.808 464.99 253.419 439.009 294.569 412.685C277.435 375.66 177.762 198.401 170.615 192.131Z" fill="black"/>
</svg>
