<svg width="500" height="501" viewBox="0 0 500 501" fill="none" xmlns="http://www.w3.org/2000/svg">
<path fill-rule="evenodd" clip-rule="evenodd" d="M98.8998 106.127L135.1 85.1273L139.9 93.5273L273.2 15.9273L263.4 10.2273L253.6 4.52729L248.8 1.72729L31.7998 128.327V134.027L94.0998 97.6273L98.8998 106.127Z" fill="#070707"/>
<path fill-rule="evenodd" clip-rule="evenodd" d="M98.8998 185.827L203.4 124.927L208.2 133.427L341.5 55.8273L331.7 50.0273L321.9 44.3273L317.1 41.6273L31.7998 208.027V213.727L94.0998 177.227L98.8998 185.827Z" fill="#070707"/>
<path fill-rule="evenodd" clip-rule="evenodd" d="M98.8998 225.727L237.5 144.927L242.4 153.327L375.6 75.6274L365.8 70.0274L356.1 64.3274L351.2 61.4274L31.7998 247.827V253.527L94.0998 217.227L98.8998 225.727Z" fill="#070707"/>
<path fill-rule="evenodd" clip-rule="evenodd" d="M98.8998 265.527L272.6 164.227L277.5 172.727L409.7 95.6274L400 89.8274L390.2 84.2274L385.4 81.3274L31.7998 287.727V293.327L94.0998 256.927L98.8998 265.527Z" fill="#070707"/>
<path fill-rule="evenodd" clip-rule="evenodd" d="M98.8998 305.327L306.8 184.127L311.6 192.727L443.9 115.427L434.1 109.827L424.4 104.127L419.5 101.227L31.7998 327.527V333.127L94.0998 296.827L98.8998 305.327Z" fill="#070707"/>
<path fill-rule="evenodd" clip-rule="evenodd" d="M458.5 124.027L453.6 121.127L31.7998 367.427V373.027L94.0998 336.727L98.8998 345.227L306.8 224.027L311.6 232.527L465.8 142.627V131.227V128.327L458.5 124.027Z" fill="#070707"/>
<path fill-rule="evenodd" clip-rule="evenodd" d="M58.5002 397.227L93.4002 376.827L98.3002 385.327L305.8 264.327L310.6 272.927L465.8 182.327V170.927V159.527V153.927L53.7002 394.427L58.5002 397.227Z" fill="#070707"/>
<path fill-rule="evenodd" clip-rule="evenodd" d="M305.8 304.227L310.6 312.827L465.8 222.327V210.827V199.427V193.827L87.7998 414.327L92.6998 417.127L128.2 396.427L133.1 404.927" fill="#070707"/>
<path fill-rule="evenodd" clip-rule="evenodd" d="M126.9 437.127L162.4 416.327L167.2 424.927L305.8 344.027L310.6 352.627L465.8 262.027V250.627V239.327V233.627L121.9 434.127L126.9 437.127Z" fill="#070707"/>
<path fill-rule="evenodd" clip-rule="evenodd" d="M161 457.027L196.5 436.327L201.4 444.827L305.8 383.927L310.6 392.427L465.8 301.827V290.527V279.127V273.427L156.1 454.127L161 457.027Z" fill="#070707"/>
<path fill-rule="evenodd" clip-rule="evenodd" d="M190.3 474.027L195.1 476.927L230.7 456.127L235.5 464.727L305.8 423.727L310.6 432.227L465.8 341.727V330.327V318.927V313.227L190.3 474.027Z" fill="#070707"/>
<path fill-rule="evenodd" clip-rule="evenodd" d="M229.3 496.927L264.8 476.027L269.6 484.627L305.8 463.527L310.6 472.127L465.8 381.627V370.227V358.827V353.127L224.4 494.027L229.3 496.927Z" fill="#070707"/>
<path fill-rule="evenodd" clip-rule="evenodd" d="M307.3 35.8273L297.5 30.1273L287.8 24.5273L282.9 21.6273L31.7998 168.127V173.827L94.0998 137.527L98.8998 145.927L169.2 105.027L174.2 113.527L307.3 35.8273Z" fill="#070707"/>
</svg>
