<svg width="500" height="501" viewBox="0 0 500 501" fill="none" xmlns="http://www.w3.org/2000/svg">
<path d="M249.8 495.927C385.496 495.927 495.5 385.924 495.5 250.227C495.5 114.531 385.496 4.52734 249.8 4.52734C114.104 4.52734 4.1001 114.531 4.1001 250.227C4.1001 385.924 114.104 495.927 249.8 495.927Z" fill="black"/>
<path d="M394.2 309.527L363.4 258.027C362.2 256.127 359.8 255.527 357.9 256.727L337.9 269.527C336.1 270.727 335.5 273.027 336.6 274.927L354.2 304.327C354.7 305.227 354.5 306.427 353.6 307.027L251 372.827C250.4 373.227 249.5 373.227 248.9 372.827L146.2 307.027C145.3 306.427 145 305.327 145.6 304.327L163.2 274.927C164.3 273.127 163.7 270.727 161.9 269.527L141.9 256.727C140 255.527 137.5 256.127 136.4 258.027L105.4 309.527C103.2 313.227 104.3 318.027 107.9 320.227L245.5 408.327C248.1 410.027 251.5 410.027 254.1 408.327L391.7 320.227C395.3 317.927 396.4 313.227 394.2 309.527Z" fill="white"/>
<path d="M157.9 229.427L177.9 242.227C179.8 243.427 182.3 242.827 183.4 240.927L248.1 132.727C248.9 131.427 250.7 131.427 251.5 132.727L316.2 240.927C317.4 242.827 319.8 243.427 321.7 242.227L341.7 229.427C343.5 228.227 344.1 225.927 343 224.027L265.8 94.7274C264.3 92.3274 261.8 90.8274 259 90.8274H240.8C238 90.8274 235.4 92.3274 234 94.7274L156.7 224.027C155.5 225.827 156.1 228.227 157.9 229.427Z" fill="#2AE7A8"/>
</svg>
