<svg width="500" height="501" viewBox="0 0 500 501" fill="none" xmlns="http://www.w3.org/2000/svg">
<path d="M19.2002 447.527V55.5273C19.2002 26.4273 42.9002 2.72729 72.0002 2.72729H455.1C465.1 2.72729 473.2 10.8273 473.2 20.8273V125.027C473.2 135.927 468.9 146.427 461.3 154.127L334.7 282.427L465.6 413.327C485.2 432.927 485.2 464.627 465.6 484.227C446 503.827 414.3 503.827 394.7 484.227L225.5 314.927C207 296.427 207 266.427 225.6 247.927L376.5 98.5273L120.7 98.8273V447.527C120.7 475.427 98.2002 498.027 70.3002 498.327C42.2002 498.527 19.2002 475.727 19.2002 447.527Z" fill="#00E6A0"/>
<path d="M467.9 8.02736C471.2 11.2274 473.2 15.8274 473.2 20.8274V125.027C473.2 135.927 468.9 146.427 461.3 154.127L334.7 282.427L465.6 413.327C485.2 432.927 485.2 464.627 465.6 484.227C446 503.827 414.3 503.827 394.7 484.227L225.5 314.927C207 296.427 207 266.427 225.6 247.927L376.5 98.5274C376.5 98.5274 466.9 7.12736 467.9 8.02736Z" fill="#008C62"/>
</svg>
