<svg width="500" height="501" viewBox="0 0 500 501" fill="none" xmlns="http://www.w3.org/2000/svg">
<path d="M250 1.52734C112.5 1.52734 1 113.027 1 250.527C1 388.027 112.5 499.527 250 499.527C387.5 499.527 499 388.027 499 250.527C499 113.027 387.5 1.52734 250 1.52734Z" fill="white"/>
<path d="M250 23.5273C280.7 23.5273 310.4 29.5273 338.4 41.3273C365.4 52.7273 389.7 69.1273 410.6 90.0273C431.5 110.927 447.8 135.127 459.3 162.227C471.1 190.227 477.1 219.927 477.1 250.627C477.1 281.327 471.1 311.027 459.3 339.027C447.9 366.027 431.5 390.327 410.6 411.227C389.7 432.127 365.5 448.427 338.4 459.927C310.4 471.527 280.7 477.527 250 477.527C219.3 477.527 189.6 471.527 161.6 459.727C134.6 448.327 110.3 431.927 89.4 411.027C68.5 390.127 52.2 365.927 40.7 338.827C29 310.927 23 281.227 23 250.527C23 219.827 29 190.127 40.8 162.127C52.2 135.127 68.6 110.827 89.5 89.9273C110.4 69.0273 134.6 52.7273 161.7 41.2273C189.6 29.5273 219.3 23.5273 250 23.5273ZM250 1.52734C112.5 1.52734 1 113.027 1 250.527C1 388.027 112.5 499.527 250 499.527C387.5 499.527 499 388.027 499 250.527C499 113.027 387.5 1.52734 250 1.52734Z" fill="url(#paint0_linear_1_9504)"/>
<path d="M249.9 63.5273L141.3 243.427L249.9 309.827L358.7 243.427L249.9 63.5273Z" fill="url(#paint1_linear_1_9504)"/>
<path d="M249.9 332.627L141.3 268.127L249.9 421.527L358.7 268.127L249.9 332.627Z" fill="url(#paint2_linear_1_9504)"/>
<defs>
<linearGradient id="paint0_linear_1_9504" x1="250" y1="499.527" x2="250" y2="1.52734" gradientUnits="userSpaceOnUse">
<stop stop-color="#FDA264"/>
<stop offset="1" stop-color="#F4606C"/>
</linearGradient>
<linearGradient id="paint1_linear_1_9504" x1="250" y1="420.527" x2="250" y2="74.4349" gradientUnits="userSpaceOnUse">
<stop stop-color="#FDA264"/>
<stop offset="1" stop-color="#F4606C"/>
</linearGradient>
<linearGradient id="paint2_linear_1_9504" x1="250" y1="420.527" x2="250" y2="74.4349" gradientUnits="userSpaceOnUse">
<stop stop-color="#FDA264"/>
<stop offset="1" stop-color="#F4606C"/>
</linearGradient>
</defs>
</svg>
