<svg width="500" height="501" viewBox="0 0 500 501" fill="none" xmlns="http://www.w3.org/2000/svg">
<g clip-path="url(#clip0_1_9520)">
<path d="M250 500.527C388.071 500.527 500 388.599 500 250.527C500 112.456 388.071 0.527344 250 0.527344C111.929 0.527344 0 112.456 0 250.527C0 388.599 111.929 500.527 250 500.527Z" fill="white"/>
<path d="M107.5 259.127L249.6 22.6274V338.227L107.5 259.127Z" fill="url(#paint0_linear_1_9520)"/>
<path d="M393 259.127L249.6 338.327V22.6274L393 259.127Z" fill="url(#paint1_linear_1_9520)"/>
<path d="M147.2 281.127L249.6 338.427L250.1 111.527L147.2 281.127Z" fill="url(#paint2_linear_1_9520)"/>
<path d="M352.3 281.527L250.1 111.527L249.6 338.427L352.3 281.527Z" fill="url(#paint3_linear_1_9520)"/>
<path d="M392.4 285.427L250.2 478.127L249.5 364.627L392.4 285.427Z" fill="url(#paint4_linear_1_9520)"/>
<path d="M106.9 285.427L249.6 364.627L250.3 478.127L106.9 285.427Z" fill="url(#paint5_linear_1_9520)"/>
</g>
<defs>
<linearGradient id="paint0_linear_1_9520" x1="176.425" y1="299.251" x2="298.227" y2="101.577" gradientUnits="userSpaceOnUse">
<stop stop-color="#81B1F9"/>
<stop offset="0.0001" stop-color="#81B2F9"/>
<stop offset="1" stop-color="#B1D0FF"/>
</linearGradient>
<linearGradient id="paint1_linear_1_9520" x1="205.86" y1="101.847" x2="322.139" y2="300.103" gradientUnits="userSpaceOnUse">
<stop stop-color="#086BFF"/>
<stop offset="1" stop-color="#478EF9"/>
</linearGradient>
<linearGradient id="paint2_linear_1_9520" x1="198.929" y1="154.188" x2="198.348" y2="314.653" gradientUnits="userSpaceOnUse">
<stop stop-color="#206DE2"/>
<stop offset="1" stop-color="#1F6DE1"/>
</linearGradient>
<linearGradient id="paint3_linear_1_9520" x1="227.122" y1="141.242" x2="300.378" y2="308.683" gradientUnits="userSpaceOnUse">
<stop offset="0.4896" stop-color="#022D73"/>
<stop offset="0.9489" stop-color="#086FD1"/>
</linearGradient>
<linearGradient id="paint4_linear_1_9520" x1="274.463" y1="342.197" x2="332.603" y2="391.325" gradientUnits="userSpaceOnUse">
<stop stop-color="#024B9B"/>
<stop offset="1" stop-color="#0691FC"/>
</linearGradient>
<linearGradient id="paint5_linear_1_9520" x1="100.809" y1="292.454" x2="240.344" y2="413.093" gradientUnits="userSpaceOnUse">
<stop stop-color="#72A1E7"/>
<stop offset="1" stop-color="#90BBF9"/>
</linearGradient>
<clipPath id="clip0_1_9520">
<rect width="500" height="500" fill="white" transform="translate(0 0.527344)"/>
</clipPath>
</defs>
</svg>
