<svg width="500" height="501" viewBox="0 0 500 501" fill="none" xmlns="http://www.w3.org/2000/svg">
<path d="M225.044 5.12544C273.305 0.175442 322.969 9.85744 365.698 32.8504C391.44 46.4904 414.588 64.9094 433.916 86.7004C466.697 123.505 487.874 170.477 493.813 219.391C499.495 264.788 492.155 311.734 472.741 353.168C458.619 383.718 438.014 411.21 412.815 433.505C376.01 466.271 329.039 487.417 280.134 493.37C235.113 498.979 188.584 491.778 147.408 472.738C116.694 458.663 89.236 438.365 66.771 413.129C29.165 371.366 6.79791 316.236 4.56991 260.103C2.57991 216.08 12.8149 171.587 33.8249 132.841C48.9559 104.627 69.832 79.5784 94.581 59.2924C131.522 28.9834 177.506 9.93344 225.044 5.12544ZM185.765 145.82C175.004 131.531 158.394 121.223 140.263 120.5C121.346 119.385 102.704 128.381 90.343 142.444C80.968 153.254 76.506 167.57 76.339 181.735C76.264 208.819 76.254 235.907 76.31 263.001C75.993 266.588 79.2339 269.106 82.6259 268.728C159.278 268.939 235.957 268.482 312.599 268.974C312.353 285.734 312.569 302.494 313.791 319.208C291.926 335.123 266.313 346.353 239.53 350.527C236.049 351.325 230.17 350.392 229.401 355.168C229.069 364.165 229.371 373.193 229.266 382.193C228.753 385.357 231.231 388.598 234.526 388.554C266.901 386.053 298.356 374.059 324.265 354.537C333.846 366.986 347.521 376.798 363.328 379.164C385.665 383.144 409.147 372.366 422.502 354.402C430.958 342.978 433.941 328.51 433.882 314.523C433.806 288.796 434.108 263.068 433.732 237.355C434.019 233.269 430.175 231.191 426.543 231.508C350.137 231.358 273.731 231.599 197.354 231.388C196.902 216.257 198.017 201.064 196.371 185.977C196.199 183.876 195.708 181.012 197.919 179.766C221.327 163.76 248.261 152.169 276.595 149.034C279.671 148.958 281.086 145.491 280.875 142.826C280.875 134.227 281.086 125.599 280.769 117.008C280.889 113.421 277.347 111.357 274.091 112.004C242.227 114.607 211.328 126.647 185.765 145.82Z" fill="#CC1E46"/>
<path d="M107.209 186.399C107.57 171.931 120.805 159.21 135.349 159.797C150.24 159.51 163.654 172.624 163.941 187.468C164.258 202.946 164.061 218.424 164.032 233.901C145.098 234.321 126.18 234.034 107.238 234.061C107.151 218.163 107.18 202.277 107.209 186.399Z" fill="#CC1E46"/>
<path d="M348.41 267.66C367.327 267.631 386.245 267.554 405.162 267.704C405.312 282.835 405.223 297.967 405.223 313.101C405.343 324.631 398.123 336.101 387.18 340.155C375.319 344.737 360.819 340.199 353.554 329.8C350.061 324.883 348.228 318.98 348.324 312.949C348.38 297.861 348.275 282.762 348.41 267.66Z" fill="#CC1E46"/>
</svg>
