<svg width="500" height="501" viewBox="0 0 500 501" fill="none" xmlns="http://www.w3.org/2000/svg">
<path d="M118.9 174.627H230.4C231 174.627 231.7 174.027 231.7 173.327V137.227C231.7 136.627 231.1 135.927 230.4 135.927H118.9C118.3 135.927 117.6 136.527 117.6 137.227V173.327C117.6 174.227 118.2 174.627 118.9 174.627ZM194.3 108.527H230.4C231 108.527 231.7 107.927 231.7 107.227V71.2274C231.7 70.6274 231.1 69.9274 230.4 69.9274H194.3C193.7 69.9274 193 70.5274 193 71.2274V107.327C193.1 107.927 193.7 108.527 194.3 108.527ZM40.1002 268.427H4.0002C3.4002 268.427 2.7002 269.027 2.7002 269.727V305.827C2.7002 306.427 3.3002 307.127 4.0002 307.127H40.1002C40.7002 307.127 41.4002 306.527 41.4002 305.827V269.727C41.3002 269.027 40.7002 268.427 40.1002 268.427ZM172.4 268.427H136.3C135.7 268.427 135 269.027 135 269.727V381.227C135 381.827 135.6 382.527 136.3 382.527H172.4C173 382.527 173.7 381.927 173.7 381.227V269.727C173.7 269.027 173.1 268.427 172.4 268.427ZM393 232.327H429.1C429.7 232.327 430.4 231.727 430.4 231.027V194.927C430.4 194.327 429.8 193.627 429.1 193.627H393C392.4 193.627 391.7 194.227 391.7 194.927V231.027C391.8 231.927 392.2 232.327 393 232.327ZM326.7 232.327H362.8C363.4 232.327 364.1 231.727 364.1 231.027V119.627C364.1 119.027 363.5 118.327 362.8 118.327H326.7C326.1 118.327 325.4 118.927 325.4 119.627V231.127C325.5 231.927 326.1 232.327 326.7 232.327ZM194.3 42.2274H230.4C231 42.2274 231.7 41.6274 231.7 40.9274V4.92744C231.7 4.32744 231.1 3.62744 230.4 3.62744H194.3C193.7 3.62744 193 4.22744 193 4.92744V41.0274C193.1 41.8274 193.7 42.2274 194.3 42.2274ZM106.4 268.427H70.3002C69.7002 268.427 69.0002 269.027 69.0002 269.727V305.827C69.0002 306.427 69.6002 307.127 70.3002 307.127H106.4C107 307.127 107.7 306.527 107.7 305.827V269.727C107.4 269.027 107 268.427 106.4 268.427ZM380.5 326.427H269C268.4 326.427 267.7 327.027 267.7 327.727V363.827C267.7 364.427 268.3 365.127 269 365.127H380.5C381.1 365.127 381.8 364.527 381.8 363.827V327.727C381.5 326.827 381.1 326.427 380.5 326.427ZM456.6 260.727H298.6C298 260.727 297.3 261.327 297.3 262.027V297.027C297.3 297.627 297.9 298.327 298.6 298.327H456.6C457.2 298.327 457.9 297.727 457.9 297.027V262.027C457.8 261.127 457.2 260.727 456.6 260.727ZM304.8 392.427H268.7C268.1 392.427 267.4 393.027 267.4 393.727V429.827C267.4 430.427 268 431.127 268.7 431.127H304.8C305.4 431.127 306.1 430.527 306.1 429.827V393.727C306.1 393.127 305.7 392.427 304.8 392.427ZM201.8 204.027C201.8 203.427 201.2 202.727 200.5 202.727H42.5002C41.9002 202.727 41.2002 203.327 41.2002 204.027V239.027C41.2002 239.627 41.8002 240.327 42.5002 240.327H200.5C201.1 240.327 201.8 239.727 201.8 239.027V204.027ZM495.2 194.027H459.1C458.5 194.027 457.8 194.627 457.8 195.327V231.427C457.8 232.027 458.4 232.727 459.1 232.727H495.2C495.8 232.727 496.5 232.127 496.5 231.427V195.327C496.4 194.427 496 194.027 495.2 194.027ZM238.1 298.227H203.1C202.5 298.227 201.8 298.827 201.8 299.527V457.527C201.8 458.127 202.4 458.827 203.1 458.827H238.1C238.7 458.827 239.4 458.227 239.4 457.527V299.527C239.4 298.827 238.7 298.227 238.1 298.227ZM297.3 201.727V43.5274C297.3 42.9274 296.7 42.2274 296 42.2274H261C260.4 42.2274 259.7 42.8274 259.7 43.5274V201.727C259.7 202.327 260.3 203.027 261 203.027H296C296.7 202.927 297.3 202.327 297.3 201.727ZM304.8 458.727H268.7C268.1 458.727 267.4 459.327 267.4 460.027V496.127C267.4 496.727 268 497.427 268.7 497.427H304.8C305.4 497.427 306.1 496.827 306.1 496.127V460.027C306.1 459.227 305.7 458.727 304.8 458.727Z" fill="#149DD9"/>
</svg>
