<svg width="500" height="501" viewBox="0 0 500 501" fill="none" xmlns="http://www.w3.org/2000/svg">
<path d="M108.313 355.782C122.256 355.981 134.589 360.236 146.225 366.531C160.255 374.12 173.471 368.802 180.288 360.357C185.009 354.508 185.426 347.547 186.222 340.569C187.164 332.31 187.173 323.681 189.729 315.917C198.99 287.785 219.556 272.113 248.387 268.923C261.649 267.456 275.477 270.123 287.609 277.092C293.908 280.71 300.448 282.431 307.67 282.023C321.262 281.255 330.056 272.701 331.239 259.096C331.805 252.59 332.564 246.1 333.281 239.608C336.654 209.061 364.243 182.513 399.765 180.207C425.487 178.537 452.551 196.104 463.14 221.096C483.367 268.834 450.567 313.741 405.36 319.838C391.098 321.761 376.736 316.901 363.728 309.671C350.549 302.346 333.273 306.204 327.197 321.199C325.186 326.162 325.015 332.117 325.051 337.611C325.123 348.637 322.283 358.851 317.773 368.696C303.748 399.312 264.326 420.149 222.34 399.075C216.333 396.06 210.68 393.653 203.827 393.915C189.803 394.452 179.509 404.585 178.61 418.716C178.079 427.054 177.56 435.498 175.829 443.637C168.421 478.454 134.275 496.484 109.36 495.307C76.553 493.757 51.385 472.133 43.332 441.946C34.449 408.645 54.935 372.987 84.126 361.713C91.806 358.745 100.231 357.706 108.313 355.782ZM44.782 266.756C54.826 301.48 85.857 322.776 121.833 317.629C157.737 312.493 180.847 280.779 179.203 250.249C178.909 244.79 179.864 238.936 181.659 233.755C186.724 219.137 203.141 212.916 217.126 219.772C220.066 221.213 222.814 223.119 225.856 224.265C240.001 229.592 254.296 232.958 269.646 229.452C300.282 222.455 323.971 191.096 322.653 159.115C321.424 129.269 298.736 97.7593 264.251 93.2853C224.062 88.0713 188.102 119.96 186.537 156.804C186.319 161.936 186.03 167.085 185.373 172.174C183.298 188.252 171.332 196.932 154.093 194.152C150.107 193.509 146.383 191.049 142.621 189.252C130.17 183.304 116.82 179.494 103.313 181.107C66.672 185.484 41.73 216.098 42.513 248.728C43.224 254.75 43.119 261.009 44.782 266.756ZM108.595 5.69432C69.81 5.46232 40.032 38.8393 39.964 74.2683C39.894 110.817 70.288 143.222 108.24 143.236C145.474 143.25 177.329 113.11 176.607 74.6573C177.603 38.3593 147.81 5.92932 108.595 5.69432Z" fill="#F5CA45"/>
</svg>
