<svg width="500" height="501" viewBox="0 0 500 501" fill="none" xmlns="http://www.w3.org/2000/svg">
<path d="M250.4 1.52734V19.5273C377.3 19.5273 480.6 122.827 480.6 249.727C480.6 376.627 377.3 479.927 250.4 479.927C123.5 479.927 20.2 376.627 20.2 249.727C20.2 199.327 36.1 151.627 66.3 111.527C72.4 114.827 79.2999 116.727 86.7 116.727C110.4 116.727 129.6 97.5273 129.6 73.8273C129.6 50.1273 110.4 30.9273 86.7 30.9273C63 30.9273 43.7999 50.1273 43.7999 73.8273C43.7999 83.6273 47.0999 92.6273 52.5999 99.8273C19.5999 143.227 2.19995 195.127 2.19995 249.827C2.19995 386.727 113.6 498.027 250.4 498.027C387.3 498.027 498.6 386.627 498.6 249.827C498.6 113.027 387.3 1.52734 250.4 1.52734ZM86.8 48.2273C100.9 48.2273 112.4 59.6273 112.4 73.8273C112.4 87.9273 101 99.4273 86.8 99.4273C72.7 99.4273 61.2 88.0273 61.2 73.8273C61.2 59.6273 72.6 48.2273 86.8 48.2273Z" fill="#E61E1E"/>
<path d="M250.4 365.027C314.079 365.027 365.7 313.406 365.7 249.727C365.7 186.049 314.079 134.427 250.4 134.427C186.722 134.427 135.1 186.049 135.1 249.727C135.1 313.406 186.722 365.027 250.4 365.027Z" fill="#E61E1E"/>
</svg>
