<svg width="500" height="501" viewBox="0 0 500 501" fill="none" xmlns="http://www.w3.org/2000/svg">
<g clip-path="url(#clip0_1_9550)">
<path fill-rule="evenodd" clip-rule="evenodd" d="M449.3 99.4273C411.5 51.0273 356 20.4273 294.6 20.4273C175.9 20.4273 89.1 130.727 89.1 250.227C89.1 333.527 144.4 395.827 205.9 395.827C211.6 395.827 217.3 395.327 223 394.227C181.8 364.227 155.5 309.427 155.5 250.127C155.5 155.627 219.4 82.0273 294.7 82.0273C376.8 82.0273 434 163.627 434 250.127C433.8 314.027 411 377.527 370.9 424.427C335.9 465.327 290.6 491.327 240.8 499.527C240.8 499.527 245 499.827 250.4 499.827C388.3 499.827 500.1 388.027 500.1 250.027C500 193.627 481.1 141.327 449.3 99.4273ZM411.4 250.327C411.4 167.027 356.1 104.627 294.6 104.627C288.8 104.627 283.2 105.127 277.5 106.227C318.7 136.227 345 191.027 345 250.327C345 344.827 281.1 418.427 205.8 418.427C123.6 418.427 66.5 336.827 66.5 250.327C66.7 186.427 89.5 122.927 129.6 76.0273C164.6 35.1273 209.9 9.12726 259.7 0.927264C259.7 0.927264 255.6 0.627264 250.1 0.627264C112.3 0.527264 0.5 112.327 0.5 250.327C0.5 307.027 19.4 359.227 51.2 401.127C89 449.527 144.5 480.127 205.9 480.127C324.6 480.127 411.4 369.827 411.4 250.327Z" fill="#0293F6"/>
</g>
<defs>
<clipPath id="clip0_1_9550">
<rect width="500" height="500" fill="white" transform="translate(0 0.527344)"/>
</clipPath>
</defs>
</svg>
