<svg width="500" height="501" viewBox="0 0 500 501" fill="none" xmlns="http://www.w3.org/2000/svg">
<g clip-path="url(#clip0_1_9573)">
<mask id="mask0_1_9573" style="mask-type:luminance" maskUnits="userSpaceOnUse" x="0" y="0" width="501" height="501">
<path d="M500.2 250.727C500.2 388.827 388.3 500.727 250.2 500.727C112.1 500.727 0.200012 388.827 0.200012 250.727C0.200012 112.627 112.1 0.727295 250.2 0.727295C388.3 0.727295 500.2 112.627 500.2 250.727Z" fill="white"/>
</mask>
<g mask="url(#mask0_1_9573)">
<path d="M0.200012 0.727295H499.5V500.027H0.200012V0.727295Z" fill="url(#paint0_linear_1_9573)"/>
<path d="M0.200012 0.727295H499.5V500.027H0.200012V0.727295Z" fill="url(#paint1_linear_1_9573)"/>
</g>
<mask id="mask1_1_9573" style="mask-type:luminance" maskUnits="userSpaceOnUse" x="60" y="92" width="72" height="91">
<path d="M132 92.5273H60.1V182.427H132V92.5273Z" fill="white"/>
</mask>
<g mask="url(#mask1_1_9573)">
<mask id="mask2_1_9573" style="mask-type:luminance" maskUnits="userSpaceOnUse" x="0" y="0" width="501" height="501">
<path d="M500.2 250.727C500.2 388.827 388.3 500.727 250.2 500.727C112.1 500.727 0.199951 388.827 0.199951 250.727C0.199951 112.627 112.1 0.727295 250.2 0.727295C388.3 0.727295 500.2 112.627 500.2 250.727Z" fill="white"/>
</mask>
<g mask="url(#mask2_1_9573)">
<path d="M126.4 180.927H67.2C64.1 180.927 61.7 178.427 61.6 175.427V98.3273C61.6 95.2273 64.1 92.8273 67.2 92.7273H126.4C129.5 92.7273 131.9 95.2273 131.9 98.3273V175.427C131.9 178.427 129.4 180.927 126.4 180.927Z" fill="#F8A171"/>
</g>
</g>
<mask id="mask3_1_9573" style="mask-type:luminance" maskUnits="userSpaceOnUse" x="68" y="0" width="54" height="63">
<path d="M122 0.727295H68.1V62.6273H122V0.727295Z" fill="white"/>
</mask>
<g mask="url(#mask3_1_9573)">
<mask id="mask4_1_9573" style="mask-type:luminance" maskUnits="userSpaceOnUse" x="0" y="0" width="501" height="501">
<path d="M500.2 250.727C500.2 388.827 388.3 500.727 250.2 500.727C112.1 500.727 0.199951 388.827 0.199951 250.727C0.199951 112.627 112.1 0.727295 250.2 0.727295C388.3 0.727295 500.2 112.627 500.2 250.727Z" fill="white"/>
</mask>
<g mask="url(#mask4_1_9573)">
<path d="M114.7 62.3272H75.2999C72.1999 62.3272 69.7999 59.8272 69.7999 56.8272V2.6272C69.7999 -0.472803 72.2999 -2.8728 75.2999 -2.8728H114.7C117.8 -2.8728 120.2 -0.372803 120.2 2.6272V56.7272C120.2 59.8272 117.8 62.2272 114.7 62.3272Z" fill="#FAAA71"/>
</g>
</g>
<mask id="mask5_1_9573" style="mask-type:luminance" maskUnits="userSpaceOnUse" x="130" y="4" width="144" height="85">
<path d="M273.8 4.72729H130V88.6273H273.8V4.72729Z" fill="white"/>
</mask>
<g mask="url(#mask5_1_9573)">
<mask id="mask6_1_9573" style="mask-type:luminance" maskUnits="userSpaceOnUse" x="0" y="0" width="501" height="501">
<path d="M500.2 250.727C500.2 388.827 388.3 500.727 250.2 500.727C112.1 500.727 0.200012 388.827 0.200012 250.727C0.200012 112.627 112.1 0.727295 250.2 0.727295C388.3 0.727295 500.2 112.627 500.2 250.727Z" fill="white"/>
</mask>
<g mask="url(#mask6_1_9573)">
<path d="M266.9 88.1272H137.5C134.4 88.1272 132 85.6272 132 82.6272V11.9272C132 8.82725 134.5 6.42725 137.5 6.42725H266.9C270 6.42725 272.4 8.92725 272.4 11.9272V82.6272C272.5 85.7272 270 88.1272 266.9 88.1272Z" fill="#F9A471"/>
</g>
</g>
<mask id="mask7_1_9573" style="mask-type:luminance" maskUnits="userSpaceOnUse" x="337" y="78" width="81" height="167">
<path d="M417.6 78.6274H337.7V244.427H417.6V78.6274Z" fill="white"/>
</mask>
<g mask="url(#mask7_1_9573)">
<mask id="mask8_1_9573" style="mask-type:luminance" maskUnits="userSpaceOnUse" x="0" y="0" width="501" height="501">
<path d="M500.2 250.728C500.2 388.828 388.3 500.728 250.2 500.728C112.1 500.728 0.200012 388.828 0.200012 250.728C0.200012 112.628 112.1 0.727539 250.2 0.727539C388.3 0.727539 500.2 112.628 500.2 250.728Z" fill="white"/>
</mask>
<g mask="url(#mask8_1_9573)">
<path d="M410.5 243.528H343.3C340.2 243.528 337.8 241.028 337.8 238.028V84.5276C337.8 81.4276 340.3 79.0276 343.3 79.0276H410.5C413.6 79.0276 416 81.5276 416 84.5276V238.028C416.1 241.028 413.6 243.528 410.5 243.528Z" fill="#F7956B"/>
</g>
</g>
<mask id="mask9_1_9573" style="mask-type:luminance" maskUnits="userSpaceOnUse" x="277" y="180" width="47" height="73">
<path d="M323.7 180.427H277.8V252.327H323.7V180.427Z" fill="white"/>
</mask>
<g mask="url(#mask9_1_9573)">
<mask id="mask10_1_9573" style="mask-type:luminance" maskUnits="userSpaceOnUse" x="0" y="0" width="501" height="501">
<path d="M500.2 250.727C500.2 388.827 388.3 500.727 250.2 500.727C112.1 500.727 0.200012 388.827 0.200012 250.727C0.200012 112.627 112.1 0.727295 250.2 0.727295C388.3 0.727295 500.2 112.627 500.2 250.727Z" fill="white"/>
</mask>
<g mask="url(#mask10_1_9573)">
<path d="M316.2 250.927H284.8C281.7 250.927 279.3 248.427 279.3 245.427V187.527C279.3 184.427 281.8 182.027 284.8 182.027H316.2C319.3 182.027 321.7 184.527 321.7 187.527V245.427C321.8 248.427 319.3 250.927 316.2 250.927Z" fill="#FAAB72"/>
</g>
</g>
<mask id="mask11_1_9573" style="mask-type:luminance" maskUnits="userSpaceOnUse" x="239" y="284" width="35" height="59">
<path d="M273.7 284.327H239.8V342.227H273.7V284.327Z" fill="white"/>
</mask>
<g mask="url(#mask11_1_9573)">
<mask id="mask12_1_9573" style="mask-type:luminance" maskUnits="userSpaceOnUse" x="0" y="0" width="501" height="501">
<path d="M500.2 250.728C500.2 388.828 388.3 500.728 250.2 500.728C112.1 500.728 0.199951 388.828 0.199951 250.728C0.199951 112.628 112.1 0.727539 250.2 0.727539C388.3 0.727539 500.2 112.628 500.2 250.728Z" fill="white"/>
</mask>
<g mask="url(#mask12_1_9573)">
<path d="M266.9 340.528H246C242.9 340.528 240.5 338.028 240.5 335.028V290.028C240.5 286.928 243 284.528 246 284.528H266.9C270 284.528 272.4 287.028 272.4 290.028V335.028C272.5 338.128 270 340.528 266.9 340.528Z" fill="#F9A571"/>
</g>
</g>
<mask id="mask13_1_9573" style="mask-type:luminance" maskUnits="userSpaceOnUse" x="287" y="344" width="37" height="55">
<path d="M323.7 344.227H287.8V398.127H323.7V344.227Z" fill="white"/>
</mask>
<g mask="url(#mask13_1_9573)">
<mask id="mask14_1_9573" style="mask-type:luminance" maskUnits="userSpaceOnUse" x="0" y="0" width="501" height="501">
<path d="M500.2 250.727C500.2 388.827 388.3 500.727 250.2 500.727C112.1 500.727 0.200012 388.827 0.200012 250.727C0.200012 112.627 112.1 0.727295 250.2 0.727295C388.3 0.727295 500.2 112.627 500.2 250.727Z" fill="white"/>
</mask>
<g mask="url(#mask14_1_9573)">
<path d="M316.2 397.627H293.4C290.3 397.627 287.9 395.127 287.9 392.127V350.827C287.9 347.727 290.4 345.327 293.4 345.327H316.2C319.3 345.327 321.7 347.827 321.7 350.827V392.127C321.8 395.127 319.3 397.627 316.2 397.627Z" fill="#FBB171"/>
</g>
</g>
<mask id="mask15_1_9573" style="mask-type:luminance" maskUnits="userSpaceOnUse" x="321" y="400" width="53" height="87">
<path d="M373.6 400.127H321.7V486.027H373.6V400.127Z" fill="white"/>
</mask>
<g mask="url(#mask15_1_9573)">
<mask id="mask16_1_9573" style="mask-type:luminance" maskUnits="userSpaceOnUse" x="0" y="0" width="501" height="501">
<path d="M500.2 250.728C500.2 388.828 388.3 500.728 250.2 500.728C112.1 500.728 0.200012 388.828 0.200012 250.728C0.200012 112.628 112.1 0.727539 250.2 0.727539C388.3 0.727539 500.2 112.628 500.2 250.728Z" fill="white"/>
</mask>
<g mask="url(#mask16_1_9573)">
<path d="M327.3 400.627H368C371.1 400.627 373.5 403.127 373.5 406.127V480.127C373.5 483.227 371 485.627 368 485.627H327.3C324.2 485.627 321.8 483.127 321.8 480.127V406.127C321.8 403.227 324.3 400.627 327.3 400.627Z" fill="#F89E71"/>
</g>
</g>
<mask id="mask17_1_9573" style="mask-type:luminance" maskUnits="userSpaceOnUse" x="0" y="340" width="190" height="161">
<path d="M189.9 340.227H0.200012V500.027H189.9V340.227Z" fill="white"/>
</mask>
<g mask="url(#mask17_1_9573)">
<mask id="mask18_1_9573" style="mask-type:luminance" maskUnits="userSpaceOnUse" x="0" y="0" width="501" height="501">
<path d="M500.2 250.727C500.2 388.827 388.3 500.727 250.2 500.727C112.1 500.727 0.200012 388.827 0.200012 250.727C0.200012 112.627 112.1 0.727295 250.2 0.727295C388.3 0.727295 500.2 112.627 500.2 250.727Z" fill="white"/>
</mask>
<g mask="url(#mask18_1_9573)">
<path d="M-1.20001 499.627H182.5C185.6 499.627 188 497.127 188 494.027V346.127C188 343.027 185.5 340.627 182.5 340.527H-1.20001C-4.30001 340.527 -6.70001 343.027 -6.70001 346.127V494.027C-6.70001 497.127 -4.30001 499.627 -1.20001 499.627Z" fill="#FCBB71"/>
</g>
</g>
<path d="M250.2 23.8273C280.8 23.8273 310.5 29.8273 338.5 41.6273C365.5 53.0273 389.8 69.4273 410.6 90.2273C431.5 111.027 447.8 135.327 459.2 162.327C471 190.327 477 219.927 477 250.627C477 281.327 471 310.927 459.2 338.927C447.8 365.927 431.4 390.227 410.6 411.027C389.8 431.827 365.5 448.227 338.5 459.627C310.5 471.427 280.9 477.427 250.2 477.427C219.6 477.427 189.9 471.427 161.9 459.627C134.9 448.227 110.6 431.827 89.8 411.027C69 390.227 52.6 365.927 41.2 338.927C29.4 311.027 23.4 281.327 23.4 250.627C23.4 220.027 29.4 190.327 41.2 162.327C52.6 135.327 69 111.027 89.8 90.2273C110.6 69.4273 134.9 53.0273 161.9 41.6273C189.8 29.8273 219.5 23.8273 250.2 23.8273ZM250.2 0.727295C112.1 0.727295 0.200012 112.627 0.200012 250.727C0.200012 388.827 112.1 500.727 250.2 500.727C388.3 500.727 500.2 388.827 500.2 250.727C500.2 112.627 388.2 0.727295 250.2 0.727295Z" fill="#FFD48A"/>
<mask id="mask19_1_9573" style="mask-type:luminance" maskUnits="userSpaceOnUse" x="0" y="0" width="501" height="501">
<path d="M500.2 250.727C500.2 388.827 388.3 500.727 250.2 500.727C112.1 500.727 0.200012 388.827 0.200012 250.727C0.200012 112.627 112.1 0.727295 250.2 0.727295C388.3 0.727295 500.2 112.627 500.2 250.727Z" fill="white"/>
</mask>
<g mask="url(#mask19_1_9573)">
<mask id="mask20_1_9573" style="mask-type:luminance" maskUnits="userSpaceOnUse" x="0" y="0" width="500" height="501">
<path d="M499.5 0.727295H0.200012V500.027H499.5V0.727295Z" fill="white"/>
</mask>
<g mask="url(#mask20_1_9573)">
<path d="M250.2 516.827C214.3 516.827 179.4 509.827 146.6 495.927C114.9 482.527 86.5 463.327 62 438.927C37.5 414.527 18.4 386.027 5 354.327C-8.9 321.527 -16 286.627 -16 250.727C-16 214.827 -9 179.927 4.9 147.127C18.4 115.427 37.5 86.9273 62 62.5273C86.5 38.1273 114.9 18.9273 146.6 5.52734C179.4 -8.47266 214.2 -15.4727 250.2 -15.4727C286.1 -15.4727 321 -8.47266 353.8 5.42734C385.5 18.8273 413.9 38.0273 438.4 62.4273C462.9 86.8273 482 115.327 495.4 147.027C509.3 179.827 516.3 214.727 516.3 250.627C516.3 286.527 509.3 321.427 495.4 354.227C482 385.927 462.8 414.327 438.4 438.827C414 463.327 385.5 482.427 353.8 495.827C321 509.827 286.1 516.827 250.2 516.827ZM250.2 40.0273C221.7 40.0273 194.2 45.5273 168.2 56.6273C143.1 67.2273 120.6 82.4273 101.2 101.827C81.8 121.227 66.6 143.727 56 168.827C45 194.727 39.4 222.327 39.4 250.827C39.4 279.327 44.9 306.827 56 332.827C66.6 357.927 81.8 380.427 101.2 399.827C120.6 419.227 143.1 434.427 168.2 445.027C194.1 456.027 221.7 461.627 250.2 461.627C278.7 461.627 306.2 456.127 332.2 445.027C357.3 434.427 379.8 419.227 399.2 399.827C418.6 380.427 433.8 357.927 444.4 332.827C455.4 306.927 461 279.327 461 250.827C461 222.327 455.5 194.827 444.4 168.827C433.8 143.727 418.6 121.227 399.2 101.827C379.8 82.4273 357.3 67.2273 332.2 56.6273C306.2 45.5273 278.6 40.0273 250.2 40.0273Z" fill="#F04B36"/>
</g>
</g>
<path d="M250.2 23.8273C280.8 23.8273 310.5 29.8273 338.5 41.6273C365.5 53.0273 389.8 69.4273 410.6 90.2273C431.5 111.027 447.8 135.327 459.2 162.327C471 190.327 477 219.927 477 250.627C477 281.327 471 310.927 459.2 338.927C447.8 365.927 431.4 390.227 410.6 411.027C389.8 431.827 365.5 448.227 338.5 459.627C310.5 471.427 280.9 477.427 250.2 477.427C219.6 477.427 189.9 471.427 161.9 459.627C134.9 448.227 110.6 431.827 89.8 411.027C69 390.227 52.6 365.927 41.2 338.927C29.4 311.027 23.4 281.327 23.4 250.627C23.4 220.027 29.4 190.327 41.2 162.327C52.6 135.327 69 111.027 89.8 90.2273C110.6 69.4273 134.9 53.0273 161.9 41.6273C189.8 29.8273 219.5 23.8273 250.2 23.8273ZM250.2 0.727295C112.1 0.727295 0.200012 112.627 0.200012 250.727C0.200012 388.827 112.1 500.727 250.2 500.727C388.3 500.727 500.2 388.827 500.2 250.727C500.2 112.627 388.2 0.727295 250.2 0.727295Z" fill="#FFD48A"/>
<path d="M196.3 298.127C199.2 300.927 202 303.727 204.9 306.627C206.7 308.327 207.2 308.427 208.8 306.627C212.4 302.927 216 299.327 219.5 295.727C220.1 295.027 220.7 294.827 221.7 295.127C227.9 297.327 234.3 297.527 240.7 296.827C243.2 296.527 243.2 296.527 243.4 299.227C241.3 299.427 239.3 299.727 237.3 299.827C235.8 299.927 234.3 299.827 232.8 299.827H231C228.5 299.227 226 298.827 223.5 298.027C222.2 297.627 221.2 297.827 220.3 298.827C216.8 302.527 213.3 306.127 209.8 309.727C208.4 311.127 207.8 311.127 206.4 309.727C203.4 306.727 200.4 303.827 197.5 300.727C196.8 300.027 196.7 298.927 196.3 298.127Z" fill="#FE8C2C"/>
<path d="M103.2 401.527C102.8 401.327 102.5 401.027 102.1 400.727C100.4 398.927 98.6 397.127 96.9 395.327C96.7 395.127 96.6 394.827 96.4 394.527L101.6 389.627L106.7 384.827L114.4 377.627C114.9 377.227 115.5 376.827 116 376.327C120.1 372.527 124.2 368.727 128.2 364.927L165.8 329.827C172.8 323.227 179.9 316.627 186.9 310.127C188.4 308.727 190.1 308.827 191.6 310.227C192.3 310.927 192.9 311.727 193.6 312.427C195 314.027 195 315.527 193.5 317.027C192.1 318.327 190.7 319.727 189.2 321.027C182.5 327.327 175.7 333.627 169 339.927C159.2 349.127 149.4 358.227 139.6 367.427C134.3 372.427 129 377.327 123.7 382.327C122.9 383.027 122.2 383.927 121.5 384.727L112.7 392.727L107.9 397.227L103.2 401.527ZM116.3 413.427L109.2 406.927L113.5 402.727L118.2 398.427L126.3 390.827C126.6 390.627 126.9 390.427 127.1 390.227C131.3 386.327 135.4 382.427 139.6 378.527L170.7 349.427C174.7 345.627 178.7 341.927 182.7 338.227C184.2 336.827 185.9 336.927 187.4 338.427C187.9 339.027 188.4 339.527 188.8 340.027C191 342.327 191 343.627 188.7 345.727C179.4 354.327 170.3 363.027 161 371.727C157.8 374.727 154.6 377.627 151.5 380.627C148.3 383.627 145.2 386.627 142.1 389.627L133.7 397.427L127.9 402.927L124.7 405.927L122.9 407.527L119.4 410.727L116.3 413.427ZM84.5 380.327L87.5 377.127L88.8 376.027L92.5 372.427L96.3 368.827C96.8 368.527 97.2 368.227 97.5 367.927C99.2 366.227 100.9 364.527 102.6 362.927L104.8 360.727C105.4 360.427 105.9 360.127 106.3 359.627C108.9 357.227 111.4 354.827 114 352.427C118.2 348.527 122.3 344.527 126.5 340.627C128.3 339.027 130.1 337.427 131.9 335.727C138.1 329.927 144.4 324.027 150.7 318.127C152.8 316.127 155.1 314.227 157.3 312.327C158.8 312.127 159.9 312.627 160.9 313.727C161.4 314.327 161.9 314.827 162.3 315.327C164.2 317.527 164.1 318.727 162 320.727C159.8 322.727 157.6 324.827 155.4 326.827C144.9 336.627 134.3 346.527 123.8 356.427C120.6 359.427 117.4 362.327 114.3 365.227C112.5 366.927 110.8 368.727 109 370.427C108.2 371.127 107.3 371.727 106.5 372.527C104.8 374.127 103.1 375.827 101.4 377.427L96.2 382.227L90.4 387.527C89.1 386.027 87.7 384.527 86.4 382.927C85.8 382.327 85.2 381.327 84.5 380.327ZM198.1 297.927C196.8 295.927 196.8 295.927 198.4 293.927C201.3 290.527 204.2 287.227 207.1 283.927C207.6 283.327 207.9 282.927 207.5 282.127C204.7 277.727 203.7 272.727 203.7 267.527C203.7 267.427 203.7 267.327 203.7 267.227C203.9 265.227 203.9 265.227 202.1 264.627C196 262.627 189.8 260.527 183.7 258.527C180.1 257.427 176.6 256.227 173 255.127C171.2 253.827 171.2 253.327 172.6 251.627C179.8 243.527 186.9 235.427 194.2 227.327C194.9 226.527 196 226.027 197 225.627C198.5 225.027 200.1 224.727 201.7 224.327C201.9 224.327 202.1 224.327 202.3 224.227C210.3 222.327 218.4 220.427 226.4 218.427C226.8 218.327 227.1 218.127 227.3 217.827C229.3 215.527 231.4 213.127 233.4 210.827C238.4 205.027 243.7 199.427 249.5 194.427C253.3 191.127 257.2 187.827 261 184.627C263.4 182.827 265.8 181.027 268.3 179.227C278.7 171.627 289.6 165.027 301.4 159.827C305.4 158.027 309.5 156.627 313.6 154.927C313.9 154.927 314.1 154.827 314.4 154.727C322.6 152.027 331 150.227 339.6 149.327C339.9 149.327 340.2 149.327 340.4 149.327C344.6 149.427 348.8 149.427 353 149.627C355.5 149.727 355.5 149.927 356.1 152.627C356.4 158.427 356.1 164.227 355.2 169.927C352.5 185.827 346.3 200.427 338 214.127C324.7 236.227 307.7 255.227 288 271.827C287.2 272.427 286.7 273.327 286.5 274.227C284.5 283.827 282.4 293.527 280.3 303.127C280.1 303.927 279.7 304.727 279.1 305.327C270.8 312.827 262.5 320.227 254.1 327.527C253.6 327.927 252.8 327.927 252 328.127C251.5 327.327 251 326.527 250.7 325.727C249.3 321.527 247.9 317.427 246.5 313.227C245 308.427 243.4 303.527 241.9 298.727C241.9 298.527 241.6 298.427 241.5 298.227C241.4 295.727 241.3 295.727 239 296.027C233.1 296.627 227.2 296.527 221.5 294.527C220.6 294.227 220.1 294.427 219.5 295.127C216.3 298.527 212.9 301.827 209.7 305.227C208.1 306.827 207.7 306.827 206.1 305.227C203.3 303.027 200.7 300.427 198.1 297.927ZM264.8 235.527L265.1 235.927C265.2 236.227 265.5 236.527 265.7 236.827C271 241.927 277.3 243.727 284.5 242.227C287.2 241.627 289.8 240.527 291.9 238.627C296.4 235.127 298.8 230.527 299.3 224.927C299.6 221.027 299.1 217.227 296.9 213.827C296.8 213.627 296.7 213.427 296.6 213.227C289.1 200.627 270.5 200.727 263.2 213.427C260.1 218.827 259.6 224.527 261.9 230.327C262.8 232.127 263.8 233.827 264.8 235.527Z" fill="#FEFEFE"/>
<path d="M291.6 238.727C289.5 240.627 287 241.727 284.2 242.227C277.1 243.727 270.8 241.927 265.5 236.827C265.3 236.527 265.1 236.227 264.9 235.927L264.6 235.527C264.5 235.127 264.4 234.827 264.2 234.427C261.9 230.127 261.5 225.627 263 220.927C264 218.027 265.7 215.427 268 213.527C272.7 209.427 278.1 208.227 284 209.827C287.1 210.627 289.7 212.427 291.9 214.827C296.8 220.127 297.9 228.427 294.2 234.627C293.5 236.127 292.5 237.427 291.6 238.727Z" fill="#FECAA8"/>
<path d="M296.6 214.127C296.3 214.027 296 213.927 295.8 213.727C292.2 209.527 287.8 207.227 282.2 206.827C277.5 206.427 273.3 207.627 269.6 210.327C264.9 213.727 262.1 218.327 261.8 224.227C261.7 226.127 261.9 228.027 262 229.927C262 230.127 261.9 230.327 261.8 230.527C259.5 224.727 260 219.027 263.1 213.727C270.4 201.127 288.9 201.027 296.4 213.527C296.4 213.727 296.5 213.927 296.6 214.127Z" fill="#FE7837"/>
</g>
<defs>
<linearGradient id="paint0_linear_1_9573" x1="-1.98837" y1="499.042" x2="498.515" y2="4.70781" gradientUnits="userSpaceOnUse">
<stop stop-color="#FFD275"/>
<stop offset="0.132" stop-color="#FECA74"/>
<stop offset="0.358" stop-color="#FBB570"/>
<stop offset="0.652" stop-color="#F79569"/>
<stop offset="1" stop-color="#F2665F"/>
</linearGradient>
<linearGradient id="paint1_linear_1_9573" x1="-1.98837" y1="499.042" x2="498.515" y2="4.70781" gradientUnits="userSpaceOnUse">
<stop stop-color="#FFD275"/>
<stop offset="0.132" stop-color="#FECA74"/>
<stop offset="0.358" stop-color="#FBB570"/>
<stop offset="0.652" stop-color="#F79569"/>
<stop offset="1" stop-color="#F2665F"/>
</linearGradient>
<clipPath id="clip0_1_9573">
<rect width="500" height="500" fill="white" transform="translate(0 0.527344)"/>
</clipPath>
</defs>
</svg>
