<svg width="500" height="501" viewBox="0 0 500 501" fill="none" xmlns="http://www.w3.org/2000/svg">
<path d="M195.481 463.675C193.025 463.889 190.825 464.265 188.683 463.013C183.389 459.918 178.008 456.974 172.714 453.879C170.638 452.665 169.495 450.814 169.633 448.268C169.725 446.579 169.631 444.88 169.631 443.186C169.632 379.925 169.634 316.664 169.637 253.404C169.637 251.71 169.514 250.003 169.673 248.323C170.07 244.14 172.985 241.416 176.957 242.082C182.16 242.954 187.341 244.135 192.402 245.622C196.168 246.729 198.289 249.526 198.227 253.698C198.172 257.368 198.23 261.04 198.23 264.711C198.232 327.125 198.235 389.538 198.226 451.952C198.226 455.839 198.884 459.882 195.481 463.675ZM307.156 36.2713C302.978 40.1503 303.764 44.2423 303.763 48.1133C303.738 112.784 303.738 177.456 303.734 242.127C303.734 243.821 303.704 245.518 303.779 247.21C303.945 250.937 305.775 253.551 309.376 254.571C312.853 255.556 316.295 256.564 319.939 257.103C331.167 258.763 332.344 257.932 332.345 246.287C332.348 183.592 332.347 120.897 332.348 58.2033C332.348 55.3853 332.348 52.5673 332.348 48.3343C323.47 44.5143 316.854 36.5013 307.156 36.2713ZM256.46 220.349C260.753 223.091 264.166 221.21 264.664 216.2C264.803 214.799 264.744 213.377 264.744 211.964C264.746 146.693 264.75 81.4223 264.72 16.1503C264.719 13.9383 265.175 11.6153 263.873 9.59126C250.082 -0.00674057 251.666 0.413259 238.311 9.40626C237.891 9.68926 237.722 10.3453 237.371 10.9373C237.371 76.0883 237.371 141.345 237.371 207.298C243.979 211.843 250.099 216.285 256.46 220.349ZM264.378 293.994C263.008 290.762 260.73 290.658 259.164 289.484C255.128 286.455 250.87 283.722 246.8 280.737C244.609 279.13 242.33 278.225 239.767 279.346C237.27 280.439 237.274 282.855 237.264 285.154C237.258 286.567 237.232 287.979 237.232 289.392C237.236 353.814 237.242 418.237 237.247 482.659C237.247 485.167 237.247 487.676 237.247 489.716C249.971 499.878 250.307 499.904 262.555 491.893C263.022 491.588 263.403 491.151 264.377 490.282C264.378 424.276 264.378 358.517 264.378 293.994ZM379.154 75.8603C374.588 73.6413 371.738 75.8613 371.371 81.1293C371.234 83.0973 371.312 85.0823 371.312 87.0593C371.308 137.903 371.306 188.746 371.306 239.59C371.306 241.567 371.222 243.55 371.345 245.52C371.698 251.153 374.469 253.117 379.653 250.976C386.36 248.205 392.908 245.045 398.675 240.114C398.675 189.644 398.675 139.106 398.675 87.9223C392.762 82.4323 385.908 79.1423 379.154 75.8603ZM108.53 256.931C106.525 257.336 105.025 258.555 103.362 260.178C103.362 310.723 103.362 361.476 103.362 412.603C109.283 417.784 116.281 421.353 123.315 424.68C127.384 426.605 130.213 424.268 130.605 419.49C130.766 417.526 130.666 415.54 130.667 413.565C130.672 362.472 130.675 311.379 130.676 260.285C130.676 258.309 130.773 256.324 130.622 254.36C130.23 249.267 127.402 247.218 122.721 249.148C118.938 250.708 114.905 251.989 111.822 254.944C111.843 257.459 109.971 256.837 108.53 256.931ZM198.264 181.301C198.213 136.163 198.21 91.0253 198.254 45.8863C198.257 42.4323 198.079 39.1743 195.385 36.6923C192.455 36.0933 189.844 36.4013 187.261 38.0483C183.046 40.7353 178.859 43.4643 174.19 45.4303C170.818 46.8503 169.545 49.6813 169.557 53.6173C169.691 95.9343 169.657 138.251 169.592 180.568C169.587 183.845 170.238 186.643 172.717 188.74C180.292 189.695 187.666 191.874 195.215 190.645C198.067 188.024 198.268 184.765 198.264 181.301ZM332.213 450.142C332.267 406.416 332.288 362.69 332.392 318.964C332.399 315.911 331.342 313.562 329.353 311.587C321.531 310.718 313.933 308.155 306.265 309.812C304.4 312.592 303.7 315.12 303.705 318.077C303.779 363.779 303.779 409.482 303.714 455.184C303.709 458.422 304.296 461.246 306.555 463.607C308.825 463.927 311.136 464.469 313.147 463.081C319.294 458.841 326.584 456.372 331.602 451.896C332.04 450.664 332.213 450.403 332.213 450.142ZM37.341 130.805C37.318 165.702 37.318 200.599 37.335 235.495C37.336 236.657 37.36 237.726 36.023 238.186C35.287 241.077 37.196 242.179 40.157 243.577C49.831 238.371 56.593 229.4 64.189 222.139C64.189 188.689 64.174 156.03 64.207 123.371C64.211 119.076 64.336 114.845 59.145 113.169C52.362 115.141 46.723 119.347 40.647 122.658C38.601 123.773 36.249 125.196 36.011 128.113C37.315 128.588 37.342 129.626 37.341 130.805ZM103.076 96.6993C103.087 125.234 103.098 153.769 103.108 182.304C103.109 185.411 102.96 188.527 103.13 191.625C103.395 196.456 105.734 198.509 110.174 197.409C115.845 196.004 121.403 194.145 127.004 192.461C129.496 191.711 130.547 189.877 130.616 187.396C130.67 185.419 130.68 183.441 130.68 181.463C130.681 149.538 130.679 117.612 130.673 85.6873C130.673 83.9923 130.763 82.2853 130.603 80.6043C130.158 75.9393 127.233 73.6893 123.125 75.7233C116.162 79.1713 108.923 82.3673 103.077 88.3093C103.076 91.0893 103.075 93.8943 103.076 96.6993ZM398.905 402.773C398.891 374.237 398.876 345.702 398.865 317.166C398.864 314.341 399.021 311.508 398.856 308.693C398.555 303.548 396.09 301.707 391.013 303.075C386.178 304.378 381.429 306.012 376.676 307.603C371.63 309.291 371.593 309.4 371.35 314.585C371.284 315.995 371.298 317.41 371.298 318.822C371.299 350.748 371.302 382.674 371.309 414.6C371.309 416.295 371.225 418.001 371.386 419.683C371.835 424.368 374.74 426.62 378.848 424.575C385.799 421.114 393.076 417.985 398.905 411.972C398.905 408.947 398.906 405.86 398.905 402.773ZM441.181 278.086C441.181 311.21 441.181 344.39 441.181 377.798C442.626 379.179 444.306 380.785 445.857 382.268C447.966 382.187 447.368 380.012 448.588 379.384C449.126 380.215 449.697 381.098 450.367 382.134C452.239 379.109 449.922 375.519 451.873 372.684C453.779 372.011 453.842 373.683 454.751 374.506C456.672 376.244 459.702 376.914 461.053 374.174C462.368 371.505 464.24 372.592 465.961 372.254C466.11 369.454 466.382 366.655 466.388 363.855C466.428 346.64 466.408 329.425 466.408 312.209C466.408 296.687 466.35 281.165 466.449 265.644C466.475 261.629 465.635 258.447 461.197 257.125C457.252 259.25 454.363 262.63 451.187 265.665C452.469 273.367 446.651 275.465 441.181 278.086ZM443.332 112.875C438.834 114.842 437.731 117.606 437.751 121.414C437.87 144.523 437.853 167.634 437.761 190.743C437.746 194.491 438.849 197.278 442.394 198.892C444.831 198.245 446.994 197.087 448.909 195.361C453.912 190.853 458.306 185.718 463.676 181.561C465.851 179.877 466.479 177 466.45 173.963C466.306 158.478 466.383 142.99 466.383 126.703C458.872 120.615 451.072 116.033 443.332 112.875ZM37.223 374.177C43.271 380.571 51.212 383.784 58.469 387.556C62.49 385.776 64.227 383.474 64.209 379.523C64.104 356.113 64.118 332.703 64.213 309.293C64.228 305.482 62.907 302.861 58.936 301.168C50.609 306.484 43.599 313.47 37.223 321.17C37.223 338.839 37.223 356.508 37.223 374.177ZM440.295 274.744C438.338 275.983 437.761 278.823 437.767 281.542C437.841 314.004 437.855 346.466 437.755 378.927C437.742 383.109 439.154 385.883 443.623 387.433C451.062 384.238 457.988 379.561 465.102 375.235C466.233 374.547 466.209 373.402 465.96 372.253C464.239 372.591 462.367 371.504 461.052 374.173C459.701 376.914 456.671 376.243 454.75 374.505C453.84 373.682 453.777 372.01 451.872 372.683C449.922 375.517 452.238 379.108 450.366 382.133C449.696 381.097 449.125 380.214 448.587 379.383C447.367 380.011 447.965 382.187 445.856 382.267C444.305 380.785 442.625 379.179 441.18 377.797C441.18 344.389 441.18 311.209 441.18 278.085C446.65 275.464 452.468 273.366 451.185 265.664C446.771 267.715 444.369 272.166 440.295 274.744ZM35.594 133.136C35.569 166.477 35.568 199.819 35.594 233.16C35.595 234.836 35.874 236.511 36.023 238.187C37.361 237.726 37.336 236.656 37.335 235.495C37.318 200.598 37.318 165.702 37.341 130.806C37.342 129.627 37.315 128.588 36.011 128.113C35.866 129.786 35.595 131.462 35.594 133.136ZM35.605 323.801C35.608 339.721 35.605 355.641 35.597 371.561C35.596 372.787 36.083 373.677 37.223 374.177C37.223 356.508 37.223 338.839 37.223 321.17C36.093 321.684 35.605 322.575 35.605 323.801ZM108.53 256.931C109.971 256.837 111.843 257.459 111.822 254.943C110.466 255.177 108.971 255.181 108.53 256.931Z" fill="#BE0911"/>
</svg>
