<svg width="500" height="501" viewBox="0 0 500 501" fill="none" xmlns="http://www.w3.org/2000/svg">
<path d="M249.9 498.527C386.811 498.527 497.8 387.539 497.8 250.627C497.8 113.716 386.811 2.72729 249.9 2.72729C112.989 2.72729 2 113.716 2 250.627C2 387.539 112.989 498.527 249.9 498.527Z" fill="black"/>
<path d="M364.2 222.127V187.227C364.2 185.727 363 184.427 361.4 184.427H318.2C316.7 184.427 315.4 183.227 315.4 181.627V129.527C315.4 128.027 314.2 126.727 312.6 126.727H277.7C276.2 126.727 274.9 127.927 274.9 129.527V181.827C274.9 183.327 273.7 184.627 272.1 184.627H227.3C225.8 184.627 224.5 183.427 224.5 181.827V129.527C224.5 128.027 223.3 126.727 221.7 126.727H186.8C185.3 126.727 184 127.927 184 129.527V181.827C184 183.327 182.8 184.627 181.2 184.627H138C136.5 184.627 135.2 185.827 135.2 187.427V222.327C135.2 223.827 136.4 225.127 138 225.127H181.2C182.7 225.127 184 226.327 184 227.927V282.227C184 283.727 182.8 285.027 181.2 285.027H138C136.5 285.027 135.2 286.227 135.2 287.827V322.727C135.2 324.227 136.4 325.527 138 325.527H181.2C182.7 325.527 184 326.727 184 328.327V380.627C184 382.127 185.2 383.427 186.8 383.427H221.7C223.2 383.427 224.5 382.227 224.5 380.627V328.327C224.5 326.827 225.7 325.527 227.3 325.527H272.1C273.6 325.527 274.9 326.727 274.9 328.327V380.627C274.9 382.127 276.1 383.427 277.7 383.427H312.6C314.1 383.427 315.4 382.227 315.4 380.627V328.327C315.4 326.827 316.6 325.527 318.2 325.527H361.4C362.9 325.527 364.2 324.327 364.2 322.727V287.827C364.2 286.327 363 285.027 361.4 285.027H318.2C316.7 285.027 315.4 283.827 315.4 282.227V227.927C315.4 226.427 316.6 225.127 318.2 225.127H361.4C363 224.927 364.2 223.727 364.2 222.127ZM272.4 284.727H227.6C226.1 284.727 224.8 283.527 224.8 281.927V227.627C224.8 226.127 226 224.827 227.6 224.827H272.4C273.9 224.827 275.2 226.027 275.2 227.627V281.927C275.2 283.427 273.9 284.727 272.4 284.727Z" fill="white"/>
</svg>
