<svg width="500" height="501" viewBox="0 0 500 501" fill="none" xmlns="http://www.w3.org/2000/svg">
<g clip-path="url(#clip0_1_9703)">
<path d="M223.221 499.966C110.821 485.766 25.2212 406.566 3.12119 296.266C-1.07881 275.266 -1.07881 225.466 3.12119 204.466C23.8212 101.266 100.721 24.2656 204.021 3.66562C225.021 -0.534375 274.821 -0.534375 295.821 3.66562C399.121 24.2656 476.121 101.266 496.721 204.466C500.921 225.466 500.921 275.266 496.721 296.266C476.121 399.066 398.721 476.766 296.721 496.866C283.021 499.566 235.921 501.566 223.221 499.966Z" fill="white"/>
<path d="M223.22 499.925C110.92 485.825 25.2202 406.525 3.12021 296.225C-1.07979 275.225 -1.07979 225.425 3.12021 204.425C23.8202 101.225 100.72 24.2251 204.02 3.6251C225.02 -0.574902 274.82 -0.574902 295.82 3.6251C399.12 24.2251 476.12 101.225 496.72 204.425C500.92 225.425 500.92 275.225 496.72 296.225C476.12 399.025 398.72 476.725 296.72 496.825C283.02 499.525 235.92 501.525 223.22 499.925ZM234.52 313.425L235.02 277.125H251.32H267.62L283.42 313.925L299.22 350.725H319.42C330.52 350.725 340.12 350.325 340.62 349.825C341.12 349.325 334.72 333.725 326.52 315.125C318.22 296.525 311.12 279.825 310.72 277.925C310.12 275.225 311.12 273.925 315.12 272.325C321.92 269.525 331.02 259.225 333.92 251.125C335.52 246.525 336.22 235.625 336.22 213.725C336.22 184.525 336.02 182.325 332.22 174.825C330.02 170.425 325.22 164.225 321.52 161.125C309.32 150.725 305.42 150.125 246.62 150.625L194.02 151.025L193.52 167.225L193.02 183.425L174.32 183.925L155.62 184.425V201.925V219.425L175.22 219.925L194.82 220.425V229.525V238.625L175.22 239.125L155.62 239.625V257.125V274.625L175.22 275.125L194.82 275.625V313.225V350.825L214.42 351.025H234.02L234.52 313.425ZM234.92 213.625V188.525H262.42C289.92 188.525 289.92 188.525 293.32 192.925C296.32 196.725 296.82 199.625 296.82 213.625C296.82 227.525 296.32 230.525 293.32 234.325C289.82 238.725 289.82 238.725 262.42 238.725H234.92V213.625Z" fill="black"/>
</g>
<defs>
<clipPath id="clip0_1_9703">
<rect width="500" height="500" fill="white" transform="translate(0 0.527344)"/>
</clipPath>
</defs>
</svg>
