<svg width="500" height="501" viewBox="0 0 500 501" fill="none" xmlns="http://www.w3.org/2000/svg">
<path d="M272.014 4.02539H305.29L326.28 25.5274L400 46.5174L336.007 64.4354L353.925 140.715L379.01 170.919L317.065 402.831H232.082L100 497.029L184.983 114.094L206.485 75.6984L215.188 45.4934L236.689 21.4314L272.014 4.02539Z" fill="white"/>
<path d="M272.014 4.02539H305.29L326.28 25.5274L272.014 4.02539Z" fill="#DE4435"/>
<path d="M327.869 25.9792L400 46.5173L338.005 63.8752L327.869 25.9792Z" fill="#EB8D3A"/>
<path d="M325.64 28.3433L316.809 53.3003L335.751 63.0273L325.64 28.3433Z" fill="#E73F3C"/>
<path d="M323.08 27.5753L314.633 51.5083L275.597 7.7373L323.08 27.5753Z" fill="#EC903B"/>
<path d="M238.385 20.5963L269.806 5.11328L311.305 51.5083L238.385 20.5963Z" fill="#E1423E"/>
<path d="M236.087 22.1052L282.125 42.2932L216.278 44.2732L236.087 22.1052Z" fill="#DD4137"/>
<path d="M214.74 47.0472L279.949 44.9272L206.937 74.1272L214.74 47.0472Z" fill="#393B78"/>
<path d="M205.871 76.7932L286.092 44.9272L186.38 111.599L205.871 76.7932Z" fill="#E24335"/>
<path d="M189.718 112.686L289.292 45.6853L336.305 65.7053L189.718 112.686Z" fill="#373C7D"/>
<path d="M191.382 115.117L336.972 68.5444L352.938 136.513L191.382 115.117Z" fill="#EC8E36"/>
<path d="M187.927 117.037L352.938 139.819L314.633 402.831L187.927 117.037Z" fill="#E1433A"/>
<path d="M185.367 119.725L311.561 402.831H233.106L185.367 119.725Z" fill="#373D7B"/>
<path d="M183.281 121.764L230.204 404.17L100 497.029L183.281 121.764Z" fill="#373C7D"/>
<path d="M356.312 143.589L379.01 170.919L319.181 394.908L356.312 143.589Z" fill="#383D79"/>
</svg>
