<svg width="500" height="501" viewBox="0 0 500 501" fill="none" xmlns="http://www.w3.org/2000/svg">
<path d="M250.8 5.42728C116.1 5.22728 6.7 114.227 6.5 248.927C6.5 292.527 18.1 335.327 40.1 372.827L6 494.527L131.4 462.227C248.9 528.227 397.7 486.627 463.7 369.127C529.7 251.627 488.1 102.827 370.6 36.8273C334 16.1273 292.7 5.42728 250.8 5.42728ZM321.9 349.727C304.7 359.927 285.6 366.627 265.7 369.227L254.5 417.527H181.3L192.3 369.927C184.6 369.227 176.9 368.127 169.3 366.527C154.6 364.027 140.3 359.627 126.7 353.627L124.6 352.627L139.6 287.927H149.8L150.6 288.727C153.6 291.227 157.2 294.027 161.6 297.027C167.5 300.827 173.8 303.927 180.4 306.427C188.3 309.727 196.5 312.327 204.9 314.227C214.7 316.427 224.7 317.527 234.8 317.427C246.9 318.327 259 316.527 270.3 312.127C277 308.927 281.8 302.727 283.2 295.427L299 227.127C313.1 230.827 326.4 236.927 338.5 245.127C351.7 254.927 359.2 270.727 358.6 287.227C358.7 313.027 344.7 337.127 321.9 349.727ZM363.1 206.127H353.4L352.6 205.527C342.3 197.927 330.9 191.927 318.7 187.927C305.6 183.427 291.8 181.127 277.9 181.027C266.1 180.527 254.4 182.327 243.4 186.327C238 188.827 234 193.527 232.3 199.227C231 202.827 230.6 204.627 229.5 208.927L214.9 272.227C199.9 268.427 185.9 261.527 173.6 252.027C161.9 242.027 155.3 227.327 155.5 211.927C155.2 186.027 168.8 161.927 191.2 148.927C208.5 138.327 227.9 131.527 248 129.027L259.1 80.9273H332.3L321.2 129.027C326.5 129.827 331.9 130.427 337.4 131.527C350.5 133.727 363.2 137.527 375.4 142.827L377.6 143.827L363.1 206.127Z" fill="#FF9933"/>
</svg>
