<svg width="500" height="501" viewBox="0 0 500 501" fill="none" xmlns="http://www.w3.org/2000/svg">
<path d="M250 497.404C216.672 497.404 184.341 490.876 153.904 478.003C139.275 471.816 125.166 464.157 111.968 455.241C98.896 446.41 86.6029 436.267 75.4319 425.096C64.2609 413.925 54.118 401.632 45.287 388.56C36.371 375.362 28.712 361.253 22.525 346.624C9.65102 316.187 3.12402 283.856 3.12402 250.528C3.12402 217.2 9.65102 184.869 22.525 154.432C28.713 139.803 36.371 125.694 45.287 112.496C54.118 99.4244 64.2609 87.1314 75.4319 75.9604C86.6029 64.7894 98.896 54.6464 111.968 45.8154C125.166 36.8994 139.275 29.2404 153.904 23.0534C184.342 10.1784 216.673 3.65137 250 3.65137C283.328 3.65137 315.659 10.1784 346.096 23.0524C360.725 29.2394 374.834 36.8984 388.032 45.8144C401.104 54.6454 413.397 64.7884 424.568 75.9594C435.74 87.1304 445.882 99.4234 454.713 112.495C463.629 125.693 471.288 139.802 477.475 154.431C490.349 184.868 496.876 217.199 496.876 250.527C496.876 283.855 490.348 316.186 477.475 346.623C471.288 361.252 463.629 375.361 454.713 388.559C445.881 401.631 435.739 413.924 424.568 425.095C413.397 436.267 401.104 446.409 388.032 455.24C374.834 464.156 360.725 471.815 346.096 478.002C315.659 490.876 283.328 497.404 250 497.404ZM250 5.71037C216.949 5.71037 184.888 12.1834 154.707 24.9484C140.201 31.0844 126.209 38.6784 113.122 47.5204C100.158 56.2784 87.9679 66.3364 76.8889 77.4154C65.8099 88.4944 55.752 100.684 46.994 113.648C38.152 126.736 30.558 140.727 24.422 155.233C11.656 185.415 5.18298 217.476 5.18298 250.526C5.18298 283.577 11.656 315.638 24.422 345.82C30.558 360.326 38.152 374.318 46.994 387.405C55.752 400.369 65.8099 412.559 76.8889 423.638C87.9679 434.717 100.158 444.775 113.122 453.533C126.21 462.375 140.201 469.969 154.707 476.105C184.888 488.871 216.95 495.343 250 495.343C283.05 495.343 315.112 488.87 345.293 476.105C359.799 469.969 373.791 462.375 386.878 453.533C399.842 444.775 412.032 434.717 423.111 423.638C434.19 412.559 444.248 400.369 453.006 387.405C461.848 374.317 469.442 360.326 475.578 345.82C488.344 315.638 494.817 283.577 494.817 250.526C494.817 217.475 488.344 185.414 475.578 155.233C469.443 140.727 461.848 126.735 453.006 113.648C444.248 100.684 434.19 88.4944 423.111 77.4154C412.032 66.3364 399.841 56.2784 386.878 47.5204C373.79 38.6784 359.799 31.0844 345.293 24.9484C315.112 12.1834 283.051 5.71037 250 5.71037Z" fill="#FFCE45"/>
<path d="M250.002 58.1123L438.329 246.438L250.002 434.765L61.6758 246.438L250.002 58.1123Z" fill="#FFCE45"/>
<path d="M250 307.892L61.5176 246.43L250 58.1074L438.481 246.43L250 307.892Z" fill="#FEBE44"/>
<path d="M127.077 234.138H213.123L250 193.163L290.974 234.137H377.02L250 96.8774L127.077 234.138Z" fill="white"/>
<path opacity="0.42" d="M250 434.753V58.1074L438.323 246.43L250 434.753Z" fill="#D9A547"/>
</svg>
