<svg width="500" height="501" viewBox="0 0 500 501" fill="none" xmlns="http://www.w3.org/2000/svg">
<path d="M239.1 418.127C193.4 418.127 158.4 397.827 156.8 396.927L173.8 352.827C174 352.927 208.9 372.327 243.4 370.827C262.7 369.927 286.7 364.427 286.7 326.127C286.7 303.327 272.6 284.627 242.6 265.927C240.5 264.627 238.4 263.327 236.3 262.027C203.5 241.627 167.3 225.327 167.3 162.427C167.3 110.427 202.2 82.5273 255 82.5273C298.3 82.5273 331 100.327 332.4 101.127L318.3 143.127C318 143.027 286.1 129.627 255 129.627C224.7 129.627 216.8 144.827 216 161.227C214.7 190.127 231.1 201.327 261.9 220.727C263.9 222.027 265.9 223.227 268 224.527C298.3 243.327 337.1 267.927 337.1 326.027C337.1 385.027 301 415.427 245.5 417.927C243.3 418.127 241.2 418.127 239.1 418.127Z" fill="black"/>
<path d="M457.6 283.327C478.974 283.327 496.3 266.001 496.3 244.627C496.3 223.254 478.974 205.927 457.6 205.927C436.227 205.927 418.9 223.254 418.9 244.627C418.9 266.001 436.227 283.327 457.6 283.327Z" fill="black"/>
<path d="M42.6004 283.227C63.9738 283.227 81.3004 265.901 81.3004 244.527C81.3004 223.154 63.9738 205.827 42.6004 205.827C21.227 205.827 3.90039 223.154 3.90039 244.527C3.90039 265.901 21.227 283.227 42.6004 283.227Z" fill="black"/>
</svg>
