<svg width="500" height="501" viewBox="0 0 500 501" fill="none" xmlns="http://www.w3.org/2000/svg">
<g clip-path="url(#clip0_1_9744)">
<path d="M396.142 75.1369C394.505 75.1369 393.042 75.1369 391.406 75.2808H349.332V84.4946C364.239 84.4946 379.006 84.6385 393.913 84.4946C397.605 84.6385 401.576 84.3506 404.989 85.5743C407.949 86.942 410.457 89.8932 412.825 92.1967C436.718 118.002 461.237 143.052 485.13 168.858C406.486 251.529 327.669 334.201 248.991 416.872C170.034 334.057 91.3908 251.385 12.5734 168.57C36.1873 143.988 59.3484 119.262 82.9623 94.68C87.2462 90.5411 91.0774 84.7105 97.7297 84.8545C116.781 84.5306 135.937 84.9984 155.127 84.7105C155.406 84.7105 155.859 84.7105 156.172 84.7105H189.364L194.24 75.1729H127.543H106.576C101.108 75.1729 95.6399 74.8489 90.346 75.7847C86.9676 76.5405 84.1465 79.3118 81.7781 81.6153C59.035 105.441 36.4659 129.232 13.8969 153.202C9.16022 158.276 4.45834 163.963 -1.00977 168.102V168.714C11.5286 180.843 23.1962 193.908 35.2818 206.504C106.576 281.33 177.836 356.011 249.13 430.693C328.087 347.877 406.904 265.206 485.687 182.39C490.11 177.784 494.115 173.177 498.957 169.038V168.246C494.533 164.251 490.528 159.644 486.418 155.325C462.804 130.419 439.051 105.693 415.577 80.6435C413.348 78.484 410.84 75.8927 407.601 75.4248C403.805 75.2808 399.973 75.1369 396.142 75.1369Z" fill="#6666FF"/>
<path d="M349.367 92.1967V101.554H378.449C384.51 101.698 390.396 101.554 396.316 102.166C399.138 102.31 400.879 104.47 402.795 106.305C422.264 126.748 441.594 147.479 461.237 167.922C394.401 238.285 327.53 308.683 260.693 379.046C257.002 383.041 253.17 386.892 249.339 390.887C178.741 316.529 108.213 242.316 37.511 168.102C56.3881 147.803 75.4394 127.828 94.4907 107.853C96.4063 105.693 98.6354 103.858 100.969 102.49C103.929 101.878 106.855 101.554 109.815 101.734C134.3 101.878 158.819 101.878 183.304 101.878C183.304 99.2509 183.896 96.8035 184.767 94.5001V94.3561C184.767 94.2122 184.767 94.2122 185.045 93.8882C185.185 93.4204 185.498 93.1324 185.638 92.6645H129.772C121.657 92.6645 113.542 92.6645 105.427 92.6645H105.288C101.004 92.8085 97.0332 92.6646 93.4807 95.5798C88.9182 99.2509 85.2263 104.038 81.221 108.321C62.1697 127.972 43.0139 147.947 24.2412 168.102C99.1926 247.066 174.179 325.887 249.304 404.743C320.425 329.918 391.44 255.236 462.561 180.555C466.253 176.56 470.676 172.709 473.776 168.102C472.591 166.266 471.268 164.431 469.631 162.883C451.625 143.988 433.931 125.093 415.925 106.341C412.094 102.346 408.541 97.8833 404.118 94.5001C400.74 92.0527 395.69 92.1967 391.719 92.1967H349.367ZM129.772 92.3406C148.057 92.3406 166.377 92.3406 184.836 92.3406H129.772ZM184.21 95.8678C183.617 97.5593 183.478 99.3949 183.339 101.23C183.339 99.4309 183.617 97.7393 184.21 95.8678Z" fill="#6666FF"/>
<path d="M120.02 110.012C117.965 110.156 115.876 110.156 113.821 110.156C113.368 110.156 113.089 110.156 112.637 110.156C109.99 110.156 107.308 110.48 104.661 111.092C101.7 112.172 99.1927 114.763 97.1378 116.779C80.9077 133.838 64.9561 150.898 48.8652 167.958C115.458 238.321 182.433 308.251 248.991 378.614C255.922 371.704 262.714 364.325 269.505 357.271C329.271 294.107 389.177 231.122 449.256 168.138C434.663 152.014 419.304 136.502 404.397 120.522C401.576 117.282 398.65 114.547 395.237 112.064C392.416 110.372 388.759 110.372 385.485 110.372H349.333V119.91C359.955 119.91 370.439 119.91 381.062 119.766C384.893 119.91 389.316 119.442 392.277 122.213C396.108 125.74 399.799 129.447 403.352 133.442C413.975 144.96 425.329 156.045 435.534 167.85C432.573 172.169 428.464 175.984 424.772 179.835C366.05 241.308 307.747 303.212 248.852 364.541C191.001 303.608 133.151 242.783 75.3002 181.922C71.0163 177.316 66.1403 172.997 62.4484 167.958C65.0954 163.819 69.1007 160.292 72.3398 156.729C81.7784 146.759 91.5304 136.61 100.969 126.604C103.024 124.301 105.392 122.141 108.213 120.63C111.035 119.874 113.821 119.55 116.642 119.694C139.211 119.838 161.641 119.838 184.245 119.838V119.694H193.404C193.265 119.694 193.126 119.694 192.952 119.55C189.26 117.39 186.299 114.007 184.697 110.012H120.02Z" fill="#6666FF"/>
<path d="M128.588 127.828C121.517 127.828 114.412 128.584 108.213 132.291C102.605 135.53 98.4608 141.504 94.1769 146.255C87.5246 153.633 80.5937 160.688 73.5234 167.778C84.1462 179.619 95.3611 190.812 106.297 202.509C153.804 252.609 201.345 302.529 248.991 352.484C307.433 291.012 365.876 229.575 424.318 168.246C415.472 158.42 406.033 149.351 397.326 139.669C394.679 136.43 391.719 133.371 388.34 130.923C384.962 128.62 380.365 128.764 376.533 128.62H349.228V137.833C358.806 137.977 368.418 138.157 377.996 138.157C383.012 138.013 385.658 141.54 388.932 144.78C396.177 152.626 403.526 160.436 410.909 168.138C357.203 225.292 302.731 281.834 249.025 338.844C198.524 285.937 148.336 233.102 98.0429 180.087C94.351 176.236 90.2064 172.421 87.2808 167.958C91.2513 162.595 96.4407 158.132 100.864 153.058C105.287 148.595 109.118 143.52 113.994 139.705C116.049 138.013 118.557 138.157 121.065 138.013C142.032 137.402 163.138 137.689 184.244 137.689V137.545H203.574C201.345 134.918 199.882 131.859 199.011 128.476V128.296H164.74C164.148 128.296 163.556 128.296 163.103 128.296C151.609 128.008 140.081 127.828 128.588 127.828Z" fill="#6666FF"/>
<path d="M128.275 146.111C125.175 146.255 121.483 145.967 118.523 147.335C114.97 149.315 112.184 152.878 109.363 155.793C105.81 159.644 101.7 163.315 98.6006 167.634C100.516 171.485 104.208 174.544 107.168 177.784C154.396 227.271 201.345 277.047 248.573 326.355C298.587 273.484 348.775 220.793 398.964 168.102C393.077 161.803 387.296 155.037 380.818 149.351C377.718 146.111 374.165 146.579 370.056 146.435H349.089V155.649H361.174C366.19 155.793 371.658 155.649 376.081 158.564C379.773 161.012 382.733 165.007 385.659 168.39C339.894 216.51 294.164 264.45 248.573 312.678C202.669 264.594 157.043 216.186 111.174 168.246C114.552 164.575 117.513 160.868 122.11 158.564C127.996 155.505 134.962 155.325 141.44 155.505C155.615 155.973 169.79 155.649 183.931 155.649H215.381C214.197 152.734 213.919 149.494 214.336 146.435H178.149C161.641 146.111 144.958 146.291 128.275 146.111Z" fill="#6666FF"/>
<path d="M332.232 132.147C332.092 116.167 331.779 99.5748 331.779 84.5306V74.9929H211.654L209.147 80.2116C208.694 81.2914 207.51 83.5948 206.5 85.8982C205.768 87.5898 204.863 89.2814 204.584 90.0372C203.261 92.6646 202.216 95.112 201.345 97.4154C198.385 106.017 202.669 115.555 210.923 118.614C212.56 119.226 214.301 119.55 216.252 119.55H217.297C215.068 124.913 215.973 131.067 219.665 135.53C222.625 139.525 227.188 141.828 232.064 141.972C232.517 141.972 232.795 141.972 233.248 141.972L233.109 142.296C229.278 150.286 232.378 159.644 240.493 164.431C243 165.978 245.821 166.734 248.747 166.734C249.2 166.734 249.478 166.734 249.931 166.734L248.608 169.362C242.408 181.671 236.069 193.944 229.731 206.396C226.631 211.939 226.909 218.993 230.775 224.212C233.875 228.531 238.891 231.122 244.045 231.122C249.653 231.122 254.981 227.883 257.628 222.664C261.912 214.53 266.196 206.36 269.435 199.63C271.49 195.491 273.406 191.784 274.903 189.013C278.456 181.959 281.695 175.804 284.481 169.973C289.044 160.76 293.188 152.77 297.333 145.068C297.925 143.988 298.378 143.988 298.517 143.988H298.97C300.294 144.132 301.478 145.212 301.617 146.759C302.209 149.818 302.488 152.914 302.662 155.973C302.662 156.729 302.662 157.665 302.662 158.42C302.662 161.336 302.662 164.575 302.941 167.778C303.672 176.992 310.777 184.226 319.763 184.694C320.216 184.694 320.494 184.694 320.808 184.694C323.907 184.838 327.007 183.614 329.376 181.311C331.744 178.863 332.928 175.48 332.754 171.953C332.545 159.176 332.371 145.356 332.232 132.147ZM320.285 175.156C315.862 175.012 312.309 171.485 312.17 166.842C311.892 163.171 311.892 159.464 311.892 155.613C311.892 151.942 311.439 148.235 310.707 144.564C309.662 139.345 305.692 135.35 300.677 134.414C296.114 133.478 291.517 135.782 289.462 140.101C282.531 152.698 276.331 165.762 266.893 184.19C263.062 191.568 256.549 204.777 249.757 217.698C247.11 222.772 240.911 221.693 238.229 218.166C236.452 216.006 236.452 212.803 237.95 210.499C246.518 193.908 254.912 177.172 263.34 160.58C265.395 156.585 267.311 152.734 269.4 148.739C271.177 145.212 270.445 141.828 267.346 139.993C264.246 138.157 261.285 139.057 259.37 142.764C257.454 146.291 255.678 149.998 253.762 153.526C251.847 157.053 248.434 157.844 245.055 155.685C241.224 153.382 239.726 149.71 241.363 146.147C244.463 139.705 247.841 133.406 250.941 126.928C252.578 124.013 251.533 120.306 248.712 118.794C247.981 118.326 247.075 118.038 246.205 118.038C244.15 117.894 242.234 118.974 241.329 120.81C240.005 123.257 238.821 125.884 237.497 128.332C234.99 132.795 230.253 133.083 226.875 128.944C225.238 127.108 224.959 124.481 226.143 122.321C228.651 117.39 231.159 112.496 233.666 107.565C235.442 104.038 234.711 100.655 231.751 98.819C228.79 96.9835 225.551 98.0632 223.636 101.734C222.765 103.282 221.999 104.974 221.128 106.485C219.804 109.256 216.565 110.48 213.744 108.933C213.605 108.933 213.466 108.789 213.466 108.789C210.505 107.241 209.042 103.714 210.087 100.475C210.958 98.1712 212.003 96.0117 213.048 93.8523C213.918 92.0167 216.739 86.0062 217.61 84.1707H322.967C322.967 111.992 323.698 143.772 323.838 171.593C323.524 174.544 322.479 175.156 320.285 175.156Z" fill="#6666FF"/>
<path d="M282.217 196.391L276.61 207.44C277.481 210.679 277.933 214.207 277.933 217.59C277.933 237.709 262.156 254.157 242.826 254.157C223.496 254.157 207.684 237.709 207.684 217.59C207.684 202.365 216.67 188.869 230.427 183.47L236.174 172.097C211.968 175.948 195.285 199.306 198.977 224.5C202.668 249.694 225.098 267.077 249.304 263.226C273.51 259.375 290.193 236.017 286.501 210.823C285.909 205.749 284.411 200.818 282.217 196.391Z" fill="#6666FF"/>
</g>
<defs>
<clipPath id="clip0_1_9744">
<rect width="500" height="500" fill="white" transform="translate(0 0.527344)"/>
</clipPath>
</defs>
</svg>
