<svg width="500" height="501" viewBox="0 0 500 501" fill="none" xmlns="http://www.w3.org/2000/svg">
<path d="M250.3 26.6273C310.1 26.6273 366.3 49.9273 408.6 92.2273C450.9 134.527 474.2 190.727 474.2 250.527C474.2 310.327 450.9 366.527 408.6 408.827C366.3 451.127 310.1 474.427 250.3 474.427C190.5 474.427 134.3 451.127 91.9999 408.827C49.6999 366.627 26.3999 310.327 26.3999 250.527C26.3999 190.727 49.6999 134.527 91.8999 92.2273C134.2 49.9273 190.5 26.6273 250.3 26.6273ZM250.3 2.22729C113.1 2.22729 1.8999 113.327 1.8999 250.527C1.8999 387.727 113.1 498.927 250.3 498.927C387.5 498.927 498.6 387.727 498.6 250.527C498.6 113.327 387.4 2.22729 250.3 2.22729Z" fill="url(#paint0_linear_1_9757)"/>
<path d="M388.8 165.927C388.8 149.127 375.3 135.427 358.5 135.127H199C166.1 135.127 139.4 161.827 139.4 194.727V304.427C122.5 304.627 108.9 318.327 108.9 335.227C108.9 352.127 122.5 365.827 139.4 366.027H139.7H298.9C331.8 366.027 358.5 339.327 358.5 306.427V196.627C375.3 196.327 388.8 182.727 388.8 165.927ZM322.8 306.327C322.8 319.527 312.1 330.227 298.9 330.227H175.1V194.727C175.1 181.527 185.8 170.827 199 170.827H322.8V306.327Z" fill="url(#paint1_linear_1_9757)"/>
<defs>
<linearGradient id="paint0_linear_1_9757" x1="250.274" y1="498.903" x2="250.274" y2="2.17758" gradientUnits="userSpaceOnUse">
<stop stop-color="#B970FE"/>
<stop offset="0.9986" stop-color="#D0A0FF"/>
</linearGradient>
<linearGradient id="paint1_linear_1_9757" x1="248.869" y1="365.963" x2="248.869" y2="135.106" gradientUnits="userSpaceOnUse">
<stop stop-color="#B970FE"/>
<stop offset="0.9986" stop-color="#D0A0FF"/>
</linearGradient>
</defs>
</svg>
