<svg width="500" height="501" viewBox="0 0 500 501" fill="none" xmlns="http://www.w3.org/2000/svg">
<g clip-path="url(#clip0_1_9761)">
<path d="M426.4 73.7273C379.2 26.5273 316.5 0.527344 249.8 0.527344C112.1 0.527344 0 112.727 0 250.527C0 388.327 112.1 500.527 249.8 500.527C316.5 500.527 379.2 474.527 426.4 427.327C473.6 380.127 499.5 317.327 499.5 250.527C499.5 183.727 473.6 120.927 426.4 73.7273ZM249.8 483.227C121.6 483.227 17.3 378.827 17.3 250.527C17.3 122.227 121.6 17.8273 249.8 17.8273C378 17.8273 482.3 122.227 482.3 250.527C482.3 378.827 378 483.227 249.8 483.227Z" fill="black"/>
<path d="M331.8 256.427C315.8 242.127 294.8 232.527 274.6 223.327L274.5 223.227C238.7 206.827 207.7 192.727 209.9 159.327C210.8 146.527 220.1 138.927 227.7 134.727C236.3 130.027 247.6 127.227 258.1 127.227C259.3 127.227 260.6 127.327 261.8 127.327C292.3 129.327 316.4 142.327 340 169.227L341.4 170.827L343 169.427L352.2 161.427L353.8 160.027L352.3 158.427C326.1 128.327 297.5 113.227 262.7 110.827C261.2 110.627 259.6 110.627 257.8 110.627C256.8 110.627 255.6 110.627 254.4 110.727H253C230.1 110.727 205.1 118.227 186.1 130.827C163.3 145.927 150.6 166.627 150.3 189.127C149.4 244.027 194.2 262.427 233.8 278.727H233.9L234.3 278.827C269.3 293.327 299.5 305.827 298.8 339.327C298.5 361.427 266.9 373.627 245.2 373.627H244.3H242.2C209.8 372.627 181 358.727 156.3 332.227L154.8 330.627L153.2 332.127L144.3 340.427L142.7 341.927L144.2 343.527C172.2 373.627 206.8 389.927 244.1 390.327H245.8C270 390.327 296.2 383.827 316 372.827C340.8 359.327 355.2 339.527 356.8 317.227C358.4 292.927 350.2 272.927 331.8 256.427ZM215.7 208.727C229.9 220.927 249.3 229.627 267.9 238.127L268.3 238.227C288.1 247.327 306.8 255.927 320.3 267.927C335.3 281.127 341.7 296.427 340.3 316.027C339.1 335.527 324.6 348.527 311.4 356.327C313.9 351.127 315.4 345.427 315.5 339.427C315.8 319.227 308 303.027 291.7 289.927C277.5 278.427 258.6 270.727 240.3 263.127C202.2 247.527 166.3 232.727 167 189.027C167.2 172.227 177.3 156.327 195.4 144.227C196 143.827 196.6 143.427 197.3 143.027C195.2 147.727 193.9 152.627 193.7 157.827C192.1 178.227 199.4 194.827 215.7 208.727Z" fill="black"/>
</g>
<defs>
<clipPath id="clip0_1_9761">
<rect width="500" height="500" fill="white" transform="translate(0 0.527344)"/>
</clipPath>
</defs>
</svg>
