<svg width="500" height="501" viewBox="0 0 500 501" fill="none" xmlns="http://www.w3.org/2000/svg">
<g clip-path="url(#clip0_1_9764)">
<path d="M469.6 136.527C469.6 128.327 465.2 121.227 458.6 117.427L458.5 117.327L261 3.42734C257.9 1.62734 254 0.527344 250 0.527344C245.9 0.527344 242.1 1.62734 238.8 3.52734L238.9 3.42734L41.5999 117.427C34.8999 121.327 30.3999 128.427 30.3999 136.527V364.327C30.3999 372.427 34.7999 379.527 41.3999 383.327L41.4999 383.427L238.9 497.527C242.1 499.427 245.9 500.527 250 500.527C254.1 500.527 257.9 499.427 261.2 497.527H261L458.5 383.427C465.1 379.527 469.5 372.527 469.6 364.427V136.527ZM407.8 328.727C407.7 336.827 403.3 343.827 396.8 347.627L396.7 347.727L261 426.227C257.8 428.127 254 429.227 249.9 429.227C245.8 429.227 242 428.127 238.7 426.227L238.8 426.327L103.2 347.827C96.4999 343.927 92.0999 336.827 92.0999 328.627V270.327L238.8 354.927C242 356.827 245.8 357.927 249.9 357.927C254 357.927 257.8 356.827 261.1 354.927L261 355.027L315 323.927V252.527L264.7 281.827C261.5 283.727 257.7 284.827 253.6 284.827C249.5 284.827 245.7 283.727 242.4 281.827L242.5 281.927L92.2999 194.927V172.227C92.2999 164.027 96.6999 156.927 103.3 153.127L103.4 153.027L238.9 74.7273C242.1 72.8273 245.9 71.8273 250 71.8273C254.1 71.8273 257.9 72.9273 261.2 74.8273L261.1 74.7273L396.6 152.927C403.3 156.827 407.7 163.927 407.7 172.127V230.727L345.9 195.027L261.1 146.127C258 144.227 254.2 143.127 250.1 143.127H250C250 143.127 250 143.127 249.9 143.127C245.8 143.127 242 144.227 238.7 146.127L238.8 146.027L185.1 177.127H184.7V248.627L235 219.427C238.2 217.527 242 216.427 246.1 216.427C250.2 216.427 254 217.527 257.3 219.527L257.2 219.427L345.8 270.527V270.127L407.6 305.827V328.727H407.8Z" fill="#00FFB2"/>
</g>
<defs>
<clipPath id="clip0_1_9764">
<rect width="500" height="500" fill="white" transform="translate(0 0.527344)"/>
</clipPath>
</defs>
</svg>
