<svg width="500" height="501" viewBox="0 0 500 501" fill="none" xmlns="http://www.w3.org/2000/svg">
<g clip-path="url(#clip0_1_9766)">
<path d="M250 500.527C388.071 500.527 500 388.599 500 250.527C500 112.456 388.071 0.527344 250 0.527344C111.929 0.527344 0 112.456 0 250.527C0 388.599 111.929 500.527 250 500.527Z" fill="white"/>
<path d="M362 139.627C362 139.627 376.9 102.627 375 94.1274C373.2 85.9274 373.1 83.3274 359.6 73.3274C354.2 75.7274 344.6 79.2274 336.7 77.7274C325.1 75.5274 319.2 71.5274 313.7 66.7274C308.2 61.8274 305.2 54.6274 304.7 50.4274C304.6 49.4274 305.7 48.6274 306.6 49.2274C311.4 52.7274 315.2 59.0274 328.7 63.5274C336.4 66.1274 342.7 65.3274 346.5 64.0274C329.4 52.2274 304.6 36.0274 289.9 31.1274C271 24.9274 262.5 37.0274 262.5 37.0274L244.8 65.0274C244.8 65.0274 274.6 69.4274 305 86.4274C335.4 103.427 362 139.627 362 139.627Z" fill="#3800D6"/>
<path d="M409.5 181.627C405.8 182.127 400.1 182.127 392.6 180.227C362.9 171.927 344.7 122.927 293.3 92.1274C211.2 49.7274 167.2 88.0274 167.2 88.0274C161.5 91.9274 167.3 94.3274 167.3 94.3274L194.3 107.927L207 114.627C207 114.627 198.9 125.027 182.5 117.027C177.1 114.727 166.3 114.027 158 121.527C148.9 126.527 152.9 141.027 146.2 150.327C139.7 159.527 126.6 158.027 125.1 171.427C123.9 185.027 134.7 187.627 135 197.727C135.3 207.827 131.5 213.627 130.5 216.327C130.1 217.527 129.9 218.927 129.9 220.327C130 222.227 130.9 224.227 132.2 225.727C133.2 226.927 134.1 227.627 135.2 228.327C139.6 231.327 143.3 235.127 145.7 239.727C146.1 240.527 146.5 241.227 147 242.027C147.4 242.627 147.8 243.427 148.3 244.327C151.1 249.327 152.3 255.227 151.3 261.027C151 262.527 151.2 264.327 151.7 266.027C152.7 269.127 155.4 271.427 158.6 272.327C163.4 273.527 167.5 276.327 170.3 280.327C170.6 280.627 170.7 280.927 170.9 281.227C174.8 286.627 174 295.127 175.5 301.227C177 307.427 182.2 309.327 189.6 313.527C197 317.727 198.6 324.427 195.5 327.627C192.4 330.827 174.2 323.027 166.9 331.727C161.5 336.727 163.8 339.927 161.1 349.427C158.4 359.027 150.2 352.027 145.8 358.627C141.4 365.327 140.8 372.527 143 386.727C145.2 401.027 159.1 420.627 159.1 420.627C159.1 420.627 151.7 394.727 167.8 372.427C181.5 356.227 192.1 354.027 207.6 353.827C223.3 353.427 246.4 367.527 251.1 395.327C253.5 413.727 243.5 424.327 242.8 425.327C241 427.427 226.2 443.727 206.6 432.727C201.2 429.027 196.5 425.127 193.2 417.727C190.9 410.927 190.2 401.827 194.1 395.627C197.3 390.527 202.4 388.927 204 388.827C206.3 388.527 211.3 388.727 214.5 391.127C217.7 393.527 221.2 397.127 220.5 403.327C219.8 409.527 213.4 411.327 211 410.727C208.9 410.327 210.4 410.627 210.9 410.727C206.9 410.427 205.1 407.427 204.4 405.227C204.3 404.727 203.5 404.827 203.4 405.327C202.2 413.827 208.7 419.227 212.5 420.127C216.7 421.027 223 420.927 228.2 415.627C232.7 411.127 235.1 407.327 235.1 397.427C235.1 389.327 231.8 383.727 226.2 378.827C219 372.127 209.5 369.627 203 370.127C196.8 370.627 186.1 373.227 179 384.427C172.5 394.727 169.6 408.827 175.1 424.627L175.4 425.127C188 454.527 217.4 462.027 237.7 462.027C241.8 462.027 245.5 461.727 248.6 461.227C249.2 461.127 263.8 458.927 277.9 450.227C295.4 438.627 305.8 422.027 305.8 396.127C305.8 361.827 290.8 339.027 260 303.327C254.1 296.027 230.1 266.327 225.7 260.527C204.3 232.827 180.2 200.127 192.2 175.427C192.6 174.627 193 174.027 193.4 173.227C211.2 140.527 261.6 148.527 250.5 150.627C231.4 153.827 219.9 162.327 216.5 166.027C213 169.727 211.1 172.927 208.8 179.027C204.8 188.927 208 204.227 216.5 217.527C253.4 269.827 307.8 334.927 314.5 350.527C323.1 370.327 324.4 385.927 324.3 395.627C324.2 405.227 321.9 420.627 321.9 420.627C321.9 420.627 334.6 410.527 340.6 398.127C346.6 385.827 347.7 379.927 345.9 375.227C344 370.627 339.2 370.427 337.3 362.927C335.4 355.427 340.8 348.627 335.1 336.627C332.7 331.327 319.7 323.627 313 315.227C306.3 306.827 294.1 291.627 285 279.427C268.6 257.627 263.2 250.127 253.7 237.827C264 240.927 276.8 245.127 306.3 231.427C333.7 245.427 352.4 244.627 358.9 244.227C365.4 243.827 371.6 240.927 376.4 237.127C379.5 234.727 381.8 229.827 383.2 226.627C383.7 225.427 382.6 224.427 381.4 224.827C358.4 234.327 337.2 226.627 311.2 212.127L306.6 209.527L302 211.927C274.6 226.527 245.9 215.127 243.3 214.127C242.3 213.627 234.4 209.527 231 202.527C227.5 195.627 226.8 188.227 229.3 182.127C231.4 177.127 236.2 173.827 244.2 172.127C250.7 171.327 259.2 173.827 266 176.527C267.5 177.127 269 175.627 268.3 174.227C267.5 172.127 267 170.027 267 167.727C267 163.827 268.3 160.427 270.3 157.627L279.4 161.827C277.9 163.327 277 165.727 277.2 168.227C277.6 171.527 280.4 174.427 283.7 174.727C288.2 175.327 291.9 172.027 292.3 167.827L300.9 171.827C299.4 178.127 294.5 183.027 288.2 184.527C286.9 184.827 286.8 186.427 288.1 186.827C299.8 192.327 333.9 208.227 333.9 208.227C333.9 208.227 353.7 219.227 371 217.127C387.7 216.227 395.1 203.027 385.3 204.327C375.4 205.627 352 195.427 352 195.427L336.3 188.127L342.8 178.027C342.8 178.027 365.1 190.727 384.9 195.127C398 197.927 406.9 190.527 411.4 185.127C412.7 183.627 411.4 181.327 409.5 181.627ZM226.7 137.027C218.4 138.027 205.6 141.927 198.5 145.327C195.8 146.627 193.5 147.927 191.6 149.027C185.3 153.127 179.7 159.327 175.2 167.727C157.6 201.927 189.8 243.727 215.8 277.427C220.2 283.127 224.1 288.327 227.7 293.227C233.2 300.827 239.3 308.227 245.2 315.327C260.4 333.927 277 353.727 284.2 375.727C286.1 383.427 286.4 390.627 285.5 396.427C282.4 414.427 266.8 420.527 266.8 420.527C269.1 413.127 270.4 403.427 269 392.427V392.127C264.2 366.327 243.3 343.427 243.3 343.427C238.3 336.727 232.9 329.827 228.5 324.127C184.5 267.527 180.1 261.127 169.7 242.227L169.6 241.927C169.3 241.427 169 240.727 168.6 240.127C162.6 230.027 146.4 202.927 153.4 174.527C155.1 168.027 158 162.027 162.3 156.927C187.9 123.627 237.3 135.027 226.7 137.027Z" fill="#3800D6"/>
</g>
<defs>
<clipPath id="clip0_1_9766">
<rect width="500" height="500" fill="white" transform="translate(0 0.527344)"/>
</clipPath>
</defs>
</svg>
