<svg width="500" height="501" viewBox="0 0 500 501" fill="none" xmlns="http://www.w3.org/2000/svg">
<path fill-rule="evenodd" clip-rule="evenodd" d="M104.5 310.227L112 362.627L74.7 370.127L44.8 362.527L0 287.727L14.9 153.027L67.1 85.7274L134.3 78.2274L201.5 40.8274L291 85.7274L268.6 108.127C333.3 118.127 375.6 125.627 395.5 130.527C425.4 138.027 477.6 175.427 485.1 182.927C492.6 190.427 489 224.827 485.1 250.227C482.5 267.227 477.5 279.627 470.2 287.627L500 459.827H432.8L447.7 444.827L388 317.627L223.8 340.027L164.1 459.727H97L119.4 422.327L164.2 265.227L134.3 235.327L67.1 250.327L59.6 310.127L82 332.527L104.5 310.227ZM209.5 398.527L231.8 352.627L261.5 344.927L283.8 459.827H209.5L224.4 452.127L209.5 398.527ZM352.7 346.527L375 331.427L412.2 395.627L404.8 459.827H337.9L352.8 437.127V346.527H352.7Z" fill="black"/>
</svg>
