<svg width="500" height="501" viewBox="0 0 500 501" fill="none" xmlns="http://www.w3.org/2000/svg">
<path d="M250 199.527C278.5 199.527 301.6 222.627 301.6 251.027V251.127C301.6 279.527 278.5 302.627 250.1 302.627H250C221.6 302.627 198.5 279.527 198.5 251.127V251.027C198.5 222.627 221.5 199.527 250 199.527Z" fill="black"/>
<path d="M496.3 250.527C496.3 273.127 493.3 295.627 487.2 317.327C482.8 333.127 466.4 342.327 450.6 337.927C448.2 337.227 446 336.327 443.8 335.127C432.1 328.327 426.4 314.527 430 301.427C434.6 284.827 436.9 267.727 436.9 250.527C436.9 208.127 422.6 166.927 396.3 133.627C369.3 99.4272 331.2 75.6273 288.7 66.3272C274.9 63.4272 265 51.3272 265 37.2272C264.9 20.8272 278.2 7.52725 294.6 7.42725C296.8 7.42725 299 7.62725 301.2 8.12725C360.2 21.0272 412.5 55.0272 448.3 103.727C456 114.427 462.9 125.727 468.9 137.527C486.9 172.427 496.3 211.227 496.3 250.527Z" fill="black"/>
<path d="M126.1 461.327C106.5 450.127 88.6 436.227 72.8 420.027C61.4 408.227 61.7 389.427 73.5 378.027C75.2 376.327 77.2 374.927 79.3 373.727C91 366.927 105.9 368.927 115.4 378.627C157.4 421.827 217.6 442.327 277.3 433.627C320.5 427.427 360.2 406.427 389.6 374.227C399 363.727 414.4 361.327 426.6 368.327C440.8 376.627 445.5 394.827 437.2 408.927C436.1 410.727 434.9 412.427 433.4 414.027C392.6 458.527 337.1 486.727 277.2 493.327C224.7 499.127 171.7 488.027 125.9 461.627L126.1 461.327Z" fill="black"/>
<path d="M127.4 34.5273C147 23.2273 168.1 14.6273 190.1 9.02725C206 4.92725 222.2 14.5273 226.2 30.4273C226.8 32.8273 227.1 35.3273 227.1 37.8273C227.1 51.4273 218 63.2272 204.8 66.6273C159.8 78.1273 120.6 105.727 94.8 144.327C87.5 155.327 81.3 167.027 76.5 179.327C60.3 219.827 58.6 264.727 71.8 306.227C76.2 319.627 70.7 334.227 58.5 341.327C44.3 349.627 26.1 344.827 17.9 330.727C16.8 328.827 15.9 326.827 15.2 324.727C-7.09999 254.027 3.20001 176.927 43.5 114.527C64.7 81.5273 93.4 54.1273 127.4 34.5273Z" fill="black"/>
</svg>
