<svg width="500" height="501" viewBox="0 0 500 501" fill="none" xmlns="http://www.w3.org/2000/svg">
<path d="M496.8 213.527C490.8 174.327 471.4 133.427 444.9 104.027C413.2 68.9273 374.4 52.5273 335.6 57.8273C241.4 70.6273 221.5 152.327 203.8 224.227L203.7 224.427L203.5 225.127C187.8 288.827 174.3 343.827 116.7 351.527C78.7 356.827 49.6 305.827 43.9 268.627L43.1 263.427H43C37 214.027 49.1 166.727 79 122.427L75.9 179.727L101.2 169.927L108.8 55.5273L1.60001 105.627L2.50001 130.927L56.3 105.227C21.3 156.627 7.00001 213.627 15.2 271.127L15.7 274.127C22 315.527 40 358.727 63.9 389.827C93.5 428.827 131.2 448.427 169.8 445.127C212.2 441.627 244.2 422.427 267.7 386.527C288 355.327 298.9 316.927 309.5 279.827V279.527C328.2 213.927 344.3 157.227 402.2 152.227C424.3 150.527 439.9 164.427 449 176.327C459.2 189.727 467.1 208.527 469.8 226.427C470.1 228.627 470.4 230.727 470.6 232.827C474.4 278.427 447.3 338.527 418.5 378.927L421.7 320.427L396.4 330.227L389 444.727L496.3 394.527L495.4 369.227L442.5 394.427C480 341.427 506.8 279.327 496.8 213.527ZM400.2 124.127C365.1 126.927 338.6 143.727 319 175.227C301.8 202.827 291.9 238.227 282.3 272.327L282.1 272.927C271.7 309.127 261.8 343.427 244.9 369.727C226.2 398.827 201.6 413.727 167.6 416.527C133.9 419.427 107.9 398.027 91 377.527C100.5 380.527 110.7 381.527 121 380.227C155.7 375.527 181.3 357.927 199.6 326.627C215.5 299.227 223.9 264.827 232 231.527C248.9 162.327 264.9 96.7273 339.9 86.4273C368.7 82.4273 398.6 95.5273 424 123.527C424.9 124.427 425.7 125.427 426.6 126.327C417.8 124.027 409.1 123.227 400.2 124.127Z" fill="#1B1B1B"/>
</svg>
