<svg width="500" height="501" viewBox="0 0 500 501" fill="none" xmlns="http://www.w3.org/2000/svg">
<g clip-path="url(#clip0_1_9779)">
<path fill-rule="evenodd" clip-rule="evenodd" d="M249.4 500.427C323.5 500.427 390 468.227 435.8 417.027C414.5 398.527 382.4 397.427 359.7 415.727L355.4 419.227C313.9 452.727 253.4 447.727 217.9 408.027C198.5 386.327 165.4 384.127 143.3 403.027L93.4 445.827C136.1 479.927 190.3 500.427 249.4 500.427ZM330.4 379.327C369.9 347.427 425.5 348.527 463.5 379.427C486.2 341.727 499.3 297.627 499.3 250.427C499.3 198.027 483.2 149.327 455.6 109.127C437.8 105.327 418.5 109.727 403.9 122.727L399.7 126.427C359.8 161.827 299.1 159.627 261.8 121.527C241.4 100.727 208.2 100.027 187 120.027L129 174.627L97 140.627L155.1 85.9272C194.8 48.6272 257.1 49.8272 295.2 88.8272C315.1 109.127 347.5 110.327 368.8 91.4272L373 87.7272C385.9 76.2272 400.9 68.5272 416.6 64.4272C372.3 24.6272 313.6 0.427246 249.4 0.427246C122.5 0.427246 17.6 94.9273 1.49998 217.527C40 199.027 87.6 206.127 119 238.327C138.8 258.627 170.8 260.827 193.2 243.327L225.7 217.927C266.5 186.027 324.3 187.527 363.3 221.627L426.6 276.727L396 311.927L332.7 256.827C310.5 237.427 277.7 236.627 254.4 254.727L221.9 280.127C180.8 312.227 122.1 308.327 85.6 271.027C64.4 249.327 29.7 248.527 7.59998 269.327L0.599976 275.927C5.89998 328.127 27.2 375.627 59.6 413.327L112.9 367.627C154.3 332.127 216.4 336.327 252.7 376.927C271.7 398.127 303.9 400.827 326.1 382.927L330.4 379.327Z" fill="#231F20"/>
</g>
<defs>
<clipPath id="clip0_1_9779">
<rect width="500" height="500" fill="white" transform="translate(0 0.527344)"/>
</clipPath>
</defs>
</svg>
