<svg width="500" height="501" viewBox="0 0 500 501" fill="none" xmlns="http://www.w3.org/2000/svg">
<path fill-rule="evenodd" clip-rule="evenodd" d="M32.3 339.827C32.3 354.527 32.4 369.127 32.3 383.827C32.2 399.827 39.4 410.927 54.8 417.727C112 443.027 169.2 468.327 226.1 494.227C240.2 500.627 253 500.527 266.9 494.227C302.9 477.827 339.2 462.027 375.3 445.827C378.3 444.527 383.3 444.227 382.9 439.927C382.6 436.727 378.1 436.327 375.3 435.027C309.4 405.727 243.5 376.527 177.7 347.227C133 327.427 88.5 307.527 44 287.727C33.8 283.227 32.4 284.127 32.3 294.827C32.2 309.827 32.2 324.827 32.3 339.827Z" fill="#EF674E"/>
<path fill-rule="evenodd" clip-rule="evenodd" d="M468.3 161.527C468.3 147.227 468.2 132.927 468.3 118.627C468.5 102.327 461.4 90.9273 445.5 83.9273C388.3 58.7273 331.2 33.3273 274.2 7.5273C260.5 1.3273 247.9 1.4273 234.3 7.6273C198.3 24.0273 162 39.8273 125.9 56.0273C122.8 57.4273 117.8 57.9273 117.7 61.6273C117.5 65.6273 122.7 65.7273 125.7 67.1273C179.9 91.2273 234.2 115.227 288.5 139.327C344.4 164.127 400.2 189.127 456 213.927C467.1 218.827 468.1 218.127 468.2 206.627C468.4 191.527 468.3 176.527 468.3 161.527Z" fill="#FFB600"/>
<path fill-rule="evenodd" clip-rule="evenodd" d="M40.9 152.527C40.9 166.627 41.3 180.727 40.8 194.827C40.2 211.327 47.8 222.027 63.5 228.927C194.7 286.627 325.7 344.527 456.8 402.327C466.8 406.727 467.9 406.127 468 395.927C468.1 368.727 467.1 341.427 468.3 314.227C469.3 291.527 459.2 278.527 437.4 269.227C366.2 239.027 295.7 207.427 225 176.227C167.2 150.727 109.5 125.127 51.8 99.5274C41.9 95.1274 41.1 95.6274 41 106.027C40.8 121.627 40.9 137.027 40.9 152.527Z" fill="#E05A00"/>
</svg>
