<svg width="500" height="501" viewBox="0 0 500 501" fill="none" xmlns="http://www.w3.org/2000/svg">
<g clip-path="url(#clip0_1_9790)">
<path d="M43.5 393.927L249.9 499.227V292.827L43.5 393.927Z" fill="url(#paint0_linear_1_9790)"/>
<path d="M249.9 499.227L456 394.427L249.9 292.827V499.227Z" fill="url(#paint1_linear_1_9790)"/>
<path d="M249.9 292.827L456 394.427L371.8 233.327L249.9 292.827Z" fill="url(#paint2_linear_1_9790)"/>
<path d="M43.5 393.927L249.9 292.727L128.1 232.927L43.5 393.927Z" fill="url(#paint3_linear_1_9790)"/>
<path d="M128.1 233.027L249.9 292.827V0.827393L128.1 233.027Z" fill="url(#paint4_linear_1_9790)"/>
<path d="M249.9 292.827L371.8 233.327L249.9 0.827393V292.827Z" fill="url(#paint5_linear_1_9790)"/>
<path d="M43.5 393.927L249.9 499.227V292.827L43.5 393.927Z" fill="url(#paint6_linear_1_9790)"/>
<path d="M249.9 499.227L456 394.427L249.9 292.827V499.227Z" fill="url(#paint7_linear_1_9790)"/>
<path d="M249.9 292.827L456 394.427L371.8 233.327L249.9 292.827Z" fill="url(#paint8_linear_1_9790)"/>
<path d="M43.5 393.927L249.9 292.727L128.1 232.927L43.5 393.927Z" fill="url(#paint9_linear_1_9790)"/>
<path d="M128.1 233.027L249.9 292.827V0.827393L128.1 233.027Z" fill="url(#paint10_linear_1_9790)"/>
<path d="M249.9 292.827L371.8 233.327L249.9 0.827393V292.827Z" fill="url(#paint11_linear_1_9790)"/>
</g>
<defs>
<linearGradient id="paint0_linear_1_9790" x1="87.056" y1="314.029" x2="297.914" y2="420.24" gradientUnits="userSpaceOnUse">
<stop stop-color="#8277A6"/>
<stop offset="1" stop-color="#655880"/>
</linearGradient>
<linearGradient id="paint1_linear_1_9790" x1="233.83" y1="518.38" x2="387.034" y2="293.682" gradientUnits="userSpaceOnUse">
<stop stop-color="#665A82"/>
<stop offset="0.2371" stop-color="#73638D"/>
<stop offset="1" stop-color="#B4A6D1"/>
</linearGradient>
<linearGradient id="paint2_linear_1_9790" x1="348.007" y1="349.091" x2="509.079" y2="171.399" gradientUnits="userSpaceOnUse">
<stop stop-color="#B0A0CE"/>
<stop offset="1" stop-color="#CEC6E2"/>
</linearGradient>
<linearGradient id="paint3_linear_1_9790" x1="149.793" y1="334.096" x2="172.51" y2="265.947" gradientUnits="userSpaceOnUse">
<stop stop-color="#887CAE"/>
<stop offset="1" stop-color="#7A6E9B"/>
</linearGradient>
<linearGradient id="paint4_linear_1_9790" x1="277.778" y1="146.788" x2="170.787" y2="146.788" gradientUnits="userSpaceOnUse">
<stop stop-color="#B0A0CE"/>
<stop offset="1" stop-color="#887CAE"/>
</linearGradient>
<linearGradient id="paint5_linear_1_9790" x1="286.36" y1="181.382" x2="361.839" y2="253.023" gradientUnits="userSpaceOnUse">
<stop stop-color="#B0A0CE"/>
<stop offset="1" stop-color="#CEC6E2"/>
</linearGradient>
<linearGradient id="paint6_linear_1_9790" x1="87.056" y1="314.029" x2="297.914" y2="420.24" gradientUnits="userSpaceOnUse">
<stop stop-color="#8277A6"/>
<stop offset="1" stop-color="#655880"/>
</linearGradient>
<linearGradient id="paint7_linear_1_9790" x1="233.83" y1="518.38" x2="387.034" y2="293.682" gradientUnits="userSpaceOnUse">
<stop stop-color="#665A82"/>
<stop offset="0.2371" stop-color="#73638D"/>
<stop offset="1" stop-color="#B4A6D1"/>
</linearGradient>
<linearGradient id="paint8_linear_1_9790" x1="348.007" y1="349.091" x2="509.079" y2="171.399" gradientUnits="userSpaceOnUse">
<stop stop-color="#B0A0CE"/>
<stop offset="1" stop-color="#CEC6E2"/>
</linearGradient>
<linearGradient id="paint9_linear_1_9790" x1="149.793" y1="334.096" x2="172.51" y2="265.947" gradientUnits="userSpaceOnUse">
<stop stop-color="#887CAE"/>
<stop offset="1" stop-color="#7A6E9B"/>
</linearGradient>
<linearGradient id="paint10_linear_1_9790" x1="277.778" y1="146.788" x2="170.787" y2="146.788" gradientUnits="userSpaceOnUse">
<stop stop-color="#B0A0CE"/>
<stop offset="1" stop-color="#887CAE"/>
</linearGradient>
<linearGradient id="paint11_linear_1_9790" x1="286.36" y1="181.382" x2="361.839" y2="253.023" gradientUnits="userSpaceOnUse">
<stop stop-color="#B0A0CE"/>
<stop offset="1" stop-color="#CEC6E2"/>
</linearGradient>
<clipPath id="clip0_1_9790">
<rect width="500" height="500" fill="white" transform="translate(0 0.527344)"/>
</clipPath>
</defs>
</svg>
