<svg width="500" height="501" viewBox="0 0 500 501" fill="none" xmlns="http://www.w3.org/2000/svg">
<g clip-path="url(#clip0_1_9785)">
<path fill-rule="evenodd" clip-rule="evenodd" d="M250 500.527C388.1 500.527 500 388.627 500 250.527C500 112.427 388.1 0.527344 250 0.527344C111.9 0.527344 0 112.427 0 250.527C0 388.627 111.9 500.527 250 500.527Z" fill="#53B267"/>
<path d="M142.2 345.927L120.9 330.827L255 145.927L276.3 161.027L142.2 345.927Z" fill="white" fill-opacity="0.5"/>
<path d="M178.5 259.127C145.5 259.127 118.8 232.727 118.8 200.127C118.8 167.527 145.5 141.127 178.5 141.127H266.3C273.5 141.127 279.4 146.927 279.4 154.127C279.4 161.327 273.5 167.127 266.3 167.127H178.5C160 167.127 145 181.927 145 200.227C145 218.527 160 233.327 178.5 233.327H185.7H219.7C252.7 233.327 279.4 259.727 279.4 292.327C279.4 324.927 252.7 351.327 219.7 351.327H131.9C124.7 351.327 118.8 345.527 118.8 338.327C118.8 331.127 124.7 325.327 131.9 325.327H219.7C238.2 325.327 253.2 310.527 253.2 292.227C253.2 273.927 238.2 259.127 219.7 259.127H185.7H178.5Z" fill="white"/>
<path fill-rule="evenodd" clip-rule="evenodd" d="M301.2 344.927V292.327H316V328.127H333.9V299.027H348V328.127H366.5V291.027H381.2V344.927H301.2ZM301.2 285.227V223.127H316V245.727H381.3V262.527H316V285.127H301.2V285.227ZM301.2 197.127V213.927H381.2V197.127H348.2V166.027H381.2V149.227H301.2V166.027H333.3V197.127H301.2Z" fill="white"/>
</g>
<defs>
<clipPath id="clip0_1_9785">
<rect width="500" height="500" fill="white" transform="translate(0 0.527344)"/>
</clipPath>
</defs>
</svg>
