<svg width="500" height="501" viewBox="0 0 500 501" fill="none" xmlns="http://www.w3.org/2000/svg">
<g clip-path="url(#clip0_1_9803)">
<path d="M222.1 374.127C222.7 247.727 222.7 247.727 215.7 246.727C186.3 242.327 167.5 235.627 146.6 222.227C118.6 204.227 101.2 179.627 94.2 148.227C89.4 126.627 91.1 107.927 100.3 80.5274C109.7 52.5274 110 42.9274 101.9 27.4274L95.7 15.5274L120.7 7.02739C149 -2.57262 148.6 -2.67261 155.9 13.6274C163.2 29.7274 162.4 53.9274 153.9 79.8274C145.3 105.827 143.5 118.127 145.8 134.327C150.3 165.727 170.9 186.027 207.3 194.927C227 199.727 276.6 199.627 294.1 194.827C311.7 189.927 328.8 180.627 337.5 170.927C357 149.427 360.5 121.627 348.5 84.2274C337.6 50.2274 338.2 21.0274 350.1 5.32739C353.7 0.627386 353.7 0.627385 373.5 5.92739C409.7 15.6274 407.1 13.7274 399.8 25.5274C391.3 39.3274 391.5 50.4274 401.1 82.9274C412.1 120.027 411.1 142.927 397.2 173.327C387.5 194.527 364.5 217.027 341.6 227.727C323.7 236.127 293 245.727 284 245.727C273.6 245.727 272.5 247.027 274.2 257.327C275.1 262.527 275.8 319.327 275.9 383.627L276 500.427H248.8H221.6L222.1 374.127ZM95.4 436.327V412.227H144.5H193.6V436.327V460.427H144.5H95.4V436.327ZM304 436.327V412.227H353.1H402.2V436.327V460.427H353.1H304V436.327ZM95.4 358.127V334.027H144.5H193.6V358.127V382.227H144.5H95.4V358.127ZM304 358.127V334.027H353.1H402.2V358.127V382.227H353.1H304V358.127ZM95.4 279.927V255.827H144.5H193.6V279.927V304.027H144.5H95.4V279.927ZM304 279.927V255.827H353.1H402.2V279.927V304.027H353.1H304V279.927ZM270.1 169.027C264.4 157.727 256.8 140.027 253.1 129.827L246.5 111.127L243.1 123.727C239 138.827 215.9 187.527 212.8 187.427C211.6 187.327 201 182.627 189.2 176.927L167.7 166.527L196.2 112.927L224.7 59.3274H246.9H269.1L297.7 112.627C313.5 141.927 326 166.227 325.7 166.527C324.2 167.827 282.5 189.627 281.5 189.627C280.9 189.627 275.8 180.427 270.1 169.027Z" fill="black"/>
</g>
<defs>
<clipPath id="clip0_1_9803">
<rect width="500" height="500" fill="white" transform="translate(0 0.527344)"/>
</clipPath>
</defs>
</svg>
