<svg width="500" height="501" viewBox="0 0 500 501" fill="none" xmlns="http://www.w3.org/2000/svg">
<g clip-path="url(#clip0_1_9805)">
<path d="M236 295.227L239.2 311.027L245.1 303.127L250.9 332.727L256.6 303.127L262.6 311.027L265.8 295.227H236Z" fill="url(#paint0_linear_1_9805)"/>
<path d="M266.6 270.227V225.827C266.6 217.127 251 195.227 251 195.227C251 195.227 235.3 217.127 235.3 225.827V270.227C225.1 273.527 216.2 280.027 209.9 288.727H291.9C285.6 280.027 276.8 273.527 266.6 270.227Z" fill="black"/>
<path d="M440 315.327C440 302.527 429.6 292.027 416.7 292.027C403.8 292.027 393.4 302.427 393.4 315.327C393.4 328.127 403.8 338.627 416.7 338.627C429.5 338.527 439.9 328.127 440 315.327ZM403.1 315.327C403.1 307.827 409.2 301.727 416.7 301.627C424.2 301.627 430.3 307.727 430.4 315.227C430.4 322.727 424.3 328.827 416.8 328.927C409.2 328.927 403.1 322.827 403.1 315.327Z" fill="url(#paint1_linear_1_9805)"/>
<path d="M250.9 0.727295C113 0.927295 1.2001 112.627 1.1001 250.527C1.1001 345.727 59.6001 422.327 137.2 428.827C184.4 432.727 230.1 415.927 260.1 401.027C278.1 393.627 294.8 383.527 309.6 371.027L312.8 368.327C315.2 366.227 317.5 364.227 319.6 362.127C347.8 335.427 381.3 287.427 381.3 210.127V201.627L251.8 112.827L122.3 201.627V210.127C122.3 287.427 155.9 335.427 184 362.127C187.3 365.227 190.8 368.327 194.3 371.227C206.1 366.927 217.9 362.527 229.4 357.427C200 338.327 157.4 297.027 154.5 218.427L251.7 151.727L348.9 218.427C346.6 281.927 318 320.927 293.1 342.927L290 345.327C289.2 345.927 214.2 402.827 139.7 396.627C93.1001 392.727 55.3001 354.827 40.2001 302.127C52.2001 293.627 55.0001 277.027 46.5001 265.027C43.2001 260.427 38.6001 256.927 33.2001 255.227C33.2001 253.627 33.2001 252.127 33.2001 250.427C33.2001 219.827 39.6001 189.627 52.2001 161.727C59.8001 164.827 68.0001 166.427 76.2001 166.427C111.1 166.327 139.3 138.027 139.2 103.127C139.2 92.8273 136.6 82.7273 131.8 73.6273C131.1 72.3273 130.3 71.0273 129.5 69.8273C229.1 2.9273 364.1 29.4273 431.1 129.027C431.9 130.227 432.8 131.527 433.6 132.727C414.5 148.827 412.1 177.427 428.3 196.527C436.9 206.727 449.6 212.527 462.9 212.527C463.6 212.527 464.3 212.527 465 212.527C467.3 225.027 468.4 237.727 468.5 250.427C468.5 363.227 378.7 452.427 250.3 468.127C147.6 480.727 81.8001 438.127 81.8001 438.127C120.2 480.527 173.9 500.227 250.8 500.227C388.8 498.727 499.4 385.727 497.9 247.727C496.5 111.927 386.7 2.22729 250.9 0.727295ZM41.5001 284.127C40.9001 286.927 39.6001 289.527 37.7001 291.727C35.9001 283.327 34.6001 274.827 33.9001 266.227C39.9001 270.027 43.0001 277.127 41.5001 284.127ZM123.4 78.2273C137.3 104.327 127.4 136.727 101.3 150.627C87.4001 158.027 70.9001 158.927 56.3001 153.127C71.7001 122.527 94.1001 95.9273 121.7 75.5273C122.3 76.3273 122.9 77.2273 123.4 78.2273ZM463 203.027C443.3 203.027 427.3 187.127 427.3 167.427C427.3 157.427 431.5 147.927 438.8 141.127C450 160.427 458.2 181.227 463.1 203.027H463Z" fill="url(#paint2_linear_1_9805)"/>
</g>
<defs>
<linearGradient id="paint0_linear_1_9805" x1="250.863" y1="332.733" x2="250.863" y2="295.273" gradientUnits="userSpaceOnUse">
<stop stop-color="#B5E0DA"/>
<stop offset="0.63" stop-color="#3CBAB2"/>
<stop offset="0.97" stop-color="#00A89E"/>
<stop offset="1" stop-color="#00A69C"/>
</linearGradient>
<linearGradient id="paint1_linear_1_9805" x1="416.702" y1="338.649" x2="416.702" y2="292.128" gradientUnits="userSpaceOnUse">
<stop stop-color="#B5E0DA"/>
<stop offset="0.63" stop-color="#3CBAB2"/>
<stop offset="0.97" stop-color="#00A89E"/>
<stop offset="1" stop-color="#00A69C"/>
</linearGradient>
<linearGradient id="paint2_linear_1_9805" x1="249.543" y1="500.318" x2="249.543" y2="0.736824" gradientUnits="userSpaceOnUse">
<stop stop-color="#B5E0DA"/>
<stop offset="0.63" stop-color="#3CBAB2"/>
<stop offset="0.97" stop-color="#00A89E"/>
<stop offset="1" stop-color="#00A69C"/>
</linearGradient>
<clipPath id="clip0_1_9805">
<rect width="500" height="500" fill="white" transform="translate(0 0.527344)"/>
</clipPath>
</defs>
</svg>
