<svg width="500" height="501" viewBox="0 0 500 501" fill="none" xmlns="http://www.w3.org/2000/svg">
<path d="M219.3 1.52734C204.1 1.52734 189.6 7.52734 178.9 18.2273L10.6 186.627C4.2 193.027 1 201.327 1 209.727C1 218.127 4.2 226.427 10.6 232.827L120.9 343.127V147.827C120.9 133.227 132.6 121.427 147.2 121.427C208.8 121.427 358.7 121.427 379.1 121.427L499 1.52734H219.3Z" fill="#4A22EF"/>
<path d="M120.9 379.627H352.7C367.3 379.627 379.1 367.827 379.1 353.227V157.927L489.4 268.227C495.8 274.627 499 282.927 499 291.327C499 299.727 495.8 308.027 489.4 314.427L321.1 482.827C310.4 493.527 295.8 499.527 280.7 499.527H1L120.9 379.627Z" fill="#4A22EF"/>
</svg>
