<svg width="500" height="501" viewBox="0 0 500 501" fill="none" xmlns="http://www.w3.org/2000/svg">
<path fill-rule="evenodd" clip-rule="evenodd" d="M467.1 289.827V324.927C467.1 422.327 324 478.427 280.1 493.227L264.1 498.627V438.027L271.9 435.127C340.1 409.727 409 365.827 409 324.827V289.727H467.1V289.827ZM250.4 2.32715L308.9 20.1271V81.9271L250.4 64.0271L246.6 65.2271V204.327H308.9V261.627H246.6V497.727L230.4 491.727C222.9 488.927 210.7 484.227 195.7 477.527L188.6 474.327V21.2271L250.4 2.32715ZM170.2 27.0271V88.5271L91.0004 112.827V204.327H170.2V469.527L152.7 460.627C98.0004 432.827 32.9004 386.027 32.9004 320.627V289.827H90.9004V320.627C90.9004 334.127 98.0004 348.327 112.1 363.027V261.727H32.9004V68.9271L170.2 27.0271ZM326.5 25.5271L467.1 68.5271V261.727H384.5V345.327C384.5 345.327 366 369.227 326.5 389.227C326.5 378.127 326.5 208.127 326.5 104.527V25.5271ZM384.5 105.127V204.427H409V112.627L384.5 105.127Z" fill="#050101"/>
</svg>
