<svg width="500" height="501" viewBox="0 0 500 501" fill="none" xmlns="http://www.w3.org/2000/svg">
<mask id="mask0_1_9821" style="mask-type:luminance" maskUnits="userSpaceOnUse" x="61" y="1" width="368" height="497">
<path d="M243.8 478.627C233.6 473.327 223.2 467.927 212.9 462.127C192.6 450.927 173.3 438.027 155.3 423.327C133.8 405.727 117.9 387.027 107 366.227C99.0998 350.927 93.2998 334.727 89.6998 317.827C85.8998 300.527 83.4998 283.027 82.4998 265.327C81.8998 256.527 81.5998 247.427 81.1998 237.527L80.1998 215.827V77.8272C123.5 62.6272 166.8 47.3272 210.1 31.9272L232.2 24.1272L244.1 19.8272C244.5 19.7272 244.9 19.6272 245.3 19.6272C245.7 19.6272 246.2 19.7272 246.6 19.8272L280.8 31.9272C324 47.2272 367.2 62.5272 410.5 77.7272L409.6 237.327C409.2 247.827 408.8 256.627 408.3 265.227C407.3 282.927 404.8 300.427 401.1 317.727C397.5 334.527 391.7 350.827 383.8 366.127C372.8 386.927 357 405.627 335.5 423.227C317.5 437.927 298.2 450.927 277.8 462.027C267.4 467.827 256.7 473.327 247.3 478.127C246.7 478.427 246 478.727 245.2 478.727C244.8 478.927 244.3 478.827 243.8 478.627ZM245 1.42725C242.6 1.42725 240.1 1.92725 237.9 2.72725C234 4.22725 230 5.62725 226 7.02725L204 14.8272C158.7 30.8272 113.4 46.8272 68.0998 62.8272L61.7998 65.0272V216.427L62.7998 238.527C63.1998 248.127 63.5998 257.527 64.1998 266.727C65.2998 285.327 67.7998 303.827 71.7998 322.027C75.6998 340.427 82.0998 358.227 90.7998 374.927C102.9 397.927 120.2 418.427 143.7 437.627C162.5 453.027 182.7 466.627 203.9 478.327C214.4 484.127 225 489.627 235.3 495.027C238.4 496.627 241.8 497.427 245.2 497.427C248.9 497.427 252.5 496.527 255.7 494.727C265.3 489.827 276.1 484.227 286.7 478.227C308 466.527 328.2 452.927 347 437.527C370.4 418.227 387.7 397.727 399.9 374.827C408.6 358.127 415 340.327 418.9 321.927C422.9 303.727 425.5 285.227 426.6 266.627C427.2 257.727 427.5 248.727 428 238.027L429 65.0272L422.7 62.8272C377.4 46.9272 332.2 31.0272 287 14.9272L252.8 2.72725C250.5 1.92725 248.1 1.42725 245.6 1.42725H245Z" fill="white"/>
</mask>
<g mask="url(#mask0_1_9821)">
<path d="M-186.2 249.427L245.4 -182.173L676.9 249.427L245.4 681.027L-186.2 249.427Z" fill="url(#paint0_linear_1_9821)"/>
</g>
<mask id="mask1_1_9821" style="mask-type:luminance" maskUnits="userSpaceOnUse" x="182" y="94" width="127" height="264">
<path d="M184.3 155.727C184.3 177.727 196.2 198.027 215.4 208.927C218 210.327 220.6 211.627 223.3 212.627L224.3 213.027C227 214.027 229.8 214.927 232.7 215.527C236.9 216.427 241.1 216.827 245.4 216.827C249.7 216.827 253.9 216.327 258 215.327L288 339.427H202.7L228.4 233.327C222.4 231.927 216.5 229.927 211 227.127L182.5 344.927C181.1 350.527 184.6 356.227 190.3 357.627C191.1 357.827 192 357.927 192.8 357.927H298.2C304 357.927 308.7 353.227 308.7 347.427C308.7 346.627 308.6 345.727 308.4 344.927L273.6 201.227L270.9 190.027C251.9 204.027 225.2 200.027 211.2 181.027C197.2 162.027 201.2 135.327 220.2 121.327C239.2 107.327 265.9 111.327 279.9 130.327C288.6 142.127 290.6 157.527 285.3 171.127L291.3 196.027C313.6 170.727 311.1 132.127 285.8 109.827C260.5 87.5275 221.9 90.0275 199.6 115.327C189.7 126.627 184.3 140.927 184.3 155.727Z" fill="white"/>
</mask>
<g mask="url(#mask1_1_9821)">
<path d="M49.2998 226.228L245.4 30.2275L441.4 226.228L245.4 422.328L49.2998 226.228Z" fill="url(#paint1_linear_1_9821)"/>
</g>
<mask id="mask2_1_9821" style="mask-type:luminance" maskUnits="userSpaceOnUse" x="106" y="50" width="131" height="149">
<path d="M219 56.8275L218.5 57.0275C181.7 70.0275 143.9 83.4275 106.4 96.6275V198.528H124.8V109.528C158.4 97.7275 192 85.8275 224.6 74.2275L225.1 74.0275L236.2 70.1275V50.7275L219 56.8275Z" fill="white"/>
</mask>
<g mask="url(#mask2_1_9821)">
<path d="M32.6006 124.528L171.301 -14.1724L310.001 124.528L171.301 263.328L32.6006 124.528Z" fill="url(#paint2_linear_1_9821)"/>
</g>
<mask id="mask3_1_9821" style="mask-type:luminance" maskUnits="userSpaceOnUse" x="106" y="216" width="131" height="229">
<path d="M106.5 216.827L107.4 236.427V236.527C107.8 246.127 108.2 255.227 108.7 263.727C109.6 280.027 111.8 296.227 115.3 312.127C118.4 326.727 123.4 340.827 130.2 354.027C139.5 371.627 153.2 387.727 171.9 403.127C188.7 416.727 206.7 428.827 225.6 439.227C229.1 441.127 232.6 443.027 236.1 444.927V424.027L234.5 423.127C216.5 413.227 199.5 401.827 183.6 388.827C166.7 374.927 154.6 360.727 146.4 345.327C140.3 333.527 135.9 321.027 133.2 308.127C129.9 293.127 127.9 277.927 127 262.627C126.5 254.427 126.1 245.327 125.7 235.827L124.8 217.027L106.5 216.827Z" fill="white"/>
</mask>
<g mask="url(#mask3_1_9821)">
<path d="M-7.59961 330.927L171.4 151.927L350.4 330.927L171.4 509.927L-7.59961 330.927Z" fill="url(#paint3_linear_1_9821)"/>
</g>
<mask id="mask4_1_9821" style="mask-type:luminance" maskUnits="userSpaceOnUse" x="254" y="50" width="131" height="149">
<path d="M254.6 70.1275L266 74.2275H266.1C301.6 86.8275 333.9 98.2275 365.8 109.428L365.3 198.328H383.7L384.3 96.5275C348.8 84.0275 313.5 71.5275 272.3 56.9275L254.7 50.7275L254.6 70.1275Z" fill="white"/>
</mask>
<g mask="url(#mask4_1_9821)">
<path d="M180.699 124.528L319.399 -14.2725L458.199 124.528L319.399 263.328L180.699 124.528Z" fill="url(#paint4_linear_1_9821)"/>
</g>
<mask id="mask5_1_9821" style="mask-type:luminance" maskUnits="userSpaceOnUse" x="254" y="216" width="130" height="230">
<path d="M365.3 216.827L365.2 236.627C364.8 246.427 364.5 254.627 363.9 262.727C363.1 278.027 361 293.227 357.7 308.227C355 321.227 350.5 333.727 344.5 345.527C336.3 360.927 324.2 375.227 307.3 389.127C291.4 402.127 274.4 413.527 256.4 423.427L254.7 424.327V445.227C258.2 443.327 261.8 441.427 265.3 439.427C284.2 429.027 302.2 416.927 319 403.327C337.8 387.827 351.5 371.827 360.8 354.127C367.6 340.927 372.6 326.827 375.7 312.227C379.2 296.327 381.4 280.127 382.4 263.827C382.9 255.627 383.3 247.027 383.7 237.027L383.8 216.827H365.3Z" fill="white"/>
</mask>
<g mask="url(#mask5_1_9821)">
<path d="M140.4 331.027L319.1 152.227L497.8 331.027L319.1 509.727L140.4 331.027Z" fill="url(#paint5_linear_1_9821)"/>
</g>
<defs>
<linearGradient id="paint0_linear_1_9821" x1="99.5204" y1="395.283" x2="429.391" y2="65.4118" gradientUnits="userSpaceOnUse">
<stop stop-color="#8933EF"/>
<stop offset="1" stop-color="#FF2DBB"/>
</linearGradient>
<linearGradient id="paint1_linear_1_9821" x1="87.9134" y1="383.716" x2="417.8" y2="53.829" gradientUnits="userSpaceOnUse">
<stop stop-color="#8933EF"/>
<stop offset="1" stop-color="#FF2DBB"/>
</linearGradient>
<linearGradient id="paint2_linear_1_9821" x1="0.0672202" y1="295.821" x2="329.954" y2="-34.0655" gradientUnits="userSpaceOnUse">
<stop stop-color="#8933EF"/>
<stop offset="1" stop-color="#FF2DBB"/>
</linearGradient>
<linearGradient id="paint3_linear_1_9821" x1="103.274" y1="399.032" x2="433.161" y2="69.1447" gradientUnits="userSpaceOnUse">
<stop stop-color="#8933EF"/>
<stop offset="1" stop-color="#FF2DBB"/>
</linearGradient>
<linearGradient id="paint4_linear_1_9821" x1="74.0946" y1="369.89" x2="403.981" y2="40.0029" gradientUnits="userSpaceOnUse">
<stop stop-color="#8933EF"/>
<stop offset="1" stop-color="#FF2DBB"/>
</linearGradient>
<linearGradient id="paint5_linear_1_9821" x1="177.162" y1="472.96" x2="507.049" y2="143.073" gradientUnits="userSpaceOnUse">
<stop stop-color="#8933EF"/>
<stop offset="1" stop-color="#FF2DBB"/>
</linearGradient>
</defs>
</svg>
