<svg width="500" height="501" viewBox="0 0 500 501" fill="none" xmlns="http://www.w3.org/2000/svg">
<g clip-path="url(#clip0_1_9858)">
<path d="M156.8 206.027C159.9 206.227 163.4 205.827 167 205.527C170.7 205.227 174.4 204.527 177.9 203.227C180.1 202.427 182.1 201.127 182.9 198.927C184.5 194.727 184.8 190.327 183.6 186.027C181.7 179.427 176.8 174.927 171.5 170.827C166.9 167.227 161.7 165.827 156.1 166.827C146.3 168.427 136.4 177.127 135.2 187.327C134.7 191.827 134.4 196.127 137 200.127C138.7 202.827 140.5 205.127 144.1 205.427C148.2 205.727 152.3 206.027 156.8 206.027ZM341.1 206.027C343.3 206.227 346.8 205.727 350.3 205.527C353.4 205.327 356.3 204.627 358.2 201.727C360.8 197.627 361.9 193.127 361.3 188.327C360.1 179.927 355.2 174.027 348.1 169.827C342.4 166.527 336.4 165.427 330 167.727C326.3 169.027 323.3 171.527 320.5 174.227C315.5 178.927 311.7 184.227 311.2 191.327C310.7 197.827 313.3 201.827 319.5 203.627C326.1 205.627 332.9 205.927 341.1 206.027ZM374.7 234.527C374.7 230.427 374.7 226.227 373.4 222.327C371.8 217.327 372.2 217.227 367.3 217.727C360.6 218.327 354.5 221.127 348.6 224.127C340.1 228.327 332.1 233.327 324.3 238.527C317.9 242.727 311.3 246.627 305.8 252.027C301.4 256.327 297.6 260.827 296.6 267.227C296.3 269.227 296.9 270.327 299.1 270.827C301.1 271.327 303.1 271.727 305.2 271.727C313 271.727 320.7 270.327 328.3 268.427C338 266.027 347.5 262.827 356.4 258.227C362.3 255.127 367.9 251.627 372.5 246.627C373.7 245.327 374.6 243.927 374.5 242.027C374.3 239.427 374.6 236.927 374.7 234.527ZM126.2 233.827C126.3 235.627 126.6 238.627 126.6 241.527C126.5 244.327 127.9 246.227 129.7 247.927C137.3 255.327 146.7 259.627 156.5 263.327C162.8 265.727 169.3 267.527 176 269.027C182.6 270.527 189.3 271.527 196.1 271.727C198.5 271.827 200.9 271.527 203.3 270.727C205.3 270.027 205.9 269.127 205.6 267.127C205.3 265.427 204.8 263.727 204 262.227C201 256.127 196.3 251.527 190.8 247.827C176.7 238.127 162.5 228.727 146.7 221.827C141.9 219.727 137 218.027 131.6 218.127C129.8 218.127 129 218.927 128.3 220.427C126.7 224.427 126.6 228.527 126.2 233.827ZM76.6998 31.9274C75.4998 31.7274 75.2998 32.1274 74.2998 34.4274C70.4998 43.0274 69.3998 52.2274 68.8998 61.4274C68.4998 67.1274 68.9998 72.8274 69.4998 78.5274C69.7998 82.5274 70.2998 86.4274 70.8998 90.3274C71.5998 94.6274 72.2998 99.0274 73.1998 103.327C74.2998 109.027 75.5998 114.727 76.9998 120.327C78.7998 127.327 80.6998 134.327 82.6998 141.327C84.3998 147.127 86.1998 152.827 87.9998 158.527C88.0998 158.927 88.2998 159.427 88.7998 159.427C89.2998 159.427 89.3998 159.027 89.5998 158.727C93.4998 152.627 97.3998 146.427 101.8 140.627C107.3 133.427 112.9 126.327 119.2 119.727C124.3 114.427 129.5 109.227 135.2 104.527C140.5 100.127 145.8 95.9274 151.5 92.1274C152.5 91.4274 152.5 90.9274 151.7 90.0274C147.9 86.0274 144.2 81.8274 140.3 77.9274C133.7 71.3274 127 64.8274 119.8 58.8274C114.6 54.4274 109.4 50.2274 103.8 46.3274C97.9998 42.3274 91.8998 38.6274 85.5998 35.5274C82.6998 34.1274 79.6998 32.8274 76.6998 31.9274ZM362.2 106.727C363.1 108.327 364.8 109.027 366 110.327C371.4 115.827 377 121.127 382 127.027C386 131.727 389.8 136.527 393.4 141.527C397.2 146.727 400.9 152.127 404.3 157.527C404.8 158.327 404.9 159.627 406 159.627C406.3 159.627 406.8 158.127 407 157.227C409.1 150.127 411.4 143.027 413.5 135.827C415.8 127.727 418 119.527 419.8 111.327C421.8 102.327 423.5 93.2274 424.5 84.0274C425.2 77.9274 425.6 71.8274 425.8 65.6274C426 60.1274 425.3 54.7274 424.7 49.3274C424.6 48.9274 424.4 48.6274 424.4 48.2274C423.8 43.1274 422.2 38.3274 420.1 33.6274C419.1 31.3274 418.8 31.3274 416.4 32.2274C408 35.5274 400.1 39.8274 392.6 44.9274C381 52.9274 370.3 62.2274 360.2 72.0274C354.3 77.7274 348.6 83.7274 343.1 89.8274C342.3 90.7274 342.1 91.2274 343.3 92.1274C347.8 95.4274 352.3 98.7274 356.7 102.227C358.5 103.827 360.1 105.727 362.2 106.727ZM359.6 44.4274C364.8 39.4274 369.8 34.2274 375.3 29.5274C385.2 20.9274 395.8 13.4274 407.9 8.02737C415.7 4.52737 423.8 1.92737 432.4 1.32737C433.6 1.22737 434.4 1.42737 435.1 2.62737C438.3 7.72737 440.3 13.2274 441.8 18.9274C445 30.7274 445.4 42.8274 445 54.9274C444.6 64.8274 443.6 74.6274 442.2 84.4274C441.1 92.2274 439.7 99.9274 438.3 107.627C437.8 110.527 437 113.427 436.6 116.427C436.4 117.027 436.2 117.627 436.1 118.227C433.9 128.227 431.4 138.227 428.8 148.127C425.7 159.827 422.5 171.427 418.7 182.927C417.6 186.327 418.3 188.827 419.6 191.727C423.3 200.027 428.1 207.827 431.2 216.327C433.5 222.427 435.7 228.527 437.5 234.727C440.5 244.827 442.8 255.227 444.5 265.627C445.5 272.027 446.3 278.427 446.9 284.927C447.4 290.527 447.7 296.127 447.9 301.727C448 303.827 448.8 306.027 448 308.227C445.1 307.827 442.2 307.227 439.3 306.927C429.8 305.927 420.3 305.427 410.7 306.427C399.6 307.527 389 310.027 378.8 314.327C365.5 319.827 353.8 327.827 343.3 337.727C340.5 340.427 337.8 343.227 334.9 346.027C333.8 342.727 332.7 339.527 331.7 336.327C328.6 327.227 324 318.827 319.9 310.227C318.6 307.627 317.1 305.227 315.2 303.027C308.5 295.327 301 288.627 292.4 283.227C279 275.027 264.3 271.427 248.8 271.327C240.7 271.327 232.8 272.927 225.1 275.327C209.9 280.127 197.6 289.227 187.2 301.027C183.4 305.327 180.9 310.427 177.9 315.227C173.9 321.727 170.3 328.527 167.3 335.527C165.8 338.927 164.4 342.327 162.8 345.927C162.1 345.127 161.5 344.527 160.9 343.827C143 324.027 121.5 310.327 94.5998 306.227C84.5998 304.727 74.5998 304.627 64.5998 305.427C59.5998 305.827 54.6998 306.727 49.7998 307.527C49.8998 301.927 50.3998 296.327 50.7998 290.727C51.3998 283.427 52.3998 276.127 53.6998 268.927C54.6998 262.827 56.0998 256.727 57.4998 250.627C59.7998 240.927 62.5998 231.427 65.9998 222.027C66.5998 220.227 67.5998 218.427 65.8998 216.727C65.7998 216.627 65.9998 216.427 66.0998 216.127C67.1998 217.527 67.7998 217.327 68.2998 215.727C71.6998 206.627 75.5998 197.727 79.6998 188.827C80.0998 187.927 80.3998 187.127 79.9998 186.127C76.2998 176.827 73.0998 167.327 70.3998 157.627C68.2998 150.327 66.3998 142.927 64.7998 135.427C63.5998 130.027 62.3998 124.627 61.1998 119.227C60.8998 114.727 59.7998 110.427 59.1998 105.927C58.1998 99.1274 57.2998 92.2274 56.4998 85.4274C55.7998 78.3274 55.2998 71.3274 54.8998 64.2274C54.5998 57.3274 54.4998 50.4274 54.6998 43.5274C54.9998 35.0274 55.5998 26.5274 57.7998 18.2274C58.9998 13.7274 60.4998 9.32737 62.9998 5.32737C65.8998 0.727372 68.1998 -0.072628 73.5998 0.727372C82.9998 2.22737 91.1998 6.22737 99.0998 11.3274C109.6 18.0274 118.9 26.2274 127.7 34.9274C131.2 38.4274 134.8 41.9274 138.3 45.4274C138.5 45.7274 138.7 46.0274 139 46.3274C143.6 51.4274 148.3 56.3274 152.9 61.5274C159.4 68.8274 165.8 76.1274 172.1 83.5274C173.4 85.0274 174.4 85.2274 176.2 84.5274C187.3 79.9274 198.8 76.7274 210.6 74.5274C220.8 72.6274 231.1 71.9274 241.4 71.6274C256.2 71.1274 270.9 71.8274 285.6 74.2274C298.7 76.4274 311.5 79.7274 324 84.4274C326.8 85.5274 326.8 85.5274 328.6 83.0274C334.1 75.3274 340 67.9274 346 60.5274C350.1 55.0274 354.9 49.7274 359.6 44.4274Z" fill="#F4A817"/>
<path d="M448 308.127C448.8 305.927 447.9 303.827 447.9 301.627C447.7 296.027 447.4 290.427 446.9 284.827C446.3 278.427 445.5 271.927 444.5 265.527C442.8 255.027 440.5 244.727 437.5 234.627C435.6 228.427 433.4 222.327 431.2 216.227C428 207.727 423.3 199.827 419.6 191.627C418.3 188.727 417.6 186.127 418.7 182.827C422.5 171.327 425.7 159.727 428.8 148.027C431.4 138.127 433.9 128.127 436.1 118.127C436.2 117.527 436.4 116.927 436.6 116.327C442.5 124.827 447.6 133.727 452.3 142.927C458.4 154.827 463.4 167.127 467.5 179.827C471 190.727 473.7 201.827 475.7 213.127C478.5 229.327 479.8 245.727 479.5 262.127C479.3 274.627 478.2 287.027 476.2 299.427C471 330.527 460.5 359.827 444.3 386.927C427.8 414.527 406.8 438.027 380.9 457.027C366.6 467.627 351.2 476.327 334.8 483.227C325.2 487.327 315.4 490.627 305.3 493.327C294.4 496.227 283.3 498.127 272 499.327C258.2 500.727 244.4 500.827 230.7 499.627C219.2 498.627 207.9 496.627 196.6 493.827C181.2 490.027 166.5 484.527 152.4 477.527C118.7 460.727 90.8996 436.827 68.4996 406.527C56.6996 390.627 47.0996 373.427 39.4996 355.127C35.0996 344.627 31.4996 333.927 28.5996 323.027C25.5996 311.627 23.3996 300.127 21.9996 288.327C19.8996 271.227 19.6996 254.127 20.9996 236.927C22.0996 223.027 24.2996 209.227 27.6996 195.627C34.5996 168.427 45.4996 143.027 60.8996 119.527C60.9996 119.427 61.0996 119.327 61.0996 119.227C62.2996 124.627 63.4995 130.027 64.6996 135.427C66.2995 142.927 68.1996 150.327 70.2996 157.627C72.9996 167.227 76.1996 176.827 79.8996 186.127C80.2996 187.127 79.9996 187.927 79.5996 188.827C75.4996 197.627 71.5996 206.527 68.1996 215.727C67.5996 217.327 67.0996 217.527 65.9996 216.127C65.8996 216.427 65.7996 216.727 65.7996 216.727C67.4996 218.527 66.4996 220.227 65.8996 222.027C62.5996 231.427 59.7996 240.927 57.3996 250.627C55.8996 256.727 54.5996 262.727 53.5996 268.927C52.3996 276.127 51.2996 283.427 50.6996 290.727C50.2996 296.327 49.7996 301.927 49.6996 307.527C49.1996 314.527 49.8996 321.327 51.6996 328.127C54.3996 338.127 58.7995 347.327 64.1996 356.127C75.0995 373.727 89.1996 388.627 104.8 402.127C126.4 420.927 150.3 436.127 176.3 448.127C181.4 450.527 186.5 452.927 191.8 454.827C195.7 456.227 199.6 457.627 203.5 459.027C205.9 459.827 208.4 460.727 210.9 461.527C220.1 464.327 229.5 466.227 239.1 467.227C250 468.327 260.9 467.627 271.7 465.827C281.4 464.227 290.9 461.827 300.2 458.827C309.8 455.727 319.2 452.027 328.4 447.727C341.4 441.727 353.8 434.827 365.8 426.927C377.1 419.527 387.7 411.327 397.7 402.127C401.9 398.227 406.2 394.327 409.8 389.827C410.3 389.727 410.5 389.327 410.7 388.927H410.8V388.827C411 388.627 411.2 388.527 411.4 388.327C418.2 380.727 424.5 372.727 429.8 363.927C432.7 359.027 435.8 354.227 438.2 349.027C442.6 339.627 445.7 329.827 447.2 319.427C447.9 315.727 448.2 311.927 448 308.127Z" fill="#F00500"/>
<path d="M359.6 44.4271C354.9 49.7271 350.1 54.9271 345.6 60.4271C339.6 67.7271 333.7 75.1271 328.2 82.9271C326.4 85.5271 326.4 85.4271 323.6 84.3271C311.2 79.6271 298.3 76.3271 285.2 74.1271C270.6 71.7271 255.8 71.0271 241 71.5271C230.7 71.9271 220.3 72.5271 210.2 74.4271C198.4 76.6271 186.9 79.8271 175.8 84.4271C174 85.1271 173 84.9271 171.7 83.4271C165.4 76.0271 159 68.7271 152.5 61.4271C147.9 56.3271 143.2 51.3271 138.6 46.2271C138.4 45.9271 138.2 45.6271 137.9 45.3271C151.4 37.4271 165.6 30.8271 180.5 25.9271C192.9 21.8271 205.6 18.8271 218.6 16.9271C235.2 14.5271 251.8 14.2271 268.5 15.5271C279.9 16.4271 291.2 18.4271 302.4 21.1271C322.1 26.0271 340.7 33.6271 358.4 43.5271C358.9 43.9271 359.3 44.2271 359.6 44.4271Z" fill="#F00500"/>
<path d="M405.1 393.528L405 393.628H405.1V393.528ZM401.7 396.828C401.6 396.828 401.6 396.728 401.5 396.828C401.3 396.928 401.3 396.928 401.5 397.028C401.5 397.028 401.6 397.028 401.7 397.028C401.7 397.028 401.7 396.928 401.7 396.828ZM278.3 463.228H276.6C277.2 463.628 277.7 463.428 278.3 463.228ZM272.7 464.028C274 464.428 274.9 464.128 275.9 463.628C274.7 463.228 273.9 463.828 272.7 464.028ZM253 392.728C247.7 392.628 242.4 392.628 237.1 392.628C233.9 392.628 234 392.628 234.1 395.828C234.1 396.628 234.5 397.028 235.1 397.428C236.7 398.428 238.4 399.028 240.1 399.728C241.3 400.228 241.9 400.128 242.4 398.728C243.3 395.928 243.4 396.028 246.3 396.228C247.3 396.328 247.8 396.728 248.2 397.428C249.2 399.028 250.2 400.728 251.2 402.328C252.7 404.828 255.2 405.028 257.2 402.728C258 401.728 258.9 400.728 259.7 399.728C262.5 396.428 262.5 396.428 265.8 399.228C266.3 399.628 266.6 400.228 267.4 400.028C270.1 399.428 272.1 396.828 272.2 394.128C272.2 392.728 271.7 392.528 270.5 392.528C264.6 392.728 258.8 392.728 253 392.728ZM307.1 376.528C301.8 376.528 296.5 376.528 291.3 376.528C290.5 376.528 290.1 377.028 289.9 377.528C289.4 378.928 288.4 379.228 287 379.128C282.9 379.028 278.8 379.028 274.6 379.028C272.5 379.028 270 379.628 268.4 378.728C266.7 377.728 265.8 375.328 264.9 373.428C264.2 372.128 263.4 371.428 261.9 371.628C261 371.828 260.6 371.428 260.6 370.428C260.7 365.728 260.6 361.028 260.6 356.328C260.6 355.528 260.8 355.128 261.6 354.828C265.2 353.628 268.5 351.728 271.5 349.428C277.4 344.928 281.6 339.228 283 331.728C284 326.628 283.5 321.428 283.6 316.228C283.8 310.028 277.5 303.628 271.3 303.628C259.7 303.628 248.2 303.628 236.6 303.628C229.6 303.628 224.9 308.328 224.9 315.328C224.9 318.628 225.1 321.928 224.9 325.228C224.5 332.028 227.3 337.428 231.8 342.128C237.3 347.828 244 351.528 251.2 354.628C251.9 354.928 252.6 355.028 252.6 356.128C252.6 360.828 252.6 365.628 252.6 370.328C252.6 371.028 252.4 371.628 251.6 371.428C249.7 370.928 249 372.228 248.3 373.528C247.5 375.028 246.5 376.528 245.7 378.028C245.3 378.728 244.9 378.928 244.1 378.928C236.7 378.928 229.4 378.928 222 378.528C221.4 378.528 220.9 378.528 220.8 377.728C220.8 376.528 220 376.428 219 376.428C213.9 376.428 208.8 376.328 203.6 376.328C203.2 376.328 202.6 376.028 202.5 376.728C202.4 377.328 202.3 377.928 202.8 378.528C203.7 379.428 204.5 380.328 205.5 381.128C206.7 382.128 207.2 383.228 207.3 384.828C207.4 387.028 207.8 389.128 208.2 391.228C208.6 393.028 209.1 393.528 210.8 393.028C212 392.628 213.3 392.528 213.5 394.428C213.8 397.028 214.6 399.528 215.5 402.028C216.6 405.328 217.9 408.628 220 411.428C222.4 408.928 222.6 406.028 222.5 402.928C222.3 397.028 222.4 391.228 222.4 385.328C223.2 385.428 224.2 385.428 225.1 385.628C232.9 387.228 240.8 387.828 248.7 388.128C261.5 388.628 274.1 387.528 286.7 385.328C288.1 385.128 288.4 385.428 288.3 386.728C288.2 392.728 288.2 398.728 288.1 404.728C288.1 407.528 290 409.228 291.3 411.528C293.3 406.228 295.3 401.228 297.2 396.228C298.3 393.328 298.3 393.328 301.3 393.328C302.2 393.328 302.9 393.328 303.1 392.328C304.6 387.128 305.8 381.928 307.1 376.528ZM408.4 390.428C408.5 390.328 408.6 390.228 408.7 390.028C408.6 390.028 408.6 389.928 408.5 389.928C408.4 390.028 408.3 390.228 408.4 390.428C408.2 390.528 408.1 390.628 408 390.728C407.5 390.728 407.2 390.928 407.2 391.428C407 391.428 406.9 391.528 406.7 391.528C406.7 391.628 406.8 391.628 406.8 391.728C406.9 391.628 407 391.528 407.1 391.428C407.5 391.328 407.7 391.028 407.9 390.628C408.1 390.628 408.2 390.528 408.4 390.428ZM406.1 392.628C406.2 392.528 406.4 392.528 406.2 392.328C406.2 392.428 406.1 392.528 406.1 392.628C406 392.628 405.9 392.728 405.9 392.728C406 392.728 406 392.728 406.1 392.628ZM404.2 394.528C404.3 394.428 404.4 394.328 404.4 394.328C404.2 394.128 404.2 394.328 404.1 394.428C404.1 394.528 404 394.628 404 394.628C404.1 394.628 404.2 394.628 404.2 394.528ZM409.9 389.728C406.2 394.228 402 398.128 397.8 402.028C387.9 411.228 377.2 419.428 365.9 426.828C354 434.728 341.5 441.628 328.5 447.628C319.3 451.828 309.9 455.628 300.3 458.728C291 461.728 281.5 464.128 271.8 465.728C261 467.528 250.1 468.228 239.2 467.128C229.6 466.228 220.2 464.328 211 461.428C208.5 460.628 206 459.728 203.6 458.928C199.7 457.528 195.8 456.228 191.9 454.728C186.6 452.728 181.5 450.328 176.4 448.028C150.4 436.028 126.5 420.728 104.9 402.028C89.2997 388.528 75.2997 373.728 64.2997 356.028C58.8997 347.228 54.4997 338.028 51.7997 328.028C49.9997 321.328 49.2997 314.428 49.7997 307.428C54.6997 306.628 59.5997 305.728 64.5997 305.328C74.5997 304.528 84.5997 304.628 94.5997 306.128C121.5 310.228 142.9 323.828 160.9 343.728C161.5 344.328 162.1 345.028 162.8 345.828C164.3 342.228 165.8 338.828 167.3 335.428C170.3 328.428 174 321.728 177.9 315.128C180.8 310.328 183.4 305.228 187.2 300.928C197.6 289.028 209.9 279.928 225.1 275.228C232.8 272.828 240.7 271.228 248.8 271.228C264.4 271.228 279.1 274.828 292.4 283.128C301.1 288.428 308.6 295.228 315.2 302.828C317.1 305.028 318.7 307.428 319.9 310.028C324.1 318.628 328.7 327.028 331.7 336.128C332.8 339.328 333.8 342.528 334.9 345.828C337.8 343.028 340.5 340.228 343.3 337.528C353.7 327.628 365.5 319.628 378.8 314.128C389 309.928 399.7 307.428 410.7 306.228C420.3 305.228 429.8 305.728 439.3 306.728C442.2 307.028 445.1 307.628 448 308.028C448.1 311.828 447.8 315.628 447.3 319.328C445.8 329.628 442.7 339.428 438.3 348.928C435.9 354.128 432.8 358.928 429.9 363.828C424.7 372.628 418.3 380.628 411.5 388.228C411.3 388.428 411.1 388.528 410.9 388.728C410.6 387.928 411.6 387.528 411.5 386.628C410.7 387.328 409.9 387.728 409.8 388.828C409.6 388.928 409.2 388.928 409.2 389.128C409.1 389.628 409.5 389.528 409.8 389.628L409.9 389.728Z" fill="#FFFEFE"/>
<path d="M76.7001 31.9271C79.7001 32.8271 82.8001 34.1271 85.7001 35.6271C92.0001 38.7271 98.1001 42.4271 103.9 46.4271C109.5 50.3271 114.7 54.5271 119.9 58.9271C127 64.9271 133.8 71.4271 140.4 78.0271C144.3 81.9271 148 86.1271 151.8 90.1271C152.6 90.9271 152.6 91.5271 151.6 92.2271C145.9 96.0271 140.6 100.327 135.3 104.627C129.6 109.327 124.5 114.527 119.3 119.827C113 126.327 107.3 133.427 101.9 140.727C97.5001 146.527 93.6001 152.627 89.7001 158.827C89.5001 159.127 89.4001 159.527 88.9001 159.527C88.3001 159.527 88.2001 159.027 88.1001 158.627C86.3001 152.927 84.4001 147.127 82.8001 141.427C80.8001 134.427 78.8001 127.427 77.1001 120.427C75.7001 114.827 74.4001 109.127 73.3001 103.427C72.5001 99.1271 71.7001 94.8271 71.0001 90.4271C70.4001 86.5271 69.9001 82.5271 69.6001 78.6271C69.1001 72.9271 68.6001 67.2271 68.9001 61.5271C69.4001 52.2271 70.5001 43.1271 74.3001 34.5271C75.3001 32.0271 75.5001 31.7271 76.7001 31.9271Z" fill="#F28F1F"/>
<path d="M424.8 49.3271C425.4 54.7271 426.1 60.2271 425.9 65.6271C425.7 71.7271 425.3 77.9271 424.6 84.0271C423.6 93.2271 421.9 102.327 419.9 111.327C418.1 119.527 416 127.727 413.6 135.827C411.6 143.027 409.3 150.027 407.1 157.227C406.8 158.127 406.4 159.627 406.1 159.627C405 159.527 404.9 158.327 404.4 157.527C400.9 152.027 397.3 146.727 393.5 141.527C389.8 136.627 386 131.727 382.1 127.027C377.1 121.127 371.5 115.827 366.1 110.327C364.9 109.127 363.2 108.327 362.3 106.727C362.6 106.327 363.1 105.927 363.3 105.427C365.7 100.427 368.3 95.6272 371.2 90.9272C375.5 83.8272 380.3 76.9271 385.9 70.7271C391.8 64.2271 398.4 58.6271 406.3 54.6271C412 51.6271 418.2 49.6271 424.8 49.3271Z" fill="#F28B20"/>
<path d="M126.2 233.827C126.5 228.527 126.7 224.427 128.3 220.527C129 218.927 129.8 218.227 131.6 218.227C137 218.127 141.9 219.827 146.7 221.927C162.5 228.727 176.7 238.127 190.8 247.927C196.2 251.727 200.9 256.327 204 262.327C204.8 263.927 205.3 265.527 205.6 267.227C205.9 269.227 205.3 270.127 203.3 270.827C201 271.627 198.5 271.927 196.1 271.827C189.3 271.627 182.6 270.527 176 269.127C169.4 267.627 162.9 265.827 156.5 263.427C146.7 259.727 137.4 255.427 129.7 248.027C127.9 246.227 126.5 244.427 126.6 241.627C126.7 238.627 126.3 235.627 126.2 233.827Z" fill="#1F1712"/>
<path d="M374.7 234.527C374.6 237.027 374.3 239.527 374.4 242.027C374.4 243.927 373.5 245.327 372.4 246.627C367.9 251.627 362.3 255.127 356.3 258.227C347.4 262.827 337.9 266.127 328.2 268.427C320.6 270.227 313 271.627 305.1 271.727C303 271.727 301 271.327 299 270.827C296.9 270.327 296.2 269.127 296.5 267.227C297.5 260.927 301.4 256.327 305.7 252.027C311.2 246.627 317.8 242.727 324.2 238.527C332.1 233.327 340.1 228.327 348.5 224.127C354.5 221.127 360.5 218.327 367.2 217.727C372.1 217.327 371.7 217.327 373.3 222.327C374.8 226.227 374.7 230.327 374.7 234.527Z" fill="#1F1713"/>
<path d="M424.8 49.3272C418.2 49.5272 412 51.6272 406.1 54.5272C398.2 58.5272 391.6 64.1272 385.7 70.6272C380.1 76.8272 375.3 83.6272 371 90.8272C368.2 95.5272 365.5 100.327 363.1 105.327C362.9 105.827 362.4 106.227 362.1 106.627C359.9 105.627 358.4 103.727 356.6 102.227C352.3 98.7272 347.7 95.4272 343.2 92.1272C342 91.2272 342.2 90.7272 343 89.8272C348.5 83.7272 354.2 77.7272 360.1 72.0272C370.3 62.2272 380.9 52.9272 392.5 44.9272C399.9 39.8272 407.9 35.5272 416.3 32.2272C418.7 31.2272 419 31.3272 420 33.6272C422.1 38.2272 423.7 43.1272 424.3 48.2272C424.5 48.6272 424.7 49.0272 424.8 49.3272Z" fill="#F2991D"/>
<path d="M341.1 206.027C332.9 205.927 326.1 205.627 319.4 203.627C313.2 201.827 310.5 197.827 311.1 191.327C311.7 184.227 315.5 178.827 320.4 174.227C323.2 171.627 326.2 169.127 329.9 167.727C336.3 165.427 342.3 166.527 348 169.827C355.1 174.027 360 179.927 361.2 188.327C361.9 193.127 360.8 197.627 358.1 201.727C356.2 204.627 353.3 205.327 350.2 205.527C346.8 205.727 343.3 206.227 341.1 206.027Z" fill="#FFFEFE"/>
<path d="M156.8 206.028C152.3 206.028 148.2 205.728 144.2 205.428C140.6 205.128 138.8 202.828 137.1 200.128C134.5 196.128 134.8 191.828 135.3 187.328C136.5 177.128 146.4 168.528 156.2 166.828C161.9 165.828 167 167.328 171.6 170.828C176.9 174.928 181.7 179.428 183.7 186.028C184.9 190.328 184.6 194.728 183 198.928C182.1 201.228 180.1 202.428 178 203.228C174.5 204.528 170.8 205.228 167.1 205.528C163.4 205.828 159.9 206.228 156.8 206.028Z" fill="#FFFEFE"/>
<path d="M409.8 388.928C409.9 387.828 410.8 387.428 411.5 386.728C411.6 387.628 410.6 388.028 410.9 388.828V388.928H410.8C410.5 388.928 410.1 388.928 409.8 388.928Z" fill="#F6D9A7"/>
<path d="M409.8 388.927C410.1 388.927 410.4 388.927 410.8 388.927C410.6 389.327 410.4 389.727 409.9 389.827L409.8 389.727C409.8 389.427 409.8 389.127 409.8 388.927Z" fill="#FFFEFE"/>
<path d="M307.1 376.528C305.8 381.928 304.5 387.128 303.3 392.428C303.1 393.428 302.4 393.428 301.5 393.428C298.5 393.428 298.5 393.428 297.4 396.328C295.5 401.328 293.6 406.228 291.5 411.628C290.2 409.228 288.3 407.528 288.3 404.828C288.4 398.828 288.4 392.828 288.5 386.828C288.5 385.428 288.3 385.128 286.9 385.428C274.3 387.628 261.7 388.728 248.9 388.228C241 387.928 233.1 387.328 225.3 385.728C224.4 385.528 223.5 385.528 222.6 385.428C222.6 391.328 222.5 397.228 222.7 403.028C222.8 406.228 222.6 409.128 220.2 411.528C218.1 408.728 216.8 405.428 215.7 402.128C214.9 399.628 214 397.228 213.7 394.528C213.5 392.628 212.2 392.828 211 393.128C209.2 393.628 208.7 393.128 208.4 391.328C208 389.228 207.6 387.028 207.5 384.928C207.4 383.328 206.9 382.228 205.7 381.228C204.7 380.428 203.9 379.528 203 378.628C202.5 378.128 202.6 377.428 202.7 376.828C202.8 376.128 203.4 376.428 203.8 376.428C208.9 376.428 214 376.528 219.2 376.528C220.2 376.528 220.9 376.728 221 377.828C221 378.628 221.6 378.628 222.2 378.628C229.6 379.028 236.9 379.028 244.3 379.028C245.1 379.028 245.6 378.828 245.9 378.128C246.7 376.628 247.7 375.128 248.5 373.628C249.2 372.328 249.9 371.028 251.8 371.528C252.7 371.728 252.8 371.128 252.8 370.428C252.8 365.728 252.8 360.928 252.8 356.228C252.8 355.228 252.1 355.028 251.4 354.728C244.2 351.628 237.5 347.828 232 342.228C227.5 337.528 224.7 332.128 225.1 325.328C225.3 322.028 225.1 318.728 225.1 315.428C225.1 308.428 229.8 303.728 236.8 303.728C248.4 303.728 259.9 303.728 271.5 303.728C277.7 303.728 284 310.128 283.8 316.328C283.6 321.528 284.1 326.728 283.2 331.828C281.8 339.328 277.7 345.028 271.7 349.528C268.7 351.828 265.4 353.728 261.8 354.928C261 355.228 260.8 355.628 260.8 356.428C260.8 361.128 260.8 365.828 260.8 370.428C260.8 371.428 261.1 371.828 262.1 371.628C263.6 371.328 264.4 372.028 265.1 373.428C266.1 375.328 267 377.828 268.6 378.728C270.2 379.628 272.7 379.028 274.8 379.028C278.9 379.028 283 379.028 287.2 379.128C288.6 379.128 289.6 378.928 290.1 377.528C290.3 376.928 290.7 376.528 291.5 376.528C296.6 376.528 301.8 376.528 307.1 376.528Z" fill="#1D1919"/>
<path d="M253 392.727C258.8 392.727 264.6 392.727 270.4 392.727C271.6 392.727 272.2 392.927 272.1 394.327C272 397.027 270 399.527 267.3 400.227C266.5 400.427 266.2 399.827 265.7 399.427C262.4 396.627 262.4 396.627 259.6 399.927C258.8 400.927 257.9 401.927 257.1 402.927C255.2 405.227 252.7 405.127 251.1 402.527C250.1 400.927 249.1 399.227 248.1 397.627C247.7 396.927 247.2 396.527 246.2 396.427C243.3 396.227 243.2 396.127 242.3 398.927C241.8 400.327 241.2 400.427 240 399.927C238.3 399.227 236.5 398.627 234.9 397.627C234.3 397.227 233.9 396.827 233.9 396.027C233.8 392.827 233.7 392.827 236.9 392.827C242.4 392.627 247.7 392.627 253 392.727Z" fill="#171413"/>
<path d="M272.7 464.027C273.9 463.827 274.8 463.227 275.9 463.627C274.9 464.127 274 464.427 272.7 464.027Z" fill="#F6D9A7"/>
<path d="M278.3 463.228C277.7 463.528 277.2 463.628 276.6 463.228H278.3Z" fill="#F6D9A7"/>
<path d="M409.8 388.927C409.8 389.227 409.8 389.427 409.8 389.727C409.6 389.627 409.1 389.727 409.2 389.227C409.3 389.027 409.6 388.927 409.8 388.927Z" fill="#F6D9A7"/>
<path d="M407.2 391.527C407.2 391.027 407.4 390.727 408 390.827C407.8 391.127 407.6 391.427 407.2 391.527Z" fill="#F6D9A7"/>
<path d="M407.2 391.527C407.1 391.627 407 391.727 406.9 391.827C406.9 391.727 406.8 391.727 406.8 391.627C406.9 391.627 407 391.527 407.2 391.527Z" fill="#F7DDB0"/>
<path d="M401.7 396.828V396.928C401.7 396.928 401.6 397.028 401.5 396.928C401.3 396.828 401.3 396.728 401.5 396.728C401.6 396.828 401.7 396.828 401.7 396.828Z" fill="#F7DDB0"/>
<path d="M408.3 390.327C408.4 390.127 408.4 390.027 408.5 389.827C408.6 389.827 408.6 389.927 408.7 389.927C408.6 390.127 408.5 390.327 408.3 390.327Z" fill="#F6D9A7"/>
<path d="M408 390.727C408.1 390.627 408.2 390.427 408.4 390.327L408.5 390.427C408.2 390.527 408.1 390.627 408 390.727Z" fill="#F6D9A7"/>
<path d="M406 392.627C406.1 392.527 406.1 392.427 406.2 392.427C406.5 392.527 406.2 392.627 406 392.627Z" fill="#F7DDB0"/>
<path d="M406.1 392.627C406 392.727 405.9 392.727 405.9 392.827C405.9 392.727 406 392.627 406.1 392.627Z" fill="#F7DDB0"/>
<path d="M405.1 393.527V393.627H405L405.1 393.527Z" fill="#F7DDB0"/>
<path d="M404.1 394.427C404.2 394.327 404.2 394.127 404.4 394.327C404.4 394.327 404.3 394.427 404.2 394.527L404.1 394.427Z" fill="#F7DDB0"/>
<path d="M404.3 394.527C404.2 394.527 404.1 394.627 404.1 394.627C404.1 394.527 404.2 394.427 404.2 394.427C404.1 394.427 404.3 394.527 404.3 394.527Z" fill="#F7DDB0"/>
</g>
<defs>
<clipPath id="clip0_1_9858">
<rect width="500" height="500" fill="white" transform="translate(0 0.527344)"/>
</clipPath>
</defs>
</svg>
