<svg width="500" height="501" viewBox="0 0 500 501" fill="none" xmlns="http://www.w3.org/2000/svg">
<path d="M225.7 357.927L3.2998 214.427L5.4998 202.927C27.3998 86.2273 130.8 1.52734 251.2 1.52734C373.5 1.52734 476.8 88.9273 496.8 209.427C498.4 218.927 492 227.827 482.5 229.427C473 231.027 464.1 224.627 462.5 215.127C445.3 111.527 356.4 36.3273 251.2 36.3273C151.5 36.3273 65.2998 103.627 42.0998 198.027L220.4 313.027L291.4 238.527C298 231.527 309.1 231.327 316 237.927C323 244.527 323.2 255.627 316.6 262.527L225.7 357.927Z" fill="#238CFD"/>
<path d="M251.2 499.527C130.7 499.527 27.7 413.627 6.19997 295.227C4.49997 285.727 10.8 276.727 20.2 275.027C29.7 273.327 38.7 279.627 40.4 289.027C59 390.827 147.6 464.727 251.2 464.727C348.2 464.727 433.5 397.327 458.3 302.827L276.3 188.227L205.2 262.827C198.6 269.827 187.5 270.027 180.6 263.427C173.6 256.827 173.4 245.727 180 238.827L270.8 143.527L497.6 286.327L495.2 298.127C471.2 414.827 368.6 499.527 251.2 499.527Z" fill="#238CFD"/>
</svg>
