<svg width="500" height="501" viewBox="0 0 500 501" fill="none" xmlns="http://www.w3.org/2000/svg">
<path d="M491.3 65.2275C420.1 47.9275 313 36.2275 243.4 36.2275C71.2 36.2275 1 84.9275 1 162.928C1 218.928 26.7 252.528 79.4 269.728C88.4 272.628 114.2 279.228 152.4 274.728C229.9 265.628 250.7 254.328 250.7 254.328C250.7 254.328 136.6 242.328 99.2 199.228C91.7 190.628 88.3 179.528 88.4 168.428C88.5 156.228 94.3 144.328 103.1 136.728C119.6 122.628 156.9 115.328 223.6 114.628C298.7 113.828 377.2 119.928 439.9 133.428C469.9 139.928 481.9 113.528 484.5 101.228C486.7 90.9275 491.3 65.2275 491.3 65.2275Z" fill="black"/>
<path d="M1 436.827C73.3 453.527 182.1 464.827 252.8 464.827C427.8 464.827 499 417.927 499 342.627C499 288.627 472.9 256.227 419.3 239.627C410.2 236.827 383.9 230.527 345.2 234.827C266.4 243.527 245.3 254.527 245.3 254.527C245.3 254.527 361.2 266.027 399.2 307.627C406.8 315.927 410.3 326.627 410.2 337.327C410.1 349.027 404.2 360.627 395.3 367.827C378.5 381.427 340.6 388.427 272.9 389.127C196.6 389.927 116.9 384.027 53.3 371.027C22.8 364.727 10.7 390.227 8 402.127C5.8 412.027 1 436.827 1 436.827Z" fill="black"/>
</svg>
