<svg width="500" height="501" viewBox="0 0 500 501" fill="none" xmlns="http://www.w3.org/2000/svg">
<path d="M371.842 369.953C370.726 370.557 369.854 370.358 369.019 370.358C328.848 370.369 288.669 370.869 248.508 370.24C198.08 369.449 160.266 346.505 137.966 301.277C103.777 231.937 143.388 148.279 218.659 130.658C265.277 119.744 306.375 131.506 339.42 166.898C359.542 188.449 369.897 214.529 371.503 244.038C371.797 249.433 371.841 254.821 371.841 260.216C371.844 295.762 371.843 331.307 371.843 366.853C371.842 367.876 371.842 368.899 371.842 369.953ZM322.986 321.53C323.033 320.639 323.092 320.046 323.092 319.453C323.094 295.818 323.088 272.182 323.089 248.547C323.089 244.6 322.729 240.689 322.096 236.791C314.692 191.172 266.233 163.679 223.453 180.84C188.273 194.953 169.824 232.321 180.03 268.794C188.586 299.372 216.874 321.309 248.573 321.595C272.72 321.813 296.871 321.653 321.02 321.655C321.602 321.656 322.183 321.583 322.986 321.53Z" fill="#21ED82"/>
<path d="M47.3389 114.676C50.4229 117.252 53.5789 119.426 56.9029 121.363C17.7199 184.715 8.21389 251.856 31.3019 322.67C47.7879 373.232 79.2529 413.017 123.689 442.059C217.039 503.07 338.812 487.814 414.329 411.256C493.067 331.432 502.789 207.148 439.906 117.116C404.155 65.9304 355.259 33.8375 293.88 22.0685C232.693 10.3365 175.673 22.2215 122.855 55.5975C120.84 52.2085 118.677 49.0525 115.918 45.7455C150.845 22.7705 188.892 9.34645 230.288 6.27945C295.444 1.45245 353.976 19.2775 404.519 60.8145C512.074 149.206 521.485 305.236 435.382 406.312C347.223 509.802 193.505 520.102 92.7219 434.194C-10.9811 345.797 -13.9381 203.664 47.3389 114.676Z" fill="#808D8E"/>
<path d="M79.9731 102.756C66.4131 102.802 55.4891 91.9043 55.4771 78.3193C55.4661 65.1393 66.3541 54.2543 79.7181 54.0863C93.0251 53.9193 104.149 64.9423 104.177 78.3253C104.205 91.8523 93.4481 102.711 79.9731 102.756Z" fill="#21ED82"/>
</svg>
