<svg width="500" height="501" viewBox="0 0 500 501" fill="none" xmlns="http://www.w3.org/2000/svg">
<g clip-path="url(#clip0_1_9900)">
<path d="M242.4 492.927C376.274 492.927 484.8 384.401 484.8 250.527C484.8 116.654 376.274 8.12744 242.4 8.12744C108.526 8.12744 0 116.654 0 250.527C0 384.401 108.526 492.927 242.4 492.927Z" fill="url(#paint0_linear_1_9900)"/>
<path d="M420.4 215.027H383.8H153.5C147.3 215.027 143.4 207.927 146.5 202.427L149.6 197.727C151.9 193.827 155.8 191.427 159.7 191.427H454.7C463.3 191.427 471 186.727 474.9 179.627L498.3 139.627C503 131.727 497.5 121.527 488.2 121.527H162C148 121.527 134.8 129.427 127.8 141.127L85.7998 214.927C79.5998 225.127 87.3998 238.527 98.9998 238.527H126.2H356.6C362.8 238.527 366.7 245.627 363.6 251.127L360.5 255.827C358.2 259.727 354.3 262.127 350.4 262.127H81.0998C67.0998 262.127 53.8998 270.027 46.8998 281.727L1.6998 361.127C-3.0002 369.027 2.4998 379.227 11.7998 379.227H337.9C351.9 379.227 365.1 371.327 372.1 359.627L437.5 244.927C445.3 231.527 436 215.027 420.4 215.027Z" fill="white"/>
</g>
<defs>
<linearGradient id="paint0_linear_1_9900" x1="242.393" y1="8.10304" x2="242.393" y2="492.952" gradientUnits="userSpaceOnUse">
<stop stop-color="#010160"/>
<stop offset="1" stop-color="#018EFF"/>
</linearGradient>
<clipPath id="clip0_1_9900">
<rect width="500" height="500" fill="white" transform="translate(0 0.527344)"/>
</clipPath>
</defs>
</svg>
