<svg width="500" height="501" viewBox="0 0 500 501" fill="none" xmlns="http://www.w3.org/2000/svg">
<path d="M0 31.0273V470.027H406.5V420.827H48.7V80.2273H406.5V31.0273H0Z" fill="black"/>
<path d="M446.8 199.728C446.8 189.328 442.8 180.228 434.7 172.528C426.6 164.828 415.4 160.928 400.8 160.928C388.5 160.928 378.8 163.428 371.6 168.628C364.4 173.828 360.8 180.628 360.8 189.228C360.8 193.728 361.7 197.828 363.5 201.428C365.3 205.028 368.2 208.228 372.5 211.228C376.8 214.228 382.4 216.628 389.5 218.928C396.5 221.228 405.4 223.228 416.2 225.228C443.3 230.228 464 238.628 478.3 250.128C492.7 261.928 499.8 279.128 499.8 302.028V306.528C499.8 318.728 497.6 329.628 493.3 339.628C489 349.428 482.8 357.728 474.7 364.828C466.6 371.828 456.8 377.028 445.1 380.928C433.4 384.528 420.4 386.628 405.8 386.628C388.8 386.628 373.9 384.128 360.9 379.328C347.9 374.528 337.1 367.728 328.6 359.128C320.1 350.528 313.3 340.528 309.1 328.928C304.6 317.328 302.4 304.628 302.4 291.028V288.728H351.1C351.1 304.328 355.6 316.828 364.6 326.328C373.6 335.628 387.5 340.428 406.5 340.428C421.3 340.428 432.3 337.228 439.5 330.628C446.7 324.028 450.3 316.328 450.3 307.528C450.3 303.228 449.6 299.328 448.1 295.328C446.5 291.428 444.1 288.028 440.2 284.928C436.6 281.728 431.5 279.028 424.9 276.528C418.4 274.028 410.3 272.028 400.4 270.228C387.4 267.928 375.5 265.028 364.5 261.428C353.7 257.828 344.3 253.028 336.2 247.128C328.1 241.228 322.1 233.728 317.6 224.728C313.1 215.628 310.9 204.728 310.9 191.828V189.528C310.9 178.828 313.1 168.928 317.4 159.828C321.7 150.728 327.7 142.828 335.6 136.028C343.5 129.228 352.6 124.028 363.6 120.428C374.6 116.828 386.7 114.728 400.4 114.728C415.7 114.728 429.1 117.028 441 121.328C452.9 125.628 462.8 131.528 470.8 139.028C478.9 146.528 484.3 155.328 489 164.928C494.8 176.528 495.1 200.028 495.1 200.028L446.8 199.728Z" fill="black"/>
</svg>
