<svg width="500" height="501" viewBox="0 0 500 501" fill="none" xmlns="http://www.w3.org/2000/svg">
<path d="M241.196 54.1725C187.409 170.536 133.665 286.809 79.9269 403.068C40.3689 386.427 6.42991 341.341 9.83791 286.779C11.8049 255.286 24.3249 228.39 47.2779 206.531C70.2379 184.665 97.8709 174.21 129.618 173.233C130.862 131.367 148.387 98.3315 182.371 74.0265C201.561 60.3015 230.143 52.8425 241.196 54.1725ZM297.03 66.2075C297.342 65.5325 297.566 64.8155 297.808 64.1105C297.851 63.9865 297.789 63.8175 297.751 63.6755C297.713 63.5355 297.644 63.4045 297.443 62.9135C282.592 56.3355 266.821 53.1625 250.532 53.1045C247.428 59.5075 87.6719 403.551 87.6319 406.487C99.7589 412.439 124.694 415.759 136.201 414.129C189.877 298.016 243.457 182.113 297.03 66.2075ZM148.193 414.438C165.035 414.438 181.17 414.438 197.469 414.438C246.215 308.973 294.885 203.671 343.606 98.2575C333.771 86.1185 322.39 75.9605 308.176 68.2965C254.72 183.955 201.566 298.958 148.193 414.438ZM261.295 409.204C269.464 391.538 277.619 373.865 285.784 356.195C300.165 325.077 314.556 293.962 328.935 262.842C342.118 234.311 355.276 205.768 368.5 177.255C369.542 175.007 369.988 172.802 369.958 170.326C369.881 164.015 369.181 157.797 368.058 151.593C365.525 137.595 360.504 124.566 353.214 112.249C352.844 112.69 352.475 112.98 352.3 113.359C306.185 213.081 260.084 312.809 213.99 412.54C213.868 412.805 213.846 413.121 213.814 413.417C213.799 413.552 213.862 413.703 213.909 413.84C213.957 413.98 214.03 414.111 214.203 414.487C228.898 414.487 243.704 414.487 258.73 414.487C259.609 412.679 260.485 410.957 261.295 409.204ZM319.725 414.469C322.508 410.333 423.91 190.59 424.709 186.811C413.441 181.033 401.569 176.992 388.614 175.184C351.951 254.549 315.374 333.728 278.823 412.918C278.664 413.262 278.877 413.775 278.939 414.469C292.581 414.469 306.179 414.469 319.725 414.469ZM468.94 225.562C461.689 215.197 453.268 206.205 443.045 198.542C442.541 199.419 442.129 200.023 441.826 200.678C426.415 233.951 411.008 267.227 395.611 300.507C384.989 323.466 374.383 346.432 363.766 369.393C357.548 382.841 351.304 396.277 345.127 409.743C344.482 411.148 343.256 412.488 344.003 414.704C356.54 414.568 369.108 415.244 381.978 413.75C411.044 350.848 439.987 288.216 468.94 225.562ZM482.472 253.128C458.817 304.301 435.37 355.021 411.577 406.491C475.625 384.316 505.521 310.15 482.472 253.128Z" fill="#0076F6"/>
</svg>
