<svg width="500" height="501" viewBox="0 0 500 501" fill="none" xmlns="http://www.w3.org/2000/svg">
<path fill-rule="evenodd" clip-rule="evenodd" d="M42.5 209.027L1 250.527L42.5 292.027L109.7 359.527L151.2 318.027L84 250.527L114.4 219.627L72.9 178.127L42.5 209.027Z" fill="#37DBFF"/>
<path fill-rule="evenodd" clip-rule="evenodd" d="M457.5 209.027L390.2 142.527L348.7 184.027L416 250.527L385.4 281.227L426.9 322.727L499 250.527L457.5 209.027Z" fill="#37DBFF"/>
<path fill-rule="evenodd" clip-rule="evenodd" d="M250 1.52734L208.5 43.0273L146.2 105.227L104.8 146.727L146.2 188.327L312.3 354.227L250 416.527L183.3 349.527L141.8 391.027L208.5 458.027L250 499.527L291.5 458.027L395.2 354.227L353.8 312.827L187.7 146.727L250 84.5273L317.2 152.127L358.6 110.627L291.5 43.0273L250 1.52734Z" fill="#1346FF"/>
</svg>
