<svg width="500" height="501" viewBox="0 0 500 501" fill="none" xmlns="http://www.w3.org/2000/svg">
<g clip-path="url(#clip0_1_9916)">
<path d="M245.4 500.527C245.1 500.527 245.1 500.527 244.8 500.527C140.1 500.227 90.0001 450.027 66.2001 408.327C44.2001 369.527 35.8001 326.827 41.7001 281.727C46.4001 244.127 61.4001 204.627 85.3001 168.227C100.3 145.027 120.1 121.527 141.1 102.427C156.4 88.3273 169 79.2273 179 75.2273C175.9 62.3273 174 42.0273 173.4 35.1273V33.8273C173.1 17.8273 191 10.6273 196.9 8.12727C208.2 3.42727 221.7 0.92727 234.5 0.62727C247.4 0.32727 260.2 1.22727 270.9 3.72727C277.5 5.32727 297.2 9.72727 297.5 26.6273L298.4 55.4273C298.4 60.7273 298.1 65.4273 297.5 69.8273C353.6 89.5273 401.2 148.827 420.7 180.827C428.5 193.727 447.7 228.427 456.1 272.027C466.1 324.327 457.7 371.027 430.7 411.527C375.2 493.927 275.8 500.527 245.4 500.527ZM189.7 107.427C177.2 114.327 140.8 144.727 113.8 186.727C87.2001 227.827 49.2001 309.327 95.9001 391.727C123.5 440.627 175.2 466.627 245.1 466.927C245.4 466.927 245.4 466.927 245.7 466.927C271.7 466.927 356.7 461.327 402.1 392.927C455.7 312.727 402.7 217.127 391.4 198.927C381.7 182.927 361.9 156.927 337.5 135.027L235 119.327L157.3 134.727L198.4 111.527C196.8 110.927 195.3 110.227 193.7 109.327C192.2 108.727 190.6 108.127 189.7 107.427ZM283.4 106.827L322 121.827C311.7 114.327 301 107.727 289.7 103.327C288.1 104.227 286.6 105.227 284.7 106.127C284.3 106.527 284 106.827 283.4 106.827ZM207.5 40.4273C209.1 53.3273 210.9 66.4273 212.2 70.2273C214.7 77.1273 218.8 81.5273 225.1 84.0273L237.6 89.0273L248.3 83.0273C253.9 79.9273 257.7 75.2273 258 74.9273L259.3 73.0273L259.9 72.7273C260.8 71.4273 264 66.4273 263.7 56.7273V36.9273C257.7 35.3273 247.4 34.1273 235.2 34.4273C223.5 34.7273 213.2 37.9273 207.5 40.4273Z" fill="#0B4431"/>
<path d="M416 402.127C364.6 479.527 269.3 483.627 244.9 483.627C214.2 483.627 126.1 479.827 81.0001 399.927C37.6001 323.427 58.0001 241.027 99.4001 177.327C131.7 127.527 178.1 89.9273 190 89.2273C192.2 89.2273 195.6 91.4273 201 93.9273C208.5 97.3273 220.1 101.727 238.3 100.227C259.3 98.3273 270.6 94.6273 277.2 91.1273C284.7 87.3273 286.6 84.2273 289.7 85.5273C343.6 103.727 389.4 162.927 406 189.927C423.8 219.327 472.7 317.127 416 402.127Z" fill="#77BAA1"/>
<path d="M109.1 233.427C109.1 233.427 85.6 290.827 90.6 333.727C95.3 375.127 123.2 436.527 191.5 451.627C259.8 466.627 304 449.127 341.9 432.227C379.5 415.327 405.5 379.927 409.3 346.327C413.1 312.827 413.4 263.927 394.6 224.127" fill="#F3ACBB"/>
<path d="M275.8 128.128C273.6 135.928 237.9 143.528 221.6 139.128C205.6 134.728 204.4 124.428 200.6 94.0275C208.1 97.4275 219.7 101.828 237.9 100.328C258.9 98.4275 270.2 94.7275 276.8 91.2275C277.4 99.0275 278 120.628 275.8 128.128Z" fill="#89B772"/>
<path d="M190.9 415.927C189 411.527 188.7 406.827 189.3 402.127C191.5 385.227 203.4 340.427 265.2 306.527C342.6 263.927 383.4 299.927 383.4 299.927C383.4 299.927 407.8 321.527 389.4 372.927C370.9 424.027 280.3 442.827 280.3 442.827C280.3 442.827 208.1 459.427 190.9 415.927Z" fill="#F08FA2"/>
<path d="M116.3 322.127C111.3 322.127 111 302.427 117.2 293.627C127.2 279.527 144.5 292.727 144.5 292.727C144.5 292.727 129.5 322.127 116.3 322.127Z" fill="#F08FA2"/>
<path d="M394.6 224.027C394.6 216.527 330.7 210.527 251.7 210.527C172.7 210.527 108.8 225.927 108.8 233.427C108.8 240.927 172.7 254.127 251.7 254.127C330.7 254.127 394.6 231.627 394.6 224.027Z" fill="#F8D0D9"/>
<path d="M190 33.5271C190 33.5271 195.3 66.4272 197.5 75.8272C199.4 83.6272 211.6 100.627 234.2 103.127C258.3 105.627 272.1 84.6271 272.1 84.6271C272.1 84.6271 281.8 75.5271 281.2 56.1271C280.6 36.7271 280.3 27.3271 280.3 27.3271C280.3 27.3271 229.5 31.9271 190 33.5271Z" fill="#DD8843"/>
<path d="M280.2 27.2273C280.2 22.5273 259.2 16.9273 234.8 17.5273C210 18.1273 189.7 28.8273 190 33.5273C190 38.2273 211 45.4273 235.4 44.8273C260.2 44.1273 280.2 31.9273 280.2 27.2273Z" fill="#EBB646"/>
<path d="M120.7 242.527C118.2 241.927 116.3 240.327 114.7 238.127C110.3 231.227 104 213.027 129.1 178.227C161.7 132.427 179.2 147.827 179.2 147.827C179.2 147.827 200.8 158.827 177.3 197.327C177 197.627 177 197.927 176.7 198.227C174.6 203.727 151.4 251.027 120.7 242.527Z" fill="white"/>
<path d="M353.3 427.128C348 426.228 344.5 421.528 345.5 416.128C346.8 409.528 350.5 399.528 361.5 389.828C378.4 374.828 390.6 388.228 393.5 392.028C394.1 392.928 394.4 393.928 394.8 394.828C395.4 397.928 395.1 404.228 386.7 413.628C376.8 424.328 364.9 429.328 353.3 427.128Z" fill="white"/>
<path d="M431.6 288.327C434.7 296.427 411.5 266.027 408.4 265.727C403.7 265.127 379.9 322.727 373.9 324.327C366.4 326.227 305.3 281.727 292.1 282.927C268.6 284.527 220.3 355.327 214.1 356.627C206.6 357.927 152.7 293.327 133.2 290.827C126.6 289.927 81.2001 345.027 77.4001 340.927C75.5001 339.027 71.1001 295.127 71.8001 282.927C72.4001 275.127 77.8001 313.627 79.9001 313.627C83.7001 313.927 125.3 272.227 134.1 272.927C141.9 273.527 203.7 328.427 209.6 327.127C215.6 325.827 275.4 266.927 288.3 265.027C298.3 263.727 351.6 302.327 366 299.827C374.8 298.527 401.7 250.927 406.4 249.727C410.6 249.427 428.2 279.527 431.6 288.327Z" fill="#A5D4C1"/>
</g>
<defs>
<clipPath id="clip0_1_9916">
<rect width="500" height="500" fill="white" transform="translate(0 0.527344)"/>
</clipPath>
</defs>
</svg>
