<svg width="500" height="501" viewBox="0 0 500 501" fill="none" xmlns="http://www.w3.org/2000/svg">
<path d="M408.6 78.4275L299.2 15.2275C270.5 -1.27246 235.1 -1.27246 206.4 15.2275L96.9 78.4275C68.2 95.0275 50.5 125.728 50.5 158.828V285.028C50.6 318.128 68.2 348.828 96.9 365.428L206.3 428.728C215.8 434.228 226.3 437.928 237.1 439.728V498.228H271.3V439.228C281.1 437.228 290.5 433.728 299.1 428.728L408.6 365.528C437.3 348.928 455 318.228 455 285.028V158.828C454.9 125.628 437.3 95.0275 408.6 78.4275ZM223.5 44.9275C241.6 34.5275 264 34.5275 282.1 44.9275L304.9 58.1275L218.7 113.728C210.5 118.328 207.6 128.828 212.2 137.028C216.8 145.228 227.3 148.128 235.5 143.528C236.1 143.228 236.7 142.828 237.2 142.428L338.2 77.3275L391.5 108.128C395.4 110.428 399 113.128 402.3 116.128L296.3 184.528C272 161.128 233.6 161.128 209.3 184.528L103.3 116.128C106.6 113.028 110.2 110.328 114.1 108.128L223.5 44.9275ZM252.7 258.628C236.8 258.728 223.7 245.928 223.6 230.028C223.5 214.128 236.3 201.028 252.2 200.928C268.1 200.828 281.2 213.628 281.3 229.528C281.3 229.628 281.3 229.628 281.3 229.728C281.3 245.728 268.4 258.628 252.5 258.728L252.7 258.628ZM223.5 399.128L114 335.928C95.9 325.428 84.7 306.028 84.7 285.028V270.728L179.1 331.528C186.7 337.128 197.4 335.428 203 327.828C208.6 320.228 206.9 309.528 199.3 303.928C198.8 303.528 198.2 303.128 197.6 302.828L84.7 230.028V158.828C84.7 154.528 85.2 150.228 86.2 146.028L191.8 214.128C182.9 247.528 202.7 281.928 236.2 290.828L237.1 291.128V404.828C232.4 403.428 227.8 401.528 223.5 399.128ZM420.8 285.028C420.8 306.028 409.7 325.428 391.5 335.928L282.1 399.128C278.7 401.128 275.1 402.728 271.4 403.928V290.128C303.8 280.228 322.5 246.528 313.7 213.828L419.3 145.728C420.3 149.928 420.8 154.228 420.8 158.528V285.028Z" fill="#3BB46C"/>
</svg>
