<svg width="500" height="501" viewBox="0 0 500 501" fill="none" xmlns="http://www.w3.org/2000/svg">
<path d="M35.423 373.546C35.423 291.216 35.423 208.803 35.423 125.743C106.327 84.6043 177.787 43.1423 249.51 1.52734C321.069 42.6533 392.722 83.8333 464.601 125.144C464.601 207.687 464.601 290.193 464.601 373.031C393.478 414.298 322.069 455.73 250.586 497.206C178.958 456.039 107.366 414.893 35.423 373.546ZM250.608 480.047C317.096 441.476 383.484 402.963 449.589 364.615C449.589 287.426 449.589 210.537 449.589 133.73C382.65 95.2453 316.048 56.9533 249.482 18.6823C182.859 57.3323 116.475 95.8443 50.416 134.167C50.416 211.408 50.416 288.216 50.416 365.05C117.276 403.457 183.898 441.727 250.608 480.047Z" fill="black"/>
<path d="M250.608 480.047C183.898 441.727 117.276 403.456 50.416 365.05C50.416 288.216 50.416 211.407 50.416 134.167C116.475 95.8441 182.859 57.3331 249.482 18.6821C316.048 56.9531 382.649 95.2441 449.589 133.73C449.589 210.537 449.589 287.425 449.589 364.615C383.484 402.964 317.096 441.476 250.608 480.047ZM163.07 127.143C162.96 128.237 162.822 128.973 162.822 129.71C162.81 145.262 162.76 160.814 162.901 176.364C162.914 177.848 163.785 179.675 164.854 180.748C185.546 201.519 206.327 222.2 227.086 242.904C227.78 243.596 228.427 244.335 229.192 245.155C228.344 246.043 227.719 246.726 227.065 247.38C205.781 268.637 184.475 289.873 163.264 311.202C162.212 312.259 161.447 314.122 161.437 315.616C161.314 334.141 161.352 352.667 161.365 371.193C161.366 372.093 161.517 372.992 161.637 374.328C184.474 374.328 207.095 374.328 230.113 374.328C230.113 380.503 230.113 386.228 230.113 392.147C241.575 392.147 252.632 392.147 264.116 392.147C264.116 386.027 264.116 380.137 264.116 373.792C285.964 373.792 307.39 373.792 328.864 373.792C328.864 356.922 328.864 340.522 328.864 323.949C294.264 323.567 259.989 323.189 224.881 322.801C250.421 297.296 275.413 272.337 300.625 247.16C277.477 224.032 254.782 201.357 232.087 178.681C232.23 178.422 232.372 178.164 232.515 177.905C263.735 177.905 294.954 177.905 326.306 177.905C326.306 160.717 326.306 143.884 326.306 126.715C306.611 126.715 287.197 126.715 267.267 126.715C267.267 119.846 267.267 113.302 267.267 106.677C255.489 106.677 244.229 106.677 232.44 106.677C232.44 113.505 232.44 120.141 232.44 127.142C209.02 127.143 186.128 127.143 163.07 127.143Z" fill="#FFC80D"/>
<path d="M163.07 127.143C186.128 127.143 209.02 127.143 232.44 127.143C232.44 120.142 232.44 113.506 232.44 106.678C244.23 106.678 255.489 106.678 267.267 106.678C267.267 113.302 267.267 119.847 267.267 126.716C287.197 126.716 306.611 126.716 326.306 126.716C326.306 143.885 326.306 160.718 326.306 177.906C294.954 177.906 263.734 177.906 232.515 177.906C232.372 178.165 232.23 178.423 232.087 178.682C254.782 201.357 277.477 224.033 300.625 247.161C275.413 272.339 250.421 297.297 224.881 322.802C259.989 323.19 294.264 323.568 328.864 323.95C328.864 340.523 328.864 356.923 328.864 373.793C307.39 373.793 285.964 373.793 264.116 373.793C264.116 380.138 264.116 386.028 264.116 392.148C252.632 392.148 241.575 392.148 230.113 392.148C230.113 386.229 230.113 380.504 230.113 374.329C207.095 374.329 184.474 374.329 161.637 374.329C161.517 372.993 161.365 372.094 161.365 371.194C161.352 352.668 161.314 334.142 161.437 315.617C161.447 314.123 162.213 312.261 163.264 311.203C184.476 289.874 205.781 268.638 227.065 247.381C227.719 246.727 228.345 246.044 229.192 245.156C228.427 244.336 227.78 243.597 227.086 242.905C206.328 222.201 185.546 201.519 164.854 180.749C163.785 179.676 162.914 177.849 162.901 176.365C162.76 160.815 162.81 145.263 162.822 129.711C162.823 128.973 162.961 128.236 163.07 127.143Z" fill="black"/>
</svg>
