<svg width="500" height="501" viewBox="0 0 500 501" fill="none" xmlns="http://www.w3.org/2000/svg">
<g clip-path="url(#clip0_1_9936)">
<path d="M25.7 463.728C13.6 463.528 9.29999 456.528 14.4 445.628C19.5 434.728 27.6 426.028 37.2 419.028C45.3 413.028 53.6 414.128 61.9 418.628C75.3 425.828 85.8 436.328 94.7 448.228C100.2 455.428 97.7 461.228 88.3 462.128C77.5 462.928 35.5 464.028 25.7 463.728Z" fill="url(#paint0_linear_1_9936)"/>
<path d="M404.1 160.827C405.8 177.027 405.2 192.827 398.6 207.927C396.3 213.027 393.7 219.227 387.3 219.027C380.3 218.827 379.4 212.027 377.9 206.627C368.9 173.327 354.2 143.327 328 120.327C319.7 112.827 309.9 106.927 301.6 99.6271C295.4 94.3271 288.6 87.7272 293.3 78.5272C297.6 70.0272 306.1 69.1272 314.8 69.5272C363.2 71.9272 398.3 107.727 404.1 160.827Z" fill="url(#paint1_linear_1_9936)"/>
<path d="M451.2 94.7272C452.7 100.727 453.3 106.927 453.3 113.027C453.3 125.427 451.8 137.327 446.5 148.827C443.9 154.327 439.9 159.927 432.9 159.027C426.1 158.127 426.7 151.527 425.9 146.627C420.6 120.427 414 94.8273 392.9 76.0273C386.5 70.2273 379 65.6273 372.2 60.2273C368.6 57.2273 363.9 54.4273 364.7 48.9273C365.8 42.5273 371.1 39.7273 376.9 38.5273C394.2 34.4273 409.7 39.1273 423.4 49.6273C438.4 61.5273 446.9 77.0272 451.2 94.7272Z" fill="url(#paint2_linear_1_9936)"/>
<path opacity="0.5" d="M398.6 207.927C398.2 209.027 397.7 210.027 397.1 211.127C401.2 196.027 399.7 180.827 396.2 165.727C383.8 113.927 344.4 82.8273 295.6 86.2273C294.3 86.2273 293 86.4273 291.8 86.6273C291.2 84.0273 291.6 81.3273 293.1 78.3273C297.4 70.0273 305.9 68.9273 314.6 69.3273C363.4 71.9273 398.6 107.927 404.3 160.827C405.8 177.027 405.2 192.827 398.6 207.927Z" fill="url(#paint3_linear_1_9936)"/>
<path opacity="0.5" d="M453.4 113.128C453.4 125.528 451.9 137.428 446.6 148.928C445.3 151.528 443.8 154.228 441.7 156.128C443.2 153.828 444.3 150.828 444.9 148.028C447.7 135.628 446.6 123.728 443.8 111.528C442.5 105.528 440.6 99.6275 437.8 94.0275C429.7 77.7275 418 64.5275 400.7 56.4275C389 50.9275 376.6 48.9275 364.5 51.5275C364.5 50.9275 364.5 50.0275 364.5 49.2275C365.6 42.8275 370.9 40.0275 376.7 38.8275C394 34.7275 409.5 39.4275 423.2 49.9275C438.3 61.4275 446.9 77.0275 451.3 94.7275C452.7 100.728 453.4 106.928 453.4 113.128Z" fill="url(#paint4_linear_1_9936)"/>
<path d="M471.9 183.227C440.6 175.727 429.3 205.427 376 282.127C376 282.127 365.8 299.427 345.5 322.027C313.3 358.027 255.1 407.727 171.1 425.027C159.4 427.327 147 429.327 134 430.127C111.6 431.827 97.3 430.127 89.4 426.027C97.9 431.527 118.6 439.927 118.6 439.927C203.4 469.727 297.7 465.727 380 427.327C542.3 342.027 503.2 190.527 471.9 183.227Z" fill="url(#paint5_linear_1_9936)"/>
<path opacity="0.5" d="M380.2 427.127C298 465.527 203.7 469.727 118.7 439.927C118.7 439.927 98 431.627 89.5 426.027C164.8 458.227 279 438.627 345.1 407.927C475.1 339.727 475.8 228.627 454.7 183.627C460 181.927 465.6 181.927 472 183.427C503.2 190.527 542.3 342.027 380.2 427.127Z" fill="url(#paint6_linear_1_9936)"/>
<path opacity="0.8" d="M380.2 427.127C333.5 448.827 283.2 459.727 232.9 459.527C282.4 459.327 331.6 448.427 377.2 427.127C539.2 342.027 500.4 190.527 468.9 183.227C466.3 182.627 463.8 182.127 461.4 182.127C464.6 181.927 468 182.327 471.6 183.227C503.2 190.527 542.3 342.027 380.2 427.127Z" fill="white"/>
<path d="M351.7 271.027C351.7 288.727 335.3 315.827 297.3 351.427C246.8 398.927 171.1 424.727 171.1 424.727C159.4 427.027 147 429.027 134 429.827C111.6 431.527 97.3 429.827 89.4 425.727C89 425.527 88.3 425.127 87.9 424.827H87.7C54.2 403.327 163.8 327.027 213 294.527C285.3 256.127 334.9 243.827 346.2 256.327C349.7 260.427 351.7 265.327 351.7 271.027Z" fill="url(#paint7_linear_1_9936)"/>
<path d="M242.9 111.627C266.1 123.827 220.9 176.027 161 218.027C160.8 218.027 160.8 218.227 160.6 218.227C145.7 228.627 130.1 238.227 114.1 246.827C34.2 289.027 6.00001 251.127 18.2 233.827C18.2 233.827 18.8 232.727 20.8 230.627L21 230.427C21.2 230.227 21.2 230.227 21.4 230.027C25.2 226.227 32.9 219.627 47.4 211.927C70.8 199.527 74 194.827 74 194.827C80.8 192.527 88.5 188.827 97 183.727C146.9 153.627 207.9 101.427 238.6 109.727C240 110.327 241.4 110.927 242.9 111.627C242.7 111.427 242.7 111.427 242.9 111.627Z" fill="url(#paint8_linear_1_9936)"/>
<path d="M213.1 294.727C198.8 302.427 183.7 310.927 167.7 320.727C71.1 379.127 37 353.127 23.2 341.027C9.69999 329.227 4.99999 308.127 4.59999 306.627C-11 256.327 17.6 233.927 20.6 230.527C18.7 232.427 18 233.727 18 233.727C6.09999 251.027 34.2 289.127 113.9 246.727C129.7 238.427 145.5 228.627 160.4 218.127C160.4 218.127 160.6 217.927 160.8 217.927C167 213.627 229.7 170.427 265.3 158.227C302 145.627 324.4 179.727 325.6 181.627C342.7 208.927 350.8 240.027 351.4 271.127C351.4 265.327 349.7 260.427 346.3 256.627C335 244.027 285.4 256.327 213.1 294.727Z" fill="url(#paint9_linear_1_9936)"/>
<path opacity="0.5" d="M351.7 271.028C351.7 265.228 350 260.328 346.6 256.528C335.1 243.928 285.6 256.128 213.4 294.728C199.1 302.428 184 310.928 168 320.728C71.4 379.128 37.3 353.128 23.5 341.027C9.89997 329.227 5.19998 308.128 4.79998 306.628C1.39998 295.928 0.0999756 286.328 0.0999756 278.028C3.29998 285.228 9.09998 295.728 17.6 302.128C32.3 313.228 68.1 336.827 160.4 272.327C175.7 261.627 190.2 252.028 204.1 243.328C241 220.328 272.1 205.127 294.9 197.927C316.2 191.127 339 203.228 345 225.028C349.1 240.128 351.4 255.528 351.7 271.028Z" fill="url(#paint10_linear_1_9936)"/>
<path d="M238.7 109.927C207.8 101.427 147 153.827 97.1 183.927C88.6 189.027 80.9 192.627 74.1 195.027C65.4 198.027 57.9 199.127 51.7 199.127C50.8 199.127 50 199.127 49.1 199.127C48.9 199.127 48.9 199.127 48.7 199.127C47.8 199.127 47.2 198.927 46.6 198.927C46.4 198.927 46.2 198.927 46 198.927C45.4 198.927 44.7 198.727 44.1 198.727C43.5 198.527 42.8 198.527 42.2 198.327C41.3 198.127 40.3 197.927 39.4 197.727C38.8 197.527 38.1 197.327 37.5 197.127C36.9 196.927 36.2 196.727 35.6 196.527C35 196.327 34.5 196.127 33.9 195.627C27.3 192.427 24.1 188.627 24.1 188.627C31.8 175.027 41.4 162.027 53.1 150.427C102.3 101.227 173.3 87.3275 234.9 108.827C234.6 108.427 237.2 109.227 238.7 109.927Z" fill="url(#paint11_linear_1_9936)"/>
<path opacity="0.5" d="M238.7 109.927C207.8 101.427 147 153.827 97.1 183.927C88.6 189.027 80.9 192.627 74.1 195.027C65.4 198.027 57.9 199.127 51.7 199.127C50.8 199.127 50 199.127 49.1 199.127C48.9 199.127 48.9 199.127 48.7 199.127C47.8 199.127 47.2 198.927 46.6 198.927C46.4 198.927 46.2 198.927 46 198.927C45.4 198.927 44.7 198.727 44.1 198.727C43.5 198.527 42.8 198.527 42.2 198.327C41.3 198.127 40.3 197.927 39.4 197.727C38.8 197.527 38.1 197.327 37.5 197.127C36.9 196.927 36.2 196.727 35.6 196.527C35 196.327 34.5 196.127 33.9 195.627C27.5 192.627 24.5 189.027 24.1 188.627C26.9 188.027 29.9 187.127 33.1 186.027C40.1 183.727 47.8 180.027 56.3 174.927C102.1 147.427 157.1 100.927 190.2 99.4272C193.2 99.6272 196 99.8272 198.9 100.327C211.1 101.827 223.2 104.627 234.9 108.627C234.6 108.427 237.4 109.227 238.7 109.927Z" fill="url(#paint12_linear_1_9936)"/>
<path opacity="0.6" d="M238.7 109.927C207.8 101.427 147 153.827 97.1 183.927C88.6 189.027 80.9 192.627 74.1 195.027C65.4 198.027 57.9 199.127 51.7 199.127C50.8 199.127 50 199.127 49.1 199.127C48.9 199.127 48.9 199.127 48.7 199.127C47.8 199.127 47.2 198.927 46.6 198.927C46.4 198.927 46.2 198.927 46 198.927C45.4 198.927 44.7 198.727 44.1 198.727C43.5 198.527 42.8 198.527 42.2 198.327C41.3 198.127 40.3 197.927 39.4 197.727C38.8 197.527 38.1 197.327 37.5 197.127C36.9 196.927 36.2 196.727 35.6 196.527C35 196.327 34.5 196.127 33.9 195.627C42 198.627 54.4 200.127 71.6 194.127C78.4 191.827 86.1 188.127 94.6 183.027C143.8 153.427 203.7 102.027 234.9 108.827C234.6 108.427 237.2 109.227 238.7 109.927Z" fill="white"/>
<path opacity="0.6" d="M166.8 213.728C215.6 176.628 252.7 133.528 247.4 115.228C258.1 131.628 218.8 176.228 166.8 213.728Z" fill="white"/>
<path opacity="0.79" d="M350.8 264.027C350.8 263.827 350.8 263.827 350.8 263.627C348.7 253.627 340.8 251.227 340.8 251.227C323.7 244.227 276.6 257.627 211.4 292.327C197.1 300.027 182 308.527 166 318.327C69.4 376.727 35.3 350.727 21.5 338.627C19.8 337.127 18.3 335.627 17 333.927C18.9 336.527 21.1 338.827 23.4 340.927C37.3 352.827 71.4 379.127 167.9 320.627C183.9 311.027 199 302.327 213.3 294.627C273.8 262.427 318.4 248.627 338 252.427C339.3 252.627 341.8 253.527 344 255.627C347 259.227 348.7 263.727 348.7 269.227C348.9 286.927 332.9 314.227 295.4 350.427C260.2 384.327 212.7 407.527 187.3 418.427C212.5 408.227 261.1 385.427 297.1 351.527C335 315.727 351.5 288.827 351.5 271.127C351.7 268.527 351.4 266.127 350.8 264.027Z" fill="url(#paint13_linear_1_9936)"/>
</g>
<defs>
<linearGradient id="paint0_linear_1_9936" x1="99.74" y1="437.993" x2="-16.9736" y2="440.749" gradientUnits="userSpaceOnUse">
<stop stop-color="#4DC7F6"/>
<stop offset="0.4695" stop-color="#59F4D9"/>
<stop offset="1" stop-color="#A8F8C0"/>
</linearGradient>
<linearGradient id="paint1_linear_1_9936" x1="403.41" y1="184.229" x2="319.744" y2="90.2279" gradientUnits="userSpaceOnUse">
<stop stop-color="#96F7C6"/>
<stop offset="1" stop-color="#D2FBDF"/>
</linearGradient>
<linearGradient id="paint2_linear_1_9936" x1="456.566" y1="136.911" x2="372.9" y2="42.9097" gradientUnits="userSpaceOnUse">
<stop stop-color="#96F7C6"/>
<stop offset="1" stop-color="#D2FBDF"/>
</linearGradient>
<linearGradient id="paint3_linear_1_9936" x1="408.101" y1="178.081" x2="325.246" y2="84.9916" gradientUnits="userSpaceOnUse">
<stop stop-color="white"/>
<stop offset="0.8616" stop-color="white" stop-opacity="0"/>
</linearGradient>
<linearGradient id="paint4_linear_1_9936" x1="460.426" y1="133.472" x2="376.777" y2="39.4897" gradientUnits="userSpaceOnUse">
<stop stop-color="white"/>
<stop offset="0.8616" stop-color="white" stop-opacity="0"/>
</linearGradient>
<linearGradient id="paint5_linear_1_9936" x1="128.533" y1="490.546" x2="510.934" y2="245.456" gradientUnits="userSpaceOnUse">
<stop stop-color="#4DC7F6"/>
<stop offset="0.4695" stop-color="#59F4D9"/>
<stop offset="1" stop-color="#A8F8C0"/>
</linearGradient>
<linearGradient id="paint6_linear_1_9936" x1="514.33" y1="246.205" x2="126.762" y2="484.651" gradientUnits="userSpaceOnUse">
<stop stop-color="white"/>
<stop offset="0.8616" stop-color="white" stop-opacity="0"/>
</linearGradient>
<linearGradient id="paint7_linear_1_9936" x1="91.0298" y1="432.504" x2="348.424" y2="264.682" gradientUnits="userSpaceOnUse">
<stop stop-color="#015B7A"/>
<stop offset="0.4695" stop-color="#0173B5"/>
<stop offset="1" stop-color="#0047A3"/>
</linearGradient>
<linearGradient id="paint8_linear_1_9936" x1="26.8508" y1="263.344" x2="249.056" y2="124.558" gradientUnits="userSpaceOnUse">
<stop stop-color="#3308D4"/>
<stop offset="0.4695" stop-color="#4919DF"/>
<stop offset="1" stop-color="#420FB0"/>
</linearGradient>
<linearGradient id="paint9_linear_1_9936" x1="13.674" y1="331.513" x2="325.205" y2="185.836" gradientUnits="userSpaceOnUse">
<stop stop-color="#5975FE"/>
<stop offset="1" stop-color="#7CD5FF"/>
</linearGradient>
<linearGradient id="paint10_linear_1_9936" x1="345.168" y1="226.914" x2="14.46" y2="325.831" gradientUnits="userSpaceOnUse">
<stop stop-color="white"/>
<stop offset="0.8616" stop-color="white" stop-opacity="0"/>
</linearGradient>
<linearGradient id="paint11_linear_1_9936" x1="19.8188" y1="180.232" x2="233.905" y2="100.872" gradientUnits="userSpaceOnUse">
<stop stop-color="#E6A9FF"/>
<stop offset="1" stop-color="#8556FC"/>
</linearGradient>
<linearGradient id="paint12_linear_1_9936" x1="41.3514" y1="204.245" x2="213.727" y2="98.6782" gradientUnits="userSpaceOnUse">
<stop stop-color="white"/>
<stop offset="0.8616" stop-color="white" stop-opacity="0"/>
</linearGradient>
<linearGradient id="paint13_linear_1_9936" x1="152.414" y1="349.236" x2="487.199" y2="150.285" gradientUnits="userSpaceOnUse">
<stop stop-color="white"/>
<stop offset="0.8616" stop-color="white" stop-opacity="0"/>
</linearGradient>
<clipPath id="clip0_1_9936">
<rect width="500" height="500" fill="white" transform="translate(0 0.527344)"/>
</clipPath>
</defs>
</svg>
