<svg width="500" height="501" viewBox="0 0 500 501" fill="none" xmlns="http://www.w3.org/2000/svg">
<path d="M494.744 76.6393C490.436 94.1533 486.54 109.994 482.548 126.226C480.401 126.458 478.349 126.874 476.299 126.868C465.44 126.834 457.222 131.781 452.987 141.434C447.765 153.337 443.127 165.595 439.466 178.06C434.168 196.099 429.951 214.457 425.347 232.697C424.929 234.354 425.05 236.147 424.865 238.617C428.49 236.628 431.389 235.037 434.342 233.416C451.575 233.416 468.853 233.416 487.296 233.416C485.306 247.644 480.982 260.73 477.555 274.628C456.986 274.628 436.68 274.628 415.829 274.628C413.832 282.709 412.155 290.352 410.044 297.874C404.063 319.189 398.272 340.57 391.696 361.704C386.609 378.054 377.963 392.69 367.898 406.568C342.641 441.393 294.346 435.352 273.462 407.875C263.78 395.137 256.638 381.165 251.263 366.249C238.995 332.208 230.795 297.024 222.196 261.946C213.816 227.76 205.18 193.636 196.414 159.547C194.685 152.823 192.102 146.28 189.456 139.841C187.355 134.726 184.376 130.086 177.909 128.796C171.546 130.247 169.058 135.748 167.215 141.076C162.659 154.248 158.037 167.461 154.651 180.961C144.61 220.994 135.368 261.228 125.392 301.278C119.016 326.874 113.199 352.778 101.451 376.589C95.851 387.94 88.848 398.777 81.238 408.914C71.072 422.455 56.912 429.83 39.757 430.347C28.555 430.685 17.334 430.411 5 430.411C7.411 413.685 12.652 397.981 16.331 381.406C18.307 381.138 20.319 380.716 22.347 380.614C32.966 380.076 41.177 375.4 45.649 365.724C49.834 356.671 53.902 347.431 56.669 337.882C62.915 316.326 68.332 294.53 74.048 272.822C74.263 272.004 74.075 271.08 74.075 269.078C70.446 270.982 67.437 272.56 64.014 274.356C47.239 274.356 29.973 274.356 11.266 274.356C14.663 260.303 17.891 246.951 21.218 233.188C41.955 233.188 61.97 233.188 82.88 233.188C84.957 225.027 86.763 217.146 88.976 209.38C95.539 186.347 101.867 163.236 109.066 140.401C113.564 126.134 121.513 113.482 130.314 101.342C156.861 64.7243 205.336 71.5553 226.946 101.343C239.276 118.34 247.577 137.205 253.023 157.172C263.878 196.978 273.806 237.036 284.162 276.979C290.862 302.82 297.516 328.674 304.491 354.441C305.982 359.95 308.277 365.385 311.072 370.366C316.637 380.286 324.409 380.618 329.313 370.594C334.078 360.854 337.976 350.477 340.66 339.972C350.199 302.64 358.772 265.063 368.269 227.72C374.995 201.273 382.235 174.94 389.985 148.775C395.019 131.777 403.695 116.408 414.325 102.164C427.241 84.8553 444.212 76.0233 465.985 76.6003C475.067 76.8403 484.161 76.6393 494.744 76.6393Z" fill="black"/>
</svg>
