<svg width="500" height="287" viewBox="0 0 500 287" fill="none" xmlns="http://www.w3.org/2000/svg">
<g clip-path="url(#clip0_1_9956)">
<path d="M294.592 160.694L250.13 247.017L192.408 137.553V137.293L180.707 115.972L167.967 137.553L250.13 286.539L332.293 137.553L319.293 115.972L294.592 160.694Z" fill="#AA0E20"/>
<path d="M250.13 0.527344L239.99 16.648L193.448 94.6511L205.148 117.012L250.13 45.5091L294.072 117.012L306.032 93.6111L267.031 28.0884L250.13 0.527344Z" fill="#AA0E20"/>
<path d="M250.13 42.9092C112.064 42.9092 0 145.873 0 146.133C0 146.393 112.064 249.357 250.13 249.357C388.195 249.357 500 146.133 500 146.133C500 146.133 387.935 42.9092 250.13 42.9092ZM250.13 226.217C142.486 226.217 21.0608 146.133 21.0608 146.133C21.0608 146.133 142.486 65.7901 250.13 65.7901C357.774 65.7901 479.199 144.053 479.199 146.133C479.199 148.213 357.514 226.217 250.13 226.217Z" fill="#AA0E20"/>
</g>
<defs>
<clipPath id="clip0_1_9956">
<rect width="500" height="286.011" fill="white" transform="translate(0 0.527344)"/>
</clipPath>
</defs>
</svg>
