<svg width="500" height="501" viewBox="0 0 500 501" fill="none" xmlns="http://www.w3.org/2000/svg">
<path d="M252.233 8.52734C384.594 9.21734 493.644 116.605 493.256 251.666C492.87 385.744 384.288 493.414 251.58 493.201C119.176 492.989 10.1551 385.209 10.5401 250.186C10.9221 115.813 119.83 8.87034 252.233 8.52734ZM352.615 277.125C395.998 278.055 436.684 242.101 436.865 192.96C437.035 146.722 398.678 108.378 352.41 108.836C302.456 109.331 268.655 150.442 268.575 192.782C268.485 239.914 307.855 278.005 352.615 277.125ZM150.741 277.125C195.6 278.214 235.061 240.271 235.223 193.232C235.368 151.059 201.957 109.578 151.847 108.848C105.624 108.175 66.9171 146.528 66.9251 192.562C66.9341 242.189 107.738 277.862 150.741 277.125ZM335.66 369.516C336.798 326.304 301.091 285.116 251.98 285.028C202.133 284.938 167.784 326.792 167.928 369.285C168.082 414.738 205.59 453.12 251.364 453.399C297.719 453.681 336.304 414.963 335.66 369.516ZM252.25 112.15C269.462 112.013 283.422 97.9313 283.441 80.6843C283.461 63.2433 268.864 48.7213 251.542 48.9493C234.477 49.1743 220.371 63.4823 220.352 80.5873C220.332 98.1743 234.599 112.291 252.25 112.15ZM104.937 367.669C122.18 367.688 136.327 353.561 136.215 336.433C136.104 319.327 121.865 305.461 104.529 305.576C87.6831 305.687 73.7701 319.558 73.5911 336.418C73.4111 353.417 87.6871 367.649 104.937 367.669ZM398.847 367.667C416.094 367.614 430.447 353.276 430.203 336.348C429.955 319.202 415.678 305.438 398.293 305.586C381.408 305.73 367.574 319.625 367.511 336.504C367.447 353.714 381.532 367.721 398.847 367.667ZM432.817 256.984C452.206 254.152 459.099 257.388 467.191 272.752C474.137 249.286 465.448 189.411 451.51 167.016C459.435 200.446 452.885 230.027 432.817 256.984ZM50.2051 170.714C36.4171 203.754 31.8531 237.735 35.9091 273.162C42.9101 257.47 54.6511 252.579 71.5971 257.577C51.0741 231.022 45.1271 202.2 50.2051 170.714ZM337.538 90.9903C340.924 90.9903 342.77 91.0913 344.602 90.9753C372.691 89.1883 397.595 97.0963 419.145 115.333C419.899 115.971 421.034 116.158 421.992 116.556C401.218 88.8143 375.255 67.9843 343.741 53.6853C351.265 67.2993 350.422 79.4273 337.538 90.9903ZM160.004 54.1293C137.422 60.2933 85.6171 102.336 80.8441 118.698C105.314 96.4463 133.824 87.7583 166.737 91.8143C153.528 78.1603 152.469 71.8093 160.004 54.1293ZM286.377 271.614C268.504 255.648 257.44 235.999 251.98 211.368C250.435 216.764 249.517 220.397 248.344 223.946C247.082 227.765 245.751 231.58 244.132 235.257C242.621 238.69 240.84 242.028 238.91 245.247C236.979 248.467 234.85 251.59 232.564 254.569C230.114 257.762 227.449 260.799 224.749 263.788C222.441 266.344 219.951 268.735 217.541 271.199C229.415 269.1 240.611 266.858 252.259 266.813C263.837 266.77 274.918 269.494 286.377 271.614ZM155.815 406.272C153.854 413.331 150.874 419.089 145.174 423.343C139.296 427.73 132.39 427.244 123.956 427.527C152.44 447.648 181.956 460.565 214.938 465.487C187.496 453.482 167.865 433.918 155.815 406.272ZM348.517 406.183C343.233 414.873 338.961 423.579 333.108 431.045C327.364 438.372 320.554 445.135 313.213 450.863C305.905 456.565 297.354 460.675 289.348 465.483C322.142 460.229 351.768 447.653 379.68 427.599C359.135 426.844 353.248 422.682 348.517 406.183ZM154.574 334.608C159.326 326.2 163.226 317.937 168.387 310.556C173.455 303.308 179.804 296.956 186.355 289.32C167.635 295.646 149.47 296.919 130.515 293.34C149.07 311.132 152.03 316.183 154.574 334.608ZM317.596 290.297C331.835 302.934 341.979 318.116 348.935 335.642C349.906 327.045 351.961 319.068 356.187 311.726C360.319 304.549 366.326 299.094 372.79 293.864C353.978 297.648 335.849 295.332 317.596 290.297ZM274.982 125.657C259.413 132.364 244.18 132.14 228.642 125.532C240.081 139.699 247.439 155.474 251.902 174.748C256.505 155.526 263.692 139.772 274.982 125.657ZM179.431 45.0033C192.732 47.4683 200.513 53.7753 203.645 66.9433C209.393 51.2943 218.743 40.4643 232.832 33.8393C214.867 34.9773 197.706 38.4193 179.431 45.0033ZM322.643 44.8293C305.948 38.6173 288.953 34.8213 271.305 33.4043C277.246 38.0723 283.547 41.8983 288.344 47.1093C293.083 52.2563 296.301 58.8033 300.379 65.0303C303.613 53.5563 311.296 47.3043 322.643 44.8293ZM74.2631 376.084C84.4461 390.855 95.6261 404.443 110.066 415.531C105.133 404.365 107.828 394.633 116.321 384.655C100.039 387.786 86.6801 384.307 74.2631 376.084ZM429.487 375.992C417.102 384.798 403.478 387.289 387.129 384.859C396.558 394.564 398.263 404.514 393.704 415.671C408.107 404.336 419.482 390.853 429.487 375.992ZM39.2011 292.5C39.7751 305.95 49.3911 334.95 55.8281 342.526C54.5171 328.186 58.9081 315.928 67.5991 303.8C55.2761 305.312 46.0611 302.272 39.2011 292.5ZM448.785 342.245C456.7 326.38 462.363 309.988 465.323 293.261C461.052 296.342 457.133 300.281 452.395 302.269C447.798 304.199 442.361 304.126 436.755 305.018C445.316 316.168 448.992 328.493 448.785 342.245ZM179.368 82.5873C188.777 79.8843 192.551 75.1853 191.422 68.0033C190.509 62.1943 185.639 58.1473 179.542 58.1313C173.328 58.1143 168.126 62.5863 167.264 68.6853C166.375 74.9723 170.507 79.8233 179.368 82.5873ZM336.614 70.2303C336.717 63.6773 330.966 58.0813 324.183 58.1313C317.451 58.1823 312.438 63.0293 312.244 69.6743C312.045 76.5083 317.331 82.2443 324.036 82.4703C330.33 82.6823 336.513 76.6653 336.614 70.2303ZM47.6951 279.269C50.1541 289.067 54.1831 292.573 61.7261 291.778C67.7121 291.147 71.8971 286.6 72.1231 280.481C72.3621 274.032 68.4281 269.079 62.1101 267.873C55.5781 266.627 50.8881 270.236 47.6951 279.269ZM456.003 279.628C455.999 273.355 449.705 267.242 443.385 267.373C437.158 267.502 431.799 272.998 431.671 279.386C431.529 286.496 436.526 291.68 443.586 291.745C450.387 291.807 456.008 286.322 456.003 279.628ZM142.877 403.672C142.745 397.402 137.871 392.679 131.492 392.639C124.752 392.596 119.79 397.596 119.937 404.281C120.069 410.306 125.297 415.531 131.27 415.607C137.476 415.686 143.01 409.997 142.877 403.672ZM383.873 403.736C383.764 397.395 379.006 392.707 372.603 392.63C365.868 392.549 360.779 397.592 360.944 404.184C361.095 410.204 366.345 415.509 372.246 415.605C378.451 415.706 383.982 410.059 383.873 403.736ZM302.055 81.8673C301.729 91.9303 297.936 100.575 293.254 109.028C302.988 104.151 312.205 99.5333 322.445 94.4033C313.249 93.4273 307.356 88.4083 302.055 81.8673ZM202.127 80.6323C196.717 88.5123 190.464 93.1653 181.776 94.6363C191.62 99.5063 200.911 104.102 211.148 109.165C205.191 100.373 202.478 91.5583 202.127 80.6323ZM149.149 360.579C143.352 366.775 137.194 373.356 130.773 380.218C139.53 379.971 145.744 384.671 151.145 390.363C150.456 380.086 149.784 370.055 149.149 360.579ZM352.516 390.877C357.632 383.857 364.774 380.627 372.475 379.813C366.133 373.112 359.982 366.611 354.41 360.724C353.824 370.052 353.186 380.214 352.516 390.877ZM421.244 269.702C415.971 273.483 412.009 276.501 407.864 279.243C403.919 281.852 399.783 284.173 395.975 286.472C404.929 288.311 413.393 290.049 422.36 291.891C419.002 285.304 418.322 278.169 421.244 269.702ZM81.3861 291.763C90.5991 289.931 99.1001 288.24 107.935 286.482C103.945 284.15 99.7611 281.92 95.8081 279.336C91.6771 276.635 87.7681 273.594 82.4501 269.754C85.4391 278.264 84.8611 285.225 81.3861 291.763Z" fill="black"/>
</svg>
