<svg width="500" height="501" viewBox="0 0 500 501" fill="none" xmlns="http://www.w3.org/2000/svg">
<path d="M250 494.041C384.489 494.041 493.514 385.016 493.514 250.527C493.514 116.038 384.489 7.01318 250 7.01318C115.511 7.01318 6.48584 116.038 6.48584 250.527C6.48584 385.016 115.511 494.041 250 494.041Z" fill="#5B6DEE"/>
<path d="M208.912 235.622C200.421 235.574 191.944 236.304 183.587 237.801C190.466 174.176 243.491 125.999 306.62 126.004C345.273 126.004 371.757 144.93 371.757 184.116C371.757 223.302 339.969 242.228 293.589 242.228C259.356 242.226 243.15 235.622 208.912 235.622ZM206.411 258.829C160.034 258.829 128.243 277.754 128.243 316.941C128.243 356.127 154.728 375.053 193.381 375.053C256.517 375.053 309.537 326.881 316.414 263.256C308.056 264.753 299.579 265.483 291.088 265.435C256.85 265.433 240.644 258.829 206.411 258.829Z" fill="white"/>
</svg>
