<svg width="500" height="501" viewBox="0 0 500 501" fill="none" xmlns="http://www.w3.org/2000/svg">
<g clip-path="url(#clip0_1_9965)">
<path d="M120.8 156.427C117.3 152.427 113 150.427 107.9 150.427H3.10039C2.20039 150.427 1.40039 150.127 0.800391 149.527C0.200391 148.927 -0.0996094 148.327 -0.0996094 147.627V77.1271C-0.0996094 76.4271 0.200391 75.8271 0.800391 75.2271C1.40039 74.6271 2.10039 74.3271 3.10039 74.3271H113.8C141.7 74.3271 165.8 85.7271 186.1 108.527L213 141.327L160.6 205.127L120.8 156.427ZM314.2 108.127C334.5 85.5271 358.7 74.3271 386.8 74.3271H497.1C498 74.3271 498.7 74.5271 499.2 75.0271C499.7 75.5271 499.9 76.2271 499.9 77.1271V147.627C499.9 148.327 499.7 149.027 499.2 149.527C498.7 150.127 498 150.427 497.1 150.427H392.5C387.4 150.427 383.1 152.427 379.6 156.427L302.4 250.227L379.9 344.727C383.4 348.527 387.6 350.327 392.5 350.327H497.2C498.1 350.327 498.8 350.627 499.3 351.227C499.8 351.827 500 352.627 500 353.527V424.027C500 424.727 499.8 425.427 499.3 425.927C498.8 426.527 498.1 426.827 497.2 426.827H386.9C358.7 426.827 334.6 415.427 314.6 392.627L250.4 314.427L186.1 392.527C165.8 415.327 141.6 426.727 113.5 426.727H3.10039C2.20039 426.727 1.50039 426.427 1.00039 425.827C0.500391 425.227 0.300391 424.527 0.300391 423.527V353.027C0.300391 352.327 0.500391 351.727 1.00039 351.127C1.50039 350.527 2.20039 350.227 3.10039 350.227H107.8C112.7 350.227 117 348.227 120.7 344.227L196.5 251.927L314.2 108.127Z" fill="#00D1FF"/>
</g>
<defs>
<clipPath id="clip0_1_9965">
<rect width="500" height="500" fill="white" transform="translate(0 0.527344)"/>
</clipPath>
</defs>
</svg>
