<svg width="500" height="501" viewBox="0 0 500 501" fill="none" xmlns="http://www.w3.org/2000/svg">
<g clip-path="url(#clip0_1_9968)">
<path d="M250 500.527C388.1 500.527 500 388.627 500 250.527C500 112.427 388.1 0.527344 250 0.527344C111.9 0.527344 0 112.427 0 250.527C0 388.627 111.9 500.527 250 500.527Z" fill="url(#paint0_linear_1_9968)"/>
<mask id="mask0_1_9968" style="mask-type:luminance" maskUnits="userSpaceOnUse" x="100" y="108" width="327" height="267">
<path d="M426.6 108.427H100.9V374.127H426.6V108.427Z" fill="white"/>
</mask>
<g mask="url(#mask0_1_9968)">
<path d="M384.5 108.427H298.1C276.1 108.427 258.2 126.227 258.2 148.327V334.327C258.2 356.327 276.1 374.227 298.1 374.227H384.5C406.5 374.227 424.4 356.427 424.4 334.327V148.327C424.4 126.227 406.6 108.427 384.5 108.427Z" fill="#FFFEFF"/>
</g>
<path d="M163 347.527C144.9 347.527 129.6 344.727 117.2 339.027C104.9 333.327 95.6004 325.627 89.2004 315.827C83.0004 305.927 79.9004 294.527 79.9004 281.727H127.8C127.8 286.327 129 290.627 131.5 294.527C134.2 298.227 138.1 301.227 143.2 303.327C148.4 305.427 154.9 306.527 162.9 306.527C169.8 306.527 175.7 305.627 180.5 303.827C185.5 302.027 189.2 299.527 191.7 296.327C194.4 293.127 195.7 289.327 195.7 284.827C195.7 279.127 193.3 274.827 188.5 271.727C183.7 268.527 175.6 266.527 164.3 265.627L151.8 264.527C131.7 262.727 115.7 256.427 103.9 245.627C92.0004 234.927 86.1004 220.527 86.1004 202.627C86.1004 189.827 89.0004 178.927 94.9004 169.827C100.9 160.727 109.4 153.827 120.2 149.027C131 144.227 143.8 141.827 158.6 141.827C174.6 141.827 188.1 144.527 199.1 149.827C210.3 155.127 218.8 162.727 224.7 172.427C230.6 182.027 233.5 193.227 233.5 206.027H185.6C185.6 201.727 184.5 197.827 182.4 194.327C180.3 190.727 177.2 188.027 173.1 186.027C169.2 183.927 164.4 182.827 158.7 182.827C153.4 182.827 148.8 183.727 145.1 185.527C141.5 187.127 138.8 189.427 136.8 192.427C135 195.427 134.1 198.827 134.1 202.527C134.1 207.527 135.8 211.727 139.2 215.327C142.6 218.927 148.4 221.027 156.8 221.727L169.3 222.827C183.9 224.027 196.7 227.227 207.9 232.427C219.1 237.427 227.9 244.227 234.3 252.927C240.7 261.627 243.9 272.327 243.9 284.927C243.9 297.527 240.6 308.527 234 317.927C227.6 327.327 218.4 334.627 206.3 339.727C194.3 344.927 179.9 347.527 163 347.527Z" fill="#FFFEFF"/>
</g>
<defs>
<linearGradient id="paint0_linear_1_9968" x1="446.002" y1="-66.3694" x2="104.301" y2="486.096" gradientUnits="userSpaceOnUse">
<stop stop-color="#34B0DF"/>
<stop offset="1" stop-color="#1E88D3"/>
</linearGradient>
<clipPath id="clip0_1_9968">
<rect width="500" height="500" fill="white" transform="translate(0 0.527344)"/>
</clipPath>
</defs>
</svg>
