<svg width="500" height="501" viewBox="0 0 500 501" fill="none" xmlns="http://www.w3.org/2000/svg">
<g clip-path="url(#clip0_1_9977)">
<path d="M250 500.527C388.1 500.527 500 388.627 500 250.527C500 112.427 388.1 0.527344 250 0.527344C111.9 0.527344 0 112.427 0 250.527C0 388.627 111.9 500.527 250 500.527Z" fill="url(#paint0_linear_1_9977)"/>
<path opacity="0.8" d="M279.2 87.2276L284.7 89.0276L367.1 114.728C368.1 115.028 368.7 116.028 368.4 117.028L362.3 139.328C362.1 140.028 361.5 140.628 360.7 140.728L359.7 140.828C359 140.928 358.4 141.428 358.1 142.128L322 253.328C321.9 253.628 321.9 253.928 321.9 254.228C322.5 259.128 323.5 271.328 322.7 284.928C321.7 302.428 305.5 311.628 295.7 316.528C285.9 321.428 279 322.328 272.2 323.328C264.5 324.428 255.5 329.128 249.2 333.528C229.8 344.328 188.9 367.028 181 370.928C173.2 374.828 159.4 375.128 153.6 374.828C142 375.328 116.6 370.328 107.7 346.628C98.7996 323.028 113.1 303.228 121.4 296.228C121.5 296.128 121.6 296.128 121.6 296.028C149.6 279.328 208.6 244.228 221.5 236.928C234.5 229.328 239.1 220.328 239.8 216.828L273.5 112.728C273.8 111.928 273.5 111.128 272.8 110.628L271.1 109.328C270.4 108.828 270.2 107.928 270.4 107.128L276.7 88.4276C277.1 87.4276 278.2 86.9276 279.2 87.2276Z" fill="url(#paint1_linear_1_9977)"/>
<path d="M274.2 97.3272L279.9 98.4272L364.8 114.027C365.8 114.227 366.5 115.127 366.4 116.227L363 139.027C362.9 139.827 362.3 140.427 361.6 140.627L360.6 140.927C359.9 141.127 359.4 141.727 359.2 142.427L337 257.027C336.9 257.327 337 257.627 337 257.927C338.2 262.727 340.7 274.727 341.5 288.227C342.6 305.727 327.7 316.827 318.5 322.827C309.4 328.827 302.7 330.627 296 332.427C288.5 334.427 280.2 340.227 274.4 345.327C256.4 358.427 218.6 385.927 211.3 390.727C204 395.527 190.4 397.527 184.5 397.927C173.1 399.827 147.2 397.927 135.5 375.527C123.8 353.127 135.6 331.827 143 323.827C143.1 323.727 143.1 323.727 143.2 323.627C169 303.527 223.3 261.627 235.2 252.727C247.2 243.827 250.6 234.427 250.8 230.727L271.6 123.327C271.8 122.527 271.4 121.727 270.7 121.327L268.9 120.327C268.2 119.927 267.8 119.127 268 118.227L272 98.8272C272.2 97.8272 273.2 97.1272 274.2 97.3272Z" fill="url(#paint2_linear_1_9977)"/>
</g>
<defs>
<linearGradient id="paint0_linear_1_9977" x1="96.1408" y1="33.0023" x2="411.358" y2="478.655" gradientUnits="userSpaceOnUse">
<stop stop-color="#EAE4D7"/>
<stop offset="1" stop-color="#DB16EB"/>
</linearGradient>
<linearGradient id="paint1_linear_1_9977" x1="218.291" y1="94.9456" x2="255.903" y2="361.751" gradientUnits="userSpaceOnUse">
<stop stop-color="white"/>
<stop offset="1" stop-color="white" stop-opacity="0.56"/>
</linearGradient>
<linearGradient id="paint2_linear_1_9977" x1="214.699" y1="112.404" x2="284.437" y2="372.665" gradientUnits="userSpaceOnUse">
<stop stop-color="white"/>
<stop offset="1" stop-color="white" stop-opacity="0.8"/>
</linearGradient>
<clipPath id="clip0_1_9977">
<rect width="500" height="500" fill="white" transform="translate(0 0.527344)"/>
</clipPath>
</defs>
</svg>
