<svg width="500" height="501" viewBox="0 0 500 501" fill="none" xmlns="http://www.w3.org/2000/svg">
<path d="M313.6 29.2273L376.9 53.6273L430.4 177.227L393.5 372.427L231.4 476.527L149 444.427L0 304.427L35.2 106.227L165 24.5273L313.6 29.2273ZM195 167.227L166.2 229.827L213.8 261.927L265.1 243.227L263 182.427L195 167.227Z" fill="#190232"/>
<path d="M35.2002 106.227L82.8002 134.927L134.1 106.327L208.4 42.6274L165 24.6274L35.2002 106.227Z" fill="#2B2063"/>
<path d="M380 57.5271L500 209.427L460.8 416.627L231.4 476.527L52.7002 316.927L82.9002 134.827L216.9 50.5271L223.3 48.8271L377.3 53.7271L380.4 57.6271H380V57.5271ZM476.3 215.527L365.7 75.4272L225.6 71.0271L103.1 148.027L76.5002 308.327L237.3 452.127L441.5 398.827L476.3 215.527ZM258.9 215.227L237.8 260.827L273.1 284.727L311.6 270.827L310.3 226.727L258.9 215.227ZM214 260.127L246.7 189.527L331.8 208.727L334 285.727L269.8 309.127L209.9 268.627L214 260.127Z" fill="#3C17B8"/>
<path d="M371.3 64.5274L488.1 212.527L451.2 407.727L234.4 464.427L64.5996 312.627L92.9996 141.527L222.7 59.9274C222.7 59.8274 371.3 64.5274 371.3 64.5274ZM252.7 202.527L223.8 264.927L271.4 297.027L322.7 278.327L320.7 217.727L252.7 202.527Z" fill="#AA5EFF"/>
<path fill-rule="evenodd" clip-rule="evenodd" d="M223.6 264.827L271.8 308.527L323.6 277.927L322.6 277.727V278.327L271.5 297.027L224 264.927L223.6 264.827Z" fill="#EF9BC8"/>
<path fill-rule="evenodd" clip-rule="evenodd" d="M180.8 86.2271L242.9 72.5271L359.9 84.5271L476.3 216.027L472.9 293.127L488.1 212.527L371.3 64.5271L222.7 59.8271L180.8 86.2271Z" fill="#EF9BC8"/>
<path fill-rule="evenodd" clip-rule="evenodd" d="M128.3 160.427C132.7 165.427 138.3 169.227 144.7 171.227C157.5 175.727 171.1 170.927 172.7 165.627C173.7 162.327 180.3 148.727 165.1 143.527C155 140.027 128 145.727 126.6 151.027C125.2 156.327 126.6 157.427 128.5 160.427H128.3Z" fill="#190232"/>
<path fill-rule="evenodd" clip-rule="evenodd" d="M128.3 163.927C132.7 168.927 138.4 172.727 144.7 174.727C157.9 179.227 171.1 174.727 172.7 169.127C173.7 165.827 180.3 152.227 165.1 147.027C155 143.527 128 149.227 126.6 154.427C125.2 159.627 126.6 160.827 128.5 163.827L128.3 163.927Z" fill="#EF9BC8"/>
<path fill-rule="evenodd" clip-rule="evenodd" d="M127.6 162.227C132 167.227 137.7 171.027 144 173.027C157.2 177.527 170.4 172.727 172 167.427C173 164.127 179.6 150.527 164.4 145.327C154.3 141.827 127.3 147.527 125.9 152.827C124.6 158.127 125.9 159.227 127.8 162.227H127.6Z" fill="#3C17B8"/>
<path fill-rule="evenodd" clip-rule="evenodd" d="M394.5 253.727C399.1 259.027 405 262.927 411.7 265.027C425.6 269.727 439.5 265.027 441.1 259.227C442.2 255.527 449.1 241.527 433.1 236.327C422.5 232.627 394.2 238.727 392.4 244.227C390.6 249.727 392.4 250.627 394.5 254.127V253.727Z" fill="#190232"/>
<path fill-rule="evenodd" clip-rule="evenodd" d="M394.9 257.327C399.5 262.627 405.5 266.527 412.2 268.627C426.1 273.327 440 268.627 441.6 262.727C442.6 259.327 449.6 245.027 433.6 239.527C423 235.827 394.6 241.827 392.9 247.427C391.2 253.027 392.9 253.927 394.9 257.327Z" fill="#EF9BC8"/>
<path fill-rule="evenodd" clip-rule="evenodd" d="M394.1 255.527C398.7 260.827 404.7 264.827 411.4 266.927C425.2 271.627 439.1 266.627 440.8 261.027C441.9 257.527 448.8 243.327 432.8 237.827C422.1 234.127 393.8 240.127 392.1 245.627C390.4 251.127 392 252.027 394.1 255.527Z" fill="#3C17B8"/>
<path fill-rule="evenodd" clip-rule="evenodd" d="M287.3 433.627C278.2 438.127 268.3 440.327 258.2 440.027C236.8 440.027 219.7 428.427 219.7 421.127C219.7 416.527 216.6 396.827 241.3 396.827C257.8 396.827 294.7 415.427 294.6 422.527C294.5 429.627 291.9 430.327 287.3 433.427V433.627Z" fill="#190232"/>
<path fill-rule="evenodd" clip-rule="evenodd" d="M285.1 437.827C276.1 442.327 266.1 444.527 256 444.227C234.6 444.227 217.5 432.627 217.5 425.327C217.5 420.827 214.4 401.027 239.1 401.027C255.6 401.027 292.5 419.527 292.4 426.727C292.3 433.827 289.7 434.527 285.1 437.627V437.827Z" fill="#EF9BC8"/>
<path fill-rule="evenodd" clip-rule="evenodd" d="M287.1 436.127C278 440.527 268 442.727 257.9 442.527C236.5 442.527 219.4 430.927 219.4 423.627C219.4 419.027 216.3 399.327 241 399.327C257.6 399.327 294.4 417.827 294.4 425.027C294.3 432.127 291.6 432.827 287.1 436.027V436.127Z" fill="#3C17B8"/>
<path fill-rule="evenodd" clip-rule="evenodd" d="M274.4 364.527C270.2 367.827 265.3 370.227 260.2 371.627C249.7 374.627 241.4 371.627 241.5 367.827C240.4 360.827 245.1 354.327 252 353.127C260 350.927 278 354.827 277.7 358.327C277.3 361.827 276.4 362.527 274.2 364.727L274.4 364.527Z" fill="#190232"/>
<path fill-rule="evenodd" clip-rule="evenodd" d="M273.3 367.127C269.1 370.427 264.2 372.827 259.1 374.227C248.6 377.227 240.3 374.227 240.3 370.427C239.2 363.427 243.9 356.927 250.9 355.727C258.9 353.427 276.9 357.427 276.6 360.927C276.2 364.427 275.3 365.127 273.1 367.327L273.3 367.127Z" fill="#EF9BC8"/>
<path fill-rule="evenodd" clip-rule="evenodd" d="M274.3 366.027C270.1 369.327 265.2 371.727 260.1 373.127C249.7 376.127 241.3 372.727 241.4 369.227C240.3 362.227 245 355.727 251.9 354.527C259.9 352.327 277.9 356.227 277.6 359.827C277.2 363.327 276.3 364.027 274.1 366.227L274.3 366.027Z" fill="#3C17B8"/>
<path fill-rule="evenodd" clip-rule="evenodd" d="M330.4 392.127C326.5 394.627 322.1 396.227 317.6 396.727C308.9 397.927 303.3 393.127 304.1 389.627C304.5 383.227 309.2 377.927 315.6 376.827C322 376.027 334.8 383.227 334.3 386.627C333.9 389.027 332.3 391.127 330.1 392.327L330.4 392.127Z" fill="#190232"/>
<path fill-rule="evenodd" clip-rule="evenodd" d="M329 394.327C325.1 396.827 320.7 398.427 316.2 398.927C307.5 400.127 301.9 395.327 302.7 391.827C303 385.427 307.8 380.027 314.1 379.027C320.5 378.227 333.7 385.427 332.8 388.827C332.3 391.227 330.8 393.327 328.6 394.427L329 394.327Z" fill="#EF9BC8"/>
<path fill-rule="evenodd" clip-rule="evenodd" d="M330 393.327C326.2 395.827 322 397.427 317.5 398.027C308.8 399.127 303.1 394.327 304 390.827C304.3 384.427 309.1 379.027 315.4 378.027C321.8 377.127 334.6 384.427 334.1 387.827C333.6 391.027 332.2 391.627 330 393.327Z" fill="#3C17B8"/>
<path d="M467.5 321.228C457.6 331.328 454.7 340.028 439.5 347.628C429.4 352.828 417.7 354.428 406.6 351.928L386.1 359.328C386.1 359.328 388.6 358.428 426.5 361.428C434.9 362.028 452.2 360.828 459 362.928C461.6 363.728 457 374.428 458.6 373.828C464.1 371.628 463.7 361.728 465 357.628C467.1 351.128 467.9 344.428 467.5 337.628V321.228Z" fill="#3C17B8"/>
<path fill-rule="evenodd" clip-rule="evenodd" d="M451.9 381.427C453.5 376.227 454.7 371.027 455.5 365.627L384.5 363.027L450.1 370.327L451.9 381.427Z" fill="#EF9BC8"/>
<path d="M90.6004 147.827C86.9004 154.727 88.4004 172.227 108.3 184.827C129.7 198.527 163.8 199.527 171 198.827L199.8 211.327C199.8 211.327 196.3 209.827 132.9 213.027C118.8 213.627 91.9004 211.027 79.1004 214.227C74.4004 215.427 75.3004 232.527 73.1004 231.427C65.6004 227.627 72.2004 212.227 72.2004 205.727C73.7004 188.127 76.3004 170.627 80.2004 153.327L90.5004 148.027L90.6004 147.827Z" fill="#3C17B8"/>
<path fill-rule="evenodd" clip-rule="evenodd" d="M79.5 243.927C79.5 243.927 82.1 218.927 83.6 218.727C85.1 218.527 200.4 217.427 200.4 217.427L89 226.327L79.5 243.927Z" fill="#EF9BC8"/>
</svg>
