<svg width="500" height="501" viewBox="0 0 500 501" fill="none" xmlns="http://www.w3.org/2000/svg">
<g clip-path="url(#clip0_1_10007)">
<path d="M250 0.527344C388 0.527344 500 112.427 500 250.527C500 388.627 388 500.527 250 500.527C112 500.527 0 388.527 0 250.527C0 112.527 111.9 0.527344 250 0.527344Z" fill="black"/>
<path fill-rule="evenodd" clip-rule="evenodd" d="M115.6 226.627H347C349.9 226.627 352.6 227.727 354.6 229.827L391.2 266.627C398 273.427 393.2 285.027 383.6 285.027H152.2C149.3 285.027 146.6 283.927 144.6 281.827L108 245.027C101.2 238.327 106 226.627 115.6 226.627ZM107.9 177.827L144.5 141.027C146.6 138.927 149.3 137.827 152.1 137.827H383.4C393 137.827 397.9 149.427 391 156.227L354.5 193.027C352.5 195.127 349.7 196.227 346.9 196.227H115.6C106 196.227 101.2 184.627 107.9 177.827ZM391.1 334.027L354.5 370.927C352.5 372.927 349.7 374.127 346.9 374.127H115.6C106 374.127 101.2 362.527 107.9 355.727L144.5 318.827C146.6 316.827 149.3 315.627 152.1 315.627H383.4C393.1 315.527 398 327.127 391.1 334.027Z" fill="url(#paint0_linear_1_10007)"/>
</g>
<defs>
<linearGradient id="paint0_linear_1_10007" x1="121.26" y1="384.192" x2="377.84" y2="127.612" gradientUnits="userSpaceOnUse">
<stop stop-color="#CB4EE8"/>
<stop offset="1" stop-color="#10F4B1"/>
</linearGradient>
<clipPath id="clip0_1_10007">
<rect width="500" height="500" fill="white" transform="translate(0 0.527344)"/>
</clipPath>
</defs>
</svg>
