<svg width="500" height="501" viewBox="0 0 500 501" fill="none" xmlns="http://www.w3.org/2000/svg">
<path d="M84.2004 24.9272H416.5C462.1 24.9272 499 61.8272 499 107.427V420.827C499 443.427 472.9 455.927 455.3 441.727L437.8 427.627C422.6 415.427 400.6 417.227 387.6 431.827L357.8 465.327C345.1 479.627 322.8 479.527 310.2 465.127L282.8 433.727C265.3 413.627 233.9 413.927 216.8 434.427L193.3 462.527C179.6 478.927 154.3 478.827 140.7 462.327L116.8 433.127C101.5 414.427 73.3004 413.027 56.2004 430.127L47.6004 438.727C30.4004 455.927 0.900391 443.727 0.900391 419.327L1.60039 107.227C1.70039 61.8272 38.7004 24.9272 84.2004 24.9272Z" fill="#16ADE0"/>
<path d="M344 240.627C372.443 240.627 395.5 217.57 395.5 189.127C395.5 160.685 372.443 137.627 344 137.627C315.557 137.627 292.5 160.685 292.5 189.127C292.5 217.57 315.557 240.627 344 240.627Z" fill="white"/>
<path d="M381 173.627C378.1 178.427 372.8 181.727 366.8 181.727C357.6 181.727 350.2 174.327 350.2 165.127C350.2 159.427 353.1 154.327 357.5 151.327C353.3 149.827 348.8 149.027 344.1 149.027C322 149.027 304 166.927 304 189.127C304 211.327 321.9 229.227 344.1 229.227C366.3 229.227 384.2 211.327 384.2 189.127C384.1 183.627 383 178.327 381 173.627Z" fill="#16ADE0"/>
<path d="M156.1 240.627C184.542 240.627 207.6 217.57 207.6 189.127C207.6 160.685 184.542 137.627 156.1 137.627C127.657 137.627 104.6 160.685 104.6 189.127C104.6 217.57 127.657 240.627 156.1 240.627Z" fill="white"/>
<path d="M193 173.627C190.1 178.427 184.8 181.727 178.8 181.727C169.6 181.727 162.2 174.327 162.2 165.127C162.2 159.427 165.1 154.327 169.5 151.327C165.3 149.827 160.8 149.027 156.1 149.027C134 149.027 116 166.927 116 189.127C116 211.327 133.9 229.227 156.1 229.227C178.3 229.227 196.2 211.327 196.2 189.127C196.1 183.627 195 178.327 193 173.627Z" fill="#16ADE0"/>
</svg>
