<svg width="500" height="501" viewBox="0 0 500 501" fill="none" xmlns="http://www.w3.org/2000/svg">
<path d="M259.1 222.127H171.6L209.3 272.927L209.8 273.427C209.8 273.927 210.3 273.927 210.3 274.427L216.3 282.427L234.4 307.027C235.4 308.027 236.4 309.027 237.4 310.027C243.9 315.027 253.5 313.527 258.5 307.027L277.6 281.427L300.7 250.727L306.7 242.727C306.2 236.227 305.7 229.627 304.7 223.627C304.2 217.127 301.2 211.027 296.2 206.527C291.2 203.027 285.1 200.527 278.6 200.527H278.1C278.1 201.527 278.1 202.027 278.1 203.027C278.2 213.627 269.7 222.127 259.1 222.127Z" fill="black"/>
<path d="M397.4 120.527H246.5C235.9 120.527 227.4 112.027 227.4 101.427C227.4 100.427 227.4 99.9271 227.4 98.9271C217.8 98.4271 208.3 100.427 199.7 103.927C189.6 108.427 180.6 114.527 173.5 123.027C166 131.527 159.4 141.127 154.4 151.227C149.9 161.827 145.9 172.827 143.8 183.927H258H258.5H259C266.5 184.427 274.1 185.427 281.1 187.927C289.1 189.927 296.7 194.427 302.2 200.527C303.7 202.027 304.7 204.027 305.7 206.027C306.7 208.027 307.2 210.027 307.7 212.027C308.7 215.527 308.7 219.527 308.7 223.627C308.7 230.127 307.7 236.227 307.2 242.227L397.4 120.527Z" fill="black"/>
<path d="M142.9 183.427C144.4 171.827 146.9 160.327 150.9 149.227C154.9 137.627 160.5 127.127 167 117.027C174 106.927 183.6 98.4272 194.2 91.9272C204.8 85.9272 216.3 82.3272 228.4 81.8272C229.9 81.8272 231.4 81.8272 232.9 81.8272C236.4 81.8272 243 81.8272 246.5 81.8272H426L454.7 43.1272C456.7 40.6272 457.7 37.6272 457.7 34.0272C457.7 26.0272 451.2 18.9272 442.6 18.9272H49.8999C46.8999 18.9272 43.3999 19.9272 40.7999 21.9272C34.2999 26.9272 32.7999 36.0272 37.7999 43.0272L142.9 183.427Z" fill="black"/>
<path d="M232.4 335.827L150 222.127L121.8 183.427L1.6001 18.4272L0.600098 18.9272L84.1001 183.427L103.7 222.127L202.3 416.727L231 473.027C233 476.527 235.5 479.527 239 481.027C248.1 485.527 259.6 482.027 264.1 473.027L292.8 417.727L293.3 416.227L235.5 338.227C234 337.827 233.5 336.827 232.4 335.827Z" fill="black"/>
<path d="M439.6 98.9272L423.6 120.527L326 250.827L302.9 281.527L262.2 335.827C261.2 337.327 259.7 338.327 258.2 339.327L302 398.127L362.9 280.927L379 250.227L500 18.4272L499 17.9272L439.6 98.9272Z" fill="black"/>
</svg>
