<svg width="500" height="501" viewBox="0 0 500 501" fill="none" xmlns="http://www.w3.org/2000/svg">
<g clip-path="url(#clip0_1_10022)">
<path fill-rule="evenodd" clip-rule="evenodd" d="M250 500.527C388.1 500.527 500 388.627 500 250.527C500 112.427 388.1 0.527344 250 0.527344C111.9 0.527344 0 112.427 0 250.527C0 388.627 111.9 500.527 250 500.527Z" fill="#FF3B81"/>
<path fill-rule="evenodd" clip-rule="evenodd" d="M121.5 355.227V357.627H96.2999V312.127L95.4999 314.627L71.3999 307.327L84.9999 263.627L83.2999 266.127L62.3999 252.227L88.4999 214.127L85.9999 216.127L70.0999 196.827L107.6 166.927L102.8 168.727L93.7999 145.627L138.6 128.727L133.4 129.027L131.7 104.327L178.6 101.127L174.4 100.127L180.1 75.9273L224.9 86.1273L222.1 84.5273L234.7 63.0273L273.8 85.2273L272.3 83.6273L290.7 66.7273L321.1 98.8273L320.5 97.5273L343 86.7273L362.5 126.127L362.3 125.027L387.1 121.127L394.4 166.727L394.9 163.527L419.8 167.427L412.4 213.627L414.2 209.927L436.8 220.827L416 263.027L419.1 259.827L437.5 276.727L405 311.127L408.9 308.927L421.5 330.427L380.6 353.727L384.7 352.827L390.4 377.027L345.2 387.327L348.7 387.527L346.9 412.227L301.7 409.127L304 410.027L295 433.127L251.7 416.727L254.4 418.927L238.6 438.227L202.8 409.527L204.6 412.127L183.7 426.027L158.1 388.727L158.9 391.227L134.8 398.527L121.5 355.227ZM121.5 325.727L137.2 321.027L149.4 360.427L163 351.427L186.2 385.327L196.6 372.727L228.8 398.427L234.6 383.627L273.4 398.327L274.5 382.327L316 385.227L312.2 369.327L352.9 360.027L344.5 345.627L380.8 324.927L368.4 313.527L397.1 283.227L381.8 275.827L400.3 238.527L383.6 235.927L390.2 195.027L374.2 197.527L367.6 156.627L353.2 163.527L334.9 126.527L323 137.227L294.7 107.327L286.6 121.127L250.7 100.727L247 116.527L206.6 107.327L207.8 123.827L166.4 126.627L172.5 142.327L133.5 157.127L144 169.927L111.2 196.027L125 205.227L101.4 239.727L117.3 244.527L105 284.227H121.5V325.727ZM238.4 264.927C242.8 268.227 245 273.027 245 279.327C245.2 284.627 242.7 289.727 238.4 292.827C234 296.027 227.8 297.627 220 297.627C198.8 297.627 188.2 288.727 188.2 270.927H155C155 281.327 157.7 290.527 163 298.327C168.4 306.227 176.1 312.427 186.3 317.027C197 321.627 208.5 323.927 220.1 323.727C237.9 323.727 252.1 319.727 262.6 311.927C273.1 303.927 278.4 293.027 278.4 279.027C278.4 266.527 274.1 256.027 265.5 247.627C256.9 239.227 243.2 232.127 224.3 226.527C214.1 223.427 206.3 220.127 201 216.527C195.8 213.027 193.2 208.627 193.2 203.327C193.1 198.027 195.6 192.927 199.9 189.827C204.4 186.327 210.7 184.627 218.8 184.627C227.2 184.627 233.7 186.727 238.3 190.827C242.9 194.927 245.3 200.627 245.3 208.027H278.4C278.5 198.827 275.9 189.827 270.9 182.127C266 174.527 259 168.627 250 164.527C241 160.327 230.8 158.227 219.3 158.227C207.9 158.227 197.6 160.127 188.4 163.927C179.3 167.727 172.3 173.127 167.3 180.027C162.4 186.827 160 194.527 160 203.327C160 220.127 169.1 233.427 187.4 243.227C194.1 246.827 203.2 250.527 214.7 254.327C226.1 258.027 234 261.527 238.4 264.927ZM346.1 180.427L314.2 297.227L287.9 295.427L307.8 175.027L346.1 180.427ZM310 350.727L318.3 309.427L283 300.927L275 340.527L310 350.727Z" fill="white"/>
</g>
<defs>
<clipPath id="clip0_1_10022">
<rect width="500" height="500" fill="white" transform="translate(0 0.527344)"/>
</clipPath>
</defs>
</svg>
