<svg width="500" height="501" viewBox="0 0 500 501" fill="none" xmlns="http://www.w3.org/2000/svg">
<path d="M496.66 124.677V371.737C496.66 452.827 448.53 497.187 371.21 497.187H128.28C59.1998 497.187 11.8298 459.977 3.98985 392.307C3.21985 385.737 2.83985 378.887 2.83985 371.747V128.807C2.82985 51.3674 52.9098 3.35742 122.78 3.35742H373.96C414.04 3.35742 446.82 17.7974 468.36 42.6274C483.87 60.4674 493.58 83.6874 496.04 110.767C496.45 115.317 496.66 119.947 496.66 124.687V124.677Z" fill="url(#paint0_linear_1_10025)"/>
<path d="M145.25 251.037L3.98008 392.307C3.21008 385.737 2.83008 378.887 2.83008 371.747V302.137L76.8901 228.077C89.4201 215.547 109.74 215.537 122.28 228.047C122.29 228.057 122.31 228.077 122.31 228.077L145.26 251.027L145.25 251.037Z" fill="url(#paint1_linear_1_10025)"/>
<path d="M496.04 110.767L273.58 331.607C260.36 344.717 239.06 344.687 225.89 331.537L122.3 228.087C122.3 228.087 122.29 228.077 122.27 228.057C121.83 227.477 114.45 218.357 100.3 218.357H192.63C201.7 218.357 210.36 221.957 216.78 228.367L249.69 261.277L468.36 42.6274C483.87 60.4674 493.58 83.6874 496.04 110.767Z" fill="white"/>
<defs>
<linearGradient id="paint0_linear_1_10025" x1="36.5699" y1="464.157" x2="463.42" y2="37.3074" gradientUnits="userSpaceOnUse">
<stop stop-color="#0F2FCA"/>
<stop offset="1" stop-color="#099CFA"/>
</linearGradient>
<linearGradient id="paint1_linear_1_10025" x1="-18.8499" y1="369.477" x2="122.42" y2="228.207" gradientUnits="userSpaceOnUse">
<stop stop-color="#F2F1FF"/>
<stop offset="1" stop-color="#1963DE"/>
</linearGradient>
</defs>
</svg>
