<svg width="500" height="501" viewBox="0 0 500 501" fill="none" xmlns="http://www.w3.org/2000/svg">
<path d="M385 295.528C386.3 297.828 401.3 325.528 387 378.228C385.3 377.828 383.7 377.328 382.1 376.728H382C377.1 375.028 372.6 372.228 368.8 368.628C368.8 368.628 370.2 401.328 349.3 428.728C349.2 428.928 349 429.128 348.9 429.328L348.8 429.228C343.5 423.828 339.5 417.228 337.1 410.028C337.1 410.028 325.8 435.828 294.2 460.528C291.5 462.728 288.7 464.728 285.9 466.728C269.9 477.928 261 485.328 256 490.228C255.7 490.528 255.4 490.928 255.1 491.228C254.8 491.528 254.5 491.828 254.2 492.128C250.3 496.328 250 498.228 250 498.728C250 498.228 249.6 496.328 245.7 492.128C245.4 491.828 245.1 491.528 244.8 491.228C244.5 490.928 244.2 490.628 243.9 490.228C238.9 485.328 230 477.928 214 466.728C211.2 464.728 208.4 462.728 205.7 460.528C200 456.128 194.6 451.328 189.4 446.228C168.9 425.928 162.9 410.628 162.7 410.128C160.3 417.328 156.3 423.928 151 429.328L150.9 429.428C150.7 429.228 150.6 429.028 150.5 428.828C129.6 401.428 131 368.628 131 368.628C127.3 372.228 122.8 375.028 117.9 376.728H117.8C116.2 377.428 114.6 377.928 112.9 378.228C98.7002 325.628 113.6 297.828 114.9 295.528C114.9 295.528 115 295.428 115 295.328C114.9 295.228 114.9 295.228 114.8 295.128C110.9 292.328 51.0002 246.528 90.2002 127.928C90.2002 127.928 101.6 130.728 108.2 140.628C108.2 140.628 107.6 105.428 153.3 58.9275C161.4 65.4275 166.7 74.7275 168.3 84.9275C168.3 84.9275 182.1 63.9275 209.7 46.3275C239.4 27.4275 250 14.6275 250 1.72754C250 1.72754 316.2 41.1275 331.6 85.0275C334 68.2275 346.6 59.0275 346.6 59.0275C392.3 105.528 391.7 140.728 391.7 140.728C398.3 130.828 409.7 128.028 409.7 128.028C448.9 246.628 389 292.328 385.1 295.228C385 295.228 385 295.328 384.9 295.428C384.9 295.328 384.9 295.428 385 295.528ZM250 200.628C132.1 131.828 105.7 262.628 203.5 267.528C203.5 267.528 191.5 275.028 178.1 276.428C182.7 278.728 187.9 279.328 192.9 278.328C154 319.428 169.1 404.628 250 404.628C330.8 404.628 345.9 319.428 307.1 278.228C312.1 279.328 317.3 278.628 321.9 276.428C308.5 275.028 296.5 267.528 296.5 267.528C394.3 262.728 367.9 131.928 250 200.628ZM299.4 228.328C299.4 236.228 295.3 242.528 290.2 242.528C285.1 242.528 281 236.128 281 228.328C281 220.528 285.1 214.128 290.2 214.128C295.3 214.128 299.4 220.528 299.4 228.328ZM209.8 214.128C214.9 214.128 219 220.528 219 228.328C219 236.228 214.9 242.528 209.8 242.528C204.7 242.528 200.6 236.128 200.6 228.328C200.6 220.528 204.7 214.128 209.8 214.128ZM265.6 284.228C256.8 281.428 255 296.028 255 296.028C272.5 297.928 273.4 286.728 265.6 284.228ZM244.9 296.028C244.9 296.028 243.3 281.528 234.4 284.228C226.6 286.728 227.5 297.928 244.9 296.028ZM250 350.128C277.5 350.228 297.8 336.528 296.5 334.328C295.5 331.828 275.2 338.728 250 338.528C224.8 338.728 204.4 331.828 203.4 334.328C202.2 336.328 222.4 350.128 250 350.128Z" fill="#6200EA"/>
</svg>
