<svg width="500" height="501" viewBox="0 0 500 501" fill="none" xmlns="http://www.w3.org/2000/svg">
<g clip-path="url(#clip0_1_10031)">
<path d="M250 412.427C174.1 412.427 112.5 350.827 112.5 274.927C112.5 201.127 237 70.8272 242.3 65.3272L248.8 58.4272L255.5 65.1272C261 70.6272 387.6 200.927 387.6 274.727C387.5 350.827 325.9 412.427 250 412.427ZM248.9 85.0272C238 96.8272 215.1 122.327 192.4 152.327C152.1 205.527 130.8 247.827 130.8 274.727C130.8 340.427 184.3 393.927 250 393.927C315.7 393.927 369.2 340.427 369.2 274.727C369.2 247.827 347.5 205.527 306.5 152.327C283.5 122.627 260 96.8272 248.9 85.0272Z" fill="url(#paint0_linear_1_10031)"/>
<path d="M250 456.528C149.8 456.528 68.3999 375.028 68.3999 274.928C68.3999 177.028 205.1 40.3275 210.9 34.7275C214.4 31.2275 220.4 31.2275 223.9 34.7275C227.4 38.2275 227.4 44.2275 223.9 47.7275C222.5 49.1275 86.8999 184.728 86.8999 274.928C86.8999 364.928 160.2 438.228 250.2 438.228C340.2 438.228 413.5 364.928 413.5 274.928C413.5 237.928 389.5 186.828 344.1 126.828C309.2 80.8275 274.2 46.0275 273.8 45.6275C270.1 42.1275 270.1 36.3275 273.8 32.6275C277.3 28.9275 283.1 28.9275 286.8 32.6275C292.8 38.4275 431.9 176.828 431.9 274.928C431.6 374.928 350.2 456.528 250 456.528Z" fill="url(#paint1_linear_1_10031)"/>
<path d="M250 500.527C128.1 500.527 29 401.327 29 279.527C29 229.127 54.4 167.127 104.2 95.5274C141 42.6274 177.1 4.92738 178.7 3.32738C182.2 -0.372624 188 -0.372624 191.7 3.12738C195.4 6.62738 195.4 12.4274 191.9 16.1274C191.5 16.5274 155.1 54.5274 119.2 106.127C72.1 173.627 47.3 233.527 47.3 279.527C47.3 391.227 138.2 482.227 250 482.227C361.8 482.227 452.7 391.327 452.7 279.527C452.7 233.527 427.7 173.727 380.3 106.227C344 54.6274 307.2 16.6274 306.9 16.2274C303.4 12.5274 303.4 6.72738 307.1 3.22738C310.8 -0.272624 316.6 -0.272624 320.1 3.42738C326.3 9.72738 471 160.127 471 279.527C471 401.327 371.9 500.527 250 500.527Z" fill="url(#paint2_linear_1_10031)"/>
</g>
<defs>
<linearGradient id="paint0_linear_1_10031" x1="250.002" y1="412.475" x2="250.002" y2="58.4743" gradientUnits="userSpaceOnUse">
<stop stop-color="#05AAC5"/>
<stop offset="1" stop-color="#71E0EC"/>
</linearGradient>
<linearGradient id="paint1_linear_1_10031" x1="250.178" y1="456.506" x2="250.178" y2="29.811" gradientUnits="userSpaceOnUse">
<stop stop-color="#05AAC5"/>
<stop offset="1" stop-color="#71E0EC"/>
</linearGradient>
<linearGradient id="paint2_linear_1_10031" x1="250.002" y1="500.536" x2="250.002" y2="0.552604" gradientUnits="userSpaceOnUse">
<stop stop-color="#05AAC5"/>
<stop offset="1" stop-color="#71E0EC"/>
</linearGradient>
<clipPath id="clip0_1_10031">
<rect width="500" height="500" fill="white" transform="translate(0 0.527344)"/>
</clipPath>
</defs>
</svg>
