<svg width="500" height="501" viewBox="0 0 500 501" fill="none" xmlns="http://www.w3.org/2000/svg">
<path d="M175.7 394.227L238.3 317.327C244.9 309.627 257 309.627 263.6 317.327L326.2 394.227C330.6 399.727 330.6 408.527 326.2 415.127L263.6 492.027C257 499.727 244.9 499.727 238.3 492.027L175.7 415.127C171.3 408.527 171.3 399.727 175.7 394.227Z" fill="#72C7FB"/>
<path d="M421.9 206.327L359.3 129.427C352.7 121.727 340.6 121.727 334 129.427L271.4 206.327C267 211.827 267 220.627 271.4 227.227L334 304.127C340.6 311.827 352.7 311.827 359.3 304.127L421.9 227.227C426.3 221.727 426.3 212.927 421.9 206.327ZM166.9 129.327C160.3 121.627 148.2 121.627 141.6 129.327L79 206.327C74.6 211.827 74.6 220.627 79 227.227L141.6 304.127C148.2 311.827 160.3 311.827 166.9 304.127L229.5 227.227C233.9 221.727 233.9 212.927 229.5 206.327L166.9 129.327ZM326.3 85.4273L263.6 8.42734C257 0.727344 244.9 0.727344 238.3 8.42734L175.7 85.3273C171.3 90.8273 171.3 99.6273 175.7 106.227L238.3 183.127C244.9 190.827 257 190.827 263.6 183.127L326.2 106.227C330.7 100.827 330.7 92.0273 326.3 85.4273Z" fill="#1BA5F8"/>
</svg>
