<svg width="500" height="501" viewBox="0 0 500 501" fill="none" xmlns="http://www.w3.org/2000/svg">
<path d="M250.5 496.528C386.307 496.528 496.4 386.434 496.4 250.628C496.4 114.821 386.307 4.72754 250.5 4.72754C114.693 4.72754 4.60001 114.821 4.60001 250.628C4.60001 386.434 114.693 496.528 250.5 496.528Z" fill="#171FC9"/>
<path d="M247 117.227L228.1 131.827C198.2 153.127 195.1 186.727 208.8 217.327L250.6 317.927C258.2 337.527 258.9 358.527 251.8 379.427L251.7 379.827C250.4 382.727 253.1 384.827 255.8 382.727L277.7 363.927C298.7 346.827 306 318.027 295.9 292.927L249.2 177.327C243.7 161.127 243.6 145.027 248.3 129.227L251.5 120.327C252.4 117.827 249.2 115.527 247 117.227Z" fill="white"/>
<path d="M336.8 145.327L321.9 156.827C298.2 173.627 295.8 200.227 306.7 224.527L339.7 304.127C345.7 319.627 346.3 336.227 340.6 352.827L340.5 353.227C339.4 355.527 341.6 357.227 343.8 355.527L361.1 340.727C377.7 327.227 383.5 304.427 375.5 284.627L338.6 193.127C334.3 180.327 334.2 167.627 337.9 155.127L340.4 148.127C341 145.727 338.5 143.927 336.8 145.327Z" fill="white"/>
<path d="M158.7 145.327L143.8 156.827C120.1 173.627 117.7 200.227 128.6 224.527L161.6 304.127C167.6 319.627 168.2 336.227 162.5 352.827L162.4 353.227C161.3 355.527 163.5 357.227 165.7 355.527L183 340.727C199.6 327.227 205.4 304.427 197.4 284.627L160.5 193.127C156.2 180.327 156.1 167.627 159.8 155.127L162.3 148.127C163 145.727 160.5 143.927 158.7 145.327Z" fill="white"/>
</svg>
