<svg width="500" height="501" viewBox="0 0 500 501" fill="none" xmlns="http://www.w3.org/2000/svg">
<g clip-path="url(#clip0_1_10049)">
<path fill-rule="evenodd" clip-rule="evenodd" d="M466.4 375.528V125.828L250 0.727539V250.528L33.5 375.528L250 500.528L466.3 375.628L466.4 375.728V375.528Z" fill="#64C557"/>
<path d="M33.6 125.728L250.1 0.727539V250.728L33.6 375.728V125.728Z" fill="#118AB2"/>
<path d="M250.1 0.527344L466.6 125.527L394.4 167.227L178 42.2273L250.1 0.527344Z" fill="#00F8B7"/>
<path d="M394.3 167.127V250.427L177.8 125.427V42.1274L394.3 167.127Z" fill="#09BD8E"/>
<path d="M177.7 125.527L394.2 250.527L322 292.227L105.5 167.227L177.7 125.527Z" fill="#FFE3A3"/>
<path d="M322.8 292.627V375.927L106.3 250.927V167.627L322.8 292.627Z" fill="#FFBB1D"/>
<path d="M105.7 250.527L322.2 375.527L250 417.227L33.5 292.227L105.7 250.527Z" fill="#FF965E"/>
<path d="M249.9 417.127V500.427L33.4 375.427V292.127L249.9 417.127Z" fill="#D94C00"/>
<path d="M394.4 167.127L466.6 125.427V375.427L394.4 417.127V167.127Z" fill="#06D6A0"/>
<path d="M322.1 292.127L394.3 250.427V417.027L322.1 458.727V292.127Z" fill="#FFD166"/>
<path d="M249.7 417.127L321.9 375.427V458.727L249.7 500.427V417.127Z" fill="#F3722C"/>
</g>
<defs>
<clipPath id="clip0_1_10049">
<rect width="500" height="500" fill="white" transform="translate(0 0.527344)"/>
</clipPath>
</defs>
</svg>
