<svg width="500" height="501" viewBox="0 0 500 501" fill="none" xmlns="http://www.w3.org/2000/svg">
<g clip-path="url(#clip0_1_10061)">
<path d="M103.4 224.627L99.4 230.727C54.4 299.727 64.5 390.127 123.6 448.027C158.4 482.127 203.9 499.127 249.5 499.127C249.5 499.127 249.5 499.127 103.4 224.627Z" fill="#00A3FF"/>
<path opacity="0.6" d="M249.5 308.027L103.4 224.627C249.5 499.127 249.5 499.127 249.5 499.127C249.5 439.327 249.5 370.827 249.5 308.027Z" fill="#00A3FF"/>
<path opacity="0.6" d="M395.7 224.627L399.7 230.727C444.7 299.727 434.6 390.127 375.5 448.027C340.7 482.127 295.2 499.127 249.6 499.127C249.6 499.127 249.6 499.127 395.7 224.627Z" fill="#00A3FF"/>
<path opacity="0.2" d="M249.6 308.027L395.7 224.627C249.6 499.127 249.6 499.127 249.6 499.127C249.6 439.327 249.6 370.827 249.6 308.027Z" fill="#00A3FF"/>
<path opacity="0.2" d="M249.6 121.627V265.527L375.4 193.627L249.6 121.627Z" fill="#00A3FF"/>
<path opacity="0.6" d="M249.6 121.627L123.7 193.627L249.6 265.527V121.627Z" fill="#00A3FF"/>
<path d="M249.6 0.627441L123.7 193.627L249.6 121.427V0.627441Z" fill="#00A3FF"/>
<path opacity="0.6" d="M249.6 121.427L375.5 193.627L249.6 0.527344V121.427Z" fill="#00A3FF"/>
</g>
<defs>
<clipPath id="clip0_1_10061">
<rect width="500" height="500" fill="white" transform="translate(0 0.527344)"/>
</clipPath>
</defs>
</svg>
