<svg width="500" height="501" viewBox="0 0 500 501" fill="none" xmlns="http://www.w3.org/2000/svg">
<path d="M299 21.3273L312.2 52.3273C338.2 113.227 386.7 161.627 447.5 187.627L478.5 200.827C486.6 204.327 493.2 209.227 498.3 215.127C482.9 104.527 395.4 16.9273 284.7 1.52734C290.6 6.62734 295.5 13.2273 299 21.3273ZM20.8 200.827L51.8 187.627C112.7 161.627 161.1 113.127 187.1 52.3273L200.3 21.3273C203.5 13.7273 208.4 6.92734 214.6 1.52734C104 16.9273 16.4 104.527 1 215.227C6.1 209.327 12.7 204.327 20.8 200.827ZM478.6 299.527L447.6 312.727C386.7 338.727 338.3 387.227 312.3 448.027L299.1 479.027C295.9 486.627 291 493.427 284.8 498.827C395.5 483.427 483 395.827 498.5 285.127C493.3 291.027 486.7 296.027 478.6 299.527ZM200.3 479.027L187.1 448.027C161.1 387.127 112.6 338.727 51.8 312.727L20.8 299.527C13.2 296.327 6.4 291.427 1 285.227C16.4 395.927 104 483.527 214.7 498.927C208.4 493.427 203.5 486.627 200.3 479.027Z" fill="#999999"/>
<path d="M136.9 225.927L152.2 219.427C182.2 206.627 206.1 182.727 218.9 152.727L225.4 137.427C234.5 116.027 264.9 116.027 274 137.427L280.5 152.727C293.3 182.727 317.2 206.627 347.2 219.427L362.5 225.927C383.9 235.027 383.9 265.427 362.5 274.527L347.2 281.027C317.2 293.827 293.3 317.727 280.5 347.727L274 363.027C264.9 384.427 234.5 384.427 225.4 363.027L218.9 347.727C206.1 317.727 182.2 293.827 152.2 281.027L136.9 274.527C115.5 265.327 115.5 235.027 136.9 225.927Z" fill="black"/>
</svg>
