<svg width="500" height="501" viewBox="0 0 500 501" fill="none" xmlns="http://www.w3.org/2000/svg">
<g clip-path="url(#clip0_1_10073)">
<path fill-rule="evenodd" clip-rule="evenodd" d="M335.3 369.128C343.9 367.228 351.9 367.128 359.5 368.728C367.1 370.328 374 373.628 380.2 378.328L500 471.128H336L264 387.728L335.3 369.128ZM129.9 30.4275L273.9 200.828C284.8 215.828 290.3 232.428 290.3 250.728C290.3 269.028 284.8 285.628 273.9 300.628L129.9 471.028H-0.600098L157.7 284.228C166 274.728 170.2 263.528 170.2 250.728C170.2 237.928 166 226.728 157.7 217.228L-0.600098 30.4275H129.9ZM500 29.7275L380.2 122.428C374 127.228 367.1 130.428 359.5 132.028C351.9 133.728 343.8 133.528 335.3 131.628L264 113.128L336 29.7275H500Z" fill="#FA2E53"/>
</g>
<defs>
<clipPath id="clip0_1_10073">
<rect width="500" height="500" fill="white" transform="translate(0 0.527344)"/>
</clipPath>
</defs>
</svg>
