<svg width="500" height="501" viewBox="0 0 500 501" fill="none" xmlns="http://www.w3.org/2000/svg">
<path d="M75.1628 338.514C67.7826 338.514 61.7998 344.497 61.7998 351.877C61.7998 359.258 67.7826 365.24 75.1628 365.24C82.543 365.24 88.5258 359.258 88.5258 351.877C88.5258 349.507 87.8784 347.352 86.8008 345.197C84.3704 341.074 79.9486 338.536 75.1628 338.517M263.955 47.781C263.955 40.4008 257.972 34.418 250.592 34.418C243.212 34.418 237.229 40.4008 237.229 47.781C237.229 55.1612 243.212 61.144 250.592 61.144C257.955 61.1026 263.914 55.144 263.955 47.781ZM426.898 163.73C434.279 163.73 440.261 157.748 440.261 150.367C440.261 142.987 434.279 137.004 426.898 137.004C419.518 137.004 413.535 142.987 413.535 150.367C413.544 152.635 414.138 154.862 415.26 156.833C417.598 161.076 422.054 163.717 426.898 163.73ZM81.4008 138.082C74.9356 134.417 66.9602 136.574 63.2976 143.039C59.635 149.505 61.79 157.48 68.2552 161.143C74.7204 164.805 82.6958 162.65 86.3584 156.185C90.0236 149.935 87.866 141.745 81.4008 138.082ZM432.274 341.1C430.334 339.807 427.964 339.375 425.594 339.16C418.214 339.06 412.151 344.961 412.051 352.341C411.951 359.72 417.853 365.783 425.232 365.883C425.353 365.885 425.473 365.885 425.594 365.883C430.334 365.883 434.634 363.298 437.232 359.203C440.897 352.953 438.739 344.762 432.274 341.1ZM237.229 452.519C236.581 458.554 240.247 464.372 245.849 466.527C247.142 466.957 248.652 467.39 249.945 467.39C256.685 467.379 262.471 462.587 263.738 455.967C264.742 448.696 259.663 441.988 252.392 440.983C245.216 439.991 238.568 444.93 237.444 452.086C237.327 452.202 237.252 452.353 237.229 452.516" fill="#2683FF"/>
<path d="M445.422 316.531C443.834 315.612 442.176 314.82 440.464 314.161V189.376C442.404 188.729 444.344 187.651 446.284 186.791C466.32 175.583 473.651 150.152 462.448 130.104C451.245 110.056 425.809 102.738 405.761 113.941C404.036 114.803 402.528 115.881 401.02 116.958L291.106 53.3809C291.321 51.4409 291.536 49.7157 291.536 47.7781C291.534 24.7197 272.793 6.18652 249.947 6.18652C227.101 6.18652 207.92 25.1523 207.92 47.9957C207.92 49.9357 208.135 51.6609 208.35 53.5985L99.2988 116.746C81.1858 102.556 54.999 105.736 40.8088 123.849C26.6186 141.962 29.7988 168.149 47.9118 182.339C48.1588 182.532 48.408 182.723 48.6594 182.911C50.167 183.989 51.677 185.066 53.3996 186.144C55.16 187.221 57.0402 188.089 59.0024 188.729V313.299C37.6642 321.919 27.3162 346.065 35.9366 367.393C44.557 388.722 68.6954 399.074 90.0336 390.454C91.9736 389.806 93.6986 388.729 95.4212 387.869C97.1462 386.791 98.8688 385.714 100.594 384.421L208.568 446.706C204.903 469.334 220.421 490.67 243.052 494.335C265.683 498 287.018 482.482 290.681 459.851C291.111 457.481 291.111 455.326 291.111 452.954C291.083 450.935 290.939 448.92 290.681 446.918L398.01 385.066C399.735 386.359 401.458 387.651 403.398 388.731C423.434 399.939 448.872 392.826 460.085 372.783C470.853 352.737 464.388 328.169 445.422 316.531ZM452.965 368.685C444.129 383.771 424.516 388.944 409.431 380.108C397.363 372.996 391.327 358.988 394.56 345.412L344.128 315.886C328.215 332.023 304.17 337.032 283.136 328.592C275.593 330.962 259.435 332.472 259.435 332.472V421.265C277.108 426.653 286.801 445.404 281.425 463.074C276.05 480.745 257.287 490.441 239.614 485.065C239.399 485.065 239.184 484.85 238.966 484.85C237.459 484.42 236.164 483.772 234.871 483.125C218.275 474.935 211.81 454.676 220 438.298C224.096 430.108 231.423 424.075 240.036 421.273V330.754C233.707 328.798 227.514 326.421 221.501 323.641C202.006 327.537 181.789 322.561 166.329 310.063L106.199 344.76C110.302 361.955 99.6894 379.22 82.4944 383.324C65.2994 387.427 48.0336 376.814 43.9302 359.619C39.8282 342.43 50.4326 325.169 67.62 321.059C77.9654 318.473 88.9558 321.489 96.9408 328.816L153.19 296.273C134.225 269.549 137.242 232.91 160.521 209.634L96.5034 172.996C83.7976 185.064 63.7446 184.419 51.6766 171.488C39.6516 158.715 40.258 138.612 53.0312 126.587C53.082 126.539 53.133 126.491 53.1842 126.444C66.1146 114.376 85.943 115.021 98.011 127.951C105.341 135.709 108.141 146.485 105.769 156.83L176.674 197.562C185.964 192.564 196.302 189.832 206.848 189.586C216.765 181.401 242.177 172.996 242.177 172.996V76.0143C226.444 71.2741 217.608 54.6785 222.349 38.9453C227.089 23.2123 243.697 14.5919 259.43 19.3321C275.163 24.0723 283.998 40.6679 279.258 56.4011C276.411 65.9291 268.958 73.3827 259.43 76.2293V171.278C259.43 171.278 305.982 182.916 320.637 200.371L396.068 157.485C392.187 140.244 402.748 123.001 419.991 119.123C437.234 115.246 454.475 125.804 458.352 143.047C462.23 160.29 451.672 177.531 434.429 181.408C424.007 183.756 413.101 180.766 405.333 173.433L330.765 215.67C332.92 220.195 334.86 224.71 336.153 229.463C359.214 245.196 367.404 275.367 355.119 300.583L404.475 329.246C414.689 319.727 429.947 318.061 441.974 325.151C456.845 333.987 462.01 353.385 452.97 368.685H452.965Z" fill="#2683FF"/>
<path d="M313.957 246.273C313.742 244.548 313.527 243.041 313.31 241.316C313.099 240.149 312.811 238.997 312.447 237.868C312.447 237.438 312.232 237.005 312.232 236.575C311.802 235.283 311.369 233.773 310.939 232.48V232.265C308.199 225.035 304.019 218.437 298.654 212.869C297.361 211.577 296.284 210.499 294.774 209.204L294.559 208.989C293.266 207.912 291.974 206.834 290.464 205.972L290.249 205.757C288.956 204.894 287.446 203.817 286.153 203.171L285.938 202.956C284.546 202.152 283.107 201.433 281.628 200.801L281.198 200.586C279.691 199.939 278.181 199.294 276.458 198.646L276.243 198.431C274.518 198.001 273.01 197.354 271.285 197.139H271.07C269.365 196.747 267.638 196.459 265.898 196.276H265.683C256.504 194.972 247.143 196.086 238.527 199.509L237.449 200.371C236.157 200.801 234.002 201.879 232.709 202.526C232.036 202.971 231.313 203.332 230.554 203.604C229.906 203.819 228.829 204.682 228.184 205.112C227.539 205.542 226.029 206.619 225.166 207.267L224.519 207.697C223.226 208.559 222.148 209.637 220.853 210.714L219.776 211.792C218.483 213.084 217.406 214.162 216.328 215.457C213.765 215.028 211.17 214.811 208.57 214.809C207.708 214.809 207.063 214.809 206.415 215.024C196.503 215.454 187.02 219.55 179.692 226.232C176.027 229.465 173.012 233.563 170.651 237.87L170.422 238.31C169.757 239.562 169.181 240.858 168.697 242.19C168.482 242.62 168.482 242.838 168.267 243.268C167.81 244.384 167.449 245.538 167.189 246.716C166.974 247.146 166.974 247.793 166.759 248.223C166.544 249.301 166.329 250.378 166.111 251.671C166.111 252.101 165.896 252.533 165.896 253.178C165.717 254.825 165.645 256.481 165.681 258.136C165.645 259.505 165.717 260.874 165.896 262.231C165.896 262.661 166.111 263.094 166.111 263.739C166.326 264.601 166.326 265.464 166.541 266.324C166.756 267.184 166.756 267.402 166.971 268.049C167.217 268.669 167.362 269.324 167.401 269.989C167.401 270.637 167.831 271.282 168.049 271.929C168.225 272.448 168.442 272.952 168.696 273.437C169.021 274.14 169.309 274.859 169.559 275.592C169.774 276.022 169.989 276.239 169.989 276.669C173.018 283.768 178.13 289.78 184.649 293.91C187.882 295.85 191.115 297.575 194.562 298.65C195.899 299.109 197.268 299.47 198.657 299.728L199.087 299.943L202.968 300.59L203.83 300.805C205.338 301.02 206.848 301.02 208.57 301.02C214.391 301.02 219.993 299.943 225.166 297.573C226.459 298.435 227.536 299.298 228.831 300.158L229.261 300.373C230.339 301.02 231.631 301.665 232.926 302.313H233.136C245.455 308.59 259.671 310.051 273.008 306.408H273.223C275.162 305.989 277.043 305.338 278.826 304.468L284.646 301.883C290.187 306.206 297.013 308.557 304.042 308.563C305.549 308.563 306.844 308.348 308.352 308.348L309.429 308.133C310.81 307.927 312.178 307.639 313.525 307.27C314.853 306.862 316.149 306.358 317.405 305.763L318.052 305.548C319.345 304.9 320.422 304.255 321.717 303.608C327.105 300.16 331.2 294.987 333.57 289.167C334.433 287.227 334.863 285.287 335.295 283.349V282.702C335.51 281.839 335.51 280.977 335.725 280.117C335.725 279.039 335.94 277.962 335.94 276.884C335.94 262.661 327.105 250.375 313.95 246.28" fill="#2683FF"/>
</svg>
