<svg width="500" height="501" viewBox="0 0 500 501" fill="none" xmlns="http://www.w3.org/2000/svg">
<path d="M188.99 488.058C164.304 482.865 141.73 472.531 120.357 459.458C78.0131 433.559 46.6631 397.712 25.5271 352.975C13.7731 328.095 6.75714 301.831 3.91514 274.373C0.808144 244.358 4.15814 215.116 11.1951 185.875C25.2151 127.622 59.6751 83.9221 106.902 49.2591C138.765 25.8731 174.854 12.0981 213.806 6.20011C239.918 2.24611 266.121 2.61511 292.14 7.73511C292.491 7.80411 292.755 8.30911 293.058 8.61111C292.624 11.1321 290.748 12.8051 289.365 14.7401C260.689 54.8591 231.98 94.9541 203.28 135.057C179.964 167.637 156.657 200.224 133.337 232.801C119.764 251.762 106.154 270.696 92.6251 289.688C91.4251 291.372 89.3861 292.777 89.9891 296.1C134.75 296.1 179.582 296.1 225.258 296.1C221.357 312.051 218.711 327.343 215.953 342.559C212.969 359.021 209.879 375.511 206.977 392.006C201.335 424.085 195.024 456.047 188.99 488.058Z" fill="#6B38DD"/>
<path d="M310.298 11.6592C368.238 26.6632 414.678 58.6772 449.582 107.083C483.336 153.895 498.601 206.677 495.497 264.102C492.82 313.623 475.844 358.553 445.697 398.08C405.308 451.035 351.719 482.467 286.212 493.28C259.686 497.659 232.963 497.693 206.491 491.796C206.965 490.821 207.309 489.755 207.93 488.884C245.174 436.624 282.146 384.166 319.864 332.249C333.253 313.82 345.987 294.951 359.343 276.514C374.959 254.957 390.7 233.49 406.34 211.95C407.563 210.266 409.537 208.84 408.985 205.67C364.758 205.67 320.481 205.67 276.518 205.67C274.564 202.521 275.713 199.922 276.164 197.424C281.227 169.375 286.332 141.333 291.491 113.301C297.727 79.4152 304.026 45.5402 310.298 11.6592Z" fill="#6B38DD"/>
<path d="M310.298 11.6591C304.026 45.5401 297.727 79.4151 291.49 113.302C286.331 141.334 281.226 169.375 276.163 197.425C275.712 199.923 274.563 202.522 276.517 205.671C320.48 205.671 364.757 205.671 408.984 205.671C409.536 208.84 407.562 210.266 406.339 211.951C390.699 233.491 374.957 254.957 359.342 276.515C345.987 294.952 333.252 313.821 319.863 332.25C282.145 384.166 245.173 436.624 207.929 488.885C207.309 489.755 206.964 490.822 206.49 491.797C200.658 490.551 194.826 489.306 188.992 488.06C195.024 456.049 201.334 424.087 206.978 392.007C209.88 375.511 212.971 359.022 215.954 342.56C218.712 327.344 221.358 312.052 225.259 296.101C179.582 296.101 134.75 296.101 89.9899 296.101C89.3869 292.778 91.4259 291.373 92.6259 289.689C106.155 270.697 119.765 251.763 133.338 232.802C156.658 200.225 179.965 167.638 203.281 135.058C231.981 94.9551 260.69 54.8601 289.367 14.7411C290.75 12.8061 292.626 11.1341 293.06 8.61205C299.103 7.95205 304.61 10.3151 310.298 11.6591Z" fill="#FDFCFD"/>
</svg>
