<svg width="500" height="501" viewBox="0 0 500 501" fill="none" xmlns="http://www.w3.org/2000/svg">
<path d="M39.7265 177.907L253.603 312.689C253.742 312.785 253.925 312.785 254.064 312.689L472.258 174.866C472.46 174.737 472.52 174.469 472.391 174.266C472.357 174.213 472.311 174.167 472.258 174.133L256.074 36.3635C255.932 36.2751 255.753 36.2751 255.612 36.3635L39.7265 177.174C39.5241 177.329 39.4855 177.618 39.6405 177.821C39.6653 177.853 39.6941 177.882 39.7265 177.907ZM253.603 470.714C250.761 470.716 247.979 469.896 245.593 468.352L16.5387 320.835C16.3801 320.667 16.3801 320.405 16.5387 320.238L26.2863 305.06C26.4539 304.901 26.7161 304.901 26.8837 305.06L253.494 451.029C253.635 451.117 253.815 451.117 253.956 451.029L468.728 313.015C473.651 309.865 476.622 304.415 476.602 298.57V264.63C476.589 264.391 476.385 264.207 476.145 264.219C476.077 264.223 476.01 264.243 475.95 264.277L259.033 402.426C254.187 405.509 247.995 405.509 243.149 402.426L23.9511 262.974C13.1011 256.168 6.51553 244.259 6.51953 231.451V183.908C6.51973 180.069 8.00893 176.38 10.6737 173.617L11.4067 173.02L15.6153 170.141L248.172 18.6061L248.416 18.4703C253.178 15.7491 259.056 15.8957 263.676 18.8505L488.467 162.05C495.38 166.437 497.428 175.598 493.04 182.511C491.871 184.353 490.309 185.915 488.467 187.084L261.748 330.23C256.923 333.247 250.799 333.247 245.973 330.23L26.0419 191.755C25.8341 191.635 25.5685 191.706 25.4485 191.914C25.4097 191.981 25.3897 192.057 25.3903 192.135V231.451C25.3657 237.758 28.5861 243.636 33.9161 247.009L250.888 384.914C251.029 385.002 251.208 385.002 251.349 384.914L472.665 243.723C478.266 240.153 485.561 240.752 490.504 245.19C493.648 248.191 495.375 252.384 495.255 256.729V298.435C495.293 310.728 489.045 322.188 478.693 328.818L261.477 468.406C259.122 469.901 256.392 470.701 253.603 470.714Z" fill="#01A4DF"/>
</svg>
