<svg width="500" height="501" viewBox="0 0 500 501" fill="none" xmlns="http://www.w3.org/2000/svg">
<path d="M497.5 250.227C497.5 387.127 386.6 498.027 249.7 498.027C112.8 498.027 1.90039 387.027 1.90039 250.227C1.90039 113.427 112.8 2.42725 249.7 2.42725C386.6 2.42725 497.5 113.327 497.5 250.227Z" fill="#29296E"/>
<path d="M365 183.927L358.7 164.427C357.4 160.427 354.3 157.427 350.3 156.127L330.7 150.127C328 149.327 328 145.527 330.7 144.627L350.2 138.327C354.2 137.027 357.2 133.927 358.5 129.927L364.5 110.327C365.3 107.627 369.1 107.627 370 110.327L376.3 129.827C377.6 133.827 380.7 136.827 384.7 138.127L404.3 144.127C407 144.927 407 148.727 404.3 149.627L384.8 155.927C380.8 157.227 377.8 160.327 376.5 164.327L370.5 183.927C369.7 186.627 365.9 186.627 365 183.927Z" fill="#FAFAFA"/>
<path d="M24.4004 246.327C30.3004 234.827 41.9004 226.127 54.0004 220.627C66.2004 215.227 79.7004 211.827 92.9004 210.727C119.6 208.327 145.5 212.727 169.2 220.527C181.4 224.127 192.3 229.227 203.6 234.327C209.1 236.927 214.2 239.927 219.5 242.827L234.1 251.327C250.2 261.227 265.8 269.927 280.4 276.727C295.1 283.427 308.3 288.027 320.8 290.327C333.3 292.627 346 292.627 361.6 289.027C377.1 285.527 394.5 277.927 412.8 268.227C431.1 258.527 449.9 246.627 471.4 235.027C469.2 259.327 462.4 282.127 451.6 304.127C440.6 325.827 425.3 347.127 403 364.227C381.1 381.527 351 393.627 320.4 395.427C289.8 397.527 260.6 390.727 235.8 380.627C210.9 370.327 189.4 356.827 170.4 341.827C165.1 337.727 162.3 335.327 158.4 332.027L147.5 322.527C140.2 316.827 133.1 309.927 125.9 304.327C111.5 292.227 97.2004 280.127 81.5004 269.727C73.6004 264.427 65.5004 259.427 56.2004 255.127C51.6004 253.027 46.7004 251.027 41.5004 249.527C36.3004 247.527 30.8004 246.527 24.4004 246.327Z" fill="#FF4F0A"/>
<path d="M24.4004 246.328C27.4004 221.328 39.1004 197.827 57.8004 177.928C76.4004 158.128 105.4 142.928 137.7 140.928C153.6 139.828 169.7 141.628 184.6 145.728C199.4 149.828 213.2 155.828 225.7 162.828C231.9 166.328 237.8 170.228 243.6 174.128L259.1 185.828L283.3 204.927C299 217.427 314 228.928 327.8 238.528C341.8 248.128 353.7 255.028 365 259.128C376.3 263.628 390.5 264.728 409.3 260.028C418.6 257.828 428.4 253.927 438.8 249.728C449.1 245.327 459.9 240.128 471.6 235.028C470.2 247.628 467.6 260.128 462.8 271.827C458.1 283.727 452 295.328 443.4 306.128C439 311.428 434.3 316.728 428.8 321.628C423.3 326.428 417.2 330.928 410.5 334.928C397.1 342.728 381.2 348.327 364.9 350.428C348.6 352.428 332.2 351.428 317.3 348.327C302.3 345.227 288.7 340.328 276.1 334.528C251.1 322.928 230.2 308.327 211.7 292.827C202.4 285.128 193.7 277.027 185.5 268.827L175.8 259.028C172.9 256.228 169.9 253.327 167 250.728C155 240.128 144 232.128 132 227.128C120 221.928 104.6 219.728 85.8004 223.328C67.0004 226.728 46.4004 234.928 24.4004 246.328Z" fill="#FAFAFA"/>
<path d="M123.5 375.227C123.5 382.627 117.5 388.627 110.1 388.627C102.7 388.627 96.7002 382.627 96.7002 375.227C96.7002 367.827 102.7 361.827 110.1 361.827C117.5 361.827 123.5 367.827 123.5 375.227Z" fill="#FAFAFA"/>
<path d="M123.5 375.227C123.5 382.627 117.5 388.627 110.1 388.627C102.7 388.627 96.7002 382.627 96.7002 375.227C96.7002 367.827 102.7 361.827 110.1 361.827C117.5 361.827 123.5 367.827 123.5 375.227Z" fill="#FAFAFA"/>
</svg>
