<svg width="500" height="501" viewBox="0 0 500 501" fill="none" xmlns="http://www.w3.org/2000/svg">
<path d="M198.7 465.628C189.4 465.628 170 464.027 159.8 460.527C158.6 460.128 158 458.628 158.7 457.527L189.6 406.027C190.3 404.827 191.6 404.127 192.9 404.027C193.9 403.927 193.9 403.927 198.7 403.927C267.6 403.927 323.5 348.128 323.5 279.228C323.5 254.428 320.8 236.527 309.5 219.727C308.5 218.227 308.6 216.327 309.5 214.927L342.5 164.827C343.3 163.627 345.1 163.527 346 164.627C375.4 200.427 385.1 241.427 385.1 279.327C385.1 382.027 301.5 465.628 198.7 465.628Z" fill="url(#paint0_radial_1_10100)"/>
<path d="M385.4 97.4271L324 138.227C322.9 138.927 321.5 138.827 320.5 138.027C286.7 108.827 243.6 92.8271 198.8 92.8271C95.9998 92.8271 12.3998 176.427 12.3998 279.227C12.3998 292.727 13.8998 306.127 16.7998 319.227C20.3998 335.427 21.2998 352.027 18.8998 368.427L2.1998 483.827C1.8998 486.027 4.5998 487.427 6.1998 485.827L385.4 97.4271ZM198.7 154.427C222.5 154.427 245.5 161.127 265.3 173.727C266.5 174.527 266.5 176.227 265.3 177.027L79.1998 300.527C77.6998 301.527 75.6998 300.627 75.3998 298.827C74.3998 292.427 73.8998 285.827 73.8998 279.127C73.8998 210.427 129.9 154.427 198.7 154.427Z" fill="url(#paint1_radial_1_10100)"/>
<path d="M494.7 10.6274C496.2 10.6274 497.4 11.7274 497.5 13.2274C497.7 18.2274 497 29.8274 487.3 41.4274C474.3 56.8274 461.1 62.7274 459.5 82.1274C457.9 101.527 454.1 115.827 451.9 123.927C451.3 126.027 450.8 127.927 450.3 129.627C449.6 132.027 446.2 132.227 445.3 129.927C440.6 118.827 430.6 97.1274 418.7 83.7274C404.9 68.1274 384.1 54.9274 373.1 48.6274C370.7 47.2274 371.4 43.7274 374.1 43.3274C382.2 42.1274 394.8 40.5274 406 40.0274C424.1 39.2274 434.3 43.0274 443.8 35.1274C453 27.6274 465 10.3274 494.7 10.6274Z" fill="#FF4299"/>
<defs>
<radialGradient id="paint0_radial_1_10100" cx="0" cy="0" r="1" gradientUnits="userSpaceOnUse" gradientTransform="translate(405.732 77.3826) scale(558.594 558.594)">
<stop stop-color="#FF4299"/>
<stop offset="0.9426" stop-color="#005EE6"/>
</radialGradient>
<radialGradient id="paint1_radial_1_10100" cx="0" cy="0" r="1" gradientUnits="userSpaceOnUse" gradientTransform="translate(405.731 77.3822) scale(558.594 558.594)">
<stop stop-color="#FF4299"/>
<stop offset="1" stop-color="#005EE6"/>
</radialGradient>
</defs>
</svg>
