<svg width="500" height="501" viewBox="0 0 500 501" fill="none" xmlns="http://www.w3.org/2000/svg">
<path d="M250 495.036C385.007 495.036 494.509 385.534 494.509 250.527C494.509 115.521 385.007 6.01855 250 6.01855C114.993 6.01855 5.49121 115.521 5.49121 250.527C5.49121 385.534 114.993 495.036 250 495.036Z" fill="#E53431"/>
<path d="M199.096 92.7158C199.728 92.1888 200.571 91.978 201.414 91.978C202.258 91.978 203.101 92.1888 203.733 92.7158L222.914 107.154C223.968 107.998 224.6 109.368 224.39 110.632C224.179 112.002 223.336 113.162 222.071 113.689C220.806 114.216 219.331 114.005 218.277 113.267L201.414 100.62L146.4 141.828L387.853 322.997C388.801 323.735 389.434 324.894 389.434 326.053C389.434 327.212 388.907 328.372 387.853 329.11L370.147 342.494C369.514 343.021 368.671 343.232 367.828 343.232C366.142 343.232 364.666 342.178 364.139 340.597C363.612 339.017 364.139 337.33 365.509 336.276L379.21 326.053L137.758 144.99C136.809 144.252 136.177 143.093 136.177 141.934C136.177 140.774 136.809 139.615 137.758 138.877L199.096 92.7158ZM260.434 92.7158C261.804 91.6618 263.701 91.6618 264.966 92.7158L387.747 184.828C389.117 185.777 389.644 187.568 389.117 189.044C388.59 190.625 387.115 191.679 385.534 191.679H324.09C323.247 191.679 322.404 191.362 321.772 190.941L241.252 130.552C240.198 129.708 239.566 128.338 239.777 127.074C239.988 125.704 240.831 124.544 242.096 124.017C243.36 123.49 244.836 123.701 245.89 124.439L325.46 184.091H374.046L262.752 100.62L185.711 158.375C184.025 159.64 181.601 159.324 180.336 157.637C179.071 155.951 179.387 153.527 181.074 152.262L260.434 92.7158ZM154.62 172.181C155.253 171.654 156.096 171.443 156.939 171.443C158.098 171.443 159.258 171.97 159.995 173.024C160.628 173.867 160.839 174.816 160.733 175.87C160.628 176.924 160.101 177.767 159.258 178.399L146.4 187.99L387.853 369.158C388.801 369.896 389.433 371.055 389.433 372.215C389.433 373.374 388.906 374.533 387.853 375.271L326.409 421.327C325.777 421.854 324.934 422.065 324.091 422.065C323.247 422.065 322.404 421.749 321.772 421.327L304.066 408.048C303.012 407.205 302.38 405.835 302.591 404.465C302.802 403.094 303.645 401.935 304.909 401.408C306.174 400.881 307.65 401.092 308.703 401.83L324.091 413.423L379.105 372.215L137.652 190.941C136.704 190.203 136.177 189.044 136.177 187.885C136.177 186.725 136.704 185.566 137.652 184.828L154.62 172.181ZM139.971 322.259H201.309C202.152 322.259 202.995 322.47 203.628 322.997L283.304 382.754C284.99 384.019 285.306 386.443 284.042 388.129C282.777 389.815 280.353 390.132 278.667 388.867L200.044 329.848H151.459L262.753 413.318L339.583 355.669C341.269 354.404 343.693 354.72 344.958 356.406C346.223 358.093 345.907 360.517 344.22 361.781L265.071 421.117C264.439 421.644 263.596 421.855 262.753 421.855C261.909 421.855 261.066 421.644 260.434 421.117L137.653 329.005C136.388 327.951 135.861 326.264 136.283 324.684C136.915 323.208 138.39 322.154 139.971 322.259Z" fill="white"/>
</svg>
