<svg width="500" height="501" viewBox="0 0 500 501" fill="none" xmlns="http://www.w3.org/2000/svg">
<g clip-path="url(#clip0_1_10112)">
<path fill-rule="evenodd" clip-rule="evenodd" d="M367.4 209.027C387.8 234.627 400 267.027 400 302.227C400 338.027 387.4 370.827 366.5 396.527L364.7 398.727L364.2 395.927C363.8 393.527 363.3 391.127 362.8 388.627C352.3 342.527 318.2 303.027 261.9 271.127C223.9 249.627 202.2 223.627 196.5 194.227C192.8 175.127 195.6 156.027 200.8 139.627C206.1 123.227 214 109.527 220.7 101.227L242.6 74.5271C246.4 69.8271 253.6 69.8271 257.4 74.5271L367.4 209.027ZM402 182.327L255.4 3.12715C252.6 -0.272851 247.4 -0.272851 244.6 3.12715L97.9999 182.327L97.4999 182.927C70.4999 216.427 54.3999 258.927 54.3999 305.227C54.3999 413.127 142 500.527 250 500.527C358 500.527 445.6 413.127 445.6 305.227C445.6 258.927 429.5 216.427 402.5 182.927L402 182.327ZM133.1 208.527L146.2 192.527L146.6 195.527C146.9 197.827 147.3 200.227 147.7 202.627C156.2 247.127 186.5 284.227 237.2 313.027C281.2 338.127 306.9 366.927 314.3 398.527C317.4 411.727 317.9 424.727 316.6 436.027L316.5 436.727L315.9 437.027C296 446.727 273.7 452.227 250.1 452.227C167.3 452.227 100.1 385.227 100.1 302.427C99.9999 266.827 112.4 234.127 133.1 208.527Z" fill="#011829"/>
</g>
<defs>
<clipPath id="clip0_1_10112">
<rect width="500" height="500" fill="white" transform="translate(0 0.527344)"/>
</clipPath>
</defs>
</svg>
