<svg width="500" height="501" viewBox="0 0 500 501" fill="none" xmlns="http://www.w3.org/2000/svg">
<g clip-path="url(#clip0_1_10114)">
<path d="M250.6 436.427C358.13 436.427 445.3 349.257 445.3 241.727C445.3 134.198 358.13 47.0273 250.6 47.0273C143.07 47.0273 55.8999 134.198 55.8999 241.727C55.8999 349.257 143.07 436.427 250.6 436.427Z" fill="url(#paint0_linear_1_10114)"/>
<path d="M246.5 0.527344V136.227" stroke="white" stroke-width="0.7899"/>
<path d="M226.4 0.527344V136.227" stroke="white" stroke-width="0.7899"/>
<path d="M272.9 0.527344V136.227" stroke="white" stroke-width="0.7899"/>
<path d="M161.4 26.9274L205.4 109.027V15.6274" stroke="white" stroke-width="0.7899"/>
<path d="M337.3 24.4274L293.3 106.527V13.1274" stroke="white" stroke-width="0.7899"/>
<path d="M253.5 500.527V364.827" stroke="white" stroke-width="0.7899"/>
<path d="M273.6 500.527V364.827" stroke="white" stroke-width="0.7899"/>
<path d="M227.1 500.527V364.827" stroke="white" stroke-width="0.7899"/>
<path d="M339.8 475.828L295.8 393.728V487.128" stroke="white" stroke-width="0.7899"/>
<path d="M161.4 477.027L205.4 394.927V488.327" stroke="white" stroke-width="0.7899"/>
<path d="M0 254.027H135.7" stroke="white" stroke-width="0.7899"/>
<path d="M0 274.127H135.7" stroke="white" stroke-width="0.7899"/>
<path d="M0 227.627H135.7" stroke="white" stroke-width="0.7899"/>
<path d="M23.2999 339.728L105.4 295.728H11.8999" stroke="white" stroke-width="0.7899"/>
<path d="M32.1002 166.327L114.2 210.327H20.7002" stroke="white" stroke-width="0.7899"/>
<path d="M500 247.027H364.3" stroke="white" stroke-width="0.7899"/>
<path d="M500 226.927H364.3" stroke="white" stroke-width="0.7899"/>
<path d="M500 273.427H364.3" stroke="white" stroke-width="0.7899"/>
<path d="M472.1 161.327L390 205.327H483.4" stroke="white" stroke-width="0.7899"/>
<path d="M477.2 338.527L395.1 294.527H488.5" stroke="white" stroke-width="0.7899"/>
<path d="M75.7002 429.727L171.6 333.827" stroke="white" stroke-width="0.7899"/>
<path d="M89.8999 444.027L185.8 348.127" stroke="white" stroke-width="0.7899"/>
<path d="M57 411.128L152.9 315.228" stroke="white" stroke-width="0.7899"/>
<path d="M157.8 474.027L184.7 384.927L118.7 450.927" stroke="white" stroke-width="0.7899"/>
<path d="M27.5 345.027L116.6 318.127L50.6 384.127" stroke="white" stroke-width="0.7899"/>
<path d="M424.3 71.3271L328.4 167.227" stroke="white" stroke-width="0.7899"/>
<path d="M410.1 57.0273L314.2 152.927" stroke="white" stroke-width="0.7899"/>
<path d="M443 89.9272L347 185.927" stroke="white" stroke-width="0.7899"/>
<path d="M345.1 29.9272L318.2 119.027L384.2 53.0272" stroke="white" stroke-width="0.7899"/>
<path d="M471.7 154.027L382.6 180.927L448.6 114.927" stroke="white" stroke-width="0.7899"/>
<path d="M429.2 424.827L333.3 328.927" stroke="white" stroke-width="0.7899"/>
<path d="M443.4 410.628L347.5 314.728" stroke="white" stroke-width="0.7899"/>
<path d="M410.6 443.527L314.6 347.527" stroke="white" stroke-width="0.7899"/>
<path d="M474.2 345.027L385 318.027L451 384.027" stroke="white" stroke-width="0.7899"/>
<path d="M346.3 472.828L319.4 383.728L385.4 449.728" stroke="white" stroke-width="0.7899"/>
<path d="M70.7998 76.2275L166.7 172.128" stroke="white" stroke-width="0.7899"/>
<path d="M56.5 90.4272L152.4 186.327" stroke="white" stroke-width="0.7899"/>
<path d="M89.3999 57.5273L185.3 153.427" stroke="white" stroke-width="0.7899"/>
<path d="M33.7998 160.227L122.9 187.127L56.8998 121.127" stroke="white" stroke-width="0.7899"/>
<path d="M156.6 33.7275L183.5 122.828L117.5 56.8275" stroke="white" stroke-width="0.7899"/>
<path d="M250 375.327C323.454 375.327 383 315.781 383 242.327C383 168.873 323.454 109.327 250 109.327C176.546 109.327 117 168.873 117 242.327C117 315.781 176.546 375.327 250 375.327Z" fill="#F8BA3A" stroke="white" stroke-width="0.677"/>
<path fill-rule="evenodd" clip-rule="evenodd" d="M257.5 103.527L239.9 244.827H257.5L250.6 375.227L378.8 352.327L402.1 173.327L345.6 123.627L257.5 103.527Z" fill="white"/>
<path d="M126.9 224.627C129.9 249.227 146 274.927 170.6 271.927C254.2 261.627 242.5 207.927 241.3 190.527C247.4 239.827 284.8 257.927 347.5 250.227C366.2 247.927 373.8 211.427 371.7 194.627C369.1 173.627 313.4 170.527 244 179.027C174.7 187.527 123.2 193.827 126.9 224.627Z" fill="#01C1AE" stroke="#01C1AE" stroke-width="1.2412" stroke-linecap="round" stroke-linejoin="round"/>
<path d="M252 326.927C281.1 324.527 303 301.027 300.8 274.427L195.3 283.027C197.5 309.627 222.9 329.327 252 326.927Z" fill="white" stroke="#FE9D51" stroke-width="0.5642" stroke-linejoin="round"/>
<path d="M265.7 298.228H294.6" stroke="#FE9A54" stroke-width="0.4514" stroke-linecap="round" stroke-linejoin="round"/>
<path d="M281.4 238.627C258.8 230.127 249.8 207.427 248.1 197.127C248.1 183.327 263.8 181.427 302.1 181.427C340.4 181.427 363.7 184.527 365.5 194.627C367.4 212.227 361.1 238.627 352.3 243.027C343.6 247.427 309.7 249.227 281.4 238.627Z" fill="black" stroke="black" stroke-width="0.1128"/>
<path d="M214.9 250.327C233 238.327 242.5 215.327 236.8 195.827C233.6 184.727 215.9 187.427 182.8 192.727C153.3 197.427 130.7 210.327 133.2 221.627C134.5 240.127 148.7 259.727 157.1 263.127C165.4 266.427 192.2 265.327 214.9 250.327Z" fill="black" stroke="black" stroke-width="0.1128"/>
<path d="M371.9 137.427L382.9 167.227L412.7 178.227L382.9 189.227L371.9 219.027L360.9 189.227L331.1 178.227L360.9 167.227L371.9 137.427Z" fill="white"/>
</g>
<defs>
<linearGradient id="paint0_linear_1_10114" x1="250.623" y1="47.0097" x2="250.623" y2="436.457" gradientUnits="userSpaceOnUse">
<stop stop-color="#F5B745"/>
<stop offset="1" stop-color="#FC8B47"/>
</linearGradient>
<clipPath id="clip0_1_10114">
<rect width="500" height="500" fill="white" transform="translate(0 0.527344)"/>
</clipPath>
</defs>
</svg>
