<svg width="500" height="501" viewBox="0 0 500 501" fill="none" xmlns="http://www.w3.org/2000/svg">
<g clip-path="url(#clip0_1_10167)">
<path d="M250.1 500.327C388.116 500.327 500 388.443 500 250.427C500 112.411 388.116 0.527344 250.1 0.527344C112.084 0.527344 0.200195 112.411 0.200195 250.427C0.200195 388.443 112.084 500.327 250.1 500.327Z" fill="#7B00FF"/>
<path d="M371.5 61.4272C371.8 88.4272 364.7 110.527 349.6 129.827C327.5 158.027 297.1 172.927 263.5 182.027C244.3 187.227 224.6 190.427 207.3 194.027C227.1 199.527 249.3 205.027 271.1 211.927C296.1 219.827 318.8 232.527 339.2 249.127C372.2 276.127 372.5 321.827 340 351.627C321.9 368.227 299.6 375.927 276.6 382.227C243.5 391.227 210.3 399.827 177.3 409.427C160.6 414.327 147.2 424.927 136.4 438.927C115.9 400.327 132.9 356.027 174.7 336.927C213 319.327 253.9 312.027 298.2 306.027C291.1 304.427 286.7 303.427 282.4 302.427C277.9 301.427 273.5 300.327 269 299.327C231.3 290.627 195.7 277.427 164.8 253.227C128.1 224.427 127.2 176.527 163 146.227C180.3 131.527 200.8 123.827 222.3 118.127C255.9 109.327 289.6 101.027 323.2 92.0272C341.3 87.2272 358.3 79.5272 371.5 61.4272Z" fill="white"/>
<path d="M274.8 195.027C306.8 184.727 335.9 169.427 358.6 143.427C366.5 164.927 354 212.627 338 226.627C317 216.027 296.2 205.727 274.8 195.027Z" fill="white"/>
</g>
<defs>
<clipPath id="clip0_1_10167">
<rect width="500" height="500" fill="white" transform="translate(0 0.527344)"/>
</clipPath>
</defs>
</svg>
