<svg width="500" height="501" viewBox="0 0 500 501" fill="none" xmlns="http://www.w3.org/2000/svg">
<path d="M259.4 13.0273V190.627C259.4 190.627 291.9 207.027 330.8 240.427C371.1 274.927 381.8 298.727 381.8 311.827C381.8 336.727 363.1 367.827 333.8 406.527C300.1 450.927 261.3 488.827 261.3 488.827C261.3 488.827 376.8 408.827 426.6 357.527C476.4 306.227 496.8 272.227 496.8 243.527C496.8 214.827 473.4 174.127 408.5 118.227C343.6 62.3273 259.4 13.0273 259.4 13.0273Z" fill="#E5642A"/>
<path d="M240.1 488.727V311.127C240.1 311.127 207.6 294.727 168.7 261.327C128.4 226.827 117.7 203.027 117.7 189.927C117.7 165.027 136.4 133.927 165.7 95.2272C199.4 50.8272 238.2 12.9272 238.2 12.9272C238.2 12.9272 122.7 92.9272 72.9002 144.227C23.1002 195.527 2.7002 229.527 2.7002 258.227C2.7002 286.927 26.0002 327.727 90.9002 383.627C155.8 439.527 240.1 488.727 240.1 488.727Z" fill="#1E3566"/>
</svg>
