<svg width="500" height="501" viewBox="0 0 500 501" fill="none" xmlns="http://www.w3.org/2000/svg">
<g clip-path="url(#clip0_1_10174)">
<path d="M250 500.527C388.071 500.527 500 388.599 500 250.527C500 112.456 388.071 0.527344 250 0.527344C111.929 0.527344 0 112.456 0 250.527C0 388.599 111.929 500.527 250 500.527Z" fill="#31D8A4"/>
<path d="M250 467.227C369.68 467.227 466.7 370.207 466.7 250.527C466.7 130.847 369.68 33.8271 250 33.8271C130.32 33.8271 33.3 130.847 33.3 250.527C33.3 370.207 130.32 467.227 250 467.227Z" fill="white"/>
<path d="M250 442.227C355.873 442.227 441.7 356.4 441.7 250.527C441.7 144.654 355.873 58.8271 250 58.8271C144.127 58.8271 58.3 144.654 58.3 250.527C58.3 356.4 144.127 442.227 250 442.227Z" fill="#0E052F"/>
<path d="M243.6 337.027C235.3 336.327 227.4 334.527 220.1 331.527C212.8 328.327 206.4 324.327 201.1 319.327C195.8 314.327 191.5 308.527 188.4 302.127C185.2 295.627 183.6 288.527 183.4 280.927H214.2C214.5 289.127 217.4 295.927 222.7 301.427C228.2 306.727 235.2 309.827 243.7 310.627V261.127L231.9 259.327C218.4 257.527 207.7 252.427 199.7 244.127C191.9 235.827 187.9 225.227 187.9 212.327C187.9 205.627 189.4 199.427 192.4 193.527C195.4 187.527 199.5 182.327 204.6 177.727C209.8 173.027 215.7 169.327 222.4 166.527C229.2 163.727 236.3 161.927 243.6 161.327V138.027H261.9V161.827C269.4 162.827 276.3 164.827 282.7 167.827C289 170.627 294.5 174.327 299.2 178.827C303.9 183.327 307.5 188.527 310.2 194.327C313 200.127 314.6 206.427 315 213.127H284.3C284 207.127 281.7 201.927 277.5 197.627C273.5 193.127 268.3 190.027 262 188.427V234.227L270.5 235.427C276.8 236.427 282.8 238.227 288.5 240.627C294.2 243.127 299.1 246.427 303.3 250.427C307.6 254.427 311 259.227 313.3 264.927C315.8 270.427 317.1 276.727 317.1 283.727C317.1 291.227 315.7 298.027 312.8 304.227C310.1 310.227 306.3 315.527 301.3 320.227C296.5 324.727 290.6 328.527 283.8 331.427C277.1 334.227 269.9 336.127 262.1 336.927V362.527H243.8V337.027H243.6ZM261.8 310.327C269.6 309.027 275.7 306.127 280 301.827C284.3 297.327 286.5 291.627 286.5 284.827C286.5 278.527 284.4 273.827 280.3 270.827C276.1 267.627 271.4 265.627 266.1 264.627L261.9 263.827V310.327H261.8ZM243.6 187.527C236.6 188.527 230.6 191.127 225.6 195.327C220.8 199.327 218.4 204.727 218.4 211.527C218.4 217.327 220 221.727 223.2 224.727C226.5 227.527 230.9 229.427 236.2 230.227L243.7 231.427V187.527H243.6Z" fill="white"/>
</g>
<defs>
<clipPath id="clip0_1_10174">
<rect width="500" height="500" fill="white" transform="translate(0 0.527344)"/>
</clipPath>
</defs>
</svg>
