<svg width="500" height="501" viewBox="0 0 500 501" fill="none" xmlns="http://www.w3.org/2000/svg">
<g clip-path="url(#clip0_1_10180)">
<path fill-rule="evenodd" clip-rule="evenodd" d="M250 500.527C388.1 500.527 500 388.627 500 250.527C500 112.427 388.1 0.527344 250 0.527344C111.9 0.527344 0 112.427 0 250.527C0 388.627 111.9 500.527 250 500.527Z" fill="#25292E"/>
<path d="M142.2 345.927L120.9 330.827L255 145.927L276.3 161.027L142.2 345.927Z" fill="white" fill-opacity="0.5"/>
<path d="M178.5 259.127C145.5 259.127 118.8 232.727 118.8 200.127C118.8 167.527 145.5 141.127 178.5 141.127H266.3C273.5 141.127 279.4 146.927 279.4 154.127C279.4 161.327 273.5 167.127 266.3 167.127H178.5C160 167.127 145 181.927 145 200.227C145 218.527 160 233.327 178.5 233.327H185.7H219.7C252.7 233.327 279.4 259.727 279.4 292.327C279.4 324.927 252.7 351.327 219.7 351.327H131.9C124.7 351.327 118.8 345.527 118.8 338.327C118.8 331.127 124.7 325.327 131.9 325.327H219.7C238.2 325.327 253.2 310.527 253.2 292.227C253.2 273.927 238.2 259.127 219.7 259.127H185.7H178.5Z" fill="white"/>
<path fill-rule="evenodd" clip-rule="evenodd" d="M365.1 251.327C362.8 254.027 359.9 255.527 356.1 255.827L355.9 271.427C360.7 271.327 365 270.027 368.9 267.427C372.8 264.827 375.8 261.227 378 256.527C380.2 251.927 381.3 246.627 381.3 240.727C381.3 235.227 380.3 230.227 378.2 225.827C376.1 221.427 373.3 217.927 369.7 215.527C366.1 213.027 362 211.827 357.4 211.827C352.7 211.827 348.9 212.827 346.1 214.927C343.3 217.027 341.2 219.727 339.8 223.127C338.4 226.527 337.2 230.727 336.3 235.627C335.4 240.527 334.6 244.127 333.9 246.427C333.2 248.727 332.3 250.527 331.2 251.827C330.1 253.127 328.5 253.727 326.5 253.727C323.7 253.727 321.6 252.627 320.1 250.527C318.6 248.427 317.8 245.627 317.8 242.027C317.8 238.227 318.8 235.127 320.8 232.827C322.8 230.527 325.4 229.127 328.6 228.827V213.227C324.1 213.327 320 214.627 316.5 217.127C312.9 219.627 310.1 223.027 308.1 227.427C306.1 231.827 305 236.627 305 242.127C305 247.427 306 252.227 308 256.427C310 260.627 312.7 263.927 316.1 266.327C319.5 268.727 323.4 269.827 327.8 269.827C332.6 269.827 336.4 268.827 339.4 266.727C342.3 264.627 344.5 261.927 346 258.627C347.5 255.327 348.7 251.227 349.6 246.327C350.6 241.427 351.4 237.727 352.1 235.327C352.8 232.927 353.7 231.127 354.9 229.827C356.1 228.527 357.7 227.827 359.7 227.827C362.6 227.827 364.8 229.027 366.4 231.327C368 233.727 368.8 236.727 368.8 240.527C368.5 244.927 367.3 248.527 365.1 251.327ZM349 325.627H305.4V341.527H348.2C358.9 341.527 367.1 338.927 372.8 333.827C378.5 328.627 381.3 321.127 381.3 311.127C381.3 301.127 378.5 293.627 372.8 288.427C367.1 283.227 358.9 280.627 348.2 280.627H305.4V296.527H349C355.1 296.527 359.7 297.727 362.8 300.127C365.9 302.527 367.4 306.227 367.4 311.227C367.4 316.227 365.9 319.927 362.8 322.227C359.7 324.427 355.1 325.627 349 325.627ZM305.4 202.127V176.327C305.4 168.927 307 162.327 310.2 156.627C313.4 150.927 317.8 146.527 323.5 143.527C329.2 140.427 335.7 138.927 343 138.927C350.3 138.927 356.8 140.427 362.5 143.527C368.2 146.627 372.6 151.027 375.8 156.627C379 162.327 380.6 168.827 380.6 176.327V202.127H305.4ZM360.6 160.827C365 164.527 367.2 169.727 367.2 176.427V186.327H318.8V176.427C318.8 169.727 321 164.527 325.4 160.827C329.8 157.127 335.7 155.227 343 155.227C350.3 155.227 356.2 157.027 360.6 160.827Z" fill="white"/>
</g>
<defs>
<clipPath id="clip0_1_10180">
<rect width="500" height="500" fill="white" transform="translate(0 0.527344)"/>
</clipPath>
</defs>
</svg>
