<svg width="500" height="501" viewBox="0 0 500 501" fill="none" xmlns="http://www.w3.org/2000/svg">
<path d="M360 97.5271C257.3 23.7271 146.4 2.42713 112.3 49.8271C92.7999 77.0271 35.2999 156.927 15.7999 184.127C-18.2001 231.527 37.4 329.827 140.1 403.627C242.8 477.427 353.7 498.827 387.8 451.427C407.3 424.227 464.8 344.327 484.3 317.127C518.4 269.627 462.7 171.327 360 97.5271Z" fill="white"/>
<path d="M477.3 248.127C425.5 232.027 416.2 271.027 397.6 294.327C378.3 318.627 370.8 333.627 346.5 356.027C322.2 378.427 291.7 365.427 278.6 356.027C265.5 346.627 259.6 335.427 231.5 301.227C203.5 266.927 172.9 295.027 158.6 307.427C144.3 319.927 124 339.827 109.7 347.927C103.8 351.227 97.8 352.627 92.9 353.027C28.7 290.827 -2.49998 222.027 23.6 185.627C42.2 159.727 97 83.5273 115.6 57.6273C148.1 12.4273 256.9 34.3273 354.9 104.727C416.4 148.827 460.8 202.827 477.3 248.127Z" fill="url(#paint0_linear_1_10185)"/>
<path d="M475 315.527C456.4 341.427 401.6 417.727 383 443.627C350.5 488.827 243.2 466.927 145.3 396.527C126.2 382.727 108.6 368.027 93 352.927C97.9 352.527 103.8 351.227 109.8 347.827C124.1 339.727 144.4 319.827 158.7 307.327C173 294.827 203.6 266.827 231.6 301.127C259.6 335.427 265.6 346.627 278.7 355.927C291.8 365.327 322.3 378.327 346.6 355.927C370.9 333.527 378.4 318.527 397.7 294.227C416.2 270.927 425.6 231.927 477.4 248.027C487.1 274.927 487.1 298.727 475 315.527Z" fill="black"/>
<path d="M371.6 335.627C366.8 334.527 361.8 333.327 356.8 331.827" stroke="white" stroke-width="6.2261" stroke-miterlimit="10" stroke-linecap="round"/>
<path d="M431.2 338.228C417.4 341.028 400.9 340.828 382.5 337.728" stroke="white" stroke-width="6.2261" stroke-miterlimit="10" stroke-linecap="round"/>
<path d="M107.4 109.927C106.9 106.827 106.6 103.827 106.4 100.827" stroke="white" stroke-width="6.2261" stroke-miterlimit="10" stroke-linecap="round"/>
<path d="M179 224.027C143 188.627 118.4 151.727 109.8 120.627" stroke="white" stroke-width="6.2261" stroke-miterlimit="10" stroke-linecap="round"/>
<path d="M346.1 116.627C253.2 50.4272 155.6 28.1272 128.1 66.7272C100.6 105.327 153.5 190.327 246.4 256.527C339.3 322.727 436.9 345.027 464.4 306.427C492 267.827 439 182.827 346.1 116.627ZM379.8 246.127C366.8 264.327 318.9 252.427 272.7 219.427C226.5 186.527 199.6 145.127 212.6 126.927C225.6 108.727 273.5 120.627 319.7 153.627C365.9 186.527 392.8 228.027 379.8 246.127Z" fill="white"/>
<defs>
<linearGradient id="paint0_linear_1_10185" x1="295.385" y1="373.085" x2="172.759" y2="45.445" gradientUnits="userSpaceOnUse">
<stop offset="0.244" stop-color="#FC51A1"/>
<stop offset="1" stop-color="#1AB0ED"/>
</linearGradient>
</defs>
</svg>
