<svg width="500" height="501" viewBox="0 0 500 501" fill="none" xmlns="http://www.w3.org/2000/svg">
<path d="M293 54.2271L147 200.227C137.5 209.727 122.1 209.727 112.6 200.227C103.1 190.727 103.1 175.327 112.6 165.827L258.6 19.8271C268.1 10.3271 283.5 10.3271 293 19.8271C302.5 29.3271 302.5 44.7271 293 54.2271Z" fill="#232227"/>
<path d="M373.9 333.527L227.9 479.527C218.4 489.027 203 489.027 193.5 479.527C184 470.027 184 454.627 193.5 445.127L339.5 299.127C349 289.627 364.4 289.627 373.9 299.127C383.4 308.527 383.4 324.027 373.9 333.527Z" fill="#232227"/>
<path d="M231.2 235.627L139 327.727C129.5 337.227 114.1 337.227 104.6 327.727C95.1 318.227 95.1 302.827 104.6 293.327L196.8 201.127C206.3 191.627 221.7 191.627 231.2 201.127C240.7 210.627 240.7 226.127 231.2 235.627Z" fill="#232227"/>
<path d="M386.9 202.128L294.7 294.328C285.2 303.828 269.8 303.828 260.3 294.328C250.8 284.828 250.8 269.428 260.3 259.928L352.5 167.728C362 158.228 377.4 158.228 386.9 167.728C396.5 177.228 396.5 192.628 386.9 202.128Z" fill="#AF74FD"/>
</svg>
