<svg width="500" height="501" viewBox="0 0 500 501" fill="none" xmlns="http://www.w3.org/2000/svg">
<path d="M204.1 298.727C192.1 307.027 175.5 316.527 161.8 316.527C141.3 316.527 123.8 309.927 111.2 297.327C99.3 285.527 92.7 269.127 92.7 251.227C92.7 221.827 113.4 196.827 141.8 188.727V211.327L221.4 159.227L141.8 107.127V127.427C80 136.827 32.6 188.727 32.6 251.227C32.6 322.627 88.1 376.527 161.7 376.527C190.7 376.527 220.2 366.427 244.4 340.627C262.1 321.827 296.7 244.527 303.8 234.127C304.9 232.627 217.6 289.327 204.1 298.727Z" fill="url(#paint0_linear_1_10199)"/>
<path d="M294.7 203.827C306.7 195.527 323.3 186.027 337 186.027C357.5 186.027 375 192.627 387.6 205.227C399.5 217.027 406.1 233.427 406.1 251.327C406.1 280.727 385.4 305.727 357 313.827V291.227L277.4 343.327L357 395.527V375.227C418.7 365.827 466.1 313.927 466.1 251.427C466.1 180.027 410.6 126.127 337 126.127C308 126.127 278.5 136.227 254.3 162.027C236.6 180.827 202 258.127 194.9 268.527C193.9 270.027 281.1 213.227 294.7 203.827Z" fill="url(#paint1_linear_1_10199)"/>
<defs>
<linearGradient id="paint0_linear_1_10199" x1="56.8057" y1="208.585" x2="290.533" y2="304.651" gradientUnits="userSpaceOnUse">
<stop offset="0.000838514" stop-color="#0091F6"/>
<stop offset="1" stop-color="#00C6FE"/>
</linearGradient>
<linearGradient id="paint1_linear_1_10199" x1="435.981" y1="330.843" x2="257.715" y2="164.46" gradientUnits="userSpaceOnUse">
<stop offset="0.000838514" stop-color="#0091F6"/>
<stop offset="1" stop-color="#00C6FE"/>
</linearGradient>
</defs>
</svg>
