<svg width="500" height="501" viewBox="0 0 500 501" fill="none" xmlns="http://www.w3.org/2000/svg">
<g clip-path="url(#clip0_1_10204)">
<path d="M479 303.527L478.4 304.227C478.1 304.527 477.8 304.827 477.5 305.127L304.3 477.927C274.1 508.027 225.2 508.027 195.1 477.927L147.3 430.227C143.9 426.827 143.9 421.327 147.3 418.027C148.3 417.027 149.5 416.327 150.9 415.827C202.2 400.027 243.8 381.727 275.8 361.027C352 311.727 419.8 292.527 479 303.527ZM442.7 161.227C506.6 181.327 499.2 228.427 500 246.927C430 210.227 345.8 223.627 247.3 287.327C173.9 334.727 112.5 354.327 62.9 346.027C13.4 337.727 2.2 277.127 0 261.127C54.4 288.627 127.4 272.827 218.9 213.727C304.2 158.627 378.7 141.127 442.7 161.227ZM304.3 23.1272L349.2 68.0272C352.6 71.4272 352.6 76.9272 349.2 80.2272C348 81.4272 346.5 82.2272 344.8 82.6272C279.8 95.7272 227.7 114.927 188.7 140.127C121.9 183.227 65 203.327 17.9 200.227L195.1 23.1272C225.2 -6.97275 274.1 -6.97275 304.3 23.1272Z" fill="url(#paint0_linear_1_10204)"/>
</g>
<defs>
<linearGradient id="paint0_linear_1_10204" x1="251.473" y1="0.536246" x2="246.571" y2="843.673" gradientUnits="userSpaceOnUse">
<stop stop-color="#3068EF"/>
<stop offset="1" stop-color="#1322AC"/>
</linearGradient>
<clipPath id="clip0_1_10204">
<rect width="500" height="500" fill="white" transform="translate(0 0.527344)"/>
</clipPath>
</defs>
</svg>
