<svg width="500" height="501" viewBox="0 0 500 501" fill="none" xmlns="http://www.w3.org/2000/svg">
<path fill-rule="evenodd" clip-rule="evenodd" d="M91.7998 147.727L249.8 67.4272L407.5 147.727L376.4 165.827L249.8 101.027L122.6 165.927L91.7998 147.727Z" fill="#FFFFFE"/>
<path fill-rule="evenodd" clip-rule="evenodd" d="M250 114.527L132.2 173.127L212.1 210.927C212.1 210.927 231.4 219.227 249.8 219.227C268.2 219.227 287.4 210.927 287.4 210.927L363.2 173.127L250 114.527Z" fill="#ED9D2F"/>
<path fill-rule="evenodd" clip-rule="evenodd" d="M263.9 371.627L367.7 318.127V197.527L311.6 229.527C311.6 229.527 263.9 252.827 263.9 324.627V371.627Z" fill="#ED9D2F"/>
<path fill-rule="evenodd" clip-rule="evenodd" d="M484 182.027V215.927L421.3 247.827V214.027L484 182.027Z" fill="#ED9D2F"/>
<path fill-rule="evenodd" clip-rule="evenodd" d="M188.3 229.427L132.2 197.427V318.027L236 371.627V324.527C236 252.727 188.3 229.427 188.3 229.427Z" fill="#ED9D2F"/>
<path fill-rule="evenodd" clip-rule="evenodd" d="M121.9 225.927V192.227L5 132.627V166.527L91.1 210.227V345.927L236 419.527V385.927L121.9 327.627V225.927Z" fill="#FFFFFE"/>
<path fill-rule="evenodd" clip-rule="evenodd" d="M15.8999 215.927L78.5999 247.827V214.027L15.8999 182.027V215.927Z" fill="#ED9D2F"/>
<path fill-rule="evenodd" clip-rule="evenodd" d="M408.8 176.527L378 192.227V327.627L263.9 385.927V419.527L408.8 345.927V210.227L494.9 166.527V132.627L408.8 176.527Z" fill="#FFFFFE"/>
</svg>
