<svg width="500" height="501" viewBox="0 0 500 501" fill="none" xmlns="http://www.w3.org/2000/svg">
<g clip-path="url(#clip0_1_10218)">
<path d="M250 500.527C388.071 500.527 500 388.599 500 250.527C500 112.456 388.071 0.527344 250 0.527344C111.929 0.527344 0 112.456 0 250.527C0 388.599 111.929 500.527 250 500.527Z" fill="url(#paint0_linear_1_10218)"/>
<path fill-rule="evenodd" clip-rule="evenodd" d="M240.9 90.7274C226.4 92.4274 212.9 99.0274 202.7 109.527C195 117.127 187.8 124.927 180 132.527C176.1 136.527 172.2 140.427 168.3 144.327C164.4 148.227 160 152.427 156 156.527C151.9 160.627 148.5 164.327 144.8 168.127C138.9 174.027 133 179.927 127.1 185.927C122.6 190.627 118.1 195.427 113.7 200.127C111.1 202.927 108.2 205.527 105.7 208.427C95.3998 220.927 89.7998 236.627 89.7998 252.827C89.7998 253.827 89.7998 254.727 89.8998 255.727C90.0998 265.027 92.4998 274.127 96.9998 282.327C99.4998 287.227 102.5 291.927 105.8 296.427C108 299.527 109.6 299.427 112.5 297.027C113.1 296.527 113.6 296.027 114 295.527C116.8 292.527 119.6 289.527 122.5 286.527C126.6 282.227 130.8 277.927 134.8 273.627C138.9 269.327 143.3 264.527 147.6 260.027C149.6 257.827 151.8 255.827 153.9 253.627C158.3 249.027 162.6 244.227 166.9 239.627C171.3 235.027 175.7 230.727 180 226.327C184.3 221.927 189.5 216.327 194.4 211.427C199.2 206.427 203.3 202.227 207.8 197.727C213.6 191.727 219.3 185.527 225.1 179.527C228.7 175.827 232.4 172.327 235.9 168.727C240.9 163.727 245.5 158.827 250.4 153.827C255.3 148.827 258.9 145.527 263.1 141.227C272.4 131.827 281.8 122.327 291.1 112.727C291.7 112.127 292.3 111.527 292.8 110.827C295.1 107.927 295.3 107.327 292.5 105.227C288.2 101.827 283.5 98.8274 278.7 96.2274C270.1 92.2274 260.7 90.1274 251.2 90.1274H250.7C247.3 90.1274 244.1 90.3274 240.9 90.7274ZM323.3 151.927H322.7C314.4 151.927 306.6 155.527 301.3 161.927C300.8 162.427 300.3 162.927 299.8 163.427L284.6 178.327C279.6 183.327 274.2 188.727 269 193.927C264.7 198.227 260.3 202.527 256.1 206.827C251.8 211.127 247.2 216.027 242.6 220.527C238 225.027 233.1 229.827 228.3 234.427L211.3 251.527L179.8 283.027C165.9 297.027 151.9 311.027 138.1 324.927C135.4 327.527 135.4 327.927 138.1 330.727C144.8 337.427 151.5 344.127 158 350.927C162 355.127 167.3 358.027 173 358.927C178.4 360.027 184 359.827 189.4 358.427C193.4 357.427 197.1 355.427 200.1 352.727L216.6 336.727C220.5 333.027 224.4 329.327 228.2 325.527C235.9 317.927 243.4 310.327 251.1 302.727C257.3 296.627 263.7 290.527 270 284.427L295.9 259.227C304 251.327 312.1 243.327 320.2 235.427C321.8 233.027 325.2 232.327 327.6 234.027C328.5 234.627 329.2 235.527 329.6 236.527C333.7 242.627 336 249.727 336 257.127C336 258.427 335.9 259.627 335.8 260.927C335.1 268.327 332.1 275.327 327.1 280.827C321.1 287.227 314.8 293.327 308.6 299.527C304.2 303.927 299.6 308.227 295.2 312.627C289.5 318.327 283.9 324.027 278.1 329.727C277.3 330.627 276.5 331.627 275.6 332.527L270 338.327C265.8 342.527 261.5 346.627 257.4 350.827C253.3 355.027 248.5 360.027 244.1 364.627C243.7 365.027 243.3 365.327 242.9 365.727C237.9 370.327 233.3 375.027 228.6 379.627C226.4 381.827 224.2 384.027 222 386.227C218.2 390.027 214.3 393.827 210.7 397.727C208.5 400.027 208.5 401.527 211.1 403.327C215.4 406.627 220 409.627 224.9 412.127C236.9 417.527 250.3 419.427 263.4 417.627C276.4 416.127 288.6 410.527 298.2 401.727C305.6 395.227 312.1 388.027 319 381.027C324 376.027 329 370.727 334.3 365.627L348.7 351.127C353.1 346.727 357.4 342.227 361.8 337.927C366.2 333.527 371.7 328.327 376.7 323.427C381.7 318.527 386.7 313.527 391.6 308.227C395.6 304.227 399.2 299.827 402.6 295.327C408.8 285.927 412.7 275.227 413.9 264.027C414.6 258.427 414.6 252.827 413.9 247.327C412.4 237.427 408.8 228.027 403.4 219.627C399.5 213.727 394.8 208.327 389.5 203.627C375.7 189.927 362 176.127 348.5 162.227C342.6 155.627 334.1 151.827 325.2 151.827H325L323.3 151.927Z" fill="white"/>
</g>
<defs>
<linearGradient id="paint0_linear_1_10218" x1="35.2964" y1="103.623" x2="436.524" y2="378.148" gradientUnits="userSpaceOnUse">
<stop stop-color="#FF3B3B"/>
<stop offset="1" stop-color="#FF9914"/>
</linearGradient>
<clipPath id="clip0_1_10218">
<rect width="500" height="500" fill="white" transform="translate(0 0.527344)"/>
</clipPath>
</defs>
</svg>
