<svg width="500" height="501" viewBox="0 0 500 501" fill="none" xmlns="http://www.w3.org/2000/svg">
<path d="M249.4 1.42725C237.2 1.42725 227.2 11.3272 227.2 23.7272C227.2 36.1272 237.1 46.0272 249.4 46.0272C261.6 46.0272 271.6 36.1272 271.6 23.7272C271.6 11.3272 261.7 1.42725 249.4 1.42725Z" fill="url(#paint0_radial_1_10221)"/>
<path d="M249.4 13.6274C254.9 13.6274 259.3 18.1274 259.3 23.7274C259.3 29.3274 254.8 33.8274 249.4 33.8274C244 33.8274 239.5 29.3274 239.5 23.7274C239.5 18.1274 243.9 13.6274 249.4 13.6274Z" fill="url(#paint1_radial_1_10221)"/>
<path d="M153.9 60.4272C141.7 60.4272 131.7 70.3272 131.7 82.7272C131.7 95.1272 141.6 105.027 153.9 105.027C166.2 105.027 176.1 95.1272 176.1 82.7272C176.1 70.3272 166.2 60.4272 153.9 60.4272Z" fill="url(#paint2_radial_1_10221)"/>
<path d="M347.1 61.6274C334.9 61.6274 324.9 71.5274 324.9 83.9274C324.9 96.3274 334.8 106.227 347.1 106.227C359.3 106.227 369.3 96.3274 369.3 83.9274C369.3 71.5274 359.5 61.6274 347.1 61.6274Z" fill="url(#paint3_radial_1_10221)"/>
<path d="M153.9 72.7275C159.4 72.7275 163.8 77.2275 163.8 82.8275C163.8 88.3275 159.3 92.9275 153.9 92.9275C148.4 92.9275 144 88.4275 144 82.8275C143.9 77.2275 148.4 72.7275 153.9 72.7275Z" fill="url(#paint4_radial_1_10221)"/>
<path d="M347.1 73.8271C352.6 73.8271 357 78.3271 357 83.9271C357 89.5271 352.7 94.0271 347.1 94.0271C341.5 94.0271 337.2 89.5271 337.2 83.9271C337.2 78.3271 341.7 73.8271 347.1 73.8271Z" fill="url(#paint5_radial_1_10221)"/>
<path d="M249.4 111.827C235.3 111.827 223.9 123.227 223.9 137.427C223.9 151.627 235.3 163.027 249.4 163.027C263.5 163.027 274.9 151.627 274.9 137.427C274.9 123.227 263.6 111.827 249.4 111.827Z" fill="url(#paint6_radial_1_10221)"/>
<path d="M56.2 115.127C44 115.127 34 125.027 34 137.427C34 149.727 43.9 159.727 56.2 159.727C68.5 159.727 78.4 149.827 78.4 137.427C78.3 125.027 68.5 115.127 56.2 115.127Z" fill="url(#paint7_radial_1_10221)"/>
<path d="M443.8 115.127C431.6 115.127 421.6 125.027 421.6 137.427C421.6 149.727 431.5 159.727 443.8 159.727C456 159.727 466 149.827 466 137.427C466 125.027 456.1 115.127 443.8 115.127Z" fill="url(#paint8_radial_1_10221)"/>
<path d="M249.4 124.027C256.7 124.027 262.8 129.927 262.8 137.427C262.8 144.927 256.9 150.827 249.4 150.827C242.1 150.827 236 144.927 236 137.427C236.2 129.927 242.1 124.027 249.4 124.027Z" fill="url(#paint9_radial_1_10221)"/>
<path d="M56.2005 127.327C61.7005 127.327 66.1005 131.827 66.1005 137.427C66.1005 143.027 61.6005 147.527 56.2005 147.527C50.8005 147.527 46.3005 143.027 46.3005 137.427C46.2005 131.827 50.7005 127.327 56.2005 127.327Z" fill="url(#paint10_radial_1_10221)"/>
<path d="M443.8 127.327C449.3 127.327 453.7 131.827 453.7 137.427C453.7 143.027 449.2 147.527 443.8 147.527C438.4 147.527 433.9 143.027 433.9 137.427C433.9 131.827 438.2 127.327 443.8 127.327Z" fill="url(#paint11_radial_1_10221)"/>
<path d="M150.6 167.427C136.5 167.427 125.1 178.827 125.1 193.027C125.1 207.227 136.5 218.627 150.6 218.627C164.7 218.627 176.1 207.227 176.1 193.027C176.1 178.827 164.7 167.427 150.6 167.427Z" fill="url(#paint12_radial_1_10221)"/>
<path d="M347.1 167.427C333 167.427 321.5 178.827 321.5 193.027C321.5 207.227 332.9 218.627 347.1 218.627C361.2 218.627 372.6 207.227 372.6 193.027C372.6 178.827 361.3 167.427 347.1 167.427Z" fill="url(#paint13_radial_1_10221)"/>
<path d="M150.6 179.827C157.9 179.827 164 185.727 164 193.227C164 200.727 158 206.527 150.6 206.527C143.3 206.527 137.2 200.627 137.2 193.127C137.3 185.727 143.3 179.827 150.6 179.827Z" fill="url(#paint14_radial_1_10221)"/>
<path d="M347.1 179.827C354.4 179.827 360.5 185.727 360.5 193.227C360.5 200.727 354.6 206.627 347.1 206.627C339.7 206.627 333.7 200.727 333.7 193.227C333.9 185.727 339.8 179.827 347.1 179.827Z" fill="url(#paint15_radial_1_10221)"/>
<path d="M56.2 227.627C44 227.627 34 237.527 34 249.927C34 262.227 43.9 272.227 56.2 272.227C68.5 272.227 78.4 262.327 78.4 249.927C78.5 237.627 68.5 227.627 56.2 227.627Z" fill="url(#paint16_radial_1_10221)"/>
<path d="M443.8 227.627C431.6 227.627 421.6 237.527 421.6 249.927C421.6 262.227 431.5 272.227 443.8 272.227C456 272.227 466 262.327 466 249.927C466 237.627 456.1 227.627 443.8 227.627Z" fill="url(#paint17_radial_1_10221)"/>
<path d="M250.6 231.027C261 231.027 269.5 239.527 269.5 250.027C269.5 260.527 261 269.027 250.6 269.027C240.2 269.027 231.7 260.527 231.7 250.027C231.7 239.527 240.2 231.027 250.6 231.027Z" fill="url(#paint18_radial_1_10221)"/>
<path d="M56.2005 239.927C61.7005 239.927 66.1005 244.427 66.1005 250.027C66.1005 255.527 61.6005 260.127 56.2005 260.127C50.8005 260.127 46.3005 255.627 46.3005 250.027C46.2005 244.427 50.7005 239.927 56.2005 239.927Z" fill="url(#paint19_radial_1_10221)"/>
<path d="M443.8 239.927C449.3 239.927 453.7 244.427 453.7 250.027C453.7 255.527 449.2 260.127 443.8 260.127C438.4 260.127 433.9 255.627 433.9 250.027C433.8 244.427 438.2 239.927 443.8 239.927Z" fill="url(#paint20_radial_1_10221)"/>
<path d="M153.9 280.027C139.8 280.027 128.4 291.427 128.4 305.627C128.4 319.827 139.8 331.227 153.9 331.227C168 331.227 179.4 319.827 179.4 305.627C179.5 291.527 168.1 280.027 153.9 280.027Z" fill="url(#paint21_radial_1_10221)"/>
<path d="M347.1 280.027C333 280.027 321.5 291.427 321.5 305.627C321.5 319.827 332.9 331.227 347.1 331.227C361.2 331.227 372.6 319.827 372.6 305.627C372.7 291.527 361.3 280.027 347.1 280.027Z" fill="url(#paint22_radial_1_10221)"/>
<path d="M153.9 292.327C161.2 292.327 167.3 298.227 167.3 305.727C167.3 313.127 161.4 319.127 153.9 319.127C146.4 319.127 140.5 313.227 140.5 305.727C140.6 298.327 146.6 292.327 153.9 292.327Z" fill="url(#paint23_radial_1_10221)"/>
<path d="M347.1 292.327C354.4 292.327 360.5 298.227 360.5 305.727C360.5 313.127 354.6 319.127 347.1 319.127C339.7 319.127 333.7 313.227 333.7 305.727C333.9 298.327 339.8 292.327 347.1 292.327Z" fill="url(#paint24_radial_1_10221)"/>
<path d="M249.4 335.827C235.3 335.827 223.9 347.227 223.9 361.427C223.9 375.627 235.3 387.027 249.4 387.027C263.5 387.027 274.9 375.627 274.9 361.427C275 347.327 263.6 335.827 249.4 335.827Z" fill="url(#paint25_radial_1_10221)"/>
<path d="M56.2 340.228C43.9 340.228 34 350.328 34 362.528C34 374.828 43.9 384.828 56.2 384.828C68.5 384.828 78.4 374.928 78.4 362.528C78.5 350.328 68.5 340.228 56.2 340.228Z" fill="url(#paint26_radial_1_10221)"/>
<path d="M443.8 340.228C431.6 340.228 421.6 350.128 421.6 362.528C421.6 374.928 431.5 384.828 443.8 384.828C456 384.828 466 374.928 466 362.528C466 350.328 456.1 340.228 443.8 340.228Z" fill="url(#paint27_radial_1_10221)"/>
<path d="M249.4 348.027C256.7 348.027 262.8 353.927 262.8 361.427C262.8 368.827 256.9 374.827 249.4 374.827C242.1 374.827 236 368.927 236 361.427C236.2 354.027 242.1 348.027 249.4 348.027Z" fill="url(#paint28_radial_1_10221)"/>
<path d="M56.2005 352.427C61.7005 352.427 66.1005 356.927 66.1005 362.527C66.1005 368.027 61.6005 372.627 56.2005 372.627C50.8005 372.627 46.3005 368.127 46.3005 362.527C46.2005 357.027 50.7005 352.427 56.2005 352.427Z" fill="url(#paint29_radial_1_10221)"/>
<path d="M443.8 352.427C449.3 352.427 453.7 356.927 453.7 362.527C453.7 368.027 449.2 372.627 443.8 372.627C438.4 372.627 433.9 368.127 433.9 362.527C433.8 357.027 438.2 352.427 443.8 352.427Z" fill="url(#paint30_radial_1_10221)"/>
<path d="M153.9 396.027C141.7 396.027 131.7 405.927 131.7 418.327C131.7 430.627 141.6 440.627 153.9 440.627C166.2 440.627 176.1 430.727 176.1 418.327C176.2 405.927 166.2 396.027 153.9 396.027Z" fill="url(#paint31_radial_1_10221)"/>
<path d="M347.1 397.127C334.9 397.127 324.9 407.027 324.9 419.427C324.9 431.827 334.8 441.727 347.1 441.727C359.3 441.727 369.3 431.827 369.3 419.427C369.4 407.127 359.5 397.127 347.1 397.127Z" fill="url(#paint32_radial_1_10221)"/>
<path d="M153.9 408.228C159.4 408.228 163.8 412.728 163.8 418.328C163.8 423.828 159.3 428.428 153.9 428.428C148.4 428.428 144 423.928 144 418.328C143.9 412.728 148.4 408.228 153.9 408.228Z" fill="url(#paint33_radial_1_10221)"/>
<path d="M347.1 409.427C352.6 409.427 357 413.927 357 419.527C357 425.127 352.5 429.627 347.1 429.627C341.6 429.627 337.2 425.127 337.2 419.527C337.2 413.827 341.7 409.427 347.1 409.427Z" fill="url(#paint34_radial_1_10221)"/>
<path d="M249.4 455.127C237.2 455.127 227.2 465.027 227.2 477.427C227.2 489.827 237.1 499.727 249.4 499.727C261.6 499.727 271.6 489.827 271.6 477.427C271.6 465.027 261.7 455.127 249.4 455.127Z" fill="url(#paint35_radial_1_10221)"/>
<path d="M249.4 467.327C254.9 467.327 259.3 471.827 259.3 477.427C259.3 483.027 254.8 487.527 249.4 487.527C244 487.527 239.5 483.027 239.5 477.427C239.5 471.827 243.9 467.327 249.4 467.327Z" fill="url(#paint36_radial_1_10221)"/>
<path d="M338.3 189.527L259.4 237.427L265.8 247.927L344.7 200.027L338.3 189.527Z" fill="url(#paint37_radial_1_10221)"/>
<path d="M160.3 188.427L153.8 198.827L233.8 250.127L240.3 239.727L160.3 188.427Z" fill="url(#paint38_radial_1_10221)"/>
<path d="M138.9 193.927L65.5996 239.627L71.9996 250.027L145.3 204.327L138.9 193.927Z" fill="url(#paint39_radial_1_10221)"/>
<path d="M436.6 247.327L357.7 295.227L364.1 305.727L443 257.827L436.6 247.327Z" fill="url(#paint40_radial_1_10221)"/>
<path d="M236.7 251.827L157.8 299.727L164.2 310.227L243.1 262.327L236.7 251.827Z" fill="url(#paint41_radial_1_10221)"/>
<path d="M264.6 250.427L258.1 260.827L338.1 312.127L344.6 301.727L264.6 250.427Z" fill="url(#paint42_radial_1_10221)"/>
<path d="M360.1 190.228L353.6 200.628L433.6 251.928L440.1 241.528L360.1 190.228Z" fill="url(#paint43_radial_1_10221)"/>
<path d="M65.4004 248.627L58.9004 259.027L138.9 310.327L145.4 299.927L65.4004 248.627Z" fill="url(#paint44_radial_1_10221)"/>
<defs>
<radialGradient id="paint0_radial_1_10221" cx="0" cy="0" r="1" gradientUnits="userSpaceOnUse" gradientTransform="translate(249.995 250.525) scale(215.995 216.817)">
<stop stop-color="#FF00FF"/>
<stop offset="1" stop-color="#734CE2"/>
</radialGradient>
<radialGradient id="paint1_radial_1_10221" cx="0" cy="0" r="1" gradientUnits="userSpaceOnUse" gradientTransform="translate(249.995 250.525) scale(215.995 216.817)">
<stop stop-color="#FF00FF"/>
<stop offset="1" stop-color="#734CE2"/>
</radialGradient>
<radialGradient id="paint2_radial_1_10221" cx="0" cy="0" r="1" gradientUnits="userSpaceOnUse" gradientTransform="translate(249.995 250.525) scale(215.995 216.817)">
<stop stop-color="#FF00FF"/>
<stop offset="1" stop-color="#734CE2"/>
</radialGradient>
<radialGradient id="paint3_radial_1_10221" cx="0" cy="0" r="1" gradientUnits="userSpaceOnUse" gradientTransform="translate(249.995 250.525) scale(215.995 216.817)">
<stop stop-color="#FF00FF"/>
<stop offset="1" stop-color="#734CE2"/>
</radialGradient>
<radialGradient id="paint4_radial_1_10221" cx="0" cy="0" r="1" gradientUnits="userSpaceOnUse" gradientTransform="translate(249.995 250.525) scale(215.995 216.818)">
<stop stop-color="#FF00FF"/>
<stop offset="1" stop-color="#734CE2"/>
</radialGradient>
<radialGradient id="paint5_radial_1_10221" cx="0" cy="0" r="1" gradientUnits="userSpaceOnUse" gradientTransform="translate(249.995 250.525) scale(215.995 216.817)">
<stop stop-color="#FF00FF"/>
<stop offset="1" stop-color="#734CE2"/>
</radialGradient>
<radialGradient id="paint6_radial_1_10221" cx="0" cy="0" r="1" gradientUnits="userSpaceOnUse" gradientTransform="translate(249.995 250.525) scale(215.995 216.817)">
<stop stop-color="#FF00FF"/>
<stop offset="1" stop-color="#734CE2"/>
</radialGradient>
<radialGradient id="paint7_radial_1_10221" cx="0" cy="0" r="1" gradientUnits="userSpaceOnUse" gradientTransform="translate(249.995 250.525) scale(215.995 216.817)">
<stop stop-color="#FF00FF"/>
<stop offset="1" stop-color="#734CE2"/>
</radialGradient>
<radialGradient id="paint8_radial_1_10221" cx="0" cy="0" r="1" gradientUnits="userSpaceOnUse" gradientTransform="translate(249.995 250.525) scale(215.995 216.817)">
<stop stop-color="#FF00FF"/>
<stop offset="1" stop-color="#734CE2"/>
</radialGradient>
<radialGradient id="paint9_radial_1_10221" cx="0" cy="0" r="1" gradientUnits="userSpaceOnUse" gradientTransform="translate(249.995 250.525) scale(215.995 216.818)">
<stop stop-color="#FF00FF"/>
<stop offset="1" stop-color="#734CE2"/>
</radialGradient>
<radialGradient id="paint10_radial_1_10221" cx="0" cy="0" r="1" gradientUnits="userSpaceOnUse" gradientTransform="translate(249.995 250.525) scale(215.995 216.817)">
<stop stop-color="#FF00FF"/>
<stop offset="1" stop-color="#734CE2"/>
</radialGradient>
<radialGradient id="paint11_radial_1_10221" cx="0" cy="0" r="1" gradientUnits="userSpaceOnUse" gradientTransform="translate(249.995 250.525) scale(215.995 216.817)">
<stop stop-color="#FF00FF"/>
<stop offset="1" stop-color="#734CE2"/>
</radialGradient>
<radialGradient id="paint12_radial_1_10221" cx="0" cy="0" r="1" gradientUnits="userSpaceOnUse" gradientTransform="translate(249.995 250.525) scale(215.995 216.818)">
<stop stop-color="#FF00FF"/>
<stop offset="1" stop-color="#734CE2"/>
</radialGradient>
<radialGradient id="paint13_radial_1_10221" cx="0" cy="0" r="1" gradientUnits="userSpaceOnUse" gradientTransform="translate(249.995 250.525) scale(215.995 216.818)">
<stop stop-color="#FF00FF"/>
<stop offset="1" stop-color="#734CE2"/>
</radialGradient>
<radialGradient id="paint14_radial_1_10221" cx="0" cy="0" r="1" gradientUnits="userSpaceOnUse" gradientTransform="translate(249.995 250.525) scale(215.995 216.817)">
<stop stop-color="#FF00FF"/>
<stop offset="1" stop-color="#734CE2"/>
</radialGradient>
<radialGradient id="paint15_radial_1_10221" cx="0" cy="0" r="1" gradientUnits="userSpaceOnUse" gradientTransform="translate(249.995 250.525) scale(215.995 216.818)">
<stop stop-color="#FF00FF"/>
<stop offset="1" stop-color="#734CE2"/>
</radialGradient>
<radialGradient id="paint16_radial_1_10221" cx="0" cy="0" r="1" gradientUnits="userSpaceOnUse" gradientTransform="translate(249.995 250.525) scale(215.995 216.818)">
<stop stop-color="#FF00FF"/>
<stop offset="1" stop-color="#734CE2"/>
</radialGradient>
<radialGradient id="paint17_radial_1_10221" cx="0" cy="0" r="1" gradientUnits="userSpaceOnUse" gradientTransform="translate(249.995 250.525) scale(215.995 216.818)">
<stop stop-color="#FF00FF"/>
<stop offset="1" stop-color="#734CE2"/>
</radialGradient>
<radialGradient id="paint18_radial_1_10221" cx="0" cy="0" r="1" gradientUnits="userSpaceOnUse" gradientTransform="translate(249.995 250.525) scale(215.995 216.817)">
<stop stop-color="#FF00FF"/>
<stop offset="1" stop-color="#734CE2"/>
</radialGradient>
<radialGradient id="paint19_radial_1_10221" cx="0" cy="0" r="1" gradientUnits="userSpaceOnUse" gradientTransform="translate(249.995 250.525) scale(215.995 216.818)">
<stop stop-color="#FF00FF"/>
<stop offset="1" stop-color="#734CE2"/>
</radialGradient>
<radialGradient id="paint20_radial_1_10221" cx="0" cy="0" r="1" gradientUnits="userSpaceOnUse" gradientTransform="translate(249.995 250.525) scale(215.995 216.818)">
<stop stop-color="#FF00FF"/>
<stop offset="1" stop-color="#734CE2"/>
</radialGradient>
<radialGradient id="paint21_radial_1_10221" cx="0" cy="0" r="1" gradientUnits="userSpaceOnUse" gradientTransform="translate(249.995 250.525) scale(215.995 216.818)">
<stop stop-color="#FF00FF"/>
<stop offset="1" stop-color="#734CE2"/>
</radialGradient>
<radialGradient id="paint22_radial_1_10221" cx="0" cy="0" r="1" gradientUnits="userSpaceOnUse" gradientTransform="translate(249.995 250.525) scale(215.995 216.818)">
<stop stop-color="#FF00FF"/>
<stop offset="1" stop-color="#734CE2"/>
</radialGradient>
<radialGradient id="paint23_radial_1_10221" cx="0" cy="0" r="1" gradientUnits="userSpaceOnUse" gradientTransform="translate(249.995 250.525) scale(215.995 216.818)">
<stop stop-color="#FF00FF"/>
<stop offset="1" stop-color="#734CE2"/>
</radialGradient>
<radialGradient id="paint24_radial_1_10221" cx="0" cy="0" r="1" gradientUnits="userSpaceOnUse" gradientTransform="translate(249.995 250.525) scale(215.995 216.818)">
<stop stop-color="#FF00FF"/>
<stop offset="1" stop-color="#734CE2"/>
</radialGradient>
<radialGradient id="paint25_radial_1_10221" cx="0" cy="0" r="1" gradientUnits="userSpaceOnUse" gradientTransform="translate(249.995 250.525) scale(215.995 216.818)">
<stop stop-color="#FF00FF"/>
<stop offset="1" stop-color="#734CE2"/>
</radialGradient>
<radialGradient id="paint26_radial_1_10221" cx="0" cy="0" r="1" gradientUnits="userSpaceOnUse" gradientTransform="translate(249.995 250.525) scale(215.995 216.817)">
<stop stop-color="#FF00FF"/>
<stop offset="1" stop-color="#734CE2"/>
</radialGradient>
<radialGradient id="paint27_radial_1_10221" cx="0" cy="0" r="1" gradientUnits="userSpaceOnUse" gradientTransform="translate(249.995 250.525) scale(215.995 216.817)">
<stop stop-color="#FF00FF"/>
<stop offset="1" stop-color="#734CE2"/>
</radialGradient>
<radialGradient id="paint28_radial_1_10221" cx="0" cy="0" r="1" gradientUnits="userSpaceOnUse" gradientTransform="translate(249.995 250.525) scale(215.995 216.817)">
<stop stop-color="#FF00FF"/>
<stop offset="1" stop-color="#734CE2"/>
</radialGradient>
<radialGradient id="paint29_radial_1_10221" cx="0" cy="0" r="1" gradientUnits="userSpaceOnUse" gradientTransform="translate(249.995 250.525) scale(215.995 216.818)">
<stop stop-color="#FF00FF"/>
<stop offset="1" stop-color="#734CE2"/>
</radialGradient>
<radialGradient id="paint30_radial_1_10221" cx="0" cy="0" r="1" gradientUnits="userSpaceOnUse" gradientTransform="translate(249.995 250.525) scale(215.995 216.818)">
<stop stop-color="#FF00FF"/>
<stop offset="1" stop-color="#734CE2"/>
</radialGradient>
<radialGradient id="paint31_radial_1_10221" cx="0" cy="0" r="1" gradientUnits="userSpaceOnUse" gradientTransform="translate(249.995 250.525) scale(215.995 216.818)">
<stop stop-color="#FF00FF"/>
<stop offset="1" stop-color="#734CE2"/>
</radialGradient>
<radialGradient id="paint32_radial_1_10221" cx="0" cy="0" r="1" gradientUnits="userSpaceOnUse" gradientTransform="translate(249.995 250.525) scale(215.995 216.818)">
<stop stop-color="#FF00FF"/>
<stop offset="1" stop-color="#734CE2"/>
</radialGradient>
<radialGradient id="paint33_radial_1_10221" cx="0" cy="0" r="1" gradientUnits="userSpaceOnUse" gradientTransform="translate(249.995 250.525) scale(215.995 216.817)">
<stop stop-color="#FF00FF"/>
<stop offset="1" stop-color="#734CE2"/>
</radialGradient>
<radialGradient id="paint34_radial_1_10221" cx="0" cy="0" r="1" gradientUnits="userSpaceOnUse" gradientTransform="translate(249.995 250.525) scale(215.995 216.818)">
<stop stop-color="#FF00FF"/>
<stop offset="1" stop-color="#734CE2"/>
</radialGradient>
<radialGradient id="paint35_radial_1_10221" cx="0" cy="0" r="1" gradientUnits="userSpaceOnUse" gradientTransform="translate(249.995 250.525) scale(215.995 216.818)">
<stop stop-color="#FF00FF"/>
<stop offset="1" stop-color="#734CE2"/>
</radialGradient>
<radialGradient id="paint36_radial_1_10221" cx="0" cy="0" r="1" gradientUnits="userSpaceOnUse" gradientTransform="translate(249.995 250.525) scale(215.995 216.818)">
<stop stop-color="#FF00FF"/>
<stop offset="1" stop-color="#734CE2"/>
</radialGradient>
<radialGradient id="paint37_radial_1_10221" cx="0" cy="0" r="1" gradientUnits="userSpaceOnUse" gradientTransform="translate(249.995 250.525) scale(215.995 216.817)">
<stop stop-color="#FF00FF"/>
<stop offset="1" stop-color="#734CE2"/>
</radialGradient>
<radialGradient id="paint38_radial_1_10221" cx="0" cy="0" r="1" gradientUnits="userSpaceOnUse" gradientTransform="translate(249.995 250.525) scale(215.995 216.818)">
<stop stop-color="#FF00FF"/>
<stop offset="1" stop-color="#734CE2"/>
</radialGradient>
<radialGradient id="paint39_radial_1_10221" cx="0" cy="0" r="1" gradientUnits="userSpaceOnUse" gradientTransform="translate(249.995 250.525) scale(215.995 216.817)">
<stop stop-color="#FF00FF"/>
<stop offset="1" stop-color="#734CE2"/>
</radialGradient>
<radialGradient id="paint40_radial_1_10221" cx="0" cy="0" r="1" gradientUnits="userSpaceOnUse" gradientTransform="translate(249.995 250.525) scale(215.995 216.818)">
<stop stop-color="#FF00FF"/>
<stop offset="1" stop-color="#734CE2"/>
</radialGradient>
<radialGradient id="paint41_radial_1_10221" cx="0" cy="0" r="1" gradientUnits="userSpaceOnUse" gradientTransform="translate(249.995 250.525) scale(215.995 216.818)">
<stop stop-color="#FF00FF"/>
<stop offset="1" stop-color="#734CE2"/>
</radialGradient>
<radialGradient id="paint42_radial_1_10221" cx="0" cy="0" r="1" gradientUnits="userSpaceOnUse" gradientTransform="translate(249.995 250.525) scale(215.995 216.818)">
<stop stop-color="#FF00FF"/>
<stop offset="1" stop-color="#734CE2"/>
</radialGradient>
<radialGradient id="paint43_radial_1_10221" cx="0" cy="0" r="1" gradientUnits="userSpaceOnUse" gradientTransform="translate(249.995 250.525) scale(215.995 216.817)">
<stop stop-color="#FF00FF"/>
<stop offset="1" stop-color="#734CE2"/>
</radialGradient>
<radialGradient id="paint44_radial_1_10221" cx="0" cy="0" r="1" gradientUnits="userSpaceOnUse" gradientTransform="translate(249.995 250.525) scale(215.995 216.817)">
<stop stop-color="#FF00FF"/>
<stop offset="1" stop-color="#734CE2"/>
</radialGradient>
</defs>
</svg>
