<svg width="500" height="501" viewBox="0 0 500 501" fill="none" xmlns="http://www.w3.org/2000/svg">
<path d="M282.644 214.902C295.379 213.357 307.312 215.578 318.846 220.341C331.129 225.414 341.858 232.768 350.898 242.521C355.958 247.979 360.223 253.992 362.745 261.067C364.391 265.683 364.892 270.428 364.466 275.373C363.309 288.829 357.223 300.096 349.169 310.476C341.763 320.02 332.794 327.933 322.963 334.926C314.085 341.241 304.605 346.48 294.826 351.224C288.543 354.272 282.045 356.797 275.305 358.557C269.975 359.949 264.577 361.117 259.191 362.31C256.247 362.962 253.252 363.363 250.31 364.051C248.436 364.488 246.354 364.507 244.416 364.88C240.599 365.616 236.728 365.883 232.889 366.383C229.677 366.802 226.434 367.152 223.148 367.111C220.093 367.072 217.025 367.455 213.954 367.456C206.796 367.459 199.623 367.744 192.486 367.36C188.29 367.135 184.064 367.07 179.854 366.505C176.521 366.058 173.154 365.545 169.752 365.421C167.355 365.334 164.994 364.407 162.594 364.277C159.51 364.11 156.591 363.135 153.539 362.841C151.314 362.627 149.114 362.064 146.925 361.561C142.388 360.519 137.854 359.456 133.341 358.316C131.061 357.74 128.831 356.971 126.574 356.304C122.928 355.227 119.245 354.26 115.638 353.065C111.9 351.827 108.232 350.376 104.536 349.012C98.4942 346.782 92.5759 344.241 86.7507 341.513C80.9752 338.81 75.3009 335.888 69.7074 332.805C66.5684 331.076 63.4767 329.266 60.4427 327.381C55.9307 324.577 51.4357 321.74 47.1377 318.59C43.6062 316.003 40.0022 313.519 36.5959 310.76C33.4614 308.222 30.3522 305.661 27.2959 303.024C22.2702 298.687 17.4057 294.194 12.8042 289.419C10.2044 286.721 7.73941 283.894 5.19141 281.1C5.91316 280.632 6.21191 281.127 6.54591 281.442C18.6802 292.887 32.2524 302.338 46.7157 310.585C59.1914 317.698 72.1714 323.703 85.5432 328.921C97.8957 333.741 110.521 337.697 123.34 341.014C132.737 343.446 142.255 345.411 151.847 346.905C159.392 348.08 166.974 349.012 174.595 349.669C186.651 350.709 198.72 351.073 210.793 350.479C217.847 350.131 224.89 349.441 231.9 348.402C240.964 347.059 249.869 345.088 258.633 342.46C269.345 339.248 279.781 335.299 289.633 329.978C295.459 326.833 300.987 323.201 306.085 318.913C311.021 314.763 315.357 310.128 318.906 304.741C321.442 300.892 323.365 296.735 324.488 292.31C325.599 287.932 326.468 283.444 326.039 278.864C325.39 271.945 323.766 265.297 320.831 258.942C318.055 252.934 314.496 247.436 310.577 242.156C308.894 239.888 306.892 237.858 305.079 235.684C301.603 231.517 297.666 227.804 293.629 224.207C290.65 221.552 287.487 219.104 284.417 216.552C283.855 216.083 283.342 215.555 282.644 214.902ZM201.866 231.808C202.18 231.254 201.792 230.884 201.498 230.518C197.683 225.767 194.286 220.734 191.285 215.433C185.287 204.836 181.099 193.742 181.724 181.28C181.917 177.44 182.582 173.704 183.872 170.099C187.556 159.806 194.608 152.21 203.342 145.982C209.751 141.411 216.726 137.902 223.991 134.93C232.864 131.301 242.062 128.721 251.358 126.473C255.215 125.54 259.142 124.883 263.019 124.072C266.089 123.431 269.209 123.046 272.277 122.368C275.732 121.605 279.325 121.422 282.854 120.947C287.174 120.367 291.525 119.994 295.87 119.637C300.452 119.261 305.043 118.988 309.633 118.708C316.787 118.27 323.951 118.384 331.113 118.371C336.195 118.362 341.262 118.692 346.319 119.066C348.085 119.196 349.866 119.073 351.606 119.351C353.934 119.723 356.278 120.063 358.617 119.96C360.249 119.888 361.807 120.234 363.392 120.357C366.758 120.617 370.088 121.404 373.454 121.585C377.227 121.788 380.893 122.651 384.633 123.043C387.641 123.359 390.648 123.989 393.645 124.531C398.293 125.372 402.961 126.154 407.547 127.266C412.255 128.408 417.003 129.373 421.689 130.639C426.958 132.061 432.275 133.318 437.495 134.925C444.677 137.136 451.835 139.418 458.882 142.04C463.891 143.905 468.875 145.818 473.807 147.889C478.721 149.953 483.651 151.968 488.448 154.298C490.671 155.378 492.926 156.393 495.267 157.484C495.235 156.655 494.728 156.481 494.336 156.233C483.046 149.082 471.271 142.858 458.992 137.571C449.539 133.5 439.918 129.881 430.116 126.76C417.343 122.695 404.376 119.388 391.246 116.649C381.434 114.602 371.572 112.91 361.649 111.592C346.693 109.606 331.668 108.363 316.579 108.044C297.41 107.638 278.298 108.306 259.259 110.801C251.604 111.804 243.975 113.001 236.442 114.59C228.32 116.303 220.232 118.322 212.402 121.159C208.674 122.51 204.987 123.999 201.369 125.619C195.928 128.056 190.692 130.904 185.617 134.039C178.712 138.305 172.192 143.091 166.311 148.696C164.086 150.817 161.947 153.025 159.919 155.36C155.456 160.499 151.625 165.988 148.896 172.259C146.174 178.513 144.984 184.935 146.024 191.718C146.572 195.292 147.741 198.669 149.551 201.776C153.121 207.903 158.163 212.654 163.996 216.57C171.583 221.663 180.002 225.044 188.577 228.005C192.927 229.508 197.441 230.535 201.882 231.777L201.866 231.808ZM269.692 201.902C268.117 199.565 266.828 197.061 267.208 194.111C267.745 189.939 270.669 187.803 274.132 186.06C279.599 183.309 285.572 183.126 291.45 182.455C295.823 181.955 300.196 182.441 304.535 182.875C305.866 183.008 307.222 182.897 308.524 183.172C312.475 184.007 316.494 184.449 320.431 185.391C326.774 186.91 333.061 188.613 339.15 190.947C347.318 194.079 355.109 197.977 362.51 202.671C368.158 206.254 373.463 210.247 378.337 214.829C383.04 219.25 387.387 223.977 391.139 229.237C394.383 233.785 397.249 238.544 399.627 243.615C401.581 247.781 403.15 252.081 404.544 256.444C405.926 260.773 406.377 265.305 406.903 269.794C407.412 274.135 406.582 278.422 405.802 282.682C405.347 285.168 404.647 287.587 403.86 289.999C402.106 295.37 399.406 300.266 396.07 304.724C391.424 310.933 385.909 316.349 379.739 321.113C373.839 325.669 367.486 329.458 360.958 333.002C359.397 333.85 357.632 334.358 356.237 335.589C356.606 335.925 356.871 335.878 357.201 335.751C365.436 332.579 373.631 329.323 381.406 325.103C387.673 321.701 393.713 317.976 399.328 313.547C406.204 308.123 412.237 301.952 416.922 294.529C423.787 283.65 426.521 271.783 424.861 259.037C423.565 249.085 419.814 239.96 414.463 231.511C407.667 220.781 399.047 211.712 389.124 203.809C376.125 193.458 361.759 185.625 346.045 180.316C337.612 177.467 328.968 175.415 320.153 173.987C313.057 172.838 305.934 172.198 298.78 171.843C291.9 171.501 285.032 172.036 278.253 173.182C272.852 174.096 267.511 175.404 262.891 178.632C257.879 182.134 256.551 187.005 259.364 192.369C262.441 198.239 267.465 202.368 272.923 206.022C271.839 204.653 270.665 203.346 269.692 201.902ZM171.148 129.716C165.398 131.743 159.788 134.103 154.355 136.856C145.547 141.321 137.195 146.487 129.541 152.794C124.499 156.949 119.747 161.355 115.64 166.426C110.794 172.411 106.793 178.885 104.065 186.15C102.424 190.523 101.357 195.02 101.089 199.61C100.833 204.004 100.949 208.461 102.02 212.813C103.334 218.151 105.266 223.236 108.035 227.992C110.731 232.621 113.961 236.825 117.5 240.864C121.988 245.984 127.065 250.388 132.429 254.504C135.817 257.105 139.43 259.395 143.155 261.466C146.05 263.075 149.013 264.578 152.021 265.993C156.064 267.896 160.204 269.55 164.396 271.061C168.502 272.541 172.712 273.705 176.944 274.807C183.771 276.585 190.662 277.806 197.726 277.956C203.152 278.071 208.577 278.206 213.854 276.555C217.467 275.425 220.8 273.796 222.937 270.556C225.444 266.758 224.935 262.682 223.494 258.634C221.645 253.441 218.468 249.042 215.077 244.79C214.582 244.169 214.215 243.196 213.01 243.099C214.392 245.599 215.494 248.063 215.868 250.724C216.199 253.086 216.144 255.463 214.668 257.592C212.67 260.474 209.696 261.81 206.516 262.64C199.289 264.528 191.994 263.753 184.797 262.509C177.291 261.212 170.068 258.857 162.992 255.968C152.436 251.658 143.323 245.288 135.395 237.209C130.979 232.709 127.055 227.785 123.89 222.271C117.932 211.891 115.454 200.837 117.326 188.967C118.617 180.784 121.849 173.316 126.387 166.41C132.572 157 140.506 149.304 149.582 142.71C156.842 137.435 164.648 133.143 172.832 129.49C172.267 129.573 171.728 129.511 171.148 129.716ZM201.884 231.773C201.947 231.726 202.133 231.968 202.089 231.681C202.015 231.723 201.94 231.765 201.866 231.807C201.866 231.807 201.882 231.776 201.884 231.773Z" fill="#0283C6"/>
</svg>
