<svg width="500" height="501" viewBox="0 0 500 501" fill="none" xmlns="http://www.w3.org/2000/svg">
<g clip-path="url(#clip0_1_10270)">
<path d="M250 0.527344C388.1 0.527344 500 112.427 500 250.527C500 388.627 388.1 500.527 250 500.527C111.9 500.527 0 388.627 0 250.527C0 112.427 111.9 0.527344 250 0.527344Z" fill="#7D00FF"/>
<path d="M406.2 167.228H302.1V201.928H406.3V167.228H406.2ZM232.6 201.928H197.9V236.628H232.6V201.928ZM197.9 375.528H232.6V271.328H197.9V375.528ZM267.4 201.928V236.628H302.1V201.928H267.4ZM267.4 375.528H302.1V271.328H267.4V375.528ZM267.4 167.228H232.7V201.928H267.4V167.228ZM93.7998 167.228V201.928H198V167.228H93.7998ZM406.2 271.328V236.628H302.1V271.328H406.2ZM232.6 236.628V271.328H267.3V236.628H232.6ZM93.7998 236.628V271.328H198V236.628H93.7998Z" fill="white"/>
</g>
<defs>
<clipPath id="clip0_1_10270">
<rect width="500" height="500" fill="white" transform="translate(0 0.527344)"/>
</clipPath>
</defs>
</svg>
