<svg width="500" height="501" viewBox="0 0 500 501" fill="none" xmlns="http://www.w3.org/2000/svg">
<g clip-path="url(#clip0_1_10273)">
<path d="M250 500.527C388.071 500.527 500 388.599 500 250.527C500 112.456 388.071 0.527344 250 0.527344C111.929 0.527344 0 112.456 0 250.527C0 388.599 111.929 500.527 250 500.527Z" fill="black"/>
<path d="M208.6 229.627H166.7V271.527H208.6V229.627Z" fill="white"/>
<path d="M166.7 187.728H124.8V229.628H166.7V187.728Z" fill="white"/>
<path d="M124.9 229.627H83V271.527H124.9V229.627Z" fill="white"/>
<path d="M166.7 271.427H124.8V313.327H166.7V271.427Z" fill="white"/>
<path d="M404.7 196.727C401.7 165.927 375.2 155.627 341.6 152.627V132.927H315.6V151.527C308.8 151.527 301.8 151.627 294.8 151.827V132.927H268.8V152.627C263.2 152.727 228.6 152.727 228.6 152.727L228.5 175.627L250.2 175.727V325.927H228.5L228.3 348.527C234.6 348.527 262.6 348.627 268.7 348.727V368.227H294.7V349.227C301.8 349.427 308.7 349.427 315.5 349.427V368.227H341.5V348.827C385.2 346.327 415.8 335.327 419.6 294.327C422.7 261.327 407.1 246.527 382.3 240.527C397.4 232.727 406.9 219.227 404.7 196.727ZM368.2 289.127C368.2 321.427 312.9 317.727 295.3 317.727V260.527C313 260.427 368.2 255.427 368.2 289.127ZM356.2 208.327C356.2 237.727 310.1 234.227 295.4 234.227V182.327C310.1 182.327 356.2 177.727 356.2 208.327Z" fill="white"/>
</g>
<defs>
<clipPath id="clip0_1_10273">
<rect width="500" height="500" fill="white" transform="translate(0 0.527344)"/>
</clipPath>
</defs>
</svg>
