<svg width="500" height="501" viewBox="0 0 500 501" fill="none" xmlns="http://www.w3.org/2000/svg">
<g clip-path="url(#clip0_1_10280)">
<path fill-rule="evenodd" clip-rule="evenodd" d="M443.2 249.227C443.2 356.627 356.1 443.727 248.7 443.727C141.3 443.727 54.2 356.627 54.2 249.227C54.2 141.827 141.3 54.7273 248.7 54.7273C356.2 54.8273 443.2 141.827 443.2 249.227ZM497.5 249.227C497.5 386.627 386.1 498.027 248.7 498.027C111.4 498.027 0 386.627 0 249.227C0 111.927 111.4 0.527344 248.7 0.527344C386.1 0.527344 497.5 111.927 497.5 249.227ZM248.7 192.527C263.2 192.527 274.8 180.727 274.8 166.427C274.8 151.927 263 140.327 248.7 140.327C234.2 140.327 222.6 152.127 222.6 166.427C222.6 180.927 234.2 192.527 248.7 192.527ZM333.7 233.227H163.7C162 233.227 160.6 234.627 160.6 236.327V264.927C160.6 266.627 162 268.027 163.7 268.027H228.2V355.327C228.2 357.027 229.6 358.427 231.3 358.427H266.5C268.2 358.427 269.6 357.027 269.6 355.327V268.027H334.1C335.8 268.027 337.2 266.627 337.2 264.927V236.327C336.8 234.527 335.5 233.227 333.7 233.227Z" fill="#080503"/>
</g>
<defs>
<clipPath id="clip0_1_10280">
<rect width="500" height="500" fill="white" transform="translate(0 0.527344)"/>
</clipPath>
</defs>
</svg>
