<svg width="500" height="501" viewBox="0 0 500 501" fill="none" xmlns="http://www.w3.org/2000/svg">
<path d="M250 35.8274C307.3 35.8274 361.2 58.1274 401.8 98.7274C442.3 139.227 464.7 193.127 464.7 250.527C464.7 307.927 442.4 361.727 401.8 402.327C361.3 442.827 307.4 465.227 250 465.227C192.6 465.227 138.8 442.927 98.2002 402.327C57.7002 361.827 35.3002 307.927 35.3002 250.527C35.3002 193.127 57.7002 139.227 98.2002 98.7274C138.8 58.1274 192.7 35.8274 250 35.8274ZM250 4.12744C114 4.12744 3.7002 114.427 3.7002 250.427C3.7002 386.527 114 496.727 250 496.727C386 496.727 496.3 386.527 496.3 250.427C496.3 114.427 386 4.12744 250 4.12744Z" fill="#2871DA"/>
<path d="M371.3 240.927C381.5 240.927 389.8 232.627 389.8 222.427C389.8 212.227 381.5 203.927 371.3 203.927H316.9L316.6 157.427H373.7C383.9 157.427 392.2 149.127 392.2 138.927C392.2 128.727 383.9 120.427 373.7 120.427H141C130.8 120.427 122.5 128.727 122.5 138.927C122.5 149.127 130.8 157.427 141 157.427H195.8L196.1 203.927H180.3C142 203.927 110.9 235.027 110.9 273.327C110.9 311.627 142 342.727 180.3 342.727H197.2L197.5 377.927C197.6 388.027 205.8 396.227 216 396.227H216.1C226.3 396.127 234.5 387.827 234.4 377.627L234.1 342.727H281L281.3 377.927C281.4 388.027 289.6 396.227 299.8 396.227H299.9C310.1 396.127 318.3 387.827 318.2 377.627L317.9 342.727H370.5C380.7 342.727 389 334.427 389 324.227C389 314.027 380.7 305.727 370.5 305.727H317.6L317.1 240.727H371.3V240.927ZM232.7 157.427H279.6L279.9 203.927H233L232.7 157.427ZM180.3 305.927C162.4 305.927 147.8 291.327 147.8 273.427C147.8 255.527 162.4 240.927 180.3 240.927H196.4L196.9 305.927H180.3ZM280.7 305.927H233.8L233.3 240.927H280.2L280.7 305.927Z" fill="#2871DA"/>
</svg>
