<svg width="500" height="501" viewBox="0 0 500 501" fill="none" xmlns="http://www.w3.org/2000/svg">
<path d="M6.82422 315.217C6.82422 312.654 6.82422 310.09 6.82422 307.527C7.17722 305.959 7.59222 304.403 7.87522 302.822C9.97422 291.07 12.0462 279.314 14.1292 267.559C23.0162 217.42 31.9052 167.281 40.7892 117.142C41.5952 112.595 43.0432 108.258 45.0042 104.087C47.8372 98.0644 51.4872 92.5704 55.8812 87.5834C63.5932 78.8284 72.6832 72.1734 83.8422 68.2634C108.093 59.7654 132.245 50.9854 156.438 42.3194C191.234 29.8554 226.031 17.3914 260.825 4.92237C264.46 3.61937 268.188 2.73137 272.015 2.22937C273.48 2.03737 274.935 1.76337 276.394 1.52637C279.227 1.52637 282.061 1.52637 284.894 1.52637C285.484 1.65437 286.068 1.82137 286.664 1.90337C288.868 2.20637 291.088 2.40337 293.279 2.78037C305.472 4.87837 316.504 9.42537 326.023 17.5914C336.308 26.4154 346.863 34.9254 357.302 43.5714C394.954 74.7544 432.617 105.924 470.234 137.149C472.658 139.161 474.924 141.441 476.922 143.876C484.976 153.689 489.76 165.012 491.955 177.469C492.176 178.721 492.344 179.982 492.536 181.239C492.536 185.287 492.536 189.334 492.536 193.382C492.302 194.702 492.067 196.022 491.834 197.343C490.131 206.974 488.43 216.606 486.723 226.237C477.695 277.179 468.654 328.12 459.653 379.067C458.792 383.942 457.593 388.692 455.57 393.218C451.088 403.247 444.506 411.7 436.225 418.854C430.765 423.571 424.704 427.298 417.869 429.713C411.7 431.893 405.544 434.111 399.383 436.317C367.248 447.824 335.115 459.335 302.98 470.841C281.895 478.391 260.807 485.928 239.725 493.487C235.835 494.882 231.859 495.888 227.762 496.425C226.697 496.564 225.642 496.775 224.582 496.953C221.209 496.953 217.836 496.953 214.463 496.953C213.871 496.832 213.284 496.647 212.687 496.599C208.1 496.23 203.605 495.354 199.172 494.15C190.136 491.696 181.958 487.654 174.739 481.578C162.306 471.114 149.726 460.824 137.206 450.464C101.31 420.761 65.4002 391.068 29.5322 361.327C27.3122 359.486 25.2342 357.41 23.3872 355.195C14.5602 344.606 9.53522 332.338 7.61622 318.738C7.44822 317.55 7.09222 316.39 6.82422 315.217ZM297.501 318.97C296.237 318.895 295.313 318.793 294.389 318.792C280.427 318.781 266.465 318.843 252.505 318.739C249.29 318.715 246.011 318.437 242.881 317.74C237.019 316.435 234.09 312.771 233.545 306.783C233.484 306.112 233.483 305.436 233.459 304.762C233.321 300.826 233.856 296.947 234.593 293.105C239 270.121 243.445 247.145 247.885 224.168C248.518 220.894 248.54 220.893 251.964 220.896C272.333 220.91 292.702 220.927 313.071 220.942C313.88 220.943 314.692 220.963 315.498 220.91C316.916 220.817 317.187 220.574 317.568 219.165C317.674 218.775 317.736 218.374 317.813 217.976C319.872 207.384 321.932 196.791 323.986 186.198C324.089 185.669 324.168 185.134 324.218 184.598C324.293 183.794 323.938 183.289 323.104 183.234C322.365 183.185 321.622 183.173 320.881 183.173C300.175 183.188 279.468 183.208 258.762 183.222C255.948 183.224 255.829 183.085 256.36 180.341C258.117 171.27 259.887 162.202 261.652 153.132C262.773 147.373 263.91 141.616 265.005 135.852C265.403 133.76 265.118 133.445 263.058 133.367C262.721 133.354 262.384 133.358 262.046 133.358C256.853 133.357 251.657 133.445 246.467 133.317C244.21 133.262 242.763 133.957 241.494 135.916C236.825 143.124 231.379 149.737 225.376 155.877C212.095 169.462 196.672 179.924 179.156 187.263C177.248 188.063 176.329 189.154 175.963 191.173C174.339 200.131 172.578 209.065 170.872 218.008C170.34 220.798 170.487 220.976 173.439 220.98C181.33 220.99 189.222 220.98 197.113 220.988C200.258 220.991 200.341 221.1 199.67 224.245C196.446 239.349 193.152 254.439 190.013 269.561C188.11 278.732 185.838 287.841 185.156 297.237C184.506 306.191 185.031 315.031 187.357 323.722C189.642 332.259 193.441 340.027 199.522 346.522C208.24 355.834 219.098 360.457 231.797 360.537C249.535 360.649 267.274 360.568 285.013 360.569C285.418 360.569 285.823 360.575 286.227 360.549C287.765 360.448 288.013 360.243 288.464 358.718C288.559 358.395 288.626 358.063 288.702 357.735C291.505 345.646 294.309 333.558 297.102 321.466C297.267 320.76 297.334 320.035 297.501 318.97Z" fill="#00C9FA"/>
<path d="M297.501 318.971C297.335 320.036 297.267 320.762 297.105 321.466C294.312 333.557 291.507 345.646 288.705 357.735C288.629 358.064 288.562 358.395 288.467 358.718C288.016 360.243 287.768 360.448 286.23 360.549C285.827 360.576 285.421 360.569 285.016 360.569C267.277 360.568 249.538 360.649 231.8 360.537C219.101 360.457 208.243 355.834 199.525 346.522C193.444 340.027 189.645 332.258 187.36 323.722C185.034 315.031 184.509 306.191 185.159 297.237C185.841 287.841 188.113 278.732 190.016 269.561C193.155 254.439 196.449 239.349 199.673 224.245C200.344 221.1 200.261 220.991 197.116 220.988C189.225 220.98 181.333 220.99 173.442 220.98C170.49 220.976 170.343 220.798 170.875 218.008C172.58 209.064 174.341 200.131 175.966 191.173C176.332 189.154 177.251 188.063 179.159 187.263C196.675 179.924 212.098 169.463 225.379 155.877C231.382 149.737 236.828 143.124 241.497 135.916C242.766 133.957 244.213 133.261 246.47 133.317C251.66 133.444 256.856 133.357 262.049 133.358C262.386 133.358 262.724 133.354 263.061 133.367C265.121 133.445 265.406 133.76 265.008 135.852C263.913 141.616 262.776 147.373 261.655 153.132C259.89 162.201 258.12 171.27 256.363 180.341C255.832 183.086 255.95 183.224 258.765 183.222C279.471 183.208 300.178 183.188 320.884 183.173C321.625 183.172 322.368 183.185 323.107 183.234C323.941 183.289 324.296 183.794 324.221 184.598C324.171 185.134 324.091 185.67 323.989 186.198C321.935 196.791 319.875 207.384 317.816 217.976C317.739 218.373 317.677 218.775 317.571 219.165C317.189 220.574 316.919 220.818 315.501 220.91C314.695 220.963 313.883 220.942 313.074 220.942C292.705 220.927 272.336 220.91 251.967 220.896C248.543 220.894 248.52 220.894 247.888 224.168C243.447 247.145 239.003 270.122 234.596 293.105C233.859 296.948 233.324 300.827 233.462 304.762C233.486 305.436 233.487 306.112 233.548 306.783C234.092 312.771 237.022 316.436 242.884 317.74C246.014 318.437 249.293 318.715 252.508 318.739C266.469 318.843 280.431 318.781 294.392 318.792C295.313 318.794 296.237 318.896 297.501 318.971Z" fill="white"/>
</svg>
