<svg width="500" height="501" viewBox="0 0 500 501" fill="none" xmlns="http://www.w3.org/2000/svg">
<g clip-path="url(#clip0_1_10288)">
<path d="M425.6 0.527344H158.8C141.9 0.527344 127.4 12.4273 124.2 29.0273L39.8002 458.427C35.5002 480.227 52.1002 500.527 74.4002 500.527H342.8C359.7 500.527 374.2 488.527 377.4 471.927L460.3 42.5273C464.5 20.7273 447.8 0.527344 425.6 0.527344Z" fill="url(#paint0_linear_1_10288)"/>
<path d="M378.2 91.5273H183.1C164.3 91.5273 148.9 133.527 168.7 147.127H235.2L187.2 392.927C187.2 416.027 253.3 416.027 253.3 392.927L301.3 147.127H363.8C386.4 147.927 396.1 95.0273 378.2 91.5273Z" fill="white"/>
</g>
<defs>
<linearGradient id="paint0_linear_1_10288" x1="250" y1="500.527" x2="250" y2="0.527344" gradientUnits="userSpaceOnUse">
<stop stop-color="#487BFF"/>
<stop offset="1" stop-color="#6690FF"/>
</linearGradient>
<clipPath id="clip0_1_10288">
<rect width="500" height="500" fill="white" transform="translate(0 0.527344)"/>
</clipPath>
</defs>
</svg>
