<svg width="500" height="501" viewBox="0 0 500 501" fill="none" xmlns="http://www.w3.org/2000/svg">
<path d="M228.7 5.72754C228.7 5.72754 303.6 49.6275 303.6 122.828C303.6 173.328 289.9 178.628 289.9 199.828C289.9 229.728 317.3 237.828 325.8 237.828C334.2 237.828 367.2 234.128 367.2 189.728C367.2 189.728 422.8 244.628 422.8 311.628C422.8 363.328 401.7 399.228 371.1 420.328C340.5 441.428 302.3 441.228 279.3 469.928C265.5 487.028 264.5 494.228 264.5 494.228C264.5 494.228 95.7 470.928 83.1 311.728C74.3 199.828 207.9 132.528 222.8 78.7275C232.6 43.5275 228.7 5.72754 228.7 5.72754Z" fill="url(#paint0_linear_1_10291)"/>
<path d="M360.8 61.4272C360.8 61.4272 391.5 98.0272 391.5 127.927C391.5 150.027 380 150.327 374.1 157.327C367.8 164.827 368 171.327 368 171.327C368 171.327 338.6 162.527 338.6 132.227C338.6 101.927 361.4 93.9272 361.4 77.7272C361.2 63.2272 360.8 61.4272 360.8 61.4272Z" fill="url(#paint1_linear_1_10291)"/>
<path d="M348.1 267.927H157.7V330.427H221.7V394.427H284.2V330.427H348.1V267.927Z" fill="white"/>
<defs>
<linearGradient id="paint0_linear_1_10291" x1="252.801" y1="4.75574" x2="252.801" y2="489.199" gradientUnits="userSpaceOnUse">
<stop stop-color="#FF4F0F"/>
<stop offset="1" stop-color="#FFAD15"/>
</linearGradient>
<linearGradient id="paint1_linear_1_10291" x1="364.928" y1="4.75495" x2="364.928" y2="489.417" gradientUnits="userSpaceOnUse">
<stop stop-color="#FF4F0F"/>
<stop offset="1" stop-color="#FFAD15"/>
</linearGradient>
</defs>
</svg>
