<svg width="500" height="501" viewBox="0 0 500 501" fill="none" xmlns="http://www.w3.org/2000/svg">
<path d="M366.9 43.2274C334 16.2274 292.9 1.52736 250.4 1.52736C207.9 1.42736 166.7 16.2274 133.9 43.2274C110.5 62.4274 92.1999 87.1274 80.5999 115.027C68.9999 143.027 64.5999 173.427 67.5999 203.527C70.5999 233.627 80.9999 262.527 97.8999 287.727C114.8 312.827 137.7 333.427 164.4 347.527C165 349.627 165.7 351.727 166.5 354.127C169.4 362.127 173.4 369.827 178.3 376.727C182 382.027 187.6 385.727 193.8 387.227C197.2 388.027 200.8 388.227 204.3 387.627C207.8 387.127 211.1 385.827 214.2 384.027C217.2 382.227 219.8 379.727 221.9 376.927C224 374.027 225.5 370.827 226.3 367.427C228.2 359.127 228.9 350.527 228.6 342.027C228.4 333.827 227.5 325.627 226 317.627C225.1 312.227 222.8 307.127 219.5 302.727C216.1 298.327 211.8 294.927 206.7 292.727H205.6C181.2 282.027 161.2 263.427 148.8 239.827C141.6 225.227 137.6 209.327 137 193.127C136.4 176.927 139.2 160.727 145.3 145.627C151.4 130.527 160.6 116.927 172.3 105.727C184 94.5274 198 85.8274 213.3 80.3274C228.6 74.8274 244.9 72.6274 261.1 73.9274C277.3 75.2274 293 79.8274 307.3 87.6274C321.6 95.4274 334 106.127 343.9 119.027C353.7 131.927 360.7 146.827 364.4 162.627C370.2 188.827 366.7 216.227 354.5 240.227C342.2 264.327 322.2 283.627 297.6 295.027H297.1L294.1 296.527C293.1 297.027 292.2 297.627 291.2 298.227L289.1 299.927C288.2 300.627 287.3 301.427 286.5 302.327C284.2 304.627 282.3 307.227 280.8 310.127L279.9 311.827L279.4 312.927L278.2 315.327C277.7 316.627 277.2 317.927 276.8 319.327C275.9 323.027 275.2 326.927 274.7 330.727C274.1 337.327 273.8 342.927 273.6 348.427L273.1 380.027C273.1 390.227 272.8 400.427 272.6 410.627C272.3 421.227 269.7 431.627 265.1 441.127C261.9 447.427 260.4 454.427 260.7 461.427C261 468.427 263.2 475.227 267 481.227C270.8 487.127 276 492.027 282.3 495.227C288.5 498.527 295.5 500.027 302.5 499.827C309.5 499.527 316.4 497.427 322.3 493.727C328.3 490.027 333.1 484.827 336.5 478.527C339.8 472.327 341.4 465.327 341.2 458.327C341 451.327 338.9 444.427 335.3 438.427C330 429.727 326.8 419.927 326.1 409.827C325.6 400.127 325.2 390.627 325.5 381.127C325.6 371.927 326.5 362.727 327.9 353.627C328.2 351.627 328.6 349.727 329.1 348.027C364.1 331.727 392.9 304.427 411.2 270.427C431.2 233.327 437.8 190.327 429.6 148.927C421.9 107.227 399.5 69.9274 366.9 43.2274Z" fill="#1B314F"/>
<path d="M297.5 232.528L250.8 185.828L204 139.028L200.2 135.228C187.3 148.728 180.2 166.728 180.3 185.428C180.5 204.128 188 221.928 201.2 235.228C214.4 248.428 232.3 255.928 251 256.128C269.7 256.328 287.7 249.228 301.2 236.228L297.5 232.528Z" fill="#1B314F"/>
</svg>
