<svg width="500" height="501" viewBox="0 0 500 501" fill="none" xmlns="http://www.w3.org/2000/svg">
<g clip-path="url(#clip0_1_10300)">
<path d="M500 0.527344H0V500.527H500V0.527344Z" fill="#EE2B3B"/>
<path d="M104.4 444.867V268.027H61.71V233.027H104.4V56.1875H238.56C268.6 56.1875 291.577 58.0408 307.49 61.7475C329.757 66.8742 348.757 76.1542 364.49 89.5875C384.99 106.921 400.323 129.061 410.49 156.007C420.657 182.954 425.737 213.754 425.73 248.408C425.73 288.008 419.457 322.077 406.91 350.617C394.363 379.158 379.337 399.881 361.83 412.788C344.33 425.701 324.18 434.894 301.38 440.367C288.827 443.367 269.913 444.867 244.64 444.867H104.4ZM155.83 399.008H238.83C264.637 399.008 284.787 396.621 299.28 391.848C313.773 387.074 325.263 380.444 333.75 371.957C345.95 359.764 355.493 343.414 362.38 322.908C369.267 302.401 372.713 277.401 372.72 247.908C372.72 217.508 369.32 193.204 362.52 174.997C355.72 156.791 346.837 142.207 335.87 131.247C324.91 120.287 312.713 112.688 299.28 108.447C285.847 104.207 265.257 102.084 237.51 102.078H155.83V233.077H263V268.077H155.83V399.008Z" fill="white"/>
</g>
<defs>
<clipPath id="clip0_1_10300">
<rect width="500" height="500" fill="white" transform="translate(0 0.527344)"/>
</clipPath>
</defs>
</svg>
