<svg width="500" height="501" viewBox="0 0 500 501" fill="none" xmlns="http://www.w3.org/2000/svg">
<path d="M122.755 495.605C114.589 487.483 106.372 479.311 98.214 471.197C98.214 323.509 98.214 176.157 98.214 29.3623C106.67 20.8073 114.817 12.5663 123.751 3.52734C208.122 3.52734 293.647 3.52734 378.891 3.52734C387.362 11.6953 395.701 19.7363 403.779 27.5253C403.779 175.621 403.779 322.972 403.779 470.454C395.414 478.373 386.995 486.342 377.209 495.607C294.084 495.605 208.535 495.605 122.755 495.605ZM354.01 445.881C354.01 314.767 354.01 184.567 354.01 53.9903C284.651 53.9903 216.346 53.9903 147.946 53.9903C147.946 185.404 147.946 315.302 147.946 445.881C216.694 445.881 284.785 445.881 354.01 445.881ZM226.934 130.114C226.934 147.002 226.934 162.746 226.934 179.608C209.43 179.608 193.231 179.608 176.532 179.608C176.532 196.885 176.532 213.001 176.532 229.816C226.61 229.816 275.95 229.816 325.494 229.816C325.494 212.689 325.494 196.588 325.494 179.066C308.438 179.066 292.299 179.066 275.505 179.066C275.505 162.194 275.505 146.755 275.505 130.113C258.71 130.114 243.477 130.114 226.934 130.114ZM275.294 321.554C293.561 321.554 309.708 321.554 325.694 321.554C325.694 304.786 325.694 289.418 325.694 273.442C275.765 273.442 226.411 273.442 176.542 273.442C176.542 289.758 176.542 305.433 176.542 322.864C193.751 322.864 210.257 322.864 228.013 322.864C228.013 340.762 228.013 356.911 228.013 373.417C243.955 373.417 258.546 373.417 275.294 373.417C275.294 356.57 275.294 339.709 275.294 321.554Z" fill="url(#paint0_linear_1_10303)"/>
<defs>
<linearGradient id="paint0_linear_1_10303" x1="250.996" y1="3.52734" x2="250.996" y2="497.577" gradientUnits="userSpaceOnUse">
<stop stop-color="#2CB6EC"/>
<stop offset="1" stop-color="#27E6BC"/>
</linearGradient>
</defs>
</svg>
