<svg width="500" height="501" viewBox="0 0 500 501" fill="none" xmlns="http://www.w3.org/2000/svg">
<path d="M153.4 403.527C236.85 403.527 304.5 335.877 304.5 252.427C304.5 168.977 236.85 101.327 153.4 101.327C69.9498 101.327 2.29999 168.977 2.29999 252.427C2.29999 335.877 69.9498 403.527 153.4 403.527Z" fill="url(#paint0_linear_1_10305)"/>
<path d="M135.9 303.527C142.141 303.527 147.2 298.468 147.2 292.227C147.2 285.986 142.141 280.927 135.9 280.927C129.659 280.927 124.6 285.986 124.6 292.227C124.6 298.468 129.659 303.527 135.9 303.527Z" fill="white"/>
<path d="M169.4 303.527C175.641 303.527 180.7 298.468 180.7 292.227C180.7 285.986 175.641 280.927 169.4 280.927C163.159 280.927 158.1 285.986 158.1 292.227C158.1 298.468 163.159 303.527 169.4 303.527Z" fill="white"/>
<path d="M202.8 303.527C209.041 303.527 214.1 298.468 214.1 292.227C214.1 285.986 209.041 280.927 202.8 280.927C196.559 280.927 191.5 285.986 191.5 292.227C191.5 298.468 196.559 303.527 202.8 303.527Z" fill="white"/>
<path d="M236.3 303.527C242.541 303.527 247.6 298.468 247.6 292.227C247.6 285.986 242.541 280.927 236.3 280.927C230.059 280.927 225 285.986 225 292.227C225 298.468 230.059 303.527 236.3 303.527Z" fill="white"/>
<path d="M269.7 303.527C275.941 303.527 281 298.468 281 292.227C281 285.986 275.941 280.927 269.7 280.927C263.459 280.927 258.4 285.986 258.4 292.227C258.4 298.468 263.459 303.527 269.7 303.527Z" fill="white"/>
<path d="M303.2 303.527C309.441 303.527 314.5 298.468 314.5 292.227C314.5 285.986 309.441 280.927 303.2 280.927C296.959 280.927 291.9 285.986 291.9 292.227C291.9 298.468 296.959 303.527 303.2 303.527Z" fill="white"/>
<path d="M336.6 303.527C342.841 303.527 347.9 298.468 347.9 292.227C347.9 285.986 342.841 280.927 336.6 280.927C330.359 280.927 325.3 285.986 325.3 292.227C325.3 298.468 330.359 303.527 336.6 303.527Z" fill="white"/>
<path d="M370.1 303.527C376.341 303.527 381.4 298.468 381.4 292.227C381.4 285.986 376.341 280.927 370.1 280.927C363.859 280.927 358.8 285.986 358.8 292.227C358.8 298.468 363.859 303.527 370.1 303.527Z" fill="white"/>
<path d="M403.5 303.527C409.741 303.527 414.8 298.468 414.8 292.227C414.8 285.986 409.741 280.927 403.5 280.927C397.259 280.927 392.2 285.986 392.2 292.227C392.2 298.468 397.259 303.527 403.5 303.527Z" fill="white"/>
<path d="M422.2 333.927C426.508 333.927 430 330.435 430 326.127C430 321.819 426.508 318.327 422.2 318.327C417.892 318.327 414.4 321.819 414.4 326.127C414.4 330.435 417.892 333.927 422.2 333.927Z" fill="white"/>
<path d="M387.6 333.927C391.908 333.927 395.4 330.435 395.4 326.127C395.4 321.819 391.908 318.327 387.6 318.327C383.292 318.327 379.8 321.819 379.8 326.127C379.8 330.435 383.292 333.927 387.6 333.927Z" fill="white"/>
<path d="M353 333.927C357.308 333.927 360.8 330.435 360.8 326.127C360.8 321.819 357.308 318.327 353 318.327C348.692 318.327 345.2 321.819 345.2 326.127C345.2 330.435 348.692 333.927 353 333.927Z" fill="white"/>
<path d="M318.5 333.927C322.808 333.927 326.3 330.435 326.3 326.127C326.3 321.819 322.808 318.327 318.5 318.327C314.192 318.327 310.7 321.819 310.7 326.127C310.7 330.435 314.192 333.927 318.5 333.927Z" fill="white"/>
<path d="M283.9 333.927C288.208 333.927 291.7 330.435 291.7 326.127C291.7 321.819 288.208 318.327 283.9 318.327C279.592 318.327 276.1 321.819 276.1 326.127C276.1 330.435 279.592 333.927 283.9 333.927Z" fill="white"/>
<path d="M249.3 333.927C253.608 333.927 257.1 330.435 257.1 326.127C257.1 321.819 253.608 318.327 249.3 318.327C244.992 318.327 241.5 321.819 241.5 326.127C241.5 330.435 244.992 333.927 249.3 333.927Z" fill="white"/>
<path d="M214.8 333.927C219.108 333.927 222.6 330.435 222.6 326.127C222.6 321.819 219.108 318.327 214.8 318.327C210.492 318.327 207 321.819 207 326.127C207 330.435 210.492 333.927 214.8 333.927Z" fill="white"/>
<path d="M180.2 333.927C184.508 333.927 188 330.435 188 326.127C188 321.819 184.508 318.327 180.2 318.327C175.892 318.327 172.4 321.819 172.4 326.127C172.4 330.435 175.892 333.927 180.2 333.927Z" fill="white"/>
<path d="M145.6 333.927C149.908 333.927 153.4 330.435 153.4 326.127C153.4 321.819 149.908 318.327 145.6 318.327C141.292 318.327 137.8 321.819 137.8 326.127C137.8 330.435 141.292 333.927 145.6 333.927Z" fill="white"/>
<path d="M440.5 357.527C444.697 357.527 448.1 354.125 448.1 349.927C448.1 345.73 444.697 342.327 440.5 342.327C436.303 342.327 432.9 345.73 432.9 349.927C432.9 354.125 436.303 357.527 440.5 357.527Z" fill="white"/>
<path d="M405.5 357.527C409.697 357.527 413.1 354.125 413.1 349.927C413.1 345.73 409.697 342.327 405.5 342.327C401.303 342.327 397.9 345.73 397.9 349.927C397.9 354.125 401.303 357.527 405.5 357.527Z" fill="white"/>
<path d="M370.4 357.527C374.597 357.527 378 354.125 378 349.927C378 345.73 374.597 342.327 370.4 342.327C366.203 342.327 362.8 345.73 362.8 349.927C362.8 354.125 366.203 357.527 370.4 357.527Z" fill="white"/>
<path d="M335.3 357.527C339.497 357.527 342.9 354.125 342.9 349.927C342.9 345.73 339.497 342.327 335.3 342.327C331.103 342.327 327.7 345.73 327.7 349.927C327.7 354.125 331.103 357.527 335.3 357.527Z" fill="white"/>
<path d="M300.3 357.527C304.497 357.527 307.9 354.125 307.9 349.927C307.9 345.73 304.497 342.327 300.3 342.327C296.103 342.327 292.7 345.73 292.7 349.927C292.7 354.125 296.103 357.527 300.3 357.527Z" fill="white"/>
<path d="M265.2 357.527C269.397 357.527 272.8 354.125 272.8 349.927C272.8 345.73 269.397 342.327 265.2 342.327C261.003 342.327 257.6 345.73 257.6 349.927C257.6 354.125 261.003 357.527 265.2 357.527Z" fill="white"/>
<path d="M230.2 357.527C234.397 357.527 237.8 354.125 237.8 349.927C237.8 345.73 234.397 342.327 230.2 342.327C226.003 342.327 222.6 345.73 222.6 349.927C222.6 354.125 226.003 357.527 230.2 357.527Z" fill="white"/>
<path d="M195.1 357.527C199.297 357.527 202.7 354.125 202.7 349.927C202.7 345.73 199.297 342.327 195.1 342.327C190.903 342.327 187.5 345.73 187.5 349.927C187.5 354.125 190.903 357.527 195.1 357.527Z" fill="white"/>
<path d="M160 357.527C164.197 357.527 167.6 354.125 167.6 349.927C167.6 345.73 164.197 342.327 160 342.327C155.803 342.327 152.4 345.73 152.4 349.927C152.4 354.125 155.803 357.527 160 357.527Z" fill="white"/>
<path d="M465 379.828C468.203 379.828 470.8 377.231 470.8 374.028C470.8 370.824 468.203 368.228 465 368.228C461.797 368.228 459.2 370.824 459.2 374.028C459.2 377.231 461.797 379.828 465 379.828Z" fill="white"/>
<path d="M429.4 379.828C432.603 379.828 435.2 377.231 435.2 374.028C435.2 370.824 432.603 368.228 429.4 368.228C426.197 368.228 423.6 370.824 423.6 374.028C423.6 377.231 426.197 379.828 429.4 379.828Z" fill="white"/>
<path d="M393.9 379.828C397.103 379.828 399.7 377.231 399.7 374.028C399.7 370.824 397.103 368.228 393.9 368.228C390.697 368.228 388.1 370.824 388.1 374.028C388.1 377.231 390.697 379.828 393.9 379.828Z" fill="white"/>
<path d="M358.4 379.828C361.603 379.828 364.2 377.231 364.2 374.028C364.2 370.824 361.603 368.228 358.4 368.228C355.197 368.228 352.6 370.824 352.6 374.028C352.6 377.231 355.197 379.828 358.4 379.828Z" fill="white"/>
<path d="M322.9 379.828C326.103 379.828 328.7 377.231 328.7 374.028C328.7 370.824 326.103 368.228 322.9 368.228C319.697 368.228 317.1 370.824 317.1 374.028C317.1 377.231 319.697 379.828 322.9 379.828Z" fill="white"/>
<path d="M287.3 379.828C290.503 379.828 293.1 377.231 293.1 374.028C293.1 370.824 290.503 368.228 287.3 368.228C284.097 368.228 281.5 370.824 281.5 374.028C281.5 377.231 284.097 379.828 287.3 379.828Z" fill="white"/>
<path d="M251.8 379.828C255.003 379.828 257.6 377.231 257.6 374.028C257.6 370.824 255.003 368.228 251.8 368.228C248.597 368.228 246 370.824 246 374.028C246 377.231 248.597 379.828 251.8 379.828Z" fill="white"/>
<path d="M216.3 379.828C219.503 379.828 222.1 377.231 222.1 374.028C222.1 370.824 219.503 368.228 216.3 368.228C213.097 368.228 210.5 370.824 210.5 374.028C210.5 377.231 213.097 379.828 216.3 379.828Z" fill="white"/>
<path d="M180.8 379.828C184.003 379.828 186.6 377.231 186.6 374.028C186.6 370.824 184.003 368.228 180.8 368.228C177.597 368.228 175 370.824 175 374.028C175 377.231 177.597 379.828 180.8 379.828Z" fill="white"/>
<path d="M493.4 399.827C495.83 399.827 497.8 397.857 497.8 395.427C497.8 392.997 495.83 391.027 493.4 391.027C490.97 391.027 489 392.997 489 395.427C489 397.857 490.97 399.827 493.4 399.827Z" fill="white"/>
<path d="M457.6 399.827C460.03 399.827 462 397.857 462 395.427C462 392.997 460.03 391.027 457.6 391.027C455.17 391.027 453.2 392.997 453.2 395.427C453.2 397.857 455.17 399.827 457.6 399.827Z" fill="white"/>
<path d="M421.8 399.827C424.23 399.827 426.2 397.857 426.2 395.427C426.2 392.997 424.23 391.027 421.8 391.027C419.37 391.027 417.4 392.997 417.4 395.427C417.4 397.857 419.37 399.827 421.8 399.827Z" fill="white"/>
<path d="M386 399.827C388.43 399.827 390.4 397.857 390.4 395.427C390.4 392.997 388.43 391.027 386 391.027C383.57 391.027 381.6 392.997 381.6 395.427C381.6 397.857 383.57 399.827 386 399.827Z" fill="white"/>
<path d="M350.2 399.827C352.63 399.827 354.6 397.857 354.6 395.427C354.6 392.997 352.63 391.027 350.2 391.027C347.77 391.027 345.8 392.997 345.8 395.427C345.8 397.857 347.77 399.827 350.2 399.827Z" fill="white"/>
<path d="M314.3 399.827C316.73 399.827 318.7 397.857 318.7 395.427C318.7 392.997 316.73 391.027 314.3 391.027C311.87 391.027 309.9 392.997 309.9 395.427C309.9 397.857 311.87 399.827 314.3 399.827Z" fill="white"/>
<path d="M278.5 399.827C280.93 399.827 282.9 397.857 282.9 395.427C282.9 392.997 280.93 391.027 278.5 391.027C276.07 391.027 274.1 392.997 274.1 395.427C274.1 397.857 276.07 399.827 278.5 399.827Z" fill="white"/>
<path d="M242.7 399.827C245.13 399.827 247.1 397.857 247.1 395.427C247.1 392.997 245.13 391.027 242.7 391.027C240.27 391.027 238.3 392.997 238.3 395.427C238.3 397.857 240.27 399.827 242.7 399.827Z" fill="white"/>
<path d="M206.9 399.827C209.33 399.827 211.3 397.857 211.3 395.427C211.3 392.997 209.33 391.027 206.9 391.027C204.47 391.027 202.5 392.997 202.5 395.427C202.5 397.857 204.47 399.827 206.9 399.827Z" fill="white"/>
<path d="M119.6 268.027C123.908 268.027 127.4 264.535 127.4 260.227C127.4 255.919 123.908 252.427 119.6 252.427C115.292 252.427 111.8 255.919 111.8 260.227C111.8 264.535 115.292 268.027 119.6 268.027Z" fill="white"/>
<path d="M154.2 268.027C158.508 268.027 162 264.535 162 260.227C162 255.919 158.508 252.427 154.2 252.427C149.892 252.427 146.4 255.919 146.4 260.227C146.4 264.535 149.892 268.027 154.2 268.027Z" fill="white"/>
<path d="M188.8 268.027C193.108 268.027 196.6 264.535 196.6 260.227C196.6 255.919 193.108 252.427 188.8 252.427C184.492 252.427 181 255.919 181 260.227C181 264.535 184.492 268.027 188.8 268.027Z" fill="white"/>
<path d="M223.3 268.027C227.608 268.027 231.1 264.535 231.1 260.227C231.1 255.919 227.608 252.427 223.3 252.427C218.992 252.427 215.5 255.919 215.5 260.227C215.5 264.535 218.992 268.027 223.3 268.027Z" fill="white"/>
<path d="M257.9 268.027C262.208 268.027 265.7 264.535 265.7 260.227C265.7 255.919 262.208 252.427 257.9 252.427C253.592 252.427 250.1 255.919 250.1 260.227C250.1 264.535 253.592 268.027 257.9 268.027Z" fill="white"/>
<path d="M292.5 268.027C296.808 268.027 300.3 264.535 300.3 260.227C300.3 255.919 296.808 252.427 292.5 252.427C288.192 252.427 284.7 255.919 284.7 260.227C284.7 264.535 288.192 268.027 292.5 268.027Z" fill="white"/>
<path d="M327 268.027C331.308 268.027 334.8 264.535 334.8 260.227C334.8 255.919 331.308 252.427 327 252.427C322.692 252.427 319.2 255.919 319.2 260.227C319.2 264.535 322.692 268.027 327 268.027Z" fill="white"/>
<path d="M361.6 268.027C365.908 268.027 369.4 264.535 369.4 260.227C369.4 255.919 365.908 252.427 361.6 252.427C357.292 252.427 353.8 255.919 353.8 260.227C353.8 264.535 357.292 268.027 361.6 268.027Z" fill="white"/>
<path d="M396.2 268.027C400.508 268.027 404 264.535 404 260.227C404 255.919 400.508 252.427 396.2 252.427C391.892 252.427 388.4 255.919 388.4 260.227C388.4 264.535 391.892 268.027 396.2 268.027Z" fill="white"/>
<path d="M101.3 243.928C105.497 243.928 108.9 240.525 108.9 236.328C108.9 232.13 105.497 228.728 101.3 228.728C97.1026 228.728 93.7 232.13 93.7 236.328C93.7 240.525 97.1026 243.928 101.3 243.928Z" fill="white"/>
<path d="M136.3 243.928C140.497 243.928 143.9 240.525 143.9 236.328C143.9 232.13 140.497 228.728 136.3 228.728C132.103 228.728 128.7 232.13 128.7 236.328C128.7 240.525 132.103 243.928 136.3 243.928Z" fill="white"/>
<path d="M171.4 243.928C175.597 243.928 179 240.525 179 236.328C179 232.13 175.597 228.728 171.4 228.728C167.203 228.728 163.8 232.13 163.8 236.328C163.8 240.525 167.203 243.928 171.4 243.928Z" fill="white"/>
<path d="M206.5 243.928C210.697 243.928 214.1 240.525 214.1 236.328C214.1 232.13 210.697 228.728 206.5 228.728C202.303 228.728 198.9 232.13 198.9 236.328C198.9 240.525 202.303 243.928 206.5 243.928Z" fill="white"/>
<path d="M241.5 243.928C245.697 243.928 249.1 240.525 249.1 236.328C249.1 232.13 245.697 228.728 241.5 228.728C237.303 228.728 233.9 232.13 233.9 236.328C233.9 240.525 237.303 243.928 241.5 243.928Z" fill="white"/>
<path d="M276.6 243.928C280.797 243.928 284.2 240.525 284.2 236.328C284.2 232.13 280.797 228.728 276.6 228.728C272.403 228.728 269 232.13 269 236.328C269 240.525 272.403 243.928 276.6 243.928Z" fill="white"/>
<path d="M311.6 243.928C315.797 243.928 319.2 240.525 319.2 236.328C319.2 232.13 315.797 228.728 311.6 228.728C307.403 228.728 304 232.13 304 236.328C304 240.525 307.403 243.928 311.6 243.928Z" fill="white"/>
<path d="M346.7 243.928C350.897 243.928 354.3 240.525 354.3 236.328C354.3 232.13 350.897 228.728 346.7 228.728C342.503 228.728 339.1 232.13 339.1 236.328C339.1 240.525 342.503 243.928 346.7 243.928Z" fill="white"/>
<path d="M381.8 243.928C385.997 243.928 389.4 240.525 389.4 236.328C389.4 232.13 385.997 228.728 381.8 228.728C377.603 228.728 374.2 232.13 374.2 236.328C374.2 240.525 377.603 243.928 381.8 243.928Z" fill="white"/>
<path d="M76.8 218.127C80.0033 218.127 82.6 215.531 82.6 212.327C82.6 209.124 80.0033 206.527 76.8 206.527C73.5968 206.527 71 209.124 71 212.327C71 215.531 73.5968 218.127 76.8 218.127Z" fill="white"/>
<path d="M112.4 218.127C115.603 218.127 118.2 215.531 118.2 212.327C118.2 209.124 115.603 206.527 112.4 206.527C109.197 206.527 106.6 209.124 106.6 212.327C106.6 215.531 109.197 218.127 112.4 218.127Z" fill="white"/>
<path d="M147.9 218.127C151.103 218.127 153.7 215.531 153.7 212.327C153.7 209.124 151.103 206.527 147.9 206.527C144.697 206.527 142.1 209.124 142.1 212.327C142.1 215.531 144.697 218.127 147.9 218.127Z" fill="white"/>
<path d="M183.4 218.127C186.603 218.127 189.2 215.531 189.2 212.327C189.2 209.124 186.603 206.527 183.4 206.527C180.197 206.527 177.6 209.124 177.6 212.327C177.6 215.531 180.197 218.127 183.4 218.127Z" fill="white"/>
<path d="M218.9 218.127C222.103 218.127 224.7 215.531 224.7 212.327C224.7 209.124 222.103 206.527 218.9 206.527C215.697 206.527 213.1 209.124 213.1 212.327C213.1 215.531 215.697 218.127 218.9 218.127Z" fill="white"/>
<path d="M254.5 218.127C257.703 218.127 260.3 215.531 260.3 212.327C260.3 209.124 257.703 206.527 254.5 206.527C251.297 206.527 248.7 209.124 248.7 212.327C248.7 215.531 251.297 218.127 254.5 218.127Z" fill="white"/>
<path d="M290 218.127C293.203 218.127 295.8 215.531 295.8 212.327C295.8 209.124 293.203 206.527 290 206.527C286.797 206.527 284.2 209.124 284.2 212.327C284.2 215.531 286.797 218.127 290 218.127Z" fill="white"/>
<path d="M325.5 218.127C328.703 218.127 331.3 215.531 331.3 212.327C331.3 209.124 328.703 206.527 325.5 206.527C322.297 206.527 319.7 209.124 319.7 212.327C319.7 215.531 322.297 218.127 325.5 218.127Z" fill="white"/>
<path d="M361 218.127C364.203 218.127 366.8 215.531 366.8 212.327C366.8 209.124 364.203 206.527 361 206.527C357.797 206.527 355.2 209.124 355.2 212.327C355.2 215.531 357.797 218.127 361 218.127Z" fill="white"/>
<path d="M48.4 195.327C50.8301 195.327 52.8 193.357 52.8 190.927C52.8 188.497 50.8301 186.527 48.4 186.527C45.9699 186.527 44 188.497 44 190.927C44 193.357 45.9699 195.327 48.4 195.327Z" fill="white"/>
<path d="M84.2 195.327C86.63 195.327 88.6 193.357 88.6 190.927C88.6 188.497 86.63 186.527 84.2 186.527C81.7699 186.527 79.8 188.497 79.8 190.927C79.8 193.357 81.7699 195.327 84.2 195.327Z" fill="white"/>
<path d="M120 195.327C122.43 195.327 124.4 193.357 124.4 190.927C124.4 188.497 122.43 186.527 120 186.527C117.57 186.527 115.6 188.497 115.6 190.927C115.6 193.357 117.57 195.327 120 195.327Z" fill="white"/>
<path d="M155.8 195.327C158.23 195.327 160.2 193.357 160.2 190.927C160.2 188.497 158.23 186.527 155.8 186.527C153.37 186.527 151.4 188.497 151.4 190.927C151.4 193.357 153.37 195.327 155.8 195.327Z" fill="white"/>
<path d="M191.7 195.327C194.13 195.327 196.1 193.357 196.1 190.927C196.1 188.497 194.13 186.527 191.7 186.527C189.27 186.527 187.3 188.497 187.3 190.927C187.3 193.357 189.27 195.327 191.7 195.327Z" fill="white"/>
<path d="M227.5 195.327C229.93 195.327 231.9 193.357 231.9 190.927C231.9 188.497 229.93 186.527 227.5 186.527C225.07 186.527 223.1 188.497 223.1 190.927C223.1 193.357 225.07 195.327 227.5 195.327Z" fill="white"/>
<path d="M263.3 195.327C265.73 195.327 267.7 193.357 267.7 190.927C267.7 188.497 265.73 186.527 263.3 186.527C260.87 186.527 258.9 188.497 258.9 190.927C258.9 193.357 260.87 195.327 263.3 195.327Z" fill="white"/>
<path d="M299.1 195.327C301.53 195.327 303.5 193.357 303.5 190.927C303.5 188.497 301.53 186.527 299.1 186.527C296.67 186.527 294.7 188.497 294.7 190.927C294.7 193.357 296.67 195.327 299.1 195.327Z" fill="white"/>
<path d="M334.9 195.327C337.33 195.327 339.3 193.357 339.3 190.927C339.3 188.497 337.33 186.527 334.9 186.527C332.47 186.527 330.5 188.497 330.5 190.927C330.5 193.357 332.47 195.327 334.9 195.327Z" fill="white"/>
<defs>
<linearGradient id="paint0_linear_1_10305" x1="-69" y1="252.41" x2="234.123" y2="252.41" gradientUnits="userSpaceOnUse">
<stop stop-color="#3B007F"/>
<stop offset="1" stop-color="#AA003D"/>
</linearGradient>
</defs>
</svg>
