<svg width="500" height="501" viewBox="0 0 500 501" fill="none" xmlns="http://www.w3.org/2000/svg">
<g clip-path="url(#clip0_1_10389)">
<path fill-rule="evenodd" clip-rule="evenodd" d="M479.2 257.327C479.2 258.827 477 259.327 476.4 257.827C476.1 257.227 475.9 256.627 475.6 255.927C475.1 254.827 475.2 253.527 476 252.527C476.2 252.327 476.5 251.927 476.8 251.427C477.8 250.127 479.2 250.327 479.2 251.727C479.3 253.727 479.3 255.427 479.2 257.327ZM468.1 227.027C466.4 230.127 462 230.227 460.1 227.327C459.8 226.827 459.5 226.427 459.2 225.927C452.4 215.427 444.5 205.127 435.7 195.127C433.5 192.627 435.3 188.827 438.6 188.827H438.7C459.2 188.827 470 193.927 473.3 200.127C476 205.227 475.2 214.227 468.1 227.027ZM463.5 334.427C462.4 337.227 461.2 340.027 460 342.727C459.8 343.127 459.6 343.527 459.4 343.827C451.8 358.427 439.2 369.827 422.2 377.827C418.4 379.627 414.2 376.127 415.4 372.127C421 352.027 425.3 330.127 428.1 307.227C428.6 302.927 430.7 299.027 434 296.227C441 290.227 447.5 284.127 453.5 278.227L453.6 278.127C456.5 275.227 461.6 276.427 462.8 280.427C468.6 300.127 468.9 318.527 463.5 334.427ZM417.4 407.227C415.7 409.027 413.9 410.927 412.1 412.727C409 415.827 405.8 418.827 402.5 421.827C400.4 423.627 397.3 421.327 398.5 418.827C398.8 418.127 399.2 417.427 399.5 416.627C400.9 413.627 402.2 410.527 403.5 407.327C403.8 406.627 404.4 406.027 405.2 405.827C408.5 405.027 411.6 404.127 414.7 403.127C417.3 402.227 419.2 405.327 417.4 407.227ZM383.6 389.027C376.8 390.027 369.6 390.627 362 390.927C343.6 391.527 324.2 390.027 304.2 386.327C301.8 385.927 301.3 382.627 303.5 381.427C307.9 379.227 312.2 376.927 316.6 374.627C347.1 358.427 375.6 340.727 400.6 322.627C402.5 321.227 405 322.827 404.7 325.127C401.2 345.927 396.5 365.527 390.4 383.227C389.4 386.327 386.7 388.527 383.6 389.027ZM376.5 416.727C360.1 448.927 340 467.027 320.4 466.627C299.2 466.227 278 444.127 262.3 405.927C261.3 403.527 262.4 400.727 264.8 399.727C265 399.627 265.1 399.627 265.3 399.527C266.3 399.127 267.5 399.027 268.6 399.327C297.9 407.527 326.8 411.827 353.9 411.827C356.8 411.827 359.8 411.827 362.7 411.627C366.1 411.527 369.4 411.327 372.7 411.027C375.8 410.827 377.9 414.027 376.5 416.727ZM279.6 477.927C269.9 479.227 260 479.827 250 479.827C205.4 479.827 162.8 467.227 126.2 443.627C123.7 442.027 124.8 438.127 127.7 437.927C128.3 437.927 128.9 437.827 129.4 437.827C138.7 437.227 148.9 435.827 160 433.727C183.5 429.227 209.6 421.427 237 411.027C239.5 410.127 242.2 411.327 243.2 413.727C253.8 439.527 266.9 459.027 281.5 471.427C283.9 473.627 282.7 477.527 279.6 477.927ZM147 317.327C167.2 300.827 190.9 284.427 216.9 268.927C217.5 302.127 221.1 334.027 227.5 362.827C217.9 358.727 208.3 354.227 198.7 349.227C180.3 339.627 162.9 328.927 147 317.327ZM84.1 406.327C79.3 397.227 85.5 376.127 117.2 344.127C120.5 340.827 120.2 335.327 116.5 332.427C115.2 331.427 114 330.427 112.7 329.427C109.5 326.927 105 327.127 102.1 330.027C101.5 330.627 101 331.127 100.9 331.227C85.1 347.427 74 362.527 67.8 376.027C66 379.827 60.7 380.227 58.4 376.727C33.9 339.527 20.7 296.027 20.7 250.527C20.7 234.227 22.4 218.227 25.7 202.627C26.2 200.227 29.5 200.127 30.2 202.427C35 218.127 42.7 234.427 53.4 250.827C67.8 272.927 86.8 294.227 109.3 313.727C117 320.427 125.1 326.827 133.6 333.027C150.8 345.627 169.4 357.227 189.2 367.527C198 372.127 206.6 376.427 215.3 380.427C220.2 382.627 225.7 382.827 230.7 380.827C234.8 379.227 239 377.527 243.2 375.727C247.8 373.827 250.2 368.827 249 364.027C248.8 363.427 248.7 362.927 248.7 362.627C241.8 333.527 238 300.827 237.5 266.627C237.5 266.227 237.5 265.827 237.5 265.427C237.5 263.527 237.5 261.627 237.5 259.827C237.5 259.227 237.5 258.227 237.5 257.627C237.5 257.427 237.5 257.127 237.5 256.927C237.5 254.827 237.5 252.627 237.6 250.527C237.7 244.627 237.9 238.827 238.2 233.027C240.3 191.727 247.3 152.827 258.5 120.127C259.5 117.127 257.9 113.827 254.9 112.827C252 111.827 249 110.827 246.1 109.927C243.1 109.027 239.9 110.627 238.9 113.527C226.8 149.027 219.4 191.127 217.4 235.727C217.1 241.427 214.1 246.527 209.2 249.427C182.8 265.027 158.6 281.627 137.6 298.327C133.2 301.827 127 301.727 122.8 298.027C101.8 279.827 84.2 260.027 70.8 239.527C44.6 199.227 38.3 161.327 53.2 132.727C53.2 132.627 53.3 132.627 53.3 132.527C55.2 129.327 57.2 126.227 59.2 123.227C76.3 100.527 108.3 87.4273 150.6 85.9273C153.3 85.8273 156 85.8273 158.7 85.8273C184.7 85.8273 212.5 90.1273 240.8 98.3273C241.4 98.5273 242 98.7273 242.7 98.8273C243.2 98.9273 243.7 99.1273 244.1 99.2273C250.6 101.227 257.2 103.327 263.8 105.727C264 105.827 264.1 105.827 264.3 105.927C266 106.527 267.7 107.227 269.4 107.827C269.9 108.027 270.5 108.227 271 108.427C271.5 108.627 272 108.827 272.5 109.027C286.3 114.427 300.2 120.627 313.8 127.727C340.2 141.427 364.4 157.527 385.5 175.227C345.3 184.427 298.6 202.227 251.7 226.127C249.5 227.227 248.1 229.427 248 231.827C247.8 234.727 247.6 240.627 247.5 245.227C247.4 248.127 250.5 250.127 253.1 248.727C299.6 224.327 346 206.027 385.8 196.427C393.2 194.627 398.1 187.427 397 179.927C396.3 174.627 395.4 169.427 394.5 164.327C393.4 157.927 389.8 152.127 384.6 148.127C365.9 133.927 345.4 120.827 323.4 109.427C308.6 101.727 293.5 94.9273 278.4 89.2273C275.2 88.0273 273.8 84.2273 275.5 81.1273C291 53.3273 309.5 37.7273 327.5 37.7273C327.7 37.7273 327.9 37.7273 328.1 37.7273C349.3 38.1273 370.5 60.2273 386.2 98.4273C394.1 117.727 400.3 140.027 404.5 164.227C404.5 164.227 404.5 164.227 404.4 164.127C406.2 174.427 407.6 185.127 408.7 196.127C408.6 196.227 408.5 196.227 408.4 196.327C408.5 196.427 408.7 196.627 408.8 196.727C410.6 215.127 411.3 234.227 411 253.827C410.8 266.227 410.1 278.427 409.1 290.327C380.7 313.327 345.5 336.127 306.9 356.627C294.2 363.327 281.5 369.627 269 375.427C268.8 375.527 268.6 375.627 268.4 375.727C267.4 376.127 266.5 376.627 265.5 377.027C255.1 381.727 244.8 386.127 234.6 390.027C234 390.227 233.5 390.427 232.9 390.727C232.2 391.027 231.5 391.327 230.8 391.527C229.1 392.227 227.4 392.827 225.7 393.427C225.2 393.627 224.8 393.827 224.3 393.927C222.2 394.727 220.2 395.427 218.2 396.127C217.9 396.227 217.7 396.327 217.4 396.427C195.7 404.127 175 410.027 156.1 413.627C110.5 422.227 89 415.527 84.1 406.327ZM116.9 63.7273C155.5 36.1273 201.6 21.2273 250 21.2273C262.8 21.2273 275.4 22.2273 287.8 24.3273C291.1 24.8273 292.2 29.1273 289.6 31.1273C277.6 40.5273 266.5 54.4273 256.6 72.4273C254.2 76.8273 249.1 78.9273 244.3 77.6273C211.7 68.4273 179.6 64.1273 149.9 65.1273C139 65.5273 128.6 66.6273 118.9 68.4273C116.1 68.9273 114.6 65.4273 116.9 63.7273ZM431.7 230.927C431.6 228.327 435 227.127 436.5 229.327C438.4 231.927 440.2 234.627 441.9 237.227C444.2 240.727 446.3 244.227 448.3 247.727C449.5 249.927 449.2 252.627 447.6 254.427C444.9 257.327 442 260.427 438.9 263.527C437.7 264.627 436.6 265.827 435.4 267.027C433.9 268.427 431.4 267.327 431.5 265.327C431.6 261.527 431.8 257.827 431.8 254.027C431.9 246.227 431.8 238.527 431.7 230.927ZM407.9 84.2273C409.3 85.6273 410.8 87.0273 412.2 88.4273C434.3 110.527 451.3 136.327 462.7 164.427C463.8 167.227 461.4 170.227 458.4 169.727C451.8 168.527 444.4 168.027 436.2 168.127C430.5 168.227 425.6 164.227 424.6 158.627C420.1 133.627 413.7 110.527 405.4 90.4273C404.9 89.3273 404.5 88.1273 404 87.0273C402.9 84.5273 405.9 82.3273 407.9 84.2273ZM494.6 198.527C484.7 151.627 461.5 108.427 426.8 73.7273C379.6 26.5273 316.8 0.527344 250 0.527344C183.2 0.527344 120.4 26.5273 73.2 73.7273C61.7 85.2273 51.5 97.6273 42.6 110.827C40 114.327 37.6 118.027 35.5 121.927C12.4 160.427 0 204.527 0 250.527C0 317.327 26 380.127 73.2 427.327C120.4 474.527 183.2 500.527 250 500.527C316.8 500.527 379.6 474.527 426.8 427.327C449.1 405.027 466.6 379.327 479 351.327C480.5 348.227 481.8 345.027 483 341.827C494.2 313.127 500.1 282.327 500.1 250.627C500.1 233.127 498.3 216.027 494.8 199.327C494.7 198.927 494.6 198.727 494.6 198.527Z" fill="black"/>
</g>
<defs>
<clipPath id="clip0_1_10389">
<rect width="500" height="500" fill="white" transform="translate(0 0.527344)"/>
</clipPath>
</defs>
</svg>
