<svg width="500" height="501" viewBox="0 0 500 501" fill="none" xmlns="http://www.w3.org/2000/svg">
<path d="M250.194 67.0874H469.521C469.521 67.0874 487.341 65.7164 492.825 79.4244C498.309 93.1324 490.54 100.9 484.6 106.383C478.66 111.866 366.255 190.458 366.255 190.458L250.194 67.0874Z" fill="#70EDF7"/>
<path d="M250.194 67.0874V273.163L366.255 190.459L250.194 67.0874Z" fill="#3B546B"/>
<path d="M250.194 67.0874L134.134 190.459L250.194 273.163V67.0874Z" fill="#30D6F7"/>
<path d="M250.194 67.0874H26.755C26.755 67.0874 10.762 67.5444 6.19296 81.7094C1.62396 95.8744 16.246 106.383 16.246 106.383L134.134 190.458L250.194 67.0874Z" fill="#0099D9"/>
<path d="M134.134 190.459L231.004 433.09C231.004 433.09 234.318 439.437 238.529 442.3C242.74 445.163 250.487 446.005 250.487 446.005V273.163L134.134 190.459Z" fill="#70EDF7"/>
<path d="M250.486 273.163L366.255 190.458L270.023 432.362C270.023 432.362 269.012 437.752 263.623 441.288C258.234 444.824 256.886 444.826 255.033 445.331C253.18 445.836 250.486 446.004 250.486 446.004V273.163Z" fill="#0099D9"/>
</svg>
