<svg width="500" height="501" viewBox="0 0 500 501" fill="none" xmlns="http://www.w3.org/2000/svg">
<path d="M457.5 114.927C439 115.227 413.4 116.927 382.2 121.827C350.1 88.6272 305 67.9272 255.2 67.9272C157.6 67.9272 78.4 147.127 78.4 244.727C78.4 245.627 78.5 246.527 78.5 247.327C53.8 265.227 33 282.527 16.5 297.527C-11.2 322.627 5.50003 368.727 42.9 370.227C63.8 371.027 90.2 369.127 123.3 362.427C155.7 398.727 202.8 421.527 255.2 421.527C352.8 421.527 432 342.327 432 244.727C432 240.527 431.8 236.427 431.5 232.227C463.4 210.227 481.8 191.127 491.9 175.127C508.5 148.827 488.7 114.427 457.5 114.927ZM143.8 311.927C135.9 298.827 130.3 284.227 127.4 268.727C159.9 245.527 199.2 220.427 235 205.527C273 189.827 322.1 179.427 363.5 172.727C371.3 184.427 377.2 197.427 380.9 211.327C354 227.627 317.4 247.127 268 268.727C218.1 290.727 176.5 303.927 143.8 311.927ZM255.2 114.727C280.2 114.727 303.5 121.827 323.3 134.027C291.7 142.027 256.6 153.127 219 168.727C185.9 182.427 155.8 198.127 128.8 214.327C142.5 157.127 193.9 114.727 255.2 114.727ZM56.6 323.927C56.6 323.927 68.3 313.727 86.9 299.127C89.4 306.727 92.3 314.127 95.7 321.327C70 324.827 56.6 323.927 56.6 323.927ZM255.2 374.827C225.9 374.827 198.9 365.127 177.2 348.827C211.3 338.627 250.7 324.327 296.1 304.427C330.8 289.227 359.9 274.927 384.2 261.427C376 325.427 321.4 374.827 255.2 374.827ZM421.4 184.327C419.1 178.027 416.4 171.927 413.4 165.927C433.5 163.627 446.4 162.627 446.4 162.627C446.4 162.627 439.6 170.627 421.4 184.327Z" fill="url(#paint0_linear_1_10398)"/>
<path d="M296.3 219.527C265.7 219.527 241 244.327 241 274.827C241 305.327 265.8 330.127 296.3 330.127C326.9 330.127 351.6 305.327 351.6 274.827C351.6 244.327 326.8 219.527 296.3 219.527ZM296.3 302.227C281.2 302.227 268.9 289.927 268.9 274.827C268.9 259.727 281.2 247.427 296.3 247.427C311.4 247.427 323.7 259.727 323.7 274.827C323.6 289.927 311.4 302.227 296.3 302.227Z" fill="url(#paint1_linear_1_10398)"/>
<path d="M323.285 279.199C325.71 264.261 315.566 250.187 300.628 247.763C285.691 245.338 271.616 255.482 269.192 270.42C266.768 285.357 276.912 299.432 291.849 301.856C306.787 304.28 320.861 294.136 323.285 279.199Z" fill="white"/>
<defs>
<linearGradient id="paint0_linear_1_10398" x1="3.00034" y1="336.568" x2="500.677" y2="155.429" gradientUnits="userSpaceOnUse">
<stop stop-color="#0ADAFF"/>
<stop offset="0.6341" stop-color="#2E59FE"/>
<stop offset="1" stop-color="#7961FA"/>
</linearGradient>
<linearGradient id="paint1_linear_1_10398" x1="240.926" y1="274.859" x2="351.582" y2="274.859" gradientUnits="userSpaceOnUse">
<stop stop-color="#0ADAFF"/>
<stop offset="0.6341" stop-color="#2E59FE"/>
<stop offset="1" stop-color="#7961FA"/>
</linearGradient>
</defs>
</svg>
