<svg width="500" height="501" viewBox="0 0 500 501" fill="none" xmlns="http://www.w3.org/2000/svg">
<path d="M247.8 158.027C220 158.327 201.2 177.827 201.4 206.127C201.4 236.227 220.3 255.627 249 255.627H249.9V158.027H247.8Z" fill="#17A84B"/>
<path d="M298.3 206.327C298 179.727 276.5 158.227 249.8 158.027V255.627C276.8 255.527 298.5 233.527 298.3 206.327C298.3 206.527 298.3 206.527 298.3 206.327Z" fill="#077FA2"/>
<path d="M250 499.327V269.727L240.5 269.927C219.4 269.927 203 286.227 200.3 307.727C198.9 318.527 198.9 322.027 198.6 325.627C198.1 334.227 195.9 337.827 187.3 332.827C174.9 325.827 162.9 317.827 151.7 309.127C86.1002 247.627 92.2002 146.927 172.8 91.5272C191.7 78.6272 202.9 64.2272 198.2 40.1272C191.6 6.62717 162.5 -8.47283 133 8.52717C55.5002 53.0272 17.7002 121.627 14.7002 197.127C14.7002 218.827 17.4002 240.427 22.8002 261.527C23.0002 262.727 23.1002 263.727 23.3002 264.927C36.9002 333.527 75.7002 384.927 141.6 417.727C155.9 424.427 170.5 429.927 185.6 434.227C193.2 435.627 198.7 442.427 198.3 450.227C198.5 455.027 199 459.727 199.8 464.527C203.6 486.027 220.4 499.427 242.8 499.627" fill="#17A84B"/>
<path d="M366.5 8.52738C337 -8.47262 307.9 6.62738 301.4 40.2274C296.6 64.3274 307.9 78.7274 326.8 91.6274C407.2 146.927 413.6 247.627 347.9 309.227C336.6 318.027 324.7 325.927 312.3 332.927C303.5 337.927 301.5 334.327 301 325.727C301 319.727 300.5 313.727 299.5 307.827C296.8 286.327 280.6 270.227 259.3 270.027L250 269.827L249.8 498.727V499.427L257 499.227C279.3 499.227 296.2 485.627 300 464.127C300.9 459.527 301.4 454.627 301.5 449.827C301.3 442.127 306.7 435.227 314.4 433.827C329.5 429.527 344.1 424.027 358.4 417.327C424.2 384.127 463.1 333.127 476.6 264.527C476.8 263.327 476.9 262.127 477.1 261.127C482.4 240.127 485.2 218.527 485.2 196.727C481.8 121.427 444 53.0274 366.5 8.52738Z" fill="#077FA2"/>
</svg>
