<svg width="500" height="501" viewBox="0 0 500 501" fill="none" xmlns="http://www.w3.org/2000/svg">
<path d="M176.897 243.9C282.406 243.9 386.784 243.9 491.592 243.9C491.592 248.882 491.592 253.57 491.592 259.26C387.908 259.26 284.118 259.26 179.814 259.26C179.814 263.602 179.814 266.977 179.814 271.034C283.422 271.034 387.3 271.034 491.571 271.034C491.571 276.768 491.571 281.83 491.571 287.58C386.359 287.58 281.595 287.58 176.082 287.58C167.457 315.623 149.519 335.295 122.387 345.104C103.509 351.929 83.6671 351.897 64.5941 344.877C28.7741 331.691 4.56209 296.509 8.39909 256.728C12.0711 218.655 36.9241 190.827 73.0211 181.333C95.4191 175.442 117.636 178.93 137.713 191.121C157.688 203.249 170.561 221.102 176.897 243.9ZM57.6071 264.389C57.6061 285.348 72.2531 300.266 93.0131 300.662C114.935 301.08 129.29 284.121 129.908 264.909C130.582 243.969 111.823 227.633 93.4921 227.725C75.1921 227.816 55.9571 244.353 57.6071 264.389ZM304.893 221.093C311.688 221.093 318.04 221.093 325.072 221.093C325.072 227.845 325.072 233.615 325.072 239.163C328.711 239.163 331.657 239.163 334.637 239.163C334.637 223.994 334.637 209.273 334.637 194.321C331.322 194.321 328.378 194.321 324.526 194.321C324.526 200.316 324.526 206.042 324.526 211.723C317.664 211.723 311.725 211.723 304.905 211.723C304.905 205.387 304.905 193.555 304.905 193.555L295.143 193.492C295.143 193.492 295.143 224.438 295.143 239.428C298.432 239.428 301.235 239.428 304.893 239.428C304.893 233.14 304.893 227.52 304.893 221.093ZM390.641 218.824C391.056 218.689 391.471 218.555 391.886 218.42C396.857 225.499 401.827 232.578 406.955 239.88C410.213 239.434 413.379 239.001 416.956 238.512C411.664 230.767 406.865 223.743 402.085 216.747C406.992 209.322 411.815 202.024 416.961 194.237C412.874 194.237 409.486 194.237 406.278 194.237C401.351 201.258 396.606 208.019 391.861 214.78C391.338 214.698 390.814 214.616 390.29 214.534C390.29 207.803 390.29 201.072 390.29 194.333C386.583 194.333 384.072 194.333 381.497 194.333C381.497 209.621 381.497 224.494 381.497 239.078C384.713 239.078 387.422 239.078 390.64 239.078C390.641 231.986 390.641 225.405 390.641 218.824ZM449.804 231.184C444.253 231.184 439.014 231.184 433.035 231.184C433.294 227.062 433.5 223.783 433.735 220.035C439.619 220.035 444.546 220.035 449.673 220.035C449.673 217.2 449.673 214.9 449.673 211.962C444.07 211.962 438.73 211.962 433.687 211.962C433.687 208.176 433.687 205.039 433.687 201.444C439.387 201.444 444.549 201.444 449.485 201.444C449.485 198.719 449.485 196.481 449.485 194.396C440.564 194.396 431.95 194.396 423.44 194.396C423.44 209.477 423.44 224.072 423.44 239.135C432.548 239.135 441.114 239.135 449.804 239.135C449.804 236.404 449.804 233.884 449.804 231.184ZM356.15 212.198C356.15 208.535 356.15 201.302 356.15 201.302L371.663 200.715C371.663 200.715 371.461 196.564 371.347 194.233C362.625 194.233 354.317 194.233 346.026 194.233C346.026 209.58 346.026 224.286 346.026 239.168C354.726 239.168 363.056 239.168 371.291 239.168C371.291 236.394 371.291 234.075 371.291 231.471C366.1 231.471 361.24 231.471 356.371 231.471C356.371 227.648 356.371 224.335 356.371 220.483C361.706 220.19 366.388 219.933 371.338 219.661C371.338 217.267 371.338 215.187 371.338 212.197C365.987 212.198 361.273 212.198 356.15 212.198ZM275.007 239.117C275.007 226.504 275.007 214.373 275.007 201.461C279.727 201.461 288.435 201.461 288.435 201.461V193.133C288.435 193.133 261.617 193.162 252.604 193.162C252.604 196.782 252.604 199.045 252.604 201.775C256.588 201.775 260.223 201.775 264.621 201.775C264.621 214.327 264.621 226.427 264.621 239.116C268.717 239.117 271.606 239.117 275.007 239.117ZM481.833 194.328C479.106 200.47 476.482 206.38 473.203 213.767C469.879 206.056 467.277 200.022 464.887 194.48C461.237 194.48 458.559 194.48 455.358 194.48C457.975 200.341 462.689 210.912 462.689 210.912L468.451 222.208L468.328 239.182L476.69 239.136V222.577C476.69 222.577 487.512 202.114 491.063 194.328C487.398 194.328 484.627 194.328 481.833 194.328Z" fill="#00BCE6"/>
</svg>
