<svg width="500" height="501" viewBox="0 0 500 501" fill="none" xmlns="http://www.w3.org/2000/svg">
<path d="M250 489.197C381.813 489.197 488.669 382.341 488.669 250.527C488.669 118.713 381.813 11.8574 250 11.8574C118.186 11.8574 11.3301 118.713 11.3301 250.527C11.3301 382.341 118.186 489.197 250 489.197Z" stroke="#FFC04E" stroke-width="9" stroke-miterlimit="10"/>
<path d="M247.265 174.1L248.659 167.396H113.234L73.0091 336.342H117.257L147.654 199.576H201.797L169.55 336.342H209.775L241.419 199.576H241.955L246.755 176.527L247.319 174.1H247.265ZM323.746 167.396L283.521 335.001H367.86C378.017 335.058 388.119 333.524 397.801 330.455C413.811 325.28 433.293 314.446 436.377 292.094H448.445L452.467 276.004H437.718C437.718 276.004 439.059 251.869 408.22 247.846C408.22 247.846 435.037 239.801 439.059 225.052H452.468L457.831 208.962H443.082C443.082 208.962 448.445 170.078 390.789 167.396H323.746V167.396ZM94.4627 199.576H51.5557L59.6007 167.396H102.508L94.4627 199.576Z" fill="#FFC04E"/>
<path d="M380.732 234.437H346.54L354.585 198.234H380.732C390.721 198.227 398.826 206.319 398.833 216.309C398.833 216.318 398.833 216.327 398.833 216.336C398.84 226.325 390.748 234.43 380.758 234.437C380.749 234.437 380.741 234.437 380.732 234.437ZM371.708 304.161H330.598L340.265 262.595H371.708C383.775 262.595 393.47 271.9 393.47 283.378C393.47 294.855 383.722 304.161 371.708 304.161Z" fill="white"/>
<path d="M278.158 317.57L243.296 234.438L258.045 170.077L292.907 249.187L278.158 317.57Z" fill="#FFC04E"/>
</svg>
