<svg width="500" height="501" viewBox="0 0 500 501" fill="none" xmlns="http://www.w3.org/2000/svg">
<path d="M342.928 122.004C352.201 137.916 361.525 153.798 370.737 169.744C410.593 238.732 450.421 307.737 490.222 376.757C490.836 377.821 491.884 378.748 491.826 380.07C462.502 380.07 433.207 380.07 403.945 380.07C394.347 363.015 384.334 346.791 375.369 329.964C380.381 315.902 384.101 301.439 384.922 286.577C385.707 272.372 385.57 258.115 383.441 243.874C381.072 228.026 377.75 212.466 372.976 197.2C365.398 172.967 355.643 149.621 344.155 126.989C343.363 125.43 342.292 123.922 342.928 122.004Z" fill="#9C0149"/>
<path d="M56.7432 294.755C64.9922 280.275 73.1772 265.758 81.5012 251.322C121.229 182.415 160.991 113.527 200.774 44.6525C201.38 43.6025 201.553 42.1475 203.247 41.5625C217.615 67.0435 231.995 92.5455 246.539 118.339C236.74 135.058 226.945 151.768 217.15 168.479C216.186 168.502 215.196 168.39 214.26 168.565C195.977 171.984 178.834 178.481 162.734 187.761C149.368 195.465 137.184 204.72 125.625 214.956C112.369 226.695 100.291 239.503 89.0462 253.107C78.5452 265.812 68.9052 279.184 59.6272 292.811C58.9532 293.804 58.4932 295.285 56.7432 294.755Z" fill="#9C0149"/>
<path d="M366.807 461.801C365.523 461.853 364.24 461.949 362.956 461.95C260.959 461.96 158.961 461.963 56.9636 461.967C56.1626 461.967 55.3616 461.967 53.6006 461.967C68.7406 436.3 83.5806 411.142 98.4906 385.865C117.866 385.865 137.132 385.865 156.398 385.865C163.126 394.73 171.031 402.489 179.741 409.316C197.685 423.381 217.792 433.459 239.317 440.892C263.582 449.271 288.524 454.318 313.981 457.283C330.336 459.188 346.679 460.924 363.16 461.058C364.409 461.066 365.76 460.73 366.807 461.801Z" fill="#9C0149"/>
<path d="M56.7436 294.755C58.4936 295.285 58.9526 293.803 59.6286 292.811C68.9066 279.184 78.5456 265.812 89.0476 253.107C100.293 239.502 112.372 226.695 125.627 214.956C137.186 204.719 149.37 195.465 162.736 187.761C178.836 178.481 195.979 171.985 214.262 168.565C215.198 168.39 216.187 168.5 217.152 168.478C206.979 186.269 196.845 204.083 186.623 221.845C172.076 247.121 157.461 272.358 142.889 297.62C142.496 298.301 142.267 299.078 141.962 299.81L141.739 299.678C141.492 299.74 141.249 299.815 141.01 299.902C127.561 299.288 114.578 302.016 101.737 305.543C71.1896 313.935 45.3676 329.801 24.9726 354.245C23.5926 355.899 22.4976 358.053 20.0996 358.659C20.1206 358.344 20.0366 357.968 20.1786 357.723C30.0796 340.648 39.9986 323.584 49.9166 306.519C50.5676 306.351 50.9426 305.98 50.8436 305.26L50.6666 305.251C52.1296 305.303 52.0696 304.398 51.8386 303.386L51.7466 303.484C53.0326 303.361 53.0796 302.503 52.9116 301.519L52.8176 301.638C53.9896 301.441 54.0396 300.591 53.9646 299.667L53.8916 299.759C54.5546 299.592 54.8476 299.195 54.6736 298.506L54.5566 298.488C57.2086 298.412 56.9946 296.598 56.7976 294.794L56.7436 294.755Z" fill="#C6015D"/>
<path d="M342.928 122.004C342.292 123.922 343.363 125.43 344.154 126.989C355.642 149.621 365.397 172.967 372.975 197.2C377.749 212.466 381.071 228.026 383.44 243.874C385.569 258.115 385.705 272.372 384.921 286.577C384.1 301.439 380.38 315.902 375.368 329.964C366.104 314.074 356.806 298.203 347.582 282.289C331.531 254.594 315.525 226.873 299.5 199.163C299.434 198.602 299.367 198.042 299.301 197.481C299.769 196.843 300.338 196.256 300.691 195.559C314.477 168.42 321.099 139.84 318.743 109.259C317.574 94.0878 314.236 79.5428 308.586 65.4798C308.024 64.0808 307.793 62.7228 307.972 61.2598C317.559 77.4128 327.17 93.5518 336.032 110.121C336.038 111.1 335.939 112.141 337.314 112.323L337.16 112.187C337.094 112.83 337.367 113.255 337.978 113.464L337.922 113.383C337.918 114.258 337.973 115.099 339.049 115.358L338.956 115.237C338.871 116.177 338.914 117.04 340.13 117.203L340.028 117.09C339.842 118.083 339.823 118.974 341.199 119.017L341.118 118.979C340.841 119.99 340.684 120.924 342.25 120.769L342.125 120.867C341.913 121.588 342.233 121.957 342.928 122.077V122.004Z" fill="#C6015D"/>
<path d="M366.806 461.801C365.76 460.73 364.409 461.066 363.158 461.056C346.677 460.922 330.334 459.186 313.979 457.281C288.522 454.316 263.581 449.27 239.315 440.89C217.789 433.457 197.683 423.379 179.739 409.314C171.029 402.487 163.124 394.728 156.396 385.863C158.483 385.804 160.57 385.696 162.657 385.694C210.758 385.658 258.859 385.634 306.959 385.608C307.271 385.702 307.583 385.796 307.895 385.891C317.798 402.479 330.686 416.485 345.61 428.583C363.688 443.237 384.093 453.232 406.907 458.295C413.761 459.816 420.733 460.431 427.589 461.819C407.329 461.814 387.067 461.807 366.806 461.801Z" fill="#C6005D"/>
<path d="M20.0975 358.659C22.4965 358.053 23.5915 355.898 24.9705 354.245C45.3655 329.801 71.1875 313.935 101.735 305.543C114.576 302.015 127.559 299.287 141.008 299.902C140.687 301.901 139.203 303.26 138.189 304.856C131.988 314.623 127.8 325.221 127.657 336.777C127.519 347.986 131.609 358.057 139.445 366.311C142.396 369.42 145.641 372.25 148.752 375.208C102.62 375.873 56.4845 376.044 9.47852 376.016C12.1525 371.519 13.9885 367.181 17.0245 363.491C18.0975 363.254 18.3485 362.484 18.3035 361.521L18.2505 361.577C18.8985 361.531 19.1885 361.139 19.2565 360.534L19.1945 360.605C20.2125 360.292 20.4185 359.567 20.1975 358.626L20.0975 358.659Z" fill="#FE439A"/>
<path d="M307.971 61.2605C307.792 62.7235 308.023 64.0815 308.585 65.4805C314.235 79.5435 317.574 94.0885 318.742 109.26C321.098 139.841 314.476 168.421 300.69 195.56C300.336 196.256 299.768 196.844 299.3 197.482C298.999 197.383 298.693 197.3 298.383 197.232C297.237 194.77 296.279 192.197 294.912 189.865C289.232 180.17 281.905 171.921 271.944 166.562C260.436 160.371 248.398 160.375 236.206 164.767C234.479 165.389 232.757 167.434 230.614 165.538C253.292 125.72 275.97 85.9025 299.137 45.2275C301.836 50.5935 305.289 54.6935 306.992 59.8365C307.076 60.5185 307.182 61.1865 308.017 61.3645L307.971 61.2605Z" fill="#FE439A"/>
<path d="M427.591 461.82C420.735 460.433 413.763 459.818 406.909 458.296C384.095 453.233 363.689 443.238 345.612 428.584C330.687 416.486 317.799 402.48 307.897 385.892C308.221 385.807 308.545 385.721 308.869 385.636C316.667 386.617 324.439 386.278 332.105 384.697C342.038 382.649 351.015 378.434 357.767 370.728C365.059 362.407 368.81 352.484 369.015 341.327C370.471 341.942 371.042 343.303 371.77 344.55C394.015 382.704 416.269 420.853 438.514 459.006C438.985 459.814 439.717 460.542 439.448 461.855C435.523 462.039 431.562 462.211 427.591 461.82Z" fill="#FE439B"/>
<path d="M141.959 299.811C176.424 297.935 210.943 299.585 245.413 297.392C260.052 323.38 274.342 348.751 288.954 374.69C285.482 375.276 282.676 375.151 279.859 374.857C279.744 373.311 278.654 373.259 277.454 373.17C270.124 372.623 262.929 371.146 255.744 369.724C241.137 366.833 226.882 362.699 212.896 357.533C195.186 350.992 179.679 341.035 165.968 328.187C156.817 319.611 149.039 309.841 141.736 299.68L141.959 299.811Z" fill="#FEA2CE"/>
<path d="M308.868 385.636C308.544 385.721 308.22 385.807 307.896 385.892C307.584 385.798 307.272 385.704 306.96 385.609C304.242 378.173 299.444 371.89 295.472 365.164C282.342 342.927 269.007 320.81 255.763 298.64C255.359 297.963 255.098 297.201 254.659 296.235C269.469 271.188 284.299 246.107 299.477 220.437C301.216 223.509 302.606 225.965 303.996 228.421C303.126 229.073 303.765 229.17 304.319 229.298C305.016 229.613 305.15 230.21 305.116 230.891C304.933 232.679 305.238 234.326 305.938 236.035C310.492 247.156 314.162 258.587 317.211 270.199C321.936 288.194 325.165 306.4 324.422 325.14C324.313 327.893 323.636 330.516 323.432 333.212C322.407 346.746 318.317 359.498 313.792 372.165C312.184 376.669 309.271 380.697 308.868 385.636Z" fill="#FEA2CE"/>
<path d="M298.384 197.231C298.694 197.298 299 197.381 299.301 197.481C299.367 198.042 299.434 198.602 299.5 199.163C295.745 202.832 294.056 207.795 291.566 212.216C278.038 236.23 264.751 260.378 251.363 284.47C250.513 286 249.506 287.443 248.534 288.988C219.463 289.969 190.55 287.706 161.054 288.292C162.476 283.811 164.728 280.736 166.774 277.556C168.685 277.747 169.644 276.447 170.635 275.141C182.983 258.866 197.211 244.366 212.887 231.333C235.332 212.672 261.496 202.819 290.284 199.271C292.961 198.941 296.06 199.344 298.384 197.231Z" fill="#FEA2CE"/>
<path d="M298.383 197.232C296.059 199.345 292.96 198.942 290.283 199.272C261.495 202.82 235.331 212.673 212.886 231.334C197.21 244.367 182.983 258.866 170.634 275.142C169.643 276.448 168.684 277.748 166.773 277.557C177.673 258.29 188.526 238.996 199.486 219.762C209.804 201.654 220.234 183.61 230.614 165.538C232.757 167.433 234.479 165.389 236.206 164.767C248.398 160.375 260.435 160.371 271.944 166.562C281.905 171.921 289.232 180.17 294.912 189.865C296.279 192.197 297.237 194.77 298.383 197.232Z" fill="#FE84BE"/>
<path d="M141.738 299.679C149.041 309.84 156.819 319.611 165.97 328.186C179.681 341.034 195.188 350.991 212.898 357.532C226.884 362.697 241.139 366.832 255.746 369.723C262.931 371.145 270.126 372.622 277.456 373.169C278.656 373.259 279.745 373.311 279.861 374.856C259.939 374.947 240.017 375.07 220.095 375.121C196.314 375.182 172.534 375.182 148.753 375.208C145.642 372.251 142.397 369.42 139.446 366.311C131.61 358.057 127.52 347.986 127.658 336.777C127.801 325.221 131.989 314.623 138.19 304.856C139.203 303.26 140.688 301.902 141.009 299.902C141.248 299.816 141.491 299.741 141.738 299.679Z" fill="#FE84BE"/>
<path d="M308.869 385.636C309.272 380.697 312.184 376.669 313.793 372.166C318.318 359.499 322.408 346.747 323.433 333.213C323.637 330.517 324.314 327.894 324.423 325.141C325.166 306.401 321.936 288.195 317.212 270.2C314.163 258.587 310.493 247.157 305.939 236.036C305.239 234.326 304.934 232.68 305.117 230.892C310.91 239.355 315.671 248.436 320.857 257.26C336.277 283.494 351.554 309.812 366.88 336.102C367.834 337.739 369.129 339.249 369.016 341.328C368.811 352.484 365.06 362.408 357.768 370.729C351.015 378.435 342.038 382.65 332.106 384.698C324.439 386.278 316.667 386.617 308.869 385.636Z" fill="#FE84BE"/>
<path d="M56.7957 294.794C56.9927 296.598 57.2067 298.413 54.5547 298.488C55.0277 297.091 55.5787 295.741 56.7957 294.794Z" fill="#9C0149"/>
<path d="M340.129 117.203C338.913 117.04 338.87 116.176 338.955 115.237C339.829 115.604 339.951 116.421 340.129 117.203Z" fill="#9C0149"/>
<path d="M18.3044 361.521C18.3494 362.484 18.0984 363.254 17.0254 363.491C17.2984 362.735 17.3294 361.822 18.3044 361.521Z" fill="#C6015D"/>
<path d="M20.199 358.625C20.42 359.566 20.215 360.291 19.196 360.604C18.789 359.569 19.135 358.915 20.199 358.625Z" fill="#C6015D"/>
<path d="M341.199 119.018C339.822 118.976 339.841 118.084 340.028 117.091C340.844 117.475 341.014 118.251 341.199 119.018Z" fill="#9C0149"/>
<path d="M51.8351 303.386C52.0661 304.398 52.1261 305.304 50.6631 305.251C50.8391 304.495 51.0771 303.778 51.8351 303.386Z" fill="#9C0149"/>
<path d="M52.9082 301.519C53.0752 302.504 53.0292 303.362 51.7432 303.484C51.9112 302.699 52.0362 301.887 52.9082 301.519Z" fill="#9C0149"/>
<path d="M342.251 120.769C340.685 120.925 340.841 119.99 341.119 118.979C341.833 119.363 342.053 120.059 342.251 120.769Z" fill="#9C0149"/>
<path d="M53.9615 299.668C54.0365 300.591 53.9865 301.442 52.8145 301.639C52.9725 300.851 53.0705 300.028 53.9615 299.668Z" fill="#9C0149"/>
<path d="M339.049 115.359C337.973 115.1 337.918 114.259 337.922 113.384C338.758 113.779 338.91 114.565 339.049 115.359Z" fill="#9C0149"/>
<path d="M337.313 112.323C335.938 112.14 336.037 111.1 336.031 110.121C336.871 110.615 337.132 111.446 337.313 112.323Z" fill="#9C0149"/>
<path d="M54.6707 298.507C54.8447 299.196 54.5527 299.594 53.8887 299.76C53.9597 299.223 54.0407 298.694 54.6707 298.507Z" fill="#9C0149"/>
<path d="M342.929 122.077C342.234 121.957 341.915 121.588 342.126 120.867C342.768 121.022 342.849 121.549 342.929 122.077Z" fill="#9C0149"/>
<path d="M50.8401 305.261C50.9391 305.981 50.5641 306.352 49.9131 306.52C50.0841 305.999 50.1621 305.409 50.8401 305.261Z" fill="#9C0149"/>
<path d="M304.319 229.299C303.765 229.171 303.127 229.074 303.996 228.422C304.105 228.714 304.213 229.006 304.319 229.299Z" fill="#FE84BE"/>
<path d="M19.2589 360.534C19.1909 361.139 18.9009 361.531 18.2529 361.577C18.3629 361.012 18.2909 360.272 19.2589 360.534Z" fill="#C6015D"/>
<path d="M308.017 61.3649C307.182 61.1869 307.076 60.5189 306.992 59.8369C307.646 60.1359 307.943 60.6759 308.017 61.3649Z" fill="#C6015D"/>
<path d="M337.978 113.464C337.367 113.255 337.093 112.831 337.16 112.188C337.798 112.378 337.91 112.907 337.978 113.464Z" fill="#9C0149"/>
</svg>
