<svg width="500" height="501" viewBox="0 0 500 501" fill="none" xmlns="http://www.w3.org/2000/svg">
<g clip-path="url(#clip0_1_10452)">
<path d="M493.9 162.728C412.701 144.528 324 165.528 260.4 226.528C256.7 229.928 253.9 233.828 250.4 237.428C246.9 233.428 243 229.628 239.3 225.928C176.4 164.528 87.9005 142.728 6.50049 160.328C-12.3995 238.728 9.30049 324.428 72.5005 385.928C106.8 419.228 148.4 440.428 192.5 450.528C192.5 450.928 192.7 451.328 192.7 451.828C273.8 470.028 362.6 449.128 426.201 388.128C489.6 326.728 512.1 241.128 493.9 162.728Z" fill="#14F195"/>
<path d="M334.8 443.227C332 369.627 303.8 296.727 250.6 237.627C196.6 296.127 167.7 368.427 163.8 441.827C173.1 445.227 182.7 447.927 192.2 450.227C192.2 450.627 192.4 451.027 192.4 451.527C239.6 461.927 289.1 459.227 334.8 443.227Z" fill="#14B572"/>
<path d="M334.2 68.827C334 65.227 333.5 61.527 333.1 57.927C324.4 55.027 315.3 51.627 306.4 49.527C306.4 49.127 306.4 49.927 306.4 49.527C260.2 39.027 211.4 41.127 166.2 56.227C165.5 60.627 165.1 65.027 164.7 69.627C164.9 73.227 165.4 76.927 165.8 80.527C174.5 83.427 183.6 86.827 192.5 88.927C192.5 88.527 192.5 89.327 192.5 88.927C238.7 99.427 287.5 97.327 332.7 82.227C333.3 77.627 333.8 73.227 334.2 68.827Z" fill="#14F195"/>
</g>
<defs>
<clipPath id="clip0_1_10452">
<rect width="500" height="500" fill="white" transform="translate(0 0.527344)"/>
</clipPath>
</defs>
</svg>
