<svg width="500" height="501" viewBox="0 0 500 501" fill="none" xmlns="http://www.w3.org/2000/svg">
<g clip-path="url(#clip0_1_10459)">
<path fill-rule="evenodd" clip-rule="evenodd" d="M205.7 3.72775C113 20.3278 35.8 90.7278 7.30004 184.728C2.10004 201.828 0.300044 220.328 0.600044 252.128C1.10004 303.328 12.3 344.728 35.7 382.028L49.9 404.528L128.5 357.928L207.1 311.328L208.2 405.928L209.3 500.528H249H288.8V407.128C288.8 341.928 290.1 313.728 293.2 313.728C295.6 313.728 330.8 333.628 371.5 358.028C428.6 392.328 446.9 401.428 451.8 398.428C458.4 394.428 490.8 334.728 487.8 332.228C486.9 331.428 432.9 299.128 368 260.328L249.9 189.828L170.3 237.828C126.5 264.228 88.4 285.828 85.7 285.828C82 285.828 81.1001 276.228 82.3 247.028C83.7001 213.728 85.7 204.528 96.5 181.328C149.5 68.5278 296.6 48.7278 379.7 143.228C395.7 161.428 411 194.528 416.3 222.228C418.5 233.928 420.8 243.828 421.3 244.128C421.8 244.528 439.3 254.928 460.1 267.228L498 289.728L499.2 256.928C500.9 212.128 494.6 182.828 474 140.628C452.7 96.8278 429.2 69.7278 390 43.5278C338.2 9.02775 265.1 -6.77225 205.7 3.72775Z" fill="url(#paint0_linear_1_10459)"/>
</g>
<defs>
<linearGradient id="paint0_linear_1_10459" x1="325.431" y1="54.4598" x2="220.576" y2="329.355" gradientUnits="userSpaceOnUse">
<stop stop-color="#7A1DF2"/>
<stop offset="1" stop-color="#FF0083"/>
</linearGradient>
<clipPath id="clip0_1_10459">
<rect width="500" height="500" fill="white" transform="translate(0 0.527344)"/>
</clipPath>
</defs>
</svg>
