<svg width="500" height="501" viewBox="0 0 500 501" fill="none" xmlns="http://www.w3.org/2000/svg">
<path d="M250 499.527C387.5 499.527 499 388.027 499 250.527C499 113.027 387.5 1.52734 250 1.52734C112.5 1.52734 1 113.027 1 250.527C1 388.027 112.5 499.527 250 499.527Z" fill="#0088CC"/>
<path fill-rule="evenodd" clip-rule="evenodd" d="M180.7 166.027H320.4C325.3 166.027 330.3 166.727 335.4 169.127C341.6 172.027 344.9 176.527 347.2 179.927C347.4 180.227 347.5 180.427 347.7 180.727C350.4 185.527 351.8 190.727 351.8 196.327C351.8 201.627 350.5 207.427 347.7 212.427L347.6 212.527L259.4 364.127C257.5 367.427 253.9 369.527 250 369.527C246.1 369.527 242.6 367.427 240.6 364.127L154 212.827C154 212.827 154 212.727 153.9 212.727C151.9 209.427 148.9 204.427 148.3 197.927C147.8 191.927 149.2 185.927 152.2 180.727C155.2 175.527 159.7 171.327 165.2 168.827C171.1 166.027 177 166.027 180.7 166.027ZM239.2 187.727H180.7C176.9 187.727 175.4 187.927 174.4 188.427C173 189.127 171.8 190.227 171 191.527C170.2 192.927 169.8 194.527 170 196.127C170.1 197.027 170.5 198.127 172.7 201.727C172.7 201.827 172.8 201.927 172.8 201.927L239.3 318.027V187.727H239.2ZM260.8 187.727V318.627L328.8 201.827C329.6 200.427 330.1 198.427 330.1 196.327C330.1 194.627 329.8 193.227 329 191.727C328.2 190.527 327.7 189.927 327.3 189.527C326.9 189.127 326.7 188.927 326.3 188.827C324.7 188.127 323 187.727 320.4 187.727H260.8Z" fill="white"/>
</svg>
