<svg width="500" height="501" viewBox="0 0 500 501" fill="none" xmlns="http://www.w3.org/2000/svg">
<g clip-path="url(#clip0_1_10468)">
<path fill-rule="evenodd" clip-rule="evenodd" d="M367.5 108.027C438.7 114.127 494.7 171.627 498.8 243.027C495.6 125.027 397.3 31.9273 279.3 35.2273C209.3 37.1273 144.7 73.2273 106.3 131.827C112.3 60.5273 169.9 4.62734 241.2 0.527344C122.6 5.92734 30.8 106.427 36.2 225.027C39.3 292.627 74 354.927 130 393.027C59.3 386.327 4 328.927 0 258.027C2.9 376.027 100.9 469.327 218.9 466.427C288.3 464.727 352.6 429.427 391.2 371.727C384.6 441.827 327.8 496.527 257.5 500.527C375.5 496.627 468 397.827 464.1 279.827C461.8 210.227 425.8 146.127 367.5 108.027ZM248.8 340.527C225.3 340.627 202.7 331.227 186.3 314.327C151.8 279.527 152 223.327 186.8 188.827C221.6 154.327 277.8 154.527 312.3 189.327C346.8 224.127 346.6 280.327 311.8 314.827C295 331.427 272.3 340.627 248.8 340.527Z" fill="#44F1A6"/>
</g>
<defs>
<clipPath id="clip0_1_10468">
<rect width="500" height="500" fill="white" transform="translate(0 0.527344)"/>
</clipPath>
</defs>
</svg>
