<svg width="500" height="501" viewBox="0 0 500 501" fill="none" xmlns="http://www.w3.org/2000/svg">
<g clip-path="url(#clip0_1_10470)">
<path d="M250 500.527C388.071 500.527 500 388.599 500 250.527C500 112.456 388.071 0.527344 250 0.527344C111.929 0.527344 0 112.456 0 250.527C0 388.599 111.929 500.527 250 500.527Z" fill="white"/>
<path d="M327.7 112.827L321.4 144.227H276.1L269.8 112.827H231.9L225.6 144.227H185.8L179.5 112.827H134.4L142.6 195.727H357.5L365.7 112.627L327.7 112.827ZM145 211.727L146.1 227.727L150.3 273.327L150.5 275.427L158.1 358.027L249.9 438.527L250.1 437.627L250.3 438.527L342.1 358.027L354.1 227.827L355 212.527L355.3 211.727H145ZM173.5 244.427H229.9V385.927L182 342.327L173.5 244.427ZM271.9 384.427V244.427H326.6L318.1 342.227L271.9 384.427Z" fill="black"/>
</g>
<defs>
<clipPath id="clip0_1_10470">
<rect width="500" height="500" fill="white" transform="translate(0 0.527344)"/>
</clipPath>
</defs>
</svg>
