<svg width="500" height="501" viewBox="0 0 500 501" fill="none" xmlns="http://www.w3.org/2000/svg">
<path d="M249.7 497.927C116.6 499.227 0.900062 388.927 2.90006 247.227C4.90006 116.827 109.3 3.82715 250.3 3.82715C390.7 3.82715 499 118.827 497 254.527C495.1 391.627 382.1 499.227 249.7 497.927ZM249.7 481.227C373.4 481.927 480.4 381.627 479.7 250.527C479.7 123.527 377.4 21.2271 251 20.5271C123.3 20.5271 19.0001 123.527 19.7001 251.227C19.7001 381.627 126.6 481.927 249.7 481.227Z" fill="#3158A6"/>
<path d="M249.7 481.227C126.7 481.927 19.6998 381.627 19.6998 251.227C18.9998 123.527 123.3 20.5273 251.7 20.5273C378 21.2273 480.3 123.527 480.3 250.527C480.3 381.627 373.4 481.927 249.7 481.227ZM249.7 465.827C367.4 465.827 461.7 371.527 465 256.527C468.3 136.827 373.4 36.5273 252.4 35.9273C131.3 35.2273 34.9998 131.527 34.9998 251.227C34.9998 370.227 131.3 465.827 249.7 465.827Z" fill="white"/>
<path d="M249.7 465.828C130.6 465.828 35 369.528 35 251.228C35 131.528 131.3 35.2276 252.3 35.9276C372.7 37.2276 467.6 137.528 465 256.528C461.6 371.528 367.3 466.528 249.7 465.828ZM198.2 205.028C198.2 207.028 198.2 208.328 198.2 209.728C194.2 227.828 190.2 245.828 186.2 263.928C181.5 286.028 176.8 308.028 172.8 330.128C170.1 346.828 179.5 363.528 194.9 372.228C204.9 377.528 215.6 380.928 227 380.928C247.7 381.628 268.5 381.628 288.5 381.628C303.2 381.628 303.2 381.628 306.6 367.628V366.928C309.3 354.228 312.6 341.528 315.3 328.828C312 328.828 310 328.128 307.3 328.128C289.2 328.128 271.9 328.128 253.8 328.128C240.4 327.428 233.7 318.728 236.4 306.028C243.1 273.928 249.8 241.828 257.1 210.428C257.8 206.428 259.8 205.128 263.8 205.728C283.9 205.728 303.9 205.728 324 205.728C329.3 205.728 331.4 203.728 332 199.028C334 188.328 336.7 177.628 339.4 167.628C340.1 163.628 341.4 158.928 342.7 154.228C318.6 154.228 295.2 154.228 271.2 154.228C275.9 133.528 279.9 114.128 283.9 94.7276C282.6 94.0276 281.9 94.0276 281.2 94.0276C263.1 94.0276 245.1 94.0276 227.7 94.0276C226.4 94.0276 223.7 96.7276 223 98.7276C219 115.428 215 132.128 211.6 148.828C210.9 153.528 208.3 154.828 204.2 154.828C187.5 154.828 170.8 154.828 154.7 154.828C148.7 154.828 146 156.128 145.3 162.228C144.6 166.228 143.3 170.228 142.6 174.228C139.9 184.928 137.9 194.928 135.2 206.328C156.7 205.028 177.5 205.028 198.2 205.028ZM359.3 150.228C358.6 152.928 358 154.928 357.3 156.228C352.6 175.628 347.9 195.028 343.9 214.428C342.6 219.128 341.2 220.428 336.5 220.428C316.4 220.428 296.4 220.428 276.3 220.428C272.3 220.428 270.3 221.728 269.6 225.728C266.3 241.128 262.9 256.528 259.6 271.828C256.9 283.828 254.9 295.928 252.2 307.228C251.5 309.928 251.5 313.928 255.5 313.228C259.5 312.528 264.9 315.928 266.2 308.528C268.9 296.528 271.5 283.828 274.2 271.728C276.9 259.028 279.5 247.028 282.2 234.328C284.9 234.328 286.9 234.328 288.9 234.328C309 234.328 329 234.328 349.1 234.328C353.1 234.328 354.4 233.028 355.1 229.628C359.1 213.628 361.8 196.828 367.1 180.828C371.4 168.928 364 160.928 359.3 150.228ZM333.2 327.428C332.5 327.428 331.9 327.428 331.2 327.428C330.5 329.428 329.9 332.128 329.2 334.128C324.5 353.528 319.8 372.928 315.8 392.328C315.1 395.628 313.1 397.028 309.8 397.028C283.7 397.028 257.6 397.028 231.6 397.028C214.9 396.328 198.2 393.028 183.5 383.628C180.8 381.628 178.2 379.628 175.5 378.328C176.2 381.028 176.8 383.028 178.2 385.028C192.9 403.128 213 410.428 235 411.728C263.8 413.028 292.5 412.428 321.3 413.028C325.3 413.028 326.6 411.728 328 407.728C331.3 391.028 334.7 373.628 340 357.628C343.9 344.128 336.6 336.828 333.2 327.428ZM301.1 91.4276C300.4 91.4276 299.8 91.4276 299.8 91.4276C296.5 106.828 293.1 122.828 289.1 138.928C293.1 138.928 295.8 138.928 299.1 138.928C303.1 138.928 305.1 138.228 305.8 134.228C307.1 127.528 308.5 120.828 309.8 114.128C309.8 112.828 310.5 110.828 309.8 109.428C307.2 103.428 304.5 97.4276 301.1 91.4276ZM128.6 221.128C133.9 225.828 138 229.128 142.6 232.528C144.6 233.828 146.6 235.228 148.6 235.228C157.3 235.228 165.3 235.228 174 235.228C175.3 235.228 177.3 233.928 178 232.528C179.3 229.228 179.3 225.128 180.7 221.128C163.4 221.128 146.7 221.128 128.6 221.128Z" fill="#3158A6"/>
<path d="M198.2 205.028C177.5 205.028 156.7 205.028 135.3 205.028C138 193.628 140 183.628 142.7 172.928C143.4 168.928 145.4 164.928 145.4 160.928C146.1 154.928 148.7 153.528 154.8 153.528C171.5 154.228 188.2 153.528 204.3 153.528C209 153.528 211 152.228 211.7 147.528C215 130.828 219.1 114.128 223.1 97.4275C223.8 95.4275 225.8 92.7275 227.8 92.7275C245.9 92.7275 263.9 92.7275 281.3 92.7275C282 92.7275 282.6 93.4275 284 93.4275C280 112.828 275.3 132.228 271.3 152.928C295.4 152.928 318.8 152.928 342.8 152.928C341.5 158.228 340.8 162.328 339.5 166.328C336.8 177.028 334.2 187.728 332.1 197.728C331.4 202.428 329.4 204.428 324.1 204.428C304 203.728 284 204.428 263.9 204.428C259.9 204.428 257.9 205.128 257.2 209.128C250.5 241.228 243.2 273.328 236.5 304.728C233.8 317.428 240.5 326.828 253.9 326.828C272 327.528 289.3 326.828 307.4 326.828C310.1 326.828 312.1 327.528 315.4 327.528C312.1 340.928 309.4 353.628 306.7 365.628V366.328C303.4 380.328 303.4 380.328 288.6 380.328C267.9 380.328 247.1 380.328 227.1 379.628C215.7 379.628 205 376.328 195 370.928C179.6 362.228 170.3 346.228 172.9 328.828C176.2 306.728 181.6 284.728 186.3 262.628C190.3 244.528 194.3 226.528 198.3 208.428C198.2 208.428 198.2 207.028 198.2 205.028Z" fill="white"/>
<path d="M359.3 150.228C364 160.928 371.3 168.928 367.3 181.028C362.6 197.028 359.3 213.828 355.3 229.828C354.6 233.128 352.6 234.528 349.3 234.528C329.2 234.528 309.2 234.528 289.1 234.528C287.1 234.528 285.1 234.528 282.4 234.528C279.7 247.228 277.1 259.928 274.4 271.928C271.7 283.928 269.1 296.628 266.4 308.728C265.1 316.128 259.7 312.728 255.7 313.428C251 314.128 251.7 310.128 252.4 307.428C254.4 295.428 257.1 283.328 259.8 272.028C263.1 256.628 266.5 241.228 269.8 225.928C270.5 221.928 272.5 220.628 276.5 220.628C296.6 220.628 316.6 220.628 336.7 220.628C341.4 220.628 343.4 219.328 344.1 214.628C348.1 195.228 353.5 175.828 357.5 156.428C358 154.928 358.7 153.628 359.3 150.228Z" fill="white"/>
<path d="M333.2 327.427C337.2 336.827 343.9 344.127 340.6 356.227C335.9 372.927 332.6 389.627 328.6 406.327C327.9 410.327 325.9 411.627 321.9 411.627C293.1 410.927 264.4 412.327 235.6 410.327C213.5 409.027 193.5 402.327 178.8 383.627C177.5 381.627 176.1 379.627 176.1 376.927C178.8 378.927 181.4 380.927 184.1 382.227C198.8 391.627 214.9 394.927 232.2 395.627C258.3 396.327 284.4 395.627 310.4 395.627C313.7 395.627 315.1 394.927 316.4 390.927C320.4 371.527 325.1 352.127 329.8 332.727C330.5 330.727 331.1 328.027 331.8 326.027C331.9 327.427 332.6 327.427 333.2 327.427Z" fill="white"/>
<path d="M301.1 91.4277C303.8 97.4277 307.1 103.428 309.8 109.528C310.5 110.828 309.8 112.228 309.8 114.228C308.5 120.928 306.5 127.628 305.8 134.328C305.1 138.328 303.1 139.628 299.1 139.028C296.4 139.028 293.1 139.028 289.1 139.028C292.4 122.328 296.5 106.928 299.8 91.5277C300.5 91.4277 301.1 91.4277 301.1 91.4277Z" fill="white"/>
<path d="M128.6 221.127C146.7 221.127 163.4 221.127 180.1 221.127C179.4 225.127 178.8 229.127 177.4 232.527C176.7 233.827 174.7 235.227 173.4 235.227C164.7 235.227 156.7 235.227 148 235.227C146 235.227 144 233.927 142 232.527C138 229.127 134 225.127 128.6 221.127Z" fill="white"/>
</svg>
