<svg width="500" height="501" viewBox="0 0 500 501" fill="none" xmlns="http://www.w3.org/2000/svg">
<path fill-rule="evenodd" clip-rule="evenodd" d="M344.9 330.127L438.3 409.327L438.4 409.427L439.3 408.127C447.9 397.627 455.6 386.427 462.4 374.727L462.8 374.127L357.1 312.527C353.5 318.727 349.4 324.627 344.9 330.127Z" fill="url(#paint0_linear_1_10482)"/>
<path fill-rule="evenodd" clip-rule="evenodd" d="M373.5 251.728H495.8L495.6 254.628C495.4 266.828 494.4 279.128 492.5 291.228L492.2 294.728L491.3 298.028C489 310.028 485.9 321.928 481.8 333.428L481.1 335.928L366.2 293.728C371 280.228 373.5 266.028 373.5 251.728Z" fill="url(#paint1_linear_1_10482)"/>
<path fill-rule="evenodd" clip-rule="evenodd" d="M463.4 127.827C470 139.327 475.6 151.427 480.3 163.927L481.3 166.127L482 168.627C486.1 180.427 489.3 192.527 491.6 204.827L492.4 207.727L372 229.027C368.4 207.727 359.2 187.727 345.4 171.027L438.7 92.0273L439.7 93.2273C448.3 103.727 456 114.927 462.8 126.627L463.2 127.127L463.4 127.827Z" fill="url(#paint2_linear_1_10482)"/>
<path fill-rule="evenodd" clip-rule="evenodd" d="M273 128.628C266 127.328 258.8 126.628 251.6 126.628V4.22754C265.7 4.22754 279.7 5.42754 293.5 7.82754L294.1 7.92754L294.7 8.12754C308.2 10.5275 321.5 14.2275 334.4 18.8275L335.2 19.0275L336 19.3275C348.8 24.1275 361.2 29.9275 373 36.8275L373.6 37.1275L374.2 37.5275C385.9 44.3275 396.9 52.1275 407.3 60.8275L408.5 61.8275L330.3 155.928C319.4 146.628 307 139.328 293.7 134.328C286.9 131.828 280 129.928 273 128.628Z" fill="url(#paint3_linear_1_10482)"/>
<path d="M250.4 3.92773V126.528C182.2 126.528 126.9 182.028 126.9 250.528C126.9 319.028 182.2 374.528 250.4 374.528C286.9 374.528 321.5 358.328 344.8 330.428L438.3 409.428C391.8 465.128 323 497.228 250.4 497.228C114.8 497.228 4.80005 386.828 4.80005 250.628C4.80005 114.428 114.8 3.92773 250.4 3.92773ZM366.3 293.428L481 335.928C476 349.428 469.9 362.428 462.7 374.828L357.1 313.028C360.7 306.828 363.8 300.228 366.3 293.428ZM492.4 207.728C494.8 221.628 496.1 235.928 496.1 250.528H373.9C373.9 243.228 373.3 236.028 372 229.028L492.4 207.728ZM409.1 62.3277C420 71.6277 430.1 81.8277 439.3 92.8277L345.4 171.328C340.8 165.828 335.7 160.628 330.3 156.028L409.1 62.3277Z" fill="#1D2667"/>
<defs>
<linearGradient id="paint0_linear_1_10482" x1="416.875" y1="341.895" x2="388.749" y2="383.429" gradientUnits="userSpaceOnUse">
<stop stop-color="white" stop-opacity="0"/>
<stop offset="1" stop-opacity="0.1"/>
</linearGradient>
<linearGradient id="paint1_linear_1_10482" x1="439.656" y1="278.556" x2="428.555" y2="310.869" gradientUnits="userSpaceOnUse">
<stop stop-color="white" stop-opacity="0"/>
<stop offset="1" stop-opacity="0.1"/>
</linearGradient>
<linearGradient id="paint2_linear_1_10482" x1="393.869" y1="140.973" x2="439.373" y2="222.404" gradientUnits="userSpaceOnUse">
<stop stop-color="white" stop-opacity="0"/>
<stop offset="1" stop-opacity="0.1"/>
</linearGradient>
<linearGradient id="paint3_linear_1_10482" x1="250.146" y1="37.077" x2="381.732" y2="136.711" gradientUnits="userSpaceOnUse">
<stop stop-color="white" stop-opacity="0"/>
<stop offset="1" stop-opacity="0.1"/>
</linearGradient>
</defs>
</svg>
