<svg width="500" height="501" viewBox="0 0 500 501" fill="none" xmlns="http://www.w3.org/2000/svg">
<path d="M250.31 498.468C387.448 498.468 498.62 387.295 498.62 250.158C498.62 113.02 387.448 1.84766 250.31 1.84766C113.172 1.84766 2 113.02 2 250.158C2 387.295 113.172 498.468 250.31 498.468Z" fill="black"/>
<path d="M121.45 345.587C160.25 319.127 203.36 299.357 242.03 272.557C255.24 263.347 269.45 253.997 278.07 240.007C295.47 204.367 168.52 214.347 149.5 212.147C149.44 211.797 149.39 211.447 149.33 211.087C201.95 195.357 307.49 175.847 359.46 191.077C416.51 209.247 329.01 257.507 308.54 270.077C249.7 302.237 188.17 333.357 122.19 347.037C121.95 346.567 121.7 346.077 121.45 345.587Z" fill="#3EFCAB"/>
</svg>
