<svg width="500" height="501" viewBox="0 0 500 501" fill="none" xmlns="http://www.w3.org/2000/svg">
<g clip-path="url(#clip0_1_10491)">
<path d="M250 500.527C388.071 500.527 500 388.599 500 250.527C500 112.456 388.071 0.527344 250 0.527344C111.929 0.527344 0 112.456 0 250.527C0 388.599 111.929 500.527 250 500.527Z" fill="#178DD0"/>
<path d="M116.6 260.227C117.9 248.727 118.5 242.927 123.6 238.927C128.6 234.927 134.4 235.527 145.9 236.727C151.1 237.327 157.1 238.027 164 238.927C170.1 239.727 175.6 241.027 180.5 242.527C190.6 245.627 195.6 247.127 203.3 257.527C211 267.927 211 276.227 211 292.927C211 303.227 211 316.227 211 332.627C211 355.627 211 372.027 211 383.427C211 394.427 211 399.927 207.6 403.427C204.2 406.827 198.6 406.827 187.6 406.827C179.1 406.827 169.4 406.827 160.3 406.827C159.7 406.827 159 406.827 158.4 406.827C140.2 406.827 131.2 406.827 124.4 400.627C117.7 394.427 116.9 385.927 115.4 368.927C114.2 355.627 113.3 339.227 113.3 320.827C113.3 296.227 114.9 275.327 116.6 260.227Z" fill="white"/>
<path d="M379.5 260.227C378.2 248.727 377.6 242.927 372.5 238.927C367.5 234.927 361.7 235.527 350.2 236.727C345 237.327 339 238.027 332.1 238.927C326 239.727 320.5 241.027 315.6 242.527C305.5 245.627 300.5 247.127 292.8 257.527C285.1 267.927 285.1 276.227 285.1 292.927C285.1 303.227 285.1 316.227 285.1 332.627C285.1 355.627 285.1 372.027 285.1 383.427C285.1 394.427 285.1 399.927 288.5 403.427C291.9 406.827 297.5 406.827 308.5 406.827C317 406.827 326.7 406.827 335.9 406.827C336.5 406.827 337.2 406.827 337.8 406.827C356 406.827 365 406.827 371.8 400.627C378.5 394.427 379.3 385.927 380.8 368.927C382 355.627 382.9 339.227 382.9 320.827C382.8 296.227 381.2 275.327 379.5 260.227Z" fill="white"/>
<path d="M117.2 133.527C117.2 115.527 117.2 106.527 122.4 100.127C123.1 99.3273 123.8 98.4273 124.6 97.7273C130.6 92.0273 139.4 91.4273 156.8 90.1273C181.2 88.3273 214.5 86.5273 250 86.5273C285.5 86.5273 318.7 88.3273 343.2 90.1273C360.7 91.4273 369.4 92.0273 375.4 97.7273C376.2 98.4273 376.9 99.3273 377.6 100.127C382.8 106.527 382.8 115.527 382.8 133.527C382.8 151.327 382.8 160.327 377.6 166.727C376.9 167.527 376.2 168.427 375.4 169.127C369.4 174.827 360.7 175.427 343.5 176.727C319.7 178.527 286.9 180.227 250 180.227C213.1 180.227 180.3 178.427 156.5 176.727C139.3 175.427 130.6 174.827 124.6 169.127C123.8 168.427 123.1 167.527 122.4 166.727C117.2 160.227 117.2 151.327 117.2 133.527Z" fill="white"/>
</g>
<defs>
<clipPath id="clip0_1_10491">
<rect width="500" height="500" fill="white" transform="translate(0 0.527344)"/>
</clipPath>
</defs>
</svg>
