<svg width="500" height="501" viewBox="0 0 500 501" fill="none" xmlns="http://www.w3.org/2000/svg">
<path d="M250 495.385C385.231 495.385 494.857 385.758 494.857 250.527C494.857 115.296 385.231 5.66992 250 5.66992C114.769 5.66992 5.14261 115.296 5.14261 250.527C5.14261 385.758 114.769 495.385 250 495.385Z" fill="#30C0F2"/>
<path opacity="0.4" d="M376.389 139.322L492.195 286.68C492.195 286.68 480.068 443.521 305.052 489.173L240.14 411.574L376.389 139.322Z" fill="#298EA1"/>
<path d="M157.973 109.2H343.67C343.67 109.2 348.6 133.85 374.894 135.494C374.894 135.494 461.991 339.268 250 426.365C250 426.365 54.4424 363.918 123.463 137.137C123.463 137.137 153.043 135.494 157.973 109.2Z" fill="white"/>
<path d="M171.941 129.742H329.702C329.702 129.742 330.704 149.988 352.199 151.401C352.199 151.401 423.372 325.595 250.115 400.071C250.115 400.071 89.2322 348.273 145.648 154.392C145.648 154.392 167.915 152.223 171.941 129.742Z" fill="#F8B642" stroke="#298EA1" stroke-width="5.263" stroke-miterlimit="10"/>
<path d="M291.494 222.59H286.696C287.172 212.944 285.052 191.942 259.104 186.108C251.565 184.297 243.667 184.662 236.327 187.16C226.204 190.775 214.109 199.863 213.666 222.59H210.149C202.669 222.608 196.61 228.668 196.591 236.148V292.843C196.609 300.323 202.669 306.383 210.149 306.401H291.494C298.974 306.383 305.034 300.323 305.052 292.843V236.148C305.034 228.668 298.974 222.609 291.494 222.59ZM259.86 286.681H241.783L246.565 262.786C241.155 260.436 238.674 254.144 241.025 248.733C243.375 243.322 249.667 240.841 255.078 243.192C260.489 245.543 262.97 251.835 260.619 257.246C259.54 259.728 257.56 261.708 255.078 262.786L259.86 286.681ZM225.35 222.59C225.794 215.163 228.916 197.595 248.357 196.297C248.357 196.297 274.009 194.884 273.549 222.59H225.35Z" fill="white"/>
</svg>
