<svg width="500" height="501" viewBox="0 0 500 501" fill="none" xmlns="http://www.w3.org/2000/svg">
<path d="M157.8 413.928C161.8 406.828 190 358.328 199.9 340.328C204.9 331.228 212 327.228 222.1 327.228C241 327.328 260 327.228 278.9 327.228C287.6 327.228 294.7 330.128 299.3 338.228C313.5 363.128 327.9 387.928 342.8 413.828C338.6 418.928 334.5 424.328 330 429.328C310.3 451.628 289 472.328 265.7 490.828C253.5 500.528 247.3 500.728 235.3 491.128C206.8 468.528 181 443.328 157.8 413.928Z" fill="#00843D"/>
<path d="M220.3 300.027C211.6 300.227 205.4 297.027 201.1 289.227C191.5 272.127 181.7 255.227 171.7 238.327C167 230.427 167.1 223.227 171.8 215.327C181.8 198.527 191.6 181.527 201.2 164.427C205.3 157.127 211.1 153.627 219.5 153.627C240.1 153.727 260.6 153.727 281.2 153.627C289.1 153.627 295 156.827 298.9 163.627C309.2 181.427 319.5 199.227 329.8 217.027C333.5 223.527 333.5 230.127 329.7 236.627C319.4 254.427 309.1 272.227 298.8 290.027C294.8 296.927 288.9 300.027 281 299.827C270.9 299.727 230.4 299.727 220.3 300.027Z" fill="#00843D"/>
<path d="M163 48.2278C173.6 42.4278 224.6 14.6278 240.3 5.92782C246.9 2.22782 253.2 2.02782 259.8 5.62782C284.7 19.3278 309.7 32.8278 334.6 46.5278C335.4 46.9278 336 47.8278 337.3 48.9278C336.2 51.0278 311.8 93.2278 301.4 112.528C296.1 122.328 288.7 126.728 277.8 126.528C259.5 126.228 241.2 126.328 222.9 126.528C212.5 126.628 205.1 122.828 199.9 113.228C189.2 93.7278 164.6 51.5278 163 48.2278Z" fill="#00843D"/>
<path d="M362.7 61.9277C383.3 73.2277 434.2 100.928 439.9 104.128C446.2 107.628 449.6 113.028 449.5 120.028C449.1 150.428 445.9 180.528 439.2 210.128C439.1 210.728 438.5 211.228 437.5 212.628C435 212.828 392.2 212.828 373.9 213.328C363.5 213.528 356.7 209.428 351.8 200.428C343 184.428 333.8 168.628 324.4 153.028C319.1 144.228 318.8 136.328 324.1 127.428C336 107.528 347.3 87.4277 358.9 67.3277C359.7 65.8277 361 64.3277 362.7 61.9277Z" fill="#00843D"/>
<path d="M61.9 213.127C59.8 202.227 57.2 192.427 56.2 182.427C54.1 162.027 52.7 141.527 51.2 121.027C50.6 113.527 54 107.727 60.6 104.127C86 90.1271 111.4 76.2271 137.6 61.8271C139.4 64.4271 165.4 108.627 177 128.227C181.6 136.027 181.9 143.227 177.2 151.127C167 168.227 157.2 185.527 147.4 202.827C143.9 209.027 138.8 212.827 131.8 212.927C109 213.227 86.2 213.127 61.9 213.127Z" fill="#00843D"/>
<path d="M360.3 388.828C352.3 375.028 327.9 332.728 323.1 324.628C318.8 317.528 318.8 310.528 323 303.328C333.2 285.828 343.2 268.328 353.3 250.828C356.8 244.728 362.1 240.728 369 240.628C388.6 240.428 408.2 240.628 427.7 240.728C428.3 240.728 428.9 241.228 429.5 241.428C429.6 267.828 385.8 360.628 360.3 388.828Z" fill="#00843D"/>
<path d="M139.2 389.028C107.1 343.928 84.4 295.428 69.2 242.528C71.2 241.728 72.9 240.628 74.5 240.528C93.1 240.428 111.7 240.328 130.3 240.528C137.7 240.628 143.3 244.028 147 250.528C157.2 268.328 167.5 286.128 177.8 303.928C181.5 310.328 182.1 316.728 178.2 323.328C166.2 343.928 154.4 364.528 142.5 385.128C141.8 386.128 140.9 387.028 139.2 389.028Z" fill="#00843D"/>
</svg>
