<svg width="500" height="501" viewBox="0 0 500 501" fill="none" xmlns="http://www.w3.org/2000/svg">
<g clip-path="url(#clip0_1_10510)">
<path d="M250 500.527C388.071 500.527 500 388.599 500 250.527C500 112.456 388.071 0.527344 250 0.527344C111.929 0.527344 0 112.456 0 250.527C0 388.599 111.929 500.527 250 500.527Z" fill="#1B5AFF"/>
<path d="M386.5 332.728C406.106 332.728 422 316.834 422 297.228C422 277.621 406.106 261.728 386.5 261.728C366.894 261.728 351 277.621 351 297.228C351 316.834 366.894 332.728 386.5 332.728Z" fill="white"/>
<path d="M279 149.027V219.527H220.8L130.6 376.327L69.8 340.127L170.9 164.727C176.5 155.027 186.8 149.027 198 149.027H279Z" fill="white"/>
<path d="M422.1 149.027V219.527H362.6L283.6 357.227C276.8 369.027 264.2 376.327 250.6 376.327H172.2V305.927H230.4L310.9 166.327C316.9 155.727 328.2 149.127 340.4 149.127H422.1V149.027Z" fill="white"/>
<path d="M75.8 219.527C114.7 219.527 146.2 188.027 146.2 149.127H75.8V219.527Z" fill="white"/>
</g>
<defs>
<clipPath id="clip0_1_10510">
<rect width="500" height="500" fill="white" transform="translate(0 0.527344)"/>
</clipPath>
</defs>
</svg>
