<svg width="500" height="501" viewBox="0 0 500 501" fill="none" xmlns="http://www.w3.org/2000/svg">
<path d="M40.8999 134.728V367.328C40.8999 372.928 43.7999 378.128 48.5999 380.928L242.1 496.728C247.1 499.728 253.4 499.728 258.4 496.728L452 381.028C456.8 378.128 459.7 372.928 459.7 367.428V134.728C459.7 129.128 456.8 123.928 452 121.128L258.5 5.22754C253.5 2.22754 247.2 2.22754 242.2 5.22754L48.5999 121.028C43.7999 123.928 40.8999 129.128 40.8999 134.728Z" fill="#01028D"/>
<path d="M354.9 149.428H144.5C140.7 149.428 137.6 152.528 137.6 156.328V205.928C137.6 209.728 140.7 212.828 144.5 212.828H216.4V368.228C216.4 372.028 219.5 375.128 223.3 375.128H276.9C280.7 375.128 283.8 372.028 283.8 368.228V212.728H355C358.8 212.728 361.9 209.628 361.9 205.828V156.228C361.8 152.528 358.7 149.428 354.9 149.428Z" fill="white"/>
<path d="M216.3 212.728H263.9C266.4 212.728 267.7 215.628 266.1 217.528L216.3 274.828V212.728Z" fill="#AFB9C9"/>
</svg>
