<svg width="500" height="501" viewBox="0 0 500 501" fill="none" xmlns="http://www.w3.org/2000/svg">
<path d="M249.7 495.927C385.396 495.927 495.4 385.924 495.4 250.227C495.4 114.531 385.396 4.52734 249.7 4.52734C114.004 4.52734 4 114.531 4 250.227C4 385.924 114.004 495.927 249.7 495.927Z" fill="#343434"/>
<path d="M249.7 62.027C353.6 62.027 437.9 146.327 437.9 250.227C437.9 354.127 353.7 438.427 249.7 438.427C145.7 438.427 61.5001 354.127 61.5001 250.227C61.5001 146.327 145.8 62.027 249.7 62.027ZM249.7 43.127C221.7 43.127 194.6 48.627 169.1 59.427C144.4 69.827 122.3 84.827 103.3 103.827C84.3001 122.827 69.4001 145.027 58.9001 169.627C48.1001 195.127 42.6001 222.327 42.6001 250.227C42.6001 278.127 48.1001 305.327 58.9001 330.827C69.3001 355.527 84.3001 377.627 103.3 396.627C122.3 415.627 144.5 430.527 169.1 441.027C194.6 451.827 221.8 457.327 249.7 457.327C277.6 457.327 304.8 451.827 330.3 441.027C355 430.627 377.1 415.627 396.1 396.627C415.1 377.627 430 355.427 440.5 330.827C451.3 305.327 456.8 278.127 456.8 250.227C456.8 222.327 451.3 195.127 440.5 169.627C430.1 144.927 415.1 122.827 396.1 103.827C377.1 84.827 354.9 69.927 330.3 59.427C304.8 48.627 277.7 43.127 249.7 43.127Z" fill="white"/>
<path d="M382 189.727C378.6 189.727 375.2 187.827 373.6 184.527C351.1 140.327 300.6 109.527 250.7 109.527C245.5 109.527 241.2 105.327 241.2 100.027C241.2 94.7273 245.4 90.5273 250.7 90.5273C279.1 90.5273 307.6 98.9273 333.1 114.727C357.8 130.027 378.2 151.727 390.5 175.927C392.9 180.627 391 186.327 386.4 188.627C384.9 189.427 383.5 189.727 382 189.727Z" fill="white"/>
<path d="M202.2 166.328L340.3 250.928L202.2 335.128V166.328ZM202.2 147.428C199 147.428 195.8 148.228 192.9 149.828C186.9 153.128 183.2 159.528 183.2 166.328V335.028C183.2 341.828 186.9 348.228 192.9 351.528C195.8 353.128 199 353.928 202.2 353.928C205.6 353.928 209 353.028 212 351.128L350.1 266.928C355.7 263.528 359.2 257.428 359.2 250.828C359.2 244.228 355.8 238.128 350.2 234.628L212.1 150.028C209 148.328 205.6 147.428 202.2 147.428Z" fill="white"/>
</svg>
