<svg width="500" height="501" viewBox="0 0 500 501" fill="none" xmlns="http://www.w3.org/2000/svg">
<g clip-path="url(#clip0_1_10534)">
<path d="M249.9 500.527C388 500.527 499.9 388.627 499.9 250.527C499.9 112.427 388 0.527344 249.9 0.527344C111.8 0.527344 -0.0996094 112.427 -0.0996094 250.527C-0.0996094 388.627 111.8 500.527 249.9 500.527Z" fill="#3375BB"/>
<path d="M251.7 418.228C248.5 418.228 245.3 417.228 242.6 415.328C224.3 402.228 208.8 393.828 195.1 386.328C167.8 371.528 146.2 359.828 132.8 325.228C120.7 294.028 115.4 244.528 114 148.828C113.9 144.628 115.6 140.628 118.5 137.628C121.4 134.628 125.4 132.928 129.6 132.928C130.4 132.928 131.3 132.928 132.4 132.928C150.7 133.028 199.1 133.428 241.7 97.8275C247.5 93.0275 255.9 93.0275 261.7 97.8275C304.3 133.428 352.9 133.028 371.1 132.928C372.1 132.928 373.1 132.928 373.9 132.928C378.1 132.928 382.1 134.628 385 137.628C387.9 140.628 389.6 144.628 389.5 148.828C388.1 244.428 382.8 293.928 370.6 325.128C357.2 359.628 335.6 371.328 308.2 386.228C294.5 393.628 278.9 402.128 260.6 415.228C258.1 417.228 254.9 418.228 251.7 418.228ZM145.5 164.128C147.2 244.528 152 288.428 161.9 313.928C171.1 337.728 184.9 345.228 210 358.828C221.6 365.128 235.7 372.728 251.7 383.528C267.8 372.728 281.8 365.128 293.5 358.828C318.6 345.228 332.4 337.728 341.6 313.928C351.5 288.428 356.4 244.528 358.1 164.128C347.7 163.828 334.1 162.728 318.6 159.228C293.9 153.728 271.4 143.828 251.7 129.628C211.9 158.228 169.6 163.328 145.5 164.128Z" fill="white"/>
</g>
<defs>
<clipPath id="clip0_1_10534">
<rect width="500" height="500" fill="white" transform="translate(0 0.527344)"/>
</clipPath>
</defs>
</svg>
