<svg width="500" height="501" viewBox="0 0 500 501" fill="none" xmlns="http://www.w3.org/2000/svg">
<g clip-path="url(#clip0_1_10537)">
<path d="M249.4 500.127C387.36 500.127 499.2 388.288 499.2 250.327C499.2 112.367 387.36 0.527344 249.4 0.527344C111.439 0.527344 -0.400391 112.367 -0.400391 250.327C-0.400391 388.288 111.439 500.127 249.4 500.127Z" fill="url(#paint0_linear_1_10537)"/>
<path d="M136.6 101.928L260.4 149.928C262.5 150.728 262.6 153.628 260.6 154.628L204.2 183.528C199.1 186.128 193.1 186.428 187.8 184.428L170.1 177.628C164.2 175.328 159.5 170.828 156.9 165.128L131.2 107.828C129.6 104.228 133.1 100.628 136.6 101.928Z" fill="white"/>
<path d="M308.9 167.827L434.4 216.427C438.3 217.927 438.4 223.327 434.6 225.027L378.7 249.327C370.3 252.927 360.8 252.927 352.5 249.227L336.9 242.227C333.6 240.727 329.7 240.827 326.5 242.527L221.8 296.727C218.2 298.627 215.3 301.727 213.9 305.627L177.5 400.427C175.6 405.327 168.8 405.527 166.7 400.727L142.5 347.227C139.6 340.827 139.4 333.427 142 326.927L179 232.527C181.5 226.227 186.2 221.027 192.2 217.827L285.5 169.127C292.6 165.327 301.2 164.827 308.9 167.827Z" fill="white"/>
<path d="M315.8 281.027L277.3 380.927C275 386.827 270.5 391.627 264.7 394.127L211 417.727C205.9 420.027 200.5 414.927 202.6 409.627L235.7 323.727C237.5 319.027 241 315.127 245.4 312.827L312.6 278.027C314.4 277.027 316.5 278.927 315.8 281.027Z" fill="white"/>
</g>
<defs>
<linearGradient id="paint0_linear_1_10537" x1="14.5735" y1="335.754" x2="484.131" y2="164.849" gradientUnits="userSpaceOnUse">
<stop stop-color="#EA1845"/>
<stop offset="1" stop-color="#F9BD5B"/>
</linearGradient>
<clipPath id="clip0_1_10537">
<rect width="500" height="500" fill="white" transform="translate(0 0.527344)"/>
</clipPath>
</defs>
</svg>
