<svg width="500" height="501" viewBox="0 0 500 501" fill="none" xmlns="http://www.w3.org/2000/svg">
<g clip-path="url(#clip0_1_10542)">
<path fill-rule="evenodd" clip-rule="evenodd" d="M17.4004 0.327148C50.8004 0.327148 77.8004 27.4272 77.8004 60.7271V267.627C77.8004 362.727 154.9 439.927 250.1 439.927C345.3 439.927 422.4 362.827 422.4 267.627V60.7271C422.4 27.3271 449.5 0.327148 482.8 0.327148V267.627C482.8 396.127 378.6 500.327 250.1 500.327C121.6 500.327 17.4004 396.127 17.4004 267.627V0.327148Z" fill="#00D9A1"/>
<path fill-rule="evenodd" clip-rule="evenodd" d="M121.3 98.4277C148.8 98.4277 171.1 120.728 171.1 148.228V156.428C192.9 139.528 220.3 129.428 250 129.428C321.1 129.428 378.7 187.028 378.7 258.128C378.7 329.228 321.1 386.828 250 386.828C178.9 386.828 121.3 329.228 121.3 258.128C121.3 256.728 121.3 255.428 121.4 254.028H121.3V98.4277ZM171.2 258.228C171.2 301.828 206.5 337.128 250.1 337.128C293.7 337.128 329 301.828 329 258.228C329 214.628 293.7 179.328 250.1 179.328C206.5 179.328 171.2 214.628 171.2 258.228Z" fill="#00D9A1"/>
<path d="M351.6 111.128C368.003 111.128 381.3 97.8304 381.3 81.4275C381.3 65.0247 368.003 51.7275 351.6 51.7275C335.198 51.7275 321.9 65.0247 321.9 81.4275C321.9 97.8304 335.198 111.128 351.6 111.128Z" fill="#00D9A1"/>
</g>
<defs>
<clipPath id="clip0_1_10542">
<rect width="500" height="500" fill="white" transform="translate(0 0.527344)"/>
</clipPath>
</defs>
</svg>
