<svg width="500" height="501" viewBox="0 0 500 501" fill="none" xmlns="http://www.w3.org/2000/svg">
<path fill-rule="evenodd" clip-rule="evenodd" d="M378.9 166.827L406 167.027C409.1 166.827 412.2 166.827 415.3 167.027L481.4 167.427C491.5 168.027 499.4 176.427 499.4 186.727C499.4 191.627 497.6 196.027 494.7 199.427L462.5 255.527C462.2 256.027 462 256.427 461.7 256.927L382.1 396.327C371.3 415.227 351.9 425.927 331.8 426.327H330.9C330.4 426.327 329.9 426.327 329.3 426.327L93.8001 425.127H67.6001V424.627C87.5001 421.827 104.3 409.027 112.8 391.427H113L228.4 188.527C234.9 175.627 248.1 166.827 263.4 166.827H262.3H378.9Z" fill="#2BBDF7"/>
<path fill-rule="evenodd" clip-rule="evenodd" d="M194.6 67.2275H402.5C412.5 67.8275 420.5 76.2275 420.5 86.5275C420.5 90.6275 419.2 94.4275 417 97.6275L360.9 196.128L301.3 300.828H301.8L282.7 334.228C266.6 362.428 275.7 398.228 302.8 415.228L304.5 416.228C312.1 420.728 320.3 423.228 328.6 424.028V425.428H230.3V425.528H59.7998C50.0998 425.328 40.2999 422.828 31.1998 417.728C1.99985 401.328 -8.60015 364.128 7.59985 334.528L136.9 98.6275C148.8 77.0275 171.7 65.5275 194.6 67.2275Z" fill="#2B6DEF"/>
<path fill-rule="evenodd" clip-rule="evenodd" d="M262.7 166.828L377.2 166.928L360.6 196.028L301 300.628H301.5L282.4 334.028C266.3 362.228 275.4 398.028 302.5 415.028L304.2 416.028C311.8 420.528 320 423.028 328.3 423.828V425.228H230V425.328H67.2002C85.2002 423.428 102.2 413.428 112.4 396.828L113.5 394.928L233.9 182.128C240.7 173.228 251.2 167.328 263.1 166.728L262.7 166.828Z" fill="#003CB2"/>
</svg>
