<svg width="500" height="501" viewBox="0 0 500 501" fill="none" xmlns="http://www.w3.org/2000/svg">
<g clip-path="url(#clip0_1_10558)">
<path d="M411.6 67.0271C411.9 74.2271 406.3 80.3271 399.1 80.6271C391.9 80.9271 385.8 75.3271 385.5 68.1271C385.2 60.9271 390.8 54.8271 398 54.5271C405.2 54.2271 411.3 59.8271 411.6 67.0271Z" fill="#696364"/>
<path d="M362.2 84.1273C370.9 84.7273 377.4 92.2273 376.8 100.927C376.2 109.627 368.7 116.127 360 115.527C351.3 114.927 344.8 107.427 345.4 98.7273C346 90.0273 353.5 83.5273 362.2 84.1273Z" fill="#696364"/>
<path d="M372.2 41.7272C372.5 48.9272 366.9 55.0272 359.7 55.3272C352.5 55.6272 346.4 50.0272 346.1 42.8272C345.8 35.6272 351.4 29.5272 358.6 29.2272C365.8 28.8272 371.9 34.4272 372.2 41.7272Z" fill="#696364"/>
<path d="M324.3 113.628C334.9 114.328 343 123.528 342.2 134.228C341.5 144.828 332.3 152.928 321.6 152.128C311 151.428 302.9 142.228 303.7 131.528C304.5 120.928 313.7 112.928 324.3 113.628Z" fill="#696364"/>
<path d="M322.6 60.7273C331.3 61.3273 337.8 68.8273 337.2 77.5273C336.6 86.2273 329.1 92.7273 320.4 92.1273C311.7 91.5273 305.2 84.0273 305.8 75.3273C306.4 66.7273 314 60.1273 322.6 60.7273Z" fill="#696364"/>
<path d="M330.4 25.0271C330.7 32.2271 325.1 38.3271 317.9 38.6271C310.7 38.9271 304.6 33.3271 304.3 26.1271C304 18.9271 309.6 12.8271 316.8 12.5271C324 12.2271 330.1 17.8271 330.4 25.0271Z" fill="#696364"/>
<path d="M283.2 95.2272C293.8 95.9272 301.9 105.127 301.1 115.827C300.4 126.427 291.2 134.527 280.5 133.727C269.9 133.027 261.8 123.827 262.6 113.127C263.3 102.527 272.5 94.5272 283.2 95.2272Z" fill="#696364"/>
<path d="M282.7 150.227C295 151.027 304.2 161.727 303.4 173.927C302.6 186.227 291.9 195.427 279.7 194.627C267.4 193.827 258.2 183.127 259 170.927C259.8 158.627 270.4 149.427 282.7 150.227Z" fill="#696364"/>
<path d="M278.1 49.7269C286.8 50.3269 293.3 57.8269 292.7 66.5269C292.1 75.2269 284.6 81.7269 275.9 81.1269C267.2 80.5269 260.7 73.0269 261.3 64.3269C261.9 55.6269 269.4 49.1269 278.1 49.7269Z" fill="#696364"/>
<path d="M285.9 16.8269C286.2 24.0269 280.6 30.1269 273.4 30.4269C266.2 30.7269 260.1 25.1269 259.8 17.9269C259.5 10.7269 265.1 4.62694 272.3 4.32694C279.5 4.02694 285.6 9.62694 285.9 16.8269Z" fill="#696364"/>
<path d="M254.6 261.727H262.6V253.827L254.6 261.727Z" fill="white"/>
<path d="M245.4 239.327H240.1V244.527L245.4 239.327Z" fill="white"/>
<path d="M115 261.728H0.100098C2.7001 322.428 27.0001 377.428 65.3001 419.328L146.6 338.028C128.9 317.128 117.4 290.728 115 261.728Z" fill="#EC2027"/>
<path d="M162.5 353.928L81.2002 435.228C123.4 473.828 179 498.228 240.2 500.528V385.628C210.6 383.528 183.8 371.928 162.5 353.928Z" fill="#EC2027"/>
<path d="M262.6 385.427V500.427C323.3 497.427 378.3 472.727 420.1 434.027L338.9 352.827C318 370.927 291.6 382.727 262.6 385.427Z" fill="#EC2027"/>
<path d="M354.5 336.728L435.8 418.028C473.5 376.228 497.3 321.728 499.9 261.728H385C382.7 290.128 371.6 316.028 354.5 336.728Z" fill="#EC2027"/>
<path d="M147.7 161.728L66.5001 80.4277C27.5001 122.528 2.8001 178.028 0.100098 239.328H115.1C117.4 209.728 129.4 182.828 147.7 161.728Z" fill="#EC2027"/>
<path d="M385 239.328H500C497.3 178.728 473.1 123.628 434.7 81.7275L353.4 163.028C371.1 183.928 382.6 210.328 385 239.328Z" fill="#EC2027"/>
<path d="M240.1 115.427V0.527344C179.6 2.82734 124.5 26.7273 82.5 64.7273L163.8 146.027C184.8 128.627 211.2 117.527 240.1 115.427Z" fill="#EC2027"/>
<path d="M240.1 254.127V261.727H247.8L240.1 254.127Z" fill="white"/>
<path d="M247.8 261.728L251.2 265.128L254.6 261.728H247.8Z" fill="white"/>
<path d="M257.1 239.328L251.2 233.428L245.4 239.328H257.1Z" fill="white"/>
<path d="M240.1 244.527L235.3 249.327L240.1 254.127V244.527Z" fill="white"/>
<path d="M262.6 244.827V239.327H257.1L262.6 244.827Z" fill="white"/>
<path d="M262.6 253.827L267.1 249.327L262.6 244.827V253.827Z" fill="white"/>
<path d="M250 301.628C278.222 301.628 301.1 278.749 301.1 250.528C301.1 222.306 278.222 199.428 250 199.428C221.778 199.428 198.9 222.306 198.9 250.528C198.9 278.749 221.778 301.628 250 301.628Z" fill="#696364"/>
</g>
<defs>
<clipPath id="clip0_1_10558">
<rect width="500" height="500" fill="white" transform="translate(0 0.527344)"/>
</clipPath>
</defs>
</svg>
