<svg width="500" height="501" viewBox="0 0 500 501" fill="none" xmlns="http://www.w3.org/2000/svg">
<g clip-path="url(#clip0_1_10589)">
<path d="M320.4 313.028H299.2C295.3 313.028 291.9 309.928 291.9 305.728V250.028L254.8 273.128C251.7 275.128 247.7 275.128 244.6 273.128L207.7 250.028V305.728C207.7 309.628 204.6 313.028 200.4 313.028H179.4C175.5 313.028 172.1 309.928 172.1 305.728V198.328C172.1 193.028 176.4 188.728 181.7 188.728C183.7 188.728 185.4 189.328 187 190.528L245.4 230.728C247.8 232.528 251.1 232.528 253.4 230.728L311.8 190.528C316.1 187.628 322.2 188.728 325.1 193.028C326.3 194.628 326.7 196.528 326.9 198.328V305.828C327.5 309.728 324.3 313.028 320.4 313.028Z" fill="#FF4A4A"/>
<path d="M140.8 312.927H9.3998C4.0998 312.927 -0.200195 308.627 -0.200195 303.327V195.327C-0.00019531 191.227 3.0998 188.027 7.2998 188.027H28.4998C32.3998 188.027 35.7998 191.127 35.7998 195.327V277.527H115.4V195.327C115.4 191.427 118.5 188.027 122.7 188.027H143.3C147.2 188.027 150.6 191.127 150.6 195.327V303.327C150.4 308.527 146.1 312.927 140.8 312.927Z" fill="#FF4A4A"/>
<path d="M359.2 188.027H490.6C495.9 188.027 500.2 192.327 500.2 197.627V305.627C500.2 309.527 497.1 312.927 493.1 312.927H472C468.1 312.927 464.7 309.827 464.7 305.627V228.127C464.7 225.627 462.5 223.427 460 223.427H390C387.5 223.427 385.3 225.627 385.3 228.127V305.627C385.3 309.527 382.2 312.927 378 312.927H356.8C352.9 312.927 349.5 309.827 349.5 305.627V197.627C349.6 192.327 353.9 188.027 359.2 188.027Z" fill="#FF4A4A"/>
<path d="M414.3 246.228H435.3C439.2 246.228 442.6 249.328 442.6 253.528V274.928C442.6 278.828 439.5 282.228 435.3 282.228H414.3C410.4 282.228 407 279.128 407 274.928V253.328C407.1 249.328 410.4 246.228 414.3 246.228Z" fill="#FF4A4A"/>
</g>
<defs>
<clipPath id="clip0_1_10589">
<rect width="500" height="500" fill="white" transform="translate(0 0.527344)"/>
</clipPath>
</defs>
</svg>
