<svg width="500" height="501" viewBox="0 0 500 501" fill="none" xmlns="http://www.w3.org/2000/svg">
<g clip-path="url(#clip0_1_10597)">
<mask id="mask0_1_10597" style="mask-type:luminance" maskUnits="userSpaceOnUse" x="372" y="115" width="122" height="192">
<path d="M493.9 218.728C493.9 218.728 423 246.028 415.1 251.628C415.1 251.628 491.1 216.528 481.5 115.428C481.5 115.428 422.8 227.328 372.3 246.328C372.3 246.328 404.8 287.828 407.6 306.628C407.5 306.728 475.2 286.628 493.9 218.728Z" fill="white"/>
</mask>
<g mask="url(#mask0_1_10597)">
<path d="M443.5 306.728L493.9 229.128V306.728H443.5Z" fill="#00EC5B"/>
</g>
<path d="M424.7 408.628C424.7 408.628 525.4 301.628 493.9 218.728C493.9 218.728 433.4 296.428 409.3 304.128L424.7 408.628Z" fill="url(#paint0_linear_1_10597)"/>
<path d="M493.9 218.728C493.9 218.728 423 246.028 415.1 251.628C415.1 251.628 491.1 216.528 481.5 115.428C481.5 115.428 422.8 227.328 372.3 246.328C372.3 246.328 404.8 287.828 407.6 306.628C407.5 306.728 475.2 286.628 493.9 218.728Z" fill="url(#paint1_linear_1_10597)"/>
<path d="M156.5 258.528C156.4 258.628 104.8 327.228 103.5 331.628C103.5 331.628 89.6999 359.928 134.1 362.828C134.1 362.828 157.8 361.228 222.9 336.428C222.9 336.428 280 318.528 243.2 276.728C243.2 276.728 289.5 291.628 304.9 313.328C305.8 314.528 306.5 315.928 307.5 317.028C314 325.228 336.9 358.628 312 398.028C312 398.128 311.9 398.128 311.9 398.228C310.2 401.628 263 488.928 83.2999 446.528C83.2999 446.528 316.4 529.428 424.6 408.428L420.1 363.728C420.1 363.728 416.7 313.428 402.2 286.728C400.9 284.128 399.5 281.628 397.9 279.128C389.8 266.428 370.2 228.828 319.3 207.028L301.7 224.928L310.1 202.828C310 202.828 268.7 187.228 256.3 191.228L252.2 212.928L246.3 190.628C246.2 190.628 217.7 186.128 188.5 194.528L200.5 216.028C200.5 216.028 200.5 216.128 200.4 216.128C198.8 215.628 183.8 212.328 172.1 237.528L60.8999 215.728L156.5 258.528Z" fill="white"/>
<path d="M83.4001 446.627C83.4001 446.627 -23.2999 411.927 4.70008 283.327C4.70008 283.327 36.9001 131.227 264.4 69.6274C264.4 69.6274 442 19.1274 481.5 23.8274C481.5 23.8274 472.7 85.9274 293 131.327L174.5 198.127C165.1 205.427 157.3 219.627 157.3 219.627L151.2 233.527L61.0001 215.627L156.6 258.627L103.6 331.727C103.6 331.727 91.9001 358.327 134.2 362.927L223 336.527L235.4 338.927L251.6 387.627L240 430.927L158.1 446.627L101.5 452.527L83.4001 446.627Z" fill="url(#paint2_linear_1_10597)"/>
<path d="M373.9 245.827C373.9 245.827 424.8 235.127 481.5 115.527C481.5 115.527 416.3 165.427 384.7 169.027C384.7 169.027 477.7 129.727 481.5 23.8271C481.5 23.8271 177.4 161.527 135 230.327L172.1 237.627C172.1 237.627 183.9 209.227 200.5 216.127L188.5 194.527C188.5 194.527 206.2 183.927 246.3 190.627L252.2 212.927L256.3 191.227C256.3 191.227 268 185.627 310.1 202.827L301.7 224.927L319.3 207.027C319.4 207.327 361 223.227 373.9 245.827Z" fill="url(#paint3_linear_1_10597)"/>
<mask id="mask1_1_10597" style="mask-type:luminance" maskUnits="userSpaceOnUse" x="135" y="23" width="347" height="223">
<path d="M373.9 245.827C373.9 245.827 424.8 235.127 481.5 115.527C481.5 115.527 416.3 165.427 384.7 169.027C384.7 169.027 477.7 129.727 481.5 23.8271C481.5 23.8271 177.4 161.527 135 230.327L172.1 237.627C172.1 237.627 183.9 209.227 200.5 216.127L188.5 194.527C188.5 194.527 206.2 183.927 246.3 190.627L252.2 212.927L256.3 191.227C256.3 191.227 268 185.627 310.1 202.827L301.7 224.927L319.3 207.027C319.4 207.327 361 223.227 373.9 245.827Z" fill="white"/>
</mask>
<g mask="url(#mask1_1_10597)">
<path d="M481.5 23.8271L135 156.727V23.8271H481.5Z" fill="url(#paint4_linear_1_10597)"/>
</g>
<path d="M204.8 262.928L177.6 283.328C177.6 283.328 169.2 273.328 180 264.928C179.9 264.928 190.8 256.928 204.8 262.928Z" fill="url(#paint5_linear_1_10597)"/>
<path d="M83.3999 446.628C83.3999 446.628 209.9 456.128 233 407.928C256.1 359.728 223 336.528 223 336.528C223 336.528 256.1 325.928 255.6 302.528C255.6 302.528 256.9 293.028 243.2 276.928C243.2 276.928 293.2 290.228 305.1 310.128C306.9 313.228 308.9 316.028 311 318.828C322.5 333.728 352.2 386.328 274 434.628C181.4 491.528 83.3999 446.628 83.3999 446.628Z" fill="url(#paint6_linear_1_10597)"/>
</g>
<defs>
<linearGradient id="paint0_linear_1_10597" x1="454.666" y1="408.643" x2="454.666" y2="218.758" gradientUnits="userSpaceOnUse">
<stop stop-color="#4ECC8D"/>
<stop offset="1" stop-color="#00D579"/>
</linearGradient>
<linearGradient id="paint1_linear_1_10597" x1="493.902" y1="211.131" x2="372.234" y2="211.131" gradientUnits="userSpaceOnUse">
<stop stop-color="#00F649"/>
<stop offset="1" stop-color="#00D579"/>
</linearGradient>
<linearGradient id="paint2_linear_1_10597" x1="481.454" y1="238.064" x2="8.67055e-05" y2="238.064" gradientUnits="userSpaceOnUse">
<stop stop-color="#00F649"/>
<stop offset="1" stop-color="#00D579"/>
</linearGradient>
<linearGradient id="paint3_linear_1_10597" x1="308.349" y1="23.7475" x2="308.349" y2="245.849" gradientUnits="userSpaceOnUse">
<stop stop-color="#4ECC8D"/>
<stop offset="1" stop-color="#00D579"/>
</linearGradient>
<linearGradient id="paint4_linear_1_10597" x1="308.227" y1="23.8695" x2="308.227" y2="156.764" gradientUnits="userSpaceOnUse">
<stop stop-color="#4ECC8D"/>
<stop offset="1" stop-color="#00D579"/>
</linearGradient>
<linearGradient id="paint5_linear_1_10597" x1="174.509" y1="272.009" x2="204.834" y2="272.009" gradientUnits="userSpaceOnUse">
<stop stop-color="#00F649"/>
<stop offset="1" stop-color="#00D579"/>
</linearGradient>
<linearGradient id="paint6_linear_1_10597" x1="326.054" y1="370.126" x2="83.3798" y2="370.126" gradientUnits="userSpaceOnUse">
<stop stop-color="#00F649"/>
<stop offset="1" stop-color="white"/>
</linearGradient>
<clipPath id="clip0_1_10597">
<rect width="500" height="500" fill="white" transform="translate(0 0.527344)"/>
</clipPath>
</defs>
</svg>
