<svg width="500" height="501" viewBox="0 0 500 501" fill="none" xmlns="http://www.w3.org/2000/svg">
<g clip-path="url(#clip0_1_10623)">
<path d="M272.7 501.028H192.9H113.1L0 387.928V308.128V228.328L113.1 115.228H192.9H272.7L385.8 228.328V308.128V387.928L272.7 501.028ZM192.3 453.428H252.4L338.2 368.228V308.128V248.028L253 162.228H192.9H132.8L47 247.928V308.028V368.128L132.2 453.328H192.3V453.428Z" fill="black"/>
<path d="M386.5 386.727H306.7H226.9L113.7 273.527V193.727V113.927L226.9 0.827148H306.7H386.5L499.6 113.927V193.727V273.527L386.5 386.727ZM306.7 339.027H366.8L452 253.827V193.727V133.627L366.8 47.8271H306.7H246.6L160.9 133.027V193.127V253.227L246.1 338.427L306.7 339.027Z" fill="#38F997"/>
</g>
<defs>
<clipPath id="clip0_1_10623">
<rect width="500" height="500" fill="white" transform="translate(0 0.527344)"/>
</clipPath>
</defs>
</svg>
