<svg width="500" height="501" viewBox="0 0 500 501" fill="none" xmlns="http://www.w3.org/2000/svg">
<g clip-path="url(#clip0_1_10626)">
<path d="M203.2 114.328C197.8 113.528 197.5 113.328 200.1 113.028C205 112.228 216.4 113.328 224.4 115.128C243 119.528 259.7 130.828 277.5 150.728L282.1 156.128L288.8 155.128C317.4 150.528 346.8 154.128 371.4 165.428C378.1 168.528 388.7 174.728 390 176.228C390.5 176.728 391.3 180.128 391.8 183.428C393.6 195.528 392.8 204.628 389 211.528C386.9 215.428 386.9 216.428 388.2 219.828C389.2 222.428 392.3 224.228 395.2 224.228C401.4 224.228 407.8 214.428 410.9 200.728L412.2 195.328L414.5 197.928C427.7 212.628 438 233.028 439.5 247.428L440 251.328L437.7 247.928C433.8 242.028 430.2 238.128 425.3 234.728C416.5 228.828 407.2 227.028 382.7 225.728C360.5 224.428 347.9 222.628 335.5 218.528C314.3 211.528 303.5 202.528 278.5 169.228C267.4 154.528 260.4 146.528 253.5 139.828C238.3 125.128 223 117.428 203.2 114.328Z" fill="#FF007A"/>
<path d="M395.4 147.028C395.9 137.228 397.2 130.728 400 124.828C401 122.528 402.1 120.428 402.3 120.428C402.6 120.428 402 122.228 401.3 124.328C399.2 130.028 399 138.028 400.3 147.028C402.1 158.628 402.9 160.228 415.3 172.828C421 178.728 427.7 186.228 430.3 189.328L434.7 195.028L430.3 190.928C424.9 185.728 412.5 175.928 409.7 174.628C407.9 173.628 407.6 173.628 406.3 174.928C405.3 175.928 405 177.528 405 185.028C404.7 196.628 403.2 203.828 399.3 211.328C397.2 215.228 397 214.428 398.8 210.028C400.1 206.628 400.3 205.128 400.3 194.028C400.3 171.628 397.7 166.128 382 157.128C378.1 154.828 371.4 151.428 367.6 149.628C363.5 147.828 360.4 146.228 360.6 146.228C361.1 145.728 376.3 150.128 382.3 152.628C391.3 156.228 392.9 156.528 393.9 156.228C394.6 155.628 395.1 153.528 395.4 147.028Z" fill="#FF007A"/>
<path d="M213.8 185.527C203 170.527 196 147.327 197.5 130.027L198 124.627L200.6 125.127C205.2 125.927 213.2 129.027 217.1 131.327C227.4 137.527 232.1 146.027 236.4 167.227C237.7 173.427 239.5 180.627 240.3 182.927C241.6 186.827 246.5 195.827 250.6 201.527C253.4 205.627 251.6 207.727 245.2 207.227C235.4 206.127 222.3 197.127 213.8 185.527Z" fill="#FF007A"/>
<path d="M382.2 297.727C331.1 277.127 313.1 259.327 313.1 229.127C313.1 224.727 313.4 221.127 313.4 221.127C313.7 221.127 315.5 222.627 317.8 224.527C328.1 232.827 339.7 236.427 372 241.027C390.8 243.827 401.7 245.927 411.5 249.327C442.7 259.627 462.1 280.827 466.7 309.427C468 317.727 467.2 333.427 465.2 341.627C463.4 348.027 458.2 359.927 456.9 360.227C456.6 360.227 456.1 358.927 456.1 356.827C455.6 346.027 450.2 335.627 441.1 327.627C430.2 318.427 416.3 311.427 382.2 297.727Z" fill="#FF007A"/>
<path d="M346.1 306.227C345.6 302.327 344.3 297.427 343.5 295.427L342.2 291.527L344.5 294.327C347.9 298.227 350.4 302.827 352.8 309.327C354.6 314.227 354.6 315.727 354.6 323.727C354.6 331.427 354.3 333.227 352.8 337.627C350.2 344.627 347.1 349.527 342 354.927C332.7 364.427 320.6 369.627 303.3 371.927C300.2 372.227 291.4 372.927 283.7 373.427C264.4 374.427 251.5 376.527 239.8 380.627C238.3 381.127 236.7 381.627 236.4 381.427C235.9 380.927 243.9 376.227 250.3 373.127C259.3 368.727 268.6 366.427 289 362.827C299.1 361.327 309.4 359.227 312 358.227C337.6 350.327 350.2 330.527 346.1 306.227Z" fill="#FF007A"/>
<path d="M369.6 347.828C362.9 333.128 361.3 319.228 365 306.028C365.5 304.728 366 303.428 366.5 303.428C367 303.428 368.6 304.228 370.1 305.228C373.2 307.328 379.6 310.928 396.2 319.928C417.1 331.328 429 340.028 437.2 350.128C444.4 358.928 448.8 368.928 450.9 381.328C452.2 388.328 451.4 405.028 449.6 412.028C443.9 433.928 431 451.528 412.2 461.528C409.4 463.028 407 464.128 406.8 464.128C406.6 464.128 407.6 461.528 409.1 458.428C415.3 445.228 416.1 432.628 411.4 418.428C408.6 409.628 402.6 399.128 390.8 381.228C376.5 360.728 373.2 355.228 369.6 347.828Z" fill="#FF007A"/>
<path d="M177.4 426.728C196.5 410.728 220 399.428 241.6 395.728C250.9 394.228 266.4 394.728 274.9 397.028C288.6 400.628 301 408.428 307.4 417.928C313.6 427.228 316.4 435.228 319.3 453.028C320.3 460.028 321.6 467.228 321.9 468.728C324 478.028 328.1 485.228 333.3 489.128C341.3 495.028 355.2 495.328 368.9 490.128C371.2 489.328 373.3 488.628 373.3 488.828C373.8 489.328 366.9 494.028 362.2 496.328C355.8 499.728 350.6 500.728 343.6 500.728C331.2 500.728 320.6 494.328 312.1 481.428C310.3 478.828 306.7 471.328 303.6 464.428C294.6 443.528 289.9 437.328 279.3 430.328C270 424.428 258.1 423.128 249.1 427.528C237.2 433.228 234.1 448.428 242.4 457.728C245.8 461.628 251.9 464.728 257.1 465.428C266.6 466.728 274.9 459.228 274.9 449.728C274.9 443.528 272.6 439.928 266.4 437.128C258.1 433.528 249.1 437.628 249.4 445.628C249.4 449.028 250.9 451.028 254.3 452.628C256.4 453.628 256.4 453.628 254.8 453.428C247.3 451.928 245.5 442.628 251.4 436.628C258.6 429.428 273.8 432.528 279 442.528C281.1 446.628 281.3 454.928 279.5 460.028C275.1 471.428 262.7 477.328 250.1 473.928C241.6 471.628 238 469.328 227.7 458.728C209.6 440.128 202.7 436.528 176.9 432.628L172 431.828L177.4 426.728Z" fill="#FF007A"/>
<path fill-rule="evenodd" clip-rule="evenodd" d="M41.7 11.6273C101.8 84.6273 194.4 198.127 199.1 204.327C203 209.527 201.4 214.427 195 218.027C191.4 220.127 183.9 222.127 180.3 222.127C176.2 222.127 171.3 220.027 167.9 216.727C165.6 214.427 155.5 199.727 132.8 164.327C115.5 137.227 100.8 114.827 100.6 114.527C99.6 114.027 99.6 114.027 131 170.227C150.9 205.527 157.3 218.227 157.3 219.727C157.3 223.127 156.3 224.927 152.1 229.527C145.1 237.227 142 246.027 139.7 264.327C137.1 284.727 130.2 299.127 110.3 323.627C98.7 338.027 96.9 340.627 94 346.627C90.4 353.827 89.4 358.027 88.8 367.227C88.3 377.027 89.3 383.227 92.2 392.527C94.8 400.827 97.6 406.227 104.6 416.827C110.5 426.127 114.1 433.127 114.1 435.627C114.1 437.727 114.6 437.727 123.9 435.627C146.1 430.427 164.4 421.727 174.5 410.827C180.7 404.127 182.2 400.527 182.2 391.227C182.2 385.327 181.9 384.027 180.4 380.427C177.8 374.727 172.9 370.127 162.3 362.927C148.4 353.427 142.4 345.627 140.9 335.327C139.6 326.527 141.2 320.627 148.9 304.327C156.9 287.527 159 280.627 160.3 263.527C161.1 252.727 162.4 248.327 165.5 244.927C168.9 241.327 171.7 240.027 179.7 239.027C192.9 237.227 201.4 233.827 208.1 227.427C214 222.027 216.6 216.627 216.9 208.627L217.2 202.727L213.8 199.127C201.6 185.227 33.7 0.527344 32.9 0.527344C32.6 0.527344 36.8 5.42734 41.7 11.6273ZM120.9 378.527C123.7 373.627 122.2 367.427 117.5 364.327C113.1 361.527 106.4 362.827 106.4 366.627C106.4 367.627 106.9 368.727 108.5 369.227C110.8 370.527 111.1 371.827 109.3 374.627C107.5 377.427 107.5 380.027 109.8 381.827C113.4 384.727 118.3 383.127 120.9 378.527Z" fill="#FF007A"/>
<path fill-rule="evenodd" clip-rule="evenodd" d="M225.4 242.827C219.2 244.627 213.3 251.327 211.5 258.027C210.5 262.127 211 269.627 212.8 271.927C215.6 275.527 218.2 276.527 225.4 276.527C239.6 276.527 251.7 270.327 253 262.827C254.3 256.627 248.9 248.127 241.4 244.227C237.5 242.227 229.5 241.527 225.4 242.827ZM241.9 255.727C244 252.627 243.2 249.327 239.3 246.927C232.3 242.527 221.8 246.127 221.8 252.827C221.8 256.227 227.2 259.827 232.4 259.827C235.7 259.827 240.3 257.727 241.9 255.727Z" fill="#FF007A"/>
</g>
<defs>
<clipPath id="clip0_1_10626">
<rect width="500" height="500" fill="white" transform="translate(0 0.527344)"/>
</clipPath>
</defs>
</svg>
