<svg width="500" height="501" viewBox="0 0 500 501" fill="none" xmlns="http://www.w3.org/2000/svg">
<g clip-path="url(#clip0_1_10636)">
<path d="M107.5 99.0277C108.6 97.6277 109.7 96.3277 110.8 94.9277C114.6 95.5277 118.3 96.1277 122.1 96.7277C132.1 98.4277 142 100.228 152 101.928C152 102.328 152 102.728 152 103.028C151.8 103.328 151.5 103.628 151.3 103.928C145.2 114.828 139.1 125.728 132.9 136.528C122.4 155.028 112 173.428 101.5 191.828C92.2 208.228 82.8 224.628 73.4 241.128C72.1 243.428 71 245.828 69.8 248.228C66.7 253.528 63.6 258.828 60.6 264.128C54.6 274.628 48.6 285.128 42.7 295.728C37.7 304.528 32.7 313.428 27.7 322.228C23.9 328.828 20 335.428 16.1 342.028C16.1 341.428 15.9 340.828 16.1 340.228C25.8 314.728 35.6 289.228 45.4 263.728C54.4 240.128 63.4 216.528 72.4 193.028C84 162.728 95.7 132.528 107.3 102.228C107.6 101.228 107.4 100.128 107.5 99.0277Z" fill="#AD3BBA"/>
<path d="M189.3 494.227C189 494.027 188.7 493.727 188.4 493.527C188.2 493.327 187.9 493.127 187.7 493.027C187.3 492.727 186.8 492.427 186.4 492.127L186.3 492.027C186 491.727 185.7 491.527 185.4 491.227C184.8 490.427 184.4 489.427 183.7 488.827C176.5 482.727 169.3 476.727 161.8 470.527C167.4 469.127 172.5 467.727 177.7 466.527C180.4 465.927 183.1 465.727 185.9 465.327C187.6 465.027 189.2 464.527 190.8 464.127C191 464.127 191.2 464.127 191.3 464.027C192.3 463.627 193.2 463.327 194.2 462.927C194.6 462.927 195 462.827 195.3 462.827C195.9 462.427 196.5 462.127 197.1 461.727C197.8 461.627 198.5 461.727 199.1 461.527C209.1 458.127 219.1 454.727 229 451.127C230.6 450.527 232.4 449.527 233.3 448.127C240.8 437.327 248.1 426.327 255.4 415.427C256 414.527 256.5 413.627 257.1 412.827C260.6 407.827 264.2 402.927 267.7 398.027C267.9 398.627 268.1 399.227 268.3 399.827C268.7 403.527 268.9 407.227 269.4 410.927C270.6 421.227 271.8 431.527 273.1 441.727C274.5 453.627 276 465.527 277.5 477.427C278.2 483.427 279.1 489.427 279.9 495.327C278.2 495.627 276.4 496.127 274.7 496.227C249.7 497.727 224.7 499.227 199.8 500.627C198.8 500.727 197.6 500.427 196.9 499.827C194.6 498.227 192.5 496.427 190.3 494.727C189.9 494.627 189.6 494.427 189.3 494.227Z" fill="#280B1D"/>
<path d="M107.5 99.0273C107.4 100.127 107.6 101.227 107.2 102.227C95.6 132.527 84 162.727 72.3 193.027C63.3 216.627 54.3 240.127 45.3 263.727C35.5 289.227 25.8 314.727 16 340.227C15.8 340.727 16 341.427 16 342.027C15.8 342.627 15.6 343.127 15.4 343.727C15.2 343.927 15 344.127 14.8 344.327C14.6 344.527 14.5 344.727 14.3 344.927C14.1 343.827 13.6 342.727 13.7 341.627C14.8 326.027 16 310.527 17.1 294.927C18.6 274.327 20 253.827 21.6 233.227C21.7 231.927 22.2 230.627 22.9 229.527C50.8 186.327 78.7 143.127 106.7 99.9273C107 99.6273 107.2 99.3273 107.5 99.0273Z" fill="#B02F9F"/>
<path d="M361.4 222.828C362.4 224.728 363.8 226.528 364.5 228.528C369.3 242.628 374 256.728 378.7 270.828C379.4 272.828 379.2 274.428 378.3 276.328C374.2 284.328 370.2 292.428 366.2 300.528C366.2 294.628 366.1 288.628 366.1 282.728C366.1 276.628 366.1 270.528 366.1 264.528C366.1 262.728 365.7 261.028 365.5 259.228C364.1 258.428 362.8 257.528 361.4 256.928C354.9 254.028 348.3 251.228 341.8 248.328C341.6 248.228 341.5 248.228 341.3 248.128C341.1 247.628 340.9 247.028 340.7 246.528C340.5 246.028 340.3 245.528 340 245.028C337.7 240.528 335.4 236.028 333.1 231.528C333.7 230.528 334.6 229.728 334.9 228.628C336.5 221.228 338 213.828 339.7 206.528C339.8 206.028 340.8 205.828 341.4 205.428C342.7 207.128 344.1 208.928 345.4 210.628C346.1 212.928 346.7 215.228 347.7 217.428C351.7 226.728 355.8 236.028 360 245.228C361.4 248.328 362.2 252.028 366.1 254.128C366.5 252.928 367.2 251.828 367 250.928C365.1 243.828 363 236.728 361.2 229.628C360.6 227.428 360.7 225.028 360.5 222.728C360.6 222.828 361 222.828 361.4 222.828Z" fill="#A85FAE"/>
<path d="M268.4 399.828C268.2 399.228 268 398.628 267.8 398.028C267.2 397.228 266.6 396.528 266 395.728C265.1 394.228 264.4 392.728 263.4 391.328C257.9 383.728 252.3 376.228 246.8 368.628C246.6 368.228 246.4 367.828 246.2 367.428C245.6 366.128 245.1 364.628 244.3 363.428C241.7 359.528 239.1 355.628 236.5 351.828C236.7 351.428 236.9 351.028 237.1 350.628C238.1 347.028 239 343.328 240 339.728C243.1 343.028 246.1 346.328 249.3 349.528C250.7 351.028 252.4 352.228 253.9 353.628C254.9 354.828 255.8 355.928 256.8 357.128C262.4 363.728 268.1 370.328 273.7 377.028C274.2 377.628 274.4 378.428 274.6 379.128C281.3 402.428 288 425.628 294.7 448.928C294.8 449.328 294.8 449.828 294.9 450.328C293.2 447.328 291.4 444.328 289.9 441.228C283.5 428.428 277.2 415.528 270.8 402.728C270.2 401.528 269.2 400.728 268.4 399.828Z" fill="#A25BA7"/>
<path d="M268.4 399.827C269.2 400.727 270.2 401.527 270.7 402.527C277.1 415.327 283.4 428.227 289.8 441.027C291.3 444.127 293.2 447.127 294.8 450.127C296.3 452.927 295.9 455.627 294.7 458.627C289.9 470.227 285.4 481.927 280.8 493.527C280.6 494.127 280.2 494.727 279.9 495.327C279.1 489.327 278.3 483.327 277.5 477.427C276 465.527 274.5 453.627 273.1 441.727C271.9 431.427 270.6 421.127 269.4 410.927C269 407.227 268.7 403.527 268.4 399.827Z" fill="#813F86"/>
<path d="M203.4 244.728C197.9 240.028 192.4 235.228 186.8 230.528C186.5 230.328 186.3 230.028 186 229.828V229.928C185.8 229.428 185.8 228.628 185.4 228.428C182.2 226.128 182 223.128 183.1 219.728C183.3 219.128 183.2 218.428 183.2 217.728C183.2 211.328 183.2 205.028 183.2 198.628C183.2 198.428 183.2 198.328 183.2 198.128C183.4 197.928 183.6 197.728 183.8 197.528C184.9 196.928 186.1 196.328 187.2 195.728C189.2 196.828 191.2 197.728 193.1 199.028C197.2 201.728 201.2 204.628 205.2 207.328C205.4 207.728 205.7 208.128 205.9 208.628C205.9 208.928 205.9 209.328 205.9 209.628C206 209.828 206.1 210.128 206.3 210.328C206.8 217.228 207.3 224.128 207.8 231.128C206.3 235.528 204.9 240.128 203.4 244.728Z" fill="#AD3BBA"/>
<path d="M361.4 222.827C361 222.827 360.7 222.727 360.3 222.727C357.6 220.427 355 218.127 352.3 215.927C350 214.127 347.6 212.427 345.3 210.627C344 208.927 342.6 207.127 341.3 205.427C339.1 202.227 337 198.927 334.7 195.727C328.2 186.627 321.6 177.527 315.1 168.527C311.2 163.127 307.2 157.727 303.3 152.227C298.6 145.627 293.9 139.127 289.2 132.527C291.9 130.827 294.5 129.027 297.2 127.327C297.6 128.327 297.9 129.527 298.5 130.427C315.3 154.927 332.1 179.327 349 203.827C352.9 209.427 356.7 215.127 360.5 220.727C360.8 221.427 361.1 222.127 361.4 222.827Z" fill="#D190D4"/>
<path d="M253.8 353.528C252.3 352.128 250.6 350.928 249.2 349.428C246.1 346.228 243 342.928 239.9 339.628C239.3 338.728 238.7 337.728 238 336.828C232.8 331.028 227.6 325.228 222.5 319.428C215 311.028 207.6 302.628 200.2 294.228C196.3 289.828 192.5 285.428 188.7 281.028C187 279.128 185.2 277.228 183.4 275.328C183.2 275.528 183 275.628 182.8 275.828C184.7 278.628 186.6 281.428 188.5 284.228C201.7 302.928 215 321.628 228.2 340.328C230.9 344.128 233.7 347.928 236.5 351.628C239.1 355.528 241.8 359.328 244.3 363.228C245.1 364.428 245.6 365.928 246.2 367.228C245.4 366.328 244.5 365.428 243.7 364.428C237.2 355.728 230.6 347.128 224.1 338.428C221.4 334.728 218.7 331.028 216 327.228C208.1 316.528 200.2 305.728 192.2 295.028C187.1 288.228 181.9 281.428 176.8 274.628C174.2 270.928 171.6 267.328 168.9 263.628C165.5 259.028 162.1 254.428 158.8 249.728C159.5 250.128 160.4 250.428 160.9 250.928C166.2 256.228 171.5 261.628 176.7 267.028C178.1 267.628 179.5 268.128 181.1 268.828C181.3 267.328 181.4 266.328 181.5 265.328C187.3 272.428 193 279.528 198.8 286.528C209.6 299.628 220.4 312.628 231.2 325.628C238.2 334.028 245.2 342.528 252.2 350.928C253 352.028 253.4 352.828 253.8 353.528ZM181.2 273.528C181.2 273.628 181.2 273.828 181.2 273.928C181.3 273.828 181.3 273.828 181.4 273.728C181.3 273.628 181.3 273.628 181.2 273.528Z" fill="#B267B7"/>
<path d="M199.4 0.626953C202.3 2.92695 205.2 5.22695 208.2 7.52695C210.3 9.12695 212.4 10.827 214.5 12.427C214.2 14.627 215.2 16.227 216.7 17.727C221.4 22.227 226 26.927 230.6 31.627C233.1 34.227 235.4 36.927 237.9 39.827C237.1 40.227 236.7 40.627 236.3 40.627C231.3 41.227 226.3 41.727 221.3 42.527C219.4 42.827 217.6 43.627 215.8 44.227C215.4 44.027 215.1 43.827 214.7 43.627C212.8 37.827 210.9 32.027 208.8 26.227C207.8 23.427 206.6 20.827 205.4 18.127C205.4 17.527 205.3 17.027 205.3 16.427C203.2 11.127 201.3 5.92695 199.4 0.626953Z" fill="#A25BA7"/>
<path d="M215.6 44.1271C217.4 43.5271 219.2 42.7271 221.1 42.4272C226.1 41.7271 231.1 41.2271 236.1 40.5271C236.5 40.4271 236.9 40.1271 237.7 39.7271C235.2 36.9272 232.9 34.1271 230.4 31.5271C225.9 26.8271 221.2 22.2271 216.5 17.6271C214.9 16.1271 213.9 14.6271 214.3 12.3271C222.3 18.7271 230.3 25.0271 238.3 31.4271C238.9 31.9271 239.3 32.7271 239.9 33.4272C238.8 37.1272 238.9 40.5271 241.1 44.0271C244.4 49.2271 247.2 54.7271 250.2 60.1271C246.1 61.1271 242.1 62.0271 238 63.0271C237.6 62.5271 237.2 61.9272 236.7 61.5271C229.8 55.8271 222.7 49.9271 215.6 44.1271Z" fill="#B267B7"/>
<path d="M275.1 270.227C274.9 270.027 274.7 269.927 274.6 269.727C275.5 269.027 276.3 268.227 277.3 267.727C287.8 262.727 298.3 257.727 308.8 252.827H309.1H309.4C309.4 253.027 309.5 253.227 309.5 253.427C310.1 262.727 310.7 271.927 311.3 281.227C310.5 281.227 309.7 281.127 308.9 281.127C303.1 279.127 297.3 277.027 291.5 275.127C286 273.427 280.5 271.927 275.1 270.227Z" fill="#8B3497"/>
<path d="M394.3 66.7275C394 66.9275 393.6 67.1275 393.3 67.3275C392.9 67.1275 392.4 66.9275 392 66.8275C391.9 67.2275 391.8 67.6275 391.7 68.0275C390.7 68.6275 389.7 69.1275 388.7 69.7275H388.8C388.2 70.1275 387.7 70.5275 387.1 70.9275C386 71.2275 384.8 71.3275 383.9 71.8275C379.7 74.3275 375.5 76.8275 371.3 79.4275C370.9 78.8275 370.5 78.2275 370.1 77.6275C370.9 77.0275 371.7 76.4275 372.4 75.9275C372.9 75.4275 373.4 74.7275 374.1 74.3275C390.3 63.8275 406.6 53.4275 422.8 42.9275C437.3 33.5275 451.8 24.1275 466.3 14.7275C470.4 12.0275 474.4 9.2275 478.4 6.5275C478.8 6.3275 479.2 6.1275 479.6 5.9275C479.8 5.9275 480 5.9275 480.2 5.9275C481.2 5.1275 482.1 4.2275 483.1 3.4275C484.9 2.2275 485.3 3.7275 485.9 4.9275C486.8 6.6275 486.8 7.9275 484.8 8.8275C484.5 9.0275 484.1 9.3275 483.8 9.5275H483.9C483.5 9.9275 483.1 10.3275 482.7 10.7275C481.5 11.4275 480.3 12.2275 479.1 12.9275C478 13.3275 476.9 13.5275 476 14.1275C460.3 23.9275 444.7 33.7275 429.1 43.5275C428.3 44.0275 427.9 45.2275 427.3 46.1275C426.5 46.2275 425.5 46.0275 424.8 46.4275C420.4 49.1275 416 51.8275 411.7 54.6275C411.1 55.0275 410.9 55.9275 410.5 56.6275C409.9 57.0275 409.4 57.4275 408.8 57.8275C407.4 57.6275 405.8 57.3275 405.9 59.6275C405.3 60.0275 404.8 60.4275 404.2 60.8275C402.8 60.6275 401.2 60.3275 401.3 62.6275C400.7 63.0275 400.2 63.4275 399.6 63.8275C395.9 63.2275 394.6 64.1275 394.3 66.7275Z" fill="#B267B7"/>
<path d="M365.4 301.427C359.9 301.927 354.3 302.427 348.8 302.927C340.1 303.527 331.4 304.127 322.6 304.727C326.3 301.327 330 297.927 333.7 294.527C337.7 290.827 341.8 287.227 345.8 283.627C346 283.627 346.3 283.527 346.5 283.527C352.8 289.527 359.1 295.427 365.4 301.427Z" fill="#732460"/>
<path d="M365.4 301.427C359.1 295.427 352.8 289.427 346.5 283.527C346.5 283.227 346.5 282.827 346.5 282.527C347.1 282.127 347.9 281.827 348.3 281.227C350.4 278.627 352.3 275.927 354.4 273.227C358 268.527 361.7 263.927 365.4 259.327C365.6 261.127 366 262.827 366 264.627C366.1 270.727 366 276.827 366 282.827C366 288.727 366.1 294.727 366.1 300.627C365.9 300.827 365.7 301.127 365.4 301.427Z" fill="#A25BA7"/>
<path d="M205.2 16.3271C205.2 16.9271 205.3 17.4271 205.3 18.0271C205.1 22.3271 204.9 26.6271 204.7 30.9271C204.5 34.9271 204.3 38.9271 204.1 43.0271C203.5 52.6272 203 62.3271 202.4 71.9272C201.4 72.3272 200.5 72.6271 199.5 73.0271C198 66.3271 196.4 59.5271 194.9 52.8271C194.7 51.4271 194.6 50.0271 194.3 48.6271C193.5 45.2271 192.6 41.8272 191.8 38.4272C191.7 38.0272 191.7 37.6271 191.6 37.2271C191.6 36.8272 191.6 36.4271 191.5 36.1271C191.5 35.5271 191.5 34.9272 191.5 34.4272C191.6 34.1272 191.7 33.8272 191.8 33.4272V33.2271C192.3 32.9272 193 32.6271 193.4 32.2271C197.3 26.8271 201.2 21.5271 205.2 16.3271Z" fill="#90257D"/>
<path d="M345.8 283.627C341.8 287.227 337.7 290.927 333.7 294.527C330 297.927 326.3 301.327 322.6 304.727C322.2 304.727 321.8 304.627 321.4 304.627C321.1 304.427 320.9 304.227 320.6 304.127C320.5 303.427 320.5 302.627 320.2 301.927C317.4 295.227 314.5 288.527 311.6 281.827C322.6 282.227 333.6 282.627 344.6 283.027C345 283.227 345.4 283.427 345.8 283.627Z" fill="#681959"/>
<path d="M181.7 265.728C181.6 266.728 181.4 267.728 181.3 269.228C179.7 268.528 178.3 268.028 176.9 267.428C176.9 266.328 176.9 265.328 177 264.228C177.7 255.328 178.5 246.528 179.3 237.628C179.7 232.628 180.1 227.728 180.6 222.728C181.3 214.828 182.1 206.928 182.8 199.028C183 198.828 183.2 198.628 183.4 198.428C183.4 204.828 183.4 211.128 183.4 217.528C183.4 218.228 183.5 218.928 183.3 219.528C182.3 222.928 182.5 225.928 185.6 228.228C186 228.528 186 229.228 186.2 229.728C185.2 229.128 184.2 228.428 183 227.728C182.5 240.628 182.1 253.128 181.7 265.728Z" fill="#943C9E"/>
<path d="M311.6 281.827C314.5 288.527 317.4 295.227 320.2 301.927C320.5 302.627 320.5 303.327 320.6 304.127C313 298.427 305.4 292.727 297.8 287.027C300.9 285.127 303.5 282.127 307.6 282.227C308 282.227 308.4 281.527 308.8 281.127C309.6 281.127 310.4 281.227 311.2 281.227C311.3 281.427 311.5 281.627 311.6 281.827Z" fill="#541560"/>
<path d="M205.2 16.327C201.2 21.527 197.3 26.827 193.3 32.027C192.9 32.527 192.3 32.727 191.7 33.027C193.7 22.427 195.8 11.827 197.9 1.22695C198 0.926953 198.9 0.826953 199.4 0.626953C201.3 5.92695 203.2 11.127 205.2 16.327Z" fill="#6F3374"/>
<path d="M308.8 281.127C308.4 281.527 308 282.227 307.6 282.227C303.5 282.127 300.9 285.127 297.8 287.027C290.2 281.427 282.7 275.827 275.1 270.327C280.5 271.927 286 273.527 291.3 275.227C297.2 277.127 303 279.127 308.8 281.127Z" fill="#5D1769"/>
<path d="M297.1 127.327C294.4 129.027 291.8 130.827 289.1 132.527C286.6 134.027 284.1 135.527 281.5 137.027C280.4 137.527 279.2 137.927 278.1 138.527C274 140.727 270 143.027 266 145.327C265.8 145.327 265.5 145.227 265.3 145.227C265.7 144.827 266 144.327 266.4 144.027C273.8 139.227 281.2 134.427 288.5 129.627C293.4 126.427 298.2 123.127 303 119.927C308.6 116.427 314.2 113.027 319.7 109.527C319.5 111.427 321 111.127 322.1 111.227C319.3 113.127 316.5 115.127 313.7 117.027C308.2 120.527 302.6 123.927 297.1 127.327Z" fill="#A25BA7"/>
<path d="M322.1 111.227C321 111.127 319.5 111.427 319.7 109.527C320.3 109.127 321 108.627 321.6 108.227C332.7 100.927 343.9 93.6273 355 86.3273C357.3 84.8273 359.6 83.3273 362 81.9273C364.6 80.4273 367.3 78.9273 369.9 77.5273C370.3 78.1273 370.7 78.7273 371.1 79.3273C359.7 86.5273 348.3 93.7273 337 101.027C335 102.327 333.2 103.927 331.3 105.427C330.7 105.827 330.1 106.227 329.5 106.627C329.3 106.827 329.1 107.027 328.8 107.227L328.6 107.327H328.4C328.2 107.527 327.9 107.727 327.7 107.927C327.3 108.127 326.9 108.327 326.5 108.527C326.1 108.727 325.7 109.027 325.3 109.227C325.1 109.327 325 109.527 324.8 109.627C324.6 109.827 324.3 109.927 324.1 110.127C324 110.227 323.8 110.227 323.7 110.227C323.3 110.427 322.7 110.827 322.1 111.227Z" fill="#A85FAE"/>
<path d="M118.3 434.127C116.5 432.627 114.5 431.127 112.7 429.627C107.7 425.527 102.7 421.327 97.7 417.127C97.3 416.727 96.9 416.327 96.5 415.927C93.2 413.027 90 410.127 86.7 407.227C85.3 406.227 84 405.327 82.6 404.327C78 400.527 73.3 396.627 68.7 392.827C63.5 388.327 58.3 383.927 53.1 379.427C50.4 377.327 47.7 375.227 45 373.127C40.8 369.427 36.5 365.827 32.3 362.127C29.2 359.427 26.1 356.727 23 354.127C21.1 352.927 19.2 351.727 17.3 350.527C25.8 360.227 34.2 369.827 42.7 379.527C47.7 385.327 52.7 391.127 57.9 396.827C59.4 398.427 61.3 399.627 63 400.927C67.2 404.027 71.4 407.127 75.6 410.127C81.6 414.527 87.6 419.027 93.6 423.427C101.1 429.027 108.7 434.527 116.2 440.127C116.8 439.627 117.3 439.127 118 438.727C120.5 437.227 120.7 436.127 118.3 434.127Z" fill="url(#paint0_linear_1_10636)"/>
<path d="M250.3 60.327C247.3 54.927 244.5 49.427 241.2 44.227C239 40.727 238.9 37.327 240 33.627C243.2 39.127 246.4 44.727 249.6 50.227C251.4 53.227 253.2 56.227 255 59.327C253.4 59.527 251.9 59.927 250.3 60.327Z" fill="#D190D4"/>
<path d="M426.9 46.0271C427.5 45.1271 427.9 44.0272 428.7 43.4272C444.3 33.5272 460 23.7271 475.6 14.0271C476.5 13.4271 477.7 13.2271 478.7 12.8271C478.7 13.1271 478.7 13.3271 478.7 13.6271C475.3 16.0271 471.9 18.6271 468.3 20.8271C455.4 28.9271 442.5 36.9272 429.6 44.9272C428.9 45.4272 427.9 45.6271 426.9 46.0271Z" fill="#A25BA7"/>
<path d="M331.4 105.528C333.3 104.028 335.1 102.428 337.1 101.128C348.5 93.8277 359.9 86.6277 371.2 79.4277C375.4 76.9277 379.5 74.3277 383.8 71.8277C384.7 71.3277 385.9 71.2277 387 70.9277C386.2 71.6277 385.5 72.5277 384.5 73.1277C367.9 83.4277 351.3 93.7277 334.7 104.028C333.7 104.628 332.5 105.028 331.4 105.528Z" fill="#A25BA7"/>
<path d="M194.8 52.7275C196.3 59.4275 197.9 66.2275 199.4 72.9275C197.7 73.3275 195.9 73.7275 194.2 74.1275C193.8 67.9275 193.3 61.7275 192.9 55.5275C192.9 54.9275 192.9 54.4275 193 53.8275C193.6 53.5275 194.2 53.1275 194.8 52.7275Z" fill="#853390"/>
<path d="M410.2 56.4277C410.6 55.7277 410.8 54.8277 411.4 54.4277C415.7 51.6277 420.1 48.9277 424.5 46.2277C425.1 45.8277 426.1 46.0277 427 45.9277C426.6 46.4277 426.3 47.0277 425.8 47.3277C421.3 50.1277 416.9 52.9277 412.4 55.7277C411.6 56.1277 410.9 56.2277 410.2 56.4277Z" fill="#A25BA7"/>
<path d="M194.8 52.7271C194.2 53.1271 193.6 53.4271 193 53.8271C193 53.0271 193 52.2271 192.9 51.3271C192.8 50.8271 192.7 50.3271 192.6 49.8271C192.3 46.0271 192 42.1271 191.7 38.3271C192.5 41.7271 193.4 45.1271 194.2 48.5271C194.5 49.9271 194.6 51.3272 194.8 52.7271Z" fill="#6F3374"/>
<path d="M250.3 60.3277C246.2 61.3277 242.2 62.2277 238.1 63.2277C230.6 65.1277 223.2 67.1277 215.7 68.9277C212.4 69.7277 209 70.5277 205.7 71.2277C204.5 71.4277 203.4 71.6277 202.2 71.9277C201.2 72.3277 200.3 72.6277 199.3 73.0277C197.6 73.4277 195.8 73.8277 194.1 74.2277C182.7 77.0277 171.2 79.8277 159.8 82.6277C150.5 84.9277 141.1 87.1277 131.8 89.5277C124.7 91.3277 117.7 93.2277 110.7 95.0277C114.5 95.6277 118.2 96.2277 122 96.8277C132 98.5277 141.9 100.328 151.9 102.028C173 95.8277 194.1 89.5277 215.2 83.3277C223.8 80.7277 232.4 78.2277 241 75.6277C241.5 75.4277 242.1 75.5277 242.7 75.4277C248.9 73.4277 255 71.5277 261.2 69.5277C262.2 69.2277 263.1 68.8277 264.1 68.4277C262.4 65.1277 260.8 61.7277 259.1 58.4277C257.7 58.7277 256.3 59.0277 254.8 59.2277C253.4 59.5277 251.9 59.9277 250.3 60.3277Z" fill="#76387B"/>
<path d="M455.7 10.0277C450.2 11.3277 444.7 12.6277 439.2 13.9277C389.3 26.2277 339.3 38.4277 289.4 50.7277C279.3 53.2277 269.3 55.8277 259.2 58.3277C260.9 61.6277 262.5 65.0277 264.2 68.3277C269 67.0277 273.8 65.7277 278.6 64.3277C304 56.7277 329.4 49.1277 354.8 41.5277C374.8 35.5277 394.9 29.6277 414.9 23.6277C415.5 23.4277 416.2 23.3277 416.9 23.2277C430.2 19.2277 443.5 15.1277 456.8 11.1277C457 10.9277 457.2 10.8277 457.5 10.6277C457.9 10.6277 458.2 10.5277 458.6 10.5277C458.6 10.1277 458.6 9.72773 458.6 9.42773C457.8 9.62773 457 9.82773 456.3 10.0277C456.1 10.0277 455.9 10.0277 455.7 10.0277Z" fill="#76387B"/>
<path d="M466.6 7.72754C463.9 8.32754 461.2 8.82754 458.5 9.42754C458.5 9.82754 458.5 10.2275 458.5 10.5275C461.3 9.52754 463.9 8.62754 466.6 7.72754Z" fill="#76387B"/>
<path d="M394.3 66.7277C394.6 64.1277 395.9 63.2277 399.1 63.3277C397.5 64.4277 395.9 65.6277 394.3 66.7277Z" fill="#A25BA7"/>
<path d="M478.8 13.627C478.8 13.327 478.8 13.127 478.8 12.827C480 12.127 481.2 11.327 482.4 10.627C481.2 11.627 480 12.627 478.8 13.627Z" fill="#A85FAE"/>
<path d="M400.9 62.2274C400.8 59.9274 402.3 60.2274 403.8 60.4274C402.8 61.0274 401.8 61.6274 400.9 62.2274Z" fill="#A25BA7"/>
<path d="M405.5 59.327C405.4 57.027 406.9 57.327 408.4 57.527C407.4 58.127 406.5 58.727 405.5 59.327Z" fill="#A25BA7"/>
<path d="M388.6 69.6277C389.6 69.0277 390.6 68.5277 391.6 67.9277C390.6 68.5277 389.6 69.1277 388.6 69.6277Z" fill="#A25BA7"/>
<path d="M387 70.9275C387.6 70.5275 388.1 70.1275 388.7 69.7275C388.2 70.1275 387.6 70.5275 387 70.9275Z" fill="#A25BA7"/>
<path d="M391.6 68.0271C391.7 67.6271 391.8 67.2271 391.9 66.8271C392.3 67.0271 392.8 67.2271 393.2 67.3271C392.7 67.5271 392.2 67.8271 391.6 68.0271Z" fill="#A25BA7"/>
<path d="M399.2 63.327C399.8 62.927 400.3 62.527 400.9 62.127C400.3 62.527 399.7 62.927 399.2 63.327Z" fill="#A25BA7"/>
<path d="M403.8 60.4275C404.4 60.0275 404.9 59.6275 405.5 59.2275C404.9 59.7275 404.4 60.0275 403.8 60.4275Z" fill="#A25BA7"/>
<path d="M408.4 57.5271C409 57.1271 409.5 56.7271 410.1 56.3271C409.6 56.8271 409 57.2271 408.4 57.5271Z" fill="#A25BA7"/>
<path d="M482.3 10.6277C482.7 10.2277 483.1 9.82773 483.5 9.42773C483.2 9.82773 482.7 10.2277 482.3 10.6277Z" fill="#A85FAE"/>
<path d="M186.5 492.127C186.9 492.427 187.4 492.727 187.8 493.027C187.3 492.727 186.9 492.427 186.5 492.127Z" fill="#481053"/>
<path d="M185.4 491.327C185.7 491.627 186 491.827 186.3 492.127C186 491.827 185.7 491.527 185.4 491.327Z" fill="#481053"/>
<path d="M483.5 9.42754C483.8 9.22754 484.2 8.92754 484.5 8.72754C484.2 9.02754 483.8 9.22754 483.5 9.42754Z" fill="#A85FAE"/>
<path d="M191.4 36.0273C191.4 36.4273 191.4 36.8273 191.5 37.1273C191.5 36.7273 191.4 36.3273 191.4 36.0273Z" fill="#853390"/>
<path d="M14.5 347.728C14.8 348.028 15 348.228 15.3 348.528C15.1 348.228 14.8 347.928 14.5 347.728Z" fill="#8B3497"/>
<path d="M192.6 49.8271C192.7 50.3271 192.8 50.8271 192.9 51.3271C192.8 50.9271 192.7 50.3271 192.6 49.8271Z" fill="#853390"/>
<path d="M191.7 33.2275C191.6 33.5275 191.5 33.8275 191.4 34.2275C191.5 33.9275 191.6 33.6275 191.7 33.2275Z" fill="#853390"/>
<path d="M456.3 9.92773C456.1 9.92773 455.9 10.0277 455.7 10.0277C455.9 10.0277 456.1 10.0277 456.3 9.92773Z" fill="#76387B"/>
<path d="M320.6 304.027C320.9 304.227 321.1 304.427 321.4 304.527C321.2 304.427 320.9 304.227 320.6 304.027Z" fill="#541560"/>
<path d="M327.9 107.727C328.1 107.527 328.4 107.327 328.6 107.127C328.3 107.327 328.1 107.527 327.9 107.727Z" fill="#A25BA7"/>
<path d="M324.4 110.027C324.6 109.827 324.9 109.727 325.1 109.527C324.8 109.627 324.6 109.827 324.4 110.027Z" fill="#A25BA7"/>
<path d="M186 229.827C186.3 230.027 186.5 230.327 186.8 230.527C186.6 230.227 186.3 230.027 186 229.827Z" fill="#943C9E"/>
<path d="M187.7 493.027C187.9 493.227 188.2 493.427 188.4 493.527C188.2 493.427 188 493.227 187.7 493.027Z" fill="#481053"/>
<path d="M189.3 494.228C189.6 494.428 189.8 494.628 190.1 494.828C189.9 494.628 189.6 494.428 189.3 494.228Z" fill="#481053"/>
<path d="M152 103.127C151.8 103.427 151.5 103.727 151.3 104.027C145.2 114.927 139.1 125.827 132.9 136.627C122.4 155.127 112 173.527 101.5 191.927C92.2 208.327 82.8 224.727 73.4 241.227C72.1 243.527 71 245.927 69.8 248.327C66.7 253.627 63.6 258.927 60.6 264.227C54.6 274.727 48.6 285.227 42.7 295.827C37.7 304.627 32.7 313.527 27.7 322.327C23.9 328.927 20 335.527 16.1 342.127C15.9 342.727 15.7 343.227 15.5 343.827C15.3 344.027 15.1 344.227 14.9 344.427C14.7 344.627 14.6 344.827 14.4 345.027C14.3 345.827 14.3 346.627 14.2 347.427C14.8 347.027 15.4 346.427 16.1 346.227C29.9 342.127 43.7 338.127 57.5 334.127C75.3 328.927 93 323.727 110.8 318.527C119.1 316.127 127.4 313.827 135.7 311.427C135.9 309.727 136.1 308.027 136.3 306.327C136.7 302.627 137.1 299.027 137.4 295.327C136.3 295.527 135.3 295.627 134.3 295.627C135.3 295.627 136.3 295.427 137.4 295.327C138.2 285.327 139 275.327 139.7 265.427C140 261.127 140 256.827 140.4 252.527C140.9 246.727 141.5 240.927 142.1 235.227C142.7 228.827 143.3 222.527 143.8 216.127C144 211.227 144.2 206.327 144.5 201.427C144.8 196.927 145.2 192.427 145.6 188.027C145.7 186.627 146 185.227 146.2 183.827C147 173.227 147.7 162.727 148.5 152.127C148.9 146.027 149.2 139.927 149.7 133.827C150.4 125.527 151.2 117.227 151.9 109.027C152.1 106.727 152 104.927 152 103.127Z" fill="url(#paint1_linear_1_10636)"/>
<path d="M191.3 464.028C192.4 461.428 192.9 461.228 194.2 462.928C193.3 463.328 192.3 463.728 191.3 464.028Z" fill="#481053"/>
<path d="M195.4 462.828C196 462.428 196.6 462.128 197.2 461.728C196.6 462.128 196 462.528 195.4 462.828Z" fill="#481053"/>
<path d="M266 395.628C257.2 390.028 248.4 384.528 239.6 378.928C239 378.528 238.3 378.128 237.6 377.728C233.9 378.428 233.9 378.428 237.6 377.728C228 371.328 218.3 365.028 208.7 358.628C207.6 360.228 207.6 360.228 208.7 358.628C203.9 355.528 199.1 352.328 194.4 349.228C186.2 343.728 178.1 338.228 169.9 332.728C168.5 331.928 167 331.328 165.7 330.428C156.2 324.328 146.8 318.128 137.4 311.928C136.9 311.628 136.4 311.428 135.9 311.228C127.6 313.628 119.3 315.928 111 318.328C93.2 323.528 75.5 328.728 57.7 333.928C43.9 337.928 30.1 342.028 16.3 346.028C15.6 346.228 15 346.828 14.4 347.228C14.4 347.428 14.5 347.528 14.7 347.628C15 347.928 15.2 348.128 15.5 348.428C16.1 349.128 16.8 349.828 17.4 350.528C19.3 351.728 21.2 352.928 23.1 354.128C23.1 354.028 23.2 353.828 23.2 353.728C23.1 353.828 23.1 353.928 23.1 354.128C26.2 356.828 29.3 359.528 32.4 362.128C36.6 365.828 40.9 369.428 45.1 373.128C47.8 375.228 50.5 377.328 53.2 379.428C58.4 383.928 63.6 388.328 68.8 392.828C73.4 396.628 78.1 400.528 82.7 404.328C84.1 405.328 85.4 406.228 86.8 407.228C90.1 410.128 93.3 413.028 96.6 415.928C97 416.328 97.4 416.728 97.8 417.128C102.8 421.328 107.8 425.428 112.8 429.628C114.6 431.128 116.6 432.628 118.4 434.128C120.8 436.128 120.7 437.228 118 438.928C117.4 439.328 116.8 439.828 116.2 440.328C121.7 444.428 127.3 448.528 132.8 452.528C143.7 460.628 154.5 468.728 165.4 476.728C172.1 481.628 178.8 486.428 185.5 491.328C184.9 490.528 184.5 489.528 183.8 488.928C176.6 482.828 169.4 476.828 161.9 470.628C167.5 469.228 172.6 467.828 177.8 466.628C180.5 466.028 183.2 465.828 186 465.428C187.7 465.128 189.3 464.628 190.9 464.228C191.1 464.228 191.3 464.228 191.4 464.128C192.5 461.528 193 461.328 194.3 463.028C194.7 463.028 195.1 462.928 195.4 462.928C196 462.528 196.6 462.228 197.2 461.828C197.9 461.728 198.6 461.828 199.2 461.628C209.2 458.228 219.2 454.828 229.1 451.228C230.7 450.628 232.5 449.628 233.4 448.228C240.9 437.428 248.2 426.428 255.5 415.528C256.1 414.628 256.6 413.728 257.2 412.928C260.7 407.928 264.3 403.028 267.8 398.128C267.2 397.128 266.6 396.428 266 395.628Z" fill="url(#paint2_linear_1_10636)"/>
<path d="M215.6 44.1277C222.7 49.9277 229.8 55.8277 236.9 61.7277C237.4 62.1277 237.8 62.7277 238.2 63.2277C230.7 65.1277 223.3 67.1277 215.8 68.9277C212.5 69.7277 209.1 70.5277 205.8 71.2277C207.1 67.1277 208.4 63.1277 209.7 59.0277C211.3 53.8277 212.9 48.6277 214.5 43.4277C214.9 43.6277 215.2 43.9277 215.6 44.1277Z" fill="#9D3FA8"/>
<path d="M214.5 43.4273C212.9 48.6273 211.3 53.8273 209.7 59.0273C208.4 63.1273 207.1 67.1273 205.8 71.2273C204.6 71.4273 203.5 71.6273 202.3 71.9273C202.9 62.3273 203.4 52.6273 204 43.0273C204.2 39.0273 204.4 35.0273 204.6 30.9273C204.8 26.6273 205 22.3273 205.2 18.0273C206.3 20.7273 207.6 23.4273 208.6 26.1273C210.7 31.8273 212.5 37.6273 214.5 43.4273Z" fill="#8B3497"/>
<path d="M457.5 10.627C457.3 10.827 457.1 10.927 456.8 11.127C457.1 10.927 457.3 10.727 457.5 10.627Z" fill="#76387B"/>
<path d="M333 231.527C335.3 236.027 337.6 240.527 339.9 245.027C340.2 245.527 340.4 246.027 340.6 246.527C340 246.427 339.4 246.627 338.9 246.327C333.2 243.027 327.5 239.627 321.8 236.227C309.9 229.227 297.9 222.327 286.1 215.327C278.2 210.627 270.3 205.827 262.5 201.027C255.4 196.727 248.3 192.327 241.1 188.027C252.3 181.327 263.5 174.727 274.7 168.027C280.5 164.527 286.3 160.927 292 157.327C292.2 157.327 292.3 157.327 292.5 157.327C293.1 158.927 293.6 160.627 294.4 162.127C298.1 168.827 301.9 175.527 305.6 182.227C312.8 195.327 319.9 208.527 327.1 221.627C328.9 225.027 331 228.227 333 231.527Z" fill="#9F3589"/>
<path d="M241.1 188.127C248.2 192.427 255.3 196.827 262.5 201.127C270.4 205.927 278.2 210.727 286.1 215.427C298 222.427 309.9 229.327 321.8 236.327C327.5 239.627 333.2 243.027 338.9 246.427C339.3 246.727 340 246.527 340.6 246.627C340.8 247.127 341 247.727 341.2 248.227C339.9 248.427 338.6 248.727 337.2 248.927C327.9 250.327 318.6 251.627 309.3 252.927H309H308.7C307.5 252.327 306.4 251.827 305.2 251.227C286.1 243.027 267 234.927 247.9 226.727C242.9 224.627 237.9 222.427 232.8 220.327C231.6 219.627 230.4 218.827 229.1 218.227C222.1 215.127 215 212.027 207.9 208.927C208.4 208.227 208.8 207.227 209.5 206.727C213.2 204.427 217 202.227 220.6 199.927C226.8 196.027 232.9 192.027 239.1 188.027C239.9 188.127 240.5 188.127 241.1 188.127Z" fill="#943C9E"/>
<path d="M333 231.528C331 228.228 328.9 225.028 327.1 221.728C319.9 208.628 312.8 195.428 305.6 182.328C301.9 175.628 298.1 168.928 294.4 162.228C293.6 160.728 293.1 159.028 292.5 157.428C296.1 155.728 299.6 153.928 303.2 152.228C307.1 157.628 311.1 163.028 315 168.528C321.6 177.628 328.1 186.628 334.6 195.728C336.9 198.928 339 202.228 341.2 205.428C340.6 205.828 339.6 206.028 339.5 206.528C337.9 213.928 336.4 221.328 334.7 228.628C334.5 229.728 333.6 230.628 333 231.528Z" fill="#B267B7"/>
<path d="M309.3 252.928C318.6 251.628 327.9 250.228 337.2 248.928C338.5 248.728 339.8 248.428 341.2 248.228C341.4 248.328 341.5 248.328 341.7 248.428C343.3 259.828 344.9 271.228 346.6 282.528C346.6 282.828 346.6 283.228 346.6 283.528C346.4 283.528 346.1 283.628 345.9 283.628C345.5 283.428 345.1 283.228 344.7 283.028C344 282.028 343.4 280.928 342.5 280.128C335.3 274.128 328.1 268.128 320.8 262.228C317.1 259.228 313.3 256.428 309.5 253.428C309.4 253.328 309.3 253.128 309.3 252.928Z" fill="#4F135B"/>
<path d="M346.5 282.528C344.9 271.128 343.3 259.728 341.6 248.428C348.1 251.328 354.7 254.128 361.2 257.028C362.6 257.628 364 258.528 365.3 259.328C361.6 263.928 358 268.628 354.3 273.228C352.2 275.828 350.3 278.528 348.2 281.228C347.9 281.728 347.1 282.028 346.5 282.528Z" fill="#813F86"/>
<path d="M345.2 210.627C347.5 212.427 349.9 214.027 352.2 215.927C354.9 218.127 357.6 220.427 360.2 222.727C360.4 225.027 360.3 227.427 360.9 229.627C362.7 236.727 364.9 243.827 366.7 250.927C366.9 251.827 366.2 252.927 365.8 254.127C361.9 252.027 361.2 248.327 359.7 245.227C355.5 236.027 351.4 226.727 347.4 217.427C346.5 215.227 345.9 212.927 345.2 210.627Z" fill="#B267B7"/>
<path d="M236.4 351.827C233.6 348.027 230.8 344.327 228.1 340.527C214.8 321.827 201.6 303.127 188.4 284.427C186.4 281.627 184.6 278.827 182.7 276.027C182.9 275.827 183.1 275.727 183.3 275.527C185.1 277.427 186.9 279.227 188.6 281.227C192.5 285.627 196.3 290.027 200.1 294.427C207.5 302.827 215 311.227 222.4 319.627C227.6 325.427 232.8 331.227 237.9 337.027C238.6 337.827 239.2 338.827 239.8 339.827C238.8 343.427 237.9 347.127 236.9 350.727C236.9 351.027 236.6 351.427 236.4 351.827Z" fill="#A85FAE"/>
<path d="M197.1 189.227C201.5 186.327 206 183.427 210.4 180.527C211.2 180.127 211.9 179.727 212.7 179.327C213.3 178.927 213.9 178.527 214.4 178.227C214.8 177.827 215.2 177.427 215.6 177.127C216.2 176.727 216.8 176.327 217.3 175.927C217.7 175.727 218 175.527 218.4 175.327C218.8 175.327 219.2 175.327 219.6 175.327C223.1 177.527 226.5 179.727 229.9 181.927C233 183.927 236.1 186.027 239.2 188.027C233 192.027 226.9 195.927 220.7 199.927C217 202.227 213.2 204.427 209.6 206.727C208.9 207.227 208.5 208.227 208 208.927C207.3 208.727 206.5 208.627 205.8 208.427C205.6 208.027 205.3 207.627 205.1 207.127C203.4 202.927 201.8 198.727 200 194.627C199.2 192.827 198.1 191.027 197.1 189.227Z" fill="#8B3497"/>
<path d="M207.7 230.927C206.3 235.527 204.8 240.127 203.4 244.727C208.4 246.427 213.5 248.227 218.5 249.927C224.3 251.927 230 253.927 235.8 255.927C241.6 257.927 247.4 260.027 253.2 262.027C258.4 263.827 263.6 265.627 268.8 267.527C270.7 268.227 272.6 269.027 274.5 269.727C275.4 269.027 276.2 268.227 277.2 267.727C287.7 262.727 298.2 257.727 308.7 252.827C307.5 252.227 306.4 251.727 305.2 251.127C286.1 242.927 267 234.827 247.9 226.627C242.9 224.527 237.9 222.327 232.8 220.227C231.6 219.527 230.4 218.727 229.1 218.127C222.1 215.027 215 211.927 207.9 208.827C207.2 208.627 206.4 208.527 205.7 208.327C205.7 208.627 205.7 209.027 205.7 209.327C205.8 209.527 205.9 209.827 206.1 210.027C206.7 217.027 207.2 223.927 207.7 230.927Z" fill="url(#paint3_linear_1_10636)"/>
<path d="M202.8 141.827C199.3 151.627 195.9 161.527 192.4 171.327C189.3 180.027 186.3 188.627 183.2 197.327C183.2 197.527 183.2 197.727 183.2 197.927C183.2 198.127 183.2 198.227 183.2 198.427C183 198.627 182.8 198.827 182.6 199.027C182.2 199.427 181.7 199.727 181.4 200.227C175.2 210.927 169 221.627 162.7 232.227C162.3 232.927 161.3 233.227 160.6 233.727C165.4 223.027 170.1 212.327 174.9 201.627C175.8 199.627 176.6 197.627 177.4 195.627C179.5 191.427 181.7 187.327 183.6 183.127C189.7 169.627 195.7 156.127 201.7 142.727C202 142.327 202.5 142.127 202.8 141.827Z" fill="#9F47A8"/>
<path d="M197.1 189.228C198.1 191.028 199.3 192.828 200.1 194.628C201.9 198.728 203.5 202.928 205.2 207.128C201.2 204.328 197.2 201.528 193.1 198.828C191.2 197.628 189.2 196.628 187.2 195.528C190.5 193.428 193.8 191.328 197.1 189.228Z" fill="#9D3FA8"/>
<path d="M183.3 198.028C183.3 197.828 183.3 197.628 183.3 197.428C183.5 197.428 183.7 197.428 183.9 197.428C183.6 197.628 183.4 197.828 183.3 198.028Z" fill="#943C9E"/>
<path d="M303.2 152.228C299.6 153.928 296.1 155.728 292.5 157.428C292.3 157.428 292.2 157.428 292 157.428C290.4 154.528 288.8 151.528 287.3 148.628C285.3 144.828 283.5 141.028 281.5 137.228C284 135.728 286.5 134.228 289.1 132.728C293.8 139.128 298.5 145.728 303.2 152.228Z" fill="#76387B"/>
<path d="M160.7 233.827C161.4 233.327 162.4 233.027 162.8 232.327C169.1 221.727 175.2 211.027 181.5 200.327C181.8 199.827 182.3 199.527 182.7 199.127C182 207.027 181.2 214.927 180.5 222.827C180.1 227.827 179.6 232.727 179.2 237.727C178.4 246.627 177.7 255.427 176.9 264.327C176.8 265.427 176.8 266.427 176.8 267.527C171.5 262.127 166.3 256.727 161 251.427C160.4 250.827 159.6 250.627 158.9 250.227C155.4 247.027 155.3 246.327 157.2 242.227C158.4 239.327 159.5 236.527 160.7 233.827Z" fill="#A25BA7"/>
<path d="M181.2 273.527C181.2 273.627 181.3 273.727 181.3 273.727C181.3 273.827 181.2 273.827 181.1 273.927C181.2 273.827 181.2 273.627 181.2 273.527Z" fill="#A85FAE"/>
<path d="M309.4 253.527C313.2 256.427 317 259.327 320.7 262.327C328 268.227 335.2 274.227 342.4 280.227C343.3 281.027 343.9 282.127 344.6 283.127C333.6 282.727 322.6 282.327 311.6 281.927C311.4 281.727 311.3 281.527 311.1 281.427C310.6 272.027 310 262.727 309.4 253.527Z" fill="#481053"/>
<path d="M473.7 8.02773C458.8 14.9277 444 21.8277 429.1 28.7277C426.1 30.1277 422.9 31.3277 419.9 32.5277C419.5 32.9277 419.1 33.3277 418.6 33.6277C411.3 37.0277 404 40.4277 396.7 43.8277C387.6 48.0277 378.4 52.2277 369.3 56.4277C363.4 59.1277 357.6 62.0277 351.7 64.9277C348.4 66.4277 345 67.8277 341.7 69.3277C332.5 73.5277 323.4 77.7277 314.2 81.9277C308.7 84.4277 303.3 87.1277 297.9 89.7277C289.2 93.6277 280.6 97.4277 271.9 101.328C264 105.028 256.2 108.828 248.3 112.528C247.4 112.928 246.7 113.528 245.9 114.028C238.4 117.428 230.9 120.728 223.4 124.228C218.5 126.428 213.6 128.728 208.9 131.228C207.7 131.828 206.6 133.228 206 134.428C204.8 136.828 204 139.328 203.1 141.828C199.6 151.628 196.2 161.528 192.7 171.328C189.6 180.028 186.6 188.628 183.5 197.328C183.7 197.328 183.9 197.328 184.1 197.328C185.2 196.728 186.4 196.128 187.5 195.528C190.8 193.428 194.1 191.328 197.4 189.228C201.8 186.328 206.3 183.428 210.7 180.528C211.5 180.128 212.2 179.728 213 179.328C213.6 178.928 214.2 178.528 214.7 178.228C215.1 177.828 215.5 177.528 215.9 177.128C216.5 176.728 217.1 176.328 217.6 175.928C218 175.728 218.3 175.528 218.7 175.328C220.1 174.528 221.4 173.828 222.8 173.028C225.1 171.528 227.4 169.928 229.7 168.428C230.7 168.028 231.7 167.628 232.7 167.228C232.9 167.028 233 166.928 233.2 166.728C233.1 166.528 233.1 166.428 233 166.228C233.3 166.328 233.6 166.528 233.9 166.628C234.2 166.228 234.6 165.928 234.9 165.528C235.2 164.928 235.4 164.128 235.9 163.828C242.5 159.328 249.1 154.828 255.8 150.428C256.4 149.728 256.8 148.928 256.9 148.228C256.7 148.928 256.4 149.728 255.8 150.428C257.9 149.228 259.9 148.028 262 146.928C263.1 146.328 264.4 145.828 265.5 145.228C265.9 144.828 266.2 144.328 266.6 144.028C274 139.228 281.4 134.428 288.7 129.628C293.6 126.428 298.4 123.128 303.2 119.928C308.8 116.428 314.4 113.028 319.9 109.528C320.5 109.128 321.2 108.628 321.8 108.228C332.9 100.928 344.1 93.6277 355.2 86.3277C357.5 84.8277 359.8 83.3277 362.2 81.9277C364.8 80.4277 367.5 78.9277 370.1 77.5277C370.9 76.9277 371.7 76.3277 372.4 75.8277C372.9 75.3277 373.4 74.6277 374.1 74.2277C390.3 63.7277 406.6 53.3277 422.8 42.8277C437.3 33.4277 451.8 24.0277 466.3 14.6277C470.4 11.9277 474.4 9.12773 478.4 6.42773C476.7 7.02773 475.1 7.32773 473.7 8.02773Z" fill="url(#paint4_linear_1_10636)"/>
<path d="M281.5 137.127C283.4 140.927 285.3 144.727 287.3 148.527C288.8 151.527 290.4 154.427 292 157.327C286.2 160.927 280.5 164.527 274.7 168.027C263.5 174.727 252.3 181.327 241.1 188.027C240.5 188.027 239.9 188.027 239.4 188.027C236.3 186.027 233.2 183.927 230.1 181.927C226.7 179.727 223.2 177.527 219.7 175.327C220.7 174.527 221.6 173.727 222.6 173.027C224.9 171.527 227.2 169.927 229.5 168.427C230.5 168.027 231.5 167.627 232.5 167.227C232.7 167.027 232.8 166.927 233 166.727C233.2 166.727 233.5 166.627 233.7 166.627C234 166.227 234.4 165.927 234.7 165.527C235.1 165.427 235.5 165.427 235.8 165.227C245.6 159.127 255.4 153.127 265.2 147.027C265.6 146.727 265.8 145.927 266 145.327C270 143.027 274.1 140.727 278.1 138.527C279.2 138.027 280.4 137.627 281.5 137.127Z" fill="#90257D"/>
<path d="M266 145.427C265.7 146.027 265.6 146.827 265.2 147.127C255.4 153.227 245.6 159.327 235.8 165.327C235.5 165.527 235.1 165.527 234.7 165.627C235 165.027 235.2 164.227 235.7 163.927C242.3 159.427 248.9 154.927 255.6 150.527C257.7 149.327 259.7 148.127 261.8 147.027C262.9 146.427 264.2 145.927 265.3 145.327C265.5 145.327 265.8 145.327 266 145.427Z" fill="#943C9E"/>
<path d="M466.6 7.72695C463.9 8.62695 461.2 9.62695 458.5 10.527C458.1 10.527 457.8 10.627 457.4 10.627C457.2 10.827 457 10.927 456.7 11.127C443.4 15.127 430.1 19.227 416.8 23.227C416.1 23.327 415.5 23.427 414.8 23.627C394.8 29.627 374.7 35.527 354.7 41.527C329.3 49.127 303.9 56.727 278.5 64.327C273.7 65.727 268.9 67.027 264.1 68.327C263.1 68.727 262.2 69.127 261.2 69.427C255 71.427 248.9 73.327 242.7 75.327C242.1 75.327 241.5 75.327 241 75.527C232.4 78.027 223.8 80.627 215.2 83.227C194.1 89.4269 173 95.727 151.9 101.927C151.9 102.327 151.9 102.727 151.9 103.027C151.9 104.827 152 106.727 151.8 108.527C151.1 116.827 150.3 125.127 149.6 133.327C149.1 139.427 148.8 145.527 148.4 151.627C147.7 162.227 146.9 172.727 146.1 183.327C145.9 184.727 145.7 186.127 145.5 187.527C145.1 192.027 144.7 196.427 144.4 200.927C144.1 205.827 144 210.727 143.7 215.627C143.1 222.027 142.5 228.327 142 234.727C141.4 240.527 140.8 246.227 140.3 252.027C140 256.327 139.9 260.627 139.6 264.927C138.9 274.927 138.1 284.927 137.3 294.827C136.9 298.527 136.5 302.127 136.2 305.827C136 307.527 135.8 309.227 135.6 310.927C136.1 311.127 136.7 311.327 137.1 311.627C146.5 317.727 156 323.927 165.4 330.127C166.7 331.027 168.2 331.627 169.6 332.427C177.8 337.927 185.9 343.427 194.1 348.927C198.9 352.127 203.7 355.227 208.4 358.327C218 364.727 227.7 371.027 237.3 377.427C238 377.827 238.6 378.127 239.3 378.627C248.1 384.127 256.9 389.727 265.7 395.327C264.8 393.827 264.1 392.327 263.1 390.927C257.6 383.327 252 375.827 246.5 368.227C246.3 367.827 246.1 367.427 245.9 367.027C245.1 366.127 244.2 365.227 243.4 364.227C236.9 355.527 230.3 346.927 223.8 338.227C221.1 334.527 218.4 330.827 215.7 327.027C207.8 316.327 199.9 305.527 191.9 294.827C186.8 288.027 181.6 281.227 176.5 274.427C173.9 270.727 171.3 267.127 168.6 263.427C165.2 258.827 161.8 254.227 158.5 249.527C155 246.327 154.9 245.627 156.8 241.527C158 238.827 159.2 236.127 160.3 233.327C165.1 222.627 169.8 211.927 174.6 201.227C175.5 199.227 176.3 197.227 177.1 195.227C179.2 191.027 181.4 186.927 183.3 182.727C189.4 169.227 195.4 155.727 201.4 142.327C201.6 141.927 202.1 141.827 202.4 141.527C203.4 139.027 204.2 136.527 205.3 134.127C205.9 132.827 207 131.527 208.2 130.927C213 128.427 217.8 126.227 222.7 123.927C230.2 120.527 237.7 117.127 245.2 113.727C246 113.227 246.8 112.627 247.6 112.227C255.5 108.427 263.3 104.727 271.2 101.027C279.9 97.127 288.5 93.327 297.2 89.427C302.6 86.827 308.1 84.127 313.5 81.627C322.6 77.427 331.8 73.227 341 69.027C344.3 67.527 347.6 66.027 351 64.627C356.9 61.827 362.7 58.927 368.6 56.127C377.7 51.827 386.9 47.727 396 43.527C403.3 40.127 410.6 36.727 417.9 33.327C418.4 33.127 418.8 32.627 419.2 32.227C422.3 30.927 425.4 29.827 428.4 28.427C443.3 21.527 458.1 14.627 473 7.72695C474.5 7.02695 476.1 6.72695 477.6 6.22695C478 6.02695 478.4 5.82695 478.8 5.62695C479 5.62695 479.2 5.62695 479.4 5.62695C480.4 4.82695 481.3 3.92695 482.3 3.12695C477.4 4.82695 472 6.22695 466.6 7.72695Z" fill="url(#paint5_linear_1_10636)"/>
<path d="M222.5 173.027C221.5 173.827 220.6 174.627 219.6 175.327C219.2 175.327 218.8 175.327 218.4 175.327C219.8 174.627 221.2 173.827 222.5 173.027Z" fill="#813F86"/>
<path d="M214.4 178.228C213.8 178.628 213.2 179.028 212.7 179.328C213.3 179.028 213.9 178.628 214.4 178.228Z" fill="#813F86"/>
<path d="M215.6 177.127C215.2 177.527 214.8 177.927 214.4 178.227C214.8 177.827 215.2 177.527 215.6 177.127Z" fill="#813F86"/>
<path d="M233.6 166.727C233.4 166.727 233.1 166.827 232.9 166.827C232.8 166.627 232.8 166.527 232.7 166.327C233 166.427 233.3 166.527 233.6 166.727Z" fill="#943C9E"/>
</g>
<defs>
<linearGradient id="paint0_linear_1_10636" x1="20.2285" y1="347.658" x2="114.843" y2="442.272" gradientUnits="userSpaceOnUse">
<stop stop-color="#853390"/>
<stop offset="1" stop-color="#481053"/>
</linearGradient>
<linearGradient id="paint1_linear_1_10636" x1="83.1022" y1="347.289" x2="83.1022" y2="103.092" gradientUnits="userSpaceOnUse">
<stop stop-color="#9E298F"/>
<stop offset="1" stop-color="#AE339F"/>
</linearGradient>
<linearGradient id="paint2_linear_1_10636" x1="141.008" y1="491.345" x2="141.008" y2="311.25" gradientUnits="userSpaceOnUse">
<stop stop-color="#481053"/>
<stop offset="1" stop-color="#60176D"/>
</linearGradient>
<linearGradient id="paint3_linear_1_10636" x1="203.432" y1="239.121" x2="308.785" y2="239.121" gradientUnits="userSpaceOnUse">
<stop stop-color="#681959"/>
<stop offset="1" stop-color="#541560"/>
</linearGradient>
<linearGradient id="paint4_linear_1_10636" x1="183.216" y1="101.958" x2="478.263" y2="101.958" gradientUnits="userSpaceOnUse">
<stop stop-color="#652D6A"/>
<stop offset="1" stop-color="#813F86"/>
</linearGradient>
<linearGradient id="paint5_linear_1_10636" x1="309.31" y1="395.643" x2="309.31" y2="3.41035" gradientUnits="userSpaceOnUse">
<stop stop-color="#853390"/>
<stop offset="1" stop-color="#813F86"/>
</linearGradient>
<clipPath id="clip0_1_10636">
<rect width="500" height="500" fill="white" transform="translate(0 0.527344)"/>
</clipPath>
</defs>
</svg>
