<svg width="500" height="501" viewBox="0 0 500 501" fill="none" xmlns="http://www.w3.org/2000/svg">
<path d="M305 144.627H297.8C285.3 144.627 273.2 145.427 261.6 147.027C250 148.627 239.6 151.527 230.5 155.827C221.8 160.027 214.6 165.927 208.8 173.327C203.5 180.827 200.8 190.527 200.8 202.527V498.327H212.4C224 498.327 235.3 497.327 246.4 495.427C257.5 493.827 267.4 490.727 276.1 486.127C284.8 481.927 291.8 476.027 297.1 468.627C302.4 461.127 305.1 451.527 305.1 439.827V144.627H305Z" fill="#303EF5"/>
<path d="M159.6 97.2275H152.4C139.9 97.2275 127.8 98.0275 116.3 99.6275C104.7 101.228 94.4 104.128 85.2 108.428C76.5 112.628 69.3 118.528 63.5 125.928C58.2 133.428 55.6 143.128 55.6 155.128V450.928H67.2C78.8 450.928 90.1 449.928 101.2 448.028C112.3 446.428 122.2 443.328 130.8 438.728C139.5 434.528 146.5 428.628 151.8 421.228C157.1 413.728 159.7 404.128 159.7 392.428V97.2275H159.6Z" fill="#303EF5"/>
<path d="M450.5 2.52734H443.3C430.8 2.52734 418.7 3.32734 407.2 4.92734C395.6 6.52734 385.2 9.52734 376.1 13.7273C367.4 17.9273 360.2 23.8273 354.4 31.2273C349.1 38.7273 346.5 48.4273 346.5 60.4273V356.227H358C369.6 356.227 380.9 355.227 392 353.327C403.1 351.727 413 348.627 421.6 344.027C430.3 339.827 437.3 333.927 442.6 326.527C447.9 319.027 450.5 309.427 450.5 297.727V2.52734Z" fill="#303EF5"/>
</svg>
