<svg width="500" height="501" viewBox="0 0 500 501" fill="none" xmlns="http://www.w3.org/2000/svg">
<g clip-path="url(#clip0_1_10748)">
<path d="M368.4 121.928C369.3 121.928 369.5 122.428 368.9 123.028L332.7 159.328C331.9 160.128 330.6 160.128 329.8 159.328L323.1 152.628C321.3 150.828 318.8 149.828 316.2 149.828C316.2 149.828 298.5 149.828 292.8 149.728C292.2 149.728 291.9 148.928 292.4 148.628C312.8 131.128 341.2 122.128 368.4 121.928Z" fill="#7E6CFF"/>
<path d="M215.1 334.827H192.4C189.1 334.827 186 333.527 183.7 331.227L167.6 315.127C165.3 312.827 164 309.727 164 306.427V283.727C164 280.427 165.3 277.327 167.6 275.027L183.7 258.927C186 256.627 189.1 255.327 192.4 255.327H215.1C218.4 255.327 221.5 256.627 223.8 258.927L239.9 275.027C242.2 277.327 243.5 280.427 243.5 283.727V306.427C243.5 309.727 242.2 312.827 239.9 315.127L223.8 331.227C221.5 333.527 218.4 334.827 215.1 334.827Z" fill="#7E6CFF"/>
<path d="M103.3 119.527C103.9 119.427 104.5 119.927 104.5 120.527C104.3 123.927 104.1 127.327 104.1 130.827C104.1 132.927 104.2 135.127 104.2 137.227C104.2 138.127 103.9 139.027 103.3 139.627L1.50005 240.427C0.900049 241.027 -0.199951 240.627 -0.199951 239.627C2.20005 180.127 49.3 130.727 103.3 119.527Z" fill="#7E6CFF"/>
<path d="M106 159.228C106.5 158.728 107.5 158.928 107.6 159.728C110.4 173.628 115.9 186.828 122.4 198.928C122.7 199.428 122.6 200.028 122.2 200.428L33.2 289.128C27.7 294.628 21.4 301.028 16.9 305.528C15.6 306.828 13.5 306.428 12.7 304.828C6.90002 292.728 3.00002 279.628 1.20002 265.828C1.10002 264.828 1.40002 263.828 2.10002 263.128L106 159.228Z" fill="#7E6CFF"/>
<path d="M147.6 291.127C148.2 290.527 149.2 290.927 149.2 291.827V314.027C149.2 316.627 150.2 319.127 152 320.927L157.8 327.727C158.2 328.127 158.2 328.727 158.3 328.627L111 374.727C109.7 375.927 108.7 376.327 107.7 376.127C96 374.127 84.9 370.527 74.5 365.627C73.9 365.327 73.8 364.527 74.2 364.027L147.6 291.127Z" fill="#7E6CFF"/>
<path d="M114.9 301.727L115.1 301.527C115 301.627 114.9 301.727 114.9 301.727Z" fill="#7E6CFF"/>
<path d="M131.8 377.627C130.9 377.627 130.7 377.127 131.3 376.527L167.5 340.227C168.3 339.427 169.6 339.427 170.4 340.227L177.1 346.927C178.9 348.727 181.4 349.727 184 349.727C184 349.727 201.7 349.727 207.4 349.827C208 349.827 208.3 350.527 207.8 350.927C187.5 368.527 159 377.427 131.8 377.627Z" fill="#7E6CFF"/>
<path d="M23.8 318.827C33.8 308.827 80.8 261.827 90.5 252.227C91.2 251.527 92.4 251.927 92.6 252.927C94.1 261.227 98 268.827 104 274.927C110.3 281.227 118.4 285.327 127.2 286.627C128.2 286.827 128.7 287.927 128 288.727C118.6 298.127 74.3 342.527 59.9 356.927C59.5 356.927 59.2 357.027 58.8 357.027C45 348.027 33 336.427 23.6 323.027C22.6 321.627 22.8 319.927 23.8 318.827Z" fill="#7E6CFF"/>
<path d="M161.7 215.828V193.128C161.7 189.828 163 186.728 165.3 184.428L181.4 168.328C183.7 166.028 186.8 164.728 190.1 164.728H212.8C216.1 164.728 219.2 166.028 221.5 168.328L237.6 184.428C239.9 186.728 241.2 189.828 241.2 193.128V215.828C241.2 219.128 239.9 222.228 237.6 224.528L221.5 240.628C219.2 242.928 216.1 244.228 212.8 244.228H190.1C186.8 244.228 183.7 242.928 181.4 240.628L165.3 224.528C163 222.228 161.7 219.128 161.7 215.828Z" fill="#7E6CFF"/>
<path d="M377 104.027C377.1 104.627 376.6 105.227 376 105.227C372.6 105.027 369.2 104.827 365.7 104.827C363.6 104.827 361.4 104.927 359.3 104.927C358.4 104.927 357.5 104.627 356.9 104.027L256.2 2.22734C255.5 1.52734 256 0.527344 256.9 0.527344C316.4 2.82734 365.8 49.9273 377 104.027Z" fill="#7E6CFF"/>
<path d="M337.3 106.727C337.8 107.227 337.6 108.227 336.8 108.327C322.9 111.127 309.7 116.627 297.6 123.127C297.1 123.427 296.5 123.327 296.1 122.927L207.4 33.927C201.8 28.427 195.5 22.127 191 17.627C189.7 16.327 190.1 14.227 191.7 13.427C203.8 7.62695 216.9 3.72695 230.7 1.92695C231.7 1.82695 232.7 2.12695 233.4 2.82695L337.3 106.727Z" fill="#7E6CFF"/>
<path d="M205.4 148.327C206 148.927 205.6 149.927 204.7 149.927H182.5C179.9 149.927 177.4 150.927 175.6 152.827L168.8 158.627C168.4 159.027 167.8 159.027 167.9 159.127L121.8 111.827C120.5 110.527 120.2 109.527 120.4 108.527C122.4 96.8271 126 85.7271 130.9 75.3271C131.2 74.7271 132 74.6271 132.5 75.0271L205.4 148.327Z" fill="#7E6CFF"/>
<path d="M118.8 132.528C118.8 131.628 119.3 131.428 119.9 132.028L156.2 168.228C157 169.028 157 170.328 156.2 171.128L149.5 177.828C147.7 179.628 146.7 182.128 146.7 184.728C146.7 184.728 146.7 202.428 146.6 208.128C146.6 208.728 145.8 209.028 145.5 208.528C128 188.128 119.1 159.728 118.8 132.528Z" fill="#7E6CFF"/>
<path d="M263.2 146.428C259.1 150.528 253.6 152.828 247.8 152.828C242 152.828 236.5 150.528 232.4 146.428C228.3 142.328 226 136.828 226 131.028C226 125.228 228.3 119.728 232.4 115.628C236.5 111.528 242 109.228 247.8 109.228C253.6 109.228 259.1 111.528 263.2 115.628C267.3 119.728 269.6 125.228 269.6 131.028C269.6 136.728 267.3 142.328 263.2 146.428Z" fill="#7E6CFF"/>
<path d="M177.7 24.5273C187.7 34.5273 234.7 81.5272 244.3 91.2272C245 91.9272 244.6 93.1273 243.6 93.3273C235.3 94.8273 227.7 98.7272 221.6 104.727C215.3 111.027 211.2 119.127 209.9 127.927C209.7 128.927 208.6 129.427 207.8 128.727C198.4 119.327 154 75.0273 139.6 60.6273C139.6 60.2273 139.5 59.9273 139.5 59.5273C148.5 45.7273 160.1 33.7273 173.5 24.3273C174.9 23.3273 176.6 23.4273 177.7 24.5273Z" fill="#7E6CFF"/>
<path d="M145.7 233.328C149.8 237.428 152.1 242.928 152.1 248.728C152.1 254.528 149.8 260.028 145.7 264.128C141.6 268.228 136.1 270.528 130.3 270.528C124.5 270.528 119 268.228 114.9 264.128C110.8 260.028 108.5 254.528 108.5 248.728C108.5 242.928 110.8 237.428 114.9 233.328C119 229.228 124.5 226.928 130.3 226.928C136.1 226.928 141.6 229.228 145.7 233.328Z" fill="#7E6CFF"/>
<path d="M284.7 165.027H307.4C310.7 165.027 313.8 166.327 316.1 168.627L332.2 184.727C334.5 187.027 335.8 190.127 335.8 193.427V216.127C335.8 219.427 334.5 222.527 332.2 224.827L316.1 240.927C313.8 243.227 310.7 244.527 307.4 244.527H284.7C281.4 244.527 278.3 243.227 276 240.927L259.9 224.827C257.6 222.527 256.3 219.427 256.3 216.127V193.427C256.3 190.127 257.6 187.027 259.9 184.727L276 168.627C278.3 166.327 281.4 165.027 284.7 165.027Z" fill="#7E6CFF"/>
<path d="M396.5 380.327C395.9 380.427 395.3 379.927 395.3 379.327C395.5 375.927 395.7 372.527 395.7 369.027C395.7 366.927 395.6 364.727 395.6 362.627C395.6 361.727 395.9 360.827 396.5 360.227L498.3 259.527C498.9 258.927 500 259.327 500 260.227C497.7 319.727 450.6 369.127 396.5 380.327Z" fill="#7E6CFF"/>
<path d="M393.8 340.627C393.3 341.127 392.3 340.927 392.2 340.127C389.4 326.227 383.9 313.027 377.4 300.927C377.1 300.427 377.2 299.827 377.6 299.427L466.6 210.727C472.1 205.227 478.4 198.827 482.9 194.327C484.2 193.027 486.3 193.427 487.1 195.027C492.9 207.127 496.8 220.227 498.6 234.027C498.7 235.027 498.4 236.027 497.7 236.727L393.8 340.627Z" fill="#7E6CFF"/>
<path d="M352.2 208.728C351.6 209.328 350.6 208.928 350.6 208.028V185.828C350.6 183.228 349.6 180.728 347.7 178.928L341.9 172.128C341.5 171.728 341.5 171.128 341.4 171.228L388.7 125.128C390 123.928 391 123.528 392 123.728C403.7 125.728 414.8 129.328 425.2 134.228C425.8 134.528 425.9 135.328 425.5 135.828L352.2 208.728Z" fill="#7E6CFF"/>
<path d="M385 198.127L384.8 198.327C384.9 198.227 385 198.127 385 198.127Z" fill="#7E6CFF"/>
<path d="M368 122.228C368.9 122.228 369.1 122.728 368.5 123.328L332.3 159.528C331.5 160.328 330.2 160.328 329.4 159.528L322.7 152.828C320.9 151.028 318.4 150.028 315.8 150.028C315.8 150.028 298.1 150.028 292.4 149.928C291.8 149.928 291.5 149.228 292 148.828C312.4 131.328 340.8 122.428 368 122.228Z" fill="#7E6CFF"/>
<path d="M476 181.027C466 191.027 419 238.027 409.3 247.627C408.6 248.327 407.4 247.927 407.2 246.927C405.7 238.627 401.8 231.027 395.7 224.927C389.4 218.627 381.3 214.527 372.5 213.227C371.5 213.027 371 211.927 371.7 211.127C381.1 201.727 425.4 157.327 439.8 142.927C440.2 142.927 440.5 142.827 440.9 142.827C454.7 151.827 466.7 163.427 476.1 176.827C477.2 178.227 477.1 179.927 476 181.027Z" fill="#7E6CFF"/>
<path d="M338.1 284.028V306.728C338.1 310.028 336.8 313.128 334.5 315.428L318.4 331.528C316.1 333.828 313 335.128 309.7 335.128H287C283.7 335.128 280.6 333.828 278.3 331.528L262.2 315.528C259.9 313.228 258.6 310.128 258.6 306.828V284.128C258.6 280.828 259.9 277.728 262.2 275.428L278.3 259.328C280.6 257.028 283.7 255.728 287 255.728H309.7C313 255.728 316.1 257.028 318.4 259.328L334.5 275.428C336.9 277.728 338.1 280.728 338.1 284.028Z" fill="#7E6CFF"/>
<path d="M122.9 395.827C122.8 395.227 123.3 394.627 123.9 394.627C127.3 394.827 130.7 395.027 134.2 395.027C136.3 395.027 138.5 394.927 140.6 394.827C141.5 394.827 142.4 395.127 143 395.727L243.7 497.627C244.3 498.227 243.8 499.327 243 499.327C183.4 497.027 134.1 449.927 122.9 395.827Z" fill="#7E6CFF"/>
<path d="M162.6 393.127C162.1 392.627 162.3 391.627 163.1 391.527C177 388.727 190.2 383.227 202.3 376.727C202.8 376.427 203.4 376.527 203.8 376.927L292.5 465.927C298 471.427 304.4 477.727 308.9 482.227C310.2 483.527 309.8 485.627 308.2 486.427C296.1 492.227 283 496.127 269.2 497.927C268.2 498.027 267.2 497.727 266.5 497.027L162.6 393.127Z" fill="#7E6CFF"/>
<path d="M294.5 351.528C293.9 350.928 294.3 349.928 295.2 349.928H317.4C320 349.928 322.5 348.928 324.3 347.028L331.1 341.228C331.5 340.828 332.1 340.828 332 340.728L378.1 388.028C379.4 389.328 379.7 390.328 379.5 391.328C377.5 403.028 373.9 414.128 369 424.528C368.7 425.128 367.9 425.228 367.4 424.828L294.5 351.528Z" fill="#7E6CFF"/>
<path d="M381 367.328C381 368.228 380.5 368.428 379.9 367.828L343.6 331.628C342.8 330.828 342.8 329.528 343.6 328.728L350.3 322.028C352.1 320.228 353.1 317.728 353.1 315.128C353.1 315.128 353.1 297.328 353.2 291.728C353.2 291.128 354 290.828 354.3 291.328C371.8 311.728 380.8 340.228 381 367.328Z" fill="#7E6CFF"/>
<path d="M236.6 353.527C240.7 349.427 246.2 347.127 252 347.127C257.8 347.127 263.3 349.427 267.4 353.527C271.5 357.627 273.8 363.127 273.8 368.927C273.8 374.727 271.5 380.227 267.4 384.327C263.3 388.427 257.8 390.727 252 390.727C246.2 390.727 240.7 388.427 236.6 384.327C232.5 380.227 230.2 374.727 230.2 368.927C230.2 363.127 232.5 357.527 236.6 353.527Z" fill="#7E6CFF"/>
<path d="M322.2 475.327C312.2 465.327 265.2 418.327 255.6 408.627C254.9 407.927 255.3 406.727 256.3 406.527C264.6 405.027 272.2 401.127 278.3 395.127C284.6 388.827 288.7 380.727 290 371.927C290.2 370.927 291.3 370.427 292.1 371.127C301.5 380.527 345.9 424.827 360.3 439.227C360.3 439.627 360.4 439.927 360.4 440.327C351.4 454.127 339.8 466.127 326.4 475.527C325 476.627 323.3 476.427 322.2 475.327Z" fill="#7E6CFF"/>
<path d="M354.1 266.628C350 262.528 347.7 257.028 347.7 251.228C347.7 245.428 350 239.928 354.1 235.828C358.2 231.728 363.7 229.428 369.5 229.428C375.3 229.428 380.8 231.728 384.9 235.828C389 239.928 391.3 245.428 391.3 251.228C391.3 257.028 389 262.528 384.9 266.628C380.8 270.728 375.3 273.028 369.5 273.028C363.8 272.928 358.2 270.728 354.1 266.628Z" fill="#7E6CFF"/>
</g>
<defs>
<clipPath id="clip0_1_10748">
<rect width="500" height="500" fill="white" transform="translate(0 0.527344)"/>
</clipPath>
</defs>
</svg>
