<svg width="500" height="501" viewBox="0 0 500 501" fill="none" xmlns="http://www.w3.org/2000/svg">
<g clip-path="url(#clip0_1_10780)">
<path d="M250 0.527344C30 0.527344 0 30.5273 0 250.527C0 470.527 30 500.527 250 500.527C470 500.527 500 470.527 500 250.527C500 30.5273 470 0.527344 250 0.527344ZM225 150.527H275V250.527C275 260.527 272.5 266.727 268.8 270.527C265 275.527 258.8 278.027 250 278.027C241.2 278.027 236.2 275.527 231.2 270.527C227.5 266.727 225 260.527 225 250.527V150.527ZM375 253.027C375 289.227 363.8 321.727 340 345.527C316.2 368.027 286.3 379.327 250 379.327C213.7 379.327 183.8 369.327 160 345.527C136.2 320.527 125 288.027 125 253.027V150.527H175V253.027C175 279.227 182.5 296.727 195 308.027C207.5 320.527 225 326.827 250 326.827C276.2 326.827 292.5 319.327 305 308.027C317.5 295.527 325 278.027 325 251.827V150.527H375V253.027Z" fill="#7A51D1"/>
</g>
<defs>
<clipPath id="clip0_1_10780">
<rect width="500" height="500" fill="white" transform="translate(0 0.527344)"/>
</clipPath>
</defs>
</svg>
