<svg width="500" height="501" viewBox="0 0 500 501" fill="none" xmlns="http://www.w3.org/2000/svg">
<path fill-rule="evenodd" clip-rule="evenodd" d="M425.8 269.927L358.7 386.127C361.3 391.727 361.8 397.627 359.9 403.627C357.4 411.627 351 418.227 342.9 420.427C332.2 423.327 321.6 419.227 315.7 410.727H184.7C178.5 419.527 167.5 423.527 156.5 420.127C148.5 417.627 142.3 410.827 140.2 402.827C138.7 397.327 139.1 392.027 141.3 386.927L73.7 270.127C61.4 268.427 52 257.927 52 245.427C52 232.127 62.4 221.127 75.6 220.427L141 107.127C139.9 104.127 139.2 101.027 139.2 98.0271C139.2 84.2271 150.4 73.0271 164.3 73.0271C172.2 73.0271 179.5 76.7271 184.2 82.9272H316C320.7 76.7271 328 73.0271 335.9 73.0271C349.7 73.0271 360.9 84.3271 360.9 98.0271C360.9 101.327 360.1 104.727 358.8 107.827L423.8 220.427C436.6 221.527 446.7 232.427 446.7 245.327C446.8 257.727 437.8 268.027 425.8 269.927ZM490.2 224.327L389.6 50.2271C381.4 36.0272 366.3 27.3271 350 27.3271H148.8C132.5 27.3271 117.3 36.0272 109.1 50.2271L8.59995 224.327C0.399951 238.527 0.399951 255.927 8.59995 270.127L109.2 444.227C117.4 458.427 132.5 467.127 148.9 467.127H350C366.4 467.127 381.5 458.427 389.6 444.227L490.2 270.127C498.4 255.927 498.4 238.527 490.2 224.327Z" fill="#21A0B4"/>
<path fill-rule="evenodd" clip-rule="evenodd" d="M403.9 228.028L361.6 154.828L204 243.128C204 243.328 204 243.428 204 243.628C204 257.428 192.8 268.728 179 268.728C165.2 268.728 154 257.528 154 243.628C154 229.828 165.2 218.628 179 218.628C184.8 218.628 190.3 220.628 194.7 224.228L351 136.428L342.7 122.028C340.5 122.628 338.2 123.028 335.9 123.028C324.3 123.028 314.4 115.028 311.7 103.928H188.5C185.8 115.028 175.8 123.028 164.3 123.028C161.8 123.028 159.2 122.628 156.8 121.828L95.3 228.328C99.7 233.028 102.1 239.028 102.1 245.328C102.1 252.228 99.3 258.628 94.3 263.328L141.3 344.728L302.4 251.528C302.3 250.828 302.3 250.028 302.3 249.328C302.3 235.528 313.6 224.328 327.3 224.328C341.1 224.328 352.3 235.528 352.3 249.328C352.3 263.128 341.1 274.328 327.3 274.328C322.1 274.328 317.2 272.728 313 269.728L151.7 363.028L157.1 372.428C159.4 371.728 161.8 371.428 164.3 371.428C175.7 371.428 185.4 379.028 188.4 389.728H311.9C315.4 376.928 329 368.528 342.4 372.228L405 263.828C399.8 259.128 396.8 252.428 396.8 245.428C396.7 238.828 399.3 232.628 403.9 228.028Z" fill="#21A0B4"/>
</svg>
