<svg width="500" height="501" viewBox="0 0 500 501" fill="none" xmlns="http://www.w3.org/2000/svg">
<path d="M250 498.828C387.133 498.828 498.3 387.66 498.3 250.528C498.3 113.395 387.133 2.22754 250 2.22754C112.868 2.22754 1.7002 113.395 1.7002 250.528C1.7002 387.66 112.868 498.828 250 498.828Z" fill="#2775CA"/>
<path d="M203.4 423.228C203.4 429.028 198.7 432.328 193.3 430.628C118.1 406.528 63.7998 336.228 63.7998 253.028C63.7998 170.028 118.1 99.6277 193.4 75.5277C199 73.8277 203.5 77.1277 203.5 82.9277V97.4277C203.5 101.328 200.6 105.728 196.9 107.128C137.3 129.028 94.8998 186.228 94.8998 253.028C94.8998 319.928 137.4 377.028 196.9 398.728C200.6 400.128 203.5 404.528 203.5 408.428V423.228H203.4Z" fill="white"/>
<path d="M265.5 369.428C265.5 373.728 262 377.228 257.7 377.228H242.2C237.9 377.228 234.4 373.728 234.4 369.428V345.028C200.5 340.328 184 321.528 179.5 295.528C178.7 291.028 182.2 287.228 186.7 287.228H204.4C208.1 287.228 211.2 289.928 212 293.428C215.3 308.728 224.2 320.628 251.4 320.628C271.4 320.628 285.7 309.328 285.7 292.728C285.7 276.028 277.4 269.628 247.9 264.828C204.4 259.028 183.9 245.828 183.9 211.828C183.9 185.628 203.9 165.028 234.5 160.828V136.728C234.5 132.428 238 128.928 242.3 128.928H257.8C262.1 128.928 265.6 132.428 265.6 136.728V161.328C290.6 165.828 306.5 179.928 311.8 203.628C312.8 208.128 309.3 212.128 304.6 212.128H288.3C284.8 212.128 281.9 209.828 280.9 206.528C276.4 191.628 265.8 185.028 247.1 185.028C226.5 185.028 215.9 194.928 215.9 208.928C215.9 223.628 221.9 231.028 253.5 235.528C296.2 241.328 318.3 253.528 318.3 289.828C318.3 317.328 297.7 339.728 265.7 344.728V369.528H265.5V369.428Z" fill="white"/>
<path d="M306.6 430.527C301 432.227 296.5 428.927 296.5 423.127V408.627C296.5 404.327 299 400.327 303.1 398.927C362.5 377.227 405.1 319.927 405.1 253.227C405.1 186.327 362.6 129.227 303.1 107.527C299.4 106.127 296.5 101.727 296.5 97.8271V83.3271C296.5 77.5271 301.2 74.2271 306.6 75.9271C381.9 99.6271 436.2 170.027 436.2 253.027C436.2 336.227 381.9 406.527 306.6 430.527Z" fill="white"/>
</svg>
