<svg width="500" height="501" viewBox="0 0 500 501" fill="none" xmlns="http://www.w3.org/2000/svg">
<path d="M250 2.52734C387 2.52734 498 113.527 498 250.527C498 387.527 387 498.527 250 498.527C113 498.527 2 387.527 2 250.527C2 113.527 113 2.52734 250 2.52734Z" fill="white"/>
<path d="M250 482.027C377.854 482.027 481.5 378.381 481.5 250.527C481.5 122.673 377.854 19.0273 250 19.0273C122.146 19.0273 18.5 122.673 18.5 250.527C18.5 378.381 122.146 482.027 250 482.027Z" fill="#216C58" stroke="#216C58" stroke-width="8.2667"/>
<path d="M464.9 250.527C464.9 369.227 368.7 465.427 250 465.427C131.3 465.427 35.1001 369.227 35.1001 250.527C35.1001 131.827 131.3 35.627 250 35.627C368.7 35.627 464.9 131.827 464.9 250.527Z" fill="#216C58"/>
<path d="M245.9 353.827H221.1V378.627H245.9V353.827Z" fill="#216C58"/>
<path d="M287.2 353.827H262.4V378.627H287.2V353.827Z" fill="#216C58"/>
<path d="M179.7 97.627H336.8C341.4 97.627 345.1 101.327 345.1 105.927V110.027C345.1 114.627 341.4 118.327 336.8 118.327H179.7C175.1 118.327 171.4 114.627 171.4 110.027V105.927C171.5 101.327 175.2 97.627 179.7 97.627Z" fill="white"/>
<path d="M250 126.527V407.627C250 412.227 246.3 415.927 241.7 415.927H237.6C233 415.927 229.3 412.227 229.3 407.627V126.527H250Z" fill="white"/>
<path d="M283.1 126.527V407.627C283.1 412.227 279.4 415.927 274.8 415.927H270.7C266.1 415.927 262.4 412.227 262.4 407.627V126.527H283.1Z" fill="white"/>
<path d="M232.4 196.527C238.2 194.427 245.4 193.327 254.3 193.327C267.4 193.327 277.2 195.827 284.2 200.427C289.2 203.727 292.6 207.927 294.4 212.927C296.2 218.027 300.8 222.827 307.3 222.827H345.5C352.3 222.827 358.4 217.127 357.4 209.727C355.8 198.327 351.5 188.027 344.5 178.827C335.7 167.427 323.6 158.627 308.2 152.327C292.9 146.027 275 143.027 254.9 143.027C235 143.027 217.2 146.127 201.3 152.327C185.5 158.527 172.9 167.327 163.6 178.727C154.3 190.227 149.7 203.727 149.8 219.027C149.7 237.727 156.7 252.927 170.7 264.127C184.4 275.027 202.7 282.827 225.6 287.727L254.6 294.227C264.2 296.327 272.2 298.527 278.6 301.027C285 303.427 289.5 306.227 292.4 309.327C295.2 312.127 296.6 315.527 296.6 319.827C296.6 324.527 295 328.627 291.8 332.227C288.5 335.927 283.6 339.027 277 341.327C270.5 343.627 262.7 344.827 253.5 344.827C244.2 344.827 235.9 343.527 228.7 341.127C221.7 338.627 216.2 335.027 212.1 330.427C209.5 327.327 207.7 323.827 206.5 319.627C205 314.127 200.2 309.027 193.6 309.027H155.2C148.3 309.027 142.4 314.727 143.2 322.127C144.8 336.127 149.5 348.427 157.4 358.727C166.9 370.927 180 380.027 196.4 386.127C212.9 392.227 232.2 395.227 254 395.227C276 395.227 295.1 392.327 311 386.227C327 380.127 339.5 371.527 348.2 360.227C357 348.827 361.5 335.327 361.6 319.927V319.827C361.5 309.427 359.4 299.927 355 291.627C350.8 283.427 344.9 276.327 337.4 270.327C329.9 264.427 321.1 259.427 311.1 255.427C301.1 251.427 290.2 248.327 278.4 245.927L254.5 240.827H254.4C248.7 239.727 243.4 238.327 238.5 236.827C233.6 235.227 229.4 233.327 225.8 231.327C222.3 229.227 219.7 226.927 217.9 224.327C216.3 222.027 215.5 219.227 215.6 215.727V215.627V215.527C215.6 211.427 216.9 207.827 219.6 204.527C222.4 201.327 226.5 198.527 232.4 196.527Z" fill="white" stroke="#216C58" stroke-width="8.2667"/>
<path d="M250 180.228H229.3V209.128H250V180.228Z" fill="white"/>
<path d="M250 283.627H229.3V312.527H250V283.627Z" fill="white"/>
<path d="M250 370.428H229.3V399.328H250V370.428Z" fill="white"/>
<path d="M283.1 180.228H262.4V209.128H283.1V180.228Z" fill="white"/>
<path d="M283.1 283.627H262.4V312.527H283.1V283.627Z" fill="white"/>
<path d="M283.1 370.428H262.4V399.328H283.1V370.428Z" fill="white"/>
<path fill-rule="evenodd" clip-rule="evenodd" d="M458 262.927C454.7 262.927 452 265.527 451.7 268.727C442.5 372.027 355.7 453.027 250 453.027C144.3 453.027 57.5 372.027 48.3 268.727C48 265.427 45.3 262.927 42 262.927C38.4 262.927 35.6 265.927 35.9 269.527C45.5 379.327 137.7 465.527 250 465.527C362.3 465.527 454.5 379.427 464.1 269.527C464.4 265.927 461.6 262.927 458 262.927ZM42 238.127C45.3 238.127 48 235.527 48.3 232.327C57.5 129.027 144.3 48.0273 250 48.0273C355.7 48.0273 442.5 129.027 451.7 232.327C452 235.627 454.7 238.127 458 238.127C461.6 238.127 464.4 235.127 464.1 231.527C454.5 121.727 362.3 35.5273 250 35.5273C137.7 35.5273 45.5 121.727 35.9 231.527C35.6 235.127 38.4 238.127 42 238.127Z" fill="white"/>
</svg>
