<svg width="500" height="501" viewBox="0 0 500 501" fill="none" xmlns="http://www.w3.org/2000/svg">
<path d="M495.7 249.528C469.9 264.028 427.9 281.728 376.1 281.728C288.2 281.728 199.6 210.728 128.6 210.728C59.8996 210.728 5.89961 247.228 2.59961 249.528L249.2 2.92773L495.7 249.528Z" fill="#00FFB4"/>
<path d="M496.3 250.128L249.2 497.228L2 250.128L2.6 249.528C5.9 247.228 59.9 210.728 128.7 210.728C199.7 210.728 288.2 281.728 376.2 281.728C428 281.728 470 264.028 495.8 249.528L496.3 250.128Z" fill="#05DA9B"/>
<path d="M332.7 307.028C332.7 269.928 306.6 249.228 245.3 237.828C212.2 231.628 195.6 218.328 196 198.228C196 197.728 196 197.428 196 197.028C196 185.728 201 159.428 247.3 159.428C270.3 159.428 286.3 166.228 294.9 179.628C301.5 189.928 301.6 200.928 301.6 201.028L316.2 201.128L330.8 201.428C330.8 200.328 331.1 173.628 310.9 153.028C298.1 140.028 280.6 132.528 258.6 130.728V101.928H237.8V130.528C185.7 134.228 166.9 167.828 166.9 196.928V197.528C166.5 218.028 175.5 254.328 240 266.328C303.6 278.228 303.6 296.828 303.6 306.928C303.6 312.128 302.5 325.328 292.4 335.428C283.3 344.528 269 349.028 249.9 349.028C249.8 349.028 249.6 349.028 249.5 349.028C201.2 348.828 188.5 321.028 188.5 306.428H159.3C159.3 323.628 166.9 340.928 180.2 353.828C190.3 363.628 208.2 375.128 237.7 377.728V406.928H258.5V378.028C281.5 376.628 299.8 369.228 312.9 356.128C325.5 343.628 332.7 325.728 332.7 307.028Z" fill="white"/>
</svg>
