<svg width="500" height="501" viewBox="0 0 500 501" fill="none" xmlns="http://www.w3.org/2000/svg">
<g clip-path="url(#clip0_1_10811)">
<path d="M250 500.527C388.071 500.527 500 388.599 500 250.527C500 112.456 388.071 0.527344 250 0.527344C111.929 0.527344 0 112.456 0 250.527C0 388.599 111.929 500.527 250 500.527Z" fill="url(#paint0_radial_1_10811)"/>
<path d="M225.9 132.028C225.9 111.828 225.9 73.9275 225.9 73.9275L273.6 73.2275L274.3 131.628H365.6C365.6 131.628 365.6 156.528 365.6 169.428C335.1 169.428 305 169.428 274.3 169.428C274.3 190.428 274.3 210.528 274.3 231.728C280.9 231.728 287.4 231.228 293.7 231.828C304 232.728 314.5 233.228 324.4 236.028C349.4 243.028 366.6 258.828 371.7 284.828C375.7 305.428 373.2 325.328 359.8 342.528C349 356.528 334 363.928 317 367.128C308.4 368.728 299.4 369.028 290.6 369.628C285.5 369.928 280.3 369.728 273.9 369.728C273.2 389.628 274 409.128 273.4 429.028C257.5 429.028 242.3 429.028 225.9 429.028C225.9 409.428 225.9 390.028 225.9 369.928C194.5 369.928 164.3 369.928 133.7 369.928C133.7 357.128 133.7 344.928 133.7 331.928C164.2 331.928 194.3 331.928 225.6 331.928C226.1 310.928 225.8 269.128 225.8 269.128L216.4 269.428C216.4 269.428 190.5 269.928 177.8 266.428C153.5 259.728 135 246.028 128.8 220.728C122.2 193.728 126.4 168.628 148.9 149.528C162.9 137.628 180.1 133.228 198.2 132.228C206.9 131.728 215.8 132.028 225.9 132.028ZM274 269.128C273.8 256.828 273.7 244.528 273.5 231.628C256.9 231.628 241.4 231.628 226 231.628C226 211.128 226.3 190.528 225.9 170.228C214.6 168.528 201.5 169.428 193.4 172.228C186.2 174.728 180.4 178.928 177 185.928C167.7 205.128 177.5 226.328 198.5 230.328C207.5 232.028 216.9 231.228 226.2 231.528C226.2 243.828 226.2 256.228 226.2 269.028C242.5 269.028 258.3 269.028 274 269.128C274.1 289.628 274.1 310.128 274.1 331.128C286 331.728 297.1 332.528 307.8 328.328C316.4 324.928 322.3 318.728 324 309.628C327.8 288.928 320.2 273.428 297.1 270.328C289.5 269.328 281.7 269.528 274 269.128Z" fill="white"/>
<path d="M226.1 231.528C216.9 231.228 207.4 232.028 198.4 230.328C177.5 226.328 167.6 205.128 176.9 185.928C180.3 178.928 186 174.628 193.3 172.228C201.4 169.428 214.6 168.628 225.8 170.228C226.2 190.528 226 211.128 225.9 231.628L226.1 231.528Z" fill="url(#paint1_radial_1_10811)"/>
<path d="M274 269.127C281.7 269.527 289.5 269.327 297.2 270.327C320.3 273.427 327.9 288.927 324.1 309.627C322.4 318.727 316.5 324.927 307.9 328.327C297.2 332.527 286 331.727 274.2 331.127C274.1 310.127 274.1 289.627 274 269.127Z" fill="url(#paint2_radial_1_10811)"/>
<path d="M226 231.627C241.4 231.627 256.9 231.627 273.5 231.627C273.7 244.527 273.8 256.827 274 269.127L274.1 269.027C258.3 269.027 242.5 269.027 226.1 269.027C226.1 256.127 226.1 243.827 226.1 231.527L226 231.627Z" fill="url(#paint3_radial_1_10811)"/>
</g>
<defs>
<radialGradient id="paint0_radial_1_10811" cx="0" cy="0" r="1" gradientUnits="userSpaceOnUse" gradientTransform="translate(430.968 108.934) scale(372.093)">
<stop stop-color="#AAD65C"/>
<stop offset="0.6225" stop-color="#4B9E58"/>
<stop offset="1" stop-color="#205533"/>
</radialGradient>
<radialGradient id="paint1_radial_1_10811" cx="0" cy="0" r="1" gradientUnits="userSpaceOnUse" gradientTransform="translate(430.968 108.934) scale(372.093 372.093)">
<stop stop-color="#AAD65C"/>
<stop offset="0.6225" stop-color="#4B9E58"/>
<stop offset="1" stop-color="#205533"/>
</radialGradient>
<radialGradient id="paint2_radial_1_10811" cx="0" cy="0" r="1" gradientUnits="userSpaceOnUse" gradientTransform="translate(430.968 108.933) scale(372.093 372.093)">
<stop stop-color="#AAD65C"/>
<stop offset="0.6225" stop-color="#4B9E58"/>
<stop offset="1" stop-color="#205533"/>
</radialGradient>
<radialGradient id="paint3_radial_1_10811" cx="0" cy="0" r="1" gradientUnits="userSpaceOnUse" gradientTransform="translate(430.968 108.934) scale(372.093 372.093)">
<stop stop-color="#AAD65C"/>
<stop offset="0.6225" stop-color="#4B9E58"/>
<stop offset="1" stop-color="#205533"/>
</radialGradient>
<clipPath id="clip0_1_10811">
<rect width="500" height="500" fill="white" transform="translate(0 0.527344)"/>
</clipPath>
</defs>
</svg>
