<svg width="500" height="501" viewBox="0 0 500 501" fill="none" xmlns="http://www.w3.org/2000/svg">
<g clip-path="url(#clip0_1_10817)">
<path d="M263.56 336.287C263.56 342.567 263.51 348.327 263.58 354.077C263.63 358.517 261.59 360.387 257.1 360.787C239.2 362.387 238.56 361.907 237.98 344.107C237.9 341.657 237.51 339.227 237.22 336.417C232.53 335.607 228.2 335.017 223.94 334.107C203.42 329.707 189.47 308.427 194.06 288.107C194.53 286.017 197.34 283.127 199.27 282.947C206.42 282.297 213.66 282.527 220.87 282.627C225.04 282.687 226.77 285.407 226.61 289.257C226 304.037 233.66 307.357 246.54 307.137C251.79 307.047 257.08 306.947 262.27 306.277C268.92 305.407 272.25 301.047 273.26 294.527C275.9 277.637 271.09 270.977 253.96 268.467C246.01 267.307 237.98 266.667 230.04 265.447C205.57 261.707 194.02 248.657 193.51 223.837C193.34 215.547 193.16 207.097 194.55 198.977C197.51 181.647 208.17 171.737 225.46 168.677C228.96 168.057 232.48 167.487 237.19 166.687C237.19 161.077 237.3 155.607 237.16 150.147C237 144.167 239.73 141.727 245.71 141.747C266.17 141.797 263.89 140.887 264 158.527C264.02 161.227 264.3 163.937 264.46 166.767C267.52 167.387 269.92 167.977 272.36 168.347C298.12 172.267 305.99 195.357 304.57 215.287C304.28 219.367 301.72 221.017 297.82 220.997C291.17 220.977 284.51 220.957 277.86 220.987C273.32 221.007 271.8 218.607 271.32 214.267C269.61 198.937 267.4 197.077 252.06 196.897C248.46 196.857 244.84 196.807 241.25 197.037C231.23 197.687 227.61 201.347 226.78 211.547C226.6 213.757 226.6 215.977 226.6 218.197C226.63 228.547 230.5 233.387 240.89 235.127C247.44 236.227 254.17 236.227 260.71 237.367C268.85 238.787 277.19 240.037 284.87 242.887C296.31 247.127 303.88 255.897 305.16 268.177C306.36 279.677 307.14 291.497 305.79 302.907C303.69 320.687 292.03 331.487 274.34 334.777C271.37 335.327 268.34 335.617 263.56 336.287Z" fill="url(#paint0_linear_1_10817)"/>
<path d="M60.7802 197.287C84.0002 114.617 159.92 54.0073 250 54.0073C340.08 54.0073 416 114.617 439.22 197.287H494.3C469.89 84.7973 369.8 0.527344 250 0.527344C130.2 0.527344 30.1102 84.7973 5.7002 197.287H60.7802Z" fill="url(#paint1_linear_1_10817)"/>
<path d="M446.52 250.527C446.52 257.847 446.11 265.077 445.33 272.197H499.06C499.67 265.057 500.01 257.827 500.01 250.527C500.01 243.407 499.7 236.357 499.11 229.377H445.4C446.13 236.327 446.52 243.377 446.52 250.527Z" fill="url(#paint2_linear_1_10817)"/>
<path d="M53.48 250.527C53.48 243.377 53.87 236.327 54.62 229.377H0.9C0.31 236.357 0 243.407 0 250.527C0 257.827 0.33 265.057 0.95 272.197H54.68C53.89 265.077 53.48 257.847 53.48 250.527Z" fill="url(#paint3_linear_1_10817)"/>
<path d="M439.08 304.287C415.69 386.687 339.9 447.047 250 447.047C160.1 447.047 84.3103 386.697 60.9203 304.287H5.82031C30.4103 416.517 130.39 500.527 250 500.527C369.61 500.527 469.59 416.517 494.18 304.287H439.08Z" fill="url(#paint4_linear_1_10817)"/>
</g>
<defs>
<linearGradient id="paint0_linear_1_10817" x1="28.1107" y1="456.675" x2="441.909" y2="74.7077" gradientUnits="userSpaceOnUse">
<stop stop-color="#8568C5"/>
<stop offset="1" stop-color="#7C4497"/>
</linearGradient>
<linearGradient id="paint1_linear_1_10817" x1="-14.4045" y1="410.617" x2="399.393" y2="28.6494" gradientUnits="userSpaceOnUse">
<stop stop-color="#8568C5"/>
<stop offset="1" stop-color="#7C4497"/>
</linearGradient>
<linearGradient id="paint2_linear_1_10817" x1="129.815" y1="566.855" x2="543.613" y2="184.887" gradientUnits="userSpaceOnUse">
<stop stop-color="#8568C5"/>
<stop offset="1" stop-color="#7C4497"/>
</linearGradient>
<linearGradient id="paint3_linear_1_10817" x1="-74.6538" y1="345.347" x2="339.144" y2="-36.6207" gradientUnits="userSpaceOnUse">
<stop stop-color="#8568C5"/>
<stop offset="1" stop-color="#7C4497"/>
</linearGradient>
<linearGradient id="paint4_linear_1_10817" x1="69.4596" y1="501.469" x2="483.258" y2="119.502" gradientUnits="userSpaceOnUse">
<stop stop-color="#8568C5"/>
<stop offset="1" stop-color="#7C4497"/>
</linearGradient>
<clipPath id="clip0_1_10817">
<rect width="500" height="500" fill="white" transform="translate(0 0.527344)"/>
</clipPath>
</defs>
</svg>
