<svg width="500" height="501" viewBox="0 0 500 501" fill="none" xmlns="http://www.w3.org/2000/svg">
<path fill-rule="evenodd" clip-rule="evenodd" d="M91.5002 35.2273L0.400224 226.727C-0.299776 228.227 0.000224471 229.927 1.20022 231.027L247.4 466.927C248.9 468.327 251.1 468.327 252.6 466.927L498.8 231.027C500 229.927 500.3 228.127 499.6 226.727L408.5 35.2273C407.9 33.9273 406.6 33.0273 405.1 33.0273H94.9002C93.5002 33.0273 92.2002 33.8273 91.5002 35.2273Z" fill="#50AF95"/>
<path fill-rule="evenodd" clip-rule="evenodd" d="M281.6 246.327C279.8 246.427 270.7 247.027 250.3 247.027C234.1 247.027 222.6 246.527 218.6 246.327C156 243.527 109.2 232.627 109.2 219.627C109.2 206.527 155.9 195.727 218.6 192.927V235.527C222.7 235.827 234.4 236.527 250.6 236.527C270 236.527 279.8 235.727 281.5 235.527V192.927C344 195.727 390.6 206.627 390.6 219.627C390.6 232.627 344.1 243.527 281.6 246.327ZM281.6 188.527V150.427H368.8V92.3271H131.4V150.427H218.6V188.527C147.7 191.827 94.4004 205.827 94.4004 222.627C94.4004 239.427 147.7 253.427 218.6 256.727V378.827H281.6V256.727C352.3 253.427 405.5 239.427 405.5 222.627C405.5 205.827 352.4 191.827 281.6 188.527Z" fill="white"/>
</svg>
