<svg width="500" height="501" viewBox="0 0 500 501" fill="none" xmlns="http://www.w3.org/2000/svg">
<g clip-path="url(#clip0_1_10826)">
<path d="M250 500.527C388.071 500.527 500 388.599 500 250.527C500 112.456 388.071 0.527344 250 0.527344C111.929 0.527344 0 112.456 0 250.527C0 388.599 111.929 500.527 250 500.527Z" fill="#FFAA1D"/>
<path d="M250 462.027C366.808 462.027 461.5 367.336 461.5 250.527C461.5 133.719 366.808 39.0273 250 39.0273C133.192 39.0273 38.5 133.719 38.5 250.527C38.5 367.336 133.192 462.027 250 462.027Z" fill="#242A47"/>
<path d="M250 423.628C345.601 423.628 423.1 346.128 423.1 250.528C423.1 154.927 345.601 77.4277 250 77.4277C154.4 77.4277 76.9004 154.927 76.9004 250.528C76.9004 346.128 154.4 423.628 250 423.628Z" fill="white"/>
<path d="M264.6 371.627H240.5V344.227C223.9 342.227 205.2 334.827 192.3 323.027L208.1 298.927C221.5 309.427 234.4 315.527 248.4 315.527C265.5 315.527 273.4 307.827 273.4 294.027C273.4 261.227 199.2 264.027 199.2 213.027C199.2 186.527 215 168.127 240.6 163.327V135.127H264.7V162.927C282.2 165.327 294.7 174.127 305.2 185.027L287.2 205.627C277.1 196.427 268.4 191.127 255.9 191.127C241.4 191.127 233.6 197.927 233.6 211.227C233.6 241.427 307.8 236.827 307.8 291.327C307.6 318.027 292.7 337.927 264.7 343.227L264.6 371.627Z" fill="#242A47"/>
</g>
<defs>
<clipPath id="clip0_1_10826">
<rect width="500" height="500" fill="white" transform="translate(0 0.527344)"/>
</clipPath>
</defs>
</svg>
