<svg width="500" height="501" viewBox="0 0 500 501" fill="none" xmlns="http://www.w3.org/2000/svg">
<path d="M249.5 497.927C386.356 497.927 497.3 386.983 497.3 250.127C497.3 113.271 386.356 2.32715 249.5 2.32715C112.644 2.32715 1.7002 113.271 1.7002 250.127C1.7002 386.983 112.644 497.927 249.5 497.927Z" fill="#172956"/>
<path d="M314.9 215.128C316.1 207.028 319.1 204.528 327.3 204.428C342 204.428 356.7 204.328 371.4 204.428C378.7 204.528 383.2 208.928 382.3 215.628C376.9 252.828 372.8 290.328 365.4 327.128C357.2 368.128 335.3 401.128 298.6 423.028C277.9 435.328 253.8 441.428 217.6 441.428C187.3 440.828 153 427.128 130.2 391.728C113.2 365.328 110.8 336.128 115.1 305.728C125 237.028 134.8 168.228 144.5 99.4277C145.9 89.5277 149.2 86.5277 159.1 86.4277C173.4 86.4277 187.6 86.4277 201.9 86.4277C210.6 86.4277 213.4 89.6277 212.1 98.4277C204.3 153.528 182.3 303.728 182 323.928C181.4 361.728 205.8 379.328 244.2 374.028C273.3 370.028 292.8 350.828 299.3 318.728" fill="white"/>
<path d="M358.3 158.527C350.9 158.527 343.4 158.627 336 158.527C327.9 158.327 323.8 153.727 324.9 145.727C327.1 129.327 329.5 112.927 332 96.6271C333 89.7271 336.8 86.5271 343.8 86.5271C359.1 86.4271 374.4 86.4271 389.7 86.5271C396.8 86.5271 400.1 89.9271 399.2 97.0271C397 114.627 394.4 132.227 391.7 149.827C390.8 155.927 386.5 158.527 380.6 158.527C373.1 158.627 365.7 158.527 358.3 158.527Z" fill="white"/>
</svg>
