<svg width="500" height="501" viewBox="0 0 500 501" fill="none" xmlns="http://www.w3.org/2000/svg">
<g clip-path="url(#clip0_1_10837)">
<path d="M480.4 153.527C456.4 96.4274 411.9 50.2274 355.7 24.0274C299.6 -2.27263 235.7 -6.67263 176.4 11.6274C117.2 29.8274 66.8 69.4274 35.1 122.727C3.39996 176.027 -7.30004 239.227 4.89996 299.927C17.2 360.727 51.6 414.727 101.4 451.627C151.2 488.527 213 505.427 274.7 499.327C336.4 493.127 393.6 464.327 435.2 418.327C476.8 372.327 499.9 312.627 499.9 250.627C500 217.227 493.4 184.227 480.4 153.527ZM487.4 250.627C487.4 265.727 486 280.727 483.1 295.527H402.8L257 149.627V13.9274C384.8 17.3274 487.4 121.927 487.4 250.627ZM244.5 13.9274V149.627L98.6 295.527H18.3C15.5 280.727 14 265.627 14 250.627C14.1 121.927 116.6 17.3274 244.5 13.9274ZM250.7 487.227C139.8 487.227 46.8 411.027 21.1 308.127H103.8L250.7 161.227L397.6 308.127H480.3C454.7 411.027 361.6 487.227 250.7 487.227Z" fill="#231F20"/>
</g>
<defs>
<clipPath id="clip0_1_10837">
<rect width="500" height="500" fill="white" transform="translate(0 0.527344)"/>
</clipPath>
</defs>
</svg>
