<svg width="500" height="501" viewBox="0 0 500 501" fill="none" xmlns="http://www.w3.org/2000/svg">
<path fill-rule="evenodd" clip-rule="evenodd" d="M125.6 68.5273L233.5 176.327C237.5 180.327 237.5 186.827 233.5 190.827L125.5 298.727C121.5 302.727 115 302.727 110.9 298.727L3 190.927C-1 186.927 -1 180.427 3 176.427L111 68.5273C115.1 64.5273 121.6 64.5273 125.6 68.5273ZM257.3 202.327L365.2 310.127C369.2 314.127 369.2 320.627 365.2 324.627L257.2 432.527C253.2 436.527 246.7 436.527 242.6 432.527L134.8 324.727C130.8 320.727 130.8 314.227 134.8 310.227L242.8 202.327C246.8 198.327 253.3 198.327 257.3 202.327ZM389.1 68.5273L497 176.327C501 180.327 501 186.827 497 190.827L389 298.727C385 302.727 378.5 302.727 374.4 298.727L266.5 190.927C262.5 186.927 262.5 180.427 266.5 176.427L374.5 68.5273C378.5 64.5273 385.1 64.5273 389.1 68.5273Z" fill="#0023EF"/>
</svg>
