<svg width="500" height="501" viewBox="0 0 500 501" fill="none" xmlns="http://www.w3.org/2000/svg">
<g clip-path="url(#clip0_1_10860)">
<path d="M457.8 383.928C457.5 384.128 457.2 384.428 456.8 384.628C456.5 384.828 456.2 385.128 455.8 385.328C455.2 385.728 454.5 386.228 453.9 386.628C453.8 386.628 453.7 386.728 453.7 386.828C453.2 387.128 452.6 387.528 452.1 387.828C451.3 388.328 450.5 388.728 449.7 389.228C444.2 392.328 438.3 394.828 432.4 397.028C426.8 399.128 421.1 400.928 415.4 402.528C407.2 404.828 398.9 406.728 390.5 408.428C382.4 410.028 374.2 411.428 366 412.628C357.8 413.828 349.6 414.828 341.3 415.728C338.6 416.028 335.9 416.228 333.2 416.528C327.8 417.028 322.3 417.428 316.9 417.828C314.2 418.028 311.5 418.128 308.8 418.328C302.7 418.628 296.6 418.928 290.5 419.128C289.4 419.128 288.3 419.228 287.2 419.228C286.2 419.228 285.2 419.328 284.1 419.328C286.6 416.228 289.1 413.128 291.4 409.928C291.7 409.528 292.1 409.128 292.4 408.728C297.6 401.828 302.5 394.728 307.2 387.528C307.7 387.528 308.2 387.528 308.6 387.428C311.6 387.228 314.6 387.028 317.6 386.828C319.9 386.628 322.1 386.528 324.4 386.328C340.3 385.128 356 383.328 371.8 380.928C376.4 380.228 380.9 379.428 385.5 378.628C396.1 376.628 406.6 374.328 417 371.328C419.3 370.728 421.5 370.028 423.8 369.328C424.9 368.928 426.1 368.628 427.2 368.228C428.9 368.528 430.5 369.228 432.1 369.828C433.5 370.328 434.9 370.928 436.3 371.428C440.3 373.028 444.2 374.728 448 376.728C449.5 377.528 451 378.328 452.4 379.228C454.3 380.428 456.2 381.628 457.9 383.028C458.4 383.428 458.6 383.628 458.4 383.828C458.1 383.628 458 383.728 457.8 383.928Z" fill="#F1ECE2"/>
<path d="M310.8 456.928C310.5 457.128 310.1 457.128 309.8 457.028C309.9 456.928 310 456.928 310 456.928C310.1 456.928 310.3 456.928 310.4 456.928C310.6 456.828 310.7 456.828 310.8 456.928Z" fill="#5E93FF"/>
<path d="M309.5 457.027C309.1 457.227 308.7 457.227 308.2 457.127C308.6 456.827 309 456.827 309.5 457.027Z" fill="#5E93FF"/>
<path d="M307.9 457.128C307.5 457.328 307.1 457.328 306.6 457.228C307 456.928 307.4 456.928 307.9 457.128Z" fill="#5E93FF"/>
<path d="M306.3 457.127C305.9 457.327 305.5 457.327 305.1 457.227C305.5 457.027 305.9 457.027 306.3 457.127Z" fill="#5E93FF"/>
<path d="M303.8 457.127C304.1 457.027 304.4 457.127 304.6 457.227C304.2 457.427 303.8 457.427 303.3 457.327C303.5 457.227 303.7 457.127 303.8 457.127Z" fill="#5E93FF"/>
<path d="M302.4 457.127C302.6 457.127 302.8 457.127 303 457.227C302.6 457.427 302.2 457.427 301.8 457.327C302 457.227 302.2 457.127 302.4 457.127Z" fill="#5E93FF"/>
<path d="M301.2 457.327C301.3 457.327 301.4 457.327 301.5 457.427C301.1 457.627 300.7 457.627 300.3 457.527C300.5 457.227 300.8 457.227 301.2 457.327C301.1 457.327 301.1 457.327 301.2 457.327Z" fill="#5E93FF"/>
<path d="M299.8 457.427C299.3 457.627 298.8 457.627 298.3 457.527C298.8 457.227 299.3 457.327 299.8 457.427Z" fill="#5E93FF"/>
<path d="M298 457.527C297.6 457.727 297.2 457.727 296.8 457.627C297.1 457.327 297.6 457.327 298 457.527Z" fill="#5E93FF"/>
<path d="M404 361.027C404.2 361.027 404.4 361.027 404.6 361.127C404.9 361.127 405.1 361.227 405.4 361.427C404.8 361.427 404.3 361.227 403.8 361.027C403.9 360.927 403.9 360.927 404 361.027Z" fill="#5E93FF"/>
<path d="M173.8 494.327C173.8 494.427 173.9 494.527 173.9 494.627H165.5C165.5 494.527 165.6 494.427 165.6 494.327C166.3 494.327 167 494.327 167.6 494.327C169.8 494.327 171.8 494.327 173.8 494.327Z" fill="#3180F4"/>
<path d="M427.1 367.827C426 368.227 424.8 368.527 423.7 368.927C421.4 369.627 419.2 370.327 416.9 370.927C406.5 373.927 396 376.227 385.4 378.227C380.9 379.027 376.3 379.827 371.7 380.527C356 383.027 340.2 384.727 324.3 385.927C322 386.127 319.8 386.227 317.5 386.427C314.5 386.627 311.5 386.827 308.5 387.027C308 387.027 307.5 387.027 307.1 387.127C310.3 382.127 313.5 377.127 316.6 372.027C321 364.627 325.2 357.127 329.2 349.627C336.8 350.327 344.5 351.027 352.1 352.027C352.7 352.127 353.2 352.227 353.8 352.327C357.2 352.527 360.6 353.127 364 353.627C368.3 354.227 372.7 354.927 377 355.727C382.8 356.727 388.7 357.827 394.5 359.027C397.6 359.727 400.7 360.427 403.9 361.127C404.4 361.427 404.9 361.527 405.5 361.527C412.2 363.227 418.8 365.027 425.4 367.227C425.9 367.227 426.6 367.327 427.1 367.827Z" fill="#FDBF41"/>
<path d="M204.8 417.027C207.5 417.227 210.2 417.427 212.9 417.627C210.2 417.527 207.5 417.327 204.8 417.027Z" fill="#F1ECE2"/>
<path d="M118.6 477.327C118.4 477.327 118.2 477.227 118.1 477.127H118.2C118.2 477.127 118.2 477.127 118.3 477.127C118.3 477.127 118.3 477.127 118.4 477.127H118.5C118.5 477.227 118.5 477.227 118.6 477.327C118.5 477.227 118.5 477.227 118.6 477.327Z" fill="#404A5A"/>
<path d="M118 477.127C117.8 477.127 117.6 477.127 117.5 476.927C117.5 476.927 117.6 476.927 117.7 476.927C117.8 476.827 117.9 476.927 118 477.127C118 477.027 118 477.027 118 477.127Z" fill="#404A5A"/>
<path d="M117.5 476.827C117.3 476.827 117.1 476.827 117 476.527C117.2 476.527 117.4 476.627 117.5 476.827Z" fill="#404A5A"/>
<path d="M117 476.527C116.8 476.527 116.6 476.627 116.5 476.327C116.7 476.227 116.9 476.327 117 476.527Z" fill="#404A5A"/>
<path d="M114.9 475.228C115.1 475.328 115.2 475.428 115.4 475.528C115.5 475.628 115.6 475.628 115.8 475.728C116 475.828 116.2 475.928 116.3 476.128C116.3 476.228 116.4 476.328 116.4 476.328C115.7 476.228 115.1 476.028 114.5 475.528L114.9 475.228Z" fill="#404A5A"/>
<path d="M163.4 452.428C162.8 452.528 162.2 452.628 161.6 452.728C159.3 453.028 157.1 453.228 154.8 453.228C154 453.228 153.3 453.228 152.5 453.228C151.7 453.228 151 453.228 150.2 453.128C149.9 453.128 149.6 453.028 149.2 453.028C148.9 453.028 148.6 452.928 148.2 452.928C147.8 452.928 147.5 452.728 147.1 452.428C146.2 451.628 145.3 450.728 144.5 449.928C150.8 450.928 157.1 451.728 163.4 452.428Z" fill="#F1ECE2"/>
<path d="M261.8 346.827C257.3 346.827 252.8 346.927 248.3 346.927C240.8 358.527 232.7 369.727 223.9 380.427C222 382.627 220.2 384.827 218.2 387.027C213.4 392.527 208.3 397.827 203 402.927C198.4 407.327 193.6 411.627 188.6 415.627C184.7 418.727 180.7 421.727 176.5 424.527C168.8 429.627 160.7 434.027 152 437.227C147.6 438.827 143.1 440.127 138.4 440.927C138.1 440.927 137.9 441.127 137.6 441.127C137.6 441.227 137.6 441.327 137.7 441.327C137.7 441.327 137.7 441.427 137.8 441.427C138.1 441.927 138.5 442.427 138.8 442.927C139.5 443.927 140.2 444.927 141 445.827C142.1 447.227 143.3 448.627 144.6 449.927C150.9 450.827 157.1 451.627 163.4 452.427C165.1 452.127 166.7 451.827 168.4 451.427C172.2 450.527 175.9 449.327 179.6 447.927C181.4 447.227 183.2 446.427 185 445.627C186.8 444.827 188.5 443.927 190.3 443.027C191.1 442.627 191.8 442.227 192.6 441.827C197.8 438.927 202.8 435.727 207.6 432.327C212.4 428.827 217 425.127 221.4 421.227C222 420.627 222.7 420.127 223.3 419.527C223.8 419.127 224.2 418.727 224.7 418.227C227.6 415.627 230.4 412.927 233.1 410.127C234.2 409.027 235.2 408.027 236.2 406.927C239.6 403.327 243 399.627 246.2 395.927C248.1 393.627 250.1 391.427 251.9 389.027C252.1 388.727 252.4 388.427 252.6 388.227C253.9 386.627 255.2 385.027 256.4 383.327C260.4 378.227 264.2 372.927 267.9 367.627C269.9 364.727 271.8 361.827 273.8 358.827C274.9 357.127 275.9 355.527 277 353.827C278.4 351.527 279.8 349.227 281.2 346.927C274.7 346.827 268.3 346.827 261.8 346.827Z" fill="#F1ECE2"/>
<path d="M90.4 464.728C90.2 464.728 90 464.728 89.9 464.528C90.1 464.428 90.3 464.528 90.4 464.728Z" fill="#C18B00"/>
<path d="M223.6 347.728C220.4 347.928 217.2 348.028 214 348.228C210.5 353.228 206.8 358.128 203 362.928C199.3 367.628 195.4 372.228 191.4 376.728C189.1 379.228 186.8 381.828 184.5 384.228C182.8 386.028 181.1 387.728 179.4 389.428C172.5 396.228 165.3 402.528 157.5 408.328C156.2 409.328 154.9 410.228 153.6 411.128C149.2 414.128 144.7 416.928 140 419.528C136.6 421.328 133.1 423.028 129.5 424.528C129.5 424.728 129.5 424.828 129.6 425.028C130.1 426.428 130.6 427.728 131.2 429.128C131.8 430.428 132.4 431.828 133 433.128C134.3 435.728 135.7 438.228 137.2 440.728C137.3 440.928 137.5 441.028 137.6 441.128C137.9 441.028 138.1 440.928 138.4 440.928C143 440.128 147.5 438.828 152 437.228C160.7 434.028 168.8 429.628 176.5 424.528C180.7 421.728 184.7 418.828 188.6 415.628C193.6 411.628 198.4 407.328 203 402.928C208.3 397.828 213.3 392.528 218.2 387.028C220.1 384.828 222 382.628 223.9 380.428C232.7 369.728 240.8 358.528 248.3 346.928C240.1 347.128 231.8 347.328 223.6 347.728Z" fill="#FDBF41"/>
<path d="M385.3 224.027C385.6 224.027 385.8 224.027 385.7 223.627C385.8 223.627 385.9 223.627 386.1 223.627C386 223.627 386 223.627 385.9 223.627C385.8 223.727 385.8 223.827 385.8 224.027C385.6 224.127 385.5 224.127 385.3 224.027C385.2 224.127 385.1 224.127 385 224.127C384.8 224.127 384.6 224.127 384.4 224.027C383.9 223.927 383.5 223.827 383 223.727C383.8 223.727 384.6 223.927 385.3 224.027Z" fill="#E7AA24"/>
<path d="M150.8 379.828C151.1 379.928 151.4 379.928 151.8 380.028C145.5 386.128 138.9 391.828 131.8 397.028C129.2 398.928 126.7 400.828 123.9 402.428C123.4 400.228 123.2 397.928 122.9 395.628C122 388.428 121.7 381.128 121.7 373.928C123.5 374.328 125.2 374.728 127 375.128C132.2 376.328 137.3 377.328 142.5 378.328C145.2 378.828 148 379.328 150.8 379.828Z" fill="#F1ECE2"/>
<path d="M179.7 351.227C179 351.327 178.2 351.427 177.4 351.427C170 360.927 162 369.927 153.4 378.327C152.9 378.827 152.3 379.427 151.8 379.927C145.5 386.027 138.9 391.727 131.8 396.927C129.2 398.827 126.7 400.727 123.9 402.327C123.9 402.627 123.9 402.927 124 403.227C124 403.327 124 403.427 124 403.527C124.1 403.827 124.1 404.227 124.2 404.527C124.2 404.827 124.3 405.127 124.4 405.327C124.5 406.027 124.7 406.727 124.8 407.427C125.6 411.427 126.6 415.327 127.7 419.227C128.2 420.927 128.7 422.727 129.6 424.427C133.2 422.927 136.7 421.327 140.1 419.427C144.8 416.927 149.3 414.027 153.7 411.027C155 410.127 156.3 409.227 157.6 408.227C165.4 402.527 172.6 396.127 179.5 389.327C181.2 387.627 182.9 385.927 184.6 384.127C187 381.627 189.3 379.127 191.5 376.627C195.5 372.127 199.3 367.527 203.1 362.827C206.9 358.027 210.6 353.127 214.1 348.127C202.6 349.027 191.1 349.927 179.7 351.227Z" fill="#FF1100"/>
<path d="M152.5 380.127C152.2 380.127 152 380.027 151.7 380.027C152 380.027 152.3 380.027 152.5 380.127Z" fill="#F1ECE2"/>
<path d="M151.8 379.928C151.5 379.928 151.2 379.828 150.8 379.728L151.8 379.928Z" fill="#FF1100"/>
<path d="M172.5 352.128C174.1 351.828 175.8 351.628 177.4 351.428C170 360.928 162 369.928 153.4 378.328C152.9 378.828 152.3 379.428 151.8 379.928L150.8 379.728C148 379.228 145.2 378.728 142.4 378.228C137.2 377.228 132 376.228 126.9 375.028C125.1 374.628 123.4 374.228 121.6 373.828C121.6 371.128 121.6 368.328 121.7 365.628C121.7 364.028 121.8 362.428 121.9 360.728C127.9 359.328 133.9 358.028 139.9 356.928C150.2 355.028 160.6 353.428 171 352.128C171.2 352.128 171.3 352.128 171.5 352.028C171.7 352.028 171.9 352.028 172.1 352.028C172.3 352.128 172.4 352.128 172.5 352.128Z" fill="#FDBF41"/>
<path d="M356.4 220.027C362.4 220.727 368.4 221.527 374.5 222.227C374.5 222.327 374.4 222.327 374.4 222.427C370.7 221.927 366.9 221.527 363.2 221.027C362.1 220.927 361 220.827 359.9 220.727C358.8 220.627 357.7 220.527 356.7 220.227C356.5 220.127 356.4 220.127 356.4 220.027Z" fill="#007FFF"/>
<path d="M326.9 238.727C327.1 237.927 327.3 237.027 327.6 236.127C327.3 237.027 327.1 237.827 326.9 238.727Z" fill="#F1ECE2"/>
<path d="M499.8 359.627C499.8 351.327 499.8 343.027 499.8 334.827C499.3 332.527 498.5 330.227 497.3 328.227C495.2 324.927 492.8 322.027 489.7 319.627C486.5 317.127 483.2 314.827 479.6 312.827C474.7 310.127 469.6 307.827 464.5 305.527C463.6 305.127 462.7 304.927 461.7 304.527C450.2 300.027 438.3 296.627 426.3 293.727C418.6 291.827 410.9 290.227 403.1 288.827C394.4 287.227 385.6 285.827 376.8 284.627C370.7 283.827 364.7 283.027 358.6 282.327C355.9 282.027 353.2 281.727 350.5 281.427C342.9 280.727 335.2 280.027 327.5 279.427C323 279.127 318.4 278.827 313.9 278.527C310.1 278.327 306.2 278.127 302.4 277.927C296.3 277.627 290.3 277.427 284.2 277.327C283.8 277.327 283.3 277.327 282.9 277.327C273.3 277.127 263.8 277.027 254.2 277.127C254 277.127 253.9 277.127 253.7 277.127C243.8 277.227 234 277.427 224.2 277.827C223.6 277.827 223 277.927 222.4 277.927C210.7 278.427 199.1 279.127 187.5 280.127C170.4 281.527 153.4 283.527 136.5 286.127C136.1 286.227 135.7 286.227 135.3 286.327C134.7 288.627 134.1 290.927 133.2 293.227C132.6 295.527 132.1 297.827 131.5 300.127C129.9 306.227 128.5 312.327 127.3 318.527C128.2 318.327 129 318.227 129.9 318.127C131 317.927 132.2 317.727 133.3 317.527C135 317.227 136.7 317.027 138.3 316.727C144.4 315.827 150.5 314.927 156.5 314.127C162.6 313.327 168.7 312.627 174.8 312.027C178.9 311.627 182.9 311.227 187 310.927C193.2 310.427 199.3 309.927 205.5 309.627C211.3 309.227 217.1 309.027 223 308.727C224.5 308.627 226 308.627 227.5 308.527C229.7 308.427 232 308.327 234.2 308.327C235.6 308.327 237.1 308.227 238.5 308.227C243.7 308.127 249 308.027 254.2 307.927C256.2 307.927 258.1 307.927 260.1 307.927C263.5 307.927 266.9 307.927 270.2 307.927C271.4 307.927 272.6 307.927 273.9 307.927C275.2 307.927 276.5 307.927 277.8 307.927C281.4 308.027 284.9 308.127 288.5 308.227C292.1 308.327 295.6 308.427 299.2 308.627C299.8 308.627 300.4 308.727 301 308.727C304.8 308.927 308.7 309.127 312.5 309.327C315.4 309.527 318.4 309.627 321.3 309.827C325.7 310.127 330.1 310.427 334.6 310.827C338.7 311.127 342.7 311.527 346.8 311.927C346.9 311.927 347.1 311.927 347.2 311.927C350.1 312.227 353 312.527 356 312.827C360.7 313.327 365.3 313.827 370 314.427C374.7 315.027 379.3 315.727 384 316.427C385.9 316.727 387.9 317.027 389.8 317.327C395.6 318.227 401.4 319.327 407.1 320.427C410.5 321.127 413.9 321.827 417.2 322.527C420.6 323.227 423.9 324.027 427.3 324.827C432.4 326.127 437.5 327.427 442.5 328.927C449.2 330.927 455.8 333.127 462.3 335.727C463.9 336.327 465.5 337.027 467.2 337.727C469.6 338.827 472.1 339.927 474.4 341.127C475 341.427 475.6 341.727 476.2 342.027C476.7 342.227 477.1 342.527 477.6 342.727C478.2 343.027 478.8 343.327 479.4 343.627C480.2 344.027 480.9 344.427 481.6 344.927C484.3 346.827 487.1 348.527 489.6 350.627C490.2 351.127 490.7 351.627 491.3 352.127C491.9 352.627 492.6 353.227 493.2 353.827C494.2 354.827 495.1 355.827 495.9 356.927C496.3 357.427 496.7 358.027 497 358.627C497.3 359.127 497.6 359.627 497.8 360.127C498 360.627 498.3 361.127 498.5 361.727C498.7 362.227 498.9 362.827 499.1 363.427C499.2 363.827 499.4 364.227 499.5 364.627C499.9 362.927 499.7 361.227 499.8 359.627Z" fill="#F1ECE2"/>
<path d="M499.9 331.527C499.9 325.227 499.9 319.027 499.9 312.727C499.9 309.827 499.9 306.927 499.9 304.027C499.4 302.427 499.1 300.727 498.3 299.127C496.4 295.227 493.6 292.027 490.3 289.227C486.7 286.127 482.8 283.627 478.6 281.327C472.6 278.027 466.4 275.227 459.9 272.827C452.5 270.027 444.9 267.627 437.3 265.527C431.5 263.927 425.6 262.427 419.7 261.127C413 259.627 406.2 258.227 399.4 257.027C392.4 255.827 385.3 254.627 378.2 253.627C374.8 253.127 371.5 252.727 368.1 252.327C360.6 251.327 353 250.527 345.5 249.827C344.1 249.727 342.7 249.527 341.3 249.427C335.6 249.027 329.9 248.527 324.2 248.127C323.4 248.027 322.6 248.027 321.8 247.927C318 247.627 314.2 247.427 310.4 247.227C305.4 247.027 300.5 246.827 295.5 246.627H295.4C290.2 246.427 285 246.227 279.9 246.127C275.3 246.027 270.8 246.027 266.2 246.027C264.2 246.027 262.2 246.027 260.2 246.027C252.2 246.027 244.2 246.127 236.2 246.327C236.1 246.327 236 246.327 235.9 246.327C226.5 246.627 217.1 246.927 207.7 247.627C200.5 248.127 193.3 248.527 186.1 249.127C183.2 249.327 180.3 249.727 177.4 250.027C167.3 251.027 157.1 252.227 147.1 253.627C147 253.627 146.9 253.627 146.8 253.627C142.8 264.027 139.1 274.627 135.9 285.427C135.8 285.727 135.7 285.927 135.7 286.227C136.1 286.127 136.5 286.127 136.9 286.027C153.8 283.327 170.8 281.427 187.9 280.027C199.5 279.027 211.1 278.327 222.8 277.827C223.4 277.827 224 277.727 224.6 277.727C234.4 277.327 244.3 277.127 254.1 277.027C254.3 277.027 254.4 277.027 254.6 277.027C264.2 276.927 273.7 277.027 283.3 277.227C283.7 277.227 284.2 277.227 284.6 277.227C290.7 277.327 296.7 277.527 302.8 277.827C306.7 278.027 310.5 278.227 314.3 278.427C318.8 278.727 323.4 278.927 327.9 279.327C335.6 279.927 343.2 280.527 350.9 281.327C353.6 281.627 356.3 281.927 359 282.227C365.1 282.927 371.1 283.627 377.2 284.527C386 285.727 394.7 287.127 403.5 288.727C411.3 290.227 419 291.827 426.7 293.627C438.7 296.527 450.6 299.927 462.1 304.427C463 304.827 463.9 305.027 464.9 305.427C470 307.727 475.1 310.027 480 312.727C483.6 314.727 486.8 317.027 490.1 319.527C493.2 321.927 495.6 324.827 497.7 328.127C499 330.127 499.7 332.427 500.2 334.727C500 333.627 499.9 332.527 499.9 331.527Z" fill="#FDBF41"/>
<path d="M322.2 94.5271C326.4 101.027 329.4 108.127 331.7 115.427C332.4 117.727 333 120.027 333.6 122.327C334.6 126.227 335.3 130.127 335.9 134.027C336.1 135.127 336.2 136.327 336.4 137.527C336.7 139.827 336.9 142.127 337.2 144.427C337.3 145.627 337.4 146.727 337.5 147.927C337.9 154.227 338.1 160.527 337.9 166.927C337.7 173.527 337.3 180.127 336.7 186.727C336 193.327 335.1 199.827 334 206.327C333.4 210.227 332.6 214.127 331.8 217.927C325.5 217.427 319.3 217.027 313 216.727C310 216.627 307 216.427 303.9 216.227C305.9 207.427 307.7 198.627 309 189.727C310.5 179.827 311.5 169.927 311.9 160.027C312.2 151.527 312.2 143.127 311.5 134.627C310.9 127.527 310 120.627 308.5 113.627C306.8 105.827 304.4 98.3271 300.9 91.0271C299.5 88.1271 297.9 85.4271 296.3 82.7271C297.6 82.3271 299 82.2271 300.3 82.1271C301 82.0271 301.7 82.0271 302.4 81.9271C303 81.9271 303.6 81.8271 304.2 81.8271C305.2 81.8271 306.2 81.8271 307.1 81.8271C307.8 81.8271 308.5 81.8271 309.2 81.9271C309.7 81.9271 310.3 82.0271 310.8 82.0271C310.9 82.0271 311 82.0271 311.1 82.0271C311.3 82.0271 311.4 82.1271 311.6 82.1271C311.8 82.2271 311.9 82.2271 312 82.3271C312.2 82.4271 312.4 82.6271 312.6 82.8271C313.1 83.2271 313.5 83.7271 314 84.1271C314.9 85.0271 315.8 85.9271 316.6 86.8271C318.7 89.4271 320.5 91.8271 322.2 94.5271Z" fill="#F1ECE2"/>
<path d="M308.5 113.727C310 120.627 311 127.627 311.5 134.727C312.2 143.227 312.2 151.627 311.9 160.127C311.5 170.127 310.5 180.027 309 189.827C307.7 198.727 305.9 207.627 303.9 216.327C301.6 216.227 299.3 216.127 297 216.027C291.8 215.827 286.6 215.727 281.3 215.627C279.4 215.627 277.4 215.527 275.5 215.527C277.4 208.327 279.1 201.127 280.5 193.827C281.6 188.327 282.5 182.927 283.4 177.427C283.9 173.727 284.4 170.027 284.9 166.327C285.3 162.427 285.7 158.527 285.9 154.627C286.2 150.427 286.3 146.327 286.4 142.127C286.5 136.527 286.3 131.027 285.9 125.427C285.6 121.727 285.3 118.127 284.8 114.427C284.2 109.427 283.3 104.527 282.1 99.6271C281.1 95.7271 280.1 91.8271 278.6 88.0271C279.6 87.4271 280.7 87.0271 281.8 86.6271C284 85.8271 286.3 85.0271 288.6 84.4271C290.9 83.8271 293.2 83.3271 295.6 82.9271C295.8 82.9271 295.9 82.8271 296.1 82.8271C296.2 82.8271 296.3 82.8271 296.4 82.8271C298 85.5271 299.6 88.2271 301 91.1271C304.4 98.3271 306.8 105.927 308.5 113.727Z" fill="#FDBF41"/>
<path d="M374.2 100.927C374.1 100.827 374.1 100.827 374.1 100.827L374.2 100.927Z" fill="#3180F4"/>
<path d="M499.8 394.427C499.8 394.027 499.8 393.627 499.8 393.227C499.8 386.727 499.8 380.227 499.8 373.827C499.8 371.027 499.8 368.227 499.7 365.427C499.7 365.227 499.8 365.127 499.8 364.927C499.8 364.827 499.7 364.727 499.6 364.627C499.5 364.227 499.3 363.827 499.2 363.427C499 362.827 498.8 362.327 498.6 361.727C498.4 361.227 498.1 360.627 497.9 360.127C497.6 359.627 497.4 359.127 497.1 358.627C496.8 358.027 496.4 357.527 496 356.927C495.2 355.827 494.3 354.727 493.3 353.827C492.7 353.227 492.1 352.627 491.4 352.127C490.9 351.627 490.3 351.127 489.7 350.627C487.2 348.527 484.4 346.727 481.7 344.927C481 344.427 480.2 344.027 479.5 343.627C478.9 343.327 478.3 343.027 477.7 342.727C477.2 342.527 476.8 342.227 476.3 342.027C475.7 341.727 475.1 341.427 474.5 341.127C472.1 339.927 469.7 338.827 467.3 337.727C465.7 337.027 464.1 336.327 462.4 335.727C455.9 333.127 449.3 330.927 442.6 328.927C437.6 327.427 432.5 326.127 427.4 324.827C424 324.027 420.7 323.227 417.3 322.527C413.9 321.827 410.6 321.127 407.2 320.427C401.4 319.327 395.7 318.227 389.9 317.327C388 317.027 386 316.727 384.1 316.427C379.4 315.727 374.8 315.027 370.1 314.427C365.4 313.827 360.8 313.227 356.1 312.827C353.2 312.527 350.3 312.227 347.3 311.927C347.2 311.927 347 311.927 346.9 311.927C342.8 311.527 338.8 311.127 334.7 310.827C330.3 310.427 325.9 310.127 321.4 309.827C318.5 309.627 315.5 309.427 312.6 309.327C308.8 309.127 304.9 308.927 301.1 308.727C300.5 308.727 299.9 308.627 299.3 308.627C295.7 308.427 292.2 308.327 288.6 308.227C285 308.127 281.5 308.027 277.9 307.927C276.6 307.927 275.3 307.927 274 307.927C272.8 307.927 271.6 307.927 270.3 307.927C266.9 307.927 263.5 307.927 260.2 307.927C258.2 307.927 256.2 307.927 254.3 307.927C249.1 307.927 243.8 308.027 238.6 308.227C237.2 308.227 235.7 308.327 234.3 308.327C232.1 308.427 229.8 308.427 227.6 308.527C226.1 308.627 224.6 308.627 223.1 308.727C217.3 308.927 211.5 309.227 205.6 309.627C199.4 310.027 193.2 310.427 187.1 310.927C183 311.227 178.9 311.627 174.9 312.027C168.8 312.627 162.7 313.327 156.6 314.127C150.5 314.927 144.4 315.727 138.4 316.727C136.7 317.027 135 317.227 133.4 317.527C132.3 317.727 131.1 317.927 130 318.127C129.1 318.327 128.3 318.427 127.4 318.527C128.6 312.327 130 306.227 131.6 300.127C132.2 297.827 132.8 295.527 133.3 293.227C134.1 290.927 134.7 288.627 135.4 286.327C135.5 286.027 135.6 285.827 135.6 285.527C138.8 274.827 142.4 264.227 146.5 253.727C149.1 247.127 151.8 240.527 154.7 234.027C156.6 229.627 158.6 225.327 160.7 221.027C167.5 206.827 175.1 193.127 183.6 179.827C191.5 167.327 200 155.327 209.4 143.927C209.6 143.727 209.7 143.427 209.9 143.227C212.7 140.027 215.5 136.727 218.4 133.527C227.8 123.127 237.9 113.427 249.1 105.027C251.9 102.927 254.7 100.927 257.5 98.9272C257.8 98.7271 258.1 98.7271 258.4 98.7271C258.5 98.3271 258.9 98.1272 259.2 97.9272C265 94.2271 271 90.9271 277.3 88.2271C277.5 88.1271 277.7 88.0271 278 87.9272C278.1 87.9272 278.1 87.9272 278.2 87.9272C278.3 87.9272 278.4 87.9272 278.4 87.9272C279.4 87.3272 280.5 86.9272 281.6 86.5271C283.8 85.7271 286.1 84.9272 288.4 84.3272C290.7 83.7272 293 83.2272 295.4 82.8272C295.6 82.8272 295.7 82.7271 295.9 82.7271C296 82.7271 296.1 82.7271 296.2 82.7271C297.5 82.3271 298.9 82.2271 300.2 82.1271C300.9 82.0271 301.6 82.0271 302.3 81.9272C302.9 81.9272 303.5 81.8272 304.1 81.8272C305.1 81.8272 306.1 81.8272 307 81.8272C307.7 81.8272 308.4 81.8272 309.1 81.9272C309.6 81.9272 310.2 82.0271 310.7 82.0271C310.8 82.0271 310.9 82.0271 311 82.0271C311.2 82.0271 311.3 82.1271 311.5 82.1271C311.7 82.2271 311.8 82.2272 311.9 82.3272C312.1 82.4272 312.3 82.6272 312.5 82.8272C313 83.2272 313.4 83.7271 313.9 84.1271C314.8 85.0271 315.7 85.9272 316.5 86.8272C318.6 89.1272 320.4 91.6272 322.1 94.3272C326.3 100.827 329.3 107.927 331.6 115.227C332.3 117.527 332.9 119.827 333.5 122.127C334.5 126.027 335.2 129.927 335.8 133.827C336 134.927 336.1 136.127 336.3 137.327C336.6 139.627 336.8 141.927 337.1 144.227C337.2 145.427 337.3 146.527 337.4 147.727C337.8 154.027 338 160.327 337.8 166.727C337.6 173.327 337.2 179.927 336.6 186.527C335.9 193.127 335 199.627 333.9 206.127C333.3 210.027 332.5 213.927 331.7 217.727C332.7 217.827 333.7 217.927 334.7 217.927C342 218.527 349.2 219.227 356.5 219.927C356.4 219.827 356.4 219.827 356.3 219.727C362.3 220.427 368.3 221.227 374.4 221.927C374.4 222.027 374.3 222.027 374.3 222.127C374.7 222.127 375 222.227 375.4 222.327C376.6 216.327 377.7 210.427 378.6 204.427C379.4 199.027 380.1 193.627 380.7 188.227C381.2 183.127 381.7 178.127 381.9 173.027C382 170.627 382.2 168.127 382.3 165.627C382.3 165.327 382.1 164.927 382.6 164.727C382.6 160.127 382.6 155.627 382.6 151.027C382.4 150.927 382.3 150.727 382.3 150.527C382.2 149.627 382.1 148.727 382.1 147.727C381.9 141.127 381.3 134.527 380.4 127.927C379.4 120.627 378 113.527 376 106.427C375.5 104.627 375.1 102.827 374.3 101.227L374.1 100.627C374.1 100.627 374 100.627 374 100.527C374 100.527 374 100.527 374 100.427C374 100.227 373.9 100.027 373.8 99.8272C370.9 91.4272 367.1 83.4271 361.8 76.1271C356.8 69.1271 350.7 63.3272 343.1 58.9272C340.3 57.3272 337.2 56.1271 334.3 54.7271C334 54.6271 333.7 54.6271 333.4 54.5271C333.1 54.2271 332.7 54.1272 332.4 53.9272C325.6 50.9272 318.8 47.9272 312 44.9272C311.1 44.5272 310.3 43.9271 309.3 43.8271C309.1 43.7271 309 43.7271 308.8 43.6271C307.6 43.2271 306.4 43.0272 305.3 42.4272C305.2 42.4272 305.1 42.3271 305 42.3271C305 42.3271 304.9 42.3271 304.8 42.3271C304.7 42.4271 304.6 42.3271 304.5 42.2271C302.3 41.6271 300.1 41.2272 297.9 40.9272C296.3 40.7272 294.7 40.5272 293.1 40.4272C292.6 40.4272 292 40.4271 291.5 40.3271C289.9 40.3271 288.3 40.3271 286.7 40.3271C284.6 40.4271 282.5 40.6272 280.3 40.9272C276.6 41.4272 273 42.2271 269.3 43.2271C268.8 43.4272 268.3 43.5271 267.7 43.7271C260.9 45.7271 254.4 48.5272 248.1 51.7271C246 52.8272 243.9 53.9271 241.9 55.1271C240 56.2271 238.2 57.3272 236.4 58.4272C235.8 58.8272 235.2 59.2271 234.6 59.6271C234 60.0271 233.4 60.4271 232.8 60.8271C231.6 61.6271 230.4 62.4271 229.3 63.3271C228.7 63.7271 228.1 64.1271 227.6 64.6271V64.7271V64.8272C227.6 64.8272 227.5 64.9272 227.4 64.9272V65.0271C227.4 65.1271 227.4 65.1271 227.3 65.1271H227.2C227.2 65.1271 227.2 65.1271 227.1 65.1271C224.5 66.9271 222 68.8271 219.6 70.7271C218.5 71.6271 217.4 72.5272 216.4 73.3272C216.2 73.4272 216.1 73.6271 215.9 73.7271C214.8 74.6271 213.7 75.6271 212.7 76.5271C212.7 76.5271 212.7 76.5271 212.7 76.6271C212.7 76.7271 212.7 76.7272 212.6 76.8272H212.5C212.5 76.9272 212.4 76.9272 212.4 77.0271C212.3 77.1271 212.3 77.1271 212.2 77.2271C212.1 77.3271 212 77.3272 211.9 77.3272C211.9 77.4272 211.9 77.5271 211.8 77.5271C211.7 77.6271 211.5 77.5271 211.4 77.5271C211 77.9272 210.6 78.3272 210.2 78.8272C210.2 78.8272 210.2 78.9272 210.1 78.9272C210.1 78.9272 210.1 78.9272 210.1 79.0271C210.1 79.1271 210.1 79.1271 210 79.1271C210 79.1271 209.9 79.1271 209.8 79.1271C209.4 79.4271 209 79.7271 208.7 80.0271C208.7 80.0271 208.6 80.0271 208.6 80.1271C207.3 81.4271 205.9 82.6272 204.6 83.9272C204.5 84.0271 204.4 84.1271 204.3 84.1271C203.9 84.5271 203.5 84.9272 203 85.3272C201.9 86.3272 200.9 87.2272 199.8 88.3272C199.3 88.9272 198.7 89.4272 198.2 90.0271C195.1 93.2271 191.9 96.4271 188.9 99.7271C185.1 103.927 181.3 108.327 177.7 112.727C177.2 113.327 176.7 114.027 176.1 114.627C176 114.727 175.9 114.827 175.9 114.927C175.8 115.127 175.7 115.227 175.6 115.427C175.5 115.627 175.3 115.827 175.2 116.027C175.1 116.227 175 116.327 174.9 116.427L174.8 116.527C174.6 116.727 174.5 116.827 174.3 117.027V117.127V117.227H174.2C174.1 117.627 173.8 117.827 173.5 118.127C173.4 118.227 173.3 118.327 173.3 118.427C173.3 118.427 173.2 118.527 173.2 118.627C173.2 118.727 173.2 118.727 173.1 118.827C173.1 118.827 173.1 118.827 173.1 118.927C173.1 119.027 173.1 119.027 173 119.127C173 119.127 173 119.127 172.9 119.127C172.9 119.127 172.9 119.127 172.8 119.127C172.1 119.927 171.5 120.827 170.8 121.627L170.7 121.727C170.7 121.827 170.7 121.927 170.7 122.027C170.7 122.127 170.7 122.127 170.6 122.227C170.6 122.227 170.6 122.227 170.6 122.327C170.6 122.327 170.5 122.427 170.4 122.427C170.3 122.427 170.2 122.527 170.1 122.527C170 122.627 169.9 122.727 169.8 122.827L169.7 122.927C169.6 123.027 169.5 123.127 169.5 123.227C167.8 125.527 166.1 127.827 164.4 130.127C164.4 130.227 164.4 130.227 164.3 130.327H164.2C163 132.027 161.8 133.627 160.6 135.327C160.4 135.627 160.1 136.027 159.9 136.327C158.2 138.927 156.5 141.527 154.8 144.027C153.9 145.327 153.1 146.627 152.3 147.927C151.5 149.227 150.6 150.527 149.7 151.727C148.2 153.727 147 155.927 145.7 158.027C145.1 158.927 144.6 159.827 144 160.827C137.8 171.127 131.8 181.527 126.6 192.427C126.3 193.027 126 193.627 125.6 194.227C125.3 194.827 124.9 195.427 124.6 196.027C122.8 199.527 121.1 203.127 119.5 206.627C118.9 207.927 118.3 209.327 117.7 210.627C116.9 212.327 116.1 214.127 115.3 215.827C114.3 218.027 113.3 220.327 112.4 222.527C112 223.427 111.6 224.427 111.2 225.327C110.7 226.527 110.2 227.727 109.7 228.927C108 233.127 106.3 237.327 104.7 241.627C104.2 242.827 103.8 244.127 103.3 245.327C102.2 248.327 101.1 251.327 100.1 254.427C99.8 255.127 99.6 255.927 99.3 256.627C99.1 257.227 98.9 257.727 98.7 258.327C98.2 259.727 97.7 261.227 97.3 262.627C96.7 264.427 96.2 266.127 95.7 267.927C95.3 269.227 94.9 270.427 94.5 271.727C93.6 274.527 92.5 277.327 92.1 280.327C92.1 280.527 91.9 280.627 91.8 280.727C91.3 281.927 91.1 283.227 90.8 284.527C90.6 285.127 90.5 285.727 90.3 286.327C90.1 286.927 89.9 287.527 89.8 288.127C89.1 290.727 88.4 293.327 87.8 295.927C87.2 298.327 86.7 300.627 86.1 303.027C85.5 305.727 84.9 308.427 84.4 311.027C83.9 313.327 83.4 315.727 83 318.127C82.7 320.027 82.3 321.827 82 323.727C81.7 325.327 81.5 327.027 81.2 328.627C80.9 330.727 80.6 332.827 80.3 334.927C80 336.827 79.8 338.727 79.6 340.627C79 345.827 78.5 351.027 78 356.227C77.9 357.727 77.8 359.227 77.7 360.727C77.6 362.227 77.5 363.727 77.5 365.227C77.4 368.227 77.3 371.227 77.2 374.127C77.2 374.827 77.2 375.527 77.2 376.127C77.2 376.327 77.2 376.527 77.2 376.727C77.2 380.527 77.3 384.327 77.5 388.127C77.5 388.327 77.5 388.427 77.5 388.627C77.5 389.327 77.6 390.027 77.6 390.627C77.7 393.427 78 396.127 78.3 398.927C78.5 400.827 78.7 402.627 78.9 404.527C78.9 404.827 79 405.027 79 405.327C79.5 409.127 80.1 412.827 80.8 416.627C82.2 423.627 84 430.427 86.5 437.127C86.5 437.227 86.6 437.327 86.6 437.427C88.5 442.327 90.7 447.127 93.3 451.727C97.7 459.227 103.1 465.927 109.9 471.227C110.7 471.827 111.5 472.427 112.4 473.027C113.2 473.627 114.1 474.127 114.9 474.627C115.1 474.727 115.2 474.827 115.4 474.927C115.5 475.027 115.6 475.027 115.8 475.127C116 475.227 116.2 475.327 116.3 475.527C116.3 475.627 116.4 475.727 116.4 475.727C116.6 475.727 116.8 475.727 116.9 476.027C117.1 476.027 117.3 476.127 117.4 476.327C117.5 476.327 117.5 476.327 117.6 476.327C117.7 476.327 117.9 476.427 117.9 476.527H118C118 476.527 118 476.527 118.1 476.527C118.1 476.527 118.1 476.527 118.2 476.527H118.3L118.4 476.627C118.7 476.927 119.1 477.027 119.4 477.127C126.9 480.427 134.5 483.827 142 487.127C145.7 488.727 149.4 490.527 153.4 491.627C157.3 492.727 161.4 493.427 165.4 493.627C166.1 493.627 166.8 493.627 167.4 493.627C169.4 493.627 171.5 493.627 173.5 493.627C175.5 493.527 177.4 493.327 179.4 493.027C187.3 491.827 195 489.527 202.3 486.327C215.8 480.527 227.9 472.627 239.4 463.527C241.9 461.527 244.4 459.427 246.8 457.327C255.3 457.527 263.7 457.527 272.2 457.427C280.3 457.327 288.4 457.227 296.4 456.927C296.8 456.727 297.2 456.727 297.6 456.827C297.7 456.827 297.8 456.827 298 456.827C298.5 456.627 299 456.627 299.5 456.727H299.9C300.2 456.527 300.5 456.527 300.8 456.527C300.9 456.527 301 456.627 301.1 456.627H301.5C301.7 456.527 301.9 456.427 302.1 456.427C302.3 456.427 302.5 456.427 302.7 456.527C302.8 456.527 302.9 456.527 303.1 456.527C303.2 456.427 303.4 456.427 303.5 456.327C303.8 456.227 304.1 456.327 304.3 456.427C304.4 456.427 304.5 456.427 304.6 456.427C305 456.227 305.4 456.227 305.8 456.427C305.9 456.427 306 456.427 306.1 456.427C306.5 456.127 306.9 456.227 307.4 456.327C307.5 456.327 307.6 456.327 307.7 456.327C308.1 456.127 308.5 456.127 309 456.227C309.1 456.227 309.2 456.227 309.3 456.227C309.4 456.127 309.5 456.127 309.5 456.127C309.6 456.127 309.8 456.127 309.9 456.127C310 456.127 310.2 456.127 310.3 456.227C312.1 456.127 314 456.027 315.8 455.927C329.9 455.127 344 454.027 358 452.427C379.3 450.027 400.5 446.827 421.5 442.127C435.8 438.927 449.8 435.027 463.4 429.527C470.7 426.627 477.8 423.227 484.3 418.827C488.2 416.127 491.9 413.127 494.8 409.327C496.6 406.927 498.1 404.327 498.7 401.227C498.9 401.027 499 400.727 499 400.427C499.1 398.227 499.2 396.027 499 393.827L499.8 394.427ZM310.3 348.227C306.4 348.027 302.5 347.727 298.5 347.627C302.5 347.827 306.4 348.027 310.3 348.227ZM223.1 419.627C222.5 420.227 221.8 420.727 221.2 421.327C216.7 425.227 212.1 428.927 207.4 432.427C202.6 435.827 197.6 439.127 192.4 441.927C191.7 442.327 190.9 442.727 190.1 443.127C188.4 444.027 186.6 444.927 184.8 445.727C183 446.527 181.2 447.327 179.4 448.027C175.8 449.427 172.1 450.627 168.2 451.527C166.5 451.927 164.9 452.227 163.2 452.527C162.6 452.627 162 452.727 161.4 452.827C159.1 453.127 156.9 453.327 154.6 453.327C153.8 453.327 153.1 453.327 152.3 453.327C151.5 453.327 150.8 453.327 150 453.227C149.7 453.227 149.3 453.127 149 453.127C148.7 453.127 148.4 453.027 148 453.027C147.6 453.027 147.3 452.827 146.9 452.527C146 451.727 145.1 450.827 144.3 450.027C143 448.727 141.9 447.327 140.7 445.927C140 445.027 139.2 444.027 138.5 443.027C138.2 442.527 137.8 442.027 137.5 441.527C137.5 441.527 137.5 441.427 137.4 441.427C137.4 441.327 137.4 441.227 137.3 441.227C137.2 441.127 137 440.927 136.9 440.827C135.3 438.327 133.9 435.827 132.7 433.227C132.1 431.927 131.5 430.627 130.9 429.227C130.3 427.927 129.8 426.527 129.3 425.127C129.2 424.927 129.3 424.827 129.2 424.627C128.3 423.027 127.9 421.227 127.3 419.427C126.1 415.527 125.1 411.627 124.4 407.627C124.3 406.927 124.1 406.227 124 405.527C123.9 405.227 123.9 404.927 123.8 404.727C123.7 404.427 123.7 404.027 123.6 403.727C123.6 403.627 123.6 403.527 123.6 403.427C123.6 403.127 123.6 402.827 123.5 402.527C123 400.327 122.8 398.027 122.5 395.727C121.6 388.527 121.3 381.227 121.3 374.027C121.3 371.327 121.3 368.527 121.4 365.827C121.4 364.227 121.5 362.627 121.6 360.927C127.6 359.527 133.6 358.227 139.6 357.127C149.9 355.227 160.3 353.627 170.7 352.327C170.9 352.327 171 352.327 171.2 352.227C171.4 352.227 171.6 352.227 171.8 352.227C171.9 352.227 172 352.227 172.2 352.327C173.8 352.027 175.5 351.827 177.1 351.627C177.9 351.527 178.6 351.427 179.4 351.427C190.8 350.127 202.3 349.227 213.7 348.527C216.9 348.327 220.1 348.127 223.3 348.027C231.5 347.627 239.7 347.427 248 347.227C252.5 347.127 257 347.127 261.5 347.127C267.9 347.127 274.3 347.227 280.8 347.327C279.4 349.627 278 351.927 276.6 354.227C275.6 355.927 274.5 357.527 273.4 359.227C271.5 362.127 269.5 365.127 267.5 368.027C263.8 373.427 260 378.627 256 383.727C254.7 385.327 253.5 386.927 252.2 388.627C252 388.927 251.7 389.227 251.5 389.427C249.6 391.727 247.7 394.027 245.8 396.327C242.6 400.127 239.2 403.727 235.8 407.327C234.8 408.427 233.7 409.527 232.7 410.527C230 413.327 227.2 415.927 224.3 418.627C225.2 418.627 226.1 418.727 226.9 418.727C226 418.727 225.1 418.627 224.3 418.627C224.1 418.727 223.6 419.227 223.1 419.627ZM238.4 418.827C241.7 418.927 245.1 419.027 248.4 419.127C245.1 419.027 241.8 419.027 238.4 418.827ZM458.2 383.427C458.1 383.527 458 383.627 457.7 383.827C457.4 384.027 457.1 384.327 456.7 384.527C456.4 384.727 456.1 385.027 455.7 385.227C455.1 385.627 454.4 386.127 453.8 386.527C453.7 386.527 453.6 386.627 453.6 386.727C453.1 387.027 452.5 387.427 452 387.727C451.2 388.227 450.4 388.627 449.6 389.127C444.1 392.227 438.2 394.727 432.3 396.927C426.7 399.027 421 400.827 415.3 402.427C407.1 404.727 398.8 406.627 390.4 408.327C382.3 409.927 374.1 411.327 365.9 412.527C357.7 413.727 349.5 414.727 341.2 415.627C338.5 415.927 335.8 416.127 333.1 416.427C327.7 416.927 322.2 417.327 316.8 417.727C314.1 417.927 311.4 418.027 308.7 418.227C302.6 418.527 296.5 418.827 290.4 419.027C289.3 419.027 288.2 419.127 287.1 419.127C286.1 419.127 285.1 419.227 284 419.227C286.5 416.127 289 413.027 291.3 409.827C291.6 409.427 292 409.027 292.3 408.627C297.2 402.027 301.9 395.327 306.4 388.527C306.6 388.127 307.9 386.227 308.3 385.627C311.2 381.227 313.9 376.827 316.6 372.327C321 364.927 325.2 357.427 329.2 349.927C336.8 350.627 344.5 351.327 352.1 352.327C352.7 352.427 353.2 352.527 353.8 352.627C357.2 352.827 360.6 353.427 364 353.927C368.3 354.527 372.7 355.227 377 356.027C382.8 357.027 388.7 358.127 394.5 359.327C397.6 360.027 400.7 360.727 403.9 361.427H404H404.1C404.3 361.427 404.5 361.427 404.7 361.527C405 361.527 405.2 361.627 405.5 361.827C412.2 363.527 418.8 365.327 425.4 367.527C426 367.727 426.7 367.827 427.2 368.327C428.9 368.627 430.5 369.327 432.1 369.927C433.5 370.427 434.9 371.027 436.3 371.527C440.3 373.127 444.2 374.827 448 376.827C449.5 377.627 451 378.427 452.4 379.327C454.3 380.527 456.2 381.727 457.9 383.127C458.3 383.127 458.4 383.227 458.2 383.427Z" fill="#007FFF"/>
<path d="M499.9 274.528C499.7 270.928 498.3 267.728 496.2 264.828C493.2 260.728 489.4 257.528 485.3 254.628C478.2 249.828 470.5 246.228 462.6 243.028C458.2 241.228 453.7 239.728 449.2 238.228C442.3 236.028 435.4 234.128 428.4 232.428C419.6 230.328 410.9 228.428 402 226.828C396.6 225.828 391.2 224.928 385.8 224.128C385.6 224.128 385.5 224.128 385.3 224.128C385.2 224.128 385.1 224.128 385 224.128C384.8 224.128 384.6 224.128 384.4 224.028C383.9 223.928 383.5 223.828 383 223.728C381.4 223.428 379.8 223.228 378.2 222.928C377.3 222.828 376.3 222.628 375.4 222.528C375 222.428 374.7 222.428 374.3 222.328C370.6 221.828 366.8 221.428 363.1 220.928C362 220.828 360.9 220.728 359.8 220.628C358.7 220.528 357.6 220.428 356.6 220.128C349.3 219.428 342.1 218.728 334.8 218.128C333.8 218.028 332.8 217.928 331.8 217.928C325.5 217.428 319.3 217.028 313 216.728C310 216.628 307 216.428 303.9 216.228C301.6 216.128 299.3 216.028 297 215.928C291.8 215.728 286.6 215.628 281.3 215.528C279.4 215.528 277.4 215.428 275.5 215.428C275.5 215.428 279.1 201.028 280.5 193.728C281.6 188.228 282.5 182.828 283.4 177.328C283.9 173.628 284.4 169.928 284.9 166.228C285.3 162.328 285.7 158.428 285.9 154.528C286.2 150.328 286.3 146.228 286.4 142.028C286.5 136.428 286.3 130.928 285.9 125.328C285.6 121.628 285.3 118.028 284.8 114.328C284.2 109.328 283.3 104.428 282.1 99.5277C281.1 95.6277 280.1 91.7277 278.6 87.9277C278.5 87.9277 278.4 87.9277 278.4 87.9277C278.3 87.9277 278.2 87.9277 278.2 87.9277C278 88.0277 277.7 88.1277 277.5 88.2277C271.2 90.9277 265.2 94.2277 259.4 97.9277C259.1 98.1277 258.7 98.3277 258.6 98.7277C260 107.528 260.6 116.328 260.7 125.228C260.8 137.928 259.9 150.528 258.1 163.128C256.8 172.628 255 182.028 252.9 191.328C251.1 199.428 249 207.428 246.6 215.428C240.9 215.528 235.2 215.628 229.5 215.828C221.9 216.128 214.3 216.428 206.8 216.928C200.1 217.328 193.4 217.828 186.7 218.328C178 219.128 169.4 219.928 160.7 221.028C158.6 225.328 156.6 229.628 154.7 234.028C151.8 240.528 149.1 247.128 146.5 253.728C146.6 253.728 146.7 253.728 146.8 253.728C156.9 252.328 167 251.128 177.1 250.128C180 249.828 182.9 249.528 185.8 249.228C193 248.628 200.2 248.228 207.4 247.728C216.8 247.128 226.2 246.728 235.6 246.428C235.7 246.428 235.8 246.428 235.9 246.428C243.9 246.228 251.9 246.128 259.9 246.128C261.9 246.128 263.9 246.128 265.9 246.128C270.5 246.128 275 246.228 279.6 246.228C284.8 246.328 290 246.528 295.1 246.728H295.2C300.2 246.928 305.1 247.128 310.1 247.328C313.9 247.528 317.7 247.828 321.5 248.028C322.3 248.128 323.1 248.128 323.9 248.228C329.6 248.628 335.3 249.028 341 249.528C342.4 249.628 343.8 249.828 345.2 249.928C352.8 250.628 360.3 251.428 367.8 252.428C371.2 252.828 374.5 253.328 377.9 253.728C385 254.728 392.1 255.928 399.1 257.128C405.9 258.328 412.7 259.628 419.4 261.228C425.3 262.528 431.2 264.028 437 265.628C444.7 267.728 452.2 270.128 459.6 272.928C466 275.328 472.2 278.128 478.3 281.428C482.4 283.728 486.4 286.228 490 289.328C493.2 292.128 496.1 295.228 498 299.228C498.8 300.828 499.1 302.428 499.6 304.128C499.6 300.928 499.6 297.628 499.7 294.428C499.7 289.628 499.7 284.728 499.7 279.928C500 278.128 500 276.328 499.9 274.528Z" fill="#FF1100"/>
<path d="M309.1 43.9275C307.9 43.5275 306.7 43.3275 305.6 42.7275C305.6 42.5275 305.6 42.4275 305.6 42.2275C307 42.6275 308.3 43.2275 309.5 44.0275C309.4 44.1275 309.3 44.0275 309.1 43.9275Z" fill="#404A5A"/>
<path d="M305.1 42.5273C305.1 42.5273 305.2 42.5273 305.2 42.6273C305.1 42.7273 305 42.6273 304.9 42.5273C304.9 42.5273 305 42.5273 305.1 42.5273Z" fill="#404A5A"/>
<path d="M164.5 130.428C164.5 130.428 164.5 130.528 164.4 130.628H164.3C164.3 130.628 164.4 130.528 164.5 130.428Z" fill="#404A5A"/>
<path d="M170.8 122.528C170.8 122.528 170.7 122.628 170.6 122.628C170.5 122.628 170.4 122.728 170.3 122.728C170.3 122.628 170.3 122.628 170.3 122.528V122.428C170.3 122.328 170.4 122.228 170.4 122.228C170.4 122.128 170.5 122.128 170.6 122.028C170.7 122.028 170.8 121.928 170.8 121.928C170.8 122.028 170.8 122.128 170.8 122.228C170.9 122.328 170.8 122.428 170.8 122.528Z" fill="#404A5A"/>
<path d="M173.1 119.327C173 119.327 173 119.327 172.9 119.327C173 119.227 173.1 119.127 173.1 119.027C173.1 119.027 173.1 119.027 173.1 119.127C173.2 119.227 173.2 119.227 173.1 119.327Z" fill="#215CB5"/>
<path d="M174.4 117.527C174.4 117.427 174.5 117.427 174.5 117.327H174.6V117.427V117.527C174.4 117.527 174.4 117.527 174.4 117.527Z" fill="#215CB5"/>
<path d="M281.7 31.8273C282 31.7273 282.2 31.8273 282.3 32.0273C282 32.1273 281.8 32.2273 281.7 31.8273Z" fill="#FEC35E"/>
<path d="M210 79.4275C210.1 79.3275 210.2 79.2275 210.3 79.2275C210.3 79.2275 210.3 79.2275 210.3 79.3275C210.3 79.4275 210.3 79.4275 210.2 79.4275C210.2 79.4275 210.1 79.4275 210 79.4275Z" fill="#404A5A"/>
<path d="M211.8 77.6273C211.9 77.6273 212 77.5273 212.1 77.5273C212.1 77.6273 212.1 77.7273 212 77.7273C211.9 77.8273 211.7 77.7273 211.6 77.7273C211.7 77.7273 211.7 77.7273 211.8 77.6273Z" fill="#404A5A"/>
<path d="M212.9 76.9273C212.9 76.9273 212.9 77.0273 212.8 77.1273H212.7C212.8 77.0273 212.9 76.9273 212.9 76.9273Z" fill="#404A5A"/>
<path d="M227.9 65.0277C227.8 65.1277 227.7 65.2277 227.7 65.2277C227.8 65.1277 227.9 65.0277 228 64.9277C227.9 64.9277 227.9 65.0277 227.9 65.0277Z" fill="#404A5A"/>
<path d="M227.6 65.2275C227.6 65.3275 227.6 65.4275 227.5 65.4275H227.4C227.4 65.4275 227.4 65.4275 227.3 65.4275C227.5 65.2275 227.6 65.2275 227.6 65.2275Z" fill="#404A5A"/>
<path d="M305.6 42.2271C298.1 38.9271 290.7 35.6271 283.2 32.2271C282.9 32.1271 282.6 32.2271 282.3 32.0271C282 32.1271 281.8 32.1271 281.7 31.8271C281.4 31.9271 281.1 31.8271 280.8 31.7271C274.3 29.7271 267.6 29.1271 260.7 29.5271C251.7 30.0271 243 32.2271 234.6 35.4271C232 36.4271 229.4 37.5271 226.8 38.7271C226.2 39.0271 225.5 39.3271 224.9 39.6271C224.2 40.0271 223.4 40.3271 222.7 40.7271C221.7 41.2271 220.8 41.7271 219.8 42.2271C214.7 45.0271 209.8 48.1271 205 51.4271C204 52.1271 203 52.8271 202 53.5271L201.4 53.9271C199 55.6271 196.7 57.4271 194.5 59.2271C188.8 63.7271 183.4 68.5271 178.1 73.6271C163.5 87.6271 150.4 103.027 138.5 119.427C138.2 119.827 137.9 120.327 137.6 120.727C137.6 120.727 137.6 120.827 137.5 120.827C137.5 120.827 137.4 120.827 137.4 120.927C136.3 122.427 135.3 123.927 134.2 125.527C132.4 128.027 130.7 130.627 128.9 133.227C127.3 135.627 125.7 138.127 124.1 140.627C122.8 142.627 121.6 144.527 120.4 146.527C119.3 148.327 118.2 150.127 117.2 151.827C115.7 154.327 114.2 156.927 112.7 159.427C112 160.727 111.2 162.027 110.5 163.327C110.4 163.527 110.3 163.627 110.2 163.727C110.2 163.927 110.1 164.027 110.1 164.127C110 164.227 110 164.327 109.9 164.427C109.2 165.627 108.6 166.827 107.9 168.127C105.4 172.727 102.9 177.327 100.6 182.027C99.6 184.027 98.6 185.927 97.7 187.927C92.5 198.627 87.6 209.527 83.2 220.527C80.8 226.327 78.6 232.227 76.4 238.227C75.3 241.327 74.1 244.527 73.1 247.727C71.1 253.627 69.3 259.527 67.5 265.427C66.8 267.827 66.1 270.327 65.4 272.727C65.4 272.827 65.4 272.827 65.4 272.927C64.3 276.727 63.3 280.627 62.4 284.527C61.5 288.027 60.7 291.527 59.9 295.027C59.2 298.027 58.6 301.027 58 304.027C57.9 304.727 57.7 305.427 57.6 306.127C57.5 306.427 57.5 306.727 57.4 307.027C57.4 307.127 57.4 307.227 57.3 307.327C57.2 307.927 57.1 308.427 57 309.027C56.1 313.727 55.4 318.427 54.7 323.227C54.1 327.827 53.5 332.327 53 336.927C52.9 337.927 52.8 339.027 52.7 340.027C52.7 340.127 52.7 340.227 52.7 340.227C52.6 341.027 52.6 341.527 52.5 342.127C52.3 344.727 52.1 347.227 52 349.827C51.8 352.427 51.7 354.927 51.7 357.527C51.7 357.827 51.7 358.227 51.7 358.527C51.5 363.427 51.5 368.427 51.7 373.327C51.9 378.027 52.1 382.627 52.5 387.227C52.9 391.827 53.5 396.427 54.3 401.027C54.7 403.327 55.1 405.527 55.6 407.727C57.2 415.227 59.4 422.527 62.3 429.627C62.5 430.127 62.7 430.627 62.9 431.127C63.1 431.627 63.3 432.127 63.5 432.627C64 433.727 64.6 434.927 65.1 436.027C66 437.927 67 439.727 68.1 441.527C71 446.427 74.4 450.927 78.5 455.127C79.6 456.227 80.7001 457.227 81.8001 458.227C83.9001 460.127 86.2 461.827 88.6 463.327C89.1 463.627 89.6001 463.827 89.9001 464.227C89.9001 464.327 90 464.327 90 464.427C90.2001 464.427 90.4001 464.427 90.5 464.627C91.4001 464.827 92.2 465.527 93.1 465.827C97.7 467.827 102.3 469.927 106.9 471.927C109.5 473.127 112.1 474.227 114.8 475.327L115.1 475.027C114.3 474.527 113.4 474.027 112.6 473.427C111.7 472.827 110.9 472.227 110.1 471.627C103.3 466.327 97.9001 459.627 93.5 452.127C90.8 447.527 88.6001 442.727 86.8001 437.827C86.8001 437.727 86.7 437.627 86.7 437.527C84.2 430.827 82.4 424.027 81 417.027C80.3 413.327 79.7 409.527 79.2 405.727C79.2 405.427 79.1 405.227 79.1 404.927C78.9 403.027 78.6 401.227 78.5 399.327C78.2 396.527 78 393.827 77.9 391.027C77.9 390.327 77.8001 389.627 77.8001 389.027C77.8001 388.827 77.8001 388.727 77.8001 388.527C77.7001 384.727 77.5 380.927 77.5 377.127C77.5 376.927 77.5 376.727 77.5 376.527C77.5 375.827 77.5 375.127 77.5 374.527C77.6 371.527 77.7001 368.527 77.8001 365.627C77.9001 364.127 77.9 362.627 78 361.127C78.1 359.627 78.2001 358.127 78.3001 356.627C78.7001 351.427 79.2 346.227 79.9 341.027C80.1 339.127 80.4 337.227 80.6 335.327C80.9 333.227 81.2 331.127 81.5 329.027C81.8 327.427 82.0001 325.727 82.3001 324.127C82.6 322.227 83.0001 320.427 83.3001 318.527C83.7001 316.127 84.2 313.827 84.7 311.427C85.3 308.727 85.8001 306.027 86.4001 303.427C86.9001 301.027 87.5 298.727 88.1 296.327C88.7 293.727 89.4 291.127 90.1 288.527C90.3 287.927 90.4 287.327 90.6 286.727C90.8 286.127 91 285.527 91.1 284.927C91.4 283.627 91.7 282.427 92.1 281.127C92.2 281.027 92.4001 280.827 92.4001 280.727C92.8001 277.727 93.8001 274.927 94.8001 272.127C95.2001 270.827 95.6 269.627 96 268.327C96.5 266.527 97.1 264.827 97.6 263.027C98.1 261.527 98.5 260.127 99 258.727C99.2001 258.127 99.4 257.627 99.6 257.027C99.9 256.327 100.1 255.527 100.4 254.827C101.5 251.827 102.5 248.727 103.6 245.727C104.1 244.527 104.5 243.227 105 242.027C106.6 237.827 108.3 233.527 110 229.327C110.5 228.127 111 226.927 111.5 225.727C111.9 224.727 112.3 223.827 112.7 222.927C113.7 220.727 114.6 218.427 115.6 216.227C116.4 214.427 117.2 212.727 118 211.027C118.6 209.727 119.2 208.327 119.8 207.027C121.5 203.427 123.2 199.927 124.9 196.427C125.2 195.827 125.6 195.227 125.9 194.627C126.2 194.027 126.6 193.427 126.9 192.827C132 181.927 138.1 171.527 144.3 161.227C144.9 160.327 145.4 159.427 146 158.427C147.3 156.327 148.5 154.127 150 152.127C150.9 150.827 151.8 149.627 152.6 148.327C153.4 147.027 154.3 145.727 155.1 144.427C156.9 141.927 158.5 139.227 160.2 136.727C160.4 136.427 160.7 136.027 160.9 135.727C162.1 134.027 163.3 132.427 164.5 130.727L164.6 130.627H164.7C166.4 128.327 168.1 126.027 169.8 123.727C169.9 123.627 170 123.527 170 123.427L170.1 123.327C170.2 123.227 170.3 123.127 170.4 123.027C170.4 122.927 170.4 122.927 170.4 122.827V122.727C170.4 122.627 170.5 122.527 170.5 122.527C170.5 122.427 170.6 122.427 170.7 122.327C170.8 122.327 170.9 122.227 170.9 122.227L171 122.127C171.7 121.327 172.3 120.427 173 119.627C173.1 119.527 173.2 119.427 173.2 119.327C173.2 119.227 173.2 119.227 173.3 119.127C173.3 119.127 173.3 119.027 173.4 118.927C173.5 118.827 173.5 118.727 173.6 118.627C173.9 118.327 174.2 118.127 174.3 117.727C174.3 117.727 174.3 117.727 174.3 117.627C174.3 117.527 174.4 117.527 174.4 117.427H174.5C174.7 117.227 174.9 117.127 175 116.927L175.1 116.827C175.2 116.727 175.3 116.527 175.4 116.427C175.5 116.227 175.7 116.027 175.8 115.827C175.9 115.627 176 115.527 176.1 115.327C176.2 115.227 176.3 115.127 176.3 115.027C176.8 114.427 177.3 113.727 177.9 113.127C181.5 108.727 185.3 104.327 189.1 100.127C192.1 96.8271 195.2 93.6271 198.4 90.4271C198.9 89.8271 199.5 89.3271 200 88.7271C201 87.7271 202.1 86.7271 203.2 85.7271C203.6 85.3271 204 84.9271 204.5 84.5271C204.6 84.4271 204.7 84.3271 204.8 84.3271C206.1 83.0271 207.5 81.8271 208.8 80.5271C208.8 80.5271 208.9 80.5271 208.9 80.4271C209.2 80.1271 209.6 79.8271 210 79.5271C210.1 79.4271 210.2 79.3271 210.3 79.3271C210.3 79.3271 210.3 79.3271 210.4 79.2271C210.8 78.8271 211.2 78.4271 211.6 77.9271C211.7 77.8271 211.7 77.7271 211.8 77.7271C211.9 77.7271 212 77.6271 212.1 77.6271C212.2 77.6271 212.3 77.5271 212.4 77.5271C212.5 77.5271 212.5 77.4271 212.6 77.3271C212.6 77.3271 212.7 77.2271 212.7 77.1271C212.8 77.0271 212.9 76.9271 212.9 76.8271C214 75.8271 215 74.9271 216.1 74.0271C216.3 73.9271 216.4 73.7271 216.6 73.6271C217.7 72.7271 218.7 71.8271 219.8 71.0271C222.2 69.1271 224.7 67.2271 227.3 65.4271C227.4 65.4271 227.5 65.3271 227.6 65.3271C227.7 65.2271 227.8 65.1271 227.9 65.0271C228.5 64.6271 229.1 64.1271 229.6 63.7271C230.8 62.9271 232 62.0271 233.1 61.2271C233.7 60.8271 234.3 60.4271 234.9 60.0271C235.5 59.6271 236.1 59.2271 236.7 58.8271C238.5 57.7271 240.4 56.5271 242.2 55.5271C244.2 54.3271 246.3 53.2271 248.4 52.1271C254.7 48.9271 261.2 46.1271 268 44.1271C268.5 43.9271 269 43.8271 269.6 43.6271C273.2 42.6271 276.9 41.8271 280.6 41.3271C282.7 41.0271 284.8 40.8271 287 40.7271C288.6 40.6271 290.2 40.6271 291.8 40.7271C292.3 40.7271 292.9 40.7271 293.4 40.8271C295 40.9271 296.6 41.1271 298.2 41.3271C300.4 41.6271 302.6 42.0271 304.8 42.6271C304.9 42.6271 304.9 42.6271 305 42.6271C305.1 42.6271 305.1 42.6271 305.1 42.7271C305.1 42.7271 305.2 42.7271 305.3 42.7271C305.4 42.7271 305.5 42.8271 305.6 42.8271C305.6 42.6271 305.6 42.5271 305.6 42.3271C305.6 42.3271 305.6 42.3271 305.6 42.2271Z" fill="#F1ECE2"/>
<path d="M281.7 31.8277C281.6 31.3277 281.1 31.3277 280.8 31.1277C274.4 28.2277 267.9 25.4277 261.5 22.5277C259.8 21.7277 258.1 20.9277 256.3 20.3277C256.1 20.4277 255.9 20.4277 255.7 20.3277C251.3 18.8277 246.7 18.1277 242.1 17.8277C237.9 17.5277 233.6 17.8277 229.4 18.4277C225.9 18.9277 222.5 19.6277 219.1 20.5277C212.5 22.3277 206.2 24.7277 200.1 27.7277C197.8 28.9277 195.5 30.2277 193.2 31.4277C192.4 31.8277 191.6 32.2277 190.9 32.6277C184.3 36.5277 177.9 40.8277 171.8 45.5277C170.3 46.7277 168.7 47.8277 167.3 49.1277C166.4 49.9277 165.5 50.8277 164.5 51.5277C164.3 51.6277 164.1 51.8277 163.9 51.9277C163.7 52.1277 163.6 52.2277 163.4 52.3277C163.3 52.5277 163.2 52.7277 163.1 52.8277C163 52.9277 162.9 52.9277 162.9 52.9277C162.9 52.9277 162.8 52.9277 162.7 52.9277C162.7 52.9277 162.6 52.9277 162.5 52.9277L162.4 53.0277C161.9 53.4277 161.6 54.0277 161.1 54.4277C161 54.5277 160.9 54.5277 160.9 54.6277C159.6 55.3277 158.9 56.5277 157.7 57.3277C156.6 58.1277 155.7 59.1277 154.7 60.1277C149.8 64.6277 145.1 69.5277 140.5 74.3277C139.1 75.8277 137.8 77.4277 136.4 79.0277C135.6 79.9277 134.7 80.7276 134 81.6277C131.9 84.0276 129.9 86.5277 127.8 88.9277C126.3 90.7277 124.8 92.6277 123.4 94.5277C122.3 96.0277 121 97.4277 119.8 98.9277C116.3 103.428 112.9 108.128 109.6 112.728C106.3 117.328 103.3 122.028 100.2 126.728C97.4 130.928 94.8 135.328 92.1 139.628C91.1 141.228 90.2 142.928 89.2 144.528C87.5 147.328 85.9 150.128 84.4 152.928C83.5 154.028 82.9 155.428 82.2 156.628C80.7 159.228 79.3 161.928 78 164.628C77.6 165.528 77 166.228 76.6 167.128C75.4 169.528 74.2 172.028 72.9 174.428C69.8 180.528 67 186.728 64.2 192.928C61.1 199.628 58.4 206.528 55.6 213.428C53.8 218.128 51.9 222.728 50.4 227.528C50.2 228.328 49.7 229.028 49.4 229.828C48 233.928 46.6 238.128 45.2 242.228C43.9 246.028 42.8 249.928 41.6 253.728C40.5 257.428 39.5 261.128 38.5 264.928C36.6 272.128 34.8 279.428 33.2 286.828C32.8 288.728 32.4 290.728 32 292.628C30.7 299.228 29.6 305.928 28.6 312.628C27.7 319.028 27 325.428 26.4 331.828C26.4 332.428 26.3 333.028 26.3 333.628C26 337.128 25.8 340.628 25.7 344.228C25.5 348.228 25.5 352.328 25.5 356.328C25.5 358.228 25.7 360.228 25.7 362.128C25.7 365.028 25.9 368.028 26.1 370.928C26.2 372.028 26.2 373.128 26.3 374.128C26.3 374.328 26.3 374.528 26.4 374.728C26.7 377.528 27 380.428 27.4 383.228C27.8 385.928 28.2 388.728 28.7 391.428C29.4 395.228 30.1 399.028 31.3 402.628C31.7 403.728 31.9 405.028 32.2 406.128C32.9 408.728 33.7 411.228 34.6 413.728C35.9 417.328 37.4 420.828 39.1 424.228C41.6 429.528 44.8 434.428 48.4 439.028C51.9 443.328 55.9 447.228 60.4 450.428C60.6 450.528 60.8 450.728 61 450.828C61.3 451.028 61.7 451.228 62 451.428C62.2 451.528 62.4 451.628 62.6 451.828C63.2 452.228 63.9 452.628 64.5 453.028C64.7 453.128 64.9 453.328 65 453.428V453.528C65.1 453.728 65.3 453.728 65.5 453.728C73.4 457.228 81.2 460.728 89.1 464.128C89.4 464.228 89.7 464.428 90.1 464.428C90.1 464.328 90 464.328 90 464.228C89.7 463.828 89.1 463.628 88.7 463.328C86.3 461.828 84 460.128 81.9 458.228C80.8 457.228 79.7 456.228 78.6 455.128C74.5 451.028 71.1 446.428 68.2 441.528C67.1 439.728 66.1 437.928 65.2 436.028C64.6 434.928 64.1 433.728 63.6 432.628C63.4 432.128 63.2 431.628 63 431.128C62.8 430.628 62.6 430.128 62.4 429.628C59.4 422.528 57.3 415.228 55.7 407.728C55.2 405.528 54.8 403.228 54.4 401.028C53.6 396.428 53 391.828 52.6 387.228C52.2 382.628 51.9 377.928 51.8 373.328C51.6 368.428 51.7 363.428 51.8 358.528C51.8 358.228 51.8 357.828 51.8 357.528C51.9 354.928 52 352.428 52.1 349.828C52.3 347.228 52.4 344.728 52.6 342.128C52.6 341.528 52.7 341.028 52.8 340.228C52.8 340.128 52.8 340.028 52.8 340.028C52.9 339.028 53 337.928 53.1 336.928C53.6 332.328 54.2 327.728 54.8 323.228C55.5 318.528 56.3 313.728 57.1 309.028C57.2 308.428 57.3 307.928 57.4 307.328C57.4 307.228 57.4 307.128 57.5 307.028C57.6 306.728 57.6 306.428 57.7 306.128C57.8 305.428 58 304.728 58.1 304.028C58.7 301.028 59.3 298.028 60 295.028C60.8 291.528 61.6 288.028 62.5 284.528C63.5 280.628 64.4 276.828 65.5 272.928C65.5 272.828 65.5 272.828 65.5 272.728C66.2 270.328 66.9 267.828 67.6 265.428C69.4 259.528 71.2 253.628 73.2 247.728C74.3 244.528 75.4 241.428 76.5 238.228C78.6 232.328 80.9 226.428 83.3 220.528C87.8 209.528 92.6 198.628 97.8 187.928C98.8 185.928 99.7 183.928 100.7 182.028C103.1 177.328 105.5 172.728 108 168.128C108.7 166.928 109.3 165.728 110 164.428C110.1 164.328 110.1 164.228 110.2 164.128C110.3 164.028 110.3 163.828 110.3 163.728C110.4 163.528 110.5 163.428 110.6 163.328C111.3 162.028 112.1 160.728 112.8 159.428C114.3 156.828 115.8 154.328 117.3 151.828C118.4 150.028 119.5 148.228 120.5 146.528C121.7 144.528 123 142.528 124.2 140.628C125.8 138.128 127.4 135.628 129 133.228C130.7 130.628 132.5 128.128 134.3 125.528C135.4 124.028 136.4 122.528 137.5 120.928V120.828C137.5 120.828 137.5 120.828 137.5 120.728C137.5 120.728 137.6 120.628 137.7 120.628C138 120.228 138.3 119.728 138.6 119.328C150.5 102.928 163.5 87.5276 178.2 73.5277C183.5 68.5277 188.9 63.7276 194.6 59.1277C196.9 57.3277 199.2 55.5277 201.5 53.8277L202.1 53.4277C203.1 52.7277 204.1 52.0277 205.1 51.3277C209.9 48.0277 214.8 44.9277 219.9 42.1277C220.9 41.6277 221.8 41.1277 222.8 40.6277C223.5 40.2277 224.3 39.8277 225 39.5277C225.6 39.2277 226.3 38.9277 226.9 38.6277C229.5 37.4277 232 36.3277 234.7 35.3277C243.1 32.1277 251.7 29.9277 260.8 29.4277C267.6 29.0277 274.3 29.6277 280.9 31.6277C281.1 31.8277 281.3 32.0277 281.7 31.8277C281.6 31.9277 281.6 31.8277 281.7 31.8277ZM26.3 365.928C26.3 366.028 26.3 366.228 26.3 366.328C26.3 366.128 26.3 366.028 26.3 365.928Z" fill="#FDBF41"/>
<path d="M137.4 120.828C137.4 120.828 137.5 120.728 137.6 120.728C137.6 120.828 137.6 120.928 137.4 120.828C137.5 120.928 137.4 120.928 137.4 120.928C137.4 120.928 137.4 120.928 137.4 120.828Z" fill="#C18B00"/>
<path d="M162.5 52.6277C162.6 52.5277 162.7 52.4277 162.8 52.4277C162.9 52.4277 163 52.4277 163.1 52.4277C163 52.6277 162.9 52.8277 162.8 52.9277C162.7 53.0277 162.6 53.0277 162.6 53.0277C162.6 53.0277 162.5 53.0277 162.4 53.0277C162.4 53.0277 162.3 53.0277 162.2 53.0277C162.4 52.9277 162.4 52.7277 162.5 52.6277Z" fill="#C18B00"/>
<path d="M254.8 19.8275C249 17.2275 243.1 14.6275 237.3 12.0275C230.6 9.02754 223.7 7.12754 216.4 6.72754C214.6 6.72754 212.7 6.72754 210.9 6.72754C210.2 6.72754 209.4 6.72754 208.7 6.72754C205 6.92754 201.4 7.42754 197.8 8.22754C187.1 10.5275 177.2 14.6275 167.7 19.9275C158.1 25.2275 149.2 31.4275 140.8 38.3275C139.7 39.2275 138.6 40.0275 137.6 41.0275C137.5 41.0275 137.4 41.1275 137.4 41.2275V41.3275C137.2 41.5275 136.9 41.7275 136.7 41.9275C127.3 49.9275 118.7 58.6275 110.4 67.8275C100.6 78.7275 91.6 90.2275 83.2 102.228C70.7 120.028 59.5 138.728 49.6 158.228C42.9 171.328 36.8 184.728 31.4 198.328C25.7 212.528 20.5 227.028 16.3 241.728C15.8 243.328 15.3 244.928 14.8 246.628C11.4 258.828 8.4 271.028 6 283.528C4 294.028 2.4 304.628 1.4 315.328C0.5 323.028 0 330.728 0 338.528C0 342.028 0 345.628 0 349.128C0 349.628 0.1 350.128 0.1 350.628C0.1 351.428 0.1 352.128 0.1 352.928C0.1 357.228 0.5 361.528 0.9 365.828C1.6 372.828 2.6 379.728 4.2 386.628C6.1 395.228 8.8 403.528 12.5 411.528C16.5 420.028 21.7 427.828 28.6 434.328C32.6 438.128 37.1 441.328 42.1 443.628C46.5 445.728 51 447.628 55.6 449.628C58.7 451.028 61.7 452.428 64.9 453.628C64.7 453.528 64.5 453.328 64.4 453.228C63.8 452.828 63.2 452.428 62.5 452.028C62.3 451.928 62.1 451.828 61.9 451.628C61.6 451.428 61.2 451.228 60.9 451.028C60.7 450.928 60.5 450.728 60.3 450.628C55.8 447.428 51.8 443.628 48.3 439.228C44.6 434.628 41.5 429.728 39 424.428C37.4 421.028 35.8 417.428 34.5 413.928C34.2 413.628 33.8 413.328 33.5 412.928C33.8 413.228 34.2 413.628 34.5 413.928C33.6 411.428 32.8 408.928 32.1 406.328C31.8 405.128 31.6 403.928 31.2 402.828C30 399.128 29.3 395.328 28.6 391.628C28.1 388.928 27.7 386.228 27.3 383.428C26.9 380.628 26.7 377.728 26.3 374.928C26.3 374.728 26.3 374.528 26.2 374.328C26.1 373.228 26 372.128 26 371.128C25.8 368.228 25.6 365.228 25.6 362.328C25.6 360.428 25.4 358.428 25.4 356.528C25.4 352.528 25.5 348.428 25.6 344.428C25.7 340.928 25.9 337.428 26.2 333.828C26.2 333.228 26.3 332.628 26.3 332.028C26.9 325.628 27.6 319.228 28.5 312.828C29.4 306.128 30.6 299.428 31.9 292.828C32.3 290.928 32.7 288.928 33.1 287.028C34.6 279.728 36.4 272.428 38.4 265.128C39.4 261.428 40.4 257.628 41.5 253.928C42.6 250.028 43.8 246.228 45.1 242.428C46.5 238.228 47.9 234.128 49.3 230.028C49.6 229.228 50 228.528 50.3 227.728C51.8 222.928 53.6 218.228 55.5 213.628C58.2 206.728 61 199.928 64.1 193.128C67 186.928 69.7 180.628 72.8 174.628C74 172.228 75.3 169.728 76.5 167.328C76.9 166.428 77.5 165.728 77.9 164.828C79.2 162.128 80.6 159.428 82.1 156.828C82.8 155.528 83.4 154.228 84.3 153.128C85.8 150.228 87.4 147.428 89.1 144.728C90.1 143.128 91 141.428 92 139.828C94.7 135.528 97.2 131.128 100.1 126.928C103.2 122.228 106.3 117.428 109.5 112.928C112.8 108.328 116.2 103.628 119.7 99.1275C120.8 97.6275 122.1 96.3275 123.3 94.7275C124.7 92.8275 126.1 90.9275 127.7 89.1275C129.8 86.7275 131.8 84.2275 133.9 81.8275C134.7 80.9275 135.5 80.1275 136.3 79.2275C137.7 77.7275 138.9 76.0275 140.4 74.5275C145 69.6275 149.7 64.8275 154.6 60.3275C155.6 59.4275 156.5 58.3275 157.6 57.5275C158.7 56.7275 159.5 55.5275 160.8 54.8275C160.9 54.8275 161 54.7275 161 54.6275C161.5 54.2275 161.8 53.6275 162.3 53.2275L162.4 53.1275C162.4 52.9275 162.5 52.8275 162.6 52.7275C162.7 52.6275 162.8 52.5275 162.9 52.5275C163 52.5275 163.1 52.5275 163.2 52.5275C163.4 52.4275 163.5 52.2275 163.7 52.1275C163.9 51.9275 164.1 51.8275 164.3 51.7275C165.3 51.0275 166.2 50.1275 167.1 49.3275C168.5 48.0275 170.1 46.9275 171.6 45.7275C177.7 41.0275 184.1 36.7275 190.7 32.8275C191.5 32.4275 192.2 32.0275 193 31.6275C195.3 30.4275 197.6 29.0275 199.9 27.9275C206 24.9275 212.3 22.5275 218.9 20.7275C222.3 19.8275 225.7 19.1275 229.2 18.6275C233.4 18.0275 237.7 17.8275 241.9 18.0275C246.5 18.3275 251.1 19.0275 255.5 20.5275C255.7 20.6275 255.9 20.6275 256.1 20.5275C255.8 20.0275 255.3 20.0275 254.8 19.8275Z" fill="#FF1100"/>
<path d="M162.7 50.9272L162.6 50.8271C162.6 50.9271 162.6 50.9272 162.7 50.9272Z" fill="#FF1100"/>
<path d="M161.9 50.4277C162.1 50.5277 162.2 50.6277 162.4 50.7277C162.2 50.6277 162 50.5277 161.9 50.4277Z" fill="#FF1100"/>
<path d="M216.4 6.72773H210.9C210.2 6.72773 209.4 6.72773 208.7 6.72773C208.7 6.62773 208.6 6.52773 208.6 6.42773C211.2 6.42773 213.9 6.42773 216.5 6.42773C216.4 6.52773 216.4 6.62773 216.4 6.72773Z" fill="#FEC35E"/>
<path d="M137.3 41.3271C137.4 41.4271 137.4 41.4271 137.3 41.3271V41.3271Z" fill="#C18B00"/>
<path opacity="0.48" d="M458 383.728C458.8 383.128 458.8 383.128 458 382.528C456.2 381.128 454.4 379.928 452.5 378.728C446.1 374.828 439.2 371.928 432.2 369.328C430.6 368.728 429 368.028 427.3 367.728C426.8 367.228 426.1 367.128 425.5 366.928C419 364.728 412.3 362.928 405.6 361.228C405 361.228 404.5 361.028 404 360.828C400.9 360.128 397.7 359.428 394.6 358.728C388.8 357.428 383 356.428 377.2 355.428C372.9 354.728 368.5 354.028 364.2 353.328C360.8 352.828 357.4 352.328 354 352.028C353.4 351.928 352.9 351.828 352.3 351.728C340.3 350.228 328.4 349.128 316.4 348.328C308.6 347.828 300.7 347.328 292.9 347.028C282.6 346.628 272.4 346.428 262.1 346.428C249.4 346.428 236.6 346.728 223.9 347.328C209.2 348.028 194.5 349.128 179.9 350.828C177.5 351.128 175.1 351.228 172.7 351.728C172.2 351.628 171.7 351.728 171.3 351.728C160.9 353.028 150.5 354.628 140.2 356.528C134.1 357.628 128 358.928 122 360.428L121.9 360.628C121.9 360.628 120.3 383.028 123.8 404.928C129.7 406.328 135.7 407.628 141.7 408.728C147.1 409.728 152.4 410.628 157.8 411.428C165.4 412.528 172.9 413.628 180.5 414.428C187.9 415.228 195.3 416.028 202.7 416.528C207.1 416.828 211.5 417.228 215.8 417.528C222.3 417.928 228.8 418.228 235.3 418.428C241.2 418.628 247.1 418.828 253.1 418.928C262.6 419.028 272.1 419.028 281.5 418.828C290.6 418.628 299.8 418.328 308.9 417.728C319.8 417.128 330.6 416.228 341.5 415.128C358 413.428 374.4 411.128 390.7 407.828C404.9 405.028 419 401.528 432.6 396.528C438.5 394.328 444.4 391.828 449.9 388.728C452.8 387.328 455.5 385.628 458 383.728Z" fill="url(#paint0_linear_1_10860)"/>
</g>
<defs>
<linearGradient id="paint0_linear_1_10860" x1="290.909" y1="354.894" x2="288.81" y2="409.113" gradientUnits="userSpaceOnUse">
<stop offset="0.16" stop-color="#191919"/>
<stop offset="0.97" stop-color="#191919" stop-opacity="0"/>
</linearGradient>
<clipPath id="clip0_1_10860">
<rect width="500" height="500" fill="white" transform="translate(0 0.527344)"/>
</clipPath>
</defs>
</svg>
