<svg width="500" height="501" viewBox="0 0 500 501" fill="none" xmlns="http://www.w3.org/2000/svg">
<path d="M191.49 16.3206C218.556 16.3206 245.101 16.3206 272.222 16.3206C243.653 140.121 215.149 263.638 186.592 387.387C154.755 387.387 123.055 387.387 91.091 387.387C62.545 263.684 34.026 140.098 5.45099 16.2646C32.533 16.2646 59.145 16.2646 86.185 16.2646C103.658 107.341 121.124 198.377 138.589 289.413C138.759 289.417 138.928 289.421 139.098 289.425C156.547 198.469 173.996 107.512 191.49 16.3206ZM491.721 256.523C491.894 255.937 492.052 255.343 492.164 254.742C495.177 238.507 496.497 222.161 495.831 205.636C495.199 189.923 492.844 174.56 487.34 159.782C481.28 143.515 471.912 129.666 457.798 119.183C447.468 111.511 435.986 106.513 423.552 103.642C404.98 99.3546 386.227 98.9426 367.434 101.882C348.726 104.808 331.841 111.913 317.598 124.663C306.856 134.279 299.049 145.967 293.541 159.236C287.972 172.652 284.34 186.569 284.272 201.133C284.096 238.652 284.213 276.173 284.222 313.693C284.222 315.069 284.197 316.466 284.406 317.819C286.937 334.23 293.327 348.94 304.032 361.684C315.186 374.963 329.403 383.632 345.757 388.962C358.223 393.026 371.071 394.738 384.148 395.236C401.324 395.89 418.087 394.091 434.172 387.684C452.114 380.537 465.869 368.43 475.682 351.93C484.507 337.091 489.256 320.856 491.014 303.726C491.321 300.733 491.41 297.718 491.606 294.614C469.194 294.614 447.291 294.614 425.323 294.614C425.185 297.691 425.077 300.507 424.929 303.32C424.392 313.51 422.418 323.389 417.872 332.578C412.918 342.592 405.346 349.529 393.957 351.397C378.104 353.998 364.359 346.77 357.244 332.318C351.72 321.098 349.497 309.112 349.24 296.759C348.99 284.741 349.176 272.714 349.192 260.69C349.193 259.808 349.364 258.926 349.486 257.759C396.833 257.759 443.968 257.759 491.135 257.759C491.467 257.071 491.637 256.81 491.721 256.523ZM352.055 216.659C351.981 215.744 351.85 214.86 351.848 213.976C351.831 203.798 351.807 193.62 351.838 183.442C351.894 165.336 365.285 150.855 383.331 149.152C389.724 148.549 396.032 148.519 402.143 150.692C412.496 154.373 418.729 162.056 422.469 172.056C424.415 177.262 425.394 182.616 425.293 188.219C425.145 196.405 425.267 204.595 425.241 212.783C425.237 213.982 425.055 215.179 424.932 216.658C400.444 216.659 376.373 216.659 352.055 216.659ZM121.54 435.296C120.674 428.124 115.917 423.085 109.336 419.974C105.19 418.014 100.771 417.985 96.303 418.001C81.833 418.052 67.361 417.865 52.893 418.02C41.818 418.139 32.606 427.042 31.946 438.165C31.584 444.269 31.483 450.409 31.668 456.521C32.04 468.819 39.68 477.693 51.513 478.792C59.255 479.511 67.112 479.003 74.917 479.018C75.257 479.019 75.597 478.747 75.967 478.589C75.967 474.276 75.967 470.036 75.967 465.607C74.886 465.533 73.991 465.423 73.096 465.42C66.818 465.399 60.539 465.427 54.261 465.386C48.784 465.35 45.371 461.949 45.324 456.496C45.281 451.52 45.296 446.543 45.3 441.566C45.305 434.806 48.684 431.44 55.458 431.425C70.154 431.391 84.849 431.354 99.545 431.323C104.664 431.312 108.604 435.081 108.711 440.244C108.807 444.836 108.727 449.432 108.753 454.025C108.758 454.913 108.891 455.8 108.979 456.857C113.354 456.857 117.517 456.857 121.722 456.857C121.724 449.461 122.384 442.288 121.54 435.296ZM433.298 431.415C439.727 431.43 446.157 431.323 452.584 431.451C458.332 431.565 461.639 435.053 461.669 440.754C461.696 445.959 461.699 451.165 461.668 456.37C461.634 461.942 458.238 465.38 452.629 465.393C437.395 465.427 422.162 465.418 406.928 465.383C401.897 465.371 398.339 461.729 398.287 456.633C398.249 452.959 398.291 449.284 398.267 445.61C398.262 444.796 398.13 443.983 398.042 443.015C393.621 443.015 389.405 443.015 385.35 443.015C385.149 443.306 385.068 443.368 385.069 443.429C385.078 449.46 384.285 455.628 385.285 461.491C387.079 472.003 396.192 479.001 406.982 479.074C422.292 479.178 437.603 479.137 452.913 479.083C465.874 479.037 475.443 468.6 475.155 456.759C475.021 451.251 475.162 445.736 475.126 440.224C475.043 427.476 465.669 418.078 452.921 417.983C446.185 417.933 439.448 417.966 432.711 417.981C431.897 417.983 431.083 418.109 430.097 418.192C430.097 422.558 430.097 426.719 430.097 431.223C431.353 431.301 432.325 431.413 433.298 431.415ZM424.88 455.25C424.846 449.664 424.923 444.073 424.694 438.495C424.233 427.264 414.145 417.642 401.922 417.897C386.389 418.221 370.844 417.923 355.306 418.025C346.164 418.085 337.441 424.882 335.231 433.78C333.382 441.222 334.452 448.838 334.539 456.385C334.54 456.502 334.717 456.617 334.872 456.805C339.045 456.805 343.271 456.805 347.773 456.805C347.773 455.724 347.773 454.897 347.773 454.07C347.776 449.554 347.714 445.036 347.798 440.521C347.897 435.191 351.488 431.468 356.748 431.445C371.981 431.377 387.215 431.379 402.447 431.457C407.668 431.484 411.143 435.169 411.172 440.387C411.198 444.98 411.157 449.573 411.189 454.166C411.195 455.038 411.402 455.908 411.528 456.871C415.963 456.871 420.136 456.871 424.474 456.871C424.669 456.119 424.882 455.684 424.88 455.25ZM145.702 456.737C145.853 456.212 145.97 455.994 145.971 455.775C145.995 450.877 145.985 445.98 146.027 441.082C146.078 435.111 149.709 431.437 155.613 431.428C170.537 431.407 185.461 431.406 200.386 431.429C205.833 431.437 209.412 435.019 209.472 440.505C209.522 445.02 209.468 449.536 209.493 454.051C209.498 454.932 209.655 455.812 209.75 456.782C214.285 456.782 218.576 456.782 222.844 456.782C222.987 456.236 223.131 455.945 223.131 455.653C223.13 450.067 223.417 444.46 223.037 438.898C222.186 426.442 212.9 417.996 200.385 417.974C185.231 417.947 170.077 417.941 154.924 417.976C142.21 418.006 132.687 427.497 132.604 440.162C132.573 444.907 132.587 449.652 132.6 454.397C132.602 455.138 132.708 455.878 132.775 456.737C137.361 456.737 141.571 456.737 145.702 456.737ZM247.008 453.858C247.027 449.266 246.954 444.672 247.043 440.081C247.138 435.203 250.8 431.473 255.669 431.453C270.977 431.391 286.285 431.382 301.593 431.465C306.938 431.494 310.41 435.194 310.451 440.559C310.485 445.075 310.443 449.591 310.467 454.107C310.472 454.985 310.626 455.862 310.716 456.782C315.189 456.782 319.404 456.782 323.86 456.782C323.86 450.701 323.925 444.894 323.846 439.088C323.695 427.893 314.276 418.171 303.042 418.038C286.742 417.845 270.436 417.849 254.136 418.038C243.562 418.16 234.22 427.374 233.66 437.922C233.368 443.418 233.41 448.932 233.333 454.438C233.323 455.171 233.504 455.906 233.621 456.836C238.04 456.836 242.27 456.836 246.831 456.836C246.905 455.655 247.005 454.757 247.008 453.858ZM183.11 457.313C183.155 468.919 192.646 478.89 204.268 479.035C220.262 479.234 236.262 479.236 252.255 479.001C259.377 478.896 265.183 475.582 269.41 469.756C272.047 466.122 273.429 462.055 273.41 457.533C273.391 452.825 273.406 448.117 273.406 443.186C268.886 443.186 264.604 443.186 260.151 443.186C260.08 444.349 259.985 445.25 259.978 446.152C259.952 449.673 259.996 453.194 259.936 456.714C259.849 461.846 256.357 465.379 251.256 465.391C235.949 465.429 220.641 465.429 205.333 465.397C200.165 465.386 196.609 461.765 196.539 456.538C196.491 452.941 196.543 449.343 196.512 445.746C196.505 444.863 196.35 443.982 196.253 442.988C191.862 442.988 187.706 442.988 183.107 442.988C183.107 448.002 183.092 452.658 183.11 457.313ZM283.845 445.399C283.828 449.227 283.793 453.056 283.847 456.884C284.02 469.365 293.547 478.98 306.071 479.075C321.46 479.191 336.851 479.181 352.239 479.078C362.695 479.008 371.96 471.981 373.642 462.023C374.647 456.072 374.049 449.849 374.158 443.748C374.16 443.631 373.986 443.511 373.733 443.184C369.676 443.184 365.464 443.184 361.1 443.184C361.051 444.27 360.987 445.1 360.982 445.93C360.963 449.452 361.028 452.976 360.937 456.495C360.808 461.518 357.232 465.37 352.557 465.385C337.015 465.435 321.472 465.428 305.929 465.379C301.852 465.366 298.954 463.137 297.824 459.195C297.411 457.754 297.333 456.185 297.306 454.67C297.237 450.797 297.283 446.922 297.283 442.983C292.679 442.983 288.443 442.983 284.033 442.983C283.958 443.914 283.848 444.656 283.845 445.399ZM82.204 445.365C82.161 449.115 82.107 452.866 82.132 456.615C82.217 469.279 91.636 478.952 104.293 479.067C119.755 479.208 135.22 479.206 150.682 479.066C161.76 478.966 170.783 471.25 172.226 460.275C172.938 454.864 172.447 449.294 172.487 443.796C172.488 443.671 172.329 443.546 172.074 443.167C168.025 443.167 163.806 443.167 159.381 443.167C159.317 444.282 159.226 445.179 159.221 446.077C159.202 449.522 159.278 452.968 159.194 456.411C159.061 461.832 155.412 465.394 149.994 465.402C134.914 465.424 119.833 465.422 104.753 465.385C103.555 465.382 102.272 465.259 101.176 464.821C97.31 463.274 95.653 460.152 95.585 456.143C95.511 451.803 95.568 447.461 95.568 442.954C91.111 442.954 86.943 442.954 82.429 442.954C82.34 443.877 82.213 444.62 82.204 445.365Z" fill="#FE9A34"/>
</svg>
