<svg width="500" height="501" viewBox="0 0 500 501" fill="none" xmlns="http://www.w3.org/2000/svg">
<path d="M477.964 24.3389H487.084C492.151 24.3389 495.46 29.6549 493.223 34.2009L286.64 454.092C271.58 484.702 227.747 484.141 213.475 453.156L205.066 434.899L148.317 210.22L246.759 328.929L255.662 340.761C271.766 362.163 304.775 359.085 316.645 335.076L466.874 31.2279C468.959 27.0089 473.258 24.3389 477.964 24.3389Z" fill="url(#paint0_linear_1_10927)"/>
<path d="M205.066 434.899L10.499 42.291L148.317 210.221L205.066 434.899Z" fill="url(#paint1_linear_1_10927)"/>
<path d="M10.499 42.2918L7.31398 37.0958C3.89298 31.5138 7.90998 24.3408 14.457 24.3408H86.09C90.592 24.3408 94.789 26.6148 97.248 30.3848L101.992 37.6588L148.318 210.222L10.499 42.2918Z" fill="url(#paint2_linear_1_10927)"/>
<path d="M101.991 37.6582L250.381 333.743L148.317 210.221L101.991 37.6582Z" fill="url(#paint3_linear_1_10927)"/>
<defs>
<linearGradient id="paint0_linear_1_10927" x1="211.349" y1="130.631" x2="415.8" y2="292.547" gradientUnits="userSpaceOnUse">
<stop stop-color="#3F97EA"/>
<stop offset="1" stop-color="#27BADA"/>
</linearGradient>
<linearGradient id="paint1_linear_1_10927" x1="-1.88878" y1="168.373" x2="138.79" y2="258.45" gradientUnits="userSpaceOnUse">
<stop stop-color="#916FCF"/>
<stop offset="1" stop-color="#4AABF2"/>
</linearGradient>
<linearGradient id="paint2_linear_1_10927" x1="19.2397" y1="-10.1855" x2="122.354" y2="128.266" gradientUnits="userSpaceOnUse">
<stop stop-color="#AC75CE"/>
<stop offset="1" stop-color="#6EA4E9"/>
</linearGradient>
<linearGradient id="paint3_linear_1_10927" x1="112.272" y1="101.251" x2="198.227" y2="252.641" gradientUnits="userSpaceOnUse">
<stop stop-color="#5C8DE3"/>
<stop offset="1" stop-color="#43B3F5"/>
</linearGradient>
</defs>
</svg>
