<svg width="500" height="501" viewBox="0 0 500 501" fill="none" xmlns="http://www.w3.org/2000/svg">
<g clip-path="url(#clip0_1_10932)">
<path d="M250 500.527C388.071 500.527 500 388.599 500 250.527C500 112.456 388.071 0.527344 250 0.527344C111.929 0.527344 0 112.456 0 250.527C0 388.599 111.929 500.527 250 500.527Z" fill="#919AFA"/>
<path d="M396.4 138.727H292.9C289 138.727 285.4 140.927 283.7 144.427L231.5 248.827L177.6 143.927C175.9 140.627 172.6 138.627 168.9 138.627H104.7C101.2 138.627 99 142.327 100.6 145.427L239.4 416.027C244.6 426.227 259.2 426.227 264.3 416.027L401.3 146.527C403 142.927 400.4 138.727 396.4 138.727ZM251.6 413.427L231.8 374.227L345.8 151.827H385L251.6 413.427Z" fill="#3937A8"/>
</g>
<defs>
<clipPath id="clip0_1_10932">
<rect width="500" height="500" fill="white" transform="translate(0 0.527344)"/>
</clipPath>
</defs>
</svg>
