<svg width="500" height="501" viewBox="0 0 500 501" fill="none" xmlns="http://www.w3.org/2000/svg">
<path d="M495.982 249.859C496.029 385.61 386.178 495.52 250.464 495.508C114.779 495.496 4.85492 385.456 4.99892 249.786C5.14292 114.267 115.028 4.50635 250.536 4.52735C386.056 4.54835 495.935 114.375 495.982 249.859ZM113.184 258.354C113.184 270.436 113.184 281.838 113.184 293.567C138.052 293.567 162.685 293.567 187.528 293.567C209.092 343.442 230.569 393.117 252.314 443.41C274.102 393.022 295.556 343.407 317.159 293.448C341.991 293.448 366.739 293.448 391.568 293.448C391.568 281.617 391.568 270.233 391.568 258.415C371.912 258.415 352.493 258.415 332.329 258.415C336.084 249.729 339.562 241.685 343.124 233.447C359.472 233.447 375.496 233.447 391.59 233.447C391.59 221.682 391.59 210.287 391.59 198.549C380.526 198.549 369.675 198.549 358.201 198.549C369.449 172.495 380.474 146.955 391.664 121.035C375.547 121.035 360.077 121.035 344.383 121.035C325.07 166.883 305.793 212.645 286.587 258.238C263.475 258.238 240.86 258.238 218.035 258.238C198.734 212.408 179.458 166.64 160.267 121.072C144.349 121.072 128.884 121.072 112.991 121.072C124.163 146.954 135.184 172.485 146.505 198.711C134.751 198.711 123.918 198.711 113.187 198.711C113.187 210.548 113.187 221.951 113.187 233.676C129.467 233.676 145.512 233.676 161.637 233.676C165.178 241.881 168.613 249.84 172.286 258.352C152.29 258.354 132.87 258.354 113.184 258.354ZM232.997 293.826C239.459 309.157 245.753 324.088 252.324 339.678C258.938 323.953 265.201 309.064 271.61 293.826C258.438 293.826 245.98 293.826 232.997 293.826Z" fill="#2A769A"/>
</svg>
