<svg width="500" height="501" viewBox="0 0 500 501" fill="none" xmlns="http://www.w3.org/2000/svg">
<path d="M495.511 249.434C495.486 385.698 385.012 496.008 248.65 495.767C115.58 495.531 2.86512 388.694 3.00012 249.145C3.13212 112.575 112.696 3.1265 249.374 3.2775C388.916 3.4315 495.457 116.343 495.511 249.434ZM249.359 454.348C264.421 431.22 278.961 408.895 292.873 387.534C313.854 384.46 333.766 381.955 353.521 378.538C375.072 374.81 396.226 369.14 415.629 358.827C423.708 354.533 431.483 348.809 437.761 342.185C447.365 332.052 446.978 319.477 437.54 309.125C432.909 304.046 427.224 299.659 421.352 296.034C408.406 288.044 394.166 282.984 379.394 279.385C375.075 278.333 370.852 276.884 365.688 275.352C394.868 230.301 423.284 186.428 452.303 141.624C427.214 141.624 403.506 141.624 379.349 141.624C336.211 208.167 293.081 274.695 249.242 342.318C205.502 274.864 162.244 208.153 119.184 141.748C94.8891 141.748 71.2161 141.748 46.3351 141.748C74.9751 186.614 103.813 230.034 132.079 274.727C128.94 275.632 127.317 276.283 125.632 276.557C109.738 279.151 94.6361 284.463 80.4951 291.827C71.8671 296.32 63.4631 302.167 56.7001 309.103C46.3921 319.673 46.7141 332.992 57.2481 343.383C63.7541 349.801 71.5251 355.734 79.8321 359.353C94.4101 365.705 109.592 371.024 124.963 375.12C148.041 381.269 171.731 384.549 195.607 385.875C202.232 386.243 206.686 388.363 210.365 394.379C220.993 411.756 232.382 428.668 243.493 445.75C245.199 448.372 247.018 450.923 249.359 454.348ZM248.21 309.206C287.241 247.016 325.76 185.641 364.532 123.863C287.181 123.863 211.132 123.863 133.95 123.863C172.271 186.022 209.989 247.207 248.21 309.206ZM144.952 294.001C140.405 295.677 136.145 296.729 132.406 298.747C126.847 301.749 121.171 304.872 116.442 308.978C111.309 313.434 111.516 317.633 116.291 322.482C119.09 325.324 122.472 327.805 126 329.682C141.759 338.066 158.902 341.826 177.903 344.884C166.492 327.263 155.863 310.85 144.952 294.001ZM321.244 343.79C335.33 341.707 347.506 338.538 359.164 333.624C364.461 331.391 369.728 328.715 374.352 325.339C382.844 319.141 382.995 312.424 374.501 306.427C368.208 301.984 361.003 298.832 353.176 294.54C342.195 311.478 332.155 326.962 321.244 343.79Z" fill="black"/>
</svg>
