<svg width="500" height="501" viewBox="0 0 500 501" fill="none" xmlns="http://www.w3.org/2000/svg">
<path d="M249.5 496.927C385.859 496.927 496.4 386.386 496.4 250.027C496.4 113.668 385.859 3.12695 249.5 3.12695C113.141 3.12695 2.59961 113.668 2.59961 250.027C2.59961 386.386 113.141 496.927 249.5 496.927Z" fill="#3EC0CE"/>
<path d="M154.6 422.128C148.6 422.128 142.6 419.928 137.9 415.528C132.8 410.828 130.1 404.028 130.1 397.028V98.4276C130.1 85.1276 140.5 73.7276 153.8 73.3276C167.7 72.8276 179.1 84.0276 179.1 97.8276V351.428C179.1 353.128 181 354.228 182.5 353.328L232 324.728C232.7 324.328 233.1 323.628 233.1 322.828V154.528C233.1 147.728 235.6 141.128 240.5 136.428C248.7 128.528 260.7 127.328 270 132.828L427.9 225.528C433.7 228.928 438.1 234.328 439.7 240.828C442.4 251.728 437.5 262.728 428.2 268.128L166.9 418.828C163.1 421.028 158.9 422.128 154.6 422.128ZM282.2 200.628V291.928C282.2 293.628 284.1 294.728 285.6 293.828L364 248.628C365.5 247.728 365.5 245.628 364 244.728L285.6 198.728C284.1 197.828 282.2 198.928 282.2 200.628Z" fill="white"/>
</svg>
