<svg width="500" height="501" viewBox="0 0 500 501" fill="none" xmlns="http://www.w3.org/2000/svg">
<path d="M476.2 154.928C470.7 142.028 464.2 129.628 456.7 117.928C456 116.328 455 114.828 453.8 113.528C445 100.428 434.9 88.1277 423.6 76.8277C401.1 54.3277 374.8 36.6277 345.6 24.2277C315.3 11.4277 283.1 4.92773 250 4.92773C216.9 4.92773 184.7 11.4277 154.4 24.2277C125.2 36.6277 98.9004 54.3277 76.4004 76.8277C53.9004 99.3277 36.2004 125.628 23.8004 154.828C10.9004 185.228 4.40039 217.428 4.40039 250.528C4.40039 283.628 10.9004 315.828 23.7004 346.128C36.1004 375.328 53.8004 401.628 76.3004 424.128C98.8004 446.628 125.1 464.328 154.3 476.728C184.6 489.528 216.8 496.028 249.9 496.028C283 496.028 315.2 489.528 345.5 476.728C374.7 464.328 401 446.628 423.5 424.128C446 401.628 463.7 375.328 476.1 346.128C488.9 315.828 495.4 283.628 495.4 250.528C495.6 217.428 489.1 185.228 476.2 154.928ZM250 38.2277C319.7 38.2277 381.6 71.8277 420.3 123.728C408.6 135.628 384.8 155.928 353.4 162.528C350 163.228 346.7 163.928 343.5 164.428C340.3 156.828 337.2 150.128 334.3 144.728C325.3 127.428 308 107.728 286.6 104.528C273.9 102.628 261.6 106.928 252.1 116.528C243.2 125.528 239.1 137.328 240.6 149.828C242.4 165.128 252.9 180.428 267.9 189.828C283.1 199.328 302.4 201.528 321.1 200.628C329.8 230.828 333.7 270.328 314.1 307.128C303.6 326.928 289.5 344.428 273.5 357.528C262.3 366.728 252.9 371.728 246.6 374.328C244 375.428 241.1 374.028 240.2 371.428C238.4 365.828 236 358.628 233.6 351.628C232.4 348.128 231.3 344.728 230.3 341.828C223 319.928 205.9 268.528 172.1 218.628C141.7 173.728 93.7004 133.828 80.2004 123.128C119 71.5277 180.6 38.2277 250 38.2277ZM308.5 167.328C298.7 166.828 290.9 164.928 285.4 161.528C279.1 157.628 274.2 151.128 273.6 145.828C273.3 143.428 274 141.728 275.8 139.828C277.9 137.728 279.4 137.228 280.7 137.228C281.1 137.228 281.4 137.228 281.7 137.328C287.8 138.228 297.8 146.328 304.9 160.028C305.9 162.128 307.2 164.528 308.5 167.328ZM250 462.828C132.7 462.828 37.7004 367.728 37.7004 250.528C37.7004 214.628 46.6004 180.828 62.3004 151.228C77.5004 163.628 118.8 199.028 144.6 237.128C175.8 283.228 191.3 329.828 198.8 352.128C199.8 355.028 200.9 358.428 202.1 362.028C205.3 371.428 209.2 383.228 210.7 388.028C214.6 401.228 226.6 409.828 239.8 409.828C242.2 409.828 244.7 409.528 247.2 408.928C268.8 403.528 313.4 379.228 343.5 322.428C360.8 289.828 365.6 252.628 357.9 211.728C356.9 206.328 355.7 201.128 354.4 196.028C356.5 195.628 358.5 195.228 360.4 194.828C395.5 187.428 422.5 167.228 438.5 152.328C453.8 181.628 462.5 215.028 462.5 250.428C462.3 367.828 367.3 462.828 250 462.828Z" fill="#02AD52"/>
</svg>
