<svg width="500" height="501" viewBox="0 0 500 501" fill="none" xmlns="http://www.w3.org/2000/svg">
<path d="M332.6 251.327H250.1C250.1 252.327 250.2 253.327 250.2 254.327C250.2 299.427 213.6 336.027 168.5 336.027C123.4 336.027 86.8002 299.427 86.8002 254.327C86.8002 209.227 123.4 172.627 168.5 172.627C175 172.627 181.3 173.427 187.4 174.827C202 148.527 223.7 126.627 249.8 111.727C225.8 98.0271 198.1 90.1271 168.5 90.1271C77.8002 90.0271 4.2002 163.727 4.2002 254.327C4.2002 344.927 77.8002 418.527 168.4 418.527C259 418.527 332.7 344.827 332.7 254.227C332.7 253.227 332.6 252.327 332.6 251.327Z" fill="#4CAFE4"/>
<path d="M330.9 90.0273C241.1 90.0273 168 162.427 166.7 251.927H249.2C250.5 207.927 286.5 172.527 330.9 172.527C376 172.527 412.6 209.127 412.6 254.227C412.6 299.327 376 335.927 330.9 335.927C324.4 335.927 318.1 335.127 312 333.727C297.4 360.027 275.7 381.927 249.6 396.827C273.6 410.527 301.3 418.427 330.9 418.427C421.5 418.427 495.2 344.727 495.2 254.127C495.2 163.527 421.5 90.0273 330.9 90.0273Z" fill="#A5E0FE"/>
</svg>
