<svg width="500" height="501" viewBox="0 0 500 501" fill="none" xmlns="http://www.w3.org/2000/svg">
<path d="M497.1 250.527C497.1 387.027 386.5 497.627 250 497.627C248.5 497.627 246.9 497.627 245.4 497.527C186.1 496.427 131.9 474.527 89.7998 438.727C36.5998 393.427 2.7998 325.927 2.7998 250.527C2.8998 114.127 113.5 3.52734 250 3.52734C386.5 3.52734 497.1 114.127 497.1 250.527Z" fill="#DB1472"/>
<path d="M387.5 317.827C388.1 320.227 402.4 361.327 347.8 368.827C305.7 374.627 287.6 348.127 287.6 348.127C287.6 348.127 276.2 362.427 246.3 362.427C216.9 362.427 194.9 337.827 194.1 336.827C194.7 337.927 213.6 374.427 243.5 376.527C262.2 377.827 268.9 372.927 269.3 372.727C268.9 373.527 257.1 399.227 252.7 424.327C248.3 449.827 246.5 472.627 245.9 486.827C245.7 492.227 245.5 495.527 245.5 497.627C186.2 496.527 132 474.627 89.9004 438.827C93.4004 426.627 98.8004 406.827 104.1 384.827C113 347.627 121.4 297.927 138.3 257.027C153.3 220.627 164.2 207.027 164.2 207.027C164.2 207.027 157.6 179.427 163.8 148.627C170 117.827 187.5 90.627 208.2 90.627C228.9 90.627 228.4 108.627 226.7 125.327C224.9 142.027 218.8 161.827 215.7 171.527C212.6 181.227 210.9 184.327 210.9 184.327C210.9 184.327 240.4 185.227 244.5 182.527C248.7 179.827 254.9 173.327 259.9 164.427C264.9 155.527 276.8 134.227 285.4 123.227C294 112.227 303.8 104.827 310.9 102.227C318 99.527 319.5 101.027 320.7 104.027C321.9 107.027 327.8 118.827 324.3 132.227C320.7 145.527 313.6 158.327 300.6 175.527C287.6 192.727 283.1 199.527 283.1 199.527C283.1 199.527 292.6 203.627 307.4 213.127C322.2 222.627 327.3 226.727 327.6 231.827C327.9 236.827 327.6 241.927 329.7 243.127C331.8 244.327 347.8 254.127 366.5 271.527C385.2 289.027 391.4 298.227 391.7 300.627C392 303.027 391.1 307.427 389.6 311.027C387.8 314.327 386.9 315.527 387.5 317.827Z" fill="white"/>
<path d="M192 214.828C192 214.828 184.9 214.228 179.8 200.428C174.7 186.628 175.1 164.628 180.1 150.028C185.1 135.428 192.1 125.128 198.9 125.628C204.8 126.128 209.7 130.728 208.5 140.828C207.3 150.928 203.4 158.328 196.9 175.428C190.4 192.528 190 197.128 190.1 203.528C190.3 209.928 192 214.828 192 214.828Z" fill="#DB1472"/>
<path d="M211.6 261.628C211.6 261.628 213.9 263.428 219 263.428C224.1 263.428 237.7 252.728 251.1 252.728C264.4 252.728 278.6 274.528 278.6 274.528C278.6 274.528 272.6 267.928 261.7 267.928C250.8 267.928 249 274.628 233.8 274.628C218.5 274.628 211.6 261.628 211.6 261.628Z" fill="#DB1472"/>
<path d="M376.5 311.328C376.5 311.328 369.6 298.928 358.4 298.928C347.2 298.928 347.7 304.428 347.7 305.828C347.7 307.228 348.8 310.228 354.6 310.228C360.4 310.228 372.4 309.328 376.5 311.328Z" fill="#DB1472"/>
</svg>
