<svg width="500" height="501" viewBox="0 0 500 501" fill="none" xmlns="http://www.w3.org/2000/svg">
<g clip-path="url(#clip0_1_10971)">
<path d="M44.5 197.727L0 167.127H133.5L208.6 289.227L153 258.727L116.8 317.027H236.4V436.327H127.3C110.6 436.327 95.4 427.027 87.7 412.327L19.6 280.527C12.6 266.927 13 250.727 20.8 237.627L44.5 197.727Z" fill="#4E529A"/>
<path d="M44.5 197.727L0 167.127H133.5L208.6 289.227L153 258.727L116.8 317.027C99.7 346.427 80.9 381.827 87.7 412.327L19.6 280.527C12.6 266.927 13 250.727 20.8 237.627L44.5 197.727Z" fill="#8C8DFC"/>
<path d="M395.1 66.227L442.7 40.727L381.6 159.127L238.4 169.827L291.1 134.427L255.7 75.727L200.9 181.827L94.6001 127.127L144.6 30.327C152.2 15.527 167.5 6.22695 184.1 6.22695L332.7 6.12695C348 6.12695 362.2 13.927 370.4 26.927L395.1 66.227Z" fill="#4E529A"/>
<path d="M395.1 66.2266L442.7 40.7266L381.6 159.127L238.4 169.827L291.1 134.427L255.7 75.7266C237.4 47.0266 214.4 14.1266 184.1 6.32656L332.7 6.22656C348 6.22656 362.2 14.0266 370.4 27.0266L395.1 66.2266Z" fill="#8C8DFC"/>
<path d="M328.3 441.127L324.1 494.827L257.3 379.527L325.7 253.627L327 316.927L395.7 319.027L335.9 215.727L439.5 156.027L494.1 250.327C502.4 264.727 502 282.527 493 296.527L412.7 421.227C404.4 434.027 390.1 441.727 374.8 441.627L328.3 441.127Z" fill="#6E5795"/>
<path d="M328.3 441.127L324.1 494.827L257.3 379.527L325.7 253.627L327 316.927L395.7 319.027C429.8 319.127 470 317.627 493 296.527L412.7 421.227C404.4 434.027 390.1 441.727 374.8 441.627L328.3 441.127Z" fill="#CC99FF"/>
</g>
<defs>
<clipPath id="clip0_1_10971">
<rect width="500" height="500" fill="white" transform="translate(0 0.527344)"/>
</clipPath>
</defs>
</svg>
