<svg width="500" height="501" viewBox="0 0 500 501" fill="none" xmlns="http://www.w3.org/2000/svg">
<path d="M144 52.3271H8.90006C4.00006 52.3271 1.00006 57.7272 3.60006 61.9272L244.7 450.027C247.1 453.927 252.9 453.927 255.3 450.027L324.4 338.827C325.7 336.827 325.7 334.227 324.4 332.127L149.4 55.3271C148.2 53.4271 146.2 52.3271 144 52.3271Z" fill="#FF8835"/>
<path d="M491.1 52.3271H313.1C308.2 52.3271 305.2 57.7272 307.8 61.9272L397.5 204.127C400 208.027 405.7 208.027 408.1 204.127L496.4 61.9272C499 57.7272 496 52.3271 491.1 52.3271Z" fill="#FF8835"/>
</svg>
