<svg width="500" height="501" viewBox="0 0 500 501" fill="none" xmlns="http://www.w3.org/2000/svg">
<path d="M256.648 495.215C252.066 495.215 247.484 495.215 242.902 495.215C241.69 495.069 240.481 494.838 239.265 494.789C222.7 494.132 206.393 491.706 190.297 487.764C88.251 462.773 12.461 372.706 5.245 267.836C4.943 263.44 4.617 259.047 4.302 254.652C4.302 251.379 4.302 248.106 4.302 244.833C4.459 243.132 4.696 241.435 4.761 239.731C5.274 226.299 6.912 213.009 9.654 199.85C32.024 92.4655 122.836 12.9325 231.917 5.20053C236.396 4.88253 240.877 4.57953 245.356 4.26953C248.465 4.26953 251.575 4.26953 254.684 4.26953C256.06 4.41353 257.435 4.57953 258.813 4.69753C266.713 5.37253 274.658 5.70653 282.507 6.75653C329.076 12.9865 370.393 31.2985 406.615 61.1755C407.234 61.6855 407.805 62.2535 408.498 62.8865C339.975 160.887 271.53 258.777 203.04 356.731C214.602 372.025 225.787 387.357 237.583 402.204C243.729 409.939 255.829 410.972 262.712 401.073C279.38 377.104 296.34 353.339 313.184 329.493C361.403 261.227 409.623 192.961 457.844 124.697C458.325 124.016 458.841 123.36 459.394 122.621C459.719 123.036 459.835 123.155 459.918 123.293C478.65 154.471 489.933 188.147 493.708 224.321C494.352 230.49 494.74 236.686 495.246 242.869C495.246 247.451 495.246 252.033 495.246 256.615C495.094 257.904 494.858 259.189 494.804 260.482C493.81 283.912 489.482 306.713 481.951 328.913C450.452 421.771 366.111 487.068 268.356 494.285C264.453 494.574 260.551 494.904 256.648 495.215ZM244.631 281.014C226.901 257.913 209.239 234.901 191.819 212.204C159.025 212.204 126.638 212.204 93.702 212.204C128.387 257.989 162.72 303.309 197.231 348.863C213.182 326.031 228.861 303.587 244.631 281.014ZM105.969 243.734C99.746 235.484 93.869 227.691 87.799 219.643C80.566 227.684 73.541 235.494 66.129 243.734C79.719 243.734 92.565 243.734 105.969 243.734Z" fill="#1A5C2E"/>
<path d="M244.631 281.013C228.861 303.586 213.182 326.03 197.231 348.863C162.721 303.309 128.387 257.988 93.702 212.204C126.637 212.204 159.024 212.204 191.819 212.204C209.238 234.899 226.901 257.912 244.631 281.013Z" fill="white"/>
<path d="M105.969 243.734C92.565 243.734 79.719 243.734 66.129 243.734C73.54 235.495 80.566 227.684 87.799 219.643C93.869 227.692 99.747 235.484 105.969 243.734Z" fill="white"/>
<path d="M255.192 4.32422C256.399 4.45422 257.604 4.59422 258.813 4.69722C266.713 5.37222 274.658 5.70622 282.507 6.75622C329.076 12.9862 370.393 31.2982 406.615 61.1752C407.233 61.6852 407.805 62.2532 408.498 62.8862C339.975 160.886 271.531 258.776 203.04 356.73C214.602 372.024 225.787 387.356 237.583 402.203C243.729 409.938 255.829 410.971 262.712 401.072C279.38 377.103 296.34 353.338 313.184 329.492C361.403 261.226 409.623 192.96 457.844 124.696C458.325 124.015 458.841 123.359 459.394 122.62C459.719 123.035 459.835 123.154 459.918 123.292C478.65 154.47 489.933 188.146 493.708 224.32C494.3 229.988 494.679 235.679 495.128 241.362C491.304 111.208 385.728 6.60422 255.192 4.32422Z" fill="white"/>
</svg>
