<svg width="500" height="501" viewBox="0 0 500 501" fill="none" xmlns="http://www.w3.org/2000/svg">
<g clip-path="url(#clip0_1_10990)">
<path d="M250 473.228C212.4 473.228 177.1 458.528 150.5 432.028L41.1 322.728C-13.7 267.828 -13.7 178.628 41.1 123.728L95.8 69.0275C122.4 42.4275 157.8 27.7275 195.4 27.7275H304.7C342.3 27.7275 377.6 42.4275 404.2 68.9275L458.9 123.628C513.7 178.428 513.7 267.728 458.9 322.628L349.5 432.028C323 458.628 287.6 473.228 250 473.228ZM195.4 71.9275C169.6 71.9275 145.4 81.9275 127.2 100.228L72.4 154.928C34.8 192.528 34.8 253.728 72.4 291.428L181.7 400.728C199.9 418.928 224.2 429.028 249.9 429.028C275.7 429.028 299.9 419.028 318.1 400.728L427.4 291.428C465 253.828 465 192.628 427.4 154.928L372.7 100.228C354.5 82.0275 330.2 71.9275 304.5 71.9275H195.4Z" fill="#0E0037"/>
<path d="M250 407.527C227.9 407.527 207 398.927 191.4 383.227L92.5 284.427C60.2 252.127 60.2 199.627 92.5 167.227L142 117.827C157.7 102.127 178.5 93.627 200.6 93.627H299.4C321.5 93.627 342.4 102.227 358 117.927L407.5 167.427C439.8 199.727 439.8 252.227 407.5 284.627L308.7 383.327C293 398.927 272.1 407.527 250 407.527ZM200.6 137.727C190.3 137.727 180.6 141.727 173.3 149.027L123.8 198.527C108.8 213.527 108.8 238.027 123.8 253.227L222.6 352.027C237.2 366.627 262.7 366.627 277.3 352.027L376.1 253.227C391.1 238.227 391.1 213.727 376.1 198.527L326.6 149.027C319.3 141.727 309.6 137.727 299.3 137.727H200.6Z" fill="#0E0037"/>
<path d="M250 342.828L136.6 229.328L207.8 158.228H292.3L363.5 229.328L250 342.828Z" fill="#0E0037"/>
</g>
<defs>
<clipPath id="clip0_1_10990">
<rect width="500" height="500" fill="white" transform="translate(0 0.527344)"/>
</clipPath>
</defs>
</svg>
