<svg width="500" height="501" viewBox="0 0 500 501" fill="none" xmlns="http://www.w3.org/2000/svg">
<path fill-rule="evenodd" clip-rule="evenodd" d="M249.9 65.2273C149.4 65.2273 67.6 148.327 67.6 250.527C67.6 352.727 149.4 435.827 250 435.827C350.6 435.827 432.3 352.727 432.3 250.527C432.3 148.327 350.5 65.2273 249.9 65.2273ZM249.9 499.527C114.8 499.527 4.90002 387.827 4.90002 250.527C4.90002 113.227 114.8 1.52734 249.9 1.52734C385 1.52734 495.1 113.227 495.1 250.527C495 387.827 385.1 499.527 249.9 499.527Z" fill="#FF5847"/>
<path fill-rule="evenodd" clip-rule="evenodd" d="M195.7 250.528L250 305.728L304.3 250.528L250 195.328L195.7 250.528ZM249.9 382.728C241.6 382.728 233.6 379.428 227.7 373.428L129 273.128C116.8 260.728 116.8 240.528 129 228.028L227.8 127.728C240 115.328 259.9 115.328 272.2 127.728L371 228.028C383.2 240.428 383.2 260.628 371 273.128L272.2 373.428C266.2 379.328 258.3 382.728 249.9 382.728Z" fill="#FF5847"/>
</svg>
