<svg width="500" height="501" viewBox="0 0 500 501" fill="none" xmlns="http://www.w3.org/2000/svg">
<g clip-path="url(#clip0_1_10997)">
<path d="M246.4 471.628C368.786 471.628 468 372.414 468 250.028C468 127.641 368.786 28.4277 246.4 28.4277C124.014 28.4277 24.8 127.641 24.8 250.028C24.8 372.414 124.014 471.628 246.4 471.628Z" fill="black"/>
<path d="M246.4 28.4277C368.8 28.4277 468 127.628 468 250.028C468 372.428 368.8 471.628 246.4 471.628C124 471.628 24.9 372.428 24.9 250.028C24.9 127.628 124.1 28.4277 246.4 28.4277ZM246.4 1.42773C212.9 1.42773 180.3 8.02773 149.6 20.9277C120 33.4277 93.4 51.3277 70.6 74.2277C47.8 97.0277 29.9 123.628 17.3 153.228C4.40002 183.928 -2.09998 216.528 -2.09998 250.028C-2.09998 283.528 4.50002 316.128 17.4 346.828C29.9 376.428 47.8 403.028 70.7 425.828C93.6 448.628 120.1 466.528 149.7 479.128C180.4 492.128 212.9 498.628 246.5 498.628C280.1 498.628 312.6 492.028 343.3 479.128C372.9 466.628 399.5 448.728 422.3 425.828C445.1 403.028 463 376.428 475.6 346.828C488.6 316.128 495.1 283.628 495.1 250.028C495.1 216.428 488.5 183.928 475.6 153.228C463.1 123.628 445.2 97.0277 422.3 74.2277C399.5 51.4277 372.9 33.5277 343.3 20.9277C312.5 8.02773 280 1.42773 246.4 1.42773Z" fill="#00D8FF"/>
<path d="M80.4 190.827H112.4L172.7 323.227L233.4 190.827H258.8L318.3 323.227L379.2 190.827H411.8L331.3 365.327H305.6L246.1 232.827L185 365.327H160.4L80.4 190.827Z" fill="white"/>
<path d="M78.2 162.527V144.327H417.1V151.127H209L197.7 162.527H78.2Z" fill="#FF104D"/>
</g>
<defs>
<clipPath id="clip0_1_10997">
<rect width="500" height="500" fill="white" transform="translate(0 0.527344)"/>
</clipPath>
</defs>
</svg>
