<svg width="500" height="501" viewBox="0 0 500 501" fill="none" xmlns="http://www.w3.org/2000/svg">
<path d="M250 222.527L34.4001 349.127V418.727L250 292.127L465.6 418.727V349.127L250 222.527Z" fill="#1269AB"/>
<path d="M97.4001 145.727L250 57.6273L402.6 145.727L459.6 122.527L250 1.52734L40.4001 122.527L97.4001 145.727Z" fill="#3FBCED"/>
<path d="M402.6 160.427V355.327L380 368.427L428.1 396.727L465.6 375.027V134.827L402.6 160.427ZM120 368.427L97.1 355.227V160.427L34.3 134.927V375.127L71.8001 396.827L120 368.427Z" fill="#1269AB"/>
<path d="M366.5 376.227L250 443.427L133.5 376.127L85.4001 404.427L250 499.527L414.7 404.427L366.5 376.227Z" fill="#3FBCED"/>
</svg>
