<svg width="500" height="501" viewBox="0 0 500 501" fill="none" xmlns="http://www.w3.org/2000/svg">
<g clip-path="url(#clip0_1_11008)">
<path fill-rule="evenodd" clip-rule="evenodd" d="M76.4 392.827C55.4 392.827 38.7 375.227 38.7 353.927V39.4273C38.7 18.0273 55.4 0.527344 76.4 0.527344C97.4 0.527344 114.1 18.0273 114.1 39.4273V353.927C114.1 375.327 97.4 392.827 76.4 392.827Z" fill="#62D066"/>
<path fill-rule="evenodd" clip-rule="evenodd" d="M287.7 461.627C287.7 482.927 270.9 500.527 250 500.527C229 500.527 212.3 482.927 212.3 461.627V114.427C212.3 93.1273 229.1 75.5273 250 75.5273C271 75.5273 287.7 93.1273 287.7 114.427V461.627Z" fill="#62D066"/>
<path fill-rule="evenodd" clip-rule="evenodd" d="M423.6 398.727C402.6 398.727 385.9 381.127 385.9 359.827V39.4273C385.9 18.0273 402.7 0.527344 423.6 0.527344C444.6 0.527344 461.3 18.0273 461.3 39.4273V359.827C461.3 381.127 444.6 398.727 423.6 398.727Z" fill="#62D066"/>
</g>
<defs>
<clipPath id="clip0_1_11008">
<rect width="500" height="500" fill="white" transform="translate(0 0.527344)"/>
</clipPath>
</defs>
</svg>
