<svg width="500" height="501" viewBox="0 0 500 501" fill="none" xmlns="http://www.w3.org/2000/svg">
<g clip-path="url(#clip0_1_11012)">
<path d="M249.9 500.227C387.861 500.227 499.7 388.388 499.7 250.427C499.7 112.466 387.861 0.626953 249.9 0.626953C111.939 0.626953 0.100098 112.466 0.100098 250.427C0.100098 388.388 111.939 500.227 249.9 500.227Z" fill="url(#paint0_linear_1_11012)"/>
<path d="M148.9 349.528C149 348.928 149.1 348.328 149.1 347.728C149 347.728 148.9 347.728 148.9 347.728V349.528Z" fill="#E02155"/>
<path d="M322.4 489.728C321.5 490.028 320.6 490.328 319.6 490.528C297.4 497.028 273.8 500.528 249.5 500.528C215.8 500.528 183.6 493.828 154.2 481.728C154 481.628 153.8 481.528 153.6 481.528C152.9 481.228 152.2 480.928 151.5 480.628C151 480.428 150.5 480.228 150 480.028C150.5 478.828 151.1 477.228 151.1 477.128C152.9 474.228 152.9 471.228 152.5 467.928C152 463.728 151.9 459.428 151.7 455.128C152.1 454.428 152.1 453.528 151.7 452.628C151.7 452.528 151.6 452.428 151.6 452.328C151.6 452.028 151.6 451.628 151.6 451.328C151.7 451.028 151.8 450.728 151.8 450.528C151.9 450.428 151.9 450.328 152 450.228C155.3 443.828 154.5 436.228 153.6 429.428C153.5 429.028 153.5 428.628 153.4 428.128C153.9 424.128 154.2 420.128 154.5 416.028C154.8 412.228 155 408.428 155.1 404.628V404.528C155.1 403.428 155.2 402.328 155.2 401.228C155.6 399.728 156 398.128 156.2 396.528C156.7 393.128 156.8 389.628 157.3 386.428C158.3 379.428 163.6 373.528 162.2 366.328C164 361.728 165.9 357.128 167.8 352.528C169.6 348.128 172.3 341.628 170.8 336.628L174.8 336.228L191.5 334.628L217.5 323.628L238.4 306.528L256.4 270.128L272.9 249.928L278.4 258.828L280.7 262.628L281.9 264.628L283.3 265.728L292.2 272.828L298.4 283.928L299.9 286.628L307.1 302.728L309.2 307.728L313.7 318.128L315.5 327.028L317.7 338.228L319.4 352.328L319.7 355.028L320 356.728C319.8 356.828 319.6 356.828 319.4 356.928C318.7 357.328 318.1 358.028 318.1 359.128C318.1 364.928 318.4 370.728 318.5 376.628C318.5 377.228 318.5 377.928 318.5 378.528C318.5 382.128 318.3 385.728 318.1 389.328C318 391.628 317.9 393.928 317.8 396.228C317.5 399.428 317.5 402.628 317.5 405.828C317.5 406.728 317.5 407.628 317.6 408.628C317.5 408.828 317.5 409.128 317.5 409.328C317.2 413.828 316.8 418.328 316.7 422.828C316.7 424.528 316.7 426.228 316.7 427.928C316.8 430.628 317.1 433.328 317.3 436.128C317.4 438.528 317.5 440.828 318.3 443.128C318.3 443.228 318.4 443.328 318.4 443.428C318.7 447.028 319.2 450.528 319.7 454.228C320.4 459.728 319.5 465.328 320.2 470.828C320.6 473.728 320.8 478.728 321.3 483.328C321.3 483.328 321.3 483.328 321.3 483.428C321.7 485.628 322 487.928 322.4 489.728Z" fill="#E02155"/>
<path d="M175.2 335.027L175 336.127L174.7 337.927C174.3 338.127 173.9 338.527 173.7 339.127C167.9 352.527 165.2 366.927 161.4 381.027C160.2 385.627 158.5 390.027 157 394.527C156.8 395.227 156.5 395.927 156.3 396.627C155.5 399.227 154.7 402.027 155.2 404.627V404.727C155.1 405.027 155.1 405.427 155 405.827C154.7 409.227 154.5 412.727 154.5 416.227C154.5 420.927 154.7 425.627 154.8 430.227C155 438.027 155 445.827 154.9 453.727C154.8 457.427 154.9 461.127 154.4 464.827C154.1 467.427 152.1 476.027 151.5 480.727C151 480.527 150.5 480.327 150 480.127C149.5 479.927 149 479.727 148.5 479.427C143.2 477.127 138 474.627 132.9 471.927C131.4 471.127 130 470.327 128.5 469.527L129.1 465.427L140.1 411.027L145.5 390.427L156.1 337.027L175.2 335.027Z" fill="#2DB990"/>
<path d="M322 173.028C313.3 173.228 305.2 178.228 296.5 179.428C290.7 180.228 278.7 179.628 277.1 172.028C275.7 165.428 284.3 163.528 289.1 162.828C297.7 161.628 306.6 162.228 315.3 162.228C317.1 162.228 318.3 163.028 318.9 164.228C319.9 164.128 321 164.028 322.1 163.928C328 163.828 327.8 172.828 322 173.028ZM382 371.528C380.8 367.228 379.5 363.028 378.5 358.728C376.7 351.428 376.7 344.228 376.7 336.728V326.728L374.7 337.028L370.7 245.328L370.1 221.928C367.4 208.328 367.7 194.028 363.6 180.628C363 178.628 361.5 176.428 363.2 176.428L362.3 156.228L344.9 111.828C313.9 61.1278 239 79.1278 239 79.1278C184.9 80.3278 167.3 117.328 161.6 138.828C161 141.028 160.5 143.028 160.2 144.928C159.1 150.428 158.9 153.928 158.9 153.928L173.9 153.828L180.8 158.128L184 162.028V170.328L178.5 176.128L163.5 178.228H152L149.6 186.728V209.728L152 229.028L168 213.128L186.7 197.228L197.8 191.528H208.2L218.1 194.528L228.3 196.328L233.4 203.928L241 211.828L253.2 217.728L265.4 223.428L277.9 230.228L281.8 235.628V242.128L277 252.628C277.3 253.028 277.4 253.428 277.5 254.028C277.6 255.628 278.1 257.228 278.8 258.728C279.3 259.728 279.3 259.728 278.8 258.728C279.4 260.028 280.2 261.328 281.1 262.528C281.9 263.628 282.8 264.628 283.7 265.628C284.4 266.428 285.2 267.228 285.9 267.928C288.9 270.928 291.1 274.628 293.4 278.228C294 278.728 294.5 279.228 295.1 279.828C296.4 281.128 297.6 282.528 298.8 283.928C299.6 284.828 299.6 284.828 298.8 283.928C304.4 290.828 308.1 299.028 309.7 307.728C310 309.228 310.2 310.728 310.3 312.228V312.328C312.8 318.028 314.5 322.828 315.9 327.028C316.6 329.228 317.3 331.328 317.9 333.228C319.3 337.728 319.8 344.728 319.7 352.328C319.7 353.828 319.7 355.428 319.6 356.928C319.4 363.728 319 370.728 318.7 376.628C318.4 381.228 318.2 385.228 318.3 387.928C318.3 388.328 318.3 388.828 318.3 389.328C318.4 400.928 317.8 423.028 317 422.828H316.9C312.7 422.128 318.7 464.528 321.5 483.328C321.5 483.328 321.5 483.328 321.5 483.428C321.9 486.128 322.3 488.328 322.5 489.928C323.6 489.628 324.6 489.328 325.7 488.928C346.1 482.428 365.3 473.428 383 462.228C384.2 461.428 385.5 460.628 386.7 459.828L382 371.528Z" fill="#2DB990"/>
<path d="M279.6 235.928L275.2 228.828C275.2 228.828 260.1 221.828 258.7 220.428C257.4 218.928 243.8 208.328 243.8 208.328L232.1 198.528L223.1 194.728L217.6 192.628L210.4 196.828C210.4 196.828 208.1 191.428 203.6 190.028C199.1 188.628 183.6 197.628 183.6 197.628L177 200.728C177 201.428 176.7 202.028 176.2 202.528C174.9 203.728 173.4 204.428 171.9 205.028C171.2 205.728 170.5 206.428 170.1 206.828C168.9 208.128 167.6 209.428 166.8 210.928C165.8 212.828 164.6 214.428 162.3 214.728C159.7 215.028 158 213.328 155.7 212.428C155 212.128 154.6 211.728 154.3 211.228L147.1 214.528C147.1 214.528 145.7 216.828 143.4 220.528V220.628C143.7 223.028 143.6 225.228 143.1 227.428C144.1 227.428 145.2 227.928 145.6 228.828C148.9 235.128 143.7 241.928 139.9 246.728C138 249.028 136 251.228 134.1 253.528C130.6 259.728 126 268.728 117.7 268.128C116.7 268.028 115.9 267.528 115.5 266.828C114.9 267.228 114.4 267.628 113.8 268.128C113.6 268.328 113.4 268.428 113.2 268.628C106 279.728 99.4001 289.428 95.7001 294.028C83.8001 308.428 87.2001 314.028 87.2001 314.028L90.4001 320.828L101.6 323.428V324.328C104 324.428 106.2 324.928 108.3 325.828C110.1 326.328 112 326.828 113.8 327.328C118.6 328.428 123.4 327.828 128.2 328.828C132.9 329.728 137.2 331.828 142 332.228C147.1 332.628 152.3 332.628 157.5 332.928C168.1 333.328 178.4 333.428 188.9 331.728C196.3 330.528 203.7 328.728 210.9 326.828L217.8 323.528L222.6 321.428C226.5 318.128 231.1 315.728 235.1 312.328C235.8 311.728 236.5 311.128 237.1 310.428L239.7 307.528C243.2 303.128 245.9 297.828 247.6 292.528C248 291.228 249.1 290.628 250.2 290.628C250.7 288.928 251.1 287.228 251.6 285.428C252.5 281.828 254.1 278.628 255.9 275.328C257.2 273.028 258.5 270.728 259.9 268.528C261.2 265.428 262.4 262.428 263.7 259.328C265 256.328 267.2 254.128 269.7 252.128C270.2 251.628 270.8 251.528 271.4 251.428C273.3 247.928 275.8 244.828 278 241.628C278.5 240.828 279.3 240.528 280 240.428L279.6 235.928Z" fill="white"/>
<path d="M304.7 181.627H293.2L279.6 176.127L273.2 170.327C273.2 170.327 275.9 162.527 277.8 162.127C279.6 161.727 294.9 159.627 294.9 159.627H321.1C321.1 159.627 328 162.227 328.5 164.727C329 167.227 326.5 173.727 326.5 173.727L319.1 176.227L304.7 181.627Z" fill="white"/>
<path d="M166.3 179.627C163.5 178.227 143 173.627 143 173.627L137.9 164.627L140.2 159.527L158.2 152.327L173.1 153.827L186 157.927L184.1 170.327L178.6 176.127L166.3 179.627Z" fill="white"/>
<path d="M154.5 157.827L156.4 155.927L159.8 156.227L161.3 156.327L162.6 156.227L165.6 156.027L169.3 155.927L171.2 156.027L174.8 156.727L177.7 157.827L180.5 159.627L179.8 162.327L178 164.627L176.6 165.727L173.1 167.227L169.4 168.027L165.7 167.927L163.8 167.527L160.1 166.327L158.2 165.427L157.3 165.127L154.5 163.227V157.827ZM132.3 322.727L128.6 322.027L126.7 321.627L123 321.027L121.1 320.927L117.4 320.827V317.127H152.6L156.3 317.327L160 317.927L163.1 319.127L164.2 320.127L164.9 320.627L165.6 322.727H132.3ZM146.5 223.127L146.8 222.127L148.9 220.727L148.7 223.327L147.7 225.127L147.1 225.727L145.2 226.427L146.5 223.127ZM111.9 309.727L108.2 310.527L106.3 311.227L102.6 312.527L100.7 312.927L97.8999 313.427H95.0999V310.627L95.5999 307.827L96.0999 305.927L97.7999 302.227L98.9999 300.527L101.6 296.827L102.7 294.927L105.7 291.227L107 289.327L109.8 285.827L111.2 284.427L112.6 283.327L113.4 282.627L115.7 281.927L113.8 285.627L116.6 284.227L119.3 281.927L122.3 278.227L123.7 276.327L126.7 272.627L128.6 270.727L132.3 267.027L134 265.127L137.1 261.427L138.4 259.527L140.8 255.827L142.9 252.127L143.8 250.227L145.9 246.527L148.2 242.827L150.3 239.127L151.1 237.227L152.6 233.527L155 229.827L158.1 226.127L161.8 222.627L165.5 219.527L167.4 218.227L171 215.627L174.1 212.827L175.5 211.327L178.5 208.527L182.2 206.227L184.1 205.327L187.8 203.227L189.6 202.227L191.5 201.427L192.5 200.827L195.3 200.227V211.327H198.1L200.9 210.827L202.8 210.327L206.5 208.627L213.9 204.027L215.8 203.027L217.7 202.127L221.4 200.727L225 199.527L226 199.127L228.8 198.327L234.4 203.927L238.1 206.827L240 208.127L243.7 210.727L245.6 212.027L247.5 213.427L251.2 216.127L254.8 218.727L257.8 221.327L259 222.827L261.4 226.127L262.8 227.927L265.9 231.627L268.8 235.327L269.7 237.227L271.1 240.027L271.6 242.827L267.8 246.627L265.9 248.427L264.1 250.227L260.4 253.127L257.5 255.727L254.9 258.327L253.6 259.827L251 263.127L248.6 266.727L247.5 268.627L247.2 269.127C247.2 269.527 247.2 269.927 247.1 270.327C246.6 273.327 245.6 276.027 244.3 278.827C244.2 279.027 244.2 279.127 244.1 279.327C244 279.927 243.9 280.527 243.7 281.127L243.6 282.627L242.5 285.527L241 287.527L239.7 289.427L236.8 293.127L234.2 296.827L233 298.727L229.3 304.327L228.1 306.227L225.6 309.927L222.8 312.727L219.5 314.627L217.7 315.127L214 315.627H193.6L191.7 315.227L189.8 314.927L186.1 313.827L182.4 312.727L180.5 312.227L178.6 311.927L176.7 311.227L174.8 310.727L171.1 310.127L167.4 309.927L165.5 309.527L161.8 308.827L158.1 308.227L156.2 308.127L152.5 308.027H122.9L119.2 308.227L117.3 308.527L113.6 309.327L111.9 309.727ZM389.7 452.927V450.527L389.6 446.827L389.3 445.027L388.6 441.327L387.9 437.627V426.527V422.827L387.8 420.927L387.2 417.227L386.8 415.327L386.1 411.627V393.127V389.427L386 387.627L385.4 383.927L385 382.127L384.7 380.227L384.3 378.427L384.2 376.527L383.6 372.827L383.2 370.927L382.9 369.127L382.2 365.427L381.8 363.627L381 359.927L380.6 358.027L379.9 354.327L379.5 352.527L378.8 348.827V271.027V269.127L378.7 267.327L378.1 263.627L377.7 261.827L377 258.127V256.227V252.527L376.9 250.627L376.3 246.927L375.9 245.127L375.2 241.427L375.1 237.727L374.5 234.027L373.1 228.427L372.2 224.727L371.8 222.927L371.1 219.227L370.3 215.527L369.6 211.827V208.127L369.5 206.227L368.9 202.527L368.5 200.727L367.8 197.027V182.227V178.527L367.7 176.727L367.1 173.027L366.4 169.327L366 167.527L365.9 163.827L365.3 160.127L363.9 154.527L363.5 152.627L363 150.827L361.6 145.227L361 143.327L360.4 141.527L359.2 137.827L358.6 136.027L357.5 132.327L356.5 128.627L356 126.727L354.8 123.027L354.1 121.127L352.5 117.427L351.5 115.627L350.7 113.827L349.7 111.927L348.8 110.127L346.7 106.427L345.5 104.527L342.9 100.827L339.8 97.1273L336.2 93.4273L332.5 89.9273L330.7 88.4273L327 86.1273L325.1 85.3273L321.4 83.8273L319.6 83.0273L315.9 81.7273L312.2 80.5273L308.5 79.3273L306.6 78.7273L304.8 78.1273L302.9 77.5273L299.2 76.8273L297.4 76.1273L295.6 75.6273L293.7 75.2273L291.9 74.9273L290 74.2273L288.2 73.7273L284.5 73.1273L282.7 73.0273L279 72.9273H271.6L269.8 72.6273L266.1 72.2273H264.3L260.6 72.4273L258.7 72.3273L255 71.7273L253.1 71.4273L251.3 71.1273L247.6 71.0273L243.9 71.2273L242.1 71.3273L240.2 71.2273L236.5 71.0273L232.8 71.1273L230.9 71.4273L227.2 72.2273L225.4 72.9273L221.7 73.7273L218 75.1273L216.2 75.9273L212.5 77.3273L208.8 78.8273L207 79.6273L203.3 81.0273L199.6 82.6273L197.8 83.6273L195.9 84.5273L192.2 86.8273L190.4 88.2273L188.6 89.8273L184.9 93.3273L168.2 110.027L165.4 113.727L163.1 117.427L162.2 119.327L161.2 121.127L160.4 123.027L159.4 124.827L158.6 126.627L157.6 128.527L156 132.227L154.6 135.927L153.1 139.627L152.3 141.527L151.5 143.327L149.2 147.027L147.7 148.427L144.2 151.427L140.5 154.527L139.1 156.227L136.7 159.927L136 161.727L135.8 165.427L136.7 169.127L137.9 170.927L139.1 172.327L142.2 175.327L145.3 178.427L147.1 181.927L147.5 183.727L147.7 187.427V198.527L147.6 202.227L147.3 204.127L146.9 205.927L145.6 209.627L144.7 211.527L142.1 215.227L141.1 217.127L139.3 220.827L138.2 224.527L137.8 226.427L137.3 228.227L136.6 231.927V235.627V237.427L136.5 239.327L135.7 243.027L134.8 244.827L132.9 248.527L131.7 250.327L128.9 254.027L127.3 255.827L123.7 259.027L121.9 260.427L120 261.627L116.3 264.027L114.5 265.427L111.5 268.727L110.1 270.527L104.1 277.927L101.3 281.627L99.6999 283.527L98.4999 285.327L97.1999 287.227L94.4999 290.927L93.1999 292.827L90.9999 296.527L89.1999 300.227L87.7999 303.927L86.8999 307.627V311.327L87.7999 315.027L89.5999 318.727L92.3999 321.627L94.1999 322.927L97.8999 325.327L101.6 327.427L105.3 329.027L109 330.327L110.8 330.827L112.7 331.227L116.4 331.727L118.3 332.027L122 332.727L125.7 333.427H127.5L131.2 333.527L133 333.627L136.7 334.227L140.3 334.927L143.2 335.327H146L147.8 337.227V342.927L148.1 344.627L148.2 346.527L147.8 350.227V352.027L147.7 353.827L147.1 357.527L146.4 361.227L146 363.127L145.9 366.827L145.6 368.727L144.9 372.427L144.2 376.127L144.1 379.827L143.8 381.727L143.1 385.427L142.4 389.127L142.7 392.427L142.8 393.927L142.7 395.327L142.3 398.427L141.6 401.927L141.1 403.827L140.4 405.627L140.1 407.427L139.2 411.127L138.8 413.027L138.1 416.727L137.3 420.427L137 422.327L136.3 426.027L135.9 427.827L135.5 429.627L135.1 431.527L134.4 435.227L134 437.027L133.6 438.927L132.9 442.627L132.8 444.527L132.2 448.227L131.8 450.027L131.4 451.827L130.7 455.527L130.3 457.427L129.9 459.227L129.2 462.927L128.4 468.427C128.6 468.527 128.9 468.727 129.1 468.827C130.6 469.627 132 470.427 133.5 471.227L134.4 466.627L135.1 462.927L135.5 461.127L135.9 459.227L136.3 457.427L137 453.727L137.3 451.827L137.7 450.027L138.3 446.327L138.4 442.627L139.1 438.927L139.6 437.027L140.3 433.327L141 431.527L141.5 429.727L142.5 426.527L142.6 425.527L143.4 419.927L144.4 415.527L146 410.027L147.2 405.927L148.6 400.927L149.9 391.327L150.5 386.927L151.4 383.827L151.7 380.327L151.8 377.227L152.4 374.727L153 370.927L153.7 369.027L154.3 365.927L154 361.627L154.3 357.427L154.9 353.927L156.1 350.627L156.8 347.027V345.327L157.5 342.627H167.9L167.7 345.427L166.8 348.327L165.2 351.927L164.2 353.727L162.7 357.427L160.7 369.627L154.2 390.727L152.7 415.127L151.6 438.827L151 455.227L148.8 478.827C149.3 479.027 149.8 479.327 150.3 479.527C150.8 479.727 151.3 479.927 151.8 480.127C152.5 480.427 153.2 480.727 153.9 481.027C154.1 481.127 154.3 481.227 154.5 481.227C154.8 478.827 155 475.127 155.1 474.527C155.4 470.627 155.7 466.727 155.9 462.727C156.1 458.927 156.3 455.127 156.6 451.327V405.527L157.3 401.827L157.7 400.027L158 398.127L158.3 396.327L158.4 394.527L159.3 390.827L160 388.927L160.7 387.127L161.5 385.327L162.8 381.627L163.3 379.727L164 376.027L164.1 374.227L164.8 370.527L165.3 368.727L165.7 366.827L166.7 363.127L167.3 361.227L167.9 359.427L169.1 355.727L170.4 352.027L171.2 350.227L172.5 346.627L172.9 345.627L173.4 342.827L176.1 342.127L178.5 340.427L180.6 338.127L182.6 335.427H188.2L191.9 334.727L195.6 333.827L197.5 333.527L199.3 332.827L201.2 332.327L203 331.927L206.7 331.027L208.5 330.527L210.4 330.127L212.2 329.827L215.9 328.627L217.7 328.227L221.4 327.127L223.1 326.227L224.7 325.227L226.2 323.827L229.2 320.627L232.5 316.927L238.1 311.327L239.9 309.527L241.6 307.627L244.7 303.927L247.3 300.227L248.5 298.427L250.6 294.727L252.2 291.027L253.6 287.327L255.2 283.627L256.2 281.727L257.1 279.927L259.3 276.227L260.3 274.427L262.9 270.727L263.8 268.827L265.2 265.127L265.8 263.227L266.6 261.427L268.5 257.927L269.9 256.427L270.6 255.427L273.2 254.027L275.9 257.827L278.7 261.427L281.7 265.127L284.7 268.827L286.1 270.727L289.7 274.427L291.3 276.227L292.8 278.027L295.4 281.727L297.7 285.427L298.8 287.327L300.9 291.027L302.8 294.727L303.6 296.627L304.4 298.427L305.9 302.127L306.6 303.927L307.3 305.827L308.5 309.527L309.1 311.327L309.7 313.127L310.2 315.027L311.2 318.727L311.8 320.527L312.9 324.227L313.5 326.027L314.2 329.727L314.9 331.527L315.4 333.427L316 337.127L316.1 340.827V390.827V394.527L316 396.327L315.4 400.027L315 401.827L314.3 405.527V435.127L315 438.827L315.4 440.627L316 444.327L316.1 446.127V449.827V455.427L316.8 459.127L317.2 461.027L317.8 464.727L317.9 466.627V470.327V472.127L318.6 475.827L319.3 479.527L319.6 481.327L319.7 485.027L320 489.927C320.9 489.627 321.8 489.427 322.8 489.127C322.9 489.127 322.9 489.127 323 489.027C324.1 488.727 325.1 488.427 326.2 488.027L325.8 483.127L325.4 479.427V475.727L325.3 473.827L324.7 470.127L324 466.427L323.6 464.527V460.827L323.5 458.927L322.9 455.227L322.5 453.427L321.8 449.727V447.927V444.227L321.7 442.327L321.1 438.627L320.7 436.727L320 433.027V397.827L320.7 394.127L321.1 392.227L321.7 388.527L321.8 386.727V383.027V340.427V338.527L321.7 336.727L321.1 333.027L320.3 329.327L319.6 325.627L319.2 323.827L318.7 321.927L318.1 320.127L316.9 316.427L314.4 309.027L312.5 303.427L311.9 301.627L310.6 297.927L309.9 296.127L308.3 292.427L307.4 290.527L305.8 286.827L305 284.927L303.2 281.227L302.1 279.427L299.9 275.727L298.7 273.927L297.3 272.027L295.8 270.227L292.2 266.527L288.5 263.227L287.2 262.027L284.8 261.027L283.9 260.027L283 258.727L282.8 257.927L282.2 256.527L280.6 253.627L280.1 249.927L281.2 246.227L284 240.627L284.8 236.927L284.9 233.327V229.527L282.1 228.527L281.1 227.827L279.2 226.827L277.4 225.727L275.5 224.527L271.8 222.127L270 220.927L268.1 219.827L264.4 217.427L262.5 216.027L260.7 214.627L257 211.127L253.3 208.027L251.5 206.627L247.8 203.627L244.1 200.827L240.4 198.427L238.6 197.227L235.6 194.427L232.6 190.927L229.3 187.927L225.6 185.727L223.7 185.227L221.9 184.227L218.2 183.427L216.4 183.327L212.7 182.927L210.9 183.027L207.2 183.327H205.3L201.6 183.527L197.9 184.227L196 185.227L194.2 185.727L190.5 187.927L188.7 189.227L186.8 190.727L183.1 193.327L181.3 194.927L178.3 198.227L175.3 201.027L172 203.427L170.2 204.627L166.5 207.527L165.6 208.427L162 211.527L159.3 211.027L157.3 210.427L154.6 209.627V183.727H163.9L167.6 182.927L171.3 181.827L173.1 181.227L176.8 180.027L180.5 178.227L182.3 176.927L184 175.627L187 172.727L189.4 169.027L190.5 167.227L191.5 165.327L193.9 161.627L194.5 159.827L194.8 158.027L193.9 154.327L192.8 152.527L191.4 150.827L187.9 148.227L184.2 146.927L180.5 145.727L178.7 145.327L173.1 143.927L169.4 143.527L167.6 143.727L163.9 144.427L163 144.727L160.3 145.227H160.2L160.7 142.427L161.5 139.627L161.7 139.127L162.8 135.927L163.6 134.027L164.3 132.227L165.8 128.527L166.9 126.627L169.2 122.927L170.5 121.027L171.6 119.227L174 115.527L176.8 111.927L180.5 108.627L182.3 107.027L184.2 105.627L186 104.127L189.7 101.127L191.5 99.7273L195.2 97.1273L197.1 95.9273L200.8 93.8273L204.5 92.2273L208.2 90.8273L211.9 89.2273L213.7 88.2273L215.6 87.4273L217.4 86.4273L221.1 85.0273L222.9 84.5273L226.6 83.7273L228.5 83.3273L230.3 82.9273L234 82.3273L235.8 82.2273L237.7 82.1273H258.1L260 81.7273L263.7 81.0273L267.4 80.5273L269.3 80.6273L273 80.7273L276.7 80.6273L278.5 80.5273L282.2 81.0273L285.9 81.7273L287.7 82.1273L289.5 82.2273L293.2 82.8273L302.5 85.1273L304.4 85.8273L308.1 86.6273L309.9 87.6273L311.7 88.1273L313.6 89.1273L317.2 91.3273L320.3 93.7273L321.7 95.0273L324.7 96.9273L326.6 98.0273L328.4 99.3273L332 102.527L333.6 104.327L335.1 106.227L337.7 109.927L338.9 111.727L341.3 115.427L342.5 117.227L344.6 120.927L345.5 122.827L346.5 124.627L347.3 126.427L348.3 128.327L349.7 132.027L350.2 133.827L350.6 135.727L351.3 139.427L352.2 143.127L352.5 145.027L353.6 148.727L354 150.627L354.7 154.327L355 156.127L355.4 158.027L356 161.727L356.1 163.627V167.327L356.8 171.027L357.2 172.927L357.8 176.627L357.9 180.327V191.427L358.6 195.127L359 196.927L359.6 200.627L359.7 202.427V204.327V211.727L360.4 215.427L360.8 217.327L361.4 221.027L361.5 222.827L362.3 226.527L362.8 228.327L363.9 232.027L364.5 233.927L365.2 237.627L365.9 239.527L366.4 241.327L366.8 243.227L367.5 246.927L367.8 248.827L368.2 250.627L368.8 254.327L368.9 256.127V259.827V330.227L369.6 333.927L370 335.727L370.6 339.427L370.7 341.327V345.027V358.027L371.4 361.727L371.8 363.627L372.4 367.327L372.5 369.227V372.927V374.727L373.2 378.427L373.9 382.127L374.2 383.927L374.3 387.627L374.7 389.427L375.4 393.127L376 396.827L376.1 398.627V402.327V413.427L376.8 417.127L377.2 418.927L377.6 420.727L378.3 424.427L378.7 426.327L379.4 430.027L379.8 433.727V437.427V439.327L380.5 443.027L380.9 444.927L381.5 448.627L381.6 450.427V454.127L382.3 461.927C383.5 461.127 384.8 460.327 386 459.527C387 458.927 388 458.227 389 457.527C389.8 455.527 389.8 453.327 389.7 452.927Z" fill="black"/>
<path d="M271.8 176.427L274.9 179.227L276.8 180.227L278.7 181.127L282.4 182.227L284.3 182.727L286.2 183.327L288.1 183.927L291.8 185.027L295.5 185.827H304.8L308.5 185.127L310.4 184.727L314.1 184.127L316 184.027L319.7 183.927L323.4 183.127L325.3 182.627L329 181.327L330.7 180.427L332.2 179.327L334.5 176.527L335.4 174.627L335.7 170.927L335.4 169.027L333.6 165.427L332.2 163.727L328.9 160.727L327.1 159.827L323.4 157.727L321.5 156.927L317.8 155.627L315.9 155.027L308.5 153.127L304.8 152.527L301.1 152.327L297.4 152.527L293.7 153.227L291.8 153.927L288.1 155.227L284.4 156.127L282.5 156.527L280.6 157.027L276.9 158.527L275 159.827L273.1 160.727L270.7 163.727L269.3 167.227V170.927L270.7 174.627L271.8 176.427ZM283.8 166.427L286.1 164.727L289.8 163.727L291.7 163.627L293.6 163.527H306.6L308.5 163.627L310.3 163.727L312.2 164.027L313.2 164.127L316 165.427L315.8 168.227L314.9 171.027L314.1 172.927L313.5 173.827L312.3 176.627H309.5L306.6 176.227L303 175.527L299.3 174.927L297.4 174.827L293.7 174.727L290 173.527L286 171.527L282.3 169.027L283.8 166.427Z" fill="black"/>
<path d="M201.1 399.427L211.4 408.727L222.2 413.327H240.6L254.1 409.727L266.3 398.227L277.3 387.127L280.9 383.427L282.4 380.127L283.1 375.927C283.1 375.927 283 371.427 283.1 371.227C283.2 371.027 281.4 365.227 281.4 365.227L276.6 349.627L269.6 336.327L269.4 363.527L265.8 375.927L264.5 373.627L266.8 367.927L266.5 362.827H265.6L261 367.927L256.4 374.927L252.5 380.127L243.3 385.427L235.3 389.527C235.3 389.527 225.3 391.327 224.8 391.427C224.2 391.527 214.1 393.027 214.1 393.027L203.1 391.027L200.6 389.527L198.9 394.027L199.7 397.727L201.1 399.427Z" fill="white"/>
<path d="M227.5 416.527C221.3 415.827 216.4 414.327 211.5 411.327C209.8 410.327 207 408.727 205.4 407.827C202.5 406.327 202 405.427 204.2 405.327C204.8 405.227 205 404.727 204.9 404.127C204.7 403.427 204.4 402.127 204.2 401.227C203.9 399.727 204 399.727 206.2 401.627C215.2 409.527 224.7 411.827 238.7 409.527C248.6 407.827 253.4 406.327 256.9 403.727C261.8 399.927 267.5 393.727 267.7 391.927C267.9 390.127 271 382.027 272.3 380.427C272.7 379.827 274.1 379.227 275.5 379.127C277.8 378.827 278 378.927 277.4 380.827C276.7 383.627 276.7 384.227 277.4 386.927C277.9 389.027 277.3 389.827 270.8 396.027C266.9 399.727 262.3 404.627 260.7 406.927C259 409.127 255.5 412.427 252.8 414.127C247.9 417.227 247.7 417.327 240.7 417.227C236.5 417.127 230.7 416.927 227.5 416.527Z" fill="black"/>
<path d="M200 403.127C199.1 401.927 197.8 405.127 197.3 398.127C196.8 392.127 199 386.527 201.3 388.627C202.1 389.327 204.2 390.027 205.9 390.027C207.6 390.027 210.9 390.527 213.3 391.227C222.7 393.627 240.6 388.327 250 380.327C252.8 377.927 253.4 377.627 254.2 378.727C254.9 379.827 255.7 379.527 259.3 377.027C264.1 373.827 265.8 371.627 266.6 367.627C267.1 365.427 266.9 364.927 265.4 364.527C263.2 363.927 263.2 363.727 266.1 358.327C268.4 353.927 268.5 353.527 268.1 345.327L267.6 336.827L269.6 337.927C270.7 338.527 272.3 339.127 273.1 339.227C274.2 339.427 274.3 339.127 273.8 338.027C273.4 337.327 272.8 335.927 272.6 335.027C272.3 334.127 271.6 333.727 270.8 334.027C270.1 334.227 269.8 334.227 270.1 333.827C270.4 333.427 269.7 332.827 268.7 332.627C267.6 332.427 267.7 332.227 269 332.127C272.8 331.927 276.5 337.827 278 346.927C278.5 349.427 279.3 352.927 279.9 354.827C283.2 364.727 283.1 364.227 281.3 366.727C280.3 368.027 279.6 369.527 279.6 370.027C279.6 370.527 279.3 370.927 278.9 370.927C278.5 370.927 277.9 371.827 277.7 373.027C277.2 375.027 275.5 376.027 275.5 374.227C275.5 372.527 273.8 373.527 273.8 375.327C273.7 376.627 273.6 376.827 273.3 375.727C272.7 373.327 271.5 374.027 265.3 379.827C262 382.927 257.4 386.327 255.2 387.327C253 388.427 249.8 389.927 248.2 390.727C238 395.927 221.7 398.727 213.4 396.527C206.1 394.627 205.1 394.627 205.1 396.027C205.1 396.727 204.7 397.327 204.2 397.327C203.8 397.327 203.5 397.627 203.8 398.027C204.1 398.427 203.6 399.727 202.6 400.727C201.7 401.927 201.3 403.027 201.5 403.427C201.7 403.627 201.8 403.927 201.6 403.927C201.4 403.927 200.4 403.627 200 403.127Z" fill="black"/>
<path d="M276.9 372.327C279.1 363.627 279.1 363.027 277.9 358.627C277.2 356.027 276.2 351.927 275.6 349.427C273.9 341.827 272.5 337.927 271.4 337.527C270.6 337.227 270.2 337.827 270.2 339.927C270.2 342.027 269.8 342.827 269 342.827C267.8 342.827 266.9 339.627 266.7 334.427C266.5 331.827 266.8 331.627 269.2 331.327C271.5 331.127 272.1 331.527 274.1 334.627C277.5 339.927 283.8 364.627 283.8 372.627C283.9 378.327 283.6 379.427 280.7 384.827C278.7 388.527 274.2 394.327 268.2 400.927C263 406.527 258.8 411.327 258.8 411.627C258.8 411.927 256.8 413.427 254.5 415.027C250.4 417.727 249.7 417.827 242.2 418.027C237.9 418.127 233.7 417.927 232.9 417.827C232.1 417.627 231.4 416.827 231.4 416.127C231.4 415.227 232.9 414.927 238.4 414.927C245.9 414.927 249.1 413.827 254.1 409.627L256.6 407.527L253.7 408.327C245.2 411.027 236.9 412.427 229.3 412.427C223.7 412.427 221.4 412.627 222.3 413.227C223 413.627 224.8 414.027 226.3 414.027C228.4 414.027 229 414.327 229 415.727C229 417.227 228.4 417.427 224.5 417.427C220.7 417.427 218.6 416.727 211.6 413.127C201.7 408.027 197.5 404.027 197.5 399.627C197.5 397.327 197.8 396.727 199.1 396.727C200.3 396.727 200.9 397.527 201.3 399.427C202 402.027 202 402.027 202.5 397.927L202.9 393.827L207.5 394.027C221 394.727 231.3 394.427 234.9 393.227C243.8 390.127 260.6 381.927 260.6 380.727C260.6 380.527 259.2 380.627 257.5 380.827C255.8 381.027 253.1 382.227 251.5 383.527C249.8 384.827 244.6 387.527 239.9 389.427L231.2 393.027L218.4 392.927C211.4 392.927 204.6 392.727 203.3 392.327C201.2 391.727 201 391.927 201 393.827C201 395.427 200.6 395.927 199.3 395.927C197.6 395.927 197.6 395.627 198 390.827C198.5 384.827 199.7 383.627 202.2 386.527C204.4 388.927 208.9 389.927 218.4 390.027C224.3 390.127 230.4 388.927 232.2 387.427C232.6 387.127 233.6 386.727 234.4 386.727C235.2 386.727 236.6 386.427 237.4 385.927C238.1 385.527 240.9 384.327 243.4 383.427C248.3 381.727 252.5 378.027 258 370.927C262.3 365.327 267.1 356.627 267.9 353.027C268.2 351.427 269 350.327 269.6 350.327C271.1 350.327 271.2 356.327 269.8 358.827C269.2 359.827 268.9 362.827 269.1 365.427C269.3 368.827 268.9 370.927 267.9 372.427C267.2 373.627 267 374.127 267.7 373.627C268.3 373.027 270.2 372.527 271.8 372.527H274.9M241 407.827C249 406.127 255.8 402.927 260.1 398.827C264 395.127 271 381.627 271 377.727C271 375.827 270.6 376.027 265.4 380.827C261.1 384.927 257.4 387.327 249.3 391.327C239.9 396.027 238.1 396.627 231.1 397.327C223.8 398.227 212.9 397.927 207.9 396.727C206 396.327 205.6 396.527 205.6 397.827C205.6 398.727 206.4 400.227 207.5 401.227C209.1 402.727 216.8 406.827 220.5 408.227C222.9 409.427 235.4 409.127 241 407.827ZM272.7 389.927C273.8 388.727 274.4 387.027 274.3 385.227V382.227L272.3 386.327C269.4 392.127 269.5 393.227 272.7 389.927Z" fill="black"/>
<path d="M228.7 415.727C228.7 414.327 229.3 414.027 232 414.027C234.7 414.027 235.3 414.227 235.3 415.727C235.3 417.227 234.7 417.427 232 417.427C229.3 417.427 228.7 417.127 228.7 415.727Z" fill="black"/>
<path d="M276.3 371.627C276.6 368.727 277.3 366.027 277.7 365.627C278.8 364.427 278.6 360.627 277.2 357.127C276.5 355.427 275.6 351.727 275.2 349.127C274.7 346.427 273.4 342.327 272.2 340.027C270.9 337.227 270.2 336.727 270.1 338.527C270.1 342.027 267.9 342.127 267.2 338.627C266.8 336.827 267 335.827 267.7 335.327C268.6 334.727 268.5 334.627 267.5 334.627C266.7 334.627 266 334.027 266 333.427C266 332.727 266.3 332.227 266.7 332.227C267.1 332.227 268 332.027 268.8 331.727C270.4 331.127 274 334.827 275.6 338.727C276.3 340.227 277.3 343.727 277.9 346.627C278.5 349.427 279.8 354.727 280.9 358.427C283.1 366.727 284.2 372.927 283.3 372.927C282.9 372.927 282.6 372.127 282.6 371.127C282.5 366.627 281.2 367.227 280.1 372.027C279.3 376.127 278.8 377.127 277.4 377.127C275.9 376.827 275.8 376.427 276.3 371.627Z" fill="black"/>
<path d="M258.6 370.528C261.5 367.428 262.4 366.928 261.4 368.728C260.3 370.628 257.5 373.428 256.6 373.428C256.2 373.528 257 372.128 258.6 370.528Z" fill="black"/>
<path d="M267.7 349.828C267.7 347.528 268 346.928 269.4 346.928C270.7 346.928 271.1 347.528 271.1 349.828C271.1 352.128 270.8 352.728 269.4 352.728C268 352.728 267.7 352.128 267.7 349.828Z" fill="black"/>
<path d="M225.3 416.827C224.5 416.627 223.8 415.927 223.8 415.227C223.8 414.327 225 414.027 228.8 414.027C232.9 414.027 233.8 414.227 233.8 415.527C233.8 416.627 233.1 416.927 230.2 417.027C228.2 417.127 226 417.127 225.3 416.827Z" fill="black"/>
<path d="M211.7 411.927C209.4 410.727 206.8 409.027 205.9 408.227C204.9 407.227 205.2 406.627 207 406.627C211.2 406.627 216.301 409.527 216.301 412.027C216.301 413.227 216.201 414.127 216.101 414.127C216.001 414.127 214 413.127 211.7 411.927Z" fill="black"/>
<path d="M204.7 404.527C204.7 403.827 204.1 403.327 203.5 403.327C202.5 403.327 202.3 402.227 202.3 398.327V393.327H205.2C206.8 393.327 208.1 393.727 208.1 394.127C208.1 394.627 207.4 394.927 206.4 394.927C205.5 394.927 204.9 395.227 205.2 395.627C205.4 396.027 205.3 396.627 204.8 396.927C203.4 397.827 203.9 398.827 207.4 402.327L210.8 405.627H207.8C205.6 405.827 204.7 405.427 204.7 404.527Z" fill="black"/>
<path d="M265.2 400.127C265.2 399.627 264.5 399.127 263.5 398.927C261.8 398.727 261.9 398.527 264.1 396.227C265.8 394.327 267.2 393.627 270 393.427L273.5 393.227L270.8 396.027C267.2 399.727 265.2 401.227 265.2 400.127Z" fill="black"/>
<path d="M210.3 396.227C208.1 394.627 208.6 394.127 212.2 394.127C214.8 394.127 215.5 394.427 215.5 395.627C215.5 397.427 212.3 397.727 210.3 396.227Z" fill="black"/>
<path d="M232.1 390.127C232.1 389.427 234.1 388.327 236.5 387.927C237.4 387.727 237.9 388.127 237.9 389.227C237.9 390.527 237.3 390.927 235 390.927C233.4 390.927 232 390.527 232.1 390.127Z" fill="black"/>
<path d="M243.7 385.327C243.7 385.027 245.3 383.627 247.1 382.227L250.4 379.927L250.2 382.627C250 385.227 249.7 385.427 246.9 385.727C245.1 385.927 243.7 385.727 243.7 385.327Z" fill="black"/>
<path d="M257.7 384.027C257.7 381.427 259.2 380.127 262 380.127C264.8 380.127 264.9 380.927 262.5 383.227C259.5 385.927 257.8 386.127 257.7 384.027Z" fill="black"/>
<path d="M266 358.027C266 357.827 266.4 356.827 266.8 356.027C267.3 355.227 267.7 352.927 267.8 351.127C267.9 348.427 268.2 347.727 269.5 347.727C270.7 347.727 271 348.427 271 351.327C271 356.827 270.3 358.527 268 358.527C267 358.527 266 358.327 266 358.027Z" fill="black"/>
<path d="M266.9 336.627C265.7 331.727 265.7 332.027 268.5 332.027C270.7 332.027 271 332.227 271 334.827C271 341.227 268.4 342.327 266.9 336.627Z" fill="black"/>
<path d="M205.8 408.327C201.2 405.627 199.4 403.427 198.8 399.827C198.5 398.127 198.7 397.527 199.5 397.527C200.2 397.527 200.7 396.927 200.7 396.327C200.7 395.627 201.5 395.127 202.9 395.127C204.8 395.127 205 395.327 204.6 397.127C204.3 398.627 204.7 399.827 206.2 401.627C207.4 403.027 208.3 404.727 208.3 405.427C208.3 406.127 209 406.727 210 406.727C211.2 406.727 211.7 407.327 211.7 408.827C211.3 411.227 211 411.227 205.8 408.327Z" fill="black"/>
<path d="M208.301 395.727C204.601 394.527 204.701 392.627 208.501 392.627C211.101 392.627 211.401 392.827 211.401 394.727C211.401 395.927 211.301 396.827 211.201 396.727C211.001 396.527 209.701 396.127 208.301 395.727Z" fill="black"/>
<path d="M216.6 395.227C215.4 395.027 214.7 394.227 214.7 393.327C214.7 392.027 215.5 391.727 220.1 391.527L225.5 391.327V393.627C225.5 395.727 225.3 395.827 222 395.827C219.9 395.727 217.5 395.427 216.6 395.227Z" fill="black"/>
<path d="M233.7 389.828C233.7 389.228 235.6 388.028 238 387.128C240.4 386.328 242.6 385.428 243 385.328C243.3 385.128 243.7 386.028 243.7 387.128C243.7 388.828 243.3 389.328 241.6 389.328C240.4 389.328 239.5 389.728 239.5 390.128C239.5 390.628 238.2 390.928 236.6 390.928C234.8 390.928 233.7 390.428 233.7 389.828Z" fill="black"/>
<path d="M256.9 383.827C256.9 382.327 257.3 381.727 258.5 381.727C259.3 381.727 260.2 381.027 260.5 380.027C260.8 378.827 261.7 378.327 263.6 378.327C266 378.327 266.1 378.427 265 380.027C263.7 381.827 258.7 385.727 257.6 385.727C257.2 385.927 256.9 385.027 256.9 383.827Z" fill="black"/>
<path d="M267.9 354.027C268.4 352.427 269.2 351.127 269.9 351.127C270.6 351.127 271 352.227 271 354.027C271 356.527 270.8 356.927 269 356.927C267.1 356.927 267 356.727 267.9 354.027Z" fill="black"/>
<path d="M267.9 340.727C267.7 340.027 267.7 338.227 268 336.727C268.3 334.827 268.2 334.427 267.7 335.327C267 336.327 266.9 336.027 266.9 334.327C266.9 329.127 273.4 332.927 275.9 339.727L276.8 341.927H272.6C269.7 342.027 268.4 341.627 267.9 340.727Z" fill="black"/>
<path d="M435.9 83.327C400.7 44.727 355.1 17.6269 304 6.42695C190.3 -18.573 73.7999 38.027 23.7999 144.127C12.2999 168.727 4.89987 194.527 1.69987 221.527C-5.00013 281.327 9.29987 339.027 41.9999 388.927C71.0999 431.927 111.6 464.827 160 483.427C286.1 532.027 427.1 471.727 480.1 347.727C517.9 257.427 500.5 156.427 435.9 83.327ZM388.7 447.627C388.4 447.827 378.8 454.327 377.5 455.127C363.5 463.827 348.7 471.027 333.2 476.827C332.3 477.127 320.2 481.127 320 481.127C266 497.927 207.5 494.327 156.2 472.627C156 472.527 147.6 468.627 147.4 468.527C143.5 466.827 141.7 466.027 139.2 464.427C139 464.327 130.4 459.827 130.1 459.727C82.4999 431.927 47.9999 392.527 26.6999 341.627C19.5999 323.927 14.4999 305.727 11.5999 286.927C11.2999 284.727 10.9999 282.627 10.7999 280.527C7.39987 251.727 8.59987 223.927 15.0999 195.627C17.6999 184.527 21.0999 173.427 25.3999 162.527C29.5999 151.727 34.5999 141.227 40.3999 131.127C48.9999 116.127 58.9999 102.127 70.5999 89.2269C81.6999 76.8269 93.9999 65.727 107.4 55.927C158.8 18.527 221.6 3.02695 284.7 11.627C288 12.027 294.1 13.327 303.1 15.327C318.9 18.827 334.3 23.927 349.1 30.627C365.5 38.027 380.9 47.127 395.3 58.027C405.2 65.5269 414.5 73.7269 423.2 82.6269C450.3 110.827 469.6 143.627 481 181.127C486.8 200.327 490.1 220.027 491 240.127C491.8 259.427 490.3 278.627 486.6 297.627C474.3 358.327 439.4 411.927 388.7 447.627Z" fill="black"/>
<path d="M434.6 84.5277C399.6 46.2277 354.4 19.3277 303.6 8.12769C190.8 -16.7723 74.9999 39.5277 25.4 144.828C13.9 169.228 6.59995 194.828 3.49995 221.628C-3.20005 281.028 10.9 338.328 43.5 387.928C72.3999 430.628 112.6 463.228 160.7 481.728C285.9 529.928 425.9 470.028 478.5 346.928C516.1 257.428 498.7 157.028 434.6 84.5277ZM387.7 446.228C387.4 446.428 377.8 452.828 376.6 453.628C362.6 462.228 348 469.428 332.6 475.128C331.7 475.428 319.7 479.328 319.5 479.428C265.9 496.128 207.8 492.528 156.9 471.028C156.7 470.928 148.4 467.028 148.2 466.928C144.3 465.228 142.5 464.428 140.1 462.928C139.9 462.828 131.4 458.428 131.1 458.228C83.7 430.628 49.3999 391.528 28.2999 340.928C21.1999 323.428 16.2 305.228 13.3 286.628C13 284.528 12.7 282.328 12.5 280.228C9.09995 251.628 10.3 224.028 16.8 195.928C19.4 184.828 22.7999 173.928 27 163.128C31.2 152.328 36.2 142.028 41.9 131.928C50.4 117.028 60.4 103.128 71.9 90.3277C82.9 78.0277 95.1 67.0277 108.4 57.3277C159.4 20.1277 221.8 4.82769 284.4 13.3277C287.7 13.7277 293.8 15.0277 302.7 16.9277C318.4 20.4277 333.7 25.4277 348.4 32.1277C364.7 39.4277 379.9 48.5277 394.2 59.3277C404.1 66.7277 413.3 74.9277 421.9 83.7277C448.8 111.728 468 144.228 479.3 181.528C485 200.628 488.3 220.128 489.2 240.128C490 259.328 488.5 278.328 484.8 297.228C472.7 357.528 438 410.728 387.7 446.228Z" fill="black"/>
</g>
<defs>
<linearGradient id="paint0_linear_1_11012" x1="228.15" y1="18.8207" x2="271.713" y2="482.303" gradientUnits="userSpaceOnUse">
<stop stop-color="#EED6F4"/>
<stop offset="0.1" stop-color="#E5C0EE"/>
<stop offset="0.22" stop-color="#DEB0EA"/>
<stop offset="0.43" stop-color="#CD87DE"/>
<stop offset="0.59" stop-color="#C370D8"/>
<stop offset="0.85" stop-color="#964FBF"/>
</linearGradient>
<clipPath id="clip0_1_11012">
<rect width="500" height="500" fill="white" transform="translate(0 0.527344)"/>
</clipPath>
</defs>
</svg>
