<svg width="500" height="501" viewBox="0 0 500 501" fill="none" xmlns="http://www.w3.org/2000/svg">
<path d="M12.2 181.728C5.1 194.928 0 210.028 0 225.228H106.7L150.4 181.728H12.2Z" fill="#EABC4B"/>
<path d="M195.1 138.228H87.4002C54.9002 138.228 26.4002 156.428 11.2002 181.728H150.4L195.1 138.228Z" fill="#24BCFF"/>
<path d="M500 50.2275H392.3C343.5 50.2275 303.9 89.7275 303.9 138.228H196.1L284.5 50.2275H176.8C128 50.2275 88.4004 89.7275 88.4004 138.228V291.028V292.028C88.4004 380.028 160.6 450.828 248 450.828H410.6V137.228L500 50.2275ZM296.7 278.828C282.5 264.628 282.5 240.428 296.7 226.228L349.5 278.828C335.4 294.028 312 294.028 296.7 278.828Z" fill="black"/>
</svg>
