<svg width="500" height="501" viewBox="0 0 500 501" fill="none" xmlns="http://www.w3.org/2000/svg">
<g clip-path="url(#clip0_1_11065)">
<path fill-rule="evenodd" clip-rule="evenodd" d="M250 0.527344C388 0.527344 500 112.427 500 250.527C500 388.527 388 500.527 250 500.527C111.9 500.527 0 388.527 0 250.527C0 112.427 111.9 0.527344 250 0.527344Z" fill="white"/>
<path fill-rule="evenodd" clip-rule="evenodd" d="M407.7 105.427L394 119.227C461.9 193.527 461.9 307.227 394 381.527L407.7 395.227C483.3 313.227 483.3 187.127 407.7 105.127V105.427Z" fill="#5A5564"/>
<path fill-rule="evenodd" clip-rule="evenodd" d="M118.9 106.628C193.1 38.7275 307 38.7275 381.2 106.628L395 92.9275C313.1 17.3275 186.8 17.3275 104.9 92.9275L118.9 106.628Z" fill="#5A5564"/>
<path fill-rule="evenodd" clip-rule="evenodd" d="M106.1 381.628C38.3002 307.428 38.3002 193.728 106.1 119.428L92.4002 105.728C16.8002 187.628 16.8002 313.928 92.4002 395.828L106.1 381.628Z" fill="#5A5564"/>
<path fill-rule="evenodd" clip-rule="evenodd" d="M381.1 394.327C306.9 462.227 193 462.227 118.8 394.327L105 408.027C186.9 483.627 313.2 483.627 395.1 408.027L381.1 394.327Z" fill="#5A5564"/>
<path fill-rule="evenodd" clip-rule="evenodd" d="M291.6 215.527C291.6 243.027 248.7 239.627 235 239.627V191.227C248.7 191.327 291.6 187.027 291.6 215.527ZM302.8 290.627C302.8 320.627 251.4 317.227 235 317.227V264.027C251.4 264.027 302.8 259.327 302.8 290.627ZM336.7 204.727C334 176.127 309.3 166.527 278 163.527V124.027H253.9V162.727C247.5 162.727 241 162.727 234.6 162.927V124.027H210.6V163.727H195.2H161.6V189.627C161.6 189.627 179.4 189.327 179.2 189.627C185.9 188.927 192 193.627 192.9 200.227V309.027C192.8 311.327 191.7 313.427 190 314.927C188.3 316.427 186 317.127 183.8 317.027C184.1 317.227 166.2 317.027 166.2 317.027L161.4 345.927H192.9H210.2V386.327H234.4V346.527H253.7V386.127H277.9V346.227C318.7 343.727 347.2 333.627 350.7 295.427C353.6 264.627 339.1 250.927 316 245.427C330 238.227 338.8 225.627 336.7 204.727Z" fill="#F09242"/>
<path fill-rule="evenodd" clip-rule="evenodd" d="M249.9 20.0273C122.7 20.1273 19.7 123.227 19.7 250.427C19.7 377.627 122.8 480.727 250.1 480.727C377.3 480.727 480.4 377.627 480.5 250.427C480.3 123.227 377.2 20.2273 249.9 20.1273V20.0273ZM249.9 500.527C111.9 500.527 0 388.527 0 250.527C0 112.427 111.9 0.527344 250 0.527344C388 0.527344 500 112.427 500 250.427C499.8 388.527 388 500.327 249.9 500.527Z" fill="#282138"/>
</g>
<defs>
<clipPath id="clip0_1_11065">
<rect width="500" height="500" fill="white" transform="translate(0 0.527344)"/>
</clipPath>
</defs>
</svg>
