<svg width="500" height="501" viewBox="0 0 500 501" fill="none" xmlns="http://www.w3.org/2000/svg">
<g clip-path="url(#clip0_1_11073)">
<path fill-rule="evenodd" clip-rule="evenodd" d="M249.3 500.527C387.4 500.527 499.3 388.627 499.3 250.527C499.3 112.427 387.3 0.527344 249.3 0.527344C111.3 0.527344 -0.700195 112.427 -0.700195 250.527C-0.700195 388.627 111.2 500.527 249.3 500.527Z" fill="#FCC8F0"/>
<path d="M182.2 136.428L181.2 128.428L189.4 117.728L209 108.028L235.7 103.428L260.1 106.028L272.1 112.228L276.5 120.028L275 129.228L265 122.428L251.8 120.028H237.4L219.2 122.428L206.5 126.028L196.3 131.228L187.6 138.928H184.1L182.2 136.428Z" fill="#F3AE35"/>
<path fill-rule="evenodd" clip-rule="evenodd" d="M218 106.528C216.9 109.128 215.1 115.228 218.6 121.128C218.8 121.528 219 121.928 219 122.428L219.3 122.328L237.5 119.928H251.9L265.1 122.328L275.1 129.128L276.6 119.928L272.2 112.128L260.2 105.928L235.8 103.328L218 106.528Z" fill="white"/>
<path d="M234.4 166.728C260.9 163.028 280.9 149.428 279 136.528C277.2 123.528 254.2 116.028 227.8 119.828C201.3 123.528 181.3 137.128 183.2 150.028C185 162.928 207.9 170.428 234.4 166.728Z" fill="#FFE453"/>
<path d="M199.899 129.128C199.899 129.128 194.699 140.228 196.499 146.528C198.199 152.828 208.999 160.828 241.799 163.428C274.599 166.028 208.299 166.928 208.299 166.928L193.099 160.928L184.399 153.428L182.899 145.428L186.699 137.728L199.899 129.128Z" fill="#F8A915"/>
<path fill-rule="evenodd" clip-rule="evenodd" d="M227.1 114.828C255.9 110.728 281.6 119.128 283.9 135.828L274.1 137.228C272.8 127.928 252.6 121.328 228.4 124.728C204.3 128.128 186.6 140.028 188 149.328L178.2 150.728C175.9 134.028 198.3 118.928 227.1 114.828Z" fill="#301D37"/>
<path fill-rule="evenodd" clip-rule="evenodd" d="M282 120.128C279.7 103.428 254 95.0275 225.2 99.1275C196.4 103.228 174 118.328 176.3 134.928L178.3 150.628C180.6 167.328 206.3 175.728 235.1 171.628C263.9 167.528 286.3 152.428 284 135.828L282 120.128ZM186.1 133.528C184.8 124.128 202.4 112.228 226.5 108.828C250.6 105.428 270.8 112.028 272.2 121.328L274.2 137.128C275.5 146.528 257.9 158.428 233.8 161.828C209.7 165.228 189.4 158.628 188.1 149.328L186.1 133.528Z" fill="#301D37"/>
<path d="M221.1 199.528L218.6 190.928L225.8 177.728L245.8 163.528L274.5 153.728L302 152.328L316.3 157.028L322.5 164.828V175.228L310.2 169.528L295.2 169.228L279.3 171.728L259.6 177.528L246.1 183.728L235.8 191.228L227.6 201.328L223.7 201.928L221.1 199.528Z" fill="#F3AE35"/>
<path fill-rule="evenodd" clip-rule="evenodd" d="M254.7 159.328C254 162.428 253 169.728 258 175.928C258.3 176.328 258.5 176.828 258.6 177.328L259 177.128L278.6 171.228L294.4 168.728L309.3 169.128L321.6 175.128V164.428L315.4 156.328L301.1 151.428L273.7 152.728L254.7 159.328Z" fill="white"/>
<path d="M284.3 219.027C313 210.227 332.8 191.727 328.5 177.727C324.2 163.627 297.5 159.427 268.7 168.127C240 176.927 220.2 195.427 224.5 209.427C228.8 223.527 255.6 227.827 284.3 219.027Z" fill="#FFE453"/>
<path d="M295.3 165.027C295.3 165.027 339.9 184.527 278.9 215.527C271.8 218.727 258.8 222.827 258.8 222.827L292.4 218.727L313 206.527L328 190.927L330.3 179.727L326.1 173.527L315.9 166.827L295.3 165.027Z" fill="white"/>
<path d="M240.1 182.928C240.1 182.928 225.6 219.228 274.3 219.328L255.8 223.328L238.1 219.328L227.3 212.528L224.2 203.928L227 194.828L240.1 182.928Z" fill="#F8A915"/>
<path fill-rule="evenodd" clip-rule="evenodd" d="M266.8 162.428C298.2 152.828 328.4 157.628 334 175.928L322.7 179.428C319.7 169.628 296.3 165.828 270.3 173.828C244.3 181.728 227 197.928 230 207.728L218.7 211.228C213.1 192.928 235.4 172.028 266.8 162.428Z" fill="#301D37"/>
<path fill-rule="evenodd" clip-rule="evenodd" d="M286 225.228C317.4 215.628 339.7 194.628 334.1 176.228L329.1 160.928C323.4 142.628 293.3 137.728 262 147.328C230.6 156.928 208.3 177.928 213.9 196.328L218.9 211.728C224.4 230.028 254.6 234.928 286 225.228ZM317.7 164.428V164.528L322.7 179.828C325.7 189.628 308.4 205.928 282.5 213.928C256.6 221.928 233.2 218.128 230.2 208.128L225.2 192.728C222.2 182.928 239.5 166.628 265.4 158.628C291.3 150.728 314.7 154.528 317.7 164.428Z" fill="#301D37"/>
<path d="M214.6 250.028L216.2 238.428L231.4 226.428L261.8 219.928L299.9 223.228L332.2 235.728L346.2 248.728L349.2 261.228L343.7 273.528L332.6 260.328L315.6 252.228L296 247.028L270.3 243.728L251.6 244.128L235.8 247.728L221.1 255.428L216.3 254.128L214.6 250.028Z" fill="#F1A922"/>
<path fill-rule="evenodd" clip-rule="evenodd" d="M269.4 220.128C268.1 222.928 264.4 232.728 273.5 236.828C276.1 238.028 273.4 239.928 267.9 242.228H269.9L295.4 245.628L314.9 250.828L331.8 258.828L343 271.528L348.3 259.828L345.2 247.828L331.2 235.228L299 222.928L269.4 220.128Z" fill="white"/>
<path d="M276.2 306.028C313.8 310.628 346 299.628 348.2 281.328C350.4 263.028 321.8 244.428 284.2 239.828C246.7 235.228 214.4 246.228 212.2 264.528C210 282.828 238.6 301.428 276.2 306.028Z" fill="#E99C0B"/>
<path d="M289.8 255.427C295.9 257.727 304.5 261.427 307.6 261.627C311 261.627 329.6 261.527 336.1 262.927C345.4 264.927 346.8 278.427 346.8 278.427L336.1 284.827L324.6 281.527L317.3 283.027H310.4H301L285.5 287.127L264.3 288.927L251.3 289.027L240.7 286.927L225.9 284.027C225.9 284.027 217.5 280.227 217.1 275.827C215.7 258.427 261 244.627 289.8 255.427Z" fill="#D47B00"/>
<path fill-rule="evenodd" clip-rule="evenodd" d="M275.5 311.928C315.9 316.928 351.4 304.728 354.1 282.028C356.9 259.328 325.4 238.928 285 233.928C244.6 228.928 209.1 241.128 206.4 263.828C203.6 286.428 235.1 306.928 275.5 311.928ZM276.9 300.128C242.2 295.828 216.4 279.128 218.1 265.228C219.8 251.328 248.8 241.428 283.5 245.728C318.2 250.028 344 266.728 342.3 280.628C340.6 294.528 311.6 304.428 276.9 300.128Z" fill="#301D37"/>
<path fill-rule="evenodd" clip-rule="evenodd" d="M354.6 281.427V281.027L355.6 263.427C358.2 240.627 326.6 220.127 286.2 215.127C245.6 210.127 209.9 222.427 207.1 245.327V245.727L206.1 263.327C203.5 286.127 235.1 306.627 275.5 311.627C316.1 316.627 351.8 304.327 354.6 281.427ZM343.9 262.127V262.527L342.9 280.127C341 294.127 311.8 304.127 277.1 299.827C242.2 295.527 216.3 278.627 218 264.627V264.227L219 246.627C220.9 232.627 250.1 222.627 284.8 226.927C319.7 231.227 345.6 248.027 343.9 262.127Z" fill="#301D37"/>
<path d="M184.9 278.328L178.3 295.328L174.5 314.028L176.3 340.328L184.9 365.028L193.7 378.828L210.8 399.828L220.8 406.128L273.3 410.228H298.4L333.3 402.428L359.4 386.028L375.5 360.228L382.1 340.428V326.528L375.5 317.328L363.1 313.928L356.5 298.528L340.3 285.128L315.7 280.728L298.4 282.528L287.7 271.928L273.3 267.428L248.7 269.928L220.7 278.128H184.9V278.328Z" fill="white"/>
<path d="M372.7 325.728C372.7 325.728 363.9 347.128 355.4 344.928C347 342.828 359.9 320.628 359.9 320.628L369.1 317.128L372.7 325.728Z" fill="#DBD7DA"/>
<path d="M281.3 325.228C281.3 325.228 282.3 332.228 290.4 328.728C303 323.228 316.8 307.428 315.3 287.428L302.1 280.828L301.3 292.728L281.3 325.228Z" fill="#DBD7DA"/>
<path d="M189.6 375.028C189.6 375.028 253.7 392.328 294.3 389.128C334.9 385.828 348.5 379.828 377.6 356.828L363 379.128L348.7 395.828L322.9 406.228L283.5 410.228L226.9 406.228L210.7 402.528L189.6 375.028Z" fill="#D7D9D7"/>
<path d="M206.4 402.428L193.7 378.728L180.3 353.628L174.5 327.028L177.5 300.928L185 278.328H-12.7002L27.2998 421.528L47.3998 412.628L78.9998 406.428L112.9 402.428H165.6H206.4Z" fill="#FFEE8A"/>
<path d="M188.1 372.428C188.1 372.428 96.4001 364.928 16.9001 382.028C-62.5999 399.128 27.3001 421.528 27.3001 421.528L53.1001 412.828L124.5 402.528H191.1H210.8L188.1 372.428Z" fill="#F4C257"/>
<path d="M-4.60059 278.328L84.7994 275.228L184.799 278.328L179.799 292.428C179.799 292.428 65.6994 289.828 -1.40059 295.428L-4.60059 278.328Z" fill="white"/>
<path d="M-22.1002 287.027C36.4998 283.727 80.3998 282.227 109.3 282.727C124.1 282.927 137.3 283.227 152.9 283.727C154.4 283.727 174.5 284.427 179.9 284.627C189.3 284.927 196.6 285.027 203.8 285.027C216.5 285.127 229.4 283.127 242.5 279.827C248.4 278.327 260.4 274.727 259.2 275.027C267.3 272.827 280.5 274.927 289.8 283.227C291.1 284.427 291.7 285.027 292.6 286.127C294.7 288.927 295.7 292.027 295.2 295.927C294.4 301.927 290.1 309.327 281.3 318.027C278.6 320.727 278.5 325.127 281.2 327.827C283.9 330.527 288.3 330.627 291 327.927C311.2 308.027 313.5 290.727 303.6 277.727C302.7 276.627 301.9 275.627 300.9 274.627C300.3 274.027 300 273.827 299.1 272.927C286 261.127 268 258.327 255.7 261.627C256.6 261.427 244.7 265.027 239.2 266.327C227.1 269.427 215.3 271.127 203.9 271.127C196.9 271.127 189.6 270.927 180.4 270.727C175.1 270.527 155 269.927 153.5 269.827C137.8 269.327 124.6 269.027 109.7 268.827C80.3998 268.427 36.2998 269.827 -22.7002 273.127C-26.5002 273.327 -29.4002 276.627 -29.2002 280.427C-29.2002 284.327 -25.9002 287.327 -22.1002 287.027Z" fill="#301D37"/>
<path d="M178.6 275.527C157.1 323.927 167.1 368.427 208.1 407.527C210.9 410.127 215.2 410.027 217.9 407.327C220.5 404.527 220.4 400.227 217.7 397.527C180.8 362.327 172.1 324.027 191.2 281.127C192.8 277.627 191.2 273.527 187.7 272.027C184.2 270.527 180.2 272.027 178.6 275.527Z" fill="#301D37"/>
<path d="M41.4001 422.627C75.6001 412.627 111.7 407.627 149.6 407.627C173.7 407.627 191.8 408.927 220.6 412.027C220.7 412.027 229.8 413.027 232.3 413.327C236.7 413.827 240.4 414.127 243.9 414.527C258.1 415.927 269.9 416.527 282.1 416.527C308.1 416.527 327.6 413.327 344.1 404.927C363.9 394.827 378.2 377.627 386.9 351.627C393.5 332.027 383.1 307.027 366.5 307.027C362.7 307.027 359.6 310.127 359.6 313.927C359.6 317.727 362.7 320.827 366.5 320.827C368.2 320.827 371 323.427 373 328.127C375.4 333.927 375.8 341.027 373.8 347.127C359.8 388.827 332.8 402.527 282.1 402.527C270.4 402.527 259 401.927 245.2 400.527C241.7 400.227 238.1 399.827 233.8 399.327C231.2 399.027 222.2 398.027 222.1 398.027C192.8 394.827 174.3 393.527 149.6 393.527C110.4 393.527 73.0001 398.727 37.5001 409.027C33.8001 410.127 31.7001 413.927 32.8001 417.627C33.9001 421.527 37.8001 423.627 41.4001 422.627Z" fill="#301D37"/>
<path d="M299.6 289.428C318.7 286.328 332.1 287.628 339.8 292.828C345.6 296.728 350 301.228 352.9 305.828C355.1 309.328 356.2 312.528 356.2 314.128C356.2 320.928 354 328.628 349.3 333.728C346.7 336.528 346.9 340.928 349.7 343.528C352.5 346.128 356.9 345.928 359.5 343.128C366.9 335.128 370 324.228 370 314.228C370 304.328 361.4 290.928 347.5 281.528C336.3 273.928 319.6 272.328 297.3 276.028C293.5 276.628 291 280.228 291.6 283.928C292.2 287.528 295.8 290.028 299.6 289.428Z" fill="#301D37"/>
<path fill-rule="evenodd" clip-rule="evenodd" d="M158.3 173.428C153.6 196.228 142.4 205.828 137.5 209.028C142.4 212.228 153.6 221.828 158.3 244.628C163 221.828 174.2 212.228 179.1 209.028C174.2 205.828 163 196.228 158.3 173.428Z" fill="white"/>
<path fill-rule="evenodd" clip-rule="evenodd" d="M336.2 53.9277C331.1 78.8277 318.8 89.4277 313.5 92.9277C318.8 96.4277 331.1 106.928 336.2 131.928C341.3 107.028 353.6 96.4277 358.9 92.9277C353.6 89.3277 341.3 78.8277 336.2 53.9277Z" fill="white"/>
</g>
<defs>
<clipPath id="clip0_1_11073">
<rect width="500" height="500" fill="white" transform="translate(0 0.527344)"/>
</clipPath>
</defs>
</svg>
