<svg width="500" height="501" viewBox="0 0 500 501" fill="none" xmlns="http://www.w3.org/2000/svg">
<path d="M88.8004 141.627L208.3 22.1271C230.7 -0.272852 267 -0.272852 289.4 22.1271L409.9 142.527C417.5 150.127 417.3 162.427 409.6 169.827L347.8 228.627C340.3 235.727 328.5 235.627 321.2 228.327L274.9 182.027C260.4 167.527 236.9 167.527 222.4 182.027L176.6 227.827C169.2 235.227 157.3 235.327 149.8 228.027L89.0004 168.727C81.4004 161.327 81.3004 149.127 88.8004 141.627Z" fill="#3DB6D3"/>
<path d="M432.8 195.327L486.8 242.727C498.1 252.627 498.6 269.927 488.1 280.527L290.9 478.327C269.1 500.127 233.8 500.327 211.9 478.627L10.7 279.327C0.200002 268.927 0.500003 251.727 11.5 241.727L63.7 194.027C71.8 186.627 84.2 186.827 92 194.427L138.9 239.927C152.5 253.127 174 253.227 187.7 240.327L236.3 194.527C244.4 186.927 257 187.027 264.9 194.827L311 240.027C324.8 253.527 346.8 253.527 360.6 239.927L404.8 196.227C412.3 188.527 424.6 188.127 432.8 195.327Z" fill="#E2E1E1"/>
</svg>
