<svg width="500" height="501" viewBox="0 0 500 501" fill="none" xmlns="http://www.w3.org/2000/svg">
<path d="M250 1.52734C112.5 1.52734 1 113.027 1 250.527C1 265.427 2.4 279.927 4.9 294.127H60.2C67.3 294.127 71.5 291.827 74.2 287.427L93.6 255.227L118.4 332.327C120.8 340.127 126.6 344.127 134.4 344.227C142.4 344.227 148.9 339.427 150.5 331.427L168.5 246.427L188.1 381.927C189.3 390.827 193.6 395.327 202.6 395.327H202.7C211.6 395.327 215.9 390.527 217.1 381.627L257.1 118.027C258.2 109.827 252.5 102.327 244.3 101.127C236.1 100.027 228.6 105.727 227.4 113.827L202.7 282.827L186.1 170.027C185 161.327 178.4 156.027 171.3 155.827C163.2 155.627 157.2 160.727 155.5 169.327L131.7 279.727L112.7 220.527C111.1 214.127 105.7 209.427 99.2 208.527C90.5 207.527 85.6 211.927 82 217.927L52.6 264.227H35.1C34.8 259.627 34.6 255.127 34.6 250.527C34.6 131.527 131 35.1273 250 35.1273C345.9 35.1273 427.2 97.8273 455 184.527H490.1C461.2 79.0273 364.7 1.52734 250 1.52734Z" fill="url(#paint0_linear_1_11111)"/>
<path d="M495.1 206.928H439.7C432.6 206.928 428.4 209.228 425.7 213.628L406.3 245.828L381.4 168.728C379 160.928 373.2 156.928 365.4 156.828C357.4 156.828 350.9 161.628 349.3 169.628L331.3 254.628L311.7 119.128C310.5 110.228 306.2 105.728 297.2 105.728H297.1C288.2 105.728 283.9 110.528 282.7 119.428L242.7 383.028C241.6 391.228 247.3 398.728 255.4 399.928C263.6 401.028 271.1 395.328 272.3 387.228L297 218.228L313.6 331.028C314.7 339.728 321.3 345.028 328.4 345.228C336.5 345.428 342.6 340.328 344.2 331.728L368 221.328L387 280.528C388.5 286.928 394.2 291.728 400.5 292.528C409.2 293.528 414.1 289.128 417.7 283.128L447.1 236.828H464.8C465.1 241.328 465.3 245.928 465.3 250.528C465.3 369.528 368.9 465.928 249.9 465.928C154 465.928 72.7004 403.228 44.9004 316.528H9.90039C38.8004 422.028 135.4 499.528 250 499.528C387.5 499.528 499 388.028 499 250.528C499 235.628 497.6 221.128 495.1 206.928Z" fill="url(#paint1_linear_1_11111)"/>
<defs>
<linearGradient id="paint0_linear_1_11111" x1="16.8441" y1="-14.3168" x2="514.844" y2="483.683" gradientUnits="userSpaceOnUse">
<stop stop-color="#FC829F"/>
<stop offset="0.337" stop-color="#FF1C53"/>
<stop offset="0.436" stop-color="#EA49F8"/>
<stop offset="0.53" stop-color="#B250FF"/>
<stop offset="0.634" stop-color="#5E5FF5"/>
<stop offset="1" stop-color="#323CFF"/>
</linearGradient>
<linearGradient id="paint1_linear_1_11111" x1="-14.8407" y1="17.3686" x2="483.159" y2="515.369" gradientUnits="userSpaceOnUse">
<stop stop-color="#FC829F"/>
<stop offset="0.337" stop-color="#FF1C53"/>
<stop offset="0.436" stop-color="#EA49F8"/>
<stop offset="0.53" stop-color="#B250FF"/>
<stop offset="0.634" stop-color="#5E5FF5"/>
<stop offset="1" stop-color="#323CFF"/>
</linearGradient>
</defs>
</svg>
