<svg width="500" height="501" viewBox="0 0 500 501" fill="none" xmlns="http://www.w3.org/2000/svg">
<g clip-path="url(#clip0_1_11114)">
<path fill-rule="evenodd" clip-rule="evenodd" d="M250 500.527C388.1 500.527 500 388.627 500 250.527C500 112.427 388.1 0.527344 250 0.527344C111.9 0.527344 0 112.427 0 250.527C0 388.627 111.9 500.527 250 500.527Z" fill="#25292E"/>
<path fill-rule="evenodd" clip-rule="evenodd" d="M386.1 87.3273C349.3 56.5273 301.8 38.0273 250 38.0273C198.2 38.0273 150.7 56.5273 113.9 87.3273C111.1 89.6273 111 93.8273 113.6 96.3273L118.1 100.827C120.4 103.127 124.2 103.227 126.7 101.127C160.2 73.4273 203.2 56.7273 250.1 56.7273C297 56.7273 340 73.4273 373.5 101.127C376 103.227 379.8 103.127 382.1 100.827L386.6 96.3273C389 93.8273 388.9 89.6273 386.1 87.3273ZM100.3 118.527C102.6 120.827 102.7 124.627 100.6 127.127C72.9 160.627 56.2 203.627 56.2 250.527C56.2 297.427 72.9 340.427 100.6 373.927C102.7 376.427 102.6 380.227 100.3 382.527L95.8 387.027C93.3 389.527 89.1 389.427 86.8 386.727C56 349.827 37.5 302.327 37.5 250.527C37.5 198.727 56 151.227 86.8 114.427C89.1 111.627 93.3 111.527 95.8 114.127L100.3 118.527ZM399.4 373.927C397.3 376.427 397.4 380.227 399.7 382.527L404.2 387.027C406.7 389.527 410.9 389.427 413.2 386.727C444 349.827 462.5 302.427 462.5 250.627C462.5 198.827 444 151.327 413.2 114.527C410.9 111.727 406.7 111.627 404.2 114.227L399.7 118.727C397.4 121.027 397.3 124.827 399.4 127.327C427.1 160.827 443.8 203.827 443.8 250.727C443.8 297.627 427.1 340.427 399.4 373.927ZM113.9 413.727C150.8 444.527 198.2 463.027 250 463.027C301.8 463.027 349.3 444.527 386.1 413.727C388.9 411.427 389 407.227 386.4 404.727L381.9 400.227C379.6 397.927 375.8 397.827 373.3 399.927C339.8 427.627 296.8 444.327 249.9 444.327C203 444.327 160 427.627 126.5 399.927C124 397.827 120.2 397.927 117.9 400.227L113.4 404.727C111 407.227 111.1 411.427 113.9 413.727Z" fill="white"/>
<path d="M165.6 262.027L250 311.927L334.4 262.027L250 380.927L165.6 262.027Z" fill="url(#paint0_linear_1_11114)"/>
<path d="M250 293.327L165.6 243.427L250 110.527L334.4 243.427L250 293.327Z" fill="white"/>
</g>
<defs>
<linearGradient id="paint0_linear_1_11114" x1="249.992" y1="262.007" x2="249.992" y2="380.922" gradientUnits="userSpaceOnUse">
<stop stop-color="white"/>
<stop offset="1" stop-color="white" stop-opacity="0.9"/>
</linearGradient>
<clipPath id="clip0_1_11114">
<rect width="500" height="500" fill="white" transform="translate(0 0.527344)"/>
</clipPath>
</defs>
</svg>
