<svg width="500" height="501" viewBox="0 0 500 501" fill="none" xmlns="http://www.w3.org/2000/svg">
<path d="M483.3 154.928C476 146.328 467.1 139.128 457 133.728L433.6 186.228C437.5 189.028 441.1 192.228 444.3 195.728L483.3 154.928Z" fill="#211E1F"/>
<path d="M318.6 441.627C318.1 443.327 316.4 444.327 314.7 443.827C313.6 443.527 312.8 442.727 312.5 441.627L140.4 57.127H199C224.2 57.127 247 72.027 257.2 95.027L315.6 227.827L365.2 122.927C375.7 100.727 398.1 86.527 422.7 86.527H477.8L318.6 441.627Z" fill="#8247E5"/>
<path d="M186.2 234.827L197.2 209.027L244.5 313.827L185.6 439.627C185 441.427 183.1 442.327 181.3 441.727C180.3 441.327 179.6 440.627 179.2 439.627L1 57.3271H62.8C88.1 57.5271 111.2 72.2271 122 95.1271L182.6 227.127L186.2 234.827Z" fill="#211E1F"/>
<path d="M429.8 225.127L418.4 221.327C410.2 218.527 401.3 216.227 393.1 212.827C381.7 208.127 374.7 198.927 370.3 187.527C363 168.527 361.8 146.727 363.7 126.827H363.4C334 137.227 312.5 161.027 312.5 197.327C312.5 239.427 338.8 261.527 375.8 273.927L392.2 279.627L405.8 284.327C422.6 290.027 430.8 295.027 430.8 306.127C430.8 320.327 418.8 326.327 398.5 326.327C389.7 326.427 381 324.627 372.9 321.227L349.2 374.027C366.1 379.727 383.9 382.627 401.7 382.527C469.1 382.527 498.2 348.727 498.2 302.227C497.9 266.527 480.8 242.227 429.8 225.127Z" fill="#211E1F"/>
</svg>
