<svg width="500" height="501" viewBox="0 0 500 501" fill="none" xmlns="http://www.w3.org/2000/svg">
<g clip-path="url(#clip0_1_11124)">
<path d="M250 332.228C265.74 332.228 278.5 319.468 278.5 303.728C278.5 287.987 265.74 275.228 250 275.228C234.26 275.228 221.5 287.987 221.5 303.728C221.5 319.468 234.26 332.228 250 332.228Z" fill="black"/>
<path d="M250 0.727539H227.4V50.4275H250C340 50.4275 416.4 110.128 441.5 192.028H0.4L0 250.528V250.728C0 388.528 112.1 500.728 250 500.728C387.9 500.728 500 388.628 500 250.728C499.9 112.828 387.8 0.727539 250 0.727539ZM250 450.928C139.6 450.928 49.8 361.128 49.7 250.728L49.8 241.628H86.6V253.628C86.6 343.728 159.9 417.128 250.1 417.128H272V367.428H250C187.3 367.428 136.2 316.428 136.2 253.628V241.628H450.1C450.2 244.628 450.3 247.628 450.3 250.628C450.3 361.128 360.4 450.928 250 450.928Z" fill="black"/>
</g>
<defs>
<clipPath id="clip0_1_11124">
<rect width="500" height="500" fill="white" transform="translate(0 0.527344)"/>
</clipPath>
</defs>
</svg>
