<svg width="500" height="501" viewBox="0 0 500 501" fill="none" xmlns="http://www.w3.org/2000/svg">
<path fill-rule="evenodd" clip-rule="evenodd" d="M243.4 26.1273C245.3 24.2273 247.8 23.2273 250.4 23.2273C253 23.2273 255.5 24.2273 257.4 26.1273L474.5 243.927C475.1 244.527 475.4 245.227 475.8 245.927L377.5 295.027C373.7 296.927 369.1 296.227 366.1 293.227L271.5 198.827C265.9 193.227 258.4 190.127 250.5 190.127C242.6 190.127 235.1 193.227 229.5 198.827L134.9 293.227C131.9 296.227 127.3 297.027 123.5 295.027L25.0002 245.927C25.4002 245.227 25.7002 244.527 26.3002 243.927L243.4 26.1273ZM488.4 230.027L271.4 12.2273C265.8 6.62734 258.3 3.52734 250.4 3.52734C242.5 3.52734 235 6.62734 229.4 12.2273L12.4002 229.927C0.800196 241.427 0.800196 260.227 12.4002 271.827L229.4 488.427C235 494.027 242.5 497.127 250.4 497.127C258.3 497.127 265.8 494.027 271.4 488.427L488.4 271.827C500 260.327 500 241.527 488.4 230.027Z" fill="black"/>
</svg>
