<svg width="500" height="501" viewBox="0 0 500 501" fill="none" xmlns="http://www.w3.org/2000/svg">
<path d="M47.4 331.028C47 331.028 46.7 331.028 46.3 331.028C37.5 330.528 30 324.328 28 315.728L1.49997 202.428C-1.00003 191.728 5.69997 181.028 16.3 178.528C27 176.028 37.7 182.628 40.2 193.328L51.2 240.428L69.2 189.228C72 181.228 79.5 175.928 87.9 175.928C88 175.928 88 175.928 88.1 175.928C96.6 176.028 104.1 181.428 106.8 189.528L123.3 239.128L134.3 193.228C136.9 182.528 147.6 176.028 158.3 178.528C169 181.128 175.5 191.828 173 202.528L145.7 315.828C143.6 324.428 136.1 330.628 127.2 331.028C118.4 331.428 110.3 325.828 107.5 317.428L87.4 257.028L66.1 317.728C63.4 325.728 55.8 331.028 47.4 331.028Z" fill="#FBC509"/>
<path d="M218.8 328.227C207.8 328.227 198.9 319.327 198.9 308.327V192.927C198.9 181.927 207.8 173.027 218.8 173.027C229.8 173.027 238.7 181.927 238.7 192.927V308.327C238.6 319.327 229.7 328.227 218.8 328.227Z" fill="#FBC509"/>
<path d="M376.1 331.027C365.1 331.027 356.2 322.127 356.2 311.127V243.527C356.2 228.627 344.1 216.527 329.2 216.527C314.3 216.527 302.2 228.627 302.2 243.527V311.127C302.2 322.127 293.3 331.027 282.3 331.027C271.3 331.027 262.4 322.127 262.4 311.127V243.527C262.4 206.727 292.3 176.827 329.1 176.827C365.9 176.827 395.8 206.727 395.8 243.527V311.127C395.9 322.127 387.1 331.027 376.1 331.027Z" fill="#FBC509"/>
<path d="M477.1 333.327C470.3 333.327 463.6 330.128 459.4 324.128L419.3 266.327C414.1 258.927 414.2 249.028 419.4 241.628L460 184.028C466.8 174.328 480.3 172.028 490 178.828C499.7 185.628 502 199.128 495.2 208.828L463.3 254.128L494.8 299.527C501.6 309.327 499.2 322.727 489.4 329.427C485.6 332.127 481.3 333.327 477.1 333.327Z" fill="black"/>
<path d="M299.5 414.427C262.6 414.427 224.9 403.927 186.8 382.827C180.8 379.527 178.6 371.927 181.9 365.927C185.2 359.927 192.8 357.727 198.8 361.027C267.8 399.127 332.1 399.227 395.5 361.227C401.4 357.727 409 359.627 412.5 365.527C416 371.427 414.1 379.027 408.2 382.527C373 403.827 336.6 414.427 299.5 414.427Z" fill="black"/>
<path d="M385.2 146.827C383.3 146.827 381.4 146.227 379.7 145.027L351 123.327C348.7 121.627 347.4 118.827 347.4 115.927C347.4 113.027 348.8 110.327 351.2 108.627L379.2 88.3273C383.3 85.3273 389 86.3273 391.9 90.3273C394.9 94.4273 393.9 100.127 389.9 103.027L371.9 116.127L390.8 130.427C394.8 133.427 395.6 139.127 392.6 143.127C390.7 145.527 387.9 146.827 385.2 146.827Z" fill="black"/>
<path d="M218.2 144.327C232.559 144.327 244.2 132.687 244.2 118.327C244.2 103.968 232.559 92.3271 218.2 92.3271C203.841 92.3271 192.2 103.968 192.2 118.327C192.2 132.687 203.841 144.327 218.2 144.327Z" fill="black"/>
</svg>
