<svg width="500" height="501" viewBox="0 0 500 501" fill="none" xmlns="http://www.w3.org/2000/svg">
<g clip-path="url(#clip0_1_11146)">
<path d="M479.9 153.427C467.2 123.727 449.4 97.1273 426.2 73.9273C403.1 50.8273 376.9 32.9273 347.2 20.2273C316.3 7.12734 283.6 0.527344 250 0.527344C216 0.527344 183.2 7.02734 152.7 20.1273C123 32.8273 96.4 50.7273 73.3 73.9273C50.2 97.0273 32.3 123.727 19.6 153.427C6.5 183.927 0 216.727 0 250.727C0 284.327 6.5 317.127 19.6 348.127C32.3 377.827 50.1 404.427 73.3 427.627C96.4 450.727 123 468.627 152.7 480.927C183.7 494.027 216.4 500.527 250 500.527C283.6 500.527 316.3 494.027 347.3 480.927C377 468.227 403.6 450.327 426.7 427.227C449.8 404.127 467.7 377.427 480.4 347.727C493.5 316.727 500 284.027 500 250.327C500 216.727 493 183.927 479.9 153.427ZM167.1 227.127C177.1 186.927 213.8 157.727 257 157.727H430.6C441.9 179.127 448.9 202.727 451.5 227.127H167.1ZM451.6 274.327C449 298.827 441.6 322.327 430.7 343.727H257C213.8 343.727 177.6 314.027 167.1 274.327H451.6ZM106.5 107.127C144.9 68.7273 195.9 47.7273 250 47.7273C304.1 47.7273 355.1 68.7273 393.5 107.127C394.8 108.427 395.7 109.327 397 110.627H257C219.5 110.627 184.6 125.027 158 151.627C137.1 172.627 123.5 198.827 119.2 227.127H48.4C53.7 181.727 73.7 139.827 106.5 107.127ZM250 453.727C195.9 453.727 144.9 432.727 106.5 394.327C73.8 361.627 53.7 319.227 48.5 274.227H119.2C124 302.627 137.5 328.827 158 349.727C184.6 376.327 219.5 390.727 257 390.727H397C395.7 392.027 394.8 392.927 393.5 394.227C355.1 432.827 304.1 453.727 250 453.727Z" fill="black"/>
</g>
<defs>
<clipPath id="clip0_1_11146">
<rect width="500" height="500" fill="white" transform="translate(0 0.527344)"/>
</clipPath>
</defs>
</svg>
