<svg width="500" height="501" viewBox="0 0 500 501" fill="none" xmlns="http://www.w3.org/2000/svg">
<path d="M5.09998 92.9272C30.1 92.9272 55.3 92.6272 80.5 93.3272C82.9 93.4272 86.2 99.0272 87.3 102.627C107.6 169.527 127.7 236.527 148.5 305.827C162.1 274.827 175.5 245.827 187.5 216.327C198.9 188.127 217.9 170.427 249 170.627C280.1 170.827 298.8 189.127 309.8 217.327C321.2 246.327 333.8 274.827 346.9 305.827C351.7 290.327 355.5 276.927 360 263.727C360.9 261.127 364.3 257.627 366.6 257.527C391.3 257.127 416 257.227 442.4 257.227C436.9 275.527 431.8 292.827 426.5 310.027C417.1 340.627 407.6 371.227 398.3 401.927C393.6 417.327 383.9 425.327 367.2 425.127C298.5 424.427 309.2 433.027 282.8 369.227C271.6 342.127 260.4 314.927 248.3 285.327C236.1 315.327 224.7 343.027 213.6 370.927C187.5 436.527 196.9 424.427 122.9 424.027C115.2 424.027 103.1 414.027 100.7 406.327C67.8 303.127 36.3 199.327 4.59998 95.6272C4.39998 95.1272 4.79998 94.5272 5.09998 92.9272Z" fill="#0C1926"/>
<path d="M374.2 216.827C386.7 175.727 398.8 135.927 411.1 96.227C411.5 94.827 414 93.127 415.6 93.127C441.4 92.927 467.1 93.027 494.1 93.027C481.3 133.927 468.9 173.627 456.2 213.227C455.7 214.727 453.4 216.727 452 216.727C426.6 216.927 401.1 216.827 374.2 216.827Z" fill="#0C1926"/>
</svg>
