<svg width="500" height="501" viewBox="0 0 500 501" fill="none" xmlns="http://www.w3.org/2000/svg">
<g clip-path="url(#clip0_1_11157)">
<path d="M0 33.8271C1.1 34.6271 1.9 35.1271 2.6 35.7271C28.5 57.2271 54.4 78.7271 79.3 101.527C87.7 109.227 95.6 117.527 103.7 125.627C140.1 162.027 176.2 198.827 212 235.927C215.4 239.427 218.7 242.927 222 246.427C222.7 247.127 223.2 247.827 224 248.727C223.3 249.527 222.8 250.127 222.2 250.727C209.4 263.127 196.7 275.627 183.6 287.827C167.1 303.227 150.5 318.427 133.7 333.527C123.6 342.627 113.2 351.327 102.2 359.327C100.5 360.527 98.8 361.627 97.1 362.827C96.3 363.227 96.2 363.327 96.6 362.327C97 361.627 97.4 360.927 97.8 360.227C103.9 350.827 110.9 342.027 117.9 333.227C139.9 305.827 163 279.527 185.9 252.927C189.7 248.627 189.7 249.427 185.6 245.227C150 209.427 115.2 172.827 81.6 135.027C54.5 104.727 28.1 73.5271 4 40.2271C2.8 38.5272 1.6 36.7271 0.4 35.0271C0.3 34.8271 0.3 34.6271 0 33.8271Z" fill="url(#paint0_radial_1_11157)"/>
<path d="M51.3999 495.228C51.8999 494.428 52.3999 493.628 52.8999 492.928C59.1999 484.828 65.2999 476.628 71.6999 468.628C91.4999 444.128 112.2 420.428 133.1 397.028C161.9 364.628 191.4 332.928 221.5 301.828C231.3 291.628 241.2 281.428 251 271.228C251.9 270.328 252.9 269.428 254.1 268.428C254.9 269.128 255.7 269.728 256.3 270.428C288.2 303.828 319.1 338.228 347.6 374.828C353 381.728 358.1 389.028 363.4 396.128C363.9 396.828 364.3 397.628 364.9 398.528C363.7 398.928 363 398.228 362.4 397.728C355.5 392.528 348.5 387.428 341.8 381.928C322.9 366.628 304.8 350.428 286.7 334.228C277.4 325.928 268.1 317.628 258.8 309.328C256.7 307.428 256.5 307.428 254.5 309.428C238.8 324.728 223.2 340.028 207.4 355.128C183.4 377.928 159.4 400.728 135.2 423.328C120.4 437.128 105.4 450.528 90.2999 464.028C78.6999 474.328 66.8999 484.428 54.4999 493.828C53.5999 494.528 52.6999 495.128 51.7999 495.728L51.3999 495.228Z" fill="url(#paint1_radial_1_11157)"/>
<path d="M408.2 133.727C406.6 136.227 405.4 138.327 403.7 140.627C396.2 150.627 388.8 160.727 381 170.527C361 195.727 340.3 220.427 319.3 244.727C319.1 244.927 319 245.127 318.8 245.327C317.3 247.127 317.3 247.327 319 249.027C323.9 254.127 328.8 259.127 333.6 264.227C372.1 304.627 409.9 345.627 446.5 387.827C462.4 406.227 478.1 424.727 492.8 444.227C495.1 447.227 497.3 450.427 499.5 453.427C499.9 453.927 500.1 454.627 500.2 455.327C499.4 454.727 498.6 454.227 497.8 453.627C485.2 444.027 473.1 433.727 461.2 423.227C430.6 396.327 401 368.327 371.7 339.927C345.8 314.827 320.2 289.227 295 263.327C290.9 259.127 286.8 254.827 282.7 250.627C282.1 250.027 281.6 249.327 280.8 248.427C281.4 247.727 281.9 247.027 282.5 246.427C296.4 232.827 310.1 219.027 324.2 205.727C340.2 190.627 356.5 175.727 373 161.127C383.4 151.927 394.3 143.427 405 134.627C406 133.827 406.4 133.527 407.4 132.827C408.4 132.127 408.7 132.327 408.7 132.327C408.7 132.327 408.7 132.727 408.2 133.727Z" fill="url(#paint2_radial_1_11157)"/>
<path d="M452.7 6.82745C445.2 17.1275 414.5 54.0275 394.2 77.3275C349.3 128.927 303 179.027 254 226.727C253 225.827 252.2 225.127 251.5 224.427C238 211.027 225.4 196.727 213 182.427C193.1 159.327 173.6 135.927 155 111.627C151.8 107.427 148.7 103.127 145.5 98.9275C144.8 98.0275 144.3 97.0275 143.7 96.1274L144.1 95.6274C144.9 96.1274 145.8 96.6274 146.6 97.2274C158.1 106.227 169.8 115.027 181.1 124.327C202.5 141.827 223.4 160.127 243.6 179.227C246.1 181.527 248.5 184.027 251 186.327C253.6 188.927 253.6 188.927 256.1 186.327C269.9 172.527 283.6 158.627 297.5 144.927C331.6 111.327 366.6 78.6275 402.7 47.2275C418.7 33.3275 435.2 20.0275 451.5 6.42745C454 4.52745 453.6 5.52745 452.7 6.82745Z" fill="url(#paint3_radial_1_11157)"/>
</g>
<defs>
<radialGradient id="paint0_radial_1_11157" cx="0" cy="0" r="1" gradientUnits="userSpaceOnUse" gradientTransform="translate(55.329 201.668) scale(212.039 218.256)">
<stop offset="0.33" stop-color="#00B7B0"/>
<stop offset="0.96" stop-color="#0084C3"/>
</radialGradient>
<radialGradient id="paint1_radial_1_11157" cx="0" cy="0" r="1" gradientUnits="userSpaceOnUse" gradientTransform="translate(99.4445 467.508) scale(299.758 308.547)">
<stop offset="0.24" stop-color="#00B8AE"/>
<stop offset="0.53" stop-color="#00AAB7"/>
<stop offset="1" stop-color="#008ACB"/>
</radialGradient>
<radialGradient id="paint2_radial_1_11157" cx="0" cy="0" r="1" gradientUnits="userSpaceOnUse" gradientTransform="translate(268.703 273.937) scale(244.511 251.68)">
<stop offset="0.13" stop-color="#58C4C1"/>
<stop offset="0.71" stop-color="#1B9ABF"/>
<stop offset="0.95" stop-color="#0088BE"/>
</radialGradient>
<radialGradient id="paint3_radial_1_11157" cx="0" cy="0" r="1" gradientUnits="userSpaceOnUse" gradientTransform="translate(307.739 174.667) scale(227.858 234.539)">
<stop offset="0.13" stop-color="#6BC6C4"/>
<stop offset="0.61" stop-color="#2EA0BD"/>
<stop offset="0.96" stop-color="#0084B8"/>
</radialGradient>
<clipPath id="clip0_1_11157">
<rect width="500" height="500" fill="white" transform="translate(0 0.527344)"/>
</clipPath>
</defs>
</svg>
