<svg width="500" height="501" viewBox="0 0 500 501" fill="none" xmlns="http://www.w3.org/2000/svg">
<path d="M416.932 426.949C398.141 446.135 376.042 460.696 351.734 471.633C287.58 500.499 222.385 502.209 157.048 476.184C112.73 458.531 76.745 429.669 49.262 390.531C16.976 344.554 1.92901 293.257 4.81501 237.316C7.87701 177.971 30.045 126.194 70.632 82.5316C72.548 80.4706 74.638 78.5726 76.646 76.6006C77.228 78.1496 77.892 79.6696 78.382 81.2446C99.22 148.11 120.042 214.979 140.868 281.848C147.402 302.827 153.938 323.804 160.423 344.624C181.084 344.624 201.148 344.624 221.373 344.624C230.113 312.284 238.771 280.247 247.428 248.211C247.968 248.263 248.509 248.315 249.049 248.366C257.801 280.471 266.553 312.577 275.277 344.581C295.978 344.581 316.006 344.581 336.222 344.581C345.669 310.774 355.021 277.31 364.372 243.847C364.858 243.881 365.344 243.914 365.83 243.948C382.865 304.948 399.899 365.949 416.932 426.949Z" fill="#FBEE06"/>
<path d="M116.493 44.9168C126.905 36.1498 139.171 30.5038 151.484 25.2988C215.461 -1.7442 280.13 -2.6952 344.032 24.2988C407.335 51.0398 452.466 97.0408 476.985 161.483C505.86 237.374 497.948 310.423 456.155 379.901C455.446 381.079 454.406 382.059 453.521 383.131C453.113 382.298 452.563 381.505 452.318 380.627C435.789 321.347 419.29 262.059 402.772 202.776C399.302 190.323 395.768 177.888 392.372 165.83C373.552 165.83 355.64 165.83 337.758 165.83C326.316 205.281 316.684 244.762 303.775 285.378C294.032 244.086 284.802 204.973 275.543 165.73C257.295 165.73 239.393 165.73 221.069 165.73C211.814 204.818 202.621 243.642 193.428 282.465C192.748 282.408 192.069 282.35 191.389 282.293C190.638 280.159 189.824 278.045 189.144 275.889C180.812 249.479 172.491 223.065 164.184 196.647C148.282 146.072 132.39 95.4938 116.493 44.9168Z" fill="#FBEE06"/>
<path d="M116.493 44.917C132.39 95.494 148.282 146.071 164.184 196.646C172.491 223.064 180.812 249.478 189.144 275.888C189.824 278.044 190.638 280.159 191.389 282.292C192.069 282.349 192.748 282.407 193.428 282.464C202.621 243.64 211.814 204.817 221.069 165.729C239.393 165.729 257.294 165.729 275.543 165.729C284.803 204.972 294.032 244.085 303.775 285.377C316.684 244.76 326.316 205.28 337.758 165.829C355.639 165.829 373.551 165.829 392.372 165.829C395.768 177.887 399.303 190.322 402.772 202.775C419.29 262.058 435.789 321.346 452.318 380.626C452.563 381.504 453.113 382.297 453.521 383.13C443.628 399.66 431.327 414.179 416.931 426.949C399.898 365.949 382.865 304.948 365.832 243.948C365.346 243.914 364.86 243.881 364.374 243.847C355.023 277.31 345.671 310.774 336.224 344.581C316.008 344.581 295.98 344.581 275.279 344.581C266.555 312.577 257.803 280.472 249.051 248.366C248.511 248.314 247.97 248.262 247.43 248.211C238.772 280.248 230.114 312.285 221.375 344.624C201.15 344.624 181.085 344.624 160.425 344.624C153.939 323.805 147.403 302.827 140.87 281.848C120.045 214.979 99.2219 148.11 78.3839 81.245C77.8929 79.67 77.2289 78.15 76.6479 76.601C88.5659 64.324 101.35 53.137 116.493 44.917Z" fill="#020203"/>
</svg>
