<svg width="500" height="501" viewBox="0 0 500 501" fill="none" xmlns="http://www.w3.org/2000/svg">
<g clip-path="url(#clip0_1_11172)">
<path d="M500 0.527344H0V500.527H500V0.527344Z" fill="#00A3FF"/>
<path d="M147.4 232.827L144.6 237.127C113 285.527 120.1 348.927 161.6 389.627C186 413.527 218 425.527 249.9 425.527C249.9 425.427 249.9 425.427 147.4 232.827Z" fill="white"/>
<path opacity="0.6" d="M249.9 291.327L147.4 232.827C249.9 425.427 249.9 425.427 249.9 425.427C249.9 383.427 249.9 335.427 249.9 291.327Z" fill="white"/>
<path opacity="0.6" d="M352.6 232.827L355.4 237.127C387 285.527 379.9 348.927 338.4 389.627C314 413.527 282 425.527 250.1 425.527C250.1 425.427 250.1 425.427 352.6 232.827Z" fill="white"/>
<path opacity="0.2" d="M250 291.327L352.5 232.827C250 425.427 250 425.427 250 425.427C250 383.427 250 335.427 250 291.327Z" fill="white"/>
<path opacity="0.2" d="M250.1 160.527V261.527L338.4 211.027L250.1 160.527Z" fill="white"/>
<path opacity="0.6" d="M250.1 160.527L161.7 211.027L250.1 261.527V160.527Z" fill="white"/>
<path d="M250.1 75.627L161.7 211.127L250.1 160.427V75.627Z" fill="white"/>
<path opacity="0.6" d="M250.1 160.427L338.5 211.127L250.1 75.5273V160.427Z" fill="white"/>
</g>
<defs>
<clipPath id="clip0_1_11172">
<rect width="500" height="500" fill="white" transform="translate(0 0.527344)"/>
</clipPath>
</defs>
</svg>
