<svg width="500" height="501" viewBox="0 0 500 501" fill="none" xmlns="http://www.w3.org/2000/svg">
<g clip-path="url(#clip0_1_11182)">
<path d="M250 15.9277C379.6 15.9277 484.6 120.928 484.6 250.528C484.6 380.128 379.6 485.128 250 485.128C120.4 485.128 15.4004 380.128 15.4004 250.528C15.4004 120.928 120.4 15.9277 250 15.9277Z" fill="white"/>
<path d="M316.2 140.527V112.827H183.8V140.527H236.1V168.227H183.8V332.827H236.1V360.527H183.8V388.227H316.1V360.527H263.8V332.827H268C294.6 332.827 316.1 311.327 316.1 284.727C316.1 271.327 308.4 250.527 288.4 250.527C308.4 250.527 316.1 229.727 316.1 216.327C316.1 189.727 294.6 168.227 268 168.227H263.8V140.527H316.2ZM211.5 195.927H236.1V236.727H211.5V195.927ZM211.5 305.127V264.327H236.1V305.127H211.5ZM268.1 305.127H263.9V264.327H268.1C279.4 264.327 288.5 273.427 288.5 284.727C288.5 296.027 279.3 305.127 268.1 305.127ZM268.1 195.927C279.4 195.927 288.5 205.027 288.5 216.327C288.5 227.627 279.4 236.727 268.1 236.727H263.9V195.927H268.1Z" fill="black"/>
<path d="M250 500.527C183.2 500.527 120.4 474.527 73.2 427.327C26 380.127 0 317.327 0 250.527C0 183.727 26 120.927 73.2 73.7273C120.4 26.5273 183.2 0.527344 250 0.527344C316.8 0.527344 379.6 26.5273 426.8 73.7273C474 120.927 500 183.727 500 250.527C500 317.327 474 380.127 426.8 427.327C379.6 474.527 316.8 500.527 250 500.527ZM250 31.3273C191.4 31.3273 136.4 54.1273 95 95.5273C53.6 136.927 30.8 192.027 30.8 250.527C30.8 309.127 53.6 364.127 95 405.527C136.4 446.927 191.5 469.727 250 469.727C308.5 469.727 363.6 446.927 405 405.527C446.4 364.127 469.2 309.027 469.2 250.527C469.2 191.927 446.4 136.927 405 95.5273C363.6 54.1273 308.6 31.3273 250 31.3273Z" fill="black"/>
</g>
<defs>
<clipPath id="clip0_1_11182">
<rect width="500" height="500" fill="white" transform="translate(0 0.527344)"/>
</clipPath>
</defs>
</svg>
