<svg width="500" height="501" viewBox="0 0 500 501" fill="none" xmlns="http://www.w3.org/2000/svg">
<path d="M495.026 208.329C495.026 238.083 495.081 267.837 495.003 297.59C494.963 313.043 491.543 317.077 476.436 320.75C452.719 326.517 429.017 332.351 405.327 338.228C387.053 342.761 379.198 336.884 379.192 318.449C379.173 258.241 379.171 198.034 379.181 137.826C379.184 122.908 382.135 119.454 397.175 115.748C421.877 109.661 446.553 103.466 471.227 97.2647C485.617 93.6487 494.734 100.041 494.876 114.868C495.175 146.019 494.967 177.175 494.967 208.329C494.988 208.329 495.007 208.329 495.026 208.329Z" fill="#8202FC"/>
<path d="M306.085 174.333C302.538 175.146 300.183 175.668 297.837 176.226C277.452 181.078 268.173 192.358 268.043 213.384C267.838 246.662 267.963 279.941 267.948 313.22C267.946 317.033 267.948 320.846 267.948 325.576C248.247 330.313 229.097 335.572 209.659 339.349C197.726 341.667 190.215 334.406 190.188 322.014C190.053 259.661 190.158 197.307 190.077 134.953C190.064 124.62 194.995 118.725 204.868 116.293C231.277 109.788 257.634 103.069 284.047 96.5821C295.708 93.7181 305.549 100.427 305.918 112.556C306.532 132.822 306.085 153.121 306.085 174.333Z" fill="#8202FC"/>
<path d="M122.728 172.612C117.46 174.049 112.821 175.417 108.131 176.576C88.1274 181.522 79.4654 192.174 79.2904 213.285C79.0494 242.354 79.2254 271.426 79.2224 300.497C79.2214 308.869 79.2224 317.24 79.2224 326.774C61.0504 331.142 43.3394 336.072 25.3414 339.48C13.9384 341.639 6.17938 334.541 6.13938 322.821C5.92538 259.777 6.00738 196.731 6.06238 133.686C6.07038 124.283 11.3724 118.769 20.1424 116.541C47.1554 109.678 74.1644 102.793 101.256 96.2519C112.904 93.4399 122.348 101.93 122.633 115.65C123.017 134.194 122.728 152.751 122.728 172.612Z" fill="#8202FC"/>
<path d="M399.999 357.92C401.82 392.795 401.007 393.678 364.598 401.914C347.584 405.762 330.624 409.867 313.709 414.128C292.494 419.472 284.373 413.263 284.37 391.13C284.36 332.671 284.397 274.212 284.444 215.753C284.457 199.295 287.084 196.028 303.324 191.928C322.26 187.147 341.201 182.387 359.824 177.698C363.681 181.489 362.613 185.533 362.621 189.163C362.711 229.069 362.76 268.976 362.64 308.883C362.536 343.321 367.292 349.794 399.999 357.92Z" fill="#05FCDA"/>
<path d="M172.465 179.265C174.46 185.678 173.519 191.972 173.533 198.2C173.621 238.488 173.699 278.776 173.78 319.064C173.826 342.086 184.043 353.5 207.297 356.55C208.285 356.68 209.233 357.108 211.282 357.722C211.282 365.845 211.965 374.218 211.068 382.42C210.331 389.176 205.303 393.487 198.685 395.197C177.717 400.616 156.715 405.909 135.71 411.185C129.277 412.801 122.859 414.741 116.312 415.592C103.106 417.309 95.6435 410.779 95.2685 397.353C94.9555 386.151 95.2125 374.933 95.2145 363.722C95.2245 313.624 95.5605 263.521 94.9945 213.429C94.8675 202.185 99.9635 195.806 109.24 193.213C128.742 187.762 148.59 183.546 168.318 178.915C169.566 178.623 170.997 179.122 172.465 179.265Z" fill="#05FCDA"/>
</svg>
