<svg width="500" height="501" viewBox="0 0 500 501" fill="none" xmlns="http://www.w3.org/2000/svg">
<path d="M429.9 103.527L388.2 249.027C382.7 268.027 378.4 287.327 375.1 306.927C375.1 307.027 375.1 307.227 375.1 307.227H373.8C372.7 296.327 369.7 285.427 367.9 276.227L322 103.527H228L182.3 276.127C180.5 285.327 177.5 296.227 176.4 307.127H175.1C175.1 307.027 175.1 306.827 175.1 306.827C171.9 287.227 167.5 267.927 162 248.927L120.5 103.527H53.9004L73.4004 171.927H2.40039V220.927H87.3004L101.2 269.627H2.50039V318.727H115.2L137.5 397.227H217L270.8 191.527C272.5 183.927 274 175.627 274.5 169.727H275.8C276.2 175.427 277.8 183.827 279.5 191.527L333.3 397.227H412.8L496.5 103.527H429.9Z" fill="#053F33"/>
</svg>
