<svg width="500" height="501" viewBox="0 0 500 501" fill="none" xmlns="http://www.w3.org/2000/svg">
<g clip-path="url(#clip0_1_11195)">
<path d="M500 250.527C500 112.427 388.1 0.527344 250 0.527344C111.9 0.527344 0 112.427 0 250.527C0 388.627 111.9 500.527 250 500.527C388.1 500.527 500 388.627 500 250.527Z" fill="white"/>
<path d="M408.8 128.927C377.1 97.8273 334.4 80.4273 290 80.5273C196.1 80.5273 120 156.627 120 250.527C120 344.427 196.1 420.527 290 420.527C336.2 420.527 378.2 402.027 408.8 372.127C371 421.627 312.3 450.627 250 450.527C139.5 450.527 50 361.027 50 250.527C50 140.027 139.5 50.5273 250 50.5273C314.7 50.5273 372.2 81.2273 408.8 128.927Z" fill="url(#paint0_linear_1_11195)"/>
<path d="M163 347.827C188.4 372.727 222.5 386.627 258 386.527C333.1 386.527 394 325.627 394 250.527C394 175.427 333.1 114.527 258 114.527C222.5 114.527 188.3 128.427 163 153.227C193.2 113.727 240.2 90.5273 290 90.5273C378.4 90.5273 450 162.127 450 250.527C450 338.927 378.4 410.527 290 410.527C240.2 410.527 193.2 387.327 163 347.827Z" fill="url(#paint1_linear_1_11195)"/>
<path fill-rule="evenodd" clip-rule="evenodd" d="M370 250.527C370 316.827 316.3 370.527 250 370.527C183.7 370.527 130 316.827 130 250.527C130 184.227 183.7 130.527 250 130.527C316.3 130.527 370 184.227 370 250.527ZM330 250.527C330 294.727 294.2 330.527 250 330.527C205.8 330.527 170 294.727 170 250.527C170 206.327 205.8 170.527 250 170.527C294.2 170.527 330 206.327 330 250.527Z" fill="url(#paint2_linear_1_11195)"/>
</g>
<defs>
<linearGradient id="paint0_linear_1_11195" x1="50" y1="250.527" x2="450" y2="250.527" gradientUnits="userSpaceOnUse">
<stop stop-color="#00E0FF"/>
<stop offset="1" stop-color="#562EC8"/>
</linearGradient>
<linearGradient id="paint1_linear_1_11195" x1="50" y1="250.527" x2="450" y2="250.527" gradientUnits="userSpaceOnUse">
<stop stop-color="#00E0FF"/>
<stop offset="1" stop-color="#562EC8"/>
</linearGradient>
<linearGradient id="paint2_linear_1_11195" x1="50" y1="250.527" x2="450" y2="250.527" gradientUnits="userSpaceOnUse">
<stop stop-color="#00E0FF"/>
<stop offset="1" stop-color="#562EC8"/>
</linearGradient>
<clipPath id="clip0_1_11195">
<rect width="500" height="500" fill="white" transform="translate(0 0.527344)"/>
</clipPath>
</defs>
</svg>
