<svg width="500" height="501" viewBox="0 0 500 501" fill="none" xmlns="http://www.w3.org/2000/svg">
<g clip-path="url(#clip0_1_11200)">
<path d="M250 0.527344C388.1 0.527344 500 112.427 500 250.527C500 388.627 388.1 500.527 250 500.527C111.9 500.527 0 388.627 0 250.527C0 112.427 111.9 0.527344 250 0.527344Z" fill="black"/>
<path d="M313.7 241.327C309.3 241.327 305.2 239.627 302.1 236.527L264 198.427C257.6 192.027 257.6 181.627 264 175.227L333.9 105.327C340.3 98.9273 350.7 98.9273 357.1 105.327L395.2 143.427C401.6 149.827 401.6 160.227 395.2 166.627L325.3 236.527C322.2 239.627 318 241.327 313.7 241.327Z" fill="white"/>
<path d="M345.5 400.527C341.1 400.527 337 398.827 333.9 395.727L264 325.827C256.3 318.127 243.7 318.127 236 325.827L166.1 395.727C159.7 402.127 149.3 402.127 142.9 395.727L104.8 357.627C98.4 351.227 98.4 340.827 104.8 334.427L174.7 264.527C182.4 256.827 182.4 244.227 174.7 236.527L104.8 166.627C98.4 160.227 98.4 149.827 104.8 143.427L142.9 105.327C149.3 98.9273 159.7 98.9273 166.1 105.327L236 175.227C242.4 181.627 242.4 192.027 236 198.427L197.9 236.527C190.2 244.227 190.2 256.827 197.9 264.527L236 302.627C243.7 310.327 256.3 310.327 264 302.627L302.1 264.527C308.5 258.127 318.9 258.127 325.3 264.527L395.2 334.427C401.6 340.827 401.6 351.227 395.2 357.627L357.1 395.727C354.1 398.827 349.9 400.527 345.5 400.527Z" fill="white"/>
</g>
<defs>
<clipPath id="clip0_1_11200">
<rect width="500" height="500" fill="white" transform="translate(0 0.527344)"/>
</clipPath>
</defs>
</svg>
