<svg width="500" height="501" viewBox="0 0 500 501" fill="none" xmlns="http://www.w3.org/2000/svg">
<path d="M484.8 157.028L410.2 35.5277L400 18.9277H380.6H120.8H101.5L91.3996 35.4277L16.0996 156.928L3.09961 177.828L18.5996 196.928L223.8 450.628L250.8 484.028L277.8 450.628L482.3 196.928L497.6 177.928L484.8 157.028ZM449.9 166.528H336.3L272.2 53.6277H380.7L449.9 166.528ZM296.4 166.528H204.5L250.9 86.3277L296.4 166.528ZM120.8 53.6277H229.7L164.4 166.528H50.9996L120.8 53.6277ZM144.4 201.128L112 257.228L66.6996 201.128H144.4ZM250.8 428.828L135.3 286.128L184.4 201.228H316L364.8 287.228L250.8 428.828ZM356 201.128H434.3L388.4 258.128L356 201.128Z" fill="url(#paint0_linear_1_11204)"/>
<defs>
<linearGradient id="paint0_linear_1_11204" x1="3.16621" y1="251.509" x2="497.567" y2="251.509" gradientUnits="userSpaceOnUse">
<stop stop-color="#EEB80B"/>
<stop offset="1" stop-color="#EA5811"/>
</linearGradient>
</defs>
</svg>
