<svg width="500" height="501" viewBox="0 0 500 501" fill="none" xmlns="http://www.w3.org/2000/svg">
<path fill-rule="evenodd" clip-rule="evenodd" d="M250.5 249.427C311.8 249.427 362.8 239.027 375.5 225.127C364.8 213.227 326.6 204.127 277.7 201.727V231.027C269.1 231.627 259.9 231.627 250.4 231.627C240.9 231.627 232 231.327 223.1 230.727V201.727C174.2 204.427 136 213.627 125.3 225.127C137.9 239.027 189.2 249.427 250.5 249.427ZM359.2 111.627V151.927H277.4V179.827C334.9 182.827 377.8 194.927 378.1 209.727V240.227C377.8 255.027 334.8 267.227 277.4 270.127V338.527H223.2V270.327C165.7 267.327 122.8 255.227 122.5 240.427V209.627C122.8 194.827 165.8 182.627 223.2 179.727V151.827H141.4V111.527H359.2V111.627ZM109.5 47.627H396.3C403.1 47.627 409.3 51.227 412.9 57.127L496.4 200.527C500.8 207.927 499.4 217.427 493.1 223.327L263.2 447.927C255.8 455.327 243.6 455.327 236.2 447.927L6.60016 223.627C0.400163 217.427 -0.799838 207.927 3.60016 200.227L93.2002 56.527C96.7002 51.127 102.9 47.627 109.5 47.627Z" fill="#D3B25B"/>
</svg>
