<svg width="500" height="501" viewBox="0 0 500 501" fill="none" xmlns="http://www.w3.org/2000/svg">
<path d="M300.1 217.428H343.4V342.928H300.1V217.428Z" fill="#3AAC59"/>
<path d="M240.7 207.928C224.1 207.928 207 211.828 202.8 219.228C202.7 219.328 202.7 219.428 202.6 219.528V166.928H158.1V250.528C162.5 252.528 167.1 254.828 171.7 257.428C173.2 258.328 174.5 259.028 175.5 259.628C176.1 260.028 176.7 260.328 177.3 260.728C177.4 260.728 151.9 300.128 117.2 308.328C96.6999 313.228 72.4999 307.328 67.5999 286.928C67.3999 286.128 67.2999 285.228 67.1999 284.428C70.4999 282.528 73.7999 280.728 77.1999 279.128C85.6999 275.428 92.1999 272.728 94.5999 271.728C94.7999 271.628 94.9999 271.528 95.1999 271.528C115.4 264.228 132.4 261.728 132.4 261.728C117 260.428 103.7 261.428 92.5999 263.628C92.5999 263.628 92.4999 263.628 92.3999 263.728C82.3999 265.728 74.0999 268.628 67.6999 271.528C71.2999 256.828 84.1999 244.028 99.3999 240.428C100.7 240.128 102.1 239.828 103.5 239.628C103.9 239.528 104.3 239.528 104.7 239.428C105.8 239.328 106.8 239.128 107.9 239.128C108.3 239.128 108.6 239.028 108.9 239.028C110.3 238.928 111.7 238.928 113 238.928C113.3 238.928 113.5 238.928 113.8 238.928C115 238.928 116.1 239.028 117.2 239.028C117.6 239.028 118 239.128 118.4 239.128C118.8 239.128 119.2 239.228 119.6 239.228C126.2 239.928 134.2 241.628 143.2 244.628V215.728C138.9 214.428 134.3 213.128 129.5 211.928C117 208.628 95.3999 205.128 71.8999 210.728C33.9999 219.928 23.2999 247.628 23.2999 281.528C23.2999 285.828 23.6999 289.928 24.2999 293.728C16.2999 299.328 8.1999 305.528 0.899902 312.528C0.899902 312.528 11.7999 307.728 26.1999 301.328C35.7999 333.928 69.3999 344.928 94.6999 344.928C121.1 344.928 138 337.428 158.2 324.928V340.728H202.7V262.328C202.7 262.228 202.8 262.128 202.9 262.028V260.728C207.1 249.528 214.3 246.628 222.3 246.628C232.9 246.628 239.5 254.028 239.5 265.928V340.828H283.9V253.228C283.8 225.628 266.4 207.928 240.7 207.928Z" fill="#3AAC59"/>
<path d="M321.1 155.928C307.7 155.928 298.2 165.328 298.2 178.628C298.2 191.928 307.7 201.428 321.1 201.428C334.5 201.428 344 192.028 344 178.628C344 165.328 334.5 155.928 321.1 155.928Z" fill="#3AAC59"/>
<path d="M491.2 269.728V213.828H446.7L446.4 221.728C403.5 194.328 376.1 222.528 376.1 222.528C363 234.428 355.4 253.228 355.4 276.828C355.4 318.628 380.7 343.528 413.5 343.528C425.8 343.528 437.1 340.728 447 327.328C448.1 330.428 450.6 338.128 452.5 340.828H498.8C490.9 327.828 491 282.928 491.2 269.728ZM424 307.328C409.6 307.328 399.4 294.928 399.4 277.228C399.4 259.528 409.6 247.128 424 247.128C434.1 247.128 442.1 253.228 446 263.028V291.528C442.1 301.228 434.1 307.328 424 307.328Z" fill="#3AAC59"/>
</svg>
