<svg width="500" height="501" viewBox="0 0 500 501" fill="none" xmlns="http://www.w3.org/2000/svg">
<path fill-rule="evenodd" clip-rule="evenodd" d="M452.8 495.627C490.7 495.627 512.3 451.727 489.2 421.527L478.6 408.227C464 389.227 441.5 378.127 417.6 378.027H323.4C284.3 378.027 247.5 360.427 222.9 328.627C209.1 310.527 200.4 289.227 197.5 266.627C192.8 226.627 206.1 188.227 233.9 160.327C257.7 136.427 290.1 123.027 323.9 123.027H402.1C414.2 123.127 425.7 117.427 433 107.727L436.9 102.627C442.8 95.1271 437.3 83.8271 427.5 83.8271H323.7C277.2 83.8271 233.4 103.027 201.3 137.927C174.7 166.527 159.1 204.627 157.5 243.827C155.4 290.427 173 335.627 206 368.527C237.7 400.327 279.1 417.527 323.7 417.527H417.6C429.7 417.527 441.1 423.027 448.5 432.827L452.4 437.927C456.3 443.027 455.4 450.427 450.2 454.327C448.1 455.927 445.6 456.727 443 456.727H323.7C268.9 456.727 217.3 435.127 178.6 396.327C98.3999 315.927 98.3999 185.327 178.6 104.927C217.3 66.1271 268.9 44.5271 323.7 44.5271H461.8C473.9 44.6271 485.4 38.9272 492.7 29.2271L496.6 24.1271C502.5 16.6271 497 5.32715 487.2 5.32715H323.3C258 5.32715 196.6 30.8271 150.4 77.1271C54.9999 172.827 54.9999 328.127 150.4 423.827C196.1 469.927 258.4 495.727 323.3 495.627H452.8ZM115.2 57.2271C119.9 52.5271 116 44.3271 109.3 44.3271L89.6999 43.9272C79.8999 43.9272 70.4999 48.6272 64.6999 56.4272C23.1999 112.327 0.799863 180.127 0.999863 249.727C0.999863 321.127 23.6999 388.527 65.0999 443.827C70.9999 451.627 80.3999 456.027 90.0999 456.027H109.6C116.6 456.027 120.2 448.227 115.5 443.127C66.9999 391.327 39.9999 323.127 39.9999 250.127C40.0999 177.627 66.6999 109.727 115.2 57.2271Z" fill="#FF7E62"/>
</svg>
