<svg width="500" height="501" viewBox="0 0 500 501" fill="none" xmlns="http://www.w3.org/2000/svg">
<path d="M458.1 247.327C458.1 247.327 486.9 230.827 496.1 225.827C484 100.227 378.2 2.02734 249.4 2.02734C121.3 2.02734 15.9999 99.1273 2.7999 223.627C12.3999 228.827 42.7999 247.027 42.7999 247.027C42.7999 247.027 11.7999 266.827 2.3999 272.527C13.7999 398.927 120 497.927 249.3 497.927C379.1 497.927 485.6 398.227 496.3 271.127C485.2 264.227 458.1 247.327 458.1 247.327Z" fill="#1F4B82"/>
<path d="M249.4 23.6273C306 23.6273 360.2 44.6273 402 82.8273C440.1 117.627 464.9 163.827 473 214.127C461.7 220.527 448.3 228.127 447.5 228.627L416.2 246.527L446.8 265.627C447.6 266.127 461.7 274.927 473.6 282.327C466.3 333.627 441.5 380.827 403.1 416.327C361.2 455.027 306.7 476.327 249.6 476.327C192.7 476.327 138.4 455.127 96.4999 416.727C58.0999 381.527 33.2999 334.627 25.6999 283.627C38.0999 275.827 53.7999 265.827 54.6999 265.227L84.0999 246.427L54.0999 228.627C53.1999 228.127 38.4999 219.327 26.2999 212.227C34.6999 162.327 59.6999 116.527 97.5999 82.1273C139.2 44.3273 193.1 23.6273 249.4 23.6273ZM249.4 2.02734C121.3 2.02734 15.9999 99.1273 2.7999 223.627C12.3999 228.827 42.7999 247.027 42.7999 247.027C42.7999 247.027 11.7999 266.827 2.3999 272.527C13.7999 398.927 120 497.927 249.3 497.927C379.1 497.927 485.6 398.227 496.3 271.127C485.1 264.227 458 247.327 458 247.327C458 247.327 486.8 230.827 496 225.827C484 100.227 378.2 2.02734 249.4 2.02734Z" fill="#B6B3B1"/>
<path d="M180.8 155.928L211.3 152.928L249.1 215.228L286.9 155.528L315.7 157.628L267.2 240.628L321.3 340.628L286.1 341.928L246.7 272.228L205.8 341.428L174 338.828L232.8 240.928L180.8 155.928Z" fill="white"/>
</svg>
