<svg width="500" height="501" viewBox="0 0 500 501" fill="none" xmlns="http://www.w3.org/2000/svg">
<path fill-rule="evenodd" clip-rule="evenodd" d="M143.3 171.228C174.1 153.428 205.2 135.528 236 117.728C245.2 112.228 256.7 112.228 265.9 117.728L311.8 143.928C313.7 145.128 314.3 147.628 313.1 149.528C312.8 150.028 312.3 150.528 311.8 150.828L199.7 215.328C196.8 217.028 195.1 220.028 195.1 223.428V277.528C195.1 280.728 196.8 283.728 199.7 285.228L246.6 312.328C249.3 314.028 252.8 314.028 255.5 312.328L449 200.928C481.8 181.928 481.8 127.228 449 108.228L275.1 8.02754C260.3 -0.872461 241.8 -0.872461 227 8.02754L53.2 108.228C38.2 116.728 28.9 132.728 29 149.928C29 216.828 29.3 283.728 29 350.528C28.9 367.828 38.1 383.828 53.2 392.328L227.1 492.828C242 501.428 260.3 501.428 275.2 492.828L449 392.328C464 383.828 473.2 367.828 472.9 350.528V263.428L266 383.128C256.8 388.628 245.3 388.628 236.1 383.128L143.7 329.528C134.3 324.328 128.6 314.328 128.7 303.628V196.828C128.6 186.328 134.2 176.528 143.3 171.228Z" fill="url(#paint0_linear_1_11224)"/>
<defs>
<linearGradient id="paint0_linear_1_11224" x1="143.953" y1="-66.6688" x2="339.881" y2="514.054" gradientUnits="userSpaceOnUse">
<stop stop-color="#273498"/>
<stop offset="0.53" stop-color="#0074C2"/>
<stop offset="1" stop-color="#00ABE7"/>
</linearGradient>
</defs>
</svg>
