<svg width="500" height="501" viewBox="0 0 500 501" fill="none" xmlns="http://www.w3.org/2000/svg">
<path d="M250.1 499.127L247.2 497.727C136 432.527 51.9 325.127 17.7 196.727C12.2 176.527 8.20001 155.827 5.30001 134.927C2.70001 114.027 1.30001 92.827 1.00001 71.727C1.00001 68.127 0.500009 68.627 3.90001 66.927C45.7 43.127 89.9 25.827 136.8 14.827C154.2 10.827 171.5 7.72696 189.1 5.52696C213.3 2.62696 237.6 1.52696 262.1 1.92696C275.9 2.12696 289.4 3.12696 303 4.52696C371.1 12.027 435.1 32.527 495 66.027C496 66.527 496.7 67.027 497.6 67.427C498.6 67.927 499 68.627 499 69.827V73.427C498.8 85.827 498.3 97.927 497.3 110.227C495.9 127.827 493.5 145.127 490.2 162.527C483.1 199.827 471.9 235.727 456.4 270.227C431.9 325.127 398.4 374.127 356.1 416.927C325.7 447.827 291.7 474.427 254.1 496.527C252.7 497.427 251.6 498.127 250.1 499.127ZM23.8 83.827V86.727C23.8 104.127 25 121.627 27.1 138.827C29 154.527 31.6 169.927 35.2 185.427C35.9 188.027 36.6 190.627 37.8 193.227C59.2 238.627 108.6 262.827 157.6 251.727C194.9 243.127 225.3 214.427 235.6 177.527C238.5 167.327 239.4 156.827 239.9 146.427C240.1 139.527 240.9 132.627 242 125.727C250.1 83.927 277.9 49.427 317.1 33.027C319.2 32.027 321.6 31.327 323.8 30.427C324 30.227 324.5 30.227 324.5 29.727C318.3 27.627 281.5 23.827 259.4 23.327C211.9 22.327 165.3 28.527 119.9 42.327C86.1 52.427 54.3 66.227 23.8 83.827ZM374.4 368.627C375.6 367.927 376.3 366.927 376.8 366.227C386.3 354.327 395.3 342.027 403.7 329.127C433.4 283.027 454.3 233.327 466 179.627C470 161.327 472.7 143.027 474.3 124.527C475.5 111.927 476 99.327 476 86.527C476 85.527 476 84.827 475.8 83.927L472.2 81.827C462.5 76.327 452.5 71.127 442.5 66.327C427.8 59.427 413 53.227 397.6 48.227C378.8 42.327 359.8 41.527 340.8 46.327C286.4 59.427 251.4 112.927 261.9 167.827C267.6 198.227 284 222.027 310.2 238.627C311.9 239.827 313.8 240.727 315.4 241.927C334.7 253.527 349.6 269.527 360.3 289.227C371.7 309.927 376.7 332.227 375.3 355.827C375.4 359.827 374.9 364.127 374.4 368.627ZM250.1 474.827C251.1 474.327 252.2 473.627 253.2 472.927C283.1 455.327 310.7 434.427 335.9 410.627C337.6 409.227 338.8 407.327 339.7 405.427C341.4 402.327 343 399.027 344.5 395.927C356.4 371.227 359 345.527 351.2 318.927C335.7 267.627 286.3 238.127 236.6 244.327C222.3 246.027 209.3 250.527 196.9 257.627C173.4 270.927 148.2 276.427 121.1 273.827C107.8 272.627 95.2 269.027 83.1 263.827C73.6 259.527 64.6 254.327 56.5 247.927C56 247.427 55.3 247.227 54.1 246.527C54.3 247.727 54.6 248.427 54.8 248.927C65.4 275.927 78.5 301.527 94 326.027C110.9 352.427 130.1 376.927 152 399.227C173.9 421.527 197.9 441.527 223.8 458.927C235.6 466.527 246.8 473.427 250.1 474.827Z" fill="black"/>
<path d="M23.8 83.8273C54.2 66.2273 86.1 52.4273 119.6 42.4273C165.2 28.9273 211.6 22.4273 259.1 23.4273C281.2 23.9273 318 27.4273 324.2 29.8273C324.4 30.3273 324 30.5273 323.5 30.5273C321.4 31.5273 319 32.2273 316.8 33.1273C277.6 49.5273 249.8 84.0273 241.7 125.827C240.5 132.727 239.8 139.627 239.6 146.527C239.4 157.027 238.4 167.427 235.3 177.627C224.8 214.427 194.7 243.227 157.3 251.827C108.3 263.027 58.9 238.727 37.5 193.327C36.3 190.727 35.4 188.127 34.9 185.527C31.3 170.027 28.7 154.627 26.8 138.927C24.7 121.527 23.5 104.227 23.5 86.8273C23.8 85.7273 23.8 85.0273 23.8 83.8273Z" fill="#F7A800"/>
<path d="M374.4 368.627C374.9 364.127 375.4 360.027 375.6 355.827C376.8 332.327 371.8 309.927 360.6 289.227C349.9 269.527 334.9 253.827 315.7 241.927C314 240.727 312.1 239.827 310.5 238.627C284.1 222.027 268 198.427 262.2 167.827C252 112.627 286.7 59.3272 341.2 46.3272C360.5 41.8272 379.2 42.3272 398 48.2272C413.5 53.0272 428.2 59.4272 442.9 66.3272C453.1 71.1272 462.9 76.3272 472.6 81.8272C473.8 82.5272 474.7 83.0272 476.2 83.9272C476.2 84.9272 476.4 85.6272 476.4 86.5272C476.4 99.1272 475.7 111.927 474.7 124.527C473 143.027 470.2 161.627 466.4 179.627C454.8 233.327 434.1 283.027 404.1 329.127C395.8 341.927 386.7 354.327 377.2 366.227C376.3 366.927 375.9 367.927 374.4 368.627Z" fill="#67B2E8"/>
<path d="M250.1 474.827C246.5 473.427 235.6 466.727 224 458.927C198.1 441.527 174.1 421.627 152.2 399.227C130.3 376.927 110.8 352.427 94.2 326.027C78.5 301.527 65.4 275.927 55 248.827C54.8 248.127 54.5 247.627 54.3 246.427C55.5 247.127 56 247.427 56.7 247.827C65 254.227 73.8 259.727 83.3 263.727C95.4 268.927 108 272.527 121.3 273.727C148.2 276.327 173.4 270.827 197.1 257.527C209.5 250.627 222.8 246.127 236.8 244.227C286.5 238.027 335.9 267.527 351.4 318.827C359.2 345.227 356.9 370.927 344.7 395.827C343 399.127 341.6 402.227 339.9 405.327C338.9 407.227 337.8 409.127 336.1 410.527C310.9 434.327 283.3 455.227 253.4 472.827C252.3 473.627 251.1 474.327 250.1 474.827Z" fill="#00C4B3"/>
</svg>
