<svg width="500" height="501" viewBox="0 0 500 501" fill="none" xmlns="http://www.w3.org/2000/svg">
<g clip-path="url(#clip0_1_11233)">
<path d="M445.1 29.9273V147.927L331.9 246.027L319.7 256.527L332 266.927L443.7 361.827V465.727L61.2999 145.527L60.5999 33.7273L240.9 184.427L249.7 191.827L258.5 184.527L445.1 29.9273ZM458.9 0.527344L249.8 173.927L46.7 4.02734L47.5999 151.927L457.6 495.227L457.5 355.327L340.9 256.327L458.9 154.127V0.527344Z" fill="black"/>
<path d="M155.7 281.527L212.2 332.327L54.9 470.127V372.227L155.7 281.527ZM155.7 263.027L41.1 366.027V500.527L233.1 332.427L155.7 263.027Z" fill="black"/>
</g>
<defs>
<clipPath id="clip0_1_11233">
<rect width="500" height="500" fill="white" transform="translate(0 0.527344)"/>
</clipPath>
</defs>
</svg>
