<svg width="500" height="501" viewBox="0 0 500 501" fill="none" xmlns="http://www.w3.org/2000/svg">
<path d="M3.1001 354.927C3.1001 339.827 3.1001 326.827 3.1001 313.227C6.7001 311.327 10.3001 309.027 14.2001 307.327C33.9001 298.827 42.4001 284.327 41.2001 262.527C38.9001 221.927 48.1001 183.527 69.1001 148.627C104.1 90.5273 155.7 56.8273 223 47.5273C276.9 40.0273 325.6 53.7273 372.5 84.6273C358.7 91.6273 346.5 97.8273 334.3 104.027C260.6 69.8273 192.4 75.9273 131 131.027C87.1001 170.427 71.9001 238.327 82.0001 273.127C219.7 203.827 357.2 134.527 495.9 64.8273C495.9 79.4273 495.9 92.6273 495.9 106.827C332.5 189.127 168.6 271.627 3.1001 354.927Z" fill="black"/>
<path d="M165.2 397.127C234.1 429.527 298.1 425.827 358 379.527C410 339.327 427.6 269.127 417.9 227.727C279.9 297.227 142.3 366.527 3.3999 436.427C3.3999 421.527 3.3999 408.727 3.3999 394.327C166.7 312.127 330.6 229.627 495.7 146.527C495.7 160.927 495.7 173.927 495.7 188.127C493.4 189.427 490.5 191.327 487.3 192.627C465.6 201.427 456.7 216.927 458.2 240.727C460.5 278.827 451.8 315.027 432.8 348.127C396.6 410.927 342.1 446.527 269.8 454.327C218.4 459.827 171.9 446.327 127.2 416.527C140.8 409.527 153.1 403.327 165.2 397.127Z" fill="black"/>
</svg>
