<svg width="500" height="501" viewBox="0 0 500 501" fill="none" xmlns="http://www.w3.org/2000/svg">
<path d="M498 97.0273H414.3C405.7 97.0273 397.7 101.327 392.8 108.427L344.8 179.527C341.2 184.827 335.2 188.027 328.7 188.027H172C165.5 188.027 159.5 184.827 155.9 179.527L107.8 108.327C103 101.327 95.0001 97.0273 86.4001 97.0273H2.6001L48.0001 164.227L91.0001 227.927C92.2001 229.727 93.6001 231.327 95.2001 232.727C100 237.027 106.1 239.327 112.5 239.327H388.1C394.5 239.327 400.7 236.927 405.4 232.727C407 231.327 408.4 229.727 409.6 227.927L452.6 164.227L498 97.0273Z" fill="black"/>
<path d="M498 407.627H414.3C405.7 407.627 397.7 403.327 392.8 396.227L344.7 325.127C341.1 319.727 335.1 316.527 328.6 316.427H172C165.5 316.427 159.5 319.727 155.9 325.127L107.8 396.327C103 403.427 95.0001 407.627 86.4001 407.627H2.6001L48.0001 340.427L91.0001 276.727C92.2001 274.927 93.6001 273.327 95.2001 271.927C100 267.627 106.1 265.327 112.5 265.327H388.1C394.5 265.327 400.7 267.727 405.4 271.927C407 273.327 408.4 274.927 409.6 276.727L452.6 340.427L498 407.627Z" fill="black"/>
<path d="M164.9 148.428L175.2 163.728C177.6 167.328 181.7 169.428 186 169.428H314.7C319 169.428 323 167.328 325.4 163.728L335.7 148.428H164.9Z" fill="url(#paint0_linear_1_11243)"/>
<path d="M164.9 356.127L175.2 340.827C177.6 337.327 181.7 335.127 186 335.227H314.7C319 335.227 323 337.327 325.4 340.927L335.7 356.227L164.9 356.127Z" fill="url(#paint1_linear_1_11243)"/>
<defs>
<linearGradient id="paint0_linear_1_11243" x1="164.917" y1="158.954" x2="335.796" y2="158.954" gradientUnits="userSpaceOnUse">
<stop stop-color="#DB30F6"/>
<stop offset="0.8" stop-color="#04DEFF"/>
<stop offset="0.99" stop-color="#04FFFF"/>
</linearGradient>
<linearGradient id="paint1_linear_1_11243" x1="164.917" y1="345.715" x2="335.796" y2="345.715" gradientUnits="userSpaceOnUse">
<stop stop-color="#DB30F6"/>
<stop offset="0.8" stop-color="#04DEFF"/>
<stop offset="0.99" stop-color="#04FFFF"/>
</linearGradient>
</defs>
</svg>
