<svg width="500" height="501" viewBox="0 0 500 501" fill="none" xmlns="http://www.w3.org/2000/svg">
<path fill-rule="evenodd" clip-rule="evenodd" d="M179.5 65.1269L53.0998 296.427C45.1998 311.827 51.2998 330.727 66.6998 338.627C69.0998 339.827 71.6998 340.827 74.2998 341.327C118.3 351.727 202.3 325.927 270.8 351.727C339.3 377.527 371 430.327 412.5 458.327C421.8 465.027 432.9 468.627 444.3 468.727H444.5C446.9 468.727 449.1 468.627 451.3 468.327C461.9 467.027 471.9 462.627 480 455.727C484.6 451.727 488.5 446.927 491.6 441.627C501.8 424.927 502.2 404.127 492.6 387.127L316.6 65.3269C295.9 27.5269 248.4 13.6269 210.6 34.3269C197.4 41.3269 186.6 52.0269 179.5 65.1269Z" fill="url(#paint0_linear_1_11248)"/>
<path fill-rule="evenodd" clip-rule="evenodd" d="M94.9002 386.327C80.4002 362.527 49.4002 354.927 25.5002 369.427C1.7002 383.927 -5.8998 414.927 8.6002 438.827C23.0002 462.527 53.9002 470.127 77.7002 455.827C101.6 441.527 109.4 410.427 95.0002 386.527C95.0002 386.527 94.9002 386.427 94.9002 386.327Z" fill="url(#paint1_linear_1_11248)"/>
<path fill-rule="evenodd" clip-rule="evenodd" d="M102.2 413.128C101.8 441.028 78.9 463.328 51 462.928C23 462.528 0.700025 439.628 1.10002 411.728C1.30002 398.628 6.50002 386.228 15.7 376.928C2.60002 400.328 10.4 419.328 19.8 426.428C34.3 437.528 70.2 435.228 102.2 413.128Z" fill="url(#paint2_linear_1_11248)"/>
<path fill-rule="evenodd" clip-rule="evenodd" d="M90.3001 299.627C79.5001 302.527 68.3001 296.027 65.4001 285.227C64.9001 283.527 64.7 281.727 64.7 280.027C64.7 277.427 65.2 274.927 66.1 272.527L53.0001 296.427C45.1 311.827 51.2 330.727 66.7 338.627C69.1 339.827 71.6001 340.727 74.3001 341.327C118.3 351.727 202.3 325.927 270.8 351.727C366.3 387.627 391.4 474.827 451.5 468.427C481.7 464.527 503 436.927 499.1 406.827C498.2 399.927 496 393.227 492.7 387.127L412.3 240.627C378.1 178.027 288.3 191.527 233.2 215.927C178.1 240.327 116.2 291.827 90.3001 299.627Z" fill="url(#paint3_linear_1_11248)"/>
<path fill-rule="evenodd" clip-rule="evenodd" d="M60.4002 282.928L53.0002 296.428C45.1002 311.828 51.2002 330.728 66.6002 338.628C69.0002 339.828 71.6002 340.828 74.2002 341.328C118.2 351.728 202.2 325.928 270.7 351.728C334.3 375.628 366.2 422.928 403.6 452.028C409 457.028 416.1 459.728 423.5 459.728C439.4 459.728 452.3 446.828 452.3 430.928C452.3 420.328 444.6 409.128 439.5 399.928C332.1 205.928 218.1 275.528 88.7002 318.628C86.6002 319.328 84.3002 319.628 82.1002 319.528C68.4002 319.428 57.4002 308.328 57.4002 294.728C57.5002 290.628 58.5002 286.528 60.4002 282.928Z" fill="url(#paint4_linear_1_11248)"/>
<defs>
<linearGradient id="paint0_linear_1_11248" x1="142.033" y1="171.926" x2="365.815" y2="265.681" gradientUnits="userSpaceOnUse">
<stop stop-color="#5F6DED"/>
<stop offset="1" stop-color="#49B9D9"/>
</linearGradient>
<linearGradient id="paint1_linear_1_11248" x1="21.9083" y1="418.295" x2="92.7194" y2="404.685" gradientUnits="userSpaceOnUse">
<stop stop-color="#5F6EED"/>
<stop offset="1" stop-color="#45C8D4"/>
</linearGradient>
<linearGradient id="paint2_linear_1_11248" x1="20.9957" y1="423.664" x2="85.408" y2="408.285" gradientUnits="userSpaceOnUse">
<stop stop-color="#578BE5"/>
<stop offset="1" stop-color="#43CED3"/>
</linearGradient>
<linearGradient id="paint3_linear_1_11248" x1="104.289" y1="252.416" x2="479.308" y2="356.741" gradientUnits="userSpaceOnUse">
<stop stop-color="#5788E6"/>
<stop offset="1" stop-color="#3FDDCF"/>
</linearGradient>
<linearGradient id="paint4_linear_1_11248" x1="408.683" y1="380.716" x2="94.1518" y2="288.481" gradientUnits="userSpaceOnUse">
<stop stop-color="#4452CF"/>
<stop offset="1" stop-color="#0BD3B9"/>
</linearGradient>
</defs>
</svg>
