<svg width="500" height="501" viewBox="0 0 500 501" fill="none" xmlns="http://www.w3.org/2000/svg">
<g clip-path="url(#clip0_1_11254)">
<path d="M250.2 500.427C388.161 500.427 500 388.588 500 250.627C500 112.666 388.161 0.827148 250.2 0.827148C112.24 0.827148 0.400391 112.666 0.400391 250.627C0.400391 388.588 112.24 500.427 250.2 500.427Z" fill="#1E1E1E"/>
<path d="M113.9 79.6272L317.9 83.6272C367 84.6272 382.8 150.127 339.5 173.327L120.9 290.727C110.6 296.227 98.0996 288.827 98.0996 277.127V95.1272C98.0996 86.4272 105.2 79.4272 113.9 79.6272Z" fill="white"/>
<path d="M381.5 423.828L153.2 419.628C96.5998 418.628 78.8998 342.728 129.2 316.728L379 187.528C388.7 182.528 400.2 189.528 400.2 200.428V405.428C400.2 415.728 391.7 424.028 381.5 423.828Z" fill="white"/>
<path d="M319.9 361.827C335.364 361.827 347.9 349.291 347.9 333.827C347.9 318.363 335.364 305.827 319.9 305.827C304.436 305.827 291.9 318.363 291.9 333.827C291.9 349.291 304.436 361.827 319.9 361.827Z" fill="#00F97D"/>
</g>
<defs>
<clipPath id="clip0_1_11254">
<rect width="500" height="500" fill="white" transform="translate(0 0.527344)"/>
</clipPath>
</defs>
</svg>
