<svg width="500" height="501" viewBox="0 0 500 501" fill="none" xmlns="http://www.w3.org/2000/svg">
<path d="M250 2.22754C112.9 2.22754 1.7998 113.428 1.7998 250.528C1.7998 277.928 6.1998 304.328 14.3998 328.928H88.5998V120.028L250 281.428L411.3 120.028V328.928H485.5C493.7 304.228 498.1 277.928 498.1 250.528C498.2 113.428 387.1 2.22754 250 2.22754Z" fill="#FF6600"/>
<path d="M212.9 318.527L142.5 248.127V379.527H37.9004C81.5004 451.027 160.2 498.727 250 498.727C339.8 498.727 418.5 451.027 462.1 379.527H357.5V248.127L287.1 318.527L250 355.627L212.9 318.527Z" fill="#4C4C4C"/>
</svg>
