<svg width="500" height="501" viewBox="0 0 500 501" fill="none" xmlns="http://www.w3.org/2000/svg">
<path d="M484.4 498.428L249.5 441.828V414.928L484.4 471.828V498.428Z" fill="#56B3ED"/>
<path d="M484.4 441.827L249.5 385.227V358.327L484.4 415.227V441.827Z" fill="#56B3ED"/>
<path d="M484.4 384.227L249.5 327.527V300.627L484.4 357.627V384.227Z" fill="#56B3ED"/>
<path d="M248.7 200.928L13.7998 144.328V117.428L248.7 174.328V200.928Z" fill="#56B3ED"/>
<path d="M248.7 144.327L13.7998 87.6271V60.8271L248.7 117.727V144.327Z" fill="#56B3ED"/>
<path d="M248.7 86.627L13.7998 30.027V3.12695L248.7 60.027V86.627Z" fill="#56B3ED"/>
<path d="M13.2002 315.528L13.5002 284.828L484.6 58.2275V88.7275L13.2002 315.528Z" fill="#6835CF"/>
<path d="M13.2002 380.228L13.5002 349.528L484.6 122.928V153.328L13.2002 380.228Z" fill="#6835CF"/>
<path d="M13.2002 443.628L13.5002 412.828L484.6 186.228V216.728L13.2002 443.628Z" fill="#6835CF"/>
</svg>
