<svg width="500" height="501" viewBox="0 0 500 501" fill="none" xmlns="http://www.w3.org/2000/svg">
<path d="M258.3 3.32715V226.627C274.7 230.027 287.1 244.627 287.1 262.027C287.1 282.027 270.9 298.227 250.9 298.227C230.9 298.227 214.7 282.027 214.7 262.027C214.7 244.627 227 230.127 243.4 226.627V3.32715L25.0996 364.327L251.9 497.027L475.7 364.327L258.3 3.32715Z" fill="#3C82B4"/>
<path d="M214.8 262.027C214.8 244.627 227.1 230.127 243.5 226.627V3.32715L25.2002 364.327L218 276.827C215.9 272.327 214.8 267.327 214.8 262.027Z" fill="#3C82B4"/>
<path d="M250.9 298.128C236.2 298.128 223.6 289.328 217.9 276.728L25.0996 364.328L251.9 497.028L251.1 298.128C251 298.128 251 298.128 250.9 298.128Z" fill="#2D4B69"/>
<path d="M283.9 276.827C278.3 289.427 265.7 298.127 251 298.227L251.8 497.127L475.6 364.427L283.9 276.827Z" fill="#142846"/>
<path d="M258.3 3.32715V226.627C274.7 230.027 287.1 244.627 287.1 262.027C287.1 267.327 286 272.327 283.9 276.827L475.6 364.427L258.3 3.32715Z" fill="#1E3C64"/>
</svg>
