<svg width="500" height="501" viewBox="0 0 500 501" fill="none" xmlns="http://www.w3.org/2000/svg">
<path d="M133.1 467.028C167.9 485.928 207.6 496.528 249.7 496.528C291.8 496.528 331.6 485.928 366.3 467.028L249.8 293.228L133.1 467.028Z" fill="#E3232C"/>
<path d="M100.1 251.327V210.927H229.8V169.627H100.1V129.427H399.6V169.627H270V211.127H399.7V251.327H270L400.1 445.027C457.7 400.327 494.8 330.127 494.8 251.527C494.8 116.227 385.1 6.52734 249.8 6.52734C114.5 6.52734 4.7998 116.227 4.7998 251.527C4.7998 330.127 41.8998 400.127 99.4998 445.027L229.6 251.327H100.1Z" fill="#E3232C"/>
</svg>
