<svg width="500" height="501" viewBox="0 0 500 501" fill="none" xmlns="http://www.w3.org/2000/svg">
<path fill-rule="evenodd" clip-rule="evenodd" d="M248.2 1.42773C280.3 1.42773 308 34.5277 326.3 88.2277C318.9 90.2277 311.4 92.5277 303.8 95.0277C288.6 50.6277 267.8 24.4277 248.2 24.4277C226.1 24.4277 202.5 57.6277 187.2 112.728C193.2 114.628 199.2 116.728 205.4 118.928C220 124.228 234.3 130.228 248.3 136.728L250.8 135.528C261.1 130.828 271.5 126.428 282 122.428C309.6 111.828 336.4 104.228 360.8 100.228C413.5 91.5277 450.5 100.528 465 125.528C479.6 150.528 468.9 186.828 435 227.628C433 229.928 431 232.328 429 234.628C423.8 228.928 418.4 223.328 412.8 217.928C442.7 183.528 454.5 153.428 444.9 136.928C435.8 121.328 405.8 116.028 364.6 122.828C355.4 124.328 346.3 126.328 337.2 128.628C338.5 134.728 339.8 141.028 340.9 147.428C343.4 161.928 345.4 177.228 346.8 193.128C354 198.128 361 203.228 367.9 208.528C394.5 228.928 417.4 250.328 435 271.528C468.9 312.428 479.6 348.628 465 373.628C454.1 392.428 430.5 402.128 397.1 402.128C386.1 402.128 373.9 401.128 360.8 398.928C357.4 398.328 354 397.728 350.5 397.028C352.6 389.928 354.5 382.428 356.3 374.728C359.1 375.328 361.9 375.728 364.7 376.228C405.9 383.028 435.9 377.728 445 362.128C456 343.128 438.8 306.228 398.2 265.428C394.1 269.128 389.9 272.828 385.7 276.328C385.1 276.828 384.4 277.428 383.8 277.928C371.9 287.728 359.6 297.128 347 305.928C346.4 313.028 345.7 320.128 344.8 327.228C332.1 428.428 294.8 497.828 248.3 497.828C216.3 497.828 188.6 464.828 170.3 411.328C177.9 409.228 185.4 407.028 192.8 404.528C208 448.828 228.7 474.928 248.3 474.928C270.4 474.928 294 441.628 309.4 386.428C303.3 384.528 297.2 382.428 291.2 380.228C276.7 374.928 262.5 369.128 248.5 362.628L247.6 363.028C239.5 366.728 231.5 370.228 223.6 373.528C222.4 374.028 221.2 374.528 220 374.928C174.5 393.128 133 402.528 99.9998 402.528C67.0998 402.528 42.6998 393.228 31.4998 373.828C15.3998 346.128 30.5998 305.628 68.7998 262.828L84.9998 279.828C54.0998 314.928 41.7998 345.628 51.5998 362.328C62.5998 381.328 103.4 384.928 159.2 370.628C157.8 364.428 156.6 358.128 155.5 351.828C152.9 336.728 150.9 321.528 149.6 306.228C142.5 301.328 135.4 296.228 128.5 291.028C63.6998 241.628 24.7998 189.228 24.7998 150.228C24.7998 141.228 26.8998 132.928 31.1998 125.528C47.1998 98.0277 89.8998 90.7277 145.9 101.828C143.8 109.028 141.8 116.628 140.1 124.428C94.0998 115.428 61.0998 120.228 51.3998 137.028C40.3998 155.928 57.5998 192.828 97.9998 233.528C103.2 228.828 108.6 224.228 114.2 219.628C125.6 210.328 137.4 201.428 149.5 193.128C150.1 185.928 150.9 178.728 151.7 171.828C164.3 70.8277 201.6 1.42773 248.2 1.42773ZM321.6 322.828C316 326.328 310.3 329.828 304.6 333.228C295.9 338.328 287.1 343.228 278.2 347.828C277.2 348.328 276.2 348.828 275.2 349.428C288.2 354.928 301.4 359.828 314.8 364.128C316.2 357.828 317.4 351.328 318.6 344.628C319.7 337.628 320.7 330.328 321.6 322.828ZM174.6 322.828C175.6 330.628 176.7 338.228 178 345.528C179.1 351.928 180.3 358.128 181.6 364.128C185.4 362.928 189.1 361.628 193 360.328C194.2 359.928 195.3 359.528 196.5 359.028C204.7 356.128 212.8 352.928 220.8 349.528L221 349.428C213.1 345.328 205.2 341.028 197.5 336.628C197.1 336.428 196.7 336.128 196.3 335.928C189 331.728 181.8 327.328 174.6 322.828ZM248.2 162.328C235 168.728 221.9 175.528 209.2 182.828C196.5 190.128 184 197.828 171.8 206.028C170.7 220.628 170.2 235.128 170.2 249.728C170.2 264.828 170.8 279.428 171.8 293.428C178.6 297.928 185.6 302.528 192.8 306.928C210.7 317.928 229.2 328.028 248.2 337.228L250.7 336.028C259.5 331.728 268.3 327.128 276.9 322.428C293.2 313.528 309.1 303.828 324.6 293.528C325.7 278.928 326.2 264.328 326.2 249.728C326.2 234.628 325.6 220.028 324.6 206.028C312.4 197.828 299.9 190.128 287.2 182.828C274.4 175.528 261.4 168.628 248.2 162.328ZM248.2 220.128C264.7 220.128 278.1 233.428 278.1 249.728C278.1 266.028 264.7 279.328 248.2 279.328C231.7 279.328 218.3 266.028 218.3 249.728C218.3 233.428 231.7 220.128 248.2 220.128ZM348.8 223.228C349.1 231.928 349.3 240.728 349.3 249.728C349.3 251.928 349.3 254.028 349.3 256.228C349.2 263.028 349 269.728 348.8 276.328C354.8 271.828 360.5 267.328 366 262.828L368 261.228C372.6 257.328 377.1 253.528 381.3 249.728C370.9 240.428 360.1 231.628 348.8 223.228ZM147.5 223.128C142.1 227.128 136.9 231.228 132 235.228C126 240.028 120.3 244.928 114.9 249.728C118.8 253.228 122.9 256.728 127.1 260.228C133.5 265.528 140.3 270.928 147.4 276.228C147.1 267.428 146.9 258.528 146.9 249.728C146.9 247.528 146.9 245.428 147 243.228C147.1 236.528 147.3 229.828 147.5 223.128ZM314.7 135.428C302 139.528 289.6 144.128 277.3 149.228L275.3 150.128C283.1 154.228 290.9 158.428 298.8 162.928C299.2 163.128 299.6 163.428 300 163.628C307.4 167.828 314.6 172.228 321.7 176.728C320.8 169.128 319.6 161.528 318.3 154.028C317.3 147.728 316.1 141.528 314.7 135.428ZM181.6 135.428C178.7 149.028 176.4 162.828 174.7 176.628C181.8 172.228 189.1 167.828 196.5 163.528L197.6 162.928C205.4 158.528 213.2 154.228 221.2 150.128C214.3 147.228 207.3 144.428 200.2 141.828C194 139.528 187.8 137.428 181.6 135.428Z" fill="url(#paint0_linear_1_11304)"/>
<defs>
<linearGradient id="paint0_linear_1_11304" x1="89.0164" y1="241.531" x2="429.157" y2="255.744" gradientUnits="userSpaceOnUse">
<stop stop-color="#7543E3"/>
<stop offset="1" stop-color="#582ACB"/>
</linearGradient>
</defs>
</svg>
