<svg width="500" height="501" viewBox="0 0 500 501" fill="none" xmlns="http://www.w3.org/2000/svg">
<path d="M398.3 229.628C398.3 252.628 393 273.728 382.5 292.928C371.9 311.828 355.7 327.028 333.9 338.728C312 350.428 284.9 356.228 252.5 356.228H192.6V498.728H95.7998V101.728H252.4C284.1 101.728 310.8 107.228 332.7 118.128C354.6 129.028 371 144.128 381.9 163.328C392.9 182.728 398.3 204.728 398.3 229.628ZM245.1 279.428C263.6 279.428 277.3 275.128 286.4 266.428C295.4 257.728 300 245.528 300 229.628C300 213.728 295.5 201.528 286.4 192.828C277.4 184.128 263.6 179.828 245.1 179.828H192.5V279.328H245.1V279.428Z" fill="black"/>
<path d="M398.3 1.22754H95.7998V65.1275H398.4V1.22754H398.3Z" fill="#E50913"/>
</svg>
