<svg width="500" height="501" viewBox="0 0 500 501" fill="none" xmlns="http://www.w3.org/2000/svg">
<path d="M191.8 437.228C187.7 437.228 183.6 436.228 179.9 434.428C176.2 432.528 173.1 429.828 170.7 426.528L67.4 284.728H0V233.128H80.7C84.8 233.128 88.9 234.128 92.6 235.928C96.3 237.828 99.4 240.528 101.9 243.828L186.3 359.628L315 68.1275C317 63.5275 320.4 59.6275 324.6 56.9275C328.8 54.2275 333.8 52.7275 338.9 52.7275H500V104.328H355.9L215.7 421.728C213.9 425.928 210.9 429.528 207.2 432.228C203.5 434.928 199.1 436.528 194.5 437.028C193.6 437.028 192.6 437.028 191.7 437.028" fill="#00C389"/>
</svg>
