<svg width="500" height="501" viewBox="0 0 500 501" fill="none" xmlns="http://www.w3.org/2000/svg">
<path d="M74.0969 468.363C51.6579 468.363 29.9799 468.363 5.35889 468.363C22.2239 450.823 37.4409 435.007 52.6469 419.18C87.2329 383.179 121.346 346.71 156.508 311.28C206.437 260.972 285.131 258.669 338.988 305.113C343.429 308.942 347.627 313.082 351.688 317.318C399.277 366.945 446.818 416.618 495.834 467.806C472.055 467.806 450.154 467.806 434.258 467.806C407.17 442.809 382.467 420.73 358.621 397.761C342.018 381.768 327.101 364.027 310.535 347.991C275.571 314.146 221.654 315.751 187.393 351.199C152.116 387.698 117.022 424.375 81.8219 460.949C79.2279 463.646 76.4229 466.14 74.0969 468.363ZM15.3489 48.9835C60.8739 96.5785 106.42 144.154 151.958 191.736C207.527 249.799 295.407 248.976 351.276 190.201C393.467 145.816 436.074 101.826 478.451 57.6175C483.164 52.7005 487.586 47.5045 493.68 40.7285C468.257 40.7285 445.747 40.7285 431.6 40.7285C407.657 62.4385 387.866 79.4075 369.228 97.5605C350.61 115.694 333.32 135.181 315.142 153.776C276.645 193.156 222.627 192.297 184.932 152.491C149.47 115.044 113.483 78.0945 77.5909 40.7855C55.2799 40.7855 33.0799 40.7855 8.18389 40.7855C11.6509 44.7655 13.4119 46.9585 15.3489 48.9835Z" fill="black"/>
</svg>
