<svg width="500" height="501" viewBox="0 0 500 501" fill="none" xmlns="http://www.w3.org/2000/svg">
<path d="M31.7 283.327C31.7 262.627 31.7 241.927 31.7 221.227C31.7 218.127 31.6 214.927 31.9 211.827C33 201.327 41 197.627 49 204.527C105.4 253.627 173.6 275.727 244.9 291.027C289 300.427 331.8 313.527 370.8 337.027C379.8 342.427 388.5 348.527 396.4 355.527C418.6 375.227 416.1 407.227 391 423.327C376.6 432.527 361.3 440.627 346.5 449.227C322.8 462.827 299.1 476.427 275.4 490.127C259.8 499.127 244.3 499.327 228.7 490.427C170.5 457.027 112.3 423.527 54.1 390.027C38.9 381.227 31.7 367.727 31.7 350.227C31.8 327.827 31.7 305.627 31.7 283.327Z" fill="#151828"/>
<path d="M470.3 216.928C470.3 239.928 470.3 263.028 470.3 286.028C470.3 291.228 470.2 296.528 464.3 298.828C458.8 300.928 454.7 298.128 450.7 294.528C415.2 263.328 373.6 242.728 328.9 229.128C296.1 219.128 262.5 211.928 229.3 203.228C188.7 192.628 149.7 178.028 115.2 153.328C105.9 146.728 97.4 139.328 93.3 128.028C86.2 108.228 93.7 87.8277 113.6 76.0276C139.5 60.7276 165.7 46.0276 191.7 31.0276C202.5 24.8276 213.5 18.8276 224.1 12.2276C242.4 0.827646 259.9 2.22764 278.1 12.9276C324.2 39.9276 370.7 66.4276 417 93.2276C426.5 98.7276 435.9 104.228 445.4 109.528C462.4 118.928 470.6 133.028 470.3 152.528C470 173.928 470.2 195.428 470.3 216.928Z" fill="#151828"/>
</svg>
