<svg width="500" height="501" viewBox="0 0 500 501" fill="none" xmlns="http://www.w3.org/2000/svg">
<g clip-path="url(#clip0_1_11316)">
<path d="M110.6 383.328L125.5 398.228C148.9 386.128 175.4 379.228 203.6 379.228C255.3 379.228 301.6 402.328 332.8 438.728L392.4 379.128C354.7 348.228 306.5 329.728 254 329.728C199.1 329.828 149 350.028 110.6 383.328Z" fill="black"/>
<path d="M171.2 443.927L212.5 485.227C232.9 505.627 266 505.627 286.4 485.227L328 443.527C306.8 425.927 279.5 415.327 249.8 415.327C219.9 415.327 192.4 426.127 171.2 443.927Z" fill="black"/>
<path d="M208.8 179.427C314.5 179.427 409.9 223.227 477.9 293.627L484.1 287.427C504.5 267.027 504.5 233.927 484.1 213.527L286.4 15.8273C266 -4.57266 232.9 -4.57266 212.5 15.8273L14.7 213.527C6.4 221.827 1.5 232.327 0 243.127C59.6 202.927 131.5 179.427 208.8 179.427Z" fill="black"/>
<path d="M254 228.728C171.1 228.728 95.5 259.728 37.9 310.628L53.4 326.128C96.2 296.128 148.3 278.528 204.6 278.528C283.7 278.528 354.7 313.428 403 368.528L465.2 306.328C408.3 258.028 334.5 228.728 254 228.728Z" fill="black"/>
</g>
<defs>
<clipPath id="clip0_1_11316">
<rect width="500" height="500" fill="white" transform="translate(0 0.527344)"/>
</clipPath>
</defs>
</svg>
