<svg width="500" height="501" viewBox="0 0 500 501" fill="none" xmlns="http://www.w3.org/2000/svg">
<g clip-path="url(#clip0_1_11322)">
<path d="M303.8 500.527C267.9 500.527 241.8 491.927 225.3 474.727C208.9 457.527 200.7 439.027 200.7 419.127C200.7 411.827 202.1 405.727 205 400.827C207.8 395.927 211.9 391.827 216.7 389.127C221.7 386.227 227.8 384.827 235 384.827C242.3 384.827 248.4 386.227 253.3 389.127C258.3 392.027 262.2 395.927 265 400.827C267.9 405.827 269.3 411.927 269.3 419.127C269.3 427.927 267.2 435.027 263 440.627C258.8 446.127 253.8 449.827 248.1 451.527C253.1 458.427 260.9 463.227 271.6 466.127C282.3 469.227 293 470.727 303.7 470.727C318.6 470.727 332 466.727 344.1 458.727C356.1 450.727 365 438.827 370.7 423.227C376.4 407.527 379.3 389.827 379.3 369.927C379.3 348.327 376.1 329.927 369.8 314.627C363.7 299.127 354.6 287.727 342.6 280.227C330.9 272.927 317.4 269.027 303.7 269.027C294.5 269.027 283.1 272.827 269.3 280.527L244.1 293.127V280.527L357.5 129.327H200.7V286.227C200.7 299.227 203.6 309.927 209.3 318.327C215 326.727 223.8 330.927 235.7 330.927C244.9 330.927 253.6 327.827 262 321.727C270.5 315.527 277.8 308.027 283.8 299.427C284.6 297.727 285.5 296.427 286.7 295.727C287.7 294.827 289.1 294.327 290.4 294.327C292.5 294.327 295 295.327 297.8 297.527C300.5 300.527 301.8 304.127 301.8 308.127C301.5 310.827 301 313.527 300.4 316.127C293.9 330.627 284.9 341.727 273.5 349.327C262.3 356.827 249.2 360.827 235.7 360.827C201.7 360.827 178.2 354.127 165.2 340.827C152.2 327.427 145.7 309.327 145.7 286.427V129.427H65.5V100.227H145.7V33.7273L127.4 15.4273V0.527344H180.7L200.7 10.8273V100.127L408 99.6273L428.6 120.227L301.5 247.327C309.2 244.227 317.3 242.327 325.6 241.627C339.3 241.627 354.8 246.027 372 254.827C389.4 263.427 402.7 275.227 412.1 290.327C421.5 305.227 427.5 319.527 430.1 333.327C433 347.127 434.4 359.327 434.4 370.027C434.4 394.427 429.2 417.227 418.9 438.227C408.6 459.227 392.9 474.827 371.9 485.227C350.9 495.327 328.2 500.527 303.8 500.527Z" fill="#2C7DF7"/>
</g>
<defs>
<clipPath id="clip0_1_11322">
<rect width="500" height="500" fill="white" transform="translate(0 0.527344)"/>
</clipPath>
</defs>
</svg>
