<svg width="500" height="501" viewBox="0 0 500 501" fill="none" xmlns="http://www.w3.org/2000/svg">
<g clip-path="url(#clip0_1_11327)">
<path d="M250 1.22754C335.7 1.22754 416.5 27.2275 490.9 70.0275L496.5 72.4275L494.8 78.2275C494.6 162.028 471.8 244.128 429 316.128C387.4 389.828 327 451.128 254 493.728L250 496.628L245.7 493.528C171.7 450.628 115.6 390.328 73.1 316.328C30.6 242.328 5.10005 160.128 5.00005 74.6275L4.30005 70.6275L7.20005 68.3275C81.3 25.5275 164.2 0.727539 249.9 0.727539" fill="#8D33E5"/>
<path d="M493.5 67.6271C419.5 24.6271 335.5 1.72715 249.9 1.32715V493.827L255.5 497.127C329.2 454.227 390.3 392.627 432.7 318.627C475.6 245.127 498.4 161.527 498.6 76.4271V70.3271L493.5 67.6271Z" fill="#7000DF"/>
<path d="M499.4 75.5271V69.0271L493.8 65.8271C342.8 -21.1729 156.8 -21.1729 5.7001 65.8271L0.100098 69.0271V75.5271C0.500098 249.627 93.6001 410.327 244.3 497.327L249.9 500.527L255.5 497.327C406.4 410.327 499.4 249.627 499.7 75.5271H499.4ZM249.6 475.827C106 391.927 13.9001 241.627 13.0001 75.2271C160.2 -7.57286 339.9 -7.57286 487 75.2271C486.2 242.127 394 391.927 249.9 475.727L249.6 475.827Z" fill="#3F017F"/>
<path d="M250 475.627C106 391.927 13.9001 241.627 13.0001 75.2273C85.4001 34.5273 167 13.2273 250 13.1273V0.527344C164.3 0.527344 80.0001 23.0273 5.7001 65.8273L0.100098 69.0273V75.5273C0.500098 249.627 93.6001 410.327 244.3 497.327L249.9 500.527V475.627H250Z" fill="#531B8C"/>
<path d="M406.9 156.028C406.9 154.128 406.6 152.228 406 150.428C400.4 134.328 392.2 119.328 381.6 106.028C379.1 102.628 376 99.3276 373.4 96.0276L371.2 93.5276C370.3 92.5276 369.2 91.7276 368.1 91.0276C365.8 89.7276 363.2 89.0276 360.6 89.1276C359.3 89.2276 358 89.5276 356.8 89.9276C356.2 90.1276 355.6 90.3276 355.1 90.6276C355.1 90.6276 264.2 139.828 250.1 147.228C236.1 139.928 145.6 90.3276 143.5 90.1276C142.3 89.7276 141 89.4276 139.7 89.3276C137 89.2276 134.4 89.9276 132.1 91.2276C130.9 91.8276 129.9 92.7276 129 93.7276L126.8 96.2276C124 99.4276 121.2 102.628 118.6 106.228C108.6 119.128 100.4 133.328 94.5 148.628C93.4 150.928 92.8 153.428 92.8 156.028C92.7 161.228 95 166.228 99 169.528C99.4 169.828 99.7 170.128 100.2 170.428L101.4 171.228L103.1 172.428L117.4 181.328L145.8 199.028L174.2 216.928L197.8 231.128L198.1 331.028V342.128V347.728C198 348.828 198 349.828 198.1 350.928C198.3 352.828 198.7 354.728 199.4 356.528C200.9 359.828 203.2 362.628 206 364.828C208.9 366.928 212.2 368.528 215.7 369.428C219.3 370.328 222.9 371.028 226.5 371.628C241.8 373.828 257.4 373.828 272.7 371.628C278.3 370.728 279.6 370.428 283.3 369.528C286.9 368.728 290.3 367.128 293.1 364.828C295.9 362.628 298.2 359.728 299.7 356.528C300.4 354.728 300.9 352.928 301 350.928C301 349.728 301 348.728 301 347.728C301 347.728 302.2 257.628 301.8 231.428L325.2 217.128L354.2 198.928L382.8 181.128L397 172.228C403.2 169.028 407 162.828 406.9 156.028Z" fill="#3F017F"/>
<path d="M208.6 225.428C208.6 217.028 206.7 208.628 203 201.028C199.3 193.428 194 186.828 187.5 181.628C168.8 166.728 139.7 161.328 111.4 167.428C109.6 167.728 104.4 164.628 102.6 164.228C102.6 164.228 102.2 163.928 103.2 164.828C104.2 165.728 104 166.428 104.2 166.628L208.6 226.528V225.428Z" fill="#F4A900"/>
<path d="M300 159.727C322.2 151.027 341.5 128.527 350.3 101.127C351 99.1271 354.5 98.6271 355.9 97.3271C356.4 96.9271 354.7 95.1271 355.3 94.8271L249.8 155.527L251.1 156.227C265.9 164.827 283.8 166.127 299.7 159.827L300 159.727Z" fill="#78B6E4"/>
<path d="M289.5 228.128C274.9 236.728 265 251.528 262.8 268.328C259.5 291.928 269.3 319.728 288.7 340.828C290.2 342.428 290.1 345.328 290.4 347.328C290.4 347.928 291 347.928 291.6 348.228L292 226.928L289.5 228.128Z" fill="#20B5AC"/>
<path d="M267.7 272.928C270.6 256.128 281.1 241.628 296.2 233.528L291.9 226.728L289.6 228.128C282.4 232.328 276.2 238.128 271.6 245.128C267 252.128 264 260.028 262.9 268.328C260.1 288.928 267.2 313.028 282.3 332.928C270.8 315.228 265.7 294.028 267.7 272.928Z" fill="#3F017F"/>
<path d="M301 153.527C285 159.327 267.2 157.327 252.7 148.327L248.9 155.327L251.3 156.727C266 165.127 283.7 166.427 299.4 160.127C321.5 150.127 339.2 132.527 349.4 110.427C349.4 110.027 347.9 108.227 346.3 111.527C336.3 130.327 320.3 145.027 301 153.527Z" fill="#3F017F"/>
<path d="M181.6 185.228C194.3 195.528 201.1 211.228 200 227.528L208 230.028L210.5 227.328C211 210.628 203.6 189.328 190.4 178.528C175 165.528 142.6 161.228 120.9 164.428C120.1 164.428 119.7 165.828 125.4 165.628C145.8 165.228 165.7 172.228 181.6 185.228Z" fill="#3F017F"/>
<path d="M250 362.228C238.8 362.228 227.6 360.828 216.7 357.928C212 356.628 208.7 352.428 208.6 347.528V225.428C208.7 208.428 201.1 192.328 187.8 181.728C169.1 166.828 140 161.428 111.7 167.528C108.8 168.228 105.8 167.728 103.4 166.128C100.9 164.528 99.0999 162.128 98.4999 159.228C97.9999 157.128 98.1999 154.928 98.8999 152.928C102.5 142.828 106.9 133.028 112.1 123.628C117.6 113.828 124.4 104.928 132.3 97.0276C135.9 93.6276 141.2 93.0276 145.5 95.4276L248.5 154.728L251.2 156.328C266 164.928 283.9 166.228 299.7 159.728C321.9 151.028 341.2 128.528 350 101.128C350.4 99.7276 351.1 98.4276 352.1 97.3276C353.1 96.2276 354.2 95.3276 355.5 94.6276C356.8 93.9276 358.2 93.5276 359.7 93.3276C361.2 93.1276 362.6 93.3276 364 93.8276C366 94.5276 367.8 95.7276 369.2 97.3276C376.2 105.528 382.4 114.228 387.9 123.528C393.7 133.228 398 143.628 400.8 154.528C401.4 156.828 401.2 159.328 400.2 161.528C399.3 163.728 397.6 165.628 395.5 166.728L292 226.528L289.2 228.228C274.6 236.828 264.8 251.628 262.5 268.428C259.2 292.028 269 319.828 288.4 340.928C291.2 343.928 292 348.228 290.7 352.028C290 353.928 288.9 355.528 287.4 356.828C285.8 358.128 283.9 359.028 281.8 359.328C271.3 361.028 260.7 362.028 250 362.228Z" fill="white"/>
</g>
<defs>
<clipPath id="clip0_1_11327">
<rect width="500" height="500" fill="white" transform="translate(0 0.527344)"/>
</clipPath>
</defs>
</svg>
