<svg width="500" height="501" viewBox="0 0 500 501" fill="none" xmlns="http://www.w3.org/2000/svg">
<path d="M126.5 34.4277L3 248.128L126.4 461.928H373.3L377.4 454.928L496.8 248.228L373.4 34.4277H126.5ZM150 62.7277H332.9L212.7 100.728C214.9 104.328 216.5 108.228 217.3 112.328L355.7 68.7277L383.3 203.028C387.3 201.828 391.5 201.228 395.7 201.228L372.5 90.0277L460.3 242.028H442.6C442.8 244.128 442.9 246.128 442.9 248.228C442.9 250.328 442.8 252.428 442.6 254.428H460.3L369.6 411.628L395 295.328C390.9 295.228 386.8 294.628 382.8 293.428L352.9 430.328L217.5 385.028C216.8 389.028 215.4 393.028 213.6 396.628L323.7 433.528H150L159.3 417.628C155.4 416.128 151.7 414.228 148.4 411.728L139.3 427.428L52.7 277.428L138.5 353.228C140.9 349.828 143.7 346.628 146.9 343.928L38.8 248.528L150.9 149.128C147.9 146.228 145.4 142.828 143.5 139.128L52 220.328L139.3 68.9277L152.2 91.4277C155.4 88.6277 158.9 86.3277 162.8 84.6277L150 62.7277ZM215.5 135.028C214 138.928 211.9 142.528 209.3 145.828L353.1 228.928C354.8 225.128 357 221.628 359.7 218.428L215.5 135.028ZM169.1 159.428V334.128C171 333.828 172.9 333.728 174.8 333.728C177 333.728 179.3 333.828 181.5 334.228V160.228C180.5 160.328 179.5 160.328 178.5 160.228C175.3 160.228 172.2 159.828 169.1 159.128V159.428ZM353.2 267.528L209.2 350.628C211.8 353.928 213.9 357.628 215.4 361.528L359.7 278.028C357.1 274.728 354.9 271.228 353.2 267.528Z" fill="#8D8FC6"/>
<path d="M178.6 81.3276C156.7 81.2276 139 98.9276 138.9 120.728C138.8 142.528 156.5 160.328 178.3 160.428C200.1 160.528 217.9 142.828 218 121.028C218 120.928 218 120.928 218 120.828C218 99.1276 200.4 81.4276 178.6 81.3276ZM178.6 93.8276C193.6 93.8276 205.7 106.028 205.7 120.928C205.7 135.828 193.5 148.028 178.6 148.028C163.7 148.028 151.5 135.828 151.5 120.928C151.4 106.028 163.5 93.8276 178.4 93.8276C178.5 93.8276 178.6 93.8276 178.6 93.8276Z" fill="#579FD6"/>
<path d="M174.9 333.728C150.9 333.728 131.4 353.128 131.4 377.128C131.4 401.128 150.8 420.628 174.8 420.628C198.8 420.628 218.3 401.228 218.3 377.228V377.128C218.2 353.228 198.8 333.828 174.9 333.728ZM174.9 346.028C192.1 346.028 206 359.828 206.1 377.028C206.1 394.228 192.3 408.128 175.1 408.228C157.9 408.328 144 394.428 143.9 377.228V377.128C143.8 360.028 157.7 346.128 174.9 346.028Z" fill="#F27046"/>
<path d="M396.1 201.127C370.1 201.127 349 222.127 348.9 248.127C348.9 274.127 369.9 295.227 395.9 295.327C421.9 295.327 443 274.327 443.1 248.327C443.1 248.327 443.1 248.327 443.1 248.227C443 222.227 422 201.127 396.1 201.127ZM396.1 213.527C415.2 213.527 430.8 229.027 430.8 248.227C430.8 267.327 415.3 282.927 396.1 282.927C377 282.927 361.4 267.427 361.4 248.227C361.3 229.127 376.7 213.627 395.8 213.527C395.9 213.527 396 213.527 396.1 213.527Z" fill="#EB407A"/>
</svg>
