<svg width="500" height="501" viewBox="0 0 500 501" fill="none" xmlns="http://www.w3.org/2000/svg">
<path d="M250.1 495.127C385.299 495.127 494.9 385.527 494.9 250.327C494.9 115.128 385.299 5.52734 250.1 5.52734C114.9 5.52734 5.2998 115.128 5.2998 250.327C5.2998 385.527 114.9 495.127 250.1 495.127Z" fill="url(#paint0_linear_1_11347)"/>
<path d="M262.3 156.827H240.3V355.727H262.3V156.827Z" fill="white"/>
<path d="M348.6 196.327L320.1 205.527C325.6 191.627 326.2 176.327 326.2 174.427V174.127C326.2 131.627 291.6 97.0273 249.1 97.0273C206.6 97.0273 172 131.627 172 174.127C172 199.727 184.6 223.527 205.8 237.927L230.3 255.927V228.627L218.6 220.027L218.3 219.827C203.1 209.527 194 192.427 194 174.127C194 143.727 218.7 119.027 249.1 119.027C279.4 119.027 304.1 143.627 304.2 174.027C304 178.227 302.9 189.427 299.4 198.027L290.4 165.827L269.2 171.727L288.1 239.027L355.3 217.327L348.6 196.327Z" fill="white"/>
<path d="M286.4 269.828L272.3 259.428V286.728L273.5 287.628L273.6 287.728C294 302.328 304.3 319.428 304.3 338.528C304.3 368.928 279.6 393.628 249.2 393.628C218.8 393.628 194.1 368.928 194.1 338.528C194.1 328.428 198.2 317.328 203.8 308.328L208.8 345.728L230.6 342.828L221.4 273.828L150.5 287.128L154.6 308.728L180.3 303.928C174.9 314.628 172.1 326.328 172.1 338.528C172.1 381.028 206.7 415.628 249.2 415.628C291.7 415.628 326.3 381.028 326.3 338.528C326.2 312.328 312.4 288.528 286.4 269.828Z" fill="white"/>
<defs>
<linearGradient id="paint0_linear_1_11347" x1="38.06" y1="127.894" x2="462.091" y2="372.708" gradientUnits="userSpaceOnUse">
<stop stop-color="#0077FD"/>
<stop offset="1" stop-color="#095EB4"/>
</linearGradient>
</defs>
</svg>
