<svg width="500" height="501" viewBox="0 0 500 501" fill="none" xmlns="http://www.w3.org/2000/svg">
<path d="M250 499.527C387.519 499.527 499 388.046 499 250.527C499 113.008 387.519 1.52734 250 1.52734C112.481 1.52734 1 113.008 1 250.527C1 388.046 112.481 499.527 250 499.527Z" fill="#FF2C7D"/>
<path d="M357.2 238.127H154.9V260.527H357.2V238.127Z" fill="white"/>
<path d="M195.1 150.327L204.5 179.327C190.4 173.727 174.8 173.127 172.9 173.127H172.6C129.4 173.127 94.2002 208.327 94.2002 251.527C94.2002 294.727 129.4 329.927 172.6 329.927C198.6 329.927 222.8 317.127 237.5 295.527L255.8 270.627H228L219.3 282.527L219.1 282.827C208.6 298.327 191.2 307.527 172.6 307.527C141.7 307.527 116.6 282.427 116.6 251.527C116.6 220.727 141.6 195.627 172.5 195.527C176.8 195.727 188.2 196.827 196.9 200.427L164.1 209.627L170.1 231.227L238.6 212.027L216.4 143.527L195.1 150.327Z" fill="white"/>
<path d="M269.8 213.628L259.2 227.928H287L287.9 226.728L288 226.628C302.9 205.928 320.2 195.428 339.7 195.428C370.6 195.428 395.7 220.528 395.7 251.428C395.7 282.328 370.6 307.428 339.7 307.428C329.4 307.428 318.1 303.228 309 297.528L347 292.428L344.1 270.228L273.9 279.628L287.4 351.728L309.4 347.528L304.5 321.428C315.4 326.928 327.3 329.728 339.7 329.728C382.9 329.728 418.1 294.528 418.1 251.328C418.1 208.128 382.9 172.928 339.7 172.928C313.1 173.128 288.9 187.128 269.8 213.628Z" fill="white"/>
</svg>
