<svg width="500" height="501" viewBox="0 0 500 501" fill="none" xmlns="http://www.w3.org/2000/svg">
<g clip-path="url(#clip0_1_11357)">
<path d="M495.4 250.527C495.4 388.627 385.5 500.527 250 500.527C114.5 500.527 4.59961 388.627 4.59961 250.527C4.59961 112.427 114.5 0.527344 250 0.527344C385.5 0.527344 495.4 112.427 495.4 250.527Z" fill="#104499"/>
<path d="M284.399 236.627L167.299 342.627C163.099 346.427 159.099 349.727 155.199 352.727L115.999 385.727C134.599 392.827 164.899 397.027 197.599 370.827L304.299 273.127C311.199 267.627 322.099 262.227 331.599 262.227C353.899 262.227 371.899 280.627 371.899 303.327C371.899 326.027 353.899 344.427 331.599 344.427C312.899 344.427 301.199 335.627 293.099 316.327L260.999 343.227C270.999 362.327 291.399 385.427 331.599 385.427C376.099 385.427 412.299 348.627 412.299 303.227C412.299 257.827 376.199 221.027 331.599 221.027C313.999 221.027 297.699 226.827 284.399 236.627Z" fill="white"/>
<path d="M302.399 130.327L195.699 228.027C188.799 233.527 177.899 238.927 168.399 238.927C146.099 238.927 128.099 220.527 128.099 197.827C128.099 175.127 146.099 156.727 168.399 156.727C186.499 156.727 197.999 165.027 205.999 182.927L237.899 155.827C227.499 137.127 207.199 115.527 168.399 115.527C123.899 115.527 87.6992 152.327 87.6992 197.727C87.6992 243.127 123.799 279.927 168.399 279.927C185.999 279.927 202.299 274.127 215.599 264.427L332.699 158.427C336.899 154.627 340.899 151.327 344.799 148.327L383.999 115.427C365.399 108.227 335.099 104.027 302.399 130.327Z" fill="white"/>
</g>
<defs>
<clipPath id="clip0_1_11357">
<rect width="500" height="500" fill="white" transform="translate(0 0.527344)"/>
</clipPath>
</defs>
</svg>
