<svg width="500" height="501" viewBox="0 0 500 501" fill="none" xmlns="http://www.w3.org/2000/svg">
<path d="M172.832 352.065C195.263 352.065 213.446 333.881 213.446 311.45C213.446 289.019 195.263 270.835 172.832 270.835C150.401 270.835 132.217 289.019 132.217 311.45C132.217 333.881 150.401 352.065 172.832 352.065Z" fill="#21A5DE"/>
<path d="M250.581 274.317C273.012 274.317 291.195 256.133 291.195 233.702C291.195 211.271 273.012 193.087 250.581 193.087C228.15 193.087 209.966 211.271 209.966 233.702C209.966 256.133 228.15 274.317 250.581 274.317Z" fill="#21A5DE"/>
<path d="M328.329 352.065C350.76 352.065 368.943 333.881 368.943 311.45C368.943 289.019 350.76 270.835 328.329 270.835C305.898 270.835 287.714 289.019 287.714 311.45C287.714 333.881 305.898 352.065 328.329 352.065Z" fill="#21A5DE"/>
<path d="M406.077 274.317C428.508 274.317 446.692 256.133 446.692 233.702C446.692 211.271 428.508 193.087 406.077 193.087C383.646 193.087 365.462 211.271 365.462 233.702C365.462 256.133 383.646 274.317 406.077 274.317Z" fill="#21A5DE"/>
<path d="M95.0835 274.317C117.514 274.317 135.698 256.133 135.698 233.702C135.698 211.271 117.514 193.087 95.0835 193.087C72.6526 193.087 54.4688 211.271 54.4688 233.702C54.4688 256.133 72.6526 274.317 95.0835 274.317Z" fill="#21A5DE"/>
<path d="M133.958 287.081C141.969 287.081 148.464 280.587 148.464 272.576C148.464 264.565 141.969 258.07 133.958 258.07C125.947 258.07 119.453 264.565 119.453 272.576C119.453 280.587 125.947 287.081 133.958 287.081Z" fill="#21A5DE"/>
<path d="M211.706 287.081C219.717 287.081 226.212 280.587 226.212 272.576C226.212 264.565 219.717 258.07 211.706 258.07C203.695 258.07 197.201 264.565 197.201 272.576C197.201 280.587 203.695 287.081 211.706 287.081Z" fill="#21A5DE"/>
<path d="M289.454 287.081C297.465 287.081 303.96 280.587 303.96 272.576C303.96 264.565 297.465 258.07 289.454 258.07C281.443 258.07 274.949 264.565 274.949 272.576C274.949 280.587 281.443 287.081 289.454 287.081Z" fill="#21A5DE"/>
<path d="M367.202 287.081C375.213 287.081 381.708 280.587 381.708 272.576C381.708 264.565 375.213 258.07 367.202 258.07C359.191 258.07 352.697 264.565 352.697 272.576C352.697 280.587 359.191 287.081 367.202 287.081Z" fill="#21A5DE"/>
<path d="M250 490.734C382.663 490.734 490.207 383.19 490.207 250.527C490.207 117.865 382.663 10.3203 250 10.3203C117.337 10.3203 9.79297 117.865 9.79297 250.527C9.79297 383.19 117.337 490.734 250 490.734Z" stroke="#21A5DE" stroke-width="7" stroke-miterlimit="10"/>
</svg>
