<svg width="500" height="501" viewBox="0 0 500 501" fill="none" xmlns="http://www.w3.org/2000/svg">
<g clip-path="url(#clip0_1_11374)">
<path d="M250 500.027C388.071 500.027 500 388.099 500 250.027C500 111.956 388.071 0.0273438 250 0.0273438C111.929 0.0273438 0 111.956 0 250.027C0 388.099 111.929 500.027 250 500.027Z" fill="white"/>
<path d="M385 135.328L366 116.328L324.6 157.728L285.6 118.728L266.6 99.7275L249.5 116.828L99.9004 266.428L118.9 285.428L157.9 324.428L115.3 367.028L134.3 386.028L176.7 343.628C197.7 362.428 225.4 373.928 255.9 373.928C321.5 373.928 374.6 320.828 374.6 255.228C374.6 224.828 363.2 197.028 344.3 176.028L385 135.328ZM136 268.228L268.5 135.728L307.5 174.728L175.1 307.228L136 268.228ZM347.7 253.228C347.7 305.328 305.5 347.528 253.4 347.528C230.8 347.528 210.1 339.628 193.9 326.328L326.5 193.728C339.8 209.928 347.7 230.728 347.7 253.228Z" fill="black"/>
</g>
<defs>
<clipPath id="clip0_1_11374">
<rect width="500" height="500" fill="white" transform="translate(0 0.527344)"/>
</clipPath>
</defs>
</svg>
