<svg width="500" height="501" viewBox="0 0 500 501" fill="none" xmlns="http://www.w3.org/2000/svg">
<path d="M185.4 212.328C175.8 222.328 166.2 232.328 156.2 242.828C154.5 241.228 153 240.028 151.8 238.628C140.5 224.528 132.7 208.928 131.8 190.628C131 174.228 134.7 159.128 146.3 146.728C156.5 135.728 169.5 131.928 183.9 131.828C214.1 131.728 244.4 131.828 274.6 131.828C288.1 131.828 301.6 131.728 315.1 131.928C327.3 132.028 338.8 134.728 348.6 142.728C359.8 151.828 366.1 163.828 368.5 177.628C369.7 184.428 369.8 191.428 369.5 198.328C369 207.828 365 216.328 359.8 224.328C349.3 240.728 336.8 255.528 323.1 269.128C311.2 280.928 298.8 292.228 286.2 303.128C279.1 309.328 270.6 313.428 261.4 315.628C249.7 318.528 238.5 316.728 227.8 311.528C216.9 306.228 208.2 298.028 199.1 289.028C208.4 279.428 217.6 270.028 227.1 260.428C228.8 261.828 230.1 262.828 231.4 263.928C232.9 265.228 234.3 266.628 235.8 267.828C246.4 276.228 254.1 276.428 264.5 267.828C270.2 263.128 275.5 257.928 280.6 252.628C293.4 239.028 305.9 225.128 318.5 211.328C322.8 206.628 326.1 201.428 328 195.228C331.1 185.228 325.8 175.728 316.5 171.928C308.9 168.828 301 167.428 292.9 167.328C265.7 167.128 238.5 167.128 211.3 167.328C203.6 167.328 196.1 168.928 189.1 172.128C184.1 174.428 179.8 177.628 177.2 182.828C173.6 190.128 175.8 196.828 179.2 203.328C181 206.028 183.2 208.828 185.4 212.328Z" fill="#E61F1A"/>
<path d="M345.5 262.927C346.7 263.627 347.5 263.827 347.8 264.227C362.4 281.327 371.5 300.627 369.9 323.727C369 336.327 365 347.927 356.5 357.627C348.3 366.927 338 371.727 325.8 372.927C322.8 373.227 319.7 373.127 316.7 373.127C273.2 373.127 229.7 372.727 186.2 373.327C156.9 373.727 138.8 352.927 133.6 329.927C129.4 311.427 132.6 294.627 143.4 279.127C147.1 273.727 150.8 268.327 154.9 263.327C172.7 241.327 192.4 221.027 214.5 203.327C220 198.927 226.5 195.327 233 192.527C247.2 186.327 261.4 187.527 275.2 194.527C285.6 199.827 293.8 207.927 302.9 216.327C293.5 226.027 284.5 235.527 275.1 245.227C273.5 244.027 272.4 243.127 271.2 242.227C268.3 239.927 265.4 237.627 262.5 235.427C255.5 230.327 248 230.327 241.3 235.327C234.7 240.227 228.6 245.927 223 251.827C208.8 266.827 194.9 282.127 181.2 297.527C178.3 300.827 176.1 305.127 174.4 309.327C170.9 318.027 174.1 326.927 182 332.027C187.4 335.527 193.6 337.027 199.9 337.727C205.1 338.327 210.3 338.627 215.5 338.727C238.6 338.827 261.6 338.927 284.7 338.727C293.8 338.627 302.9 338.027 311.6 334.427C325.5 328.527 330.1 317.227 323.3 303.827C321.6 300.327 319.2 297.227 316.7 293.327C326.3 283.027 335.9 272.927 345.5 262.927Z" fill="#E61F1A"/>
<path d="M249.7 6.22754C114.2 6.22754 4.40039 116.028 4.40039 251.528C4.40039 387.028 114.2 496.828 249.7 496.828C385.2 496.828 495 387.028 495 251.528C495 116.028 385.2 6.22754 249.7 6.22754ZM249.7 460.328C134.4 460.328 40.9004 366.828 40.9004 251.528C40.9004 136.228 134.4 42.7275 249.7 42.7275C365 42.7275 458.5 136.228 458.5 251.528C458.5 366.828 365 460.328 249.7 460.328Z" fill="#E61F1A"/>
</svg>
