<svg width="500" height="501" viewBox="0 0 500 501" fill="none" xmlns="http://www.w3.org/2000/svg">
<path d="M309.3 342.327L263.6 263.227C286.8 257.127 303.8 236.127 303.8 211.027C303.8 181.227 279.6 157.027 249.8 157.027C220 157.027 195.8 181.227 195.8 211.027C195.8 236.327 213.2 257.627 236.8 263.427L191.2 342.327H309.3Z" fill="#009FEB"/>
<path d="M249.6 95.7275C299.7 95.7275 344.3 119.628 372.6 156.728L315.7 178.228C320.7 188.128 323.5 199.228 323.5 211.028C323.5 235.928 311 258.528 291.2 271.828L300 287.128L495.5 215.928C478.6 95.1275 375 2.22754 249.6 2.22754C151.8 2.22754 67.2002 58.8275 26.7002 141.028H140.3C168.4 113.028 207 95.7275 249.6 95.7275Z" fill="#009FEB"/>
<path d="M249.6 405.327C201.6 405.327 158.6 383.327 130.2 348.927L174.3 332.927L174.5 332.627L209.3 272.327C194.3 262.427 183.5 247.327 178.9 229.827L5.2998 295.127C26.2998 410.927 127.7 498.827 249.6 498.827C347.7 498.827 432.6 441.927 472.9 359.227H359.6C331.5 387.627 292.6 405.327 249.6 405.327Z" fill="#009FEB"/>
</svg>
