<svg width="500" height="501" viewBox="0 0 500 501" fill="none" xmlns="http://www.w3.org/2000/svg">
<path d="M497.182 251.164C497.127 386.305 387.21 494.083 249.538 493.989C112.589 493.897 2.67454 385.216 2.75004 249.972C2.82504 115.421 114.183 7.07862 252.199 7.27762C387.359 7.47262 497.237 116.859 497.182 251.164ZM442.732 247.8C440.371 196.18 422.917 150.923 385.235 114.712C336.101 67.4961 276.982 53.8754 211.063 64.5481C136.868 76.5606 55.6295 148.04 57.386 253.915C59.0755 355.751 143.78 440.034 250.213 439.555C358.932 439.067 444.444 351.998 442.732 247.8Z" fill="#030302"/>
<path d="M442.719 247.805C444.443 351.998 358.932 439.067 250.213 439.555C143.78 440.033 59.0751 355.75 57.3859 253.915C55.6294 148.04 136.868 76.5603 211.062 64.5478C276.982 53.875 336.101 67.4958 385.235 114.712C422.916 150.923 440.37 196.18 442.719 247.805Z" fill="#DEA038"/>
<path d="M223.255 366.659C200.615 366.659 179.775 366.659 158.738 366.659C154.56 342.146 157.526 320.958 174.187 301.135C203.461 266.304 227.415 227.259 259.699 191.787C227.162 191.787 196.889 191.787 165.894 191.787C165.894 172.552 165.894 154.389 165.894 134.889C184.419 134.889 203.164 134.889 222.853 134.889C222.853 120.233 222.853 106.874 222.853 92.7529C240.631 92.7529 257.454 92.7529 275.566 92.7529C275.566 106.388 275.566 120.001 275.566 134.665C297.247 134.665 317.678 134.665 338.814 134.665C339.109 157.85 341.475 178.691 324.805 198.773C295.771 233.748 271.615 272.656 240.372 309.105C275.686 309.105 308.881 309.105 342.549 309.105C342.549 328.663 342.549 346.881 342.549 366.206C320.618 366.206 298.888 366.206 276.101 366.206C276.101 380.311 276.101 393.344 276.101 407.077C258.155 407.077 241.271 407.077 223.254 407.077C223.255 394.041 223.255 381.018 223.255 366.659Z" fill="#030302"/>
</svg>
