<svg width="500" height="501" viewBox="0 0 500 501" fill="none" xmlns="http://www.w3.org/2000/svg">
<path d="M250.6 497.427C387.18 497.427 497.9 386.707 497.9 250.127C497.9 113.547 387.18 2.82715 250.6 2.82715C114.02 2.82715 3.30005 113.547 3.30005 250.127C3.30005 386.707 114.02 497.427 250.6 497.427Z" fill="#183C87"/>
<path fill-rule="evenodd" clip-rule="evenodd" d="M69.2 243.127L142.8 200.527L216.1 243.127V328.327L142.8 370.927L69.2 328.327V243.127Z" fill="white"/>
<path fill-rule="evenodd" clip-rule="evenodd" d="M285.3 243.127L358.9 200.527L432.2 243.127V328.327L358.9 370.927L285.3 328.327V243.127Z" fill="white"/>
<path fill-rule="evenodd" clip-rule="evenodd" d="M157.6 168.528L250.5 114.228L343.7 168.528V199.028L277 237.728V315.828L250.5 331.228L224.2 315.828V237.728L157.5 199.028V168.528H157.6Z" fill="white"/>
</svg>
