<svg width="500" height="501" viewBox="0 0 500 501" fill="none" xmlns="http://www.w3.org/2000/svg">
<path d="M449.8 107.527L409.6 169.827C421.9 194.027 428.9 221.527 428.9 250.527C428.9 349.227 348.8 429.327 250.1 429.327C221.1 429.327 193.7 422.427 169.5 410.127L107.3 450.327C147.6 479.127 196.8 496.227 250.2 496.227C385.9 496.227 495.8 386.227 495.8 250.627C495.7 197.227 478.7 147.827 449.8 107.527Z" fill="url(#paint0_radial_1_11395)"/>
<path d="M250.1 373.527C310.6 373.527 360.9 330.027 371.4 272.627C352.3 268.527 332.4 266.327 312 266.327C250.7 266.327 194 285.927 147.7 319.127C169.9 351.927 207.5 373.527 250.1 373.527Z" fill="url(#paint1_radial_1_11395)"/>
<path d="M310.9 243.928C332.4 243.928 353.3 246.228 373.5 250.628C373.5 182.428 318.3 127.228 250.1 127.228C181.9 127.228 126.7 182.428 126.7 250.628C126.7 256.228 127.1 261.728 127.8 267.128C96.7 290.728 82 309.428 81.5 310.028C74.9 291.428 71.3 271.428 71.3 250.628C71.3 151.928 151.4 71.8277 250.1 71.8277C279 71.8277 306.3 78.7277 330.5 90.9277L392.8 50.6277C352.5 21.8277 303.3 4.92773 250.1 4.92773C114.4 4.92773 4.5 114.928 4.5 250.528C4.5 305.128 22.4 355.528 52.5 396.328C64.1 375.328 78.3 355.828 94.5 338.328C94.5 338.328 118.7 313.028 137.3 300.328C186 264.828 246 243.928 310.9 243.928Z" fill="black"/>
<defs>
<radialGradient id="paint0_radial_1_11395" cx="0" cy="0" r="1" gradientUnits="userSpaceOnUse" gradientTransform="translate(449.817 107.287) scale(413.288 413.288)">
<stop offset="0.0986" stop-color="#26DB8D"/>
<stop offset="0.2628" stop-color="#23D29A"/>
<stop offset="0.5637" stop-color="#1ABBBB"/>
<stop offset="0.886" stop-color="#0E9DE5"/>
</radialGradient>
<radialGradient id="paint1_radial_1_11395" cx="0" cy="0" r="1" gradientUnits="userSpaceOnUse" gradientTransform="translate(449.818 107.287) scale(413.288 413.288)">
<stop offset="0.0986" stop-color="#26DB8D"/>
<stop offset="0.2628" stop-color="#23D29A"/>
<stop offset="0.5637" stop-color="#1ABBBB"/>
<stop offset="0.886" stop-color="#0E9DE5"/>
</radialGradient>
</defs>
</svg>
