<svg width="500" height="501" viewBox="0 0 500 501" fill="none" xmlns="http://www.w3.org/2000/svg">
<g clip-path="url(#clip0_1_11399)">
<path d="M249.7 485.027C380.426 485.027 486.4 379.053 486.4 248.327C486.4 117.601 380.426 11.627 249.7 11.627C118.974 11.627 13 117.601 13 248.327C13 379.053 118.974 485.027 249.7 485.027Z" fill="#282554"/>
<path d="M249.7 11.627C380.4 11.627 486.4 117.627 486.4 248.327C486.4 379.027 380.4 485.027 249.7 485.027C119 485.027 13 379.027 13 248.327C13 117.627 119 11.627 249.7 11.627ZM249.7 0.626953C216.3 0.626953 183.8 7.22695 153.3 20.127C123.8 32.627 97.3 50.427 74.6 73.227C51.9 95.927 34 122.427 21.5 151.927C8.5 182.427 2 214.827 2 248.327C2 281.827 8.6 314.227 21.5 344.727C34 374.227 51.8 400.727 74.6 423.427C97.3 446.127 123.8 464.027 153.3 476.527C183.8 489.427 216.3 496.027 249.7 496.027C283.1 496.027 315.6 489.427 346.1 476.527C375.6 464.027 402.1 446.227 424.8 423.427C447.5 400.727 465.4 374.227 477.9 344.727C490.8 314.227 497.4 281.727 497.4 248.327C497.4 214.927 490.8 182.427 477.9 151.927C465.4 122.427 447.6 95.927 424.8 73.227C402.1 50.527 375.6 32.627 346.1 20.127C315.6 7.12695 283.1 0.626953 249.7 0.626953Z" fill="white"/>
<path d="M131.1 158.327L164.2 125.127H423.4L305.8 242.827H408.1L375.1 275.827H272L187.1 360.727H392.7L359.5 394.027H100.4L218.7 275.727H115.5L148.8 242.427H251.9L336 158.427L131.1 158.327Z" fill="#1F1D40"/>
<path d="M118.4 147.128L151.5 113.928H410.7L293.1 231.628H395.4L362.4 264.628H259.3L174.4 349.528H380L346.8 382.828H87.7L206 264.528H102.8L136.1 231.228H239.2L323.3 147.228L118.4 147.128Z" fill="white"/>
</g>
<defs>
<clipPath id="clip0_1_11399">
<rect width="500" height="500" fill="white" transform="translate(0 0.527344)"/>
</clipPath>
</defs>
</svg>
