<svg width="500" height="501" viewBox="0 0 500 501" fill="none" xmlns="http://www.w3.org/2000/svg">
<path d="M353.4 239.627L160.6 334.427L353.4 425.827V499.527L72.5999 366.427L72.3999 293.827L267.8 197.827L72.5999 105.227V31.5273L353.4 164.727V239.627Z" fill="url(#paint0_linear_1_11404)"/>
<path d="M72.6001 31.5273L146.8 1.52734L427.6 134.627L353.4 164.727L72.6001 31.5273Z" fill="url(#paint1_linear_1_11404)"/>
<path d="M353.4 239.627L427.6 209.527V134.627L353.4 164.727V239.627Z" fill="url(#paint2_linear_1_11404)"/>
<path d="M353.4 425.828V278.528L427.6 244.428V469.428L353.4 499.528V425.828Z" fill="url(#paint3_linear_1_11404)"/>
<defs>
<linearGradient id="paint0_linear_1_11404" x1="353.546" y1="502.374" x2="119.144" y2="107.459" gradientUnits="userSpaceOnUse">
<stop stop-color="#05707E"/>
<stop offset="0.52" stop-color="#2B9297"/>
<stop offset="1" stop-color="#4DBBBA"/>
</linearGradient>
<linearGradient id="paint1_linear_1_11404" x1="86.4842" y1="24.4612" x2="420.587" y2="144.24" gradientUnits="userSpaceOnUse">
<stop stop-color="#05707E"/>
<stop offset="0.52" stop-color="#2B9297"/>
<stop offset="1" stop-color="#4DBBBA"/>
</linearGradient>
<linearGradient id="paint2_linear_1_11404" x1="353.354" y1="187.118" x2="427.552" y2="187.118" gradientUnits="userSpaceOnUse">
<stop stop-color="#05707E"/>
<stop offset="0.52" stop-color="#2B9297"/>
<stop offset="1" stop-color="#4DBBBA"/>
</linearGradient>
<linearGradient id="paint3_linear_1_11404" x1="389.534" y1="228.353" x2="391.265" y2="498.835" gradientUnits="userSpaceOnUse">
<stop stop-color="#05707E"/>
<stop offset="0.52" stop-color="#2B9297"/>
<stop offset="1" stop-color="#4DBBBA"/>
</linearGradient>
</defs>
</svg>
