<svg width="500" height="501" viewBox="0 0 500 501" fill="none" xmlns="http://www.w3.org/2000/svg">
<path d="M251.2 345.827C305.821 345.827 350.1 301.548 350.1 246.927C350.1 192.306 305.821 148.027 251.2 148.027C196.579 148.027 152.3 192.306 152.3 246.927C152.3 301.548 196.579 345.827 251.2 345.827Z" fill="#7300BE"/>
<path d="M252.4 262.227C262.12 262.227 270 254.348 270 244.627C270 234.907 262.12 227.027 252.4 227.027C242.68 227.027 234.8 234.907 234.8 244.627C234.8 254.348 242.68 262.227 252.4 262.227Z" fill="white"/>
<path d="M345 377.627C357.868 377.627 368.3 367.196 368.3 354.327C368.3 341.459 357.868 331.027 345 331.027C332.132 331.027 321.7 341.459 321.7 354.327C321.7 367.196 332.132 377.627 345 377.627Z" fill="#7300BE"/>
<path d="M375.1 90.7271C394.264 90.7271 409.8 75.1914 409.8 56.0271C409.8 36.8629 394.264 21.3271 375.1 21.3271C355.936 21.3271 340.4 36.8629 340.4 56.0271C340.4 75.1914 355.936 90.7271 375.1 90.7271Z" fill="#7300BE"/>
<path d="M292.6 268.928C289.1 266.028 283.8 266.628 280.8 270.028C273.6 278.028 263.3 282.628 252.5 282.628C244.9 282.628 237.7 280.428 231.6 276.428L241 267.228C235.8 264.628 231.6 260.228 229.3 254.928L213 270.928L212.2 271.828C209.4 274.728 209.5 279.328 212.3 282.328L212.9 282.928C223.4 293.828 237.4 299.828 252.5 299.828C268.2 299.828 283.2 293.128 293.6 281.328C296.8 277.528 296.3 271.928 292.6 268.928Z" fill="white"/>
<path d="M226.8 216.428C233.8 210.028 242.9 206.528 252.4 206.528C259.6 206.528 266.6 208.528 272.5 212.228L262.2 222.328C267.5 224.728 271.8 228.928 274.3 234.228L291.9 217.028C294.9 214.028 294.9 209.228 292 206.228C282.5 196.728 270.1 190.628 256.7 189.628C241.3 188.428 226.4 193.628 215.2 204.028C211.7 207.328 211.5 212.928 215 216.328C218.2 219.628 223.5 219.528 226.8 216.428Z" fill="white"/>
<path d="M251 398.028C248.3 398.028 246.1 395.828 246.2 393.128C246.2 390.428 248.4 388.228 251.1 388.328C253.8 388.328 256 390.528 255.9 393.228C255.8 395.928 253.7 398.028 251 398.028ZM269 392.228C268.6 389.628 270.4 387.128 273 386.728C275.7 386.328 278.1 388.128 278.5 390.728C278.9 393.428 277.1 395.828 274.4 396.228C274.2 396.228 273.9 396.328 273.7 396.328C271.4 396.328 269.4 394.628 269 392.228ZM227.4 396.228C224.8 395.828 222.9 393.328 223.4 390.628C223.8 388.028 226.3 386.128 229 386.628C231.6 387.028 233.5 389.528 233 392.228C232.6 394.628 230.5 396.328 228.2 396.328C227.9 396.228 227.7 396.228 227.4 396.228ZM291.4 387.728C290.6 385.128 292 382.428 294.5 381.628C297 380.828 299.8 382.228 300.6 384.728C301.4 387.228 300 390.028 297.5 390.828C297 391.028 296.5 391.028 296 391.028C294 391.028 292.1 389.728 291.4 387.728ZM204.5 390.628C202 389.828 200.6 387.028 201.4 384.528C202.2 381.928 205 380.628 207.5 381.428C210 382.228 211.4 385.028 210.6 387.528C209.9 389.628 208 390.828 206 390.828C205.5 390.928 205 390.828 204.5 390.628ZM312.9 379.628C311.7 377.228 312.6 374.328 315 373.128C317.4 371.928 320.3 372.828 321.5 375.228C322.7 377.628 321.8 380.528 319.4 381.728C318.7 382.128 317.9 382.228 317.2 382.228C315.4 382.328 313.7 381.328 312.9 379.628ZM182.6 381.628C180.2 380.428 179.3 377.428 180.5 375.128C181.7 372.728 184.6 371.828 187 373.028C189.4 374.228 190.3 377.128 189.1 379.528C188.2 381.228 186.5 382.128 184.8 382.128C184.1 382.128 183.4 381.928 182.6 381.628ZM332.8 368.428C331.2 366.228 331.7 363.228 333.9 361.628C336.1 360.028 339.1 360.528 340.7 362.728C342.3 364.928 341.8 367.928 339.6 369.528C338.7 370.128 337.7 370.428 336.7 370.428C335.2 370.428 333.7 369.728 332.8 368.428ZM162.5 369.228C160.3 367.628 159.9 364.628 161.4 362.428C163 360.228 166 359.828 168.2 361.328C170.4 362.928 170.8 365.928 169.3 368.128C168.4 369.428 166.9 370.128 165.4 370.128C164.4 370.128 163.4 369.828 162.5 369.228ZM350.7 354.128C348.8 352.228 348.8 349.128 350.7 347.228C352.6 345.328 355.7 345.328 357.6 347.228C359.5 349.128 359.5 352.228 357.6 354.128C356.7 355.028 355.4 355.528 354.2 355.528C352.9 355.528 351.6 355.128 350.7 354.128ZM144.6 353.828C142.7 351.928 142.7 348.828 144.6 346.928C146.5 345.028 149.6 345.028 151.5 346.928C153.4 348.828 153.4 351.928 151.5 353.828C150.6 354.728 149.3 355.228 148.1 355.228C146.8 355.228 145.5 354.828 144.6 353.828ZM366.1 337.328C363.9 335.728 363.5 332.728 365 330.528C366.6 328.328 369.6 327.928 371.8 329.428C374 331.028 374.4 334.028 372.9 336.228C372 337.528 370.5 338.228 369 338.228C368 338.228 367 337.928 366.1 337.328ZM129.3 335.828C127.7 333.628 128.2 330.628 130.4 329.028C132.6 327.428 135.6 327.928 137.2 330.128C138.8 332.328 138.3 335.328 136.1 336.928C135.2 337.528 134.2 337.828 133.2 337.828C131.7 337.828 130.2 337.128 129.3 335.828ZM378.8 318.228C376.4 317.028 375.5 314.028 376.7 311.728C377.9 309.328 380.9 308.428 383.2 309.628C385.6 310.828 386.5 313.828 385.3 316.128C384.4 317.828 382.7 318.728 381 318.728C380.2 318.728 379.5 318.628 378.8 318.228ZM116.9 315.728C115.7 313.328 116.6 310.428 119 309.228C121.4 308.028 124.3 308.928 125.5 311.328C126.7 313.728 125.8 316.628 123.4 317.828C122.7 318.228 121.9 318.328 121.2 318.328C119.5 318.328 117.8 317.328 116.9 315.728ZM388.3 297.428C385.8 296.628 384.4 293.828 385.2 291.328C386 288.828 388.8 287.428 391.3 288.228C393.8 289.028 395.2 291.828 394.4 294.328C393.7 296.428 391.8 297.628 389.8 297.628C389.3 297.628 388.8 297.628 388.3 297.428ZM107.9 293.828C107.1 291.328 108.5 288.528 111 287.728C113.5 286.928 116.3 288.328 117.1 290.828C117.9 293.328 116.5 296.128 114 296.928C113.5 297.128 113 297.128 112.5 297.128C110.5 297.228 108.6 295.928 107.9 293.828ZM394.4 275.328C391.8 274.928 389.9 272.428 390.4 269.728C390.8 267.128 393.3 265.228 396 265.728C398.6 266.128 400.5 268.628 400 271.328C399.6 273.728 397.6 275.428 395.2 275.428C394.9 275.428 394.6 275.428 394.4 275.328ZM102.4 270.828C102 268.128 103.8 265.728 106.4 265.328C109.1 264.928 111.5 266.728 111.9 269.328C112.3 272.028 110.5 274.428 107.9 274.828C107.6 274.828 107.4 274.928 107.1 274.928C104.9 274.928 102.8 273.228 102.4 270.828ZM397 252.628C394.3 252.628 392.2 250.428 392.2 247.728V247.628C392.2 247.628 392.2 247.528 392.2 247.428C392.2 244.728 394.4 242.528 397.1 242.528C399.8 242.528 402 244.728 402 247.428C402 247.428 402 247.528 402 247.628C402 247.628 402 247.728 402 247.828C401.8 250.428 399.7 252.628 397 252.628ZM100.6 247.328C100.6 244.628 102.8 242.528 105.5 242.528C108.2 242.528 110.4 244.728 110.4 247.428C110.4 250.128 108.2 252.328 105.5 252.328C102.8 252.128 100.6 250.028 100.6 247.328ZM390.4 225.428C390 222.728 391.8 220.328 394.4 219.828C397 219.428 399.5 221.228 399.9 223.928C400.3 226.528 398.5 229.028 395.9 229.428C395.6 229.428 395.4 229.528 395.1 229.528C392.8 229.528 390.8 227.828 390.4 225.428ZM106.5 229.328C103.8 228.928 102 226.428 102.5 223.728C102.9 221.128 105.4 219.228 108.1 219.728C110.7 220.128 112.5 222.628 112.1 225.228C111.7 227.628 109.7 229.328 107.3 229.328C107 229.328 106.8 229.328 106.5 229.328ZM385.3 203.928C384.5 201.428 385.9 198.628 388.4 197.828C390.9 197.028 393.7 198.428 394.5 200.928C395.3 203.428 393.9 206.228 391.4 207.028C390.9 207.228 390.4 207.228 389.9 207.228C387.8 207.328 385.9 206.028 385.3 203.928ZM111.1 206.928C108.6 206.128 107.2 203.328 108 200.828C108.8 198.328 111.6 196.928 114.1 197.728C116.6 198.528 118 201.328 117.2 203.828C116.5 205.928 114.6 207.228 112.6 207.228C112.1 207.128 111.6 207.028 111.1 206.928ZM376.8 183.528C375.6 181.128 376.5 178.228 378.9 177.028C381.3 175.828 384.2 176.728 385.4 179.128C386.6 181.528 385.7 184.428 383.3 185.628C382.6 186.028 381.8 186.128 381.1 186.128C379.4 186.128 377.7 185.228 376.8 183.528ZM119.2 185.528C116.8 184.328 115.9 181.428 117.1 179.028C118.3 176.628 121.3 175.728 123.6 176.928C126 178.128 126.9 181.128 125.7 183.428C124.9 185.128 123.1 186.028 121.4 186.028C120.6 186.028 119.9 185.828 119.2 185.528ZM365.2 164.628C363.6 162.428 364.1 159.428 366.3 157.828C368.5 156.228 371.5 156.728 373.1 158.928C374.7 161.128 374.2 164.128 372 165.728C371.1 166.328 370.1 166.628 369.1 166.628C367.7 166.628 366.2 165.928 365.2 164.628ZM130.5 165.628C128.3 164.028 127.9 161.028 129.4 158.828C131 156.628 134 156.228 136.2 157.728C138.4 159.328 138.8 162.328 137.3 164.528C136.4 165.828 134.9 166.528 133.4 166.528C132.4 166.528 131.4 166.228 130.5 165.628ZM350.9 147.828C349 145.928 349 142.828 350.9 140.928C352.8 139.028 355.9 139.028 357.8 140.928C359.7 142.828 359.7 145.928 357.8 147.828C356.9 148.728 355.6 149.228 354.4 149.228C353.1 149.328 351.8 148.828 350.9 147.828ZM144.8 147.728C142.9 145.828 142.9 142.728 144.8 140.828C146.7 138.928 149.8 138.928 151.7 140.828C153.6 142.728 153.6 145.828 151.7 147.728C150.8 148.628 149.5 149.128 148.3 149.128C147 149.228 145.7 148.728 144.8 147.728ZM334.1 133.528C331.9 131.928 331.5 128.928 333 126.728C334.6 124.528 337.6 124.128 339.8 125.628C342 127.228 342.4 130.228 340.9 132.428C340 133.728 338.5 134.428 337 134.428C335.9 134.428 334.9 134.128 334.1 133.528ZM161.7 132.328C160.1 130.128 160.6 127.128 162.8 125.528C165 123.928 168 124.428 169.6 126.628C171.2 128.828 170.7 131.828 168.5 133.428C167.6 134.028 166.6 134.328 165.6 134.328C164.1 134.328 162.6 133.628 161.7 132.328ZM315.2 121.928C312.8 120.728 311.9 117.828 313.1 115.428C314.3 113.028 317.2 112.128 319.6 113.328C322 114.528 322.9 117.428 321.7 119.828C320.8 121.528 319.1 122.428 317.4 122.428C316.7 122.428 315.9 122.228 315.2 121.928ZM180.8 119.728C179.6 117.328 180.5 114.428 182.9 113.228C185.3 112.028 188.2 112.928 189.4 115.328C190.6 117.728 189.7 120.628 187.3 121.828C186.6 122.228 185.8 122.328 185.1 122.328C183.4 122.428 181.7 121.428 180.8 119.728ZM294.8 113.428C292.3 112.628 290.9 109.828 291.7 107.328C292.5 104.828 295.3 103.428 297.8 104.228C300.4 105.028 301.7 107.828 300.9 110.328C300.2 112.428 298.3 113.728 296.3 113.728C295.8 113.728 295.3 113.628 294.8 113.428ZM201.6 110.228C200.8 107.728 202.2 104.928 204.7 104.128C207.2 103.328 210 104.728 210.8 107.228C211.6 109.828 210.2 112.528 207.7 113.328C207.2 113.528 206.7 113.528 206.2 113.528C204.2 113.628 202.3 112.328 201.6 110.228ZM273.3 108.328C270.7 107.928 268.8 105.428 269.3 102.728C269.7 100.128 272.2 98.2277 274.8 98.7277C277.4 99.1277 279.3 101.628 278.8 104.228C278.4 106.628 276.4 108.328 274 108.328C273.9 108.328 273.6 108.328 273.3 108.328ZM223.7 104.228C223.3 101.528 225.1 99.1277 227.8 98.6277C230.4 98.2277 232.9 100.028 233.3 102.628C233.7 105.228 231.9 107.728 229.2 108.128C228.9 108.128 228.7 108.228 228.4 108.228C226.1 108.328 224.1 106.628 223.7 104.228ZM246.5 101.728C246.5 99.0277 248.7 96.9277 251.4 96.9277C254.1 96.9277 256.3 99.1277 256.3 101.828C256.3 104.528 254.1 106.728 251.4 106.728C248.6 106.528 246.4 104.428 246.5 101.728Z" fill="#7300BE"/>
<path d="M257 478.427C256.9 475.727 259 473.427 261.6 473.327C264.3 473.227 266.6 475.227 266.7 477.927C266.8 480.627 264.7 482.927 262.1 483.027C262 483.027 262 483.027 261.9 483.027C259.2 483.027 257.1 481.027 257 478.427ZM239.6 483.027C236.9 482.927 234.9 480.627 235 477.927C235.1 475.227 237.4 473.227 240.1 473.327C242.8 473.427 244.8 475.727 244.7 478.427C244.6 481.027 242.4 483.027 239.9 483.027C239.8 483.027 239.7 483.027 239.6 483.027ZM278.9 476.827C278.5 474.127 280.4 471.727 283 471.327C285.7 470.927 288.1 472.827 288.5 475.427C288.9 478.127 287 480.527 284.4 480.927C284.2 480.927 283.9 480.927 283.7 480.927C281.3 481.027 279.2 479.227 278.9 476.827ZM217.3 480.827C214.7 480.427 212.8 478.027 213.2 475.327C213.6 472.627 216.1 470.827 218.7 471.227C221.4 471.627 223.2 474.027 222.8 476.727C222.5 479.127 220.4 480.927 218 480.927C217.7 480.927 217.5 480.927 217.3 480.827ZM300.6 473.227C300 470.627 301.6 468.027 304.2 467.327C306.8 466.727 309.4 468.327 310 470.927C310.6 473.527 309 476.127 306.4 476.827C306 476.927 305.6 476.927 305.3 476.927C303.1 476.927 301.1 475.427 300.6 473.227ZM195.2 476.627C192.6 476.027 191 473.327 191.6 470.727C192.2 468.127 194.9 466.527 197.5 467.127C200.1 467.727 201.7 470.427 201.1 473.027C200.6 475.227 198.6 476.727 196.4 476.727C196 476.727 195.6 476.727 195.2 476.627ZM321.8 467.527C320.9 465.027 322.3 462.227 324.8 461.327C327.3 460.427 330.1 461.827 331 464.327C331.9 466.827 330.5 469.627 328 470.527C327.5 470.727 326.9 470.827 326.4 470.827C324.4 470.827 322.5 469.527 321.8 467.527ZM173.7 470.227C171.2 469.327 169.8 466.627 170.7 464.027C171.6 461.527 174.3 460.127 176.9 461.027C179.4 461.927 180.8 464.727 179.9 467.227C179.2 469.227 177.3 470.527 175.3 470.527C174.8 470.527 174.2 470.427 173.7 470.227ZM342.4 459.827C341.3 457.427 342.4 454.527 344.8 453.427C347.2 452.327 350.1 453.427 351.2 455.827C352.3 458.227 351.2 461.127 348.8 462.227C348.1 462.527 347.5 462.627 346.8 462.627C345 462.627 343.2 461.627 342.4 459.827ZM152.9 461.827C150.5 460.727 149.4 457.827 150.5 455.427C151.6 453.027 154.5 451.927 156.9 453.027C159.3 454.127 160.4 457.027 159.3 459.427C158.5 461.227 156.7 462.227 154.9 462.227C154.3 462.327 153.6 462.227 152.9 461.827ZM362.1 450.127C360.8 447.827 361.6 444.827 363.9 443.527C366.2 442.227 369.2 443.027 370.5 445.327C371.8 447.627 371 450.627 368.7 451.927C367.9 452.327 367.1 452.527 366.3 452.527C364.7 452.627 363 451.727 362.1 450.127ZM133 451.527C130.7 450.227 129.9 447.227 131.2 444.927C132.5 442.627 135.5 441.827 137.8 443.127C140.1 444.427 140.9 447.427 139.6 449.727C138.7 451.327 137.1 452.127 135.4 452.127C134.6 452.227 133.8 452.027 133 451.527ZM380.9 438.727C379.3 436.527 379.9 433.527 382 431.927C384.2 430.327 387.2 430.927 388.8 433.027C390.4 435.227 389.8 438.227 387.7 439.827C386.9 440.427 385.9 440.727 384.9 440.727C383.3 440.727 381.8 440.027 380.9 438.727ZM114.1 439.327C111.9 437.727 111.4 434.727 113 432.527C114.6 430.327 117.6 429.827 119.8 431.427C122 433.027 122.5 436.027 120.9 438.227C120 439.527 118.5 440.227 116.9 440.227C116 440.327 115 440.027 114.1 439.327ZM398.5 425.527C396.8 423.527 397 420.427 399 418.727C401 416.927 404.1 417.227 405.8 419.227C407.5 421.227 407.3 424.327 405.3 426.027C404.4 426.827 403.3 427.227 402.1 427.227C400.8 427.127 399.4 426.627 398.5 425.527ZM96.5 425.427C94.5 423.627 94.3 420.627 96 418.627C97.8 416.627 100.8 416.427 102.8 418.127C104.8 419.827 105 422.927 103.3 424.927C102.3 426.027 101 426.627 99.6 426.627C98.6 426.627 97.5 426.227 96.5 425.427ZM414.7 410.727C412.8 408.827 412.7 405.827 414.6 403.827C416.5 401.927 419.5 401.827 421.5 403.627C423.4 405.527 423.5 408.527 421.7 410.527C420.7 411.527 419.5 412.027 418.2 412.027C416.8 412.027 415.6 411.627 414.7 410.727ZM80.3 409.927C78.5 408.027 78.5 404.927 80.5 403.027C82.4 401.227 85.5 401.227 87.4 403.227C89.2 405.127 89.2 408.227 87.2 410.127C86.3 411.027 85.1 411.427 83.9 411.427C82.6 411.427 81.3 410.927 80.3 409.927ZM429.5 394.427C427.4 392.727 427 389.727 428.7 387.627C430.4 385.527 433.4 385.127 435.5 386.827C437.6 388.527 438 391.527 436.3 393.627C435.3 394.827 433.9 395.427 432.5 395.427C431.4 395.427 430.4 395.127 429.5 394.427ZM65.6 393.027C63.9 390.927 64.3 387.827 66.4 386.227C68.5 384.527 71.6 384.927 73.2 387.027C74.9 389.127 74.5 392.227 72.4 393.827C71.5 394.527 70.4 394.827 69.4 394.827C68 394.827 66.6 394.227 65.6 393.027ZM442.7 376.827C440.5 375.327 439.8 372.327 441.3 370.127C442.8 367.927 445.8 367.227 448 368.727C450.2 370.127 450.9 373.227 449.4 375.427C448.5 376.827 446.9 377.627 445.3 377.627C444.4 377.627 443.5 377.327 442.7 376.827ZM52.6 374.727C51.2 372.527 51.8 369.427 54.1 368.027C56.4 366.527 59.4 367.227 60.8 369.527C62.2 371.827 61.6 374.827 59.3 376.227C58.5 376.727 57.6 377.027 56.7 377.027C55.1 376.927 53.6 376.127 52.6 374.727ZM454.1 358.027C451.7 356.827 450.8 353.827 452 351.527C453.2 349.127 456.2 348.227 458.5 349.427C460.9 350.627 461.8 353.627 460.6 355.927C459.7 357.627 458 358.527 456.3 358.527C455.6 358.627 454.8 358.427 454.1 358.027ZM41.4 355.227C40.2 352.827 41.1 349.927 43.5 348.727C45.9 347.527 48.8 348.427 50 350.827C51.2 353.227 50.3 356.127 47.9 357.327C47.2 357.727 46.4 357.827 45.7 357.827C44 357.927 42.3 356.927 41.4 355.227ZM463.7 338.227C461.2 337.227 460 334.427 461 331.927C462 329.427 464.8 328.227 467.3 329.227C469.8 330.227 471 333.027 470 335.527C469.2 337.427 467.4 338.527 465.5 338.527C464.9 338.627 464.3 338.527 463.7 338.227ZM32.1 334.827C31.1 332.327 32.3 329.527 34.8 328.527C37.3 327.527 40.1 328.727 41.1 331.227C42.1 333.727 40.9 336.527 38.4 337.527C37.8 337.727 37.2 337.827 36.6 337.827C34.7 337.927 32.9 336.727 32.1 334.827ZM471.4 317.727C468.8 316.927 467.4 314.227 468.1 311.727C468.9 309.127 471.6 307.727 474.1 308.427C476.7 309.227 478.1 311.927 477.4 314.427C476.8 316.527 474.8 317.927 472.8 317.927C472.3 317.927 471.8 317.827 471.4 317.727ZM24.8 313.627C24.1 311.027 25.5 308.327 28.1 307.627C30.7 306.927 33.4 308.327 34.1 310.927C34.9 313.527 33.4 316.227 30.8 316.927C30.4 317.027 29.9 317.127 29.4 317.127C27.4 317.127 25.4 315.727 24.8 313.627ZM477 296.427C474.4 295.927 472.6 293.327 473.2 290.727C473.7 288.127 476.3 286.427 478.9 286.927C481.5 287.427 483.2 290.027 482.7 292.627C482.3 294.927 480.2 296.527 477.9 296.527C477.7 296.527 477.3 296.527 477 296.427ZM19.6 291.827C19.1 289.227 20.8 286.627 23.5 286.127C26.1 285.627 28.7 287.327 29.2 290.027C29.7 292.627 28 295.227 25.3 295.727C25 295.827 24.7 295.827 24.4 295.827C22 295.727 20 294.127 19.6 291.827ZM480.6 274.727C477.9 274.427 476 272.127 476.2 269.427C476.5 266.727 478.8 264.827 481.5 265.027C484.2 265.327 486.1 267.627 485.9 270.327C485.7 272.827 483.5 274.727 481.1 274.727C481 274.827 480.8 274.827 480.6 274.727ZM16.4 269.627C16.1 266.927 18.1 264.627 20.8 264.327C23.5 264.127 25.8 266.027 26.1 268.727C26.4 271.427 24.4 273.727 21.7 274.027C21.5 274.027 21.4 274.027 21.2 274.027C18.8 274.027 16.7 272.127 16.4 269.627ZM482.2 252.827C479.5 252.827 477.3 250.627 477.4 247.927C477.4 247.827 477.4 247.727 477.4 247.627C477.4 247.527 477.4 247.427 477.4 247.327C477.4 244.627 479.6 242.427 482.3 242.427C485 242.427 487.2 244.627 487.2 247.327C487.2 247.427 487.2 247.527 487.2 247.627C487.2 247.727 487.2 247.827 487.2 247.927C487 250.727 484.9 252.827 482.2 252.827ZM20.3 252.027C17.6 252.027 15.4 249.827 15.4 247.127C15.4 244.427 17.6 242.227 20.3 242.227C23 242.227 25.1 244.427 25.1 247.127C25.1 249.927 22.9 252.027 20.3 252.027ZM476.3 225.927C476 223.227 478 220.927 480.7 220.627C483.4 220.427 485.7 222.327 486 225.027C486.3 227.727 484.3 230.027 481.6 230.327C481.4 230.327 481.3 230.327 481.1 230.327C478.7 230.427 476.6 228.527 476.3 225.927ZM20.9 230.127C18.2 229.827 16.3 227.527 16.5 224.827C16.8 222.127 19.1 220.227 21.8 220.427C24.5 220.727 26.4 223.027 26.2 225.727C26 228.227 23.8 230.127 21.4 230.127C21.2 230.127 21 230.127 20.9 230.127ZM473.3 204.727C472.8 202.127 474.5 199.527 477.1 199.027C479.7 198.527 482.3 200.227 482.8 202.927C483.3 205.527 481.6 208.127 478.9 208.627C478.6 208.727 478.3 208.727 478 208.727C475.8 208.627 473.7 207.027 473.3 204.727ZM23.5 208.227C20.9 207.727 19.1 205.127 19.7 202.527C20.2 199.927 22.7 198.227 25.4 198.727C28 199.227 29.8 201.827 29.2 204.427C28.8 206.727 26.7 208.327 24.4 208.327C24.1 208.327 23.8 208.327 23.5 208.227ZM468.2 183.727C467.4 181.127 468.9 178.427 471.5 177.727C474.1 176.927 476.8 178.427 477.5 181.027C478.3 183.627 476.8 186.327 474.2 187.027C473.7 187.127 473.3 187.227 472.8 187.227C470.8 187.227 468.9 185.927 468.2 183.727ZM28.3 186.827C25.7 186.027 24.2 183.327 25 180.827C25.8 178.227 28.5 176.827 31 177.527C33.6 178.327 35 181.027 34.3 183.527C33.7 185.627 31.8 187.027 29.7 187.027C29.2 187.027 28.7 186.927 28.3 186.827ZM461.2 163.427C460.2 160.927 461.4 158.127 463.9 157.127C466.4 156.127 469.2 157.327 470.2 159.827C471.2 162.327 470 165.127 467.5 166.127C466.9 166.327 466.3 166.527 465.7 166.527C463.8 166.527 462 165.327 461.2 163.427ZM35 165.927C32.5 164.927 31.3 162.127 32.3 159.627C33.3 157.127 36.1 155.927 38.6 156.927C41.1 157.927 42.3 160.727 41.3 163.227C40.5 165.127 38.7 166.227 36.8 166.227C36.2 166.227 35.6 166.127 35 165.927ZM452.3 143.927C451.1 141.527 452 138.627 454.4 137.427C456.8 136.227 459.7 137.127 460.9 139.527C462.1 141.927 461.2 144.827 458.8 146.027C458.1 146.427 457.3 146.527 456.6 146.527C454.8 146.527 453.1 145.527 452.3 143.927ZM43.8 145.727C41.4 144.527 40.5 141.527 41.7 139.227C42.9 136.827 45.9 135.927 48.2 137.127C50.6 138.327 51.5 141.327 50.3 143.627C49.4 145.327 47.7 146.227 46 146.227C45.2 146.327 44.5 146.127 43.8 145.727ZM441.5 125.227C440.1 122.927 440.7 119.927 443 118.527C445.3 117.027 448.3 117.727 449.7 120.027C451.1 122.227 450.5 125.327 448.2 126.727C447.4 127.227 446.5 127.527 445.6 127.527C444 127.527 442.4 126.727 441.5 125.227ZM54.4 126.527C52.2 125.127 51.5 122.027 53 119.827C54.5 117.627 57.5 116.927 59.7 118.427C62 119.927 62.6 122.927 61.1 125.127C60.2 126.527 58.6 127.327 57 127.327C56.1 127.227 55.2 127.027 54.4 126.527ZM429 107.727C427.3 105.627 427.7 102.527 429.8 100.927C431.9 99.2273 435 99.6273 436.6 101.727C438.3 103.827 437.9 106.927 435.8 108.527C434.9 109.227 433.8 109.527 432.8 109.527C431.4 109.627 430 108.927 429 107.727ZM66.8 108.327C64.7 106.627 64.3 103.627 66 101.527C67.7 99.4273 70.7 99.0273 72.8 100.727C74.9 102.427 75.3 105.427 73.6 107.527C72.6 108.727 71.2 109.327 69.8 109.327C68.7 109.427 67.7 109.027 66.8 108.327ZM414.9 91.4273C413 89.5273 413.1 86.4273 415.1 84.5273C417 82.6273 420.1 82.7272 422 84.7272C423.8 86.6273 423.8 89.7272 421.8 91.6273C420.9 92.5273 419.7 92.9273 418.4 92.9273C417.1 93.0273 415.9 92.5273 414.9 91.4273ZM80.8 91.4273C78.9 89.5273 78.8 86.5273 80.6 84.5273C82.5 82.6273 85.5 82.5273 87.5 84.3273C89.4 86.2273 89.5 89.2272 87.7 91.2272C86.7 92.2272 85.5 92.7272 84.2 92.7272C83 92.8272 81.8 92.3273 80.8 91.4273ZM399.3 76.6273C397.3 74.9272 397.1 71.8273 398.8 69.8273C400.6 67.8273 403.6 67.6273 405.6 69.3273C407.6 71.1273 407.8 74.1273 406.1 76.2272C405.1 77.3272 403.8 77.9273 402.4 77.9273C401.4 77.8273 400.3 77.4273 399.3 76.6273ZM96.4 75.9273C94.7 73.9273 94.9 70.8272 96.9 69.1272C98.9 67.4272 102 67.6272 103.7 69.6272C105.5 71.6272 105.2 74.7273 103.2 76.4273C102.3 77.2273 101.1 77.6273 100 77.6273C98.8 77.6273 97.4 77.1273 96.4 75.9273ZM382.4 63.3272C380.2 61.7272 379.7 58.7272 381.3 56.5272C382.9 54.3272 385.9 53.8273 388.1 55.4272C390.3 57.0272 390.8 60.0272 389.2 62.2272C388.3 63.5272 386.8 64.2272 385.2 64.2272C384.3 64.2272 383.3 63.9272 382.4 63.3272ZM113.4 62.0272C111.8 59.8272 112.3 56.8272 114.5 55.2272C116.7 53.6273 119.7 54.2272 121.3 56.3272C122.9 58.5272 122.3 61.5272 120.2 63.1272C119.4 63.7272 118.4 64.0272 117.4 64.0272C115.9 64.0272 114.4 63.3272 113.4 62.0272ZM364.4 51.6272C362.1 50.3272 361.3 47.3272 362.6 45.0272C363.9 42.7272 366.9 41.9273 369.2 43.2273C371.5 44.5273 372.3 47.5272 371 49.8272C370.1 51.4272 368.5 52.2272 366.8 52.2272C366 52.3272 365.1 52.1272 364.4 51.6272ZM131.7 49.7272C130.4 47.4272 131.2 44.4272 133.5 43.1272C135.8 41.8272 138.8 42.6273 140.1 44.9272C141.4 47.2272 140.6 50.2272 138.3 51.5272C137.5 51.9272 136.7 52.2272 135.9 52.2272C134.2 52.1273 132.6 51.3272 131.7 49.7272ZM345.2 41.7273C342.8 40.6273 341.7 37.7272 342.8 35.3272C343.9 32.9272 346.8 31.8273 349.2 32.9273C351.6 34.0273 352.7 36.9272 351.6 39.3272C350.8 41.1272 349 42.1272 347.2 42.1272C346.6 42.2272 345.9 42.0273 345.2 41.7273ZM151 39.2273C149.9 36.8273 151 33.9272 153.4 32.8272C155.8 31.7272 158.7 32.8273 159.8 35.2273C160.9 37.6273 159.8 40.5272 157.4 41.6272C156.7 41.9272 156.1 42.0273 155.4 42.0273C153.6 42.1273 151.8 41.0273 151 39.2273ZM325.3 33.7273C322.8 32.8273 321.4 30.1272 322.3 27.5272C323.2 25.0272 326 23.6272 328.5 24.5272C331 25.4272 332.4 28.2273 331.5 30.7273C330.8 32.7273 328.9 34.0273 326.9 34.0273C326.3 34.0273 325.8 33.9273 325.3 33.7273ZM171.2 30.7273C170.3 28.2273 171.7 25.4272 174.2 24.5272C176.7 23.6272 179.5 25.0272 180.4 27.5272C181.3 30.0272 179.9 32.8273 177.4 33.7273C176.9 33.9273 176.3 34.0273 175.8 34.0273C173.8 33.9272 171.9 32.7273 171.2 30.7273ZM304.6 27.7273C302 27.1272 300.4 24.4272 301 21.8272C301.6 19.2272 304.3 17.6273 306.9 18.2273C309.5 18.8273 311.1 21.5273 310.5 24.1272C310 26.3272 308 27.8272 305.8 27.8272C305.4 27.8272 305 27.8273 304.6 27.7273ZM192.2 24.0272C191.6 21.4272 193.2 18.8272 195.8 18.1272C198.4 17.5272 201 19.1273 201.7 21.7273C202.3 24.3272 200.7 26.9272 198.1 27.6272C197.7 27.7273 197.3 27.7273 197 27.7273C194.7 27.8273 192.7 26.3272 192.2 24.0272ZM283.5 23.6272C280.8 23.2273 279 20.8272 279.4 18.1272C279.8 15.4272 282.2 13.6272 284.9 14.0272C287.6 14.4272 289.4 16.8272 289 19.5272C288.7 21.9272 286.6 23.7273 284.2 23.7273C284 23.7273 283.8 23.6272 283.5 23.6272ZM213.7 19.5272C213.3 16.8272 215.2 14.4272 217.8 14.0272C220.5 13.6272 222.9 15.5272 223.3 18.1272C223.7 20.8272 221.8 23.2273 219.2 23.6272C219 23.6272 218.8 23.6272 218.5 23.6272C216.1 23.6272 214 21.9272 213.7 19.5272ZM262.1 21.6272C259.4 21.5272 257.4 19.2272 257.5 16.5272C257.6 13.8272 259.9 11.7272 262.6 11.9272C265.3 12.0272 267.3 14.3272 267.2 17.0272C267.1 19.6272 264.9 21.6272 262.3 21.6272C262.3 21.6272 262.2 21.6272 262.1 21.6272ZM235.5 17.0272C235.4 14.3272 237.5 12.0272 240.1 11.9272C242.8 11.8272 245.1 13.8272 245.2 16.5272C245.3 19.2272 243.3 21.5272 240.6 21.6272C240.5 21.6272 240.5 21.6272 240.4 21.6272C237.8 21.6272 235.6 19.5272 235.5 17.0272Z" fill="#7300BE"/>
</svg>
