<svg width="500" height="501" viewBox="0 0 500 501" fill="none" xmlns="http://www.w3.org/2000/svg">
<g clip-path="url(#clip0_1_11418)">
<path d="M0 111.627C0 50.2273 49.7 0.527344 111.1 0.527344H388.9C450.3 0.527344 500 50.2273 500 111.627V389.427C500 450.827 450.3 500.527 388.9 500.527H111.1C49.7 500.527 0 450.827 0 389.427V111.627Z" fill="white"/>
<path d="M0 111.627C0 50.2273 49.7 0.527344 111.1 0.527344H388.9C450.3 0.527344 500 50.2273 500 111.627V389.427C500 450.827 450.3 500.527 388.9 500.527H111.1C49.7 500.527 0 450.827 0 389.427V111.627Z" fill="#0090BF"/>
<path d="M0 111.627C0 50.2273 49.7 0.527344 111.1 0.527344H388.9C450.3 0.527344 500 50.2273 500 111.627V389.427C500 450.827 450.3 500.527 388.9 500.527H111.1C49.7 500.527 0 450.827 0 389.427V111.627Z" fill="url(#paint0_linear_1_11418)"/>
<path fill-rule="evenodd" clip-rule="evenodd" d="M227.2 90.9272C278.3 98.2272 316.3 132.027 322.3 187.627H300L350 232.027L400 187.627H375.9C370 121.627 311.9 89.5272 248.9 89.5272C241.7 89.4272 234.4 89.9272 227.2 90.9272ZM258.2 144.627C244.6 132.027 226.1 125.127 204.1 125.127C168 125.127 132.8 138.027 132.8 179.527C132.8 214.127 172.5 222.727 216.9 232.327C273 244.427 336.4 258.027 336.4 327.927C336.4 387.127 285.6 415.427 234.1 421.527C240.9 422.427 247.7 422.827 254.7 422.827C341.6 422.827 387.1 379.127 387.1 320.727C387.1 249.427 317.1 233.527 293.1 228.127L292.7 228.027L290.4 227.427C212.7 207.927 197.8 204.127 197.8 179.927C197.8 153.227 223.6 143.827 245.9 143.827C250.1 143.827 254.2 144.027 258.2 144.627ZM120.8 298.627C120.8 352.127 165.4 387.027 213.5 387.027C238.2 387.027 264.6 382.027 280.2 366.227C272.3 367.827 264.4 368.327 257.4 368.327C220 368.327 187 340.927 187 298.627H211.1L155.5 243.027L100 298.627H120.8Z" fill="white"/>
</g>
<defs>
<linearGradient id="paint0_linear_1_11418" x1="-2.98023e-05" y1="500.527" x2="500" y2="0.527254" gradientUnits="userSpaceOnUse">
<stop stop-color="#5500FF"/>
<stop offset="1" stop-color="#5500FF" stop-opacity="0"/>
</linearGradient>
<clipPath id="clip0_1_11418">
<rect width="500" height="500" fill="white" transform="translate(0 0.527344)"/>
</clipPath>
</defs>
</svg>
