<svg width="500" height="501" viewBox="0 0 500 501" fill="none" xmlns="http://www.w3.org/2000/svg">
<path d="M90 30.7273V96.1273C90 99.8273 93 102.727 96.6 102.727H261.3L3.20001 360.727H123.3L381.4 102.627V102.527C389.9 94.1273 395.3 82.6273 395.3 69.7273C395.3 45.7273 376.8 26.0273 353.3 24.2273V24.0273H349.6H96.8C93 24.0273 90 27.0273 90 30.7273Z" fill="#1111FF"/>
<path d="M409.8 470.328V404.928C409.8 401.228 406.8 398.328 403.2 398.328H238.7L496.8 140.228H376.5L118.4 398.428V398.628C109.9 407.028 104.5 418.528 104.5 431.428C104.5 455.428 123 475.128 146.5 476.928V477.128H150.2H403.2C406.8 477.128 409.8 474.028 409.8 470.328Z" fill="#1111FF"/>
</svg>
