<svg width="500" height="501" viewBox="0 0 500 501" fill="none" xmlns="http://www.w3.org/2000/svg">
<path d="M220 13.6527C180.625 18.4027 140.75 34.6527 107.125 59.6527C97.125 67.0277 70.75 91.6527 68.625 95.6527C67.375 98.0277 67 97.4027 95.25 134.903C121 169.278 120.875 169.153 122.5 166.653C133.375 148.653 156.625 127.403 179.25 115.028L185.375 111.653L195.5 121.653C214.375 140.403 224.25 149.153 225.625 148.153C226.25 147.528 251.125 129.778 280.625 108.528C310.25 87.4027 342.375 64.2777 352.125 57.2777C365.25 48.0277 369.5 44.2777 368.375 43.2777C365.5 41.0277 346.875 32.1527 335.125 27.5277C301 14.0277 258.5 8.90271 220 13.6527ZM381.125 83.4027C352.25 104.528 332.625 119.778 332.5 120.778C332.5 121.153 336.125 124.153 340.5 127.278C356.75 138.903 372.25 156.403 383.75 176.528L389.125 185.778L383.625 191.528C380.625 194.778 371.875 203.903 364.125 211.778L350.125 226.153L367.5 249.278C434.25 337.778 455.875 366.028 457 366.403C457.75 366.653 461 361.653 464.125 355.278C510.125 261.903 490.125 150.653 414.375 77.7777C408.875 72.4027 403.875 68.0277 403.125 68.0277C402.5 68.0277 392.5 74.9027 381.125 83.4027ZM37 143.778C8.50004 201.528 3.87504 264.778 23.875 324.903C32.375 350.528 44.5 373.403 61.375 395.778C69 405.903 95.125 433.028 97.125 433.028C98.75 432.903 166.75 381.278 167.125 379.903C167.25 379.153 164.5 376.653 160.875 374.278C152.75 368.778 134.625 350.903 128 341.778C121.25 332.528 112.5 317.653 112.5 315.403C112.5 314.403 121.25 304.903 131.875 294.278C142.5 283.653 151.25 274.403 151.25 273.903C151.25 273.278 136 252.778 117.25 228.278C50.25 140.403 43.625 131.778 43.25 131.778C43 131.778 40.25 137.153 37 143.778ZM374.5 338.653C364.125 354.403 341.375 374.653 323.375 384.278L315.25 388.528L294.5 368.778L273.75 349.028L257.25 361.278C248.125 368.153 215.75 392.278 185.25 415.153L129.75 456.653L145.125 464.153C205.375 493.278 270.75 496.653 331.875 474.028C357.25 464.653 380.375 451.528 401.25 434.653C410.875 426.903 432.5 405.153 432.5 403.278C432.5 401.653 380.625 331.778 379.5 331.778C379.25 331.778 377 334.903 374.5 338.653Z" fill="black"/>
</svg>
