<svg width="500" height="501" viewBox="0 0 500 501" fill="none" xmlns="http://www.w3.org/2000/svg">
<g clip-path="url(#clip0_1_11445)">
<path d="M250 500.527C388.071 500.527 500 388.599 500 250.527C500 112.456 388.071 0.527344 250 0.527344C111.929 0.527344 0 112.456 0 250.527C0 388.599 111.929 500.527 250 500.527Z" fill="#D62825"/>
<path d="M211.9 317.928L188.5 327.628L413 161.728H154.7C133.7 161.728 116.6 178.728 116.6 199.828C116.6 209.128 120 215.628 120 215.628C167.3 178.428 237.8 179.228 276.4 179.228L299.8 169.528L75.2998 335.428H369C390 335.428 407.1 318.428 407.1 297.328C407.1 275.128 398.3 263.228 398.3 263.228C360 310.428 284.4 317.928 211.9 317.928Z" fill="white"/>
</g>
<defs>
<clipPath id="clip0_1_11445">
<rect width="500" height="500" fill="white" transform="translate(0 0.527344)"/>
</clipPath>
</defs>
</svg>
